%TF.GenerationSoftware,KiCad,Pcbnew,8.0.5-8.0.5-0~ubuntu22.04.1*%
%TF.CreationDate,2024-10-04T08:55:23+02:00*%
%TF.ProjectId,emptyBoard,656d7074-7942-46f6-9172-642e6b696361,rev?*%
%TF.SameCoordinates,Original*%
%TF.FileFunction,Copper,L2,Bot*%
%TF.FilePolarity,Positive*%
%FSLAX46Y46*%
G04 Gerber Fmt 4.6, Leading zero omitted, Abs format (unit mm)*
G04 Created by KiCad (PCBNEW 8.0.5-8.0.5-0~ubuntu22.04.1) date 2024-10-04 08:55:23*
%MOMM*%
%LPD*%
G01*
G04 APERTURE LIST*
G04 Aperture macros list*
%AMRoundRect*
0 Rectangle with rounded corners*
0 $1 Rounding radius*
0 $2 $3 $4 $5 $6 $7 $8 $9 X,Y pos of 4 corners*
0 Add a 4 corners polygon primitive as box body*
4,1,4,$2,$3,$4,$5,$6,$7,$8,$9,$2,$3,0*
0 Add four circle primitives for the rounded corners*
1,1,$1+$1,$2,$3*
1,1,$1+$1,$4,$5*
1,1,$1+$1,$6,$7*
1,1,$1+$1,$8,$9*
0 Add four rect primitives between the rounded corners*
20,1,$1+$1,$2,$3,$4,$5,0*
20,1,$1+$1,$4,$5,$6,$7,0*
20,1,$1+$1,$6,$7,$8,$9,0*
20,1,$1+$1,$8,$9,$2,$3,0*%
G04 Aperture macros list end*
%TA.AperFunction,ComponentPad*%
%ADD10R,1.700000X1.700000*%
%TD*%
%TA.AperFunction,ComponentPad*%
%ADD11O,1.700000X1.700000*%
%TD*%
%TA.AperFunction,SMDPad,CuDef*%
%ADD12RoundRect,0.250000X-0.650000X0.325000X-0.650000X-0.325000X0.650000X-0.325000X0.650000X0.325000X0*%
%TD*%
%TA.AperFunction,SMDPad,CuDef*%
%ADD13RoundRect,0.250000X0.650000X-0.325000X0.650000X0.325000X-0.650000X0.325000X-0.650000X-0.325000X0*%
%TD*%
%TA.AperFunction,Conductor*%
%ADD14C,1.000000*%
%TD*%
G04 APERTURE END LIST*
D10*
%TO.P,J1,1,Pin_1*%
%TO.N,+5V*%
X92367000Y-53000000D03*
D11*
%TO.P,J1,2,Pin_2*%
X92367000Y-55540000D03*
%TO.P,J1,3,Pin_3*%
%TO.N,/PHI1_e*%
X94907000Y-53000000D03*
%TO.P,J1,4,Pin_4*%
%TO.N,/PHI2_e*%
X94907000Y-55540000D03*
%TO.P,J1,5,Pin_5*%
%TO.N,/~{IORD}*%
X97447000Y-53000000D03*
%TO.P,J1,6,Pin_6*%
%TO.N,/R{slash}~{W}_e*%
X97447000Y-55540000D03*
%TO.P,J1,7,Pin_7*%
%TO.N,/~{MRD}*%
X99987000Y-53000000D03*
%TO.P,J1,8,Pin_8*%
%TO.N,/~{MWR}*%
X99987000Y-55540000D03*
%TO.P,J1,9,Pin_9*%
%TO.N,/~{IOWR}*%
X102527000Y-53000000D03*
%TO.P,J1,10,Pin_10*%
%TO.N,/Bus/DB0*%
X102527000Y-55540000D03*
%TO.P,J1,11,Pin_11*%
%TO.N,/Bus/DB1*%
X105067000Y-53000000D03*
%TO.P,J1,12,Pin_12*%
%TO.N,/Bus/DB2*%
X105067000Y-55540000D03*
%TO.P,J1,13,Pin_13*%
%TO.N,/Bus/DB3*%
X107607000Y-53000000D03*
%TO.P,J1,14,Pin_14*%
%TO.N,/Bus/DB4*%
X107607000Y-55540000D03*
%TO.P,J1,15,Pin_15*%
%TO.N,/Bus/DB5*%
X110147000Y-53000000D03*
%TO.P,J1,16,Pin_16*%
%TO.N,/Bus/DB6*%
X110147000Y-55540000D03*
%TO.P,J1,17,Pin_17*%
%TO.N,/Bus/DB7*%
X112687000Y-53000000D03*
%TO.P,J1,18,Pin_18*%
%TO.N,/~{RST}*%
X112687000Y-55540000D03*
%TO.P,J1,19,Pin_19*%
%TO.N,/A0*%
X115227000Y-53000000D03*
%TO.P,J1,20,Pin_20*%
%TO.N,/A1*%
X115227000Y-55540000D03*
%TO.P,J1,21,Pin_21*%
%TO.N,/A2*%
X117767000Y-53000000D03*
%TO.P,J1,22,Pin_22*%
%TO.N,/A3*%
X117767000Y-55540000D03*
%TO.P,J1,23,Pin_23*%
%TO.N,/A4*%
X120307000Y-53000000D03*
%TO.P,J1,24,Pin_24*%
%TO.N,/A5*%
X120307000Y-55540000D03*
%TO.P,J1,25,Pin_25*%
%TO.N,/A6*%
X122847000Y-53000000D03*
%TO.P,J1,26,Pin_26*%
%TO.N,/A7*%
X122847000Y-55540000D03*
%TO.P,J1,27,Pin_27*%
%TO.N,/A8*%
X125387000Y-53000000D03*
%TO.P,J1,28,Pin_28*%
%TO.N,/A9*%
X125387000Y-55540000D03*
%TO.P,J1,29,Pin_29*%
%TO.N,/A10*%
X127927000Y-53000000D03*
%TO.P,J1,30,Pin_30*%
%TO.N,/A11*%
X127927000Y-55540000D03*
%TO.P,J1,31,Pin_31*%
%TO.N,/A12*%
X130467000Y-53000000D03*
%TO.P,J1,32,Pin_32*%
%TO.N,/A13*%
X130467000Y-55540000D03*
%TO.P,J1,33,Pin_33*%
%TO.N,/A14*%
X133007000Y-53000000D03*
%TO.P,J1,34,Pin_34*%
%TO.N,/A15*%
X133007000Y-55540000D03*
%TO.P,J1,35,Pin_35*%
%TO.N,/A16*%
X135547000Y-53000000D03*
%TO.P,J1,36,Pin_36*%
%TO.N,/A17*%
X135547000Y-55540000D03*
%TO.P,J1,37,Pin_37*%
%TO.N,/A18*%
X138087000Y-53000000D03*
%TO.P,J1,38,Pin_38*%
%TO.N,/A19*%
X138087000Y-55540000D03*
%TO.P,J1,39,Pin_39*%
%TO.N,GND*%
X140627000Y-53000000D03*
%TO.P,J1,40,Pin_40*%
X140627000Y-55540000D03*
%TD*%
D10*
%TO.P,J4,1,Pin_1*%
%TO.N,GND*%
X140627000Y-141000000D03*
D11*
%TO.P,J4,2,Pin_2*%
X140627000Y-138460000D03*
%TO.P,J4,3,Pin_3*%
%TO.N,+3V3*%
X138087000Y-141000000D03*
%TO.P,J4,4,Pin_4*%
X138087000Y-138460000D03*
%TO.P,J4,5,Pin_5*%
%TO.N,/Bus/~{CE_EXT1}*%
X135547000Y-141000000D03*
%TO.P,J4,6,Pin_6*%
%TO.N,/Bus/~{CE_EXT0}*%
X135547000Y-138460000D03*
%TO.P,J4,7,Pin_7*%
%TO.N,/Bus/~{CE_EXT3}*%
X133007000Y-141000000D03*
%TO.P,J4,8,Pin_8*%
%TO.N,/Bus/~{CE_EXT2}*%
X133007000Y-138460000D03*
%TO.P,J4,9,Pin_9*%
%TO.N,/Bus/~{CE_EXT5}*%
X130467000Y-141000000D03*
%TO.P,J4,10,Pin_10*%
%TO.N,/Bus/~{CE_EXT4}*%
X130467000Y-138460000D03*
%TO.P,J4,11,Pin_11*%
%TO.N,/Bus/~{CE_EXT7}*%
X127927000Y-141000000D03*
%TO.P,J4,12,Pin_12*%
%TO.N,/Bus/~{CE_EXT6}*%
X127927000Y-138460000D03*
%TO.P,J4,13,Pin_13*%
%TO.N,/Bus/~{CE_EXT9}*%
X125387000Y-141000000D03*
%TO.P,J4,14,Pin_14*%
%TO.N,/Bus/~{CE_EXT8}*%
X125387000Y-138460000D03*
%TO.P,J4,15,Pin_15*%
%TO.N,/Bus/~{CE_EXT11}*%
X122847000Y-141000000D03*
%TO.P,J4,16,Pin_16*%
%TO.N,/Bus/~{CE_EXT10}*%
X122847000Y-138460000D03*
%TO.P,J4,17,Pin_17*%
%TO.N,/Bus/~{CE_EXT13}*%
X120307000Y-141000000D03*
%TO.P,J4,18,Pin_18*%
%TO.N,/Bus/~{CE_EXT12}*%
X120307000Y-138460000D03*
%TO.P,J4,19,Pin_19*%
%TO.N,/RES4*%
X117767000Y-141000000D03*
%TO.P,J4,20,Pin_20*%
%TO.N,/RES5*%
X117767000Y-138460000D03*
%TO.P,J4,21,Pin_21*%
%TO.N,/RES2*%
X115227000Y-141000000D03*
%TO.P,J4,22,Pin_22*%
%TO.N,/RES3*%
X115227000Y-138460000D03*
%TO.P,J4,23,Pin_23*%
%TO.N,/RES0*%
X112687000Y-141000000D03*
%TO.P,J4,24,Pin_24*%
%TO.N,/RES1*%
X112687000Y-138460000D03*
%TO.P,J4,25,Pin_25*%
%TO.N,/CLK1*%
X110147000Y-141000000D03*
%TO.P,J4,26,Pin_26*%
%TO.N,/~{BUSFREE}*%
X110147000Y-138460000D03*
%TO.P,J4,27,Pin_27*%
%TO.N,/CLKF*%
X107607000Y-141000000D03*
%TO.P,J4,28,Pin_28*%
%TO.N,/CLKS*%
X107607000Y-138460000D03*
%TO.P,J4,29,Pin_29*%
%TO.N,/~{PH0}*%
X105067000Y-141000000D03*
%TO.P,J4,30,Pin_30*%
%TO.N,/PH0*%
X105067000Y-138460000D03*
%TO.P,J4,31,Pin_31*%
%TO.N,/SDA*%
X102527000Y-141000000D03*
%TO.P,J4,32,Pin_32*%
%TO.N,/SCL*%
X102527000Y-138460000D03*
%TO.P,J4,33,Pin_33*%
%TO.N,/TX1*%
X99987000Y-141000000D03*
%TO.P,J4,34,Pin_34*%
%TO.N,/RX1*%
X99987000Y-138460000D03*
%TO.P,J4,35,Pin_35*%
%TO.N,/TX0*%
X97447000Y-141000000D03*
%TO.P,J4,36,Pin_36*%
%TO.N,/RX0*%
X97447000Y-138460000D03*
%TO.P,J4,37,Pin_37*%
%TO.N,/TXSTM*%
X94907000Y-141000000D03*
%TO.P,J4,38,Pin_38*%
%TO.N,/RXSTM*%
X94907000Y-138460000D03*
%TO.P,J4,39,Pin_39*%
%TO.N,+5VA*%
X92367000Y-141000000D03*
%TO.P,J4,40,Pin_40*%
X92367000Y-138460000D03*
%TD*%
D10*
%TO.P,J2,1,Pin_1*%
%TO.N,GND*%
X140627000Y-147000000D03*
D11*
%TO.P,J2,2,Pin_2*%
X140627000Y-144460000D03*
%TO.P,J2,3,Pin_3*%
%TO.N,+3V3*%
X138087000Y-147000000D03*
%TO.P,J2,4,Pin_4*%
X138087000Y-144460000D03*
%TO.P,J2,5,Pin_5*%
%TO.N,/Bus/~{CE_EXT1}*%
X135547000Y-147000000D03*
%TO.P,J2,6,Pin_6*%
%TO.N,/Bus/~{CE_EXT0}*%
X135547000Y-144460000D03*
%TO.P,J2,7,Pin_7*%
%TO.N,/Bus/~{CE_EXT3}*%
X133007000Y-147000000D03*
%TO.P,J2,8,Pin_8*%
%TO.N,/Bus/~{CE_EXT2}*%
X133007000Y-144460000D03*
%TO.P,J2,9,Pin_9*%
%TO.N,/Bus/~{CE_EXT5}*%
X130467000Y-147000000D03*
%TO.P,J2,10,Pin_10*%
%TO.N,/Bus/~{CE_EXT4}*%
X130467000Y-144460000D03*
%TO.P,J2,11,Pin_11*%
%TO.N,/Bus/~{CE_EXT7}*%
X127927000Y-147000000D03*
%TO.P,J2,12,Pin_12*%
%TO.N,/Bus/~{CE_EXT6}*%
X127927000Y-144460000D03*
%TO.P,J2,13,Pin_13*%
%TO.N,/Bus/~{CE_EXT9}*%
X125387000Y-147000000D03*
%TO.P,J2,14,Pin_14*%
%TO.N,/Bus/~{CE_EXT8}*%
X125387000Y-144460000D03*
%TO.P,J2,15,Pin_15*%
%TO.N,/Bus/~{CE_EXT11}*%
X122847000Y-147000000D03*
%TO.P,J2,16,Pin_16*%
%TO.N,/Bus/~{CE_EXT10}*%
X122847000Y-144460000D03*
%TO.P,J2,17,Pin_17*%
%TO.N,/Bus/~{CE_EXT13}*%
X120307000Y-147000000D03*
%TO.P,J2,18,Pin_18*%
%TO.N,/Bus/~{CE_EXT12}*%
X120307000Y-144460000D03*
%TO.P,J2,19,Pin_19*%
%TO.N,/RES4*%
X117767000Y-147000000D03*
%TO.P,J2,20,Pin_20*%
%TO.N,/RES5*%
X117767000Y-144460000D03*
%TO.P,J2,21,Pin_21*%
%TO.N,/RES2*%
X115227000Y-147000000D03*
%TO.P,J2,22,Pin_22*%
%TO.N,/RES3*%
X115227000Y-144460000D03*
%TO.P,J2,23,Pin_23*%
%TO.N,/RES0*%
X112687000Y-147000000D03*
%TO.P,J2,24,Pin_24*%
%TO.N,/RES1*%
X112687000Y-144460000D03*
%TO.P,J2,25,Pin_25*%
%TO.N,/CLK1*%
X110147000Y-147000000D03*
%TO.P,J2,26,Pin_26*%
%TO.N,/~{BUSFREE}*%
X110147000Y-144460000D03*
%TO.P,J2,27,Pin_27*%
%TO.N,/CLKF*%
X107607000Y-147000000D03*
%TO.P,J2,28,Pin_28*%
%TO.N,/CLKS*%
X107607000Y-144460000D03*
%TO.P,J2,29,Pin_29*%
%TO.N,/~{PH0}*%
X105067000Y-147000000D03*
%TO.P,J2,30,Pin_30*%
%TO.N,/PH0*%
X105067000Y-144460000D03*
%TO.P,J2,31,Pin_31*%
%TO.N,/SDA*%
X102527000Y-147000000D03*
%TO.P,J2,32,Pin_32*%
%TO.N,/SCL*%
X102527000Y-144460000D03*
%TO.P,J2,33,Pin_33*%
%TO.N,/TX1*%
X99987000Y-147000000D03*
%TO.P,J2,34,Pin_34*%
%TO.N,/RX1*%
X99987000Y-144460000D03*
%TO.P,J2,35,Pin_35*%
%TO.N,/TX0*%
X97447000Y-147000000D03*
%TO.P,J2,36,Pin_36*%
%TO.N,/RX0*%
X97447000Y-144460000D03*
%TO.P,J2,37,Pin_37*%
%TO.N,/TXSTM*%
X94907000Y-147000000D03*
%TO.P,J2,38,Pin_38*%
%TO.N,/RXSTM*%
X94907000Y-144460000D03*
%TO.P,J2,39,Pin_39*%
%TO.N,+5VA*%
X92367000Y-147000000D03*
%TO.P,J2,40,Pin_40*%
X92367000Y-144460000D03*
%TD*%
D10*
%TO.P,J3,1,Pin_1*%
%TO.N,+5V*%
X92367000Y-59000000D03*
D11*
%TO.P,J3,2,Pin_2*%
X92367000Y-61540000D03*
%TO.P,J3,3,Pin_3*%
%TO.N,/PHI1_e*%
X94907000Y-59000000D03*
%TO.P,J3,4,Pin_4*%
%TO.N,/PHI2_e*%
X94907000Y-61540000D03*
%TO.P,J3,5,Pin_5*%
%TO.N,/~{IORD}*%
X97447000Y-59000000D03*
%TO.P,J3,6,Pin_6*%
%TO.N,/R{slash}~{W}_e*%
X97447000Y-61540000D03*
%TO.P,J3,7,Pin_7*%
%TO.N,/~{MRD}*%
X99987000Y-59000000D03*
%TO.P,J3,8,Pin_8*%
%TO.N,/~{MWR}*%
X99987000Y-61540000D03*
%TO.P,J3,9,Pin_9*%
%TO.N,/~{IOWR}*%
X102527000Y-59000000D03*
%TO.P,J3,10,Pin_10*%
%TO.N,/Bus/DB0*%
X102527000Y-61540000D03*
%TO.P,J3,11,Pin_11*%
%TO.N,/Bus/DB1*%
X105067000Y-59000000D03*
%TO.P,J3,12,Pin_12*%
%TO.N,/Bus/DB2*%
X105067000Y-61540000D03*
%TO.P,J3,13,Pin_13*%
%TO.N,/Bus/DB3*%
X107607000Y-59000000D03*
%TO.P,J3,14,Pin_14*%
%TO.N,/Bus/DB4*%
X107607000Y-61540000D03*
%TO.P,J3,15,Pin_15*%
%TO.N,/Bus/DB5*%
X110147000Y-59000000D03*
%TO.P,J3,16,Pin_16*%
%TO.N,/Bus/DB6*%
X110147000Y-61540000D03*
%TO.P,J3,17,Pin_17*%
%TO.N,/Bus/DB7*%
X112687000Y-59000000D03*
%TO.P,J3,18,Pin_18*%
%TO.N,/~{RST}*%
X112687000Y-61540000D03*
%TO.P,J3,19,Pin_19*%
%TO.N,/A0*%
X115227000Y-59000000D03*
%TO.P,J3,20,Pin_20*%
%TO.N,/A1*%
X115227000Y-61540000D03*
%TO.P,J3,21,Pin_21*%
%TO.N,/A2*%
X117767000Y-59000000D03*
%TO.P,J3,22,Pin_22*%
%TO.N,/A3*%
X117767000Y-61540000D03*
%TO.P,J3,23,Pin_23*%
%TO.N,/A4*%
X120307000Y-59000000D03*
%TO.P,J3,24,Pin_24*%
%TO.N,/A5*%
X120307000Y-61540000D03*
%TO.P,J3,25,Pin_25*%
%TO.N,/A6*%
X122847000Y-59000000D03*
%TO.P,J3,26,Pin_26*%
%TO.N,/A7*%
X122847000Y-61540000D03*
%TO.P,J3,27,Pin_27*%
%TO.N,/A8*%
X125387000Y-59000000D03*
%TO.P,J3,28,Pin_28*%
%TO.N,/A9*%
X125387000Y-61540000D03*
%TO.P,J3,29,Pin_29*%
%TO.N,/A10*%
X127927000Y-59000000D03*
%TO.P,J3,30,Pin_30*%
%TO.N,/A11*%
X127927000Y-61540000D03*
%TO.P,J3,31,Pin_31*%
%TO.N,/A12*%
X130467000Y-59000000D03*
%TO.P,J3,32,Pin_32*%
%TO.N,/A13*%
X130467000Y-61540000D03*
%TO.P,J3,33,Pin_33*%
%TO.N,/A14*%
X133007000Y-59000000D03*
%TO.P,J3,34,Pin_34*%
%TO.N,/A15*%
X133007000Y-61540000D03*
%TO.P,J3,35,Pin_35*%
%TO.N,/A16*%
X135547000Y-59000000D03*
%TO.P,J3,36,Pin_36*%
%TO.N,/A17*%
X135547000Y-61540000D03*
%TO.P,J3,37,Pin_37*%
%TO.N,/A18*%
X138087000Y-59000000D03*
%TO.P,J3,38,Pin_38*%
%TO.N,/A19*%
X138087000Y-61540000D03*
%TO.P,J3,39,Pin_39*%
%TO.N,GND*%
X140627000Y-59000000D03*
%TO.P,J3,40,Pin_40*%
X140627000Y-61540000D03*
%TD*%
D12*
%TO.P,C2,1*%
%TO.N,+5VA*%
X88800000Y-144300000D03*
%TO.P,C2,2*%
%TO.N,GND*%
X88800000Y-147250000D03*
%TD*%
D13*
%TO.P,C1,1*%
%TO.N,+5V*%
X89000000Y-55600000D03*
%TO.P,C1,2*%
%TO.N,GND*%
X89000000Y-52650000D03*
%TD*%
D14*
%TO.N,GND*%
X90850000Y-50800000D02*
X89000000Y-52650000D01*
X140627000Y-147000000D02*
X138427000Y-149200000D01*
X140627000Y-53000000D02*
X138427000Y-50800000D01*
X138427000Y-149200000D02*
X90750000Y-149200000D01*
X138427000Y-50800000D02*
X90850000Y-50800000D01*
X90750000Y-149200000D02*
X88800000Y-147250000D01*
%TO.N,+5V*%
X89000000Y-55600000D02*
X92307000Y-55600000D01*
%TO.N,+5VA*%
X88800000Y-144300000D02*
X92207000Y-144300000D01*
%TD*%
%TA.AperFunction,Conductor*%
%TO.N,GND*%
G36*
X140881000Y-146569297D02*
G01*
X140819993Y-146534075D01*
X140692826Y-146500000D01*
X140561174Y-146500000D01*
X140434007Y-146534075D01*
X140373000Y-146569297D01*
X140373000Y-144890702D01*
X140434007Y-144925925D01*
X140561174Y-144960000D01*
X140692826Y-144960000D01*
X140819993Y-144925925D01*
X140881000Y-144890702D01*
X140881000Y-146569297D01*
G37*
%TD.AperFunction*%
%TA.AperFunction,Conductor*%
G36*
X140881000Y-140569297D02*
G01*
X140819993Y-140534075D01*
X140692826Y-140500000D01*
X140561174Y-140500000D01*
X140434007Y-140534075D01*
X140373000Y-140569297D01*
X140373000Y-138890702D01*
X140434007Y-138925925D01*
X140561174Y-138960000D01*
X140692826Y-138960000D01*
X140819993Y-138925925D01*
X140881000Y-138890702D01*
X140881000Y-140569297D01*
G37*
%TD.AperFunction*%
%TA.AperFunction,Conductor*%
G36*
X140881000Y-61109297D02*
G01*
X140819993Y-61074075D01*
X140692826Y-61040000D01*
X140561174Y-61040000D01*
X140434007Y-61074075D01*
X140373000Y-61109297D01*
X140373000Y-59430702D01*
X140434007Y-59465925D01*
X140561174Y-59500000D01*
X140692826Y-59500000D01*
X140819993Y-59465925D01*
X140881000Y-59430702D01*
X140881000Y-61109297D01*
G37*
%TD.AperFunction*%
%TA.AperFunction,Conductor*%
G36*
X140881000Y-55109297D02*
G01*
X140819993Y-55074075D01*
X140692826Y-55040000D01*
X140561174Y-55040000D01*
X140434007Y-55074075D01*
X140373000Y-55109297D01*
X140373000Y-53430702D01*
X140434007Y-53465925D01*
X140561174Y-53500000D01*
X140692826Y-53500000D01*
X140819993Y-53465925D01*
X140881000Y-53430702D01*
X140881000Y-55109297D01*
G37*
%TD.AperFunction*%
%TA.AperFunction,Conductor*%
G36*
X146000733Y-50000008D02*
G01*
X146190997Y-50002342D01*
X146201771Y-50002939D01*
X146581133Y-50040302D01*
X146593321Y-50042110D01*
X146966443Y-50116328D01*
X146978435Y-50119333D01*
X147342451Y-50229756D01*
X147354078Y-50233916D01*
X147705543Y-50379497D01*
X147716704Y-50384776D01*
X148052199Y-50564103D01*
X148062790Y-50570451D01*
X148379092Y-50781797D01*
X148389023Y-50789163D01*
X148683071Y-51030481D01*
X148692233Y-51038785D01*
X148961214Y-51307766D01*
X148969518Y-51316928D01*
X149210836Y-51610976D01*
X149218202Y-51620907D01*
X149372386Y-51851660D01*
X149429544Y-51937202D01*
X149435900Y-51947806D01*
X149497667Y-52063363D01*
X149615219Y-52283287D01*
X149620506Y-52294465D01*
X149766080Y-52645914D01*
X149770245Y-52657556D01*
X149880666Y-53021565D01*
X149883671Y-53033559D01*
X149957885Y-53406654D01*
X149959699Y-53418886D01*
X149997059Y-53798212D01*
X149997657Y-53809016D01*
X149999991Y-53999265D01*
X150000000Y-54000811D01*
X150000000Y-145999264D01*
X149999990Y-146000813D01*
X149997652Y-146190973D01*
X149997055Y-146201774D01*
X149959694Y-146581111D01*
X149957880Y-146593343D01*
X149883666Y-146966439D01*
X149880662Y-146978433D01*
X149806057Y-147224375D01*
X149770242Y-147342441D01*
X149766076Y-147354083D01*
X149620501Y-147705531D01*
X149615214Y-147716709D01*
X149435896Y-148052188D01*
X149429539Y-148062794D01*
X149218198Y-148379088D01*
X149210832Y-148389019D01*
X148969514Y-148683067D01*
X148961210Y-148692229D01*
X148692229Y-148961210D01*
X148683067Y-148969514D01*
X148389019Y-149210832D01*
X148379088Y-149218198D01*
X148062794Y-149429539D01*
X148052188Y-149435896D01*
X147716709Y-149615214D01*
X147705531Y-149620501D01*
X147354083Y-149766076D01*
X147342449Y-149770238D01*
X147024037Y-149866828D01*
X146978433Y-149880662D01*
X146966439Y-149883666D01*
X146593343Y-149957880D01*
X146581111Y-149959694D01*
X146201787Y-149997054D01*
X146190983Y-149997652D01*
X146096462Y-149998811D01*
X146000302Y-149999991D01*
X145998806Y-150000000D01*
X54000811Y-150000000D01*
X53999267Y-149999991D01*
X53989722Y-149999873D01*
X53809016Y-149997657D01*
X53798212Y-149997059D01*
X53525756Y-149970224D01*
X53418884Y-149959698D01*
X53406661Y-149957886D01*
X53258463Y-149928407D01*
X53033559Y-149883671D01*
X53021565Y-149880666D01*
X52657556Y-149770245D01*
X52645914Y-149766080D01*
X52294465Y-149620506D01*
X52283287Y-149615219D01*
X51947808Y-149435901D01*
X51937202Y-149429544D01*
X51620907Y-149218202D01*
X51610976Y-149210836D01*
X51316928Y-148969518D01*
X51307766Y-148961214D01*
X51038785Y-148692233D01*
X51030481Y-148683071D01*
X50789163Y-148389023D01*
X50781797Y-148379092D01*
X50570451Y-148062790D01*
X50564103Y-148052199D01*
X50384776Y-147716704D01*
X50379497Y-147705543D01*
X50233916Y-147354078D01*
X50229754Y-147342443D01*
X50229753Y-147342441D01*
X50119333Y-146978433D01*
X50116328Y-146966440D01*
X50116328Y-146966439D01*
X50042110Y-146593321D01*
X50040302Y-146581133D01*
X50002939Y-146201771D01*
X50002342Y-146190997D01*
X50000009Y-146000733D01*
X50000000Y-145999188D01*
X50000000Y-145878709D01*
X52149500Y-145878709D01*
X52149500Y-146121290D01*
X52181160Y-146361782D01*
X52243944Y-146596095D01*
X52243945Y-146596097D01*
X52243946Y-146596100D01*
X52336776Y-146820212D01*
X52336777Y-146820213D01*
X52336782Y-146820224D01*
X52458061Y-147030285D01*
X52458063Y-147030288D01*
X52458064Y-147030289D01*
X52605735Y-147222738D01*
X52605739Y-147222742D01*
X52605744Y-147222748D01*
X52777251Y-147394255D01*
X52777256Y-147394259D01*
X52777262Y-147394265D01*
X52915059Y-147500000D01*
X52969714Y-147541938D01*
X53179775Y-147663217D01*
X53179779Y-147663218D01*
X53179788Y-147663224D01*
X53403900Y-147756054D01*
X53638211Y-147818838D01*
X53638215Y-147818838D01*
X53638217Y-147818839D01*
X53700202Y-147826999D01*
X53878712Y-147850500D01*
X53878719Y-147850500D01*
X54121281Y-147850500D01*
X54121288Y-147850500D01*
X54338637Y-147821885D01*
X54361782Y-147818839D01*
X54361782Y-147818838D01*
X54361789Y-147818838D01*
X54596100Y-147756054D01*
X54820212Y-147663224D01*
X54885524Y-147625516D01*
X87392000Y-147625516D01*
X87402605Y-147729318D01*
X87402606Y-147729321D01*
X87458342Y-147897525D01*
X87551365Y-148048339D01*
X87551370Y-148048345D01*
X87676654Y-148173629D01*
X87676660Y-148173634D01*
X87827474Y-148266657D01*
X87995678Y-148322393D01*
X87995681Y-148322394D01*
X88099483Y-148332999D01*
X88099483Y-148333000D01*
X88546000Y-148333000D01*
X89054000Y-148333000D01*
X89500517Y-148333000D01*
X89500516Y-148332999D01*
X89604318Y-148322394D01*
X89604321Y-148322393D01*
X89772525Y-148266657D01*
X89923339Y-148173634D01*
X89923345Y-148173629D01*
X90048629Y-148048345D01*
X90048634Y-148048339D01*
X90141657Y-147897525D01*
X90197393Y-147729321D01*
X90197394Y-147729318D01*
X90207999Y-147625516D01*
X90208000Y-147625516D01*
X90208000Y-147504000D01*
X89054000Y-147504000D01*
X89054000Y-148333000D01*
X88546000Y-148333000D01*
X88546000Y-147504000D01*
X87392000Y-147504000D01*
X87392000Y-147625516D01*
X54885524Y-147625516D01*
X55030289Y-147541936D01*
X55222738Y-147394265D01*
X55394265Y-147222738D01*
X55541936Y-147030289D01*
X55631891Y-146874483D01*
X87392000Y-146874483D01*
X87392000Y-146996000D01*
X88546000Y-146996000D01*
X89054000Y-146996000D01*
X90208000Y-146996000D01*
X90208000Y-146874483D01*
X90197394Y-146770681D01*
X90197393Y-146770678D01*
X90141657Y-146602474D01*
X90048634Y-146451660D01*
X90048629Y-146451654D01*
X89923345Y-146326370D01*
X89923339Y-146326365D01*
X89772525Y-146233342D01*
X89604321Y-146177606D01*
X89604318Y-146177605D01*
X89500516Y-146167000D01*
X89054000Y-146167000D01*
X89054000Y-146996000D01*
X88546000Y-146996000D01*
X88546000Y-146167000D01*
X88099483Y-146167000D01*
X87995681Y-146177605D01*
X87995678Y-146177606D01*
X87827474Y-146233342D01*
X87676660Y-146326365D01*
X87676654Y-146326370D01*
X87551370Y-146451654D01*
X87551365Y-146451660D01*
X87458342Y-146602474D01*
X87402606Y-146770678D01*
X87402605Y-146770681D01*
X87392000Y-146874483D01*
X55631891Y-146874483D01*
X55663224Y-146820212D01*
X55756054Y-146596100D01*
X55818838Y-146361789D01*
X55850500Y-146121288D01*
X55850500Y-145878712D01*
X55821236Y-145656423D01*
X55818839Y-145638217D01*
X55818838Y-145638215D01*
X55818838Y-145638211D01*
X55756054Y-145403900D01*
X55663224Y-145179788D01*
X55663218Y-145179779D01*
X55663217Y-145179775D01*
X55541938Y-144969714D01*
X55541936Y-144969711D01*
X55394265Y-144777262D01*
X55394259Y-144777256D01*
X55394255Y-144777251D01*
X55222748Y-144605744D01*
X55222742Y-144605739D01*
X55222738Y-144605735D01*
X55030289Y-144458064D01*
X55030288Y-144458063D01*
X55030285Y-144458061D01*
X54820224Y-144336782D01*
X54820216Y-144336778D01*
X54820212Y-144336776D01*
X54596100Y-144243946D01*
X54596097Y-144243945D01*
X54596095Y-144243944D01*
X54361782Y-144181160D01*
X54121290Y-144149500D01*
X54121288Y-144149500D01*
X53878712Y-144149500D01*
X53878709Y-144149500D01*
X53638217Y-144181160D01*
X53403904Y-144243944D01*
X53403900Y-144243946D01*
X53179786Y-144336777D01*
X53179775Y-144336782D01*
X52969714Y-144458061D01*
X52777262Y-144605735D01*
X52777251Y-144605744D01*
X52605744Y-144777251D01*
X52605735Y-144777262D01*
X52458061Y-144969714D01*
X52336782Y-145179775D01*
X52336777Y-145179786D01*
X52336776Y-145179788D01*
X52275177Y-145328502D01*
X52243946Y-145403900D01*
X52243944Y-145403904D01*
X52181160Y-145638217D01*
X52149500Y-145878709D01*
X50000000Y-145878709D01*
X50000000Y-143924446D01*
X87391500Y-143924446D01*
X87391500Y-144675544D01*
X87402112Y-144779425D01*
X87457885Y-144947738D01*
X87550970Y-145098652D01*
X87550975Y-145098658D01*
X87676341Y-145224024D01*
X87676347Y-145224029D01*
X87676348Y-145224030D01*
X87827262Y-145317115D01*
X87995574Y-145372887D01*
X88099455Y-145383500D01*
X89500544Y-145383499D01*
X89604426Y-145372887D01*
X89772738Y-145317115D01*
X89772740Y-145317113D01*
X89779435Y-145314895D01*
X89819068Y-145308500D01*
X91246349Y-145308500D01*
X91314470Y-145328502D01*
X91339049Y-145349162D01*
X91389444Y-145403904D01*
X91443760Y-145462906D01*
X91621424Y-145601189D01*
X91644868Y-145613876D01*
X91654680Y-145619186D01*
X91705071Y-145669200D01*
X91720423Y-145738516D01*
X91695862Y-145805129D01*
X91654680Y-145840813D01*
X91621426Y-145858810D01*
X91621424Y-145858811D01*
X91443762Y-145997091D01*
X91291279Y-146162729D01*
X91291275Y-146162734D01*
X91168141Y-146351206D01*
X91077703Y-146557386D01*
X91077702Y-146557387D01*
X91022437Y-146775624D01*
X91022436Y-146775630D01*
X91022436Y-146775632D01*
X91003844Y-147000000D01*
X91019836Y-147192993D01*
X91022437Y-147224375D01*
X91077702Y-147442612D01*
X91077703Y-147442613D01*
X91077704Y-147442616D01*
X91157931Y-147625516D01*
X91168141Y-147648793D01*
X91291275Y-147837265D01*
X91291279Y-147837270D01*
X91443762Y-148002908D01*
X91498331Y-148045381D01*
X91621424Y-148141189D01*
X91819426Y-148248342D01*
X91819427Y-148248342D01*
X91819428Y-148248343D01*
X91931227Y-148286723D01*
X92032365Y-148321444D01*
X92254431Y-148358500D01*
X92254435Y-148358500D01*
X92479565Y-148358500D01*
X92479569Y-148358500D01*
X92701635Y-148321444D01*
X92914574Y-148248342D01*
X93112576Y-148141189D01*
X93290240Y-148002906D01*
X93442722Y-147837268D01*
X93531518Y-147701354D01*
X93585520Y-147655268D01*
X93655868Y-147645692D01*
X93720225Y-147675669D01*
X93742480Y-147701353D01*
X93745218Y-147705543D01*
X93831275Y-147837265D01*
X93831279Y-147837270D01*
X93983762Y-148002908D01*
X94038331Y-148045381D01*
X94161424Y-148141189D01*
X94359426Y-148248342D01*
X94359427Y-148248342D01*
X94359428Y-148248343D01*
X94471227Y-148286723D01*
X94572365Y-148321444D01*
X94794431Y-148358500D01*
X94794435Y-148358500D01*
X95019565Y-148358500D01*
X95019569Y-148358500D01*
X95241635Y-148321444D01*
X95454574Y-148248342D01*
X95652576Y-148141189D01*
X95830240Y-148002906D01*
X95982722Y-147837268D01*
X96071518Y-147701354D01*
X96125520Y-147655268D01*
X96195868Y-147645692D01*
X96260225Y-147675669D01*
X96282480Y-147701353D01*
X96285218Y-147705543D01*
X96371275Y-147837265D01*
X96371279Y-147837270D01*
X96523762Y-148002908D01*
X96578331Y-148045381D01*
X96701424Y-148141189D01*
X96899426Y-148248342D01*
X96899427Y-148248342D01*
X96899428Y-148248343D01*
X97011227Y-148286723D01*
X97112365Y-148321444D01*
X97334431Y-148358500D01*
X97334435Y-148358500D01*
X97559565Y-148358500D01*
X97559569Y-148358500D01*
X97781635Y-148321444D01*
X97994574Y-148248342D01*
X98192576Y-148141189D01*
X98370240Y-148002906D01*
X98522722Y-147837268D01*
X98611518Y-147701354D01*
X98665520Y-147655268D01*
X98735868Y-147645692D01*
X98800225Y-147675669D01*
X98822480Y-147701353D01*
X98825218Y-147705543D01*
X98911275Y-147837265D01*
X98911279Y-147837270D01*
X99063762Y-148002908D01*
X99118331Y-148045381D01*
X99241424Y-148141189D01*
X99439426Y-148248342D01*
X99439427Y-148248342D01*
X99439428Y-148248343D01*
X99551227Y-148286723D01*
X99652365Y-148321444D01*
X99874431Y-148358500D01*
X99874435Y-148358500D01*
X100099565Y-148358500D01*
X100099569Y-148358500D01*
X100321635Y-148321444D01*
X100534574Y-148248342D01*
X100732576Y-148141189D01*
X100910240Y-148002906D01*
X101062722Y-147837268D01*
X101151518Y-147701354D01*
X101205520Y-147655268D01*
X101275868Y-147645692D01*
X101340225Y-147675669D01*
X101362480Y-147701353D01*
X101365218Y-147705543D01*
X101451275Y-147837265D01*
X101451279Y-147837270D01*
X101603762Y-148002908D01*
X101658331Y-148045381D01*
X101781424Y-148141189D01*
X101979426Y-148248342D01*
X101979427Y-148248342D01*
X101979428Y-148248343D01*
X102091227Y-148286723D01*
X102192365Y-148321444D01*
X102414431Y-148358500D01*
X102414435Y-148358500D01*
X102639565Y-148358500D01*
X102639569Y-148358500D01*
X102861635Y-148321444D01*
X103074574Y-148248342D01*
X103272576Y-148141189D01*
X103450240Y-148002906D01*
X103602722Y-147837268D01*
X103691518Y-147701354D01*
X103745520Y-147655268D01*
X103815868Y-147645692D01*
X103880225Y-147675669D01*
X103902480Y-147701353D01*
X103905218Y-147705543D01*
X103991275Y-147837265D01*
X103991279Y-147837270D01*
X104143762Y-148002908D01*
X104198331Y-148045381D01*
X104321424Y-148141189D01*
X104519426Y-148248342D01*
X104519427Y-148248342D01*
X104519428Y-148248343D01*
X104631227Y-148286723D01*
X104732365Y-148321444D01*
X104954431Y-148358500D01*
X104954435Y-148358500D01*
X105179565Y-148358500D01*
X105179569Y-148358500D01*
X105401635Y-148321444D01*
X105614574Y-148248342D01*
X105812576Y-148141189D01*
X105990240Y-148002906D01*
X106142722Y-147837268D01*
X106231518Y-147701354D01*
X106285520Y-147655268D01*
X106355868Y-147645692D01*
X106420225Y-147675669D01*
X106442480Y-147701353D01*
X106445218Y-147705543D01*
X106531275Y-147837265D01*
X106531279Y-147837270D01*
X106683762Y-148002908D01*
X106738331Y-148045381D01*
X106861424Y-148141189D01*
X107059426Y-148248342D01*
X107059427Y-148248342D01*
X107059428Y-148248343D01*
X107171227Y-148286723D01*
X107272365Y-148321444D01*
X107494431Y-148358500D01*
X107494435Y-148358500D01*
X107719565Y-148358500D01*
X107719569Y-148358500D01*
X107941635Y-148321444D01*
X108154574Y-148248342D01*
X108352576Y-148141189D01*
X108530240Y-148002906D01*
X108682722Y-147837268D01*
X108771518Y-147701354D01*
X108825520Y-147655268D01*
X108895868Y-147645692D01*
X108960225Y-147675669D01*
X108982480Y-147701353D01*
X108985218Y-147705543D01*
X109071275Y-147837265D01*
X109071279Y-147837270D01*
X109223762Y-148002908D01*
X109278331Y-148045381D01*
X109401424Y-148141189D01*
X109599426Y-148248342D01*
X109599427Y-148248342D01*
X109599428Y-148248343D01*
X109711227Y-148286723D01*
X109812365Y-148321444D01*
X110034431Y-148358500D01*
X110034435Y-148358500D01*
X110259565Y-148358500D01*
X110259569Y-148358500D01*
X110481635Y-148321444D01*
X110694574Y-148248342D01*
X110892576Y-148141189D01*
X111070240Y-148002906D01*
X111222722Y-147837268D01*
X111311518Y-147701354D01*
X111365520Y-147655268D01*
X111435868Y-147645692D01*
X111500225Y-147675669D01*
X111522480Y-147701353D01*
X111525218Y-147705543D01*
X111611275Y-147837265D01*
X111611279Y-147837270D01*
X111763762Y-148002908D01*
X111818331Y-148045381D01*
X111941424Y-148141189D01*
X112139426Y-148248342D01*
X112139427Y-148248342D01*
X112139428Y-148248343D01*
X112251227Y-148286723D01*
X112352365Y-148321444D01*
X112574431Y-148358500D01*
X112574435Y-148358500D01*
X112799565Y-148358500D01*
X112799569Y-148358500D01*
X113021635Y-148321444D01*
X113234574Y-148248342D01*
X113432576Y-148141189D01*
X113610240Y-148002906D01*
X113762722Y-147837268D01*
X113851518Y-147701354D01*
X113905520Y-147655268D01*
X113975868Y-147645692D01*
X114040225Y-147675669D01*
X114062480Y-147701353D01*
X114065218Y-147705543D01*
X114151275Y-147837265D01*
X114151279Y-147837270D01*
X114303762Y-148002908D01*
X114358331Y-148045381D01*
X114481424Y-148141189D01*
X114679426Y-148248342D01*
X114679427Y-148248342D01*
X114679428Y-148248343D01*
X114791227Y-148286723D01*
X114892365Y-148321444D01*
X115114431Y-148358500D01*
X115114435Y-148358500D01*
X115339565Y-148358500D01*
X115339569Y-148358500D01*
X115561635Y-148321444D01*
X115774574Y-148248342D01*
X115972576Y-148141189D01*
X116150240Y-148002906D01*
X116302722Y-147837268D01*
X116391518Y-147701354D01*
X116445520Y-147655268D01*
X116515868Y-147645692D01*
X116580225Y-147675669D01*
X116602480Y-147701353D01*
X116605218Y-147705543D01*
X116691275Y-147837265D01*
X116691279Y-147837270D01*
X116843762Y-148002908D01*
X116898331Y-148045381D01*
X117021424Y-148141189D01*
X117219426Y-148248342D01*
X117219427Y-148248342D01*
X117219428Y-148248343D01*
X117331227Y-148286723D01*
X117432365Y-148321444D01*
X117654431Y-148358500D01*
X117654435Y-148358500D01*
X117879565Y-148358500D01*
X117879569Y-148358500D01*
X118101635Y-148321444D01*
X118314574Y-148248342D01*
X118512576Y-148141189D01*
X118690240Y-148002906D01*
X118842722Y-147837268D01*
X118931518Y-147701354D01*
X118985520Y-147655268D01*
X119055868Y-147645692D01*
X119120225Y-147675669D01*
X119142480Y-147701353D01*
X119145218Y-147705543D01*
X119231275Y-147837265D01*
X119231279Y-147837270D01*
X119383762Y-148002908D01*
X119438331Y-148045381D01*
X119561424Y-148141189D01*
X119759426Y-148248342D01*
X119759427Y-148248342D01*
X119759428Y-148248343D01*
X119871227Y-148286723D01*
X119972365Y-148321444D01*
X120194431Y-148358500D01*
X120194435Y-148358500D01*
X120419565Y-148358500D01*
X120419569Y-148358500D01*
X120641635Y-148321444D01*
X120854574Y-148248342D01*
X121052576Y-148141189D01*
X121230240Y-148002906D01*
X121382722Y-147837268D01*
X121471518Y-147701354D01*
X121525520Y-147655268D01*
X121595868Y-147645692D01*
X121660225Y-147675669D01*
X121682480Y-147701353D01*
X121685218Y-147705543D01*
X121771275Y-147837265D01*
X121771279Y-147837270D01*
X121923762Y-148002908D01*
X121978331Y-148045381D01*
X122101424Y-148141189D01*
X122299426Y-148248342D01*
X122299427Y-148248342D01*
X122299428Y-148248343D01*
X122411227Y-148286723D01*
X122512365Y-148321444D01*
X122734431Y-148358500D01*
X122734435Y-148358500D01*
X122959565Y-148358500D01*
X122959569Y-148358500D01*
X123181635Y-148321444D01*
X123394574Y-148248342D01*
X123592576Y-148141189D01*
X123770240Y-148002906D01*
X123922722Y-147837268D01*
X124011518Y-147701354D01*
X124065520Y-147655268D01*
X124135868Y-147645692D01*
X124200225Y-147675669D01*
X124222480Y-147701353D01*
X124225218Y-147705543D01*
X124311275Y-147837265D01*
X124311279Y-147837270D01*
X124463762Y-148002908D01*
X124518331Y-148045381D01*
X124641424Y-148141189D01*
X124839426Y-148248342D01*
X124839427Y-148248342D01*
X124839428Y-148248343D01*
X124951227Y-148286723D01*
X125052365Y-148321444D01*
X125274431Y-148358500D01*
X125274435Y-148358500D01*
X125499565Y-148358500D01*
X125499569Y-148358500D01*
X125721635Y-148321444D01*
X125934574Y-148248342D01*
X126132576Y-148141189D01*
X126310240Y-148002906D01*
X126462722Y-147837268D01*
X126551518Y-147701354D01*
X126605520Y-147655268D01*
X126675868Y-147645692D01*
X126740225Y-147675669D01*
X126762480Y-147701353D01*
X126765218Y-147705543D01*
X126851275Y-147837265D01*
X126851279Y-147837270D01*
X127003762Y-148002908D01*
X127058331Y-148045381D01*
X127181424Y-148141189D01*
X127379426Y-148248342D01*
X127379427Y-148248342D01*
X127379428Y-148248343D01*
X127491227Y-148286723D01*
X127592365Y-148321444D01*
X127814431Y-148358500D01*
X127814435Y-148358500D01*
X128039565Y-148358500D01*
X128039569Y-148358500D01*
X128261635Y-148321444D01*
X128474574Y-148248342D01*
X128672576Y-148141189D01*
X128850240Y-148002906D01*
X129002722Y-147837268D01*
X129091518Y-147701354D01*
X129145520Y-147655268D01*
X129215868Y-147645692D01*
X129280225Y-147675669D01*
X129302480Y-147701353D01*
X129305218Y-147705543D01*
X129391275Y-147837265D01*
X129391279Y-147837270D01*
X129543762Y-148002908D01*
X129598331Y-148045381D01*
X129721424Y-148141189D01*
X129919426Y-148248342D01*
X129919427Y-148248342D01*
X129919428Y-148248343D01*
X130031227Y-148286723D01*
X130132365Y-148321444D01*
X130354431Y-148358500D01*
X130354435Y-148358500D01*
X130579565Y-148358500D01*
X130579569Y-148358500D01*
X130801635Y-148321444D01*
X131014574Y-148248342D01*
X131212576Y-148141189D01*
X131390240Y-148002906D01*
X131542722Y-147837268D01*
X131631518Y-147701354D01*
X131685520Y-147655268D01*
X131755868Y-147645692D01*
X131820225Y-147675669D01*
X131842480Y-147701353D01*
X131845218Y-147705543D01*
X131931275Y-147837265D01*
X131931279Y-147837270D01*
X132083762Y-148002908D01*
X132138331Y-148045381D01*
X132261424Y-148141189D01*
X132459426Y-148248342D01*
X132459427Y-148248342D01*
X132459428Y-148248343D01*
X132571227Y-148286723D01*
X132672365Y-148321444D01*
X132894431Y-148358500D01*
X132894435Y-148358500D01*
X133119565Y-148358500D01*
X133119569Y-148358500D01*
X133341635Y-148321444D01*
X133554574Y-148248342D01*
X133752576Y-148141189D01*
X133930240Y-148002906D01*
X134082722Y-147837268D01*
X134171518Y-147701354D01*
X134225520Y-147655268D01*
X134295868Y-147645692D01*
X134360225Y-147675669D01*
X134382480Y-147701353D01*
X134385218Y-147705543D01*
X134471275Y-147837265D01*
X134471279Y-147837270D01*
X134623762Y-148002908D01*
X134678331Y-148045381D01*
X134801424Y-148141189D01*
X134999426Y-148248342D01*
X134999427Y-148248342D01*
X134999428Y-148248343D01*
X135111227Y-148286723D01*
X135212365Y-148321444D01*
X135434431Y-148358500D01*
X135434435Y-148358500D01*
X135659565Y-148358500D01*
X135659569Y-148358500D01*
X135881635Y-148321444D01*
X136094574Y-148248342D01*
X136292576Y-148141189D01*
X136470240Y-148002906D01*
X136622722Y-147837268D01*
X136711518Y-147701354D01*
X136765520Y-147655268D01*
X136835868Y-147645692D01*
X136900225Y-147675669D01*
X136922480Y-147701353D01*
X136925218Y-147705543D01*
X137011275Y-147837265D01*
X137011279Y-147837270D01*
X137163762Y-148002908D01*
X137218331Y-148045381D01*
X137341424Y-148141189D01*
X137539426Y-148248342D01*
X137539427Y-148248342D01*
X137539428Y-148248343D01*
X137651227Y-148286723D01*
X137752365Y-148321444D01*
X137974431Y-148358500D01*
X137974435Y-148358500D01*
X138199565Y-148358500D01*
X138199569Y-148358500D01*
X138421635Y-148321444D01*
X138634574Y-148248342D01*
X138832576Y-148141189D01*
X139010240Y-148002906D01*
X139071626Y-147936222D01*
X139132476Y-147899654D01*
X139203441Y-147901787D01*
X139261986Y-147941949D01*
X139282380Y-147977529D01*
X139326553Y-148095961D01*
X139326555Y-148095965D01*
X139414095Y-148212904D01*
X139531034Y-148300444D01*
X139667906Y-148351494D01*
X139728402Y-148357999D01*
X139728415Y-148358000D01*
X140373000Y-148358000D01*
X140373000Y-147430702D01*
X140434007Y-147465925D01*
X140561174Y-147500000D01*
X140692826Y-147500000D01*
X140819993Y-147465925D01*
X140881000Y-147430702D01*
X140881000Y-148358000D01*
X141525585Y-148358000D01*
X141525597Y-148357999D01*
X141586093Y-148351494D01*
X141722964Y-148300444D01*
X141722965Y-148300444D01*
X141839904Y-148212904D01*
X141927444Y-148095965D01*
X141927444Y-148095964D01*
X141978494Y-147959093D01*
X141984999Y-147898597D01*
X141985000Y-147898585D01*
X141985000Y-147254000D01*
X141057703Y-147254000D01*
X141092925Y-147192993D01*
X141127000Y-147065826D01*
X141127000Y-146934174D01*
X141092925Y-146807007D01*
X141057703Y-146746000D01*
X141985000Y-146746000D01*
X141985000Y-146101414D01*
X141984999Y-146101402D01*
X141978494Y-146040906D01*
X141927444Y-145904035D01*
X141927444Y-145904034D01*
X141908486Y-145878709D01*
X144149500Y-145878709D01*
X144149500Y-146121290D01*
X144181160Y-146361782D01*
X144243944Y-146596095D01*
X144243945Y-146596097D01*
X144243946Y-146596100D01*
X144336776Y-146820212D01*
X144336777Y-146820213D01*
X144336782Y-146820224D01*
X144458061Y-147030285D01*
X144458063Y-147030288D01*
X144458064Y-147030289D01*
X144605735Y-147222738D01*
X144605739Y-147222742D01*
X144605744Y-147222748D01*
X144777251Y-147394255D01*
X144777256Y-147394259D01*
X144777262Y-147394265D01*
X144915059Y-147500000D01*
X144969714Y-147541938D01*
X145179775Y-147663217D01*
X145179779Y-147663218D01*
X145179788Y-147663224D01*
X145403900Y-147756054D01*
X145638211Y-147818838D01*
X145638215Y-147818838D01*
X145638217Y-147818839D01*
X145700202Y-147826999D01*
X145878712Y-147850500D01*
X145878719Y-147850500D01*
X146121281Y-147850500D01*
X146121288Y-147850500D01*
X146338637Y-147821885D01*
X146361782Y-147818839D01*
X146361782Y-147818838D01*
X146361789Y-147818838D01*
X146596100Y-147756054D01*
X146820212Y-147663224D01*
X147030289Y-147541936D01*
X147222738Y-147394265D01*
X147394265Y-147222738D01*
X147541936Y-147030289D01*
X147663224Y-146820212D01*
X147756054Y-146596100D01*
X147818838Y-146361789D01*
X147850500Y-146121288D01*
X147850500Y-145878712D01*
X147821236Y-145656423D01*
X147818839Y-145638217D01*
X147818838Y-145638215D01*
X147818838Y-145638211D01*
X147756054Y-145403900D01*
X147663224Y-145179788D01*
X147663218Y-145179779D01*
X147663217Y-145179775D01*
X147541938Y-144969714D01*
X147541936Y-144969711D01*
X147394265Y-144777262D01*
X147394259Y-144777256D01*
X147394255Y-144777251D01*
X147222748Y-144605744D01*
X147222742Y-144605739D01*
X147222738Y-144605735D01*
X147030289Y-144458064D01*
X147030288Y-144458063D01*
X147030285Y-144458061D01*
X146820224Y-144336782D01*
X146820216Y-144336778D01*
X146820212Y-144336776D01*
X146596100Y-144243946D01*
X146596097Y-144243945D01*
X146596095Y-144243944D01*
X146361782Y-144181160D01*
X146121290Y-144149500D01*
X146121288Y-144149500D01*
X145878712Y-144149500D01*
X145878709Y-144149500D01*
X145638217Y-144181160D01*
X145403904Y-144243944D01*
X145403900Y-144243946D01*
X145179786Y-144336777D01*
X145179775Y-144336782D01*
X144969714Y-144458061D01*
X144777262Y-144605735D01*
X144777251Y-144605744D01*
X144605744Y-144777251D01*
X144605735Y-144777262D01*
X144458061Y-144969714D01*
X144336782Y-145179775D01*
X144336777Y-145179786D01*
X144336776Y-145179788D01*
X144275177Y-145328502D01*
X144243946Y-145403900D01*
X144243944Y-145403904D01*
X144181160Y-145638217D01*
X144149500Y-145878709D01*
X141908486Y-145878709D01*
X141839904Y-145787095D01*
X141722966Y-145699556D01*
X141607321Y-145656423D01*
X141550486Y-145613876D01*
X141525675Y-145547356D01*
X141540766Y-145477982D01*
X141558653Y-145453030D01*
X141702323Y-145296961D01*
X141825419Y-145108548D01*
X141915820Y-144902456D01*
X141915823Y-144902449D01*
X141963544Y-144714000D01*
X141057703Y-144714000D01*
X141092925Y-144652993D01*
X141127000Y-144525826D01*
X141127000Y-144394174D01*
X141092925Y-144267007D01*
X141057703Y-144206000D01*
X141963544Y-144206000D01*
X141963544Y-144205999D01*
X141915823Y-144017550D01*
X141915820Y-144017543D01*
X141825419Y-143811451D01*
X141702325Y-143623041D01*
X141549902Y-143457465D01*
X141372301Y-143319232D01*
X141372300Y-143319231D01*
X141174371Y-143212117D01*
X141174369Y-143212116D01*
X140961512Y-143139043D01*
X140961501Y-143139040D01*
X140881000Y-143125606D01*
X140881000Y-144029297D01*
X140819993Y-143994075D01*
X140692826Y-143960000D01*
X140561174Y-143960000D01*
X140434007Y-143994075D01*
X140373000Y-144029297D01*
X140373000Y-143125607D01*
X140372999Y-143125606D01*
X140292498Y-143139040D01*
X140292487Y-143139043D01*
X140079630Y-143212116D01*
X140079628Y-143212117D01*
X139881699Y-143319231D01*
X139881698Y-143319232D01*
X139704097Y-143457465D01*
X139551670Y-143623045D01*
X139462780Y-143759101D01*
X139408776Y-143805189D01*
X139338428Y-143814764D01*
X139274071Y-143784786D01*
X139251816Y-143759101D01*
X139182015Y-143652262D01*
X139162724Y-143622734D01*
X139162720Y-143622729D01*
X139046570Y-143496559D01*
X139010240Y-143457094D01*
X139010239Y-143457093D01*
X139010237Y-143457091D01*
X138906013Y-143375970D01*
X138832576Y-143318811D01*
X138634574Y-143211658D01*
X138634572Y-143211657D01*
X138634571Y-143211656D01*
X138421639Y-143138557D01*
X138421630Y-143138555D01*
X138344029Y-143125606D01*
X138199569Y-143101500D01*
X137974431Y-143101500D01*
X137829971Y-143125606D01*
X137752369Y-143138555D01*
X137752360Y-143138557D01*
X137539428Y-143211656D01*
X137539426Y-143211658D01*
X137391891Y-143291500D01*
X137341426Y-143318810D01*
X137341424Y-143318811D01*
X137163762Y-143457091D01*
X137011279Y-143622729D01*
X136922483Y-143758643D01*
X136868479Y-143804731D01*
X136798131Y-143814306D01*
X136733774Y-143784329D01*
X136711517Y-143758643D01*
X136622720Y-143622729D01*
X136506570Y-143496559D01*
X136470240Y-143457094D01*
X136470239Y-143457093D01*
X136470237Y-143457091D01*
X136366013Y-143375970D01*
X136292576Y-143318811D01*
X136094574Y-143211658D01*
X136094572Y-143211657D01*
X136094571Y-143211656D01*
X135881639Y-143138557D01*
X135881630Y-143138555D01*
X135804029Y-143125606D01*
X135659569Y-143101500D01*
X135434431Y-143101500D01*
X135289971Y-143125606D01*
X135212369Y-143138555D01*
X135212360Y-143138557D01*
X134999428Y-143211656D01*
X134999426Y-143211658D01*
X134851891Y-143291500D01*
X134801426Y-143318810D01*
X134801424Y-143318811D01*
X134623762Y-143457091D01*
X134471279Y-143622729D01*
X134382483Y-143758643D01*
X134328479Y-143804731D01*
X134258131Y-143814306D01*
X134193774Y-143784329D01*
X134171517Y-143758643D01*
X134082720Y-143622729D01*
X133966570Y-143496559D01*
X133930240Y-143457094D01*
X133930239Y-143457093D01*
X133930237Y-143457091D01*
X133826013Y-143375970D01*
X133752576Y-143318811D01*
X133554574Y-143211658D01*
X133554572Y-143211657D01*
X133554571Y-143211656D01*
X133341639Y-143138557D01*
X133341630Y-143138555D01*
X133264029Y-143125606D01*
X133119569Y-143101500D01*
X132894431Y-143101500D01*
X132749971Y-143125606D01*
X132672369Y-143138555D01*
X132672360Y-143138557D01*
X132459428Y-143211656D01*
X132459426Y-143211658D01*
X132311891Y-143291500D01*
X132261426Y-143318810D01*
X132261424Y-143318811D01*
X132083762Y-143457091D01*
X131931279Y-143622729D01*
X131842483Y-143758643D01*
X131788479Y-143804731D01*
X131718131Y-143814306D01*
X131653774Y-143784329D01*
X131631517Y-143758643D01*
X131542720Y-143622729D01*
X131426570Y-143496559D01*
X131390240Y-143457094D01*
X131390239Y-143457093D01*
X131390237Y-143457091D01*
X131286013Y-143375970D01*
X131212576Y-143318811D01*
X131014574Y-143211658D01*
X131014572Y-143211657D01*
X131014571Y-143211656D01*
X130801639Y-143138557D01*
X130801630Y-143138555D01*
X130724029Y-143125606D01*
X130579569Y-143101500D01*
X130354431Y-143101500D01*
X130209971Y-143125606D01*
X130132369Y-143138555D01*
X130132360Y-143138557D01*
X129919428Y-143211656D01*
X129919426Y-143211658D01*
X129771891Y-143291500D01*
X129721426Y-143318810D01*
X129721424Y-143318811D01*
X129543762Y-143457091D01*
X129391279Y-143622729D01*
X129302483Y-143758643D01*
X129248479Y-143804731D01*
X129178131Y-143814306D01*
X129113774Y-143784329D01*
X129091517Y-143758643D01*
X129002720Y-143622729D01*
X128886570Y-143496559D01*
X128850240Y-143457094D01*
X128850239Y-143457093D01*
X128850237Y-143457091D01*
X128746013Y-143375970D01*
X128672576Y-143318811D01*
X128474574Y-143211658D01*
X128474572Y-143211657D01*
X128474571Y-143211656D01*
X128261639Y-143138557D01*
X128261630Y-143138555D01*
X128184029Y-143125606D01*
X128039569Y-143101500D01*
X127814431Y-143101500D01*
X127669971Y-143125606D01*
X127592369Y-143138555D01*
X127592360Y-143138557D01*
X127379428Y-143211656D01*
X127379426Y-143211658D01*
X127231891Y-143291500D01*
X127181426Y-143318810D01*
X127181424Y-143318811D01*
X127003762Y-143457091D01*
X126851279Y-143622729D01*
X126762483Y-143758643D01*
X126708479Y-143804731D01*
X126638131Y-143814306D01*
X126573774Y-143784329D01*
X126551517Y-143758643D01*
X126462720Y-143622729D01*
X126346570Y-143496559D01*
X126310240Y-143457094D01*
X126310239Y-143457093D01*
X126310237Y-143457091D01*
X126206013Y-143375970D01*
X126132576Y-143318811D01*
X125934574Y-143211658D01*
X125934572Y-143211657D01*
X125934571Y-143211656D01*
X125721639Y-143138557D01*
X125721630Y-143138555D01*
X125644029Y-143125606D01*
X125499569Y-143101500D01*
X125274431Y-143101500D01*
X125129971Y-143125606D01*
X125052369Y-143138555D01*
X125052360Y-143138557D01*
X124839428Y-143211656D01*
X124839426Y-143211658D01*
X124691891Y-143291500D01*
X124641426Y-143318810D01*
X124641424Y-143318811D01*
X124463762Y-143457091D01*
X124311279Y-143622729D01*
X124222483Y-143758643D01*
X124168479Y-143804731D01*
X124098131Y-143814306D01*
X124033774Y-143784329D01*
X124011517Y-143758643D01*
X123922720Y-143622729D01*
X123806570Y-143496559D01*
X123770240Y-143457094D01*
X123770239Y-143457093D01*
X123770237Y-143457091D01*
X123666013Y-143375970D01*
X123592576Y-143318811D01*
X123394574Y-143211658D01*
X123394572Y-143211657D01*
X123394571Y-143211656D01*
X123181639Y-143138557D01*
X123181630Y-143138555D01*
X123104029Y-143125606D01*
X122959569Y-143101500D01*
X122734431Y-143101500D01*
X122589971Y-143125606D01*
X122512369Y-143138555D01*
X122512360Y-143138557D01*
X122299428Y-143211656D01*
X122299426Y-143211658D01*
X122151891Y-143291500D01*
X122101426Y-143318810D01*
X122101424Y-143318811D01*
X121923762Y-143457091D01*
X121771279Y-143622729D01*
X121682483Y-143758643D01*
X121628479Y-143804731D01*
X121558131Y-143814306D01*
X121493774Y-143784329D01*
X121471517Y-143758643D01*
X121382720Y-143622729D01*
X121266570Y-143496559D01*
X121230240Y-143457094D01*
X121230239Y-143457093D01*
X121230237Y-143457091D01*
X121126013Y-143375970D01*
X121052576Y-143318811D01*
X120854574Y-143211658D01*
X120854572Y-143211657D01*
X120854571Y-143211656D01*
X120641639Y-143138557D01*
X120641630Y-143138555D01*
X120564029Y-143125606D01*
X120419569Y-143101500D01*
X120194431Y-143101500D01*
X120049971Y-143125606D01*
X119972369Y-143138555D01*
X119972360Y-143138557D01*
X119759428Y-143211656D01*
X119759426Y-143211658D01*
X119611891Y-143291500D01*
X119561426Y-143318810D01*
X119561424Y-143318811D01*
X119383762Y-143457091D01*
X119231279Y-143622729D01*
X119142483Y-143758643D01*
X119088479Y-143804731D01*
X119018131Y-143814306D01*
X118953774Y-143784329D01*
X118931517Y-143758643D01*
X118842720Y-143622729D01*
X118726570Y-143496559D01*
X118690240Y-143457094D01*
X118690239Y-143457093D01*
X118690237Y-143457091D01*
X118586013Y-143375970D01*
X118512576Y-143318811D01*
X118314574Y-143211658D01*
X118314572Y-143211657D01*
X118314571Y-143211656D01*
X118101639Y-143138557D01*
X118101630Y-143138555D01*
X118024029Y-143125606D01*
X117879569Y-143101500D01*
X117654431Y-143101500D01*
X117509971Y-143125606D01*
X117432369Y-143138555D01*
X117432360Y-143138557D01*
X117219428Y-143211656D01*
X117219426Y-143211658D01*
X117071891Y-143291500D01*
X117021426Y-143318810D01*
X117021424Y-143318811D01*
X116843762Y-143457091D01*
X116691279Y-143622729D01*
X116602483Y-143758643D01*
X116548479Y-143804731D01*
X116478131Y-143814306D01*
X116413774Y-143784329D01*
X116391517Y-143758643D01*
X116302720Y-143622729D01*
X116186570Y-143496559D01*
X116150240Y-143457094D01*
X116150239Y-143457093D01*
X116150237Y-143457091D01*
X116046013Y-143375970D01*
X115972576Y-143318811D01*
X115774574Y-143211658D01*
X115774572Y-143211657D01*
X115774571Y-143211656D01*
X115561639Y-143138557D01*
X115561630Y-143138555D01*
X115484029Y-143125606D01*
X115339569Y-143101500D01*
X115114431Y-143101500D01*
X114969971Y-143125606D01*
X114892369Y-143138555D01*
X114892360Y-143138557D01*
X114679428Y-143211656D01*
X114679426Y-143211658D01*
X114531891Y-143291500D01*
X114481426Y-143318810D01*
X114481424Y-143318811D01*
X114303762Y-143457091D01*
X114151279Y-143622729D01*
X114062483Y-143758643D01*
X114008479Y-143804731D01*
X113938131Y-143814306D01*
X113873774Y-143784329D01*
X113851517Y-143758643D01*
X113762720Y-143622729D01*
X113646570Y-143496559D01*
X113610240Y-143457094D01*
X113610239Y-143457093D01*
X113610237Y-143457091D01*
X113506013Y-143375970D01*
X113432576Y-143318811D01*
X113234574Y-143211658D01*
X113234572Y-143211657D01*
X113234571Y-143211656D01*
X113021639Y-143138557D01*
X113021630Y-143138555D01*
X112944029Y-143125606D01*
X112799569Y-143101500D01*
X112574431Y-143101500D01*
X112429971Y-143125606D01*
X112352369Y-143138555D01*
X112352360Y-143138557D01*
X112139428Y-143211656D01*
X112139426Y-143211658D01*
X111991891Y-143291500D01*
X111941426Y-143318810D01*
X111941424Y-143318811D01*
X111763762Y-143457091D01*
X111611279Y-143622729D01*
X111522483Y-143758643D01*
X111468479Y-143804731D01*
X111398131Y-143814306D01*
X111333774Y-143784329D01*
X111311517Y-143758643D01*
X111222720Y-143622729D01*
X111106570Y-143496559D01*
X111070240Y-143457094D01*
X111070239Y-143457093D01*
X111070237Y-143457091D01*
X110966013Y-143375970D01*
X110892576Y-143318811D01*
X110694574Y-143211658D01*
X110694572Y-143211657D01*
X110694571Y-143211656D01*
X110481639Y-143138557D01*
X110481630Y-143138555D01*
X110404029Y-143125606D01*
X110259569Y-143101500D01*
X110034431Y-143101500D01*
X109889971Y-143125606D01*
X109812369Y-143138555D01*
X109812360Y-143138557D01*
X109599428Y-143211656D01*
X109599426Y-143211658D01*
X109451891Y-143291500D01*
X109401426Y-143318810D01*
X109401424Y-143318811D01*
X109223762Y-143457091D01*
X109071279Y-143622729D01*
X108982483Y-143758643D01*
X108928479Y-143804731D01*
X108858131Y-143814306D01*
X108793774Y-143784329D01*
X108771517Y-143758643D01*
X108682720Y-143622729D01*
X108566570Y-143496559D01*
X108530240Y-143457094D01*
X108530239Y-143457093D01*
X108530237Y-143457091D01*
X108426013Y-143375970D01*
X108352576Y-143318811D01*
X108154574Y-143211658D01*
X108154572Y-143211657D01*
X108154571Y-143211656D01*
X107941639Y-143138557D01*
X107941630Y-143138555D01*
X107864029Y-143125606D01*
X107719569Y-143101500D01*
X107494431Y-143101500D01*
X107349971Y-143125606D01*
X107272369Y-143138555D01*
X107272360Y-143138557D01*
X107059428Y-143211656D01*
X107059426Y-143211658D01*
X106911891Y-143291500D01*
X106861426Y-143318810D01*
X106861424Y-143318811D01*
X106683762Y-143457091D01*
X106531279Y-143622729D01*
X106442483Y-143758643D01*
X106388479Y-143804731D01*
X106318131Y-143814306D01*
X106253774Y-143784329D01*
X106231517Y-143758643D01*
X106142720Y-143622729D01*
X106026570Y-143496559D01*
X105990240Y-143457094D01*
X105990239Y-143457093D01*
X105990237Y-143457091D01*
X105886013Y-143375970D01*
X105812576Y-143318811D01*
X105614574Y-143211658D01*
X105614572Y-143211657D01*
X105614571Y-143211656D01*
X105401639Y-143138557D01*
X105401630Y-143138555D01*
X105324029Y-143125606D01*
X105179569Y-143101500D01*
X104954431Y-143101500D01*
X104809971Y-143125606D01*
X104732369Y-143138555D01*
X104732360Y-143138557D01*
X104519428Y-143211656D01*
X104519426Y-143211658D01*
X104371891Y-143291500D01*
X104321426Y-143318810D01*
X104321424Y-143318811D01*
X104143762Y-143457091D01*
X103991279Y-143622729D01*
X103902483Y-143758643D01*
X103848479Y-143804731D01*
X103778131Y-143814306D01*
X103713774Y-143784329D01*
X103691517Y-143758643D01*
X103602720Y-143622729D01*
X103486570Y-143496559D01*
X103450240Y-143457094D01*
X103450239Y-143457093D01*
X103450237Y-143457091D01*
X103346013Y-143375970D01*
X103272576Y-143318811D01*
X103074574Y-143211658D01*
X103074572Y-143211657D01*
X103074571Y-143211656D01*
X102861639Y-143138557D01*
X102861630Y-143138555D01*
X102784029Y-143125606D01*
X102639569Y-143101500D01*
X102414431Y-143101500D01*
X102269971Y-143125606D01*
X102192369Y-143138555D01*
X102192360Y-143138557D01*
X101979428Y-143211656D01*
X101979426Y-143211658D01*
X101831891Y-143291500D01*
X101781426Y-143318810D01*
X101781424Y-143318811D01*
X101603762Y-143457091D01*
X101451279Y-143622729D01*
X101362483Y-143758643D01*
X101308479Y-143804731D01*
X101238131Y-143814306D01*
X101173774Y-143784329D01*
X101151517Y-143758643D01*
X101062720Y-143622729D01*
X100946570Y-143496559D01*
X100910240Y-143457094D01*
X100910239Y-143457093D01*
X100910237Y-143457091D01*
X100806013Y-143375970D01*
X100732576Y-143318811D01*
X100534574Y-143211658D01*
X100534572Y-143211657D01*
X100534571Y-143211656D01*
X100321639Y-143138557D01*
X100321630Y-143138555D01*
X100244029Y-143125606D01*
X100099569Y-143101500D01*
X99874431Y-143101500D01*
X99729971Y-143125606D01*
X99652369Y-143138555D01*
X99652360Y-143138557D01*
X99439428Y-143211656D01*
X99439426Y-143211658D01*
X99291891Y-143291500D01*
X99241426Y-143318810D01*
X99241424Y-143318811D01*
X99063762Y-143457091D01*
X98911279Y-143622729D01*
X98822483Y-143758643D01*
X98768479Y-143804731D01*
X98698131Y-143814306D01*
X98633774Y-143784329D01*
X98611517Y-143758643D01*
X98522720Y-143622729D01*
X98406570Y-143496559D01*
X98370240Y-143457094D01*
X98370239Y-143457093D01*
X98370237Y-143457091D01*
X98266013Y-143375970D01*
X98192576Y-143318811D01*
X97994574Y-143211658D01*
X97994572Y-143211657D01*
X97994571Y-143211656D01*
X97781639Y-143138557D01*
X97781630Y-143138555D01*
X97704029Y-143125606D01*
X97559569Y-143101500D01*
X97334431Y-143101500D01*
X97189971Y-143125606D01*
X97112369Y-143138555D01*
X97112360Y-143138557D01*
X96899428Y-143211656D01*
X96899426Y-143211658D01*
X96751891Y-143291500D01*
X96701426Y-143318810D01*
X96701424Y-143318811D01*
X96523762Y-143457091D01*
X96371279Y-143622729D01*
X96282483Y-143758643D01*
X96228479Y-143804731D01*
X96158131Y-143814306D01*
X96093774Y-143784329D01*
X96071517Y-143758643D01*
X95982720Y-143622729D01*
X95866570Y-143496559D01*
X95830240Y-143457094D01*
X95830239Y-143457093D01*
X95830237Y-143457091D01*
X95726013Y-143375970D01*
X95652576Y-143318811D01*
X95454574Y-143211658D01*
X95454572Y-143211657D01*
X95454571Y-143211656D01*
X95241639Y-143138557D01*
X95241630Y-143138555D01*
X95164029Y-143125606D01*
X95019569Y-143101500D01*
X94794431Y-143101500D01*
X94649971Y-143125606D01*
X94572369Y-143138555D01*
X94572360Y-143138557D01*
X94359428Y-143211656D01*
X94359426Y-143211658D01*
X94211891Y-143291500D01*
X94161426Y-143318810D01*
X94161424Y-143318811D01*
X93983762Y-143457091D01*
X93831279Y-143622729D01*
X93742483Y-143758643D01*
X93688479Y-143804731D01*
X93618131Y-143814306D01*
X93553774Y-143784329D01*
X93531517Y-143758643D01*
X93442720Y-143622729D01*
X93326570Y-143496559D01*
X93290240Y-143457094D01*
X93290239Y-143457093D01*
X93290237Y-143457091D01*
X93186013Y-143375970D01*
X93112576Y-143318811D01*
X92914574Y-143211658D01*
X92914572Y-143211657D01*
X92914571Y-143211656D01*
X92701639Y-143138557D01*
X92701630Y-143138555D01*
X92624029Y-143125606D01*
X92479569Y-143101500D01*
X92254431Y-143101500D01*
X92109971Y-143125606D01*
X92032369Y-143138555D01*
X92032360Y-143138557D01*
X91819428Y-143211656D01*
X91819426Y-143211658D01*
X91699950Y-143276314D01*
X91639983Y-143291500D01*
X89819068Y-143291500D01*
X89779436Y-143285105D01*
X89772739Y-143282886D01*
X89772738Y-143282885D01*
X89604426Y-143227113D01*
X89604420Y-143227112D01*
X89500553Y-143216500D01*
X88099455Y-143216500D01*
X87995574Y-143227112D01*
X87827261Y-143282885D01*
X87676347Y-143375970D01*
X87676341Y-143375975D01*
X87550975Y-143501341D01*
X87550970Y-143501347D01*
X87457885Y-143652262D01*
X87402113Y-143820572D01*
X87402112Y-143820579D01*
X87391500Y-143924446D01*
X50000000Y-143924446D01*
X50000000Y-138460000D01*
X91003844Y-138460000D01*
X91019836Y-138652993D01*
X91022437Y-138684375D01*
X91077702Y-138902612D01*
X91077703Y-138902613D01*
X91077704Y-138902616D01*
X91168140Y-139108791D01*
X91168141Y-139108793D01*
X91291275Y-139297265D01*
X91291279Y-139297270D01*
X91419539Y-139436596D01*
X91434668Y-139453030D01*
X91443762Y-139462908D01*
X91463129Y-139477982D01*
X91621424Y-139601189D01*
X91644868Y-139613876D01*
X91654680Y-139619186D01*
X91705071Y-139669200D01*
X91720423Y-139738516D01*
X91695862Y-139805129D01*
X91654680Y-139840813D01*
X91621426Y-139858810D01*
X91621424Y-139858811D01*
X91443762Y-139997091D01*
X91291279Y-140162729D01*
X91291275Y-140162734D01*
X91168141Y-140351206D01*
X91077703Y-140557386D01*
X91077702Y-140557387D01*
X91022437Y-140775624D01*
X91022436Y-140775630D01*
X91022436Y-140775632D01*
X91003844Y-141000000D01*
X91019836Y-141192993D01*
X91022437Y-141224375D01*
X91077702Y-141442612D01*
X91077703Y-141442613D01*
X91168141Y-141648793D01*
X91291275Y-141837265D01*
X91291279Y-141837270D01*
X91443762Y-142002908D01*
X91498331Y-142045381D01*
X91621424Y-142141189D01*
X91819426Y-142248342D01*
X91819427Y-142248342D01*
X91819428Y-142248343D01*
X91931227Y-142286723D01*
X92032365Y-142321444D01*
X92254431Y-142358500D01*
X92254435Y-142358500D01*
X92479565Y-142358500D01*
X92479569Y-142358500D01*
X92701635Y-142321444D01*
X92914574Y-142248342D01*
X93112576Y-142141189D01*
X93290240Y-142002906D01*
X93442722Y-141837268D01*
X93531518Y-141701354D01*
X93585520Y-141655268D01*
X93655868Y-141645692D01*
X93720225Y-141675669D01*
X93742480Y-141701353D01*
X93775607Y-141752058D01*
X93831275Y-141837265D01*
X93831279Y-141837270D01*
X93983762Y-142002908D01*
X94038331Y-142045381D01*
X94161424Y-142141189D01*
X94359426Y-142248342D01*
X94359427Y-142248342D01*
X94359428Y-142248343D01*
X94471227Y-142286723D01*
X94572365Y-142321444D01*
X94794431Y-142358500D01*
X94794435Y-142358500D01*
X95019565Y-142358500D01*
X95019569Y-142358500D01*
X95241635Y-142321444D01*
X95454574Y-142248342D01*
X95652576Y-142141189D01*
X95830240Y-142002906D01*
X95982722Y-141837268D01*
X96071518Y-141701354D01*
X96125520Y-141655268D01*
X96195868Y-141645692D01*
X96260225Y-141675669D01*
X96282480Y-141701353D01*
X96315607Y-141752058D01*
X96371275Y-141837265D01*
X96371279Y-141837270D01*
X96523762Y-142002908D01*
X96578331Y-142045381D01*
X96701424Y-142141189D01*
X96899426Y-142248342D01*
X96899427Y-142248342D01*
X96899428Y-142248343D01*
X97011227Y-142286723D01*
X97112365Y-142321444D01*
X97334431Y-142358500D01*
X97334435Y-142358500D01*
X97559565Y-142358500D01*
X97559569Y-142358500D01*
X97781635Y-142321444D01*
X97994574Y-142248342D01*
X98192576Y-142141189D01*
X98370240Y-142002906D01*
X98522722Y-141837268D01*
X98611518Y-141701354D01*
X98665520Y-141655268D01*
X98735868Y-141645692D01*
X98800225Y-141675669D01*
X98822480Y-141701353D01*
X98855607Y-141752058D01*
X98911275Y-141837265D01*
X98911279Y-141837270D01*
X99063762Y-142002908D01*
X99118331Y-142045381D01*
X99241424Y-142141189D01*
X99439426Y-142248342D01*
X99439427Y-142248342D01*
X99439428Y-142248343D01*
X99551227Y-142286723D01*
X99652365Y-142321444D01*
X99874431Y-142358500D01*
X99874435Y-142358500D01*
X100099565Y-142358500D01*
X100099569Y-142358500D01*
X100321635Y-142321444D01*
X100534574Y-142248342D01*
X100732576Y-142141189D01*
X100910240Y-142002906D01*
X101062722Y-141837268D01*
X101151518Y-141701354D01*
X101205520Y-141655268D01*
X101275868Y-141645692D01*
X101340225Y-141675669D01*
X101362480Y-141701353D01*
X101395607Y-141752058D01*
X101451275Y-141837265D01*
X101451279Y-141837270D01*
X101603762Y-142002908D01*
X101658331Y-142045381D01*
X101781424Y-142141189D01*
X101979426Y-142248342D01*
X101979427Y-142248342D01*
X101979428Y-142248343D01*
X102091227Y-142286723D01*
X102192365Y-142321444D01*
X102414431Y-142358500D01*
X102414435Y-142358500D01*
X102639565Y-142358500D01*
X102639569Y-142358500D01*
X102861635Y-142321444D01*
X103074574Y-142248342D01*
X103272576Y-142141189D01*
X103450240Y-142002906D01*
X103602722Y-141837268D01*
X103691518Y-141701354D01*
X103745520Y-141655268D01*
X103815868Y-141645692D01*
X103880225Y-141675669D01*
X103902480Y-141701353D01*
X103935607Y-141752058D01*
X103991275Y-141837265D01*
X103991279Y-141837270D01*
X104143762Y-142002908D01*
X104198331Y-142045381D01*
X104321424Y-142141189D01*
X104519426Y-142248342D01*
X104519427Y-142248342D01*
X104519428Y-142248343D01*
X104631227Y-142286723D01*
X104732365Y-142321444D01*
X104954431Y-142358500D01*
X104954435Y-142358500D01*
X105179565Y-142358500D01*
X105179569Y-142358500D01*
X105401635Y-142321444D01*
X105614574Y-142248342D01*
X105812576Y-142141189D01*
X105990240Y-142002906D01*
X106142722Y-141837268D01*
X106231518Y-141701354D01*
X106285520Y-141655268D01*
X106355868Y-141645692D01*
X106420225Y-141675669D01*
X106442480Y-141701353D01*
X106475607Y-141752058D01*
X106531275Y-141837265D01*
X106531279Y-141837270D01*
X106683762Y-142002908D01*
X106738331Y-142045381D01*
X106861424Y-142141189D01*
X107059426Y-142248342D01*
X107059427Y-142248342D01*
X107059428Y-142248343D01*
X107171227Y-142286723D01*
X107272365Y-142321444D01*
X107494431Y-142358500D01*
X107494435Y-142358500D01*
X107719565Y-142358500D01*
X107719569Y-142358500D01*
X107941635Y-142321444D01*
X108154574Y-142248342D01*
X108352576Y-142141189D01*
X108530240Y-142002906D01*
X108682722Y-141837268D01*
X108771518Y-141701354D01*
X108825520Y-141655268D01*
X108895868Y-141645692D01*
X108960225Y-141675669D01*
X108982480Y-141701353D01*
X109015607Y-141752058D01*
X109071275Y-141837265D01*
X109071279Y-141837270D01*
X109223762Y-142002908D01*
X109278331Y-142045381D01*
X109401424Y-142141189D01*
X109599426Y-142248342D01*
X109599427Y-142248342D01*
X109599428Y-142248343D01*
X109711227Y-142286723D01*
X109812365Y-142321444D01*
X110034431Y-142358500D01*
X110034435Y-142358500D01*
X110259565Y-142358500D01*
X110259569Y-142358500D01*
X110481635Y-142321444D01*
X110694574Y-142248342D01*
X110892576Y-142141189D01*
X111070240Y-142002906D01*
X111222722Y-141837268D01*
X111311518Y-141701354D01*
X111365520Y-141655268D01*
X111435868Y-141645692D01*
X111500225Y-141675669D01*
X111522480Y-141701353D01*
X111555607Y-141752058D01*
X111611275Y-141837265D01*
X111611279Y-141837270D01*
X111763762Y-142002908D01*
X111818331Y-142045381D01*
X111941424Y-142141189D01*
X112139426Y-142248342D01*
X112139427Y-142248342D01*
X112139428Y-142248343D01*
X112251227Y-142286723D01*
X112352365Y-142321444D01*
X112574431Y-142358500D01*
X112574435Y-142358500D01*
X112799565Y-142358500D01*
X112799569Y-142358500D01*
X113021635Y-142321444D01*
X113234574Y-142248342D01*
X113432576Y-142141189D01*
X113610240Y-142002906D01*
X113762722Y-141837268D01*
X113851518Y-141701354D01*
X113905520Y-141655268D01*
X113975868Y-141645692D01*
X114040225Y-141675669D01*
X114062480Y-141701353D01*
X114095607Y-141752058D01*
X114151275Y-141837265D01*
X114151279Y-141837270D01*
X114303762Y-142002908D01*
X114358331Y-142045381D01*
X114481424Y-142141189D01*
X114679426Y-142248342D01*
X114679427Y-142248342D01*
X114679428Y-142248343D01*
X114791227Y-142286723D01*
X114892365Y-142321444D01*
X115114431Y-142358500D01*
X115114435Y-142358500D01*
X115339565Y-142358500D01*
X115339569Y-142358500D01*
X115561635Y-142321444D01*
X115774574Y-142248342D01*
X115972576Y-142141189D01*
X116150240Y-142002906D01*
X116302722Y-141837268D01*
X116391518Y-141701354D01*
X116445520Y-141655268D01*
X116515868Y-141645692D01*
X116580225Y-141675669D01*
X116602480Y-141701353D01*
X116635607Y-141752058D01*
X116691275Y-141837265D01*
X116691279Y-141837270D01*
X116843762Y-142002908D01*
X116898331Y-142045381D01*
X117021424Y-142141189D01*
X117219426Y-142248342D01*
X117219427Y-142248342D01*
X117219428Y-142248343D01*
X117331227Y-142286723D01*
X117432365Y-142321444D01*
X117654431Y-142358500D01*
X117654435Y-142358500D01*
X117879565Y-142358500D01*
X117879569Y-142358500D01*
X118101635Y-142321444D01*
X118314574Y-142248342D01*
X118512576Y-142141189D01*
X118690240Y-142002906D01*
X118842722Y-141837268D01*
X118931518Y-141701354D01*
X118985520Y-141655268D01*
X119055868Y-141645692D01*
X119120225Y-141675669D01*
X119142480Y-141701353D01*
X119175607Y-141752058D01*
X119231275Y-141837265D01*
X119231279Y-141837270D01*
X119383762Y-142002908D01*
X119438331Y-142045381D01*
X119561424Y-142141189D01*
X119759426Y-142248342D01*
X119759427Y-142248342D01*
X119759428Y-142248343D01*
X119871227Y-142286723D01*
X119972365Y-142321444D01*
X120194431Y-142358500D01*
X120194435Y-142358500D01*
X120419565Y-142358500D01*
X120419569Y-142358500D01*
X120641635Y-142321444D01*
X120854574Y-142248342D01*
X121052576Y-142141189D01*
X121230240Y-142002906D01*
X121382722Y-141837268D01*
X121471518Y-141701354D01*
X121525520Y-141655268D01*
X121595868Y-141645692D01*
X121660225Y-141675669D01*
X121682480Y-141701353D01*
X121715607Y-141752058D01*
X121771275Y-141837265D01*
X121771279Y-141837270D01*
X121923762Y-142002908D01*
X121978331Y-142045381D01*
X122101424Y-142141189D01*
X122299426Y-142248342D01*
X122299427Y-142248342D01*
X122299428Y-142248343D01*
X122411227Y-142286723D01*
X122512365Y-142321444D01*
X122734431Y-142358500D01*
X122734435Y-142358500D01*
X122959565Y-142358500D01*
X122959569Y-142358500D01*
X123181635Y-142321444D01*
X123394574Y-142248342D01*
X123592576Y-142141189D01*
X123770240Y-142002906D01*
X123922722Y-141837268D01*
X124011518Y-141701354D01*
X124065520Y-141655268D01*
X124135868Y-141645692D01*
X124200225Y-141675669D01*
X124222480Y-141701353D01*
X124255607Y-141752058D01*
X124311275Y-141837265D01*
X124311279Y-141837270D01*
X124463762Y-142002908D01*
X124518331Y-142045381D01*
X124641424Y-142141189D01*
X124839426Y-142248342D01*
X124839427Y-142248342D01*
X124839428Y-142248343D01*
X124951227Y-142286723D01*
X125052365Y-142321444D01*
X125274431Y-142358500D01*
X125274435Y-142358500D01*
X125499565Y-142358500D01*
X125499569Y-142358500D01*
X125721635Y-142321444D01*
X125934574Y-142248342D01*
X126132576Y-142141189D01*
X126310240Y-142002906D01*
X126462722Y-141837268D01*
X126551518Y-141701354D01*
X126605520Y-141655268D01*
X126675868Y-141645692D01*
X126740225Y-141675669D01*
X126762480Y-141701353D01*
X126795607Y-141752058D01*
X126851275Y-141837265D01*
X126851279Y-141837270D01*
X127003762Y-142002908D01*
X127058331Y-142045381D01*
X127181424Y-142141189D01*
X127379426Y-142248342D01*
X127379427Y-142248342D01*
X127379428Y-142248343D01*
X127491227Y-142286723D01*
X127592365Y-142321444D01*
X127814431Y-142358500D01*
X127814435Y-142358500D01*
X128039565Y-142358500D01*
X128039569Y-142358500D01*
X128261635Y-142321444D01*
X128474574Y-142248342D01*
X128672576Y-142141189D01*
X128850240Y-142002906D01*
X129002722Y-141837268D01*
X129091518Y-141701354D01*
X129145520Y-141655268D01*
X129215868Y-141645692D01*
X129280225Y-141675669D01*
X129302480Y-141701353D01*
X129335607Y-141752058D01*
X129391275Y-141837265D01*
X129391279Y-141837270D01*
X129543762Y-142002908D01*
X129598331Y-142045381D01*
X129721424Y-142141189D01*
X129919426Y-142248342D01*
X129919427Y-142248342D01*
X129919428Y-142248343D01*
X130031227Y-142286723D01*
X130132365Y-142321444D01*
X130354431Y-142358500D01*
X130354435Y-142358500D01*
X130579565Y-142358500D01*
X130579569Y-142358500D01*
X130801635Y-142321444D01*
X131014574Y-142248342D01*
X131212576Y-142141189D01*
X131390240Y-142002906D01*
X131542722Y-141837268D01*
X131631518Y-141701354D01*
X131685520Y-141655268D01*
X131755868Y-141645692D01*
X131820225Y-141675669D01*
X131842480Y-141701353D01*
X131875607Y-141752058D01*
X131931275Y-141837265D01*
X131931279Y-141837270D01*
X132083762Y-142002908D01*
X132138331Y-142045381D01*
X132261424Y-142141189D01*
X132459426Y-142248342D01*
X132459427Y-142248342D01*
X132459428Y-142248343D01*
X132571227Y-142286723D01*
X132672365Y-142321444D01*
X132894431Y-142358500D01*
X132894435Y-142358500D01*
X133119565Y-142358500D01*
X133119569Y-142358500D01*
X133341635Y-142321444D01*
X133554574Y-142248342D01*
X133752576Y-142141189D01*
X133930240Y-142002906D01*
X134082722Y-141837268D01*
X134171518Y-141701354D01*
X134225520Y-141655268D01*
X134295868Y-141645692D01*
X134360225Y-141675669D01*
X134382480Y-141701353D01*
X134415607Y-141752058D01*
X134471275Y-141837265D01*
X134471279Y-141837270D01*
X134623762Y-142002908D01*
X134678331Y-142045381D01*
X134801424Y-142141189D01*
X134999426Y-142248342D01*
X134999427Y-142248342D01*
X134999428Y-142248343D01*
X135111227Y-142286723D01*
X135212365Y-142321444D01*
X135434431Y-142358500D01*
X135434435Y-142358500D01*
X135659565Y-142358500D01*
X135659569Y-142358500D01*
X135881635Y-142321444D01*
X136094574Y-142248342D01*
X136292576Y-142141189D01*
X136470240Y-142002906D01*
X136622722Y-141837268D01*
X136711518Y-141701354D01*
X136765520Y-141655268D01*
X136835868Y-141645692D01*
X136900225Y-141675669D01*
X136922480Y-141701353D01*
X136955607Y-141752058D01*
X137011275Y-141837265D01*
X137011279Y-141837270D01*
X137163762Y-142002908D01*
X137218331Y-142045381D01*
X137341424Y-142141189D01*
X137539426Y-142248342D01*
X137539427Y-142248342D01*
X137539428Y-142248343D01*
X137651227Y-142286723D01*
X137752365Y-142321444D01*
X137974431Y-142358500D01*
X137974435Y-142358500D01*
X138199565Y-142358500D01*
X138199569Y-142358500D01*
X138421635Y-142321444D01*
X138634574Y-142248342D01*
X138832576Y-142141189D01*
X139010240Y-142002906D01*
X139071626Y-141936222D01*
X139132476Y-141899654D01*
X139203441Y-141901787D01*
X139261986Y-141941949D01*
X139282380Y-141977529D01*
X139326553Y-142095961D01*
X139326555Y-142095965D01*
X139414095Y-142212904D01*
X139531034Y-142300444D01*
X139667906Y-142351494D01*
X139728402Y-142357999D01*
X139728415Y-142358000D01*
X140373000Y-142358000D01*
X140373000Y-141430702D01*
X140434007Y-141465925D01*
X140561174Y-141500000D01*
X140692826Y-141500000D01*
X140819993Y-141465925D01*
X140881000Y-141430702D01*
X140881000Y-142358000D01*
X141525585Y-142358000D01*
X141525597Y-142357999D01*
X141586093Y-142351494D01*
X141722964Y-142300444D01*
X141722965Y-142300444D01*
X141839904Y-142212904D01*
X141927444Y-142095965D01*
X141927444Y-142095964D01*
X141978494Y-141959093D01*
X141984999Y-141898597D01*
X141985000Y-141898585D01*
X141985000Y-141254000D01*
X141057703Y-141254000D01*
X141092925Y-141192993D01*
X141127000Y-141065826D01*
X141127000Y-140934174D01*
X141092925Y-140807007D01*
X141057703Y-140746000D01*
X141985000Y-140746000D01*
X141985000Y-140101414D01*
X141984999Y-140101402D01*
X141978494Y-140040906D01*
X141927444Y-139904035D01*
X141927444Y-139904034D01*
X141839904Y-139787095D01*
X141722966Y-139699556D01*
X141607321Y-139656423D01*
X141550486Y-139613876D01*
X141525675Y-139547356D01*
X141540766Y-139477982D01*
X141558653Y-139453030D01*
X141702323Y-139296961D01*
X141825419Y-139108548D01*
X141915820Y-138902456D01*
X141915823Y-138902449D01*
X141963544Y-138714000D01*
X141057703Y-138714000D01*
X141092925Y-138652993D01*
X141127000Y-138525826D01*
X141127000Y-138394174D01*
X141092925Y-138267007D01*
X141057703Y-138206000D01*
X141963544Y-138206000D01*
X141963544Y-138205999D01*
X141915823Y-138017550D01*
X141915820Y-138017543D01*
X141825419Y-137811451D01*
X141702325Y-137623041D01*
X141549902Y-137457465D01*
X141372301Y-137319232D01*
X141372300Y-137319231D01*
X141174371Y-137212117D01*
X141174369Y-137212116D01*
X140961512Y-137139043D01*
X140961501Y-137139040D01*
X140881000Y-137125606D01*
X140881000Y-138029297D01*
X140819993Y-137994075D01*
X140692826Y-137960000D01*
X140561174Y-137960000D01*
X140434007Y-137994075D01*
X140373000Y-138029297D01*
X140373000Y-137125607D01*
X140372999Y-137125606D01*
X140292498Y-137139040D01*
X140292487Y-137139043D01*
X140079630Y-137212116D01*
X140079628Y-137212117D01*
X139881699Y-137319231D01*
X139881698Y-137319232D01*
X139704097Y-137457465D01*
X139551670Y-137623045D01*
X139462780Y-137759101D01*
X139408776Y-137805189D01*
X139338428Y-137814764D01*
X139274071Y-137784786D01*
X139251816Y-137759101D01*
X139212884Y-137699511D01*
X139162724Y-137622734D01*
X139162720Y-137622729D01*
X139046570Y-137496559D01*
X139010240Y-137457094D01*
X139010239Y-137457093D01*
X139010237Y-137457091D01*
X138928382Y-137393381D01*
X138832576Y-137318811D01*
X138634574Y-137211658D01*
X138634572Y-137211657D01*
X138634571Y-137211656D01*
X138421639Y-137138557D01*
X138421630Y-137138555D01*
X138344029Y-137125606D01*
X138199569Y-137101500D01*
X137974431Y-137101500D01*
X137829971Y-137125606D01*
X137752369Y-137138555D01*
X137752360Y-137138557D01*
X137539428Y-137211656D01*
X137539426Y-137211658D01*
X137341426Y-137318810D01*
X137341424Y-137318811D01*
X137163762Y-137457091D01*
X137011279Y-137622729D01*
X136922483Y-137758643D01*
X136868479Y-137804731D01*
X136798131Y-137814306D01*
X136733774Y-137784329D01*
X136711517Y-137758643D01*
X136622720Y-137622729D01*
X136506570Y-137496559D01*
X136470240Y-137457094D01*
X136470239Y-137457093D01*
X136470237Y-137457091D01*
X136388382Y-137393381D01*
X136292576Y-137318811D01*
X136094574Y-137211658D01*
X136094572Y-137211657D01*
X136094571Y-137211656D01*
X135881639Y-137138557D01*
X135881630Y-137138555D01*
X135804029Y-137125606D01*
X135659569Y-137101500D01*
X135434431Y-137101500D01*
X135289971Y-137125606D01*
X135212369Y-137138555D01*
X135212360Y-137138557D01*
X134999428Y-137211656D01*
X134999426Y-137211658D01*
X134801426Y-137318810D01*
X134801424Y-137318811D01*
X134623762Y-137457091D01*
X134471279Y-137622729D01*
X134382483Y-137758643D01*
X134328479Y-137804731D01*
X134258131Y-137814306D01*
X134193774Y-137784329D01*
X134171517Y-137758643D01*
X134082720Y-137622729D01*
X133966570Y-137496559D01*
X133930240Y-137457094D01*
X133930239Y-137457093D01*
X133930237Y-137457091D01*
X133848382Y-137393381D01*
X133752576Y-137318811D01*
X133554574Y-137211658D01*
X133554572Y-137211657D01*
X133554571Y-137211656D01*
X133341639Y-137138557D01*
X133341630Y-137138555D01*
X133264029Y-137125606D01*
X133119569Y-137101500D01*
X132894431Y-137101500D01*
X132749971Y-137125606D01*
X132672369Y-137138555D01*
X132672360Y-137138557D01*
X132459428Y-137211656D01*
X132459426Y-137211658D01*
X132261426Y-137318810D01*
X132261424Y-137318811D01*
X132083762Y-137457091D01*
X131931279Y-137622729D01*
X131842483Y-137758643D01*
X131788479Y-137804731D01*
X131718131Y-137814306D01*
X131653774Y-137784329D01*
X131631517Y-137758643D01*
X131542720Y-137622729D01*
X131426570Y-137496559D01*
X131390240Y-137457094D01*
X131390239Y-137457093D01*
X131390237Y-137457091D01*
X131308382Y-137393381D01*
X131212576Y-137318811D01*
X131014574Y-137211658D01*
X131014572Y-137211657D01*
X131014571Y-137211656D01*
X130801639Y-137138557D01*
X130801630Y-137138555D01*
X130724029Y-137125606D01*
X130579569Y-137101500D01*
X130354431Y-137101500D01*
X130209971Y-137125606D01*
X130132369Y-137138555D01*
X130132360Y-137138557D01*
X129919428Y-137211656D01*
X129919426Y-137211658D01*
X129721426Y-137318810D01*
X129721424Y-137318811D01*
X129543762Y-137457091D01*
X129391279Y-137622729D01*
X129302483Y-137758643D01*
X129248479Y-137804731D01*
X129178131Y-137814306D01*
X129113774Y-137784329D01*
X129091517Y-137758643D01*
X129002720Y-137622729D01*
X128886570Y-137496559D01*
X128850240Y-137457094D01*
X128850239Y-137457093D01*
X128850237Y-137457091D01*
X128768382Y-137393381D01*
X128672576Y-137318811D01*
X128474574Y-137211658D01*
X128474572Y-137211657D01*
X128474571Y-137211656D01*
X128261639Y-137138557D01*
X128261630Y-137138555D01*
X128184029Y-137125606D01*
X128039569Y-137101500D01*
X127814431Y-137101500D01*
X127669971Y-137125606D01*
X127592369Y-137138555D01*
X127592360Y-137138557D01*
X127379428Y-137211656D01*
X127379426Y-137211658D01*
X127181426Y-137318810D01*
X127181424Y-137318811D01*
X127003762Y-137457091D01*
X126851279Y-137622729D01*
X126762483Y-137758643D01*
X126708479Y-137804731D01*
X126638131Y-137814306D01*
X126573774Y-137784329D01*
X126551517Y-137758643D01*
X126462720Y-137622729D01*
X126346570Y-137496559D01*
X126310240Y-137457094D01*
X126310239Y-137457093D01*
X126310237Y-137457091D01*
X126228382Y-137393381D01*
X126132576Y-137318811D01*
X125934574Y-137211658D01*
X125934572Y-137211657D01*
X125934571Y-137211656D01*
X125721639Y-137138557D01*
X125721630Y-137138555D01*
X125644029Y-137125606D01*
X125499569Y-137101500D01*
X125274431Y-137101500D01*
X125129971Y-137125606D01*
X125052369Y-137138555D01*
X125052360Y-137138557D01*
X124839428Y-137211656D01*
X124839426Y-137211658D01*
X124641426Y-137318810D01*
X124641424Y-137318811D01*
X124463762Y-137457091D01*
X124311279Y-137622729D01*
X124222483Y-137758643D01*
X124168479Y-137804731D01*
X124098131Y-137814306D01*
X124033774Y-137784329D01*
X124011517Y-137758643D01*
X123922720Y-137622729D01*
X123806570Y-137496559D01*
X123770240Y-137457094D01*
X123770239Y-137457093D01*
X123770237Y-137457091D01*
X123688382Y-137393381D01*
X123592576Y-137318811D01*
X123394574Y-137211658D01*
X123394572Y-137211657D01*
X123394571Y-137211656D01*
X123181639Y-137138557D01*
X123181630Y-137138555D01*
X123104029Y-137125606D01*
X122959569Y-137101500D01*
X122734431Y-137101500D01*
X122589971Y-137125606D01*
X122512369Y-137138555D01*
X122512360Y-137138557D01*
X122299428Y-137211656D01*
X122299426Y-137211658D01*
X122101426Y-137318810D01*
X122101424Y-137318811D01*
X121923762Y-137457091D01*
X121771279Y-137622729D01*
X121682483Y-137758643D01*
X121628479Y-137804731D01*
X121558131Y-137814306D01*
X121493774Y-137784329D01*
X121471517Y-137758643D01*
X121382720Y-137622729D01*
X121266570Y-137496559D01*
X121230240Y-137457094D01*
X121230239Y-137457093D01*
X121230237Y-137457091D01*
X121148382Y-137393381D01*
X121052576Y-137318811D01*
X120854574Y-137211658D01*
X120854572Y-137211657D01*
X120854571Y-137211656D01*
X120641639Y-137138557D01*
X120641630Y-137138555D01*
X120564029Y-137125606D01*
X120419569Y-137101500D01*
X120194431Y-137101500D01*
X120049971Y-137125606D01*
X119972369Y-137138555D01*
X119972360Y-137138557D01*
X119759428Y-137211656D01*
X119759426Y-137211658D01*
X119561426Y-137318810D01*
X119561424Y-137318811D01*
X119383762Y-137457091D01*
X119231279Y-137622729D01*
X119142483Y-137758643D01*
X119088479Y-137804731D01*
X119018131Y-137814306D01*
X118953774Y-137784329D01*
X118931517Y-137758643D01*
X118842720Y-137622729D01*
X118726570Y-137496559D01*
X118690240Y-137457094D01*
X118690239Y-137457093D01*
X118690237Y-137457091D01*
X118608382Y-137393381D01*
X118512576Y-137318811D01*
X118314574Y-137211658D01*
X118314572Y-137211657D01*
X118314571Y-137211656D01*
X118101639Y-137138557D01*
X118101630Y-137138555D01*
X118024029Y-137125606D01*
X117879569Y-137101500D01*
X117654431Y-137101500D01*
X117509971Y-137125606D01*
X117432369Y-137138555D01*
X117432360Y-137138557D01*
X117219428Y-137211656D01*
X117219426Y-137211658D01*
X117021426Y-137318810D01*
X117021424Y-137318811D01*
X116843762Y-137457091D01*
X116691279Y-137622729D01*
X116602483Y-137758643D01*
X116548479Y-137804731D01*
X116478131Y-137814306D01*
X116413774Y-137784329D01*
X116391517Y-137758643D01*
X116302720Y-137622729D01*
X116186570Y-137496559D01*
X116150240Y-137457094D01*
X116150239Y-137457093D01*
X116150237Y-137457091D01*
X116068382Y-137393381D01*
X115972576Y-137318811D01*
X115774574Y-137211658D01*
X115774572Y-137211657D01*
X115774571Y-137211656D01*
X115561639Y-137138557D01*
X115561630Y-137138555D01*
X115484029Y-137125606D01*
X115339569Y-137101500D01*
X115114431Y-137101500D01*
X114969971Y-137125606D01*
X114892369Y-137138555D01*
X114892360Y-137138557D01*
X114679428Y-137211656D01*
X114679426Y-137211658D01*
X114481426Y-137318810D01*
X114481424Y-137318811D01*
X114303762Y-137457091D01*
X114151279Y-137622729D01*
X114062483Y-137758643D01*
X114008479Y-137804731D01*
X113938131Y-137814306D01*
X113873774Y-137784329D01*
X113851517Y-137758643D01*
X113762720Y-137622729D01*
X113646570Y-137496559D01*
X113610240Y-137457094D01*
X113610239Y-137457093D01*
X113610237Y-137457091D01*
X113528382Y-137393381D01*
X113432576Y-137318811D01*
X113234574Y-137211658D01*
X113234572Y-137211657D01*
X113234571Y-137211656D01*
X113021639Y-137138557D01*
X113021630Y-137138555D01*
X112944029Y-137125606D01*
X112799569Y-137101500D01*
X112574431Y-137101500D01*
X112429971Y-137125606D01*
X112352369Y-137138555D01*
X112352360Y-137138557D01*
X112139428Y-137211656D01*
X112139426Y-137211658D01*
X111941426Y-137318810D01*
X111941424Y-137318811D01*
X111763762Y-137457091D01*
X111611279Y-137622729D01*
X111522483Y-137758643D01*
X111468479Y-137804731D01*
X111398131Y-137814306D01*
X111333774Y-137784329D01*
X111311517Y-137758643D01*
X111222720Y-137622729D01*
X111106570Y-137496559D01*
X111070240Y-137457094D01*
X111070239Y-137457093D01*
X111070237Y-137457091D01*
X110988382Y-137393381D01*
X110892576Y-137318811D01*
X110694574Y-137211658D01*
X110694572Y-137211657D01*
X110694571Y-137211656D01*
X110481639Y-137138557D01*
X110481630Y-137138555D01*
X110404029Y-137125606D01*
X110259569Y-137101500D01*
X110034431Y-137101500D01*
X109889971Y-137125606D01*
X109812369Y-137138555D01*
X109812360Y-137138557D01*
X109599428Y-137211656D01*
X109599426Y-137211658D01*
X109401426Y-137318810D01*
X109401424Y-137318811D01*
X109223762Y-137457091D01*
X109071279Y-137622729D01*
X108982483Y-137758643D01*
X108928479Y-137804731D01*
X108858131Y-137814306D01*
X108793774Y-137784329D01*
X108771517Y-137758643D01*
X108682720Y-137622729D01*
X108566570Y-137496559D01*
X108530240Y-137457094D01*
X108530239Y-137457093D01*
X108530237Y-137457091D01*
X108448382Y-137393381D01*
X108352576Y-137318811D01*
X108154574Y-137211658D01*
X108154572Y-137211657D01*
X108154571Y-137211656D01*
X107941639Y-137138557D01*
X107941630Y-137138555D01*
X107864029Y-137125606D01*
X107719569Y-137101500D01*
X107494431Y-137101500D01*
X107349971Y-137125606D01*
X107272369Y-137138555D01*
X107272360Y-137138557D01*
X107059428Y-137211656D01*
X107059426Y-137211658D01*
X106861426Y-137318810D01*
X106861424Y-137318811D01*
X106683762Y-137457091D01*
X106531279Y-137622729D01*
X106442483Y-137758643D01*
X106388479Y-137804731D01*
X106318131Y-137814306D01*
X106253774Y-137784329D01*
X106231517Y-137758643D01*
X106142720Y-137622729D01*
X106026570Y-137496559D01*
X105990240Y-137457094D01*
X105990239Y-137457093D01*
X105990237Y-137457091D01*
X105908382Y-137393381D01*
X105812576Y-137318811D01*
X105614574Y-137211658D01*
X105614572Y-137211657D01*
X105614571Y-137211656D01*
X105401639Y-137138557D01*
X105401630Y-137138555D01*
X105324029Y-137125606D01*
X105179569Y-137101500D01*
X104954431Y-137101500D01*
X104809971Y-137125606D01*
X104732369Y-137138555D01*
X104732360Y-137138557D01*
X104519428Y-137211656D01*
X104519426Y-137211658D01*
X104321426Y-137318810D01*
X104321424Y-137318811D01*
X104143762Y-137457091D01*
X103991279Y-137622729D01*
X103902483Y-137758643D01*
X103848479Y-137804731D01*
X103778131Y-137814306D01*
X103713774Y-137784329D01*
X103691517Y-137758643D01*
X103602720Y-137622729D01*
X103486570Y-137496559D01*
X103450240Y-137457094D01*
X103450239Y-137457093D01*
X103450237Y-137457091D01*
X103368382Y-137393381D01*
X103272576Y-137318811D01*
X103074574Y-137211658D01*
X103074572Y-137211657D01*
X103074571Y-137211656D01*
X102861639Y-137138557D01*
X102861630Y-137138555D01*
X102784029Y-137125606D01*
X102639569Y-137101500D01*
X102414431Y-137101500D01*
X102269971Y-137125606D01*
X102192369Y-137138555D01*
X102192360Y-137138557D01*
X101979428Y-137211656D01*
X101979426Y-137211658D01*
X101781426Y-137318810D01*
X101781424Y-137318811D01*
X101603762Y-137457091D01*
X101451279Y-137622729D01*
X101362483Y-137758643D01*
X101308479Y-137804731D01*
X101238131Y-137814306D01*
X101173774Y-137784329D01*
X101151517Y-137758643D01*
X101062720Y-137622729D01*
X100946570Y-137496559D01*
X100910240Y-137457094D01*
X100910239Y-137457093D01*
X100910237Y-137457091D01*
X100828382Y-137393381D01*
X100732576Y-137318811D01*
X100534574Y-137211658D01*
X100534572Y-137211657D01*
X100534571Y-137211656D01*
X100321639Y-137138557D01*
X100321630Y-137138555D01*
X100244029Y-137125606D01*
X100099569Y-137101500D01*
X99874431Y-137101500D01*
X99729971Y-137125606D01*
X99652369Y-137138555D01*
X99652360Y-137138557D01*
X99439428Y-137211656D01*
X99439426Y-137211658D01*
X99241426Y-137318810D01*
X99241424Y-137318811D01*
X99063762Y-137457091D01*
X98911279Y-137622729D01*
X98822483Y-137758643D01*
X98768479Y-137804731D01*
X98698131Y-137814306D01*
X98633774Y-137784329D01*
X98611517Y-137758643D01*
X98522720Y-137622729D01*
X98406570Y-137496559D01*
X98370240Y-137457094D01*
X98370239Y-137457093D01*
X98370237Y-137457091D01*
X98288382Y-137393381D01*
X98192576Y-137318811D01*
X97994574Y-137211658D01*
X97994572Y-137211657D01*
X97994571Y-137211656D01*
X97781639Y-137138557D01*
X97781630Y-137138555D01*
X97704029Y-137125606D01*
X97559569Y-137101500D01*
X97334431Y-137101500D01*
X97189971Y-137125606D01*
X97112369Y-137138555D01*
X97112360Y-137138557D01*
X96899428Y-137211656D01*
X96899426Y-137211658D01*
X96701426Y-137318810D01*
X96701424Y-137318811D01*
X96523762Y-137457091D01*
X96371279Y-137622729D01*
X96282483Y-137758643D01*
X96228479Y-137804731D01*
X96158131Y-137814306D01*
X96093774Y-137784329D01*
X96071517Y-137758643D01*
X95982720Y-137622729D01*
X95866570Y-137496559D01*
X95830240Y-137457094D01*
X95830239Y-137457093D01*
X95830237Y-137457091D01*
X95748382Y-137393381D01*
X95652576Y-137318811D01*
X95454574Y-137211658D01*
X95454572Y-137211657D01*
X95454571Y-137211656D01*
X95241639Y-137138557D01*
X95241630Y-137138555D01*
X95164029Y-137125606D01*
X95019569Y-137101500D01*
X94794431Y-137101500D01*
X94649971Y-137125606D01*
X94572369Y-137138555D01*
X94572360Y-137138557D01*
X94359428Y-137211656D01*
X94359426Y-137211658D01*
X94161426Y-137318810D01*
X94161424Y-137318811D01*
X93983762Y-137457091D01*
X93831279Y-137622729D01*
X93742483Y-137758643D01*
X93688479Y-137804731D01*
X93618131Y-137814306D01*
X93553774Y-137784329D01*
X93531517Y-137758643D01*
X93442720Y-137622729D01*
X93326570Y-137496559D01*
X93290240Y-137457094D01*
X93290239Y-137457093D01*
X93290237Y-137457091D01*
X93208382Y-137393381D01*
X93112576Y-137318811D01*
X92914574Y-137211658D01*
X92914572Y-137211657D01*
X92914571Y-137211656D01*
X92701639Y-137138557D01*
X92701630Y-137138555D01*
X92624029Y-137125606D01*
X92479569Y-137101500D01*
X92254431Y-137101500D01*
X92109971Y-137125606D01*
X92032369Y-137138555D01*
X92032360Y-137138557D01*
X91819428Y-137211656D01*
X91819426Y-137211658D01*
X91621426Y-137318810D01*
X91621424Y-137318811D01*
X91443762Y-137457091D01*
X91291279Y-137622729D01*
X91291275Y-137622734D01*
X91168141Y-137811206D01*
X91077703Y-138017386D01*
X91077702Y-138017387D01*
X91022437Y-138235624D01*
X91022436Y-138235630D01*
X91022436Y-138235632D01*
X91003844Y-138460000D01*
X50000000Y-138460000D01*
X50000000Y-61540000D01*
X91003844Y-61540000D01*
X91019836Y-61732993D01*
X91022437Y-61764375D01*
X91077702Y-61982612D01*
X91077703Y-61982613D01*
X91077704Y-61982616D01*
X91168140Y-62188791D01*
X91168141Y-62188793D01*
X91291275Y-62377265D01*
X91291279Y-62377270D01*
X91443762Y-62542908D01*
X91498331Y-62585381D01*
X91621424Y-62681189D01*
X91819426Y-62788342D01*
X91819427Y-62788342D01*
X91819428Y-62788343D01*
X91931227Y-62826723D01*
X92032365Y-62861444D01*
X92254431Y-62898500D01*
X92254435Y-62898500D01*
X92479565Y-62898500D01*
X92479569Y-62898500D01*
X92701635Y-62861444D01*
X92914574Y-62788342D01*
X93112576Y-62681189D01*
X93290240Y-62542906D01*
X93442722Y-62377268D01*
X93531518Y-62241354D01*
X93585520Y-62195268D01*
X93655868Y-62185692D01*
X93720225Y-62215669D01*
X93742480Y-62241353D01*
X93775607Y-62292058D01*
X93831275Y-62377265D01*
X93831279Y-62377270D01*
X93983762Y-62542908D01*
X94038331Y-62585381D01*
X94161424Y-62681189D01*
X94359426Y-62788342D01*
X94359427Y-62788342D01*
X94359428Y-62788343D01*
X94471227Y-62826723D01*
X94572365Y-62861444D01*
X94794431Y-62898500D01*
X94794435Y-62898500D01*
X95019565Y-62898500D01*
X95019569Y-62898500D01*
X95241635Y-62861444D01*
X95454574Y-62788342D01*
X95652576Y-62681189D01*
X95830240Y-62542906D01*
X95982722Y-62377268D01*
X96071518Y-62241354D01*
X96125520Y-62195268D01*
X96195868Y-62185692D01*
X96260225Y-62215669D01*
X96282480Y-62241353D01*
X96315607Y-62292058D01*
X96371275Y-62377265D01*
X96371279Y-62377270D01*
X96523762Y-62542908D01*
X96578331Y-62585381D01*
X96701424Y-62681189D01*
X96899426Y-62788342D01*
X96899427Y-62788342D01*
X96899428Y-62788343D01*
X97011227Y-62826723D01*
X97112365Y-62861444D01*
X97334431Y-62898500D01*
X97334435Y-62898500D01*
X97559565Y-62898500D01*
X97559569Y-62898500D01*
X97781635Y-62861444D01*
X97994574Y-62788342D01*
X98192576Y-62681189D01*
X98370240Y-62542906D01*
X98522722Y-62377268D01*
X98611518Y-62241354D01*
X98665520Y-62195268D01*
X98735868Y-62185692D01*
X98800225Y-62215669D01*
X98822480Y-62241353D01*
X98855607Y-62292058D01*
X98911275Y-62377265D01*
X98911279Y-62377270D01*
X99063762Y-62542908D01*
X99118331Y-62585381D01*
X99241424Y-62681189D01*
X99439426Y-62788342D01*
X99439427Y-62788342D01*
X99439428Y-62788343D01*
X99551227Y-62826723D01*
X99652365Y-62861444D01*
X99874431Y-62898500D01*
X99874435Y-62898500D01*
X100099565Y-62898500D01*
X100099569Y-62898500D01*
X100321635Y-62861444D01*
X100534574Y-62788342D01*
X100732576Y-62681189D01*
X100910240Y-62542906D01*
X101062722Y-62377268D01*
X101151518Y-62241354D01*
X101205520Y-62195268D01*
X101275868Y-62185692D01*
X101340225Y-62215669D01*
X101362480Y-62241353D01*
X101395607Y-62292058D01*
X101451275Y-62377265D01*
X101451279Y-62377270D01*
X101603762Y-62542908D01*
X101658331Y-62585381D01*
X101781424Y-62681189D01*
X101979426Y-62788342D01*
X101979427Y-62788342D01*
X101979428Y-62788343D01*
X102091227Y-62826723D01*
X102192365Y-62861444D01*
X102414431Y-62898500D01*
X102414435Y-62898500D01*
X102639565Y-62898500D01*
X102639569Y-62898500D01*
X102861635Y-62861444D01*
X103074574Y-62788342D01*
X103272576Y-62681189D01*
X103450240Y-62542906D01*
X103602722Y-62377268D01*
X103691518Y-62241354D01*
X103745520Y-62195268D01*
X103815868Y-62185692D01*
X103880225Y-62215669D01*
X103902480Y-62241353D01*
X103935607Y-62292058D01*
X103991275Y-62377265D01*
X103991279Y-62377270D01*
X104143762Y-62542908D01*
X104198331Y-62585381D01*
X104321424Y-62681189D01*
X104519426Y-62788342D01*
X104519427Y-62788342D01*
X104519428Y-62788343D01*
X104631227Y-62826723D01*
X104732365Y-62861444D01*
X104954431Y-62898500D01*
X104954435Y-62898500D01*
X105179565Y-62898500D01*
X105179569Y-62898500D01*
X105401635Y-62861444D01*
X105614574Y-62788342D01*
X105812576Y-62681189D01*
X105990240Y-62542906D01*
X106142722Y-62377268D01*
X106231518Y-62241354D01*
X106285520Y-62195268D01*
X106355868Y-62185692D01*
X106420225Y-62215669D01*
X106442480Y-62241353D01*
X106475607Y-62292058D01*
X106531275Y-62377265D01*
X106531279Y-62377270D01*
X106683762Y-62542908D01*
X106738331Y-62585381D01*
X106861424Y-62681189D01*
X107059426Y-62788342D01*
X107059427Y-62788342D01*
X107059428Y-62788343D01*
X107171227Y-62826723D01*
X107272365Y-62861444D01*
X107494431Y-62898500D01*
X107494435Y-62898500D01*
X107719565Y-62898500D01*
X107719569Y-62898500D01*
X107941635Y-62861444D01*
X108154574Y-62788342D01*
X108352576Y-62681189D01*
X108530240Y-62542906D01*
X108682722Y-62377268D01*
X108771518Y-62241354D01*
X108825520Y-62195268D01*
X108895868Y-62185692D01*
X108960225Y-62215669D01*
X108982480Y-62241353D01*
X109015607Y-62292058D01*
X109071275Y-62377265D01*
X109071279Y-62377270D01*
X109223762Y-62542908D01*
X109278331Y-62585381D01*
X109401424Y-62681189D01*
X109599426Y-62788342D01*
X109599427Y-62788342D01*
X109599428Y-62788343D01*
X109711227Y-62826723D01*
X109812365Y-62861444D01*
X110034431Y-62898500D01*
X110034435Y-62898500D01*
X110259565Y-62898500D01*
X110259569Y-62898500D01*
X110481635Y-62861444D01*
X110694574Y-62788342D01*
X110892576Y-62681189D01*
X111070240Y-62542906D01*
X111222722Y-62377268D01*
X111311518Y-62241354D01*
X111365520Y-62195268D01*
X111435868Y-62185692D01*
X111500225Y-62215669D01*
X111522480Y-62241353D01*
X111555607Y-62292058D01*
X111611275Y-62377265D01*
X111611279Y-62377270D01*
X111763762Y-62542908D01*
X111818331Y-62585381D01*
X111941424Y-62681189D01*
X112139426Y-62788342D01*
X112139427Y-62788342D01*
X112139428Y-62788343D01*
X112251227Y-62826723D01*
X112352365Y-62861444D01*
X112574431Y-62898500D01*
X112574435Y-62898500D01*
X112799565Y-62898500D01*
X112799569Y-62898500D01*
X113021635Y-62861444D01*
X113234574Y-62788342D01*
X113432576Y-62681189D01*
X113610240Y-62542906D01*
X113762722Y-62377268D01*
X113851518Y-62241354D01*
X113905520Y-62195268D01*
X113975868Y-62185692D01*
X114040225Y-62215669D01*
X114062480Y-62241353D01*
X114095607Y-62292058D01*
X114151275Y-62377265D01*
X114151279Y-62377270D01*
X114303762Y-62542908D01*
X114358331Y-62585381D01*
X114481424Y-62681189D01*
X114679426Y-62788342D01*
X114679427Y-62788342D01*
X114679428Y-62788343D01*
X114791227Y-62826723D01*
X114892365Y-62861444D01*
X115114431Y-62898500D01*
X115114435Y-62898500D01*
X115339565Y-62898500D01*
X115339569Y-62898500D01*
X115561635Y-62861444D01*
X115774574Y-62788342D01*
X115972576Y-62681189D01*
X116150240Y-62542906D01*
X116302722Y-62377268D01*
X116391518Y-62241354D01*
X116445520Y-62195268D01*
X116515868Y-62185692D01*
X116580225Y-62215669D01*
X116602480Y-62241353D01*
X116635607Y-62292058D01*
X116691275Y-62377265D01*
X116691279Y-62377270D01*
X116843762Y-62542908D01*
X116898331Y-62585381D01*
X117021424Y-62681189D01*
X117219426Y-62788342D01*
X117219427Y-62788342D01*
X117219428Y-62788343D01*
X117331227Y-62826723D01*
X117432365Y-62861444D01*
X117654431Y-62898500D01*
X117654435Y-62898500D01*
X117879565Y-62898500D01*
X117879569Y-62898500D01*
X118101635Y-62861444D01*
X118314574Y-62788342D01*
X118512576Y-62681189D01*
X118690240Y-62542906D01*
X118842722Y-62377268D01*
X118931518Y-62241354D01*
X118985520Y-62195268D01*
X119055868Y-62185692D01*
X119120225Y-62215669D01*
X119142480Y-62241353D01*
X119175607Y-62292058D01*
X119231275Y-62377265D01*
X119231279Y-62377270D01*
X119383762Y-62542908D01*
X119438331Y-62585381D01*
X119561424Y-62681189D01*
X119759426Y-62788342D01*
X119759427Y-62788342D01*
X119759428Y-62788343D01*
X119871227Y-62826723D01*
X119972365Y-62861444D01*
X120194431Y-62898500D01*
X120194435Y-62898500D01*
X120419565Y-62898500D01*
X120419569Y-62898500D01*
X120641635Y-62861444D01*
X120854574Y-62788342D01*
X121052576Y-62681189D01*
X121230240Y-62542906D01*
X121382722Y-62377268D01*
X121471518Y-62241354D01*
X121525520Y-62195268D01*
X121595868Y-62185692D01*
X121660225Y-62215669D01*
X121682480Y-62241353D01*
X121715607Y-62292058D01*
X121771275Y-62377265D01*
X121771279Y-62377270D01*
X121923762Y-62542908D01*
X121978331Y-62585381D01*
X122101424Y-62681189D01*
X122299426Y-62788342D01*
X122299427Y-62788342D01*
X122299428Y-62788343D01*
X122411227Y-62826723D01*
X122512365Y-62861444D01*
X122734431Y-62898500D01*
X122734435Y-62898500D01*
X122959565Y-62898500D01*
X122959569Y-62898500D01*
X123181635Y-62861444D01*
X123394574Y-62788342D01*
X123592576Y-62681189D01*
X123770240Y-62542906D01*
X123922722Y-62377268D01*
X124011518Y-62241354D01*
X124065520Y-62195268D01*
X124135868Y-62185692D01*
X124200225Y-62215669D01*
X124222480Y-62241353D01*
X124255607Y-62292058D01*
X124311275Y-62377265D01*
X124311279Y-62377270D01*
X124463762Y-62542908D01*
X124518331Y-62585381D01*
X124641424Y-62681189D01*
X124839426Y-62788342D01*
X124839427Y-62788342D01*
X124839428Y-62788343D01*
X124951227Y-62826723D01*
X125052365Y-62861444D01*
X125274431Y-62898500D01*
X125274435Y-62898500D01*
X125499565Y-62898500D01*
X125499569Y-62898500D01*
X125721635Y-62861444D01*
X125934574Y-62788342D01*
X126132576Y-62681189D01*
X126310240Y-62542906D01*
X126462722Y-62377268D01*
X126551518Y-62241354D01*
X126605520Y-62195268D01*
X126675868Y-62185692D01*
X126740225Y-62215669D01*
X126762480Y-62241353D01*
X126795607Y-62292058D01*
X126851275Y-62377265D01*
X126851279Y-62377270D01*
X127003762Y-62542908D01*
X127058331Y-62585381D01*
X127181424Y-62681189D01*
X127379426Y-62788342D01*
X127379427Y-62788342D01*
X127379428Y-62788343D01*
X127491227Y-62826723D01*
X127592365Y-62861444D01*
X127814431Y-62898500D01*
X127814435Y-62898500D01*
X128039565Y-62898500D01*
X128039569Y-62898500D01*
X128261635Y-62861444D01*
X128474574Y-62788342D01*
X128672576Y-62681189D01*
X128850240Y-62542906D01*
X129002722Y-62377268D01*
X129091518Y-62241354D01*
X129145520Y-62195268D01*
X129215868Y-62185692D01*
X129280225Y-62215669D01*
X129302480Y-62241353D01*
X129335607Y-62292058D01*
X129391275Y-62377265D01*
X129391279Y-62377270D01*
X129543762Y-62542908D01*
X129598331Y-62585381D01*
X129721424Y-62681189D01*
X129919426Y-62788342D01*
X129919427Y-62788342D01*
X129919428Y-62788343D01*
X130031227Y-62826723D01*
X130132365Y-62861444D01*
X130354431Y-62898500D01*
X130354435Y-62898500D01*
X130579565Y-62898500D01*
X130579569Y-62898500D01*
X130801635Y-62861444D01*
X131014574Y-62788342D01*
X131212576Y-62681189D01*
X131390240Y-62542906D01*
X131542722Y-62377268D01*
X131631518Y-62241354D01*
X131685520Y-62195268D01*
X131755868Y-62185692D01*
X131820225Y-62215669D01*
X131842480Y-62241353D01*
X131875607Y-62292058D01*
X131931275Y-62377265D01*
X131931279Y-62377270D01*
X132083762Y-62542908D01*
X132138331Y-62585381D01*
X132261424Y-62681189D01*
X132459426Y-62788342D01*
X132459427Y-62788342D01*
X132459428Y-62788343D01*
X132571227Y-62826723D01*
X132672365Y-62861444D01*
X132894431Y-62898500D01*
X132894435Y-62898500D01*
X133119565Y-62898500D01*
X133119569Y-62898500D01*
X133341635Y-62861444D01*
X133554574Y-62788342D01*
X133752576Y-62681189D01*
X133930240Y-62542906D01*
X134082722Y-62377268D01*
X134171518Y-62241354D01*
X134225520Y-62195268D01*
X134295868Y-62185692D01*
X134360225Y-62215669D01*
X134382480Y-62241353D01*
X134415607Y-62292058D01*
X134471275Y-62377265D01*
X134471279Y-62377270D01*
X134623762Y-62542908D01*
X134678331Y-62585381D01*
X134801424Y-62681189D01*
X134999426Y-62788342D01*
X134999427Y-62788342D01*
X134999428Y-62788343D01*
X135111227Y-62826723D01*
X135212365Y-62861444D01*
X135434431Y-62898500D01*
X135434435Y-62898500D01*
X135659565Y-62898500D01*
X135659569Y-62898500D01*
X135881635Y-62861444D01*
X136094574Y-62788342D01*
X136292576Y-62681189D01*
X136470240Y-62542906D01*
X136622722Y-62377268D01*
X136711518Y-62241354D01*
X136765520Y-62195268D01*
X136835868Y-62185692D01*
X136900225Y-62215669D01*
X136922480Y-62241353D01*
X136955607Y-62292058D01*
X137011275Y-62377265D01*
X137011279Y-62377270D01*
X137163762Y-62542908D01*
X137218331Y-62585381D01*
X137341424Y-62681189D01*
X137539426Y-62788342D01*
X137539427Y-62788342D01*
X137539428Y-62788343D01*
X137651227Y-62826723D01*
X137752365Y-62861444D01*
X137974431Y-62898500D01*
X137974435Y-62898500D01*
X138199565Y-62898500D01*
X138199569Y-62898500D01*
X138421635Y-62861444D01*
X138634574Y-62788342D01*
X138832576Y-62681189D01*
X139010240Y-62542906D01*
X139162722Y-62377268D01*
X139251816Y-62240898D01*
X139305819Y-62194810D01*
X139376167Y-62185235D01*
X139440524Y-62215212D01*
X139462782Y-62240898D01*
X139551674Y-62376958D01*
X139704097Y-62542534D01*
X139881698Y-62680767D01*
X139881699Y-62680768D01*
X140079628Y-62787882D01*
X140079630Y-62787883D01*
X140292483Y-62860955D01*
X140292492Y-62860957D01*
X140373000Y-62874391D01*
X140373000Y-61970702D01*
X140434007Y-62005925D01*
X140561174Y-62040000D01*
X140692826Y-62040000D01*
X140819993Y-62005925D01*
X140881000Y-61970702D01*
X140881000Y-62874390D01*
X140961507Y-62860957D01*
X140961516Y-62860955D01*
X141174369Y-62787883D01*
X141174371Y-62787882D01*
X141372300Y-62680768D01*
X141372301Y-62680767D01*
X141549902Y-62542534D01*
X141702325Y-62376958D01*
X141825419Y-62188548D01*
X141915820Y-61982456D01*
X141915823Y-61982449D01*
X141963544Y-61794000D01*
X141057703Y-61794000D01*
X141092925Y-61732993D01*
X141127000Y-61605826D01*
X141127000Y-61474174D01*
X141092925Y-61347007D01*
X141057703Y-61286000D01*
X141963544Y-61286000D01*
X141963544Y-61285999D01*
X141915823Y-61097550D01*
X141915820Y-61097543D01*
X141825419Y-60891451D01*
X141702325Y-60703041D01*
X141549902Y-60537465D01*
X141372301Y-60399232D01*
X141372300Y-60399231D01*
X141338267Y-60380814D01*
X141287876Y-60330801D01*
X141272524Y-60261484D01*
X141297085Y-60194871D01*
X141338267Y-60159186D01*
X141372300Y-60140768D01*
X141372301Y-60140767D01*
X141549902Y-60002534D01*
X141702325Y-59836958D01*
X141825419Y-59648548D01*
X141915820Y-59442456D01*
X141915823Y-59442449D01*
X141963544Y-59254000D01*
X141057703Y-59254000D01*
X141092925Y-59192993D01*
X141127000Y-59065826D01*
X141127000Y-58934174D01*
X141092925Y-58807007D01*
X141057703Y-58746000D01*
X141963544Y-58746000D01*
X141963544Y-58745999D01*
X141915823Y-58557550D01*
X141915820Y-58557543D01*
X141825419Y-58351451D01*
X141702325Y-58163041D01*
X141549902Y-57997465D01*
X141372301Y-57859232D01*
X141372300Y-57859231D01*
X141174371Y-57752117D01*
X141174369Y-57752116D01*
X140961512Y-57679043D01*
X140961501Y-57679040D01*
X140881000Y-57665606D01*
X140881000Y-58569297D01*
X140819993Y-58534075D01*
X140692826Y-58500000D01*
X140561174Y-58500000D01*
X140434007Y-58534075D01*
X140373000Y-58569297D01*
X140373000Y-57665607D01*
X140372999Y-57665606D01*
X140292498Y-57679040D01*
X140292487Y-57679043D01*
X140079630Y-57752116D01*
X140079628Y-57752117D01*
X139881699Y-57859231D01*
X139881698Y-57859232D01*
X139704097Y-57997465D01*
X139551670Y-58163045D01*
X139462780Y-58299101D01*
X139408776Y-58345189D01*
X139338428Y-58354764D01*
X139274071Y-58324786D01*
X139251816Y-58299101D01*
X139212884Y-58239511D01*
X139162724Y-58162734D01*
X139162720Y-58162729D01*
X139033220Y-58022057D01*
X139010240Y-57997094D01*
X139010239Y-57997093D01*
X139010237Y-57997091D01*
X138890367Y-57903792D01*
X138832576Y-57858811D01*
X138634574Y-57751658D01*
X138634572Y-57751657D01*
X138634571Y-57751656D01*
X138421639Y-57678557D01*
X138421630Y-57678555D01*
X138344029Y-57665606D01*
X138199569Y-57641500D01*
X137974431Y-57641500D01*
X137829971Y-57665606D01*
X137752369Y-57678555D01*
X137752360Y-57678557D01*
X137539428Y-57751656D01*
X137539426Y-57751658D01*
X137341426Y-57858810D01*
X137341424Y-57858811D01*
X137163762Y-57997091D01*
X137011279Y-58162729D01*
X136922483Y-58298643D01*
X136868479Y-58344731D01*
X136798131Y-58354306D01*
X136733774Y-58324329D01*
X136711517Y-58298643D01*
X136622720Y-58162729D01*
X136493220Y-58022057D01*
X136470240Y-57997094D01*
X136470239Y-57997093D01*
X136470237Y-57997091D01*
X136350367Y-57903792D01*
X136292576Y-57858811D01*
X136094574Y-57751658D01*
X136094572Y-57751657D01*
X136094571Y-57751656D01*
X135881639Y-57678557D01*
X135881630Y-57678555D01*
X135804029Y-57665606D01*
X135659569Y-57641500D01*
X135434431Y-57641500D01*
X135289971Y-57665606D01*
X135212369Y-57678555D01*
X135212360Y-57678557D01*
X134999428Y-57751656D01*
X134999426Y-57751658D01*
X134801426Y-57858810D01*
X134801424Y-57858811D01*
X134623762Y-57997091D01*
X134471279Y-58162729D01*
X134382483Y-58298643D01*
X134328479Y-58344731D01*
X134258131Y-58354306D01*
X134193774Y-58324329D01*
X134171517Y-58298643D01*
X134082720Y-58162729D01*
X133953220Y-58022057D01*
X133930240Y-57997094D01*
X133930239Y-57997093D01*
X133930237Y-57997091D01*
X133810367Y-57903792D01*
X133752576Y-57858811D01*
X133554574Y-57751658D01*
X133554572Y-57751657D01*
X133554571Y-57751656D01*
X133341639Y-57678557D01*
X133341630Y-57678555D01*
X133264029Y-57665606D01*
X133119569Y-57641500D01*
X132894431Y-57641500D01*
X132749971Y-57665606D01*
X132672369Y-57678555D01*
X132672360Y-57678557D01*
X132459428Y-57751656D01*
X132459426Y-57751658D01*
X132261426Y-57858810D01*
X132261424Y-57858811D01*
X132083762Y-57997091D01*
X131931279Y-58162729D01*
X131842483Y-58298643D01*
X131788479Y-58344731D01*
X131718131Y-58354306D01*
X131653774Y-58324329D01*
X131631517Y-58298643D01*
X131542720Y-58162729D01*
X131413220Y-58022057D01*
X131390240Y-57997094D01*
X131390239Y-57997093D01*
X131390237Y-57997091D01*
X131270367Y-57903792D01*
X131212576Y-57858811D01*
X131014574Y-57751658D01*
X131014572Y-57751657D01*
X131014571Y-57751656D01*
X130801639Y-57678557D01*
X130801630Y-57678555D01*
X130724029Y-57665606D01*
X130579569Y-57641500D01*
X130354431Y-57641500D01*
X130209971Y-57665606D01*
X130132369Y-57678555D01*
X130132360Y-57678557D01*
X129919428Y-57751656D01*
X129919426Y-57751658D01*
X129721426Y-57858810D01*
X129721424Y-57858811D01*
X129543762Y-57997091D01*
X129391279Y-58162729D01*
X129302483Y-58298643D01*
X129248479Y-58344731D01*
X129178131Y-58354306D01*
X129113774Y-58324329D01*
X129091517Y-58298643D01*
X129002720Y-58162729D01*
X128873220Y-58022057D01*
X128850240Y-57997094D01*
X128850239Y-57997093D01*
X128850237Y-57997091D01*
X128730367Y-57903792D01*
X128672576Y-57858811D01*
X128474574Y-57751658D01*
X128474572Y-57751657D01*
X128474571Y-57751656D01*
X128261639Y-57678557D01*
X128261630Y-57678555D01*
X128184029Y-57665606D01*
X128039569Y-57641500D01*
X127814431Y-57641500D01*
X127669971Y-57665606D01*
X127592369Y-57678555D01*
X127592360Y-57678557D01*
X127379428Y-57751656D01*
X127379426Y-57751658D01*
X127181426Y-57858810D01*
X127181424Y-57858811D01*
X127003762Y-57997091D01*
X126851279Y-58162729D01*
X126762483Y-58298643D01*
X126708479Y-58344731D01*
X126638131Y-58354306D01*
X126573774Y-58324329D01*
X126551517Y-58298643D01*
X126462720Y-58162729D01*
X126333220Y-58022057D01*
X126310240Y-57997094D01*
X126310239Y-57997093D01*
X126310237Y-57997091D01*
X126190367Y-57903792D01*
X126132576Y-57858811D01*
X125934574Y-57751658D01*
X125934572Y-57751657D01*
X125934571Y-57751656D01*
X125721639Y-57678557D01*
X125721630Y-57678555D01*
X125644029Y-57665606D01*
X125499569Y-57641500D01*
X125274431Y-57641500D01*
X125129971Y-57665606D01*
X125052369Y-57678555D01*
X125052360Y-57678557D01*
X124839428Y-57751656D01*
X124839426Y-57751658D01*
X124641426Y-57858810D01*
X124641424Y-57858811D01*
X124463762Y-57997091D01*
X124311279Y-58162729D01*
X124222483Y-58298643D01*
X124168479Y-58344731D01*
X124098131Y-58354306D01*
X124033774Y-58324329D01*
X124011517Y-58298643D01*
X123922720Y-58162729D01*
X123793220Y-58022057D01*
X123770240Y-57997094D01*
X123770239Y-57997093D01*
X123770237Y-57997091D01*
X123650367Y-57903792D01*
X123592576Y-57858811D01*
X123394574Y-57751658D01*
X123394572Y-57751657D01*
X123394571Y-57751656D01*
X123181639Y-57678557D01*
X123181630Y-57678555D01*
X123104029Y-57665606D01*
X122959569Y-57641500D01*
X122734431Y-57641500D01*
X122589971Y-57665606D01*
X122512369Y-57678555D01*
X122512360Y-57678557D01*
X122299428Y-57751656D01*
X122299426Y-57751658D01*
X122101426Y-57858810D01*
X122101424Y-57858811D01*
X121923762Y-57997091D01*
X121771279Y-58162729D01*
X121682483Y-58298643D01*
X121628479Y-58344731D01*
X121558131Y-58354306D01*
X121493774Y-58324329D01*
X121471517Y-58298643D01*
X121382720Y-58162729D01*
X121253220Y-58022057D01*
X121230240Y-57997094D01*
X121230239Y-57997093D01*
X121230237Y-57997091D01*
X121110367Y-57903792D01*
X121052576Y-57858811D01*
X120854574Y-57751658D01*
X120854572Y-57751657D01*
X120854571Y-57751656D01*
X120641639Y-57678557D01*
X120641630Y-57678555D01*
X120564029Y-57665606D01*
X120419569Y-57641500D01*
X120194431Y-57641500D01*
X120049971Y-57665606D01*
X119972369Y-57678555D01*
X119972360Y-57678557D01*
X119759428Y-57751656D01*
X119759426Y-57751658D01*
X119561426Y-57858810D01*
X119561424Y-57858811D01*
X119383762Y-57997091D01*
X119231279Y-58162729D01*
X119142483Y-58298643D01*
X119088479Y-58344731D01*
X119018131Y-58354306D01*
X118953774Y-58324329D01*
X118931517Y-58298643D01*
X118842720Y-58162729D01*
X118713220Y-58022057D01*
X118690240Y-57997094D01*
X118690239Y-57997093D01*
X118690237Y-57997091D01*
X118570367Y-57903792D01*
X118512576Y-57858811D01*
X118314574Y-57751658D01*
X118314572Y-57751657D01*
X118314571Y-57751656D01*
X118101639Y-57678557D01*
X118101630Y-57678555D01*
X118024029Y-57665606D01*
X117879569Y-57641500D01*
X117654431Y-57641500D01*
X117509971Y-57665606D01*
X117432369Y-57678555D01*
X117432360Y-57678557D01*
X117219428Y-57751656D01*
X117219426Y-57751658D01*
X117021426Y-57858810D01*
X117021424Y-57858811D01*
X116843762Y-57997091D01*
X116691279Y-58162729D01*
X116602483Y-58298643D01*
X116548479Y-58344731D01*
X116478131Y-58354306D01*
X116413774Y-58324329D01*
X116391517Y-58298643D01*
X116302720Y-58162729D01*
X116173220Y-58022057D01*
X116150240Y-57997094D01*
X116150239Y-57997093D01*
X116150237Y-57997091D01*
X116030367Y-57903792D01*
X115972576Y-57858811D01*
X115774574Y-57751658D01*
X115774572Y-57751657D01*
X115774571Y-57751656D01*
X115561639Y-57678557D01*
X115561630Y-57678555D01*
X115484029Y-57665606D01*
X115339569Y-57641500D01*
X115114431Y-57641500D01*
X114969971Y-57665606D01*
X114892369Y-57678555D01*
X114892360Y-57678557D01*
X114679428Y-57751656D01*
X114679426Y-57751658D01*
X114481426Y-57858810D01*
X114481424Y-57858811D01*
X114303762Y-57997091D01*
X114151279Y-58162729D01*
X114062483Y-58298643D01*
X114008479Y-58344731D01*
X113938131Y-58354306D01*
X113873774Y-58324329D01*
X113851517Y-58298643D01*
X113762720Y-58162729D01*
X113633220Y-58022057D01*
X113610240Y-57997094D01*
X113610239Y-57997093D01*
X113610237Y-57997091D01*
X113490367Y-57903792D01*
X113432576Y-57858811D01*
X113234574Y-57751658D01*
X113234572Y-57751657D01*
X113234571Y-57751656D01*
X113021639Y-57678557D01*
X113021630Y-57678555D01*
X112944029Y-57665606D01*
X112799569Y-57641500D01*
X112574431Y-57641500D01*
X112429971Y-57665606D01*
X112352369Y-57678555D01*
X112352360Y-57678557D01*
X112139428Y-57751656D01*
X112139426Y-57751658D01*
X111941426Y-57858810D01*
X111941424Y-57858811D01*
X111763762Y-57997091D01*
X111611279Y-58162729D01*
X111522483Y-58298643D01*
X111468479Y-58344731D01*
X111398131Y-58354306D01*
X111333774Y-58324329D01*
X111311517Y-58298643D01*
X111222720Y-58162729D01*
X111093220Y-58022057D01*
X111070240Y-57997094D01*
X111070239Y-57997093D01*
X111070237Y-57997091D01*
X110950367Y-57903792D01*
X110892576Y-57858811D01*
X110694574Y-57751658D01*
X110694572Y-57751657D01*
X110694571Y-57751656D01*
X110481639Y-57678557D01*
X110481630Y-57678555D01*
X110404029Y-57665606D01*
X110259569Y-57641500D01*
X110034431Y-57641500D01*
X109889971Y-57665606D01*
X109812369Y-57678555D01*
X109812360Y-57678557D01*
X109599428Y-57751656D01*
X109599426Y-57751658D01*
X109401426Y-57858810D01*
X109401424Y-57858811D01*
X109223762Y-57997091D01*
X109071279Y-58162729D01*
X108982483Y-58298643D01*
X108928479Y-58344731D01*
X108858131Y-58354306D01*
X108793774Y-58324329D01*
X108771517Y-58298643D01*
X108682720Y-58162729D01*
X108553220Y-58022057D01*
X108530240Y-57997094D01*
X108530239Y-57997093D01*
X108530237Y-57997091D01*
X108410367Y-57903792D01*
X108352576Y-57858811D01*
X108154574Y-57751658D01*
X108154572Y-57751657D01*
X108154571Y-57751656D01*
X107941639Y-57678557D01*
X107941630Y-57678555D01*
X107864029Y-57665606D01*
X107719569Y-57641500D01*
X107494431Y-57641500D01*
X107349971Y-57665606D01*
X107272369Y-57678555D01*
X107272360Y-57678557D01*
X107059428Y-57751656D01*
X107059426Y-57751658D01*
X106861426Y-57858810D01*
X106861424Y-57858811D01*
X106683762Y-57997091D01*
X106531279Y-58162729D01*
X106442483Y-58298643D01*
X106388479Y-58344731D01*
X106318131Y-58354306D01*
X106253774Y-58324329D01*
X106231517Y-58298643D01*
X106142720Y-58162729D01*
X106013220Y-58022057D01*
X105990240Y-57997094D01*
X105990239Y-57997093D01*
X105990237Y-57997091D01*
X105870367Y-57903792D01*
X105812576Y-57858811D01*
X105614574Y-57751658D01*
X105614572Y-57751657D01*
X105614571Y-57751656D01*
X105401639Y-57678557D01*
X105401630Y-57678555D01*
X105324029Y-57665606D01*
X105179569Y-57641500D01*
X104954431Y-57641500D01*
X104809971Y-57665606D01*
X104732369Y-57678555D01*
X104732360Y-57678557D01*
X104519428Y-57751656D01*
X104519426Y-57751658D01*
X104321426Y-57858810D01*
X104321424Y-57858811D01*
X104143762Y-57997091D01*
X103991279Y-58162729D01*
X103902483Y-58298643D01*
X103848479Y-58344731D01*
X103778131Y-58354306D01*
X103713774Y-58324329D01*
X103691517Y-58298643D01*
X103602720Y-58162729D01*
X103473220Y-58022057D01*
X103450240Y-57997094D01*
X103450239Y-57997093D01*
X103450237Y-57997091D01*
X103330367Y-57903792D01*
X103272576Y-57858811D01*
X103074574Y-57751658D01*
X103074572Y-57751657D01*
X103074571Y-57751656D01*
X102861639Y-57678557D01*
X102861630Y-57678555D01*
X102784029Y-57665606D01*
X102639569Y-57641500D01*
X102414431Y-57641500D01*
X102269971Y-57665606D01*
X102192369Y-57678555D01*
X102192360Y-57678557D01*
X101979428Y-57751656D01*
X101979426Y-57751658D01*
X101781426Y-57858810D01*
X101781424Y-57858811D01*
X101603762Y-57997091D01*
X101451279Y-58162729D01*
X101362483Y-58298643D01*
X101308479Y-58344731D01*
X101238131Y-58354306D01*
X101173774Y-58324329D01*
X101151517Y-58298643D01*
X101062720Y-58162729D01*
X100933220Y-58022057D01*
X100910240Y-57997094D01*
X100910239Y-57997093D01*
X100910237Y-57997091D01*
X100790367Y-57903792D01*
X100732576Y-57858811D01*
X100534574Y-57751658D01*
X100534572Y-57751657D01*
X100534571Y-57751656D01*
X100321639Y-57678557D01*
X100321630Y-57678555D01*
X100244029Y-57665606D01*
X100099569Y-57641500D01*
X99874431Y-57641500D01*
X99729971Y-57665606D01*
X99652369Y-57678555D01*
X99652360Y-57678557D01*
X99439428Y-57751656D01*
X99439426Y-57751658D01*
X99241426Y-57858810D01*
X99241424Y-57858811D01*
X99063762Y-57997091D01*
X98911279Y-58162729D01*
X98822483Y-58298643D01*
X98768479Y-58344731D01*
X98698131Y-58354306D01*
X98633774Y-58324329D01*
X98611517Y-58298643D01*
X98522720Y-58162729D01*
X98393220Y-58022057D01*
X98370240Y-57997094D01*
X98370239Y-57997093D01*
X98370237Y-57997091D01*
X98250367Y-57903792D01*
X98192576Y-57858811D01*
X97994574Y-57751658D01*
X97994572Y-57751657D01*
X97994571Y-57751656D01*
X97781639Y-57678557D01*
X97781630Y-57678555D01*
X97704029Y-57665606D01*
X97559569Y-57641500D01*
X97334431Y-57641500D01*
X97189971Y-57665606D01*
X97112369Y-57678555D01*
X97112360Y-57678557D01*
X96899428Y-57751656D01*
X96899426Y-57751658D01*
X96701426Y-57858810D01*
X96701424Y-57858811D01*
X96523762Y-57997091D01*
X96371279Y-58162729D01*
X96282483Y-58298643D01*
X96228479Y-58344731D01*
X96158131Y-58354306D01*
X96093774Y-58324329D01*
X96071517Y-58298643D01*
X95982720Y-58162729D01*
X95853220Y-58022057D01*
X95830240Y-57997094D01*
X95830239Y-57997093D01*
X95830237Y-57997091D01*
X95710367Y-57903792D01*
X95652576Y-57858811D01*
X95454574Y-57751658D01*
X95454572Y-57751657D01*
X95454571Y-57751656D01*
X95241639Y-57678557D01*
X95241630Y-57678555D01*
X95164029Y-57665606D01*
X95019569Y-57641500D01*
X94794431Y-57641500D01*
X94649971Y-57665606D01*
X94572369Y-57678555D01*
X94572360Y-57678557D01*
X94359428Y-57751656D01*
X94359426Y-57751658D01*
X94161426Y-57858810D01*
X94161424Y-57858811D01*
X93983762Y-57997091D01*
X93922754Y-58063363D01*
X93861901Y-58099933D01*
X93790936Y-58097798D01*
X93732391Y-58057636D01*
X93711999Y-58022057D01*
X93667889Y-57903797D01*
X93667887Y-57903792D01*
X93580261Y-57786738D01*
X93463207Y-57699112D01*
X93463202Y-57699110D01*
X93326204Y-57648011D01*
X93326196Y-57648009D01*
X93265649Y-57641500D01*
X93265638Y-57641500D01*
X91468362Y-57641500D01*
X91468350Y-57641500D01*
X91407803Y-57648009D01*
X91407795Y-57648011D01*
X91270797Y-57699110D01*
X91270792Y-57699112D01*
X91153738Y-57786738D01*
X91066112Y-57903792D01*
X91066110Y-57903797D01*
X91015011Y-58040795D01*
X91015009Y-58040803D01*
X91008500Y-58101350D01*
X91008500Y-59898649D01*
X91015009Y-59959196D01*
X91015011Y-59959204D01*
X91066110Y-60096202D01*
X91066112Y-60096207D01*
X91153738Y-60213261D01*
X91270791Y-60300886D01*
X91270792Y-60300886D01*
X91270796Y-60300889D01*
X91385810Y-60343787D01*
X91442642Y-60386332D01*
X91467453Y-60452852D01*
X91452362Y-60522226D01*
X91434475Y-60547179D01*
X91291280Y-60702729D01*
X91291275Y-60702734D01*
X91168141Y-60891206D01*
X91077703Y-61097386D01*
X91077702Y-61097387D01*
X91022437Y-61315624D01*
X91022436Y-61315630D01*
X91022436Y-61315632D01*
X91003844Y-61540000D01*
X50000000Y-61540000D01*
X50000000Y-54000811D01*
X50000009Y-53999266D01*
X50000009Y-53999265D01*
X50001487Y-53878709D01*
X52149500Y-53878709D01*
X52149500Y-54121290D01*
X52181160Y-54361782D01*
X52243944Y-54596095D01*
X52243945Y-54596097D01*
X52243946Y-54596100D01*
X52336776Y-54820212D01*
X52336777Y-54820213D01*
X52336782Y-54820224D01*
X52458061Y-55030285D01*
X52458063Y-55030288D01*
X52458064Y-55030289D01*
X52605735Y-55222738D01*
X52605739Y-55222742D01*
X52605744Y-55222748D01*
X52777251Y-55394255D01*
X52777256Y-55394259D01*
X52777262Y-55394265D01*
X52881402Y-55474174D01*
X52969714Y-55541938D01*
X53179775Y-55663217D01*
X53179779Y-55663218D01*
X53179788Y-55663224D01*
X53403900Y-55756054D01*
X53638211Y-55818838D01*
X53638215Y-55818838D01*
X53638217Y-55818839D01*
X53700202Y-55826999D01*
X53878712Y-55850500D01*
X53878719Y-55850500D01*
X54121281Y-55850500D01*
X54121288Y-55850500D01*
X54338637Y-55821885D01*
X54361782Y-55818839D01*
X54361782Y-55818838D01*
X54361789Y-55818838D01*
X54596100Y-55756054D01*
X54820212Y-55663224D01*
X55030289Y-55541936D01*
X55222738Y-55394265D01*
X55392557Y-55224446D01*
X87591500Y-55224446D01*
X87591500Y-55975544D01*
X87602112Y-56079425D01*
X87657885Y-56247738D01*
X87750970Y-56398652D01*
X87750975Y-56398658D01*
X87876341Y-56524024D01*
X87876347Y-56524029D01*
X87876348Y-56524030D01*
X88027262Y-56617115D01*
X88195574Y-56672887D01*
X88299455Y-56683500D01*
X89700544Y-56683499D01*
X89804426Y-56672887D01*
X89972738Y-56617115D01*
X89972740Y-56617113D01*
X89979435Y-56614895D01*
X90019068Y-56608500D01*
X91484778Y-56608500D01*
X91552899Y-56628502D01*
X91562169Y-56635069D01*
X91620882Y-56680767D01*
X91621424Y-56681189D01*
X91819426Y-56788342D01*
X91819427Y-56788342D01*
X91819428Y-56788343D01*
X91931227Y-56826723D01*
X92032365Y-56861444D01*
X92254431Y-56898500D01*
X92254435Y-56898500D01*
X92479565Y-56898500D01*
X92479569Y-56898500D01*
X92701635Y-56861444D01*
X92914574Y-56788342D01*
X93112576Y-56681189D01*
X93290240Y-56542906D01*
X93442722Y-56377268D01*
X93531518Y-56241354D01*
X93585520Y-56195268D01*
X93655868Y-56185692D01*
X93720225Y-56215669D01*
X93742480Y-56241353D01*
X93746652Y-56247738D01*
X93831275Y-56377265D01*
X93831279Y-56377270D01*
X93983762Y-56542908D01*
X94038331Y-56585381D01*
X94161424Y-56681189D01*
X94359426Y-56788342D01*
X94359427Y-56788342D01*
X94359428Y-56788343D01*
X94471227Y-56826723D01*
X94572365Y-56861444D01*
X94794431Y-56898500D01*
X94794435Y-56898500D01*
X95019565Y-56898500D01*
X95019569Y-56898500D01*
X95241635Y-56861444D01*
X95454574Y-56788342D01*
X95652576Y-56681189D01*
X95830240Y-56542906D01*
X95982722Y-56377268D01*
X96071518Y-56241354D01*
X96125520Y-56195268D01*
X96195868Y-56185692D01*
X96260225Y-56215669D01*
X96282480Y-56241353D01*
X96286652Y-56247738D01*
X96371275Y-56377265D01*
X96371279Y-56377270D01*
X96523762Y-56542908D01*
X96578331Y-56585381D01*
X96701424Y-56681189D01*
X96899426Y-56788342D01*
X96899427Y-56788342D01*
X96899428Y-56788343D01*
X97011227Y-56826723D01*
X97112365Y-56861444D01*
X97334431Y-56898500D01*
X97334435Y-56898500D01*
X97559565Y-56898500D01*
X97559569Y-56898500D01*
X97781635Y-56861444D01*
X97994574Y-56788342D01*
X98192576Y-56681189D01*
X98370240Y-56542906D01*
X98522722Y-56377268D01*
X98611518Y-56241354D01*
X98665520Y-56195268D01*
X98735868Y-56185692D01*
X98800225Y-56215669D01*
X98822480Y-56241353D01*
X98826652Y-56247738D01*
X98911275Y-56377265D01*
X98911279Y-56377270D01*
X99063762Y-56542908D01*
X99118331Y-56585381D01*
X99241424Y-56681189D01*
X99439426Y-56788342D01*
X99439427Y-56788342D01*
X99439428Y-56788343D01*
X99551227Y-56826723D01*
X99652365Y-56861444D01*
X99874431Y-56898500D01*
X99874435Y-56898500D01*
X100099565Y-56898500D01*
X100099569Y-56898500D01*
X100321635Y-56861444D01*
X100534574Y-56788342D01*
X100732576Y-56681189D01*
X100910240Y-56542906D01*
X101062722Y-56377268D01*
X101151518Y-56241354D01*
X101205520Y-56195268D01*
X101275868Y-56185692D01*
X101340225Y-56215669D01*
X101362480Y-56241353D01*
X101366652Y-56247738D01*
X101451275Y-56377265D01*
X101451279Y-56377270D01*
X101603762Y-56542908D01*
X101658331Y-56585381D01*
X101781424Y-56681189D01*
X101979426Y-56788342D01*
X101979427Y-56788342D01*
X101979428Y-56788343D01*
X102091227Y-56826723D01*
X102192365Y-56861444D01*
X102414431Y-56898500D01*
X102414435Y-56898500D01*
X102639565Y-56898500D01*
X102639569Y-56898500D01*
X102861635Y-56861444D01*
X103074574Y-56788342D01*
X103272576Y-56681189D01*
X103450240Y-56542906D01*
X103602722Y-56377268D01*
X103691518Y-56241354D01*
X103745520Y-56195268D01*
X103815868Y-56185692D01*
X103880225Y-56215669D01*
X103902480Y-56241353D01*
X103906652Y-56247738D01*
X103991275Y-56377265D01*
X103991279Y-56377270D01*
X104143762Y-56542908D01*
X104198331Y-56585381D01*
X104321424Y-56681189D01*
X104519426Y-56788342D01*
X104519427Y-56788342D01*
X104519428Y-56788343D01*
X104631227Y-56826723D01*
X104732365Y-56861444D01*
X104954431Y-56898500D01*
X104954435Y-56898500D01*
X105179565Y-56898500D01*
X105179569Y-56898500D01*
X105401635Y-56861444D01*
X105614574Y-56788342D01*
X105812576Y-56681189D01*
X105990240Y-56542906D01*
X106142722Y-56377268D01*
X106231518Y-56241354D01*
X106285520Y-56195268D01*
X106355868Y-56185692D01*
X106420225Y-56215669D01*
X106442480Y-56241353D01*
X106446652Y-56247738D01*
X106531275Y-56377265D01*
X106531279Y-56377270D01*
X106683762Y-56542908D01*
X106738331Y-56585381D01*
X106861424Y-56681189D01*
X107059426Y-56788342D01*
X107059427Y-56788342D01*
X107059428Y-56788343D01*
X107171227Y-56826723D01*
X107272365Y-56861444D01*
X107494431Y-56898500D01*
X107494435Y-56898500D01*
X107719565Y-56898500D01*
X107719569Y-56898500D01*
X107941635Y-56861444D01*
X108154574Y-56788342D01*
X108352576Y-56681189D01*
X108530240Y-56542906D01*
X108682722Y-56377268D01*
X108771518Y-56241354D01*
X108825520Y-56195268D01*
X108895868Y-56185692D01*
X108960225Y-56215669D01*
X108982480Y-56241353D01*
X108986652Y-56247738D01*
X109071275Y-56377265D01*
X109071279Y-56377270D01*
X109223762Y-56542908D01*
X109278331Y-56585381D01*
X109401424Y-56681189D01*
X109599426Y-56788342D01*
X109599427Y-56788342D01*
X109599428Y-56788343D01*
X109711227Y-56826723D01*
X109812365Y-56861444D01*
X110034431Y-56898500D01*
X110034435Y-56898500D01*
X110259565Y-56898500D01*
X110259569Y-56898500D01*
X110481635Y-56861444D01*
X110694574Y-56788342D01*
X110892576Y-56681189D01*
X111070240Y-56542906D01*
X111222722Y-56377268D01*
X111311518Y-56241354D01*
X111365520Y-56195268D01*
X111435868Y-56185692D01*
X111500225Y-56215669D01*
X111522480Y-56241353D01*
X111526652Y-56247738D01*
X111611275Y-56377265D01*
X111611279Y-56377270D01*
X111763762Y-56542908D01*
X111818331Y-56585381D01*
X111941424Y-56681189D01*
X112139426Y-56788342D01*
X112139427Y-56788342D01*
X112139428Y-56788343D01*
X112251227Y-56826723D01*
X112352365Y-56861444D01*
X112574431Y-56898500D01*
X112574435Y-56898500D01*
X112799565Y-56898500D01*
X112799569Y-56898500D01*
X113021635Y-56861444D01*
X113234574Y-56788342D01*
X113432576Y-56681189D01*
X113610240Y-56542906D01*
X113762722Y-56377268D01*
X113851518Y-56241354D01*
X113905520Y-56195268D01*
X113975868Y-56185692D01*
X114040225Y-56215669D01*
X114062480Y-56241353D01*
X114066652Y-56247738D01*
X114151275Y-56377265D01*
X114151279Y-56377270D01*
X114303762Y-56542908D01*
X114358331Y-56585381D01*
X114481424Y-56681189D01*
X114679426Y-56788342D01*
X114679427Y-56788342D01*
X114679428Y-56788343D01*
X114791227Y-56826723D01*
X114892365Y-56861444D01*
X115114431Y-56898500D01*
X115114435Y-56898500D01*
X115339565Y-56898500D01*
X115339569Y-56898500D01*
X115561635Y-56861444D01*
X115774574Y-56788342D01*
X115972576Y-56681189D01*
X116150240Y-56542906D01*
X116302722Y-56377268D01*
X116391518Y-56241354D01*
X116445520Y-56195268D01*
X116515868Y-56185692D01*
X116580225Y-56215669D01*
X116602480Y-56241353D01*
X116606652Y-56247738D01*
X116691275Y-56377265D01*
X116691279Y-56377270D01*
X116843762Y-56542908D01*
X116898331Y-56585381D01*
X117021424Y-56681189D01*
X117219426Y-56788342D01*
X117219427Y-56788342D01*
X117219428Y-56788343D01*
X117331227Y-56826723D01*
X117432365Y-56861444D01*
X117654431Y-56898500D01*
X117654435Y-56898500D01*
X117879565Y-56898500D01*
X117879569Y-56898500D01*
X118101635Y-56861444D01*
X118314574Y-56788342D01*
X118512576Y-56681189D01*
X118690240Y-56542906D01*
X118842722Y-56377268D01*
X118931518Y-56241354D01*
X118985520Y-56195268D01*
X119055868Y-56185692D01*
X119120225Y-56215669D01*
X119142480Y-56241353D01*
X119146652Y-56247738D01*
X119231275Y-56377265D01*
X119231279Y-56377270D01*
X119383762Y-56542908D01*
X119438331Y-56585381D01*
X119561424Y-56681189D01*
X119759426Y-56788342D01*
X119759427Y-56788342D01*
X119759428Y-56788343D01*
X119871227Y-56826723D01*
X119972365Y-56861444D01*
X120194431Y-56898500D01*
X120194435Y-56898500D01*
X120419565Y-56898500D01*
X120419569Y-56898500D01*
X120641635Y-56861444D01*
X120854574Y-56788342D01*
X121052576Y-56681189D01*
X121230240Y-56542906D01*
X121382722Y-56377268D01*
X121471518Y-56241354D01*
X121525520Y-56195268D01*
X121595868Y-56185692D01*
X121660225Y-56215669D01*
X121682480Y-56241353D01*
X121686652Y-56247738D01*
X121771275Y-56377265D01*
X121771279Y-56377270D01*
X121923762Y-56542908D01*
X121978331Y-56585381D01*
X122101424Y-56681189D01*
X122299426Y-56788342D01*
X122299427Y-56788342D01*
X122299428Y-56788343D01*
X122411227Y-56826723D01*
X122512365Y-56861444D01*
X122734431Y-56898500D01*
X122734435Y-56898500D01*
X122959565Y-56898500D01*
X122959569Y-56898500D01*
X123181635Y-56861444D01*
X123394574Y-56788342D01*
X123592576Y-56681189D01*
X123770240Y-56542906D01*
X123922722Y-56377268D01*
X124011518Y-56241354D01*
X124065520Y-56195268D01*
X124135868Y-56185692D01*
X124200225Y-56215669D01*
X124222480Y-56241353D01*
X124226652Y-56247738D01*
X124311275Y-56377265D01*
X124311279Y-56377270D01*
X124463762Y-56542908D01*
X124518331Y-56585381D01*
X124641424Y-56681189D01*
X124839426Y-56788342D01*
X124839427Y-56788342D01*
X124839428Y-56788343D01*
X124951227Y-56826723D01*
X125052365Y-56861444D01*
X125274431Y-56898500D01*
X125274435Y-56898500D01*
X125499565Y-56898500D01*
X125499569Y-56898500D01*
X125721635Y-56861444D01*
X125934574Y-56788342D01*
X126132576Y-56681189D01*
X126310240Y-56542906D01*
X126462722Y-56377268D01*
X126551518Y-56241354D01*
X126605520Y-56195268D01*
X126675868Y-56185692D01*
X126740225Y-56215669D01*
X126762480Y-56241353D01*
X126766652Y-56247738D01*
X126851275Y-56377265D01*
X126851279Y-56377270D01*
X127003762Y-56542908D01*
X127058331Y-56585381D01*
X127181424Y-56681189D01*
X127379426Y-56788342D01*
X127379427Y-56788342D01*
X127379428Y-56788343D01*
X127491227Y-56826723D01*
X127592365Y-56861444D01*
X127814431Y-56898500D01*
X127814435Y-56898500D01*
X128039565Y-56898500D01*
X128039569Y-56898500D01*
X128261635Y-56861444D01*
X128474574Y-56788342D01*
X128672576Y-56681189D01*
X128850240Y-56542906D01*
X129002722Y-56377268D01*
X129091518Y-56241354D01*
X129145520Y-56195268D01*
X129215868Y-56185692D01*
X129280225Y-56215669D01*
X129302480Y-56241353D01*
X129306652Y-56247738D01*
X129391275Y-56377265D01*
X129391279Y-56377270D01*
X129543762Y-56542908D01*
X129598331Y-56585381D01*
X129721424Y-56681189D01*
X129919426Y-56788342D01*
X129919427Y-56788342D01*
X129919428Y-56788343D01*
X130031227Y-56826723D01*
X130132365Y-56861444D01*
X130354431Y-56898500D01*
X130354435Y-56898500D01*
X130579565Y-56898500D01*
X130579569Y-56898500D01*
X130801635Y-56861444D01*
X131014574Y-56788342D01*
X131212576Y-56681189D01*
X131390240Y-56542906D01*
X131542722Y-56377268D01*
X131631518Y-56241354D01*
X131685520Y-56195268D01*
X131755868Y-56185692D01*
X131820225Y-56215669D01*
X131842480Y-56241353D01*
X131846652Y-56247738D01*
X131931275Y-56377265D01*
X131931279Y-56377270D01*
X132083762Y-56542908D01*
X132138331Y-56585381D01*
X132261424Y-56681189D01*
X132459426Y-56788342D01*
X132459427Y-56788342D01*
X132459428Y-56788343D01*
X132571227Y-56826723D01*
X132672365Y-56861444D01*
X132894431Y-56898500D01*
X132894435Y-56898500D01*
X133119565Y-56898500D01*
X133119569Y-56898500D01*
X133341635Y-56861444D01*
X133554574Y-56788342D01*
X133752576Y-56681189D01*
X133930240Y-56542906D01*
X134082722Y-56377268D01*
X134171518Y-56241354D01*
X134225520Y-56195268D01*
X134295868Y-56185692D01*
X134360225Y-56215669D01*
X134382480Y-56241353D01*
X134386652Y-56247738D01*
X134471275Y-56377265D01*
X134471279Y-56377270D01*
X134623762Y-56542908D01*
X134678331Y-56585381D01*
X134801424Y-56681189D01*
X134999426Y-56788342D01*
X134999427Y-56788342D01*
X134999428Y-56788343D01*
X135111227Y-56826723D01*
X135212365Y-56861444D01*
X135434431Y-56898500D01*
X135434435Y-56898500D01*
X135659565Y-56898500D01*
X135659569Y-56898500D01*
X135881635Y-56861444D01*
X136094574Y-56788342D01*
X136292576Y-56681189D01*
X136470240Y-56542906D01*
X136622722Y-56377268D01*
X136711518Y-56241354D01*
X136765520Y-56195268D01*
X136835868Y-56185692D01*
X136900225Y-56215669D01*
X136922480Y-56241353D01*
X136926652Y-56247738D01*
X137011275Y-56377265D01*
X137011279Y-56377270D01*
X137163762Y-56542908D01*
X137218331Y-56585381D01*
X137341424Y-56681189D01*
X137539426Y-56788342D01*
X137539427Y-56788342D01*
X137539428Y-56788343D01*
X137651227Y-56826723D01*
X137752365Y-56861444D01*
X137974431Y-56898500D01*
X137974435Y-56898500D01*
X138199565Y-56898500D01*
X138199569Y-56898500D01*
X138421635Y-56861444D01*
X138634574Y-56788342D01*
X138832576Y-56681189D01*
X139010240Y-56542906D01*
X139162722Y-56377268D01*
X139251816Y-56240898D01*
X139305819Y-56194810D01*
X139376167Y-56185235D01*
X139440524Y-56215212D01*
X139462782Y-56240898D01*
X139551674Y-56376958D01*
X139704097Y-56542534D01*
X139881698Y-56680767D01*
X139881699Y-56680768D01*
X140079628Y-56787882D01*
X140079630Y-56787883D01*
X140292483Y-56860955D01*
X140292492Y-56860957D01*
X140373000Y-56874391D01*
X140373000Y-55970702D01*
X140434007Y-56005925D01*
X140561174Y-56040000D01*
X140692826Y-56040000D01*
X140819993Y-56005925D01*
X140881000Y-55970702D01*
X140881000Y-56874390D01*
X140961507Y-56860957D01*
X140961516Y-56860955D01*
X141174369Y-56787883D01*
X141174371Y-56787882D01*
X141372300Y-56680768D01*
X141372301Y-56680767D01*
X141549902Y-56542534D01*
X141702325Y-56376958D01*
X141825419Y-56188548D01*
X141915820Y-55982456D01*
X141915823Y-55982449D01*
X141963544Y-55794000D01*
X141057703Y-55794000D01*
X141092925Y-55732993D01*
X141127000Y-55605826D01*
X141127000Y-55474174D01*
X141092925Y-55347007D01*
X141057703Y-55286000D01*
X141963544Y-55286000D01*
X141963544Y-55285999D01*
X141915823Y-55097550D01*
X141915820Y-55097543D01*
X141825419Y-54891451D01*
X141702325Y-54703041D01*
X141549902Y-54537465D01*
X141372301Y-54399232D01*
X141372300Y-54399231D01*
X141338267Y-54380814D01*
X141287876Y-54330801D01*
X141272524Y-54261484D01*
X141297085Y-54194871D01*
X141338267Y-54159186D01*
X141372300Y-54140768D01*
X141372301Y-54140767D01*
X141549902Y-54002534D01*
X141663891Y-53878709D01*
X144149500Y-53878709D01*
X144149500Y-54121290D01*
X144181160Y-54361782D01*
X144243944Y-54596095D01*
X144243945Y-54596097D01*
X144243946Y-54596100D01*
X144336776Y-54820212D01*
X144336777Y-54820213D01*
X144336782Y-54820224D01*
X144458061Y-55030285D01*
X144458063Y-55030288D01*
X144458064Y-55030289D01*
X144605735Y-55222738D01*
X144605739Y-55222742D01*
X144605744Y-55222748D01*
X144777251Y-55394255D01*
X144777256Y-55394259D01*
X144777262Y-55394265D01*
X144881402Y-55474174D01*
X144969714Y-55541938D01*
X145179775Y-55663217D01*
X145179779Y-55663218D01*
X145179788Y-55663224D01*
X145403900Y-55756054D01*
X145638211Y-55818838D01*
X145638215Y-55818838D01*
X145638217Y-55818839D01*
X145700202Y-55826999D01*
X145878712Y-55850500D01*
X145878719Y-55850500D01*
X146121281Y-55850500D01*
X146121288Y-55850500D01*
X146338637Y-55821885D01*
X146361782Y-55818839D01*
X146361782Y-55818838D01*
X146361789Y-55818838D01*
X146596100Y-55756054D01*
X146820212Y-55663224D01*
X147030289Y-55541936D01*
X147222738Y-55394265D01*
X147394265Y-55222738D01*
X147541936Y-55030289D01*
X147663224Y-54820212D01*
X147756054Y-54596100D01*
X147818838Y-54361789D01*
X147850500Y-54121288D01*
X147850500Y-53878712D01*
X147818838Y-53638211D01*
X147756054Y-53403900D01*
X147663224Y-53179788D01*
X147663218Y-53179779D01*
X147663217Y-53179775D01*
X147541938Y-52969714D01*
X147541936Y-52969711D01*
X147394265Y-52777262D01*
X147394259Y-52777256D01*
X147394255Y-52777251D01*
X147222748Y-52605744D01*
X147222742Y-52605739D01*
X147222738Y-52605735D01*
X147030289Y-52458064D01*
X147030288Y-52458063D01*
X147030285Y-52458061D01*
X146820224Y-52336782D01*
X146820216Y-52336778D01*
X146820212Y-52336776D01*
X146596100Y-52243946D01*
X146596097Y-52243945D01*
X146596095Y-52243944D01*
X146361782Y-52181160D01*
X146121290Y-52149500D01*
X146121288Y-52149500D01*
X145878712Y-52149500D01*
X145878709Y-52149500D01*
X145638217Y-52181160D01*
X145403904Y-52243944D01*
X145403900Y-52243946D01*
X145208735Y-52324786D01*
X145179786Y-52336777D01*
X145179775Y-52336782D01*
X144969714Y-52458061D01*
X144777262Y-52605735D01*
X144777251Y-52605744D01*
X144605744Y-52777251D01*
X144605735Y-52777262D01*
X144458061Y-52969714D01*
X144336782Y-53179775D01*
X144336777Y-53179786D01*
X144336776Y-53179788D01*
X144288008Y-53297525D01*
X144243946Y-53403900D01*
X144243944Y-53403904D01*
X144181160Y-53638217D01*
X144149500Y-53878709D01*
X141663891Y-53878709D01*
X141702325Y-53836958D01*
X141825419Y-53648548D01*
X141915820Y-53442456D01*
X141915823Y-53442449D01*
X141963544Y-53254000D01*
X141057703Y-53254000D01*
X141092925Y-53192993D01*
X141127000Y-53065826D01*
X141127000Y-52934174D01*
X141092925Y-52807007D01*
X141057703Y-52746000D01*
X141963544Y-52746000D01*
X141963544Y-52745999D01*
X141915823Y-52557550D01*
X141915820Y-52557543D01*
X141825419Y-52351451D01*
X141702325Y-52163041D01*
X141549902Y-51997465D01*
X141372301Y-51859232D01*
X141372300Y-51859231D01*
X141174371Y-51752117D01*
X141174369Y-51752116D01*
X140961512Y-51679043D01*
X140961501Y-51679040D01*
X140881000Y-51665606D01*
X140881000Y-52569297D01*
X140819993Y-52534075D01*
X140692826Y-52500000D01*
X140561174Y-52500000D01*
X140434007Y-52534075D01*
X140373000Y-52569297D01*
X140373000Y-51665607D01*
X140372999Y-51665606D01*
X140292498Y-51679040D01*
X140292487Y-51679043D01*
X140079630Y-51752116D01*
X140079628Y-51752117D01*
X139881699Y-51859231D01*
X139881698Y-51859232D01*
X139704097Y-51997465D01*
X139551670Y-52163045D01*
X139462780Y-52299101D01*
X139408776Y-52345189D01*
X139338428Y-52354764D01*
X139274071Y-52324786D01*
X139251816Y-52299101D01*
X139174762Y-52181160D01*
X139162724Y-52162734D01*
X139162720Y-52162729D01*
X139033220Y-52022057D01*
X139010240Y-51997094D01*
X139010239Y-51997093D01*
X139010237Y-51997091D01*
X138890367Y-51903792D01*
X138832576Y-51858811D01*
X138634574Y-51751658D01*
X138634572Y-51751657D01*
X138634571Y-51751656D01*
X138421639Y-51678557D01*
X138421630Y-51678555D01*
X138344029Y-51665606D01*
X138199569Y-51641500D01*
X137974431Y-51641500D01*
X137829971Y-51665606D01*
X137752369Y-51678555D01*
X137752360Y-51678557D01*
X137539428Y-51751656D01*
X137539426Y-51751658D01*
X137341426Y-51858810D01*
X137341424Y-51858811D01*
X137163762Y-51997091D01*
X137011279Y-52162729D01*
X136922483Y-52298643D01*
X136868479Y-52344731D01*
X136798131Y-52354306D01*
X136733774Y-52324329D01*
X136711517Y-52298643D01*
X136622720Y-52162729D01*
X136493220Y-52022057D01*
X136470240Y-51997094D01*
X136470239Y-51997093D01*
X136470237Y-51997091D01*
X136350367Y-51903792D01*
X136292576Y-51858811D01*
X136094574Y-51751658D01*
X136094572Y-51751657D01*
X136094571Y-51751656D01*
X135881639Y-51678557D01*
X135881630Y-51678555D01*
X135804029Y-51665606D01*
X135659569Y-51641500D01*
X135434431Y-51641500D01*
X135289971Y-51665606D01*
X135212369Y-51678555D01*
X135212360Y-51678557D01*
X134999428Y-51751656D01*
X134999426Y-51751658D01*
X134801426Y-51858810D01*
X134801424Y-51858811D01*
X134623762Y-51997091D01*
X134471279Y-52162729D01*
X134382483Y-52298643D01*
X134328479Y-52344731D01*
X134258131Y-52354306D01*
X134193774Y-52324329D01*
X134171517Y-52298643D01*
X134082720Y-52162729D01*
X133953220Y-52022057D01*
X133930240Y-51997094D01*
X133930239Y-51997093D01*
X133930237Y-51997091D01*
X133810367Y-51903792D01*
X133752576Y-51858811D01*
X133554574Y-51751658D01*
X133554572Y-51751657D01*
X133554571Y-51751656D01*
X133341639Y-51678557D01*
X133341630Y-51678555D01*
X133264029Y-51665606D01*
X133119569Y-51641500D01*
X132894431Y-51641500D01*
X132749971Y-51665606D01*
X132672369Y-51678555D01*
X132672360Y-51678557D01*
X132459428Y-51751656D01*
X132459426Y-51751658D01*
X132261426Y-51858810D01*
X132261424Y-51858811D01*
X132083762Y-51997091D01*
X131931279Y-52162729D01*
X131842483Y-52298643D01*
X131788479Y-52344731D01*
X131718131Y-52354306D01*
X131653774Y-52324329D01*
X131631517Y-52298643D01*
X131542720Y-52162729D01*
X131413220Y-52022057D01*
X131390240Y-51997094D01*
X131390239Y-51997093D01*
X131390237Y-51997091D01*
X131270367Y-51903792D01*
X131212576Y-51858811D01*
X131014574Y-51751658D01*
X131014572Y-51751657D01*
X131014571Y-51751656D01*
X130801639Y-51678557D01*
X130801630Y-51678555D01*
X130724029Y-51665606D01*
X130579569Y-51641500D01*
X130354431Y-51641500D01*
X130209971Y-51665606D01*
X130132369Y-51678555D01*
X130132360Y-51678557D01*
X129919428Y-51751656D01*
X129919426Y-51751658D01*
X129721426Y-51858810D01*
X129721424Y-51858811D01*
X129543762Y-51997091D01*
X129391279Y-52162729D01*
X129302483Y-52298643D01*
X129248479Y-52344731D01*
X129178131Y-52354306D01*
X129113774Y-52324329D01*
X129091517Y-52298643D01*
X129002720Y-52162729D01*
X128873220Y-52022057D01*
X128850240Y-51997094D01*
X128850239Y-51997093D01*
X128850237Y-51997091D01*
X128730367Y-51903792D01*
X128672576Y-51858811D01*
X128474574Y-51751658D01*
X128474572Y-51751657D01*
X128474571Y-51751656D01*
X128261639Y-51678557D01*
X128261630Y-51678555D01*
X128184029Y-51665606D01*
X128039569Y-51641500D01*
X127814431Y-51641500D01*
X127669971Y-51665606D01*
X127592369Y-51678555D01*
X127592360Y-51678557D01*
X127379428Y-51751656D01*
X127379426Y-51751658D01*
X127181426Y-51858810D01*
X127181424Y-51858811D01*
X127003762Y-51997091D01*
X126851279Y-52162729D01*
X126762483Y-52298643D01*
X126708479Y-52344731D01*
X126638131Y-52354306D01*
X126573774Y-52324329D01*
X126551517Y-52298643D01*
X126462720Y-52162729D01*
X126333220Y-52022057D01*
X126310240Y-51997094D01*
X126310239Y-51997093D01*
X126310237Y-51997091D01*
X126190367Y-51903792D01*
X126132576Y-51858811D01*
X125934574Y-51751658D01*
X125934572Y-51751657D01*
X125934571Y-51751656D01*
X125721639Y-51678557D01*
X125721630Y-51678555D01*
X125644029Y-51665606D01*
X125499569Y-51641500D01*
X125274431Y-51641500D01*
X125129971Y-51665606D01*
X125052369Y-51678555D01*
X125052360Y-51678557D01*
X124839428Y-51751656D01*
X124839426Y-51751658D01*
X124641426Y-51858810D01*
X124641424Y-51858811D01*
X124463762Y-51997091D01*
X124311279Y-52162729D01*
X124222483Y-52298643D01*
X124168479Y-52344731D01*
X124098131Y-52354306D01*
X124033774Y-52324329D01*
X124011517Y-52298643D01*
X123922720Y-52162729D01*
X123793220Y-52022057D01*
X123770240Y-51997094D01*
X123770239Y-51997093D01*
X123770237Y-51997091D01*
X123650367Y-51903792D01*
X123592576Y-51858811D01*
X123394574Y-51751658D01*
X123394572Y-51751657D01*
X123394571Y-51751656D01*
X123181639Y-51678557D01*
X123181630Y-51678555D01*
X123104029Y-51665606D01*
X122959569Y-51641500D01*
X122734431Y-51641500D01*
X122589971Y-51665606D01*
X122512369Y-51678555D01*
X122512360Y-51678557D01*
X122299428Y-51751656D01*
X122299426Y-51751658D01*
X122101426Y-51858810D01*
X122101424Y-51858811D01*
X121923762Y-51997091D01*
X121771279Y-52162729D01*
X121682483Y-52298643D01*
X121628479Y-52344731D01*
X121558131Y-52354306D01*
X121493774Y-52324329D01*
X121471517Y-52298643D01*
X121382720Y-52162729D01*
X121253220Y-52022057D01*
X121230240Y-51997094D01*
X121230239Y-51997093D01*
X121230237Y-51997091D01*
X121110367Y-51903792D01*
X121052576Y-51858811D01*
X120854574Y-51751658D01*
X120854572Y-51751657D01*
X120854571Y-51751656D01*
X120641639Y-51678557D01*
X120641630Y-51678555D01*
X120564029Y-51665606D01*
X120419569Y-51641500D01*
X120194431Y-51641500D01*
X120049971Y-51665606D01*
X119972369Y-51678555D01*
X119972360Y-51678557D01*
X119759428Y-51751656D01*
X119759426Y-51751658D01*
X119561426Y-51858810D01*
X119561424Y-51858811D01*
X119383762Y-51997091D01*
X119231279Y-52162729D01*
X119142483Y-52298643D01*
X119088479Y-52344731D01*
X119018131Y-52354306D01*
X118953774Y-52324329D01*
X118931517Y-52298643D01*
X118842720Y-52162729D01*
X118713220Y-52022057D01*
X118690240Y-51997094D01*
X118690239Y-51997093D01*
X118690237Y-51997091D01*
X118570367Y-51903792D01*
X118512576Y-51858811D01*
X118314574Y-51751658D01*
X118314572Y-51751657D01*
X118314571Y-51751656D01*
X118101639Y-51678557D01*
X118101630Y-51678555D01*
X118024029Y-51665606D01*
X117879569Y-51641500D01*
X117654431Y-51641500D01*
X117509971Y-51665606D01*
X117432369Y-51678555D01*
X117432360Y-51678557D01*
X117219428Y-51751656D01*
X117219426Y-51751658D01*
X117021426Y-51858810D01*
X117021424Y-51858811D01*
X116843762Y-51997091D01*
X116691279Y-52162729D01*
X116602483Y-52298643D01*
X116548479Y-52344731D01*
X116478131Y-52354306D01*
X116413774Y-52324329D01*
X116391517Y-52298643D01*
X116302720Y-52162729D01*
X116173220Y-52022057D01*
X116150240Y-51997094D01*
X116150239Y-51997093D01*
X116150237Y-51997091D01*
X116030367Y-51903792D01*
X115972576Y-51858811D01*
X115774574Y-51751658D01*
X115774572Y-51751657D01*
X115774571Y-51751656D01*
X115561639Y-51678557D01*
X115561630Y-51678555D01*
X115484029Y-51665606D01*
X115339569Y-51641500D01*
X115114431Y-51641500D01*
X114969971Y-51665606D01*
X114892369Y-51678555D01*
X114892360Y-51678557D01*
X114679428Y-51751656D01*
X114679426Y-51751658D01*
X114481426Y-51858810D01*
X114481424Y-51858811D01*
X114303762Y-51997091D01*
X114151279Y-52162729D01*
X114062483Y-52298643D01*
X114008479Y-52344731D01*
X113938131Y-52354306D01*
X113873774Y-52324329D01*
X113851517Y-52298643D01*
X113762720Y-52162729D01*
X113633220Y-52022057D01*
X113610240Y-51997094D01*
X113610239Y-51997093D01*
X113610237Y-51997091D01*
X113490367Y-51903792D01*
X113432576Y-51858811D01*
X113234574Y-51751658D01*
X113234572Y-51751657D01*
X113234571Y-51751656D01*
X113021639Y-51678557D01*
X113021630Y-51678555D01*
X112944029Y-51665606D01*
X112799569Y-51641500D01*
X112574431Y-51641500D01*
X112429971Y-51665606D01*
X112352369Y-51678555D01*
X112352360Y-51678557D01*
X112139428Y-51751656D01*
X112139426Y-51751658D01*
X111941426Y-51858810D01*
X111941424Y-51858811D01*
X111763762Y-51997091D01*
X111611279Y-52162729D01*
X111522483Y-52298643D01*
X111468479Y-52344731D01*
X111398131Y-52354306D01*
X111333774Y-52324329D01*
X111311517Y-52298643D01*
X111222720Y-52162729D01*
X111093220Y-52022057D01*
X111070240Y-51997094D01*
X111070239Y-51997093D01*
X111070237Y-51997091D01*
X110950367Y-51903792D01*
X110892576Y-51858811D01*
X110694574Y-51751658D01*
X110694572Y-51751657D01*
X110694571Y-51751656D01*
X110481639Y-51678557D01*
X110481630Y-51678555D01*
X110404029Y-51665606D01*
X110259569Y-51641500D01*
X110034431Y-51641500D01*
X109889971Y-51665606D01*
X109812369Y-51678555D01*
X109812360Y-51678557D01*
X109599428Y-51751656D01*
X109599426Y-51751658D01*
X109401426Y-51858810D01*
X109401424Y-51858811D01*
X109223762Y-51997091D01*
X109071279Y-52162729D01*
X108982483Y-52298643D01*
X108928479Y-52344731D01*
X108858131Y-52354306D01*
X108793774Y-52324329D01*
X108771517Y-52298643D01*
X108682720Y-52162729D01*
X108553220Y-52022057D01*
X108530240Y-51997094D01*
X108530239Y-51997093D01*
X108530237Y-51997091D01*
X108410367Y-51903792D01*
X108352576Y-51858811D01*
X108154574Y-51751658D01*
X108154572Y-51751657D01*
X108154571Y-51751656D01*
X107941639Y-51678557D01*
X107941630Y-51678555D01*
X107864029Y-51665606D01*
X107719569Y-51641500D01*
X107494431Y-51641500D01*
X107349971Y-51665606D01*
X107272369Y-51678555D01*
X107272360Y-51678557D01*
X107059428Y-51751656D01*
X107059426Y-51751658D01*
X106861426Y-51858810D01*
X106861424Y-51858811D01*
X106683762Y-51997091D01*
X106531279Y-52162729D01*
X106442483Y-52298643D01*
X106388479Y-52344731D01*
X106318131Y-52354306D01*
X106253774Y-52324329D01*
X106231517Y-52298643D01*
X106142720Y-52162729D01*
X106013220Y-52022057D01*
X105990240Y-51997094D01*
X105990239Y-51997093D01*
X105990237Y-51997091D01*
X105870367Y-51903792D01*
X105812576Y-51858811D01*
X105614574Y-51751658D01*
X105614572Y-51751657D01*
X105614571Y-51751656D01*
X105401639Y-51678557D01*
X105401630Y-51678555D01*
X105324029Y-51665606D01*
X105179569Y-51641500D01*
X104954431Y-51641500D01*
X104809971Y-51665606D01*
X104732369Y-51678555D01*
X104732360Y-51678557D01*
X104519428Y-51751656D01*
X104519426Y-51751658D01*
X104321426Y-51858810D01*
X104321424Y-51858811D01*
X104143762Y-51997091D01*
X103991279Y-52162729D01*
X103902483Y-52298643D01*
X103848479Y-52344731D01*
X103778131Y-52354306D01*
X103713774Y-52324329D01*
X103691517Y-52298643D01*
X103602720Y-52162729D01*
X103473220Y-52022057D01*
X103450240Y-51997094D01*
X103450239Y-51997093D01*
X103450237Y-51997091D01*
X103330367Y-51903792D01*
X103272576Y-51858811D01*
X103074574Y-51751658D01*
X103074572Y-51751657D01*
X103074571Y-51751656D01*
X102861639Y-51678557D01*
X102861630Y-51678555D01*
X102784029Y-51665606D01*
X102639569Y-51641500D01*
X102414431Y-51641500D01*
X102269971Y-51665606D01*
X102192369Y-51678555D01*
X102192360Y-51678557D01*
X101979428Y-51751656D01*
X101979426Y-51751658D01*
X101781426Y-51858810D01*
X101781424Y-51858811D01*
X101603762Y-51997091D01*
X101451279Y-52162729D01*
X101362483Y-52298643D01*
X101308479Y-52344731D01*
X101238131Y-52354306D01*
X101173774Y-52324329D01*
X101151517Y-52298643D01*
X101062720Y-52162729D01*
X100933220Y-52022057D01*
X100910240Y-51997094D01*
X100910239Y-51997093D01*
X100910237Y-51997091D01*
X100790367Y-51903792D01*
X100732576Y-51858811D01*
X100534574Y-51751658D01*
X100534572Y-51751657D01*
X100534571Y-51751656D01*
X100321639Y-51678557D01*
X100321630Y-51678555D01*
X100244029Y-51665606D01*
X100099569Y-51641500D01*
X99874431Y-51641500D01*
X99729971Y-51665606D01*
X99652369Y-51678555D01*
X99652360Y-51678557D01*
X99439428Y-51751656D01*
X99439426Y-51751658D01*
X99241426Y-51858810D01*
X99241424Y-51858811D01*
X99063762Y-51997091D01*
X98911279Y-52162729D01*
X98822483Y-52298643D01*
X98768479Y-52344731D01*
X98698131Y-52354306D01*
X98633774Y-52324329D01*
X98611517Y-52298643D01*
X98522720Y-52162729D01*
X98393220Y-52022057D01*
X98370240Y-51997094D01*
X98370239Y-51997093D01*
X98370237Y-51997091D01*
X98250367Y-51903792D01*
X98192576Y-51858811D01*
X97994574Y-51751658D01*
X97994572Y-51751657D01*
X97994571Y-51751656D01*
X97781639Y-51678557D01*
X97781630Y-51678555D01*
X97704029Y-51665606D01*
X97559569Y-51641500D01*
X97334431Y-51641500D01*
X97189971Y-51665606D01*
X97112369Y-51678555D01*
X97112360Y-51678557D01*
X96899428Y-51751656D01*
X96899426Y-51751658D01*
X96701426Y-51858810D01*
X96701424Y-51858811D01*
X96523762Y-51997091D01*
X96371279Y-52162729D01*
X96282483Y-52298643D01*
X96228479Y-52344731D01*
X96158131Y-52354306D01*
X96093774Y-52324329D01*
X96071517Y-52298643D01*
X95982720Y-52162729D01*
X95853220Y-52022057D01*
X95830240Y-51997094D01*
X95830239Y-51997093D01*
X95830237Y-51997091D01*
X95710367Y-51903792D01*
X95652576Y-51858811D01*
X95454574Y-51751658D01*
X95454572Y-51751657D01*
X95454571Y-51751656D01*
X95241639Y-51678557D01*
X95241630Y-51678555D01*
X95164029Y-51665606D01*
X95019569Y-51641500D01*
X94794431Y-51641500D01*
X94649971Y-51665606D01*
X94572369Y-51678555D01*
X94572360Y-51678557D01*
X94359428Y-51751656D01*
X94359426Y-51751658D01*
X94161426Y-51858810D01*
X94161424Y-51858811D01*
X93983762Y-51997091D01*
X93922754Y-52063363D01*
X93861901Y-52099933D01*
X93790936Y-52097798D01*
X93732391Y-52057636D01*
X93711999Y-52022057D01*
X93667889Y-51903797D01*
X93667887Y-51903792D01*
X93580261Y-51786738D01*
X93463207Y-51699112D01*
X93463202Y-51699110D01*
X93326204Y-51648011D01*
X93326196Y-51648009D01*
X93265649Y-51641500D01*
X93265638Y-51641500D01*
X91468362Y-51641500D01*
X91468350Y-51641500D01*
X91407803Y-51648009D01*
X91407795Y-51648011D01*
X91270797Y-51699110D01*
X91270792Y-51699112D01*
X91153738Y-51786738D01*
X91066112Y-51903792D01*
X91066110Y-51903797D01*
X91015011Y-52040795D01*
X91015009Y-52040803D01*
X91008500Y-52101350D01*
X91008500Y-53898649D01*
X91015009Y-53959196D01*
X91015011Y-53959204D01*
X91066110Y-54096202D01*
X91066112Y-54096207D01*
X91153738Y-54213261D01*
X91270791Y-54300886D01*
X91270792Y-54300886D01*
X91270796Y-54300889D01*
X91385810Y-54343787D01*
X91442642Y-54386332D01*
X91467453Y-54452852D01*
X91452362Y-54522226D01*
X91434492Y-54547160D01*
X91431125Y-54550819D01*
X91370280Y-54587402D01*
X91338407Y-54591500D01*
X90019068Y-54591500D01*
X89979436Y-54585105D01*
X89972739Y-54582886D01*
X89972738Y-54582885D01*
X89804426Y-54527113D01*
X89804420Y-54527112D01*
X89700553Y-54516500D01*
X88299455Y-54516500D01*
X88195574Y-54527112D01*
X88027261Y-54582885D01*
X87876347Y-54675970D01*
X87876341Y-54675975D01*
X87750975Y-54801341D01*
X87750970Y-54801347D01*
X87657885Y-54952262D01*
X87602113Y-55120572D01*
X87602112Y-55120579D01*
X87591500Y-55224446D01*
X55392557Y-55224446D01*
X55394265Y-55222738D01*
X55541936Y-55030289D01*
X55663224Y-54820212D01*
X55756054Y-54596100D01*
X55818838Y-54361789D01*
X55850500Y-54121288D01*
X55850500Y-53878712D01*
X55818838Y-53638211D01*
X55756054Y-53403900D01*
X55663224Y-53179788D01*
X55663218Y-53179779D01*
X55663217Y-53179775D01*
X55574155Y-53025516D01*
X87592000Y-53025516D01*
X87602605Y-53129318D01*
X87602606Y-53129321D01*
X87658342Y-53297525D01*
X87751365Y-53448339D01*
X87751370Y-53448345D01*
X87876654Y-53573629D01*
X87876660Y-53573634D01*
X88027474Y-53666657D01*
X88195678Y-53722393D01*
X88195681Y-53722394D01*
X88299483Y-53732999D01*
X88299483Y-53733000D01*
X88746000Y-53733000D01*
X89254000Y-53733000D01*
X89700517Y-53733000D01*
X89700516Y-53732999D01*
X89804318Y-53722394D01*
X89804321Y-53722393D01*
X89972525Y-53666657D01*
X90123339Y-53573634D01*
X90123345Y-53573629D01*
X90248629Y-53448345D01*
X90248634Y-53448339D01*
X90341657Y-53297525D01*
X90397393Y-53129321D01*
X90397394Y-53129318D01*
X90407999Y-53025516D01*
X90408000Y-53025516D01*
X90408000Y-52904000D01*
X89254000Y-52904000D01*
X89254000Y-53733000D01*
X88746000Y-53733000D01*
X88746000Y-52904000D01*
X87592000Y-52904000D01*
X87592000Y-53025516D01*
X55574155Y-53025516D01*
X55541938Y-52969714D01*
X55541936Y-52969711D01*
X55394265Y-52777262D01*
X55394259Y-52777256D01*
X55394255Y-52777251D01*
X55222748Y-52605744D01*
X55222742Y-52605739D01*
X55222738Y-52605735D01*
X55030289Y-52458064D01*
X55030288Y-52458063D01*
X55030285Y-52458061D01*
X54820224Y-52336782D01*
X54820216Y-52336778D01*
X54820212Y-52336776D01*
X54669823Y-52274483D01*
X87592000Y-52274483D01*
X87592000Y-52396000D01*
X88746000Y-52396000D01*
X89254000Y-52396000D01*
X90408000Y-52396000D01*
X90408000Y-52274483D01*
X90397394Y-52170681D01*
X90397393Y-52170678D01*
X90341657Y-52002474D01*
X90248634Y-51851660D01*
X90248629Y-51851654D01*
X90123345Y-51726370D01*
X90123339Y-51726365D01*
X89972525Y-51633342D01*
X89804321Y-51577606D01*
X89804318Y-51577605D01*
X89700516Y-51567000D01*
X89254000Y-51567000D01*
X89254000Y-52396000D01*
X88746000Y-52396000D01*
X88746000Y-51567000D01*
X88299483Y-51567000D01*
X88195681Y-51577605D01*
X88195678Y-51577606D01*
X88027474Y-51633342D01*
X87876660Y-51726365D01*
X87876654Y-51726370D01*
X87751370Y-51851654D01*
X87751365Y-51851660D01*
X87658342Y-52002474D01*
X87602606Y-52170678D01*
X87602605Y-52170681D01*
X87592000Y-52274483D01*
X54669823Y-52274483D01*
X54596100Y-52243946D01*
X54596097Y-52243945D01*
X54596095Y-52243944D01*
X54361782Y-52181160D01*
X54121290Y-52149500D01*
X54121288Y-52149500D01*
X53878712Y-52149500D01*
X53878709Y-52149500D01*
X53638217Y-52181160D01*
X53403904Y-52243944D01*
X53403900Y-52243946D01*
X53208735Y-52324786D01*
X53179786Y-52336777D01*
X53179775Y-52336782D01*
X52969714Y-52458061D01*
X52777262Y-52605735D01*
X52777251Y-52605744D01*
X52605744Y-52777251D01*
X52605735Y-52777262D01*
X52458061Y-52969714D01*
X52336782Y-53179775D01*
X52336777Y-53179786D01*
X52336776Y-53179788D01*
X52288008Y-53297525D01*
X52243946Y-53403900D01*
X52243944Y-53403904D01*
X52181160Y-53638217D01*
X52149500Y-53878709D01*
X50001487Y-53878709D01*
X50002342Y-53809001D01*
X50002939Y-53798229D01*
X50040303Y-53418863D01*
X50042109Y-53406681D01*
X50116329Y-53033551D01*
X50119333Y-53021565D01*
X50202925Y-52746000D01*
X50229758Y-52657542D01*
X50233913Y-52645928D01*
X50379500Y-52294448D01*
X50384772Y-52283302D01*
X50564108Y-51947791D01*
X50570445Y-51937218D01*
X50781805Y-51620894D01*
X50789153Y-51610989D01*
X51030490Y-51316917D01*
X51038775Y-51307776D01*
X51307776Y-51038775D01*
X51316917Y-51030490D01*
X51610989Y-50789153D01*
X51620894Y-50781805D01*
X51937218Y-50570445D01*
X51947791Y-50564108D01*
X52283302Y-50384772D01*
X52294448Y-50379500D01*
X52645928Y-50233913D01*
X52657542Y-50229758D01*
X53021569Y-50119331D01*
X53033551Y-50116329D01*
X53406681Y-50042109D01*
X53418863Y-50040303D01*
X53798229Y-50002939D01*
X53809001Y-50002342D01*
X53999266Y-50000008D01*
X54000811Y-50000000D01*
X145999189Y-50000000D01*
X146000733Y-50000008D01*
G37*
%TD.AperFunction*%
%TD*%
M02*
