%TF.GenerationSoftware,KiCad,Pcbnew,8.0.5-8.0.5-0~ubuntu22.04.1*%
%TF.CreationDate,2024-10-23T07:47:20+02:00*%
%TF.ProjectId,RamRomBoard,52616d52-6f6d-4426-9f61-72642e6b6963,rev?*%
%TF.SameCoordinates,Original*%
%TF.FileFunction,Soldermask,Bot*%
%TF.FilePolarity,Negative*%
%FSLAX46Y46*%
G04 Gerber Fmt 4.6, Leading zero omitted, Abs format (unit mm)*
G04 Created by KiCad (PCBNEW 8.0.5-8.0.5-0~ubuntu22.04.1) date 2024-10-23 07:47:20*
%MOMM*%
%LPD*%
G01*
G04 APERTURE LIST*
G04 Aperture macros list*
%AMRoundRect*
0 Rectangle with rounded corners*
0 $1 Rounding radius*
0 $2 $3 $4 $5 $6 $7 $8 $9 X,Y pos of 4 corners*
0 Add a 4 corners polygon primitive as box body*
4,1,4,$2,$3,$4,$5,$6,$7,$8,$9,$2,$3,0*
0 Add four circle primitives for the rounded corners*
1,1,$1+$1,$2,$3*
1,1,$1+$1,$4,$5*
1,1,$1+$1,$6,$7*
1,1,$1+$1,$8,$9*
0 Add four rect primitives between the rounded corners*
20,1,$1+$1,$2,$3,$4,$5,0*
20,1,$1+$1,$4,$5,$6,$7,0*
20,1,$1+$1,$6,$7,$8,$9,0*
20,1,$1+$1,$8,$9,$2,$3,0*%
%AMFreePoly0*
4,1,19,0.500000,-0.750000,0.000000,-0.750000,0.000000,-0.744911,-0.071157,-0.744911,-0.207708,-0.704816,-0.327430,-0.627875,-0.420627,-0.520320,-0.479746,-0.390866,-0.500000,-0.250000,-0.500000,0.250000,-0.479746,0.390866,-0.420627,0.520320,-0.327430,0.627875,-0.207708,0.704816,-0.071157,0.744911,0.000000,0.744911,0.000000,0.750000,0.500000,0.750000,0.500000,-0.750000,0.500000,-0.750000,
$1*%
%AMFreePoly1*
4,1,19,0.000000,0.744911,0.071157,0.744911,0.207708,0.704816,0.327430,0.627875,0.420627,0.520320,0.479746,0.390866,0.500000,0.250000,0.500000,-0.250000,0.479746,-0.390866,0.420627,-0.520320,0.327430,-0.627875,0.207708,-0.704816,0.071157,-0.744911,0.000000,-0.744911,0.000000,-0.750000,-0.500000,-0.750000,-0.500000,0.750000,0.000000,0.750000,0.000000,0.744911,0.000000,0.744911,
$1*%
%AMFreePoly2*
4,1,19,0.550000,-0.750000,0.000000,-0.750000,0.000000,-0.744911,-0.071157,-0.744911,-0.207708,-0.704816,-0.327430,-0.627875,-0.420627,-0.520320,-0.479746,-0.390866,-0.500000,-0.250000,-0.500000,0.250000,-0.479746,0.390866,-0.420627,0.520320,-0.327430,0.627875,-0.207708,0.704816,-0.071157,0.744911,0.000000,0.744911,0.000000,0.750000,0.550000,0.750000,0.550000,-0.750000,0.550000,-0.750000,
$1*%
%AMFreePoly3*
4,1,19,0.000000,0.744911,0.071157,0.744911,0.207708,0.704816,0.327430,0.627875,0.420627,0.520320,0.479746,0.390866,0.500000,0.250000,0.500000,-0.250000,0.479746,-0.390866,0.420627,-0.520320,0.327430,-0.627875,0.207708,-0.704816,0.071157,-0.744911,0.000000,-0.744911,0.000000,-0.750000,-0.550000,-0.750000,-0.550000,0.750000,0.000000,0.750000,0.000000,0.744911,0.000000,0.744911,
$1*%
G04 Aperture macros list end*
%ADD10R,1.700000X1.700000*%
%ADD11O,1.700000X1.700000*%
%ADD12R,0.850000X0.850000*%
%ADD13R,2.400000X1.600000*%
%ADD14O,2.400000X1.600000*%
%ADD15R,2.500000X2.500000*%
%ADD16C,2.500000*%
%ADD17R,1.600000X1.600000*%
%ADD18O,1.600000X1.600000*%
%ADD19C,2.100000*%
%ADD20C,1.750000*%
%ADD21C,3.200000*%
%ADD22R,1.600000X2.000000*%
%ADD23O,1.600000X2.000000*%
%ADD24C,2.000000*%
%ADD25RoundRect,0.150000X0.150000X-0.825000X0.150000X0.825000X-0.150000X0.825000X-0.150000X-0.825000X0*%
%ADD26RoundRect,0.150000X0.150000X-0.725000X0.150000X0.725000X-0.150000X0.725000X-0.150000X-0.725000X0*%
%ADD27RoundRect,0.150000X0.825000X0.150000X-0.825000X0.150000X-0.825000X-0.150000X0.825000X-0.150000X0*%
%ADD28RoundRect,0.250000X0.650000X-0.325000X0.650000X0.325000X-0.650000X0.325000X-0.650000X-0.325000X0*%
%ADD29RoundRect,0.250000X-0.650000X0.325000X-0.650000X-0.325000X0.650000X-0.325000X0.650000X0.325000X0*%
%ADD30RoundRect,0.250000X-0.625000X0.312500X-0.625000X-0.312500X0.625000X-0.312500X0.625000X0.312500X0*%
%ADD31RoundRect,0.150000X0.725000X0.150000X-0.725000X0.150000X-0.725000X-0.150000X0.725000X-0.150000X0*%
%ADD32FreePoly0,0.000000*%
%ADD33FreePoly1,0.000000*%
%ADD34RoundRect,0.162500X0.162500X-0.617500X0.162500X0.617500X-0.162500X0.617500X-0.162500X-0.617500X0*%
%ADD35RoundRect,0.250000X-0.325000X-0.650000X0.325000X-0.650000X0.325000X0.650000X-0.325000X0.650000X0*%
%ADD36RoundRect,0.150000X-0.150000X0.825000X-0.150000X-0.825000X0.150000X-0.825000X0.150000X0.825000X0*%
%ADD37FreePoly2,270.000000*%
%ADD38R,1.500000X1.000000*%
%ADD39FreePoly3,270.000000*%
%ADD40RoundRect,0.250000X0.312500X0.625000X-0.312500X0.625000X-0.312500X-0.625000X0.312500X-0.625000X0*%
%ADD41RoundRect,0.250000X0.625000X-0.312500X0.625000X0.312500X-0.625000X0.312500X-0.625000X-0.312500X0*%
%ADD42RoundRect,0.137500X0.137500X-0.625000X0.137500X0.625000X-0.137500X0.625000X-0.137500X-0.625000X0*%
%ADD43RoundRect,0.250000X0.325000X0.650000X-0.325000X0.650000X-0.325000X-0.650000X0.325000X-0.650000X0*%
%ADD44FreePoly0,180.000000*%
%ADD45FreePoly1,180.000000*%
%ADD46RoundRect,0.250000X1.025000X-0.787500X1.025000X0.787500X-1.025000X0.787500X-1.025000X-0.787500X0*%
%ADD47FreePoly2,0.000000*%
%ADD48R,1.000000X1.500000*%
%ADD49FreePoly3,0.000000*%
G04 APERTURE END LIST*
D10*
%TO.C,J8*%
X57482000Y-69174995D03*
D11*
X54942000Y-69174995D03*
X57482000Y-66634995D03*
X54942000Y-66634995D03*
%TD*%
D12*
%TO.C,TP9*%
X89281000Y-130175000D03*
%TD*%
D10*
%TO.C,J1*%
X92367000Y-53000000D03*
D11*
X92367000Y-55540000D03*
X94907000Y-53000000D03*
X94907000Y-55540000D03*
X97447000Y-53000000D03*
X97447000Y-55540000D03*
X99987000Y-53000000D03*
X99987000Y-55540000D03*
X102527000Y-53000000D03*
X102527000Y-55540000D03*
X105067000Y-53000000D03*
X105067000Y-55540000D03*
X107607000Y-53000000D03*
X107607000Y-55540000D03*
X110147000Y-53000000D03*
X110147000Y-55540000D03*
X112687000Y-53000000D03*
X112687000Y-55540000D03*
X115227000Y-53000000D03*
X115227000Y-55540000D03*
X117767000Y-53000000D03*
X117767000Y-55540000D03*
X120307000Y-53000000D03*
X120307000Y-55540000D03*
X122847000Y-53000000D03*
X122847000Y-55540000D03*
X125387000Y-53000000D03*
X125387000Y-55540000D03*
X127927000Y-53000000D03*
X127927000Y-55540000D03*
X130467000Y-53000000D03*
X130467000Y-55540000D03*
X133007000Y-53000000D03*
X133007000Y-55540000D03*
X135547000Y-53000000D03*
X135547000Y-55540000D03*
X138087000Y-53000000D03*
X138087000Y-55540000D03*
X140627000Y-53000000D03*
X140627000Y-55540000D03*
%TD*%
D13*
%TO.C,J7*%
X67437000Y-86233000D03*
D14*
X67437000Y-88773000D03*
X67437000Y-91313000D03*
X67437000Y-93853000D03*
X67437000Y-96393000D03*
X67437000Y-98933000D03*
X67437000Y-101473000D03*
X67437000Y-104013000D03*
X67437000Y-106553000D03*
X67437000Y-109093000D03*
X67437000Y-111633000D03*
X67437000Y-114173000D03*
X67437000Y-116713000D03*
X67437000Y-119253000D03*
X67437000Y-121793000D03*
X67437000Y-124333000D03*
X67437000Y-126873000D03*
X67437000Y-129413000D03*
X67437000Y-131953000D03*
X67437000Y-134493000D03*
X82677000Y-134493000D03*
X82677000Y-131953000D03*
X82677000Y-129413000D03*
X82677000Y-126873000D03*
X82677000Y-124333000D03*
X82677000Y-121793000D03*
X82677000Y-119253000D03*
X82677000Y-116713000D03*
X82677000Y-114173000D03*
X82677000Y-111633000D03*
X82677000Y-109093000D03*
X82677000Y-106553000D03*
X82677000Y-104013000D03*
X82677000Y-101473000D03*
X82677000Y-98933000D03*
X82677000Y-96393000D03*
X82677000Y-93853000D03*
X82677000Y-91313000D03*
X82677000Y-88773000D03*
X82677000Y-86233000D03*
%TD*%
D12*
%TO.C,TP12*%
X95154000Y-64470995D03*
%TD*%
D10*
%TO.C,TP2*%
X140627000Y-141000000D03*
D11*
X140627000Y-138460000D03*
X138087000Y-141000000D03*
X138087000Y-138460000D03*
X135547000Y-141000000D03*
X135547000Y-138460000D03*
X133007000Y-141000000D03*
X133007000Y-138460000D03*
X130467000Y-141000000D03*
X130467000Y-138460000D03*
X127927000Y-141000000D03*
X127927000Y-138460000D03*
X125387000Y-141000000D03*
X125387000Y-138460000D03*
X122847000Y-141000000D03*
X122847000Y-138460000D03*
X120307000Y-141000000D03*
X120307000Y-138460000D03*
X117767000Y-141000000D03*
X117767000Y-138460000D03*
X115227000Y-141000000D03*
X115227000Y-138460000D03*
X112687000Y-141000000D03*
X112687000Y-138460000D03*
X110147000Y-141000000D03*
X110147000Y-138460000D03*
X107607000Y-141000000D03*
X107607000Y-138460000D03*
X105067000Y-141000000D03*
X105067000Y-138460000D03*
X102527000Y-141000000D03*
X102527000Y-138460000D03*
X99987000Y-141000000D03*
X99987000Y-138460000D03*
X97447000Y-141000000D03*
X97447000Y-138460000D03*
X94907000Y-141000000D03*
X94907000Y-138460000D03*
X92367000Y-141000000D03*
X92367000Y-138460000D03*
%TD*%
D15*
%TO.C,J5*%
X61200000Y-54600000D03*
D16*
X66200000Y-54600000D03*
%TD*%
D17*
%TO.C,RN4*%
X138049000Y-134955995D03*
D18*
X135509000Y-134955995D03*
X132969000Y-134955995D03*
X130429000Y-134955995D03*
X127889000Y-134955995D03*
X125349000Y-134955995D03*
X122809000Y-134955995D03*
X120269000Y-134955995D03*
X117729000Y-134955995D03*
%TD*%
D10*
%TO.C,J3*%
X52832000Y-127635000D03*
D11*
X52832000Y-130175000D03*
X52832000Y-132715000D03*
%TD*%
D12*
%TO.C,TP3*%
X98202000Y-64470995D03*
%TD*%
%TO.C,TP8*%
X86741000Y-130175000D03*
%TD*%
D17*
%TO.C,RN3*%
X136779000Y-131572000D03*
D18*
X134239000Y-131572000D03*
X131699000Y-131572000D03*
X129159000Y-131572000D03*
X126619000Y-131572000D03*
X124079000Y-131572000D03*
X121539000Y-131572000D03*
X118999000Y-131572000D03*
X116459000Y-131572000D03*
%TD*%
D12*
%TO.C,TP6*%
X93630000Y-64470995D03*
%TD*%
D19*
%TO.C,SW2*%
X54811500Y-118206000D03*
X54811500Y-111196000D03*
D20*
X52321500Y-116956000D03*
X52321500Y-112456000D03*
%TD*%
D12*
%TO.C,TP13*%
X96676000Y-64470995D03*
%TD*%
D10*
%TO.C,J2*%
X140627000Y-147000000D03*
D11*
X140627000Y-144460000D03*
X138087000Y-147000000D03*
X138087000Y-144460000D03*
X135547000Y-147000000D03*
X135547000Y-144460000D03*
X133007000Y-147000000D03*
X133007000Y-144460000D03*
X130467000Y-147000000D03*
X130467000Y-144460000D03*
X127927000Y-147000000D03*
X127927000Y-144460000D03*
X125387000Y-147000000D03*
X125387000Y-144460000D03*
X122847000Y-147000000D03*
X122847000Y-144460000D03*
X120307000Y-147000000D03*
X120307000Y-144460000D03*
X117767000Y-147000000D03*
X117767000Y-144460000D03*
X115227000Y-147000000D03*
X115227000Y-144460000D03*
X112687000Y-147000000D03*
X112687000Y-144460000D03*
X110147000Y-147000000D03*
X110147000Y-144460000D03*
X107607000Y-147000000D03*
X107607000Y-144460000D03*
X105067000Y-147000000D03*
X105067000Y-144460000D03*
X102527000Y-147000000D03*
X102527000Y-144460000D03*
X99987000Y-147000000D03*
X99987000Y-144460000D03*
X97447000Y-147000000D03*
X97447000Y-144460000D03*
X94907000Y-147000000D03*
X94907000Y-144460000D03*
X92367000Y-147000000D03*
X92367000Y-144460000D03*
%TD*%
D10*
%TO.C,J9*%
X144460000Y-124500000D03*
D11*
X147000000Y-124500000D03*
X144460000Y-127040000D03*
X147000000Y-127040000D03*
X144460000Y-129580000D03*
X147000000Y-129580000D03*
X144460000Y-132120000D03*
X147000000Y-132120000D03*
X144460000Y-134660000D03*
X147000000Y-134660000D03*
%TD*%
D12*
%TO.C,TP11*%
X110744000Y-131318000D03*
%TD*%
D21*
%TO.C,H3*%
X146000000Y-54000000D03*
%TD*%
D12*
%TO.C,TP4*%
X90582000Y-64470995D03*
%TD*%
%TO.C,TP14*%
X56007000Y-101473000D03*
%TD*%
D22*
%TO.C,BT1*%
X105918000Y-117776000D03*
X105918000Y-107776000D03*
D23*
X90418000Y-112776000D03*
%TD*%
D24*
%TO.C,SW1*%
X59220000Y-61853995D03*
X61760000Y-61853995D03*
X64300000Y-61853995D03*
X54140000Y-61853995D03*
%TD*%
D10*
%TO.C,TP1*%
X92367000Y-59000000D03*
D11*
X92367000Y-61540000D03*
X94907000Y-59000000D03*
X94907000Y-61540000D03*
X97447000Y-59000000D03*
X97447000Y-61540000D03*
X99987000Y-59000000D03*
X99987000Y-61540000D03*
X102527000Y-59000000D03*
X102527000Y-61540000D03*
X105067000Y-59000000D03*
X105067000Y-61540000D03*
X107607000Y-59000000D03*
X107607000Y-61540000D03*
X110147000Y-59000000D03*
X110147000Y-61540000D03*
X112687000Y-59000000D03*
X112687000Y-61540000D03*
X115227000Y-59000000D03*
X115227000Y-61540000D03*
X117767000Y-59000000D03*
X117767000Y-61540000D03*
X120307000Y-59000000D03*
X120307000Y-61540000D03*
X122847000Y-59000000D03*
X122847000Y-61540000D03*
X125387000Y-59000000D03*
X125387000Y-61540000D03*
X127927000Y-59000000D03*
X127927000Y-61540000D03*
X130467000Y-59000000D03*
X130467000Y-61540000D03*
X133007000Y-59000000D03*
X133007000Y-61540000D03*
X135547000Y-59000000D03*
X135547000Y-61540000D03*
X138087000Y-59000000D03*
X138087000Y-61540000D03*
X140627000Y-59000000D03*
X140627000Y-61540000D03*
%TD*%
D21*
%TO.C,H1*%
X54000000Y-54000000D03*
%TD*%
%TO.C,H2*%
X54000000Y-146000000D03*
%TD*%
D24*
%TO.C,F1*%
X61372000Y-67137995D03*
X66452000Y-67147995D03*
%TD*%
D12*
%TO.C,TP5*%
X92106000Y-64470995D03*
%TD*%
D21*
%TO.C,H4*%
X146000000Y-146000000D03*
%TD*%
D25*
%TO.C,U20*%
X97540000Y-117100000D03*
X96270000Y-117100000D03*
X95000000Y-117100000D03*
X93730000Y-117100000D03*
X93730000Y-112150000D03*
X95000000Y-112150000D03*
X96270000Y-112150000D03*
X97540000Y-112150000D03*
%TD*%
D26*
%TO.C,U13*%
X135128000Y-116091495D03*
X133858000Y-116091495D03*
X132588000Y-116091495D03*
X131318000Y-116091495D03*
X130048000Y-116091495D03*
X128778000Y-116091495D03*
X127508000Y-116091495D03*
X126238000Y-116091495D03*
X126238000Y-110941495D03*
X127508000Y-110941495D03*
X128778000Y-110941495D03*
X130048000Y-110941495D03*
X131318000Y-110941495D03*
X132588000Y-110941495D03*
X133858000Y-110941495D03*
X135128000Y-110941495D03*
%TD*%
D27*
%TO.C,U4*%
X97567000Y-130383995D03*
X97567000Y-131653995D03*
X97567000Y-132923995D03*
X97567000Y-134193995D03*
X92617000Y-134193995D03*
X92617000Y-132923995D03*
X92617000Y-131653995D03*
X92617000Y-130383995D03*
%TD*%
D28*
%TO.C,C3*%
X147160000Y-69653995D03*
X147160000Y-66703995D03*
%TD*%
D29*
%TO.C,C5*%
X111700000Y-70250000D03*
X111700000Y-73200000D03*
%TD*%
D30*
%TO.C,R3*%
X103632000Y-131187000D03*
X103632000Y-134112000D03*
%TD*%
D26*
%TO.C,U14*%
X121920000Y-116161495D03*
X120650000Y-116161495D03*
X119380000Y-116161495D03*
X118110000Y-116161495D03*
X116840000Y-116161495D03*
X115570000Y-116161495D03*
X114300000Y-116161495D03*
X113030000Y-116161495D03*
X113030000Y-111011495D03*
X114300000Y-111011495D03*
X115570000Y-111011495D03*
X116840000Y-111011495D03*
X118110000Y-111011495D03*
X119380000Y-111011495D03*
X120650000Y-111011495D03*
X121920000Y-111011495D03*
%TD*%
D31*
%TO.C,U17*%
X101793000Y-94442995D03*
X101793000Y-95712995D03*
X101793000Y-96982995D03*
X101793000Y-98252995D03*
X101793000Y-99522995D03*
X101793000Y-100792995D03*
X101793000Y-102062995D03*
X101793000Y-103332995D03*
X96643000Y-103332995D03*
X96643000Y-102062995D03*
X96643000Y-100792995D03*
X96643000Y-99522995D03*
X96643000Y-98252995D03*
X96643000Y-96982995D03*
X96643000Y-95712995D03*
X96643000Y-94442995D03*
%TD*%
D12*
%TO.C,TP7*%
X86300000Y-72000000D03*
%TD*%
D32*
%TO.C,JP3*%
X91100000Y-107700000D03*
D33*
X92400000Y-107700000D03*
%TD*%
D34*
%TO.C,U5*%
X84150000Y-71850000D03*
X83200000Y-71850000D03*
X82250000Y-71850000D03*
X82250000Y-69150000D03*
X84150000Y-69150000D03*
%TD*%
D35*
%TO.C,C9*%
X97948000Y-105618995D03*
X100898000Y-105618995D03*
%TD*%
D36*
%TO.C,U7*%
X114838125Y-66066470D03*
X116108125Y-66066470D03*
X117378125Y-66066470D03*
X118648125Y-66066470D03*
X119918125Y-66066470D03*
X121188125Y-66066470D03*
X122458125Y-66066470D03*
X123728125Y-66066470D03*
X123728125Y-71016470D03*
X122458125Y-71016470D03*
X121188125Y-71016470D03*
X119918125Y-71016470D03*
X118648125Y-71016470D03*
X117378125Y-71016470D03*
X116108125Y-71016470D03*
X114838125Y-71016470D03*
%TD*%
D37*
%TO.C,JP4*%
X115600000Y-122100000D03*
D38*
X115600000Y-123400000D03*
D39*
X115600000Y-124700000D03*
%TD*%
D40*
%TO.C,R1*%
X66960000Y-73233995D03*
X64035000Y-73233995D03*
%TD*%
D41*
%TO.C,R7*%
X86800000Y-62425000D03*
X86800000Y-59500000D03*
%TD*%
D42*
%TO.C,U12*%
X127049000Y-97490495D03*
X126249000Y-97490495D03*
X125449000Y-97490495D03*
X124649000Y-97490495D03*
X123849000Y-97490495D03*
X123049000Y-97490495D03*
X122249000Y-97490495D03*
X121449000Y-97490495D03*
X120649000Y-97490495D03*
X119849000Y-97490495D03*
X119049000Y-97490495D03*
X118249000Y-97490495D03*
X117449000Y-97490495D03*
X116649000Y-97490495D03*
X115849000Y-97490495D03*
X115049000Y-97490495D03*
X114249000Y-97490495D03*
X113449000Y-97490495D03*
X112649000Y-97490495D03*
X111849000Y-97490495D03*
X111049000Y-97490495D03*
X110249000Y-97490495D03*
X110249000Y-86315495D03*
X111049000Y-86315495D03*
X111849000Y-86315495D03*
X112649000Y-86315495D03*
X113449000Y-86315495D03*
X114249000Y-86315495D03*
X115049000Y-86315495D03*
X115849000Y-86315495D03*
X116649000Y-86315495D03*
X117449000Y-86315495D03*
X118249000Y-86315495D03*
X119049000Y-86315495D03*
X119849000Y-86315495D03*
X120649000Y-86315495D03*
X121449000Y-86315495D03*
X122249000Y-86315495D03*
X123049000Y-86315495D03*
X123849000Y-86315495D03*
X124649000Y-86315495D03*
X125449000Y-86315495D03*
X126249000Y-86315495D03*
X127049000Y-86315495D03*
%TD*%
D43*
%TO.C,C13*%
X132724500Y-101173995D03*
X129774500Y-101173995D03*
%TD*%
D44*
%TO.C,JP7*%
X87100000Y-75100000D03*
D45*
X85800000Y-75100000D03*
%TD*%
D30*
%TO.C,R6*%
X89154000Y-125283500D03*
X89154000Y-128208500D03*
%TD*%
D40*
%TO.C,R9*%
X94062500Y-104900000D03*
X91137500Y-104900000D03*
%TD*%
D46*
%TO.C,C12*%
X71360000Y-59453995D03*
X71360000Y-53228995D03*
%TD*%
D36*
%TO.C,U8*%
X125353725Y-66066470D03*
X126623725Y-66066470D03*
X127893725Y-66066470D03*
X129163725Y-66066470D03*
X130433725Y-66066470D03*
X131703725Y-66066470D03*
X132973725Y-66066470D03*
X134243725Y-66066470D03*
X134243725Y-71016470D03*
X132973725Y-71016470D03*
X131703725Y-71016470D03*
X130433725Y-71016470D03*
X129163725Y-71016470D03*
X127893725Y-71016470D03*
X126623725Y-71016470D03*
X125353725Y-71016470D03*
%TD*%
D40*
%TO.C,R10*%
X56769000Y-114808000D03*
X53844000Y-114808000D03*
%TD*%
D30*
%TO.C,R4*%
X101092000Y-131187000D03*
X101092000Y-134112000D03*
%TD*%
%TO.C,R5*%
X86741000Y-125283500D03*
X86741000Y-128208500D03*
%TD*%
D41*
%TO.C,R8*%
X89200000Y-62450000D03*
X89200000Y-59525000D03*
%TD*%
D40*
%TO.C,R2*%
X66960000Y-70693995D03*
X64035000Y-70693995D03*
%TD*%
D12*
%TO.C,TP10*%
X85600000Y-105400000D03*
%TD*%
D27*
%TO.C,U18*%
X101631000Y-80980995D03*
X101631000Y-82250995D03*
X101631000Y-83520995D03*
X101631000Y-84790995D03*
X101631000Y-86060995D03*
X101631000Y-87330995D03*
X101631000Y-88600995D03*
X101631000Y-89870995D03*
X96681000Y-89870995D03*
X96681000Y-88600995D03*
X96681000Y-87330995D03*
X96681000Y-86060995D03*
X96681000Y-84790995D03*
X96681000Y-83520995D03*
X96681000Y-82250995D03*
X96681000Y-80980995D03*
%TD*%
D28*
%TO.C,C10*%
X110089500Y-115045995D03*
X110089500Y-112095995D03*
%TD*%
D47*
%TO.C,JP2*%
X94600000Y-107700000D03*
D48*
X95900000Y-107700000D03*
D49*
X97200000Y-107700000D03*
%TD*%
D36*
%TO.C,U9*%
X135894725Y-66055270D03*
X137164725Y-66055270D03*
X138434725Y-66055270D03*
X139704725Y-66055270D03*
X140974725Y-66055270D03*
X142244725Y-66055270D03*
X143514725Y-66055270D03*
X144784725Y-66055270D03*
X144784725Y-71005270D03*
X143514725Y-71005270D03*
X142244725Y-71005270D03*
X140974725Y-71005270D03*
X139704725Y-71005270D03*
X138434725Y-71005270D03*
X137164725Y-71005270D03*
X135894725Y-71005270D03*
%TD*%
G36*
X79097419Y-61569027D02*
G01*
X79143177Y-61621828D01*
X79154386Y-61673373D01*
X79152026Y-73110021D01*
X79132328Y-73177056D01*
X79079514Y-73222800D01*
X79028026Y-73233995D01*
X69116000Y-73233995D01*
X69048961Y-73214310D01*
X69003206Y-73161506D01*
X68992000Y-73109995D01*
X68992000Y-61673986D01*
X69011685Y-61606947D01*
X69064489Y-61561192D01*
X69115992Y-61549986D01*
X79030378Y-61549347D01*
X79097419Y-61569027D01*
G37*
M02*
