%TF.GenerationSoftware,KiCad,Pcbnew,8.0.7-8.0.7-0~ubuntu22.04.1*%
%TF.CreationDate,2024-12-26T12:21:12+01:00*%
%TF.ProjectId,schematics_v10,73636865-6d61-4746-9963-735f7631302e,rev?*%
%TF.SameCoordinates,Original*%
%TF.FileFunction,Legend,Bot*%
%TF.FilePolarity,Positive*%
%FSLAX46Y46*%
G04 Gerber Fmt 4.6, Leading zero omitted, Abs format (unit mm)*
G04 Created by KiCad (PCBNEW 8.0.7-8.0.7-0~ubuntu22.04.1) date 2024-12-26 12:21:12*
%MOMM*%
%LPD*%
G01*
G04 APERTURE LIST*
%ADD10C,0.150000*%
%ADD11C,0.120000*%
G04 APERTURE END LIST*
D10*
X76768077Y-119687875D02*
X76434744Y-120687875D01*
X76434744Y-120687875D02*
X76101411Y-119687875D01*
X75768077Y-120021208D02*
X75768077Y-121021208D01*
X75768077Y-120068827D02*
X75672839Y-120021208D01*
X75672839Y-120021208D02*
X75482363Y-120021208D01*
X75482363Y-120021208D02*
X75387125Y-120068827D01*
X75387125Y-120068827D02*
X75339506Y-120116446D01*
X75339506Y-120116446D02*
X75291887Y-120211684D01*
X75291887Y-120211684D02*
X75291887Y-120497398D01*
X75291887Y-120497398D02*
X75339506Y-120592636D01*
X75339506Y-120592636D02*
X75387125Y-120640256D01*
X75387125Y-120640256D02*
X75482363Y-120687875D01*
X75482363Y-120687875D02*
X75672839Y-120687875D01*
X75672839Y-120687875D02*
X75768077Y-120640256D01*
X74434744Y-120021208D02*
X74434744Y-120687875D01*
X74863315Y-120021208D02*
X74863315Y-120545017D01*
X74863315Y-120545017D02*
X74815696Y-120640256D01*
X74815696Y-120640256D02*
X74720458Y-120687875D01*
X74720458Y-120687875D02*
X74577601Y-120687875D01*
X74577601Y-120687875D02*
X74482363Y-120640256D01*
X74482363Y-120640256D02*
X74434744Y-120592636D01*
X73815696Y-120687875D02*
X73910934Y-120640256D01*
X73910934Y-120640256D02*
X73958553Y-120545017D01*
X73958553Y-120545017D02*
X73958553Y-119687875D01*
X73291886Y-120687875D02*
X73387124Y-120640256D01*
X73387124Y-120640256D02*
X73434743Y-120545017D01*
X73434743Y-120545017D02*
X73434743Y-119687875D01*
X72482362Y-120021208D02*
X72482362Y-120687875D01*
X72910933Y-120021208D02*
X72910933Y-120545017D01*
X72910933Y-120545017D02*
X72863314Y-120640256D01*
X72863314Y-120640256D02*
X72768076Y-120687875D01*
X72768076Y-120687875D02*
X72625219Y-120687875D01*
X72625219Y-120687875D02*
X72529981Y-120640256D01*
X72529981Y-120640256D02*
X72482362Y-120592636D01*
X72006171Y-120021208D02*
X72006171Y-121021208D01*
X72006171Y-120068827D02*
X71910933Y-120021208D01*
X71910933Y-120021208D02*
X71720457Y-120021208D01*
X71720457Y-120021208D02*
X71625219Y-120068827D01*
X71625219Y-120068827D02*
X71577600Y-120116446D01*
X71577600Y-120116446D02*
X71529981Y-120211684D01*
X71529981Y-120211684D02*
X71529981Y-120497398D01*
X71529981Y-120497398D02*
X71577600Y-120592636D01*
X71577600Y-120592636D02*
X71625219Y-120640256D01*
X71625219Y-120640256D02*
X71720457Y-120687875D01*
X71720457Y-120687875D02*
X71910933Y-120687875D01*
X71910933Y-120687875D02*
X72006171Y-120640256D01*
X76720458Y-121297819D02*
X76101411Y-121297819D01*
X76101411Y-121297819D02*
X76434744Y-121678771D01*
X76434744Y-121678771D02*
X76291887Y-121678771D01*
X76291887Y-121678771D02*
X76196649Y-121726390D01*
X76196649Y-121726390D02*
X76149030Y-121774009D01*
X76149030Y-121774009D02*
X76101411Y-121869247D01*
X76101411Y-121869247D02*
X76101411Y-122107342D01*
X76101411Y-122107342D02*
X76149030Y-122202580D01*
X76149030Y-122202580D02*
X76196649Y-122250200D01*
X76196649Y-122250200D02*
X76291887Y-122297819D01*
X76291887Y-122297819D02*
X76577601Y-122297819D01*
X76577601Y-122297819D02*
X76672839Y-122250200D01*
X76672839Y-122250200D02*
X76720458Y-122202580D01*
X75815696Y-121297819D02*
X75482363Y-122297819D01*
X75482363Y-122297819D02*
X75149030Y-121297819D01*
X74910934Y-121297819D02*
X74291887Y-121297819D01*
X74291887Y-121297819D02*
X74625220Y-121678771D01*
X74625220Y-121678771D02*
X74482363Y-121678771D01*
X74482363Y-121678771D02*
X74387125Y-121726390D01*
X74387125Y-121726390D02*
X74339506Y-121774009D01*
X74339506Y-121774009D02*
X74291887Y-121869247D01*
X74291887Y-121869247D02*
X74291887Y-122107342D01*
X74291887Y-122107342D02*
X74339506Y-122202580D01*
X74339506Y-122202580D02*
X74387125Y-122250200D01*
X74387125Y-122250200D02*
X74482363Y-122297819D01*
X74482363Y-122297819D02*
X74768077Y-122297819D01*
X74768077Y-122297819D02*
X74863315Y-122250200D01*
X74863315Y-122250200D02*
X74910934Y-122202580D01*
X73625220Y-122631152D02*
X73625220Y-121202580D01*
X72434744Y-121297819D02*
X72910934Y-121297819D01*
X72910934Y-121297819D02*
X72958553Y-121774009D01*
X72958553Y-121774009D02*
X72910934Y-121726390D01*
X72910934Y-121726390D02*
X72815696Y-121678771D01*
X72815696Y-121678771D02*
X72577601Y-121678771D01*
X72577601Y-121678771D02*
X72482363Y-121726390D01*
X72482363Y-121726390D02*
X72434744Y-121774009D01*
X72434744Y-121774009D02*
X72387125Y-121869247D01*
X72387125Y-121869247D02*
X72387125Y-122107342D01*
X72387125Y-122107342D02*
X72434744Y-122202580D01*
X72434744Y-122202580D02*
X72482363Y-122250200D01*
X72482363Y-122250200D02*
X72577601Y-122297819D01*
X72577601Y-122297819D02*
X72815696Y-122297819D01*
X72815696Y-122297819D02*
X72910934Y-122250200D01*
X72910934Y-122250200D02*
X72958553Y-122202580D01*
X72101410Y-121297819D02*
X71768077Y-122297819D01*
X71768077Y-122297819D02*
X71434744Y-121297819D01*
X92389077Y-68846819D02*
X92055744Y-69846819D01*
X92055744Y-69846819D02*
X91722411Y-68846819D01*
X91389077Y-69846819D02*
X91389077Y-68846819D01*
X91389077Y-69227771D02*
X91293839Y-69180152D01*
X91293839Y-69180152D02*
X91103363Y-69180152D01*
X91103363Y-69180152D02*
X91008125Y-69227771D01*
X91008125Y-69227771D02*
X90960506Y-69275390D01*
X90960506Y-69275390D02*
X90912887Y-69370628D01*
X90912887Y-69370628D02*
X90912887Y-69656342D01*
X90912887Y-69656342D02*
X90960506Y-69751580D01*
X90960506Y-69751580D02*
X91008125Y-69799200D01*
X91008125Y-69799200D02*
X91103363Y-69846819D01*
X91103363Y-69846819D02*
X91293839Y-69846819D01*
X91293839Y-69846819D02*
X91389077Y-69799200D01*
X90055744Y-69180152D02*
X90055744Y-69846819D01*
X90484315Y-69180152D02*
X90484315Y-69703961D01*
X90484315Y-69703961D02*
X90436696Y-69799200D01*
X90436696Y-69799200D02*
X90341458Y-69846819D01*
X90341458Y-69846819D02*
X90198601Y-69846819D01*
X90198601Y-69846819D02*
X90103363Y-69799200D01*
X90103363Y-69799200D02*
X90055744Y-69751580D01*
X89722410Y-69180152D02*
X89341458Y-69180152D01*
X89579553Y-69846819D02*
X89579553Y-68989676D01*
X89579553Y-68989676D02*
X89531934Y-68894438D01*
X89531934Y-68894438D02*
X89436696Y-68846819D01*
X89436696Y-68846819D02*
X89341458Y-68846819D01*
X92486830Y-64636214D02*
X92963020Y-64636214D01*
X92963020Y-64636214D02*
X93010639Y-65112404D01*
X93010639Y-65112404D02*
X92963020Y-65064785D01*
X92963020Y-65064785D02*
X92867782Y-65017166D01*
X92867782Y-65017166D02*
X92629687Y-65017166D01*
X92629687Y-65017166D02*
X92534449Y-65064785D01*
X92534449Y-65064785D02*
X92486830Y-65112404D01*
X92486830Y-65112404D02*
X92439211Y-65207642D01*
X92439211Y-65207642D02*
X92439211Y-65445737D01*
X92439211Y-65445737D02*
X92486830Y-65540975D01*
X92486830Y-65540975D02*
X92534449Y-65588595D01*
X92534449Y-65588595D02*
X92629687Y-65636214D01*
X92629687Y-65636214D02*
X92867782Y-65636214D01*
X92867782Y-65636214D02*
X92963020Y-65588595D01*
X92963020Y-65588595D02*
X93010639Y-65540975D01*
X92153496Y-64636214D02*
X91820163Y-65636214D01*
X91820163Y-65636214D02*
X91486830Y-64636214D01*
X90915401Y-65969547D02*
X90915401Y-64540975D01*
X90296353Y-64636214D02*
X89677306Y-64636214D01*
X89677306Y-64636214D02*
X90010639Y-65017166D01*
X90010639Y-65017166D02*
X89867782Y-65017166D01*
X89867782Y-65017166D02*
X89772544Y-65064785D01*
X89772544Y-65064785D02*
X89724925Y-65112404D01*
X89724925Y-65112404D02*
X89677306Y-65207642D01*
X89677306Y-65207642D02*
X89677306Y-65445737D01*
X89677306Y-65445737D02*
X89724925Y-65540975D01*
X89724925Y-65540975D02*
X89772544Y-65588595D01*
X89772544Y-65588595D02*
X89867782Y-65636214D01*
X89867782Y-65636214D02*
X90153496Y-65636214D01*
X90153496Y-65636214D02*
X90248734Y-65588595D01*
X90248734Y-65588595D02*
X90296353Y-65540975D01*
X89391591Y-64636214D02*
X89058258Y-65636214D01*
X89058258Y-65636214D02*
X88724925Y-64636214D01*
X88486829Y-64636214D02*
X87867782Y-64636214D01*
X87867782Y-64636214D02*
X88201115Y-65017166D01*
X88201115Y-65017166D02*
X88058258Y-65017166D01*
X88058258Y-65017166D02*
X87963020Y-65064785D01*
X87963020Y-65064785D02*
X87915401Y-65112404D01*
X87915401Y-65112404D02*
X87867782Y-65207642D01*
X87867782Y-65207642D02*
X87867782Y-65445737D01*
X87867782Y-65445737D02*
X87915401Y-65540975D01*
X87915401Y-65540975D02*
X87963020Y-65588595D01*
X87963020Y-65588595D02*
X88058258Y-65636214D01*
X88058258Y-65636214D02*
X88343972Y-65636214D01*
X88343972Y-65636214D02*
X88439210Y-65588595D01*
X88439210Y-65588595D02*
X88486829Y-65540975D01*
X80144857Y-129232819D02*
X80478190Y-128756628D01*
X80716285Y-129232819D02*
X80716285Y-128232819D01*
X80716285Y-128232819D02*
X80335333Y-128232819D01*
X80335333Y-128232819D02*
X80240095Y-128280438D01*
X80240095Y-128280438D02*
X80192476Y-128328057D01*
X80192476Y-128328057D02*
X80144857Y-128423295D01*
X80144857Y-128423295D02*
X80144857Y-128566152D01*
X80144857Y-128566152D02*
X80192476Y-128661390D01*
X80192476Y-128661390D02*
X80240095Y-128709009D01*
X80240095Y-128709009D02*
X80335333Y-128756628D01*
X80335333Y-128756628D02*
X80716285Y-128756628D01*
X79192476Y-129232819D02*
X79763904Y-129232819D01*
X79478190Y-129232819D02*
X79478190Y-128232819D01*
X79478190Y-128232819D02*
X79573428Y-128375676D01*
X79573428Y-128375676D02*
X79668666Y-128470914D01*
X79668666Y-128470914D02*
X79763904Y-128518533D01*
X78335333Y-128232819D02*
X78525809Y-128232819D01*
X78525809Y-128232819D02*
X78621047Y-128280438D01*
X78621047Y-128280438D02*
X78668666Y-128328057D01*
X78668666Y-128328057D02*
X78763904Y-128470914D01*
X78763904Y-128470914D02*
X78811523Y-128661390D01*
X78811523Y-128661390D02*
X78811523Y-129042342D01*
X78811523Y-129042342D02*
X78763904Y-129137580D01*
X78763904Y-129137580D02*
X78716285Y-129185200D01*
X78716285Y-129185200D02*
X78621047Y-129232819D01*
X78621047Y-129232819D02*
X78430571Y-129232819D01*
X78430571Y-129232819D02*
X78335333Y-129185200D01*
X78335333Y-129185200D02*
X78287714Y-129137580D01*
X78287714Y-129137580D02*
X78240095Y-129042342D01*
X78240095Y-129042342D02*
X78240095Y-128804247D01*
X78240095Y-128804247D02*
X78287714Y-128709009D01*
X78287714Y-128709009D02*
X78335333Y-128661390D01*
X78335333Y-128661390D02*
X78430571Y-128613771D01*
X78430571Y-128613771D02*
X78621047Y-128613771D01*
X78621047Y-128613771D02*
X78716285Y-128661390D01*
X78716285Y-128661390D02*
X78763904Y-128709009D01*
X78763904Y-128709009D02*
X78811523Y-128804247D01*
X105353866Y-69267949D02*
X104877675Y-68934616D01*
X105353866Y-68696521D02*
X104353866Y-68696521D01*
X104353866Y-68696521D02*
X104353866Y-69077473D01*
X104353866Y-69077473D02*
X104401485Y-69172711D01*
X104401485Y-69172711D02*
X104449104Y-69220330D01*
X104449104Y-69220330D02*
X104544342Y-69267949D01*
X104544342Y-69267949D02*
X104687199Y-69267949D01*
X104687199Y-69267949D02*
X104782437Y-69220330D01*
X104782437Y-69220330D02*
X104830056Y-69172711D01*
X104830056Y-69172711D02*
X104877675Y-69077473D01*
X104877675Y-69077473D02*
X104877675Y-68696521D01*
X105353866Y-70220330D02*
X105353866Y-69648902D01*
X105353866Y-69934616D02*
X104353866Y-69934616D01*
X104353866Y-69934616D02*
X104496723Y-69839378D01*
X104496723Y-69839378D02*
X104591961Y-69744140D01*
X104591961Y-69744140D02*
X104639580Y-69648902D01*
X104687199Y-71077473D02*
X105353866Y-71077473D01*
X104306247Y-70839378D02*
X105020532Y-70601283D01*
X105020532Y-70601283D02*
X105020532Y-71220330D01*
X79856857Y-138713819D02*
X80190190Y-138237628D01*
X80428285Y-138713819D02*
X80428285Y-137713819D01*
X80428285Y-137713819D02*
X80047333Y-137713819D01*
X80047333Y-137713819D02*
X79952095Y-137761438D01*
X79952095Y-137761438D02*
X79904476Y-137809057D01*
X79904476Y-137809057D02*
X79856857Y-137904295D01*
X79856857Y-137904295D02*
X79856857Y-138047152D01*
X79856857Y-138047152D02*
X79904476Y-138142390D01*
X79904476Y-138142390D02*
X79952095Y-138190009D01*
X79952095Y-138190009D02*
X80047333Y-138237628D01*
X80047333Y-138237628D02*
X80428285Y-138237628D01*
X78904476Y-138713819D02*
X79475904Y-138713819D01*
X79190190Y-138713819D02*
X79190190Y-137713819D01*
X79190190Y-137713819D02*
X79285428Y-137856676D01*
X79285428Y-137856676D02*
X79380666Y-137951914D01*
X79380666Y-137951914D02*
X79475904Y-137999533D01*
X78571142Y-137713819D02*
X77904476Y-137713819D01*
X77904476Y-137713819D02*
X78333047Y-138713819D01*
X95958819Y-69155142D02*
X95482628Y-68821809D01*
X95958819Y-68583714D02*
X94958819Y-68583714D01*
X94958819Y-68583714D02*
X94958819Y-68964666D01*
X94958819Y-68964666D02*
X95006438Y-69059904D01*
X95006438Y-69059904D02*
X95054057Y-69107523D01*
X95054057Y-69107523D02*
X95149295Y-69155142D01*
X95149295Y-69155142D02*
X95292152Y-69155142D01*
X95292152Y-69155142D02*
X95387390Y-69107523D01*
X95387390Y-69107523D02*
X95435009Y-69059904D01*
X95435009Y-69059904D02*
X95482628Y-68964666D01*
X95482628Y-68964666D02*
X95482628Y-68583714D01*
X95958819Y-70107523D02*
X95958819Y-69536095D01*
X95958819Y-69821809D02*
X94958819Y-69821809D01*
X94958819Y-69821809D02*
X95101676Y-69726571D01*
X95101676Y-69726571D02*
X95196914Y-69631333D01*
X95196914Y-69631333D02*
X95244533Y-69536095D01*
X95054057Y-70488476D02*
X95006438Y-70536095D01*
X95006438Y-70536095D02*
X94958819Y-70631333D01*
X94958819Y-70631333D02*
X94958819Y-70869428D01*
X94958819Y-70869428D02*
X95006438Y-70964666D01*
X95006438Y-70964666D02*
X95054057Y-71012285D01*
X95054057Y-71012285D02*
X95149295Y-71059904D01*
X95149295Y-71059904D02*
X95244533Y-71059904D01*
X95244533Y-71059904D02*
X95387390Y-71012285D01*
X95387390Y-71012285D02*
X95958819Y-70440857D01*
X95958819Y-70440857D02*
X95958819Y-71059904D01*
X92368523Y-70320819D02*
X92368523Y-71035104D01*
X92368523Y-71035104D02*
X92416142Y-71177961D01*
X92416142Y-71177961D02*
X92511380Y-71273200D01*
X92511380Y-71273200D02*
X92654237Y-71320819D01*
X92654237Y-71320819D02*
X92749475Y-71320819D01*
X91892332Y-71320819D02*
X91892332Y-70320819D01*
X91892332Y-70320819D02*
X91511380Y-70320819D01*
X91511380Y-70320819D02*
X91416142Y-70368438D01*
X91416142Y-70368438D02*
X91368523Y-70416057D01*
X91368523Y-70416057D02*
X91320904Y-70511295D01*
X91320904Y-70511295D02*
X91320904Y-70654152D01*
X91320904Y-70654152D02*
X91368523Y-70749390D01*
X91368523Y-70749390D02*
X91416142Y-70797009D01*
X91416142Y-70797009D02*
X91511380Y-70844628D01*
X91511380Y-70844628D02*
X91892332Y-70844628D01*
X90939951Y-70416057D02*
X90892332Y-70368438D01*
X90892332Y-70368438D02*
X90797094Y-70320819D01*
X90797094Y-70320819D02*
X90558999Y-70320819D01*
X90558999Y-70320819D02*
X90463761Y-70368438D01*
X90463761Y-70368438D02*
X90416142Y-70416057D01*
X90416142Y-70416057D02*
X90368523Y-70511295D01*
X90368523Y-70511295D02*
X90368523Y-70606533D01*
X90368523Y-70606533D02*
X90416142Y-70749390D01*
X90416142Y-70749390D02*
X90987570Y-71320819D01*
X90987570Y-71320819D02*
X90368523Y-71320819D01*
X89892332Y-71320819D02*
X89701856Y-71320819D01*
X89701856Y-71320819D02*
X89606618Y-71273200D01*
X89606618Y-71273200D02*
X89558999Y-71225580D01*
X89558999Y-71225580D02*
X89463761Y-71082723D01*
X89463761Y-71082723D02*
X89416142Y-70892247D01*
X89416142Y-70892247D02*
X89416142Y-70511295D01*
X89416142Y-70511295D02*
X89463761Y-70416057D01*
X89463761Y-70416057D02*
X89511380Y-70368438D01*
X89511380Y-70368438D02*
X89606618Y-70320819D01*
X89606618Y-70320819D02*
X89797094Y-70320819D01*
X89797094Y-70320819D02*
X89892332Y-70368438D01*
X89892332Y-70368438D02*
X89939951Y-70416057D01*
X89939951Y-70416057D02*
X89987570Y-70511295D01*
X89987570Y-70511295D02*
X89987570Y-70749390D01*
X89987570Y-70749390D02*
X89939951Y-70844628D01*
X89939951Y-70844628D02*
X89892332Y-70892247D01*
X89892332Y-70892247D02*
X89797094Y-70939866D01*
X89797094Y-70939866D02*
X89606618Y-70939866D01*
X89606618Y-70939866D02*
X89511380Y-70892247D01*
X89511380Y-70892247D02*
X89463761Y-70844628D01*
X89463761Y-70844628D02*
X89416142Y-70749390D01*
X93850132Y-66719814D02*
X93231085Y-66719814D01*
X93231085Y-66719814D02*
X93564418Y-67100766D01*
X93564418Y-67100766D02*
X93421561Y-67100766D01*
X93421561Y-67100766D02*
X93326323Y-67148385D01*
X93326323Y-67148385D02*
X93278704Y-67196004D01*
X93278704Y-67196004D02*
X93231085Y-67291242D01*
X93231085Y-67291242D02*
X93231085Y-67529337D01*
X93231085Y-67529337D02*
X93278704Y-67624575D01*
X93278704Y-67624575D02*
X93326323Y-67672195D01*
X93326323Y-67672195D02*
X93421561Y-67719814D01*
X93421561Y-67719814D02*
X93707275Y-67719814D01*
X93707275Y-67719814D02*
X93802513Y-67672195D01*
X93802513Y-67672195D02*
X93850132Y-67624575D01*
X88031085Y-67719814D02*
X88602513Y-67719814D01*
X88316799Y-67719814D02*
X88316799Y-66719814D01*
X88316799Y-66719814D02*
X88412037Y-66862671D01*
X88412037Y-66862671D02*
X88507275Y-66957909D01*
X88507275Y-66957909D02*
X88602513Y-67005528D01*
X100657819Y-69207142D02*
X100181628Y-68873809D01*
X100657819Y-68635714D02*
X99657819Y-68635714D01*
X99657819Y-68635714D02*
X99657819Y-69016666D01*
X99657819Y-69016666D02*
X99705438Y-69111904D01*
X99705438Y-69111904D02*
X99753057Y-69159523D01*
X99753057Y-69159523D02*
X99848295Y-69207142D01*
X99848295Y-69207142D02*
X99991152Y-69207142D01*
X99991152Y-69207142D02*
X100086390Y-69159523D01*
X100086390Y-69159523D02*
X100134009Y-69111904D01*
X100134009Y-69111904D02*
X100181628Y-69016666D01*
X100181628Y-69016666D02*
X100181628Y-68635714D01*
X100657819Y-70159523D02*
X100657819Y-69588095D01*
X100657819Y-69873809D02*
X99657819Y-69873809D01*
X99657819Y-69873809D02*
X99800676Y-69778571D01*
X99800676Y-69778571D02*
X99895914Y-69683333D01*
X99895914Y-69683333D02*
X99943533Y-69588095D01*
X100657819Y-71111904D02*
X100657819Y-70540476D01*
X100657819Y-70826190D02*
X99657819Y-70826190D01*
X99657819Y-70826190D02*
X99800676Y-70730952D01*
X99800676Y-70730952D02*
X99895914Y-70635714D01*
X99895914Y-70635714D02*
X99943533Y-70540476D01*
X87866780Y-142001742D02*
X87914400Y-141954123D01*
X87914400Y-141954123D02*
X87962019Y-141811266D01*
X87962019Y-141811266D02*
X87962019Y-141716028D01*
X87962019Y-141716028D02*
X87914400Y-141573171D01*
X87914400Y-141573171D02*
X87819161Y-141477933D01*
X87819161Y-141477933D02*
X87723923Y-141430314D01*
X87723923Y-141430314D02*
X87533447Y-141382695D01*
X87533447Y-141382695D02*
X87390590Y-141382695D01*
X87390590Y-141382695D02*
X87200114Y-141430314D01*
X87200114Y-141430314D02*
X87104876Y-141477933D01*
X87104876Y-141477933D02*
X87009638Y-141573171D01*
X87009638Y-141573171D02*
X86962019Y-141716028D01*
X86962019Y-141716028D02*
X86962019Y-141811266D01*
X86962019Y-141811266D02*
X87009638Y-141954123D01*
X87009638Y-141954123D02*
X87057257Y-142001742D01*
X87962019Y-142954123D02*
X87962019Y-142382695D01*
X87962019Y-142668409D02*
X86962019Y-142668409D01*
X86962019Y-142668409D02*
X87104876Y-142573171D01*
X87104876Y-142573171D02*
X87200114Y-142477933D01*
X87200114Y-142477933D02*
X87247733Y-142382695D01*
X86962019Y-143573171D02*
X86962019Y-143668409D01*
X86962019Y-143668409D02*
X87009638Y-143763647D01*
X87009638Y-143763647D02*
X87057257Y-143811266D01*
X87057257Y-143811266D02*
X87152495Y-143858885D01*
X87152495Y-143858885D02*
X87342971Y-143906504D01*
X87342971Y-143906504D02*
X87581066Y-143906504D01*
X87581066Y-143906504D02*
X87771542Y-143858885D01*
X87771542Y-143858885D02*
X87866780Y-143811266D01*
X87866780Y-143811266D02*
X87914400Y-143763647D01*
X87914400Y-143763647D02*
X87962019Y-143668409D01*
X87962019Y-143668409D02*
X87962019Y-143573171D01*
X87962019Y-143573171D02*
X87914400Y-143477933D01*
X87914400Y-143477933D02*
X87866780Y-143430314D01*
X87866780Y-143430314D02*
X87771542Y-143382695D01*
X87771542Y-143382695D02*
X87581066Y-143335076D01*
X87581066Y-143335076D02*
X87342971Y-143335076D01*
X87342971Y-143335076D02*
X87152495Y-143382695D01*
X87152495Y-143382695D02*
X87057257Y-143430314D01*
X87057257Y-143430314D02*
X87009638Y-143477933D01*
X87009638Y-143477933D02*
X86962019Y-143573171D01*
X86393580Y-137247333D02*
X86441200Y-137199714D01*
X86441200Y-137199714D02*
X86488819Y-137056857D01*
X86488819Y-137056857D02*
X86488819Y-136961619D01*
X86488819Y-136961619D02*
X86441200Y-136818762D01*
X86441200Y-136818762D02*
X86345961Y-136723524D01*
X86345961Y-136723524D02*
X86250723Y-136675905D01*
X86250723Y-136675905D02*
X86060247Y-136628286D01*
X86060247Y-136628286D02*
X85917390Y-136628286D01*
X85917390Y-136628286D02*
X85726914Y-136675905D01*
X85726914Y-136675905D02*
X85631676Y-136723524D01*
X85631676Y-136723524D02*
X85536438Y-136818762D01*
X85536438Y-136818762D02*
X85488819Y-136961619D01*
X85488819Y-136961619D02*
X85488819Y-137056857D01*
X85488819Y-137056857D02*
X85536438Y-137199714D01*
X85536438Y-137199714D02*
X85584057Y-137247333D01*
X85584057Y-137628286D02*
X85536438Y-137675905D01*
X85536438Y-137675905D02*
X85488819Y-137771143D01*
X85488819Y-137771143D02*
X85488819Y-138009238D01*
X85488819Y-138009238D02*
X85536438Y-138104476D01*
X85536438Y-138104476D02*
X85584057Y-138152095D01*
X85584057Y-138152095D02*
X85679295Y-138199714D01*
X85679295Y-138199714D02*
X85774533Y-138199714D01*
X85774533Y-138199714D02*
X85917390Y-138152095D01*
X85917390Y-138152095D02*
X86488819Y-137580667D01*
X86488819Y-137580667D02*
X86488819Y-138199714D01*
X68587857Y-141805819D02*
X68921190Y-141329628D01*
X69159285Y-141805819D02*
X69159285Y-140805819D01*
X69159285Y-140805819D02*
X68778333Y-140805819D01*
X68778333Y-140805819D02*
X68683095Y-140853438D01*
X68683095Y-140853438D02*
X68635476Y-140901057D01*
X68635476Y-140901057D02*
X68587857Y-140996295D01*
X68587857Y-140996295D02*
X68587857Y-141139152D01*
X68587857Y-141139152D02*
X68635476Y-141234390D01*
X68635476Y-141234390D02*
X68683095Y-141282009D01*
X68683095Y-141282009D02*
X68778333Y-141329628D01*
X68778333Y-141329628D02*
X69159285Y-141329628D01*
X67635476Y-141805819D02*
X68206904Y-141805819D01*
X67921190Y-141805819D02*
X67921190Y-140805819D01*
X67921190Y-140805819D02*
X68016428Y-140948676D01*
X68016428Y-140948676D02*
X68111666Y-141043914D01*
X68111666Y-141043914D02*
X68206904Y-141091533D01*
X67302142Y-140805819D02*
X66683095Y-140805819D01*
X66683095Y-140805819D02*
X67016428Y-141186771D01*
X67016428Y-141186771D02*
X66873571Y-141186771D01*
X66873571Y-141186771D02*
X66778333Y-141234390D01*
X66778333Y-141234390D02*
X66730714Y-141282009D01*
X66730714Y-141282009D02*
X66683095Y-141377247D01*
X66683095Y-141377247D02*
X66683095Y-141615342D01*
X66683095Y-141615342D02*
X66730714Y-141710580D01*
X66730714Y-141710580D02*
X66778333Y-141758200D01*
X66778333Y-141758200D02*
X66873571Y-141805819D01*
X66873571Y-141805819D02*
X67159285Y-141805819D01*
X67159285Y-141805819D02*
X67254523Y-141758200D01*
X67254523Y-141758200D02*
X67302142Y-141710580D01*
X79573333Y-123533819D02*
X79573333Y-124248104D01*
X79573333Y-124248104D02*
X79620952Y-124390961D01*
X79620952Y-124390961D02*
X79716190Y-124486200D01*
X79716190Y-124486200D02*
X79859047Y-124533819D01*
X79859047Y-124533819D02*
X79954285Y-124533819D01*
X79097142Y-124533819D02*
X79097142Y-123533819D01*
X79097142Y-123533819D02*
X78716190Y-123533819D01*
X78716190Y-123533819D02*
X78620952Y-123581438D01*
X78620952Y-123581438D02*
X78573333Y-123629057D01*
X78573333Y-123629057D02*
X78525714Y-123724295D01*
X78525714Y-123724295D02*
X78525714Y-123867152D01*
X78525714Y-123867152D02*
X78573333Y-123962390D01*
X78573333Y-123962390D02*
X78620952Y-124010009D01*
X78620952Y-124010009D02*
X78716190Y-124057628D01*
X78716190Y-124057628D02*
X79097142Y-124057628D01*
X78049523Y-124533819D02*
X77859047Y-124533819D01*
X77859047Y-124533819D02*
X77763809Y-124486200D01*
X77763809Y-124486200D02*
X77716190Y-124438580D01*
X77716190Y-124438580D02*
X77620952Y-124295723D01*
X77620952Y-124295723D02*
X77573333Y-124105247D01*
X77573333Y-124105247D02*
X77573333Y-123724295D01*
X77573333Y-123724295D02*
X77620952Y-123629057D01*
X77620952Y-123629057D02*
X77668571Y-123581438D01*
X77668571Y-123581438D02*
X77763809Y-123533819D01*
X77763809Y-123533819D02*
X77954285Y-123533819D01*
X77954285Y-123533819D02*
X78049523Y-123581438D01*
X78049523Y-123581438D02*
X78097142Y-123629057D01*
X78097142Y-123629057D02*
X78144761Y-123724295D01*
X78144761Y-123724295D02*
X78144761Y-123962390D01*
X78144761Y-123962390D02*
X78097142Y-124057628D01*
X78097142Y-124057628D02*
X78049523Y-124105247D01*
X78049523Y-124105247D02*
X77954285Y-124152866D01*
X77954285Y-124152866D02*
X77763809Y-124152866D01*
X77763809Y-124152866D02*
X77668571Y-124105247D01*
X77668571Y-124105247D02*
X77620952Y-124057628D01*
X77620952Y-124057628D02*
X77573333Y-123962390D01*
X75944285Y-124533819D02*
X76515713Y-124533819D01*
X76229999Y-124533819D02*
X76229999Y-123533819D01*
X76229999Y-123533819D02*
X76325237Y-123676676D01*
X76325237Y-123676676D02*
X76420475Y-123771914D01*
X76420475Y-123771914D02*
X76515713Y-123819533D01*
X71363332Y-123533819D02*
X70744285Y-123533819D01*
X70744285Y-123533819D02*
X71077618Y-123914771D01*
X71077618Y-123914771D02*
X70934761Y-123914771D01*
X70934761Y-123914771D02*
X70839523Y-123962390D01*
X70839523Y-123962390D02*
X70791904Y-124010009D01*
X70791904Y-124010009D02*
X70744285Y-124105247D01*
X70744285Y-124105247D02*
X70744285Y-124343342D01*
X70744285Y-124343342D02*
X70791904Y-124438580D01*
X70791904Y-124438580D02*
X70839523Y-124486200D01*
X70839523Y-124486200D02*
X70934761Y-124533819D01*
X70934761Y-124533819D02*
X71220475Y-124533819D01*
X71220475Y-124533819D02*
X71315713Y-124486200D01*
X71315713Y-124486200D02*
X71363332Y-124438580D01*
X80398857Y-126946819D02*
X80732190Y-126470628D01*
X80970285Y-126946819D02*
X80970285Y-125946819D01*
X80970285Y-125946819D02*
X80589333Y-125946819D01*
X80589333Y-125946819D02*
X80494095Y-125994438D01*
X80494095Y-125994438D02*
X80446476Y-126042057D01*
X80446476Y-126042057D02*
X80398857Y-126137295D01*
X80398857Y-126137295D02*
X80398857Y-126280152D01*
X80398857Y-126280152D02*
X80446476Y-126375390D01*
X80446476Y-126375390D02*
X80494095Y-126423009D01*
X80494095Y-126423009D02*
X80589333Y-126470628D01*
X80589333Y-126470628D02*
X80970285Y-126470628D01*
X80017904Y-126042057D02*
X79970285Y-125994438D01*
X79970285Y-125994438D02*
X79875047Y-125946819D01*
X79875047Y-125946819D02*
X79636952Y-125946819D01*
X79636952Y-125946819D02*
X79541714Y-125994438D01*
X79541714Y-125994438D02*
X79494095Y-126042057D01*
X79494095Y-126042057D02*
X79446476Y-126137295D01*
X79446476Y-126137295D02*
X79446476Y-126232533D01*
X79446476Y-126232533D02*
X79494095Y-126375390D01*
X79494095Y-126375390D02*
X80065523Y-126946819D01*
X80065523Y-126946819D02*
X79446476Y-126946819D01*
X78827428Y-125946819D02*
X78732190Y-125946819D01*
X78732190Y-125946819D02*
X78636952Y-125994438D01*
X78636952Y-125994438D02*
X78589333Y-126042057D01*
X78589333Y-126042057D02*
X78541714Y-126137295D01*
X78541714Y-126137295D02*
X78494095Y-126327771D01*
X78494095Y-126327771D02*
X78494095Y-126565866D01*
X78494095Y-126565866D02*
X78541714Y-126756342D01*
X78541714Y-126756342D02*
X78589333Y-126851580D01*
X78589333Y-126851580D02*
X78636952Y-126899200D01*
X78636952Y-126899200D02*
X78732190Y-126946819D01*
X78732190Y-126946819D02*
X78827428Y-126946819D01*
X78827428Y-126946819D02*
X78922666Y-126899200D01*
X78922666Y-126899200D02*
X78970285Y-126851580D01*
X78970285Y-126851580D02*
X79017904Y-126756342D01*
X79017904Y-126756342D02*
X79065523Y-126565866D01*
X79065523Y-126565866D02*
X79065523Y-126327771D01*
X79065523Y-126327771D02*
X79017904Y-126137295D01*
X79017904Y-126137295D02*
X78970285Y-126042057D01*
X78970285Y-126042057D02*
X78922666Y-125994438D01*
X78922666Y-125994438D02*
X78827428Y-125946819D01*
X80398857Y-131772819D02*
X80732190Y-131296628D01*
X80970285Y-131772819D02*
X80970285Y-130772819D01*
X80970285Y-130772819D02*
X80589333Y-130772819D01*
X80589333Y-130772819D02*
X80494095Y-130820438D01*
X80494095Y-130820438D02*
X80446476Y-130868057D01*
X80446476Y-130868057D02*
X80398857Y-130963295D01*
X80398857Y-130963295D02*
X80398857Y-131106152D01*
X80398857Y-131106152D02*
X80446476Y-131201390D01*
X80446476Y-131201390D02*
X80494095Y-131249009D01*
X80494095Y-131249009D02*
X80589333Y-131296628D01*
X80589333Y-131296628D02*
X80970285Y-131296628D01*
X80017904Y-130868057D02*
X79970285Y-130820438D01*
X79970285Y-130820438D02*
X79875047Y-130772819D01*
X79875047Y-130772819D02*
X79636952Y-130772819D01*
X79636952Y-130772819D02*
X79541714Y-130820438D01*
X79541714Y-130820438D02*
X79494095Y-130868057D01*
X79494095Y-130868057D02*
X79446476Y-130963295D01*
X79446476Y-130963295D02*
X79446476Y-131058533D01*
X79446476Y-131058533D02*
X79494095Y-131201390D01*
X79494095Y-131201390D02*
X80065523Y-131772819D01*
X80065523Y-131772819D02*
X79446476Y-131772819D01*
X79065523Y-130868057D02*
X79017904Y-130820438D01*
X79017904Y-130820438D02*
X78922666Y-130772819D01*
X78922666Y-130772819D02*
X78684571Y-130772819D01*
X78684571Y-130772819D02*
X78589333Y-130820438D01*
X78589333Y-130820438D02*
X78541714Y-130868057D01*
X78541714Y-130868057D02*
X78494095Y-130963295D01*
X78494095Y-130963295D02*
X78494095Y-131058533D01*
X78494095Y-131058533D02*
X78541714Y-131201390D01*
X78541714Y-131201390D02*
X79113142Y-131772819D01*
X79113142Y-131772819D02*
X78494095Y-131772819D01*
X80398857Y-136471819D02*
X80732190Y-135995628D01*
X80970285Y-136471819D02*
X80970285Y-135471819D01*
X80970285Y-135471819D02*
X80589333Y-135471819D01*
X80589333Y-135471819D02*
X80494095Y-135519438D01*
X80494095Y-135519438D02*
X80446476Y-135567057D01*
X80446476Y-135567057D02*
X80398857Y-135662295D01*
X80398857Y-135662295D02*
X80398857Y-135805152D01*
X80398857Y-135805152D02*
X80446476Y-135900390D01*
X80446476Y-135900390D02*
X80494095Y-135948009D01*
X80494095Y-135948009D02*
X80589333Y-135995628D01*
X80589333Y-135995628D02*
X80970285Y-135995628D01*
X80017904Y-135567057D02*
X79970285Y-135519438D01*
X79970285Y-135519438D02*
X79875047Y-135471819D01*
X79875047Y-135471819D02*
X79636952Y-135471819D01*
X79636952Y-135471819D02*
X79541714Y-135519438D01*
X79541714Y-135519438D02*
X79494095Y-135567057D01*
X79494095Y-135567057D02*
X79446476Y-135662295D01*
X79446476Y-135662295D02*
X79446476Y-135757533D01*
X79446476Y-135757533D02*
X79494095Y-135900390D01*
X79494095Y-135900390D02*
X80065523Y-136471819D01*
X80065523Y-136471819D02*
X79446476Y-136471819D01*
X78589333Y-135805152D02*
X78589333Y-136471819D01*
X78827428Y-135424200D02*
X79065523Y-136138485D01*
X79065523Y-136138485D02*
X78446476Y-136138485D01*
X80398857Y-134058819D02*
X80732190Y-133582628D01*
X80970285Y-134058819D02*
X80970285Y-133058819D01*
X80970285Y-133058819D02*
X80589333Y-133058819D01*
X80589333Y-133058819D02*
X80494095Y-133106438D01*
X80494095Y-133106438D02*
X80446476Y-133154057D01*
X80446476Y-133154057D02*
X80398857Y-133249295D01*
X80398857Y-133249295D02*
X80398857Y-133392152D01*
X80398857Y-133392152D02*
X80446476Y-133487390D01*
X80446476Y-133487390D02*
X80494095Y-133535009D01*
X80494095Y-133535009D02*
X80589333Y-133582628D01*
X80589333Y-133582628D02*
X80970285Y-133582628D01*
X80017904Y-133154057D02*
X79970285Y-133106438D01*
X79970285Y-133106438D02*
X79875047Y-133058819D01*
X79875047Y-133058819D02*
X79636952Y-133058819D01*
X79636952Y-133058819D02*
X79541714Y-133106438D01*
X79541714Y-133106438D02*
X79494095Y-133154057D01*
X79494095Y-133154057D02*
X79446476Y-133249295D01*
X79446476Y-133249295D02*
X79446476Y-133344533D01*
X79446476Y-133344533D02*
X79494095Y-133487390D01*
X79494095Y-133487390D02*
X80065523Y-134058819D01*
X80065523Y-134058819D02*
X79446476Y-134058819D01*
X78494095Y-134058819D02*
X79065523Y-134058819D01*
X78779809Y-134058819D02*
X78779809Y-133058819D01*
X78779809Y-133058819D02*
X78875047Y-133201676D01*
X78875047Y-133201676D02*
X78970285Y-133296914D01*
X78970285Y-133296914D02*
X79065523Y-133344533D01*
X107633355Y-69337140D02*
X107157164Y-69003807D01*
X107633355Y-68765712D02*
X106633355Y-68765712D01*
X106633355Y-68765712D02*
X106633355Y-69146664D01*
X106633355Y-69146664D02*
X106680974Y-69241902D01*
X106680974Y-69241902D02*
X106728593Y-69289521D01*
X106728593Y-69289521D02*
X106823831Y-69337140D01*
X106823831Y-69337140D02*
X106966688Y-69337140D01*
X106966688Y-69337140D02*
X107061926Y-69289521D01*
X107061926Y-69289521D02*
X107109545Y-69241902D01*
X107109545Y-69241902D02*
X107157164Y-69146664D01*
X107157164Y-69146664D02*
X107157164Y-68765712D01*
X107633355Y-70289521D02*
X107633355Y-69718093D01*
X107633355Y-70003807D02*
X106633355Y-70003807D01*
X106633355Y-70003807D02*
X106776212Y-69908569D01*
X106776212Y-69908569D02*
X106871450Y-69813331D01*
X106871450Y-69813331D02*
X106919069Y-69718093D01*
X131406666Y-116814380D02*
X131454285Y-116862000D01*
X131454285Y-116862000D02*
X131597142Y-116909619D01*
X131597142Y-116909619D02*
X131692380Y-116909619D01*
X131692380Y-116909619D02*
X131835237Y-116862000D01*
X131835237Y-116862000D02*
X131930475Y-116766761D01*
X131930475Y-116766761D02*
X131978094Y-116671523D01*
X131978094Y-116671523D02*
X132025713Y-116481047D01*
X132025713Y-116481047D02*
X132025713Y-116338190D01*
X132025713Y-116338190D02*
X131978094Y-116147714D01*
X131978094Y-116147714D02*
X131930475Y-116052476D01*
X131930475Y-116052476D02*
X131835237Y-115957238D01*
X131835237Y-115957238D02*
X131692380Y-115909619D01*
X131692380Y-115909619D02*
X131597142Y-115909619D01*
X131597142Y-115909619D02*
X131454285Y-115957238D01*
X131454285Y-115957238D02*
X131406666Y-116004857D01*
X131073332Y-115909619D02*
X130406666Y-115909619D01*
X130406666Y-115909619D02*
X130835237Y-116909619D01*
X79890857Y-141805819D02*
X80224190Y-141329628D01*
X80462285Y-141805819D02*
X80462285Y-140805819D01*
X80462285Y-140805819D02*
X80081333Y-140805819D01*
X80081333Y-140805819D02*
X79986095Y-140853438D01*
X79986095Y-140853438D02*
X79938476Y-140901057D01*
X79938476Y-140901057D02*
X79890857Y-140996295D01*
X79890857Y-140996295D02*
X79890857Y-141139152D01*
X79890857Y-141139152D02*
X79938476Y-141234390D01*
X79938476Y-141234390D02*
X79986095Y-141282009D01*
X79986095Y-141282009D02*
X80081333Y-141329628D01*
X80081333Y-141329628D02*
X80462285Y-141329628D01*
X78938476Y-141805819D02*
X79509904Y-141805819D01*
X79224190Y-141805819D02*
X79224190Y-140805819D01*
X79224190Y-140805819D02*
X79319428Y-140948676D01*
X79319428Y-140948676D02*
X79414666Y-141043914D01*
X79414666Y-141043914D02*
X79509904Y-141091533D01*
X78033714Y-140805819D02*
X78509904Y-140805819D01*
X78509904Y-140805819D02*
X78557523Y-141282009D01*
X78557523Y-141282009D02*
X78509904Y-141234390D01*
X78509904Y-141234390D02*
X78414666Y-141186771D01*
X78414666Y-141186771D02*
X78176571Y-141186771D01*
X78176571Y-141186771D02*
X78081333Y-141234390D01*
X78081333Y-141234390D02*
X78033714Y-141282009D01*
X78033714Y-141282009D02*
X77986095Y-141377247D01*
X77986095Y-141377247D02*
X77986095Y-141615342D01*
X77986095Y-141615342D02*
X78033714Y-141710580D01*
X78033714Y-141710580D02*
X78081333Y-141758200D01*
X78081333Y-141758200D02*
X78176571Y-141805819D01*
X78176571Y-141805819D02*
X78414666Y-141805819D01*
X78414666Y-141805819D02*
X78509904Y-141758200D01*
X78509904Y-141758200D02*
X78557523Y-141710580D01*
X146775466Y-119413580D02*
X146823085Y-119461200D01*
X146823085Y-119461200D02*
X146965942Y-119508819D01*
X146965942Y-119508819D02*
X147061180Y-119508819D01*
X147061180Y-119508819D02*
X147204037Y-119461200D01*
X147204037Y-119461200D02*
X147299275Y-119365961D01*
X147299275Y-119365961D02*
X147346894Y-119270723D01*
X147346894Y-119270723D02*
X147394513Y-119080247D01*
X147394513Y-119080247D02*
X147394513Y-118937390D01*
X147394513Y-118937390D02*
X147346894Y-118746914D01*
X147346894Y-118746914D02*
X147299275Y-118651676D01*
X147299275Y-118651676D02*
X147204037Y-118556438D01*
X147204037Y-118556438D02*
X147061180Y-118508819D01*
X147061180Y-118508819D02*
X146965942Y-118508819D01*
X146965942Y-118508819D02*
X146823085Y-118556438D01*
X146823085Y-118556438D02*
X146775466Y-118604057D01*
X146204037Y-118937390D02*
X146299275Y-118889771D01*
X146299275Y-118889771D02*
X146346894Y-118842152D01*
X146346894Y-118842152D02*
X146394513Y-118746914D01*
X146394513Y-118746914D02*
X146394513Y-118699295D01*
X146394513Y-118699295D02*
X146346894Y-118604057D01*
X146346894Y-118604057D02*
X146299275Y-118556438D01*
X146299275Y-118556438D02*
X146204037Y-118508819D01*
X146204037Y-118508819D02*
X146013561Y-118508819D01*
X146013561Y-118508819D02*
X145918323Y-118556438D01*
X145918323Y-118556438D02*
X145870704Y-118604057D01*
X145870704Y-118604057D02*
X145823085Y-118699295D01*
X145823085Y-118699295D02*
X145823085Y-118746914D01*
X145823085Y-118746914D02*
X145870704Y-118842152D01*
X145870704Y-118842152D02*
X145918323Y-118889771D01*
X145918323Y-118889771D02*
X146013561Y-118937390D01*
X146013561Y-118937390D02*
X146204037Y-118937390D01*
X146204037Y-118937390D02*
X146299275Y-118985009D01*
X146299275Y-118985009D02*
X146346894Y-119032628D01*
X146346894Y-119032628D02*
X146394513Y-119127866D01*
X146394513Y-119127866D02*
X146394513Y-119318342D01*
X146394513Y-119318342D02*
X146346894Y-119413580D01*
X146346894Y-119413580D02*
X146299275Y-119461200D01*
X146299275Y-119461200D02*
X146204037Y-119508819D01*
X146204037Y-119508819D02*
X146013561Y-119508819D01*
X146013561Y-119508819D02*
X145918323Y-119461200D01*
X145918323Y-119461200D02*
X145870704Y-119413580D01*
X145870704Y-119413580D02*
X145823085Y-119318342D01*
X145823085Y-119318342D02*
X145823085Y-119127866D01*
X145823085Y-119127866D02*
X145870704Y-119032628D01*
X145870704Y-119032628D02*
X145918323Y-118985009D01*
X145918323Y-118985009D02*
X146013561Y-118937390D01*
X136087666Y-75951575D02*
X136135285Y-75999195D01*
X136135285Y-75999195D02*
X136278142Y-76046814D01*
X136278142Y-76046814D02*
X136373380Y-76046814D01*
X136373380Y-76046814D02*
X136516237Y-75999195D01*
X136516237Y-75999195D02*
X136611475Y-75903956D01*
X136611475Y-75903956D02*
X136659094Y-75808718D01*
X136659094Y-75808718D02*
X136706713Y-75618242D01*
X136706713Y-75618242D02*
X136706713Y-75475385D01*
X136706713Y-75475385D02*
X136659094Y-75284909D01*
X136659094Y-75284909D02*
X136611475Y-75189671D01*
X136611475Y-75189671D02*
X136516237Y-75094433D01*
X136516237Y-75094433D02*
X136373380Y-75046814D01*
X136373380Y-75046814D02*
X136278142Y-75046814D01*
X136278142Y-75046814D02*
X136135285Y-75094433D01*
X136135285Y-75094433D02*
X136087666Y-75142052D01*
X135754332Y-75046814D02*
X135135285Y-75046814D01*
X135135285Y-75046814D02*
X135468618Y-75427766D01*
X135468618Y-75427766D02*
X135325761Y-75427766D01*
X135325761Y-75427766D02*
X135230523Y-75475385D01*
X135230523Y-75475385D02*
X135182904Y-75523004D01*
X135182904Y-75523004D02*
X135135285Y-75618242D01*
X135135285Y-75618242D02*
X135135285Y-75856337D01*
X135135285Y-75856337D02*
X135182904Y-75951575D01*
X135182904Y-75951575D02*
X135230523Y-75999195D01*
X135230523Y-75999195D02*
X135325761Y-76046814D01*
X135325761Y-76046814D02*
X135611475Y-76046814D01*
X135611475Y-76046814D02*
X135706713Y-75999195D01*
X135706713Y-75999195D02*
X135754332Y-75951575D01*
X69000666Y-135159819D02*
X69333999Y-134683628D01*
X69572094Y-135159819D02*
X69572094Y-134159819D01*
X69572094Y-134159819D02*
X69191142Y-134159819D01*
X69191142Y-134159819D02*
X69095904Y-134207438D01*
X69095904Y-134207438D02*
X69048285Y-134255057D01*
X69048285Y-134255057D02*
X69000666Y-134350295D01*
X69000666Y-134350295D02*
X69000666Y-134493152D01*
X69000666Y-134493152D02*
X69048285Y-134588390D01*
X69048285Y-134588390D02*
X69095904Y-134636009D01*
X69095904Y-134636009D02*
X69191142Y-134683628D01*
X69191142Y-134683628D02*
X69572094Y-134683628D01*
X68429237Y-134588390D02*
X68524475Y-134540771D01*
X68524475Y-134540771D02*
X68572094Y-134493152D01*
X68572094Y-134493152D02*
X68619713Y-134397914D01*
X68619713Y-134397914D02*
X68619713Y-134350295D01*
X68619713Y-134350295D02*
X68572094Y-134255057D01*
X68572094Y-134255057D02*
X68524475Y-134207438D01*
X68524475Y-134207438D02*
X68429237Y-134159819D01*
X68429237Y-134159819D02*
X68238761Y-134159819D01*
X68238761Y-134159819D02*
X68143523Y-134207438D01*
X68143523Y-134207438D02*
X68095904Y-134255057D01*
X68095904Y-134255057D02*
X68048285Y-134350295D01*
X68048285Y-134350295D02*
X68048285Y-134397914D01*
X68048285Y-134397914D02*
X68095904Y-134493152D01*
X68095904Y-134493152D02*
X68143523Y-134540771D01*
X68143523Y-134540771D02*
X68238761Y-134588390D01*
X68238761Y-134588390D02*
X68429237Y-134588390D01*
X68429237Y-134588390D02*
X68524475Y-134636009D01*
X68524475Y-134636009D02*
X68572094Y-134683628D01*
X68572094Y-134683628D02*
X68619713Y-134778866D01*
X68619713Y-134778866D02*
X68619713Y-134969342D01*
X68619713Y-134969342D02*
X68572094Y-135064580D01*
X68572094Y-135064580D02*
X68524475Y-135112200D01*
X68524475Y-135112200D02*
X68429237Y-135159819D01*
X68429237Y-135159819D02*
X68238761Y-135159819D01*
X68238761Y-135159819D02*
X68143523Y-135112200D01*
X68143523Y-135112200D02*
X68095904Y-135064580D01*
X68095904Y-135064580D02*
X68048285Y-134969342D01*
X68048285Y-134969342D02*
X68048285Y-134778866D01*
X68048285Y-134778866D02*
X68095904Y-134683628D01*
X68095904Y-134683628D02*
X68143523Y-134636009D01*
X68143523Y-134636009D02*
X68238761Y-134588390D01*
X102943819Y-69386142D02*
X102467628Y-69052809D01*
X102943819Y-68814714D02*
X101943819Y-68814714D01*
X101943819Y-68814714D02*
X101943819Y-69195666D01*
X101943819Y-69195666D02*
X101991438Y-69290904D01*
X101991438Y-69290904D02*
X102039057Y-69338523D01*
X102039057Y-69338523D02*
X102134295Y-69386142D01*
X102134295Y-69386142D02*
X102277152Y-69386142D01*
X102277152Y-69386142D02*
X102372390Y-69338523D01*
X102372390Y-69338523D02*
X102420009Y-69290904D01*
X102420009Y-69290904D02*
X102467628Y-69195666D01*
X102467628Y-69195666D02*
X102467628Y-68814714D01*
X102943819Y-70338523D02*
X102943819Y-69767095D01*
X102943819Y-70052809D02*
X101943819Y-70052809D01*
X101943819Y-70052809D02*
X102086676Y-69957571D01*
X102086676Y-69957571D02*
X102181914Y-69862333D01*
X102181914Y-69862333D02*
X102229533Y-69767095D01*
X101943819Y-70957571D02*
X101943819Y-71052809D01*
X101943819Y-71052809D02*
X101991438Y-71148047D01*
X101991438Y-71148047D02*
X102039057Y-71195666D01*
X102039057Y-71195666D02*
X102134295Y-71243285D01*
X102134295Y-71243285D02*
X102324771Y-71290904D01*
X102324771Y-71290904D02*
X102562866Y-71290904D01*
X102562866Y-71290904D02*
X102753342Y-71243285D01*
X102753342Y-71243285D02*
X102848580Y-71195666D01*
X102848580Y-71195666D02*
X102896200Y-71148047D01*
X102896200Y-71148047D02*
X102943819Y-71052809D01*
X102943819Y-71052809D02*
X102943819Y-70957571D01*
X102943819Y-70957571D02*
X102896200Y-70862333D01*
X102896200Y-70862333D02*
X102848580Y-70814714D01*
X102848580Y-70814714D02*
X102753342Y-70767095D01*
X102753342Y-70767095D02*
X102562866Y-70719476D01*
X102562866Y-70719476D02*
X102324771Y-70719476D01*
X102324771Y-70719476D02*
X102134295Y-70767095D01*
X102134295Y-70767095D02*
X102039057Y-70814714D01*
X102039057Y-70814714D02*
X101991438Y-70862333D01*
X101991438Y-70862333D02*
X101943819Y-70957571D01*
X98498819Y-69302333D02*
X98022628Y-68969000D01*
X98498819Y-68730905D02*
X97498819Y-68730905D01*
X97498819Y-68730905D02*
X97498819Y-69111857D01*
X97498819Y-69111857D02*
X97546438Y-69207095D01*
X97546438Y-69207095D02*
X97594057Y-69254714D01*
X97594057Y-69254714D02*
X97689295Y-69302333D01*
X97689295Y-69302333D02*
X97832152Y-69302333D01*
X97832152Y-69302333D02*
X97927390Y-69254714D01*
X97927390Y-69254714D02*
X97975009Y-69207095D01*
X97975009Y-69207095D02*
X98022628Y-69111857D01*
X98022628Y-69111857D02*
X98022628Y-68730905D01*
X98498819Y-69778524D02*
X98498819Y-69969000D01*
X98498819Y-69969000D02*
X98451200Y-70064238D01*
X98451200Y-70064238D02*
X98403580Y-70111857D01*
X98403580Y-70111857D02*
X98260723Y-70207095D01*
X98260723Y-70207095D02*
X98070247Y-70254714D01*
X98070247Y-70254714D02*
X97689295Y-70254714D01*
X97689295Y-70254714D02*
X97594057Y-70207095D01*
X97594057Y-70207095D02*
X97546438Y-70159476D01*
X97546438Y-70159476D02*
X97498819Y-70064238D01*
X97498819Y-70064238D02*
X97498819Y-69873762D01*
X97498819Y-69873762D02*
X97546438Y-69778524D01*
X97546438Y-69778524D02*
X97594057Y-69730905D01*
X97594057Y-69730905D02*
X97689295Y-69683286D01*
X97689295Y-69683286D02*
X97927390Y-69683286D01*
X97927390Y-69683286D02*
X98022628Y-69730905D01*
X98022628Y-69730905D02*
X98070247Y-69778524D01*
X98070247Y-69778524D02*
X98117866Y-69873762D01*
X98117866Y-69873762D02*
X98117866Y-70064238D01*
X98117866Y-70064238D02*
X98070247Y-70159476D01*
X98070247Y-70159476D02*
X98022628Y-70207095D01*
X98022628Y-70207095D02*
X97927390Y-70254714D01*
X124366580Y-121755133D02*
X124414200Y-121707514D01*
X124414200Y-121707514D02*
X124461819Y-121564657D01*
X124461819Y-121564657D02*
X124461819Y-121469419D01*
X124461819Y-121469419D02*
X124414200Y-121326562D01*
X124414200Y-121326562D02*
X124318961Y-121231324D01*
X124318961Y-121231324D02*
X124223723Y-121183705D01*
X124223723Y-121183705D02*
X124033247Y-121136086D01*
X124033247Y-121136086D02*
X123890390Y-121136086D01*
X123890390Y-121136086D02*
X123699914Y-121183705D01*
X123699914Y-121183705D02*
X123604676Y-121231324D01*
X123604676Y-121231324D02*
X123509438Y-121326562D01*
X123509438Y-121326562D02*
X123461819Y-121469419D01*
X123461819Y-121469419D02*
X123461819Y-121564657D01*
X123461819Y-121564657D02*
X123509438Y-121707514D01*
X123509438Y-121707514D02*
X123557057Y-121755133D01*
X123461819Y-122612276D02*
X123461819Y-122421800D01*
X123461819Y-122421800D02*
X123509438Y-122326562D01*
X123509438Y-122326562D02*
X123557057Y-122278943D01*
X123557057Y-122278943D02*
X123699914Y-122183705D01*
X123699914Y-122183705D02*
X123890390Y-122136086D01*
X123890390Y-122136086D02*
X124271342Y-122136086D01*
X124271342Y-122136086D02*
X124366580Y-122183705D01*
X124366580Y-122183705D02*
X124414200Y-122231324D01*
X124414200Y-122231324D02*
X124461819Y-122326562D01*
X124461819Y-122326562D02*
X124461819Y-122517038D01*
X124461819Y-122517038D02*
X124414200Y-122612276D01*
X124414200Y-122612276D02*
X124366580Y-122659895D01*
X124366580Y-122659895D02*
X124271342Y-122707514D01*
X124271342Y-122707514D02*
X124033247Y-122707514D01*
X124033247Y-122707514D02*
X123938009Y-122659895D01*
X123938009Y-122659895D02*
X123890390Y-122612276D01*
X123890390Y-122612276D02*
X123842771Y-122517038D01*
X123842771Y-122517038D02*
X123842771Y-122326562D01*
X123842771Y-122326562D02*
X123890390Y-122231324D01*
X123890390Y-122231324D02*
X123938009Y-122183705D01*
X123938009Y-122183705D02*
X124033247Y-122136086D01*
D11*
%TO.C,R16*%
X76012064Y-129688000D02*
X74557936Y-129688000D01*
X76012064Y-127868000D02*
X74557936Y-127868000D01*
%TO.C,R14*%
X103862047Y-66674871D02*
X103862047Y-65220743D01*
X105682047Y-66674871D02*
X105682047Y-65220743D01*
%TO.C,R17*%
X75885064Y-139086000D02*
X74430936Y-139086000D01*
X75885064Y-137266000D02*
X74430936Y-137266000D01*
%TO.C,R12*%
X94721000Y-66614064D02*
X94721000Y-65159936D01*
X96541000Y-66614064D02*
X96541000Y-65159936D01*
%TO.C,JP29*%
X88866800Y-66964995D02*
X88866800Y-67564995D01*
X89516800Y-68264995D02*
X92316800Y-68264995D01*
X92316800Y-66264995D02*
X89516800Y-66264995D01*
X92966800Y-67564995D02*
X92966800Y-66964995D01*
X88866800Y-66964995D02*
G75*
G02*
X89566800Y-66264995I699999J1D01*
G01*
X89566800Y-68264995D02*
G75*
G02*
X88866800Y-67564995I-1J699999D01*
G01*
X92266800Y-66264995D02*
G75*
G02*
X92966800Y-66964995I0J-700000D01*
G01*
X92966800Y-67564995D02*
G75*
G02*
X92266800Y-68264995I-700000J0D01*
G01*
%TO.C,R11*%
X101115096Y-65221560D02*
X101115096Y-66675688D01*
X99295096Y-65221560D02*
X99295096Y-66675688D01*
%TO.C,C10*%
X88447200Y-143355852D02*
X88447200Y-141933348D01*
X90267200Y-143355852D02*
X90267200Y-141933348D01*
%TO.C,JP13*%
X76817000Y-93137000D02*
X76817000Y-92537000D01*
X77517000Y-91837000D02*
X78917000Y-91837000D01*
X78917000Y-93837000D02*
X77517000Y-93837000D01*
X79617000Y-92537000D02*
X79617000Y-93137000D01*
X76817000Y-92537000D02*
G75*
G02*
X77517000Y-91837000I700000J0D01*
G01*
X77517000Y-93837000D02*
G75*
G02*
X76817000Y-93137000I0J700000D01*
G01*
X78917000Y-91837000D02*
G75*
G02*
X79617000Y-92537000I1J-699999D01*
G01*
X79617000Y-93137000D02*
G75*
G02*
X78917000Y-93837000I-699999J-1D01*
G01*
%TO.C,C2*%
X86974000Y-136702748D02*
X86974000Y-138125252D01*
X88794000Y-136702748D02*
X88794000Y-138125252D01*
%TO.C,R13*%
X67217936Y-138409000D02*
X68672064Y-138409000D01*
X67217936Y-140229000D02*
X68672064Y-140229000D01*
%TO.C,JP9*%
X71580000Y-124379000D02*
X71580000Y-123779000D01*
X72230000Y-123079000D02*
X75030000Y-123079000D01*
X75030000Y-125079000D02*
X72230000Y-125079000D01*
X75680000Y-123779000D02*
X75680000Y-124379000D01*
X71580000Y-123779000D02*
G75*
G02*
X72280000Y-123079000I700000J0D01*
G01*
X72280000Y-125079000D02*
G75*
G02*
X71580000Y-124379000I0J700000D01*
G01*
X74980000Y-123079000D02*
G75*
G02*
X75680000Y-123779000I1J-699999D01*
G01*
X75680000Y-124379000D02*
G75*
G02*
X74980000Y-125079000I-699999J-1D01*
G01*
%TO.C,JP12*%
X69451000Y-93137000D02*
X69451000Y-92537000D01*
X70151000Y-91837000D02*
X71551000Y-91837000D01*
X71551000Y-93837000D02*
X70151000Y-93837000D01*
X72251000Y-92537000D02*
X72251000Y-93137000D01*
X69451000Y-92537000D02*
G75*
G02*
X70151000Y-91837000I700000J0D01*
G01*
X70151000Y-93837000D02*
G75*
G02*
X69451000Y-93137000I0J700000D01*
G01*
X71551000Y-91837000D02*
G75*
G02*
X72251000Y-92537000I1J-699999D01*
G01*
X72251000Y-93137000D02*
G75*
G02*
X71551000Y-93837000I-699999J-1D01*
G01*
%TO.C,R20*%
X74583936Y-125582000D02*
X76038064Y-125582000D01*
X74583936Y-127402000D02*
X76038064Y-127402000D01*
%TO.C,R22*%
X74532536Y-130255600D02*
X75986664Y-130255600D01*
X74532536Y-132075600D02*
X75986664Y-132075600D01*
%TO.C,R24*%
X74430936Y-134980000D02*
X75885064Y-134980000D01*
X74430936Y-136800000D02*
X75885064Y-136800000D01*
%TO.C,R21*%
X74507736Y-132592400D02*
X75961864Y-132592400D01*
X74507736Y-134412400D02*
X75961864Y-134412400D01*
%TO.C,R1*%
X107961536Y-65220743D02*
X107961536Y-66674871D01*
X106141536Y-65220743D02*
X106141536Y-66674871D01*
%TO.C,C7*%
X130528748Y-113694800D02*
X131951252Y-113694800D01*
X130528748Y-115514800D02*
X131951252Y-115514800D01*
%TO.C,R15*%
X74202936Y-140441000D02*
X75657064Y-140441000D01*
X74202936Y-142261000D02*
X75657064Y-142261000D01*
%TO.C,C8*%
X147320052Y-119994000D02*
X145897548Y-119994000D01*
X147320052Y-121814000D02*
X145897548Y-121814000D01*
%TO.C,JP15*%
X76817000Y-110917000D02*
X76817000Y-110317000D01*
X77517000Y-109617000D02*
X78917000Y-109617000D01*
X78917000Y-111617000D02*
X77517000Y-111617000D01*
X79617000Y-110317000D02*
X79617000Y-110917000D01*
X76817000Y-110317000D02*
G75*
G02*
X77517000Y-109617000I700000J0D01*
G01*
X77517000Y-111617000D02*
G75*
G02*
X76817000Y-110917000I0J700000D01*
G01*
X78917000Y-109617000D02*
G75*
G02*
X79617000Y-110317000I1J-699999D01*
G01*
X79617000Y-110917000D02*
G75*
G02*
X78917000Y-111617000I-699999J-1D01*
G01*
%TO.C,C3*%
X135209748Y-72831995D02*
X136632252Y-72831995D01*
X135209748Y-74651995D02*
X136632252Y-74651995D01*
%TO.C,R8*%
X68106936Y-135615000D02*
X69561064Y-135615000D01*
X68106936Y-137435000D02*
X69561064Y-137435000D01*
%TO.C,R10*%
X101579000Y-65211936D02*
X101579000Y-66666064D01*
X103399000Y-65211936D02*
X103399000Y-66666064D01*
%TO.C,JP14*%
X69227000Y-111077000D02*
X69227000Y-110477000D01*
X69927000Y-109777000D02*
X71327000Y-109777000D01*
X71327000Y-111777000D02*
X69927000Y-111777000D01*
X72027000Y-110477000D02*
X72027000Y-111077000D01*
X69227000Y-110477000D02*
G75*
G02*
X69927000Y-109777000I700000J0D01*
G01*
X69927000Y-111777000D02*
G75*
G02*
X69227000Y-111077000I0J700000D01*
G01*
X71327000Y-109777000D02*
G75*
G02*
X72027000Y-110477000I1J-699999D01*
G01*
X72027000Y-111077000D02*
G75*
G02*
X71327000Y-111777000I-699999J-1D01*
G01*
%TO.C,R9*%
X97007000Y-65211936D02*
X97007000Y-66666064D01*
X98827000Y-65211936D02*
X98827000Y-66666064D01*
%TO.C,JP11*%
X76817000Y-75865000D02*
X76817000Y-75265000D01*
X77517000Y-74565000D02*
X78917000Y-74565000D01*
X78917000Y-76565000D02*
X77517000Y-76565000D01*
X79617000Y-75265000D02*
X79617000Y-75865000D01*
X76817000Y-75265000D02*
G75*
G02*
X77517000Y-74565000I700000J0D01*
G01*
X77517000Y-76565000D02*
G75*
G02*
X76817000Y-75865000I0J700000D01*
G01*
X78917000Y-74565000D02*
G75*
G02*
X79617000Y-75265000I1J-699999D01*
G01*
X79617000Y-75865000D02*
G75*
G02*
X78917000Y-76565000I-699999J-1D01*
G01*
%TO.C,C6*%
X124947000Y-121210548D02*
X124947000Y-122633052D01*
X126767000Y-121210548D02*
X126767000Y-122633052D01*
%TO.C,JP10*%
X69197000Y-75865000D02*
X69197000Y-75265000D01*
X69897000Y-74565000D02*
X71297000Y-74565000D01*
X71297000Y-76565000D02*
X69897000Y-76565000D01*
X71997000Y-75265000D02*
X71997000Y-75865000D01*
X69197000Y-75265000D02*
G75*
G02*
X69897000Y-74565000I700000J0D01*
G01*
X69897000Y-76565000D02*
G75*
G02*
X69197000Y-75865000I0J700000D01*
G01*
X71297000Y-74565000D02*
G75*
G02*
X71997000Y-75265000I1J-699999D01*
G01*
X71997000Y-75865000D02*
G75*
G02*
X71297000Y-76565000I-699999J-1D01*
G01*
%TD*%
M02*
