M48
; DRILL file {KiCad 8.0.7-8.0.7-0~ubuntu22.04.1} date 2024-12-26T12:21:13+0100
; FORMAT={-:-/ absolute / inch / decimal}
; #@! TF.CreationDate,2024-12-26T12:21:13+01:00
; #@! TF.GenerationSoftware,Kicad,Pcbnew,8.0.7-8.0.7-0~ubuntu22.04.1
; #@! TF.FileFunction,MixedPlating,1,2
FMAT,2
INCH
; #@! TA.AperFunction,Plated,PTH,ViaDrill
T1C0.0157
; #@! TA.AperFunction,Plated,PTH,ComponentDrill
T2C0.0256
; #@! TA.AperFunction,Plated,PTH,ComponentDrill
T3C0.0315
; #@! TA.AperFunction,Plated,PTH,ComponentDrill
T4C0.0394
; #@! TA.AperFunction,NonPlated,NPTH,ComponentDrill
T5C0.1260
%
G90
G05
T1
X2.195Y-3.6095
X2.285Y-4.715
X2.3Y-4.3
X2.335Y-3.6095
X2.425Y-4.855
X2.525Y-5.65
X2.565Y-2.27
X2.58Y-2.435
X2.605Y-4.3
X2.614Y-5.485
X2.645Y-4.72
X2.649Y-5.375
X2.66Y-4.865
X2.74Y-5.67
X2.785Y-5.045
X2.889Y-5.565
X2.925Y-3.6095
X2.93Y-4.3
X2.94Y-2.27
X2.95Y-2.455
X3.02Y-5.35
X3.023Y-5.256
X3.024Y-5.164
X3.025Y-5.07
X3.026Y-4.98
X3.095Y-4.925
X3.22Y-5.3
X3.255Y-4.825
X3.27Y-5.575
X3.3Y-5.07
X3.305Y-5.2
X3.335Y-5.015
X3.35Y-2.645
X3.355Y-4.77
X3.36Y-4.045
X3.36Y-4.685
X3.365Y-4.285
X3.385Y-3.725
X3.41Y-4.61
X3.415Y-3.96
X3.43Y-2.365
X3.46Y-5.3519
X3.47Y-3.025
X3.505Y-4.625
X3.505Y-5.105
X3.515Y-3.64
X3.52Y-4.265
X3.53Y-3.125
X3.565Y-4.8
X3.568Y-2.0212
X3.57Y-4.99
X3.57Y-5.16
X3.59Y-4.9
X3.608Y-2.0212
X3.61Y-3.695
X3.61Y-3.86
X3.61Y-4.55
X3.615Y-4.305
X3.615Y-5.3
X3.6306Y-2.6482
X3.642Y-2.0212
X3.6455Y-4.805
X3.6649Y-3.075
X3.6649Y-3.175
X3.665Y-4.615
X3.665Y-3.225
X3.715Y-3.86
X3.72Y-3.695
X3.75Y-3.36
X3.765Y-2.655
X3.7738Y-3.12
X3.775Y-2.785
X3.775Y-2.98
X3.815Y-4.025
X3.825Y-2.88
X3.835Y-3.86
X3.855Y-2.657
X3.865Y-4.535
X3.87Y-3.69
X3.875Y-2.785
X3.875Y-3.36
X3.88Y-4.94
X3.885Y-4.725
X3.925Y-2.9799
X3.9451Y-2.6574
X3.975Y-2.785
X3.985Y-5.365
X4.005Y-3.15
X4.025Y-2.9
X4.025Y-4.815
X4.03Y-4.395
X4.035Y-2.657
X4.04Y-3.34
X4.045Y-3.695
X4.08Y-3.98
X4.085Y-2.88
X4.1151Y-4.88
X4.1151Y-5.08
X4.12Y-3.365
X4.125Y-2.6
X4.14Y-3.07
X4.1417Y-2.84
X4.1494Y-5.264
X4.2655Y-5.264
X4.2762Y-4.645
X4.325Y-5.335
X4.3422Y-3.345
X4.3602Y-3.7697
X4.3602Y-3.8858
X4.395Y-3.27
X4.455Y-3.355
X4.455Y-3.41
X4.465Y-2.84
X4.47Y-3.8858
X4.485Y-4.59
X4.495Y-4.36
X4.535Y-2.88
X4.545Y-3.295
X4.605Y-3.8858
X4.6185Y-3.0713
X4.66Y-2.84
X4.705Y-3.8858
X4.7597Y-2.7027
X4.785Y-2.63
X4.81Y-3.8858
X4.855Y-2.84
X4.955Y-4.8581
X5.0Y-3.935
X5.095Y-3.935
X5.0989Y-4.6954
X5.1175Y-2.8725
X5.125Y-4.955
X5.155Y-4.92
X5.2Y-3.945
X5.2097Y-2.9753
X5.21Y-4.777
X5.25Y-4.72
X5.2513Y-4.9267
X5.2946Y-2.9033
X5.31Y-3.94
X5.4108Y-2.9033
X5.42Y-3.935
X5.49Y-2.81
X5.535Y-3.41
X5.535Y-3.8858
X5.545Y-3.47
X5.57Y-3.365
X5.6109Y-3.33
X5.615Y-3.635
X5.625Y-3.425
X5.64Y-4.24
X5.645Y-4.29
X5.655Y-2.825
X5.655Y-3.285
X5.665Y-4.33
X5.705Y-5.46
X5.7276Y-4.335
X5.745Y-4.38
X5.7704Y-4.426
X5.79Y-4.465
X5.8021Y-4.51
X5.82Y-4.56
X5.825Y-2.68
X5.825Y-2.965
X5.83Y-4.605
X5.835Y-4.65
X5.835Y-5.55
T2
X3.52Y-3.36
X3.625Y-3.36
X4.455Y-4.765
X4.455Y-4.84
X4.455Y-4.915
X4.455Y-4.99
X4.455Y-5.065
X4.455Y-5.14
T3
X2.1548Y-2.7728
X2.1548Y-3.0728
X2.155Y-3.455
X2.155Y-3.755
X2.155Y-4.155
X2.155Y-4.455
X2.2548Y-2.7728
X2.2548Y-3.0728
X2.255Y-3.455
X2.255Y-3.755
X2.255Y-4.155
X2.255Y-4.455
X2.3548Y-2.7728
X2.3548Y-3.0728
X2.355Y-3.455
X2.355Y-3.755
X2.355Y-4.155
X2.355Y-4.455
X2.4548Y-2.7728
X2.4548Y-3.0728
X2.455Y-3.455
X2.455Y-3.755
X2.455Y-4.155
X2.455Y-4.455
X2.5548Y-2.7728
X2.5548Y-3.0728
X2.555Y-3.455
X2.555Y-3.755
X2.555Y-4.155
X2.555Y-4.455
X2.6548Y-2.7728
X2.6548Y-3.0728
X2.655Y-3.455
X2.655Y-3.755
X2.655Y-4.155
X2.655Y-4.455
X2.7548Y-2.7728
X2.7548Y-3.0728
X2.755Y-3.455
X2.755Y-3.755
X2.755Y-4.155
X2.755Y-4.455
X2.8548Y-2.7728
X2.8548Y-3.0728
X2.855Y-3.455
X2.855Y-3.755
X2.855Y-4.155
X2.855Y-4.455
X2.9548Y-2.7728
X2.9548Y-3.0728
X2.955Y-3.455
X2.955Y-3.755
X2.955Y-4.155
X2.955Y-4.455
X3.0548Y-2.7728
X3.0548Y-3.0728
X3.055Y-3.455
X3.055Y-3.755
X3.055Y-4.155
X3.055Y-4.455
X3.1548Y-2.7728
X3.1548Y-3.0728
X3.155Y-3.455
X3.155Y-3.755
X3.155Y-4.155
X3.155Y-4.455
X3.2548Y-2.7728
X3.2548Y-3.0728
X3.255Y-3.455
X3.255Y-3.755
X3.255Y-4.155
X3.255Y-4.455
X3.5134Y-3.5285
X3.5134Y-4.1285
X3.6134Y-3.5285
X3.6134Y-4.1285
X3.655Y-5.07
X3.7134Y-3.5285
X3.7134Y-4.1285
X3.7198Y-4.3012
X3.8134Y-3.5285
X3.8134Y-4.1285
X3.8189Y-4.3012
X3.85Y-5.07
X3.85Y-5.19
X3.9134Y-3.5285
X3.9134Y-4.1285
X3.9173Y-4.3012
X4.0134Y-3.5285
X4.0134Y-4.1285
X4.1134Y-3.5285
X4.1134Y-4.1285
X4.21Y-4.305
X4.2134Y-3.5285
X4.2134Y-4.1285
X4.3134Y-3.5285
X4.3134Y-4.1285
X4.4134Y-3.5285
X4.4134Y-4.1285
X4.5134Y-3.5285
X4.5134Y-4.1285
X4.6134Y-3.5285
X4.6134Y-4.1285
X4.7134Y-3.5285
X4.7134Y-4.1285
X4.8134Y-3.5285
X4.8134Y-4.1285
X4.9134Y-3.5285
X4.9134Y-4.1285
X5.0134Y-3.5285
X5.0134Y-4.1285
X5.1134Y-3.5285
X5.1134Y-4.1285
X5.2134Y-3.5285
X5.2134Y-4.1285
X5.3134Y-3.5285
X5.3134Y-4.1285
X5.4134Y-3.5285
X5.4134Y-4.1285
T4
X2.0866Y-5.0365
X2.0866Y-5.1365
X2.0866Y-5.2365
X2.0866Y-5.3365
X2.0866Y-5.4365
X2.0866Y-5.5365
X2.155Y-2.655
X2.155Y-3.19
X2.155Y-3.335
X2.155Y-3.875
X2.155Y-4.035
X2.155Y-4.575
X2.1866Y-5.0365
X2.1866Y-5.1365
X2.1866Y-5.2365
X2.1866Y-5.3365
X2.1866Y-5.4365
X2.1866Y-5.5365
X2.255Y-2.655
X2.255Y-3.19
X2.255Y-3.335
X2.255Y-3.875
X2.255Y-4.035
X2.255Y-4.575
X2.295Y-2.3785
X2.295Y-2.4785
X2.325Y-5.0365
X2.325Y-5.1365
X2.325Y-5.2365
X2.325Y-5.3365
X2.325Y-5.4365
X2.325Y-5.5365
X2.3362Y-2.0832
X2.3362Y-5.7832
X2.355Y-2.655
X2.355Y-3.19
X2.355Y-3.335
X2.355Y-3.875
X2.355Y-4.035
X2.355Y-4.575
X2.395Y-2.3785
X2.395Y-2.4785
X2.425Y-5.0365
X2.425Y-5.1365
X2.425Y-5.2365
X2.425Y-5.3365
X2.425Y-5.4365
X2.425Y-5.5365
X2.4362Y-2.0832
X2.4362Y-5.7832
X2.455Y-2.655
X2.455Y-3.19
X2.455Y-3.335
X2.455Y-3.875
X2.455Y-4.035
X2.455Y-4.575
X2.5362Y-2.0832
X2.5362Y-5.7832
X2.555Y-2.655
X2.555Y-3.19
X2.555Y-3.335
X2.555Y-3.875
X2.555Y-4.035
X2.555Y-4.575
X2.6362Y-2.0832
X2.6362Y-5.7832
X2.655Y-2.655
X2.655Y-3.19
X2.655Y-3.335
X2.655Y-3.875
X2.655Y-4.035
X2.655Y-4.575
X2.7362Y-2.0832
X2.7362Y-5.7832
X2.755Y-2.655
X2.755Y-3.19
X2.755Y-3.335
X2.755Y-3.875
X2.755Y-4.035
X2.755Y-4.575
X2.8362Y-2.0832
X2.8362Y-5.7832
X2.855Y-2.655
X2.855Y-3.19
X2.855Y-3.335
X2.855Y-3.875
X2.855Y-4.035
X2.855Y-4.575
X2.9362Y-2.0832
X2.9362Y-5.7832
X2.955Y-2.655
X2.955Y-3.19
X2.955Y-3.335
X2.955Y-3.875
X2.955Y-4.035
X2.955Y-4.575
X3.0362Y-2.0832
X3.0362Y-5.7832
X3.055Y-2.655
X3.055Y-3.19
X3.055Y-3.335
X3.055Y-3.875
X3.055Y-4.035
X3.055Y-4.575
X3.1362Y-2.0832
X3.1362Y-5.7832
X3.155Y-2.655
X3.155Y-3.19
X3.155Y-3.335
X3.155Y-3.875
X3.155Y-4.035
X3.155Y-4.575
X3.165Y-2.39
X3.165Y-2.49
X3.2362Y-2.0832
X3.2362Y-5.7832
X3.255Y-2.655
X3.255Y-3.19
X3.255Y-3.335
X3.255Y-3.875
X3.255Y-4.035
X3.255Y-4.575
X3.265Y-2.39
X3.265Y-2.49
X3.3362Y-2.0832
X3.3362Y-5.7832
X3.4362Y-2.0832
X3.4362Y-5.7832
X3.6365Y-2.0866
X3.6365Y-2.1866
X3.6365Y-2.3228
X3.6365Y-2.4228
X3.6365Y-5.4512
X3.6365Y-5.5512
X3.6365Y-5.6874
X3.6365Y-5.7874
X3.7365Y-2.0866
X3.7365Y-2.1866
X3.7365Y-2.3228
X3.7365Y-2.4228
X3.7365Y-5.4512
X3.7365Y-5.5512
X3.7365Y-5.6874
X3.7365Y-5.7874
X3.8365Y-2.0866
X3.8365Y-2.1866
X3.8365Y-2.3228
X3.8365Y-2.4228
X3.8365Y-5.4512
X3.8365Y-5.5512
X3.8365Y-5.6874
X3.8365Y-5.7874
X3.9365Y-2.0866
X3.9365Y-2.1866
X3.9365Y-2.3228
X3.9365Y-2.4228
X3.9365Y-5.4512
X3.9365Y-5.5512
X3.9365Y-5.6874
X3.9365Y-5.7874
X4.0365Y-2.0866
X4.0365Y-2.1866
X4.0365Y-2.3228
X4.0365Y-2.4228
X4.0365Y-5.4512
X4.0365Y-5.5512
X4.0365Y-5.6874
X4.0365Y-5.7874
X4.1365Y-2.0866
X4.1365Y-2.1866
X4.1365Y-2.3228
X4.1365Y-2.4228
X4.1365Y-5.4512
X4.1365Y-5.5512
X4.1365Y-5.6874
X4.1365Y-5.7874
X4.2365Y-2.0866
X4.2365Y-2.1866
X4.2365Y-2.3228
X4.2365Y-2.4228
X4.2365Y-5.4512
X4.2365Y-5.5512
X4.2365Y-5.6874
X4.2365Y-5.7874
X4.3365Y-2.0866
X4.3365Y-2.1866
X4.3365Y-2.3228
X4.3365Y-2.4228
X4.3365Y-5.4512
X4.3365Y-5.5512
X4.3365Y-5.6874
X4.3365Y-5.7874
X4.4365Y-2.0866
X4.4365Y-2.1866
X4.4365Y-2.3228
X4.4365Y-2.4228
X4.4365Y-5.4512
X4.4365Y-5.5512
X4.4365Y-5.6874
X4.4365Y-5.7874
X4.5365Y-2.0866
X4.5365Y-2.1866
X4.5365Y-2.3228
X4.5365Y-2.4228
X4.5365Y-5.4512
X4.5365Y-5.5512
X4.5365Y-5.6874
X4.5365Y-5.7874
X4.6365Y-2.0866
X4.6365Y-2.1866
X4.6365Y-2.3228
X4.6365Y-2.4228
X4.6365Y-5.4512
X4.6365Y-5.5512
X4.6365Y-5.6874
X4.6365Y-5.7874
X4.68Y-4.37
X4.68Y-4.47
X4.68Y-4.57
X4.68Y-4.67
X4.68Y-4.77
X4.68Y-4.87
X4.68Y-4.97
X4.68Y-5.07
X4.68Y-5.17
X4.68Y-5.27
X4.7365Y-2.0866
X4.7365Y-2.1866
X4.7365Y-2.3228
X4.7365Y-2.4228
X4.7365Y-5.4512
X4.7365Y-5.5512
X4.7365Y-5.6874
X4.7365Y-5.7874
X4.78Y-4.37
X4.78Y-5.27
X4.8365Y-2.0866
X4.8365Y-2.1866
X4.8365Y-2.3228
X4.8365Y-2.4228
X4.8365Y-5.4512
X4.8365Y-5.5512
X4.8365Y-5.6874
X4.8365Y-5.7874
X4.88Y-4.37
X4.88Y-5.27
X4.9365Y-2.0866
X4.9365Y-2.1866
X4.9365Y-2.3228
X4.9365Y-2.4228
X4.9365Y-5.4512
X4.9365Y-5.5512
X4.9365Y-5.6874
X4.9365Y-5.7874
X4.98Y-4.37
X4.98Y-5.27
X5.0365Y-2.0866
X5.0365Y-2.1866
X5.0365Y-2.3228
X5.0365Y-2.4228
X5.0365Y-5.4512
X5.0365Y-5.5512
X5.0365Y-5.6874
X5.0365Y-5.7874
X5.08Y-4.37
X5.08Y-5.27
X5.1365Y-2.0866
X5.1365Y-2.1866
X5.1365Y-2.3228
X5.1365Y-2.4228
X5.1365Y-5.4512
X5.1365Y-5.5512
X5.1365Y-5.6874
X5.1365Y-5.7874
X5.18Y-4.37
X5.18Y-5.27
X5.2365Y-2.0866
X5.2365Y-2.1866
X5.2365Y-2.3228
X5.2365Y-2.4228
X5.2365Y-5.4512
X5.2365Y-5.5512
X5.2365Y-5.6874
X5.2365Y-5.7874
X5.28Y-4.37
X5.28Y-5.27
X5.3365Y-2.0866
X5.3365Y-2.1866
X5.3365Y-2.3228
X5.3365Y-2.4228
X5.3365Y-5.4512
X5.3365Y-5.5512
X5.3365Y-5.6874
X5.3365Y-5.7874
X5.38Y-4.37
X5.38Y-5.27
X5.4365Y-2.0866
X5.4365Y-2.1866
X5.4365Y-2.3228
X5.4365Y-2.4228
X5.4365Y-5.4512
X5.4365Y-5.5512
X5.4365Y-5.6874
X5.4365Y-5.7874
X5.48Y-4.37
X5.48Y-4.47
X5.48Y-4.57
X5.48Y-4.67
X5.48Y-4.77
X5.48Y-4.87
X5.48Y-4.97
X5.48Y-5.07
X5.48Y-5.17
X5.48Y-5.27
X5.5365Y-2.0866
X5.5365Y-2.1866
X5.5365Y-2.3228
X5.5365Y-2.4228
X5.5365Y-5.4512
X5.5365Y-5.5512
X5.5365Y-5.6874
X5.5365Y-5.7874
X5.6874Y-4.9016
X5.6874Y-5.0016
X5.6874Y-5.1016
X5.6874Y-5.2016
X5.6874Y-5.3016
X5.7874Y-4.9016
X5.7874Y-5.0016
X5.7874Y-5.1016
X5.7874Y-5.2016
X5.7874Y-5.3016
T5
X2.126Y-2.126
X2.126Y-5.748
X5.748Y-2.126
X5.748Y-5.748
M30
