%TF.GenerationSoftware,KiCad,Pcbnew,8.0.7-8.0.7-0~ubuntu22.04.1*%
%TF.CreationDate,2024-12-26T12:21:12+01:00*%
%TF.ProjectId,schematics_v10,73636865-6d61-4746-9963-735f7631302e,rev?*%
%TF.SameCoordinates,Original*%
%TF.FileFunction,Paste,Top*%
%TF.FilePolarity,Positive*%
%FSLAX46Y46*%
G04 Gerber Fmt 4.6, Leading zero omitted, Abs format (unit mm)*
G04 Created by KiCad (PCBNEW 8.0.7-8.0.7-0~ubuntu22.04.1) date 2024-12-26 12:21:12*
%MOMM*%
%LPD*%
G01*
G04 APERTURE LIST*
G04 Aperture macros list*
%AMRoundRect*
0 Rectangle with rounded corners*
0 $1 Rounding radius*
0 $2 $3 $4 $5 $6 $7 $8 $9 X,Y pos of 4 corners*
0 Add a 4 corners polygon primitive as box body*
4,1,4,$2,$3,$4,$5,$6,$7,$8,$9,$2,$3,0*
0 Add four circle primitives for the rounded corners*
1,1,$1+$1,$2,$3*
1,1,$1+$1,$4,$5*
1,1,$1+$1,$6,$7*
1,1,$1+$1,$8,$9*
0 Add four rect primitives between the rounded corners*
20,1,$1+$1,$2,$3,$4,$5,0*
20,1,$1+$1,$4,$5,$6,$7,0*
20,1,$1+$1,$6,$7,$8,$9,0*
20,1,$1+$1,$8,$9,$2,$3,0*%
G04 Aperture macros list end*
%ADD10RoundRect,0.150000X-0.825000X-0.150000X0.825000X-0.150000X0.825000X0.150000X-0.825000X0.150000X0*%
%ADD11RoundRect,0.250000X-0.650000X0.325000X-0.650000X-0.325000X0.650000X-0.325000X0.650000X0.325000X0*%
%ADD12RoundRect,0.150000X0.150000X-0.837500X0.150000X0.837500X-0.150000X0.837500X-0.150000X-0.837500X0*%
%ADD13RoundRect,0.250000X0.325000X0.650000X-0.325000X0.650000X-0.325000X-0.650000X0.325000X-0.650000X0*%
%ADD14RoundRect,0.200000X-0.750000X-0.200000X0.750000X-0.200000X0.750000X0.200000X-0.750000X0.200000X0*%
%ADD15RoundRect,0.150000X0.150000X-0.825000X0.150000X0.825000X-0.150000X0.825000X-0.150000X-0.825000X0*%
%ADD16RoundRect,0.250000X0.400000X0.625000X-0.400000X0.625000X-0.400000X-0.625000X0.400000X-0.625000X0*%
%ADD17R,0.550000X1.500000*%
%ADD18R,1.500000X0.550000*%
%ADD19RoundRect,0.150000X-0.150000X0.837500X-0.150000X-0.837500X0.150000X-0.837500X0.150000X0.837500X0*%
G04 APERTURE END LIST*
D10*
%TO.C,U11*%
X104524000Y-121412000D03*
X104524000Y-122682000D03*
X104524000Y-123952000D03*
X104524000Y-125222000D03*
X104524000Y-126492000D03*
X104524000Y-127762000D03*
X104524000Y-129032000D03*
X109474000Y-129032000D03*
X109474000Y-127762000D03*
X109474000Y-126492000D03*
X109474000Y-125222000D03*
X109474000Y-123952000D03*
X109474000Y-122682000D03*
X109474000Y-121412000D03*
%TD*%
D11*
%TO.C,C5*%
X110750000Y-95750000D03*
X110750000Y-98700000D03*
%TD*%
D12*
%TO.C,U3*%
X134053172Y-75556218D03*
X135323172Y-75556218D03*
X136593172Y-75556218D03*
X137863172Y-75556218D03*
X139133172Y-75556218D03*
X140403172Y-75556218D03*
X141673172Y-75556218D03*
X142943172Y-75556218D03*
X144213172Y-75556218D03*
X145483172Y-75556218D03*
X145483172Y-68631218D03*
X144213172Y-68631218D03*
X142943172Y-68631218D03*
X141673172Y-68631218D03*
X140403172Y-68631218D03*
X139133172Y-68631218D03*
X137863172Y-68631218D03*
X136593172Y-68631218D03*
X135323172Y-68631218D03*
X134053172Y-68631218D03*
%TD*%
D13*
%TO.C,C4*%
X108343800Y-133705600D03*
X105393800Y-133705600D03*
%TD*%
D10*
%TO.C,U9*%
X88138000Y-75565000D03*
X88138000Y-76835000D03*
X88138000Y-78105000D03*
X88138000Y-79375000D03*
X88138000Y-80645000D03*
X88138000Y-81915000D03*
X88138000Y-83185000D03*
X93088000Y-83185000D03*
X93088000Y-81915000D03*
X93088000Y-80645000D03*
X93088000Y-79375000D03*
X93088000Y-78105000D03*
X93088000Y-76835000D03*
X93088000Y-75565000D03*
%TD*%
D14*
%TO.C,D8*%
X72795000Y-136464000D03*
X72795000Y-138364000D03*
X75795000Y-137414000D03*
%TD*%
%TO.C,D10*%
X75589000Y-140147000D03*
X75589000Y-142047000D03*
X78589000Y-141097000D03*
%TD*%
D15*
%TO.C,U8*%
X95885000Y-75689000D03*
X97155000Y-75689000D03*
X98425000Y-75689000D03*
X99695000Y-75689000D03*
X100965000Y-75689000D03*
X102235000Y-75689000D03*
X103505000Y-75689000D03*
X103505000Y-70739000D03*
X102235000Y-70739000D03*
X100965000Y-70739000D03*
X99695000Y-70739000D03*
X98425000Y-70739000D03*
X97155000Y-70739000D03*
X95885000Y-70739000D03*
%TD*%
D16*
%TO.C,R2*%
X120477800Y-78237795D03*
X117377800Y-78237795D03*
%TD*%
D17*
%TO.C,U1*%
X125261000Y-128163800D03*
X126061000Y-128163800D03*
X126861000Y-128163800D03*
X127661000Y-128163800D03*
X128461000Y-128163800D03*
X129261000Y-128163800D03*
X130061000Y-128163800D03*
X130861000Y-128163800D03*
X131661000Y-128163800D03*
X132461000Y-128163800D03*
X133261000Y-128163800D03*
D18*
X134961000Y-126463800D03*
X134961000Y-125663800D03*
X134961000Y-124863800D03*
X134961000Y-124063800D03*
X134961000Y-123263800D03*
X134961000Y-122463800D03*
X134961000Y-121663800D03*
X134961000Y-120863800D03*
X134961000Y-120063800D03*
X134961000Y-119263800D03*
X134961000Y-118463800D03*
D17*
X133261000Y-116763800D03*
X132461000Y-116763800D03*
X131661000Y-116763800D03*
X130861000Y-116763800D03*
X130061000Y-116763800D03*
X129261000Y-116763800D03*
X128461000Y-116763800D03*
X127661000Y-116763800D03*
X126861000Y-116763800D03*
X126061000Y-116763800D03*
X125261000Y-116763800D03*
D18*
X123561000Y-118463800D03*
X123561000Y-119263800D03*
X123561000Y-120063800D03*
X123561000Y-120863800D03*
X123561000Y-121663800D03*
X123561000Y-122463800D03*
X123561000Y-123263800D03*
X123561000Y-124063800D03*
X123561000Y-124863800D03*
X123561000Y-125663800D03*
X123561000Y-126463800D03*
%TD*%
D13*
%TO.C,C1*%
X92363600Y-64547195D03*
X89413600Y-64547195D03*
%TD*%
D19*
%TO.C,U5*%
X119168772Y-68663618D03*
X117898772Y-68663618D03*
X116628772Y-68663618D03*
X115358772Y-68663618D03*
X114088772Y-68663618D03*
X112818772Y-68663618D03*
X111548772Y-68663618D03*
X110278772Y-68663618D03*
X109008772Y-68663618D03*
X107738772Y-68663618D03*
X106468772Y-68663618D03*
X105198772Y-68663618D03*
X105198772Y-75588618D03*
X106468772Y-75588618D03*
X107738772Y-75588618D03*
X109008772Y-75588618D03*
X110278772Y-75588618D03*
X111548772Y-75588618D03*
X112818772Y-75588618D03*
X114088772Y-75588618D03*
X115358772Y-75588618D03*
X116628772Y-75588618D03*
X117898772Y-75588618D03*
X119168772Y-75588618D03*
%TD*%
D12*
%TO.C,U2*%
X120895972Y-75572418D03*
X122165972Y-75572418D03*
X123435972Y-75572418D03*
X124705972Y-75572418D03*
X125975972Y-75572418D03*
X127245972Y-75572418D03*
X128515972Y-75572418D03*
X129785972Y-75572418D03*
X131055972Y-75572418D03*
X132325972Y-75572418D03*
X132325972Y-68647418D03*
X131055972Y-68647418D03*
X129785972Y-68647418D03*
X128515972Y-68647418D03*
X127245972Y-68647418D03*
X125975972Y-68647418D03*
X124705972Y-68647418D03*
X123435972Y-68647418D03*
X122165972Y-68647418D03*
X120895972Y-68647418D03*
%TD*%
M02*
