%TF.GenerationSoftware,KiCad,Pcbnew,8.0.7-8.0.7-0~ubuntu22.04.1*%
%TF.CreationDate,2024-12-26T12:21:12+01:00*%
%TF.ProjectId,schematics_v10,73636865-6d61-4746-9963-735f7631302e,rev?*%
%TF.SameCoordinates,Original*%
%TF.FileFunction,Soldermask,Top*%
%TF.FilePolarity,Negative*%
%FSLAX46Y46*%
G04 Gerber Fmt 4.6, Leading zero omitted, Abs format (unit mm)*
G04 Created by KiCad (PCBNEW 8.0.7-8.0.7-0~ubuntu22.04.1) date 2024-12-26 12:21:12*
%MOMM*%
%LPD*%
G01*
G04 APERTURE LIST*
G04 Aperture macros list*
%AMRoundRect*
0 Rectangle with rounded corners*
0 $1 Rounding radius*
0 $2 $3 $4 $5 $6 $7 $8 $9 X,Y pos of 4 corners*
0 Add a 4 corners polygon primitive as box body*
4,1,4,$2,$3,$4,$5,$6,$7,$8,$9,$2,$3,0*
0 Add four circle primitives for the rounded corners*
1,1,$1+$1,$2,$3*
1,1,$1+$1,$4,$5*
1,1,$1+$1,$6,$7*
1,1,$1+$1,$8,$9*
0 Add four rect primitives between the rounded corners*
20,1,$1+$1,$2,$3,$4,$5,0*
20,1,$1+$1,$4,$5,$6,$7,0*
20,1,$1+$1,$6,$7,$8,$9,0*
20,1,$1+$1,$8,$9,$2,$3,0*%
%AMFreePoly0*
4,1,19,0.550000,-0.750000,0.000000,-0.750000,0.000000,-0.744911,-0.071157,-0.744911,-0.207708,-0.704816,-0.327430,-0.627875,-0.420627,-0.520320,-0.479746,-0.390866,-0.500000,-0.250000,-0.500000,0.250000,-0.479746,0.390866,-0.420627,0.520320,-0.327430,0.627875,-0.207708,0.704816,-0.071157,0.744911,0.000000,0.744911,0.000000,0.750000,0.550000,0.750000,0.550000,-0.750000,0.550000,-0.750000,
$1*%
%AMFreePoly1*
4,1,19,0.000000,0.744911,0.071157,0.744911,0.207708,0.704816,0.327430,0.627875,0.420627,0.520320,0.479746,0.390866,0.500000,0.250000,0.500000,-0.250000,0.479746,-0.390866,0.420627,-0.520320,0.327430,-0.627875,0.207708,-0.704816,0.071157,-0.744911,0.000000,-0.744911,0.000000,-0.750000,-0.550000,-0.750000,-0.550000,0.750000,0.000000,0.750000,0.000000,0.744911,0.000000,0.744911,
$1*%
G04 Aperture macros list end*
%ADD10R,1.350000X1.350000*%
%ADD11R,1.000000X1.000000*%
%ADD12RoundRect,0.150000X-0.825000X-0.150000X0.825000X-0.150000X0.825000X0.150000X-0.825000X0.150000X0*%
%ADD13FreePoly0,0.000000*%
%ADD14R,1.000000X1.500000*%
%ADD15FreePoly1,0.000000*%
%ADD16FreePoly0,180.000000*%
%ADD17FreePoly1,180.000000*%
%ADD18RoundRect,0.250000X-0.650000X0.325000X-0.650000X-0.325000X0.650000X-0.325000X0.650000X0.325000X0*%
%ADD19R,1.600000X1.600000*%
%ADD20O,1.600000X1.600000*%
%ADD21R,1.700000X1.700000*%
%ADD22O,1.700000X1.700000*%
%ADD23RoundRect,0.150000X0.150000X-0.837500X0.150000X0.837500X-0.150000X0.837500X-0.150000X-0.837500X0*%
%ADD24RoundRect,0.250000X0.325000X0.650000X-0.325000X0.650000X-0.325000X-0.650000X0.325000X-0.650000X0*%
%ADD25C,3.200000*%
%ADD26RoundRect,0.200000X-0.750000X-0.200000X0.750000X-0.200000X0.750000X0.200000X-0.750000X0.200000X0*%
%ADD27RoundRect,0.150000X0.150000X-0.825000X0.150000X0.825000X-0.150000X0.825000X-0.150000X-0.825000X0*%
%ADD28RoundRect,0.250000X0.400000X0.625000X-0.400000X0.625000X-0.400000X-0.625000X0.400000X-0.625000X0*%
%ADD29R,0.550000X1.500000*%
%ADD30R,1.500000X0.550000*%
%ADD31RoundRect,0.150000X-0.150000X0.837500X-0.150000X-0.837500X0.150000X-0.837500X0.150000X0.837500X0*%
%ADD32R,1.600000X2.400000*%
%ADD33O,1.600000X2.400000*%
G04 APERTURE END LIST*
D10*
%TO.C,J30*%
X97790000Y-128778000D03*
%TD*%
%TO.C,J29*%
X97790000Y-131826000D03*
%TD*%
%TO.C,J28*%
X92837000Y-128778000D03*
%TD*%
D11*
%TO.C,J27*%
X113157000Y-126746000D03*
%TD*%
%TO.C,J19*%
X113157000Y-121031000D03*
%TD*%
%TO.C,J18*%
X113157000Y-130556000D03*
%TD*%
%TO.C,J17*%
X113157000Y-128651000D03*
%TD*%
%TO.C,J16*%
X113157000Y-124841000D03*
%TD*%
%TO.C,J9*%
X113157000Y-122936000D03*
%TD*%
D12*
%TO.C,U11*%
X104524000Y-121412000D03*
X104524000Y-122682000D03*
X104524000Y-123952000D03*
X104524000Y-125222000D03*
X104524000Y-126492000D03*
X104524000Y-127762000D03*
X104524000Y-129032000D03*
X109474000Y-129032000D03*
X109474000Y-127762000D03*
X109474000Y-126492000D03*
X109474000Y-125222000D03*
X109474000Y-123952000D03*
X109474000Y-122682000D03*
X109474000Y-121412000D03*
%TD*%
D13*
%TO.C,JP17*%
X106015000Y-117983000D03*
D14*
X107315000Y-117983000D03*
D15*
X108615000Y-117983000D03*
%TD*%
D16*
%TO.C,JP16*%
X98455000Y-79248000D03*
D14*
X97155000Y-79248000D03*
D17*
X95855000Y-79248000D03*
%TD*%
D10*
%TO.C,J15*%
X106934000Y-109347000D03*
%TD*%
%TO.C,J13*%
X94484097Y-109250000D03*
%TD*%
%TO.C,J11*%
X99500000Y-109250000D03*
%TD*%
%TO.C,J10*%
X97000000Y-109250000D03*
%TD*%
D14*
%TO.C,JP8*%
X117450600Y-80777795D03*
X118750600Y-80777795D03*
X120050600Y-80777795D03*
%TD*%
D18*
%TO.C,C5*%
X110750000Y-95750000D03*
X110750000Y-98700000D03*
%TD*%
D19*
%TO.C,J39*%
X54737000Y-113157000D03*
D20*
X57277000Y-113157000D03*
X59817000Y-113157000D03*
X62357000Y-113157000D03*
X64897000Y-113157000D03*
X67437000Y-113157000D03*
X69977000Y-113157000D03*
X72517000Y-113157000D03*
X75057000Y-113157000D03*
X77597000Y-113157000D03*
X80137000Y-113157000D03*
X82677000Y-113157000D03*
X82677000Y-105537000D03*
X80137000Y-105537000D03*
X77597000Y-105537000D03*
X75057000Y-105537000D03*
X72517000Y-105537000D03*
X69977000Y-105537000D03*
X67437000Y-105537000D03*
X64897000Y-105537000D03*
X62357000Y-105537000D03*
X59817000Y-105537000D03*
X57277000Y-105537000D03*
X54737000Y-105537000D03*
%TD*%
D21*
%TO.C,J8*%
X118872000Y-133858000D03*
D22*
X121412000Y-133858000D03*
X123952000Y-133858000D03*
X126492000Y-133858000D03*
X129032000Y-133858000D03*
X131572000Y-133858000D03*
X134112000Y-133858000D03*
X136652000Y-133858000D03*
X139192000Y-133858000D03*
%TD*%
D21*
%TO.C,J36*%
X61595000Y-140627000D03*
D22*
X59055000Y-140627000D03*
X61595000Y-138087000D03*
X59055000Y-138087000D03*
X61595000Y-135547000D03*
X59055000Y-135547000D03*
X61595000Y-133007000D03*
X59055000Y-133007000D03*
X61595000Y-130467000D03*
X59055000Y-130467000D03*
X61595000Y-127927000D03*
X59055000Y-127927000D03*
%TD*%
D21*
%TO.C,J1*%
X92367000Y-53000000D03*
D22*
X92367000Y-55540000D03*
X94907000Y-53000000D03*
X94907000Y-55540000D03*
X97447000Y-53000000D03*
X97447000Y-55540000D03*
X99987000Y-53000000D03*
X99987000Y-55540000D03*
X102527000Y-53000000D03*
X102527000Y-55540000D03*
X105067000Y-53000000D03*
X105067000Y-55540000D03*
X107607000Y-53000000D03*
X107607000Y-55540000D03*
X110147000Y-53000000D03*
X110147000Y-55540000D03*
X112687000Y-53000000D03*
X112687000Y-55540000D03*
X115227000Y-53000000D03*
X115227000Y-55540000D03*
X117767000Y-53000000D03*
X117767000Y-55540000D03*
X120307000Y-53000000D03*
X120307000Y-55540000D03*
X122847000Y-53000000D03*
X122847000Y-55540000D03*
X125387000Y-53000000D03*
X125387000Y-55540000D03*
X127927000Y-53000000D03*
X127927000Y-55540000D03*
X130467000Y-53000000D03*
X130467000Y-55540000D03*
X133007000Y-53000000D03*
X133007000Y-55540000D03*
X135547000Y-53000000D03*
X135547000Y-55540000D03*
X138087000Y-53000000D03*
X138087000Y-55540000D03*
X140627000Y-53000000D03*
X140627000Y-55540000D03*
%TD*%
D11*
%TO.C,J14*%
X89408000Y-85344000D03*
%TD*%
D23*
%TO.C,U3*%
X134053172Y-75556218D03*
X135323172Y-75556218D03*
X136593172Y-75556218D03*
X137863172Y-75556218D03*
X139133172Y-75556218D03*
X140403172Y-75556218D03*
X141673172Y-75556218D03*
X142943172Y-75556218D03*
X144213172Y-75556218D03*
X145483172Y-75556218D03*
X145483172Y-68631218D03*
X144213172Y-68631218D03*
X142943172Y-68631218D03*
X141673172Y-68631218D03*
X140403172Y-68631218D03*
X139133172Y-68631218D03*
X137863172Y-68631218D03*
X136593172Y-68631218D03*
X135323172Y-68631218D03*
X134053172Y-68631218D03*
%TD*%
D21*
%TO.C,J5*%
X118872000Y-110998000D03*
D22*
X121412000Y-110998000D03*
X123952000Y-110998000D03*
X126492000Y-110998000D03*
X129032000Y-110998000D03*
X131572000Y-110998000D03*
X134112000Y-110998000D03*
X136652000Y-110998000D03*
X139192000Y-110998000D03*
%TD*%
D21*
%TO.C,J4*%
X140627000Y-141000000D03*
D22*
X140627000Y-138460000D03*
X138087000Y-141000000D03*
X138087000Y-138460000D03*
X135547000Y-141000000D03*
X135547000Y-138460000D03*
X133007000Y-141000000D03*
X133007000Y-138460000D03*
X130467000Y-141000000D03*
X130467000Y-138460000D03*
X127927000Y-141000000D03*
X127927000Y-138460000D03*
X125387000Y-141000000D03*
X125387000Y-138460000D03*
X122847000Y-141000000D03*
X122847000Y-138460000D03*
X120307000Y-141000000D03*
X120307000Y-138460000D03*
X117767000Y-141000000D03*
X117767000Y-138460000D03*
X115227000Y-141000000D03*
X115227000Y-138460000D03*
X112687000Y-141000000D03*
X112687000Y-138460000D03*
X110147000Y-141000000D03*
X110147000Y-138460000D03*
X107607000Y-141000000D03*
X107607000Y-138460000D03*
X105067000Y-141000000D03*
X105067000Y-138460000D03*
X102527000Y-141000000D03*
X102527000Y-138460000D03*
X99987000Y-141000000D03*
X99987000Y-138460000D03*
X97447000Y-141000000D03*
X97447000Y-138460000D03*
X94907000Y-141000000D03*
X94907000Y-138460000D03*
X92367000Y-141000000D03*
X92367000Y-138460000D03*
%TD*%
D19*
%TO.C,J25*%
X54737000Y-95377000D03*
D20*
X57277000Y-95377000D03*
X59817000Y-95377000D03*
X62357000Y-95377000D03*
X64897000Y-95377000D03*
X67437000Y-95377000D03*
X69977000Y-95377000D03*
X72517000Y-95377000D03*
X75057000Y-95377000D03*
X77597000Y-95377000D03*
X80137000Y-95377000D03*
X82677000Y-95377000D03*
X82677000Y-87757000D03*
X80137000Y-87757000D03*
X77597000Y-87757000D03*
X75057000Y-87757000D03*
X72517000Y-87757000D03*
X69977000Y-87757000D03*
X67437000Y-87757000D03*
X64897000Y-87757000D03*
X62357000Y-87757000D03*
X59817000Y-87757000D03*
X57277000Y-87757000D03*
X54737000Y-87757000D03*
%TD*%
D24*
%TO.C,C4*%
X108343800Y-133705600D03*
X105393800Y-133705600D03*
%TD*%
D19*
%TO.C,J24*%
X54732000Y-78049000D03*
D20*
X57272000Y-78049000D03*
X59812000Y-78049000D03*
X62352000Y-78049000D03*
X64892000Y-78049000D03*
X67432000Y-78049000D03*
X69972000Y-78049000D03*
X72512000Y-78049000D03*
X75052000Y-78049000D03*
X77592000Y-78049000D03*
X80132000Y-78049000D03*
X82672000Y-78049000D03*
X82672000Y-70429000D03*
X80132000Y-70429000D03*
X77592000Y-70429000D03*
X75052000Y-70429000D03*
X72512000Y-70429000D03*
X69972000Y-70429000D03*
X67432000Y-70429000D03*
X64892000Y-70429000D03*
X62352000Y-70429000D03*
X59812000Y-70429000D03*
X57272000Y-70429000D03*
X54732000Y-70429000D03*
%TD*%
D21*
%TO.C,J37*%
X55540000Y-140627000D03*
D22*
X53000000Y-140627000D03*
X55540000Y-138087000D03*
X53000000Y-138087000D03*
X55540000Y-135547000D03*
X53000000Y-135547000D03*
X55540000Y-133007000D03*
X53000000Y-133007000D03*
X55540000Y-130467000D03*
X53000000Y-130467000D03*
X55540000Y-127927000D03*
X53000000Y-127927000D03*
%TD*%
D21*
%TO.C,J40*%
X54737000Y-102489000D03*
D22*
X57277000Y-102489000D03*
X59817000Y-102489000D03*
X62357000Y-102489000D03*
X64897000Y-102489000D03*
X67437000Y-102489000D03*
X69977000Y-102489000D03*
X72517000Y-102489000D03*
X75057000Y-102489000D03*
X77597000Y-102489000D03*
X80137000Y-102489000D03*
X82677000Y-102489000D03*
%TD*%
D21*
%TO.C,J23*%
X54737000Y-98425000D03*
D22*
X57277000Y-98425000D03*
X59817000Y-98425000D03*
X62357000Y-98425000D03*
X64897000Y-98425000D03*
X67437000Y-98425000D03*
X69977000Y-98425000D03*
X72517000Y-98425000D03*
X75057000Y-98425000D03*
X77597000Y-98425000D03*
X80137000Y-98425000D03*
X82677000Y-98425000D03*
%TD*%
D21*
%TO.C,J41*%
X60833000Y-60414000D03*
D22*
X58293000Y-60414000D03*
X60833000Y-62954000D03*
X58293000Y-62954000D03*
%TD*%
D21*
%TO.C,J20*%
X59340000Y-146893995D03*
D22*
X61880000Y-146893995D03*
X64420000Y-146893995D03*
X66960000Y-146893995D03*
X69500000Y-146893995D03*
X72040000Y-146893995D03*
X74580000Y-146893995D03*
X77120000Y-146893995D03*
X79660000Y-146893995D03*
X82200000Y-146893995D03*
X84740000Y-146893995D03*
X87280000Y-146893995D03*
%TD*%
D21*
%TO.C,J2*%
X140627000Y-147000000D03*
D22*
X140627000Y-144460000D03*
X138087000Y-147000000D03*
X138087000Y-144460000D03*
X135547000Y-147000000D03*
X135547000Y-144460000D03*
X133007000Y-147000000D03*
X133007000Y-144460000D03*
X130467000Y-147000000D03*
X130467000Y-144460000D03*
X127927000Y-147000000D03*
X127927000Y-144460000D03*
X125387000Y-147000000D03*
X125387000Y-144460000D03*
X122847000Y-147000000D03*
X122847000Y-144460000D03*
X120307000Y-147000000D03*
X120307000Y-144460000D03*
X117767000Y-147000000D03*
X117767000Y-144460000D03*
X115227000Y-147000000D03*
X115227000Y-144460000D03*
X112687000Y-147000000D03*
X112687000Y-144460000D03*
X110147000Y-147000000D03*
X110147000Y-144460000D03*
X107607000Y-147000000D03*
X107607000Y-144460000D03*
X105067000Y-147000000D03*
X105067000Y-144460000D03*
X102527000Y-147000000D03*
X102527000Y-144460000D03*
X99987000Y-147000000D03*
X99987000Y-144460000D03*
X97447000Y-147000000D03*
X97447000Y-144460000D03*
X94907000Y-147000000D03*
X94907000Y-144460000D03*
X92367000Y-147000000D03*
X92367000Y-144460000D03*
%TD*%
D21*
%TO.C,J6*%
X139192000Y-131318000D03*
D22*
X139192000Y-128778000D03*
X139192000Y-126238000D03*
X139192000Y-123698000D03*
X139192000Y-121158000D03*
X139192000Y-118618000D03*
X139192000Y-116078000D03*
X139192000Y-113538000D03*
%TD*%
D21*
%TO.C,J26*%
X54737000Y-67437000D03*
D22*
X57277000Y-67437000D03*
X59817000Y-67437000D03*
X62357000Y-67437000D03*
X64897000Y-67437000D03*
X67437000Y-67437000D03*
X69977000Y-67437000D03*
X72517000Y-67437000D03*
X75057000Y-67437000D03*
X77597000Y-67437000D03*
X80137000Y-67437000D03*
X82677000Y-67437000D03*
%TD*%
D25*
%TO.C,H3*%
X146000000Y-54000000D03*
%TD*%
D21*
%TO.C,J38*%
X54737000Y-116205000D03*
D22*
X57277000Y-116205000D03*
X59817000Y-116205000D03*
X62357000Y-116205000D03*
X64897000Y-116205000D03*
X67437000Y-116205000D03*
X69977000Y-116205000D03*
X72517000Y-116205000D03*
X75057000Y-116205000D03*
X77597000Y-116205000D03*
X80137000Y-116205000D03*
X82677000Y-116205000D03*
%TD*%
D12*
%TO.C,U9*%
X88138000Y-75565000D03*
X88138000Y-76835000D03*
X88138000Y-78105000D03*
X88138000Y-79375000D03*
X88138000Y-80645000D03*
X88138000Y-81915000D03*
X88138000Y-83185000D03*
X93088000Y-83185000D03*
X93088000Y-81915000D03*
X93088000Y-80645000D03*
X93088000Y-79375000D03*
X93088000Y-78105000D03*
X93088000Y-76835000D03*
X93088000Y-75565000D03*
%TD*%
D11*
%TO.C,J12*%
X92075000Y-85344000D03*
%TD*%
D21*
%TO.C,J7*%
X118872000Y-113538000D03*
D22*
X118872000Y-116078000D03*
X118872000Y-118618000D03*
X118872000Y-121158000D03*
X118872000Y-123698000D03*
X118872000Y-126238000D03*
X118872000Y-128778000D03*
X118872000Y-131318000D03*
%TD*%
D26*
%TO.C,D8*%
X72795000Y-136464000D03*
X72795000Y-138364000D03*
X75795000Y-137414000D03*
%TD*%
D21*
%TO.C,J3*%
X92367000Y-59000000D03*
D22*
X92367000Y-61540000D03*
X94907000Y-59000000D03*
X94907000Y-61540000D03*
X97447000Y-59000000D03*
X97447000Y-61540000D03*
X99987000Y-59000000D03*
X99987000Y-61540000D03*
X102527000Y-59000000D03*
X102527000Y-61540000D03*
X105067000Y-59000000D03*
X105067000Y-61540000D03*
X107607000Y-59000000D03*
X107607000Y-61540000D03*
X110147000Y-59000000D03*
X110147000Y-61540000D03*
X112687000Y-59000000D03*
X112687000Y-61540000D03*
X115227000Y-59000000D03*
X115227000Y-61540000D03*
X117767000Y-59000000D03*
X117767000Y-61540000D03*
X120307000Y-59000000D03*
X120307000Y-61540000D03*
X122847000Y-59000000D03*
X122847000Y-61540000D03*
X125387000Y-59000000D03*
X125387000Y-61540000D03*
X127927000Y-59000000D03*
X127927000Y-61540000D03*
X130467000Y-59000000D03*
X130467000Y-61540000D03*
X133007000Y-59000000D03*
X133007000Y-61540000D03*
X135547000Y-59000000D03*
X135547000Y-61540000D03*
X138087000Y-59000000D03*
X138087000Y-61540000D03*
X140627000Y-59000000D03*
X140627000Y-61540000D03*
%TD*%
D21*
%TO.C,J22*%
X54737000Y-81026000D03*
D22*
X57277000Y-81026000D03*
X59817000Y-81026000D03*
X62357000Y-81026000D03*
X64897000Y-81026000D03*
X67437000Y-81026000D03*
X69977000Y-81026000D03*
X72517000Y-81026000D03*
X75057000Y-81026000D03*
X77597000Y-81026000D03*
X80137000Y-81026000D03*
X82677000Y-81026000D03*
%TD*%
D26*
%TO.C,D10*%
X75589000Y-140147000D03*
X75589000Y-142047000D03*
X78589000Y-141097000D03*
%TD*%
D27*
%TO.C,U8*%
X95885000Y-75689000D03*
X97155000Y-75689000D03*
X98425000Y-75689000D03*
X99695000Y-75689000D03*
X100965000Y-75689000D03*
X102235000Y-75689000D03*
X103505000Y-75689000D03*
X103505000Y-70739000D03*
X102235000Y-70739000D03*
X100965000Y-70739000D03*
X99695000Y-70739000D03*
X98425000Y-70739000D03*
X97155000Y-70739000D03*
X95885000Y-70739000D03*
%TD*%
D28*
%TO.C,R2*%
X120477800Y-78237795D03*
X117377800Y-78237795D03*
%TD*%
D25*
%TO.C,H1*%
X54000000Y-54000000D03*
%TD*%
D29*
%TO.C,U1*%
X125261000Y-128163800D03*
X126061000Y-128163800D03*
X126861000Y-128163800D03*
X127661000Y-128163800D03*
X128461000Y-128163800D03*
X129261000Y-128163800D03*
X130061000Y-128163800D03*
X130861000Y-128163800D03*
X131661000Y-128163800D03*
X132461000Y-128163800D03*
X133261000Y-128163800D03*
D30*
X134961000Y-126463800D03*
X134961000Y-125663800D03*
X134961000Y-124863800D03*
X134961000Y-124063800D03*
X134961000Y-123263800D03*
X134961000Y-122463800D03*
X134961000Y-121663800D03*
X134961000Y-120863800D03*
X134961000Y-120063800D03*
X134961000Y-119263800D03*
X134961000Y-118463800D03*
D29*
X133261000Y-116763800D03*
X132461000Y-116763800D03*
X131661000Y-116763800D03*
X130861000Y-116763800D03*
X130061000Y-116763800D03*
X129261000Y-116763800D03*
X128461000Y-116763800D03*
X127661000Y-116763800D03*
X126861000Y-116763800D03*
X126061000Y-116763800D03*
X125261000Y-116763800D03*
D30*
X123561000Y-118463800D03*
X123561000Y-119263800D03*
X123561000Y-120063800D03*
X123561000Y-120863800D03*
X123561000Y-121663800D03*
X123561000Y-122463800D03*
X123561000Y-123263800D03*
X123561000Y-124063800D03*
X123561000Y-124863800D03*
X123561000Y-125663800D03*
X123561000Y-126463800D03*
%TD*%
D21*
%TO.C,J42*%
X82931000Y-60706000D03*
D22*
X80391000Y-60706000D03*
X82931000Y-63246000D03*
X80391000Y-63246000D03*
%TD*%
D25*
%TO.C,H2*%
X54000000Y-146000000D03*
%TD*%
D24*
%TO.C,C1*%
X92363600Y-64547195D03*
X89413600Y-64547195D03*
%TD*%
D21*
%TO.C,J35*%
X54737000Y-84709000D03*
D22*
X57277000Y-84709000D03*
X59817000Y-84709000D03*
X62357000Y-84709000D03*
X64897000Y-84709000D03*
X67437000Y-84709000D03*
X69977000Y-84709000D03*
X72517000Y-84709000D03*
X75057000Y-84709000D03*
X77597000Y-84709000D03*
X80137000Y-84709000D03*
X82677000Y-84709000D03*
%TD*%
D21*
%TO.C,J34*%
X144460000Y-124500000D03*
D22*
X147000000Y-124500000D03*
X144460000Y-127040000D03*
X147000000Y-127040000D03*
X144460000Y-129580000D03*
X147000000Y-129580000D03*
X144460000Y-132120000D03*
X147000000Y-132120000D03*
X144460000Y-134660000D03*
X147000000Y-134660000D03*
%TD*%
D21*
%TO.C,J21*%
X59340000Y-52913995D03*
D22*
X61880000Y-52913995D03*
X64420000Y-52913995D03*
X66960000Y-52913995D03*
X69500000Y-52913995D03*
X72040000Y-52913995D03*
X74580000Y-52913995D03*
X77120000Y-52913995D03*
X79660000Y-52913995D03*
X82200000Y-52913995D03*
X84740000Y-52913995D03*
X87280000Y-52913995D03*
%TD*%
D31*
%TO.C,U5*%
X119168772Y-68663618D03*
X117898772Y-68663618D03*
X116628772Y-68663618D03*
X115358772Y-68663618D03*
X114088772Y-68663618D03*
X112818772Y-68663618D03*
X111548772Y-68663618D03*
X110278772Y-68663618D03*
X109008772Y-68663618D03*
X107738772Y-68663618D03*
X106468772Y-68663618D03*
X105198772Y-68663618D03*
X105198772Y-75588618D03*
X106468772Y-75588618D03*
X107738772Y-75588618D03*
X109008772Y-75588618D03*
X110278772Y-75588618D03*
X111548772Y-75588618D03*
X112818772Y-75588618D03*
X114088772Y-75588618D03*
X115358772Y-75588618D03*
X116628772Y-75588618D03*
X117898772Y-75588618D03*
X119168772Y-75588618D03*
%TD*%
D25*
%TO.C,H4*%
X146000000Y-146000000D03*
%TD*%
D32*
%TO.C,U10*%
X137500000Y-89625000D03*
D33*
X134960000Y-89625000D03*
X132420000Y-89625000D03*
X129880000Y-89625000D03*
X127340000Y-89625000D03*
X124800000Y-89625000D03*
X122260000Y-89625000D03*
X119720000Y-89625000D03*
X117180000Y-89625000D03*
X114640000Y-89625000D03*
X112100000Y-89625000D03*
X109560000Y-89625000D03*
X107020000Y-89625000D03*
X104480000Y-89625000D03*
X101940000Y-89625000D03*
X99400000Y-89625000D03*
X96860000Y-89625000D03*
X94320000Y-89625000D03*
X91780000Y-89625000D03*
X89240000Y-89625000D03*
X89240000Y-104865000D03*
X91780000Y-104865000D03*
X94320000Y-104865000D03*
X96860000Y-104865000D03*
X99400000Y-104865000D03*
X101940000Y-104865000D03*
X104480000Y-104865000D03*
X107020000Y-104865000D03*
X109560000Y-104865000D03*
X112100000Y-104865000D03*
X114640000Y-104865000D03*
X117180000Y-104865000D03*
X119720000Y-104865000D03*
X122260000Y-104865000D03*
X124800000Y-104865000D03*
X127340000Y-104865000D03*
X129880000Y-104865000D03*
X132420000Y-104865000D03*
X134960000Y-104865000D03*
X137500000Y-104865000D03*
%TD*%
D23*
%TO.C,U2*%
X120895972Y-75572418D03*
X122165972Y-75572418D03*
X123435972Y-75572418D03*
X124705972Y-75572418D03*
X125975972Y-75572418D03*
X127245972Y-75572418D03*
X128515972Y-75572418D03*
X129785972Y-75572418D03*
X131055972Y-75572418D03*
X132325972Y-75572418D03*
X132325972Y-68647418D03*
X131055972Y-68647418D03*
X129785972Y-68647418D03*
X128515972Y-68647418D03*
X127245972Y-68647418D03*
X125975972Y-68647418D03*
X124705972Y-68647418D03*
X123435972Y-68647418D03*
X122165972Y-68647418D03*
X120895972Y-68647418D03*
%TD*%
M02*
