%TF.GenerationSoftware,KiCad,Pcbnew,8.0.7-8.0.7-0~ubuntu22.04.1*%
%TF.CreationDate,2024-12-26T12:21:12+01:00*%
%TF.ProjectId,schematics_v10,73636865-6d61-4746-9963-735f7631302e,rev?*%
%TF.SameCoordinates,Original*%
%TF.FileFunction,Paste,Bot*%
%TF.FilePolarity,Positive*%
%FSLAX46Y46*%
G04 Gerber Fmt 4.6, Leading zero omitted, Abs format (unit mm)*
G04 Created by KiCad (PCBNEW 8.0.7-8.0.7-0~ubuntu22.04.1) date 2024-12-26 12:21:12*
%MOMM*%
%LPD*%
G01*
G04 APERTURE LIST*
G04 Aperture macros list*
%AMRoundRect*
0 Rectangle with rounded corners*
0 $1 Rounding radius*
0 $2 $3 $4 $5 $6 $7 $8 $9 X,Y pos of 4 corners*
0 Add a 4 corners polygon primitive as box body*
4,1,4,$2,$3,$4,$5,$6,$7,$8,$9,$2,$3,0*
0 Add four circle primitives for the rounded corners*
1,1,$1+$1,$2,$3*
1,1,$1+$1,$4,$5*
1,1,$1+$1,$6,$7*
1,1,$1+$1,$8,$9*
0 Add four rect primitives between the rounded corners*
20,1,$1+$1,$2,$3,$4,$5,0*
20,1,$1+$1,$4,$5,$6,$7,0*
20,1,$1+$1,$6,$7,$8,$9,0*
20,1,$1+$1,$8,$9,$2,$3,0*%
G04 Aperture macros list end*
%ADD10RoundRect,0.250000X-0.400000X-0.625000X0.400000X-0.625000X0.400000X0.625000X-0.400000X0.625000X0*%
%ADD11RoundRect,0.250000X-0.625000X0.400000X-0.625000X-0.400000X0.625000X-0.400000X0.625000X0.400000X0*%
%ADD12RoundRect,0.250000X-0.650000X0.325000X-0.650000X-0.325000X0.650000X-0.325000X0.650000X0.325000X0*%
%ADD13RoundRect,0.250000X0.400000X0.625000X-0.400000X0.625000X-0.400000X-0.625000X0.400000X-0.625000X0*%
%ADD14RoundRect,0.250000X-0.325000X-0.650000X0.325000X-0.650000X0.325000X0.650000X-0.325000X0.650000X0*%
%ADD15RoundRect,0.250000X0.325000X0.650000X-0.325000X0.650000X-0.325000X-0.650000X0.325000X-0.650000X0*%
G04 APERTURE END LIST*
D10*
%TO.C,R16*%
X73735000Y-128778000D03*
X76835000Y-128778000D03*
%TD*%
D11*
%TO.C,R14*%
X104772047Y-64397807D03*
X104772047Y-67497807D03*
%TD*%
D10*
%TO.C,R17*%
X73608000Y-138176000D03*
X76708000Y-138176000D03*
%TD*%
D11*
%TO.C,R12*%
X95631000Y-64337000D03*
X95631000Y-67437000D03*
%TD*%
%TO.C,R11*%
X100205096Y-64398624D03*
X100205096Y-67498624D03*
%TD*%
D12*
%TO.C,C10*%
X89357200Y-141169600D03*
X89357200Y-144119600D03*
%TD*%
%TO.C,C2*%
X87884000Y-135939000D03*
X87884000Y-138889000D03*
%TD*%
D13*
%TO.C,R13*%
X69495000Y-139319000D03*
X66395000Y-139319000D03*
%TD*%
D10*
%TO.C,R20*%
X73761000Y-126492000D03*
X76861000Y-126492000D03*
%TD*%
%TO.C,R22*%
X73709600Y-131165600D03*
X76809600Y-131165600D03*
%TD*%
%TO.C,R24*%
X73608000Y-135890000D03*
X76708000Y-135890000D03*
%TD*%
%TO.C,R21*%
X73684800Y-133502400D03*
X76784800Y-133502400D03*
%TD*%
D11*
%TO.C,R1*%
X107051536Y-64397807D03*
X107051536Y-67497807D03*
%TD*%
D14*
%TO.C,C7*%
X129765000Y-114604800D03*
X132715000Y-114604800D03*
%TD*%
D13*
%TO.C,R15*%
X76480000Y-141351000D03*
X73380000Y-141351000D03*
%TD*%
D15*
%TO.C,C8*%
X148083800Y-120904000D03*
X145133800Y-120904000D03*
%TD*%
D14*
%TO.C,C3*%
X134446000Y-73741995D03*
X137396000Y-73741995D03*
%TD*%
D13*
%TO.C,R8*%
X70384000Y-136525000D03*
X67284000Y-136525000D03*
%TD*%
D11*
%TO.C,R10*%
X102489000Y-64389000D03*
X102489000Y-67489000D03*
%TD*%
%TO.C,R9*%
X97917000Y-64389000D03*
X97917000Y-67489000D03*
%TD*%
D12*
%TO.C,C6*%
X125857000Y-120446800D03*
X125857000Y-123396800D03*
%TD*%
M02*
