%TF.GenerationSoftware,KiCad,Pcbnew,8.0.7-8.0.7-0~ubuntu22.04.1*%
%TF.CreationDate,2024-12-26T12:21:12+01:00*%
%TF.ProjectId,schematics_v10,73636865-6d61-4746-9963-735f7631302e,rev?*%
%TF.SameCoordinates,Original*%
%TF.FileFunction,Soldermask,Bot*%
%TF.FilePolarity,Negative*%
%FSLAX46Y46*%
G04 Gerber Fmt 4.6, Leading zero omitted, Abs format (unit mm)*
G04 Created by KiCad (PCBNEW 8.0.7-8.0.7-0~ubuntu22.04.1) date 2024-12-26 12:21:12*
%MOMM*%
%LPD*%
G01*
G04 APERTURE LIST*
G04 Aperture macros list*
%AMRoundRect*
0 Rectangle with rounded corners*
0 $1 Rounding radius*
0 $2 $3 $4 $5 $6 $7 $8 $9 X,Y pos of 4 corners*
0 Add a 4 corners polygon primitive as box body*
4,1,4,$2,$3,$4,$5,$6,$7,$8,$9,$2,$3,0*
0 Add four circle primitives for the rounded corners*
1,1,$1+$1,$2,$3*
1,1,$1+$1,$4,$5*
1,1,$1+$1,$6,$7*
1,1,$1+$1,$8,$9*
0 Add four rect primitives between the rounded corners*
20,1,$1+$1,$2,$3,$4,$5,0*
20,1,$1+$1,$4,$5,$6,$7,0*
20,1,$1+$1,$6,$7,$8,$9,0*
20,1,$1+$1,$8,$9,$2,$3,0*%
%AMFreePoly0*
4,1,19,0.550000,-0.750000,0.000000,-0.750000,0.000000,-0.744911,-0.071157,-0.744911,-0.207708,-0.704816,-0.327430,-0.627875,-0.420627,-0.520320,-0.479746,-0.390866,-0.500000,-0.250000,-0.500000,0.250000,-0.479746,0.390866,-0.420627,0.520320,-0.327430,0.627875,-0.207708,0.704816,-0.071157,0.744911,0.000000,0.744911,0.000000,0.750000,0.550000,0.750000,0.550000,-0.750000,0.550000,-0.750000,
$1*%
%AMFreePoly1*
4,1,19,0.000000,0.744911,0.071157,0.744911,0.207708,0.704816,0.327430,0.627875,0.420627,0.520320,0.479746,0.390866,0.500000,0.250000,0.500000,-0.250000,0.479746,-0.390866,0.420627,-0.520320,0.327430,-0.627875,0.207708,-0.704816,0.071157,-0.744911,0.000000,-0.744911,0.000000,-0.750000,-0.550000,-0.750000,-0.550000,0.750000,0.000000,0.750000,0.000000,0.744911,0.000000,0.744911,
$1*%
%AMFreePoly2*
4,1,19,0.500000,-0.750000,0.000000,-0.750000,0.000000,-0.744911,-0.071157,-0.744911,-0.207708,-0.704816,-0.327430,-0.627875,-0.420627,-0.520320,-0.479746,-0.390866,-0.500000,-0.250000,-0.500000,0.250000,-0.479746,0.390866,-0.420627,0.520320,-0.327430,0.627875,-0.207708,0.704816,-0.071157,0.744911,0.000000,0.744911,0.000000,0.750000,0.500000,0.750000,0.500000,-0.750000,0.500000,-0.750000,
$1*%
%AMFreePoly3*
4,1,19,0.000000,0.744911,0.071157,0.744911,0.207708,0.704816,0.327430,0.627875,0.420627,0.520320,0.479746,0.390866,0.500000,0.250000,0.500000,-0.250000,0.479746,-0.390866,0.420627,-0.520320,0.327430,-0.627875,0.207708,-0.704816,0.071157,-0.744911,0.000000,-0.744911,0.000000,-0.750000,-0.500000,-0.750000,-0.500000,0.750000,0.000000,0.750000,0.000000,0.744911,0.000000,0.744911,
$1*%
G04 Aperture macros list end*
%ADD10R,1.350000X1.350000*%
%ADD11RoundRect,0.250000X-0.400000X-0.625000X0.400000X-0.625000X0.400000X0.625000X-0.400000X0.625000X0*%
%ADD12R,1.000000X1.000000*%
%ADD13RoundRect,0.250000X-0.625000X0.400000X-0.625000X-0.400000X0.625000X-0.400000X0.625000X0.400000X0*%
%ADD14R,1.600000X1.600000*%
%ADD15O,1.600000X1.600000*%
%ADD16R,1.700000X1.700000*%
%ADD17O,1.700000X1.700000*%
%ADD18C,3.200000*%
%ADD19FreePoly0,0.000000*%
%ADD20R,1.000000X1.500000*%
%ADD21FreePoly1,0.000000*%
%ADD22RoundRect,0.250000X-0.650000X0.325000X-0.650000X-0.325000X0.650000X-0.325000X0.650000X0.325000X0*%
%ADD23FreePoly2,180.000000*%
%ADD24FreePoly3,180.000000*%
%ADD25RoundRect,0.250000X0.400000X0.625000X-0.400000X0.625000X-0.400000X-0.625000X0.400000X-0.625000X0*%
%ADD26FreePoly0,180.000000*%
%ADD27FreePoly1,180.000000*%
%ADD28RoundRect,0.250000X-0.325000X-0.650000X0.325000X-0.650000X0.325000X0.650000X-0.325000X0.650000X0*%
%ADD29RoundRect,0.250000X0.325000X0.650000X-0.325000X0.650000X-0.325000X-0.650000X0.325000X-0.650000X0*%
%ADD30R,1.600000X2.400000*%
%ADD31O,1.600000X2.400000*%
G04 APERTURE END LIST*
D10*
%TO.C,J30*%
X97790000Y-128778000D03*
%TD*%
%TO.C,J29*%
X97790000Y-131826000D03*
%TD*%
D11*
%TO.C,R16*%
X73735000Y-128778000D03*
X76835000Y-128778000D03*
%TD*%
D10*
%TO.C,J28*%
X92837000Y-128778000D03*
%TD*%
D12*
%TO.C,J27*%
X113157000Y-126746000D03*
%TD*%
%TO.C,J19*%
X113157000Y-121031000D03*
%TD*%
%TO.C,J18*%
X113157000Y-130556000D03*
%TD*%
%TO.C,J17*%
X113157000Y-128651000D03*
%TD*%
%TO.C,J16*%
X113157000Y-124841000D03*
%TD*%
%TO.C,J9*%
X113157000Y-122936000D03*
%TD*%
D13*
%TO.C,R14*%
X104772047Y-64397807D03*
X104772047Y-67497807D03*
%TD*%
D11*
%TO.C,R17*%
X73608000Y-138176000D03*
X76708000Y-138176000D03*
%TD*%
D13*
%TO.C,R12*%
X95631000Y-64337000D03*
X95631000Y-67437000D03*
%TD*%
D10*
%TO.C,J15*%
X106934000Y-109347000D03*
%TD*%
%TO.C,J13*%
X94484097Y-109250000D03*
%TD*%
%TO.C,J11*%
X99500000Y-109250000D03*
%TD*%
%TO.C,J10*%
X97000000Y-109250000D03*
%TD*%
D14*
%TO.C,J39*%
X54737000Y-113157000D03*
D15*
X57277000Y-113157000D03*
X59817000Y-113157000D03*
X62357000Y-113157000D03*
X64897000Y-113157000D03*
X67437000Y-113157000D03*
X69977000Y-113157000D03*
X72517000Y-113157000D03*
X75057000Y-113157000D03*
X77597000Y-113157000D03*
X80137000Y-113157000D03*
X82677000Y-113157000D03*
X82677000Y-105537000D03*
X80137000Y-105537000D03*
X77597000Y-105537000D03*
X75057000Y-105537000D03*
X72517000Y-105537000D03*
X69977000Y-105537000D03*
X67437000Y-105537000D03*
X64897000Y-105537000D03*
X62357000Y-105537000D03*
X59817000Y-105537000D03*
X57277000Y-105537000D03*
X54737000Y-105537000D03*
%TD*%
D16*
%TO.C,J8*%
X118872000Y-133858000D03*
D17*
X121412000Y-133858000D03*
X123952000Y-133858000D03*
X126492000Y-133858000D03*
X129032000Y-133858000D03*
X131572000Y-133858000D03*
X134112000Y-133858000D03*
X136652000Y-133858000D03*
X139192000Y-133858000D03*
%TD*%
D16*
%TO.C,J36*%
X61595000Y-140627000D03*
D17*
X59055000Y-140627000D03*
X61595000Y-138087000D03*
X59055000Y-138087000D03*
X61595000Y-135547000D03*
X59055000Y-135547000D03*
X61595000Y-133007000D03*
X59055000Y-133007000D03*
X61595000Y-130467000D03*
X59055000Y-130467000D03*
X61595000Y-127927000D03*
X59055000Y-127927000D03*
%TD*%
D16*
%TO.C,J1*%
X92367000Y-53000000D03*
D17*
X92367000Y-55540000D03*
X94907000Y-53000000D03*
X94907000Y-55540000D03*
X97447000Y-53000000D03*
X97447000Y-55540000D03*
X99987000Y-53000000D03*
X99987000Y-55540000D03*
X102527000Y-53000000D03*
X102527000Y-55540000D03*
X105067000Y-53000000D03*
X105067000Y-55540000D03*
X107607000Y-53000000D03*
X107607000Y-55540000D03*
X110147000Y-53000000D03*
X110147000Y-55540000D03*
X112687000Y-53000000D03*
X112687000Y-55540000D03*
X115227000Y-53000000D03*
X115227000Y-55540000D03*
X117767000Y-53000000D03*
X117767000Y-55540000D03*
X120307000Y-53000000D03*
X120307000Y-55540000D03*
X122847000Y-53000000D03*
X122847000Y-55540000D03*
X125387000Y-53000000D03*
X125387000Y-55540000D03*
X127927000Y-53000000D03*
X127927000Y-55540000D03*
X130467000Y-53000000D03*
X130467000Y-55540000D03*
X133007000Y-53000000D03*
X133007000Y-55540000D03*
X135547000Y-53000000D03*
X135547000Y-55540000D03*
X138087000Y-53000000D03*
X138087000Y-55540000D03*
X140627000Y-53000000D03*
X140627000Y-55540000D03*
%TD*%
D12*
%TO.C,J14*%
X89408000Y-85344000D03*
%TD*%
D16*
%TO.C,J5*%
X118872000Y-110998000D03*
D17*
X121412000Y-110998000D03*
X123952000Y-110998000D03*
X126492000Y-110998000D03*
X129032000Y-110998000D03*
X131572000Y-110998000D03*
X134112000Y-110998000D03*
X136652000Y-110998000D03*
X139192000Y-110998000D03*
%TD*%
D16*
%TO.C,J4*%
X140627000Y-141000000D03*
D17*
X140627000Y-138460000D03*
X138087000Y-141000000D03*
X138087000Y-138460000D03*
X135547000Y-141000000D03*
X135547000Y-138460000D03*
X133007000Y-141000000D03*
X133007000Y-138460000D03*
X130467000Y-141000000D03*
X130467000Y-138460000D03*
X127927000Y-141000000D03*
X127927000Y-138460000D03*
X125387000Y-141000000D03*
X125387000Y-138460000D03*
X122847000Y-141000000D03*
X122847000Y-138460000D03*
X120307000Y-141000000D03*
X120307000Y-138460000D03*
X117767000Y-141000000D03*
X117767000Y-138460000D03*
X115227000Y-141000000D03*
X115227000Y-138460000D03*
X112687000Y-141000000D03*
X112687000Y-138460000D03*
X110147000Y-141000000D03*
X110147000Y-138460000D03*
X107607000Y-141000000D03*
X107607000Y-138460000D03*
X105067000Y-141000000D03*
X105067000Y-138460000D03*
X102527000Y-141000000D03*
X102527000Y-138460000D03*
X99987000Y-141000000D03*
X99987000Y-138460000D03*
X97447000Y-141000000D03*
X97447000Y-138460000D03*
X94907000Y-141000000D03*
X94907000Y-138460000D03*
X92367000Y-141000000D03*
X92367000Y-138460000D03*
%TD*%
D14*
%TO.C,J25*%
X54737000Y-95377000D03*
D15*
X57277000Y-95377000D03*
X59817000Y-95377000D03*
X62357000Y-95377000D03*
X64897000Y-95377000D03*
X67437000Y-95377000D03*
X69977000Y-95377000D03*
X72517000Y-95377000D03*
X75057000Y-95377000D03*
X77597000Y-95377000D03*
X80137000Y-95377000D03*
X82677000Y-95377000D03*
X82677000Y-87757000D03*
X80137000Y-87757000D03*
X77597000Y-87757000D03*
X75057000Y-87757000D03*
X72517000Y-87757000D03*
X69977000Y-87757000D03*
X67437000Y-87757000D03*
X64897000Y-87757000D03*
X62357000Y-87757000D03*
X59817000Y-87757000D03*
X57277000Y-87757000D03*
X54737000Y-87757000D03*
%TD*%
D14*
%TO.C,J24*%
X54732000Y-78049000D03*
D15*
X57272000Y-78049000D03*
X59812000Y-78049000D03*
X62352000Y-78049000D03*
X64892000Y-78049000D03*
X67432000Y-78049000D03*
X69972000Y-78049000D03*
X72512000Y-78049000D03*
X75052000Y-78049000D03*
X77592000Y-78049000D03*
X80132000Y-78049000D03*
X82672000Y-78049000D03*
X82672000Y-70429000D03*
X80132000Y-70429000D03*
X77592000Y-70429000D03*
X75052000Y-70429000D03*
X72512000Y-70429000D03*
X69972000Y-70429000D03*
X67432000Y-70429000D03*
X64892000Y-70429000D03*
X62352000Y-70429000D03*
X59812000Y-70429000D03*
X57272000Y-70429000D03*
X54732000Y-70429000D03*
%TD*%
D16*
%TO.C,J37*%
X55540000Y-140627000D03*
D17*
X53000000Y-140627000D03*
X55540000Y-138087000D03*
X53000000Y-138087000D03*
X55540000Y-135547000D03*
X53000000Y-135547000D03*
X55540000Y-133007000D03*
X53000000Y-133007000D03*
X55540000Y-130467000D03*
X53000000Y-130467000D03*
X55540000Y-127927000D03*
X53000000Y-127927000D03*
%TD*%
D16*
%TO.C,J40*%
X54737000Y-102489000D03*
D17*
X57277000Y-102489000D03*
X59817000Y-102489000D03*
X62357000Y-102489000D03*
X64897000Y-102489000D03*
X67437000Y-102489000D03*
X69977000Y-102489000D03*
X72517000Y-102489000D03*
X75057000Y-102489000D03*
X77597000Y-102489000D03*
X80137000Y-102489000D03*
X82677000Y-102489000D03*
%TD*%
D16*
%TO.C,J23*%
X54737000Y-98425000D03*
D17*
X57277000Y-98425000D03*
X59817000Y-98425000D03*
X62357000Y-98425000D03*
X64897000Y-98425000D03*
X67437000Y-98425000D03*
X69977000Y-98425000D03*
X72517000Y-98425000D03*
X75057000Y-98425000D03*
X77597000Y-98425000D03*
X80137000Y-98425000D03*
X82677000Y-98425000D03*
%TD*%
D16*
%TO.C,J41*%
X60833000Y-60414000D03*
D17*
X58293000Y-60414000D03*
X60833000Y-62954000D03*
X58293000Y-62954000D03*
%TD*%
D16*
%TO.C,J20*%
X59340000Y-146893995D03*
D17*
X61880000Y-146893995D03*
X64420000Y-146893995D03*
X66960000Y-146893995D03*
X69500000Y-146893995D03*
X72040000Y-146893995D03*
X74580000Y-146893995D03*
X77120000Y-146893995D03*
X79660000Y-146893995D03*
X82200000Y-146893995D03*
X84740000Y-146893995D03*
X87280000Y-146893995D03*
%TD*%
D16*
%TO.C,J2*%
X140627000Y-147000000D03*
D17*
X140627000Y-144460000D03*
X138087000Y-147000000D03*
X138087000Y-144460000D03*
X135547000Y-147000000D03*
X135547000Y-144460000D03*
X133007000Y-147000000D03*
X133007000Y-144460000D03*
X130467000Y-147000000D03*
X130467000Y-144460000D03*
X127927000Y-147000000D03*
X127927000Y-144460000D03*
X125387000Y-147000000D03*
X125387000Y-144460000D03*
X122847000Y-147000000D03*
X122847000Y-144460000D03*
X120307000Y-147000000D03*
X120307000Y-144460000D03*
X117767000Y-147000000D03*
X117767000Y-144460000D03*
X115227000Y-147000000D03*
X115227000Y-144460000D03*
X112687000Y-147000000D03*
X112687000Y-144460000D03*
X110147000Y-147000000D03*
X110147000Y-144460000D03*
X107607000Y-147000000D03*
X107607000Y-144460000D03*
X105067000Y-147000000D03*
X105067000Y-144460000D03*
X102527000Y-147000000D03*
X102527000Y-144460000D03*
X99987000Y-147000000D03*
X99987000Y-144460000D03*
X97447000Y-147000000D03*
X97447000Y-144460000D03*
X94907000Y-147000000D03*
X94907000Y-144460000D03*
X92367000Y-147000000D03*
X92367000Y-144460000D03*
%TD*%
D16*
%TO.C,J6*%
X139192000Y-131318000D03*
D17*
X139192000Y-128778000D03*
X139192000Y-126238000D03*
X139192000Y-123698000D03*
X139192000Y-121158000D03*
X139192000Y-118618000D03*
X139192000Y-116078000D03*
X139192000Y-113538000D03*
%TD*%
D16*
%TO.C,J26*%
X54737000Y-67437000D03*
D17*
X57277000Y-67437000D03*
X59817000Y-67437000D03*
X62357000Y-67437000D03*
X64897000Y-67437000D03*
X67437000Y-67437000D03*
X69977000Y-67437000D03*
X72517000Y-67437000D03*
X75057000Y-67437000D03*
X77597000Y-67437000D03*
X80137000Y-67437000D03*
X82677000Y-67437000D03*
%TD*%
D18*
%TO.C,H3*%
X146000000Y-54000000D03*
%TD*%
D16*
%TO.C,J38*%
X54737000Y-116205000D03*
D17*
X57277000Y-116205000D03*
X59817000Y-116205000D03*
X62357000Y-116205000D03*
X64897000Y-116205000D03*
X67437000Y-116205000D03*
X69977000Y-116205000D03*
X72517000Y-116205000D03*
X75057000Y-116205000D03*
X77597000Y-116205000D03*
X80137000Y-116205000D03*
X82677000Y-116205000D03*
%TD*%
D12*
%TO.C,J12*%
X92075000Y-85344000D03*
%TD*%
D16*
%TO.C,J7*%
X118872000Y-113538000D03*
D17*
X118872000Y-116078000D03*
X118872000Y-118618000D03*
X118872000Y-121158000D03*
X118872000Y-123698000D03*
X118872000Y-126238000D03*
X118872000Y-128778000D03*
X118872000Y-131318000D03*
%TD*%
D16*
%TO.C,J3*%
X92367000Y-59000000D03*
D17*
X92367000Y-61540000D03*
X94907000Y-59000000D03*
X94907000Y-61540000D03*
X97447000Y-59000000D03*
X97447000Y-61540000D03*
X99987000Y-59000000D03*
X99987000Y-61540000D03*
X102527000Y-59000000D03*
X102527000Y-61540000D03*
X105067000Y-59000000D03*
X105067000Y-61540000D03*
X107607000Y-59000000D03*
X107607000Y-61540000D03*
X110147000Y-59000000D03*
X110147000Y-61540000D03*
X112687000Y-59000000D03*
X112687000Y-61540000D03*
X115227000Y-59000000D03*
X115227000Y-61540000D03*
X117767000Y-59000000D03*
X117767000Y-61540000D03*
X120307000Y-59000000D03*
X120307000Y-61540000D03*
X122847000Y-59000000D03*
X122847000Y-61540000D03*
X125387000Y-59000000D03*
X125387000Y-61540000D03*
X127927000Y-59000000D03*
X127927000Y-61540000D03*
X130467000Y-59000000D03*
X130467000Y-61540000D03*
X133007000Y-59000000D03*
X133007000Y-61540000D03*
X135547000Y-59000000D03*
X135547000Y-61540000D03*
X138087000Y-59000000D03*
X138087000Y-61540000D03*
X140627000Y-59000000D03*
X140627000Y-61540000D03*
%TD*%
D16*
%TO.C,J22*%
X54737000Y-81026000D03*
D17*
X57277000Y-81026000D03*
X59817000Y-81026000D03*
X62357000Y-81026000D03*
X64897000Y-81026000D03*
X67437000Y-81026000D03*
X69977000Y-81026000D03*
X72517000Y-81026000D03*
X75057000Y-81026000D03*
X77597000Y-81026000D03*
X80137000Y-81026000D03*
X82677000Y-81026000D03*
%TD*%
D18*
%TO.C,H1*%
X54000000Y-54000000D03*
%TD*%
D16*
%TO.C,J42*%
X82931000Y-60706000D03*
D17*
X80391000Y-60706000D03*
X82931000Y-63246000D03*
X80391000Y-63246000D03*
%TD*%
D18*
%TO.C,H2*%
X54000000Y-146000000D03*
%TD*%
D16*
%TO.C,J35*%
X54737000Y-84709000D03*
D17*
X57277000Y-84709000D03*
X59817000Y-84709000D03*
X62357000Y-84709000D03*
X64897000Y-84709000D03*
X67437000Y-84709000D03*
X69977000Y-84709000D03*
X72517000Y-84709000D03*
X75057000Y-84709000D03*
X77597000Y-84709000D03*
X80137000Y-84709000D03*
X82677000Y-84709000D03*
%TD*%
D16*
%TO.C,J34*%
X144460000Y-124500000D03*
D17*
X147000000Y-124500000D03*
X144460000Y-127040000D03*
X147000000Y-127040000D03*
X144460000Y-129580000D03*
X147000000Y-129580000D03*
X144460000Y-132120000D03*
X147000000Y-132120000D03*
X144460000Y-134660000D03*
X147000000Y-134660000D03*
%TD*%
D16*
%TO.C,J21*%
X59340000Y-52913995D03*
D17*
X61880000Y-52913995D03*
X64420000Y-52913995D03*
X66960000Y-52913995D03*
X69500000Y-52913995D03*
X72040000Y-52913995D03*
X74580000Y-52913995D03*
X77120000Y-52913995D03*
X79660000Y-52913995D03*
X82200000Y-52913995D03*
X84740000Y-52913995D03*
X87280000Y-52913995D03*
%TD*%
D18*
%TO.C,H4*%
X146000000Y-146000000D03*
%TD*%
D19*
%TO.C,JP29*%
X89616800Y-67264995D03*
D20*
X90916800Y-67264995D03*
D21*
X92216800Y-67264995D03*
%TD*%
D13*
%TO.C,R11*%
X100205096Y-64398624D03*
X100205096Y-67498624D03*
%TD*%
D22*
%TO.C,C10*%
X89357200Y-141169600D03*
X89357200Y-144119600D03*
%TD*%
D23*
%TO.C,JP13*%
X78867000Y-92837000D03*
D24*
X77567000Y-92837000D03*
%TD*%
D22*
%TO.C,C2*%
X87884000Y-135939000D03*
X87884000Y-138889000D03*
%TD*%
D25*
%TO.C,R13*%
X69495000Y-139319000D03*
X66395000Y-139319000D03*
%TD*%
D26*
%TO.C,JP9*%
X74930000Y-124079000D03*
D20*
X73630000Y-124079000D03*
D27*
X72330000Y-124079000D03*
%TD*%
D23*
%TO.C,JP12*%
X71501000Y-92837000D03*
D24*
X70201000Y-92837000D03*
%TD*%
D11*
%TO.C,R20*%
X73761000Y-126492000D03*
X76861000Y-126492000D03*
%TD*%
%TO.C,R22*%
X73709600Y-131165600D03*
X76809600Y-131165600D03*
%TD*%
%TO.C,R24*%
X73608000Y-135890000D03*
X76708000Y-135890000D03*
%TD*%
%TO.C,R21*%
X73684800Y-133502400D03*
X76784800Y-133502400D03*
%TD*%
D13*
%TO.C,R1*%
X107051536Y-64397807D03*
X107051536Y-67497807D03*
%TD*%
D28*
%TO.C,C7*%
X129765000Y-114604800D03*
X132715000Y-114604800D03*
%TD*%
D25*
%TO.C,R15*%
X76480000Y-141351000D03*
X73380000Y-141351000D03*
%TD*%
D29*
%TO.C,C8*%
X148083800Y-120904000D03*
X145133800Y-120904000D03*
%TD*%
D23*
%TO.C,JP15*%
X78867000Y-110617000D03*
D24*
X77567000Y-110617000D03*
%TD*%
D28*
%TO.C,C3*%
X134446000Y-73741995D03*
X137396000Y-73741995D03*
%TD*%
D25*
%TO.C,R8*%
X70384000Y-136525000D03*
X67284000Y-136525000D03*
%TD*%
D13*
%TO.C,R10*%
X102489000Y-64389000D03*
X102489000Y-67489000D03*
%TD*%
D23*
%TO.C,JP14*%
X71277000Y-110777000D03*
D24*
X69977000Y-110777000D03*
%TD*%
D13*
%TO.C,R9*%
X97917000Y-64389000D03*
X97917000Y-67489000D03*
%TD*%
D23*
%TO.C,JP11*%
X78867000Y-75565000D03*
D24*
X77567000Y-75565000D03*
%TD*%
D22*
%TO.C,C6*%
X125857000Y-120446800D03*
X125857000Y-123396800D03*
%TD*%
D23*
%TO.C,JP10*%
X71247000Y-75565000D03*
D24*
X69947000Y-75565000D03*
%TD*%
D30*
%TO.C,U10*%
X137500000Y-89625000D03*
D31*
X134960000Y-89625000D03*
X132420000Y-89625000D03*
X129880000Y-89625000D03*
X127340000Y-89625000D03*
X124800000Y-89625000D03*
X122260000Y-89625000D03*
X119720000Y-89625000D03*
X117180000Y-89625000D03*
X114640000Y-89625000D03*
X112100000Y-89625000D03*
X109560000Y-89625000D03*
X107020000Y-89625000D03*
X104480000Y-89625000D03*
X101940000Y-89625000D03*
X99400000Y-89625000D03*
X96860000Y-89625000D03*
X94320000Y-89625000D03*
X91780000Y-89625000D03*
X89240000Y-89625000D03*
X89240000Y-104865000D03*
X91780000Y-104865000D03*
X94320000Y-104865000D03*
X96860000Y-104865000D03*
X99400000Y-104865000D03*
X101940000Y-104865000D03*
X104480000Y-104865000D03*
X107020000Y-104865000D03*
X109560000Y-104865000D03*
X112100000Y-104865000D03*
X114640000Y-104865000D03*
X117180000Y-104865000D03*
X119720000Y-104865000D03*
X122260000Y-104865000D03*
X124800000Y-104865000D03*
X127340000Y-104865000D03*
X129880000Y-104865000D03*
X132420000Y-104865000D03*
X134960000Y-104865000D03*
X137500000Y-104865000D03*
%TD*%
M02*
