%TF.GenerationSoftware,KiCad,Pcbnew,8.0.5-8.0.5-0~ubuntu22.04.1*%
%TF.CreationDate,2024-10-05T19:48:29+02:00*%
%TF.ProjectId,6809_CPU,36383039-5f43-4505-952e-6b696361645f,rev?*%
%TF.SameCoordinates,Original*%
%TF.FileFunction,Paste,Top*%
%TF.FilePolarity,Positive*%
%FSLAX46Y46*%
G04 Gerber Fmt 4.6, Leading zero omitted, Abs format (unit mm)*
G04 Created by KiCad (PCBNEW 8.0.5-8.0.5-0~ubuntu22.04.1) date 2024-10-05 19:48:29*
%MOMM*%
%LPD*%
G01*
G04 APERTURE LIST*
G04 Aperture macros list*
%AMRoundRect*
0 Rectangle with rounded corners*
0 $1 Rounding radius*
0 $2 $3 $4 $5 $6 $7 $8 $9 X,Y pos of 4 corners*
0 Add a 4 corners polygon primitive as box body*
4,1,4,$2,$3,$4,$5,$6,$7,$8,$9,$2,$3,0*
0 Add four circle primitives for the rounded corners*
1,1,$1+$1,$2,$3*
1,1,$1+$1,$4,$5*
1,1,$1+$1,$6,$7*
1,1,$1+$1,$8,$9*
0 Add four rect primitives between the rounded corners*
20,1,$1+$1,$2,$3,$4,$5,0*
20,1,$1+$1,$4,$5,$6,$7,0*
20,1,$1+$1,$6,$7,$8,$9,0*
20,1,$1+$1,$8,$9,$2,$3,0*%
G04 Aperture macros list end*
%ADD10RoundRect,0.250000X0.325000X0.650000X-0.325000X0.650000X-0.325000X-0.650000X0.325000X-0.650000X0*%
%ADD11RoundRect,0.150000X0.150000X-0.837500X0.150000X0.837500X-0.150000X0.837500X-0.150000X-0.837500X0*%
%ADD12RoundRect,0.200000X-0.750000X-0.200000X0.750000X-0.200000X0.750000X0.200000X-0.750000X0.200000X0*%
%ADD13RoundRect,0.150000X0.837500X0.150000X-0.837500X0.150000X-0.837500X-0.150000X0.837500X-0.150000X0*%
%ADD14RoundRect,0.150000X0.150000X-0.825000X0.150000X0.825000X-0.150000X0.825000X-0.150000X-0.825000X0*%
%ADD15RoundRect,0.250000X0.400000X0.625000X-0.400000X0.625000X-0.400000X-0.625000X0.400000X-0.625000X0*%
%ADD16R,0.550000X1.500000*%
%ADD17R,1.500000X0.550000*%
%ADD18RoundRect,0.150000X-0.150000X0.837500X-0.150000X-0.837500X0.150000X-0.837500X0.150000X0.837500X0*%
G04 APERTURE END LIST*
D10*
%TO.C,C5*%
X100077800Y-94996000D03*
X97127800Y-94996000D03*
%TD*%
D11*
%TO.C,U3*%
X134053172Y-75556218D03*
X135323172Y-75556218D03*
X136593172Y-75556218D03*
X137863172Y-75556218D03*
X139133172Y-75556218D03*
X140403172Y-75556218D03*
X141673172Y-75556218D03*
X142943172Y-75556218D03*
X144213172Y-75556218D03*
X145483172Y-75556218D03*
X145483172Y-68631218D03*
X144213172Y-68631218D03*
X142943172Y-68631218D03*
X141673172Y-68631218D03*
X140403172Y-68631218D03*
X139133172Y-68631218D03*
X137863172Y-68631218D03*
X136593172Y-68631218D03*
X135323172Y-68631218D03*
X134053172Y-68631218D03*
%TD*%
D10*
%TO.C,C4*%
X111870800Y-135260795D03*
X108920800Y-135260795D03*
%TD*%
D12*
%TO.C,D9*%
X72399000Y-142814000D03*
X72399000Y-144714000D03*
X75399000Y-143764000D03*
%TD*%
D13*
%TO.C,U21*%
X114271000Y-133127195D03*
X114271000Y-131857195D03*
X114271000Y-130587195D03*
X114271000Y-129317195D03*
X114271000Y-128047195D03*
X114271000Y-126777195D03*
X114271000Y-125507195D03*
X114271000Y-124237195D03*
X114271000Y-122967195D03*
X114271000Y-121697195D03*
X107346000Y-121697195D03*
X107346000Y-122967195D03*
X107346000Y-124237195D03*
X107346000Y-125507195D03*
X107346000Y-126777195D03*
X107346000Y-128047195D03*
X107346000Y-129317195D03*
X107346000Y-130587195D03*
X107346000Y-131857195D03*
X107346000Y-133127195D03*
%TD*%
D11*
%TO.C,U2*%
X120895972Y-75572418D03*
X122165972Y-75572418D03*
X123435972Y-75572418D03*
X124705972Y-75572418D03*
X125975972Y-75572418D03*
X127245972Y-75572418D03*
X128515972Y-75572418D03*
X129785972Y-75572418D03*
X131055972Y-75572418D03*
X132325972Y-75572418D03*
X132325972Y-68647418D03*
X131055972Y-68647418D03*
X129785972Y-68647418D03*
X128515972Y-68647418D03*
X127245972Y-68647418D03*
X125975972Y-68647418D03*
X124705972Y-68647418D03*
X123435972Y-68647418D03*
X122165972Y-68647418D03*
X120895972Y-68647418D03*
%TD*%
D14*
%TO.C,U9*%
X86416400Y-77613995D03*
X87686400Y-77613995D03*
X88956400Y-77613995D03*
X90226400Y-77613995D03*
X91496400Y-77613995D03*
X92766400Y-77613995D03*
X94036400Y-77613995D03*
X94036400Y-72663995D03*
X92766400Y-72663995D03*
X91496400Y-72663995D03*
X90226400Y-72663995D03*
X88956400Y-72663995D03*
X87686400Y-72663995D03*
X86416400Y-72663995D03*
%TD*%
D12*
%TO.C,D8*%
X72795000Y-135575000D03*
X72795000Y-137475000D03*
X75795000Y-136525000D03*
%TD*%
%TO.C,D10*%
X75105000Y-139131000D03*
X75105000Y-141031000D03*
X78105000Y-140081000D03*
%TD*%
D14*
%TO.C,U8*%
X95941400Y-73549995D03*
X97211400Y-73549995D03*
X98481400Y-73549995D03*
X99751400Y-73549995D03*
X101021400Y-73549995D03*
X102291400Y-73549995D03*
X103561400Y-73549995D03*
X103561400Y-68599995D03*
X102291400Y-68599995D03*
X101021400Y-68599995D03*
X99751400Y-68599995D03*
X98481400Y-68599995D03*
X97211400Y-68599995D03*
X95941400Y-68599995D03*
%TD*%
D15*
%TO.C,R2*%
X120477800Y-78237795D03*
X117377800Y-78237795D03*
%TD*%
D16*
%TO.C,U1*%
X126689000Y-129348800D03*
X127489000Y-129348800D03*
X128289000Y-129348800D03*
X129089000Y-129348800D03*
X129889000Y-129348800D03*
X130689000Y-129348800D03*
X131489000Y-129348800D03*
X132289000Y-129348800D03*
X133089000Y-129348800D03*
X133889000Y-129348800D03*
X134689000Y-129348800D03*
D17*
X136389000Y-127648800D03*
X136389000Y-126848800D03*
X136389000Y-126048800D03*
X136389000Y-125248800D03*
X136389000Y-124448800D03*
X136389000Y-123648800D03*
X136389000Y-122848800D03*
X136389000Y-122048800D03*
X136389000Y-121248800D03*
X136389000Y-120448800D03*
X136389000Y-119648800D03*
D16*
X134689000Y-117948800D03*
X133889000Y-117948800D03*
X133089000Y-117948800D03*
X132289000Y-117948800D03*
X131489000Y-117948800D03*
X130689000Y-117948800D03*
X129889000Y-117948800D03*
X129089000Y-117948800D03*
X128289000Y-117948800D03*
X127489000Y-117948800D03*
X126689000Y-117948800D03*
D17*
X124989000Y-119648800D03*
X124989000Y-120448800D03*
X124989000Y-121248800D03*
X124989000Y-122048800D03*
X124989000Y-122848800D03*
X124989000Y-123648800D03*
X124989000Y-124448800D03*
X124989000Y-125248800D03*
X124989000Y-126048800D03*
X124989000Y-126848800D03*
X124989000Y-127648800D03*
%TD*%
D10*
%TO.C,C1*%
X92363600Y-64547195D03*
X89413600Y-64547195D03*
%TD*%
D18*
%TO.C,U5*%
X119168772Y-68663618D03*
X117898772Y-68663618D03*
X116628772Y-68663618D03*
X115358772Y-68663618D03*
X114088772Y-68663618D03*
X112818772Y-68663618D03*
X111548772Y-68663618D03*
X110278772Y-68663618D03*
X109008772Y-68663618D03*
X107738772Y-68663618D03*
X106468772Y-68663618D03*
X105198772Y-68663618D03*
X105198772Y-75588618D03*
X106468772Y-75588618D03*
X107738772Y-75588618D03*
X109008772Y-75588618D03*
X110278772Y-75588618D03*
X111548772Y-75588618D03*
X112818772Y-75588618D03*
X114088772Y-75588618D03*
X115358772Y-75588618D03*
X116628772Y-75588618D03*
X117898772Y-75588618D03*
X119168772Y-75588618D03*
%TD*%
M02*
