%TF.GenerationSoftware,KiCad,Pcbnew,8.0.7-8.0.7-0~ubuntu22.04.1*%
%TF.CreationDate,2025-01-27T00:18:05+01:00*%
%TF.ProjectId,6845_v1,36383435-5f76-4312-9e6b-696361645f70,rev?*%
%TF.SameCoordinates,Original*%
%TF.FileFunction,Copper,L1,Top*%
%TF.FilePolarity,Positive*%
%FSLAX46Y46*%
G04 Gerber Fmt 4.6, Leading zero omitted, Abs format (unit mm)*
G04 Created by KiCad (PCBNEW 8.0.7-8.0.7-0~ubuntu22.04.1) date 2025-01-27 00:18:05*
%MOMM*%
%LPD*%
G01*
G04 APERTURE LIST*
G04 Aperture macros list*
%AMRoundRect*
0 Rectangle with rounded corners*
0 $1 Rounding radius*
0 $2 $3 $4 $5 $6 $7 $8 $9 X,Y pos of 4 corners*
0 Add a 4 corners polygon primitive as box body*
4,1,4,$2,$3,$4,$5,$6,$7,$8,$9,$2,$3,0*
0 Add four circle primitives for the rounded corners*
1,1,$1+$1,$2,$3*
1,1,$1+$1,$4,$5*
1,1,$1+$1,$6,$7*
1,1,$1+$1,$8,$9*
0 Add four rect primitives between the rounded corners*
20,1,$1+$1,$2,$3,$4,$5,0*
20,1,$1+$1,$4,$5,$6,$7,0*
20,1,$1+$1,$6,$7,$8,$9,0*
20,1,$1+$1,$8,$9,$2,$3,0*%
G04 Aperture macros list end*
%TA.AperFunction,SMDPad,CuDef*%
%ADD10RoundRect,0.250000X-0.650000X0.412500X-0.650000X-0.412500X0.650000X-0.412500X0.650000X0.412500X0*%
%TD*%
%TA.AperFunction,ComponentPad*%
%ADD11R,1.700000X1.700000*%
%TD*%
%TA.AperFunction,ComponentPad*%
%ADD12O,1.700000X1.700000*%
%TD*%
%TA.AperFunction,ComponentPad*%
%ADD13R,1.600000X1.600000*%
%TD*%
%TA.AperFunction,ComponentPad*%
%ADD14O,1.600000X1.600000*%
%TD*%
%TA.AperFunction,ViaPad*%
%ADD15C,0.600000*%
%TD*%
%TA.AperFunction,Conductor*%
%ADD16C,0.400000*%
%TD*%
%TA.AperFunction,Conductor*%
%ADD17C,0.200000*%
%TD*%
G04 APERTURE END LIST*
D10*
%TO.P,C2,1*%
%TO.N,+5V*%
X82150000Y-88937500D03*
%TO.P,C2,2*%
%TO.N,GND*%
X82150000Y-92062500D03*
%TD*%
%TO.P,C1,1*%
%TO.N,+5V*%
X85500000Y-88937500D03*
%TO.P,C1,2*%
%TO.N,GND*%
X85500000Y-92062500D03*
%TD*%
D11*
%TO.P,J3,1,Pin_1*%
%TO.N,unconnected-(J3-Pin_1-Pad1)*%
X147000000Y-69000000D03*
D12*
%TO.P,J3,2,Pin_2*%
%TO.N,unconnected-(J3-Pin_2-Pad2)*%
X144460000Y-69000000D03*
%TO.P,J3,3,Pin_3*%
%TO.N,unconnected-(J3-Pin_3-Pad3)*%
X147000000Y-71540000D03*
%TO.P,J3,4,Pin_4*%
%TO.N,unconnected-(J3-Pin_4-Pad4)*%
X144460000Y-71540000D03*
%TO.P,J3,5,Pin_5*%
%TO.N,/VA18*%
X147000000Y-74080000D03*
%TO.P,J3,6,Pin_6*%
%TO.N,unconnected-(J3-Pin_6-Pad6)*%
X144460000Y-74080000D03*
%TO.P,J3,7,Pin_7*%
%TO.N,/VA16*%
X147000000Y-76620000D03*
%TO.P,J3,8,Pin_8*%
%TO.N,/VA17*%
X144460000Y-76620000D03*
%TO.P,J3,9,Pin_9*%
%TO.N,/VA14*%
X147000000Y-79160000D03*
%TO.P,J3,10,Pin_10*%
%TO.N,/VA15*%
X144460000Y-79160000D03*
%TO.P,J3,11,Pin_11*%
%TO.N,/VA12*%
X147000000Y-81700000D03*
%TO.P,J3,12,Pin_12*%
%TO.N,/VA13*%
X144460000Y-81700000D03*
%TO.P,J3,13,Pin_13*%
%TO.N,/VA10*%
X147000000Y-84240000D03*
%TO.P,J3,14,Pin_14*%
%TO.N,/VA11*%
X144460000Y-84240000D03*
%TO.P,J3,15,Pin_15*%
%TO.N,/VA8*%
X147000000Y-86780000D03*
%TO.P,J3,16,Pin_16*%
%TO.N,/VA9*%
X144460000Y-86780000D03*
%TO.P,J3,17,Pin_17*%
%TO.N,/VA6*%
X147000000Y-89320000D03*
%TO.P,J3,18,Pin_18*%
%TO.N,/VA7*%
X144460000Y-89320000D03*
%TO.P,J3,19,Pin_19*%
%TO.N,/VA4*%
X147000000Y-91860000D03*
%TO.P,J3,20,Pin_20*%
%TO.N,/VA5*%
X144460000Y-91860000D03*
%TO.P,J3,21,Pin_21*%
%TO.N,/VA2*%
X147000000Y-94400000D03*
%TO.P,J3,22,Pin_22*%
%TO.N,/VA3*%
X144460000Y-94400000D03*
%TO.P,J3,23,Pin_23*%
%TO.N,/VA0*%
X147000000Y-96940000D03*
%TO.P,J3,24,Pin_24*%
%TO.N,/VA1*%
X144460000Y-96940000D03*
%TO.P,J3,25,Pin_25*%
%TO.N,/In0*%
X147000000Y-99480000D03*
%TO.P,J3,26,Pin_26*%
%TO.N,/In1*%
X144460000Y-99480000D03*
%TO.P,J3,27,Pin_27*%
%TO.N,/In2*%
X147000000Y-102020000D03*
%TO.P,J3,28,Pin_28*%
%TO.N,/DE*%
X144460000Y-102020000D03*
%TO.P,J3,29,Pin_29*%
%TO.N,/HS*%
X147000000Y-104560000D03*
%TO.P,J3,30,Pin_30*%
%TO.N,/CRSR*%
X144460000Y-104560000D03*
%TO.P,J3,31,Pin_31*%
%TO.N,/VS*%
X147000000Y-107100000D03*
%TO.P,J3,32,Pin_32*%
%TO.N,/~{RP}*%
X144460000Y-107100000D03*
%TO.P,J3,33,Pin_33*%
%TO.N,GND*%
X147000000Y-109640000D03*
%TO.P,J3,34,Pin_34*%
X144460000Y-109640000D03*
%TD*%
D13*
%TO.P,U1,1,GND*%
%TO.N,GND*%
X121412000Y-96012000D03*
D14*
%TO.P,U1,2,~{RESET}*%
%TO.N,/~{RST}*%
X118872000Y-96012000D03*
%TO.P,U1,3,LPSTB*%
%TO.N,/LP*%
X116332000Y-96012000D03*
%TO.P,U1,4,MA0*%
%TO.N,/VA0*%
X113792000Y-96012000D03*
%TO.P,U1,5,MA1*%
%TO.N,/VA1*%
X111252000Y-96012000D03*
%TO.P,U1,6,MA2*%
%TO.N,/VA2*%
X108712000Y-96012000D03*
%TO.P,U1,7,MA3*%
%TO.N,/VA3*%
X106172000Y-96012000D03*
%TO.P,U1,8,MA4*%
%TO.N,/VA4*%
X103632000Y-96012000D03*
%TO.P,U1,9,MA5*%
%TO.N,/VA5*%
X101092000Y-96012000D03*
%TO.P,U1,10,MA6*%
%TO.N,/VA6*%
X98552000Y-96012000D03*
%TO.P,U1,11,MA7*%
%TO.N,/VA7*%
X96012000Y-96012000D03*
%TO.P,U1,12,MA8*%
%TO.N,/VA8*%
X93472000Y-96012000D03*
%TO.P,U1,13,MA9*%
%TO.N,/VA9*%
X90932000Y-96012000D03*
%TO.P,U1,14,MA10*%
%TO.N,/VA10*%
X88392000Y-96012000D03*
%TO.P,U1,15,MA11*%
%TO.N,/VA11*%
X85852000Y-96012000D03*
%TO.P,U1,16,MA12*%
%TO.N,/VA12*%
X83312000Y-96012000D03*
%TO.P,U1,17,MA13*%
%TO.N,/VA13*%
X80772000Y-96012000D03*
%TO.P,U1,18,DE*%
%TO.N,/DE*%
X78232000Y-96012000D03*
%TO.P,U1,19,CURSOR*%
%TO.N,/CRSR*%
X75692000Y-96012000D03*
%TO.P,U1,20,VCC*%
%TO.N,+5V*%
X73152000Y-96012000D03*
%TO.P,U1,21,CLK*%
%TO.N,/VCLK*%
X73152000Y-80772000D03*
%TO.P,U1,22,R/~{W}*%
%TO.N,/R{slash}~{W}*%
X75692000Y-80772000D03*
%TO.P,U1,23,E*%
%TO.N,/PHI2*%
X78232000Y-80772000D03*
%TO.P,U1,24,RS*%
%TO.N,/A0#*%
X80772000Y-80772000D03*
%TO.P,U1,25,~{CS}*%
%TO.N,/~{CS}*%
X83312000Y-80772000D03*
%TO.P,U1,26,D7*%
%TO.N,/D7*%
X85852000Y-80772000D03*
%TO.P,U1,27,D6*%
%TO.N,/D6*%
X88392000Y-80772000D03*
%TO.P,U1,28,D5*%
%TO.N,/D5*%
X90932000Y-80772000D03*
%TO.P,U1,29,D4*%
%TO.N,/D4*%
X93472000Y-80772000D03*
%TO.P,U1,30,D3*%
%TO.N,/D3*%
X96012000Y-80772000D03*
%TO.P,U1,31,D2*%
%TO.N,/D2*%
X98552000Y-80772000D03*
%TO.P,U1,32,D1*%
%TO.N,/D1*%
X101092000Y-80772000D03*
%TO.P,U1,33,D0*%
%TO.N,/D0*%
X103632000Y-80772000D03*
%TO.P,U1,34,RA4*%
%TO.N,/VA18*%
X106172000Y-80772000D03*
%TO.P,U1,35,RA3*%
%TO.N,/VA17*%
X108712000Y-80772000D03*
%TO.P,U1,36,RA2*%
%TO.N,/VA16*%
X111252000Y-80772000D03*
%TO.P,U1,37,RA1*%
%TO.N,/VA15*%
X113792000Y-80772000D03*
%TO.P,U1,38,RA0*%
%TO.N,/VA14*%
X116332000Y-80772000D03*
%TO.P,U1,39,HS*%
%TO.N,/HS*%
X118872000Y-80772000D03*
%TO.P,U1,40,VS*%
%TO.N,/VS*%
X121412000Y-80772000D03*
%TD*%
D11*
%TO.P,J1,1,Pin_1*%
%TO.N,GND*%
X53000000Y-109640000D03*
D12*
%TO.P,J1,2,Pin_2*%
X55540000Y-109640000D03*
%TO.P,J1,3,Pin_3*%
%TO.N,/D1*%
X53000000Y-107100000D03*
%TO.P,J1,4,Pin_4*%
%TO.N,/D0*%
X55540000Y-107100000D03*
%TO.P,J1,5,Pin_5*%
%TO.N,/D3*%
X53000000Y-104560000D03*
%TO.P,J1,6,Pin_6*%
%TO.N,/D2*%
X55540000Y-104560000D03*
%TO.P,J1,7,Pin_7*%
%TO.N,/D5*%
X53000000Y-102020000D03*
%TO.P,J1,8,Pin_8*%
%TO.N,/D4*%
X55540000Y-102020000D03*
%TO.P,J1,9,Pin_9*%
%TO.N,/D7*%
X53000000Y-99480000D03*
%TO.P,J1,10,Pin_10*%
%TO.N,/D6*%
X55540000Y-99480000D03*
%TO.P,J1,11,Pin_11*%
%TO.N,/Out1*%
X53000000Y-96940000D03*
%TO.P,J1,12,Pin_12*%
%TO.N,/Out0*%
X55540000Y-96940000D03*
%TO.P,J1,13,Pin_13*%
%TO.N,/Out3*%
X53000000Y-94400000D03*
%TO.P,J1,14,Pin_14*%
%TO.N,/Out2*%
X55540000Y-94400000D03*
%TO.P,J1,15,Pin_15*%
%TO.N,/Out5*%
X53000000Y-91860000D03*
%TO.P,J1,16,Pin_16*%
%TO.N,/Out4*%
X55540000Y-91860000D03*
%TO.P,J1,17,Pin_17*%
%TO.N,/Out7*%
X53000000Y-89320000D03*
%TO.P,J1,18,Pin_18*%
%TO.N,/Out6*%
X55540000Y-89320000D03*
%TO.P,J1,19,Pin_19*%
%TO.N,/~{CS}*%
X53000000Y-86780000D03*
%TO.P,J1,20,Pin_20*%
%TO.N,/VCLK*%
X55540000Y-86780000D03*
%TO.P,J1,21,Pin_21*%
%TO.N,/A1#*%
X53000000Y-84240000D03*
%TO.P,J1,22,Pin_22*%
%TO.N,/R{slash}~{W}*%
X55540000Y-84240000D03*
%TO.P,J1,23,Pin_23*%
%TO.N,/~{RD}*%
X53000000Y-81700000D03*
%TO.P,J1,24,Pin_24*%
%TO.N,/A0#*%
X55540000Y-81700000D03*
%TO.P,J1,25,Pin_25*%
%TO.N,/~{RST}*%
X53000000Y-79160000D03*
%TO.P,J1,26,Pin_26*%
%TO.N,/~{WR}*%
X55540000Y-79160000D03*
%TO.P,J1,27,Pin_27*%
%TO.N,/CH0*%
X53000000Y-76620000D03*
%TO.P,J1,28,Pin_28*%
%TO.N,/PHI2*%
X55540000Y-76620000D03*
%TO.P,J1,29,Pin_29*%
%TO.N,/Y*%
X53000000Y-74080000D03*
%TO.P,J1,30,Pin_30*%
%TO.N,/A*%
X55540000Y-74080000D03*
%TO.P,J1,31,Pin_31*%
%TO.N,/B*%
X53000000Y-71540000D03*
%TO.P,J1,32,Pin_32*%
%TO.N,unconnected-(J1-Pin_32-Pad32)*%
X55540000Y-71540000D03*
%TO.P,J1,33,Pin_33*%
%TO.N,+5V*%
X53000000Y-69000000D03*
%TO.P,J1,34,Pin_34*%
X55540000Y-69000000D03*
%TD*%
D15*
%TO.N,/VA13*%
X142748000Y-81700000D03*
%TO.N,/VA11*%
X141336000Y-84328000D03*
%TO.N,/DE*%
X137922000Y-102020000D03*
%TO.N,/CRSR*%
X138430000Y-104560000D03*
%TO.N,+5V*%
X85500000Y-88937500D03*
%TO.N,/PHI2*%
X77978000Y-76708000D03*
%TO.N,*%
X90424000Y-76962000D03*
X114554000Y-107696000D03*
X59690000Y-85852000D03*
X83820000Y-71120000D03*
X68580000Y-96520000D03*
X135128000Y-85344000D03*
X107950000Y-71374000D03*
X106680000Y-89662000D03*
X102870000Y-76962000D03*
X125222000Y-85344000D03*
X75438000Y-110236000D03*
X69850000Y-86360000D03*
X127254000Y-70612000D03*
X106680000Y-84836000D03*
X139192000Y-80264000D03*
X59182000Y-95758000D03*
X129540000Y-91440000D03*
X114808000Y-89408000D03*
X97536000Y-71120000D03*
X74930000Y-71120000D03*
X91948000Y-110236000D03*
X116332000Y-71120000D03*
X118872000Y-84328000D03*
X128270000Y-80264000D03*
X75438000Y-85090000D03*
X138684000Y-70358000D03*
X82296000Y-85852000D03*
%TO.N,/VA2*%
X133658194Y-95758000D03*
%TO.N,/VA9*%
X139700000Y-87122000D03*
%TO.N,/VA5*%
X136398000Y-91694000D03*
%TO.N,/VA10*%
X140716000Y-85598000D03*
%TO.N,/VA3*%
X134620000Y-94488000D03*
%TO.N,/VA0*%
X130718355Y-97698355D03*
%TO.N,/VA8*%
X138938000Y-88392000D03*
%TO.N,/VA7*%
X138176000Y-89662000D03*
%TO.N,/~{RST}*%
X115570000Y-85598000D03*
%TO.N,/VA1*%
X132334000Y-97028000D03*
%TO.N,/VA4*%
X135636000Y-93218000D03*
%TO.N,/VA6*%
X137414000Y-90678000D03*
%TD*%
D16*
%TO.N,+5V*%
X82150000Y-88937500D02*
X79095130Y-88937500D01*
X79095130Y-88937500D02*
X73152000Y-94880630D01*
X73152000Y-94880630D02*
X73152000Y-96012000D01*
X82150000Y-88937500D02*
X85500000Y-88937500D01*
D17*
%TO.N,/VA12*%
X147000000Y-81700000D02*
X145850000Y-80550000D01*
X145850000Y-80550000D02*
X142208000Y-80550000D01*
%TO.N,/VA7*%
X101702000Y-101702000D02*
X131781686Y-101702000D01*
%TO.N,/VA12*%
X142208000Y-80550000D02*
X141478000Y-81280000D01*
X141478000Y-82296000D02*
X141986000Y-82804000D01*
%TO.N,/VA10*%
X132417372Y-102902000D02*
X140716000Y-94603372D01*
%TO.N,/VA12*%
X141986000Y-82804000D02*
X141986000Y-94799686D01*
%TO.N,/VA10*%
X95282000Y-102902000D02*
X132417372Y-102902000D01*
%TO.N,/VA13*%
X88862000Y-104102000D02*
X133896000Y-104102000D01*
X142621000Y-81827000D02*
X142748000Y-81700000D01*
%TO.N,/VA12*%
X141986000Y-94799686D02*
X133083686Y-103702000D01*
%TO.N,/VA10*%
X140716000Y-94603372D02*
X140716000Y-85598000D01*
%TO.N,/VA13*%
X133896000Y-104102000D02*
X142621000Y-95377000D01*
%TO.N,/VA12*%
X133083686Y-103702000D02*
X91002000Y-103702000D01*
%TO.N,/VA9*%
X90932000Y-96012000D02*
X97422000Y-102502000D01*
%TO.N,/CRSR*%
X75692000Y-96012000D02*
X84582000Y-104902000D01*
%TO.N,/VA7*%
X138176000Y-95307686D02*
X138176000Y-89662000D01*
X96012000Y-96012000D02*
X101702000Y-101702000D01*
%TO.N,/VA8*%
X138938000Y-95250000D02*
X138938000Y-88392000D01*
X132086000Y-102102000D02*
X138938000Y-95250000D01*
X99562000Y-102102000D02*
X132086000Y-102102000D01*
X93472000Y-96012000D02*
X99562000Y-102102000D01*
%TO.N,/VA10*%
X88392000Y-96012000D02*
X95282000Y-102902000D01*
%TO.N,/VA12*%
X141478000Y-81280000D02*
X141478000Y-82296000D01*
%TO.N,/VA9*%
X139700000Y-95053686D02*
X139700000Y-87122000D01*
%TO.N,/VA11*%
X141336000Y-94884000D02*
X141336000Y-84328000D01*
%TO.N,/VA9*%
X132251686Y-102502000D02*
X139700000Y-95053686D01*
%TO.N,/CRSR*%
X138088000Y-104902000D02*
X138430000Y-104560000D01*
%TO.N,/VA12*%
X91002000Y-103702000D02*
X83312000Y-96012000D01*
%TO.N,/VA11*%
X132918000Y-103302000D02*
X141336000Y-94884000D01*
%TO.N,/VA9*%
X97422000Y-102502000D02*
X132251686Y-102502000D01*
%TO.N,/VA11*%
X93142000Y-103302000D02*
X132918000Y-103302000D01*
%TO.N,/VA13*%
X80772000Y-96012000D02*
X88862000Y-104102000D01*
%TO.N,/DE*%
X135440000Y-104502000D02*
X137922000Y-102020000D01*
%TO.N,/VA13*%
X142621000Y-95377000D02*
X142621000Y-81827000D01*
%TO.N,/VA11*%
X85852000Y-96012000D02*
X93142000Y-103302000D01*
%TO.N,/DE*%
X86722000Y-104502000D02*
X135440000Y-104502000D01*
%TO.N,/VA7*%
X131781686Y-101702000D02*
X138176000Y-95307686D01*
%TO.N,/DE*%
X78232000Y-96012000D02*
X86722000Y-104502000D01*
%TO.N,/CRSR*%
X84582000Y-104902000D02*
X138088000Y-104902000D01*
%TO.N,/VA1*%
X130410000Y-98952000D02*
X132334000Y-97028000D01*
%TO.N,/VA0*%
X116332000Y-98552000D02*
X113792000Y-96012000D01*
%TO.N,/VA1*%
X114192000Y-98952000D02*
X130410000Y-98952000D01*
X111252000Y-96012000D02*
X114192000Y-98952000D01*
%TO.N,/VA0*%
X130718355Y-97698355D02*
X129864710Y-98552000D01*
X129864710Y-98552000D02*
X116332000Y-98552000D01*
%TO.N,/VA6*%
X131642000Y-101276000D02*
X137414000Y-95504000D01*
X103816000Y-101276000D02*
X131642000Y-101276000D01*
X98552000Y-96012000D02*
X103816000Y-101276000D01*
X137414000Y-95504000D02*
X137414000Y-90678000D01*
%TO.N,/VA5*%
X136398000Y-95815686D02*
X136398000Y-91694000D01*
X131337686Y-100876000D02*
X136398000Y-95815686D01*
X105956000Y-100876000D02*
X131337686Y-100876000D01*
X101092000Y-96012000D02*
X105956000Y-100876000D01*
%TO.N,/VA4*%
X108096000Y-100476000D02*
X131172000Y-100476000D01*
X103632000Y-96012000D02*
X108096000Y-100476000D01*
X131172000Y-100476000D02*
X135636000Y-96012000D01*
X135636000Y-96012000D02*
X135636000Y-93218000D01*
%TO.N,/VA3*%
X130770925Y-100076000D02*
X134620000Y-96226925D01*
X110236000Y-100076000D02*
X130770925Y-100076000D01*
X134620000Y-96226925D02*
X134620000Y-94488000D01*
X106172000Y-96012000D02*
X110236000Y-100076000D01*
%TO.N,/VA2*%
X133658194Y-96623045D02*
X133658194Y-95758000D01*
X130675239Y-99606000D02*
X133658194Y-96623045D01*
X112306000Y-99606000D02*
X130675239Y-99606000D01*
X108712000Y-96012000D02*
X112306000Y-99606000D01*
%TO.N,/~{RST}*%
X115570000Y-85598000D02*
X115062000Y-85090000D01*
X115062000Y-85090000D02*
X115062000Y-80264000D01*
X115062000Y-80264000D02*
X113538000Y-78740000D01*
X54150000Y-78010000D02*
X53000000Y-79160000D01*
X113538000Y-78740000D02*
X82296000Y-78740000D01*
X82296000Y-78740000D02*
X79248000Y-75692000D01*
X79248000Y-75692000D02*
X58166000Y-75692000D01*
X58166000Y-75692000D02*
X55848000Y-78010000D01*
X55848000Y-78010000D02*
X54150000Y-78010000D01*
%TO.N,/PHI2*%
X77978000Y-76708000D02*
X78232000Y-76962000D01*
X78232000Y-76962000D02*
X78232000Y-80772000D01*
D16*
%TO.N,GND*%
X61860000Y-109640000D02*
X53000000Y-109640000D01*
X77900693Y-92106250D02*
X74492000Y-95514943D01*
X82150000Y-92062500D02*
X82106250Y-92106250D01*
X117462500Y-92062500D02*
X121412000Y-96012000D01*
X74492000Y-97008000D02*
X61860000Y-109640000D01*
X74492000Y-95514943D02*
X74492000Y-97008000D01*
X82106250Y-92106250D02*
X77900693Y-92106250D01*
X82150000Y-92062500D02*
X117462500Y-92062500D01*
%TD*%
%TA.AperFunction,NonConductor*%
G36*
X148942539Y-67020185D02*
G01*
X148988294Y-67072989D01*
X148999500Y-67124500D01*
X148999500Y-111375500D01*
X148979815Y-111442539D01*
X148927011Y-111488294D01*
X148875500Y-111499500D01*
X51124500Y-111499500D01*
X51057461Y-111479815D01*
X51011706Y-111427011D01*
X51000500Y-111375500D01*
X51000500Y-68999999D01*
X51644341Y-68999999D01*
X51644341Y-69000000D01*
X51664936Y-69235403D01*
X51664938Y-69235413D01*
X51726094Y-69463655D01*
X51726096Y-69463659D01*
X51726097Y-69463663D01*
X51806004Y-69635023D01*
X51825965Y-69677830D01*
X51825967Y-69677834D01*
X51861223Y-69728184D01*
X51961501Y-69871396D01*
X51961506Y-69871402D01*
X52128597Y-70038493D01*
X52128603Y-70038498D01*
X52314158Y-70168425D01*
X52357783Y-70223002D01*
X52364977Y-70292500D01*
X52333454Y-70354855D01*
X52314158Y-70371575D01*
X52128597Y-70501505D01*
X51961505Y-70668597D01*
X51825965Y-70862169D01*
X51825964Y-70862171D01*
X51726098Y-71076335D01*
X51726094Y-71076344D01*
X51664938Y-71304586D01*
X51664936Y-71304596D01*
X51644341Y-71539999D01*
X51644341Y-71540000D01*
X51664936Y-71775403D01*
X51664938Y-71775413D01*
X51726094Y-72003655D01*
X51726096Y-72003659D01*
X51726097Y-72003663D01*
X51798704Y-72159368D01*
X51825965Y-72217830D01*
X51825967Y-72217834D01*
X51934281Y-72372521D01*
X51961501Y-72411396D01*
X51961506Y-72411402D01*
X52128597Y-72578493D01*
X52128603Y-72578498D01*
X52314158Y-72708425D01*
X52357783Y-72763002D01*
X52364977Y-72832500D01*
X52333454Y-72894855D01*
X52314158Y-72911575D01*
X52128597Y-73041505D01*
X51961505Y-73208597D01*
X51825965Y-73402169D01*
X51825964Y-73402171D01*
X51726098Y-73616335D01*
X51726094Y-73616344D01*
X51664938Y-73844586D01*
X51664936Y-73844596D01*
X51644341Y-74079999D01*
X51644341Y-74080000D01*
X51664936Y-74315403D01*
X51664938Y-74315413D01*
X51726094Y-74543655D01*
X51726096Y-74543659D01*
X51726097Y-74543663D01*
X51730000Y-74552032D01*
X51825965Y-74757830D01*
X51825967Y-74757834D01*
X51934281Y-74912521D01*
X51961501Y-74951396D01*
X51961506Y-74951402D01*
X52128597Y-75118493D01*
X52128603Y-75118498D01*
X52314158Y-75248425D01*
X52357783Y-75303002D01*
X52364977Y-75372500D01*
X52333454Y-75434855D01*
X52314158Y-75451575D01*
X52128597Y-75581505D01*
X51961505Y-75748597D01*
X51825965Y-75942169D01*
X51825964Y-75942171D01*
X51726098Y-76156335D01*
X51726094Y-76156344D01*
X51664938Y-76384586D01*
X51664936Y-76384596D01*
X51644341Y-76619999D01*
X51644341Y-76620000D01*
X51664936Y-76855403D01*
X51664938Y-76855413D01*
X51726094Y-77083655D01*
X51726096Y-77083659D01*
X51726097Y-77083663D01*
X51752953Y-77141255D01*
X51825965Y-77297830D01*
X51825967Y-77297834D01*
X51904157Y-77409500D01*
X51961501Y-77491396D01*
X51961506Y-77491402D01*
X52128597Y-77658493D01*
X52128603Y-77658498D01*
X52314158Y-77788425D01*
X52357783Y-77843002D01*
X52364977Y-77912500D01*
X52333454Y-77974855D01*
X52314158Y-77991575D01*
X52128597Y-78121505D01*
X51961505Y-78288597D01*
X51825965Y-78482169D01*
X51825964Y-78482171D01*
X51726098Y-78696335D01*
X51726094Y-78696344D01*
X51664938Y-78924586D01*
X51664936Y-78924596D01*
X51644341Y-79159999D01*
X51644341Y-79160000D01*
X51664936Y-79395403D01*
X51664938Y-79395413D01*
X51726094Y-79623655D01*
X51726096Y-79623659D01*
X51726097Y-79623663D01*
X51800620Y-79783478D01*
X51825965Y-79837830D01*
X51825967Y-79837834D01*
X51904157Y-79949500D01*
X51961501Y-80031396D01*
X51961506Y-80031402D01*
X52128597Y-80198493D01*
X52128603Y-80198498D01*
X52314158Y-80328425D01*
X52357783Y-80383002D01*
X52364977Y-80452500D01*
X52333454Y-80514855D01*
X52314158Y-80531575D01*
X52128597Y-80661505D01*
X51961505Y-80828597D01*
X51825965Y-81022169D01*
X51825964Y-81022171D01*
X51726098Y-81236335D01*
X51726094Y-81236344D01*
X51664938Y-81464586D01*
X51664936Y-81464596D01*
X51644341Y-81699999D01*
X51644341Y-81700000D01*
X51664936Y-81935403D01*
X51664938Y-81935413D01*
X51726094Y-82163655D01*
X51726096Y-82163659D01*
X51726097Y-82163663D01*
X51750940Y-82216939D01*
X51825965Y-82377830D01*
X51825967Y-82377834D01*
X51930965Y-82527785D01*
X51961504Y-82571400D01*
X51961505Y-82571401D01*
X52128597Y-82738493D01*
X52128603Y-82738498D01*
X52314158Y-82868425D01*
X52357783Y-82923002D01*
X52364977Y-82992500D01*
X52333454Y-83054855D01*
X52314158Y-83071575D01*
X52128597Y-83201505D01*
X51961505Y-83368597D01*
X51825965Y-83562169D01*
X51825964Y-83562171D01*
X51726098Y-83776335D01*
X51726094Y-83776344D01*
X51664938Y-84004586D01*
X51664936Y-84004596D01*
X51644341Y-84239999D01*
X51644341Y-84240000D01*
X51664936Y-84475403D01*
X51664938Y-84475413D01*
X51726094Y-84703655D01*
X51726096Y-84703659D01*
X51726097Y-84703663D01*
X51806004Y-84875023D01*
X51825965Y-84917830D01*
X51825967Y-84917834D01*
X51916015Y-85046435D01*
X51961501Y-85111396D01*
X51961506Y-85111402D01*
X52128597Y-85278493D01*
X52128603Y-85278498D01*
X52314158Y-85408425D01*
X52357783Y-85463002D01*
X52364977Y-85532500D01*
X52333454Y-85594855D01*
X52314158Y-85611575D01*
X52128597Y-85741505D01*
X51961505Y-85908597D01*
X51825965Y-86102169D01*
X51825964Y-86102171D01*
X51726098Y-86316335D01*
X51726094Y-86316344D01*
X51664938Y-86544586D01*
X51664936Y-86544596D01*
X51644341Y-86779999D01*
X51644341Y-86780000D01*
X51664936Y-87015403D01*
X51664938Y-87015413D01*
X51726094Y-87243655D01*
X51726096Y-87243659D01*
X51726097Y-87243663D01*
X51730000Y-87252032D01*
X51825965Y-87457830D01*
X51825967Y-87457834D01*
X51898760Y-87561792D01*
X51961501Y-87651396D01*
X51961506Y-87651402D01*
X52128597Y-87818493D01*
X52128603Y-87818498D01*
X52314158Y-87948425D01*
X52357783Y-88003002D01*
X52364977Y-88072500D01*
X52333454Y-88134855D01*
X52314158Y-88151575D01*
X52128597Y-88281505D01*
X51961505Y-88448597D01*
X51825965Y-88642169D01*
X51825964Y-88642171D01*
X51726098Y-88856335D01*
X51726094Y-88856344D01*
X51664938Y-89084586D01*
X51664936Y-89084596D01*
X51644341Y-89319999D01*
X51644341Y-89320000D01*
X51664936Y-89555403D01*
X51664938Y-89555413D01*
X51726094Y-89783655D01*
X51726096Y-89783659D01*
X51726097Y-89783663D01*
X51806004Y-89955023D01*
X51825965Y-89997830D01*
X51825967Y-89997834D01*
X51897855Y-90100500D01*
X51961501Y-90191396D01*
X51961506Y-90191402D01*
X52128597Y-90358493D01*
X52128603Y-90358498D01*
X52314158Y-90488425D01*
X52357783Y-90543002D01*
X52364977Y-90612500D01*
X52333454Y-90674855D01*
X52314158Y-90691575D01*
X52128597Y-90821505D01*
X51961505Y-90988597D01*
X51825965Y-91182169D01*
X51825964Y-91182171D01*
X51726098Y-91396335D01*
X51726094Y-91396344D01*
X51664938Y-91624586D01*
X51664936Y-91624596D01*
X51644341Y-91859999D01*
X51644341Y-91860000D01*
X51664936Y-92095403D01*
X51664938Y-92095413D01*
X51726094Y-92323655D01*
X51726096Y-92323659D01*
X51726097Y-92323663D01*
X51806004Y-92495023D01*
X51825965Y-92537830D01*
X51825967Y-92537834D01*
X51861223Y-92588184D01*
X51961501Y-92731396D01*
X51961506Y-92731402D01*
X52128597Y-92898493D01*
X52128603Y-92898498D01*
X52314158Y-93028425D01*
X52357783Y-93083002D01*
X52364977Y-93152500D01*
X52333454Y-93214855D01*
X52314158Y-93231575D01*
X52128597Y-93361505D01*
X51961505Y-93528597D01*
X51825965Y-93722169D01*
X51825964Y-93722171D01*
X51726098Y-93936335D01*
X51726094Y-93936344D01*
X51664938Y-94164586D01*
X51664936Y-94164596D01*
X51644341Y-94399999D01*
X51644341Y-94400000D01*
X51664936Y-94635403D01*
X51664938Y-94635413D01*
X51726094Y-94863655D01*
X51726096Y-94863659D01*
X51726097Y-94863663D01*
X51806004Y-95035023D01*
X51825965Y-95077830D01*
X51825967Y-95077834D01*
X51886392Y-95164129D01*
X51961501Y-95271396D01*
X51961506Y-95271402D01*
X52128597Y-95438493D01*
X52128603Y-95438498D01*
X52314158Y-95568425D01*
X52357783Y-95623002D01*
X52364977Y-95692500D01*
X52333454Y-95754855D01*
X52314158Y-95771575D01*
X52128597Y-95901505D01*
X51961505Y-96068597D01*
X51825965Y-96262169D01*
X51825964Y-96262171D01*
X51726098Y-96476335D01*
X51726094Y-96476344D01*
X51664938Y-96704586D01*
X51664936Y-96704596D01*
X51644341Y-96939999D01*
X51644341Y-96940000D01*
X51664936Y-97175403D01*
X51664938Y-97175413D01*
X51726094Y-97403655D01*
X51726096Y-97403659D01*
X51726097Y-97403663D01*
X51779929Y-97519105D01*
X51825965Y-97617830D01*
X51825967Y-97617834D01*
X51934281Y-97772521D01*
X51961501Y-97811396D01*
X51961506Y-97811402D01*
X52128597Y-97978493D01*
X52128603Y-97978498D01*
X52314158Y-98108425D01*
X52357783Y-98163002D01*
X52364977Y-98232500D01*
X52333454Y-98294855D01*
X52314158Y-98311575D01*
X52128597Y-98441505D01*
X51961505Y-98608597D01*
X51825965Y-98802169D01*
X51825964Y-98802171D01*
X51726098Y-99016335D01*
X51726094Y-99016344D01*
X51664938Y-99244586D01*
X51664936Y-99244596D01*
X51644341Y-99479999D01*
X51644341Y-99480000D01*
X51664936Y-99715403D01*
X51664938Y-99715413D01*
X51726094Y-99943655D01*
X51726096Y-99943659D01*
X51726097Y-99943663D01*
X51730000Y-99952032D01*
X51825965Y-100157830D01*
X51825967Y-100157834D01*
X51891040Y-100250767D01*
X51961501Y-100351396D01*
X51961506Y-100351402D01*
X52128597Y-100518493D01*
X52128603Y-100518498D01*
X52314158Y-100648425D01*
X52357783Y-100703002D01*
X52364977Y-100772500D01*
X52333454Y-100834855D01*
X52314158Y-100851575D01*
X52128597Y-100981505D01*
X51961505Y-101148597D01*
X51825965Y-101342169D01*
X51825964Y-101342171D01*
X51726098Y-101556335D01*
X51726094Y-101556344D01*
X51664938Y-101784586D01*
X51664936Y-101784596D01*
X51644341Y-102019999D01*
X51644341Y-102020000D01*
X51664936Y-102255403D01*
X51664938Y-102255413D01*
X51726094Y-102483655D01*
X51726096Y-102483659D01*
X51726097Y-102483663D01*
X51816143Y-102676767D01*
X51825965Y-102697830D01*
X51825967Y-102697834D01*
X51859546Y-102745789D01*
X51961501Y-102891396D01*
X51961506Y-102891402D01*
X52128597Y-103058493D01*
X52128603Y-103058498D01*
X52314158Y-103188425D01*
X52357783Y-103243002D01*
X52364977Y-103312500D01*
X52333454Y-103374855D01*
X52314158Y-103391575D01*
X52128597Y-103521505D01*
X51961505Y-103688597D01*
X51825965Y-103882169D01*
X51825964Y-103882171D01*
X51726098Y-104096335D01*
X51726094Y-104096344D01*
X51664938Y-104324586D01*
X51664936Y-104324596D01*
X51644341Y-104559999D01*
X51644341Y-104560000D01*
X51664936Y-104795403D01*
X51664938Y-104795413D01*
X51726094Y-105023655D01*
X51726096Y-105023659D01*
X51726097Y-105023663D01*
X51730000Y-105032032D01*
X51825965Y-105237830D01*
X51825967Y-105237834D01*
X51927281Y-105382524D01*
X51961505Y-105431401D01*
X52128597Y-105598493D01*
X52128603Y-105598498D01*
X52314158Y-105728425D01*
X52357783Y-105783002D01*
X52364977Y-105852500D01*
X52333454Y-105914855D01*
X52314158Y-105931575D01*
X52128597Y-106061505D01*
X51961505Y-106228597D01*
X51825965Y-106422169D01*
X51825964Y-106422171D01*
X51726098Y-106636335D01*
X51726094Y-106636344D01*
X51664938Y-106864586D01*
X51664936Y-106864596D01*
X51644341Y-107099999D01*
X51644341Y-107100000D01*
X51664936Y-107335403D01*
X51664938Y-107335413D01*
X51726094Y-107563655D01*
X51726096Y-107563659D01*
X51726097Y-107563663D01*
X51806004Y-107735023D01*
X51825965Y-107777830D01*
X51825967Y-107777834D01*
X51934281Y-107932521D01*
X51961501Y-107971396D01*
X51961506Y-107971402D01*
X52083430Y-108093326D01*
X52116915Y-108154649D01*
X52111931Y-108224341D01*
X52070059Y-108280274D01*
X52039083Y-108297189D01*
X51907669Y-108346203D01*
X51907664Y-108346206D01*
X51792455Y-108432452D01*
X51792452Y-108432455D01*
X51706206Y-108547664D01*
X51706202Y-108547671D01*
X51655908Y-108682517D01*
X51649501Y-108742116D01*
X51649500Y-108742135D01*
X51649500Y-110537870D01*
X51649501Y-110537876D01*
X51655908Y-110597483D01*
X51706202Y-110732328D01*
X51706206Y-110732335D01*
X51792452Y-110847544D01*
X51792455Y-110847547D01*
X51907664Y-110933793D01*
X51907671Y-110933797D01*
X52042517Y-110984091D01*
X52042516Y-110984091D01*
X52049444Y-110984835D01*
X52102127Y-110990500D01*
X53897872Y-110990499D01*
X53957483Y-110984091D01*
X54092331Y-110933796D01*
X54207546Y-110847546D01*
X54293796Y-110732331D01*
X54342810Y-110600916D01*
X54384681Y-110544984D01*
X54450145Y-110520566D01*
X54518418Y-110535417D01*
X54546673Y-110556569D01*
X54668599Y-110678495D01*
X54753955Y-110738262D01*
X54862165Y-110814032D01*
X54862167Y-110814033D01*
X54862170Y-110814035D01*
X55076337Y-110913903D01*
X55304592Y-110975063D01*
X55481034Y-110990500D01*
X55539999Y-110995659D01*
X55540000Y-110995659D01*
X55540001Y-110995659D01*
X55598966Y-110990500D01*
X55775408Y-110975063D01*
X56003663Y-110913903D01*
X56217830Y-110814035D01*
X56411401Y-110678495D01*
X56578495Y-110511401D01*
X56661136Y-110393376D01*
X56715713Y-110349752D01*
X56762711Y-110340500D01*
X61928996Y-110340500D01*
X62042962Y-110317830D01*
X62064328Y-110313580D01*
X62140045Y-110282217D01*
X62191807Y-110260777D01*
X62191808Y-110260776D01*
X62191811Y-110260775D01*
X62228896Y-110235996D01*
X74632435Y-110235996D01*
X74632435Y-110236003D01*
X74652630Y-110415249D01*
X74652631Y-110415254D01*
X74712211Y-110585523D01*
X74770630Y-110678495D01*
X74808184Y-110738262D01*
X74935738Y-110865816D01*
X75088478Y-110961789D01*
X75185273Y-110995659D01*
X75258745Y-111021368D01*
X75258750Y-111021369D01*
X75437996Y-111041565D01*
X75438000Y-111041565D01*
X75438004Y-111041565D01*
X75617249Y-111021369D01*
X75617252Y-111021368D01*
X75617255Y-111021368D01*
X75787522Y-110961789D01*
X75940262Y-110865816D01*
X76067816Y-110738262D01*
X76163789Y-110585522D01*
X76223368Y-110415255D01*
X76225833Y-110393377D01*
X76243565Y-110236003D01*
X76243565Y-110235996D01*
X91142435Y-110235996D01*
X91142435Y-110236003D01*
X91162630Y-110415249D01*
X91162631Y-110415254D01*
X91222211Y-110585523D01*
X91280630Y-110678495D01*
X91318184Y-110738262D01*
X91445738Y-110865816D01*
X91598478Y-110961789D01*
X91695273Y-110995659D01*
X91768745Y-111021368D01*
X91768750Y-111021369D01*
X91947996Y-111041565D01*
X91948000Y-111041565D01*
X91948004Y-111041565D01*
X92127249Y-111021369D01*
X92127252Y-111021368D01*
X92127255Y-111021368D01*
X92297522Y-110961789D01*
X92450262Y-110865816D01*
X92577816Y-110738262D01*
X92673789Y-110585522D01*
X92733368Y-110415255D01*
X92735833Y-110393377D01*
X92753565Y-110236003D01*
X92753565Y-110235996D01*
X92733369Y-110056750D01*
X92733368Y-110056745D01*
X92673788Y-109886476D01*
X92577815Y-109733737D01*
X92450262Y-109606184D01*
X92297523Y-109510211D01*
X92127254Y-109450631D01*
X92127249Y-109450630D01*
X91948004Y-109430435D01*
X91947996Y-109430435D01*
X91768750Y-109450630D01*
X91768745Y-109450631D01*
X91598476Y-109510211D01*
X91445737Y-109606184D01*
X91318184Y-109733737D01*
X91222211Y-109886476D01*
X91162631Y-110056745D01*
X91162630Y-110056750D01*
X91142435Y-110235996D01*
X76243565Y-110235996D01*
X76223369Y-110056750D01*
X76223368Y-110056745D01*
X76163788Y-109886476D01*
X76067815Y-109733737D01*
X75940262Y-109606184D01*
X75787523Y-109510211D01*
X75617254Y-109450631D01*
X75617249Y-109450630D01*
X75438004Y-109430435D01*
X75437996Y-109430435D01*
X75258750Y-109450630D01*
X75258745Y-109450631D01*
X75088476Y-109510211D01*
X74935737Y-109606184D01*
X74808184Y-109733737D01*
X74712211Y-109886476D01*
X74652631Y-110056745D01*
X74652630Y-110056750D01*
X74632435Y-110235996D01*
X62228896Y-110235996D01*
X62306543Y-110184114D01*
X64794661Y-107695996D01*
X113748435Y-107695996D01*
X113748435Y-107696003D01*
X113768630Y-107875249D01*
X113768631Y-107875254D01*
X113828211Y-108045523D01*
X113886630Y-108138495D01*
X113924184Y-108198262D01*
X114051738Y-108325816D01*
X114204478Y-108421789D01*
X114330726Y-108465965D01*
X114374745Y-108481368D01*
X114374750Y-108481369D01*
X114553996Y-108501565D01*
X114554000Y-108501565D01*
X114554004Y-108501565D01*
X114733249Y-108481369D01*
X114733252Y-108481368D01*
X114733255Y-108481368D01*
X114903522Y-108421789D01*
X115056262Y-108325816D01*
X115183816Y-108198262D01*
X115279789Y-108045522D01*
X115339368Y-107875255D01*
X115339369Y-107875249D01*
X115359565Y-107696003D01*
X115359565Y-107695996D01*
X115339369Y-107516750D01*
X115339368Y-107516745D01*
X115279788Y-107346476D01*
X115183815Y-107193737D01*
X115056262Y-107066184D01*
X114903523Y-106970211D01*
X114733254Y-106910631D01*
X114733249Y-106910630D01*
X114554004Y-106890435D01*
X114553996Y-106890435D01*
X114374750Y-106910630D01*
X114374745Y-106910631D01*
X114204476Y-106970211D01*
X114051737Y-107066184D01*
X113924184Y-107193737D01*
X113828211Y-107346476D01*
X113768631Y-107516745D01*
X113768630Y-107516750D01*
X113748435Y-107695996D01*
X64794661Y-107695996D01*
X75036114Y-97454543D01*
X75112775Y-97339811D01*
X75122102Y-97317293D01*
X75165939Y-97262891D01*
X75232232Y-97240823D01*
X75268753Y-97244968D01*
X75465308Y-97297635D01*
X75607361Y-97310063D01*
X75691998Y-97317468D01*
X75692000Y-97317468D01*
X75692002Y-97317468D01*
X75748807Y-97312498D01*
X75918692Y-97297635D01*
X76014932Y-97271847D01*
X76084781Y-97273510D01*
X76134705Y-97303940D01*
X84213284Y-105382520D01*
X84213286Y-105382521D01*
X84213290Y-105382524D01*
X84350209Y-105461573D01*
X84350212Y-105461575D01*
X84350216Y-105461577D01*
X84502943Y-105502501D01*
X84502945Y-105502501D01*
X84668654Y-105502501D01*
X84668670Y-105502500D01*
X138001331Y-105502500D01*
X138001347Y-105502501D01*
X138008943Y-105502501D01*
X138167054Y-105502501D01*
X138167057Y-105502501D01*
X138319785Y-105461577D01*
X138372051Y-105431401D01*
X138456716Y-105382520D01*
X138456723Y-105382512D01*
X138459859Y-105380107D01*
X138463297Y-105378720D01*
X138463755Y-105378456D01*
X138463792Y-105378520D01*
X138521466Y-105355258D01*
X138609255Y-105345368D01*
X138779522Y-105285789D01*
X138932262Y-105189816D01*
X139059816Y-105062262D01*
X139155789Y-104909522D01*
X139215368Y-104739255D01*
X139235565Y-104560000D01*
X139215368Y-104380745D01*
X139155789Y-104210478D01*
X139059816Y-104057738D01*
X138932262Y-103930184D01*
X138855847Y-103882169D01*
X138779523Y-103834211D01*
X138609254Y-103774631D01*
X138609249Y-103774630D01*
X138430004Y-103754435D01*
X138429996Y-103754435D01*
X138250750Y-103774630D01*
X138250745Y-103774631D01*
X138080476Y-103834211D01*
X137927737Y-103930184D01*
X137800184Y-104057737D01*
X137704210Y-104210479D01*
X137701420Y-104218453D01*
X137660699Y-104275229D01*
X137595747Y-104300978D01*
X137584378Y-104301500D01*
X136789097Y-104301500D01*
X136722058Y-104281815D01*
X136676303Y-104229011D01*
X136666359Y-104159853D01*
X136695384Y-104096297D01*
X136701416Y-104089819D01*
X136970401Y-103820834D01*
X137940535Y-102850698D01*
X138001856Y-102817215D01*
X138014311Y-102815163D01*
X138101255Y-102805368D01*
X138271522Y-102745789D01*
X138424262Y-102649816D01*
X138551816Y-102522262D01*
X138647789Y-102369522D01*
X138707368Y-102199255D01*
X138712789Y-102151142D01*
X138727565Y-102020003D01*
X138727565Y-102019996D01*
X138707369Y-101840750D01*
X138707368Y-101840745D01*
X138687717Y-101784586D01*
X138647789Y-101670478D01*
X138551816Y-101517738D01*
X138424262Y-101390184D01*
X138347847Y-101342169D01*
X138271523Y-101294211D01*
X138101254Y-101234631D01*
X138101250Y-101234630D01*
X137917953Y-101213978D01*
X137853539Y-101186911D01*
X137813984Y-101129316D01*
X137811847Y-101059479D01*
X137844154Y-101003079D01*
X142979506Y-95867728D01*
X142979511Y-95867724D01*
X142989714Y-95857520D01*
X142989716Y-95857520D01*
X143101520Y-95745716D01*
X143180577Y-95608784D01*
X143214606Y-95481785D01*
X143221500Y-95456058D01*
X143221500Y-95370758D01*
X143241185Y-95303719D01*
X143293989Y-95257964D01*
X143363147Y-95248020D01*
X143426703Y-95277045D01*
X143433181Y-95283077D01*
X143588597Y-95438493D01*
X143588603Y-95438498D01*
X143774158Y-95568425D01*
X143817783Y-95623002D01*
X143824977Y-95692500D01*
X143793454Y-95754855D01*
X143774158Y-95771575D01*
X143588597Y-95901505D01*
X143421505Y-96068597D01*
X143285965Y-96262169D01*
X143285964Y-96262171D01*
X143186098Y-96476335D01*
X143186094Y-96476344D01*
X143124938Y-96704586D01*
X143124936Y-96704596D01*
X143104341Y-96939999D01*
X143104341Y-96940000D01*
X143124936Y-97175403D01*
X143124938Y-97175413D01*
X143186094Y-97403655D01*
X143186096Y-97403659D01*
X143186097Y-97403663D01*
X143239929Y-97519105D01*
X143285965Y-97617830D01*
X143285967Y-97617834D01*
X143394281Y-97772521D01*
X143421501Y-97811396D01*
X143421506Y-97811402D01*
X143588597Y-97978493D01*
X143588603Y-97978498D01*
X143774158Y-98108425D01*
X143817783Y-98163002D01*
X143824977Y-98232500D01*
X143793454Y-98294855D01*
X143774158Y-98311575D01*
X143588597Y-98441505D01*
X143421505Y-98608597D01*
X143285965Y-98802169D01*
X143285964Y-98802171D01*
X143186098Y-99016335D01*
X143186094Y-99016344D01*
X143124938Y-99244586D01*
X143124936Y-99244596D01*
X143104341Y-99479999D01*
X143104341Y-99480000D01*
X143124936Y-99715403D01*
X143124938Y-99715413D01*
X143186094Y-99943655D01*
X143186096Y-99943659D01*
X143186097Y-99943663D01*
X143190000Y-99952032D01*
X143285965Y-100157830D01*
X143285967Y-100157834D01*
X143351040Y-100250767D01*
X143421501Y-100351396D01*
X143421506Y-100351402D01*
X143588597Y-100518493D01*
X143588603Y-100518498D01*
X143774158Y-100648425D01*
X143817783Y-100703002D01*
X143824977Y-100772500D01*
X143793454Y-100834855D01*
X143774158Y-100851575D01*
X143588597Y-100981505D01*
X143421505Y-101148597D01*
X143285965Y-101342169D01*
X143285964Y-101342171D01*
X143186098Y-101556335D01*
X143186094Y-101556344D01*
X143124938Y-101784586D01*
X143124936Y-101784596D01*
X143104341Y-102019999D01*
X143104341Y-102020000D01*
X143124936Y-102255403D01*
X143124938Y-102255413D01*
X143186094Y-102483655D01*
X143186096Y-102483659D01*
X143186097Y-102483663D01*
X143276143Y-102676767D01*
X143285965Y-102697830D01*
X143285967Y-102697834D01*
X143319546Y-102745789D01*
X143421501Y-102891396D01*
X143421506Y-102891402D01*
X143588597Y-103058493D01*
X143588603Y-103058498D01*
X143774158Y-103188425D01*
X143817783Y-103243002D01*
X143824977Y-103312500D01*
X143793454Y-103374855D01*
X143774158Y-103391575D01*
X143588597Y-103521505D01*
X143421505Y-103688597D01*
X143285965Y-103882169D01*
X143285964Y-103882171D01*
X143186098Y-104096335D01*
X143186094Y-104096344D01*
X143124938Y-104324586D01*
X143124936Y-104324596D01*
X143104341Y-104559999D01*
X143104341Y-104560000D01*
X143124936Y-104795403D01*
X143124938Y-104795413D01*
X143186094Y-105023655D01*
X143186096Y-105023659D01*
X143186097Y-105023663D01*
X143190000Y-105032032D01*
X143285965Y-105237830D01*
X143285967Y-105237834D01*
X143387281Y-105382524D01*
X143421505Y-105431401D01*
X143588597Y-105598493D01*
X143588603Y-105598498D01*
X143774158Y-105728425D01*
X143817783Y-105783002D01*
X143824977Y-105852500D01*
X143793454Y-105914855D01*
X143774158Y-105931575D01*
X143588597Y-106061505D01*
X143421505Y-106228597D01*
X143285965Y-106422169D01*
X143285964Y-106422171D01*
X143186098Y-106636335D01*
X143186094Y-106636344D01*
X143124938Y-106864586D01*
X143124936Y-106864596D01*
X143104341Y-107099999D01*
X143104341Y-107100000D01*
X143124936Y-107335403D01*
X143124938Y-107335413D01*
X143186094Y-107563655D01*
X143186096Y-107563659D01*
X143186097Y-107563663D01*
X143266004Y-107735023D01*
X143285965Y-107777830D01*
X143285967Y-107777834D01*
X143394281Y-107932521D01*
X143421501Y-107971396D01*
X143421506Y-107971402D01*
X143588597Y-108138493D01*
X143588603Y-108138498D01*
X143774158Y-108268425D01*
X143817783Y-108323002D01*
X143824977Y-108392500D01*
X143793454Y-108454855D01*
X143774158Y-108471575D01*
X143588597Y-108601505D01*
X143421505Y-108768597D01*
X143285965Y-108962169D01*
X143285964Y-108962171D01*
X143186098Y-109176335D01*
X143186094Y-109176344D01*
X143124938Y-109404586D01*
X143124936Y-109404596D01*
X143104341Y-109639999D01*
X143104341Y-109640000D01*
X143124936Y-109875403D01*
X143124938Y-109875413D01*
X143186094Y-110103655D01*
X143186096Y-110103659D01*
X143186097Y-110103663D01*
X143259360Y-110260775D01*
X143285965Y-110317830D01*
X143285967Y-110317834D01*
X143394281Y-110472521D01*
X143421505Y-110511401D01*
X143588599Y-110678495D01*
X143673955Y-110738262D01*
X143782165Y-110814032D01*
X143782167Y-110814033D01*
X143782170Y-110814035D01*
X143996337Y-110913903D01*
X144224592Y-110975063D01*
X144401034Y-110990500D01*
X144459999Y-110995659D01*
X144460000Y-110995659D01*
X144460001Y-110995659D01*
X144518966Y-110990500D01*
X144695408Y-110975063D01*
X144923663Y-110913903D01*
X145137830Y-110814035D01*
X145331401Y-110678495D01*
X145498495Y-110511401D01*
X145628425Y-110325842D01*
X145683002Y-110282217D01*
X145752500Y-110275023D01*
X145814855Y-110306546D01*
X145831575Y-110325842D01*
X145961500Y-110511395D01*
X145961505Y-110511401D01*
X146128599Y-110678495D01*
X146213955Y-110738262D01*
X146322165Y-110814032D01*
X146322167Y-110814033D01*
X146322170Y-110814035D01*
X146536337Y-110913903D01*
X146764592Y-110975063D01*
X146941034Y-110990500D01*
X146999999Y-110995659D01*
X147000000Y-110995659D01*
X147000001Y-110995659D01*
X147058966Y-110990500D01*
X147235408Y-110975063D01*
X147463663Y-110913903D01*
X147677830Y-110814035D01*
X147871401Y-110678495D01*
X148038495Y-110511401D01*
X148174035Y-110317830D01*
X148273903Y-110103663D01*
X148335063Y-109875408D01*
X148355659Y-109640000D01*
X148335063Y-109404592D01*
X148273903Y-109176337D01*
X148174035Y-108962171D01*
X148168425Y-108954158D01*
X148038494Y-108768597D01*
X147871402Y-108601506D01*
X147871396Y-108601501D01*
X147685842Y-108471575D01*
X147642217Y-108416998D01*
X147635023Y-108347500D01*
X147666546Y-108285145D01*
X147685842Y-108268425D01*
X147798054Y-108189853D01*
X147871401Y-108138495D01*
X148038495Y-107971401D01*
X148174035Y-107777830D01*
X148273903Y-107563663D01*
X148335063Y-107335408D01*
X148355659Y-107100000D01*
X148335063Y-106864592D01*
X148273903Y-106636337D01*
X148174035Y-106422171D01*
X148168425Y-106414158D01*
X148038494Y-106228597D01*
X147871402Y-106061506D01*
X147871396Y-106061501D01*
X147685842Y-105931575D01*
X147642217Y-105876998D01*
X147635023Y-105807500D01*
X147666546Y-105745145D01*
X147685842Y-105728425D01*
X147708026Y-105712891D01*
X147871401Y-105598495D01*
X148038495Y-105431401D01*
X148174035Y-105237830D01*
X148273903Y-105023663D01*
X148335063Y-104795408D01*
X148355659Y-104560000D01*
X148335063Y-104324592D01*
X148273903Y-104096337D01*
X148174035Y-103882171D01*
X148168425Y-103874158D01*
X148038494Y-103688597D01*
X147871402Y-103521506D01*
X147871396Y-103521501D01*
X147685842Y-103391575D01*
X147642217Y-103336998D01*
X147635023Y-103267500D01*
X147666546Y-103205145D01*
X147685842Y-103188425D01*
X147708026Y-103172891D01*
X147871401Y-103058495D01*
X148038495Y-102891401D01*
X148174035Y-102697830D01*
X148273903Y-102483663D01*
X148335063Y-102255408D01*
X148355659Y-102020000D01*
X148335063Y-101784592D01*
X148273903Y-101556337D01*
X148174035Y-101342171D01*
X148168425Y-101334158D01*
X148038494Y-101148597D01*
X147871402Y-100981506D01*
X147871396Y-100981501D01*
X147685842Y-100851575D01*
X147642217Y-100796998D01*
X147635023Y-100727500D01*
X147666546Y-100665145D01*
X147685842Y-100648425D01*
X147708026Y-100632891D01*
X147871401Y-100518495D01*
X148038495Y-100351401D01*
X148174035Y-100157830D01*
X148273903Y-99943663D01*
X148335063Y-99715408D01*
X148355659Y-99480000D01*
X148335063Y-99244592D01*
X148273903Y-99016337D01*
X148174035Y-98802171D01*
X148168425Y-98794158D01*
X148038494Y-98608597D01*
X147871402Y-98441506D01*
X147871396Y-98441501D01*
X147685842Y-98311575D01*
X147642217Y-98256998D01*
X147635023Y-98187500D01*
X147666546Y-98125145D01*
X147685842Y-98108425D01*
X147708026Y-98092891D01*
X147871401Y-97978495D01*
X148038495Y-97811401D01*
X148174035Y-97617830D01*
X148273903Y-97403663D01*
X148335063Y-97175408D01*
X148355659Y-96940000D01*
X148335063Y-96704592D01*
X148275900Y-96483789D01*
X148273905Y-96476344D01*
X148273904Y-96476343D01*
X148273903Y-96476337D01*
X148174035Y-96262171D01*
X148172699Y-96260262D01*
X148038494Y-96068597D01*
X147871402Y-95901506D01*
X147871396Y-95901501D01*
X147685842Y-95771575D01*
X147642217Y-95716998D01*
X147635023Y-95647500D01*
X147666546Y-95585145D01*
X147685842Y-95568425D01*
X147708026Y-95552891D01*
X147871401Y-95438495D01*
X148038495Y-95271401D01*
X148174035Y-95077830D01*
X148273903Y-94863663D01*
X148335063Y-94635408D01*
X148355659Y-94400000D01*
X148335063Y-94164592D01*
X148273903Y-93936337D01*
X148174035Y-93722171D01*
X148172699Y-93720262D01*
X148038494Y-93528597D01*
X147871402Y-93361506D01*
X147871396Y-93361501D01*
X147685842Y-93231575D01*
X147642217Y-93176998D01*
X147635023Y-93107500D01*
X147666546Y-93045145D01*
X147685842Y-93028425D01*
X147806904Y-92943656D01*
X147871401Y-92898495D01*
X148038495Y-92731401D01*
X148174035Y-92537830D01*
X148273903Y-92323663D01*
X148335063Y-92095408D01*
X148355659Y-91860000D01*
X148335063Y-91624592D01*
X148273903Y-91396337D01*
X148174035Y-91182171D01*
X148168425Y-91174158D01*
X148038494Y-90988597D01*
X147871402Y-90821506D01*
X147871396Y-90821501D01*
X147685842Y-90691575D01*
X147642217Y-90636998D01*
X147635023Y-90567500D01*
X147666546Y-90505145D01*
X147685842Y-90488425D01*
X147744477Y-90447368D01*
X147871401Y-90358495D01*
X148038495Y-90191401D01*
X148174035Y-89997830D01*
X148273903Y-89783663D01*
X148335063Y-89555408D01*
X148355659Y-89320000D01*
X148335063Y-89084592D01*
X148279341Y-88876631D01*
X148273905Y-88856344D01*
X148273904Y-88856343D01*
X148273903Y-88856337D01*
X148174035Y-88642171D01*
X148168425Y-88634158D01*
X148038494Y-88448597D01*
X147871402Y-88281506D01*
X147871396Y-88281501D01*
X147685842Y-88151575D01*
X147642217Y-88096998D01*
X147635023Y-88027500D01*
X147666546Y-87965145D01*
X147685842Y-87948425D01*
X147708888Y-87932288D01*
X147871401Y-87818495D01*
X148038495Y-87651401D01*
X148174035Y-87457830D01*
X148273903Y-87243663D01*
X148335063Y-87015408D01*
X148355659Y-86780000D01*
X148335063Y-86544592D01*
X148279341Y-86336631D01*
X148273905Y-86316344D01*
X148273904Y-86316343D01*
X148273903Y-86316337D01*
X148174035Y-86102171D01*
X148172699Y-86100262D01*
X148038494Y-85908597D01*
X147871402Y-85741506D01*
X147871396Y-85741501D01*
X147685842Y-85611575D01*
X147642217Y-85556998D01*
X147635023Y-85487500D01*
X147666546Y-85425145D01*
X147685842Y-85408425D01*
X147708026Y-85392891D01*
X147871401Y-85278495D01*
X148038495Y-85111401D01*
X148174035Y-84917830D01*
X148273903Y-84703663D01*
X148335063Y-84475408D01*
X148355659Y-84240000D01*
X148335063Y-84004592D01*
X148273903Y-83776337D01*
X148174035Y-83562171D01*
X148168425Y-83554158D01*
X148038494Y-83368597D01*
X147871402Y-83201506D01*
X147871396Y-83201501D01*
X147685842Y-83071575D01*
X147642217Y-83016998D01*
X147635023Y-82947500D01*
X147666546Y-82885145D01*
X147685842Y-82868425D01*
X147708026Y-82852891D01*
X147871401Y-82738495D01*
X148038495Y-82571401D01*
X148174035Y-82377830D01*
X148273903Y-82163663D01*
X148335063Y-81935408D01*
X148355659Y-81700000D01*
X148335063Y-81464592D01*
X148273903Y-81236337D01*
X148174035Y-81022171D01*
X148168425Y-81014158D01*
X148038494Y-80828597D01*
X147871402Y-80661506D01*
X147871396Y-80661501D01*
X147685842Y-80531575D01*
X147642217Y-80476998D01*
X147635023Y-80407500D01*
X147666546Y-80345145D01*
X147685842Y-80328425D01*
X147777856Y-80263996D01*
X147871401Y-80198495D01*
X148038495Y-80031401D01*
X148174035Y-79837830D01*
X148273903Y-79623663D01*
X148335063Y-79395408D01*
X148355659Y-79160000D01*
X148335063Y-78924592D01*
X148273903Y-78696337D01*
X148174035Y-78482171D01*
X148168425Y-78474158D01*
X148038494Y-78288597D01*
X147871402Y-78121506D01*
X147871396Y-78121501D01*
X147685842Y-77991575D01*
X147642217Y-77936998D01*
X147635023Y-77867500D01*
X147666546Y-77805145D01*
X147685842Y-77788425D01*
X147744477Y-77747368D01*
X147871401Y-77658495D01*
X148038495Y-77491401D01*
X148174035Y-77297830D01*
X148273903Y-77083663D01*
X148335063Y-76855408D01*
X148355659Y-76620000D01*
X148335063Y-76384592D01*
X148279341Y-76176631D01*
X148273905Y-76156344D01*
X148273904Y-76156343D01*
X148273903Y-76156337D01*
X148174035Y-75942171D01*
X148168425Y-75934158D01*
X148038494Y-75748597D01*
X147871402Y-75581506D01*
X147871396Y-75581501D01*
X147685842Y-75451575D01*
X147642217Y-75396998D01*
X147635023Y-75327500D01*
X147666546Y-75265145D01*
X147685842Y-75248425D01*
X147810183Y-75161360D01*
X147871401Y-75118495D01*
X148038495Y-74951401D01*
X148174035Y-74757830D01*
X148273903Y-74543663D01*
X148335063Y-74315408D01*
X148355659Y-74080000D01*
X148335063Y-73844592D01*
X148273903Y-73616337D01*
X148174035Y-73402171D01*
X148168425Y-73394158D01*
X148038494Y-73208597D01*
X147871402Y-73041506D01*
X147871396Y-73041501D01*
X147685842Y-72911575D01*
X147642217Y-72856998D01*
X147635023Y-72787500D01*
X147666546Y-72725145D01*
X147685842Y-72708425D01*
X147708026Y-72692891D01*
X147871401Y-72578495D01*
X148038495Y-72411401D01*
X148174035Y-72217830D01*
X148273903Y-72003663D01*
X148335063Y-71775408D01*
X148355659Y-71540000D01*
X148335063Y-71304592D01*
X148275900Y-71083789D01*
X148273905Y-71076344D01*
X148273904Y-71076343D01*
X148273903Y-71076337D01*
X148174035Y-70862171D01*
X148172698Y-70860262D01*
X148038496Y-70668600D01*
X147981892Y-70611996D01*
X147916567Y-70546671D01*
X147883084Y-70485351D01*
X147888068Y-70415659D01*
X147929939Y-70359725D01*
X147960915Y-70342810D01*
X148092331Y-70293796D01*
X148207546Y-70207546D01*
X148293796Y-70092331D01*
X148344091Y-69957483D01*
X148350500Y-69897873D01*
X148350499Y-68102128D01*
X148344091Y-68042517D01*
X148342810Y-68039083D01*
X148293797Y-67907671D01*
X148293793Y-67907664D01*
X148207547Y-67792455D01*
X148207544Y-67792452D01*
X148092335Y-67706206D01*
X148092328Y-67706202D01*
X147957482Y-67655908D01*
X147957483Y-67655908D01*
X147897883Y-67649501D01*
X147897881Y-67649500D01*
X147897873Y-67649500D01*
X147897864Y-67649500D01*
X146102129Y-67649500D01*
X146102123Y-67649501D01*
X146042516Y-67655908D01*
X145907671Y-67706202D01*
X145907664Y-67706206D01*
X145792455Y-67792452D01*
X145792452Y-67792455D01*
X145706206Y-67907664D01*
X145706203Y-67907669D01*
X145657189Y-68039083D01*
X145615317Y-68095016D01*
X145549853Y-68119433D01*
X145481580Y-68104581D01*
X145453326Y-68083430D01*
X145331402Y-67961506D01*
X145331395Y-67961501D01*
X145137834Y-67825967D01*
X145137830Y-67825965D01*
X145137828Y-67825964D01*
X144923663Y-67726097D01*
X144923659Y-67726096D01*
X144923655Y-67726094D01*
X144695413Y-67664938D01*
X144695403Y-67664936D01*
X144460001Y-67644341D01*
X144459999Y-67644341D01*
X144224596Y-67664936D01*
X144224586Y-67664938D01*
X143996344Y-67726094D01*
X143996335Y-67726098D01*
X143782171Y-67825964D01*
X143782169Y-67825965D01*
X143588597Y-67961505D01*
X143421505Y-68128597D01*
X143285965Y-68322169D01*
X143285964Y-68322171D01*
X143186098Y-68536335D01*
X143186094Y-68536344D01*
X143124938Y-68764586D01*
X143124936Y-68764596D01*
X143104341Y-68999999D01*
X143104341Y-69000000D01*
X143124936Y-69235403D01*
X143124938Y-69235413D01*
X143186094Y-69463655D01*
X143186096Y-69463659D01*
X143186097Y-69463663D01*
X143266004Y-69635023D01*
X143285965Y-69677830D01*
X143285967Y-69677834D01*
X143321223Y-69728184D01*
X143421501Y-69871396D01*
X143421506Y-69871402D01*
X143588597Y-70038493D01*
X143588603Y-70038498D01*
X143774158Y-70168425D01*
X143817783Y-70223002D01*
X143824977Y-70292500D01*
X143793454Y-70354855D01*
X143774158Y-70371575D01*
X143588597Y-70501505D01*
X143421505Y-70668597D01*
X143285965Y-70862169D01*
X143285964Y-70862171D01*
X143186098Y-71076335D01*
X143186094Y-71076344D01*
X143124938Y-71304586D01*
X143124936Y-71304596D01*
X143104341Y-71539999D01*
X143104341Y-71540000D01*
X143124936Y-71775403D01*
X143124938Y-71775413D01*
X143186094Y-72003655D01*
X143186096Y-72003659D01*
X143186097Y-72003663D01*
X143258704Y-72159368D01*
X143285965Y-72217830D01*
X143285967Y-72217834D01*
X143394281Y-72372521D01*
X143421501Y-72411396D01*
X143421506Y-72411402D01*
X143588597Y-72578493D01*
X143588603Y-72578498D01*
X143774158Y-72708425D01*
X143817783Y-72763002D01*
X143824977Y-72832500D01*
X143793454Y-72894855D01*
X143774158Y-72911575D01*
X143588597Y-73041505D01*
X143421505Y-73208597D01*
X143285965Y-73402169D01*
X143285964Y-73402171D01*
X143186098Y-73616335D01*
X143186094Y-73616344D01*
X143124938Y-73844586D01*
X143124936Y-73844596D01*
X143104341Y-74079999D01*
X143104341Y-74080000D01*
X143124936Y-74315403D01*
X143124938Y-74315413D01*
X143186094Y-74543655D01*
X143186096Y-74543659D01*
X143186097Y-74543663D01*
X143190000Y-74552032D01*
X143285965Y-74757830D01*
X143285967Y-74757834D01*
X143394281Y-74912521D01*
X143421501Y-74951396D01*
X143421506Y-74951402D01*
X143588597Y-75118493D01*
X143588603Y-75118498D01*
X143774158Y-75248425D01*
X143817783Y-75303002D01*
X143824977Y-75372500D01*
X143793454Y-75434855D01*
X143774158Y-75451575D01*
X143588597Y-75581505D01*
X143421505Y-75748597D01*
X143285965Y-75942169D01*
X143285964Y-75942171D01*
X143186098Y-76156335D01*
X143186094Y-76156344D01*
X143124938Y-76384586D01*
X143124936Y-76384596D01*
X143104341Y-76619999D01*
X143104341Y-76620000D01*
X143124936Y-76855403D01*
X143124938Y-76855413D01*
X143186094Y-77083655D01*
X143186096Y-77083659D01*
X143186097Y-77083663D01*
X143212953Y-77141255D01*
X143285965Y-77297830D01*
X143285967Y-77297834D01*
X143364157Y-77409500D01*
X143421501Y-77491396D01*
X143421506Y-77491402D01*
X143588597Y-77658493D01*
X143588603Y-77658498D01*
X143774158Y-77788425D01*
X143817783Y-77843002D01*
X143824977Y-77912500D01*
X143793454Y-77974855D01*
X143774158Y-77991575D01*
X143588597Y-78121505D01*
X143421505Y-78288597D01*
X143285965Y-78482169D01*
X143285964Y-78482171D01*
X143186098Y-78696335D01*
X143186094Y-78696344D01*
X143124938Y-78924586D01*
X143124936Y-78924596D01*
X143104341Y-79159999D01*
X143104341Y-79160000D01*
X143124936Y-79395403D01*
X143124938Y-79395413D01*
X143186094Y-79623655D01*
X143186097Y-79623664D01*
X143194592Y-79641881D01*
X143255779Y-79773096D01*
X143266271Y-79842172D01*
X143237751Y-79905956D01*
X143179275Y-79944196D01*
X143143397Y-79949500D01*
X142294669Y-79949500D01*
X142294653Y-79949499D01*
X142287057Y-79949499D01*
X142128943Y-79949499D01*
X142021587Y-79978265D01*
X141976210Y-79990424D01*
X141976209Y-79990425D01*
X141926096Y-80019359D01*
X141926095Y-80019360D01*
X141882689Y-80044420D01*
X141839285Y-80069479D01*
X141839282Y-80069481D01*
X140997481Y-80911282D01*
X140997479Y-80911285D01*
X140952157Y-80989787D01*
X140952156Y-80989788D01*
X140938086Y-81014158D01*
X140918423Y-81048215D01*
X140877499Y-81200943D01*
X140877499Y-81200945D01*
X140877499Y-81369046D01*
X140877500Y-81369059D01*
X140877500Y-82209330D01*
X140877499Y-82209348D01*
X140877499Y-82375054D01*
X140877498Y-82375054D01*
X140918423Y-82527785D01*
X140943604Y-82571400D01*
X140943606Y-82571402D01*
X140997479Y-82664714D01*
X140997481Y-82664717D01*
X141116349Y-82783585D01*
X141116355Y-82783590D01*
X141349181Y-83016416D01*
X141382666Y-83077739D01*
X141385500Y-83104097D01*
X141385500Y-83406044D01*
X141365815Y-83473083D01*
X141313011Y-83518838D01*
X141275384Y-83529264D01*
X141156749Y-83542630D01*
X141156745Y-83542631D01*
X140986476Y-83602211D01*
X140833737Y-83698184D01*
X140706184Y-83825737D01*
X140610211Y-83978476D01*
X140550631Y-84148745D01*
X140550630Y-84148750D01*
X140530435Y-84327996D01*
X140530435Y-84328003D01*
X140550630Y-84507249D01*
X140550631Y-84507254D01*
X140603362Y-84657949D01*
X140606923Y-84727728D01*
X140572194Y-84788356D01*
X140527274Y-84815946D01*
X140366478Y-84872210D01*
X140213737Y-84968184D01*
X140086184Y-85095737D01*
X139990211Y-85248476D01*
X139930631Y-85418745D01*
X139930630Y-85418750D01*
X139910435Y-85597996D01*
X139910435Y-85598003D01*
X139930630Y-85777249D01*
X139930631Y-85777254D01*
X139990211Y-85947523D01*
X140086185Y-86100263D01*
X140088445Y-86103097D01*
X140089334Y-86105275D01*
X140089889Y-86106158D01*
X140089734Y-86106255D01*
X140114855Y-86167783D01*
X140115500Y-86180412D01*
X140115500Y-86244535D01*
X140095815Y-86311574D01*
X140043011Y-86357329D01*
X139973853Y-86367273D01*
X139950546Y-86361577D01*
X139879257Y-86336632D01*
X139879249Y-86336630D01*
X139700004Y-86316435D01*
X139699996Y-86316435D01*
X139520750Y-86336630D01*
X139520745Y-86336631D01*
X139350476Y-86396211D01*
X139197737Y-86492184D01*
X139070184Y-86619737D01*
X138974211Y-86772476D01*
X138914631Y-86942745D01*
X138914630Y-86942750D01*
X138894435Y-87121996D01*
X138894435Y-87122003D01*
X138914630Y-87301249D01*
X138914632Y-87301257D01*
X138960166Y-87431386D01*
X138963727Y-87501165D01*
X138928998Y-87561792D01*
X138867005Y-87594019D01*
X138857007Y-87595560D01*
X138758750Y-87606630D01*
X138758745Y-87606631D01*
X138588476Y-87666211D01*
X138435737Y-87762184D01*
X138308184Y-87889737D01*
X138212211Y-88042476D01*
X138152631Y-88212745D01*
X138152630Y-88212750D01*
X138132435Y-88391996D01*
X138132435Y-88392003D01*
X138152630Y-88571249D01*
X138152632Y-88571257D01*
X138198166Y-88701386D01*
X138201727Y-88771165D01*
X138166998Y-88831792D01*
X138105005Y-88864019D01*
X138095007Y-88865560D01*
X137996750Y-88876630D01*
X137996745Y-88876631D01*
X137826476Y-88936211D01*
X137673737Y-89032184D01*
X137546184Y-89159737D01*
X137450211Y-89312476D01*
X137390631Y-89482745D01*
X137390630Y-89482750D01*
X137370435Y-89661996D01*
X137370435Y-89662005D01*
X137380509Y-89751424D01*
X137368454Y-89820246D01*
X137321104Y-89871624D01*
X137271175Y-89888526D01*
X137234750Y-89892630D01*
X137064478Y-89952210D01*
X136911737Y-90048184D01*
X136784184Y-90175737D01*
X136688211Y-90328476D01*
X136628631Y-90498745D01*
X136628630Y-90498750D01*
X136608435Y-90677996D01*
X136608435Y-90678005D01*
X136617745Y-90760643D01*
X136605690Y-90829465D01*
X136558340Y-90880843D01*
X136490730Y-90898467D01*
X136480643Y-90897745D01*
X136398005Y-90888435D01*
X136397996Y-90888435D01*
X136218750Y-90908630D01*
X136218745Y-90908631D01*
X136048476Y-90968211D01*
X135895737Y-91064184D01*
X135768184Y-91191737D01*
X135672211Y-91344476D01*
X135612631Y-91514745D01*
X135612630Y-91514750D01*
X135592435Y-91693996D01*
X135592435Y-91694003D01*
X135612630Y-91873249D01*
X135612631Y-91873254D01*
X135672211Y-92043523D01*
X135768185Y-92196263D01*
X135770445Y-92199097D01*
X135771334Y-92201275D01*
X135771889Y-92202158D01*
X135771734Y-92202255D01*
X135796855Y-92263783D01*
X135797500Y-92276412D01*
X135797500Y-92291875D01*
X135777815Y-92358914D01*
X135725011Y-92404669D01*
X135659619Y-92415096D01*
X135653325Y-92414387D01*
X135636000Y-92412435D01*
X135635998Y-92412435D01*
X135635997Y-92412435D01*
X135635996Y-92412435D01*
X135456750Y-92432630D01*
X135456745Y-92432631D01*
X135286476Y-92492211D01*
X135133737Y-92588184D01*
X135006184Y-92715737D01*
X134910211Y-92868476D01*
X134850631Y-93038745D01*
X134850630Y-93038750D01*
X134830435Y-93217996D01*
X134830435Y-93218003D01*
X134850630Y-93397249D01*
X134850632Y-93397257D01*
X134898803Y-93534922D01*
X134902364Y-93604701D01*
X134867635Y-93665328D01*
X134805642Y-93697555D01*
X134767878Y-93699096D01*
X134620004Y-93682435D01*
X134619996Y-93682435D01*
X134440750Y-93702630D01*
X134440745Y-93702631D01*
X134270476Y-93762211D01*
X134117737Y-93858184D01*
X133990184Y-93985737D01*
X133894211Y-94138476D01*
X133834631Y-94308745D01*
X133834630Y-94308750D01*
X133814435Y-94487996D01*
X133814435Y-94488003D01*
X133834630Y-94667249D01*
X133834631Y-94667254D01*
X133880579Y-94798564D01*
X133884140Y-94868343D01*
X133849411Y-94928971D01*
X133787418Y-94961198D01*
X133749654Y-94962739D01*
X133658198Y-94952435D01*
X133658190Y-94952435D01*
X133478944Y-94972630D01*
X133478939Y-94972631D01*
X133308670Y-95032211D01*
X133155931Y-95128184D01*
X133028378Y-95255737D01*
X132932405Y-95408476D01*
X132872825Y-95578745D01*
X132872824Y-95578750D01*
X132852629Y-95757996D01*
X132852629Y-95758003D01*
X132872824Y-95937249D01*
X132872825Y-95937254D01*
X132932405Y-96107522D01*
X133007868Y-96227620D01*
X133026868Y-96294856D01*
X133006501Y-96361692D01*
X132953233Y-96406906D01*
X132883976Y-96416144D01*
X132836902Y-96398586D01*
X132683523Y-96302211D01*
X132513254Y-96242631D01*
X132513249Y-96242630D01*
X132334004Y-96222435D01*
X132333996Y-96222435D01*
X132154750Y-96242630D01*
X132154745Y-96242631D01*
X131984476Y-96302211D01*
X131831737Y-96398184D01*
X131704184Y-96525737D01*
X131608210Y-96678478D01*
X131548630Y-96848750D01*
X131538837Y-96935668D01*
X131511770Y-97000082D01*
X131503299Y-97009465D01*
X131420100Y-97092663D01*
X131358780Y-97126147D01*
X131289088Y-97121163D01*
X131244740Y-97092662D01*
X131220617Y-97068539D01*
X131067878Y-96972566D01*
X130897609Y-96912986D01*
X130897604Y-96912985D01*
X130718359Y-96892790D01*
X130718351Y-96892790D01*
X130539105Y-96912985D01*
X130539100Y-96912986D01*
X130368831Y-96972566D01*
X130216092Y-97068539D01*
X130088539Y-97196092D01*
X129992565Y-97348833D01*
X129932985Y-97519105D01*
X129923192Y-97606023D01*
X129896125Y-97670437D01*
X129887654Y-97679820D01*
X129652292Y-97915182D01*
X129590972Y-97948666D01*
X129564613Y-97951500D01*
X116632097Y-97951500D01*
X116565058Y-97931815D01*
X116544416Y-97915181D01*
X116150663Y-97521428D01*
X116117178Y-97460105D01*
X116122162Y-97390413D01*
X116164034Y-97334480D01*
X116229498Y-97310063D01*
X116249142Y-97310218D01*
X116332000Y-97317468D01*
X116332002Y-97317468D01*
X116388807Y-97312498D01*
X116558692Y-97297635D01*
X116778496Y-97238739D01*
X116984734Y-97142568D01*
X117171139Y-97012047D01*
X117332047Y-96851139D01*
X117462568Y-96664734D01*
X117489618Y-96606724D01*
X117535790Y-96554285D01*
X117602983Y-96535133D01*
X117669865Y-96555348D01*
X117714382Y-96606725D01*
X117741429Y-96664728D01*
X117741432Y-96664734D01*
X117871954Y-96851141D01*
X118032858Y-97012045D01*
X118032861Y-97012047D01*
X118219266Y-97142568D01*
X118425504Y-97238739D01*
X118425509Y-97238740D01*
X118425511Y-97238741D01*
X118448755Y-97244969D01*
X118645308Y-97297635D01*
X118787361Y-97310063D01*
X118871998Y-97317468D01*
X118872000Y-97317468D01*
X118872002Y-97317468D01*
X118928807Y-97312498D01*
X119098692Y-97297635D01*
X119318496Y-97238739D01*
X119524734Y-97142568D01*
X119711139Y-97012047D01*
X119872047Y-96851139D01*
X119889272Y-96826539D01*
X119943848Y-96782913D01*
X120013346Y-96775718D01*
X120075701Y-96807239D01*
X120111116Y-96867468D01*
X120114138Y-96884406D01*
X120117908Y-96919483D01*
X120168202Y-97054328D01*
X120168206Y-97054335D01*
X120254452Y-97169544D01*
X120254455Y-97169547D01*
X120369664Y-97255793D01*
X120369671Y-97255797D01*
X120504517Y-97306091D01*
X120504516Y-97306091D01*
X120511444Y-97306835D01*
X120564127Y-97312500D01*
X122259872Y-97312499D01*
X122319483Y-97306091D01*
X122454331Y-97255796D01*
X122569546Y-97169546D01*
X122655796Y-97054331D01*
X122706091Y-96919483D01*
X122712500Y-96859873D01*
X122712499Y-95164128D01*
X122706091Y-95104517D01*
X122696137Y-95077830D01*
X122655797Y-94969671D01*
X122655793Y-94969664D01*
X122569547Y-94854455D01*
X122569544Y-94854452D01*
X122454335Y-94768206D01*
X122454328Y-94768202D01*
X122319482Y-94717908D01*
X122319483Y-94717908D01*
X122259883Y-94711501D01*
X122259881Y-94711500D01*
X122259873Y-94711500D01*
X122259865Y-94711500D01*
X121153518Y-94711500D01*
X121086479Y-94691815D01*
X121065837Y-94675181D01*
X117909046Y-91518388D01*
X117909045Y-91518387D01*
X117794307Y-91441722D01*
X117790140Y-91439996D01*
X128734435Y-91439996D01*
X128734435Y-91440003D01*
X128754630Y-91619249D01*
X128754631Y-91619254D01*
X128814211Y-91789523D01*
X128858495Y-91860000D01*
X128910184Y-91942262D01*
X129037738Y-92069816D01*
X129190478Y-92165789D01*
X129294415Y-92202158D01*
X129360745Y-92225368D01*
X129360750Y-92225369D01*
X129539996Y-92245565D01*
X129540000Y-92245565D01*
X129540004Y-92245565D01*
X129719249Y-92225369D01*
X129719252Y-92225368D01*
X129719255Y-92225368D01*
X129889522Y-92165789D01*
X130042262Y-92069816D01*
X130169816Y-91942262D01*
X130265789Y-91789522D01*
X130325368Y-91619255D01*
X130337143Y-91514750D01*
X130345565Y-91440003D01*
X130345565Y-91439996D01*
X130325369Y-91260750D01*
X130325368Y-91260745D01*
X130265788Y-91090476D01*
X130187063Y-90965187D01*
X130169816Y-90937738D01*
X130042262Y-90810184D01*
X129889523Y-90714211D01*
X129719254Y-90654631D01*
X129719249Y-90654630D01*
X129540004Y-90634435D01*
X129539996Y-90634435D01*
X129360750Y-90654630D01*
X129360745Y-90654631D01*
X129190476Y-90714211D01*
X129037737Y-90810184D01*
X128910184Y-90937737D01*
X128814211Y-91090476D01*
X128754631Y-91260745D01*
X128754630Y-91260750D01*
X128734435Y-91439996D01*
X117790140Y-91439996D01*
X117666832Y-91388921D01*
X117666822Y-91388918D01*
X117531496Y-91362000D01*
X117531494Y-91362000D01*
X117531493Y-91362000D01*
X86923348Y-91362000D01*
X86856309Y-91342315D01*
X86817809Y-91303097D01*
X86742712Y-91181344D01*
X86618656Y-91057288D01*
X86507293Y-90988599D01*
X86469336Y-90965187D01*
X86469331Y-90965185D01*
X86464400Y-90963551D01*
X86302797Y-90910001D01*
X86302795Y-90910000D01*
X86200010Y-90899500D01*
X84799998Y-90899500D01*
X84799981Y-90899501D01*
X84697203Y-90910000D01*
X84697200Y-90910001D01*
X84530668Y-90965185D01*
X84530663Y-90965187D01*
X84381342Y-91057289D01*
X84257289Y-91181342D01*
X84234812Y-91217783D01*
X84208314Y-91260745D01*
X84182191Y-91303097D01*
X84130243Y-91349821D01*
X84076652Y-91362000D01*
X83573348Y-91362000D01*
X83506309Y-91342315D01*
X83467809Y-91303097D01*
X83392712Y-91181344D01*
X83268656Y-91057288D01*
X83157293Y-90988599D01*
X83119336Y-90965187D01*
X83119331Y-90965185D01*
X83114400Y-90963551D01*
X82952797Y-90910001D01*
X82952795Y-90910000D01*
X82850010Y-90899500D01*
X81449998Y-90899500D01*
X81449981Y-90899501D01*
X81347203Y-90910000D01*
X81347200Y-90910001D01*
X81180668Y-90965185D01*
X81180663Y-90965187D01*
X81031342Y-91057289D01*
X80907289Y-91181342D01*
X80815184Y-91330669D01*
X80813559Y-91334155D01*
X80811807Y-91336144D01*
X80811395Y-91336813D01*
X80811280Y-91336742D01*
X80767386Y-91386594D01*
X80701177Y-91405750D01*
X77916898Y-91405750D01*
X77849859Y-91386065D01*
X77804104Y-91333261D01*
X77794160Y-91264103D01*
X77823185Y-91200547D01*
X77829217Y-91194069D01*
X78433287Y-90590000D01*
X79348968Y-89674319D01*
X79410291Y-89640834D01*
X79436649Y-89638000D01*
X80726652Y-89638000D01*
X80793691Y-89657685D01*
X80832189Y-89696901D01*
X80907288Y-89818656D01*
X81031344Y-89942712D01*
X81180666Y-90034814D01*
X81347203Y-90089999D01*
X81449991Y-90100500D01*
X82850008Y-90100499D01*
X82952797Y-90089999D01*
X83119334Y-90034814D01*
X83268656Y-89942712D01*
X83392712Y-89818656D01*
X83467809Y-89696902D01*
X83519757Y-89650179D01*
X83573348Y-89638000D01*
X84076652Y-89638000D01*
X84143691Y-89657685D01*
X84182189Y-89696901D01*
X84257288Y-89818656D01*
X84381344Y-89942712D01*
X84530666Y-90034814D01*
X84697203Y-90089999D01*
X84799991Y-90100500D01*
X86200008Y-90100499D01*
X86302797Y-90089999D01*
X86469334Y-90034814D01*
X86618656Y-89942712D01*
X86742712Y-89818656D01*
X86834814Y-89669334D01*
X86837246Y-89661996D01*
X105874435Y-89661996D01*
X105874435Y-89662003D01*
X105894630Y-89841249D01*
X105894631Y-89841254D01*
X105954211Y-90011523D01*
X106050184Y-90164262D01*
X106177738Y-90291816D01*
X106330478Y-90387789D01*
X106500745Y-90447368D01*
X106500750Y-90447369D01*
X106679996Y-90467565D01*
X106680000Y-90467565D01*
X106680004Y-90467565D01*
X106859249Y-90447369D01*
X106859252Y-90447368D01*
X106859255Y-90447368D01*
X107029522Y-90387789D01*
X107182262Y-90291816D01*
X107309816Y-90164262D01*
X107405789Y-90011522D01*
X107465368Y-89841255D01*
X107467914Y-89818657D01*
X107485565Y-89662003D01*
X107485565Y-89661996D01*
X107465369Y-89482750D01*
X107465368Y-89482745D01*
X107439215Y-89408003D01*
X107439213Y-89407996D01*
X114002435Y-89407996D01*
X114002435Y-89408003D01*
X114022630Y-89587249D01*
X114022631Y-89587254D01*
X114082211Y-89757523D01*
X114121623Y-89820246D01*
X114178184Y-89910262D01*
X114305738Y-90037816D01*
X114458478Y-90133789D01*
X114628745Y-90193368D01*
X114628750Y-90193369D01*
X114807996Y-90213565D01*
X114808000Y-90213565D01*
X114808004Y-90213565D01*
X114987249Y-90193369D01*
X114987252Y-90193368D01*
X114987255Y-90193368D01*
X115157522Y-90133789D01*
X115310262Y-90037816D01*
X115437816Y-89910262D01*
X115533789Y-89757522D01*
X115593368Y-89587255D01*
X115596956Y-89555413D01*
X115613565Y-89408003D01*
X115613565Y-89407996D01*
X115593369Y-89228750D01*
X115593368Y-89228745D01*
X115542928Y-89084596D01*
X115533789Y-89058478D01*
X115517267Y-89032184D01*
X115437815Y-88905737D01*
X115310262Y-88778184D01*
X115157523Y-88682211D01*
X114987254Y-88622631D01*
X114987249Y-88622630D01*
X114808004Y-88602435D01*
X114807996Y-88602435D01*
X114628750Y-88622630D01*
X114628745Y-88622631D01*
X114458476Y-88682211D01*
X114305737Y-88778184D01*
X114178184Y-88905737D01*
X114082211Y-89058476D01*
X114022631Y-89228745D01*
X114022630Y-89228750D01*
X114002435Y-89407996D01*
X107439213Y-89407996D01*
X107405789Y-89312478D01*
X107309816Y-89159738D01*
X107182262Y-89032184D01*
X107029523Y-88936211D01*
X106859254Y-88876631D01*
X106859249Y-88876630D01*
X106680004Y-88856435D01*
X106679996Y-88856435D01*
X106500750Y-88876630D01*
X106500745Y-88876631D01*
X106330476Y-88936211D01*
X106177737Y-89032184D01*
X106050184Y-89159737D01*
X105954211Y-89312476D01*
X105894631Y-89482745D01*
X105894630Y-89482750D01*
X105874435Y-89661996D01*
X86837246Y-89661996D01*
X86889999Y-89502797D01*
X86900500Y-89400009D01*
X86900499Y-88474992D01*
X86889999Y-88372203D01*
X86834814Y-88205666D01*
X86742712Y-88056344D01*
X86618656Y-87932288D01*
X86469334Y-87840186D01*
X86302797Y-87785001D01*
X86302795Y-87785000D01*
X86200010Y-87774500D01*
X84799998Y-87774500D01*
X84799981Y-87774501D01*
X84697203Y-87785000D01*
X84697200Y-87785001D01*
X84530668Y-87840185D01*
X84530663Y-87840187D01*
X84381342Y-87932289D01*
X84257289Y-88056342D01*
X84257288Y-88056344D01*
X84198550Y-88151575D01*
X84182191Y-88178097D01*
X84130243Y-88224821D01*
X84076652Y-88237000D01*
X83573348Y-88237000D01*
X83506309Y-88217315D01*
X83467809Y-88178097D01*
X83392712Y-88056344D01*
X83268656Y-87932288D01*
X83119334Y-87840186D01*
X82952797Y-87785001D01*
X82952795Y-87785000D01*
X82850010Y-87774500D01*
X81449998Y-87774500D01*
X81449981Y-87774501D01*
X81347203Y-87785000D01*
X81347200Y-87785001D01*
X81180668Y-87840185D01*
X81180663Y-87840187D01*
X81031342Y-87932289D01*
X80907289Y-88056342D01*
X80907288Y-88056344D01*
X80848550Y-88151575D01*
X80832191Y-88178097D01*
X80780243Y-88224821D01*
X80726652Y-88237000D01*
X79026134Y-88237000D01*
X78890807Y-88263918D01*
X78890797Y-88263921D01*
X78763322Y-88316722D01*
X78648584Y-88393387D01*
X72607887Y-94434084D01*
X72531222Y-94548822D01*
X72478421Y-94676297D01*
X72478418Y-94676309D01*
X72456747Y-94785259D01*
X72456747Y-94785263D01*
X72451500Y-94811637D01*
X72451500Y-94850326D01*
X72431815Y-94917365D01*
X72398624Y-94951901D01*
X72312863Y-95011951D01*
X72151951Y-95172862D01*
X72021432Y-95359265D01*
X72021431Y-95359267D01*
X71925261Y-95565502D01*
X71925258Y-95565511D01*
X71866366Y-95785302D01*
X71866364Y-95785313D01*
X71846532Y-96011998D01*
X71846532Y-96012001D01*
X71866364Y-96238686D01*
X71866366Y-96238697D01*
X71925258Y-96458488D01*
X71925261Y-96458497D01*
X72021431Y-96664732D01*
X72021432Y-96664734D01*
X72151954Y-96851141D01*
X72312858Y-97012045D01*
X72312861Y-97012047D01*
X72499266Y-97142568D01*
X72705504Y-97238739D01*
X72705509Y-97238740D01*
X72705511Y-97238741D01*
X72728755Y-97244969D01*
X72925308Y-97297635D01*
X72925318Y-97297635D01*
X72930637Y-97298574D01*
X72930370Y-97300087D01*
X72988818Y-97322944D01*
X73029802Y-97379530D01*
X73033688Y-97449292D01*
X73000633Y-97508708D01*
X61606162Y-108903181D01*
X61544839Y-108936666D01*
X61518481Y-108939500D01*
X56762711Y-108939500D01*
X56695672Y-108919815D01*
X56661136Y-108886623D01*
X56578494Y-108768597D01*
X56411402Y-108601506D01*
X56411396Y-108601501D01*
X56225842Y-108471575D01*
X56182217Y-108416998D01*
X56175023Y-108347500D01*
X56206546Y-108285145D01*
X56225842Y-108268425D01*
X56338054Y-108189853D01*
X56411401Y-108138495D01*
X56578495Y-107971401D01*
X56714035Y-107777830D01*
X56813903Y-107563663D01*
X56875063Y-107335408D01*
X56895659Y-107100000D01*
X56875063Y-106864592D01*
X56813903Y-106636337D01*
X56714035Y-106422171D01*
X56708425Y-106414158D01*
X56578494Y-106228597D01*
X56411402Y-106061506D01*
X56411396Y-106061501D01*
X56225842Y-105931575D01*
X56182217Y-105876998D01*
X56175023Y-105807500D01*
X56206546Y-105745145D01*
X56225842Y-105728425D01*
X56248026Y-105712891D01*
X56411401Y-105598495D01*
X56578495Y-105431401D01*
X56714035Y-105237830D01*
X56813903Y-105023663D01*
X56875063Y-104795408D01*
X56895659Y-104560000D01*
X56875063Y-104324592D01*
X56813903Y-104096337D01*
X56714035Y-103882171D01*
X56708425Y-103874158D01*
X56578494Y-103688597D01*
X56411402Y-103521506D01*
X56411396Y-103521501D01*
X56225842Y-103391575D01*
X56182217Y-103336998D01*
X56175023Y-103267500D01*
X56206546Y-103205145D01*
X56225842Y-103188425D01*
X56248026Y-103172891D01*
X56411401Y-103058495D01*
X56578495Y-102891401D01*
X56714035Y-102697830D01*
X56813903Y-102483663D01*
X56875063Y-102255408D01*
X56895659Y-102020000D01*
X56875063Y-101784592D01*
X56813903Y-101556337D01*
X56714035Y-101342171D01*
X56708425Y-101334158D01*
X56578494Y-101148597D01*
X56411402Y-100981506D01*
X56411396Y-100981501D01*
X56225842Y-100851575D01*
X56182217Y-100796998D01*
X56175023Y-100727500D01*
X56206546Y-100665145D01*
X56225842Y-100648425D01*
X56248026Y-100632891D01*
X56411401Y-100518495D01*
X56578495Y-100351401D01*
X56714035Y-100157830D01*
X56813903Y-99943663D01*
X56875063Y-99715408D01*
X56895659Y-99480000D01*
X56875063Y-99244592D01*
X56813903Y-99016337D01*
X56714035Y-98802171D01*
X56708425Y-98794158D01*
X56578494Y-98608597D01*
X56411402Y-98441506D01*
X56411396Y-98441501D01*
X56225842Y-98311575D01*
X56182217Y-98256998D01*
X56175023Y-98187500D01*
X56206546Y-98125145D01*
X56225842Y-98108425D01*
X56248026Y-98092891D01*
X56411401Y-97978495D01*
X56578495Y-97811401D01*
X56714035Y-97617830D01*
X56813903Y-97403663D01*
X56875063Y-97175408D01*
X56895659Y-96940000D01*
X56875063Y-96704592D01*
X56815900Y-96483789D01*
X56813905Y-96476344D01*
X56813904Y-96476343D01*
X56813903Y-96476337D01*
X56714035Y-96262171D01*
X56712699Y-96260262D01*
X56578494Y-96068597D01*
X56411402Y-95901506D01*
X56411396Y-95901501D01*
X56225842Y-95771575D01*
X56214988Y-95757996D01*
X58376435Y-95757996D01*
X58376435Y-95758003D01*
X58396630Y-95937249D01*
X58396631Y-95937254D01*
X58456211Y-96107523D01*
X58495769Y-96170478D01*
X58552184Y-96260262D01*
X58679738Y-96387816D01*
X58832478Y-96483789D01*
X58979211Y-96535133D01*
X59002745Y-96543368D01*
X59002750Y-96543369D01*
X59181996Y-96563565D01*
X59182000Y-96563565D01*
X59182004Y-96563565D01*
X59361249Y-96543369D01*
X59361252Y-96543368D01*
X59361255Y-96543368D01*
X59428048Y-96519996D01*
X67774435Y-96519996D01*
X67774435Y-96520003D01*
X67794630Y-96699249D01*
X67794631Y-96699254D01*
X67854211Y-96869523D01*
X67898495Y-96940000D01*
X67950184Y-97022262D01*
X68077738Y-97149816D01*
X68151386Y-97196092D01*
X68222574Y-97240823D01*
X68230478Y-97245789D01*
X68378645Y-97297635D01*
X68400745Y-97305368D01*
X68400750Y-97305369D01*
X68579996Y-97325565D01*
X68580000Y-97325565D01*
X68580004Y-97325565D01*
X68759249Y-97305369D01*
X68759252Y-97305368D01*
X68759255Y-97305368D01*
X68929522Y-97245789D01*
X69082262Y-97149816D01*
X69209816Y-97022262D01*
X69305789Y-96869522D01*
X69365368Y-96699255D01*
X69369258Y-96664732D01*
X69385565Y-96520003D01*
X69385565Y-96519996D01*
X69365369Y-96340750D01*
X69365368Y-96340745D01*
X69325784Y-96227620D01*
X69305789Y-96170478D01*
X69209816Y-96017738D01*
X69082262Y-95890184D01*
X69046517Y-95867724D01*
X68929523Y-95794211D01*
X68759254Y-95734631D01*
X68759249Y-95734630D01*
X68580004Y-95714435D01*
X68579996Y-95714435D01*
X68400750Y-95734630D01*
X68400745Y-95734631D01*
X68230476Y-95794211D01*
X68077737Y-95890184D01*
X67950184Y-96017737D01*
X67854211Y-96170476D01*
X67794631Y-96340745D01*
X67794630Y-96340750D01*
X67774435Y-96519996D01*
X59428048Y-96519996D01*
X59531522Y-96483789D01*
X59684262Y-96387816D01*
X59811816Y-96260262D01*
X59907789Y-96107522D01*
X59967368Y-95937255D01*
X59971396Y-95901505D01*
X59987565Y-95758003D01*
X59987565Y-95757996D01*
X59967369Y-95578750D01*
X59967368Y-95578745D01*
X59924438Y-95456058D01*
X59907789Y-95408478D01*
X59811816Y-95255738D01*
X59684262Y-95128184D01*
X59646595Y-95104516D01*
X59531523Y-95032211D01*
X59361254Y-94972631D01*
X59361249Y-94972630D01*
X59182004Y-94952435D01*
X59181996Y-94952435D01*
X59002750Y-94972630D01*
X59002745Y-94972631D01*
X58832476Y-95032211D01*
X58679737Y-95128184D01*
X58552184Y-95255737D01*
X58456211Y-95408476D01*
X58396631Y-95578745D01*
X58396630Y-95578750D01*
X58376435Y-95757996D01*
X56214988Y-95757996D01*
X56182217Y-95716998D01*
X56175023Y-95647500D01*
X56206546Y-95585145D01*
X56225842Y-95568425D01*
X56248026Y-95552891D01*
X56411401Y-95438495D01*
X56578495Y-95271401D01*
X56714035Y-95077830D01*
X56813903Y-94863663D01*
X56875063Y-94635408D01*
X56895659Y-94400000D01*
X56875063Y-94164592D01*
X56813903Y-93936337D01*
X56714035Y-93722171D01*
X56712699Y-93720262D01*
X56578494Y-93528597D01*
X56411402Y-93361506D01*
X56411396Y-93361501D01*
X56225842Y-93231575D01*
X56182217Y-93176998D01*
X56175023Y-93107500D01*
X56206546Y-93045145D01*
X56225842Y-93028425D01*
X56346904Y-92943656D01*
X56411401Y-92898495D01*
X56578495Y-92731401D01*
X56714035Y-92537830D01*
X56813903Y-92323663D01*
X56875063Y-92095408D01*
X56895659Y-91860000D01*
X56875063Y-91624592D01*
X56813903Y-91396337D01*
X56714035Y-91182171D01*
X56708425Y-91174158D01*
X56578494Y-90988597D01*
X56411402Y-90821506D01*
X56411396Y-90821501D01*
X56225842Y-90691575D01*
X56182217Y-90636998D01*
X56175023Y-90567500D01*
X56206546Y-90505145D01*
X56225842Y-90488425D01*
X56284477Y-90447368D01*
X56411401Y-90358495D01*
X56578495Y-90191401D01*
X56714035Y-89997830D01*
X56813903Y-89783663D01*
X56875063Y-89555408D01*
X56895659Y-89320000D01*
X56875063Y-89084592D01*
X56819341Y-88876631D01*
X56813905Y-88856344D01*
X56813904Y-88856343D01*
X56813903Y-88856337D01*
X56714035Y-88642171D01*
X56708425Y-88634158D01*
X56578494Y-88448597D01*
X56411402Y-88281506D01*
X56411396Y-88281501D01*
X56225842Y-88151575D01*
X56182217Y-88096998D01*
X56175023Y-88027500D01*
X56206546Y-87965145D01*
X56225842Y-87948425D01*
X56248888Y-87932288D01*
X56411401Y-87818495D01*
X56578495Y-87651401D01*
X56714035Y-87457830D01*
X56813903Y-87243663D01*
X56875063Y-87015408D01*
X56895659Y-86780000D01*
X56875063Y-86544592D01*
X56819341Y-86336631D01*
X56813905Y-86316344D01*
X56813904Y-86316343D01*
X56813903Y-86316337D01*
X56714035Y-86102171D01*
X56712699Y-86100262D01*
X56578494Y-85908597D01*
X56521893Y-85851996D01*
X58884435Y-85851996D01*
X58884435Y-85852003D01*
X58904630Y-86031249D01*
X58904631Y-86031254D01*
X58964211Y-86201523D01*
X59049105Y-86336630D01*
X59060184Y-86354262D01*
X59187738Y-86481816D01*
X59340478Y-86577789D01*
X59510745Y-86637368D01*
X59510750Y-86637369D01*
X59689996Y-86657565D01*
X59690000Y-86657565D01*
X59690004Y-86657565D01*
X59869249Y-86637369D01*
X59869252Y-86637368D01*
X59869255Y-86637368D01*
X60039522Y-86577789D01*
X60192262Y-86481816D01*
X60314082Y-86359996D01*
X69044435Y-86359996D01*
X69044435Y-86360003D01*
X69064630Y-86539249D01*
X69064631Y-86539254D01*
X69124211Y-86709523D01*
X69168495Y-86780000D01*
X69220184Y-86862262D01*
X69347738Y-86989816D01*
X69500478Y-87085789D01*
X69603952Y-87121996D01*
X69670745Y-87145368D01*
X69670750Y-87145369D01*
X69849996Y-87165565D01*
X69850000Y-87165565D01*
X69850004Y-87165565D01*
X70029249Y-87145369D01*
X70029252Y-87145368D01*
X70029255Y-87145368D01*
X70199522Y-87085789D01*
X70352262Y-86989816D01*
X70479816Y-86862262D01*
X70575789Y-86709522D01*
X70635368Y-86539255D01*
X70646814Y-86437667D01*
X70655565Y-86360003D01*
X70655565Y-86359996D01*
X70635369Y-86180750D01*
X70635368Y-86180745D01*
X70575788Y-86010476D01*
X70490894Y-85875369D01*
X70479816Y-85857738D01*
X70352262Y-85730184D01*
X70199523Y-85634211D01*
X70029254Y-85574631D01*
X70029249Y-85574630D01*
X69850004Y-85554435D01*
X69849996Y-85554435D01*
X69670750Y-85574630D01*
X69670745Y-85574631D01*
X69500476Y-85634211D01*
X69347737Y-85730184D01*
X69220184Y-85857737D01*
X69124211Y-86010476D01*
X69064631Y-86180745D01*
X69064630Y-86180750D01*
X69044435Y-86359996D01*
X60314082Y-86359996D01*
X60319816Y-86354262D01*
X60415789Y-86201522D01*
X60475368Y-86031255D01*
X60477709Y-86010478D01*
X60495565Y-85852003D01*
X60495565Y-85851996D01*
X60475369Y-85672750D01*
X60475368Y-85672745D01*
X60457390Y-85621368D01*
X60415789Y-85502478D01*
X60388291Y-85458716D01*
X60363176Y-85418745D01*
X60319816Y-85349738D01*
X60192262Y-85222184D01*
X60174078Y-85210758D01*
X60039523Y-85126211D01*
X59936027Y-85089996D01*
X74632435Y-85089996D01*
X74632435Y-85090003D01*
X74652630Y-85269249D01*
X74652631Y-85269254D01*
X74712211Y-85439523D01*
X74794523Y-85570521D01*
X74808184Y-85592262D01*
X74935738Y-85719816D01*
X75088478Y-85815789D01*
X75258745Y-85875368D01*
X75258750Y-85875369D01*
X75437996Y-85895565D01*
X75438000Y-85895565D01*
X75438004Y-85895565D01*
X75617249Y-85875369D01*
X75617252Y-85875368D01*
X75617255Y-85875368D01*
X75684048Y-85851996D01*
X81490435Y-85851996D01*
X81490435Y-85852003D01*
X81510630Y-86031249D01*
X81510631Y-86031254D01*
X81570211Y-86201523D01*
X81655105Y-86336630D01*
X81666184Y-86354262D01*
X81793738Y-86481816D01*
X81946478Y-86577789D01*
X82116745Y-86637368D01*
X82116750Y-86637369D01*
X82295996Y-86657565D01*
X82296000Y-86657565D01*
X82296004Y-86657565D01*
X82475249Y-86637369D01*
X82475252Y-86637368D01*
X82475255Y-86637368D01*
X82645522Y-86577789D01*
X82798262Y-86481816D01*
X82925816Y-86354262D01*
X83021789Y-86201522D01*
X83081368Y-86031255D01*
X83083709Y-86010478D01*
X83101565Y-85852003D01*
X83101565Y-85851996D01*
X83081369Y-85672750D01*
X83081368Y-85672745D01*
X83063390Y-85621368D01*
X83021789Y-85502478D01*
X82994291Y-85458716D01*
X82969176Y-85418745D01*
X82925816Y-85349738D01*
X82798262Y-85222184D01*
X82780078Y-85210758D01*
X82645523Y-85126211D01*
X82475254Y-85066631D01*
X82475249Y-85066630D01*
X82296004Y-85046435D01*
X82295996Y-85046435D01*
X82116750Y-85066630D01*
X82116745Y-85066631D01*
X81946476Y-85126211D01*
X81793737Y-85222184D01*
X81666184Y-85349737D01*
X81570211Y-85502476D01*
X81510631Y-85672745D01*
X81510630Y-85672750D01*
X81490435Y-85851996D01*
X75684048Y-85851996D01*
X75787522Y-85815789D01*
X75940262Y-85719816D01*
X76067816Y-85592262D01*
X76163789Y-85439522D01*
X76223368Y-85269255D01*
X76225709Y-85248478D01*
X76243565Y-85090003D01*
X76243565Y-85089996D01*
X76223369Y-84910750D01*
X76223368Y-84910745D01*
X76197215Y-84836003D01*
X76197213Y-84835996D01*
X105874435Y-84835996D01*
X105874435Y-84836003D01*
X105894630Y-85015249D01*
X105894631Y-85015254D01*
X105954211Y-85185523D01*
X105993769Y-85248478D01*
X106050184Y-85338262D01*
X106177738Y-85465816D01*
X106330478Y-85561789D01*
X106433952Y-85597996D01*
X106500745Y-85621368D01*
X106500750Y-85621369D01*
X106679996Y-85641565D01*
X106680000Y-85641565D01*
X106680004Y-85641565D01*
X106859249Y-85621369D01*
X106859252Y-85621368D01*
X106859255Y-85621368D01*
X107029522Y-85561789D01*
X107182262Y-85465816D01*
X107309816Y-85338262D01*
X107405789Y-85185522D01*
X107465368Y-85015255D01*
X107465854Y-85010943D01*
X107485565Y-84836003D01*
X107485565Y-84835996D01*
X107465369Y-84656750D01*
X107465368Y-84656745D01*
X107431036Y-84558630D01*
X107405789Y-84486478D01*
X107398836Y-84475413D01*
X107309815Y-84333737D01*
X107182262Y-84206184D01*
X107029523Y-84110211D01*
X106859254Y-84050631D01*
X106859249Y-84050630D01*
X106680004Y-84030435D01*
X106679996Y-84030435D01*
X106500750Y-84050630D01*
X106500745Y-84050631D01*
X106330476Y-84110211D01*
X106177737Y-84206184D01*
X106050184Y-84333737D01*
X105954211Y-84486476D01*
X105894631Y-84656745D01*
X105894630Y-84656750D01*
X105874435Y-84835996D01*
X76197213Y-84835996D01*
X76163789Y-84740478D01*
X76147267Y-84714184D01*
X76124231Y-84677522D01*
X76067816Y-84587738D01*
X75940262Y-84460184D01*
X75787523Y-84364211D01*
X75617254Y-84304631D01*
X75617249Y-84304630D01*
X75438004Y-84284435D01*
X75437996Y-84284435D01*
X75258750Y-84304630D01*
X75258745Y-84304631D01*
X75088476Y-84364211D01*
X74935737Y-84460184D01*
X74808184Y-84587737D01*
X74712211Y-84740476D01*
X74652631Y-84910745D01*
X74652630Y-84910750D01*
X74632435Y-85089996D01*
X59936027Y-85089996D01*
X59869254Y-85066631D01*
X59869249Y-85066630D01*
X59690004Y-85046435D01*
X59689996Y-85046435D01*
X59510750Y-85066630D01*
X59510745Y-85066631D01*
X59340476Y-85126211D01*
X59187737Y-85222184D01*
X59060184Y-85349737D01*
X58964211Y-85502476D01*
X58904631Y-85672745D01*
X58904630Y-85672750D01*
X58884435Y-85851996D01*
X56521893Y-85851996D01*
X56411402Y-85741506D01*
X56411396Y-85741501D01*
X56225842Y-85611575D01*
X56182217Y-85556998D01*
X56175023Y-85487500D01*
X56206546Y-85425145D01*
X56225842Y-85408425D01*
X56248026Y-85392891D01*
X56411401Y-85278495D01*
X56578495Y-85111401D01*
X56714035Y-84917830D01*
X56813903Y-84703663D01*
X56875063Y-84475408D01*
X56895659Y-84240000D01*
X56875063Y-84004592D01*
X56813903Y-83776337D01*
X56714035Y-83562171D01*
X56708425Y-83554158D01*
X56578494Y-83368597D01*
X56411402Y-83201506D01*
X56411396Y-83201501D01*
X56225842Y-83071575D01*
X56182217Y-83016998D01*
X56175023Y-82947500D01*
X56206546Y-82885145D01*
X56225842Y-82868425D01*
X56248026Y-82852891D01*
X56411401Y-82738495D01*
X56578495Y-82571401D01*
X56714035Y-82377830D01*
X56813903Y-82163663D01*
X56875063Y-81935408D01*
X56895659Y-81700000D01*
X56875063Y-81464592D01*
X56813903Y-81236337D01*
X56714035Y-81022171D01*
X56708425Y-81014158D01*
X56578494Y-80828597D01*
X56411402Y-80661506D01*
X56411396Y-80661501D01*
X56225842Y-80531575D01*
X56182217Y-80476998D01*
X56175023Y-80407500D01*
X56206546Y-80345145D01*
X56225842Y-80328425D01*
X56317856Y-80263996D01*
X56411401Y-80198495D01*
X56578495Y-80031401D01*
X56714035Y-79837830D01*
X56813903Y-79623663D01*
X56875063Y-79395408D01*
X56895659Y-79160000D01*
X56875063Y-78924592D01*
X56813903Y-78696337D01*
X56714035Y-78482171D01*
X56714034Y-78482169D01*
X56575390Y-78284164D01*
X56576315Y-78283515D01*
X56550580Y-78224698D01*
X56561626Y-78155707D01*
X56585900Y-78121333D01*
X58378416Y-76328819D01*
X58439739Y-76295334D01*
X58466097Y-76292500D01*
X77100535Y-76292500D01*
X77167574Y-76312185D01*
X77213329Y-76364989D01*
X77223273Y-76434147D01*
X77217577Y-76457454D01*
X77192632Y-76528742D01*
X77192630Y-76528750D01*
X77172435Y-76707996D01*
X77172435Y-76708003D01*
X77192630Y-76887249D01*
X77192631Y-76887254D01*
X77252211Y-77057523D01*
X77268631Y-77083655D01*
X77348184Y-77210262D01*
X77475738Y-77337816D01*
X77573472Y-77399226D01*
X77619763Y-77451561D01*
X77631500Y-77504220D01*
X77631500Y-79540306D01*
X77611815Y-79607345D01*
X77578623Y-79641881D01*
X77392859Y-79771953D01*
X77231954Y-79932858D01*
X77101432Y-80119265D01*
X77101431Y-80119267D01*
X77074382Y-80177275D01*
X77028209Y-80229714D01*
X76961016Y-80248866D01*
X76894135Y-80228650D01*
X76849618Y-80177275D01*
X76822568Y-80119267D01*
X76822567Y-80119265D01*
X76761045Y-80031402D01*
X76692047Y-79932861D01*
X76692045Y-79932858D01*
X76531141Y-79771954D01*
X76344734Y-79641432D01*
X76344732Y-79641431D01*
X76138497Y-79545261D01*
X76138488Y-79545258D01*
X75918697Y-79486366D01*
X75918693Y-79486365D01*
X75918692Y-79486365D01*
X75918691Y-79486364D01*
X75918686Y-79486364D01*
X75692002Y-79466532D01*
X75691998Y-79466532D01*
X75465313Y-79486364D01*
X75465302Y-79486366D01*
X75245511Y-79545258D01*
X75245502Y-79545261D01*
X75039267Y-79641431D01*
X75039265Y-79641432D01*
X74852858Y-79771954D01*
X74691954Y-79932858D01*
X74561432Y-80119265D01*
X74561431Y-80119267D01*
X74534382Y-80177275D01*
X74488209Y-80229714D01*
X74421016Y-80248866D01*
X74354135Y-80228650D01*
X74309618Y-80177275D01*
X74282568Y-80119267D01*
X74282567Y-80119265D01*
X74221045Y-80031402D01*
X74152047Y-79932861D01*
X74152045Y-79932858D01*
X73991141Y-79771954D01*
X73804734Y-79641432D01*
X73804732Y-79641431D01*
X73598497Y-79545261D01*
X73598488Y-79545258D01*
X73378697Y-79486366D01*
X73378693Y-79486365D01*
X73378692Y-79486365D01*
X73378691Y-79486364D01*
X73378686Y-79486364D01*
X73152002Y-79466532D01*
X73151998Y-79466532D01*
X72925313Y-79486364D01*
X72925302Y-79486366D01*
X72705511Y-79545258D01*
X72705502Y-79545261D01*
X72499267Y-79641431D01*
X72499265Y-79641432D01*
X72312858Y-79771954D01*
X72151954Y-79932858D01*
X72021432Y-80119265D01*
X72021431Y-80119267D01*
X71925261Y-80325502D01*
X71925258Y-80325511D01*
X71866366Y-80545302D01*
X71866364Y-80545313D01*
X71846532Y-80771998D01*
X71846532Y-80772001D01*
X71866364Y-80998686D01*
X71866366Y-80998697D01*
X71925258Y-81218488D01*
X71925261Y-81218497D01*
X72021431Y-81424732D01*
X72021432Y-81424734D01*
X72151954Y-81611141D01*
X72312858Y-81772045D01*
X72312861Y-81772047D01*
X72499266Y-81902568D01*
X72705504Y-81998739D01*
X72925308Y-82057635D01*
X73087230Y-82071801D01*
X73151998Y-82077468D01*
X73152000Y-82077468D01*
X73152002Y-82077468D01*
X73208673Y-82072509D01*
X73378692Y-82057635D01*
X73598496Y-81998739D01*
X73804734Y-81902568D01*
X73991139Y-81772047D01*
X74152047Y-81611139D01*
X74282568Y-81424734D01*
X74309618Y-81366724D01*
X74355790Y-81314285D01*
X74422983Y-81295133D01*
X74489865Y-81315348D01*
X74534382Y-81366725D01*
X74561429Y-81424728D01*
X74561432Y-81424734D01*
X74691954Y-81611141D01*
X74852858Y-81772045D01*
X74852861Y-81772047D01*
X75039266Y-81902568D01*
X75245504Y-81998739D01*
X75465308Y-82057635D01*
X75627230Y-82071801D01*
X75691998Y-82077468D01*
X75692000Y-82077468D01*
X75692002Y-82077468D01*
X75748673Y-82072509D01*
X75918692Y-82057635D01*
X76138496Y-81998739D01*
X76344734Y-81902568D01*
X76531139Y-81772047D01*
X76692047Y-81611139D01*
X76822568Y-81424734D01*
X76849618Y-81366724D01*
X76895790Y-81314285D01*
X76962983Y-81295133D01*
X77029865Y-81315348D01*
X77074382Y-81366725D01*
X77101429Y-81424728D01*
X77101432Y-81424734D01*
X77231954Y-81611141D01*
X77392858Y-81772045D01*
X77392861Y-81772047D01*
X77579266Y-81902568D01*
X77785504Y-81998739D01*
X78005308Y-82057635D01*
X78167230Y-82071801D01*
X78231998Y-82077468D01*
X78232000Y-82077468D01*
X78232002Y-82077468D01*
X78288673Y-82072509D01*
X78458692Y-82057635D01*
X78678496Y-81998739D01*
X78884734Y-81902568D01*
X79071139Y-81772047D01*
X79232047Y-81611139D01*
X79362568Y-81424734D01*
X79389618Y-81366724D01*
X79435790Y-81314285D01*
X79502983Y-81295133D01*
X79569865Y-81315348D01*
X79614382Y-81366725D01*
X79641429Y-81424728D01*
X79641432Y-81424734D01*
X79771954Y-81611141D01*
X79932858Y-81772045D01*
X79932861Y-81772047D01*
X80119266Y-81902568D01*
X80325504Y-81998739D01*
X80545308Y-82057635D01*
X80707230Y-82071801D01*
X80771998Y-82077468D01*
X80772000Y-82077468D01*
X80772002Y-82077468D01*
X80828673Y-82072509D01*
X80998692Y-82057635D01*
X81218496Y-81998739D01*
X81424734Y-81902568D01*
X81611139Y-81772047D01*
X81772047Y-81611139D01*
X81902568Y-81424734D01*
X81929618Y-81366724D01*
X81975790Y-81314285D01*
X82042983Y-81295133D01*
X82109865Y-81315348D01*
X82154382Y-81366725D01*
X82181429Y-81424728D01*
X82181432Y-81424734D01*
X82311954Y-81611141D01*
X82472858Y-81772045D01*
X82472861Y-81772047D01*
X82659266Y-81902568D01*
X82865504Y-81998739D01*
X83085308Y-82057635D01*
X83247230Y-82071801D01*
X83311998Y-82077468D01*
X83312000Y-82077468D01*
X83312002Y-82077468D01*
X83368673Y-82072509D01*
X83538692Y-82057635D01*
X83758496Y-81998739D01*
X83964734Y-81902568D01*
X84151139Y-81772047D01*
X84312047Y-81611139D01*
X84442568Y-81424734D01*
X84469618Y-81366724D01*
X84515790Y-81314285D01*
X84582983Y-81295133D01*
X84649865Y-81315348D01*
X84694382Y-81366725D01*
X84721429Y-81424728D01*
X84721432Y-81424734D01*
X84851954Y-81611141D01*
X85012858Y-81772045D01*
X85012861Y-81772047D01*
X85199266Y-81902568D01*
X85405504Y-81998739D01*
X85625308Y-82057635D01*
X85787230Y-82071801D01*
X85851998Y-82077468D01*
X85852000Y-82077468D01*
X85852002Y-82077468D01*
X85908673Y-82072509D01*
X86078692Y-82057635D01*
X86298496Y-81998739D01*
X86504734Y-81902568D01*
X86691139Y-81772047D01*
X86852047Y-81611139D01*
X86982568Y-81424734D01*
X87009618Y-81366724D01*
X87055790Y-81314285D01*
X87122983Y-81295133D01*
X87189865Y-81315348D01*
X87234382Y-81366725D01*
X87261429Y-81424728D01*
X87261432Y-81424734D01*
X87391954Y-81611141D01*
X87552858Y-81772045D01*
X87552861Y-81772047D01*
X87739266Y-81902568D01*
X87945504Y-81998739D01*
X88165308Y-82057635D01*
X88327230Y-82071801D01*
X88391998Y-82077468D01*
X88392000Y-82077468D01*
X88392002Y-82077468D01*
X88448673Y-82072509D01*
X88618692Y-82057635D01*
X88838496Y-81998739D01*
X89044734Y-81902568D01*
X89231139Y-81772047D01*
X89392047Y-81611139D01*
X89522568Y-81424734D01*
X89549618Y-81366724D01*
X89595790Y-81314285D01*
X89662983Y-81295133D01*
X89729865Y-81315348D01*
X89774382Y-81366725D01*
X89801429Y-81424728D01*
X89801432Y-81424734D01*
X89931954Y-81611141D01*
X90092858Y-81772045D01*
X90092861Y-81772047D01*
X90279266Y-81902568D01*
X90485504Y-81998739D01*
X90705308Y-82057635D01*
X90867230Y-82071801D01*
X90931998Y-82077468D01*
X90932000Y-82077468D01*
X90932002Y-82077468D01*
X90988673Y-82072509D01*
X91158692Y-82057635D01*
X91378496Y-81998739D01*
X91584734Y-81902568D01*
X91771139Y-81772047D01*
X91932047Y-81611139D01*
X92062568Y-81424734D01*
X92089618Y-81366724D01*
X92135790Y-81314285D01*
X92202983Y-81295133D01*
X92269865Y-81315348D01*
X92314382Y-81366725D01*
X92341429Y-81424728D01*
X92341432Y-81424734D01*
X92471954Y-81611141D01*
X92632858Y-81772045D01*
X92632861Y-81772047D01*
X92819266Y-81902568D01*
X93025504Y-81998739D01*
X93245308Y-82057635D01*
X93407230Y-82071801D01*
X93471998Y-82077468D01*
X93472000Y-82077468D01*
X93472002Y-82077468D01*
X93528673Y-82072509D01*
X93698692Y-82057635D01*
X93918496Y-81998739D01*
X94124734Y-81902568D01*
X94311139Y-81772047D01*
X94472047Y-81611139D01*
X94602568Y-81424734D01*
X94629618Y-81366724D01*
X94675790Y-81314285D01*
X94742983Y-81295133D01*
X94809865Y-81315348D01*
X94854382Y-81366725D01*
X94881429Y-81424728D01*
X94881432Y-81424734D01*
X95011954Y-81611141D01*
X95172858Y-81772045D01*
X95172861Y-81772047D01*
X95359266Y-81902568D01*
X95565504Y-81998739D01*
X95785308Y-82057635D01*
X95947230Y-82071801D01*
X96011998Y-82077468D01*
X96012000Y-82077468D01*
X96012002Y-82077468D01*
X96068673Y-82072509D01*
X96238692Y-82057635D01*
X96458496Y-81998739D01*
X96664734Y-81902568D01*
X96851139Y-81772047D01*
X97012047Y-81611139D01*
X97142568Y-81424734D01*
X97169618Y-81366724D01*
X97215790Y-81314285D01*
X97282983Y-81295133D01*
X97349865Y-81315348D01*
X97394382Y-81366725D01*
X97421429Y-81424728D01*
X97421432Y-81424734D01*
X97551954Y-81611141D01*
X97712858Y-81772045D01*
X97712861Y-81772047D01*
X97899266Y-81902568D01*
X98105504Y-81998739D01*
X98325308Y-82057635D01*
X98487230Y-82071801D01*
X98551998Y-82077468D01*
X98552000Y-82077468D01*
X98552002Y-82077468D01*
X98608673Y-82072509D01*
X98778692Y-82057635D01*
X98998496Y-81998739D01*
X99204734Y-81902568D01*
X99391139Y-81772047D01*
X99552047Y-81611139D01*
X99682568Y-81424734D01*
X99709618Y-81366724D01*
X99755790Y-81314285D01*
X99822983Y-81295133D01*
X99889865Y-81315348D01*
X99934382Y-81366725D01*
X99961429Y-81424728D01*
X99961432Y-81424734D01*
X100091954Y-81611141D01*
X100252858Y-81772045D01*
X100252861Y-81772047D01*
X100439266Y-81902568D01*
X100645504Y-81998739D01*
X100865308Y-82057635D01*
X101027230Y-82071801D01*
X101091998Y-82077468D01*
X101092000Y-82077468D01*
X101092002Y-82077468D01*
X101148673Y-82072509D01*
X101318692Y-82057635D01*
X101538496Y-81998739D01*
X101744734Y-81902568D01*
X101931139Y-81772047D01*
X102092047Y-81611139D01*
X102222568Y-81424734D01*
X102249618Y-81366724D01*
X102295790Y-81314285D01*
X102362983Y-81295133D01*
X102429865Y-81315348D01*
X102474382Y-81366725D01*
X102501429Y-81424728D01*
X102501432Y-81424734D01*
X102631954Y-81611141D01*
X102792858Y-81772045D01*
X102792861Y-81772047D01*
X102979266Y-81902568D01*
X103185504Y-81998739D01*
X103405308Y-82057635D01*
X103567230Y-82071801D01*
X103631998Y-82077468D01*
X103632000Y-82077468D01*
X103632002Y-82077468D01*
X103688673Y-82072509D01*
X103858692Y-82057635D01*
X104078496Y-81998739D01*
X104284734Y-81902568D01*
X104471139Y-81772047D01*
X104632047Y-81611139D01*
X104762568Y-81424734D01*
X104789618Y-81366724D01*
X104835790Y-81314285D01*
X104902983Y-81295133D01*
X104969865Y-81315348D01*
X105014382Y-81366725D01*
X105041429Y-81424728D01*
X105041432Y-81424734D01*
X105171954Y-81611141D01*
X105332858Y-81772045D01*
X105332861Y-81772047D01*
X105519266Y-81902568D01*
X105725504Y-81998739D01*
X105945308Y-82057635D01*
X106107230Y-82071801D01*
X106171998Y-82077468D01*
X106172000Y-82077468D01*
X106172002Y-82077468D01*
X106228673Y-82072509D01*
X106398692Y-82057635D01*
X106618496Y-81998739D01*
X106824734Y-81902568D01*
X107011139Y-81772047D01*
X107172047Y-81611139D01*
X107302568Y-81424734D01*
X107329618Y-81366724D01*
X107375790Y-81314285D01*
X107442983Y-81295133D01*
X107509865Y-81315348D01*
X107554382Y-81366725D01*
X107581429Y-81424728D01*
X107581432Y-81424734D01*
X107711954Y-81611141D01*
X107872858Y-81772045D01*
X107872861Y-81772047D01*
X108059266Y-81902568D01*
X108265504Y-81998739D01*
X108485308Y-82057635D01*
X108647230Y-82071801D01*
X108711998Y-82077468D01*
X108712000Y-82077468D01*
X108712002Y-82077468D01*
X108768673Y-82072509D01*
X108938692Y-82057635D01*
X109158496Y-81998739D01*
X109364734Y-81902568D01*
X109551139Y-81772047D01*
X109712047Y-81611139D01*
X109842568Y-81424734D01*
X109869618Y-81366724D01*
X109915790Y-81314285D01*
X109982983Y-81295133D01*
X110049865Y-81315348D01*
X110094382Y-81366725D01*
X110121429Y-81424728D01*
X110121432Y-81424734D01*
X110251954Y-81611141D01*
X110412858Y-81772045D01*
X110412861Y-81772047D01*
X110599266Y-81902568D01*
X110805504Y-81998739D01*
X111025308Y-82057635D01*
X111187230Y-82071801D01*
X111251998Y-82077468D01*
X111252000Y-82077468D01*
X111252002Y-82077468D01*
X111308673Y-82072509D01*
X111478692Y-82057635D01*
X111698496Y-81998739D01*
X111904734Y-81902568D01*
X112091139Y-81772047D01*
X112252047Y-81611139D01*
X112382568Y-81424734D01*
X112409618Y-81366724D01*
X112455790Y-81314285D01*
X112522983Y-81295133D01*
X112589865Y-81315348D01*
X112634382Y-81366725D01*
X112661429Y-81424728D01*
X112661432Y-81424734D01*
X112791954Y-81611141D01*
X112952858Y-81772045D01*
X112952861Y-81772047D01*
X113139266Y-81902568D01*
X113345504Y-81998739D01*
X113565308Y-82057635D01*
X113727230Y-82071801D01*
X113791998Y-82077468D01*
X113792000Y-82077468D01*
X113792002Y-82077468D01*
X113848673Y-82072509D01*
X114018692Y-82057635D01*
X114238496Y-81998739D01*
X114285096Y-81977008D01*
X114354172Y-81966517D01*
X114417956Y-81995036D01*
X114456196Y-82053513D01*
X114461500Y-82089391D01*
X114461500Y-85003330D01*
X114461499Y-85003348D01*
X114461499Y-85169054D01*
X114461498Y-85169054D01*
X114461499Y-85169057D01*
X114490823Y-85278495D01*
X114502424Y-85321787D01*
X114511935Y-85338260D01*
X114511936Y-85338262D01*
X114581477Y-85458712D01*
X114581481Y-85458717D01*
X114700349Y-85577585D01*
X114700355Y-85577590D01*
X114739298Y-85616533D01*
X114772783Y-85677856D01*
X114774837Y-85690330D01*
X114784630Y-85777249D01*
X114844210Y-85947521D01*
X114936349Y-86094158D01*
X114940184Y-86100262D01*
X115067738Y-86227816D01*
X115220478Y-86323789D01*
X115307565Y-86354262D01*
X115390745Y-86383368D01*
X115390750Y-86383369D01*
X115569996Y-86403565D01*
X115570000Y-86403565D01*
X115570004Y-86403565D01*
X115749249Y-86383369D01*
X115749252Y-86383368D01*
X115749255Y-86383368D01*
X115919522Y-86323789D01*
X116072262Y-86227816D01*
X116199816Y-86100262D01*
X116295789Y-85947522D01*
X116355368Y-85777255D01*
X116359396Y-85741505D01*
X116375565Y-85598003D01*
X116375565Y-85597996D01*
X116355369Y-85418750D01*
X116355368Y-85418745D01*
X116329215Y-85344003D01*
X116329213Y-85343996D01*
X124416435Y-85343996D01*
X124416435Y-85344003D01*
X124436630Y-85523249D01*
X124436631Y-85523254D01*
X124496211Y-85693523D01*
X124574480Y-85818087D01*
X124592184Y-85846262D01*
X124719738Y-85973816D01*
X124872478Y-86069789D01*
X125042745Y-86129368D01*
X125042750Y-86129369D01*
X125221996Y-86149565D01*
X125222000Y-86149565D01*
X125222004Y-86149565D01*
X125401249Y-86129369D01*
X125401252Y-86129368D01*
X125401255Y-86129368D01*
X125571522Y-86069789D01*
X125724262Y-85973816D01*
X125851816Y-85846262D01*
X125947789Y-85693522D01*
X126007368Y-85523255D01*
X126007369Y-85523249D01*
X126027565Y-85344003D01*
X126027565Y-85343996D01*
X134322435Y-85343996D01*
X134322435Y-85344003D01*
X134342630Y-85523249D01*
X134342631Y-85523254D01*
X134402211Y-85693523D01*
X134480480Y-85818087D01*
X134498184Y-85846262D01*
X134625738Y-85973816D01*
X134778478Y-86069789D01*
X134948745Y-86129368D01*
X134948750Y-86129369D01*
X135127996Y-86149565D01*
X135128000Y-86149565D01*
X135128004Y-86149565D01*
X135307249Y-86129369D01*
X135307252Y-86129368D01*
X135307255Y-86129368D01*
X135477522Y-86069789D01*
X135630262Y-85973816D01*
X135757816Y-85846262D01*
X135853789Y-85693522D01*
X135913368Y-85523255D01*
X135913369Y-85523249D01*
X135933565Y-85344003D01*
X135933565Y-85343996D01*
X135913369Y-85164750D01*
X135913368Y-85164745D01*
X135887215Y-85090003D01*
X135853789Y-84994478D01*
X135837267Y-84968184D01*
X135798538Y-84906546D01*
X135757816Y-84841738D01*
X135630262Y-84714184D01*
X135598604Y-84694292D01*
X135477523Y-84618211D01*
X135307254Y-84558631D01*
X135307249Y-84558630D01*
X135128004Y-84538435D01*
X135127996Y-84538435D01*
X134948750Y-84558630D01*
X134948745Y-84558631D01*
X134778476Y-84618211D01*
X134625737Y-84714184D01*
X134498184Y-84841737D01*
X134402211Y-84994476D01*
X134342631Y-85164745D01*
X134342630Y-85164750D01*
X134322435Y-85343996D01*
X126027565Y-85343996D01*
X126007369Y-85164750D01*
X126007368Y-85164745D01*
X125981215Y-85090003D01*
X125947789Y-84994478D01*
X125931267Y-84968184D01*
X125892538Y-84906546D01*
X125851816Y-84841738D01*
X125724262Y-84714184D01*
X125692604Y-84694292D01*
X125571523Y-84618211D01*
X125401254Y-84558631D01*
X125401249Y-84558630D01*
X125222004Y-84538435D01*
X125221996Y-84538435D01*
X125042750Y-84558630D01*
X125042745Y-84558631D01*
X124872476Y-84618211D01*
X124719737Y-84714184D01*
X124592184Y-84841737D01*
X124496211Y-84994476D01*
X124436631Y-85164745D01*
X124436630Y-85164750D01*
X124416435Y-85343996D01*
X116329213Y-85343996D01*
X116295789Y-85248478D01*
X116279267Y-85222184D01*
X116245885Y-85169057D01*
X116199816Y-85095738D01*
X116072262Y-84968184D01*
X115919523Y-84872211D01*
X115799639Y-84830262D01*
X115749255Y-84812632D01*
X115749254Y-84812631D01*
X115745545Y-84811334D01*
X115688769Y-84770612D01*
X115663022Y-84705659D01*
X115662500Y-84694292D01*
X115662500Y-84327996D01*
X118066435Y-84327996D01*
X118066435Y-84328003D01*
X118086630Y-84507249D01*
X118086631Y-84507254D01*
X118146211Y-84677523D01*
X118224964Y-84802857D01*
X118242184Y-84830262D01*
X118369738Y-84957816D01*
X118522478Y-85053789D01*
X118692745Y-85113368D01*
X118692750Y-85113369D01*
X118871996Y-85133565D01*
X118872000Y-85133565D01*
X118872004Y-85133565D01*
X119051249Y-85113369D01*
X119051252Y-85113368D01*
X119051255Y-85113368D01*
X119221522Y-85053789D01*
X119374262Y-84957816D01*
X119501816Y-84830262D01*
X119597789Y-84677522D01*
X119657368Y-84507255D01*
X119659709Y-84486478D01*
X119677565Y-84328003D01*
X119677565Y-84327996D01*
X119657369Y-84148750D01*
X119657368Y-84148745D01*
X119623036Y-84050630D01*
X119597789Y-83978478D01*
X119501816Y-83825738D01*
X119374262Y-83698184D01*
X119221523Y-83602211D01*
X119051254Y-83542631D01*
X119051249Y-83542630D01*
X118872004Y-83522435D01*
X118871996Y-83522435D01*
X118692750Y-83542630D01*
X118692745Y-83542631D01*
X118522476Y-83602211D01*
X118369737Y-83698184D01*
X118242184Y-83825737D01*
X118146211Y-83978476D01*
X118086631Y-84148745D01*
X118086630Y-84148750D01*
X118066435Y-84327996D01*
X115662500Y-84327996D01*
X115662500Y-82089391D01*
X115682185Y-82022352D01*
X115734989Y-81976597D01*
X115804147Y-81966653D01*
X115838902Y-81977008D01*
X115885504Y-81998739D01*
X116105308Y-82057635D01*
X116267230Y-82071801D01*
X116331998Y-82077468D01*
X116332000Y-82077468D01*
X116332002Y-82077468D01*
X116388673Y-82072509D01*
X116558692Y-82057635D01*
X116778496Y-81998739D01*
X116984734Y-81902568D01*
X117171139Y-81772047D01*
X117332047Y-81611139D01*
X117462568Y-81424734D01*
X117489618Y-81366724D01*
X117535790Y-81314285D01*
X117602983Y-81295133D01*
X117669865Y-81315348D01*
X117714382Y-81366725D01*
X117741429Y-81424728D01*
X117741432Y-81424734D01*
X117871954Y-81611141D01*
X118032858Y-81772045D01*
X118032861Y-81772047D01*
X118219266Y-81902568D01*
X118425504Y-81998739D01*
X118645308Y-82057635D01*
X118807230Y-82071801D01*
X118871998Y-82077468D01*
X118872000Y-82077468D01*
X118872002Y-82077468D01*
X118928673Y-82072509D01*
X119098692Y-82057635D01*
X119318496Y-81998739D01*
X119524734Y-81902568D01*
X119711139Y-81772047D01*
X119872047Y-81611139D01*
X120002568Y-81424734D01*
X120029618Y-81366724D01*
X120075790Y-81314285D01*
X120142983Y-81295133D01*
X120209865Y-81315348D01*
X120254382Y-81366725D01*
X120281429Y-81424728D01*
X120281432Y-81424734D01*
X120411954Y-81611141D01*
X120572858Y-81772045D01*
X120572861Y-81772047D01*
X120759266Y-81902568D01*
X120965504Y-81998739D01*
X121185308Y-82057635D01*
X121347230Y-82071801D01*
X121411998Y-82077468D01*
X121412000Y-82077468D01*
X121412002Y-82077468D01*
X121468673Y-82072509D01*
X121638692Y-82057635D01*
X121858496Y-81998739D01*
X122064734Y-81902568D01*
X122251139Y-81772047D01*
X122412047Y-81611139D01*
X122542568Y-81424734D01*
X122638739Y-81218496D01*
X122697635Y-80998692D01*
X122717468Y-80772000D01*
X122697635Y-80545308D01*
X122638739Y-80325504D01*
X122610057Y-80263996D01*
X127464435Y-80263996D01*
X127464435Y-80264003D01*
X127484630Y-80443249D01*
X127484631Y-80443254D01*
X127544211Y-80613523D01*
X127574361Y-80661506D01*
X127640184Y-80766262D01*
X127767738Y-80893816D01*
X127795540Y-80911285D01*
X127920474Y-80989787D01*
X127920478Y-80989789D01*
X128087450Y-81048215D01*
X128090745Y-81049368D01*
X128090750Y-81049369D01*
X128269996Y-81069565D01*
X128270000Y-81069565D01*
X128270004Y-81069565D01*
X128449249Y-81049369D01*
X128449252Y-81049368D01*
X128449255Y-81049368D01*
X128619522Y-80989789D01*
X128772262Y-80893816D01*
X128899816Y-80766262D01*
X128995789Y-80613522D01*
X129055368Y-80443255D01*
X129055369Y-80443249D01*
X129075565Y-80264003D01*
X129075565Y-80263996D01*
X138386435Y-80263996D01*
X138386435Y-80264003D01*
X138406630Y-80443249D01*
X138406631Y-80443254D01*
X138466211Y-80613523D01*
X138496361Y-80661506D01*
X138562184Y-80766262D01*
X138689738Y-80893816D01*
X138717540Y-80911285D01*
X138842474Y-80989787D01*
X138842478Y-80989789D01*
X139009450Y-81048215D01*
X139012745Y-81049368D01*
X139012750Y-81049369D01*
X139191996Y-81069565D01*
X139192000Y-81069565D01*
X139192004Y-81069565D01*
X139371249Y-81049369D01*
X139371252Y-81049368D01*
X139371255Y-81049368D01*
X139541522Y-80989789D01*
X139694262Y-80893816D01*
X139821816Y-80766262D01*
X139917789Y-80613522D01*
X139977368Y-80443255D01*
X139977369Y-80443249D01*
X139997565Y-80264003D01*
X139997565Y-80263996D01*
X139977369Y-80084750D01*
X139977368Y-80084745D01*
X139944364Y-79990425D01*
X139917789Y-79914478D01*
X139821816Y-79761738D01*
X139694262Y-79634184D01*
X139619653Y-79587304D01*
X139541523Y-79538211D01*
X139371254Y-79478631D01*
X139371249Y-79478630D01*
X139192004Y-79458435D01*
X139191996Y-79458435D01*
X139012750Y-79478630D01*
X139012745Y-79478631D01*
X138842476Y-79538211D01*
X138689737Y-79634184D01*
X138562184Y-79761737D01*
X138466211Y-79914476D01*
X138406631Y-80084745D01*
X138406630Y-80084750D01*
X138386435Y-80263996D01*
X129075565Y-80263996D01*
X129055369Y-80084750D01*
X129055368Y-80084745D01*
X129022364Y-79990425D01*
X128995789Y-79914478D01*
X128899816Y-79761738D01*
X128772262Y-79634184D01*
X128697653Y-79587304D01*
X128619523Y-79538211D01*
X128449254Y-79478631D01*
X128449249Y-79478630D01*
X128270004Y-79458435D01*
X128269996Y-79458435D01*
X128090750Y-79478630D01*
X128090745Y-79478631D01*
X127920476Y-79538211D01*
X127767737Y-79634184D01*
X127640184Y-79761737D01*
X127544211Y-79914476D01*
X127484631Y-80084745D01*
X127484630Y-80084750D01*
X127464435Y-80263996D01*
X122610057Y-80263996D01*
X122542568Y-80119266D01*
X122412047Y-79932861D01*
X122412045Y-79932858D01*
X122251141Y-79771954D01*
X122064734Y-79641432D01*
X122064732Y-79641431D01*
X121858497Y-79545261D01*
X121858488Y-79545258D01*
X121638697Y-79486366D01*
X121638693Y-79486365D01*
X121638692Y-79486365D01*
X121638691Y-79486364D01*
X121638686Y-79486364D01*
X121412002Y-79466532D01*
X121411998Y-79466532D01*
X121185313Y-79486364D01*
X121185302Y-79486366D01*
X120965511Y-79545258D01*
X120965502Y-79545261D01*
X120759267Y-79641431D01*
X120759265Y-79641432D01*
X120572858Y-79771954D01*
X120411954Y-79932858D01*
X120281432Y-80119265D01*
X120281431Y-80119267D01*
X120254382Y-80177275D01*
X120208209Y-80229714D01*
X120141016Y-80248866D01*
X120074135Y-80228650D01*
X120029618Y-80177275D01*
X120002568Y-80119267D01*
X120002567Y-80119265D01*
X119941045Y-80031402D01*
X119872047Y-79932861D01*
X119872045Y-79932858D01*
X119711141Y-79771954D01*
X119524734Y-79641432D01*
X119524732Y-79641431D01*
X119318497Y-79545261D01*
X119318488Y-79545258D01*
X119098697Y-79486366D01*
X119098693Y-79486365D01*
X119098692Y-79486365D01*
X119098691Y-79486364D01*
X119098686Y-79486364D01*
X118872002Y-79466532D01*
X118871998Y-79466532D01*
X118645313Y-79486364D01*
X118645302Y-79486366D01*
X118425511Y-79545258D01*
X118425502Y-79545261D01*
X118219267Y-79641431D01*
X118219265Y-79641432D01*
X118032858Y-79771954D01*
X117871954Y-79932858D01*
X117741432Y-80119265D01*
X117741431Y-80119267D01*
X117714382Y-80177275D01*
X117668209Y-80229714D01*
X117601016Y-80248866D01*
X117534135Y-80228650D01*
X117489618Y-80177275D01*
X117462568Y-80119267D01*
X117462567Y-80119265D01*
X117401045Y-80031402D01*
X117332047Y-79932861D01*
X117332045Y-79932858D01*
X117171141Y-79771954D01*
X116984734Y-79641432D01*
X116984732Y-79641431D01*
X116778497Y-79545261D01*
X116778488Y-79545258D01*
X116558697Y-79486366D01*
X116558693Y-79486365D01*
X116558692Y-79486365D01*
X116558691Y-79486364D01*
X116558686Y-79486364D01*
X116332002Y-79466532D01*
X116331998Y-79466532D01*
X116105313Y-79486364D01*
X116105302Y-79486366D01*
X115885511Y-79545258D01*
X115885502Y-79545261D01*
X115679267Y-79641431D01*
X115679265Y-79641432D01*
X115534760Y-79742615D01*
X115468553Y-79764942D01*
X115400786Y-79747931D01*
X115375956Y-79728721D01*
X114025590Y-78378355D01*
X114025588Y-78378352D01*
X113906717Y-78259481D01*
X113906716Y-78259480D01*
X113819904Y-78209360D01*
X113819904Y-78209359D01*
X113819900Y-78209358D01*
X113769785Y-78180423D01*
X113617057Y-78139499D01*
X113458943Y-78139499D01*
X113451347Y-78139499D01*
X113451331Y-78139500D01*
X82596097Y-78139500D01*
X82529058Y-78119815D01*
X82508416Y-78103181D01*
X81367231Y-76961996D01*
X89618435Y-76961996D01*
X89618435Y-76962003D01*
X89638630Y-77141249D01*
X89638631Y-77141254D01*
X89698211Y-77311523D01*
X89775701Y-77434846D01*
X89794184Y-77464262D01*
X89921738Y-77591816D01*
X90074478Y-77687789D01*
X90244745Y-77747368D01*
X90244750Y-77747369D01*
X90423996Y-77767565D01*
X90424000Y-77767565D01*
X90424004Y-77767565D01*
X90603249Y-77747369D01*
X90603252Y-77747368D01*
X90603255Y-77747368D01*
X90773522Y-77687789D01*
X90926262Y-77591816D01*
X91053816Y-77464262D01*
X91149789Y-77311522D01*
X91209368Y-77141255D01*
X91215858Y-77083655D01*
X91229565Y-76962003D01*
X91229565Y-76961996D01*
X102064435Y-76961996D01*
X102064435Y-76962003D01*
X102084630Y-77141249D01*
X102084631Y-77141254D01*
X102144211Y-77311523D01*
X102221701Y-77434846D01*
X102240184Y-77464262D01*
X102367738Y-77591816D01*
X102520478Y-77687789D01*
X102690745Y-77747368D01*
X102690750Y-77747369D01*
X102869996Y-77767565D01*
X102870000Y-77767565D01*
X102870004Y-77767565D01*
X103049249Y-77747369D01*
X103049252Y-77747368D01*
X103049255Y-77747368D01*
X103219522Y-77687789D01*
X103372262Y-77591816D01*
X103499816Y-77464262D01*
X103595789Y-77311522D01*
X103655368Y-77141255D01*
X103661858Y-77083655D01*
X103675565Y-76962003D01*
X103675565Y-76961996D01*
X103655369Y-76782750D01*
X103655368Y-76782745D01*
X103636255Y-76728123D01*
X103595789Y-76612478D01*
X103499816Y-76459738D01*
X103372262Y-76332184D01*
X103313616Y-76295334D01*
X103219523Y-76236211D01*
X103049254Y-76176631D01*
X103049249Y-76176630D01*
X102870004Y-76156435D01*
X102869996Y-76156435D01*
X102690750Y-76176630D01*
X102690745Y-76176631D01*
X102520476Y-76236211D01*
X102367737Y-76332184D01*
X102240184Y-76459737D01*
X102144211Y-76612476D01*
X102084631Y-76782745D01*
X102084630Y-76782750D01*
X102064435Y-76961996D01*
X91229565Y-76961996D01*
X91209369Y-76782750D01*
X91209368Y-76782745D01*
X91190255Y-76728123D01*
X91149789Y-76612478D01*
X91053816Y-76459738D01*
X90926262Y-76332184D01*
X90867616Y-76295334D01*
X90773523Y-76236211D01*
X90603254Y-76176631D01*
X90603249Y-76176630D01*
X90424004Y-76156435D01*
X90423996Y-76156435D01*
X90244750Y-76176630D01*
X90244745Y-76176631D01*
X90074476Y-76236211D01*
X89921737Y-76332184D01*
X89794184Y-76459737D01*
X89698211Y-76612476D01*
X89638631Y-76782745D01*
X89638630Y-76782750D01*
X89618435Y-76961996D01*
X81367231Y-76961996D01*
X79735590Y-75330355D01*
X79735588Y-75330352D01*
X79616717Y-75211481D01*
X79616716Y-75211480D01*
X79529904Y-75161360D01*
X79529904Y-75161359D01*
X79529900Y-75161358D01*
X79479785Y-75132423D01*
X79327057Y-75091499D01*
X79168943Y-75091499D01*
X79161347Y-75091499D01*
X79161331Y-75091500D01*
X58252669Y-75091500D01*
X58252653Y-75091499D01*
X58245057Y-75091499D01*
X58086943Y-75091499D01*
X57986202Y-75118493D01*
X57934210Y-75132424D01*
X57934209Y-75132425D01*
X57884096Y-75161359D01*
X57884095Y-75161360D01*
X57840689Y-75186420D01*
X57797285Y-75211479D01*
X57797282Y-75211481D01*
X57685478Y-75323286D01*
X56951375Y-76057388D01*
X56890052Y-76090873D01*
X56820360Y-76085889D01*
X56764427Y-76044017D01*
X56751312Y-76022111D01*
X56714037Y-75942175D01*
X56714034Y-75942169D01*
X56578494Y-75748597D01*
X56411402Y-75581506D01*
X56411396Y-75581501D01*
X56225842Y-75451575D01*
X56182217Y-75396998D01*
X56175023Y-75327500D01*
X56206546Y-75265145D01*
X56225842Y-75248425D01*
X56350183Y-75161360D01*
X56411401Y-75118495D01*
X56578495Y-74951401D01*
X56714035Y-74757830D01*
X56813903Y-74543663D01*
X56875063Y-74315408D01*
X56895659Y-74080000D01*
X56875063Y-73844592D01*
X56813903Y-73616337D01*
X56714035Y-73402171D01*
X56708425Y-73394158D01*
X56578494Y-73208597D01*
X56411402Y-73041506D01*
X56411396Y-73041501D01*
X56225842Y-72911575D01*
X56182217Y-72856998D01*
X56175023Y-72787500D01*
X56206546Y-72725145D01*
X56225842Y-72708425D01*
X56248026Y-72692891D01*
X56411401Y-72578495D01*
X56578495Y-72411401D01*
X56714035Y-72217830D01*
X56813903Y-72003663D01*
X56875063Y-71775408D01*
X56895659Y-71540000D01*
X56875063Y-71304592D01*
X56825601Y-71119996D01*
X74124435Y-71119996D01*
X74124435Y-71120003D01*
X74144630Y-71299249D01*
X74144631Y-71299254D01*
X74204211Y-71469523D01*
X74248495Y-71540000D01*
X74300184Y-71622262D01*
X74427738Y-71749816D01*
X74580478Y-71845789D01*
X74667565Y-71876262D01*
X74750745Y-71905368D01*
X74750750Y-71905369D01*
X74929996Y-71925565D01*
X74930000Y-71925565D01*
X74930004Y-71925565D01*
X75109249Y-71905369D01*
X75109252Y-71905368D01*
X75109255Y-71905368D01*
X75279522Y-71845789D01*
X75432262Y-71749816D01*
X75559816Y-71622262D01*
X75655789Y-71469522D01*
X75715368Y-71299255D01*
X75727143Y-71194750D01*
X75735565Y-71120003D01*
X75735565Y-71119996D01*
X83014435Y-71119996D01*
X83014435Y-71120003D01*
X83034630Y-71299249D01*
X83034631Y-71299254D01*
X83094211Y-71469523D01*
X83138495Y-71540000D01*
X83190184Y-71622262D01*
X83317738Y-71749816D01*
X83470478Y-71845789D01*
X83557565Y-71876262D01*
X83640745Y-71905368D01*
X83640750Y-71905369D01*
X83819996Y-71925565D01*
X83820000Y-71925565D01*
X83820004Y-71925565D01*
X83999249Y-71905369D01*
X83999252Y-71905368D01*
X83999255Y-71905368D01*
X84169522Y-71845789D01*
X84322262Y-71749816D01*
X84449816Y-71622262D01*
X84545789Y-71469522D01*
X84605368Y-71299255D01*
X84617143Y-71194750D01*
X84625565Y-71120003D01*
X84625565Y-71119996D01*
X96730435Y-71119996D01*
X96730435Y-71120003D01*
X96750630Y-71299249D01*
X96750631Y-71299254D01*
X96810211Y-71469523D01*
X96854495Y-71540000D01*
X96906184Y-71622262D01*
X97033738Y-71749816D01*
X97186478Y-71845789D01*
X97273565Y-71876262D01*
X97356745Y-71905368D01*
X97356750Y-71905369D01*
X97535996Y-71925565D01*
X97536000Y-71925565D01*
X97536004Y-71925565D01*
X97715249Y-71905369D01*
X97715252Y-71905368D01*
X97715255Y-71905368D01*
X97885522Y-71845789D01*
X98038262Y-71749816D01*
X98165816Y-71622262D01*
X98261789Y-71469522D01*
X98295215Y-71373996D01*
X107144435Y-71373996D01*
X107144435Y-71374003D01*
X107164630Y-71553249D01*
X107164631Y-71553254D01*
X107224211Y-71723523D01*
X107320184Y-71876262D01*
X107447738Y-72003816D01*
X107600478Y-72099789D01*
X107770745Y-72159368D01*
X107770750Y-72159369D01*
X107949996Y-72179565D01*
X107950000Y-72179565D01*
X107950004Y-72179565D01*
X108129249Y-72159369D01*
X108129252Y-72159368D01*
X108129255Y-72159368D01*
X108299522Y-72099789D01*
X108452262Y-72003816D01*
X108579816Y-71876262D01*
X108675789Y-71723522D01*
X108735368Y-71553255D01*
X108735369Y-71553249D01*
X108755565Y-71374003D01*
X108755565Y-71373996D01*
X108735369Y-71194750D01*
X108735368Y-71194745D01*
X108709215Y-71120003D01*
X108709213Y-71119996D01*
X115526435Y-71119996D01*
X115526435Y-71120003D01*
X115546630Y-71299249D01*
X115546631Y-71299254D01*
X115606211Y-71469523D01*
X115650495Y-71540000D01*
X115702184Y-71622262D01*
X115829738Y-71749816D01*
X115982478Y-71845789D01*
X116069565Y-71876262D01*
X116152745Y-71905368D01*
X116152750Y-71905369D01*
X116331996Y-71925565D01*
X116332000Y-71925565D01*
X116332004Y-71925565D01*
X116511249Y-71905369D01*
X116511252Y-71905368D01*
X116511255Y-71905368D01*
X116681522Y-71845789D01*
X116834262Y-71749816D01*
X116961816Y-71622262D01*
X117057789Y-71469522D01*
X117117368Y-71299255D01*
X117129143Y-71194750D01*
X117137565Y-71120003D01*
X117137565Y-71119996D01*
X117117369Y-70940750D01*
X117117368Y-70940745D01*
X117057788Y-70770476D01*
X116961815Y-70617737D01*
X116956074Y-70611996D01*
X126448435Y-70611996D01*
X126448435Y-70612003D01*
X126468630Y-70791249D01*
X126468631Y-70791254D01*
X126528211Y-70961523D01*
X126624184Y-71114262D01*
X126751738Y-71241816D01*
X126904478Y-71337789D01*
X127007952Y-71373996D01*
X127074745Y-71397368D01*
X127074750Y-71397369D01*
X127253996Y-71417565D01*
X127254000Y-71417565D01*
X127254004Y-71417565D01*
X127433249Y-71397369D01*
X127433252Y-71397368D01*
X127433255Y-71397368D01*
X127603522Y-71337789D01*
X127756262Y-71241816D01*
X127883816Y-71114262D01*
X127979789Y-70961522D01*
X128039368Y-70791255D01*
X128041709Y-70770478D01*
X128059565Y-70612003D01*
X128059565Y-70611996D01*
X128039369Y-70432750D01*
X128039368Y-70432745D01*
X128013215Y-70358003D01*
X128013213Y-70357996D01*
X137878435Y-70357996D01*
X137878435Y-70358003D01*
X137898630Y-70537249D01*
X137898631Y-70537254D01*
X137958211Y-70707523D01*
X137997769Y-70770478D01*
X138054184Y-70860262D01*
X138181738Y-70987816D01*
X138334478Y-71083789D01*
X138421565Y-71114262D01*
X138504745Y-71143368D01*
X138504750Y-71143369D01*
X138683996Y-71163565D01*
X138684000Y-71163565D01*
X138684004Y-71163565D01*
X138863249Y-71143369D01*
X138863252Y-71143368D01*
X138863255Y-71143368D01*
X139033522Y-71083789D01*
X139186262Y-70987816D01*
X139313816Y-70860262D01*
X139409789Y-70707522D01*
X139469368Y-70537255D01*
X139469369Y-70537249D01*
X139489565Y-70358003D01*
X139489565Y-70357996D01*
X139469369Y-70178750D01*
X139469368Y-70178745D01*
X139420292Y-70038495D01*
X139409789Y-70008478D01*
X139393267Y-69982184D01*
X139340291Y-69897873D01*
X139313816Y-69855738D01*
X139186262Y-69728184D01*
X139033523Y-69632211D01*
X138863254Y-69572631D01*
X138863249Y-69572630D01*
X138684004Y-69552435D01*
X138683996Y-69552435D01*
X138504750Y-69572630D01*
X138504745Y-69572631D01*
X138334476Y-69632211D01*
X138181737Y-69728184D01*
X138054184Y-69855737D01*
X137958211Y-70008476D01*
X137898631Y-70178745D01*
X137898630Y-70178750D01*
X137878435Y-70357996D01*
X128013213Y-70357996D01*
X127979789Y-70262478D01*
X127883816Y-70109738D01*
X127756262Y-69982184D01*
X127673115Y-69929939D01*
X127603523Y-69886211D01*
X127433254Y-69826631D01*
X127433249Y-69826630D01*
X127254004Y-69806435D01*
X127253996Y-69806435D01*
X127074750Y-69826630D01*
X127074745Y-69826631D01*
X126904476Y-69886211D01*
X126751737Y-69982184D01*
X126624184Y-70109737D01*
X126528211Y-70262476D01*
X126468631Y-70432745D01*
X126468630Y-70432750D01*
X126448435Y-70611996D01*
X116956074Y-70611996D01*
X116834262Y-70490184D01*
X116681523Y-70394211D01*
X116511254Y-70334631D01*
X116511249Y-70334630D01*
X116332004Y-70314435D01*
X116331996Y-70314435D01*
X116152750Y-70334630D01*
X116152745Y-70334631D01*
X115982476Y-70394211D01*
X115829737Y-70490184D01*
X115702184Y-70617737D01*
X115606211Y-70770476D01*
X115546631Y-70940745D01*
X115546630Y-70940750D01*
X115526435Y-71119996D01*
X108709213Y-71119996D01*
X108675789Y-71024478D01*
X108579816Y-70871738D01*
X108452262Y-70744184D01*
X108299523Y-70648211D01*
X108129254Y-70588631D01*
X108129249Y-70588630D01*
X107950004Y-70568435D01*
X107949996Y-70568435D01*
X107770750Y-70588630D01*
X107770745Y-70588631D01*
X107600476Y-70648211D01*
X107447737Y-70744184D01*
X107320184Y-70871737D01*
X107224211Y-71024476D01*
X107164631Y-71194745D01*
X107164630Y-71194750D01*
X107144435Y-71373996D01*
X98295215Y-71373996D01*
X98321368Y-71299255D01*
X98333143Y-71194750D01*
X98341565Y-71120003D01*
X98341565Y-71119996D01*
X98321369Y-70940750D01*
X98321368Y-70940745D01*
X98261788Y-70770476D01*
X98165815Y-70617737D01*
X98038262Y-70490184D01*
X97885523Y-70394211D01*
X97715254Y-70334631D01*
X97715249Y-70334630D01*
X97536004Y-70314435D01*
X97535996Y-70314435D01*
X97356750Y-70334630D01*
X97356745Y-70334631D01*
X97186476Y-70394211D01*
X97033737Y-70490184D01*
X96906184Y-70617737D01*
X96810211Y-70770476D01*
X96750631Y-70940745D01*
X96750630Y-70940750D01*
X96730435Y-71119996D01*
X84625565Y-71119996D01*
X84605369Y-70940750D01*
X84605368Y-70940745D01*
X84545788Y-70770476D01*
X84449815Y-70617737D01*
X84322262Y-70490184D01*
X84169523Y-70394211D01*
X83999254Y-70334631D01*
X83999249Y-70334630D01*
X83820004Y-70314435D01*
X83819996Y-70314435D01*
X83640750Y-70334630D01*
X83640745Y-70334631D01*
X83470476Y-70394211D01*
X83317737Y-70490184D01*
X83190184Y-70617737D01*
X83094211Y-70770476D01*
X83034631Y-70940745D01*
X83034630Y-70940750D01*
X83014435Y-71119996D01*
X75735565Y-71119996D01*
X75715369Y-70940750D01*
X75715368Y-70940745D01*
X75655788Y-70770476D01*
X75559815Y-70617737D01*
X75432262Y-70490184D01*
X75279523Y-70394211D01*
X75109254Y-70334631D01*
X75109249Y-70334630D01*
X74930004Y-70314435D01*
X74929996Y-70314435D01*
X74750750Y-70334630D01*
X74750745Y-70334631D01*
X74580476Y-70394211D01*
X74427737Y-70490184D01*
X74300184Y-70617737D01*
X74204211Y-70770476D01*
X74144631Y-70940745D01*
X74144630Y-70940750D01*
X74124435Y-71119996D01*
X56825601Y-71119996D01*
X56815900Y-71083789D01*
X56813905Y-71076344D01*
X56813904Y-71076343D01*
X56813903Y-71076337D01*
X56714035Y-70862171D01*
X56712699Y-70860262D01*
X56578494Y-70668597D01*
X56411402Y-70501506D01*
X56411396Y-70501501D01*
X56225842Y-70371575D01*
X56182217Y-70316998D01*
X56175023Y-70247500D01*
X56206546Y-70185145D01*
X56225842Y-70168425D01*
X56248026Y-70152891D01*
X56411401Y-70038495D01*
X56578495Y-69871401D01*
X56714035Y-69677830D01*
X56813903Y-69463663D01*
X56875063Y-69235408D01*
X56895659Y-69000000D01*
X56875063Y-68764592D01*
X56813903Y-68536337D01*
X56714035Y-68322171D01*
X56708425Y-68314158D01*
X56578494Y-68128597D01*
X56411402Y-67961506D01*
X56411395Y-67961501D01*
X56217834Y-67825967D01*
X56217830Y-67825965D01*
X56217828Y-67825964D01*
X56003663Y-67726097D01*
X56003659Y-67726096D01*
X56003655Y-67726094D01*
X55775413Y-67664938D01*
X55775403Y-67664936D01*
X55540001Y-67644341D01*
X55539999Y-67644341D01*
X55304596Y-67664936D01*
X55304586Y-67664938D01*
X55076344Y-67726094D01*
X55076335Y-67726098D01*
X54862171Y-67825964D01*
X54862169Y-67825965D01*
X54668597Y-67961505D01*
X54501505Y-68128597D01*
X54371575Y-68314158D01*
X54316998Y-68357783D01*
X54247500Y-68364977D01*
X54185145Y-68333454D01*
X54168425Y-68314158D01*
X54038494Y-68128597D01*
X53871402Y-67961506D01*
X53871395Y-67961501D01*
X53677834Y-67825967D01*
X53677830Y-67825965D01*
X53677828Y-67825964D01*
X53463663Y-67726097D01*
X53463659Y-67726096D01*
X53463655Y-67726094D01*
X53235413Y-67664938D01*
X53235403Y-67664936D01*
X53000001Y-67644341D01*
X52999999Y-67644341D01*
X52764596Y-67664936D01*
X52764586Y-67664938D01*
X52536344Y-67726094D01*
X52536335Y-67726098D01*
X52322171Y-67825964D01*
X52322169Y-67825965D01*
X52128597Y-67961505D01*
X51961505Y-68128597D01*
X51825965Y-68322169D01*
X51825964Y-68322171D01*
X51726098Y-68536335D01*
X51726094Y-68536344D01*
X51664938Y-68764586D01*
X51664936Y-68764596D01*
X51644341Y-68999999D01*
X51000500Y-68999999D01*
X51000500Y-67124500D01*
X51020185Y-67057461D01*
X51072989Y-67011706D01*
X51124500Y-67000500D01*
X148875500Y-67000500D01*
X148942539Y-67020185D01*
G37*
%TD.AperFunction*%
%TA.AperFunction,NonConductor*%
G36*
X145584340Y-69888068D02*
G01*
X145640274Y-69929939D01*
X145657189Y-69960917D01*
X145706202Y-70092328D01*
X145706206Y-70092335D01*
X145792452Y-70207544D01*
X145792455Y-70207547D01*
X145907664Y-70293793D01*
X145907671Y-70293797D01*
X146039081Y-70342810D01*
X146095015Y-70384681D01*
X146119432Y-70450145D01*
X146104580Y-70518418D01*
X146083430Y-70546673D01*
X145961503Y-70668600D01*
X145831575Y-70854158D01*
X145776998Y-70897783D01*
X145707500Y-70904977D01*
X145645145Y-70873454D01*
X145628425Y-70854158D01*
X145498494Y-70668597D01*
X145331402Y-70501506D01*
X145331396Y-70501501D01*
X145145842Y-70371575D01*
X145102217Y-70316998D01*
X145095023Y-70247500D01*
X145126546Y-70185145D01*
X145145842Y-70168425D01*
X145168026Y-70152891D01*
X145331401Y-70038495D01*
X145453329Y-69916566D01*
X145514648Y-69883084D01*
X145584340Y-69888068D01*
G37*
%TD.AperFunction*%
%TA.AperFunction,NonConductor*%
G36*
X54354855Y-69666546D02*
G01*
X54371575Y-69685842D01*
X54501501Y-69871396D01*
X54501506Y-69871402D01*
X54668597Y-70038493D01*
X54668603Y-70038498D01*
X54854158Y-70168425D01*
X54897783Y-70223002D01*
X54904977Y-70292500D01*
X54873454Y-70354855D01*
X54854158Y-70371575D01*
X54668597Y-70501505D01*
X54501505Y-70668597D01*
X54371575Y-70854158D01*
X54316998Y-70897783D01*
X54247500Y-70904977D01*
X54185145Y-70873454D01*
X54168425Y-70854158D01*
X54038494Y-70668597D01*
X53871402Y-70501506D01*
X53871396Y-70501501D01*
X53685842Y-70371575D01*
X53642217Y-70316998D01*
X53635023Y-70247500D01*
X53666546Y-70185145D01*
X53685842Y-70168425D01*
X53708026Y-70152891D01*
X53871401Y-70038495D01*
X54038495Y-69871401D01*
X54168425Y-69685842D01*
X54223002Y-69642217D01*
X54292500Y-69635023D01*
X54354855Y-69666546D01*
G37*
%TD.AperFunction*%
%TA.AperFunction,NonConductor*%
G36*
X145814855Y-72206546D02*
G01*
X145831575Y-72225842D01*
X145961501Y-72411396D01*
X145961506Y-72411402D01*
X146128597Y-72578493D01*
X146128603Y-72578498D01*
X146314158Y-72708425D01*
X146357783Y-72763002D01*
X146364977Y-72832500D01*
X146333454Y-72894855D01*
X146314158Y-72911575D01*
X146128597Y-73041505D01*
X145961505Y-73208597D01*
X145831575Y-73394158D01*
X145776998Y-73437783D01*
X145707500Y-73444977D01*
X145645145Y-73413454D01*
X145628425Y-73394158D01*
X145498494Y-73208597D01*
X145331402Y-73041506D01*
X145331396Y-73041501D01*
X145145842Y-72911575D01*
X145102217Y-72856998D01*
X145095023Y-72787500D01*
X145126546Y-72725145D01*
X145145842Y-72708425D01*
X145168026Y-72692891D01*
X145331401Y-72578495D01*
X145498495Y-72411401D01*
X145628425Y-72225842D01*
X145683002Y-72182217D01*
X145752500Y-72175023D01*
X145814855Y-72206546D01*
G37*
%TD.AperFunction*%
%TA.AperFunction,NonConductor*%
G36*
X54354855Y-72206546D02*
G01*
X54371575Y-72225842D01*
X54501501Y-72411396D01*
X54501506Y-72411402D01*
X54668597Y-72578493D01*
X54668603Y-72578498D01*
X54854158Y-72708425D01*
X54897783Y-72763002D01*
X54904977Y-72832500D01*
X54873454Y-72894855D01*
X54854158Y-72911575D01*
X54668597Y-73041505D01*
X54501505Y-73208597D01*
X54371575Y-73394158D01*
X54316998Y-73437783D01*
X54247500Y-73444977D01*
X54185145Y-73413454D01*
X54168425Y-73394158D01*
X54038494Y-73208597D01*
X53871402Y-73041506D01*
X53871396Y-73041501D01*
X53685842Y-72911575D01*
X53642217Y-72856998D01*
X53635023Y-72787500D01*
X53666546Y-72725145D01*
X53685842Y-72708425D01*
X53708026Y-72692891D01*
X53871401Y-72578495D01*
X54038495Y-72411401D01*
X54168425Y-72225842D01*
X54223002Y-72182217D01*
X54292500Y-72175023D01*
X54354855Y-72206546D01*
G37*
%TD.AperFunction*%
%TA.AperFunction,NonConductor*%
G36*
X145814855Y-74746546D02*
G01*
X145831575Y-74765842D01*
X145961501Y-74951396D01*
X145961506Y-74951402D01*
X146128597Y-75118493D01*
X146128603Y-75118498D01*
X146314158Y-75248425D01*
X146357783Y-75303002D01*
X146364977Y-75372500D01*
X146333454Y-75434855D01*
X146314158Y-75451575D01*
X146128597Y-75581505D01*
X145961505Y-75748597D01*
X145831575Y-75934158D01*
X145776998Y-75977783D01*
X145707500Y-75984977D01*
X145645145Y-75953454D01*
X145628425Y-75934158D01*
X145498494Y-75748597D01*
X145331402Y-75581506D01*
X145331396Y-75581501D01*
X145145842Y-75451575D01*
X145102217Y-75396998D01*
X145095023Y-75327500D01*
X145126546Y-75265145D01*
X145145842Y-75248425D01*
X145270183Y-75161360D01*
X145331401Y-75118495D01*
X145498495Y-74951401D01*
X145628425Y-74765842D01*
X145683002Y-74722217D01*
X145752500Y-74715023D01*
X145814855Y-74746546D01*
G37*
%TD.AperFunction*%
%TA.AperFunction,NonConductor*%
G36*
X54354855Y-74746546D02*
G01*
X54371575Y-74765842D01*
X54501501Y-74951396D01*
X54501506Y-74951402D01*
X54668597Y-75118493D01*
X54668603Y-75118498D01*
X54854158Y-75248425D01*
X54897783Y-75303002D01*
X54904977Y-75372500D01*
X54873454Y-75434855D01*
X54854158Y-75451575D01*
X54668597Y-75581505D01*
X54501505Y-75748597D01*
X54371575Y-75934158D01*
X54316998Y-75977783D01*
X54247500Y-75984977D01*
X54185145Y-75953454D01*
X54168425Y-75934158D01*
X54038494Y-75748597D01*
X53871402Y-75581506D01*
X53871396Y-75581501D01*
X53685842Y-75451575D01*
X53642217Y-75396998D01*
X53635023Y-75327500D01*
X53666546Y-75265145D01*
X53685842Y-75248425D01*
X53810183Y-75161360D01*
X53871401Y-75118495D01*
X54038495Y-74951401D01*
X54168425Y-74765842D01*
X54223002Y-74722217D01*
X54292500Y-74715023D01*
X54354855Y-74746546D01*
G37*
%TD.AperFunction*%
%TA.AperFunction,NonConductor*%
G36*
X145814855Y-77286546D02*
G01*
X145831575Y-77305842D01*
X145961501Y-77491396D01*
X145961506Y-77491402D01*
X146128597Y-77658493D01*
X146128603Y-77658498D01*
X146314158Y-77788425D01*
X146357783Y-77843002D01*
X146364977Y-77912500D01*
X146333454Y-77974855D01*
X146314158Y-77991575D01*
X146128597Y-78121505D01*
X145961505Y-78288597D01*
X145831575Y-78474158D01*
X145776998Y-78517783D01*
X145707500Y-78524977D01*
X145645145Y-78493454D01*
X145628425Y-78474158D01*
X145498494Y-78288597D01*
X145331402Y-78121506D01*
X145331396Y-78121501D01*
X145145842Y-77991575D01*
X145102217Y-77936998D01*
X145095023Y-77867500D01*
X145126546Y-77805145D01*
X145145842Y-77788425D01*
X145204477Y-77747368D01*
X145331401Y-77658495D01*
X145498495Y-77491401D01*
X145628425Y-77305842D01*
X145683002Y-77262217D01*
X145752500Y-77255023D01*
X145814855Y-77286546D01*
G37*
%TD.AperFunction*%
%TA.AperFunction,NonConductor*%
G36*
X113292327Y-79360185D02*
G01*
X113338082Y-79412989D01*
X113348026Y-79482147D01*
X113319001Y-79545703D01*
X113277693Y-79576882D01*
X113139267Y-79641431D01*
X113139265Y-79641432D01*
X112952858Y-79771954D01*
X112791954Y-79932858D01*
X112661432Y-80119265D01*
X112661431Y-80119267D01*
X112634382Y-80177275D01*
X112588209Y-80229714D01*
X112521016Y-80248866D01*
X112454135Y-80228650D01*
X112409618Y-80177275D01*
X112382568Y-80119267D01*
X112382567Y-80119265D01*
X112321045Y-80031402D01*
X112252047Y-79932861D01*
X112252045Y-79932858D01*
X112091141Y-79771954D01*
X111904734Y-79641432D01*
X111904732Y-79641431D01*
X111766307Y-79576882D01*
X111713868Y-79530709D01*
X111694716Y-79463516D01*
X111714932Y-79396635D01*
X111768097Y-79351300D01*
X111818712Y-79340500D01*
X113225288Y-79340500D01*
X113292327Y-79360185D01*
G37*
%TD.AperFunction*%
%TA.AperFunction,NonConductor*%
G36*
X110752327Y-79360185D02*
G01*
X110798082Y-79412989D01*
X110808026Y-79482147D01*
X110779001Y-79545703D01*
X110737693Y-79576882D01*
X110599267Y-79641431D01*
X110599265Y-79641432D01*
X110412858Y-79771954D01*
X110251954Y-79932858D01*
X110121432Y-80119265D01*
X110121431Y-80119267D01*
X110094382Y-80177275D01*
X110048209Y-80229714D01*
X109981016Y-80248866D01*
X109914135Y-80228650D01*
X109869618Y-80177275D01*
X109842568Y-80119267D01*
X109842567Y-80119265D01*
X109781045Y-80031402D01*
X109712047Y-79932861D01*
X109712045Y-79932858D01*
X109551141Y-79771954D01*
X109364734Y-79641432D01*
X109364732Y-79641431D01*
X109226307Y-79576882D01*
X109173868Y-79530709D01*
X109154716Y-79463516D01*
X109174932Y-79396635D01*
X109228097Y-79351300D01*
X109278712Y-79340500D01*
X110685288Y-79340500D01*
X110752327Y-79360185D01*
G37*
%TD.AperFunction*%
%TA.AperFunction,NonConductor*%
G36*
X108212327Y-79360185D02*
G01*
X108258082Y-79412989D01*
X108268026Y-79482147D01*
X108239001Y-79545703D01*
X108197693Y-79576882D01*
X108059267Y-79641431D01*
X108059265Y-79641432D01*
X107872858Y-79771954D01*
X107711954Y-79932858D01*
X107581432Y-80119265D01*
X107581431Y-80119267D01*
X107554382Y-80177275D01*
X107508209Y-80229714D01*
X107441016Y-80248866D01*
X107374135Y-80228650D01*
X107329618Y-80177275D01*
X107302568Y-80119267D01*
X107302567Y-80119265D01*
X107241045Y-80031402D01*
X107172047Y-79932861D01*
X107172045Y-79932858D01*
X107011141Y-79771954D01*
X106824734Y-79641432D01*
X106824732Y-79641431D01*
X106686307Y-79576882D01*
X106633868Y-79530709D01*
X106614716Y-79463516D01*
X106634932Y-79396635D01*
X106688097Y-79351300D01*
X106738712Y-79340500D01*
X108145288Y-79340500D01*
X108212327Y-79360185D01*
G37*
%TD.AperFunction*%
%TA.AperFunction,NonConductor*%
G36*
X105672327Y-79360185D02*
G01*
X105718082Y-79412989D01*
X105728026Y-79482147D01*
X105699001Y-79545703D01*
X105657693Y-79576882D01*
X105519267Y-79641431D01*
X105519265Y-79641432D01*
X105332858Y-79771954D01*
X105171954Y-79932858D01*
X105041432Y-80119265D01*
X105041431Y-80119267D01*
X105014382Y-80177275D01*
X104968209Y-80229714D01*
X104901016Y-80248866D01*
X104834135Y-80228650D01*
X104789618Y-80177275D01*
X104762568Y-80119267D01*
X104762567Y-80119265D01*
X104701045Y-80031402D01*
X104632047Y-79932861D01*
X104632045Y-79932858D01*
X104471141Y-79771954D01*
X104284734Y-79641432D01*
X104284732Y-79641431D01*
X104146307Y-79576882D01*
X104093868Y-79530709D01*
X104074716Y-79463516D01*
X104094932Y-79396635D01*
X104148097Y-79351300D01*
X104198712Y-79340500D01*
X105605288Y-79340500D01*
X105672327Y-79360185D01*
G37*
%TD.AperFunction*%
%TA.AperFunction,NonConductor*%
G36*
X103132327Y-79360185D02*
G01*
X103178082Y-79412989D01*
X103188026Y-79482147D01*
X103159001Y-79545703D01*
X103117693Y-79576882D01*
X102979267Y-79641431D01*
X102979265Y-79641432D01*
X102792858Y-79771954D01*
X102631954Y-79932858D01*
X102501432Y-80119265D01*
X102501431Y-80119267D01*
X102474382Y-80177275D01*
X102428209Y-80229714D01*
X102361016Y-80248866D01*
X102294135Y-80228650D01*
X102249618Y-80177275D01*
X102222568Y-80119267D01*
X102222567Y-80119265D01*
X102161045Y-80031402D01*
X102092047Y-79932861D01*
X102092045Y-79932858D01*
X101931141Y-79771954D01*
X101744734Y-79641432D01*
X101744732Y-79641431D01*
X101606307Y-79576882D01*
X101553868Y-79530709D01*
X101534716Y-79463516D01*
X101554932Y-79396635D01*
X101608097Y-79351300D01*
X101658712Y-79340500D01*
X103065288Y-79340500D01*
X103132327Y-79360185D01*
G37*
%TD.AperFunction*%
%TA.AperFunction,NonConductor*%
G36*
X100592327Y-79360185D02*
G01*
X100638082Y-79412989D01*
X100648026Y-79482147D01*
X100619001Y-79545703D01*
X100577693Y-79576882D01*
X100439267Y-79641431D01*
X100439265Y-79641432D01*
X100252858Y-79771954D01*
X100091954Y-79932858D01*
X99961432Y-80119265D01*
X99961431Y-80119267D01*
X99934382Y-80177275D01*
X99888209Y-80229714D01*
X99821016Y-80248866D01*
X99754135Y-80228650D01*
X99709618Y-80177275D01*
X99682568Y-80119267D01*
X99682567Y-80119265D01*
X99621045Y-80031402D01*
X99552047Y-79932861D01*
X99552045Y-79932858D01*
X99391141Y-79771954D01*
X99204734Y-79641432D01*
X99204732Y-79641431D01*
X99066307Y-79576882D01*
X99013868Y-79530709D01*
X98994716Y-79463516D01*
X99014932Y-79396635D01*
X99068097Y-79351300D01*
X99118712Y-79340500D01*
X100525288Y-79340500D01*
X100592327Y-79360185D01*
G37*
%TD.AperFunction*%
%TA.AperFunction,NonConductor*%
G36*
X98052327Y-79360185D02*
G01*
X98098082Y-79412989D01*
X98108026Y-79482147D01*
X98079001Y-79545703D01*
X98037693Y-79576882D01*
X97899267Y-79641431D01*
X97899265Y-79641432D01*
X97712858Y-79771954D01*
X97551954Y-79932858D01*
X97421432Y-80119265D01*
X97421431Y-80119267D01*
X97394382Y-80177275D01*
X97348209Y-80229714D01*
X97281016Y-80248866D01*
X97214135Y-80228650D01*
X97169618Y-80177275D01*
X97142568Y-80119267D01*
X97142567Y-80119265D01*
X97081045Y-80031402D01*
X97012047Y-79932861D01*
X97012045Y-79932858D01*
X96851141Y-79771954D01*
X96664734Y-79641432D01*
X96664732Y-79641431D01*
X96526307Y-79576882D01*
X96473868Y-79530709D01*
X96454716Y-79463516D01*
X96474932Y-79396635D01*
X96528097Y-79351300D01*
X96578712Y-79340500D01*
X97985288Y-79340500D01*
X98052327Y-79360185D01*
G37*
%TD.AperFunction*%
%TA.AperFunction,NonConductor*%
G36*
X95512327Y-79360185D02*
G01*
X95558082Y-79412989D01*
X95568026Y-79482147D01*
X95539001Y-79545703D01*
X95497693Y-79576882D01*
X95359267Y-79641431D01*
X95359265Y-79641432D01*
X95172858Y-79771954D01*
X95011954Y-79932858D01*
X94881432Y-80119265D01*
X94881431Y-80119267D01*
X94854382Y-80177275D01*
X94808209Y-80229714D01*
X94741016Y-80248866D01*
X94674135Y-80228650D01*
X94629618Y-80177275D01*
X94602568Y-80119267D01*
X94602567Y-80119265D01*
X94541045Y-80031402D01*
X94472047Y-79932861D01*
X94472045Y-79932858D01*
X94311141Y-79771954D01*
X94124734Y-79641432D01*
X94124732Y-79641431D01*
X93986307Y-79576882D01*
X93933868Y-79530709D01*
X93914716Y-79463516D01*
X93934932Y-79396635D01*
X93988097Y-79351300D01*
X94038712Y-79340500D01*
X95445288Y-79340500D01*
X95512327Y-79360185D01*
G37*
%TD.AperFunction*%
%TA.AperFunction,NonConductor*%
G36*
X92972327Y-79360185D02*
G01*
X93018082Y-79412989D01*
X93028026Y-79482147D01*
X92999001Y-79545703D01*
X92957693Y-79576882D01*
X92819267Y-79641431D01*
X92819265Y-79641432D01*
X92632858Y-79771954D01*
X92471954Y-79932858D01*
X92341432Y-80119265D01*
X92341431Y-80119267D01*
X92314382Y-80177275D01*
X92268209Y-80229714D01*
X92201016Y-80248866D01*
X92134135Y-80228650D01*
X92089618Y-80177275D01*
X92062568Y-80119267D01*
X92062567Y-80119265D01*
X92001045Y-80031402D01*
X91932047Y-79932861D01*
X91932045Y-79932858D01*
X91771141Y-79771954D01*
X91584734Y-79641432D01*
X91584732Y-79641431D01*
X91446307Y-79576882D01*
X91393868Y-79530709D01*
X91374716Y-79463516D01*
X91394932Y-79396635D01*
X91448097Y-79351300D01*
X91498712Y-79340500D01*
X92905288Y-79340500D01*
X92972327Y-79360185D01*
G37*
%TD.AperFunction*%
%TA.AperFunction,NonConductor*%
G36*
X90432327Y-79360185D02*
G01*
X90478082Y-79412989D01*
X90488026Y-79482147D01*
X90459001Y-79545703D01*
X90417693Y-79576882D01*
X90279267Y-79641431D01*
X90279265Y-79641432D01*
X90092858Y-79771954D01*
X89931954Y-79932858D01*
X89801432Y-80119265D01*
X89801431Y-80119267D01*
X89774382Y-80177275D01*
X89728209Y-80229714D01*
X89661016Y-80248866D01*
X89594135Y-80228650D01*
X89549618Y-80177275D01*
X89522568Y-80119267D01*
X89522567Y-80119265D01*
X89461045Y-80031402D01*
X89392047Y-79932861D01*
X89392045Y-79932858D01*
X89231141Y-79771954D01*
X89044734Y-79641432D01*
X89044732Y-79641431D01*
X88906307Y-79576882D01*
X88853868Y-79530709D01*
X88834716Y-79463516D01*
X88854932Y-79396635D01*
X88908097Y-79351300D01*
X88958712Y-79340500D01*
X90365288Y-79340500D01*
X90432327Y-79360185D01*
G37*
%TD.AperFunction*%
%TA.AperFunction,NonConductor*%
G36*
X87892327Y-79360185D02*
G01*
X87938082Y-79412989D01*
X87948026Y-79482147D01*
X87919001Y-79545703D01*
X87877693Y-79576882D01*
X87739267Y-79641431D01*
X87739265Y-79641432D01*
X87552858Y-79771954D01*
X87391954Y-79932858D01*
X87261432Y-80119265D01*
X87261431Y-80119267D01*
X87234382Y-80177275D01*
X87188209Y-80229714D01*
X87121016Y-80248866D01*
X87054135Y-80228650D01*
X87009618Y-80177275D01*
X86982568Y-80119267D01*
X86982567Y-80119265D01*
X86921045Y-80031402D01*
X86852047Y-79932861D01*
X86852045Y-79932858D01*
X86691141Y-79771954D01*
X86504734Y-79641432D01*
X86504732Y-79641431D01*
X86366307Y-79576882D01*
X86313868Y-79530709D01*
X86294716Y-79463516D01*
X86314932Y-79396635D01*
X86368097Y-79351300D01*
X86418712Y-79340500D01*
X87825288Y-79340500D01*
X87892327Y-79360185D01*
G37*
%TD.AperFunction*%
%TA.AperFunction,NonConductor*%
G36*
X85352327Y-79360185D02*
G01*
X85398082Y-79412989D01*
X85408026Y-79482147D01*
X85379001Y-79545703D01*
X85337693Y-79576882D01*
X85199267Y-79641431D01*
X85199265Y-79641432D01*
X85012858Y-79771954D01*
X84851954Y-79932858D01*
X84721432Y-80119265D01*
X84721431Y-80119267D01*
X84694382Y-80177275D01*
X84648209Y-80229714D01*
X84581016Y-80248866D01*
X84514135Y-80228650D01*
X84469618Y-80177275D01*
X84442568Y-80119267D01*
X84442567Y-80119265D01*
X84381045Y-80031402D01*
X84312047Y-79932861D01*
X84312045Y-79932858D01*
X84151141Y-79771954D01*
X83964734Y-79641432D01*
X83964732Y-79641431D01*
X83826307Y-79576882D01*
X83773868Y-79530709D01*
X83754716Y-79463516D01*
X83774932Y-79396635D01*
X83828097Y-79351300D01*
X83878712Y-79340500D01*
X85285288Y-79340500D01*
X85352327Y-79360185D01*
G37*
%TD.AperFunction*%
%TA.AperFunction,NonConductor*%
G36*
X79014942Y-76312185D02*
G01*
X79035584Y-76328819D01*
X81811139Y-79104374D01*
X81811149Y-79104385D01*
X81927285Y-79220521D01*
X81960211Y-79239530D01*
X81993139Y-79258541D01*
X82064215Y-79299577D01*
X82216943Y-79340501D01*
X82216946Y-79340501D01*
X82382653Y-79340501D01*
X82382669Y-79340500D01*
X82745288Y-79340500D01*
X82812327Y-79360185D01*
X82858082Y-79412989D01*
X82868026Y-79482147D01*
X82839001Y-79545703D01*
X82797693Y-79576882D01*
X82659267Y-79641431D01*
X82659265Y-79641432D01*
X82472858Y-79771954D01*
X82311954Y-79932858D01*
X82181432Y-80119265D01*
X82181431Y-80119267D01*
X82154382Y-80177275D01*
X82108209Y-80229714D01*
X82041016Y-80248866D01*
X81974135Y-80228650D01*
X81929618Y-80177275D01*
X81902568Y-80119267D01*
X81902567Y-80119265D01*
X81841045Y-80031402D01*
X81772047Y-79932861D01*
X81772045Y-79932858D01*
X81611141Y-79771954D01*
X81424734Y-79641432D01*
X81424732Y-79641431D01*
X81218497Y-79545261D01*
X81218488Y-79545258D01*
X80998697Y-79486366D01*
X80998693Y-79486365D01*
X80998692Y-79486365D01*
X80998691Y-79486364D01*
X80998686Y-79486364D01*
X80772002Y-79466532D01*
X80771998Y-79466532D01*
X80545313Y-79486364D01*
X80545302Y-79486366D01*
X80325511Y-79545258D01*
X80325502Y-79545261D01*
X80119267Y-79641431D01*
X80119265Y-79641432D01*
X79932858Y-79771954D01*
X79771954Y-79932858D01*
X79641432Y-80119265D01*
X79641431Y-80119267D01*
X79614382Y-80177275D01*
X79568209Y-80229714D01*
X79501016Y-80248866D01*
X79434135Y-80228650D01*
X79389618Y-80177275D01*
X79362568Y-80119267D01*
X79362567Y-80119265D01*
X79301045Y-80031402D01*
X79232047Y-79932861D01*
X79232045Y-79932858D01*
X79071140Y-79771953D01*
X78885377Y-79641881D01*
X78841752Y-79587304D01*
X78832500Y-79540306D01*
X78832500Y-76882945D01*
X78832498Y-76882936D01*
X78827644Y-76864818D01*
X78791577Y-76730215D01*
X78791573Y-76730208D01*
X78790710Y-76728123D01*
X78782049Y-76694548D01*
X78763369Y-76528750D01*
X78763367Y-76528742D01*
X78738423Y-76457454D01*
X78734862Y-76387675D01*
X78769591Y-76327048D01*
X78831585Y-76294821D01*
X78855465Y-76292500D01*
X78947903Y-76292500D01*
X79014942Y-76312185D01*
G37*
%TD.AperFunction*%
%TA.AperFunction,NonConductor*%
G36*
X54354855Y-79826546D02*
G01*
X54371575Y-79845842D01*
X54501501Y-80031396D01*
X54501506Y-80031402D01*
X54668597Y-80198493D01*
X54668603Y-80198498D01*
X54854158Y-80328425D01*
X54897783Y-80383002D01*
X54904977Y-80452500D01*
X54873454Y-80514855D01*
X54854158Y-80531575D01*
X54668597Y-80661505D01*
X54501505Y-80828597D01*
X54371575Y-81014158D01*
X54316998Y-81057783D01*
X54247500Y-81064977D01*
X54185145Y-81033454D01*
X54168425Y-81014158D01*
X54038494Y-80828597D01*
X53871402Y-80661506D01*
X53871396Y-80661501D01*
X53685842Y-80531575D01*
X53642217Y-80476998D01*
X53635023Y-80407500D01*
X53666546Y-80345145D01*
X53685842Y-80328425D01*
X53777856Y-80263996D01*
X53871401Y-80198495D01*
X54038495Y-80031401D01*
X54168425Y-79845842D01*
X54223002Y-79802217D01*
X54292500Y-79795023D01*
X54354855Y-79826546D01*
G37*
%TD.AperFunction*%
%TA.AperFunction,NonConductor*%
G36*
X143426703Y-82577045D02*
G01*
X143433181Y-82583077D01*
X143588597Y-82738493D01*
X143588603Y-82738498D01*
X143774158Y-82868425D01*
X143817783Y-82923002D01*
X143824977Y-82992500D01*
X143793454Y-83054855D01*
X143774158Y-83071575D01*
X143588597Y-83201505D01*
X143433181Y-83356922D01*
X143371858Y-83390407D01*
X143302166Y-83385423D01*
X143246233Y-83343551D01*
X143221816Y-83278087D01*
X143221500Y-83269241D01*
X143221500Y-82670758D01*
X143241185Y-82603719D01*
X143293989Y-82557964D01*
X143363147Y-82548020D01*
X143426703Y-82577045D01*
G37*
%TD.AperFunction*%
%TA.AperFunction,NonConductor*%
G36*
X145814855Y-82366546D02*
G01*
X145831575Y-82385842D01*
X145961501Y-82571396D01*
X145961505Y-82571401D01*
X146128597Y-82738493D01*
X146128603Y-82738498D01*
X146314158Y-82868425D01*
X146357783Y-82923002D01*
X146364977Y-82992500D01*
X146333454Y-83054855D01*
X146314158Y-83071575D01*
X146128597Y-83201505D01*
X145961505Y-83368597D01*
X145831575Y-83554158D01*
X145776998Y-83597783D01*
X145707500Y-83604977D01*
X145645145Y-83573454D01*
X145628425Y-83554158D01*
X145498494Y-83368597D01*
X145331402Y-83201506D01*
X145331396Y-83201501D01*
X145145842Y-83071575D01*
X145102217Y-83016998D01*
X145095023Y-82947500D01*
X145126546Y-82885145D01*
X145145842Y-82868425D01*
X145168026Y-82852891D01*
X145331401Y-82738495D01*
X145498495Y-82571401D01*
X145628425Y-82385842D01*
X145683002Y-82342217D01*
X145752500Y-82335023D01*
X145814855Y-82366546D01*
G37*
%TD.AperFunction*%
%TA.AperFunction,NonConductor*%
G36*
X54354855Y-82366546D02*
G01*
X54371575Y-82385842D01*
X54501501Y-82571396D01*
X54501505Y-82571401D01*
X54668597Y-82738493D01*
X54668603Y-82738498D01*
X54854158Y-82868425D01*
X54897783Y-82923002D01*
X54904977Y-82992500D01*
X54873454Y-83054855D01*
X54854158Y-83071575D01*
X54668597Y-83201505D01*
X54501505Y-83368597D01*
X54371575Y-83554158D01*
X54316998Y-83597783D01*
X54247500Y-83604977D01*
X54185145Y-83573454D01*
X54168425Y-83554158D01*
X54038494Y-83368597D01*
X53871402Y-83201506D01*
X53871396Y-83201501D01*
X53685842Y-83071575D01*
X53642217Y-83016998D01*
X53635023Y-82947500D01*
X53666546Y-82885145D01*
X53685842Y-82868425D01*
X53708026Y-82852891D01*
X53871401Y-82738495D01*
X54038495Y-82571401D01*
X54168425Y-82385842D01*
X54223002Y-82342217D01*
X54292500Y-82335023D01*
X54354855Y-82366546D01*
G37*
%TD.AperFunction*%
%TA.AperFunction,NonConductor*%
G36*
X143426703Y-85117045D02*
G01*
X143433181Y-85123077D01*
X143588597Y-85278493D01*
X143588603Y-85278498D01*
X143774158Y-85408425D01*
X143817783Y-85463002D01*
X143824977Y-85532500D01*
X143793454Y-85594855D01*
X143774158Y-85611575D01*
X143588597Y-85741505D01*
X143433181Y-85896922D01*
X143371858Y-85930407D01*
X143302166Y-85925423D01*
X143246233Y-85883551D01*
X143221816Y-85818087D01*
X143221500Y-85809241D01*
X143221500Y-85210758D01*
X143241185Y-85143719D01*
X143293989Y-85097964D01*
X143363147Y-85088020D01*
X143426703Y-85117045D01*
G37*
%TD.AperFunction*%
%TA.AperFunction,NonConductor*%
G36*
X145814855Y-84906546D02*
G01*
X145831575Y-84925842D01*
X145961501Y-85111396D01*
X145961506Y-85111402D01*
X146128597Y-85278493D01*
X146128603Y-85278498D01*
X146314158Y-85408425D01*
X146357783Y-85463002D01*
X146364977Y-85532500D01*
X146333454Y-85594855D01*
X146314158Y-85611575D01*
X146128597Y-85741505D01*
X145961505Y-85908597D01*
X145831575Y-86094158D01*
X145776998Y-86137783D01*
X145707500Y-86144977D01*
X145645145Y-86113454D01*
X145628425Y-86094158D01*
X145498494Y-85908597D01*
X145331402Y-85741506D01*
X145331396Y-85741501D01*
X145145842Y-85611575D01*
X145102217Y-85556998D01*
X145095023Y-85487500D01*
X145126546Y-85425145D01*
X145145842Y-85408425D01*
X145168026Y-85392891D01*
X145331401Y-85278495D01*
X145498495Y-85111401D01*
X145628425Y-84925842D01*
X145683002Y-84882217D01*
X145752500Y-84875023D01*
X145814855Y-84906546D01*
G37*
%TD.AperFunction*%
%TA.AperFunction,NonConductor*%
G36*
X54354855Y-84906546D02*
G01*
X54371575Y-84925842D01*
X54501501Y-85111396D01*
X54501506Y-85111402D01*
X54668597Y-85278493D01*
X54668603Y-85278498D01*
X54854158Y-85408425D01*
X54897783Y-85463002D01*
X54904977Y-85532500D01*
X54873454Y-85594855D01*
X54854158Y-85611575D01*
X54668597Y-85741505D01*
X54501505Y-85908597D01*
X54371575Y-86094158D01*
X54316998Y-86137783D01*
X54247500Y-86144977D01*
X54185145Y-86113454D01*
X54168425Y-86094158D01*
X54038494Y-85908597D01*
X53871402Y-85741506D01*
X53871396Y-85741501D01*
X53685842Y-85611575D01*
X53642217Y-85556998D01*
X53635023Y-85487500D01*
X53666546Y-85425145D01*
X53685842Y-85408425D01*
X53708026Y-85392891D01*
X53871401Y-85278495D01*
X54038495Y-85111401D01*
X54168425Y-84925842D01*
X54223002Y-84882217D01*
X54292500Y-84875023D01*
X54354855Y-84906546D01*
G37*
%TD.AperFunction*%
%TA.AperFunction,NonConductor*%
G36*
X143426703Y-87657045D02*
G01*
X143433181Y-87663077D01*
X143588597Y-87818493D01*
X143588603Y-87818498D01*
X143774158Y-87948425D01*
X143817783Y-88003002D01*
X143824977Y-88072500D01*
X143793454Y-88134855D01*
X143774158Y-88151575D01*
X143588597Y-88281505D01*
X143433181Y-88436922D01*
X143371858Y-88470407D01*
X143302166Y-88465423D01*
X143246233Y-88423551D01*
X143221816Y-88358087D01*
X143221500Y-88349241D01*
X143221500Y-87750758D01*
X143241185Y-87683719D01*
X143293989Y-87637964D01*
X143363147Y-87628020D01*
X143426703Y-87657045D01*
G37*
%TD.AperFunction*%
%TA.AperFunction,NonConductor*%
G36*
X145814855Y-87446546D02*
G01*
X145831575Y-87465842D01*
X145961501Y-87651396D01*
X145961506Y-87651402D01*
X146128597Y-87818493D01*
X146128603Y-87818498D01*
X146314158Y-87948425D01*
X146357783Y-88003002D01*
X146364977Y-88072500D01*
X146333454Y-88134855D01*
X146314158Y-88151575D01*
X146128597Y-88281505D01*
X145961505Y-88448597D01*
X145831575Y-88634158D01*
X145776998Y-88677783D01*
X145707500Y-88684977D01*
X145645145Y-88653454D01*
X145628425Y-88634158D01*
X145498494Y-88448597D01*
X145331402Y-88281506D01*
X145331396Y-88281501D01*
X145145842Y-88151575D01*
X145102217Y-88096998D01*
X145095023Y-88027500D01*
X145126546Y-87965145D01*
X145145842Y-87948425D01*
X145168888Y-87932288D01*
X145331401Y-87818495D01*
X145498495Y-87651401D01*
X145628425Y-87465842D01*
X145683002Y-87422217D01*
X145752500Y-87415023D01*
X145814855Y-87446546D01*
G37*
%TD.AperFunction*%
%TA.AperFunction,NonConductor*%
G36*
X54354855Y-87446546D02*
G01*
X54371575Y-87465842D01*
X54501501Y-87651396D01*
X54501506Y-87651402D01*
X54668597Y-87818493D01*
X54668603Y-87818498D01*
X54854158Y-87948425D01*
X54897783Y-88003002D01*
X54904977Y-88072500D01*
X54873454Y-88134855D01*
X54854158Y-88151575D01*
X54668597Y-88281505D01*
X54501505Y-88448597D01*
X54371575Y-88634158D01*
X54316998Y-88677783D01*
X54247500Y-88684977D01*
X54185145Y-88653454D01*
X54168425Y-88634158D01*
X54038494Y-88448597D01*
X53871402Y-88281506D01*
X53871396Y-88281501D01*
X53685842Y-88151575D01*
X53642217Y-88096998D01*
X53635023Y-88027500D01*
X53666546Y-87965145D01*
X53685842Y-87948425D01*
X53708888Y-87932288D01*
X53871401Y-87818495D01*
X54038495Y-87651401D01*
X54168425Y-87465842D01*
X54223002Y-87422217D01*
X54292500Y-87415023D01*
X54354855Y-87446546D01*
G37*
%TD.AperFunction*%
%TA.AperFunction,NonConductor*%
G36*
X143426703Y-90197045D02*
G01*
X143433181Y-90203077D01*
X143588597Y-90358493D01*
X143588603Y-90358498D01*
X143774158Y-90488425D01*
X143817783Y-90543002D01*
X143824977Y-90612500D01*
X143793454Y-90674855D01*
X143774158Y-90691575D01*
X143588597Y-90821505D01*
X143433181Y-90976922D01*
X143371858Y-91010407D01*
X143302166Y-91005423D01*
X143246233Y-90963551D01*
X143221816Y-90898087D01*
X143221500Y-90889241D01*
X143221500Y-90290758D01*
X143241185Y-90223719D01*
X143293989Y-90177964D01*
X143363147Y-90168020D01*
X143426703Y-90197045D01*
G37*
%TD.AperFunction*%
%TA.AperFunction,NonConductor*%
G36*
X145814855Y-89986546D02*
G01*
X145831575Y-90005842D01*
X145961501Y-90191396D01*
X145961506Y-90191402D01*
X146128597Y-90358493D01*
X146128603Y-90358498D01*
X146314158Y-90488425D01*
X146357783Y-90543002D01*
X146364977Y-90612500D01*
X146333454Y-90674855D01*
X146314158Y-90691575D01*
X146128597Y-90821505D01*
X145961505Y-90988597D01*
X145831575Y-91174158D01*
X145776998Y-91217783D01*
X145707500Y-91224977D01*
X145645145Y-91193454D01*
X145628425Y-91174158D01*
X145498494Y-90988597D01*
X145331402Y-90821506D01*
X145331396Y-90821501D01*
X145145842Y-90691575D01*
X145102217Y-90636998D01*
X145095023Y-90567500D01*
X145126546Y-90505145D01*
X145145842Y-90488425D01*
X145204477Y-90447368D01*
X145331401Y-90358495D01*
X145498495Y-90191401D01*
X145628425Y-90005842D01*
X145683002Y-89962217D01*
X145752500Y-89955023D01*
X145814855Y-89986546D01*
G37*
%TD.AperFunction*%
%TA.AperFunction,NonConductor*%
G36*
X54354855Y-89986546D02*
G01*
X54371575Y-90005842D01*
X54501501Y-90191396D01*
X54501506Y-90191402D01*
X54668597Y-90358493D01*
X54668603Y-90358498D01*
X54854158Y-90488425D01*
X54897783Y-90543002D01*
X54904977Y-90612500D01*
X54873454Y-90674855D01*
X54854158Y-90691575D01*
X54668597Y-90821505D01*
X54501505Y-90988597D01*
X54371575Y-91174158D01*
X54316998Y-91217783D01*
X54247500Y-91224977D01*
X54185145Y-91193454D01*
X54168425Y-91174158D01*
X54038494Y-90988597D01*
X53871402Y-90821506D01*
X53871396Y-90821501D01*
X53685842Y-90691575D01*
X53642217Y-90636998D01*
X53635023Y-90567500D01*
X53666546Y-90505145D01*
X53685842Y-90488425D01*
X53744477Y-90447368D01*
X53871401Y-90358495D01*
X54038495Y-90191401D01*
X54168425Y-90005842D01*
X54223002Y-89962217D01*
X54292500Y-89955023D01*
X54354855Y-89986546D01*
G37*
%TD.AperFunction*%
%TA.AperFunction,NonConductor*%
G36*
X143426703Y-92737045D02*
G01*
X143433181Y-92743077D01*
X143588597Y-92898493D01*
X143588603Y-92898498D01*
X143774158Y-93028425D01*
X143817783Y-93083002D01*
X143824977Y-93152500D01*
X143793454Y-93214855D01*
X143774158Y-93231575D01*
X143588597Y-93361505D01*
X143433181Y-93516922D01*
X143371858Y-93550407D01*
X143302166Y-93545423D01*
X143246233Y-93503551D01*
X143221816Y-93438087D01*
X143221500Y-93429241D01*
X143221500Y-92830758D01*
X143241185Y-92763719D01*
X143293989Y-92717964D01*
X143363147Y-92708020D01*
X143426703Y-92737045D01*
G37*
%TD.AperFunction*%
%TA.AperFunction,NonConductor*%
G36*
X145814855Y-92526546D02*
G01*
X145831575Y-92545842D01*
X145961501Y-92731396D01*
X145961506Y-92731402D01*
X146128597Y-92898493D01*
X146128603Y-92898498D01*
X146314158Y-93028425D01*
X146357783Y-93083002D01*
X146364977Y-93152500D01*
X146333454Y-93214855D01*
X146314158Y-93231575D01*
X146128597Y-93361505D01*
X145961505Y-93528597D01*
X145831575Y-93714158D01*
X145776998Y-93757783D01*
X145707500Y-93764977D01*
X145645145Y-93733454D01*
X145628425Y-93714158D01*
X145498494Y-93528597D01*
X145331402Y-93361506D01*
X145331396Y-93361501D01*
X145145842Y-93231575D01*
X145102217Y-93176998D01*
X145095023Y-93107500D01*
X145126546Y-93045145D01*
X145145842Y-93028425D01*
X145266904Y-92943656D01*
X145331401Y-92898495D01*
X145498495Y-92731401D01*
X145628425Y-92545842D01*
X145683002Y-92502217D01*
X145752500Y-92495023D01*
X145814855Y-92526546D01*
G37*
%TD.AperFunction*%
%TA.AperFunction,NonConductor*%
G36*
X54354855Y-92526546D02*
G01*
X54371575Y-92545842D01*
X54501501Y-92731396D01*
X54501506Y-92731402D01*
X54668597Y-92898493D01*
X54668603Y-92898498D01*
X54854158Y-93028425D01*
X54897783Y-93083002D01*
X54904977Y-93152500D01*
X54873454Y-93214855D01*
X54854158Y-93231575D01*
X54668597Y-93361505D01*
X54501505Y-93528597D01*
X54371575Y-93714158D01*
X54316998Y-93757783D01*
X54247500Y-93764977D01*
X54185145Y-93733454D01*
X54168425Y-93714158D01*
X54038494Y-93528597D01*
X53871402Y-93361506D01*
X53871396Y-93361501D01*
X53685842Y-93231575D01*
X53642217Y-93176998D01*
X53635023Y-93107500D01*
X53666546Y-93045145D01*
X53685842Y-93028425D01*
X53806904Y-92943656D01*
X53871401Y-92898495D01*
X54038495Y-92731401D01*
X54168425Y-92545842D01*
X54223002Y-92502217D01*
X54292500Y-92495023D01*
X54354855Y-92526546D01*
G37*
%TD.AperFunction*%
%TA.AperFunction,NonConductor*%
G36*
X84143691Y-92782685D02*
G01*
X84182189Y-92821901D01*
X84257288Y-92943656D01*
X84381344Y-93067712D01*
X84530666Y-93159814D01*
X84697203Y-93214999D01*
X84799991Y-93225500D01*
X86200008Y-93225499D01*
X86302797Y-93214999D01*
X86469334Y-93159814D01*
X86618656Y-93067712D01*
X86742712Y-92943656D01*
X86817809Y-92821902D01*
X86869757Y-92775179D01*
X86923348Y-92763000D01*
X117120981Y-92763000D01*
X117188020Y-92782685D01*
X117208662Y-92799319D01*
X118158921Y-93749578D01*
X118908223Y-94498879D01*
X118941708Y-94560202D01*
X118936724Y-94629894D01*
X118894852Y-94685827D01*
X118831350Y-94710088D01*
X118645312Y-94726364D01*
X118645302Y-94726366D01*
X118425511Y-94785258D01*
X118425502Y-94785261D01*
X118219267Y-94881431D01*
X118219265Y-94881432D01*
X118032858Y-95011954D01*
X117871954Y-95172858D01*
X117741432Y-95359265D01*
X117741431Y-95359267D01*
X117714382Y-95417275D01*
X117668209Y-95469714D01*
X117601016Y-95488866D01*
X117534135Y-95468650D01*
X117489618Y-95417275D01*
X117485515Y-95408476D01*
X117462568Y-95359266D01*
X117332047Y-95172861D01*
X117332045Y-95172858D01*
X117171141Y-95011954D01*
X116984734Y-94881432D01*
X116984732Y-94881431D01*
X116778497Y-94785261D01*
X116778488Y-94785258D01*
X116558697Y-94726366D01*
X116558693Y-94726365D01*
X116558692Y-94726365D01*
X116558691Y-94726364D01*
X116558686Y-94726364D01*
X116332002Y-94706532D01*
X116331998Y-94706532D01*
X116105313Y-94726364D01*
X116105302Y-94726366D01*
X115885511Y-94785258D01*
X115885502Y-94785261D01*
X115679267Y-94881431D01*
X115679265Y-94881432D01*
X115492858Y-95011954D01*
X115331954Y-95172858D01*
X115201432Y-95359265D01*
X115201431Y-95359267D01*
X115174382Y-95417275D01*
X115128209Y-95469714D01*
X115061016Y-95488866D01*
X114994135Y-95468650D01*
X114949618Y-95417275D01*
X114945515Y-95408476D01*
X114922568Y-95359266D01*
X114792047Y-95172861D01*
X114792045Y-95172858D01*
X114631141Y-95011954D01*
X114444734Y-94881432D01*
X114444732Y-94881431D01*
X114238497Y-94785261D01*
X114238488Y-94785258D01*
X114018697Y-94726366D01*
X114018693Y-94726365D01*
X114018692Y-94726365D01*
X114018691Y-94726364D01*
X114018686Y-94726364D01*
X113792002Y-94706532D01*
X113791998Y-94706532D01*
X113565313Y-94726364D01*
X113565302Y-94726366D01*
X113345511Y-94785258D01*
X113345502Y-94785261D01*
X113139267Y-94881431D01*
X113139265Y-94881432D01*
X112952858Y-95011954D01*
X112791954Y-95172858D01*
X112661432Y-95359265D01*
X112661431Y-95359267D01*
X112634382Y-95417275D01*
X112588209Y-95469714D01*
X112521016Y-95488866D01*
X112454135Y-95468650D01*
X112409618Y-95417275D01*
X112405515Y-95408476D01*
X112382568Y-95359266D01*
X112252047Y-95172861D01*
X112252045Y-95172858D01*
X112091141Y-95011954D01*
X111904734Y-94881432D01*
X111904732Y-94881431D01*
X111698497Y-94785261D01*
X111698488Y-94785258D01*
X111478697Y-94726366D01*
X111478693Y-94726365D01*
X111478692Y-94726365D01*
X111478691Y-94726364D01*
X111478686Y-94726364D01*
X111252002Y-94706532D01*
X111251998Y-94706532D01*
X111025313Y-94726364D01*
X111025302Y-94726366D01*
X110805511Y-94785258D01*
X110805502Y-94785261D01*
X110599267Y-94881431D01*
X110599265Y-94881432D01*
X110412858Y-95011954D01*
X110251954Y-95172858D01*
X110121432Y-95359265D01*
X110121431Y-95359267D01*
X110094382Y-95417275D01*
X110048209Y-95469714D01*
X109981016Y-95488866D01*
X109914135Y-95468650D01*
X109869618Y-95417275D01*
X109865515Y-95408476D01*
X109842568Y-95359266D01*
X109712047Y-95172861D01*
X109712045Y-95172858D01*
X109551141Y-95011954D01*
X109364734Y-94881432D01*
X109364732Y-94881431D01*
X109158497Y-94785261D01*
X109158488Y-94785258D01*
X108938697Y-94726366D01*
X108938693Y-94726365D01*
X108938692Y-94726365D01*
X108938691Y-94726364D01*
X108938686Y-94726364D01*
X108712002Y-94706532D01*
X108711998Y-94706532D01*
X108485313Y-94726364D01*
X108485302Y-94726366D01*
X108265511Y-94785258D01*
X108265502Y-94785261D01*
X108059267Y-94881431D01*
X108059265Y-94881432D01*
X107872858Y-95011954D01*
X107711954Y-95172858D01*
X107581432Y-95359265D01*
X107581431Y-95359267D01*
X107554382Y-95417275D01*
X107508209Y-95469714D01*
X107441016Y-95488866D01*
X107374135Y-95468650D01*
X107329618Y-95417275D01*
X107325515Y-95408476D01*
X107302568Y-95359266D01*
X107172047Y-95172861D01*
X107172045Y-95172858D01*
X107011141Y-95011954D01*
X106824734Y-94881432D01*
X106824732Y-94881431D01*
X106618497Y-94785261D01*
X106618488Y-94785258D01*
X106398697Y-94726366D01*
X106398693Y-94726365D01*
X106398692Y-94726365D01*
X106398691Y-94726364D01*
X106398686Y-94726364D01*
X106172002Y-94706532D01*
X106171998Y-94706532D01*
X105945313Y-94726364D01*
X105945302Y-94726366D01*
X105725511Y-94785258D01*
X105725502Y-94785261D01*
X105519267Y-94881431D01*
X105519265Y-94881432D01*
X105332858Y-95011954D01*
X105171954Y-95172858D01*
X105041432Y-95359265D01*
X105041431Y-95359267D01*
X105014382Y-95417275D01*
X104968209Y-95469714D01*
X104901016Y-95488866D01*
X104834135Y-95468650D01*
X104789618Y-95417275D01*
X104785515Y-95408476D01*
X104762568Y-95359266D01*
X104632047Y-95172861D01*
X104632045Y-95172858D01*
X104471141Y-95011954D01*
X104284734Y-94881432D01*
X104284732Y-94881431D01*
X104078497Y-94785261D01*
X104078488Y-94785258D01*
X103858697Y-94726366D01*
X103858693Y-94726365D01*
X103858692Y-94726365D01*
X103858691Y-94726364D01*
X103858686Y-94726364D01*
X103632002Y-94706532D01*
X103631998Y-94706532D01*
X103405313Y-94726364D01*
X103405302Y-94726366D01*
X103185511Y-94785258D01*
X103185502Y-94785261D01*
X102979267Y-94881431D01*
X102979265Y-94881432D01*
X102792858Y-95011954D01*
X102631954Y-95172858D01*
X102501432Y-95359265D01*
X102501431Y-95359267D01*
X102474382Y-95417275D01*
X102428209Y-95469714D01*
X102361016Y-95488866D01*
X102294135Y-95468650D01*
X102249618Y-95417275D01*
X102245515Y-95408476D01*
X102222568Y-95359266D01*
X102092047Y-95172861D01*
X102092045Y-95172858D01*
X101931141Y-95011954D01*
X101744734Y-94881432D01*
X101744732Y-94881431D01*
X101538497Y-94785261D01*
X101538488Y-94785258D01*
X101318697Y-94726366D01*
X101318693Y-94726365D01*
X101318692Y-94726365D01*
X101318691Y-94726364D01*
X101318686Y-94726364D01*
X101092002Y-94706532D01*
X101091998Y-94706532D01*
X100865313Y-94726364D01*
X100865302Y-94726366D01*
X100645511Y-94785258D01*
X100645502Y-94785261D01*
X100439267Y-94881431D01*
X100439265Y-94881432D01*
X100252858Y-95011954D01*
X100091954Y-95172858D01*
X99961432Y-95359265D01*
X99961431Y-95359267D01*
X99934382Y-95417275D01*
X99888209Y-95469714D01*
X99821016Y-95488866D01*
X99754135Y-95468650D01*
X99709618Y-95417275D01*
X99705515Y-95408476D01*
X99682568Y-95359266D01*
X99552047Y-95172861D01*
X99552045Y-95172858D01*
X99391141Y-95011954D01*
X99204734Y-94881432D01*
X99204732Y-94881431D01*
X98998497Y-94785261D01*
X98998488Y-94785258D01*
X98778697Y-94726366D01*
X98778693Y-94726365D01*
X98778692Y-94726365D01*
X98778691Y-94726364D01*
X98778686Y-94726364D01*
X98552002Y-94706532D01*
X98551998Y-94706532D01*
X98325313Y-94726364D01*
X98325302Y-94726366D01*
X98105511Y-94785258D01*
X98105502Y-94785261D01*
X97899267Y-94881431D01*
X97899265Y-94881432D01*
X97712858Y-95011954D01*
X97551954Y-95172858D01*
X97421432Y-95359265D01*
X97421431Y-95359267D01*
X97394382Y-95417275D01*
X97348209Y-95469714D01*
X97281016Y-95488866D01*
X97214135Y-95468650D01*
X97169618Y-95417275D01*
X97165515Y-95408476D01*
X97142568Y-95359266D01*
X97012047Y-95172861D01*
X97012045Y-95172858D01*
X96851141Y-95011954D01*
X96664734Y-94881432D01*
X96664732Y-94881431D01*
X96458497Y-94785261D01*
X96458488Y-94785258D01*
X96238697Y-94726366D01*
X96238693Y-94726365D01*
X96238692Y-94726365D01*
X96238691Y-94726364D01*
X96238686Y-94726364D01*
X96012002Y-94706532D01*
X96011998Y-94706532D01*
X95785313Y-94726364D01*
X95785302Y-94726366D01*
X95565511Y-94785258D01*
X95565502Y-94785261D01*
X95359267Y-94881431D01*
X95359265Y-94881432D01*
X95172858Y-95011954D01*
X95011954Y-95172858D01*
X94881432Y-95359265D01*
X94881431Y-95359267D01*
X94854382Y-95417275D01*
X94808209Y-95469714D01*
X94741016Y-95488866D01*
X94674135Y-95468650D01*
X94629618Y-95417275D01*
X94625515Y-95408476D01*
X94602568Y-95359266D01*
X94472047Y-95172861D01*
X94472045Y-95172858D01*
X94311141Y-95011954D01*
X94124734Y-94881432D01*
X94124732Y-94881431D01*
X93918497Y-94785261D01*
X93918488Y-94785258D01*
X93698697Y-94726366D01*
X93698693Y-94726365D01*
X93698692Y-94726365D01*
X93698691Y-94726364D01*
X93698686Y-94726364D01*
X93472002Y-94706532D01*
X93471998Y-94706532D01*
X93245313Y-94726364D01*
X93245302Y-94726366D01*
X93025511Y-94785258D01*
X93025502Y-94785261D01*
X92819267Y-94881431D01*
X92819265Y-94881432D01*
X92632858Y-95011954D01*
X92471954Y-95172858D01*
X92341432Y-95359265D01*
X92341431Y-95359267D01*
X92314382Y-95417275D01*
X92268209Y-95469714D01*
X92201016Y-95488866D01*
X92134135Y-95468650D01*
X92089618Y-95417275D01*
X92085515Y-95408476D01*
X92062568Y-95359266D01*
X91932047Y-95172861D01*
X91932045Y-95172858D01*
X91771141Y-95011954D01*
X91584734Y-94881432D01*
X91584732Y-94881431D01*
X91378497Y-94785261D01*
X91378488Y-94785258D01*
X91158697Y-94726366D01*
X91158693Y-94726365D01*
X91158692Y-94726365D01*
X91158691Y-94726364D01*
X91158686Y-94726364D01*
X90932002Y-94706532D01*
X90931998Y-94706532D01*
X90705313Y-94726364D01*
X90705302Y-94726366D01*
X90485511Y-94785258D01*
X90485502Y-94785261D01*
X90279267Y-94881431D01*
X90279265Y-94881432D01*
X90092858Y-95011954D01*
X89931954Y-95172858D01*
X89801432Y-95359265D01*
X89801431Y-95359267D01*
X89774382Y-95417275D01*
X89728209Y-95469714D01*
X89661016Y-95488866D01*
X89594135Y-95468650D01*
X89549618Y-95417275D01*
X89545515Y-95408476D01*
X89522568Y-95359266D01*
X89392047Y-95172861D01*
X89392045Y-95172858D01*
X89231141Y-95011954D01*
X89044734Y-94881432D01*
X89044732Y-94881431D01*
X88838497Y-94785261D01*
X88838488Y-94785258D01*
X88618697Y-94726366D01*
X88618693Y-94726365D01*
X88618692Y-94726365D01*
X88618691Y-94726364D01*
X88618686Y-94726364D01*
X88392002Y-94706532D01*
X88391998Y-94706532D01*
X88165313Y-94726364D01*
X88165302Y-94726366D01*
X87945511Y-94785258D01*
X87945502Y-94785261D01*
X87739267Y-94881431D01*
X87739265Y-94881432D01*
X87552858Y-95011954D01*
X87391954Y-95172858D01*
X87261432Y-95359265D01*
X87261431Y-95359267D01*
X87234382Y-95417275D01*
X87188209Y-95469714D01*
X87121016Y-95488866D01*
X87054135Y-95468650D01*
X87009618Y-95417275D01*
X87005515Y-95408476D01*
X86982568Y-95359266D01*
X86852047Y-95172861D01*
X86852045Y-95172858D01*
X86691141Y-95011954D01*
X86504734Y-94881432D01*
X86504732Y-94881431D01*
X86298497Y-94785261D01*
X86298488Y-94785258D01*
X86078697Y-94726366D01*
X86078693Y-94726365D01*
X86078692Y-94726365D01*
X86078691Y-94726364D01*
X86078686Y-94726364D01*
X85852002Y-94706532D01*
X85851998Y-94706532D01*
X85625313Y-94726364D01*
X85625302Y-94726366D01*
X85405511Y-94785258D01*
X85405502Y-94785261D01*
X85199267Y-94881431D01*
X85199265Y-94881432D01*
X85012858Y-95011954D01*
X84851954Y-95172858D01*
X84721432Y-95359265D01*
X84721431Y-95359267D01*
X84694382Y-95417275D01*
X84648209Y-95469714D01*
X84581016Y-95488866D01*
X84514135Y-95468650D01*
X84469618Y-95417275D01*
X84465515Y-95408476D01*
X84442568Y-95359266D01*
X84312047Y-95172861D01*
X84312045Y-95172858D01*
X84151141Y-95011954D01*
X83964734Y-94881432D01*
X83964732Y-94881431D01*
X83758497Y-94785261D01*
X83758488Y-94785258D01*
X83538697Y-94726366D01*
X83538693Y-94726365D01*
X83538692Y-94726365D01*
X83538691Y-94726364D01*
X83538686Y-94726364D01*
X83312002Y-94706532D01*
X83311998Y-94706532D01*
X83085313Y-94726364D01*
X83085302Y-94726366D01*
X82865511Y-94785258D01*
X82865502Y-94785261D01*
X82659267Y-94881431D01*
X82659265Y-94881432D01*
X82472858Y-95011954D01*
X82311954Y-95172858D01*
X82181432Y-95359265D01*
X82181431Y-95359267D01*
X82154382Y-95417275D01*
X82108209Y-95469714D01*
X82041016Y-95488866D01*
X81974135Y-95468650D01*
X81929618Y-95417275D01*
X81925515Y-95408476D01*
X81902568Y-95359266D01*
X81772047Y-95172861D01*
X81772045Y-95172858D01*
X81611141Y-95011954D01*
X81424734Y-94881432D01*
X81424732Y-94881431D01*
X81218497Y-94785261D01*
X81218488Y-94785258D01*
X80998697Y-94726366D01*
X80998693Y-94726365D01*
X80998692Y-94726365D01*
X80998691Y-94726364D01*
X80998686Y-94726364D01*
X80772002Y-94706532D01*
X80771998Y-94706532D01*
X80545313Y-94726364D01*
X80545302Y-94726366D01*
X80325511Y-94785258D01*
X80325502Y-94785261D01*
X80119267Y-94881431D01*
X80119265Y-94881432D01*
X79932858Y-95011954D01*
X79771954Y-95172858D01*
X79641432Y-95359265D01*
X79641431Y-95359267D01*
X79614382Y-95417275D01*
X79568209Y-95469714D01*
X79501016Y-95488866D01*
X79434135Y-95468650D01*
X79389618Y-95417275D01*
X79385515Y-95408476D01*
X79362568Y-95359266D01*
X79232047Y-95172861D01*
X79232045Y-95172858D01*
X79071141Y-95011954D01*
X78884734Y-94881432D01*
X78884732Y-94881431D01*
X78678497Y-94785261D01*
X78678488Y-94785258D01*
X78458697Y-94726366D01*
X78458693Y-94726365D01*
X78458692Y-94726365D01*
X78458691Y-94726364D01*
X78458686Y-94726364D01*
X78232002Y-94706532D01*
X78231998Y-94706532D01*
X78005313Y-94726364D01*
X78005302Y-94726366D01*
X77785511Y-94785258D01*
X77785502Y-94785261D01*
X77579267Y-94881431D01*
X77579265Y-94881432D01*
X77392858Y-95011954D01*
X77231954Y-95172858D01*
X77101432Y-95359265D01*
X77101431Y-95359267D01*
X77074382Y-95417275D01*
X77028209Y-95469714D01*
X76961016Y-95488866D01*
X76894135Y-95468650D01*
X76849618Y-95417275D01*
X76845515Y-95408476D01*
X76822568Y-95359266D01*
X76692047Y-95172861D01*
X76692045Y-95172858D01*
X76531141Y-95011954D01*
X76344734Y-94881432D01*
X76340043Y-94878724D01*
X76341294Y-94876555D01*
X76296781Y-94837203D01*
X76277763Y-94769971D01*
X76298113Y-94703130D01*
X76314071Y-94683527D01*
X78154531Y-92843069D01*
X78215854Y-92809584D01*
X78242212Y-92806750D01*
X80753637Y-92806750D01*
X80820676Y-92826435D01*
X80859174Y-92865651D01*
X80907288Y-92943656D01*
X81031344Y-93067712D01*
X81180666Y-93159814D01*
X81347203Y-93214999D01*
X81449991Y-93225500D01*
X82850008Y-93225499D01*
X82952797Y-93214999D01*
X83119334Y-93159814D01*
X83268656Y-93067712D01*
X83392712Y-92943656D01*
X83467809Y-92821902D01*
X83519757Y-92775179D01*
X83573348Y-92763000D01*
X84076652Y-92763000D01*
X84143691Y-92782685D01*
G37*
%TD.AperFunction*%
%TA.AperFunction,NonConductor*%
G36*
X145814855Y-95066546D02*
G01*
X145831575Y-95085842D01*
X145961501Y-95271396D01*
X145961506Y-95271402D01*
X146128597Y-95438493D01*
X146128603Y-95438498D01*
X146314158Y-95568425D01*
X146357783Y-95623002D01*
X146364977Y-95692500D01*
X146333454Y-95754855D01*
X146314158Y-95771575D01*
X146128597Y-95901505D01*
X145961505Y-96068597D01*
X145831575Y-96254158D01*
X145776998Y-96297783D01*
X145707500Y-96304977D01*
X145645145Y-96273454D01*
X145628425Y-96254158D01*
X145498494Y-96068597D01*
X145331402Y-95901506D01*
X145331396Y-95901501D01*
X145145842Y-95771575D01*
X145102217Y-95716998D01*
X145095023Y-95647500D01*
X145126546Y-95585145D01*
X145145842Y-95568425D01*
X145168026Y-95552891D01*
X145331401Y-95438495D01*
X145498495Y-95271401D01*
X145628425Y-95085842D01*
X145683002Y-95042217D01*
X145752500Y-95035023D01*
X145814855Y-95066546D01*
G37*
%TD.AperFunction*%
%TA.AperFunction,NonConductor*%
G36*
X54354855Y-95066546D02*
G01*
X54371575Y-95085842D01*
X54501501Y-95271396D01*
X54501506Y-95271402D01*
X54668597Y-95438493D01*
X54668603Y-95438498D01*
X54854158Y-95568425D01*
X54897783Y-95623002D01*
X54904977Y-95692500D01*
X54873454Y-95754855D01*
X54854158Y-95771575D01*
X54668597Y-95901505D01*
X54501505Y-96068597D01*
X54371575Y-96254158D01*
X54316998Y-96297783D01*
X54247500Y-96304977D01*
X54185145Y-96273454D01*
X54168425Y-96254158D01*
X54038494Y-96068597D01*
X53871402Y-95901506D01*
X53871396Y-95901501D01*
X53685842Y-95771575D01*
X53642217Y-95716998D01*
X53635023Y-95647500D01*
X53666546Y-95585145D01*
X53685842Y-95568425D01*
X53708026Y-95552891D01*
X53871401Y-95438495D01*
X54038495Y-95271401D01*
X54168425Y-95085842D01*
X54223002Y-95042217D01*
X54292500Y-95035023D01*
X54354855Y-95066546D01*
G37*
%TD.AperFunction*%
%TA.AperFunction,NonConductor*%
G36*
X114184781Y-97273510D02*
G01*
X114234706Y-97303941D01*
X115070584Y-98139819D01*
X115104069Y-98201142D01*
X115099085Y-98270834D01*
X115057213Y-98326767D01*
X114991749Y-98351184D01*
X114982903Y-98351500D01*
X114492097Y-98351500D01*
X114425058Y-98331815D01*
X114404416Y-98315181D01*
X113610663Y-97521428D01*
X113577178Y-97460105D01*
X113582162Y-97390413D01*
X113624034Y-97334480D01*
X113689498Y-97310063D01*
X113709142Y-97310218D01*
X113792000Y-97317468D01*
X113792002Y-97317468D01*
X113848807Y-97312498D01*
X114018692Y-97297635D01*
X114114932Y-97271847D01*
X114184781Y-97273510D01*
G37*
%TD.AperFunction*%
%TA.AperFunction,NonConductor*%
G36*
X145814855Y-97606546D02*
G01*
X145831575Y-97625842D01*
X145961501Y-97811396D01*
X145961506Y-97811402D01*
X146128597Y-97978493D01*
X146128603Y-97978498D01*
X146314158Y-98108425D01*
X146357783Y-98163002D01*
X146364977Y-98232500D01*
X146333454Y-98294855D01*
X146314158Y-98311575D01*
X146128597Y-98441505D01*
X145961505Y-98608597D01*
X145831575Y-98794158D01*
X145776998Y-98837783D01*
X145707500Y-98844977D01*
X145645145Y-98813454D01*
X145628425Y-98794158D01*
X145498494Y-98608597D01*
X145331402Y-98441506D01*
X145331396Y-98441501D01*
X145145842Y-98311575D01*
X145102217Y-98256998D01*
X145095023Y-98187500D01*
X145126546Y-98125145D01*
X145145842Y-98108425D01*
X145168026Y-98092891D01*
X145331401Y-97978495D01*
X145498495Y-97811401D01*
X145628425Y-97625842D01*
X145683002Y-97582217D01*
X145752500Y-97575023D01*
X145814855Y-97606546D01*
G37*
%TD.AperFunction*%
%TA.AperFunction,NonConductor*%
G36*
X54354855Y-97606546D02*
G01*
X54371575Y-97625842D01*
X54501501Y-97811396D01*
X54501506Y-97811402D01*
X54668597Y-97978493D01*
X54668603Y-97978498D01*
X54854158Y-98108425D01*
X54897783Y-98163002D01*
X54904977Y-98232500D01*
X54873454Y-98294855D01*
X54854158Y-98311575D01*
X54668597Y-98441505D01*
X54501505Y-98608597D01*
X54371575Y-98794158D01*
X54316998Y-98837783D01*
X54247500Y-98844977D01*
X54185145Y-98813454D01*
X54168425Y-98794158D01*
X54038494Y-98608597D01*
X53871402Y-98441506D01*
X53871396Y-98441501D01*
X53685842Y-98311575D01*
X53642217Y-98256998D01*
X53635023Y-98187500D01*
X53666546Y-98125145D01*
X53685842Y-98108425D01*
X53708026Y-98092891D01*
X53871401Y-97978495D01*
X54038495Y-97811401D01*
X54168425Y-97625842D01*
X54223002Y-97582217D01*
X54292500Y-97575023D01*
X54354855Y-97606546D01*
G37*
%TD.AperFunction*%
%TA.AperFunction,NonConductor*%
G36*
X111644781Y-97273510D02*
G01*
X111694706Y-97303941D01*
X113184584Y-98793819D01*
X113218069Y-98855142D01*
X113213085Y-98924834D01*
X113171213Y-98980767D01*
X113105749Y-99005184D01*
X113096903Y-99005500D01*
X112606098Y-99005500D01*
X112539059Y-98985815D01*
X112518417Y-98969181D01*
X111070664Y-97521428D01*
X111037179Y-97460105D01*
X111042163Y-97390413D01*
X111084035Y-97334480D01*
X111149499Y-97310063D01*
X111169142Y-97310218D01*
X111252000Y-97317468D01*
X111252000Y-97317467D01*
X111252001Y-97317468D01*
X111252002Y-97317468D01*
X111308807Y-97312498D01*
X111478692Y-97297635D01*
X111574932Y-97271847D01*
X111644781Y-97273510D01*
G37*
%TD.AperFunction*%
%TA.AperFunction,NonConductor*%
G36*
X109104781Y-97273510D02*
G01*
X109154706Y-97303941D01*
X111114583Y-99263819D01*
X111148068Y-99325142D01*
X111143084Y-99394834D01*
X111101212Y-99450767D01*
X111035748Y-99475184D01*
X111026902Y-99475500D01*
X110536097Y-99475500D01*
X110469058Y-99455815D01*
X110448416Y-99439181D01*
X108530663Y-97521428D01*
X108497178Y-97460105D01*
X108502162Y-97390413D01*
X108544034Y-97334480D01*
X108609498Y-97310063D01*
X108629142Y-97310218D01*
X108712000Y-97317468D01*
X108712002Y-97317468D01*
X108768807Y-97312498D01*
X108938692Y-97297635D01*
X109034932Y-97271847D01*
X109104781Y-97273510D01*
G37*
%TD.AperFunction*%
%TA.AperFunction,NonConductor*%
G36*
X106564781Y-97273510D02*
G01*
X106614706Y-97303941D01*
X108974584Y-99663819D01*
X109008069Y-99725142D01*
X109003085Y-99794834D01*
X108961213Y-99850767D01*
X108895749Y-99875184D01*
X108886903Y-99875500D01*
X108396097Y-99875500D01*
X108329058Y-99855815D01*
X108308416Y-99839181D01*
X105990663Y-97521428D01*
X105957178Y-97460105D01*
X105962162Y-97390413D01*
X106004034Y-97334480D01*
X106069498Y-97310063D01*
X106089142Y-97310218D01*
X106172000Y-97317468D01*
X106172002Y-97317468D01*
X106228807Y-97312498D01*
X106398692Y-97297635D01*
X106494932Y-97271847D01*
X106564781Y-97273510D01*
G37*
%TD.AperFunction*%
%TA.AperFunction,NonConductor*%
G36*
X104024781Y-97273510D02*
G01*
X104074706Y-97303941D01*
X106834584Y-100063819D01*
X106868069Y-100125142D01*
X106863085Y-100194834D01*
X106821213Y-100250767D01*
X106755749Y-100275184D01*
X106746903Y-100275500D01*
X106256098Y-100275500D01*
X106189059Y-100255815D01*
X106168417Y-100239181D01*
X104854070Y-98924834D01*
X103450662Y-97521427D01*
X103417178Y-97460105D01*
X103422162Y-97390413D01*
X103464034Y-97334480D01*
X103529498Y-97310063D01*
X103549142Y-97310218D01*
X103632000Y-97317468D01*
X103632002Y-97317468D01*
X103688807Y-97312498D01*
X103858692Y-97297635D01*
X103954932Y-97271847D01*
X104024781Y-97273510D01*
G37*
%TD.AperFunction*%
%TA.AperFunction,NonConductor*%
G36*
X101484781Y-97273510D02*
G01*
X101534706Y-97303941D01*
X104694583Y-100463819D01*
X104728068Y-100525142D01*
X104723084Y-100594834D01*
X104681212Y-100650767D01*
X104615748Y-100675184D01*
X104606902Y-100675500D01*
X104116097Y-100675500D01*
X104049058Y-100655815D01*
X104028416Y-100639181D01*
X100910663Y-97521428D01*
X100877178Y-97460105D01*
X100882162Y-97390413D01*
X100924034Y-97334480D01*
X100989498Y-97310063D01*
X101009142Y-97310218D01*
X101092000Y-97317468D01*
X101092002Y-97317468D01*
X101148807Y-97312498D01*
X101318692Y-97297635D01*
X101414932Y-97271847D01*
X101484781Y-97273510D01*
G37*
%TD.AperFunction*%
%TA.AperFunction,NonConductor*%
G36*
X98944781Y-97273510D02*
G01*
X98994706Y-97303941D01*
X102580584Y-100889819D01*
X102614069Y-100951142D01*
X102609085Y-101020834D01*
X102567213Y-101076767D01*
X102501749Y-101101184D01*
X102492903Y-101101500D01*
X102002097Y-101101500D01*
X101935058Y-101081815D01*
X101914416Y-101065181D01*
X98370663Y-97521428D01*
X98337178Y-97460105D01*
X98342162Y-97390413D01*
X98384034Y-97334480D01*
X98449498Y-97310063D01*
X98469142Y-97310218D01*
X98552000Y-97317468D01*
X98552002Y-97317468D01*
X98608807Y-97312498D01*
X98778692Y-97297635D01*
X98874932Y-97271847D01*
X98944781Y-97273510D01*
G37*
%TD.AperFunction*%
%TA.AperFunction,NonConductor*%
G36*
X145814855Y-100146546D02*
G01*
X145831575Y-100165842D01*
X145961501Y-100351396D01*
X145961506Y-100351402D01*
X146128597Y-100518493D01*
X146128603Y-100518498D01*
X146314158Y-100648425D01*
X146357783Y-100703002D01*
X146364977Y-100772500D01*
X146333454Y-100834855D01*
X146314158Y-100851575D01*
X146128597Y-100981505D01*
X145961505Y-101148597D01*
X145831575Y-101334158D01*
X145776998Y-101377783D01*
X145707500Y-101384977D01*
X145645145Y-101353454D01*
X145628425Y-101334158D01*
X145498494Y-101148597D01*
X145331402Y-100981506D01*
X145331396Y-100981501D01*
X145145842Y-100851575D01*
X145102217Y-100796998D01*
X145095023Y-100727500D01*
X145126546Y-100665145D01*
X145145842Y-100648425D01*
X145168026Y-100632891D01*
X145331401Y-100518495D01*
X145498495Y-100351401D01*
X145628425Y-100165842D01*
X145683002Y-100122217D01*
X145752500Y-100115023D01*
X145814855Y-100146546D01*
G37*
%TD.AperFunction*%
%TA.AperFunction,NonConductor*%
G36*
X54354855Y-100146546D02*
G01*
X54371575Y-100165842D01*
X54501501Y-100351396D01*
X54501506Y-100351402D01*
X54668597Y-100518493D01*
X54668603Y-100518498D01*
X54854158Y-100648425D01*
X54897783Y-100703002D01*
X54904977Y-100772500D01*
X54873454Y-100834855D01*
X54854158Y-100851575D01*
X54668597Y-100981505D01*
X54501505Y-101148597D01*
X54371575Y-101334158D01*
X54316998Y-101377783D01*
X54247500Y-101384977D01*
X54185145Y-101353454D01*
X54168425Y-101334158D01*
X54038494Y-101148597D01*
X53871402Y-100981506D01*
X53871396Y-100981501D01*
X53685842Y-100851575D01*
X53642217Y-100796998D01*
X53635023Y-100727500D01*
X53666546Y-100665145D01*
X53685842Y-100648425D01*
X53708026Y-100632891D01*
X53871401Y-100518495D01*
X54038495Y-100351401D01*
X54168425Y-100165842D01*
X54223002Y-100122217D01*
X54292500Y-100115023D01*
X54354855Y-100146546D01*
G37*
%TD.AperFunction*%
%TA.AperFunction,NonConductor*%
G36*
X96404781Y-97273510D02*
G01*
X96454706Y-97303941D01*
X100440584Y-101289819D01*
X100474069Y-101351142D01*
X100469085Y-101420834D01*
X100427213Y-101476767D01*
X100361749Y-101501184D01*
X100352903Y-101501500D01*
X99862098Y-101501500D01*
X99795059Y-101481815D01*
X99774417Y-101465181D01*
X97973055Y-99663819D01*
X95830662Y-97521427D01*
X95797178Y-97460105D01*
X95802162Y-97390413D01*
X95844034Y-97334480D01*
X95909498Y-97310063D01*
X95929142Y-97310218D01*
X96012000Y-97317468D01*
X96012002Y-97317468D01*
X96068807Y-97312498D01*
X96238692Y-97297635D01*
X96334932Y-97271847D01*
X96404781Y-97273510D01*
G37*
%TD.AperFunction*%
%TA.AperFunction,NonConductor*%
G36*
X93864781Y-97273510D02*
G01*
X93914706Y-97303941D01*
X98300583Y-101689819D01*
X98334068Y-101751142D01*
X98329084Y-101820834D01*
X98287212Y-101876767D01*
X98221748Y-101901184D01*
X98212902Y-101901500D01*
X97722097Y-101901500D01*
X97655058Y-101881815D01*
X97634416Y-101865181D01*
X93290663Y-97521428D01*
X93257178Y-97460105D01*
X93262162Y-97390413D01*
X93304034Y-97334480D01*
X93369498Y-97310063D01*
X93389142Y-97310218D01*
X93472000Y-97317468D01*
X93472002Y-97317468D01*
X93528807Y-97312498D01*
X93698692Y-97297635D01*
X93794932Y-97271847D01*
X93864781Y-97273510D01*
G37*
%TD.AperFunction*%
%TA.AperFunction,NonConductor*%
G36*
X91324781Y-97273510D02*
G01*
X91374706Y-97303941D01*
X96160584Y-102089819D01*
X96194069Y-102151142D01*
X96189085Y-102220834D01*
X96147213Y-102276767D01*
X96081749Y-102301184D01*
X96072903Y-102301500D01*
X95582097Y-102301500D01*
X95515058Y-102281815D01*
X95494416Y-102265181D01*
X90750663Y-97521428D01*
X90717178Y-97460105D01*
X90722162Y-97390413D01*
X90764034Y-97334480D01*
X90829498Y-97310063D01*
X90849142Y-97310218D01*
X90932000Y-97317468D01*
X90932002Y-97317468D01*
X90988807Y-97312498D01*
X91158692Y-97297635D01*
X91254932Y-97271847D01*
X91324781Y-97273510D01*
G37*
%TD.AperFunction*%
%TA.AperFunction,NonConductor*%
G36*
X88784781Y-97273510D02*
G01*
X88834706Y-97303941D01*
X94020584Y-102489819D01*
X94054069Y-102551142D01*
X94049085Y-102620834D01*
X94007213Y-102676767D01*
X93941749Y-102701184D01*
X93932903Y-102701500D01*
X93442097Y-102701500D01*
X93375058Y-102681815D01*
X93354416Y-102665181D01*
X88210663Y-97521428D01*
X88177178Y-97460105D01*
X88182162Y-97390413D01*
X88224034Y-97334480D01*
X88289498Y-97310063D01*
X88309142Y-97310218D01*
X88392000Y-97317468D01*
X88392002Y-97317468D01*
X88448807Y-97312498D01*
X88618692Y-97297635D01*
X88714932Y-97271847D01*
X88784781Y-97273510D01*
G37*
%TD.AperFunction*%
%TA.AperFunction,NonConductor*%
G36*
X86244781Y-97273510D02*
G01*
X86294706Y-97303941D01*
X91880584Y-102889819D01*
X91914069Y-102951142D01*
X91909085Y-103020834D01*
X91867213Y-103076767D01*
X91801749Y-103101184D01*
X91792903Y-103101500D01*
X91302097Y-103101500D01*
X91235058Y-103081815D01*
X91214416Y-103065181D01*
X85670663Y-97521428D01*
X85637178Y-97460105D01*
X85642162Y-97390413D01*
X85684034Y-97334480D01*
X85749498Y-97310063D01*
X85769142Y-97310218D01*
X85852000Y-97317468D01*
X85852002Y-97317468D01*
X85908807Y-97312498D01*
X86078692Y-97297635D01*
X86174932Y-97271847D01*
X86244781Y-97273510D01*
G37*
%TD.AperFunction*%
%TA.AperFunction,NonConductor*%
G36*
X83704781Y-97273510D02*
G01*
X83754706Y-97303941D01*
X89740584Y-103289819D01*
X89774069Y-103351142D01*
X89769085Y-103420834D01*
X89727213Y-103476767D01*
X89661749Y-103501184D01*
X89652903Y-103501500D01*
X89162098Y-103501500D01*
X89095059Y-103481815D01*
X89074417Y-103465181D01*
X86127729Y-100518493D01*
X83130662Y-97521427D01*
X83097178Y-97460105D01*
X83102162Y-97390413D01*
X83144034Y-97334480D01*
X83209498Y-97310063D01*
X83229142Y-97310218D01*
X83312000Y-97317468D01*
X83312002Y-97317468D01*
X83368807Y-97312498D01*
X83538692Y-97297635D01*
X83634932Y-97271847D01*
X83704781Y-97273510D01*
G37*
%TD.AperFunction*%
%TA.AperFunction,NonConductor*%
G36*
X81164781Y-97273510D02*
G01*
X81214706Y-97303941D01*
X87600583Y-103689819D01*
X87634068Y-103751142D01*
X87629084Y-103820834D01*
X87587212Y-103876767D01*
X87521748Y-103901184D01*
X87512902Y-103901500D01*
X87022097Y-103901500D01*
X86955058Y-103881815D01*
X86934416Y-103865181D01*
X80590663Y-97521428D01*
X80557178Y-97460105D01*
X80562162Y-97390413D01*
X80604034Y-97334480D01*
X80669498Y-97310063D01*
X80689142Y-97310218D01*
X80772000Y-97317468D01*
X80772002Y-97317468D01*
X80828807Y-97312498D01*
X80998692Y-97297635D01*
X81094932Y-97271847D01*
X81164781Y-97273510D01*
G37*
%TD.AperFunction*%
%TA.AperFunction,NonConductor*%
G36*
X145814855Y-102686546D02*
G01*
X145831575Y-102705842D01*
X145961501Y-102891396D01*
X145961506Y-102891402D01*
X146128597Y-103058493D01*
X146128603Y-103058498D01*
X146314158Y-103188425D01*
X146357783Y-103243002D01*
X146364977Y-103312500D01*
X146333454Y-103374855D01*
X146314158Y-103391575D01*
X146128597Y-103521505D01*
X145961505Y-103688597D01*
X145831575Y-103874158D01*
X145776998Y-103917783D01*
X145707500Y-103924977D01*
X145645145Y-103893454D01*
X145628425Y-103874158D01*
X145498494Y-103688597D01*
X145331402Y-103521506D01*
X145331396Y-103521501D01*
X145145842Y-103391575D01*
X145102217Y-103336998D01*
X145095023Y-103267500D01*
X145126546Y-103205145D01*
X145145842Y-103188425D01*
X145168026Y-103172891D01*
X145331401Y-103058495D01*
X145498495Y-102891401D01*
X145628425Y-102705842D01*
X145683002Y-102662217D01*
X145752500Y-102655023D01*
X145814855Y-102686546D01*
G37*
%TD.AperFunction*%
%TA.AperFunction,NonConductor*%
G36*
X54354855Y-102686546D02*
G01*
X54371575Y-102705842D01*
X54501501Y-102891396D01*
X54501506Y-102891402D01*
X54668597Y-103058493D01*
X54668603Y-103058498D01*
X54854158Y-103188425D01*
X54897783Y-103243002D01*
X54904977Y-103312500D01*
X54873454Y-103374855D01*
X54854158Y-103391575D01*
X54668597Y-103521505D01*
X54501505Y-103688597D01*
X54371575Y-103874158D01*
X54316998Y-103917783D01*
X54247500Y-103924977D01*
X54185145Y-103893454D01*
X54168425Y-103874158D01*
X54038494Y-103688597D01*
X53871402Y-103521506D01*
X53871396Y-103521501D01*
X53685842Y-103391575D01*
X53642217Y-103336998D01*
X53635023Y-103267500D01*
X53666546Y-103205145D01*
X53685842Y-103188425D01*
X53708026Y-103172891D01*
X53871401Y-103058495D01*
X54038495Y-102891401D01*
X54168425Y-102705842D01*
X54223002Y-102662217D01*
X54292500Y-102655023D01*
X54354855Y-102686546D01*
G37*
%TD.AperFunction*%
%TA.AperFunction,NonConductor*%
G36*
X78624781Y-97273510D02*
G01*
X78674706Y-97303941D01*
X85460584Y-104089819D01*
X85494069Y-104151142D01*
X85489085Y-104220834D01*
X85447213Y-104276767D01*
X85381749Y-104301184D01*
X85372903Y-104301500D01*
X84882098Y-104301500D01*
X84815059Y-104281815D01*
X84794417Y-104265181D01*
X81480378Y-100951142D01*
X78050662Y-97521427D01*
X78017178Y-97460105D01*
X78022162Y-97390413D01*
X78064034Y-97334480D01*
X78129498Y-97310063D01*
X78149142Y-97310218D01*
X78232000Y-97317468D01*
X78232002Y-97317468D01*
X78288807Y-97312498D01*
X78458692Y-97297635D01*
X78554932Y-97271847D01*
X78624781Y-97273510D01*
G37*
%TD.AperFunction*%
%TA.AperFunction,NonConductor*%
G36*
X145814855Y-105226546D02*
G01*
X145831575Y-105245842D01*
X145961501Y-105431396D01*
X145961505Y-105431401D01*
X146128597Y-105598493D01*
X146128603Y-105598498D01*
X146314158Y-105728425D01*
X146357783Y-105783002D01*
X146364977Y-105852500D01*
X146333454Y-105914855D01*
X146314158Y-105931575D01*
X146128597Y-106061505D01*
X145961505Y-106228597D01*
X145831575Y-106414158D01*
X145776998Y-106457783D01*
X145707500Y-106464977D01*
X145645145Y-106433454D01*
X145628425Y-106414158D01*
X145498494Y-106228597D01*
X145331402Y-106061506D01*
X145331396Y-106061501D01*
X145145842Y-105931575D01*
X145102217Y-105876998D01*
X145095023Y-105807500D01*
X145126546Y-105745145D01*
X145145842Y-105728425D01*
X145168026Y-105712891D01*
X145331401Y-105598495D01*
X145498495Y-105431401D01*
X145628425Y-105245842D01*
X145683002Y-105202217D01*
X145752500Y-105195023D01*
X145814855Y-105226546D01*
G37*
%TD.AperFunction*%
%TA.AperFunction,NonConductor*%
G36*
X54354855Y-105226546D02*
G01*
X54371575Y-105245842D01*
X54501501Y-105431396D01*
X54501505Y-105431401D01*
X54668597Y-105598493D01*
X54668603Y-105598498D01*
X54854158Y-105728425D01*
X54897783Y-105783002D01*
X54904977Y-105852500D01*
X54873454Y-105914855D01*
X54854158Y-105931575D01*
X54668597Y-106061505D01*
X54501505Y-106228597D01*
X54371575Y-106414158D01*
X54316998Y-106457783D01*
X54247500Y-106464977D01*
X54185145Y-106433454D01*
X54168425Y-106414158D01*
X54038494Y-106228597D01*
X53871402Y-106061506D01*
X53871396Y-106061501D01*
X53685842Y-105931575D01*
X53642217Y-105876998D01*
X53635023Y-105807500D01*
X53666546Y-105745145D01*
X53685842Y-105728425D01*
X53708026Y-105712891D01*
X53871401Y-105598495D01*
X54038495Y-105431401D01*
X54168425Y-105245842D01*
X54223002Y-105202217D01*
X54292500Y-105195023D01*
X54354855Y-105226546D01*
G37*
%TD.AperFunction*%
%TA.AperFunction,NonConductor*%
G36*
X54354855Y-107766546D02*
G01*
X54371575Y-107785842D01*
X54501501Y-107971396D01*
X54501506Y-107971402D01*
X54668597Y-108138493D01*
X54668603Y-108138498D01*
X54854158Y-108268425D01*
X54897783Y-108323002D01*
X54904977Y-108392500D01*
X54873454Y-108454855D01*
X54854158Y-108471575D01*
X54668600Y-108601503D01*
X54546673Y-108723430D01*
X54485350Y-108756914D01*
X54415658Y-108751930D01*
X54359725Y-108710058D01*
X54342810Y-108679081D01*
X54293797Y-108547671D01*
X54293793Y-108547664D01*
X54207547Y-108432455D01*
X54207544Y-108432452D01*
X54092335Y-108346206D01*
X54092328Y-108346202D01*
X53960917Y-108297189D01*
X53904983Y-108255318D01*
X53880566Y-108189853D01*
X53895418Y-108121580D01*
X53916563Y-108093332D01*
X54038495Y-107971401D01*
X54168425Y-107785842D01*
X54223002Y-107742217D01*
X54292500Y-107735023D01*
X54354855Y-107766546D01*
G37*
%TD.AperFunction*%
%TA.AperFunction,NonConductor*%
G36*
X145814855Y-107766546D02*
G01*
X145831575Y-107785842D01*
X145961501Y-107971396D01*
X145961506Y-107971402D01*
X146128597Y-108138493D01*
X146128603Y-108138498D01*
X146314158Y-108268425D01*
X146357783Y-108323002D01*
X146364977Y-108392500D01*
X146333454Y-108454855D01*
X146314158Y-108471575D01*
X146128597Y-108601505D01*
X145961505Y-108768597D01*
X145831575Y-108954158D01*
X145776998Y-108997783D01*
X145707500Y-109004977D01*
X145645145Y-108973454D01*
X145628425Y-108954158D01*
X145498494Y-108768597D01*
X145331402Y-108601506D01*
X145331396Y-108601501D01*
X145145842Y-108471575D01*
X145102217Y-108416998D01*
X145095023Y-108347500D01*
X145126546Y-108285145D01*
X145145842Y-108268425D01*
X145258054Y-108189853D01*
X145331401Y-108138495D01*
X145498495Y-107971401D01*
X145628425Y-107785842D01*
X145683002Y-107742217D01*
X145752500Y-107735023D01*
X145814855Y-107766546D01*
G37*
%TD.AperFunction*%
M02*
