M48
; DRILL file {KiCad 8.0.7-8.0.7-0~ubuntu22.04.1} date 2025-01-27T00:18:08+0100
; FORMAT={-:-/ absolute / inch / decimal}
; #@! TF.CreationDate,2025-01-27T00:18:08+01:00
; #@! TF.GenerationSoftware,Kicad,Pcbnew,8.0.7-8.0.7-0~ubuntu22.04.1
; #@! TF.FileFunction,MixedPlating,1,2
FMAT,2
INCH
; #@! TA.AperFunction,Plated,PTH,ViaDrill
T1C0.0118
; #@! TA.AperFunction,Plated,PTH,ComponentDrill
T2C0.0315
; #@! TA.AperFunction,Plated,PTH,ComponentDrill
T3C0.0394
%
G90
G05
T1
X2.33Y-3.77
X2.35Y-3.38
X2.7Y-3.8
X2.75Y-3.4
X2.95Y-2.8
X2.97Y-3.35
X2.97Y-4.34
X3.07Y-3.02
X3.24Y-3.38
X3.3Y-2.8
X3.3661Y-3.5015
X3.56Y-3.03
X3.62Y-4.34
X3.84Y-2.8
X4.05Y-3.03
X4.2Y-3.34
X4.2Y-3.53
X4.25Y-2.81
X4.51Y-4.24
X4.52Y-3.52
X4.55Y-3.37
X4.58Y-2.8
X4.68Y-3.32
X4.93Y-3.36
X5.01Y-2.78
X5.05Y-3.16
X5.1Y-3.6
X5.1464Y-3.8464
X5.21Y-3.82
X5.2621Y-3.77
X5.3Y-3.72
X5.32Y-3.36
X5.34Y-3.67
X5.37Y-3.61
X5.41Y-3.57
X5.43Y-4.0165
X5.44Y-3.53
X5.45Y-4.1165
X5.46Y-2.77
X5.47Y-3.48
X5.48Y-3.16
X5.5Y-3.43
X5.54Y-3.37
X5.5644Y-3.32
X5.62Y-3.2165
T2
X2.88Y-3.18
X2.88Y-3.78
X2.98Y-3.18
X2.98Y-3.78
X3.08Y-3.18
X3.08Y-3.78
X3.18Y-3.18
X3.18Y-3.78
X3.28Y-3.18
X3.28Y-3.78
X3.38Y-3.18
X3.38Y-3.78
X3.48Y-3.18
X3.48Y-3.78
X3.58Y-3.18
X3.58Y-3.78
X3.68Y-3.18
X3.68Y-3.78
X3.78Y-3.18
X3.78Y-3.78
X3.88Y-3.18
X3.88Y-3.78
X3.98Y-3.18
X3.98Y-3.78
X4.08Y-3.18
X4.08Y-3.78
X4.18Y-3.18
X4.18Y-3.78
X4.28Y-3.18
X4.28Y-3.78
X4.38Y-3.18
X4.38Y-3.78
X4.48Y-3.18
X4.48Y-3.78
X4.58Y-3.18
X4.58Y-3.78
X4.68Y-3.18
X4.68Y-3.78
X4.78Y-3.18
X4.78Y-3.78
T3
X2.0866Y-2.7165
X2.0866Y-2.8165
X2.0866Y-2.9165
X2.0866Y-3.0165
X2.0866Y-3.1165
X2.0866Y-3.2165
X2.0866Y-3.3165
X2.0866Y-3.4165
X2.0866Y-3.5165
X2.0866Y-3.6165
X2.0866Y-3.7165
X2.0866Y-3.8165
X2.0866Y-3.9165
X2.0866Y-4.0165
X2.0866Y-4.1165
X2.0866Y-4.2165
X2.0866Y-4.3165
X2.1866Y-2.7165
X2.1866Y-2.8165
X2.1866Y-2.9165
X2.1866Y-3.0165
X2.1866Y-3.1165
X2.1866Y-3.2165
X2.1866Y-3.3165
X2.1866Y-3.4165
X2.1866Y-3.5165
X2.1866Y-3.6165
X2.1866Y-3.7165
X2.1866Y-3.8165
X2.1866Y-3.9165
X2.1866Y-4.0165
X2.1866Y-4.1165
X2.1866Y-4.2165
X2.1866Y-4.3165
X5.6874Y-2.7165
X5.6874Y-2.8165
X5.6874Y-2.9165
X5.6874Y-3.0165
X5.6874Y-3.1165
X5.6874Y-3.2165
X5.6874Y-3.3165
X5.6874Y-3.4165
X5.6874Y-3.5165
X5.6874Y-3.6165
X5.6874Y-3.7165
X5.6874Y-3.8165
X5.6874Y-3.9165
X5.6874Y-4.0165
X5.6874Y-4.1165
X5.6874Y-4.2165
X5.6874Y-4.3165
X5.7874Y-2.7165
X5.7874Y-2.8165
X5.7874Y-2.9165
X5.7874Y-3.0165
X5.7874Y-3.1165
X5.7874Y-3.2165
X5.7874Y-3.3165
X5.7874Y-3.4165
X5.7874Y-3.5165
X5.7874Y-3.6165
X5.7874Y-3.7165
X5.7874Y-3.8165
X5.7874Y-3.9165
X5.7874Y-4.0165
X5.7874Y-4.1165
X5.7874Y-4.2165
X5.7874Y-4.3165
M30
