%TF.GenerationSoftware,KiCad,Pcbnew,8.0.7-8.0.7-0~ubuntu22.04.1*%
%TF.CreationDate,2025-01-27T00:18:06+01:00*%
%TF.ProjectId,6845_v1,36383435-5f76-4312-9e6b-696361645f70,rev?*%
%TF.SameCoordinates,Original*%
%TF.FileFunction,Legend,Bot*%
%TF.FilePolarity,Positive*%
%FSLAX46Y46*%
G04 Gerber Fmt 4.6, Leading zero omitted, Abs format (unit mm)*
G04 Created by KiCad (PCBNEW 8.0.7-8.0.7-0~ubuntu22.04.1) date 2025-01-27 00:18:06*
%MOMM*%
%LPD*%
G01*
G04 APERTURE LIST*
%ADD10C,0.150000*%
%ADD11C,0.120000*%
G04 APERTURE END LIST*
D10*
X142573333Y-68796819D02*
X142573333Y-69511104D01*
X142573333Y-69511104D02*
X142620952Y-69653961D01*
X142620952Y-69653961D02*
X142716190Y-69749200D01*
X142716190Y-69749200D02*
X142859047Y-69796819D01*
X142859047Y-69796819D02*
X142954285Y-69796819D01*
X142192380Y-68796819D02*
X141573333Y-68796819D01*
X141573333Y-68796819D02*
X141906666Y-69177771D01*
X141906666Y-69177771D02*
X141763809Y-69177771D01*
X141763809Y-69177771D02*
X141668571Y-69225390D01*
X141668571Y-69225390D02*
X141620952Y-69273009D01*
X141620952Y-69273009D02*
X141573333Y-69368247D01*
X141573333Y-69368247D02*
X141573333Y-69606342D01*
X141573333Y-69606342D02*
X141620952Y-69701580D01*
X141620952Y-69701580D02*
X141668571Y-69749200D01*
X141668571Y-69749200D02*
X141763809Y-69796819D01*
X141763809Y-69796819D02*
X142049523Y-69796819D01*
X142049523Y-69796819D02*
X142144761Y-69749200D01*
X142144761Y-69749200D02*
X142192380Y-69701580D01*
X123196819Y-87630095D02*
X124006342Y-87630095D01*
X124006342Y-87630095D02*
X124101580Y-87677714D01*
X124101580Y-87677714D02*
X124149200Y-87725333D01*
X124149200Y-87725333D02*
X124196819Y-87820571D01*
X124196819Y-87820571D02*
X124196819Y-88011047D01*
X124196819Y-88011047D02*
X124149200Y-88106285D01*
X124149200Y-88106285D02*
X124101580Y-88153904D01*
X124101580Y-88153904D02*
X124006342Y-88201523D01*
X124006342Y-88201523D02*
X123196819Y-88201523D01*
X124196819Y-89201523D02*
X124196819Y-88630095D01*
X124196819Y-88915809D02*
X123196819Y-88915809D01*
X123196819Y-88915809D02*
X123339676Y-88820571D01*
X123339676Y-88820571D02*
X123434914Y-88725333D01*
X123434914Y-88725333D02*
X123482533Y-88630095D01*
X58499333Y-109182819D02*
X58499333Y-109897104D01*
X58499333Y-109897104D02*
X58546952Y-110039961D01*
X58546952Y-110039961D02*
X58642190Y-110135200D01*
X58642190Y-110135200D02*
X58785047Y-110182819D01*
X58785047Y-110182819D02*
X58880285Y-110182819D01*
X57499333Y-110182819D02*
X58070761Y-110182819D01*
X57785047Y-110182819D02*
X57785047Y-109182819D01*
X57785047Y-109182819D02*
X57880285Y-109325676D01*
X57880285Y-109325676D02*
X57975523Y-109420914D01*
X57975523Y-109420914D02*
X58070761Y-109468533D01*
D11*
%TO.C,J3*%
X143130000Y-67670000D02*
X145730000Y-67670000D01*
X143130000Y-110970000D02*
X143130000Y-67670000D01*
X143130000Y-110970000D02*
X148330000Y-110970000D01*
X145730000Y-67670000D02*
X145730000Y-70270000D01*
X145730000Y-70270000D02*
X148330000Y-70270000D01*
X147000000Y-67670000D02*
X148330000Y-67670000D01*
X148330000Y-67670000D02*
X148330000Y-69000000D01*
X148330000Y-110970000D02*
X148330000Y-70270000D01*
%TO.C,U1*%
X71822000Y-81932000D02*
X71822000Y-94852000D01*
X71822000Y-94852000D02*
X122742000Y-94852000D01*
X122742000Y-81932000D02*
X71822000Y-81932000D01*
X122742000Y-87392000D02*
X122742000Y-81932000D01*
X122742000Y-94852000D02*
X122742000Y-89392000D01*
X122742000Y-89392000D02*
G75*
G02*
X122742000Y-87392000I0J1000000D01*
G01*
%TO.C,J1*%
X51670000Y-67670000D02*
X51670000Y-108370000D01*
X51670000Y-110970000D02*
X51670000Y-109640000D01*
X53000000Y-110970000D02*
X51670000Y-110970000D01*
X54270000Y-108370000D02*
X51670000Y-108370000D01*
X54270000Y-110970000D02*
X54270000Y-108370000D01*
X56870000Y-67670000D02*
X51670000Y-67670000D01*
X56870000Y-67670000D02*
X56870000Y-110970000D01*
X56870000Y-110970000D02*
X54270000Y-110970000D01*
%TD*%
M02*
