%TF.GenerationSoftware,KiCad,Pcbnew,8.0.7-8.0.7-0~ubuntu22.04.1*%
%TF.CreationDate,2024-12-25T22:08:59+01:00*%
%TF.ProjectId,IEC_Extension,4945435f-4578-4746-956e-73696f6e2e6b,rev?*%
%TF.SameCoordinates,Original*%
%TF.FileFunction,Copper,L1,Top*%
%TF.FilePolarity,Positive*%
%FSLAX46Y46*%
G04 Gerber Fmt 4.6, Leading zero omitted, Abs format (unit mm)*
G04 Created by KiCad (PCBNEW 8.0.7-8.0.7-0~ubuntu22.04.1) date 2024-12-25 22:08:59*
%MOMM*%
%LPD*%
G01*
G04 APERTURE LIST*
G04 Aperture macros list*
%AMRoundRect*
0 Rectangle with rounded corners*
0 $1 Rounding radius*
0 $2 $3 $4 $5 $6 $7 $8 $9 X,Y pos of 4 corners*
0 Add a 4 corners polygon primitive as box body*
4,1,4,$2,$3,$4,$5,$6,$7,$8,$9,$2,$3,0*
0 Add four circle primitives for the rounded corners*
1,1,$1+$1,$2,$3*
1,1,$1+$1,$4,$5*
1,1,$1+$1,$6,$7*
1,1,$1+$1,$8,$9*
0 Add four rect primitives between the rounded corners*
20,1,$1+$1,$2,$3,$4,$5,0*
20,1,$1+$1,$4,$5,$6,$7,0*
20,1,$1+$1,$6,$7,$8,$9,0*
20,1,$1+$1,$8,$9,$2,$3,0*%
G04 Aperture macros list end*
%TA.AperFunction,ComponentPad*%
%ADD10O,2.000000X1.524000*%
%TD*%
%TA.AperFunction,ComponentPad*%
%ADD11O,1.524000X2.000000*%
%TD*%
%TA.AperFunction,SMDPad,CuDef*%
%ADD12R,1.500000X0.550000*%
%TD*%
%TA.AperFunction,SMDPad,CuDef*%
%ADD13R,0.550000X1.500000*%
%TD*%
%TA.AperFunction,ComponentPad*%
%ADD14R,1.700000X1.700000*%
%TD*%
%TA.AperFunction,ComponentPad*%
%ADD15O,1.700000X1.700000*%
%TD*%
%TA.AperFunction,SMDPad,CuDef*%
%ADD16RoundRect,0.250000X-0.650000X0.412500X-0.650000X-0.412500X0.650000X-0.412500X0.650000X0.412500X0*%
%TD*%
%TA.AperFunction,SMDPad,CuDef*%
%ADD17RoundRect,0.150000X0.150000X-0.825000X0.150000X0.825000X-0.150000X0.825000X-0.150000X-0.825000X0*%
%TD*%
%TA.AperFunction,ViaPad*%
%ADD18C,0.600000*%
%TD*%
%TA.AperFunction,Conductor*%
%ADD19C,0.200000*%
%TD*%
%TA.AperFunction,Conductor*%
%ADD20C,0.400000*%
%TD*%
G04 APERTURE END LIST*
D10*
%TO.P,J2,4*%
%TO.N,/~{SCLK}*%
X211636000Y-45880000D03*
%TO.P,J2,2*%
%TO.N,GND*%
X211636000Y-55880000D03*
%TO.P,J2,5*%
%TO.N,/~{DATA}*%
X209136000Y-43380000D03*
%TO.P,J2,1*%
%TO.N,/~{FCLK}{slash}SRQ*%
X209136000Y-58380000D03*
D11*
%TO.P,J2,7*%
%TO.N,N/C*%
X199136000Y-45880000D03*
%TO.P,J2,8*%
X199136000Y-55880000D03*
D10*
%TO.P,J2,3*%
%TO.N,/~{ATN}*%
X209136000Y-50880000D03*
D11*
%TO.P,J2,6*%
%TO.N,/~{RST}*%
X214136000Y-50880000D03*
%TD*%
D10*
%TO.P,J1,4*%
%TO.N,/~{SCLK}*%
X211636000Y-66962000D03*
%TO.P,J1,2*%
%TO.N,GND*%
X211636000Y-76962000D03*
%TO.P,J1,5*%
%TO.N,/~{DATA}*%
X209136000Y-64462000D03*
%TO.P,J1,1*%
%TO.N,/~{FCLK}{slash}SRQ*%
X209136000Y-79462000D03*
D11*
%TO.P,J1,7*%
%TO.N,N/C*%
X199136000Y-66962000D03*
%TO.P,J1,8*%
X199136000Y-76962000D03*
D10*
%TO.P,J1,3*%
%TO.N,/~{ATN}*%
X209136000Y-71962000D03*
D11*
%TO.P,J1,6*%
%TO.N,/~{RST}*%
X214136000Y-71962000D03*
%TD*%
D12*
%TO.P,U3,1,I/O/GCK3*%
%TO.N,/P1*%
X217807000Y-59642000D03*
%TO.P,U3,2,M15*%
%TO.N,/RST_IN*%
X217807000Y-60442000D03*
%TO.P,U3,3,M17*%
%TO.N,/ATN_OUT*%
X217807000Y-61242000D03*
%TO.P,U3,4,GND*%
%TO.N,GND*%
X217807000Y-62042000D03*
%TO.P,U3,5,M2*%
%TO.N,/RST_OUT*%
X217807000Y-62842000D03*
%TO.P,U3,6,M5*%
%TO.N,/FCLK_OUT*%
X217807000Y-63642000D03*
%TO.P,U3,7,M8*%
%TO.N,/SCLK_OUT*%
X217807000Y-64442000D03*
%TO.P,U3,8,M9*%
%TO.N,/SDATA_OUT*%
X217807000Y-65242000D03*
%TO.P,U3,9,TDI*%
%TO.N,/TDI*%
X217807000Y-66042000D03*
%TO.P,U3,10,TMS*%
%TO.N,/TMS*%
X217807000Y-66842000D03*
%TO.P,U3,11,TCK*%
%TO.N,/TCK*%
X217807000Y-67642000D03*
D13*
%TO.P,U3,12,M11*%
%TO.N,/SDATA_IN*%
X219507000Y-69342000D03*
%TO.P,U3,13,M14*%
%TO.N,/FCLK_IN*%
X220307000Y-69342000D03*
%TO.P,U3,14,M15*%
%TO.N,/SCLK_IN*%
X221107000Y-69342000D03*
%TO.P,U3,15,VCC*%
%TO.N,+3V3*%
X221907000Y-69342000D03*
%TO.P,U3,16,M17*%
%TO.N,/ATN_IN*%
X222707000Y-69342000D03*
%TO.P,U3,17,GND*%
%TO.N,GND*%
X223507000Y-69342000D03*
%TO.P,U3,18,M16*%
%TO.N,/FOUT{slash}~{FIN}*%
X224307000Y-69342000D03*
%TO.P,U3,19,M2*%
%TO.N,/SCLK_SENS*%
X225107000Y-69342000D03*
%TO.P,U3,20,M5*%
%TO.N,/SCLK_DRV*%
X225907000Y-69342000D03*
%TO.P,U3,21,M8*%
%TO.N,/SDATA_SENS*%
X226707000Y-69342000D03*
%TO.P,U3,22,M11*%
%TO.N,/SDATA_DRV*%
X227507000Y-69342000D03*
D12*
%TO.P,U3,23,M14*%
%TO.N,/ATN_SENS*%
X229207000Y-67642000D03*
%TO.P,U3,24,TDO*%
%TO.N,/TDO*%
X229207000Y-66842000D03*
%TO.P,U3,25,GND*%
%TO.N,GND*%
X229207000Y-66042000D03*
%TO.P,U3,26,VCCIO*%
%TO.N,+3V3*%
X229207000Y-65242000D03*
%TO.P,U3,27,M15*%
%TO.N,/ATN_DRV*%
X229207000Y-64442000D03*
%TO.P,U3,28,M17*%
%TO.N,/P28*%
X229207000Y-63642000D03*
%TO.P,U3,29,M2*%
%TO.N,/P29*%
X229207000Y-62842000D03*
%TO.P,U3,30,M5*%
%TO.N,/P30*%
X229207000Y-62042000D03*
%TO.P,U3,31,M6*%
%TO.N,/P31*%
X229207000Y-61242000D03*
%TO.P,U3,32,M8*%
%TO.N,/P32*%
X229207000Y-60442000D03*
%TO.P,U3,33,I/O/GSR*%
%TO.N,/P33*%
X229207000Y-59642000D03*
D13*
%TO.P,U3,34,I/O/GTS2*%
%TO.N,/P34*%
X227507000Y-57942000D03*
%TO.P,U3,35,VCC*%
%TO.N,+3V3*%
X226707000Y-57942000D03*
%TO.P,U3,36,I/O/GTS1*%
%TO.N,/P36*%
X225907000Y-57942000D03*
%TO.P,U3,37,M15*%
%TO.N,/P37*%
X225107000Y-57942000D03*
%TO.P,U3,38,M17*%
%TO.N,/P38*%
X224307000Y-57942000D03*
%TO.P,U3,39,M1*%
%TO.N,/CNT*%
X223507000Y-57942000D03*
%TO.P,U3,40,M5*%
%TO.N,/SP*%
X222707000Y-57942000D03*
%TO.P,U3,41,M6*%
%TO.N,/128{slash}64*%
X221907000Y-57942000D03*
%TO.P,U3,42,M8*%
%TO.N,/RSTDRV*%
X221107000Y-57942000D03*
%TO.P,U3,43,I/O/GCK1*%
%TO.N,/P43*%
X220307000Y-57942000D03*
%TO.P,U3,44,I/O/GCK2*%
%TO.N,/P44*%
X219507000Y-57942000D03*
%TD*%
D14*
%TO.P,J3,1,Pin_1*%
%TO.N,/TCK*%
X228080000Y-77960000D03*
D15*
%TO.P,J3,2,Pin_2*%
%TO.N,GND*%
X228080000Y-80500000D03*
%TO.P,J3,3,Pin_3*%
%TO.N,/TDO*%
X225540000Y-77960000D03*
%TO.P,J3,4,Pin_4*%
%TO.N,+3V3*%
X225540000Y-80500000D03*
%TO.P,J3,5,Pin_5*%
%TO.N,/TMS*%
X223000000Y-77960000D03*
%TO.P,J3,6,Pin_6*%
%TO.N,unconnected-(J3-Pin_6-Pad6)*%
X223000000Y-80500000D03*
%TO.P,J3,7,Pin_7*%
%TO.N,unconnected-(J3-Pin_7-Pad7)*%
X220460000Y-77960000D03*
%TO.P,J3,8,Pin_8*%
%TO.N,unconnected-(J3-Pin_8-Pad8)*%
X220460000Y-80500000D03*
%TO.P,J3,9,Pin_9*%
%TO.N,/TDI*%
X217920000Y-77960000D03*
%TO.P,J3,10,Pin_10*%
%TO.N,GND*%
X217920000Y-80500000D03*
%TD*%
D16*
%TO.P,C2,1*%
%TO.N,+5V*%
X214630000Y-44030500D03*
%TO.P,C2,2*%
%TO.N,GND*%
X214630000Y-47155500D03*
%TD*%
%TO.P,C1,1*%
%TO.N,+5V*%
X235712000Y-44627000D03*
%TO.P,C1,2*%
%TO.N,GND*%
X235712000Y-47752000D03*
%TD*%
D17*
%TO.P,U1,1*%
%TO.N,/~{RST}*%
X226060000Y-48638000D03*
%TO.P,U1,2*%
%TO.N,/RST_IN*%
X227330000Y-48638000D03*
%TO.P,U1,3*%
%TO.N,GND*%
X228600000Y-48638000D03*
%TO.P,U1,4*%
%TO.N,unconnected-(U1-Pad4)*%
X229870000Y-48638000D03*
%TO.P,U1,5*%
%TO.N,/~{FCLK}{slash}SRQ*%
X231140000Y-48638000D03*
%TO.P,U1,6*%
%TO.N,/FCLK_IN*%
X232410000Y-48638000D03*
%TO.P,U1,7,GND*%
%TO.N,GND*%
X233680000Y-48638000D03*
%TO.P,U1,8*%
%TO.N,/SDATA_IN*%
X233680000Y-43688000D03*
%TO.P,U1,9*%
%TO.N,/~{DATA}*%
X232410000Y-43688000D03*
%TO.P,U1,10*%
%TO.N,/SCLK_IN*%
X231140000Y-43688000D03*
%TO.P,U1,11*%
%TO.N,/~{SCLK}*%
X229870000Y-43688000D03*
%TO.P,U1,12*%
%TO.N,/ATN_IN*%
X228600000Y-43688000D03*
%TO.P,U1,13*%
%TO.N,/~{ATN}*%
X227330000Y-43688000D03*
%TO.P,U1,14,VCC*%
%TO.N,+5V*%
X226060000Y-43688000D03*
%TD*%
%TO.P,U2,14,VCC*%
%TO.N,+5V*%
X216789000Y-43688000D03*
%TO.P,U2,13*%
%TO.N,/SDATA_OUT*%
X218059000Y-43688000D03*
%TO.P,U2,12*%
%TO.N,/~{DATA}*%
X219329000Y-43688000D03*
%TO.P,U2,11*%
%TO.N,/SCLK_OUT*%
X220599000Y-43688000D03*
%TO.P,U2,10*%
%TO.N,/~{SCLK}*%
X221869000Y-43688000D03*
%TO.P,U2,9*%
%TO.N,/ATN_OUT*%
X223139000Y-43688000D03*
%TO.P,U2,8*%
%TO.N,/~{ATN}*%
X224409000Y-43688000D03*
%TO.P,U2,7,GND*%
%TO.N,GND*%
X224409000Y-48638000D03*
%TO.P,U2,6*%
%TO.N,/~{RST#}*%
X223139000Y-48638000D03*
%TO.P,U2,5*%
%TO.N,/RSTDRV*%
X221869000Y-48638000D03*
%TO.P,U2,4*%
%TO.N,/~{RST}*%
X220599000Y-48638000D03*
%TO.P,U2,3*%
%TO.N,/RST_OUT*%
X219329000Y-48638000D03*
%TO.P,U2,2*%
%TO.N,/~{FCLK}{slash}SRQ*%
X218059000Y-48638000D03*
%TO.P,U2,1*%
%TO.N,/FCLK_OUT*%
X216789000Y-48638000D03*
%TD*%
D14*
%TO.P,J4,1,Pin_1*%
%TO.N,+5V*%
X239141000Y-44704000D03*
D15*
%TO.P,J4,2,Pin_2*%
X241681000Y-44704000D03*
%TO.P,J4,3,Pin_3*%
%TO.N,/~{RST#}*%
X239141000Y-47244000D03*
%TO.P,J4,4,Pin_4*%
%TO.N,/FOUT{slash}~{FIN}*%
X241681000Y-47244000D03*
%TO.P,J4,5,Pin_5*%
%TO.N,/P1*%
X239141000Y-49784000D03*
%TO.P,J4,6,Pin_6*%
%TO.N,/P44*%
X241681000Y-49784000D03*
%TO.P,J4,7,Pin_7*%
%TO.N,/128{slash}64*%
X239141000Y-52324000D03*
%TO.P,J4,8,Pin_8*%
%TO.N,/P43*%
X241681000Y-52324000D03*
%TO.P,J4,9,Pin_9*%
%TO.N,/CNT*%
X239141000Y-54864000D03*
%TO.P,J4,10,Pin_10*%
%TO.N,/SP*%
X241681000Y-54864000D03*
%TO.P,J4,11,Pin_11*%
%TO.N,/P37*%
X239141000Y-57404000D03*
%TO.P,J4,12,Pin_12*%
%TO.N,/P38*%
X241681000Y-57404000D03*
%TO.P,J4,13,Pin_13*%
%TO.N,/P34*%
X239141000Y-59944000D03*
%TO.P,J4,14,Pin_14*%
%TO.N,/P36*%
X241681000Y-59944000D03*
%TO.P,J4,15,Pin_15*%
%TO.N,/P32*%
X239141000Y-62484000D03*
%TO.P,J4,16,Pin_16*%
%TO.N,/P33*%
X241681000Y-62484000D03*
%TO.P,J4,17,Pin_17*%
%TO.N,/P30*%
X239141000Y-65024000D03*
%TO.P,J4,18,Pin_18*%
%TO.N,/P31*%
X241681000Y-65024000D03*
%TO.P,J4,19,Pin_19*%
%TO.N,/P28*%
X239141000Y-67564000D03*
%TO.P,J4,20,Pin_20*%
%TO.N,/P29*%
X241681000Y-67564000D03*
%TO.P,J4,21,Pin_21*%
%TO.N,/ATN_SENS*%
X239141000Y-70104000D03*
%TO.P,J4,22,Pin_22*%
%TO.N,/ATN_DRV*%
X241681000Y-70104000D03*
%TO.P,J4,23,Pin_23*%
%TO.N,/SDATA_SENS*%
X239141000Y-72644000D03*
%TO.P,J4,24,Pin_24*%
%TO.N,/SDATA_DRV*%
X241681000Y-72644000D03*
%TO.P,J4,25,Pin_25*%
%TO.N,/SCLK_SENS*%
X239141000Y-75184000D03*
%TO.P,J4,26,Pin_26*%
%TO.N,/SCLK_DRV*%
X241681000Y-75184000D03*
%TO.P,J4,27,Pin_27*%
%TO.N,GND*%
X239141000Y-77724000D03*
%TO.P,J4,28,Pin_28*%
X241681000Y-77724000D03*
%TD*%
D18*
%TO.N,/P1*%
X221234000Y-60198000D03*
%TO.N,/P33*%
X233171990Y-61976000D03*
%TO.N,/P36*%
X233172000Y-59690000D03*
%TO.N,/P31*%
X233146000Y-66294000D03*
%TO.N,/P29*%
X233119999Y-68834001D03*
%TO.N,/CNT*%
X233172106Y-57262000D03*
%TO.N,/SP*%
X233120000Y-55118014D03*
%TO.N,/128{slash}64*%
X233120000Y-52832024D03*
%TO.N,/ATN_DRV*%
X233146000Y-71628000D03*
%TO.N,/SDATA_DRV*%
X233146000Y-74167978D03*
%TO.N,/SCLK_DRV*%
X233146001Y-76708001D03*
%TO.N,/FOUT{slash}~{FIN}*%
X224917000Y-66294000D03*
%TO.N,/~{RST#}*%
X223139000Y-50419000D03*
X223060380Y-52372380D03*
%TO.N,/RSTDRV*%
X221869000Y-50419000D03*
X221234000Y-54102000D03*
%TO.N,/SDATA_IN*%
X218440000Y-70231000D03*
%TO.N,/FCLK_IN*%
X218567000Y-71755000D03*
%TO.N,/SCLK_IN*%
X217805000Y-72517000D03*
%TO.N,/ATN_IN*%
X216916000Y-73406000D03*
%TO.N,/RST_IN*%
X216154000Y-60452000D03*
%TO.N,GND*%
X224105000Y-72644000D03*
%TO.N,/TMS*%
X216154000Y-75946000D03*
%TO.N,/TDI*%
X216916000Y-74676000D03*
%TO.N,/ATN_OUT*%
X216027000Y-61595000D03*
%TO.N,/RST_IN*%
X227062380Y-48370380D03*
%TO.N,/FCLK_IN*%
X232410000Y-48638000D03*
%TO.N,/RST_OUT*%
X219329000Y-48638000D03*
%TO.N,/FCLK_OUT*%
X216789000Y-48638000D03*
%TO.N,/SDATA_IN*%
X233680000Y-43688000D03*
%TO.N,/SCLK_IN*%
X231140000Y-43688000D03*
%TO.N,/ATN_IN*%
X228600000Y-43688000D03*
%TO.N,/ATN_OUT*%
X223139000Y-43688000D03*
%TO.N,/SCLK_OUT*%
X220599000Y-43688000D03*
%TO.N,/SDATA_OUT*%
X218059000Y-43688000D03*
%TO.N,+5V*%
X214757000Y-44157500D03*
%TO.N,/RST_OUT*%
X215772998Y-62865000D03*
%TO.N,/FCLK_OUT*%
X215265000Y-63754000D03*
%TO.N,/SCLK_OUT*%
X214757000Y-64516004D03*
%TO.N,/SDATA_OUT*%
X214122000Y-65405000D03*
%TO.N,+3V3*%
X205486000Y-82200000D03*
X220980000Y-72644000D03*
%TO.N,GND*%
X223443000Y-64770000D03*
%TO.N,+3V3*%
X226568000Y-64770000D03*
%TO.N,GND*%
X222758000Y-61976000D03*
%TO.N,+3V3*%
X226568000Y-59944000D03*
%TO.N,/TCK*%
X219964000Y-67818000D03*
%TO.N,/TDO*%
X227076000Y-66802000D03*
%TO.N,/TMS*%
X216154000Y-66802012D03*
%TD*%
D19*
%TO.N,/P37*%
X225107000Y-57942000D02*
X225107000Y-56578999D01*
X229616000Y-55626000D02*
X229870000Y-55626000D01*
X236982000Y-57404000D02*
X239141000Y-57404000D01*
X225107000Y-56578999D02*
X226060000Y-55625999D01*
X226060000Y-55625999D02*
X229616000Y-55626000D01*
X229870000Y-55626000D02*
X232664000Y-58420000D01*
X235966000Y-58420000D02*
X236982000Y-57404000D01*
X232664000Y-58420000D02*
X235966000Y-58420000D01*
%TO.N,/P38*%
X224307000Y-57942000D02*
X224307000Y-56813314D01*
X224307000Y-56813314D02*
X225894314Y-55226000D01*
X225894314Y-55226000D02*
X230162685Y-55226000D01*
X230162685Y-55226000D02*
X232848685Y-57912000D01*
X232848685Y-57912000D02*
X234188000Y-57912000D01*
X234188000Y-57912000D02*
X235846000Y-56254000D01*
X235846000Y-56254000D02*
X240531000Y-56254000D01*
X240531000Y-56254000D02*
X241681000Y-57404000D01*
%TO.N,/CNT*%
X233172106Y-57262000D02*
X235570106Y-54864000D01*
X235570106Y-54864000D02*
X239141000Y-54864000D01*
%TO.N,/SP*%
X233120000Y-55118014D02*
X234524014Y-53714000D01*
X234524014Y-53714000D02*
X240531000Y-53714000D01*
X240531000Y-53714000D02*
X241681000Y-54864000D01*
%TO.N,/128{slash}64*%
X233120000Y-52832024D02*
X233680000Y-52832024D01*
X233680000Y-52832024D02*
X238632976Y-52832024D01*
X238632976Y-52832024D02*
X239141000Y-52324000D01*
%TO.N,/P43*%
X241681000Y-52324000D02*
X240531000Y-51174000D01*
X236093000Y-51943000D02*
X232594686Y-51943000D01*
X240531000Y-51174000D02*
X236862000Y-51174000D01*
X236862000Y-51174000D02*
X236093000Y-51943000D01*
%TO.N,/P44*%
X232175000Y-51543000D02*
X235458000Y-51543000D01*
X241681000Y-49784000D02*
X240531000Y-48634000D01*
X240531000Y-48634000D02*
X238367000Y-48634000D01*
X238367000Y-48634000D02*
X235458000Y-51543000D01*
%TO.N,/128{slash}64*%
X230927477Y-53886000D02*
X232066024Y-53886000D01*
%TO.N,/P44*%
X219507000Y-57942000D02*
X219507000Y-54344075D01*
X225085570Y-52883000D02*
X230835000Y-52883000D01*
%TO.N,/P43*%
X231254686Y-53283000D02*
X232594686Y-51943000D01*
%TO.N,/128{slash}64*%
X238760000Y-51943000D02*
X239141000Y-52324000D01*
%TO.N,/SP*%
X222707000Y-56958628D02*
X225582628Y-54083000D01*
%TO.N,/128{slash}64*%
X221907000Y-56338372D02*
X223768186Y-54477186D01*
X221907000Y-57942000D02*
X221907000Y-56338372D01*
X232066024Y-53886000D02*
X233120000Y-52832024D01*
%TO.N,/SP*%
X225582628Y-54083000D02*
X230558792Y-54083000D01*
%TO.N,/P43*%
X220307000Y-54109761D02*
X220930761Y-53486000D01*
%TO.N,/SP*%
X222707000Y-57942000D02*
X222707000Y-56958628D01*
%TO.N,/P43*%
X225048256Y-53486000D02*
X225251256Y-53283000D01*
%TO.N,/128{slash}64*%
X223768186Y-54477186D02*
X224622756Y-54477186D01*
%TO.N,/P44*%
X224916570Y-53052000D02*
X225085570Y-52883000D01*
X220799075Y-53052000D02*
X224916570Y-53052000D01*
%TO.N,/P43*%
X225251256Y-53283000D02*
X231254686Y-53283000D01*
%TO.N,/128{slash}64*%
X230724478Y-53683000D02*
X230927477Y-53886000D01*
X225416942Y-53683000D02*
X230724478Y-53683000D01*
%TO.N,/P44*%
X219507000Y-54344075D02*
X220799075Y-53052000D01*
%TO.N,/P43*%
X220930761Y-53486000D02*
X225048256Y-53486000D01*
X220307000Y-57942000D02*
X220307000Y-54109761D01*
%TO.N,/128{slash}64*%
X224622756Y-54477186D02*
X225416942Y-53683000D01*
%TO.N,/P44*%
X230835000Y-52883000D02*
X232175000Y-51543000D01*
%TO.N,/SP*%
X230558792Y-54083000D02*
X230793792Y-54318000D01*
X230793792Y-54318000D02*
X232319986Y-54318000D01*
X232319986Y-54318000D02*
X233120000Y-55118014D01*
%TO.N,/CNT*%
X230393106Y-54483000D02*
X233172106Y-57262000D01*
X223507000Y-57942000D02*
X223507000Y-56793629D01*
X225817629Y-54483000D02*
X230393106Y-54483000D01*
X223507000Y-56793629D02*
X225817629Y-54483000D01*
%TO.N,/P36*%
X226225686Y-56026000D02*
X228858000Y-56026000D01*
X232522000Y-59690000D02*
X233172000Y-59690000D01*
X228858000Y-56026000D02*
X232522000Y-59690000D01*
X225907000Y-56344686D02*
X226225686Y-56026000D01*
X225907000Y-57942000D02*
X225907000Y-56344686D01*
%TO.N,/~{RST#}*%
X239141000Y-47244000D02*
X235242000Y-51143000D01*
X235242000Y-51143000D02*
X232009314Y-51143000D01*
X230720314Y-52432000D02*
X223120000Y-52432000D01*
X232009314Y-51143000D02*
X230720314Y-52432000D01*
X223120000Y-52432000D02*
X223060380Y-52372380D01*
%TO.N,/128{slash}64*%
X238633000Y-51816000D02*
X239141000Y-52324000D01*
%TO.N,/~{FCLK}{slash}SRQ*%
X231140000Y-48638000D02*
X231140000Y-51054000D01*
X230471620Y-51722380D02*
X219235380Y-51722380D01*
X219235380Y-51722380D02*
X218059000Y-50546000D01*
X231140000Y-51054000D02*
X230471620Y-51722380D01*
%TO.N,/RSTDRV*%
X221107000Y-57942000D02*
X221107000Y-54229000D01*
X221107000Y-54229000D02*
X221234000Y-54102000D01*
%TO.N,/P1*%
X217807000Y-59642000D02*
X220678000Y-59642000D01*
X220678000Y-59642000D02*
X221234000Y-60198000D01*
%TO.N,/P34*%
X239141000Y-59944000D02*
X237938919Y-59944000D01*
X237938919Y-59944000D02*
X236668919Y-61214000D01*
X236668919Y-61214000D02*
X233426000Y-61214000D01*
X233426000Y-61214000D02*
X230154000Y-57942000D01*
X230154000Y-57942000D02*
X227507000Y-57942000D01*
%TO.N,/P33*%
X241681000Y-62484000D02*
X240411000Y-61214000D01*
X240411000Y-61214000D02*
X237998000Y-61214000D01*
X237998000Y-61214000D02*
X237236000Y-61976000D01*
X237236000Y-61976000D02*
X233171990Y-61976000D01*
X229207000Y-59642000D02*
X230837990Y-59642000D01*
X230837990Y-59642000D02*
X233171990Y-61976000D01*
%TO.N,/P32*%
X229207000Y-60442000D02*
X230368000Y-60442000D01*
X230368000Y-60442000D02*
X232918000Y-62992000D01*
X232918000Y-62992000D02*
X238633000Y-62992000D01*
X238633000Y-62992000D02*
X239141000Y-62484000D01*
%TO.N,/P31*%
X229207000Y-61242000D02*
X230406000Y-61242000D01*
X230406000Y-61242000D02*
X233172000Y-64008000D01*
X233172000Y-64008000D02*
X233172000Y-66268000D01*
X233172000Y-66268000D02*
X233146000Y-66294000D01*
%TO.N,/P36*%
X240411000Y-58674000D02*
X238252000Y-58674000D01*
X238252000Y-58674000D02*
X236982000Y-59944000D01*
X236982000Y-59944000D02*
X233426000Y-59944000D01*
X233426000Y-59944000D02*
X233172000Y-59690000D01*
X240411000Y-58674000D02*
X241681000Y-59944000D01*
%TO.N,/P30*%
X230157000Y-62042000D02*
X232496000Y-64381000D01*
X229207000Y-62042000D02*
X230157000Y-62042000D01*
%TO.N,/P31*%
X240411000Y-63754000D02*
X238252000Y-63754000D01*
%TO.N,/P30*%
X232496000Y-64381000D02*
X232496000Y-66888000D01*
%TO.N,/P29*%
X232096000Y-64781000D02*
X232096000Y-67810000D01*
%TO.N,/P30*%
X232496000Y-66888000D02*
X233172000Y-67564000D01*
X233172000Y-67564000D02*
X236601000Y-67564000D01*
%TO.N,/P29*%
X229207000Y-62842000D02*
X230157000Y-62842000D01*
%TO.N,/P30*%
X236601000Y-67564000D02*
X239141000Y-65024000D01*
%TO.N,/P29*%
X230157000Y-62842000D02*
X232096000Y-64781000D01*
%TO.N,/P31*%
X235712000Y-66294000D02*
X233146000Y-66294000D01*
%TO.N,/P29*%
X232096000Y-67810000D02*
X233120000Y-68834000D01*
%TO.N,/P31*%
X238252000Y-63754000D02*
X235712000Y-66294000D01*
X241681000Y-65024000D02*
X240411000Y-63754000D01*
%TO.N,/P28*%
X229207000Y-63642000D02*
X230208314Y-63642000D01*
X230208314Y-63642000D02*
X231648000Y-65081686D01*
X236601000Y-70104000D02*
X239141000Y-67564000D01*
X231648000Y-65081686D02*
X231648000Y-69088000D01*
X231648000Y-69088000D02*
X232664000Y-70104000D01*
X232664000Y-70104000D02*
X236601000Y-70104000D01*
%TO.N,/ATN_DRV*%
X229207000Y-64442000D02*
X230442629Y-64442000D01*
X230442629Y-64442000D02*
X231140000Y-65139371D01*
X231140000Y-65139371D02*
X231140000Y-69622000D01*
X231140000Y-69622000D02*
X233146000Y-71628000D01*
%TO.N,/P29*%
X241681000Y-67564000D02*
X240411000Y-66294000D01*
X240411000Y-66294000D02*
X238506000Y-66294000D01*
X238506000Y-66294000D02*
X235965999Y-68834001D01*
X235965999Y-68834001D02*
X233119999Y-68834001D01*
%TO.N,/ATN_SENS*%
X229207000Y-67642000D02*
X229207000Y-71727000D01*
X229207000Y-71727000D02*
X230632000Y-73152000D01*
X230632000Y-73152000D02*
X235458000Y-73152000D01*
X235458000Y-73152000D02*
X238506000Y-70104000D01*
X238506000Y-70104000D02*
X239141000Y-70104000D01*
%TO.N,/ATN_DRV*%
X241681000Y-70104000D02*
X240411000Y-68834000D01*
X240411000Y-68834000D02*
X238506000Y-68834000D01*
X238506000Y-68834000D02*
X235712000Y-71628000D01*
X235712000Y-71628000D02*
X233146000Y-71628000D01*
%TO.N,/SDATA_DRV*%
X235642708Y-74167978D02*
X233146000Y-74167978D01*
X241681000Y-72644000D02*
X240411000Y-71374000D01*
X240411000Y-71374000D02*
X238436686Y-71374000D01*
X238436686Y-71374000D02*
X235642708Y-74167978D01*
X227507000Y-69342000D02*
X227507000Y-71551000D01*
X227507000Y-71551000D02*
X230123978Y-74167978D01*
X230123978Y-74167978D02*
X233146000Y-74167978D01*
%TO.N,/SDATA_SENS*%
X239141000Y-72644000D02*
X238252000Y-72644000D01*
X238252000Y-72644000D02*
X235204000Y-75692000D01*
X235204000Y-75692000D02*
X230378000Y-75692000D01*
X230378000Y-75692000D02*
X226707000Y-72021000D01*
X226707000Y-72021000D02*
X226707000Y-69342000D01*
%TO.N,/SCLK_DRV*%
X225907000Y-69342000D02*
X225907000Y-72999000D01*
X225907000Y-72999000D02*
X226822000Y-73914000D01*
X226822000Y-73914000D02*
X227584000Y-73914000D01*
X227584000Y-73914000D02*
X230378001Y-76708001D01*
X230378001Y-76708001D02*
X233146001Y-76708001D01*
D20*
%TO.N,GND*%
X235712000Y-47752000D02*
X237470000Y-45994000D01*
X237470000Y-45994000D02*
X243098000Y-45994000D01*
X243098000Y-45994000D02*
X243800000Y-46696000D01*
X243800000Y-46696000D02*
X243800000Y-77724000D01*
X243800000Y-77724000D02*
X241681000Y-77724000D01*
%TO.N,+5V*%
X241681000Y-44704000D02*
X235789000Y-44704000D01*
X235789000Y-44704000D02*
X235712000Y-44627000D01*
%TO.N,GND*%
X229207000Y-66042000D02*
X226316000Y-66042000D01*
X226316000Y-66042000D02*
X225044000Y-64770000D01*
X225044000Y-64770000D02*
X223443000Y-64770000D01*
D19*
%TO.N,/FOUT{slash}~{FIN}*%
X224307000Y-69342000D02*
X224307000Y-66904000D01*
X224307000Y-66904000D02*
X224917000Y-66294000D01*
%TO.N,/~{RST#}*%
X223139000Y-48638000D02*
X223139000Y-50419000D01*
%TO.N,/RSTDRV*%
X221869000Y-48638000D02*
X221869000Y-50419000D01*
D20*
%TO.N,GND*%
X214630000Y-47155500D02*
X215041500Y-46744000D01*
X215041500Y-46744000D02*
X223909000Y-46744000D01*
X223909000Y-46744000D02*
X224155000Y-46990000D01*
D19*
%TO.N,/SDATA_IN*%
X219507000Y-69342000D02*
X219329000Y-69342000D01*
X219329000Y-69342000D02*
X218440000Y-70231000D01*
%TO.N,/FCLK_IN*%
X218567000Y-71755000D02*
X219456000Y-71755000D01*
X219456000Y-71755000D02*
X220307000Y-70904000D01*
X220307000Y-70904000D02*
X220307000Y-69342000D01*
%TO.N,/SCLK_IN*%
X221107000Y-69342000D02*
X221107000Y-70993000D01*
X221107000Y-70993000D02*
X219583000Y-72517000D01*
X219583000Y-72517000D02*
X217805000Y-72517000D01*
%TO.N,/ATN_IN*%
X218821000Y-73406000D02*
X216916000Y-73406000D01*
X221869000Y-73660000D02*
X219075000Y-73660000D01*
X222707000Y-69342000D02*
X222707000Y-72822000D01*
X222707000Y-72822000D02*
X221869000Y-73660000D01*
X219075000Y-73660000D02*
X218821000Y-73406000D01*
%TO.N,/TDI*%
X217807000Y-66042000D02*
X215644000Y-66042000D01*
X215644000Y-66042000D02*
X215011000Y-66675000D01*
X215011000Y-66675000D02*
X215011000Y-67437000D01*
X215011000Y-67437000D02*
X215519000Y-67945000D01*
X215519000Y-67945000D02*
X215519000Y-73279000D01*
X215519000Y-73279000D02*
X216916000Y-74676000D01*
%TO.N,/RST_IN*%
X217807000Y-60442000D02*
X216164000Y-60442000D01*
X216164000Y-60442000D02*
X216154000Y-60452000D01*
%TO.N,/ATN_OUT*%
X217807000Y-61242000D02*
X216380000Y-61242000D01*
X216380000Y-61242000D02*
X216027000Y-61595000D01*
%TO.N,/RST_OUT*%
X217807000Y-62842000D02*
X215795998Y-62842000D01*
X215795998Y-62842000D02*
X215772998Y-62865000D01*
%TO.N,/FCLK_OUT*%
X217807000Y-63642000D02*
X215377000Y-63642000D01*
X215377000Y-63642000D02*
X215265000Y-63754000D01*
%TO.N,/SCLK_OUT*%
X217807000Y-64442000D02*
X217732996Y-64516004D01*
X217732996Y-64516004D02*
X214757000Y-64516004D01*
%TO.N,/SDATA_OUT*%
X217807000Y-65242000D02*
X217771000Y-65278000D01*
X217771000Y-65278000D02*
X214249000Y-65278000D01*
X214249000Y-65278000D02*
X214122000Y-65405000D01*
D20*
%TO.N,GND*%
X223507000Y-69342000D02*
X223507000Y-72046000D01*
X223507000Y-72046000D02*
X224105000Y-72644000D01*
D19*
%TO.N,/TMS*%
X223000000Y-77960000D02*
X220986000Y-75946000D01*
X220986000Y-75946000D02*
X216154000Y-75946000D01*
X217668012Y-66802012D02*
X216154000Y-66802012D01*
X217820000Y-66954000D02*
X217668012Y-66802012D01*
%TO.N,/~{FCLK}{slash}SRQ*%
X218059000Y-50546000D02*
X215198947Y-53406053D01*
X215198947Y-53406053D02*
X209870053Y-53406053D01*
X209870053Y-53406053D02*
X209136000Y-54140105D01*
X209136000Y-54140105D02*
X209136000Y-58380000D01*
X218059000Y-50546000D02*
X218059000Y-48638000D01*
%TO.N,/~{RST}*%
X220599000Y-48638000D02*
X220599000Y-51054000D01*
X220599000Y-51054000D02*
X220853000Y-51308000D01*
X220853000Y-51308000D02*
X225425000Y-51308000D01*
X226060000Y-50673000D02*
X226060000Y-48638000D01*
X225425000Y-51308000D02*
X226060000Y-50673000D01*
X214136000Y-50880000D02*
X215957000Y-49059000D01*
X215957000Y-49059000D02*
X215957000Y-47533000D01*
X216246000Y-47244000D02*
X220179999Y-47244000D01*
X220599000Y-47663001D02*
X220599000Y-48638000D01*
X215957000Y-47533000D02*
X216246000Y-47244000D01*
X220179999Y-47244000D02*
X220599000Y-47663001D01*
%TO.N,/~{SCLK}*%
X211636000Y-45880000D02*
X211815000Y-45701000D01*
X211815000Y-45701000D02*
X221253000Y-45701000D01*
X221253000Y-45701000D02*
X221869000Y-45085000D01*
X221869000Y-45085000D02*
X221869000Y-43688000D01*
%TO.N,/~{ATN}*%
X209136000Y-50880000D02*
X209136000Y-50602500D01*
X209136000Y-50602500D02*
X213637500Y-46101000D01*
X213637500Y-46101000D02*
X223666000Y-46101000D01*
X223666000Y-46101000D02*
X224409000Y-45358000D01*
X224409000Y-45358000D02*
X224409000Y-43688000D01*
D20*
%TO.N,+5V*%
X216789000Y-43688000D02*
X214972500Y-43688000D01*
X214972500Y-43688000D02*
X214630000Y-44030500D01*
D19*
%TO.N,/~{DATA}*%
X213583628Y-45301000D02*
X218690999Y-45301000D01*
X211662628Y-43380000D02*
X213583628Y-45301000D01*
X209136000Y-43380000D02*
X211662628Y-43380000D01*
X218690999Y-45301000D02*
X219329000Y-44662999D01*
X219329000Y-44662999D02*
X219329000Y-43688000D01*
D20*
%TO.N,GND*%
X224155000Y-46990000D02*
X228600000Y-46990000D01*
D19*
X228600000Y-48638000D02*
X228600000Y-46990000D01*
D20*
X228600000Y-46990000D02*
X234950000Y-46990000D01*
D19*
%TO.N,/~{SCLK}*%
X221869000Y-43688000D02*
X221869000Y-41656000D01*
X221869000Y-41656000D02*
X222231000Y-41294000D01*
X222231000Y-41294000D02*
X229127000Y-41294000D01*
X229127000Y-41294000D02*
X229870000Y-42037000D01*
X229870000Y-42037000D02*
X229870000Y-43688000D01*
%TO.N,/~{ATN}*%
X224409000Y-43688000D02*
X224409000Y-42164000D01*
X224409000Y-42164000D02*
X224879000Y-41694000D01*
X224879000Y-41694000D02*
X226987000Y-41694000D01*
X226987000Y-41694000D02*
X227330000Y-42037000D01*
X227330000Y-42037000D02*
X227330000Y-43688000D01*
%TO.N,/~{DATA}*%
X219837000Y-40894000D02*
X231648000Y-40894000D01*
X219329000Y-41402000D02*
X219837000Y-40894000D01*
X219329000Y-43688000D02*
X219329000Y-41402000D01*
X231648000Y-40894000D02*
X232410000Y-41656000D01*
X232410000Y-41656000D02*
X232410000Y-43688000D01*
D20*
%TO.N,GND*%
X234950000Y-46990000D02*
X235712000Y-47752000D01*
X233680000Y-48638000D02*
X234826000Y-48638000D01*
X234826000Y-48638000D02*
X235712000Y-47752000D01*
%TO.N,+5V*%
X226060000Y-43688000D02*
X226060000Y-44662999D01*
X226060000Y-44662999D02*
X226990001Y-45593000D01*
X226990001Y-45593000D02*
X233934000Y-45593000D01*
X233934000Y-45593000D02*
X234900000Y-44627000D01*
X234900000Y-44627000D02*
X235712000Y-44627000D01*
%TO.N,GND*%
X224155000Y-46990000D02*
X224409000Y-47244000D01*
X224409000Y-47244000D02*
X224409000Y-48638000D01*
X222692000Y-62042000D02*
X222758000Y-61976000D01*
X217807000Y-62042000D02*
X222692000Y-62042000D01*
%TO.N,+3V3*%
X221907000Y-69342000D02*
X221907000Y-64605000D01*
X221907000Y-64605000D02*
X226568000Y-59944000D01*
X223840000Y-82200000D02*
X225540000Y-80500000D01*
X205486000Y-82200000D02*
X223840000Y-82200000D01*
%TO.N,GND*%
X228080000Y-80500000D02*
X226830000Y-79250000D01*
X226830000Y-79250000D02*
X219170000Y-79250000D01*
X219170000Y-79250000D02*
X217920000Y-80500000D01*
%TO.N,+3V3*%
X221907000Y-69342000D02*
X221907000Y-71717000D01*
X221907000Y-71717000D02*
X220980000Y-72644000D01*
%TO.N,GND*%
X223507000Y-69342000D02*
X223507000Y-64834000D01*
X223507000Y-64834000D02*
X223443000Y-64770000D01*
%TO.N,+3V3*%
X229207000Y-65242000D02*
X227040000Y-65242000D01*
X227040000Y-65242000D02*
X226568000Y-64770000D01*
X226707000Y-57942000D02*
X226707000Y-59805000D01*
X226707000Y-59805000D02*
X226568000Y-59944000D01*
D19*
%TO.N,/TCK*%
X219534000Y-67642000D02*
X217807000Y-67642000D01*
X219964000Y-67818000D02*
X219710000Y-67818000D01*
X219710000Y-67818000D02*
X219534000Y-67642000D01*
%TO.N,/TDO*%
X227076000Y-66802000D02*
X227838000Y-66802000D01*
X227838000Y-66802000D02*
X227878000Y-66842000D01*
X227878000Y-66842000D02*
X229207000Y-66842000D01*
D20*
%TO.N,/~{ATN}*%
X206756000Y-53260000D02*
X206756000Y-59436000D01*
X210536000Y-63216000D02*
X210536000Y-65221472D01*
X209136000Y-50880000D02*
X206756000Y-53260000D01*
X206756000Y-59436000D02*
X210536000Y-63216000D01*
X210536000Y-65221472D02*
X209136000Y-66621472D01*
X209136000Y-66621472D02*
X209136000Y-71962000D01*
D19*
%TO.N,/SCLK_DRV*%
X235203999Y-76708001D02*
X233146001Y-76708001D01*
X241681000Y-75184000D02*
X240411000Y-73914000D01*
X240411000Y-73914000D02*
X237998000Y-73914000D01*
X237998000Y-73914000D02*
X235203999Y-76708001D01*
%TO.N,/SCLK_SENS*%
X230886000Y-77978000D02*
X236347000Y-77978000D01*
X225107000Y-73596000D02*
X225933000Y-74422000D01*
X236347000Y-77978000D02*
X239141000Y-75184000D01*
X225933000Y-74422000D02*
X227330000Y-74422000D01*
X227330000Y-74422000D02*
X230886000Y-77978000D01*
X225107000Y-69342000D02*
X225107000Y-73596000D01*
%TD*%
%TA.AperFunction,Conductor*%
%TO.N,GND*%
G36*
X219148941Y-40520185D02*
G01*
X219194696Y-40572989D01*
X219204640Y-40642147D01*
X219175615Y-40705703D01*
X219169583Y-40712181D01*
X218848481Y-41033282D01*
X218848480Y-41033284D01*
X218813715Y-41093499D01*
X218769423Y-41170215D01*
X218728499Y-41322943D01*
X218728499Y-41322945D01*
X218728499Y-41491046D01*
X218728500Y-41491059D01*
X218728500Y-42197093D01*
X218708815Y-42264132D01*
X218656011Y-42309887D01*
X218586853Y-42319831D01*
X218541380Y-42303825D01*
X218469400Y-42261257D01*
X218469393Y-42261254D01*
X218311573Y-42215402D01*
X218311567Y-42215401D01*
X218274701Y-42212500D01*
X218274694Y-42212500D01*
X217843306Y-42212500D01*
X217843298Y-42212500D01*
X217806432Y-42215401D01*
X217806426Y-42215402D01*
X217648606Y-42261254D01*
X217648603Y-42261255D01*
X217507137Y-42344917D01*
X217500969Y-42349702D01*
X217499072Y-42347256D01*
X217450358Y-42373857D01*
X217380666Y-42368873D01*
X217348296Y-42348069D01*
X217347031Y-42349702D01*
X217340862Y-42344917D01*
X217204259Y-42264131D01*
X217199398Y-42261256D01*
X217199397Y-42261255D01*
X217199396Y-42261255D01*
X217199393Y-42261254D01*
X217041573Y-42215402D01*
X217041567Y-42215401D01*
X217004701Y-42212500D01*
X217004694Y-42212500D01*
X216573306Y-42212500D01*
X216573298Y-42212500D01*
X216536432Y-42215401D01*
X216536426Y-42215402D01*
X216378606Y-42261254D01*
X216378603Y-42261255D01*
X216237137Y-42344917D01*
X216237129Y-42344923D01*
X216120923Y-42461129D01*
X216120917Y-42461137D01*
X216037255Y-42602603D01*
X216037254Y-42602606D01*
X215991402Y-42760426D01*
X215991401Y-42760432D01*
X215988500Y-42797298D01*
X215988500Y-42863500D01*
X215968815Y-42930539D01*
X215916011Y-42976294D01*
X215864500Y-42987500D01*
X215722558Y-42987500D01*
X215657462Y-42969039D01*
X215599340Y-42933189D01*
X215599335Y-42933187D01*
X215599334Y-42933186D01*
X215432797Y-42878001D01*
X215432795Y-42878000D01*
X215330010Y-42867500D01*
X213929998Y-42867500D01*
X213929981Y-42867501D01*
X213827203Y-42878000D01*
X213827200Y-42878001D01*
X213660668Y-42933185D01*
X213660663Y-42933187D01*
X213511342Y-43025289D01*
X213387289Y-43149342D01*
X213295187Y-43298663D01*
X213295186Y-43298666D01*
X213240001Y-43465203D01*
X213240001Y-43465204D01*
X213240000Y-43465204D01*
X213229500Y-43567983D01*
X213229500Y-43798275D01*
X213209815Y-43865314D01*
X213157011Y-43911069D01*
X213087853Y-43921013D01*
X213024297Y-43891988D01*
X213017819Y-43885956D01*
X212150218Y-43018355D01*
X212150216Y-43018352D01*
X212031345Y-42899481D01*
X212031344Y-42899480D01*
X211944532Y-42849360D01*
X211944532Y-42849359D01*
X211944528Y-42849358D01*
X211894413Y-42820423D01*
X211741685Y-42779499D01*
X211583571Y-42779499D01*
X211575975Y-42779499D01*
X211575959Y-42779500D01*
X210560730Y-42779500D01*
X210493691Y-42759815D01*
X210456808Y-42722133D01*
X210456651Y-42722248D01*
X210455872Y-42721176D01*
X210455000Y-42720285D01*
X210453789Y-42718309D01*
X210369726Y-42602606D01*
X210336981Y-42557536D01*
X210196464Y-42417019D01*
X210035694Y-42300213D01*
X210024482Y-42294500D01*
X209858632Y-42209994D01*
X209858629Y-42209993D01*
X209669637Y-42148587D01*
X209571498Y-42133043D01*
X209473361Y-42117500D01*
X208798639Y-42117500D01*
X208733214Y-42127862D01*
X208602362Y-42148587D01*
X208413370Y-42209993D01*
X208413367Y-42209994D01*
X208236305Y-42300213D01*
X208075533Y-42417021D01*
X207935021Y-42557533D01*
X207818213Y-42718305D01*
X207727994Y-42895367D01*
X207727993Y-42895370D01*
X207666587Y-43084362D01*
X207666587Y-43084364D01*
X207635500Y-43280639D01*
X207635500Y-43479361D01*
X207641720Y-43518630D01*
X207666587Y-43675637D01*
X207727993Y-43864629D01*
X207727994Y-43864632D01*
X207810304Y-44026171D01*
X207818213Y-44041694D01*
X207935019Y-44202464D01*
X208075536Y-44342981D01*
X208236306Y-44459787D01*
X208323149Y-44504035D01*
X208413367Y-44550005D01*
X208413370Y-44550006D01*
X208501664Y-44578694D01*
X208602364Y-44611413D01*
X208798639Y-44642500D01*
X208798640Y-44642500D01*
X209473360Y-44642500D01*
X209473361Y-44642500D01*
X209669636Y-44611413D01*
X209858632Y-44550005D01*
X210035694Y-44459787D01*
X210196464Y-44342981D01*
X210336981Y-44202464D01*
X210453787Y-44041694D01*
X210453789Y-44041689D01*
X210455000Y-44039715D01*
X210455656Y-44039121D01*
X210456651Y-44037752D01*
X210456938Y-44037960D01*
X210506810Y-43992837D01*
X210560730Y-43980500D01*
X211362531Y-43980500D01*
X211429570Y-44000185D01*
X211450212Y-44016819D01*
X211839212Y-44405819D01*
X211872697Y-44467142D01*
X211867713Y-44536834D01*
X211825841Y-44592767D01*
X211760377Y-44617184D01*
X211751531Y-44617500D01*
X211298639Y-44617500D01*
X211233214Y-44627862D01*
X211102362Y-44648587D01*
X210913370Y-44709993D01*
X210913367Y-44709994D01*
X210736305Y-44800213D01*
X210575533Y-44917021D01*
X210435021Y-45057533D01*
X210318213Y-45218305D01*
X210227994Y-45395367D01*
X210227993Y-45395370D01*
X210166587Y-45584362D01*
X210135500Y-45780639D01*
X210135500Y-45979360D01*
X210166587Y-46175637D01*
X210227993Y-46364629D01*
X210227994Y-46364632D01*
X210281538Y-46469716D01*
X210318213Y-46541694D01*
X210435019Y-46702464D01*
X210575536Y-46842981D01*
X210736306Y-46959787D01*
X210823149Y-47004035D01*
X210913367Y-47050005D01*
X210913370Y-47050006D01*
X211007866Y-47080709D01*
X211102364Y-47111413D01*
X211298639Y-47142500D01*
X211447403Y-47142500D01*
X211514442Y-47162185D01*
X211560197Y-47214989D01*
X211570141Y-47284147D01*
X211541116Y-47347703D01*
X211535084Y-47354181D01*
X209308084Y-49581181D01*
X209246761Y-49614666D01*
X209220403Y-49617500D01*
X208798639Y-49617500D01*
X208733214Y-49627862D01*
X208602362Y-49648587D01*
X208413370Y-49709993D01*
X208413367Y-49709994D01*
X208236305Y-49800213D01*
X208075533Y-49917021D01*
X207935021Y-50057533D01*
X207818213Y-50218305D01*
X207727994Y-50395367D01*
X207727993Y-50395370D01*
X207666587Y-50584362D01*
X207635500Y-50780639D01*
X207635500Y-50979360D01*
X207666587Y-51175637D01*
X207688013Y-51241579D01*
X207690008Y-51311420D01*
X207657763Y-51367578D01*
X206211887Y-52813454D01*
X206135222Y-52928192D01*
X206082421Y-53055667D01*
X206082418Y-53055679D01*
X206058830Y-53174265D01*
X206058829Y-53174270D01*
X206055500Y-53191002D01*
X206055500Y-53191007D01*
X206055500Y-59367006D01*
X206055500Y-59504994D01*
X206055500Y-59504996D01*
X206055499Y-59504996D01*
X206082418Y-59640322D01*
X206082421Y-59640332D01*
X206135222Y-59767807D01*
X206211887Y-59882545D01*
X206211888Y-59882546D01*
X209317162Y-62987819D01*
X209350647Y-63049142D01*
X209345663Y-63118834D01*
X209303791Y-63174767D01*
X209238327Y-63199184D01*
X209229481Y-63199500D01*
X208798639Y-63199500D01*
X208733214Y-63209862D01*
X208602362Y-63230587D01*
X208413370Y-63291993D01*
X208413367Y-63291994D01*
X208236305Y-63382213D01*
X208075533Y-63499021D01*
X207935021Y-63639533D01*
X207818213Y-63800305D01*
X207727994Y-63977367D01*
X207727993Y-63977370D01*
X207666587Y-64166362D01*
X207649667Y-64273192D01*
X207635500Y-64362639D01*
X207635500Y-64561361D01*
X207648816Y-64645435D01*
X207666587Y-64757637D01*
X207727993Y-64946629D01*
X207727994Y-64946632D01*
X207816087Y-65119522D01*
X207818213Y-65123694D01*
X207935019Y-65284464D01*
X208075536Y-65424981D01*
X208236306Y-65541787D01*
X208274734Y-65561367D01*
X208413367Y-65632005D01*
X208413370Y-65632006D01*
X208490852Y-65657181D01*
X208602364Y-65693413D01*
X208764722Y-65719128D01*
X208768630Y-65719747D01*
X208831765Y-65749676D01*
X208868696Y-65808988D01*
X208867698Y-65878850D01*
X208836913Y-65929901D01*
X208591888Y-66174925D01*
X208591887Y-66174926D01*
X208515222Y-66289664D01*
X208462421Y-66417139D01*
X208462418Y-66417151D01*
X208440866Y-66525502D01*
X208440866Y-66525505D01*
X208435500Y-66552478D01*
X208435500Y-70704731D01*
X208415815Y-70771770D01*
X208367795Y-70815215D01*
X208342744Y-70827980D01*
X208236305Y-70882213D01*
X208075533Y-70999021D01*
X207935021Y-71139533D01*
X207818213Y-71300305D01*
X207727994Y-71477367D01*
X207727993Y-71477370D01*
X207666587Y-71666362D01*
X207635500Y-71862639D01*
X207635500Y-72061360D01*
X207666587Y-72257637D01*
X207727993Y-72446629D01*
X207727994Y-72446632D01*
X207763849Y-72517000D01*
X207818213Y-72623694D01*
X207935019Y-72784464D01*
X208075536Y-72924981D01*
X208236306Y-73041787D01*
X208265139Y-73056478D01*
X208413367Y-73132005D01*
X208413370Y-73132006D01*
X208507866Y-73162709D01*
X208602364Y-73193413D01*
X208798639Y-73224500D01*
X208798640Y-73224500D01*
X209473360Y-73224500D01*
X209473361Y-73224500D01*
X209669636Y-73193413D01*
X209858632Y-73132005D01*
X210035694Y-73041787D01*
X210196464Y-72924981D01*
X210336981Y-72784464D01*
X210453787Y-72623694D01*
X210544005Y-72446632D01*
X210605413Y-72257636D01*
X210636500Y-72061361D01*
X210636500Y-71862639D01*
X210605413Y-71666364D01*
X210551977Y-71501902D01*
X210544006Y-71477370D01*
X210544005Y-71477367D01*
X210473290Y-71338583D01*
X210453787Y-71300306D01*
X210336981Y-71139536D01*
X210196464Y-70999019D01*
X210035694Y-70882213D01*
X209904204Y-70815215D01*
X209853409Y-70767241D01*
X209836500Y-70704731D01*
X209836500Y-66962990D01*
X209856185Y-66895951D01*
X209872815Y-66875313D01*
X209923820Y-66824308D01*
X209985142Y-66790824D01*
X210054834Y-66795808D01*
X210110767Y-66837680D01*
X210135184Y-66903144D01*
X210135500Y-66911990D01*
X210135500Y-67061360D01*
X210166587Y-67257637D01*
X210227993Y-67446629D01*
X210227994Y-67446632D01*
X210307561Y-67602789D01*
X210318213Y-67623694D01*
X210435019Y-67784464D01*
X210575536Y-67924981D01*
X210736306Y-68041787D01*
X210795239Y-68071815D01*
X210913367Y-68132005D01*
X210913370Y-68132006D01*
X210997460Y-68159328D01*
X211102364Y-68193413D01*
X211298639Y-68224500D01*
X211298640Y-68224500D01*
X211973360Y-68224500D01*
X211973361Y-68224500D01*
X212169636Y-68193413D01*
X212358632Y-68132005D01*
X212535694Y-68041787D01*
X212696464Y-67924981D01*
X212836981Y-67784464D01*
X212953787Y-67623694D01*
X213044005Y-67446632D01*
X213105413Y-67257636D01*
X213136500Y-67061361D01*
X213136500Y-66862639D01*
X213105413Y-66666364D01*
X213044005Y-66477368D01*
X213044005Y-66477367D01*
X212979068Y-66349923D01*
X212953787Y-66300306D01*
X212836981Y-66139536D01*
X212696464Y-65999019D01*
X212535694Y-65882213D01*
X212520647Y-65874546D01*
X212358632Y-65791994D01*
X212358629Y-65791993D01*
X212169637Y-65730587D01*
X212071498Y-65715043D01*
X211973361Y-65699500D01*
X211298639Y-65699500D01*
X211293788Y-65699882D01*
X211293661Y-65698271D01*
X211231377Y-65690212D01*
X211177932Y-65645207D01*
X211157303Y-65578453D01*
X211166730Y-65529249D01*
X211175270Y-65508631D01*
X211209580Y-65425800D01*
X211236500Y-65290466D01*
X211236500Y-65152478D01*
X211236500Y-63147007D01*
X211236500Y-63147004D01*
X211209580Y-63011672D01*
X211208660Y-63009452D01*
X211208656Y-63009442D01*
X211183067Y-62947664D01*
X211156775Y-62884189D01*
X211080114Y-62769457D01*
X211080112Y-62769454D01*
X207492819Y-59182161D01*
X207459334Y-59120838D01*
X207456500Y-59094480D01*
X207456500Y-58811961D01*
X207476185Y-58744922D01*
X207528989Y-58699167D01*
X207598147Y-58689223D01*
X207661703Y-58718248D01*
X207698431Y-58773643D01*
X207727993Y-58864629D01*
X207727994Y-58864632D01*
X207812859Y-59031186D01*
X207818213Y-59041694D01*
X207935019Y-59202464D01*
X208075536Y-59342981D01*
X208236306Y-59459787D01*
X208323149Y-59504035D01*
X208413367Y-59550005D01*
X208413370Y-59550006D01*
X208507866Y-59580709D01*
X208602364Y-59611413D01*
X208798639Y-59642500D01*
X208798640Y-59642500D01*
X209473360Y-59642500D01*
X209473361Y-59642500D01*
X209669636Y-59611413D01*
X209858632Y-59550005D01*
X210035694Y-59459787D01*
X210196464Y-59342981D01*
X210336981Y-59202464D01*
X210453787Y-59041694D01*
X210544005Y-58864632D01*
X210605413Y-58675636D01*
X210636500Y-58479361D01*
X210636500Y-58280639D01*
X210605413Y-58084364D01*
X210573569Y-57986356D01*
X210544006Y-57895370D01*
X210544005Y-57895367D01*
X210495318Y-57799815D01*
X210453787Y-57718306D01*
X210336981Y-57557536D01*
X210196464Y-57417019D01*
X210035694Y-57300213D01*
X209958409Y-57260834D01*
X209858633Y-57209995D01*
X209822179Y-57198150D01*
X209764505Y-57158711D01*
X209737308Y-57094352D01*
X209736500Y-57080220D01*
X209736500Y-55629999D01*
X210159865Y-55629999D01*
X210159865Y-55630000D01*
X211078184Y-55630000D01*
X211062124Y-55646060D01*
X211011964Y-55732939D01*
X210986000Y-55829840D01*
X210986000Y-55930160D01*
X211011964Y-56027061D01*
X211062124Y-56113940D01*
X211078184Y-56130000D01*
X210159865Y-56130000D01*
X210167074Y-56175517D01*
X210228456Y-56364435D01*
X210318641Y-56541432D01*
X210435403Y-56702139D01*
X210435403Y-56702140D01*
X210575859Y-56842596D01*
X210736567Y-56959358D01*
X210913562Y-57049542D01*
X211102477Y-57110924D01*
X211298679Y-57142000D01*
X211386000Y-57142000D01*
X211386000Y-56261000D01*
X211886000Y-56261000D01*
X211886000Y-57142000D01*
X211973321Y-57142000D01*
X212169520Y-57110924D01*
X212169523Y-57110924D01*
X212358437Y-57049542D01*
X212535432Y-56959358D01*
X212696139Y-56842596D01*
X212696140Y-56842596D01*
X212836596Y-56702140D01*
X212836596Y-56702139D01*
X212953358Y-56541432D01*
X213043543Y-56364435D01*
X213104925Y-56175517D01*
X213112134Y-56130000D01*
X212193816Y-56130000D01*
X212209876Y-56113940D01*
X212260036Y-56027061D01*
X212286000Y-55930160D01*
X212286000Y-55829840D01*
X212260036Y-55732939D01*
X212209876Y-55646060D01*
X212193816Y-55630000D01*
X213112135Y-55630000D01*
X213112134Y-55629999D01*
X213104925Y-55584482D01*
X213043543Y-55395564D01*
X212953358Y-55218567D01*
X212836596Y-55057860D01*
X212836596Y-55057859D01*
X212696140Y-54917403D01*
X212535432Y-54800641D01*
X212358437Y-54710457D01*
X212169522Y-54649075D01*
X211973321Y-54618000D01*
X211886000Y-54618000D01*
X211886000Y-55499000D01*
X211386000Y-55499000D01*
X211386000Y-54618000D01*
X211298679Y-54618000D01*
X211102479Y-54649075D01*
X211102476Y-54649075D01*
X210913562Y-54710457D01*
X210736567Y-54800641D01*
X210575860Y-54917403D01*
X210575859Y-54917403D01*
X210435403Y-55057859D01*
X210435403Y-55057860D01*
X210318641Y-55218567D01*
X210228456Y-55395564D01*
X210167074Y-55584482D01*
X210159865Y-55629999D01*
X209736500Y-55629999D01*
X209736500Y-54440203D01*
X209756185Y-54373164D01*
X209772819Y-54352522D01*
X210082469Y-54042872D01*
X210143792Y-54009387D01*
X210170150Y-54006553D01*
X215112278Y-54006553D01*
X215112294Y-54006554D01*
X215119890Y-54006554D01*
X215278001Y-54006554D01*
X215278004Y-54006554D01*
X215430732Y-53965630D01*
X215503836Y-53923423D01*
X215567663Y-53886573D01*
X215679467Y-53774769D01*
X215679467Y-53774767D01*
X215689671Y-53764564D01*
X215689674Y-53764559D01*
X217971320Y-51482914D01*
X218032641Y-51449431D01*
X218102333Y-51454415D01*
X218146680Y-51482916D01*
X218474583Y-51810819D01*
X218866664Y-52202900D01*
X218866666Y-52202901D01*
X218866670Y-52202904D01*
X219003589Y-52281953D01*
X219003596Y-52281957D01*
X219156323Y-52322881D01*
X219156325Y-52322881D01*
X219322034Y-52322881D01*
X219322050Y-52322880D01*
X220398173Y-52322880D01*
X220465212Y-52342565D01*
X220510967Y-52395369D01*
X220520911Y-52464527D01*
X220491886Y-52528083D01*
X220460173Y-52554266D01*
X220451277Y-52559403D01*
X220430359Y-52571479D01*
X219026481Y-53975357D01*
X219026477Y-53975362D01*
X219011459Y-54001376D01*
X219008470Y-54006554D01*
X218947423Y-54112290D01*
X218906499Y-54265018D01*
X218906499Y-54265020D01*
X218906499Y-54433121D01*
X218906500Y-54433134D01*
X218906500Y-56751045D01*
X218886815Y-56818084D01*
X218879504Y-56827157D01*
X218879768Y-56827355D01*
X218788206Y-56949664D01*
X218788202Y-56949671D01*
X218737908Y-57084517D01*
X218731501Y-57144116D01*
X218731501Y-57144123D01*
X218731500Y-57144135D01*
X218731500Y-58742500D01*
X218711815Y-58809539D01*
X218659011Y-58855294D01*
X218607500Y-58866500D01*
X217009129Y-58866500D01*
X217009123Y-58866501D01*
X216949516Y-58872908D01*
X216814671Y-58923202D01*
X216814664Y-58923206D01*
X216699455Y-59009452D01*
X216699452Y-59009455D01*
X216613206Y-59124664D01*
X216613202Y-59124671D01*
X216562908Y-59259517D01*
X216556501Y-59319116D01*
X216556500Y-59319135D01*
X216556500Y-59569986D01*
X216536815Y-59637025D01*
X216484011Y-59682780D01*
X216414853Y-59692724D01*
X216391546Y-59687028D01*
X216333257Y-59666632D01*
X216333249Y-59666630D01*
X216154004Y-59646435D01*
X216153996Y-59646435D01*
X215974750Y-59666630D01*
X215974745Y-59666631D01*
X215804476Y-59726211D01*
X215651737Y-59822184D01*
X215524184Y-59949737D01*
X215428211Y-60102476D01*
X215368631Y-60272745D01*
X215368630Y-60272750D01*
X215348435Y-60451996D01*
X215348435Y-60452003D01*
X215368630Y-60631249D01*
X215368631Y-60631254D01*
X215428211Y-60801523D01*
X215476001Y-60877580D01*
X215495001Y-60944817D01*
X215474633Y-61011652D01*
X215458689Y-61031233D01*
X215397183Y-61092739D01*
X215301211Y-61245476D01*
X215241631Y-61415745D01*
X215241630Y-61415750D01*
X215221435Y-61594996D01*
X215221435Y-61595003D01*
X215241630Y-61774249D01*
X215241631Y-61774254D01*
X215301211Y-61944523D01*
X215357551Y-62034187D01*
X215376551Y-62101424D01*
X215356183Y-62168259D01*
X215318530Y-62205152D01*
X215270738Y-62235182D01*
X215270735Y-62235184D01*
X215143182Y-62362737D01*
X215047209Y-62515476D01*
X214987629Y-62685745D01*
X214987628Y-62685750D01*
X214967433Y-62864996D01*
X214967433Y-62865004D01*
X214972447Y-62909509D01*
X214960392Y-62978330D01*
X214915200Y-63028384D01*
X214762739Y-63124182D01*
X214635184Y-63251737D01*
X214539211Y-63404476D01*
X214479631Y-63574745D01*
X214479630Y-63574749D01*
X214465687Y-63698501D01*
X214438620Y-63762915D01*
X214408439Y-63789611D01*
X214254737Y-63886188D01*
X214127184Y-64013741D01*
X214031211Y-64166480D01*
X213971631Y-64336749D01*
X213971630Y-64336754D01*
X213951435Y-64516000D01*
X213951435Y-64522967D01*
X213949788Y-64522967D01*
X213939207Y-64583342D01*
X213891853Y-64634717D01*
X213869001Y-64645435D01*
X213772480Y-64679209D01*
X213619737Y-64775184D01*
X213492184Y-64902737D01*
X213396211Y-65055476D01*
X213336631Y-65225745D01*
X213336630Y-65225750D01*
X213316435Y-65404996D01*
X213316435Y-65405003D01*
X213336630Y-65584249D01*
X213336631Y-65584254D01*
X213396211Y-65754523D01*
X213476445Y-65882213D01*
X213492184Y-65907262D01*
X213619738Y-66034816D01*
X213698248Y-66084147D01*
X213760406Y-66123204D01*
X213772478Y-66130789D01*
X213898623Y-66174929D01*
X213942745Y-66190368D01*
X213942750Y-66190369D01*
X214121996Y-66210565D01*
X214122000Y-66210565D01*
X214122004Y-66210565D01*
X214301249Y-66190369D01*
X214301251Y-66190368D01*
X214301255Y-66190368D01*
X214301258Y-66190366D01*
X214301262Y-66190366D01*
X214356942Y-66170883D01*
X214426721Y-66167321D01*
X214487348Y-66202049D01*
X214519576Y-66264043D01*
X214513171Y-66333618D01*
X214505284Y-66349923D01*
X214488117Y-66379659D01*
X214451423Y-66443215D01*
X214410499Y-66595943D01*
X214410499Y-66595945D01*
X214410499Y-66764046D01*
X214410500Y-66764059D01*
X214410500Y-67350330D01*
X214410499Y-67350348D01*
X214410499Y-67516054D01*
X214410498Y-67516054D01*
X214433739Y-67602789D01*
X214451423Y-67668785D01*
X214477075Y-67713215D01*
X214526835Y-67799403D01*
X214530479Y-67805714D01*
X214530481Y-67805717D01*
X214649349Y-67924585D01*
X214649355Y-67924590D01*
X214882181Y-68157416D01*
X214915666Y-68218739D01*
X214918500Y-68245097D01*
X214918500Y-70503416D01*
X214898815Y-70570455D01*
X214846011Y-70616210D01*
X214776853Y-70626154D01*
X214738205Y-70613901D01*
X214620632Y-70553995D01*
X214620629Y-70553993D01*
X214431637Y-70492587D01*
X214263242Y-70465916D01*
X214235361Y-70461500D01*
X214036639Y-70461500D01*
X214008758Y-70465916D01*
X213840362Y-70492587D01*
X213651370Y-70553993D01*
X213651367Y-70553994D01*
X213474305Y-70644213D01*
X213313533Y-70761021D01*
X213173021Y-70901533D01*
X213056213Y-71062305D01*
X212965994Y-71239367D01*
X212965993Y-71239370D01*
X212904587Y-71428362D01*
X212890931Y-71514584D01*
X212873500Y-71624639D01*
X212873500Y-72299361D01*
X212879580Y-72337749D01*
X212904587Y-72495637D01*
X212965993Y-72684629D01*
X212965994Y-72684632D01*
X213016862Y-72784464D01*
X213056213Y-72861694D01*
X213173019Y-73022464D01*
X213313536Y-73162981D01*
X213474306Y-73279787D01*
X213518922Y-73302520D01*
X213651367Y-73370005D01*
X213651370Y-73370006D01*
X213745866Y-73400709D01*
X213840364Y-73431413D01*
X214036639Y-73462500D01*
X214036640Y-73462500D01*
X214235360Y-73462500D01*
X214235361Y-73462500D01*
X214431636Y-73431413D01*
X214620632Y-73370005D01*
X214644081Y-73358057D01*
X214749097Y-73304549D01*
X214817766Y-73291652D01*
X214882506Y-73317928D01*
X214922764Y-73375034D01*
X214925160Y-73382917D01*
X214938155Y-73431412D01*
X214959424Y-73510789D01*
X214959425Y-73510790D01*
X214979340Y-73545283D01*
X214979341Y-73545284D01*
X215038477Y-73647712D01*
X215038481Y-73647717D01*
X215157349Y-73766585D01*
X215157355Y-73766590D01*
X216085298Y-74694533D01*
X216118783Y-74755856D01*
X216120837Y-74768330D01*
X216130630Y-74855249D01*
X216176166Y-74985385D01*
X216179727Y-75055164D01*
X216144998Y-75115791D01*
X216083004Y-75148018D01*
X216073009Y-75149559D01*
X215974748Y-75160631D01*
X215974745Y-75160631D01*
X215804476Y-75220211D01*
X215651737Y-75316184D01*
X215524184Y-75443737D01*
X215428211Y-75596476D01*
X215368631Y-75766745D01*
X215368630Y-75766750D01*
X215348435Y-75945996D01*
X215348435Y-75946003D01*
X215368630Y-76125249D01*
X215368631Y-76125254D01*
X215428211Y-76295523D01*
X215498450Y-76407307D01*
X215524184Y-76448262D01*
X215651738Y-76575816D01*
X215729439Y-76624639D01*
X215800860Y-76669516D01*
X215804478Y-76671789D01*
X215965291Y-76728060D01*
X215974745Y-76731368D01*
X215974750Y-76731369D01*
X216153996Y-76751565D01*
X216154000Y-76751565D01*
X216154004Y-76751565D01*
X216333249Y-76731369D01*
X216333252Y-76731368D01*
X216333255Y-76731368D01*
X216503522Y-76671789D01*
X216656262Y-76575816D01*
X216656267Y-76575810D01*
X216659097Y-76573555D01*
X216661275Y-76572665D01*
X216662158Y-76572111D01*
X216662255Y-76572265D01*
X216723783Y-76547145D01*
X216736412Y-76546500D01*
X217196377Y-76546500D01*
X217263416Y-76566185D01*
X217309171Y-76618989D01*
X217319115Y-76688147D01*
X217290090Y-76751703D01*
X217248782Y-76782882D01*
X217242171Y-76785964D01*
X217242169Y-76785965D01*
X217048597Y-76921505D01*
X216881505Y-77088597D01*
X216745965Y-77282169D01*
X216745964Y-77282171D01*
X216646098Y-77496335D01*
X216646094Y-77496344D01*
X216584938Y-77724586D01*
X216584936Y-77724596D01*
X216564341Y-77959999D01*
X216564341Y-77960000D01*
X216584936Y-78195403D01*
X216584938Y-78195413D01*
X216646094Y-78423655D01*
X216646096Y-78423659D01*
X216646097Y-78423663D01*
X216726004Y-78595023D01*
X216745965Y-78637830D01*
X216745967Y-78637834D01*
X216832983Y-78762105D01*
X216881501Y-78831396D01*
X216881506Y-78831402D01*
X217048597Y-78998493D01*
X217048603Y-78998498D01*
X217234594Y-79128730D01*
X217278219Y-79183307D01*
X217285413Y-79252805D01*
X217253890Y-79315160D01*
X217234595Y-79331880D01*
X217048922Y-79461890D01*
X217048920Y-79461891D01*
X216881891Y-79628920D01*
X216881886Y-79628926D01*
X216746400Y-79822420D01*
X216746399Y-79822422D01*
X216646570Y-80036507D01*
X216646567Y-80036513D01*
X216589364Y-80249999D01*
X216589364Y-80250000D01*
X217486988Y-80250000D01*
X217454075Y-80307007D01*
X217420000Y-80434174D01*
X217420000Y-80565826D01*
X217454075Y-80692993D01*
X217486988Y-80750000D01*
X216589364Y-80750000D01*
X216646567Y-80963486D01*
X216646570Y-80963492D01*
X216746400Y-81177579D01*
X216746404Y-81177585D01*
X216835185Y-81304376D01*
X216857513Y-81370582D01*
X216840503Y-81438349D01*
X216789556Y-81486163D01*
X216733611Y-81499500D01*
X205911494Y-81499500D01*
X205845523Y-81480494D01*
X205835525Y-81474212D01*
X205665254Y-81414631D01*
X205665249Y-81414630D01*
X205486004Y-81394435D01*
X205485996Y-81394435D01*
X205306750Y-81414630D01*
X205306745Y-81414631D01*
X205136476Y-81474211D01*
X204983737Y-81570184D01*
X204856184Y-81697737D01*
X204760211Y-81850476D01*
X204700631Y-82020745D01*
X204700630Y-82020750D01*
X204680435Y-82199996D01*
X204680435Y-82200003D01*
X204698644Y-82361617D01*
X204686589Y-82430439D01*
X204639240Y-82481818D01*
X204575424Y-82499500D01*
X197124500Y-82499500D01*
X197057461Y-82479815D01*
X197011706Y-82427011D01*
X197000500Y-82375500D01*
X197000500Y-79362639D01*
X207635500Y-79362639D01*
X207635500Y-79561361D01*
X207646200Y-79628920D01*
X207666587Y-79757637D01*
X207727993Y-79946629D01*
X207727994Y-79946632D01*
X207806090Y-80099901D01*
X207818213Y-80123694D01*
X207935019Y-80284464D01*
X208075536Y-80424981D01*
X208236306Y-80541787D01*
X208266087Y-80556961D01*
X208413367Y-80632005D01*
X208413370Y-80632006D01*
X208507866Y-80662709D01*
X208602364Y-80693413D01*
X208798639Y-80724500D01*
X208798640Y-80724500D01*
X209473360Y-80724500D01*
X209473361Y-80724500D01*
X209669636Y-80693413D01*
X209858632Y-80632005D01*
X210035694Y-80541787D01*
X210196464Y-80424981D01*
X210336981Y-80284464D01*
X210453787Y-80123694D01*
X210544005Y-79946632D01*
X210605413Y-79757636D01*
X210636500Y-79561361D01*
X210636500Y-79362639D01*
X210605413Y-79166364D01*
X210568361Y-79052328D01*
X210544006Y-78977370D01*
X210544005Y-78977367D01*
X210478123Y-78848068D01*
X210453787Y-78800306D01*
X210336981Y-78639536D01*
X210196464Y-78499019D01*
X210035694Y-78382213D01*
X209966022Y-78346713D01*
X209858632Y-78291994D01*
X209858629Y-78291993D01*
X209669637Y-78230587D01*
X209571498Y-78215043D01*
X209473361Y-78199500D01*
X208798639Y-78199500D01*
X208733214Y-78209862D01*
X208602362Y-78230587D01*
X208413370Y-78291993D01*
X208413367Y-78291994D01*
X208236305Y-78382213D01*
X208075533Y-78499021D01*
X207935021Y-78639533D01*
X207818213Y-78800305D01*
X207727994Y-78977367D01*
X207727993Y-78977370D01*
X207666587Y-79166362D01*
X207641309Y-79325965D01*
X207635500Y-79362639D01*
X197000500Y-79362639D01*
X197000500Y-76624639D01*
X197873500Y-76624639D01*
X197873500Y-77299361D01*
X197876418Y-77317783D01*
X197904587Y-77495637D01*
X197965993Y-77684629D01*
X197965994Y-77684632D01*
X198016697Y-77784140D01*
X198056213Y-77861694D01*
X198173019Y-78022464D01*
X198313536Y-78162981D01*
X198474306Y-78279787D01*
X198561149Y-78324035D01*
X198651367Y-78370005D01*
X198651370Y-78370006D01*
X198711900Y-78389673D01*
X198840364Y-78431413D01*
X199036639Y-78462500D01*
X199036640Y-78462500D01*
X199235360Y-78462500D01*
X199235361Y-78462500D01*
X199431636Y-78431413D01*
X199620632Y-78370005D01*
X199797694Y-78279787D01*
X199958464Y-78162981D01*
X200098981Y-78022464D01*
X200215787Y-77861694D01*
X200306005Y-77684632D01*
X200367413Y-77495636D01*
X200398500Y-77299361D01*
X200398500Y-76711999D01*
X210159865Y-76711999D01*
X210159865Y-76712000D01*
X211078184Y-76712000D01*
X211062124Y-76728060D01*
X211011964Y-76814939D01*
X210986000Y-76911840D01*
X210986000Y-77012160D01*
X211011964Y-77109061D01*
X211062124Y-77195940D01*
X211078184Y-77212000D01*
X210159865Y-77212000D01*
X210167074Y-77257517D01*
X210228456Y-77446435D01*
X210318641Y-77623432D01*
X210435403Y-77784139D01*
X210435403Y-77784140D01*
X210575859Y-77924596D01*
X210736567Y-78041358D01*
X210913562Y-78131542D01*
X211102477Y-78192924D01*
X211298679Y-78224000D01*
X211386000Y-78224000D01*
X211386000Y-77343000D01*
X211886000Y-77343000D01*
X211886000Y-78224000D01*
X211973321Y-78224000D01*
X212169520Y-78192924D01*
X212169523Y-78192924D01*
X212358437Y-78131542D01*
X212535432Y-78041358D01*
X212696139Y-77924596D01*
X212696140Y-77924596D01*
X212836596Y-77784140D01*
X212836596Y-77784139D01*
X212953358Y-77623432D01*
X213043543Y-77446435D01*
X213104925Y-77257517D01*
X213112134Y-77212000D01*
X212193816Y-77212000D01*
X212209876Y-77195940D01*
X212260036Y-77109061D01*
X212286000Y-77012160D01*
X212286000Y-76911840D01*
X212260036Y-76814939D01*
X212209876Y-76728060D01*
X212193816Y-76712000D01*
X213112135Y-76712000D01*
X213112134Y-76711999D01*
X213104925Y-76666482D01*
X213043543Y-76477564D01*
X212953358Y-76300567D01*
X212836596Y-76139860D01*
X212836596Y-76139859D01*
X212696140Y-75999403D01*
X212535432Y-75882641D01*
X212358437Y-75792457D01*
X212169522Y-75731075D01*
X211973321Y-75700000D01*
X211886000Y-75700000D01*
X211886000Y-76581000D01*
X211386000Y-76581000D01*
X211386000Y-75700000D01*
X211298679Y-75700000D01*
X211102479Y-75731075D01*
X211102476Y-75731075D01*
X210913562Y-75792457D01*
X210736567Y-75882641D01*
X210575860Y-75999403D01*
X210575859Y-75999403D01*
X210435403Y-76139859D01*
X210435403Y-76139860D01*
X210318641Y-76300567D01*
X210228456Y-76477564D01*
X210167074Y-76666482D01*
X210159865Y-76711999D01*
X200398500Y-76711999D01*
X200398500Y-76624639D01*
X200367413Y-76428364D01*
X200324251Y-76295523D01*
X200306006Y-76239370D01*
X200306005Y-76239367D01*
X200215786Y-76062305D01*
X200210770Y-76055401D01*
X200098981Y-75901536D01*
X199958464Y-75761019D01*
X199797694Y-75644213D01*
X199620632Y-75553994D01*
X199620629Y-75553993D01*
X199431637Y-75492587D01*
X199333498Y-75477043D01*
X199235361Y-75461500D01*
X199036639Y-75461500D01*
X198971214Y-75471862D01*
X198840362Y-75492587D01*
X198651370Y-75553993D01*
X198651367Y-75553994D01*
X198474305Y-75644213D01*
X198313533Y-75761021D01*
X198173021Y-75901533D01*
X198056213Y-76062305D01*
X197965994Y-76239367D01*
X197965993Y-76239370D01*
X197904587Y-76428362D01*
X197884390Y-76555880D01*
X197873500Y-76624639D01*
X197000500Y-76624639D01*
X197000500Y-66624639D01*
X197873500Y-66624639D01*
X197873500Y-67299360D01*
X197904587Y-67495637D01*
X197965993Y-67684629D01*
X197965994Y-67684632D01*
X198042114Y-67834023D01*
X198056213Y-67861694D01*
X198173019Y-68022464D01*
X198313536Y-68162981D01*
X198474306Y-68279787D01*
X198553701Y-68320241D01*
X198651367Y-68370005D01*
X198651370Y-68370006D01*
X198745866Y-68400709D01*
X198840364Y-68431413D01*
X199036639Y-68462500D01*
X199036640Y-68462500D01*
X199235360Y-68462500D01*
X199235361Y-68462500D01*
X199431636Y-68431413D01*
X199620632Y-68370005D01*
X199797694Y-68279787D01*
X199958464Y-68162981D01*
X200098981Y-68022464D01*
X200215787Y-67861694D01*
X200306005Y-67684632D01*
X200367413Y-67495636D01*
X200398500Y-67299361D01*
X200398500Y-66624639D01*
X200367413Y-66428364D01*
X200325805Y-66300306D01*
X200306006Y-66239370D01*
X200306005Y-66239367D01*
X200244757Y-66119162D01*
X200215787Y-66062306D01*
X200098981Y-65901536D01*
X199958464Y-65761019D01*
X199797694Y-65644213D01*
X199773735Y-65632005D01*
X199620632Y-65553994D01*
X199620629Y-65553993D01*
X199431637Y-65492587D01*
X199333498Y-65477043D01*
X199235361Y-65461500D01*
X199036639Y-65461500D01*
X198971214Y-65471862D01*
X198840362Y-65492587D01*
X198651370Y-65553993D01*
X198651367Y-65553994D01*
X198474305Y-65644213D01*
X198313533Y-65761021D01*
X198173021Y-65901533D01*
X198056213Y-66062305D01*
X197965994Y-66239367D01*
X197965993Y-66239370D01*
X197904587Y-66428362D01*
X197873500Y-66624639D01*
X197000500Y-66624639D01*
X197000500Y-55542639D01*
X197873500Y-55542639D01*
X197873500Y-56217361D01*
X197876385Y-56235575D01*
X197904587Y-56413637D01*
X197965993Y-56602629D01*
X197965994Y-56602632D01*
X198054768Y-56776858D01*
X198056213Y-56779694D01*
X198173019Y-56940464D01*
X198313536Y-57080981D01*
X198474306Y-57197787D01*
X198512995Y-57217500D01*
X198651367Y-57288005D01*
X198651370Y-57288006D01*
X198739889Y-57316767D01*
X198840364Y-57349413D01*
X199036639Y-57380500D01*
X199036640Y-57380500D01*
X199235360Y-57380500D01*
X199235361Y-57380500D01*
X199431636Y-57349413D01*
X199620632Y-57288005D01*
X199797694Y-57197787D01*
X199958464Y-57080981D01*
X200098981Y-56940464D01*
X200215787Y-56779694D01*
X200306005Y-56602632D01*
X200367413Y-56413636D01*
X200398500Y-56217361D01*
X200398500Y-55542639D01*
X200367413Y-55346364D01*
X200306005Y-55157368D01*
X200306005Y-55157367D01*
X200215786Y-54980305D01*
X200170085Y-54917403D01*
X200098981Y-54819536D01*
X199958464Y-54679019D01*
X199797694Y-54562213D01*
X199726978Y-54526181D01*
X199620632Y-54471994D01*
X199620629Y-54471993D01*
X199431637Y-54410587D01*
X199333498Y-54395043D01*
X199235361Y-54379500D01*
X199036639Y-54379500D01*
X198971214Y-54389862D01*
X198840362Y-54410587D01*
X198651370Y-54471993D01*
X198651367Y-54471994D01*
X198474305Y-54562213D01*
X198313533Y-54679021D01*
X198173021Y-54819533D01*
X198056213Y-54980305D01*
X197965994Y-55157367D01*
X197965993Y-55157370D01*
X197904587Y-55346362D01*
X197892567Y-55422252D01*
X197873500Y-55542639D01*
X197000500Y-55542639D01*
X197000500Y-45542639D01*
X197873500Y-45542639D01*
X197873500Y-46217360D01*
X197904587Y-46413637D01*
X197965993Y-46602629D01*
X197965994Y-46602632D01*
X198052276Y-46771967D01*
X198056213Y-46779694D01*
X198173019Y-46940464D01*
X198313536Y-47080981D01*
X198474306Y-47197787D01*
X198561149Y-47242035D01*
X198651367Y-47288005D01*
X198651370Y-47288006D01*
X198745866Y-47318709D01*
X198840364Y-47349413D01*
X199036639Y-47380500D01*
X199036640Y-47380500D01*
X199235360Y-47380500D01*
X199235361Y-47380500D01*
X199431636Y-47349413D01*
X199620632Y-47288005D01*
X199797694Y-47197787D01*
X199958464Y-47080981D01*
X200098981Y-46940464D01*
X200215787Y-46779694D01*
X200306005Y-46602632D01*
X200367413Y-46413636D01*
X200398500Y-46217361D01*
X200398500Y-45542639D01*
X200367413Y-45346364D01*
X200325805Y-45218306D01*
X200306006Y-45157370D01*
X200306005Y-45157367D01*
X200215786Y-44980305D01*
X200098981Y-44819536D01*
X199958464Y-44679019D01*
X199797694Y-44562213D01*
X199773735Y-44550005D01*
X199620632Y-44471994D01*
X199620629Y-44471993D01*
X199431637Y-44410587D01*
X199333498Y-44395043D01*
X199235361Y-44379500D01*
X199036639Y-44379500D01*
X198971214Y-44389862D01*
X198840362Y-44410587D01*
X198651370Y-44471993D01*
X198651367Y-44471994D01*
X198474305Y-44562213D01*
X198313533Y-44679021D01*
X198173021Y-44819533D01*
X198056213Y-44980305D01*
X197965994Y-45157367D01*
X197965993Y-45157370D01*
X197904587Y-45346362D01*
X197873500Y-45542639D01*
X197000500Y-45542639D01*
X197000500Y-40624500D01*
X197020185Y-40557461D01*
X197072989Y-40511706D01*
X197124500Y-40500500D01*
X219081902Y-40500500D01*
X219148941Y-40520185D01*
G37*
%TD.AperFunction*%
%TA.AperFunction,Conductor*%
G36*
X243942539Y-40520185D02*
G01*
X243988294Y-40572989D01*
X243999500Y-40624500D01*
X243999500Y-82375500D01*
X243979815Y-82442539D01*
X243927011Y-82488294D01*
X243875500Y-82499500D01*
X224830519Y-82499500D01*
X224763480Y-82479815D01*
X224717725Y-82427011D01*
X224707781Y-82357853D01*
X224736806Y-82294297D01*
X224742838Y-82287819D01*
X225009911Y-82020745D01*
X225168006Y-81862649D01*
X225229327Y-81829166D01*
X225287778Y-81830557D01*
X225304592Y-81835063D01*
X225492918Y-81851539D01*
X225539999Y-81855659D01*
X225540000Y-81855659D01*
X225540001Y-81855659D01*
X225579234Y-81852226D01*
X225775408Y-81835063D01*
X226003663Y-81773903D01*
X226217830Y-81674035D01*
X226411401Y-81538495D01*
X226578495Y-81371401D01*
X226708730Y-81185405D01*
X226763307Y-81141781D01*
X226832805Y-81134587D01*
X226895160Y-81166110D01*
X226911879Y-81185405D01*
X227041890Y-81371078D01*
X227208917Y-81538105D01*
X227402421Y-81673600D01*
X227616507Y-81773429D01*
X227616516Y-81773433D01*
X227830000Y-81830634D01*
X227830000Y-80933012D01*
X227887007Y-80965925D01*
X228014174Y-81000000D01*
X228145826Y-81000000D01*
X228272993Y-80965925D01*
X228330000Y-80933012D01*
X228330000Y-81830633D01*
X228543483Y-81773433D01*
X228543492Y-81773429D01*
X228757578Y-81673600D01*
X228951082Y-81538105D01*
X229118105Y-81371082D01*
X229253600Y-81177578D01*
X229353429Y-80963492D01*
X229353432Y-80963486D01*
X229410636Y-80750000D01*
X228513012Y-80750000D01*
X228545925Y-80692993D01*
X228580000Y-80565826D01*
X228580000Y-80434174D01*
X228545925Y-80307007D01*
X228513012Y-80250000D01*
X229410636Y-80250000D01*
X229410635Y-80249999D01*
X229353432Y-80036513D01*
X229353429Y-80036507D01*
X229253600Y-79822422D01*
X229253599Y-79822420D01*
X229118113Y-79628926D01*
X229118108Y-79628920D01*
X228996053Y-79506865D01*
X228962568Y-79445542D01*
X228967552Y-79375850D01*
X229009424Y-79319917D01*
X229040400Y-79303002D01*
X229172331Y-79253796D01*
X229287546Y-79167546D01*
X229373796Y-79052331D01*
X229424091Y-78917483D01*
X229430500Y-78857873D01*
X229430499Y-77671095D01*
X229450184Y-77604057D01*
X229502987Y-77558302D01*
X229572146Y-77548358D01*
X229635702Y-77577383D01*
X229642180Y-77583415D01*
X230401139Y-78342374D01*
X230401149Y-78342385D01*
X230405479Y-78346715D01*
X230405480Y-78346716D01*
X230517284Y-78458520D01*
X230517286Y-78458521D01*
X230517290Y-78458524D01*
X230587434Y-78499021D01*
X230654216Y-78537577D01*
X230766019Y-78567534D01*
X230806942Y-78578500D01*
X230806943Y-78578500D01*
X236260331Y-78578500D01*
X236260347Y-78578501D01*
X236267943Y-78578501D01*
X236426054Y-78578501D01*
X236426057Y-78578501D01*
X236578785Y-78537577D01*
X236645569Y-78499019D01*
X236715716Y-78458520D01*
X236827520Y-78346716D01*
X236827520Y-78346714D01*
X236837724Y-78336511D01*
X236837727Y-78336506D01*
X237663915Y-77510318D01*
X237725238Y-77476834D01*
X237751596Y-77474000D01*
X238707988Y-77474000D01*
X238675075Y-77531007D01*
X238641000Y-77658174D01*
X238641000Y-77789826D01*
X238675075Y-77916993D01*
X238707988Y-77974000D01*
X237810364Y-77974000D01*
X237867567Y-78187486D01*
X237867570Y-78187492D01*
X237967399Y-78401578D01*
X238102894Y-78595082D01*
X238269917Y-78762105D01*
X238463421Y-78897600D01*
X238677507Y-78997429D01*
X238677516Y-78997433D01*
X238891000Y-79054634D01*
X238891000Y-78157012D01*
X238948007Y-78189925D01*
X239075174Y-78224000D01*
X239206826Y-78224000D01*
X239333993Y-78189925D01*
X239391000Y-78157012D01*
X239391000Y-79054634D01*
X239604483Y-78997433D01*
X239604492Y-78997429D01*
X239818578Y-78897600D01*
X240012082Y-78762105D01*
X240179105Y-78595082D01*
X240309425Y-78408968D01*
X240364002Y-78365344D01*
X240433501Y-78358151D01*
X240495855Y-78389673D01*
X240512575Y-78408968D01*
X240642894Y-78595082D01*
X240809917Y-78762105D01*
X241003421Y-78897600D01*
X241217507Y-78997429D01*
X241217516Y-78997433D01*
X241431000Y-79054634D01*
X241431000Y-78157012D01*
X241488007Y-78189925D01*
X241615174Y-78224000D01*
X241746826Y-78224000D01*
X241873993Y-78189925D01*
X241931000Y-78157012D01*
X241931000Y-79054634D01*
X242144483Y-78997433D01*
X242144492Y-78997429D01*
X242358578Y-78897600D01*
X242552082Y-78762105D01*
X242719105Y-78595082D01*
X242854600Y-78401578D01*
X242954429Y-78187492D01*
X242954432Y-78187486D01*
X243011636Y-77974000D01*
X242114012Y-77974000D01*
X242146925Y-77916993D01*
X242181000Y-77789826D01*
X242181000Y-77658174D01*
X242146925Y-77531007D01*
X242114012Y-77474000D01*
X243011636Y-77474000D01*
X243011635Y-77473999D01*
X242954432Y-77260513D01*
X242954429Y-77260507D01*
X242854600Y-77046422D01*
X242854599Y-77046420D01*
X242719113Y-76852926D01*
X242719108Y-76852920D01*
X242552078Y-76685890D01*
X242366405Y-76555879D01*
X242322780Y-76501302D01*
X242315588Y-76431804D01*
X242347110Y-76369449D01*
X242366406Y-76352730D01*
X242552401Y-76222495D01*
X242719495Y-76055401D01*
X242855035Y-75861830D01*
X242954903Y-75647663D01*
X243016063Y-75419408D01*
X243036659Y-75184000D01*
X243016063Y-74948592D01*
X242954903Y-74720337D01*
X242855035Y-74506171D01*
X242848439Y-74496750D01*
X242719494Y-74312597D01*
X242552402Y-74145506D01*
X242552396Y-74145501D01*
X242366842Y-74015575D01*
X242323217Y-73960998D01*
X242316023Y-73891500D01*
X242347546Y-73829145D01*
X242366842Y-73812425D01*
X242432308Y-73766585D01*
X242552401Y-73682495D01*
X242719495Y-73515401D01*
X242855035Y-73321830D01*
X242954903Y-73107663D01*
X243016063Y-72879408D01*
X243036659Y-72644000D01*
X243016063Y-72408592D01*
X242954903Y-72180337D01*
X242855035Y-71966171D01*
X242782542Y-71862639D01*
X242719494Y-71772597D01*
X242552402Y-71605506D01*
X242552396Y-71605501D01*
X242366842Y-71475575D01*
X242323217Y-71420998D01*
X242316023Y-71351500D01*
X242347546Y-71289145D01*
X242366842Y-71272425D01*
X242414052Y-71239368D01*
X242552401Y-71142495D01*
X242719495Y-70975401D01*
X242855035Y-70781830D01*
X242954903Y-70567663D01*
X243016063Y-70339408D01*
X243036659Y-70104000D01*
X243016063Y-69868592D01*
X242954903Y-69640337D01*
X242855035Y-69426171D01*
X242832214Y-69393578D01*
X242719494Y-69232597D01*
X242552402Y-69065506D01*
X242552396Y-69065501D01*
X242366842Y-68935575D01*
X242323217Y-68880998D01*
X242316023Y-68811500D01*
X242347546Y-68749145D01*
X242366842Y-68732425D01*
X242389026Y-68716891D01*
X242552401Y-68602495D01*
X242719495Y-68435401D01*
X242855035Y-68241830D01*
X242954903Y-68027663D01*
X243016063Y-67799408D01*
X243036659Y-67564000D01*
X243016063Y-67328592D01*
X242954903Y-67100337D01*
X242855035Y-66886171D01*
X242847430Y-66875309D01*
X242719494Y-66692597D01*
X242552401Y-66525505D01*
X242552396Y-66525501D01*
X242366842Y-66395575D01*
X242323217Y-66340998D01*
X242316023Y-66271500D01*
X242347546Y-66209145D01*
X242366842Y-66192425D01*
X242454867Y-66130789D01*
X242552401Y-66062495D01*
X242719495Y-65895401D01*
X242855035Y-65701830D01*
X242954903Y-65487663D01*
X243016063Y-65259408D01*
X243036659Y-65024000D01*
X243016063Y-64788592D01*
X242954903Y-64560337D01*
X242855035Y-64346171D01*
X242848442Y-64336754D01*
X242719494Y-64152597D01*
X242552402Y-63985506D01*
X242552396Y-63985501D01*
X242366842Y-63855575D01*
X242323217Y-63800998D01*
X242316023Y-63731500D01*
X242347546Y-63669145D01*
X242366842Y-63652425D01*
X242389026Y-63636891D01*
X242552401Y-63522495D01*
X242719495Y-63355401D01*
X242855035Y-63161830D01*
X242954903Y-62947663D01*
X243016063Y-62719408D01*
X243036659Y-62484000D01*
X243016063Y-62248592D01*
X242954903Y-62020337D01*
X242855035Y-61806171D01*
X242845113Y-61792000D01*
X242719494Y-61612597D01*
X242552402Y-61445506D01*
X242552396Y-61445501D01*
X242366842Y-61315575D01*
X242323217Y-61260998D01*
X242316023Y-61191500D01*
X242347546Y-61129145D01*
X242366842Y-61112425D01*
X242482796Y-61031233D01*
X242552401Y-60982495D01*
X242719495Y-60815401D01*
X242855035Y-60621830D01*
X242954903Y-60407663D01*
X243016063Y-60179408D01*
X243036659Y-59944000D01*
X243016063Y-59708592D01*
X242954903Y-59480337D01*
X242855035Y-59266171D01*
X242817233Y-59212183D01*
X242719494Y-59072597D01*
X242552402Y-58905506D01*
X242552396Y-58905501D01*
X242366842Y-58775575D01*
X242323217Y-58720998D01*
X242316023Y-58651500D01*
X242347546Y-58589145D01*
X242366842Y-58572425D01*
X242409579Y-58542500D01*
X242552401Y-58442495D01*
X242719495Y-58275401D01*
X242855035Y-58081830D01*
X242954903Y-57867663D01*
X243016063Y-57639408D01*
X243036659Y-57404000D01*
X243016063Y-57168592D01*
X242957404Y-56949671D01*
X242954905Y-56940344D01*
X242954904Y-56940343D01*
X242954903Y-56940337D01*
X242855035Y-56726171D01*
X242839821Y-56704442D01*
X242719494Y-56532597D01*
X242552402Y-56365506D01*
X242552396Y-56365501D01*
X242366842Y-56235575D01*
X242323217Y-56180998D01*
X242316023Y-56111500D01*
X242347546Y-56049145D01*
X242366842Y-56032425D01*
X242389026Y-56016891D01*
X242552401Y-55902495D01*
X242719495Y-55735401D01*
X242855035Y-55541830D01*
X242954903Y-55327663D01*
X243016063Y-55099408D01*
X243036659Y-54864000D01*
X243016063Y-54628592D01*
X242961011Y-54423132D01*
X242954905Y-54400344D01*
X242954904Y-54400343D01*
X242954903Y-54400337D01*
X242855035Y-54186171D01*
X242851483Y-54181097D01*
X242719494Y-53992597D01*
X242552402Y-53825506D01*
X242552396Y-53825501D01*
X242366842Y-53695575D01*
X242323217Y-53640998D01*
X242316023Y-53571500D01*
X242347546Y-53509145D01*
X242366842Y-53492425D01*
X242452389Y-53432524D01*
X242552401Y-53362495D01*
X242719495Y-53195401D01*
X242855035Y-53001830D01*
X242954903Y-52787663D01*
X243016063Y-52559408D01*
X243036659Y-52324000D01*
X243016063Y-52088592D01*
X242954903Y-51860337D01*
X242855035Y-51646171D01*
X242740724Y-51482916D01*
X242719494Y-51452597D01*
X242552402Y-51285506D01*
X242552396Y-51285501D01*
X242366842Y-51155575D01*
X242323217Y-51100998D01*
X242316023Y-51031500D01*
X242347546Y-50969145D01*
X242366842Y-50952425D01*
X242390469Y-50935881D01*
X242552401Y-50822495D01*
X242719495Y-50655401D01*
X242855035Y-50461830D01*
X242954903Y-50247663D01*
X243016063Y-50019408D01*
X243036659Y-49784000D01*
X243016063Y-49548592D01*
X242954903Y-49320337D01*
X242855035Y-49106171D01*
X242820008Y-49056146D01*
X242719494Y-48912597D01*
X242552402Y-48745506D01*
X242552396Y-48745501D01*
X242366842Y-48615575D01*
X242323217Y-48560998D01*
X242316023Y-48491500D01*
X242347546Y-48429145D01*
X242366842Y-48412425D01*
X242501696Y-48317999D01*
X242552401Y-48282495D01*
X242719495Y-48115401D01*
X242855035Y-47921830D01*
X242954903Y-47707663D01*
X243016063Y-47479408D01*
X243036659Y-47244000D01*
X243035775Y-47233901D01*
X243030897Y-47178140D01*
X243016063Y-47008592D01*
X242954903Y-46780337D01*
X242855035Y-46566171D01*
X242849425Y-46558158D01*
X242719494Y-46372597D01*
X242552402Y-46205506D01*
X242552396Y-46205501D01*
X242366842Y-46075575D01*
X242323217Y-46020998D01*
X242316023Y-45951500D01*
X242347546Y-45889145D01*
X242366842Y-45872425D01*
X242389026Y-45856891D01*
X242552401Y-45742495D01*
X242719495Y-45575401D01*
X242855035Y-45381830D01*
X242954903Y-45167663D01*
X243016063Y-44939408D01*
X243036659Y-44704000D01*
X243016063Y-44468592D01*
X242954903Y-44240337D01*
X242855035Y-44026171D01*
X242836840Y-44000185D01*
X242719494Y-43832597D01*
X242552402Y-43665506D01*
X242552395Y-43665501D01*
X242358834Y-43529967D01*
X242358830Y-43529965D01*
X242334522Y-43518630D01*
X242144663Y-43430097D01*
X242144659Y-43430096D01*
X242144655Y-43430094D01*
X241916413Y-43368938D01*
X241916403Y-43368936D01*
X241681001Y-43348341D01*
X241680999Y-43348341D01*
X241445596Y-43368936D01*
X241445586Y-43368938D01*
X241217344Y-43430094D01*
X241217335Y-43430098D01*
X241003171Y-43529964D01*
X241003169Y-43529965D01*
X240809600Y-43665503D01*
X240687673Y-43787430D01*
X240626350Y-43820914D01*
X240556658Y-43815930D01*
X240500725Y-43774058D01*
X240483810Y-43743081D01*
X240434797Y-43611671D01*
X240434793Y-43611664D01*
X240348547Y-43496455D01*
X240348544Y-43496452D01*
X240233335Y-43410206D01*
X240233328Y-43410202D01*
X240098482Y-43359908D01*
X240098483Y-43359908D01*
X240038883Y-43353501D01*
X240038881Y-43353500D01*
X240038873Y-43353500D01*
X240038864Y-43353500D01*
X238243129Y-43353500D01*
X238243123Y-43353501D01*
X238183516Y-43359908D01*
X238048671Y-43410202D01*
X238048664Y-43410206D01*
X237933455Y-43496452D01*
X237933452Y-43496455D01*
X237847206Y-43611664D01*
X237847202Y-43611671D01*
X237796908Y-43746517D01*
X237790501Y-43806116D01*
X237790500Y-43806135D01*
X237790500Y-43879500D01*
X237770815Y-43946539D01*
X237718011Y-43992294D01*
X237666500Y-44003500D01*
X237172253Y-44003500D01*
X237105214Y-43983815D01*
X237059459Y-43931011D01*
X237054547Y-43918504D01*
X237046814Y-43895166D01*
X236954712Y-43745844D01*
X236830656Y-43621788D01*
X236681790Y-43529967D01*
X236681336Y-43529687D01*
X236681331Y-43529685D01*
X236647969Y-43518630D01*
X236514797Y-43474501D01*
X236514795Y-43474500D01*
X236412010Y-43464000D01*
X235011998Y-43464000D01*
X235011981Y-43464001D01*
X234909203Y-43474500D01*
X234909200Y-43474501D01*
X234742668Y-43529685D01*
X234742659Y-43529689D01*
X234669596Y-43574755D01*
X234602203Y-43593195D01*
X234535540Y-43572272D01*
X234490771Y-43518630D01*
X234480500Y-43469216D01*
X234480500Y-42797313D01*
X234480499Y-42797298D01*
X234479098Y-42779500D01*
X234477598Y-42760431D01*
X234466471Y-42722133D01*
X234431745Y-42602606D01*
X234431744Y-42602603D01*
X234431744Y-42602602D01*
X234348081Y-42461135D01*
X234348079Y-42461133D01*
X234348076Y-42461129D01*
X234231870Y-42344923D01*
X234231862Y-42344917D01*
X234095259Y-42264131D01*
X234090398Y-42261256D01*
X234090397Y-42261255D01*
X234090396Y-42261255D01*
X234090393Y-42261254D01*
X233932573Y-42215402D01*
X233932567Y-42215401D01*
X233895701Y-42212500D01*
X233895694Y-42212500D01*
X233464306Y-42212500D01*
X233464298Y-42212500D01*
X233427432Y-42215401D01*
X233427426Y-42215402D01*
X233269606Y-42261254D01*
X233269599Y-42261257D01*
X233197620Y-42303825D01*
X233129896Y-42321008D01*
X233063634Y-42298848D01*
X233019871Y-42244381D01*
X233010500Y-42197093D01*
X233010500Y-41745060D01*
X233010501Y-41745047D01*
X233010501Y-41576944D01*
X233010501Y-41576943D01*
X232969577Y-41424216D01*
X232911108Y-41322943D01*
X232890524Y-41287290D01*
X232890518Y-41287282D01*
X232636518Y-41033282D01*
X232315415Y-40712180D01*
X232281931Y-40650858D01*
X232286915Y-40581167D01*
X232328786Y-40525233D01*
X232394251Y-40500816D01*
X232403097Y-40500500D01*
X243875500Y-40500500D01*
X243942539Y-40520185D01*
G37*
%TD.AperFunction*%
%TA.AperFunction,Conductor*%
G36*
X219274855Y-78626546D02*
G01*
X219291575Y-78645842D01*
X219421501Y-78831396D01*
X219421506Y-78831402D01*
X219588597Y-78998493D01*
X219588603Y-78998498D01*
X219774158Y-79128425D01*
X219817783Y-79183002D01*
X219824977Y-79252500D01*
X219793454Y-79314855D01*
X219774158Y-79331575D01*
X219588597Y-79461505D01*
X219421508Y-79628594D01*
X219291269Y-79814595D01*
X219236692Y-79858219D01*
X219167193Y-79865412D01*
X219104839Y-79833890D01*
X219088119Y-79814594D01*
X218958113Y-79628926D01*
X218958108Y-79628920D01*
X218791078Y-79461890D01*
X218605405Y-79331879D01*
X218561780Y-79277302D01*
X218554588Y-79207804D01*
X218586110Y-79145449D01*
X218605406Y-79128730D01*
X218711226Y-79054634D01*
X218791401Y-78998495D01*
X218958495Y-78831401D01*
X219088425Y-78645842D01*
X219143002Y-78602217D01*
X219212500Y-78595023D01*
X219274855Y-78626546D01*
G37*
%TD.AperFunction*%
%TA.AperFunction,Conductor*%
G36*
X226664340Y-78848068D02*
G01*
X226720274Y-78889939D01*
X226737189Y-78920917D01*
X226786202Y-79052328D01*
X226786206Y-79052335D01*
X226872452Y-79167544D01*
X226872455Y-79167547D01*
X226987664Y-79253793D01*
X226987671Y-79253797D01*
X226987674Y-79253798D01*
X227119598Y-79303002D01*
X227175531Y-79344873D01*
X227199949Y-79410337D01*
X227185098Y-79478610D01*
X227163947Y-79506865D01*
X227041888Y-79628924D01*
X226911880Y-79814595D01*
X226857303Y-79858219D01*
X226787804Y-79865412D01*
X226725450Y-79833890D01*
X226708730Y-79814594D01*
X226578494Y-79628597D01*
X226411402Y-79461506D01*
X226411396Y-79461501D01*
X226225842Y-79331575D01*
X226182217Y-79276998D01*
X226175023Y-79207500D01*
X226206546Y-79145145D01*
X226225842Y-79128425D01*
X226331226Y-79054634D01*
X226411401Y-78998495D01*
X226533329Y-78876566D01*
X226594648Y-78843084D01*
X226664340Y-78848068D01*
G37*
%TD.AperFunction*%
%TA.AperFunction,Conductor*%
G36*
X221814855Y-78626546D02*
G01*
X221831575Y-78645842D01*
X221961501Y-78831396D01*
X221961506Y-78831402D01*
X222128597Y-78998493D01*
X222128603Y-78998498D01*
X222314158Y-79128425D01*
X222357783Y-79183002D01*
X222364977Y-79252500D01*
X222333454Y-79314855D01*
X222314158Y-79331575D01*
X222128597Y-79461505D01*
X221961505Y-79628597D01*
X221831575Y-79814158D01*
X221776998Y-79857783D01*
X221707500Y-79864977D01*
X221645145Y-79833454D01*
X221628425Y-79814158D01*
X221498494Y-79628597D01*
X221331402Y-79461506D01*
X221331396Y-79461501D01*
X221145842Y-79331575D01*
X221102217Y-79276998D01*
X221095023Y-79207500D01*
X221126546Y-79145145D01*
X221145842Y-79128425D01*
X221251226Y-79054634D01*
X221331401Y-78998495D01*
X221498495Y-78831401D01*
X221628425Y-78645842D01*
X221683002Y-78602217D01*
X221752500Y-78595023D01*
X221814855Y-78626546D01*
G37*
%TD.AperFunction*%
%TA.AperFunction,Conductor*%
G36*
X224354855Y-78626546D02*
G01*
X224371575Y-78645842D01*
X224501501Y-78831396D01*
X224501506Y-78831402D01*
X224668597Y-78998493D01*
X224668603Y-78998498D01*
X224854158Y-79128425D01*
X224897783Y-79183002D01*
X224904977Y-79252500D01*
X224873454Y-79314855D01*
X224854158Y-79331575D01*
X224668597Y-79461505D01*
X224501505Y-79628597D01*
X224371575Y-79814158D01*
X224316998Y-79857783D01*
X224247500Y-79864977D01*
X224185145Y-79833454D01*
X224168425Y-79814158D01*
X224038494Y-79628597D01*
X223871402Y-79461506D01*
X223871396Y-79461501D01*
X223685842Y-79331575D01*
X223642217Y-79276998D01*
X223635023Y-79207500D01*
X223666546Y-79145145D01*
X223685842Y-79128425D01*
X223791226Y-79054634D01*
X223871401Y-78998495D01*
X224038495Y-78831401D01*
X224168425Y-78645842D01*
X224223002Y-78602217D01*
X224292500Y-78595023D01*
X224354855Y-78626546D01*
G37*
%TD.AperFunction*%
%TA.AperFunction,Conductor*%
G36*
X241215075Y-77531007D02*
G01*
X241181000Y-77658174D01*
X241181000Y-77789826D01*
X241215075Y-77916993D01*
X241247988Y-77974000D01*
X239574012Y-77974000D01*
X239606925Y-77916993D01*
X239641000Y-77789826D01*
X239641000Y-77658174D01*
X239606925Y-77531007D01*
X239574012Y-77474000D01*
X241247988Y-77474000D01*
X241215075Y-77531007D01*
G37*
%TD.AperFunction*%
%TA.AperFunction,Conductor*%
G36*
X223594681Y-70345089D02*
G01*
X223606261Y-70358452D01*
X223674454Y-70449546D01*
X223696321Y-70465916D01*
X223707309Y-70474141D01*
X223749181Y-70530074D01*
X223757000Y-70573409D01*
X223757000Y-70592000D01*
X223829828Y-70592000D01*
X223829839Y-70591999D01*
X223891395Y-70585380D01*
X223917909Y-70585380D01*
X223924514Y-70586090D01*
X223924517Y-70586091D01*
X223984127Y-70592500D01*
X224382500Y-70592499D01*
X224449539Y-70612183D01*
X224495294Y-70664987D01*
X224506500Y-70716499D01*
X224506500Y-73509330D01*
X224506499Y-73509348D01*
X224506499Y-73675054D01*
X224506498Y-73675054D01*
X224547423Y-73827786D01*
X224547424Y-73827787D01*
X224568017Y-73863455D01*
X224624333Y-73960998D01*
X224626481Y-73964717D01*
X224745349Y-74083585D01*
X224745355Y-74083590D01*
X225448139Y-74786374D01*
X225448149Y-74786385D01*
X225452479Y-74790715D01*
X225452480Y-74790716D01*
X225564284Y-74902520D01*
X225564286Y-74902521D01*
X225564290Y-74902524D01*
X225698760Y-74980159D01*
X225701216Y-74981577D01*
X225813019Y-75011534D01*
X225853942Y-75022500D01*
X225853943Y-75022500D01*
X227029903Y-75022500D01*
X227096942Y-75042185D01*
X227117584Y-75058819D01*
X228456584Y-76397819D01*
X228490069Y-76459142D01*
X228485085Y-76528834D01*
X228443213Y-76584767D01*
X228377749Y-76609184D01*
X228368903Y-76609500D01*
X227182129Y-76609500D01*
X227182123Y-76609501D01*
X227122516Y-76615908D01*
X226987671Y-76666202D01*
X226987664Y-76666206D01*
X226872455Y-76752452D01*
X226872452Y-76752455D01*
X226786206Y-76867664D01*
X226786203Y-76867669D01*
X226737189Y-76999083D01*
X226695317Y-77055016D01*
X226629853Y-77079433D01*
X226561580Y-77064581D01*
X226533326Y-77043430D01*
X226411402Y-76921506D01*
X226411395Y-76921501D01*
X226217834Y-76785967D01*
X226217830Y-76785965D01*
X226217828Y-76785964D01*
X226003663Y-76686097D01*
X226003659Y-76686096D01*
X226003655Y-76686094D01*
X225775413Y-76624938D01*
X225775403Y-76624936D01*
X225540001Y-76604341D01*
X225539999Y-76604341D01*
X225304596Y-76624936D01*
X225304586Y-76624938D01*
X225076344Y-76686094D01*
X225076335Y-76686098D01*
X224862171Y-76785964D01*
X224862169Y-76785965D01*
X224668597Y-76921505D01*
X224501505Y-77088597D01*
X224371575Y-77274158D01*
X224316998Y-77317783D01*
X224247500Y-77324977D01*
X224185145Y-77293454D01*
X224168425Y-77274158D01*
X224038494Y-77088597D01*
X223871402Y-76921506D01*
X223871395Y-76921501D01*
X223677834Y-76785967D01*
X223677830Y-76785965D01*
X223677828Y-76785964D01*
X223463663Y-76686097D01*
X223463659Y-76686096D01*
X223463655Y-76686094D01*
X223235413Y-76624938D01*
X223235403Y-76624936D01*
X223000001Y-76604341D01*
X222999999Y-76604341D01*
X222764596Y-76624936D01*
X222764583Y-76624939D01*
X222636241Y-76659327D01*
X222566392Y-76657664D01*
X222516468Y-76627233D01*
X221473590Y-75584355D01*
X221473588Y-75584352D01*
X221354717Y-75465481D01*
X221354716Y-75465480D01*
X221244400Y-75401789D01*
X221244398Y-75401788D01*
X221217785Y-75386423D01*
X221217784Y-75386422D01*
X221217783Y-75386422D01*
X221161881Y-75371443D01*
X221065057Y-75345499D01*
X220906943Y-75345499D01*
X220899347Y-75345499D01*
X220899331Y-75345500D01*
X217665095Y-75345500D01*
X217598056Y-75325815D01*
X217552301Y-75273011D01*
X217542357Y-75203853D01*
X217560101Y-75155528D01*
X217623153Y-75055181D01*
X217641789Y-75025522D01*
X217701368Y-74855255D01*
X217702978Y-74840967D01*
X217721565Y-74676003D01*
X217721565Y-74675996D01*
X217701369Y-74496750D01*
X217701368Y-74496745D01*
X217641788Y-74326476D01*
X217560101Y-74196472D01*
X217541101Y-74129235D01*
X217561469Y-74062400D01*
X217614737Y-74017186D01*
X217665095Y-74006500D01*
X218520901Y-74006500D01*
X218587940Y-74026185D01*
X218608582Y-74042818D01*
X218706284Y-74140520D01*
X218763820Y-74173738D01*
X218843215Y-74219577D01*
X218995942Y-74260500D01*
X218995943Y-74260500D01*
X221782331Y-74260500D01*
X221782347Y-74260501D01*
X221789943Y-74260501D01*
X221948054Y-74260501D01*
X221948057Y-74260501D01*
X222100785Y-74219577D01*
X222180180Y-74173738D01*
X222237716Y-74140520D01*
X222349520Y-74028716D01*
X222349520Y-74028714D01*
X222359724Y-74018511D01*
X222359728Y-74018506D01*
X223065506Y-73312728D01*
X223065511Y-73312724D01*
X223075714Y-73302520D01*
X223075716Y-73302520D01*
X223187520Y-73190716D01*
X223221416Y-73132006D01*
X223239650Y-73100424D01*
X223248625Y-73084877D01*
X223266577Y-73053785D01*
X223307501Y-72901057D01*
X223307501Y-72742943D01*
X223307501Y-72735348D01*
X223307500Y-72735330D01*
X223307500Y-70532955D01*
X223327185Y-70465916D01*
X223334495Y-70456844D01*
X223334231Y-70456646D01*
X223368960Y-70410254D01*
X223407734Y-70358457D01*
X223463667Y-70316588D01*
X223533358Y-70311604D01*
X223594681Y-70345089D01*
G37*
%TD.AperFunction*%
%TA.AperFunction,Conductor*%
G36*
X227899539Y-59212184D02*
G01*
X227945294Y-59264988D01*
X227956500Y-59316499D01*
X227956500Y-59964870D01*
X227956501Y-59964879D01*
X227963367Y-60028751D01*
X227963367Y-60055257D01*
X227962909Y-60059516D01*
X227962909Y-60059517D01*
X227956500Y-60119127D01*
X227956500Y-60119132D01*
X227956500Y-60119133D01*
X227956500Y-60764870D01*
X227956501Y-60764879D01*
X227963367Y-60828751D01*
X227963367Y-60855257D01*
X227962909Y-60859516D01*
X227962909Y-60859517D01*
X227956500Y-60919127D01*
X227956500Y-60919129D01*
X227956500Y-60919133D01*
X227956500Y-61564870D01*
X227956501Y-61564879D01*
X227963367Y-61628751D01*
X227963367Y-61655257D01*
X227962909Y-61659516D01*
X227962909Y-61659517D01*
X227956500Y-61719127D01*
X227956500Y-61719132D01*
X227956500Y-61719133D01*
X227956500Y-62364870D01*
X227956501Y-62364879D01*
X227963367Y-62428751D01*
X227963367Y-62455257D01*
X227962909Y-62459516D01*
X227962909Y-62459517D01*
X227956500Y-62519127D01*
X227956500Y-62519129D01*
X227956500Y-62519133D01*
X227956500Y-63164870D01*
X227956501Y-63164879D01*
X227963367Y-63228751D01*
X227963367Y-63255257D01*
X227962909Y-63259516D01*
X227962909Y-63259517D01*
X227956500Y-63319127D01*
X227956500Y-63319129D01*
X227956500Y-63319133D01*
X227956500Y-63964870D01*
X227956501Y-63964879D01*
X227963367Y-64028751D01*
X227963367Y-64055257D01*
X227962909Y-64059516D01*
X227962909Y-64059517D01*
X227956500Y-64119127D01*
X227956500Y-64273192D01*
X227956501Y-64417500D01*
X227936817Y-64484539D01*
X227884013Y-64530294D01*
X227832501Y-64541500D01*
X227424119Y-64541500D01*
X227357080Y-64521815D01*
X227311325Y-64469011D01*
X227307077Y-64458454D01*
X227293788Y-64420476D01*
X227247099Y-64346171D01*
X227197816Y-64267738D01*
X227070262Y-64140184D01*
X226917523Y-64044211D01*
X226747254Y-63984631D01*
X226747249Y-63984630D01*
X226568004Y-63964435D01*
X226567996Y-63964435D01*
X226388750Y-63984630D01*
X226388745Y-63984631D01*
X226218476Y-64044211D01*
X226065737Y-64140184D01*
X225938184Y-64267737D01*
X225842211Y-64420476D01*
X225782631Y-64590745D01*
X225782630Y-64590750D01*
X225762435Y-64769996D01*
X225762435Y-64770003D01*
X225782630Y-64949249D01*
X225782631Y-64949254D01*
X225842211Y-65119523D01*
X225921410Y-65245567D01*
X225938184Y-65272262D01*
X226065738Y-65399816D01*
X226156080Y-65456582D01*
X226205545Y-65487663D01*
X226218478Y-65495789D01*
X226321984Y-65532007D01*
X226368710Y-65561367D01*
X226593453Y-65786111D01*
X226593454Y-65786112D01*
X226593457Y-65786114D01*
X226708189Y-65862775D01*
X226708196Y-65862777D01*
X226713216Y-65865461D01*
X226763062Y-65914422D01*
X226778525Y-65982559D01*
X226754696Y-66048240D01*
X226720740Y-66079815D01*
X226573739Y-66172182D01*
X226446184Y-66299737D01*
X226350211Y-66452476D01*
X226290631Y-66622745D01*
X226290630Y-66622750D01*
X226270435Y-66801996D01*
X226270435Y-66802003D01*
X226290630Y-66981249D01*
X226290631Y-66981254D01*
X226350211Y-67151523D01*
X226418069Y-67259517D01*
X226446184Y-67304262D01*
X226573738Y-67431816D01*
X226597313Y-67446629D01*
X226707806Y-67516057D01*
X226726478Y-67527789D01*
X226829963Y-67564000D01*
X226896745Y-67587368D01*
X226896750Y-67587369D01*
X227075996Y-67607565D01*
X227076000Y-67607565D01*
X227076004Y-67607565D01*
X227255249Y-67587369D01*
X227255252Y-67587368D01*
X227255255Y-67587368D01*
X227425522Y-67527789D01*
X227578262Y-67431816D01*
X227578262Y-67431815D01*
X227584158Y-67428111D01*
X227585485Y-67430224D01*
X227639441Y-67408177D01*
X227684195Y-67411753D01*
X227798943Y-67442501D01*
X227832500Y-67442501D01*
X227899539Y-67462186D01*
X227945294Y-67514990D01*
X227956500Y-67566501D01*
X227956500Y-67967500D01*
X227936815Y-68034539D01*
X227884011Y-68080294D01*
X227832500Y-68091500D01*
X227184129Y-68091500D01*
X227184120Y-68091501D01*
X227120248Y-68098367D01*
X227093742Y-68098367D01*
X227089483Y-68097909D01*
X227029873Y-68091500D01*
X227029864Y-68091500D01*
X226384129Y-68091500D01*
X226384120Y-68091501D01*
X226320248Y-68098367D01*
X226293742Y-68098367D01*
X226289483Y-68097909D01*
X226229873Y-68091500D01*
X226229864Y-68091500D01*
X225584129Y-68091500D01*
X225584120Y-68091501D01*
X225520248Y-68098367D01*
X225493742Y-68098367D01*
X225489483Y-68097909D01*
X225429873Y-68091500D01*
X225429867Y-68091500D01*
X225031500Y-68091500D01*
X224964461Y-68071815D01*
X224918706Y-68019011D01*
X224907500Y-67967500D01*
X224907500Y-67211448D01*
X224927185Y-67144409D01*
X224979989Y-67098654D01*
X225017618Y-67088228D01*
X225096252Y-67079369D01*
X225096255Y-67079368D01*
X225266522Y-67019789D01*
X225419262Y-66923816D01*
X225546816Y-66796262D01*
X225642789Y-66643522D01*
X225702368Y-66473255D01*
X225704709Y-66452478D01*
X225722565Y-66294003D01*
X225722565Y-66293996D01*
X225702369Y-66114750D01*
X225702368Y-66114745D01*
X225679097Y-66048240D01*
X225642789Y-65944478D01*
X225611952Y-65895402D01*
X225593139Y-65865461D01*
X225546816Y-65791738D01*
X225419262Y-65664184D01*
X225405052Y-65655255D01*
X225266523Y-65568211D01*
X225096254Y-65508631D01*
X225096249Y-65508630D01*
X224917004Y-65488435D01*
X224916996Y-65488435D01*
X224737750Y-65508630D01*
X224737745Y-65508631D01*
X224567476Y-65568211D01*
X224414737Y-65664184D01*
X224287184Y-65791737D01*
X224191210Y-65944478D01*
X224131630Y-66114750D01*
X224121837Y-66201668D01*
X224094770Y-66266082D01*
X224086299Y-66275465D01*
X223938286Y-66423478D01*
X223826481Y-66535282D01*
X223826479Y-66535285D01*
X223776361Y-66622094D01*
X223776359Y-66622096D01*
X223747425Y-66672209D01*
X223747424Y-66672210D01*
X223741961Y-66692599D01*
X223706499Y-66824943D01*
X223706499Y-66824945D01*
X223706499Y-66993046D01*
X223706500Y-66993059D01*
X223706500Y-68151045D01*
X223686815Y-68218084D01*
X223679504Y-68227157D01*
X223679768Y-68227355D01*
X223606266Y-68325540D01*
X223550332Y-68367411D01*
X223480641Y-68372395D01*
X223419318Y-68338909D01*
X223407734Y-68325540D01*
X223339548Y-68234456D01*
X223339546Y-68234455D01*
X223339546Y-68234454D01*
X223306686Y-68209855D01*
X223264817Y-68153921D01*
X223257000Y-68110590D01*
X223257000Y-68092000D01*
X223184166Y-68092000D01*
X223122595Y-68098619D01*
X223096088Y-68098619D01*
X223084279Y-68097349D01*
X223029873Y-68091500D01*
X223029867Y-68091500D01*
X222731500Y-68091500D01*
X222664461Y-68071815D01*
X222618706Y-68019011D01*
X222607500Y-67967500D01*
X222607500Y-64946517D01*
X222627185Y-64879478D01*
X222643814Y-64858841D01*
X226767288Y-60735366D01*
X226814012Y-60706008D01*
X226917522Y-60669789D01*
X227070262Y-60573816D01*
X227197816Y-60446262D01*
X227293789Y-60293522D01*
X227353368Y-60123255D01*
X227353369Y-60123248D01*
X227358873Y-60074397D01*
X227367531Y-60040828D01*
X227380580Y-60009328D01*
X227389423Y-59964872D01*
X227407500Y-59873996D01*
X227407500Y-59316499D01*
X227427185Y-59249460D01*
X227479989Y-59203705D01*
X227531500Y-59192499D01*
X227832500Y-59192499D01*
X227899539Y-59212184D01*
G37*
%TD.AperFunction*%
%TA.AperFunction,Conductor*%
G36*
X221524514Y-59186089D02*
G01*
X221524517Y-59186091D01*
X221584127Y-59192500D01*
X222229872Y-59192499D01*
X222289483Y-59186091D01*
X222289486Y-59186089D01*
X222293744Y-59185632D01*
X222320254Y-59185632D01*
X222324514Y-59186089D01*
X222324517Y-59186091D01*
X222384127Y-59192500D01*
X223029872Y-59192499D01*
X223089483Y-59186091D01*
X223089486Y-59186089D01*
X223093744Y-59185632D01*
X223120254Y-59185632D01*
X223124514Y-59186089D01*
X223124517Y-59186091D01*
X223184127Y-59192500D01*
X223829872Y-59192499D01*
X223889483Y-59186091D01*
X223889486Y-59186089D01*
X223893744Y-59185632D01*
X223920254Y-59185632D01*
X223924514Y-59186089D01*
X223924517Y-59186091D01*
X223984127Y-59192500D01*
X224629872Y-59192499D01*
X224689483Y-59186091D01*
X224689486Y-59186089D01*
X224693744Y-59185632D01*
X224720254Y-59185632D01*
X224724514Y-59186089D01*
X224724517Y-59186091D01*
X224784127Y-59192500D01*
X225429872Y-59192499D01*
X225489483Y-59186091D01*
X225489486Y-59186089D01*
X225493744Y-59185632D01*
X225520254Y-59185632D01*
X225524514Y-59186089D01*
X225524517Y-59186091D01*
X225584127Y-59192500D01*
X225882500Y-59192499D01*
X225949539Y-59212183D01*
X225995294Y-59264987D01*
X226006500Y-59316499D01*
X226006500Y-59322060D01*
X225986815Y-59389099D01*
X225970181Y-59409741D01*
X225938184Y-59441737D01*
X225842212Y-59594475D01*
X225842211Y-59594476D01*
X225805991Y-59697986D01*
X225776631Y-59744711D01*
X221362888Y-64158453D01*
X221362887Y-64158454D01*
X221286222Y-64273192D01*
X221233421Y-64400667D01*
X221233418Y-64400679D01*
X221209265Y-64522102D01*
X221209266Y-64522103D01*
X221206500Y-64536009D01*
X221206500Y-67967500D01*
X221186815Y-68034539D01*
X221134011Y-68080294D01*
X221082500Y-68091500D01*
X220877505Y-68091500D01*
X220810466Y-68071815D01*
X220764711Y-68019011D01*
X220754285Y-67953616D01*
X220769565Y-67818002D01*
X220769565Y-67817996D01*
X220749369Y-67638750D01*
X220749368Y-67638745D01*
X220724089Y-67566501D01*
X220689789Y-67468478D01*
X220685835Y-67462186D01*
X220620335Y-67357943D01*
X220593816Y-67315738D01*
X220466262Y-67188184D01*
X220429163Y-67164873D01*
X220313523Y-67092211D01*
X220143254Y-67032631D01*
X220143249Y-67032630D01*
X219964004Y-67012435D01*
X219963996Y-67012435D01*
X219784746Y-67032631D01*
X219784745Y-67032631D01*
X219732037Y-67051074D01*
X219662258Y-67054635D01*
X219658991Y-67053807D01*
X219640302Y-67048799D01*
X219613057Y-67041499D01*
X219454943Y-67041499D01*
X219447347Y-67041499D01*
X219447331Y-67041500D01*
X219181500Y-67041500D01*
X219114461Y-67021815D01*
X219068706Y-66969011D01*
X219057500Y-66917500D01*
X219057499Y-66519129D01*
X219057499Y-66519128D01*
X219051091Y-66459517D01*
X219051089Y-66459513D01*
X219050632Y-66455255D01*
X219050632Y-66428745D01*
X219051089Y-66424486D01*
X219051091Y-66424483D01*
X219057500Y-66364873D01*
X219057499Y-65719128D01*
X219051091Y-65659517D01*
X219051089Y-65659513D01*
X219050632Y-65655255D01*
X219050632Y-65628745D01*
X219051089Y-65624486D01*
X219051091Y-65624483D01*
X219057500Y-65564873D01*
X219057499Y-64919128D01*
X219051091Y-64859517D01*
X219051089Y-64859513D01*
X219050632Y-64855255D01*
X219050632Y-64828745D01*
X219051089Y-64824486D01*
X219051091Y-64824483D01*
X219057500Y-64764873D01*
X219057499Y-64119128D01*
X219051091Y-64059517D01*
X219051089Y-64059513D01*
X219050632Y-64055255D01*
X219050632Y-64028745D01*
X219051089Y-64024486D01*
X219051091Y-64024483D01*
X219057500Y-63964873D01*
X219057499Y-63319128D01*
X219051091Y-63259517D01*
X219051089Y-63259513D01*
X219050632Y-63255255D01*
X219050632Y-63228745D01*
X219051089Y-63224486D01*
X219051091Y-63224483D01*
X219057500Y-63164873D01*
X219057499Y-62519128D01*
X219051091Y-62459517D01*
X219051090Y-62459516D01*
X219050380Y-62452904D01*
X219050381Y-62426393D01*
X219056999Y-62364842D01*
X219057000Y-62364827D01*
X219057000Y-62292000D01*
X219038409Y-62292000D01*
X218971370Y-62272315D01*
X218939144Y-62242313D01*
X218914546Y-62209454D01*
X218823457Y-62141265D01*
X218781588Y-62085333D01*
X218776604Y-62015641D01*
X218810089Y-61954318D01*
X218823452Y-61942738D01*
X218914546Y-61874546D01*
X218939143Y-61841687D01*
X218995076Y-61799818D01*
X219038409Y-61792000D01*
X219057000Y-61792000D01*
X219057000Y-61719172D01*
X219056999Y-61719160D01*
X219050380Y-61657604D01*
X219050380Y-61631090D01*
X219051090Y-61624485D01*
X219051091Y-61624483D01*
X219057500Y-61564873D01*
X219057499Y-60919128D01*
X219051091Y-60859517D01*
X219051089Y-60859513D01*
X219050632Y-60855255D01*
X219050632Y-60828745D01*
X219051089Y-60824486D01*
X219051091Y-60824483D01*
X219057500Y-60764873D01*
X219057499Y-60366499D01*
X219077183Y-60299461D01*
X219129987Y-60253706D01*
X219181499Y-60242500D01*
X220322635Y-60242500D01*
X220389674Y-60262185D01*
X220435429Y-60314989D01*
X220445855Y-60352616D01*
X220448630Y-60377249D01*
X220508210Y-60547521D01*
X220604184Y-60700262D01*
X220731738Y-60827816D01*
X220754312Y-60842000D01*
X220877061Y-60919129D01*
X220884478Y-60923789D01*
X220944573Y-60944817D01*
X221054745Y-60983368D01*
X221054750Y-60983369D01*
X221233996Y-61003565D01*
X221234000Y-61003565D01*
X221234004Y-61003565D01*
X221413249Y-60983369D01*
X221413252Y-60983368D01*
X221413255Y-60983368D01*
X221583522Y-60923789D01*
X221736262Y-60827816D01*
X221863816Y-60700262D01*
X221959789Y-60547522D01*
X222019368Y-60377255D01*
X222026384Y-60314989D01*
X222039565Y-60198003D01*
X222039565Y-60197996D01*
X222019369Y-60018750D01*
X222019368Y-60018745D01*
X221995221Y-59949737D01*
X221959789Y-59848478D01*
X221943267Y-59822184D01*
X221920582Y-59786080D01*
X221863816Y-59695738D01*
X221736262Y-59568184D01*
X221596466Y-59480344D01*
X221583521Y-59472210D01*
X221496432Y-59441737D01*
X221454806Y-59427171D01*
X221398031Y-59386450D01*
X221372283Y-59321498D01*
X221385739Y-59252936D01*
X221434126Y-59202533D01*
X221482504Y-59186841D01*
X221489483Y-59186091D01*
X221489485Y-59186089D01*
X221493746Y-59185632D01*
X221520254Y-59185632D01*
X221524514Y-59186089D01*
G37*
%TD.AperFunction*%
%TA.AperFunction,Conductor*%
G36*
X228150541Y-65962185D02*
G01*
X228196296Y-66014989D01*
X228206240Y-66084147D01*
X228177215Y-66147703D01*
X228157816Y-66165763D01*
X228136375Y-66181815D01*
X228107422Y-66203489D01*
X228041957Y-66227905D01*
X228001019Y-66223996D01*
X227917057Y-66201499D01*
X227758943Y-66201499D01*
X227751347Y-66201499D01*
X227751331Y-66201500D01*
X227658412Y-66201500D01*
X227591373Y-66181815D01*
X227581097Y-66174445D01*
X227578259Y-66172182D01*
X227577166Y-66171495D01*
X227576610Y-66170866D01*
X227572815Y-66167840D01*
X227573344Y-66167175D01*
X227530873Y-66119162D01*
X227520223Y-66050109D01*
X227548597Y-65986260D01*
X227606985Y-65947886D01*
X227643135Y-65942500D01*
X228083502Y-65942500D01*
X228150541Y-65962185D01*
G37*
%TD.AperFunction*%
%TA.AperFunction,Conductor*%
G36*
X214823039Y-47175185D02*
G01*
X214868794Y-47227989D01*
X214880000Y-47279500D01*
X214880000Y-48317999D01*
X215232500Y-48317999D01*
X215299539Y-48337684D01*
X215345294Y-48390488D01*
X215356500Y-48441999D01*
X215356500Y-48758902D01*
X215336815Y-48825941D01*
X215320181Y-48846583D01*
X214730319Y-49436444D01*
X214668996Y-49469929D01*
X214604321Y-49466694D01*
X214431638Y-49410587D01*
X214431639Y-49410587D01*
X214284429Y-49387271D01*
X214235361Y-49379500D01*
X214036639Y-49379500D01*
X213971214Y-49389862D01*
X213840362Y-49410587D01*
X213651370Y-49471993D01*
X213651367Y-49471994D01*
X213474305Y-49562213D01*
X213313533Y-49679021D01*
X213173021Y-49819533D01*
X213056213Y-49980305D01*
X212965994Y-50157367D01*
X212965993Y-50157370D01*
X212904587Y-50346362D01*
X212873500Y-50542639D01*
X212873500Y-51217360D01*
X212904587Y-51413637D01*
X212965993Y-51602629D01*
X212965994Y-51602632D01*
X213055011Y-51777334D01*
X213056213Y-51779694D01*
X213173019Y-51940464D01*
X213313536Y-52080981D01*
X213474306Y-52197787D01*
X213561149Y-52242035D01*
X213651367Y-52288005D01*
X213651370Y-52288006D01*
X213745866Y-52318709D01*
X213840364Y-52349413D01*
X214036639Y-52380500D01*
X214036640Y-52380500D01*
X214235360Y-52380500D01*
X214235361Y-52380500D01*
X214431636Y-52349413D01*
X214620632Y-52288005D01*
X214797694Y-52197787D01*
X214958464Y-52080981D01*
X215098981Y-51940464D01*
X215215787Y-51779694D01*
X215306005Y-51602632D01*
X215367413Y-51413636D01*
X215398500Y-51217361D01*
X215398500Y-50542639D01*
X215398005Y-50539515D01*
X215398159Y-50538318D01*
X215398118Y-50537786D01*
X215398229Y-50537777D01*
X215406958Y-50470224D01*
X215432794Y-50432439D01*
X215972964Y-49892269D01*
X216034285Y-49858786D01*
X216103977Y-49863770D01*
X216148324Y-49892271D01*
X216237129Y-49981076D01*
X216237133Y-49981079D01*
X216237135Y-49981081D01*
X216378602Y-50064744D01*
X216420224Y-50076836D01*
X216536426Y-50110597D01*
X216536429Y-50110597D01*
X216536431Y-50110598D01*
X216573306Y-50113500D01*
X216573314Y-50113500D01*
X217004686Y-50113500D01*
X217004694Y-50113500D01*
X217041569Y-50110598D01*
X217041571Y-50110597D01*
X217041573Y-50110597D01*
X217141321Y-50081617D01*
X217199398Y-50064744D01*
X217271381Y-50022173D01*
X217339102Y-50004991D01*
X217405365Y-50027151D01*
X217449129Y-50081617D01*
X217458500Y-50128906D01*
X217458500Y-50245902D01*
X217438815Y-50312941D01*
X217422181Y-50333583D01*
X214986531Y-52769234D01*
X214925208Y-52802719D01*
X214898850Y-52805553D01*
X209949111Y-52805553D01*
X209790998Y-52805552D01*
X209790997Y-52805552D01*
X209790996Y-52805552D01*
X209714632Y-52826014D01*
X209638267Y-52846476D01*
X209638262Y-52846479D01*
X209501343Y-52925528D01*
X209501335Y-52925534D01*
X208767286Y-53659583D01*
X208655481Y-53771387D01*
X208655475Y-53771395D01*
X208617323Y-53837478D01*
X208617323Y-53837480D01*
X208576423Y-53908318D01*
X208535500Y-54061047D01*
X208535499Y-54061049D01*
X208535499Y-54229150D01*
X208535500Y-54229163D01*
X208535500Y-57080220D01*
X208515815Y-57147259D01*
X208463011Y-57193014D01*
X208449821Y-57198150D01*
X208413366Y-57209995D01*
X208236305Y-57300213D01*
X208075533Y-57417021D01*
X207935021Y-57557533D01*
X207818213Y-57718305D01*
X207727994Y-57895367D01*
X207727993Y-57895370D01*
X207698431Y-57986356D01*
X207658994Y-58044031D01*
X207594635Y-58071230D01*
X207525789Y-58059315D01*
X207474313Y-58012071D01*
X207456500Y-57948038D01*
X207456500Y-53601519D01*
X207476185Y-53534480D01*
X207492819Y-53513838D01*
X208827838Y-52178819D01*
X208889161Y-52145334D01*
X208915519Y-52142500D01*
X209473360Y-52142500D01*
X209473361Y-52142500D01*
X209669636Y-52111413D01*
X209858632Y-52050005D01*
X210035694Y-51959787D01*
X210196464Y-51842981D01*
X210336981Y-51702464D01*
X210453787Y-51541694D01*
X210544005Y-51364632D01*
X210605413Y-51175636D01*
X210636500Y-50979361D01*
X210636500Y-50780639D01*
X210605413Y-50584364D01*
X210565600Y-50461830D01*
X210544006Y-50395370D01*
X210544003Y-50395362D01*
X210473009Y-50256032D01*
X210466212Y-50242692D01*
X210453316Y-50174024D01*
X210479592Y-50109284D01*
X210489007Y-50098726D01*
X213021362Y-47566371D01*
X213082682Y-47532889D01*
X213152374Y-47537873D01*
X213208307Y-47579745D01*
X213232398Y-47641452D01*
X213240494Y-47720697D01*
X213295641Y-47887119D01*
X213295643Y-47887124D01*
X213387684Y-48036345D01*
X213511654Y-48160315D01*
X213660875Y-48252356D01*
X213660880Y-48252358D01*
X213827302Y-48307505D01*
X213827309Y-48307506D01*
X213930019Y-48317999D01*
X214379999Y-48317999D01*
X214380000Y-48317998D01*
X214380000Y-47279500D01*
X214399685Y-47212461D01*
X214452489Y-47166706D01*
X214504000Y-47155500D01*
X214756000Y-47155500D01*
X214823039Y-47175185D01*
G37*
%TD.AperFunction*%
%TA.AperFunction,Conductor*%
G36*
X225312168Y-44795615D02*
G01*
X225341232Y-44829158D01*
X225391914Y-44914858D01*
X225391923Y-44914870D01*
X225398703Y-44921650D01*
X225425582Y-44961876D01*
X225439222Y-44994804D01*
X225439228Y-44994816D01*
X225515885Y-45109542D01*
X226543455Y-46137112D01*
X226658193Y-46213777D01*
X226747272Y-46250674D01*
X226785673Y-46266580D01*
X226785677Y-46266580D01*
X226785678Y-46266581D01*
X226921004Y-46293500D01*
X226921007Y-46293500D01*
X234002996Y-46293500D01*
X234094040Y-46275389D01*
X234138328Y-46266580D01*
X234257154Y-46217361D01*
X234265807Y-46213777D01*
X234265808Y-46213776D01*
X234265811Y-46213775D01*
X234380543Y-46137114D01*
X234726649Y-45791006D01*
X234787968Y-45757524D01*
X234853327Y-45760983D01*
X234909203Y-45779499D01*
X235011991Y-45790000D01*
X236412008Y-45789999D01*
X236514797Y-45779499D01*
X236681334Y-45724314D01*
X236830656Y-45632212D01*
X236954712Y-45508156D01*
X236982316Y-45463403D01*
X237034264Y-45416678D01*
X237087854Y-45404500D01*
X237666501Y-45404500D01*
X237733540Y-45424185D01*
X237779295Y-45476989D01*
X237790501Y-45528500D01*
X237790501Y-45601876D01*
X237796908Y-45661483D01*
X237847202Y-45796328D01*
X237847206Y-45796335D01*
X237933452Y-45911544D01*
X237933455Y-45911547D01*
X238048664Y-45997793D01*
X238048671Y-45997797D01*
X238180081Y-46046810D01*
X238236015Y-46088681D01*
X238260432Y-46154145D01*
X238245580Y-46222418D01*
X238224430Y-46250673D01*
X238102503Y-46372600D01*
X237966965Y-46566169D01*
X237966964Y-46566171D01*
X237867098Y-46780335D01*
X237867094Y-46780344D01*
X237805938Y-47008586D01*
X237805936Y-47008596D01*
X237785341Y-47243999D01*
X237785341Y-47244000D01*
X237805936Y-47479403D01*
X237805938Y-47479413D01*
X237840327Y-47607755D01*
X237838664Y-47677605D01*
X237808233Y-47727529D01*
X237323681Y-48212082D01*
X237262358Y-48245567D01*
X237192667Y-48240583D01*
X237136733Y-48198712D01*
X237112316Y-48133247D01*
X237112000Y-48124401D01*
X237112000Y-48002000D01*
X235962000Y-48002000D01*
X235962000Y-48914499D01*
X236321902Y-48914499D01*
X236388941Y-48934184D01*
X236434696Y-48986988D01*
X236444640Y-49056146D01*
X236415615Y-49119702D01*
X236409583Y-49126180D01*
X235029584Y-50506181D01*
X234968261Y-50539666D01*
X234941903Y-50542500D01*
X231930256Y-50542500D01*
X231896593Y-50551520D01*
X231826743Y-50549857D01*
X231768880Y-50510694D01*
X231741377Y-50446465D01*
X231740500Y-50431745D01*
X231740500Y-50128906D01*
X231760185Y-50061867D01*
X231812989Y-50016112D01*
X231882147Y-50006168D01*
X231927617Y-50022172D01*
X231999602Y-50064744D01*
X232041224Y-50076836D01*
X232157426Y-50110597D01*
X232157429Y-50110597D01*
X232157431Y-50110598D01*
X232194306Y-50113500D01*
X232194314Y-50113500D01*
X232625686Y-50113500D01*
X232625694Y-50113500D01*
X232662569Y-50110598D01*
X232662571Y-50110597D01*
X232662573Y-50110597D01*
X232762321Y-50081617D01*
X232820398Y-50064744D01*
X232961865Y-49981081D01*
X232961870Y-49981076D01*
X232968026Y-49976301D01*
X232969839Y-49978638D01*
X233018949Y-49951798D01*
X233088643Y-49956756D01*
X233120996Y-49977551D01*
X233122278Y-49975900D01*
X233128447Y-49980685D01*
X233269801Y-50064281D01*
X233427514Y-50110100D01*
X233427511Y-50110100D01*
X233429998Y-50110295D01*
X233430000Y-50110295D01*
X233430000Y-47165703D01*
X233930000Y-47165703D01*
X233930000Y-50110295D01*
X233930001Y-50110295D01*
X233932486Y-50110100D01*
X234090198Y-50064281D01*
X234231552Y-49980685D01*
X234231561Y-49980678D01*
X234347678Y-49864561D01*
X234347685Y-49864552D01*
X234431282Y-49723196D01*
X234431283Y-49723193D01*
X234477099Y-49565495D01*
X234477100Y-49565489D01*
X234479999Y-49528649D01*
X234480000Y-49528634D01*
X234480000Y-48908887D01*
X234499685Y-48841848D01*
X234552489Y-48796093D01*
X234621647Y-48786149D01*
X234669098Y-48803349D01*
X234742873Y-48848855D01*
X234742880Y-48848858D01*
X234909302Y-48904005D01*
X234909309Y-48904006D01*
X235012019Y-48914499D01*
X235461999Y-48914499D01*
X235462000Y-48914498D01*
X235462000Y-47502000D01*
X235962000Y-47502000D01*
X237111999Y-47502000D01*
X237111999Y-47289528D01*
X237111998Y-47289513D01*
X237101505Y-47186802D01*
X237046358Y-47020380D01*
X237046356Y-47020375D01*
X236954315Y-46871154D01*
X236830345Y-46747184D01*
X236681124Y-46655143D01*
X236681119Y-46655141D01*
X236514697Y-46599994D01*
X236514690Y-46599993D01*
X236411986Y-46589500D01*
X235962000Y-46589500D01*
X235962000Y-47502000D01*
X235462000Y-47502000D01*
X235462000Y-46589500D01*
X235012028Y-46589500D01*
X235012012Y-46589501D01*
X234909302Y-46599994D01*
X234742880Y-46655141D01*
X234742875Y-46655143D01*
X234593654Y-46747184D01*
X234469684Y-46871154D01*
X234377643Y-47020375D01*
X234377641Y-47020380D01*
X234325923Y-47176456D01*
X234286150Y-47233901D01*
X234221634Y-47260724D01*
X234152859Y-47248409D01*
X234145097Y-47244185D01*
X234090194Y-47211716D01*
X233932494Y-47165900D01*
X233932497Y-47165900D01*
X233930000Y-47165703D01*
X233430000Y-47165703D01*
X233427503Y-47165900D01*
X233269806Y-47211716D01*
X233269803Y-47211717D01*
X233128449Y-47295313D01*
X233122283Y-47300097D01*
X233120389Y-47297655D01*
X233071580Y-47324239D01*
X233001894Y-47319179D01*
X232969227Y-47298159D01*
X232968031Y-47299702D01*
X232961862Y-47294917D01*
X232826710Y-47214989D01*
X232820398Y-47211256D01*
X232820397Y-47211255D01*
X232820396Y-47211255D01*
X232820393Y-47211254D01*
X232662573Y-47165402D01*
X232662567Y-47165401D01*
X232625701Y-47162500D01*
X232625694Y-47162500D01*
X232194306Y-47162500D01*
X232194298Y-47162500D01*
X232157432Y-47165401D01*
X232157426Y-47165402D01*
X231999606Y-47211254D01*
X231999603Y-47211255D01*
X231858137Y-47294917D01*
X231851969Y-47299702D01*
X231850072Y-47297256D01*
X231801358Y-47323857D01*
X231731666Y-47318873D01*
X231699296Y-47298069D01*
X231698031Y-47299702D01*
X231691862Y-47294917D01*
X231556710Y-47214989D01*
X231550398Y-47211256D01*
X231550397Y-47211255D01*
X231550396Y-47211255D01*
X231550393Y-47211254D01*
X231392573Y-47165402D01*
X231392567Y-47165401D01*
X231355701Y-47162500D01*
X231355694Y-47162500D01*
X230924306Y-47162500D01*
X230924298Y-47162500D01*
X230887432Y-47165401D01*
X230887426Y-47165402D01*
X230729606Y-47211254D01*
X230729603Y-47211255D01*
X230588137Y-47294917D01*
X230581969Y-47299702D01*
X230580072Y-47297256D01*
X230531358Y-47323857D01*
X230461666Y-47318873D01*
X230429296Y-47298069D01*
X230428031Y-47299702D01*
X230421862Y-47294917D01*
X230286710Y-47214989D01*
X230280398Y-47211256D01*
X230280397Y-47211255D01*
X230280396Y-47211255D01*
X230280393Y-47211254D01*
X230122573Y-47165402D01*
X230122567Y-47165401D01*
X230085701Y-47162500D01*
X230085694Y-47162500D01*
X229654306Y-47162500D01*
X229654298Y-47162500D01*
X229617432Y-47165401D01*
X229617426Y-47165402D01*
X229459606Y-47211254D01*
X229459603Y-47211255D01*
X229318140Y-47294915D01*
X229311974Y-47299699D01*
X229310174Y-47297379D01*
X229260913Y-47324230D01*
X229191225Y-47319193D01*
X229158992Y-47298461D01*
X229157722Y-47300100D01*
X229151552Y-47295314D01*
X229010196Y-47211717D01*
X229010193Y-47211716D01*
X228852494Y-47165900D01*
X228852497Y-47165900D01*
X228850000Y-47165703D01*
X228850000Y-50110295D01*
X228850001Y-50110295D01*
X228852486Y-50110100D01*
X229010198Y-50064281D01*
X229151550Y-49980686D01*
X229157717Y-49975903D01*
X229159630Y-49978369D01*
X229208222Y-49951802D01*
X229277917Y-49956749D01*
X229310762Y-49977853D01*
X229311969Y-49976298D01*
X229318132Y-49981078D01*
X229318135Y-49981081D01*
X229459602Y-50064744D01*
X229501224Y-50076836D01*
X229617426Y-50110597D01*
X229617429Y-50110597D01*
X229617431Y-50110598D01*
X229654306Y-50113500D01*
X229654314Y-50113500D01*
X230085686Y-50113500D01*
X230085694Y-50113500D01*
X230122569Y-50110598D01*
X230122571Y-50110597D01*
X230122573Y-50110597D01*
X230222321Y-50081617D01*
X230280398Y-50064744D01*
X230352381Y-50022173D01*
X230420102Y-50004991D01*
X230486365Y-50027151D01*
X230530129Y-50081617D01*
X230539500Y-50128906D01*
X230539500Y-50753903D01*
X230519815Y-50820942D01*
X230503181Y-50841584D01*
X230259204Y-51085561D01*
X230197881Y-51119046D01*
X230171523Y-51121880D01*
X226709011Y-51121880D01*
X226641972Y-51102195D01*
X226596217Y-51049391D01*
X226586273Y-50980233D01*
X226601624Y-50935881D01*
X226611765Y-50918313D01*
X226619577Y-50904784D01*
X226660501Y-50752057D01*
X226660501Y-50593942D01*
X226660501Y-50586347D01*
X226660500Y-50586329D01*
X226660500Y-50128906D01*
X226680185Y-50061867D01*
X226732989Y-50016112D01*
X226802147Y-50006168D01*
X226847617Y-50022172D01*
X226919602Y-50064744D01*
X226961224Y-50076836D01*
X227077426Y-50110597D01*
X227077429Y-50110597D01*
X227077431Y-50110598D01*
X227114306Y-50113500D01*
X227114314Y-50113500D01*
X227545686Y-50113500D01*
X227545694Y-50113500D01*
X227582569Y-50110598D01*
X227582571Y-50110597D01*
X227582573Y-50110597D01*
X227682321Y-50081617D01*
X227740398Y-50064744D01*
X227881865Y-49981081D01*
X227881870Y-49981076D01*
X227888026Y-49976301D01*
X227889839Y-49978638D01*
X227938949Y-49951798D01*
X228008643Y-49956756D01*
X228040996Y-49977551D01*
X228042278Y-49975900D01*
X228048447Y-49980685D01*
X228189801Y-50064281D01*
X228347514Y-50110100D01*
X228347511Y-50110100D01*
X228349998Y-50110295D01*
X228350000Y-50110295D01*
X228350000Y-47165703D01*
X228347503Y-47165900D01*
X228189806Y-47211716D01*
X228189803Y-47211717D01*
X228048449Y-47295313D01*
X228042283Y-47300097D01*
X228040389Y-47297655D01*
X227991580Y-47324239D01*
X227921894Y-47319179D01*
X227889227Y-47298159D01*
X227888031Y-47299702D01*
X227881862Y-47294917D01*
X227746710Y-47214989D01*
X227740398Y-47211256D01*
X227740397Y-47211255D01*
X227740396Y-47211255D01*
X227740393Y-47211254D01*
X227582573Y-47165402D01*
X227582567Y-47165401D01*
X227545701Y-47162500D01*
X227545694Y-47162500D01*
X227114306Y-47162500D01*
X227114298Y-47162500D01*
X227077432Y-47165401D01*
X227077426Y-47165402D01*
X226919606Y-47211254D01*
X226919603Y-47211255D01*
X226778137Y-47294917D01*
X226771969Y-47299702D01*
X226770072Y-47297256D01*
X226721358Y-47323857D01*
X226651666Y-47318873D01*
X226619296Y-47298069D01*
X226618031Y-47299702D01*
X226611862Y-47294917D01*
X226476710Y-47214989D01*
X226470398Y-47211256D01*
X226470397Y-47211255D01*
X226470396Y-47211255D01*
X226470393Y-47211254D01*
X226312573Y-47165402D01*
X226312567Y-47165401D01*
X226275701Y-47162500D01*
X226275694Y-47162500D01*
X225844306Y-47162500D01*
X225844298Y-47162500D01*
X225807432Y-47165401D01*
X225807426Y-47165402D01*
X225649606Y-47211254D01*
X225649603Y-47211255D01*
X225508137Y-47294917D01*
X225508129Y-47294923D01*
X225391923Y-47411129D01*
X225391916Y-47411138D01*
X225340941Y-47497333D01*
X225289871Y-47545017D01*
X225221130Y-47557520D01*
X225156540Y-47530874D01*
X225127477Y-47497332D01*
X225076687Y-47411450D01*
X225076678Y-47411438D01*
X224960561Y-47295321D01*
X224960552Y-47295314D01*
X224819196Y-47211717D01*
X224819193Y-47211716D01*
X224661494Y-47165900D01*
X224661497Y-47165900D01*
X224659000Y-47165703D01*
X224659000Y-50110295D01*
X224659001Y-50110295D01*
X224661486Y-50110100D01*
X224819198Y-50064281D01*
X224960552Y-49980685D01*
X224960561Y-49980678D01*
X225076678Y-49864561D01*
X225076682Y-49864555D01*
X225127476Y-49778667D01*
X225178545Y-49730983D01*
X225247286Y-49718479D01*
X225311876Y-49745124D01*
X225340941Y-49778666D01*
X225391916Y-49864861D01*
X225391923Y-49864870D01*
X225423180Y-49896126D01*
X225456666Y-49957448D01*
X225459500Y-49983808D01*
X225459500Y-50372902D01*
X225439815Y-50439941D01*
X225423181Y-50460583D01*
X225212584Y-50671181D01*
X225151261Y-50704666D01*
X225124903Y-50707500D01*
X224050815Y-50707500D01*
X223983776Y-50687815D01*
X223938021Y-50635011D01*
X223927595Y-50569616D01*
X223944565Y-50419002D01*
X223944565Y-50418996D01*
X223924369Y-50239750D01*
X223923085Y-50234123D01*
X223927360Y-50164384D01*
X223968660Y-50108027D01*
X224033872Y-50082945D01*
X224078572Y-50087457D01*
X224156505Y-50110099D01*
X224156511Y-50110100D01*
X224158998Y-50110295D01*
X224159000Y-50110295D01*
X224159000Y-47165703D01*
X224156503Y-47165900D01*
X223998806Y-47211716D01*
X223998803Y-47211717D01*
X223857449Y-47295313D01*
X223851283Y-47300097D01*
X223849389Y-47297655D01*
X223800580Y-47324239D01*
X223730894Y-47319179D01*
X223698227Y-47298159D01*
X223697031Y-47299702D01*
X223690862Y-47294917D01*
X223555710Y-47214989D01*
X223549398Y-47211256D01*
X223549397Y-47211255D01*
X223549396Y-47211255D01*
X223549393Y-47211254D01*
X223391573Y-47165402D01*
X223391567Y-47165401D01*
X223354701Y-47162500D01*
X223354694Y-47162500D01*
X222923306Y-47162500D01*
X222923298Y-47162500D01*
X222886432Y-47165401D01*
X222886426Y-47165402D01*
X222728606Y-47211254D01*
X222728603Y-47211255D01*
X222587137Y-47294917D01*
X222580969Y-47299702D01*
X222579072Y-47297256D01*
X222530358Y-47323857D01*
X222460666Y-47318873D01*
X222428296Y-47298069D01*
X222427031Y-47299702D01*
X222420862Y-47294917D01*
X222285710Y-47214989D01*
X222279398Y-47211256D01*
X222279397Y-47211255D01*
X222279396Y-47211255D01*
X222279393Y-47211254D01*
X222121573Y-47165402D01*
X222121567Y-47165401D01*
X222084701Y-47162500D01*
X222084694Y-47162500D01*
X221653306Y-47162500D01*
X221653298Y-47162500D01*
X221616432Y-47165401D01*
X221616426Y-47165402D01*
X221458606Y-47211254D01*
X221458603Y-47211255D01*
X221317137Y-47294917D01*
X221310969Y-47299702D01*
X221309072Y-47297256D01*
X221260358Y-47323857D01*
X221190666Y-47318873D01*
X221158296Y-47298069D01*
X221157031Y-47299702D01*
X221150861Y-47294916D01*
X221009400Y-47211256D01*
X221008349Y-47210802D01*
X221006459Y-47209517D01*
X221002684Y-47207285D01*
X221002824Y-47207047D01*
X220969919Y-47184683D01*
X220963397Y-47178161D01*
X220963374Y-47178140D01*
X220698415Y-46913181D01*
X220664930Y-46851858D01*
X220669914Y-46782166D01*
X220711786Y-46726233D01*
X220777250Y-46701816D01*
X220786096Y-46701500D01*
X223579331Y-46701500D01*
X223579347Y-46701501D01*
X223586943Y-46701501D01*
X223745054Y-46701501D01*
X223745057Y-46701501D01*
X223897785Y-46660577D01*
X223991937Y-46606218D01*
X224034716Y-46581520D01*
X224146520Y-46469716D01*
X224146520Y-46469714D01*
X224156724Y-46459511D01*
X224156727Y-46459506D01*
X224889520Y-45726716D01*
X224968577Y-45589784D01*
X225009501Y-45437057D01*
X225009501Y-45278942D01*
X225009501Y-45271347D01*
X225009500Y-45271329D01*
X225009500Y-45033808D01*
X225029185Y-44966769D01*
X225045820Y-44946126D01*
X225077076Y-44914870D01*
X225077081Y-44914865D01*
X225127768Y-44829158D01*
X225178836Y-44781474D01*
X225247578Y-44768970D01*
X225312168Y-44795615D01*
G37*
%TD.AperFunction*%
%TA.AperFunction,Conductor*%
G36*
X240659418Y-45599417D02*
G01*
X240687673Y-45620569D01*
X240809597Y-45742493D01*
X240809603Y-45742498D01*
X240995158Y-45872425D01*
X241038783Y-45927002D01*
X241045977Y-45996500D01*
X241014454Y-46058855D01*
X240995158Y-46075575D01*
X240809597Y-46205505D01*
X240642505Y-46372597D01*
X240512575Y-46558158D01*
X240457998Y-46601783D01*
X240388500Y-46608977D01*
X240326145Y-46577454D01*
X240309425Y-46558158D01*
X240179496Y-46372600D01*
X240171525Y-46364629D01*
X240057567Y-46250671D01*
X240024084Y-46189351D01*
X240029068Y-46119659D01*
X240070939Y-46063725D01*
X240101915Y-46046810D01*
X240233331Y-45997796D01*
X240348546Y-45911546D01*
X240434796Y-45796331D01*
X240483810Y-45664916D01*
X240525681Y-45608984D01*
X240591145Y-45584566D01*
X240659418Y-45599417D01*
G37*
%TD.AperFunction*%
%TD*%
M02*
