M48
; DRILL file {KiCad 8.0.7-8.0.7-0~ubuntu22.04.1} date 2024-12-25T22:09:00+0100
; FORMAT={-:-/ absolute / inch / decimal}
; #@! TF.CreationDate,2024-12-25T22:09:00+01:00
; #@! TF.GenerationSoftware,Kicad,Pcbnew,8.0.7-8.0.7-0~ubuntu22.04.1
; #@! TF.FileFunction,MixedPlating,1,2
FMAT,2
INCH
; #@! TA.AperFunction,Plated,PTH,ViaDrill
T1C0.0118
; #@! TA.AperFunction,Plated,PTH,ComponentDrill
T2C0.0300
; #@! TA.AperFunction,Plated,PTH,ComponentDrill
T3C0.0394
%
G90
G05
T1
X8.09Y-3.2362
X8.43Y-2.575
X8.455Y-1.7385
X8.455Y-2.54
X8.475Y-2.51
X8.495Y-2.475
X8.505Y-2.425
X8.51Y-2.38
X8.51Y-2.63
X8.51Y-2.99
X8.535Y-1.9149
X8.54Y-2.89
X8.54Y-2.94
X8.575Y-2.855
X8.585Y-1.72
X8.6Y-2.765
X8.605Y-2.825
X8.635Y-1.9149
X8.66Y-2.67
X8.685Y-1.72
X8.7Y-2.86
X8.71Y-2.13
X8.71Y-2.37
X8.735Y-1.985
X8.77Y-2.44
X8.7819Y-2.0619
X8.785Y-1.72
X8.785Y-1.985
X8.797Y-2.55
X8.823Y-2.86
X8.855Y-2.61
X8.92Y-2.36
X8.92Y-2.55
X8.9395Y-1.9043
X8.94Y-2.63
X9.0Y-1.72
X9.1Y-1.72
X9.15Y-1.9149
X9.178Y-2.71
X9.178Y-2.08
X9.178Y-2.17
X9.179Y-2.61
X9.179Y-2.82
X9.179Y-2.92
X9.179Y-3.02
X9.18Y-2.44
X9.18Y-2.35
X9.18Y-2.2544
X9.2Y-1.72
T3
X8.5795Y-3.0693
X8.5795Y-3.1693
X8.6795Y-3.0693
X8.6795Y-3.1693
X8.7795Y-3.0693
X8.7795Y-3.1693
X8.8795Y-3.0693
X8.8795Y-3.1693
X8.9795Y-3.0693
X8.9795Y-3.1693
X9.415Y-1.76
X9.415Y-1.86
X9.415Y-1.96
X9.415Y-2.06
X9.415Y-2.16
X9.415Y-2.26
X9.415Y-2.36
X9.415Y-2.46
X9.415Y-2.56
X9.415Y-2.66
X9.415Y-2.76
X9.415Y-2.86
X9.415Y-2.96
X9.415Y-3.06
X9.515Y-1.76
X9.515Y-1.86
X9.515Y-1.96
X9.515Y-2.06
X9.515Y-2.16
X9.515Y-2.26
X9.515Y-2.36
X9.515Y-2.46
X9.515Y-2.56
X9.515Y-2.66
X9.515Y-2.76
X9.515Y-2.86
X9.515Y-2.96
X9.515Y-3.06
T2
G00X7.84Y-1.7977
M15
G01X7.84Y-1.8149
M16
G05
G00X7.84Y-2.1914
M15
G01X7.84Y-2.2086
M16
G05
G00X7.84Y-2.6277
M15
G01X7.84Y-2.6449
M16
G05
G00X7.84Y-3.0214
M15
G01X7.84Y-3.0386
M16
G05
G00X8.2443Y-1.7079
M15
G01X8.2231Y-1.7079
M16
G05
G00X8.2443Y-2.0031
M15
G01X8.2231Y-2.0031
M16
G05
G00X8.2443Y-2.2984
M15
G01X8.2231Y-2.2984
M16
G05
G00X8.2443Y-2.5379
M15
G01X8.2231Y-2.5379
M16
G05
G00X8.2443Y-2.8331
M15
G01X8.2231Y-2.8331
M16
G05
G00X8.2443Y-3.1284
M15
G01X8.2231Y-3.1284
M16
G05
G00X8.3427Y-1.8063
M15
G01X8.3215Y-1.8063
M16
G05
G00X8.3427Y-2.2
M15
G01X8.3215Y-2.2
M16
G05
G00X8.3427Y-2.6363
M15
G01X8.3215Y-2.6363
M16
G05
G00X8.3427Y-3.03
M15
G01X8.3215Y-3.03
M16
G05
G00X8.4306Y-1.9945
M15
G01X8.4306Y-2.0118
M16
G05
G00X8.4306Y-2.8245
M15
G01X8.4306Y-2.8418
M16
G05
M30
