%TF.GenerationSoftware,KiCad,Pcbnew,8.0.7-8.0.7-0~ubuntu22.04.1*%
%TF.CreationDate,2024-12-25T22:08:59+01:00*%
%TF.ProjectId,IEC_Extension,4945435f-4578-4746-956e-73696f6e2e6b,rev?*%
%TF.SameCoordinates,Original*%
%TF.FileFunction,Legend,Bot*%
%TF.FilePolarity,Positive*%
%FSLAX46Y46*%
G04 Gerber Fmt 4.6, Leading zero omitted, Abs format (unit mm)*
G04 Created by KiCad (PCBNEW 8.0.7-8.0.7-0~ubuntu22.04.1) date 2024-12-25 22:08:59*
%MOMM*%
%LPD*%
G01*
G04 APERTURE LIST*
%ADD10C,0.150000*%
%ADD11C,0.120000*%
G04 APERTURE END LIST*
D10*
X231274857Y-60398819D02*
X231608190Y-59922628D01*
X231846285Y-60398819D02*
X231846285Y-59398819D01*
X231846285Y-59398819D02*
X231465333Y-59398819D01*
X231465333Y-59398819D02*
X231370095Y-59446438D01*
X231370095Y-59446438D02*
X231322476Y-59494057D01*
X231322476Y-59494057D02*
X231274857Y-59589295D01*
X231274857Y-59589295D02*
X231274857Y-59732152D01*
X231274857Y-59732152D02*
X231322476Y-59827390D01*
X231322476Y-59827390D02*
X231370095Y-59875009D01*
X231370095Y-59875009D02*
X231465333Y-59922628D01*
X231465333Y-59922628D02*
X231846285Y-59922628D01*
X230322476Y-60398819D02*
X230893904Y-60398819D01*
X230608190Y-60398819D02*
X230608190Y-59398819D01*
X230608190Y-59398819D02*
X230703428Y-59541676D01*
X230703428Y-59541676D02*
X230798666Y-59636914D01*
X230798666Y-59636914D02*
X230893904Y-59684533D01*
X229989142Y-59398819D02*
X229322476Y-59398819D01*
X229322476Y-59398819D02*
X229751047Y-60398819D01*
X231528857Y-63954819D02*
X231862190Y-63478628D01*
X232100285Y-63954819D02*
X232100285Y-62954819D01*
X232100285Y-62954819D02*
X231719333Y-62954819D01*
X231719333Y-62954819D02*
X231624095Y-63002438D01*
X231624095Y-63002438D02*
X231576476Y-63050057D01*
X231576476Y-63050057D02*
X231528857Y-63145295D01*
X231528857Y-63145295D02*
X231528857Y-63288152D01*
X231528857Y-63288152D02*
X231576476Y-63383390D01*
X231576476Y-63383390D02*
X231624095Y-63431009D01*
X231624095Y-63431009D02*
X231719333Y-63478628D01*
X231719333Y-63478628D02*
X232100285Y-63478628D01*
X230576476Y-63954819D02*
X231147904Y-63954819D01*
X230862190Y-63954819D02*
X230862190Y-62954819D01*
X230862190Y-62954819D02*
X230957428Y-63097676D01*
X230957428Y-63097676D02*
X231052666Y-63192914D01*
X231052666Y-63192914D02*
X231147904Y-63240533D01*
X229719333Y-62954819D02*
X229909809Y-62954819D01*
X229909809Y-62954819D02*
X230005047Y-63002438D01*
X230005047Y-63002438D02*
X230052666Y-63050057D01*
X230052666Y-63050057D02*
X230147904Y-63192914D01*
X230147904Y-63192914D02*
X230195523Y-63383390D01*
X230195523Y-63383390D02*
X230195523Y-63764342D01*
X230195523Y-63764342D02*
X230147904Y-63859580D01*
X230147904Y-63859580D02*
X230100285Y-63907200D01*
X230100285Y-63907200D02*
X230005047Y-63954819D01*
X230005047Y-63954819D02*
X229814571Y-63954819D01*
X229814571Y-63954819D02*
X229719333Y-63907200D01*
X229719333Y-63907200D02*
X229671714Y-63859580D01*
X229671714Y-63859580D02*
X229624095Y-63764342D01*
X229624095Y-63764342D02*
X229624095Y-63526247D01*
X229624095Y-63526247D02*
X229671714Y-63431009D01*
X229671714Y-63431009D02*
X229719333Y-63383390D01*
X229719333Y-63383390D02*
X229814571Y-63335771D01*
X229814571Y-63335771D02*
X230005047Y-63335771D01*
X230005047Y-63335771D02*
X230100285Y-63383390D01*
X230100285Y-63383390D02*
X230147904Y-63431009D01*
X230147904Y-63431009D02*
X230195523Y-63526247D01*
X231306666Y-66748819D02*
X231639999Y-66272628D01*
X231878094Y-66748819D02*
X231878094Y-65748819D01*
X231878094Y-65748819D02*
X231497142Y-65748819D01*
X231497142Y-65748819D02*
X231401904Y-65796438D01*
X231401904Y-65796438D02*
X231354285Y-65844057D01*
X231354285Y-65844057D02*
X231306666Y-65939295D01*
X231306666Y-65939295D02*
X231306666Y-66082152D01*
X231306666Y-66082152D02*
X231354285Y-66177390D01*
X231354285Y-66177390D02*
X231401904Y-66225009D01*
X231401904Y-66225009D02*
X231497142Y-66272628D01*
X231497142Y-66272628D02*
X231878094Y-66272628D01*
X230830475Y-66748819D02*
X230639999Y-66748819D01*
X230639999Y-66748819D02*
X230544761Y-66701200D01*
X230544761Y-66701200D02*
X230497142Y-66653580D01*
X230497142Y-66653580D02*
X230401904Y-66510723D01*
X230401904Y-66510723D02*
X230354285Y-66320247D01*
X230354285Y-66320247D02*
X230354285Y-65939295D01*
X230354285Y-65939295D02*
X230401904Y-65844057D01*
X230401904Y-65844057D02*
X230449523Y-65796438D01*
X230449523Y-65796438D02*
X230544761Y-65748819D01*
X230544761Y-65748819D02*
X230735237Y-65748819D01*
X230735237Y-65748819D02*
X230830475Y-65796438D01*
X230830475Y-65796438D02*
X230878094Y-65844057D01*
X230878094Y-65844057D02*
X230925713Y-65939295D01*
X230925713Y-65939295D02*
X230925713Y-66177390D01*
X230925713Y-66177390D02*
X230878094Y-66272628D01*
X230878094Y-66272628D02*
X230830475Y-66320247D01*
X230830475Y-66320247D02*
X230735237Y-66367866D01*
X230735237Y-66367866D02*
X230544761Y-66367866D01*
X230544761Y-66367866D02*
X230449523Y-66320247D01*
X230449523Y-66320247D02*
X230401904Y-66272628D01*
X230401904Y-66272628D02*
X230354285Y-66177390D01*
X231052666Y-69288819D02*
X231385999Y-68812628D01*
X231624094Y-69288819D02*
X231624094Y-68288819D01*
X231624094Y-68288819D02*
X231243142Y-68288819D01*
X231243142Y-68288819D02*
X231147904Y-68336438D01*
X231147904Y-68336438D02*
X231100285Y-68384057D01*
X231100285Y-68384057D02*
X231052666Y-68479295D01*
X231052666Y-68479295D02*
X231052666Y-68622152D01*
X231052666Y-68622152D02*
X231100285Y-68717390D01*
X231100285Y-68717390D02*
X231147904Y-68765009D01*
X231147904Y-68765009D02*
X231243142Y-68812628D01*
X231243142Y-68812628D02*
X231624094Y-68812628D01*
X230481237Y-68717390D02*
X230576475Y-68669771D01*
X230576475Y-68669771D02*
X230624094Y-68622152D01*
X230624094Y-68622152D02*
X230671713Y-68526914D01*
X230671713Y-68526914D02*
X230671713Y-68479295D01*
X230671713Y-68479295D02*
X230624094Y-68384057D01*
X230624094Y-68384057D02*
X230576475Y-68336438D01*
X230576475Y-68336438D02*
X230481237Y-68288819D01*
X230481237Y-68288819D02*
X230290761Y-68288819D01*
X230290761Y-68288819D02*
X230195523Y-68336438D01*
X230195523Y-68336438D02*
X230147904Y-68384057D01*
X230147904Y-68384057D02*
X230100285Y-68479295D01*
X230100285Y-68479295D02*
X230100285Y-68526914D01*
X230100285Y-68526914D02*
X230147904Y-68622152D01*
X230147904Y-68622152D02*
X230195523Y-68669771D01*
X230195523Y-68669771D02*
X230290761Y-68717390D01*
X230290761Y-68717390D02*
X230481237Y-68717390D01*
X230481237Y-68717390D02*
X230576475Y-68765009D01*
X230576475Y-68765009D02*
X230624094Y-68812628D01*
X230624094Y-68812628D02*
X230671713Y-68907866D01*
X230671713Y-68907866D02*
X230671713Y-69098342D01*
X230671713Y-69098342D02*
X230624094Y-69193580D01*
X230624094Y-69193580D02*
X230576475Y-69241200D01*
X230576475Y-69241200D02*
X230481237Y-69288819D01*
X230481237Y-69288819D02*
X230290761Y-69288819D01*
X230290761Y-69288819D02*
X230195523Y-69241200D01*
X230195523Y-69241200D02*
X230147904Y-69193580D01*
X230147904Y-69193580D02*
X230100285Y-69098342D01*
X230100285Y-69098342D02*
X230100285Y-68907866D01*
X230100285Y-68907866D02*
X230147904Y-68812628D01*
X230147904Y-68812628D02*
X230195523Y-68765009D01*
X230195523Y-68765009D02*
X230290761Y-68717390D01*
X201675904Y-75908819D02*
X201675904Y-76718342D01*
X201675904Y-76718342D02*
X201628285Y-76813580D01*
X201628285Y-76813580D02*
X201580666Y-76861200D01*
X201580666Y-76861200D02*
X201485428Y-76908819D01*
X201485428Y-76908819D02*
X201294952Y-76908819D01*
X201294952Y-76908819D02*
X201199714Y-76861200D01*
X201199714Y-76861200D02*
X201152095Y-76813580D01*
X201152095Y-76813580D02*
X201104476Y-76718342D01*
X201104476Y-76718342D02*
X201104476Y-75908819D01*
X200199714Y-76242152D02*
X200199714Y-76908819D01*
X200437809Y-75861200D02*
X200675904Y-76575485D01*
X200675904Y-76575485D02*
X200056857Y-76575485D01*
X208700666Y-77321580D02*
X208748285Y-77369200D01*
X208748285Y-77369200D02*
X208891142Y-77416819D01*
X208891142Y-77416819D02*
X208986380Y-77416819D01*
X208986380Y-77416819D02*
X209129237Y-77369200D01*
X209129237Y-77369200D02*
X209224475Y-77273961D01*
X209224475Y-77273961D02*
X209272094Y-77178723D01*
X209272094Y-77178723D02*
X209319713Y-76988247D01*
X209319713Y-76988247D02*
X209319713Y-76845390D01*
X209319713Y-76845390D02*
X209272094Y-76654914D01*
X209272094Y-76654914D02*
X209224475Y-76559676D01*
X209224475Y-76559676D02*
X209129237Y-76464438D01*
X209129237Y-76464438D02*
X208986380Y-76416819D01*
X208986380Y-76416819D02*
X208891142Y-76416819D01*
X208891142Y-76416819D02*
X208748285Y-76464438D01*
X208748285Y-76464438D02*
X208700666Y-76512057D01*
X208224475Y-77416819D02*
X208033999Y-77416819D01*
X208033999Y-77416819D02*
X207938761Y-77369200D01*
X207938761Y-77369200D02*
X207891142Y-77321580D01*
X207891142Y-77321580D02*
X207795904Y-77178723D01*
X207795904Y-77178723D02*
X207748285Y-76988247D01*
X207748285Y-76988247D02*
X207748285Y-76607295D01*
X207748285Y-76607295D02*
X207795904Y-76512057D01*
X207795904Y-76512057D02*
X207843523Y-76464438D01*
X207843523Y-76464438D02*
X207938761Y-76416819D01*
X207938761Y-76416819D02*
X208129237Y-76416819D01*
X208129237Y-76416819D02*
X208224475Y-76464438D01*
X208224475Y-76464438D02*
X208272094Y-76512057D01*
X208272094Y-76512057D02*
X208319713Y-76607295D01*
X208319713Y-76607295D02*
X208319713Y-76845390D01*
X208319713Y-76845390D02*
X208272094Y-76940628D01*
X208272094Y-76940628D02*
X208224475Y-76988247D01*
X208224475Y-76988247D02*
X208129237Y-77035866D01*
X208129237Y-77035866D02*
X207938761Y-77035866D01*
X207938761Y-77035866D02*
X207843523Y-76988247D01*
X207843523Y-76988247D02*
X207795904Y-76940628D01*
X207795904Y-76940628D02*
X207748285Y-76845390D01*
X221400666Y-60176580D02*
X221448285Y-60224200D01*
X221448285Y-60224200D02*
X221591142Y-60271819D01*
X221591142Y-60271819D02*
X221686380Y-60271819D01*
X221686380Y-60271819D02*
X221829237Y-60224200D01*
X221829237Y-60224200D02*
X221924475Y-60128961D01*
X221924475Y-60128961D02*
X221972094Y-60033723D01*
X221972094Y-60033723D02*
X222019713Y-59843247D01*
X222019713Y-59843247D02*
X222019713Y-59700390D01*
X222019713Y-59700390D02*
X221972094Y-59509914D01*
X221972094Y-59509914D02*
X221924475Y-59414676D01*
X221924475Y-59414676D02*
X221829237Y-59319438D01*
X221829237Y-59319438D02*
X221686380Y-59271819D01*
X221686380Y-59271819D02*
X221591142Y-59271819D01*
X221591142Y-59271819D02*
X221448285Y-59319438D01*
X221448285Y-59319438D02*
X221400666Y-59367057D01*
X220829237Y-59700390D02*
X220924475Y-59652771D01*
X220924475Y-59652771D02*
X220972094Y-59605152D01*
X220972094Y-59605152D02*
X221019713Y-59509914D01*
X221019713Y-59509914D02*
X221019713Y-59462295D01*
X221019713Y-59462295D02*
X220972094Y-59367057D01*
X220972094Y-59367057D02*
X220924475Y-59319438D01*
X220924475Y-59319438D02*
X220829237Y-59271819D01*
X220829237Y-59271819D02*
X220638761Y-59271819D01*
X220638761Y-59271819D02*
X220543523Y-59319438D01*
X220543523Y-59319438D02*
X220495904Y-59367057D01*
X220495904Y-59367057D02*
X220448285Y-59462295D01*
X220448285Y-59462295D02*
X220448285Y-59509914D01*
X220448285Y-59509914D02*
X220495904Y-59605152D01*
X220495904Y-59605152D02*
X220543523Y-59652771D01*
X220543523Y-59652771D02*
X220638761Y-59700390D01*
X220638761Y-59700390D02*
X220829237Y-59700390D01*
X220829237Y-59700390D02*
X220924475Y-59748009D01*
X220924475Y-59748009D02*
X220972094Y-59795628D01*
X220972094Y-59795628D02*
X221019713Y-59890866D01*
X221019713Y-59890866D02*
X221019713Y-60081342D01*
X221019713Y-60081342D02*
X220972094Y-60176580D01*
X220972094Y-60176580D02*
X220924475Y-60224200D01*
X220924475Y-60224200D02*
X220829237Y-60271819D01*
X220829237Y-60271819D02*
X220638761Y-60271819D01*
X220638761Y-60271819D02*
X220543523Y-60224200D01*
X220543523Y-60224200D02*
X220495904Y-60176580D01*
X220495904Y-60176580D02*
X220448285Y-60081342D01*
X220448285Y-60081342D02*
X220448285Y-59890866D01*
X220448285Y-59890866D02*
X220495904Y-59795628D01*
X220495904Y-59795628D02*
X220543523Y-59748009D01*
X220543523Y-59748009D02*
X220638761Y-59700390D01*
X221527666Y-65002580D02*
X221575285Y-65050200D01*
X221575285Y-65050200D02*
X221718142Y-65097819D01*
X221718142Y-65097819D02*
X221813380Y-65097819D01*
X221813380Y-65097819D02*
X221956237Y-65050200D01*
X221956237Y-65050200D02*
X222051475Y-64954961D01*
X222051475Y-64954961D02*
X222099094Y-64859723D01*
X222099094Y-64859723D02*
X222146713Y-64669247D01*
X222146713Y-64669247D02*
X222146713Y-64526390D01*
X222146713Y-64526390D02*
X222099094Y-64335914D01*
X222099094Y-64335914D02*
X222051475Y-64240676D01*
X222051475Y-64240676D02*
X221956237Y-64145438D01*
X221956237Y-64145438D02*
X221813380Y-64097819D01*
X221813380Y-64097819D02*
X221718142Y-64097819D01*
X221718142Y-64097819D02*
X221575285Y-64145438D01*
X221575285Y-64145438D02*
X221527666Y-64193057D01*
X221194332Y-64097819D02*
X220527666Y-64097819D01*
X220527666Y-64097819D02*
X220956237Y-65097819D01*
X222709166Y-74853580D02*
X222756785Y-74901200D01*
X222756785Y-74901200D02*
X222899642Y-74948819D01*
X222899642Y-74948819D02*
X222994880Y-74948819D01*
X222994880Y-74948819D02*
X223137737Y-74901200D01*
X223137737Y-74901200D02*
X223232975Y-74805961D01*
X223232975Y-74805961D02*
X223280594Y-74710723D01*
X223280594Y-74710723D02*
X223328213Y-74520247D01*
X223328213Y-74520247D02*
X223328213Y-74377390D01*
X223328213Y-74377390D02*
X223280594Y-74186914D01*
X223280594Y-74186914D02*
X223232975Y-74091676D01*
X223232975Y-74091676D02*
X223137737Y-73996438D01*
X223137737Y-73996438D02*
X222994880Y-73948819D01*
X222994880Y-73948819D02*
X222899642Y-73948819D01*
X222899642Y-73948819D02*
X222756785Y-73996438D01*
X222756785Y-73996438D02*
X222709166Y-74044057D01*
X221852023Y-73948819D02*
X222042499Y-73948819D01*
X222042499Y-73948819D02*
X222137737Y-73996438D01*
X222137737Y-73996438D02*
X222185356Y-74044057D01*
X222185356Y-74044057D02*
X222280594Y-74186914D01*
X222280594Y-74186914D02*
X222328213Y-74377390D01*
X222328213Y-74377390D02*
X222328213Y-74758342D01*
X222328213Y-74758342D02*
X222280594Y-74853580D01*
X222280594Y-74853580D02*
X222232975Y-74901200D01*
X222232975Y-74901200D02*
X222137737Y-74948819D01*
X222137737Y-74948819D02*
X221947261Y-74948819D01*
X221947261Y-74948819D02*
X221852023Y-74901200D01*
X221852023Y-74901200D02*
X221804404Y-74853580D01*
X221804404Y-74853580D02*
X221756785Y-74758342D01*
X221756785Y-74758342D02*
X221756785Y-74520247D01*
X221756785Y-74520247D02*
X221804404Y-74425009D01*
X221804404Y-74425009D02*
X221852023Y-74377390D01*
X221852023Y-74377390D02*
X221947261Y-74329771D01*
X221947261Y-74329771D02*
X222137737Y-74329771D01*
X222137737Y-74329771D02*
X222232975Y-74377390D01*
X222232975Y-74377390D02*
X222280594Y-74425009D01*
X222280594Y-74425009D02*
X222328213Y-74520247D01*
X208954666Y-67161580D02*
X209002285Y-67209200D01*
X209002285Y-67209200D02*
X209145142Y-67256819D01*
X209145142Y-67256819D02*
X209240380Y-67256819D01*
X209240380Y-67256819D02*
X209383237Y-67209200D01*
X209383237Y-67209200D02*
X209478475Y-67113961D01*
X209478475Y-67113961D02*
X209526094Y-67018723D01*
X209526094Y-67018723D02*
X209573713Y-66828247D01*
X209573713Y-66828247D02*
X209573713Y-66685390D01*
X209573713Y-66685390D02*
X209526094Y-66494914D01*
X209526094Y-66494914D02*
X209478475Y-66399676D01*
X209478475Y-66399676D02*
X209383237Y-66304438D01*
X209383237Y-66304438D02*
X209240380Y-66256819D01*
X209240380Y-66256819D02*
X209145142Y-66256819D01*
X209145142Y-66256819D02*
X209002285Y-66304438D01*
X209002285Y-66304438D02*
X208954666Y-66352057D01*
X208049904Y-66256819D02*
X208526094Y-66256819D01*
X208526094Y-66256819D02*
X208573713Y-66733009D01*
X208573713Y-66733009D02*
X208526094Y-66685390D01*
X208526094Y-66685390D02*
X208430856Y-66637771D01*
X208430856Y-66637771D02*
X208192761Y-66637771D01*
X208192761Y-66637771D02*
X208097523Y-66685390D01*
X208097523Y-66685390D02*
X208049904Y-66733009D01*
X208049904Y-66733009D02*
X208002285Y-66828247D01*
X208002285Y-66828247D02*
X208002285Y-67066342D01*
X208002285Y-67066342D02*
X208049904Y-67161580D01*
X208049904Y-67161580D02*
X208097523Y-67209200D01*
X208097523Y-67209200D02*
X208192761Y-67256819D01*
X208192761Y-67256819D02*
X208430856Y-67256819D01*
X208430856Y-67256819D02*
X208526094Y-67209200D01*
X208526094Y-67209200D02*
X208573713Y-67161580D01*
X231127666Y-55572819D02*
X231460999Y-55096628D01*
X231699094Y-55572819D02*
X231699094Y-54572819D01*
X231699094Y-54572819D02*
X231318142Y-54572819D01*
X231318142Y-54572819D02*
X231222904Y-54620438D01*
X231222904Y-54620438D02*
X231175285Y-54668057D01*
X231175285Y-54668057D02*
X231127666Y-54763295D01*
X231127666Y-54763295D02*
X231127666Y-54906152D01*
X231127666Y-54906152D02*
X231175285Y-55001390D01*
X231175285Y-55001390D02*
X231222904Y-55049009D01*
X231222904Y-55049009D02*
X231318142Y-55096628D01*
X231318142Y-55096628D02*
X231699094Y-55096628D01*
X230270523Y-54572819D02*
X230460999Y-54572819D01*
X230460999Y-54572819D02*
X230556237Y-54620438D01*
X230556237Y-54620438D02*
X230603856Y-54668057D01*
X230603856Y-54668057D02*
X230699094Y-54810914D01*
X230699094Y-54810914D02*
X230746713Y-55001390D01*
X230746713Y-55001390D02*
X230746713Y-55382342D01*
X230746713Y-55382342D02*
X230699094Y-55477580D01*
X230699094Y-55477580D02*
X230651475Y-55525200D01*
X230651475Y-55525200D02*
X230556237Y-55572819D01*
X230556237Y-55572819D02*
X230365761Y-55572819D01*
X230365761Y-55572819D02*
X230270523Y-55525200D01*
X230270523Y-55525200D02*
X230222904Y-55477580D01*
X230222904Y-55477580D02*
X230175285Y-55382342D01*
X230175285Y-55382342D02*
X230175285Y-55144247D01*
X230175285Y-55144247D02*
X230222904Y-55049009D01*
X230222904Y-55049009D02*
X230270523Y-55001390D01*
X230270523Y-55001390D02*
X230365761Y-54953771D01*
X230365761Y-54953771D02*
X230556237Y-54953771D01*
X230556237Y-54953771D02*
X230651475Y-55001390D01*
X230651475Y-55001390D02*
X230699094Y-55049009D01*
X230699094Y-55049009D02*
X230746713Y-55144247D01*
X220503819Y-43071142D02*
X220027628Y-42737809D01*
X220503819Y-42499714D02*
X219503819Y-42499714D01*
X219503819Y-42499714D02*
X219503819Y-42880666D01*
X219503819Y-42880666D02*
X219551438Y-42975904D01*
X219551438Y-42975904D02*
X219599057Y-43023523D01*
X219599057Y-43023523D02*
X219694295Y-43071142D01*
X219694295Y-43071142D02*
X219837152Y-43071142D01*
X219837152Y-43071142D02*
X219932390Y-43023523D01*
X219932390Y-43023523D02*
X219980009Y-42975904D01*
X219980009Y-42975904D02*
X220027628Y-42880666D01*
X220027628Y-42880666D02*
X220027628Y-42499714D01*
X220503819Y-44023523D02*
X220503819Y-43452095D01*
X220503819Y-43737809D02*
X219503819Y-43737809D01*
X219503819Y-43737809D02*
X219646676Y-43642571D01*
X219646676Y-43642571D02*
X219741914Y-43547333D01*
X219741914Y-43547333D02*
X219789533Y-43452095D01*
X219503819Y-44642571D02*
X219503819Y-44737809D01*
X219503819Y-44737809D02*
X219551438Y-44833047D01*
X219551438Y-44833047D02*
X219599057Y-44880666D01*
X219599057Y-44880666D02*
X219694295Y-44928285D01*
X219694295Y-44928285D02*
X219884771Y-44975904D01*
X219884771Y-44975904D02*
X220122866Y-44975904D01*
X220122866Y-44975904D02*
X220313342Y-44928285D01*
X220313342Y-44928285D02*
X220408580Y-44880666D01*
X220408580Y-44880666D02*
X220456200Y-44833047D01*
X220456200Y-44833047D02*
X220503819Y-44737809D01*
X220503819Y-44737809D02*
X220503819Y-44642571D01*
X220503819Y-44642571D02*
X220456200Y-44547333D01*
X220456200Y-44547333D02*
X220408580Y-44499714D01*
X220408580Y-44499714D02*
X220313342Y-44452095D01*
X220313342Y-44452095D02*
X220122866Y-44404476D01*
X220122866Y-44404476D02*
X219884771Y-44404476D01*
X219884771Y-44404476D02*
X219694295Y-44452095D01*
X219694295Y-44452095D02*
X219599057Y-44499714D01*
X219599057Y-44499714D02*
X219551438Y-44547333D01*
X219551438Y-44547333D02*
X219503819Y-44642571D01*
X231248857Y-74622819D02*
X231582190Y-74146628D01*
X231820285Y-74622819D02*
X231820285Y-73622819D01*
X231820285Y-73622819D02*
X231439333Y-73622819D01*
X231439333Y-73622819D02*
X231344095Y-73670438D01*
X231344095Y-73670438D02*
X231296476Y-73718057D01*
X231296476Y-73718057D02*
X231248857Y-73813295D01*
X231248857Y-73813295D02*
X231248857Y-73956152D01*
X231248857Y-73956152D02*
X231296476Y-74051390D01*
X231296476Y-74051390D02*
X231344095Y-74099009D01*
X231344095Y-74099009D02*
X231439333Y-74146628D01*
X231439333Y-74146628D02*
X231820285Y-74146628D01*
X230296476Y-74622819D02*
X230867904Y-74622819D01*
X230582190Y-74622819D02*
X230582190Y-73622819D01*
X230582190Y-73622819D02*
X230677428Y-73765676D01*
X230677428Y-73765676D02*
X230772666Y-73860914D01*
X230772666Y-73860914D02*
X230867904Y-73908533D01*
X229963142Y-73622819D02*
X229344095Y-73622819D01*
X229344095Y-73622819D02*
X229677428Y-74003771D01*
X229677428Y-74003771D02*
X229534571Y-74003771D01*
X229534571Y-74003771D02*
X229439333Y-74051390D01*
X229439333Y-74051390D02*
X229391714Y-74099009D01*
X229391714Y-74099009D02*
X229344095Y-74194247D01*
X229344095Y-74194247D02*
X229344095Y-74432342D01*
X229344095Y-74432342D02*
X229391714Y-74527580D01*
X229391714Y-74527580D02*
X229439333Y-74575200D01*
X229439333Y-74575200D02*
X229534571Y-74622819D01*
X229534571Y-74622819D02*
X229820285Y-74622819D01*
X229820285Y-74622819D02*
X229915523Y-74575200D01*
X229915523Y-74575200D02*
X229963142Y-74527580D01*
X206922666Y-47952819D02*
X207255999Y-47476628D01*
X207494094Y-47952819D02*
X207494094Y-46952819D01*
X207494094Y-46952819D02*
X207113142Y-46952819D01*
X207113142Y-46952819D02*
X207017904Y-47000438D01*
X207017904Y-47000438D02*
X206970285Y-47048057D01*
X206970285Y-47048057D02*
X206922666Y-47143295D01*
X206922666Y-47143295D02*
X206922666Y-47286152D01*
X206922666Y-47286152D02*
X206970285Y-47381390D01*
X206970285Y-47381390D02*
X207017904Y-47429009D01*
X207017904Y-47429009D02*
X207113142Y-47476628D01*
X207113142Y-47476628D02*
X207494094Y-47476628D01*
X206065523Y-47286152D02*
X206065523Y-47952819D01*
X206303618Y-46905200D02*
X206541713Y-47619485D01*
X206541713Y-47619485D02*
X205922666Y-47619485D01*
X231375857Y-72209819D02*
X231709190Y-71733628D01*
X231947285Y-72209819D02*
X231947285Y-71209819D01*
X231947285Y-71209819D02*
X231566333Y-71209819D01*
X231566333Y-71209819D02*
X231471095Y-71257438D01*
X231471095Y-71257438D02*
X231423476Y-71305057D01*
X231423476Y-71305057D02*
X231375857Y-71400295D01*
X231375857Y-71400295D02*
X231375857Y-71543152D01*
X231375857Y-71543152D02*
X231423476Y-71638390D01*
X231423476Y-71638390D02*
X231471095Y-71686009D01*
X231471095Y-71686009D02*
X231566333Y-71733628D01*
X231566333Y-71733628D02*
X231947285Y-71733628D01*
X230423476Y-72209819D02*
X230994904Y-72209819D01*
X230709190Y-72209819D02*
X230709190Y-71209819D01*
X230709190Y-71209819D02*
X230804428Y-71352676D01*
X230804428Y-71352676D02*
X230899666Y-71447914D01*
X230899666Y-71447914D02*
X230994904Y-71495533D01*
X229566333Y-71543152D02*
X229566333Y-72209819D01*
X229804428Y-71162200D02*
X230042523Y-71876485D01*
X230042523Y-71876485D02*
X229423476Y-71876485D01*
X206922666Y-51508819D02*
X207255999Y-51032628D01*
X207494094Y-51508819D02*
X207494094Y-50508819D01*
X207494094Y-50508819D02*
X207113142Y-50508819D01*
X207113142Y-50508819D02*
X207017904Y-50556438D01*
X207017904Y-50556438D02*
X206970285Y-50604057D01*
X206970285Y-50604057D02*
X206922666Y-50699295D01*
X206922666Y-50699295D02*
X206922666Y-50842152D01*
X206922666Y-50842152D02*
X206970285Y-50937390D01*
X206970285Y-50937390D02*
X207017904Y-50985009D01*
X207017904Y-50985009D02*
X207113142Y-51032628D01*
X207113142Y-51032628D02*
X207494094Y-51032628D01*
X205970285Y-51508819D02*
X206541713Y-51508819D01*
X206255999Y-51508819D02*
X206255999Y-50508819D01*
X206255999Y-50508819D02*
X206351237Y-50651676D01*
X206351237Y-50651676D02*
X206446475Y-50746914D01*
X206446475Y-50746914D02*
X206541713Y-50794533D01*
X206922666Y-42618819D02*
X207255999Y-42142628D01*
X207494094Y-42618819D02*
X207494094Y-41618819D01*
X207494094Y-41618819D02*
X207113142Y-41618819D01*
X207113142Y-41618819D02*
X207017904Y-41666438D01*
X207017904Y-41666438D02*
X206970285Y-41714057D01*
X206970285Y-41714057D02*
X206922666Y-41809295D01*
X206922666Y-41809295D02*
X206922666Y-41952152D01*
X206922666Y-41952152D02*
X206970285Y-42047390D01*
X206970285Y-42047390D02*
X207017904Y-42095009D01*
X207017904Y-42095009D02*
X207113142Y-42142628D01*
X207113142Y-42142628D02*
X207494094Y-42142628D01*
X206589332Y-41618819D02*
X205970285Y-41618819D01*
X205970285Y-41618819D02*
X206303618Y-41999771D01*
X206303618Y-41999771D02*
X206160761Y-41999771D01*
X206160761Y-41999771D02*
X206065523Y-42047390D01*
X206065523Y-42047390D02*
X206017904Y-42095009D01*
X206017904Y-42095009D02*
X205970285Y-42190247D01*
X205970285Y-42190247D02*
X205970285Y-42428342D01*
X205970285Y-42428342D02*
X206017904Y-42523580D01*
X206017904Y-42523580D02*
X206065523Y-42571200D01*
X206065523Y-42571200D02*
X206160761Y-42618819D01*
X206160761Y-42618819D02*
X206446475Y-42618819D01*
X206446475Y-42618819D02*
X206541713Y-42571200D01*
X206541713Y-42571200D02*
X206589332Y-42523580D01*
X231401857Y-53159819D02*
X231735190Y-52683628D01*
X231973285Y-53159819D02*
X231973285Y-52159819D01*
X231973285Y-52159819D02*
X231592333Y-52159819D01*
X231592333Y-52159819D02*
X231497095Y-52207438D01*
X231497095Y-52207438D02*
X231449476Y-52255057D01*
X231449476Y-52255057D02*
X231401857Y-52350295D01*
X231401857Y-52350295D02*
X231401857Y-52493152D01*
X231401857Y-52493152D02*
X231449476Y-52588390D01*
X231449476Y-52588390D02*
X231497095Y-52636009D01*
X231497095Y-52636009D02*
X231592333Y-52683628D01*
X231592333Y-52683628D02*
X231973285Y-52683628D01*
X230449476Y-53159819D02*
X231020904Y-53159819D01*
X230735190Y-53159819D02*
X230735190Y-52159819D01*
X230735190Y-52159819D02*
X230830428Y-52302676D01*
X230830428Y-52302676D02*
X230925666Y-52397914D01*
X230925666Y-52397914D02*
X231020904Y-52445533D01*
X229544714Y-52159819D02*
X230020904Y-52159819D01*
X230020904Y-52159819D02*
X230068523Y-52636009D01*
X230068523Y-52636009D02*
X230020904Y-52588390D01*
X230020904Y-52588390D02*
X229925666Y-52540771D01*
X229925666Y-52540771D02*
X229687571Y-52540771D01*
X229687571Y-52540771D02*
X229592333Y-52588390D01*
X229592333Y-52588390D02*
X229544714Y-52636009D01*
X229544714Y-52636009D02*
X229497095Y-52731247D01*
X229497095Y-52731247D02*
X229497095Y-52969342D01*
X229497095Y-52969342D02*
X229544714Y-53064580D01*
X229544714Y-53064580D02*
X229592333Y-53112200D01*
X229592333Y-53112200D02*
X229687571Y-53159819D01*
X229687571Y-53159819D02*
X229925666Y-53159819D01*
X229925666Y-53159819D02*
X230020904Y-53112200D01*
X230020904Y-53112200D02*
X230068523Y-53064580D01*
X206922666Y-45158819D02*
X207255999Y-44682628D01*
X207494094Y-45158819D02*
X207494094Y-44158819D01*
X207494094Y-44158819D02*
X207113142Y-44158819D01*
X207113142Y-44158819D02*
X207017904Y-44206438D01*
X207017904Y-44206438D02*
X206970285Y-44254057D01*
X206970285Y-44254057D02*
X206922666Y-44349295D01*
X206922666Y-44349295D02*
X206922666Y-44492152D01*
X206922666Y-44492152D02*
X206970285Y-44587390D01*
X206970285Y-44587390D02*
X207017904Y-44635009D01*
X207017904Y-44635009D02*
X207113142Y-44682628D01*
X207113142Y-44682628D02*
X207494094Y-44682628D01*
X206541713Y-44254057D02*
X206494094Y-44206438D01*
X206494094Y-44206438D02*
X206398856Y-44158819D01*
X206398856Y-44158819D02*
X206160761Y-44158819D01*
X206160761Y-44158819D02*
X206065523Y-44206438D01*
X206065523Y-44206438D02*
X206017904Y-44254057D01*
X206017904Y-44254057D02*
X205970285Y-44349295D01*
X205970285Y-44349295D02*
X205970285Y-44444533D01*
X205970285Y-44444533D02*
X206017904Y-44587390D01*
X206017904Y-44587390D02*
X206589332Y-45158819D01*
X206589332Y-45158819D02*
X205970285Y-45158819D01*
X221241857Y-57985819D02*
X221575190Y-57509628D01*
X221813285Y-57985819D02*
X221813285Y-56985819D01*
X221813285Y-56985819D02*
X221432333Y-56985819D01*
X221432333Y-56985819D02*
X221337095Y-57033438D01*
X221337095Y-57033438D02*
X221289476Y-57081057D01*
X221289476Y-57081057D02*
X221241857Y-57176295D01*
X221241857Y-57176295D02*
X221241857Y-57319152D01*
X221241857Y-57319152D02*
X221289476Y-57414390D01*
X221289476Y-57414390D02*
X221337095Y-57462009D01*
X221337095Y-57462009D02*
X221432333Y-57509628D01*
X221432333Y-57509628D02*
X221813285Y-57509628D01*
X220289476Y-57985819D02*
X220860904Y-57985819D01*
X220575190Y-57985819D02*
X220575190Y-56985819D01*
X220575190Y-56985819D02*
X220670428Y-57128676D01*
X220670428Y-57128676D02*
X220765666Y-57223914D01*
X220765666Y-57223914D02*
X220860904Y-57271533D01*
X219337095Y-57985819D02*
X219908523Y-57985819D01*
X219622809Y-57985819D02*
X219622809Y-56985819D01*
X219622809Y-56985819D02*
X219718047Y-57128676D01*
X219718047Y-57128676D02*
X219813285Y-57223914D01*
X219813285Y-57223914D02*
X219908523Y-57271533D01*
X231127666Y-57985819D02*
X231460999Y-57509628D01*
X231699094Y-57985819D02*
X231699094Y-56985819D01*
X231699094Y-56985819D02*
X231318142Y-56985819D01*
X231318142Y-56985819D02*
X231222904Y-57033438D01*
X231222904Y-57033438D02*
X231175285Y-57081057D01*
X231175285Y-57081057D02*
X231127666Y-57176295D01*
X231127666Y-57176295D02*
X231127666Y-57319152D01*
X231127666Y-57319152D02*
X231175285Y-57414390D01*
X231175285Y-57414390D02*
X231222904Y-57462009D01*
X231222904Y-57462009D02*
X231318142Y-57509628D01*
X231318142Y-57509628D02*
X231699094Y-57509628D01*
X230794332Y-56985819D02*
X230127666Y-56985819D01*
X230127666Y-56985819D02*
X230556237Y-57985819D01*
X207176666Y-54048819D02*
X207509999Y-53572628D01*
X207748094Y-54048819D02*
X207748094Y-53048819D01*
X207748094Y-53048819D02*
X207367142Y-53048819D01*
X207367142Y-53048819D02*
X207271904Y-53096438D01*
X207271904Y-53096438D02*
X207224285Y-53144057D01*
X207224285Y-53144057D02*
X207176666Y-53239295D01*
X207176666Y-53239295D02*
X207176666Y-53382152D01*
X207176666Y-53382152D02*
X207224285Y-53477390D01*
X207224285Y-53477390D02*
X207271904Y-53525009D01*
X207271904Y-53525009D02*
X207367142Y-53572628D01*
X207367142Y-53572628D02*
X207748094Y-53572628D01*
X206271904Y-53048819D02*
X206748094Y-53048819D01*
X206748094Y-53048819D02*
X206795713Y-53525009D01*
X206795713Y-53525009D02*
X206748094Y-53477390D01*
X206748094Y-53477390D02*
X206652856Y-53429771D01*
X206652856Y-53429771D02*
X206414761Y-53429771D01*
X206414761Y-53429771D02*
X206319523Y-53477390D01*
X206319523Y-53477390D02*
X206271904Y-53525009D01*
X206271904Y-53525009D02*
X206224285Y-53620247D01*
X206224285Y-53620247D02*
X206224285Y-53858342D01*
X206224285Y-53858342D02*
X206271904Y-53953580D01*
X206271904Y-53953580D02*
X206319523Y-54001200D01*
X206319523Y-54001200D02*
X206414761Y-54048819D01*
X206414761Y-54048819D02*
X206652856Y-54048819D01*
X206652856Y-54048819D02*
X206748094Y-54001200D01*
X206748094Y-54001200D02*
X206795713Y-53953580D01*
X231427857Y-77162819D02*
X231761190Y-76686628D01*
X231999285Y-77162819D02*
X231999285Y-76162819D01*
X231999285Y-76162819D02*
X231618333Y-76162819D01*
X231618333Y-76162819D02*
X231523095Y-76210438D01*
X231523095Y-76210438D02*
X231475476Y-76258057D01*
X231475476Y-76258057D02*
X231427857Y-76353295D01*
X231427857Y-76353295D02*
X231427857Y-76496152D01*
X231427857Y-76496152D02*
X231475476Y-76591390D01*
X231475476Y-76591390D02*
X231523095Y-76639009D01*
X231523095Y-76639009D02*
X231618333Y-76686628D01*
X231618333Y-76686628D02*
X231999285Y-76686628D01*
X230475476Y-77162819D02*
X231046904Y-77162819D01*
X230761190Y-77162819D02*
X230761190Y-76162819D01*
X230761190Y-76162819D02*
X230856428Y-76305676D01*
X230856428Y-76305676D02*
X230951666Y-76400914D01*
X230951666Y-76400914D02*
X231046904Y-76448533D01*
X230094523Y-76258057D02*
X230046904Y-76210438D01*
X230046904Y-76210438D02*
X229951666Y-76162819D01*
X229951666Y-76162819D02*
X229713571Y-76162819D01*
X229713571Y-76162819D02*
X229618333Y-76210438D01*
X229618333Y-76210438D02*
X229570714Y-76258057D01*
X229570714Y-76258057D02*
X229523095Y-76353295D01*
X229523095Y-76353295D02*
X229523095Y-76448533D01*
X229523095Y-76448533D02*
X229570714Y-76591390D01*
X229570714Y-76591390D02*
X230142142Y-77162819D01*
X230142142Y-77162819D02*
X229523095Y-77162819D01*
D11*
%TO.C,R17*%
X233994936Y-58780000D02*
X235449064Y-58780000D01*
X233994936Y-60600000D02*
X235449064Y-60600000D01*
%TO.C,R16*%
X233994936Y-62590000D02*
X235449064Y-62590000D01*
X233994936Y-64410000D02*
X235449064Y-64410000D01*
%TO.C,R9*%
X233968936Y-65384000D02*
X235423064Y-65384000D01*
X233968936Y-67204000D02*
X235423064Y-67204000D01*
%TO.C,R8*%
X233942936Y-67924000D02*
X235397064Y-67924000D01*
X233942936Y-69744000D02*
X235397064Y-69744000D01*
%TO.C,U4*%
X205008000Y-75292000D02*
X201248000Y-75292000D01*
X205008000Y-68472000D02*
X201248000Y-68472000D01*
X205008000Y-74032000D02*
X205008000Y-75292000D01*
X205008000Y-69732000D02*
X205008000Y-68472000D01*
X200208000Y-75522000D02*
X199728000Y-75522000D01*
X199968000Y-75192000D01*
X200208000Y-75522000D01*
G36*
X200208000Y-75522000D02*
G01*
X199728000Y-75522000D01*
X199968000Y-75192000D01*
X200208000Y-75522000D01*
G37*
%TO.C,C9*%
X205650752Y-77872000D02*
X204228248Y-77872000D01*
X205650752Y-76052000D02*
X204228248Y-76052000D01*
%TO.C,C8*%
X224294248Y-59034000D02*
X225716752Y-59034000D01*
X224294248Y-60854000D02*
X225716752Y-60854000D01*
%TO.C,C7*%
X224294248Y-63860000D02*
X225716752Y-63860000D01*
X224294248Y-65680000D02*
X225716752Y-65680000D01*
%TO.C,C6*%
X223253752Y-73554000D02*
X221831248Y-73554000D01*
X223253752Y-71734000D02*
X221831248Y-71734000D01*
%TO.C,C5*%
X205650752Y-67712000D02*
X204228248Y-67712000D01*
X205650752Y-65892000D02*
X204228248Y-65892000D01*
%TO.C,R6*%
X233942936Y-54208000D02*
X235397064Y-54208000D01*
X233942936Y-56028000D02*
X235397064Y-56028000D01*
%TO.C,R10*%
X220959000Y-44441064D02*
X220959000Y-42986936D01*
X222779000Y-44441064D02*
X222779000Y-42986936D01*
%TO.C,R13*%
X233968936Y-73258000D02*
X235423064Y-73258000D01*
X233968936Y-75078000D02*
X235423064Y-75078000D01*
%TO.C,R4*%
X203901064Y-48408000D02*
X202446936Y-48408000D01*
X203901064Y-46588000D02*
X202446936Y-46588000D01*
%TO.C,R14*%
X233968936Y-72538000D02*
X235423064Y-72538000D01*
X233968936Y-70718000D02*
X235423064Y-70718000D01*
%TO.C,R1*%
X203901064Y-51710000D02*
X202446936Y-51710000D01*
X203901064Y-49890000D02*
X202446936Y-49890000D01*
%TO.C,R3*%
X203901064Y-41254000D02*
X202446936Y-41254000D01*
X203901064Y-43074000D02*
X202446936Y-43074000D01*
%TO.C,R15*%
X233942936Y-51922000D02*
X235397064Y-51922000D01*
X233942936Y-53742000D02*
X235397064Y-53742000D01*
%TO.C,R2*%
X203901064Y-45614000D02*
X202446936Y-45614000D01*
X203901064Y-43794000D02*
X202446936Y-43794000D01*
%TO.C,R11*%
X224215936Y-58441000D02*
X225670064Y-58441000D01*
X224215936Y-56621000D02*
X225670064Y-56621000D01*
%TO.C,R7*%
X233942936Y-56494000D02*
X235397064Y-56494000D01*
X233942936Y-58314000D02*
X235397064Y-58314000D01*
%TO.C,R5*%
X203901064Y-54504000D02*
X202446936Y-54504000D01*
X203901064Y-52684000D02*
X202446936Y-52684000D01*
%TO.C,R12*%
X233968936Y-75798000D02*
X235423064Y-75798000D01*
X233968936Y-77618000D02*
X235423064Y-77618000D01*
%TD*%
M02*
