%TF.GenerationSoftware,KiCad,Pcbnew,8.0.7-8.0.7-0~ubuntu22.04.1*%
%TF.CreationDate,2024-12-25T22:08:59+01:00*%
%TF.ProjectId,IEC_Extension,4945435f-4578-4746-956e-73696f6e2e6b,rev?*%
%TF.SameCoordinates,Original*%
%TF.FileFunction,Soldermask,Bot*%
%TF.FilePolarity,Negative*%
%FSLAX46Y46*%
G04 Gerber Fmt 4.6, Leading zero omitted, Abs format (unit mm)*
G04 Created by KiCad (PCBNEW 8.0.7-8.0.7-0~ubuntu22.04.1) date 2024-12-25 22:08:59*
%MOMM*%
%LPD*%
G01*
G04 APERTURE LIST*
G04 Aperture macros list*
%AMRoundRect*
0 Rectangle with rounded corners*
0 $1 Rounding radius*
0 $2 $3 $4 $5 $6 $7 $8 $9 X,Y pos of 4 corners*
0 Add a 4 corners polygon primitive as box body*
4,1,4,$2,$3,$4,$5,$6,$7,$8,$9,$2,$3,0*
0 Add four circle primitives for the rounded corners*
1,1,$1+$1,$2,$3*
1,1,$1+$1,$4,$5*
1,1,$1+$1,$6,$7*
1,1,$1+$1,$8,$9*
0 Add four rect primitives between the rounded corners*
20,1,$1+$1,$2,$3,$4,$5,0*
20,1,$1+$1,$4,$5,$6,$7,0*
20,1,$1+$1,$6,$7,$8,$9,0*
20,1,$1+$1,$8,$9,$2,$3,0*%
G04 Aperture macros list end*
%ADD10RoundRect,0.250000X0.400000X0.625000X-0.400000X0.625000X-0.400000X-0.625000X0.400000X-0.625000X0*%
%ADD11O,2.000000X1.524000*%
%ADD12O,1.524000X2.000000*%
%ADD13RoundRect,0.375000X-0.625000X-0.375000X0.625000X-0.375000X0.625000X0.375000X-0.625000X0.375000X0*%
%ADD14RoundRect,0.500000X-0.500000X-1.400000X0.500000X-1.400000X0.500000X1.400000X-0.500000X1.400000X0*%
%ADD15R,1.700000X1.700000*%
%ADD16O,1.700000X1.700000*%
%ADD17RoundRect,0.250000X-0.412500X-0.650000X0.412500X-0.650000X0.412500X0.650000X-0.412500X0.650000X0*%
%ADD18RoundRect,0.250000X0.412500X0.650000X-0.412500X0.650000X-0.412500X-0.650000X0.412500X-0.650000X0*%
%ADD19RoundRect,0.250000X-0.625000X0.400000X-0.625000X-0.400000X0.625000X-0.400000X0.625000X0.400000X0*%
%ADD20RoundRect,0.250000X-0.400000X-0.625000X0.400000X-0.625000X0.400000X0.625000X-0.400000X0.625000X0*%
G04 APERTURE END LIST*
D10*
%TO.C,R17*%
X236272000Y-59690000D03*
X233172000Y-59690000D03*
%TD*%
%TO.C,R16*%
X236272000Y-63500000D03*
X233172000Y-63500000D03*
%TD*%
%TO.C,R9*%
X236246000Y-66294000D03*
X233146000Y-66294000D03*
%TD*%
%TO.C,R8*%
X236220000Y-68834000D03*
X233120000Y-68834000D03*
%TD*%
D11*
%TO.C,J2*%
X211636000Y-45880000D03*
X211636000Y-55880000D03*
X209136000Y-43380000D03*
X209136000Y-58380000D03*
D12*
X199136000Y-45880000D03*
X199136000Y-55880000D03*
D11*
X209136000Y-50880000D03*
D12*
X214136000Y-50880000D03*
%TD*%
D11*
%TO.C,J1*%
X211636000Y-66962000D03*
X211636000Y-76962000D03*
X209136000Y-64462000D03*
X209136000Y-79462000D03*
D12*
X199136000Y-66962000D03*
X199136000Y-76962000D03*
D11*
X209136000Y-71962000D03*
D12*
X214136000Y-71962000D03*
%TD*%
D13*
%TO.C,U4*%
X199948000Y-74182000D03*
X199948000Y-71882000D03*
D14*
X206248000Y-71882000D03*
D13*
X199948000Y-69582000D03*
%TD*%
D15*
%TO.C,J3*%
X228080000Y-77960000D03*
D16*
X228080000Y-80500000D03*
X225540000Y-77960000D03*
X225540000Y-80500000D03*
X223000000Y-77960000D03*
X223000000Y-80500000D03*
X220460000Y-77960000D03*
X220460000Y-80500000D03*
X217920000Y-77960000D03*
X217920000Y-80500000D03*
%TD*%
D17*
%TO.C,C9*%
X203377000Y-76962000D03*
X206502000Y-76962000D03*
%TD*%
D18*
%TO.C,C8*%
X226568000Y-59944000D03*
X223443000Y-59944000D03*
%TD*%
%TO.C,C7*%
X226568000Y-64770000D03*
X223443000Y-64770000D03*
%TD*%
D17*
%TO.C,C6*%
X220980000Y-72644000D03*
X224105000Y-72644000D03*
%TD*%
%TO.C,C5*%
X203377000Y-66802000D03*
X206502000Y-66802000D03*
%TD*%
D10*
%TO.C,R6*%
X236220000Y-55118000D03*
X233120000Y-55118000D03*
%TD*%
D19*
%TO.C,R10*%
X221869000Y-42164000D03*
X221869000Y-45264000D03*
%TD*%
D10*
%TO.C,R13*%
X236246000Y-74168000D03*
X233146000Y-74168000D03*
%TD*%
D20*
%TO.C,R4*%
X201624000Y-47498000D03*
X204724000Y-47498000D03*
%TD*%
D10*
%TO.C,R14*%
X233146000Y-71628000D03*
X236246000Y-71628000D03*
%TD*%
D20*
%TO.C,R1*%
X201624000Y-50800000D03*
X204724000Y-50800000D03*
%TD*%
%TO.C,R3*%
X204724000Y-42164000D03*
X201624000Y-42164000D03*
%TD*%
D10*
%TO.C,R15*%
X236220000Y-52832000D03*
X233120000Y-52832000D03*
%TD*%
D20*
%TO.C,R2*%
X201624000Y-44704000D03*
X204724000Y-44704000D03*
%TD*%
D10*
%TO.C,R11*%
X223393000Y-57531000D03*
X226493000Y-57531000D03*
%TD*%
%TO.C,R7*%
X236220000Y-57404000D03*
X233120000Y-57404000D03*
%TD*%
D20*
%TO.C,R5*%
X201624000Y-53594000D03*
X204724000Y-53594000D03*
%TD*%
D15*
%TO.C,J4*%
X239141000Y-44704000D03*
D16*
X241681000Y-44704000D03*
X239141000Y-47244000D03*
X241681000Y-47244000D03*
X239141000Y-49784000D03*
X241681000Y-49784000D03*
X239141000Y-52324000D03*
X241681000Y-52324000D03*
X239141000Y-54864000D03*
X241681000Y-54864000D03*
X239141000Y-57404000D03*
X241681000Y-57404000D03*
X239141000Y-59944000D03*
X241681000Y-59944000D03*
X239141000Y-62484000D03*
X241681000Y-62484000D03*
X239141000Y-65024000D03*
X241681000Y-65024000D03*
X239141000Y-67564000D03*
X241681000Y-67564000D03*
X239141000Y-70104000D03*
X241681000Y-70104000D03*
X239141000Y-72644000D03*
X241681000Y-72644000D03*
X239141000Y-75184000D03*
X241681000Y-75184000D03*
X239141000Y-77724000D03*
X241681000Y-77724000D03*
%TD*%
D10*
%TO.C,R12*%
X236246000Y-76708000D03*
X233146000Y-76708000D03*
%TD*%
M02*
