%TF.GenerationSoftware,KiCad,Pcbnew,8.0.7-8.0.7-0~ubuntu22.04.1*%
%TF.CreationDate,2024-12-25T22:08:59+01:00*%
%TF.ProjectId,IEC_Extension,4945435f-4578-4746-956e-73696f6e2e6b,rev?*%
%TF.SameCoordinates,Original*%
%TF.FileFunction,Paste,Top*%
%TF.FilePolarity,Positive*%
%FSLAX46Y46*%
G04 Gerber Fmt 4.6, Leading zero omitted, Abs format (unit mm)*
G04 Created by KiCad (PCBNEW 8.0.7-8.0.7-0~ubuntu22.04.1) date 2024-12-25 22:08:59*
%MOMM*%
%LPD*%
G01*
G04 APERTURE LIST*
G04 Aperture macros list*
%AMRoundRect*
0 Rectangle with rounded corners*
0 $1 Rounding radius*
0 $2 $3 $4 $5 $6 $7 $8 $9 X,Y pos of 4 corners*
0 Add a 4 corners polygon primitive as box body*
4,1,4,$2,$3,$4,$5,$6,$7,$8,$9,$2,$3,0*
0 Add four circle primitives for the rounded corners*
1,1,$1+$1,$2,$3*
1,1,$1+$1,$4,$5*
1,1,$1+$1,$6,$7*
1,1,$1+$1,$8,$9*
0 Add four rect primitives between the rounded corners*
20,1,$1+$1,$2,$3,$4,$5,0*
20,1,$1+$1,$4,$5,$6,$7,0*
20,1,$1+$1,$6,$7,$8,$9,0*
20,1,$1+$1,$8,$9,$2,$3,0*%
G04 Aperture macros list end*
%ADD10R,1.500000X0.550000*%
%ADD11R,0.550000X1.500000*%
%ADD12RoundRect,0.250000X-0.650000X0.412500X-0.650000X-0.412500X0.650000X-0.412500X0.650000X0.412500X0*%
%ADD13RoundRect,0.150000X0.150000X-0.825000X0.150000X0.825000X-0.150000X0.825000X-0.150000X-0.825000X0*%
G04 APERTURE END LIST*
D10*
%TO.C,U3*%
X217807000Y-59642000D03*
X217807000Y-60442000D03*
X217807000Y-61242000D03*
X217807000Y-62042000D03*
X217807000Y-62842000D03*
X217807000Y-63642000D03*
X217807000Y-64442000D03*
X217807000Y-65242000D03*
X217807000Y-66042000D03*
X217807000Y-66842000D03*
X217807000Y-67642000D03*
D11*
X219507000Y-69342000D03*
X220307000Y-69342000D03*
X221107000Y-69342000D03*
X221907000Y-69342000D03*
X222707000Y-69342000D03*
X223507000Y-69342000D03*
X224307000Y-69342000D03*
X225107000Y-69342000D03*
X225907000Y-69342000D03*
X226707000Y-69342000D03*
X227507000Y-69342000D03*
D10*
X229207000Y-67642000D03*
X229207000Y-66842000D03*
X229207000Y-66042000D03*
X229207000Y-65242000D03*
X229207000Y-64442000D03*
X229207000Y-63642000D03*
X229207000Y-62842000D03*
X229207000Y-62042000D03*
X229207000Y-61242000D03*
X229207000Y-60442000D03*
X229207000Y-59642000D03*
D11*
X227507000Y-57942000D03*
X226707000Y-57942000D03*
X225907000Y-57942000D03*
X225107000Y-57942000D03*
X224307000Y-57942000D03*
X223507000Y-57942000D03*
X222707000Y-57942000D03*
X221907000Y-57942000D03*
X221107000Y-57942000D03*
X220307000Y-57942000D03*
X219507000Y-57942000D03*
%TD*%
D12*
%TO.C,C2*%
X214630000Y-44030500D03*
X214630000Y-47155500D03*
%TD*%
%TO.C,C1*%
X235712000Y-44627000D03*
X235712000Y-47752000D03*
%TD*%
D13*
%TO.C,U1*%
X226060000Y-48638000D03*
X227330000Y-48638000D03*
X228600000Y-48638000D03*
X229870000Y-48638000D03*
X231140000Y-48638000D03*
X232410000Y-48638000D03*
X233680000Y-48638000D03*
X233680000Y-43688000D03*
X232410000Y-43688000D03*
X231140000Y-43688000D03*
X229870000Y-43688000D03*
X228600000Y-43688000D03*
X227330000Y-43688000D03*
X226060000Y-43688000D03*
%TD*%
%TO.C,U2*%
X216789000Y-43688000D03*
X218059000Y-43688000D03*
X219329000Y-43688000D03*
X220599000Y-43688000D03*
X221869000Y-43688000D03*
X223139000Y-43688000D03*
X224409000Y-43688000D03*
X224409000Y-48638000D03*
X223139000Y-48638000D03*
X221869000Y-48638000D03*
X220599000Y-48638000D03*
X219329000Y-48638000D03*
X218059000Y-48638000D03*
X216789000Y-48638000D03*
%TD*%
M02*
