M48
; DRILL file {KiCad 8.0.7-8.0.7-0~ubuntu22.04.1} date 2025-01-29T22:40:40+0100
; FORMAT={-:-/ absolute / inch / decimal}
; #@! TF.CreationDate,2025-01-29T22:40:40+01:00
; #@! TF.GenerationSoftware,Kicad,Pcbnew,8.0.7-8.0.7-0~ubuntu22.04.1
; #@! TF.FileFunction,MixedPlating,1,2
FMAT,2
INCH
; #@! TA.AperFunction,Plated,PTH,ViaDrill
T1C0.0157
; #@! TA.AperFunction,Plated,PTH,ComponentDrill
T2C0.0197
; #@! TA.AperFunction,Plated,PTH,ComponentDrill
T3C0.0256
; #@! TA.AperFunction,Plated,PTH,ComponentDrill
T4C0.0315
; #@! TA.AperFunction,Plated,PTH,ComponentDrill
T5C0.0335
; #@! TA.AperFunction,Plated,PTH,ComponentDrill
T6C0.0390
; #@! TA.AperFunction,Plated,PTH,ComponentDrill
T7C0.0394
; #@! TA.AperFunction,Plated,PTH,ComponentDrill
T8C0.0433
; #@! TA.AperFunction,Plated,PTH,ComponentDrill
T9C0.0512
; #@! TA.AperFunction,NonPlated,NPTH,ComponentDrill
T10C0.1260
%
G90
G05
T1
X2.0276Y-5.561
X2.03Y-2.34
X2.05Y-4.905
X2.09Y-3.8272
X2.09Y-4.02
X2.09Y-4.24
X2.0904Y-3.3804
X2.125Y-3.29
X2.15Y-5.125
X2.165Y-5.315
X2.195Y-3.605
X2.2072Y-3.3128
X2.25Y-2.0
X2.2933Y-5.8268
X2.335Y-5.32
X2.34Y-2.61
X2.34Y-4.09
X2.49Y-4.565
X2.49Y-4.98
X2.495Y-2.61
X2.495Y-4.29
X2.5Y-3.98
X2.515Y-4.7393
X2.55Y-5.25
X2.56Y-5.395
X2.595Y-2.015
X2.6575Y-3.0512
X2.75Y-2.0
X2.7549Y-5.445
X2.7562Y-2.5332
X2.7562Y-2.5832
X2.7562Y-2.6332
X2.7562Y-2.6832
X2.7562Y-2.7332
X2.7562Y-2.7832
X2.7562Y-2.8332
X2.7854Y-3.1988
X2.8051Y-4.3504
X2.8248Y-4.6063
X2.8346Y-4.95
X2.8562Y-2.5332
X2.8562Y-2.5832
X2.8562Y-2.6332
X2.8659Y-3.0809
X2.874Y-4.4685
X2.8839Y-4.8425
X2.9134Y-3.4252
X2.92Y-2.5332
X2.92Y-2.5832
X2.92Y-2.6332
X2.92Y-2.6932
X2.92Y-2.9687
X2.9232Y-5.1378
X2.9331Y-3.6713
X2.9331Y-3.75
X2.9331Y-3.8484
X2.9377Y-3.937
X2.9812Y-2.5332
X2.9812Y-2.5832
X2.9812Y-2.6332
X2.9921Y-4.0551
X2.9921Y-4.2618
X2.9921Y-4.498
X3.0118Y-2.2835
X3.0315Y-3.5925
X3.0315Y-3.7008
X3.0315Y-3.7992
X3.0315Y-3.8878
X3.045Y-4.005
X3.0562Y-2.5332
X3.0562Y-2.5832
X3.0562Y-2.6332
X3.0562Y-2.6832
X3.0562Y-2.7332
X3.0562Y-2.7832
X3.0562Y-2.8332
X3.061Y-5.0492
X3.09Y-2.0061
X3.0906Y-5.2067
X3.1Y-2.98
X3.105Y-3.24
X3.1102Y-4.8425
X3.125Y-2.075
X3.1299Y-3.4154
X3.1299Y-3.5925
X3.1299Y-3.6909
X3.1398Y-4.5276
X3.1398Y-4.6752
X3.1496Y-4.439
X3.16Y-3.125
X3.185Y-2.2598
X3.205Y-2.43
X3.23Y-2.085
X3.26Y-2.0061
X3.3563Y-4.626
X3.37Y-4.7
X3.3719Y-5.56
X3.376Y-3.5335
X3.3858Y-3.6811
X3.3863Y-3.5875
X3.4154Y-4.0256
X3.4449Y-2.6575
X3.4449Y-3.0217
X3.4449Y-5.4232
X3.45Y-4.94
X3.4547Y-3.5236
X3.455Y-4.685
X3.4692Y-5.1824
X3.545Y-3.24
X3.55Y-4.46
X3.555Y-5.045
X3.605Y-5.045
X3.655Y-4.1
X3.655Y-4.8501
X3.66Y-4.155
X3.6713Y-3.4646
X3.705Y-5.045
X3.73Y-3.7058
X3.73Y-3.8219
X3.75Y-2.6719
X3.75Y-2.7881
X3.75Y-3.47
X3.755Y-5.045
X3.7697Y-5.3435
X3.77Y-2.915
X3.785Y-3.87
X3.8019Y-3.51
X3.805Y-4.8501
X3.8287Y-3.0118
X3.835Y-3.895
X3.835Y-2.8763
X3.8484Y-3.75
X3.86Y-3.48
X3.885Y-2.6037
X3.9066Y-4.0884
X3.9119Y-3.84
X3.9181Y-3.51
X3.925Y-5.185
X3.937Y-3.622
X3.94Y-4.7823
X3.95Y-4.065
X4.01Y-3.91
X4.01Y-4.78
X4.01Y-5.0886
X4.01Y-5.165
X4.0281Y-3.84
X4.065Y-3.4646
X4.07Y-3.5619
X4.07Y-3.6781
X4.1043Y-3.8878
X4.115Y-5.0551
X4.115Y-3.755
X4.165Y-5.0551
X4.2028Y-4.0059
X4.2421Y-4.8031
X4.265Y-5.1745
X4.2913Y-4.8031
X4.311Y-4.9606
X4.3125Y-3.9325
X4.3227Y-3.9845
X4.3227Y-4.54
X4.3406Y-4.6949
X4.355Y-2.815
X4.365Y-3.935
X4.3868Y-3.8963
X4.39Y-2.6969
X4.4113Y-3.86
X4.45Y-4.45
X4.46Y-4.735
X4.46Y-4.9213
X4.505Y-3.04
X4.52Y-4.9114
X4.52Y-5.1
X4.53Y-2.6969
X4.5472Y-4.6555
X4.5834Y-3.9034
X4.625Y-4.725
X4.626Y-4.4488
X4.67Y-2.6969
X4.685Y-2.8051
X4.7Y-3.73
X4.7038Y-3.6688
X4.72Y-4.885
X4.7281Y-4.8081
X4.74Y-4.27
X4.77Y-4.3
X4.7724Y-4.1158
X4.7781Y-4.8081
X4.7787Y-3.8987
X4.79Y-4.061
X4.8Y-4.01
X4.81Y-2.6969
X4.81Y-4.149
X4.81Y-4.33
X4.84Y-4.36
X4.8424Y-2.935
X4.85Y-4.1805
X4.8781Y-4.8081
X4.9281Y-4.8081
X4.95Y-2.6969
X4.975Y-4.73
X4.9781Y-5.003
X4.99Y-4.365
X5.01Y-3.74
X5.0142Y-3.8059
X5.015Y-3.87
X5.0494Y-4.68
X5.05Y-3.775
X5.05Y-3.84
X5.055Y-3.975
X5.06Y-3.5315
X5.0761Y-3.5787
X5.09Y-2.6969
X5.0929Y-3.6165
X5.095Y-4.925
X5.13Y-3.64
X5.185Y-3.64
X5.1881Y-4.6485
X5.1994Y-4.874
X5.2Y-2.92
X5.215Y-3.555
X5.23Y-2.6969
X5.2362Y-4.498
X5.24Y-3.1
X5.2494Y-4.8898
X5.2994Y-4.8583
X5.31Y-3.555
X5.3494Y-4.8504
X5.3543Y-4.498
X5.37Y-2.6969
X5.3994Y-4.8081
X5.4025Y-3.4957
X5.42Y-3.4582
X5.44Y-3.582
X5.4496Y-3.6763
X5.4724Y-4.8228
X5.5019Y-3.4481
X5.51Y-2.6969
X5.51Y-2.86
X5.5114Y-3.4097
X5.515Y-3.915
X5.52Y-4.01
X5.5413Y-4.4882
X5.5566Y-3.3834
X5.5709Y-4.685
X5.5866Y-3.3508
X5.5869Y-3.3037
X5.593Y-3.2628
X5.6201Y-2.0079
X5.6201Y-5.8661
X5.6282Y-3.2415
X5.63Y-4.405
X5.65Y-2.6969
X5.66Y-3.215
X5.665Y-2.41
X5.67Y-4.32
X5.6714Y-4.2139
X5.6727Y-4.2807
X5.6927Y-3.1911
X5.7Y-4.16
X5.705Y-3.15
X5.73Y-4.12
X5.7463Y-3.9537
X5.75Y-4.005
X5.75Y-4.075
X5.76Y-4.2219
X5.76Y-4.3381
X5.77Y-2.49
X5.78Y-2.84
X5.8465Y-5.561
X5.8563Y-2.2736
X5.8858Y-4.245
T2
X2.45Y-5.455
X2.45Y-5.535
X3.42Y-4.395
X3.4449Y-3.1004
X3.4449Y-3.1594
X3.4449Y-3.2185
X3.4449Y-3.2776
X3.4449Y-3.3366
X3.4449Y-3.3957
X3.6122Y-3.2382
X3.6713Y-3.2382
X3.7303Y-3.2382
X3.7894Y-3.2382
X3.8386Y-3.2382
X3.8976Y-3.2382
X4.3Y-3.11
X4.465Y-3.18
T3
X3.62Y-4.595
X3.73Y-4.595
X3.84Y-4.595
X3.95Y-4.595
T4
X2.655Y-3.395
X2.655Y-3.495
X2.655Y-3.595
X2.655Y-3.695
X2.655Y-3.795
X2.655Y-3.895
X2.655Y-3.995
X2.655Y-4.095
X2.655Y-4.195
X2.655Y-4.295
X2.655Y-4.395
X2.655Y-4.495
X2.655Y-4.595
X2.655Y-4.695
X2.655Y-4.795
X2.655Y-4.895
X2.655Y-4.995
X2.655Y-5.095
X2.655Y-5.195
X2.655Y-5.295
X3.255Y-3.395
X3.255Y-3.495
X3.255Y-3.595
X3.255Y-3.695
X3.255Y-3.795
X3.255Y-3.895
X3.255Y-3.995
X3.255Y-4.095
X3.255Y-4.195
X3.255Y-4.295
X3.255Y-4.395
X3.255Y-4.495
X3.255Y-4.595
X3.255Y-4.695
X3.255Y-4.795
X3.255Y-4.895
X3.255Y-4.995
X3.255Y-5.095
X3.255Y-5.195
X3.255Y-5.295
X3.28Y-2.64
X3.28Y-2.94
X3.58Y-2.64
X3.58Y-2.94
X4.585Y-5.18
X4.635Y-5.3132
X4.685Y-5.18
X4.735Y-5.3132
X4.785Y-5.18
X4.835Y-5.3132
X4.885Y-5.18
X4.935Y-5.3132
X4.985Y-5.18
X5.035Y-5.3132
X5.085Y-5.18
X5.135Y-5.3132
X5.185Y-5.18
X5.235Y-5.3132
X5.285Y-5.18
X5.335Y-5.3132
X5.385Y-5.18
X5.435Y-5.3132
T5
X5.03Y-2.7931
X5.03Y-3.1869
X5.6402Y-2.99
T6
X2.0599Y-4.4274
X2.0599Y-4.6046
T7
X2.16Y-2.685
X2.16Y-2.785
X2.26Y-2.685
X2.26Y-2.785
X2.4162Y-2.74
X2.6162Y-2.7404
X3.6365Y-2.0866
X3.6365Y-2.1866
X3.6365Y-2.3228
X3.6365Y-2.4228
X3.6365Y-5.4512
X3.6365Y-5.5512
X3.6365Y-5.6874
X3.6365Y-5.7874
X3.69Y-4.35
X3.69Y-4.45
X3.7365Y-2.0866
X3.7365Y-2.1866
X3.7365Y-2.3228
X3.7365Y-2.4228
X3.7365Y-5.4512
X3.7365Y-5.5512
X3.7365Y-5.6874
X3.7365Y-5.7874
X3.79Y-4.35
X3.79Y-4.45
X3.8365Y-2.0866
X3.8365Y-2.1866
X3.8365Y-2.3228
X3.8365Y-2.4228
X3.8365Y-5.4512
X3.8365Y-5.5512
X3.8365Y-5.6874
X3.8365Y-5.7874
X3.89Y-4.35
X3.89Y-4.45
X3.9365Y-2.0866
X3.9365Y-2.1866
X3.9365Y-2.3228
X3.9365Y-2.4228
X3.9365Y-5.4512
X3.9365Y-5.5512
X3.9365Y-5.6874
X3.9365Y-5.7874
X3.99Y-4.35
X3.99Y-4.45
X4.0365Y-2.0866
X4.0365Y-2.1866
X4.0365Y-2.3228
X4.0365Y-2.4228
X4.0365Y-5.4512
X4.0365Y-5.5512
X4.0365Y-5.6874
X4.0365Y-5.7874
X4.09Y-4.35
X4.09Y-4.45
X4.1365Y-2.0866
X4.1365Y-2.1866
X4.1365Y-2.3228
X4.1365Y-2.4228
X4.1365Y-5.4512
X4.1365Y-5.5512
X4.1365Y-5.6874
X4.1365Y-5.7874
X4.2365Y-2.0866
X4.2365Y-2.1866
X4.2365Y-2.3228
X4.2365Y-2.4228
X4.2365Y-5.4512
X4.2365Y-5.5512
X4.2365Y-5.6874
X4.2365Y-5.7874
X4.3365Y-2.0866
X4.3365Y-2.1866
X4.3365Y-2.3228
X4.3365Y-2.4228
X4.3365Y-5.4512
X4.3365Y-5.5512
X4.3365Y-5.6874
X4.3365Y-5.7874
X4.4365Y-2.0866
X4.4365Y-2.1866
X4.4365Y-2.3228
X4.4365Y-2.4228
X4.4365Y-5.4512
X4.4365Y-5.5512
X4.4365Y-5.6874
X4.4365Y-5.7874
X4.5365Y-2.0866
X4.5365Y-2.1866
X4.5365Y-2.3228
X4.5365Y-2.4228
X4.5365Y-5.4512
X4.5365Y-5.5512
X4.5365Y-5.6874
X4.5365Y-5.7874
X4.6365Y-2.0866
X4.6365Y-2.1866
X4.6365Y-2.3228
X4.6365Y-2.4228
X4.6365Y-5.4512
X4.6365Y-5.5512
X4.6365Y-5.6874
X4.6365Y-5.7874
X4.7365Y-2.0866
X4.7365Y-2.1866
X4.7365Y-2.3228
X4.7365Y-2.4228
X4.7365Y-5.4512
X4.7365Y-5.5512
X4.7365Y-5.6874
X4.7365Y-5.7874
X4.8365Y-2.0866
X4.8365Y-2.1866
X4.8365Y-2.3228
X4.8365Y-2.4228
X4.8365Y-5.4512
X4.8365Y-5.5512
X4.8365Y-5.6874
X4.8365Y-5.7874
X4.9365Y-2.0866
X4.9365Y-2.1866
X4.9365Y-2.3228
X4.9365Y-2.4228
X4.9365Y-5.4512
X4.9365Y-5.5512
X4.9365Y-5.6874
X4.9365Y-5.7874
X5.0365Y-2.0866
X5.0365Y-2.1866
X5.0365Y-2.3228
X5.0365Y-2.4228
X5.0365Y-5.4512
X5.0365Y-5.5512
X5.0365Y-5.6874
X5.0365Y-5.7874
X5.1365Y-2.0866
X5.1365Y-2.1866
X5.1365Y-2.3228
X5.1365Y-2.4228
X5.1365Y-5.4512
X5.1365Y-5.5512
X5.1365Y-5.6874
X5.1365Y-5.7874
X5.2365Y-2.0866
X5.2365Y-2.1866
X5.2365Y-2.3228
X5.2365Y-2.4228
X5.2365Y-5.4512
X5.2365Y-5.5512
X5.2365Y-5.6874
X5.2365Y-5.7874
X5.3365Y-2.0866
X5.3365Y-2.1866
X5.3365Y-2.3228
X5.3365Y-2.4228
X5.3365Y-5.4512
X5.3365Y-5.5512
X5.3365Y-5.6874
X5.3365Y-5.7874
X5.4365Y-2.0866
X5.4365Y-2.1866
X5.4365Y-2.3228
X5.4365Y-2.4228
X5.4365Y-5.4512
X5.4365Y-5.5512
X5.4365Y-5.6874
X5.4365Y-5.7874
X5.5365Y-2.0866
X5.5365Y-2.1866
X5.5365Y-2.3228
X5.5365Y-2.4228
X5.5365Y-5.4512
X5.5365Y-5.5512
X5.5365Y-5.6874
X5.5365Y-5.7874
X5.6874Y-4.9016
X5.6874Y-5.0016
X5.6874Y-5.1016
X5.6874Y-5.2016
X5.6874Y-5.3016
X5.7874Y-4.9016
X5.7874Y-5.0016
X5.7874Y-5.1016
X5.7874Y-5.2016
X5.7874Y-5.3016
T8
X2.1315Y-2.5
X2.3315Y-2.5
X2.4315Y-2.5
X2.5315Y-2.5
T9
X2.1579Y-4.3778
X2.1579Y-4.6538
X2.4094Y-2.1496
X2.6063Y-2.1496
T10
X2.126Y-2.126
X2.126Y-5.748
X5.748Y-2.126
X5.748Y-5.748
M30
