%TF.GenerationSoftware,KiCad,Pcbnew,8.0.7-8.0.7-0~ubuntu22.04.1*%
%TF.CreationDate,2025-01-29T22:40:37+01:00*%
%TF.ProjectId,RAMROM_Board,52414d52-4f4d-45f4-926f-6172642e6b69,rev?*%
%TF.SameCoordinates,Original*%
%TF.FileFunction,Paste,Bot*%
%TF.FilePolarity,Positive*%
%FSLAX46Y46*%
G04 Gerber Fmt 4.6, Leading zero omitted, Abs format (unit mm)*
G04 Created by KiCad (PCBNEW 8.0.7-8.0.7-0~ubuntu22.04.1) date 2025-01-29 22:40:37*
%MOMM*%
%LPD*%
G01*
G04 APERTURE LIST*
G04 Aperture macros list*
%AMRoundRect*
0 Rectangle with rounded corners*
0 $1 Rounding radius*
0 $2 $3 $4 $5 $6 $7 $8 $9 X,Y pos of 4 corners*
0 Add a 4 corners polygon primitive as box body*
4,1,4,$2,$3,$4,$5,$6,$7,$8,$9,$2,$3,0*
0 Add four circle primitives for the rounded corners*
1,1,$1+$1,$2,$3*
1,1,$1+$1,$4,$5*
1,1,$1+$1,$6,$7*
1,1,$1+$1,$8,$9*
0 Add four rect primitives between the rounded corners*
20,1,$1+$1,$2,$3,$4,$5,0*
20,1,$1+$1,$4,$5,$6,$7,0*
20,1,$1+$1,$6,$7,$8,$9,0*
20,1,$1+$1,$8,$9,$2,$3,0*%
G04 Aperture macros list end*
%ADD10RoundRect,0.150000X0.825000X0.150000X-0.825000X0.150000X-0.825000X-0.150000X0.825000X-0.150000X0*%
%ADD11RoundRect,0.250000X-0.625000X0.312500X-0.625000X-0.312500X0.625000X-0.312500X0.625000X0.312500X0*%
%ADD12RoundRect,0.250000X-0.312500X-0.625000X0.312500X-0.625000X0.312500X0.625000X-0.312500X0.625000X0*%
%ADD13RoundRect,0.250000X0.650000X-0.325000X0.650000X0.325000X-0.650000X0.325000X-0.650000X-0.325000X0*%
%ADD14RoundRect,0.075000X0.075000X-0.725000X0.075000X0.725000X-0.075000X0.725000X-0.075000X-0.725000X0*%
%ADD15RoundRect,0.075000X0.725000X-0.075000X0.725000X0.075000X-0.725000X0.075000X-0.725000X-0.075000X0*%
%ADD16RoundRect,0.250000X-0.650000X0.325000X-0.650000X-0.325000X0.650000X-0.325000X0.650000X0.325000X0*%
%ADD17RoundRect,0.250000X0.312500X0.625000X-0.312500X0.625000X-0.312500X-0.625000X0.312500X-0.625000X0*%
%ADD18RoundRect,0.250000X1.025000X-0.787500X1.025000X0.787500X-1.025000X0.787500X-1.025000X-0.787500X0*%
%ADD19RoundRect,0.200000X0.750000X0.200000X-0.750000X0.200000X-0.750000X-0.200000X0.750000X-0.200000X0*%
G04 APERTURE END LIST*
D10*
%TO.C,U20*%
X122998000Y-74549000D03*
X122998000Y-75819000D03*
X122998000Y-77089000D03*
X122998000Y-78359000D03*
X118048000Y-78359000D03*
X118048000Y-77089000D03*
X118048000Y-75819000D03*
X118048000Y-74549000D03*
%TD*%
D11*
%TO.C,R13*%
X130302000Y-97409000D03*
X130302000Y-100334000D03*
%TD*%
D12*
%TO.C,R11*%
X86100000Y-62000000D03*
X89025000Y-62000000D03*
%TD*%
D10*
%TO.C,U4*%
X69974000Y-137033000D03*
X69974000Y-138303000D03*
X69974000Y-139573000D03*
X69974000Y-140843000D03*
X65024000Y-140843000D03*
X65024000Y-139573000D03*
X65024000Y-138303000D03*
X65024000Y-137033000D03*
%TD*%
D13*
%TO.C,C3*%
X147160000Y-69653995D03*
X147160000Y-66703995D03*
%TD*%
D12*
%TO.C,R3*%
X56384000Y-123063000D03*
X59309000Y-123063000D03*
%TD*%
D14*
%TO.C,U13*%
X104750000Y-101147000D03*
X104250000Y-101147000D03*
X103750000Y-101147000D03*
X103250000Y-101147000D03*
X102750000Y-101147000D03*
X102250000Y-101147000D03*
X101750000Y-101147000D03*
X101250000Y-101147000D03*
X100750000Y-101147000D03*
X100250000Y-101147000D03*
X99750000Y-101147000D03*
X99250000Y-101147000D03*
X98750000Y-101147000D03*
X98250000Y-101147000D03*
X97750000Y-101147000D03*
X97250000Y-101147000D03*
X96750000Y-101147000D03*
X96250000Y-101147000D03*
X95750000Y-101147000D03*
X95250000Y-101147000D03*
X94750000Y-101147000D03*
X94250000Y-101147000D03*
X93750000Y-101147000D03*
X93250000Y-101147000D03*
X92750000Y-101147000D03*
D15*
X91075000Y-99472000D03*
X91075000Y-98972000D03*
X91075000Y-98472000D03*
X91075000Y-97972000D03*
X91075000Y-97472000D03*
X91075000Y-96972000D03*
X91075000Y-96472000D03*
X91075000Y-95972000D03*
X91075000Y-95472000D03*
X91075000Y-94972000D03*
X91075000Y-94472000D03*
X91075000Y-93972000D03*
X91075000Y-93472000D03*
X91075000Y-92972000D03*
X91075000Y-92472000D03*
X91075000Y-91972000D03*
X91075000Y-91472000D03*
X91075000Y-90972000D03*
X91075000Y-90472000D03*
X91075000Y-89972000D03*
X91075000Y-89472000D03*
X91075000Y-88972000D03*
X91075000Y-88472000D03*
X91075000Y-87972000D03*
X91075000Y-87472000D03*
D14*
X92750000Y-85797000D03*
X93250000Y-85797000D03*
X93750000Y-85797000D03*
X94250000Y-85797000D03*
X94750000Y-85797000D03*
X95250000Y-85797000D03*
X95750000Y-85797000D03*
X96250000Y-85797000D03*
X96750000Y-85797000D03*
X97250000Y-85797000D03*
X97750000Y-85797000D03*
X98250000Y-85797000D03*
X98750000Y-85797000D03*
X99250000Y-85797000D03*
X99750000Y-85797000D03*
X100250000Y-85797000D03*
X100750000Y-85797000D03*
X101250000Y-85797000D03*
X101750000Y-85797000D03*
X102250000Y-85797000D03*
X102750000Y-85797000D03*
X103250000Y-85797000D03*
X103750000Y-85797000D03*
X104250000Y-85797000D03*
X104750000Y-85797000D03*
D15*
X106425000Y-87472000D03*
X106425000Y-87972000D03*
X106425000Y-88472000D03*
X106425000Y-88972000D03*
X106425000Y-89472000D03*
X106425000Y-89972000D03*
X106425000Y-90472000D03*
X106425000Y-90972000D03*
X106425000Y-91472000D03*
X106425000Y-91972000D03*
X106425000Y-92472000D03*
X106425000Y-92972000D03*
X106425000Y-93472000D03*
X106425000Y-93972000D03*
X106425000Y-94472000D03*
X106425000Y-94972000D03*
X106425000Y-95472000D03*
X106425000Y-95972000D03*
X106425000Y-96472000D03*
X106425000Y-96972000D03*
X106425000Y-97472000D03*
X106425000Y-97972000D03*
X106425000Y-98472000D03*
X106425000Y-98972000D03*
X106425000Y-99472000D03*
%TD*%
D16*
%TO.C,C9*%
X99060000Y-123874000D03*
X99060000Y-126824000D03*
%TD*%
D17*
%TO.C,R1*%
X67056000Y-72898000D03*
X64131000Y-72898000D03*
%TD*%
D12*
%TO.C,R7*%
X85875000Y-56900000D03*
X88800000Y-56900000D03*
%TD*%
D16*
%TO.C,C17*%
X73914000Y-140179000D03*
X73914000Y-143129000D03*
%TD*%
D12*
%TO.C,R6*%
X66294000Y-145288000D03*
X69219000Y-145288000D03*
%TD*%
D11*
%TO.C,R9*%
X109220000Y-74041000D03*
X109220000Y-76966000D03*
%TD*%
D18*
%TO.C,C12*%
X71360000Y-59453995D03*
X71360000Y-53228995D03*
%TD*%
D17*
%TO.C,R10*%
X56769000Y-114808000D03*
X53844000Y-114808000D03*
%TD*%
D12*
%TO.C,R4*%
X56384000Y-125349000D03*
X59309000Y-125349000D03*
%TD*%
%TO.C,R5*%
X66294000Y-143002000D03*
X69219000Y-143002000D03*
%TD*%
D19*
%TO.C,Q2*%
X66270000Y-57851000D03*
X66270000Y-59751000D03*
X63270000Y-58801000D03*
%TD*%
D12*
%TO.C,R8*%
X85837500Y-59200000D03*
X88762500Y-59200000D03*
%TD*%
D17*
%TO.C,R2*%
X67056000Y-75184000D03*
X64131000Y-75184000D03*
%TD*%
D12*
%TO.C,R12*%
X57781000Y-58928000D03*
X60706000Y-58928000D03*
%TD*%
M02*
