%TF.GenerationSoftware,KiCad,Pcbnew,8.0.7-8.0.7-0~ubuntu22.04.1*%
%TF.CreationDate,2025-01-29T22:40:38+01:00*%
%TF.ProjectId,RAMROM_Board,52414d52-4f4d-45f4-926f-6172642e6b69,rev?*%
%TF.SameCoordinates,Original*%
%TF.FileFunction,Soldermask,Bot*%
%TF.FilePolarity,Negative*%
%FSLAX46Y46*%
G04 Gerber Fmt 4.6, Leading zero omitted, Abs format (unit mm)*
G04 Created by KiCad (PCBNEW 8.0.7-8.0.7-0~ubuntu22.04.1) date 2025-01-29 22:40:38*
%MOMM*%
%LPD*%
G01*
G04 APERTURE LIST*
G04 Aperture macros list*
%AMRoundRect*
0 Rectangle with rounded corners*
0 $1 Rounding radius*
0 $2 $3 $4 $5 $6 $7 $8 $9 X,Y pos of 4 corners*
0 Add a 4 corners polygon primitive as box body*
4,1,4,$2,$3,$4,$5,$6,$7,$8,$9,$2,$3,0*
0 Add four circle primitives for the rounded corners*
1,1,$1+$1,$2,$3*
1,1,$1+$1,$4,$5*
1,1,$1+$1,$6,$7*
1,1,$1+$1,$8,$9*
0 Add four rect primitives between the rounded corners*
20,1,$1+$1,$2,$3,$4,$5,0*
20,1,$1+$1,$4,$5,$6,$7,0*
20,1,$1+$1,$6,$7,$8,$9,0*
20,1,$1+$1,$8,$9,$2,$3,0*%
%AMFreePoly0*
4,1,19,0.500000,-0.750000,0.000000,-0.750000,0.000000,-0.744911,-0.071157,-0.744911,-0.207708,-0.704816,-0.327430,-0.627875,-0.420627,-0.520320,-0.479746,-0.390866,-0.500000,-0.250000,-0.500000,0.250000,-0.479746,0.390866,-0.420627,0.520320,-0.327430,0.627875,-0.207708,0.704816,-0.071157,0.744911,0.000000,0.744911,0.000000,0.750000,0.500000,0.750000,0.500000,-0.750000,0.500000,-0.750000,
$1*%
%AMFreePoly1*
4,1,19,0.000000,0.744911,0.071157,0.744911,0.207708,0.704816,0.327430,0.627875,0.420627,0.520320,0.479746,0.390866,0.500000,0.250000,0.500000,-0.250000,0.479746,-0.390866,0.420627,-0.520320,0.327430,-0.627875,0.207708,-0.704816,0.071157,-0.744911,0.000000,-0.744911,0.000000,-0.750000,-0.500000,-0.750000,-0.500000,0.750000,0.000000,0.750000,0.000000,0.744911,0.000000,0.744911,
$1*%
%AMFreePoly2*
4,1,19,0.550000,-0.750000,0.000000,-0.750000,0.000000,-0.744911,-0.071157,-0.744911,-0.207708,-0.704816,-0.327430,-0.627875,-0.420627,-0.520320,-0.479746,-0.390866,-0.500000,-0.250000,-0.500000,0.250000,-0.479746,0.390866,-0.420627,0.520320,-0.327430,0.627875,-0.207708,0.704816,-0.071157,0.744911,0.000000,0.744911,0.000000,0.750000,0.550000,0.750000,0.550000,-0.750000,0.550000,-0.750000,
$1*%
%AMFreePoly3*
4,1,19,0.000000,0.744911,0.071157,0.744911,0.207708,0.704816,0.327430,0.627875,0.420627,0.520320,0.479746,0.390866,0.500000,0.250000,0.500000,-0.250000,0.479746,-0.390866,0.420627,-0.520320,0.327430,-0.627875,0.207708,-0.704816,0.071157,-0.744911,0.000000,-0.744911,0.000000,-0.750000,-0.550000,-0.750000,-0.550000,0.750000,0.000000,0.750000,0.000000,0.744911,0.000000,0.744911,
$1*%
G04 Aperture macros list end*
%ADD10R,1.000000X1.000000*%
%ADD11R,1.600000X1.600000*%
%ADD12C,1.600000*%
%ADD13R,0.850000X0.850000*%
%ADD14R,1.700000X1.700000*%
%ADD15O,1.700000X1.700000*%
%ADD16RoundRect,0.150000X0.825000X0.150000X-0.825000X0.150000X-0.825000X-0.150000X0.825000X-0.150000X0*%
%ADD17R,2.400000X1.600000*%
%ADD18O,2.400000X1.600000*%
%ADD19R,2.500000X2.500000*%
%ADD20C,2.500000*%
%ADD21O,1.600000X1.600000*%
%ADD22C,2.100000*%
%ADD23C,1.750000*%
%ADD24C,3.200000*%
%ADD25R,1.600000X2.000000*%
%ADD26O,1.600000X2.000000*%
%ADD27C,2.000000*%
%ADD28RoundRect,0.250000X-0.625000X0.312500X-0.625000X-0.312500X0.625000X-0.312500X0.625000X0.312500X0*%
%ADD29FreePoly0,270.000000*%
%ADD30FreePoly1,270.000000*%
%ADD31RoundRect,0.250000X-0.312500X-0.625000X0.312500X-0.625000X0.312500X0.625000X-0.312500X0.625000X0*%
%ADD32RoundRect,0.250000X0.650000X-0.325000X0.650000X0.325000X-0.650000X0.325000X-0.650000X-0.325000X0*%
%ADD33FreePoly0,180.000000*%
%ADD34FreePoly1,180.000000*%
%ADD35RoundRect,0.075000X0.075000X-0.725000X0.075000X0.725000X-0.075000X0.725000X-0.075000X-0.725000X0*%
%ADD36RoundRect,0.075000X0.725000X-0.075000X0.725000X0.075000X-0.725000X0.075000X-0.725000X-0.075000X0*%
%ADD37RoundRect,0.250000X-0.650000X0.325000X-0.650000X-0.325000X0.650000X-0.325000X0.650000X0.325000X0*%
%ADD38RoundRect,0.250000X0.312500X0.625000X-0.312500X0.625000X-0.312500X-0.625000X0.312500X-0.625000X0*%
%ADD39RoundRect,0.250000X1.025000X-0.787500X1.025000X0.787500X-1.025000X0.787500X-1.025000X-0.787500X0*%
%ADD40RoundRect,0.200000X0.750000X0.200000X-0.750000X0.200000X-0.750000X-0.200000X0.750000X-0.200000X0*%
%ADD41FreePoly2,90.000000*%
%ADD42R,1.500000X1.000000*%
%ADD43FreePoly3,90.000000*%
G04 APERTURE END LIST*
D10*
%TO.C,J15*%
X91948000Y-116713000D03*
%TD*%
%TO.C,J13*%
X94742000Y-116713000D03*
%TD*%
%TO.C,J12*%
X97536000Y-116713000D03*
%TD*%
%TO.C,J4*%
X100330000Y-116713000D03*
%TD*%
D11*
%TO.C,X1*%
X83312000Y-67056000D03*
D12*
X83312000Y-74676000D03*
X90932000Y-74676000D03*
X90932000Y-67056000D03*
%TD*%
D13*
%TO.C,TP58*%
X96250000Y-82250000D03*
%TD*%
D14*
%TO.C,J8*%
X57404000Y-70739000D03*
D15*
X54864000Y-70739000D03*
X57404000Y-68199000D03*
X54864000Y-68199000D03*
%TD*%
D16*
%TO.C,U20*%
X122998000Y-74549000D03*
X122998000Y-75819000D03*
X122998000Y-77089000D03*
X122998000Y-78359000D03*
X118048000Y-78359000D03*
X118048000Y-77089000D03*
X118048000Y-75819000D03*
X118048000Y-74549000D03*
%TD*%
D13*
%TO.C,TP9*%
X62230000Y-138557000D03*
%TD*%
D14*
%TO.C,J1*%
X92367000Y-53000000D03*
D15*
X92367000Y-55540000D03*
X94907000Y-53000000D03*
X94907000Y-55540000D03*
X97447000Y-53000000D03*
X97447000Y-55540000D03*
X99987000Y-53000000D03*
X99987000Y-55540000D03*
X102527000Y-53000000D03*
X102527000Y-55540000D03*
X105067000Y-53000000D03*
X105067000Y-55540000D03*
X107607000Y-53000000D03*
X107607000Y-55540000D03*
X110147000Y-53000000D03*
X110147000Y-55540000D03*
X112687000Y-53000000D03*
X112687000Y-55540000D03*
X115227000Y-53000000D03*
X115227000Y-55540000D03*
X117767000Y-53000000D03*
X117767000Y-55540000D03*
X120307000Y-53000000D03*
X120307000Y-55540000D03*
X122847000Y-53000000D03*
X122847000Y-55540000D03*
X125387000Y-53000000D03*
X125387000Y-55540000D03*
X127927000Y-53000000D03*
X127927000Y-55540000D03*
X130467000Y-53000000D03*
X130467000Y-55540000D03*
X133007000Y-53000000D03*
X133007000Y-55540000D03*
X135547000Y-53000000D03*
X135547000Y-55540000D03*
X138087000Y-53000000D03*
X138087000Y-55540000D03*
X140627000Y-53000000D03*
X140627000Y-55540000D03*
%TD*%
D13*
%TO.C,TP57*%
X94750000Y-82250000D03*
%TD*%
D17*
%TO.C,J7*%
X67437000Y-86233000D03*
D18*
X67437000Y-88773000D03*
X67437000Y-91313000D03*
X67437000Y-93853000D03*
X67437000Y-96393000D03*
X67437000Y-98933000D03*
X67437000Y-101473000D03*
X67437000Y-104013000D03*
X67437000Y-106553000D03*
X67437000Y-109093000D03*
X67437000Y-111633000D03*
X67437000Y-114173000D03*
X67437000Y-116713000D03*
X67437000Y-119253000D03*
X67437000Y-121793000D03*
X67437000Y-124333000D03*
X67437000Y-126873000D03*
X67437000Y-129413000D03*
X67437000Y-131953000D03*
X67437000Y-134493000D03*
X82677000Y-134493000D03*
X82677000Y-131953000D03*
X82677000Y-129413000D03*
X82677000Y-126873000D03*
X82677000Y-124333000D03*
X82677000Y-121793000D03*
X82677000Y-119253000D03*
X82677000Y-116713000D03*
X82677000Y-114173000D03*
X82677000Y-111633000D03*
X82677000Y-109093000D03*
X82677000Y-106553000D03*
X82677000Y-104013000D03*
X82677000Y-101473000D03*
X82677000Y-98933000D03*
X82677000Y-96393000D03*
X82677000Y-93853000D03*
X82677000Y-91313000D03*
X82677000Y-88773000D03*
X82677000Y-86233000D03*
%TD*%
D14*
%TO.C,TP2*%
X140627000Y-141000000D03*
D15*
X140627000Y-138460000D03*
X138087000Y-141000000D03*
X138087000Y-138460000D03*
X135547000Y-141000000D03*
X135547000Y-138460000D03*
X133007000Y-141000000D03*
X133007000Y-138460000D03*
X130467000Y-141000000D03*
X130467000Y-138460000D03*
X127927000Y-141000000D03*
X127927000Y-138460000D03*
X125387000Y-141000000D03*
X125387000Y-138460000D03*
X122847000Y-141000000D03*
X122847000Y-138460000D03*
X120307000Y-141000000D03*
X120307000Y-138460000D03*
X117767000Y-141000000D03*
X117767000Y-138460000D03*
X115227000Y-141000000D03*
X115227000Y-138460000D03*
X112687000Y-141000000D03*
X112687000Y-138460000D03*
X110147000Y-141000000D03*
X110147000Y-138460000D03*
X107607000Y-141000000D03*
X107607000Y-138460000D03*
X105067000Y-141000000D03*
X105067000Y-138460000D03*
X102527000Y-141000000D03*
X102527000Y-138460000D03*
X99987000Y-141000000D03*
X99987000Y-138460000D03*
X97447000Y-141000000D03*
X97447000Y-138460000D03*
X94907000Y-141000000D03*
X94907000Y-138460000D03*
X92367000Y-141000000D03*
X92367000Y-138460000D03*
%TD*%
D19*
%TO.C,J5*%
X61200000Y-54600000D03*
D20*
X66200000Y-54600000D03*
%TD*%
D13*
%TO.C,TP10*%
X109220000Y-78994000D03*
%TD*%
%TO.C,TP49*%
X87500000Y-84750000D03*
%TD*%
D11*
%TO.C,RN4*%
X138049000Y-134955995D03*
D21*
X135509000Y-134955995D03*
X132969000Y-134955995D03*
X130429000Y-134955995D03*
X127889000Y-134955995D03*
X125349000Y-134955995D03*
X122809000Y-134955995D03*
X120269000Y-134955995D03*
X117729000Y-134955995D03*
%TD*%
D14*
%TO.C,J3*%
X103886000Y-110490000D03*
D15*
X103886000Y-113030000D03*
X101346000Y-110490000D03*
X101346000Y-113030000D03*
X98806000Y-110490000D03*
X98806000Y-113030000D03*
X96266000Y-110490000D03*
X96266000Y-113030000D03*
X93726000Y-110490000D03*
X93726000Y-113030000D03*
%TD*%
D13*
%TO.C,TP8*%
X62230000Y-140589000D03*
%TD*%
D11*
%TO.C,RN3*%
X136779000Y-131572000D03*
D21*
X134239000Y-131572000D03*
X131699000Y-131572000D03*
X129159000Y-131572000D03*
X126619000Y-131572000D03*
X124079000Y-131572000D03*
X121539000Y-131572000D03*
X118999000Y-131572000D03*
X116459000Y-131572000D03*
%TD*%
D22*
%TO.C,SW2*%
X54811500Y-118206000D03*
X54811500Y-111196000D03*
D23*
X52321500Y-116956000D03*
X52321500Y-112456000D03*
%TD*%
D14*
%TO.C,J2*%
X140627000Y-147000000D03*
D15*
X140627000Y-144460000D03*
X138087000Y-147000000D03*
X138087000Y-144460000D03*
X135547000Y-147000000D03*
X135547000Y-144460000D03*
X133007000Y-147000000D03*
X133007000Y-144460000D03*
X130467000Y-147000000D03*
X130467000Y-144460000D03*
X127927000Y-147000000D03*
X127927000Y-144460000D03*
X125387000Y-147000000D03*
X125387000Y-144460000D03*
X122847000Y-147000000D03*
X122847000Y-144460000D03*
X120307000Y-147000000D03*
X120307000Y-144460000D03*
X117767000Y-147000000D03*
X117767000Y-144460000D03*
X115227000Y-147000000D03*
X115227000Y-144460000D03*
X112687000Y-147000000D03*
X112687000Y-144460000D03*
X110147000Y-147000000D03*
X110147000Y-144460000D03*
X107607000Y-147000000D03*
X107607000Y-144460000D03*
X105067000Y-147000000D03*
X105067000Y-144460000D03*
X102527000Y-147000000D03*
X102527000Y-144460000D03*
X99987000Y-147000000D03*
X99987000Y-144460000D03*
X97447000Y-147000000D03*
X97447000Y-144460000D03*
X94907000Y-147000000D03*
X94907000Y-144460000D03*
X92367000Y-147000000D03*
X92367000Y-144460000D03*
%TD*%
D14*
%TO.C,J9*%
X144460000Y-124500000D03*
D15*
X147000000Y-124500000D03*
X144460000Y-127040000D03*
X147000000Y-127040000D03*
X144460000Y-129580000D03*
X147000000Y-129580000D03*
X144460000Y-132120000D03*
X147000000Y-132120000D03*
X144460000Y-134660000D03*
X147000000Y-134660000D03*
%TD*%
D13*
%TO.C,TP51*%
X87500000Y-81750000D03*
%TD*%
%TO.C,TP61*%
X97500000Y-82250000D03*
%TD*%
%TO.C,TP52*%
X87500000Y-80250000D03*
%TD*%
%TO.C,TP55*%
X91750000Y-82250000D03*
%TD*%
%TO.C,TP11*%
X113411000Y-80772000D03*
%TD*%
D24*
%TO.C,H3*%
X146000000Y-54000000D03*
%TD*%
D13*
%TO.C,TP14*%
X86868000Y-111633000D03*
%TD*%
D25*
%TO.C,BT1*%
X127762000Y-70946000D03*
X127762000Y-80946000D03*
D26*
X143262000Y-75946000D03*
%TD*%
D13*
%TO.C,TP48*%
X87500000Y-86250000D03*
%TD*%
D27*
%TO.C,SW1*%
X59220000Y-63500000D03*
X61760000Y-63500000D03*
X64300000Y-63500000D03*
X54140000Y-63500000D03*
%TD*%
D14*
%TO.C,TP1*%
X92367000Y-59000000D03*
D15*
X92367000Y-61540000D03*
X94907000Y-59000000D03*
X94907000Y-61540000D03*
X97447000Y-59000000D03*
X97447000Y-61540000D03*
X99987000Y-59000000D03*
X99987000Y-61540000D03*
X102527000Y-59000000D03*
X102527000Y-61540000D03*
X105067000Y-59000000D03*
X105067000Y-61540000D03*
X107607000Y-59000000D03*
X107607000Y-61540000D03*
X110147000Y-59000000D03*
X110147000Y-61540000D03*
X112687000Y-59000000D03*
X112687000Y-61540000D03*
X115227000Y-59000000D03*
X115227000Y-61540000D03*
X117767000Y-59000000D03*
X117767000Y-61540000D03*
X120307000Y-59000000D03*
X120307000Y-61540000D03*
X122847000Y-59000000D03*
X122847000Y-61540000D03*
X125387000Y-59000000D03*
X125387000Y-61540000D03*
X127927000Y-59000000D03*
X127927000Y-61540000D03*
X130467000Y-59000000D03*
X130467000Y-61540000D03*
X133007000Y-59000000D03*
X133007000Y-61540000D03*
X135547000Y-59000000D03*
X135547000Y-61540000D03*
X138087000Y-59000000D03*
X138087000Y-61540000D03*
X140627000Y-59000000D03*
X140627000Y-61540000D03*
%TD*%
D13*
%TO.C,TP50*%
X87500000Y-83250000D03*
%TD*%
D24*
%TO.C,H1*%
X54000000Y-54000000D03*
%TD*%
D13*
%TO.C,TP62*%
X99000000Y-82250000D03*
%TD*%
D24*
%TO.C,H2*%
X54000000Y-146000000D03*
%TD*%
D13*
%TO.C,TP53*%
X87500000Y-78750000D03*
%TD*%
%TO.C,TP56*%
X93250000Y-82250000D03*
%TD*%
D27*
%TO.C,F1*%
X61372000Y-69596000D03*
X66452000Y-69606000D03*
%TD*%
D24*
%TO.C,H4*%
X146000000Y-146000000D03*
%TD*%
D28*
%TO.C,R13*%
X130302000Y-97409000D03*
X130302000Y-100334000D03*
%TD*%
D29*
%TO.C,JP1*%
X64008000Y-143353000D03*
D30*
X64008000Y-144653000D03*
%TD*%
D31*
%TO.C,R11*%
X86100000Y-62000000D03*
X89025000Y-62000000D03*
%TD*%
D16*
%TO.C,U4*%
X69974000Y-137033000D03*
X69974000Y-138303000D03*
X69974000Y-139573000D03*
X69974000Y-140843000D03*
X65024000Y-140843000D03*
X65024000Y-139573000D03*
X65024000Y-138303000D03*
X65024000Y-137033000D03*
%TD*%
D32*
%TO.C,C3*%
X147160000Y-69653995D03*
X147160000Y-66703995D03*
%TD*%
D31*
%TO.C,R3*%
X56384000Y-123063000D03*
X59309000Y-123063000D03*
%TD*%
D33*
%TO.C,JP3*%
X120411000Y-80518000D03*
D34*
X119111000Y-80518000D03*
%TD*%
D35*
%TO.C,U13*%
X104750000Y-101147000D03*
X104250000Y-101147000D03*
X103750000Y-101147000D03*
X103250000Y-101147000D03*
X102750000Y-101147000D03*
X102250000Y-101147000D03*
X101750000Y-101147000D03*
X101250000Y-101147000D03*
X100750000Y-101147000D03*
X100250000Y-101147000D03*
X99750000Y-101147000D03*
X99250000Y-101147000D03*
X98750000Y-101147000D03*
X98250000Y-101147000D03*
X97750000Y-101147000D03*
X97250000Y-101147000D03*
X96750000Y-101147000D03*
X96250000Y-101147000D03*
X95750000Y-101147000D03*
X95250000Y-101147000D03*
X94750000Y-101147000D03*
X94250000Y-101147000D03*
X93750000Y-101147000D03*
X93250000Y-101147000D03*
X92750000Y-101147000D03*
D36*
X91075000Y-99472000D03*
X91075000Y-98972000D03*
X91075000Y-98472000D03*
X91075000Y-97972000D03*
X91075000Y-97472000D03*
X91075000Y-96972000D03*
X91075000Y-96472000D03*
X91075000Y-95972000D03*
X91075000Y-95472000D03*
X91075000Y-94972000D03*
X91075000Y-94472000D03*
X91075000Y-93972000D03*
X91075000Y-93472000D03*
X91075000Y-92972000D03*
X91075000Y-92472000D03*
X91075000Y-91972000D03*
X91075000Y-91472000D03*
X91075000Y-90972000D03*
X91075000Y-90472000D03*
X91075000Y-89972000D03*
X91075000Y-89472000D03*
X91075000Y-88972000D03*
X91075000Y-88472000D03*
X91075000Y-87972000D03*
X91075000Y-87472000D03*
D35*
X92750000Y-85797000D03*
X93250000Y-85797000D03*
X93750000Y-85797000D03*
X94250000Y-85797000D03*
X94750000Y-85797000D03*
X95250000Y-85797000D03*
X95750000Y-85797000D03*
X96250000Y-85797000D03*
X96750000Y-85797000D03*
X97250000Y-85797000D03*
X97750000Y-85797000D03*
X98250000Y-85797000D03*
X98750000Y-85797000D03*
X99250000Y-85797000D03*
X99750000Y-85797000D03*
X100250000Y-85797000D03*
X100750000Y-85797000D03*
X101250000Y-85797000D03*
X101750000Y-85797000D03*
X102250000Y-85797000D03*
X102750000Y-85797000D03*
X103250000Y-85797000D03*
X103750000Y-85797000D03*
X104250000Y-85797000D03*
X104750000Y-85797000D03*
D36*
X106425000Y-87472000D03*
X106425000Y-87972000D03*
X106425000Y-88472000D03*
X106425000Y-88972000D03*
X106425000Y-89472000D03*
X106425000Y-89972000D03*
X106425000Y-90472000D03*
X106425000Y-90972000D03*
X106425000Y-91472000D03*
X106425000Y-91972000D03*
X106425000Y-92472000D03*
X106425000Y-92972000D03*
X106425000Y-93472000D03*
X106425000Y-93972000D03*
X106425000Y-94472000D03*
X106425000Y-94972000D03*
X106425000Y-95472000D03*
X106425000Y-95972000D03*
X106425000Y-96472000D03*
X106425000Y-96972000D03*
X106425000Y-97472000D03*
X106425000Y-97972000D03*
X106425000Y-98472000D03*
X106425000Y-98972000D03*
X106425000Y-99472000D03*
%TD*%
D37*
%TO.C,C9*%
X99060000Y-123874000D03*
X99060000Y-126824000D03*
%TD*%
D38*
%TO.C,R1*%
X67056000Y-72898000D03*
X64131000Y-72898000D03*
%TD*%
D31*
%TO.C,R7*%
X85875000Y-56900000D03*
X88800000Y-56900000D03*
%TD*%
D37*
%TO.C,C17*%
X73914000Y-140179000D03*
X73914000Y-143129000D03*
%TD*%
D31*
%TO.C,R6*%
X66294000Y-145288000D03*
X69219000Y-145288000D03*
%TD*%
D28*
%TO.C,R9*%
X109220000Y-74041000D03*
X109220000Y-76966000D03*
%TD*%
D39*
%TO.C,C12*%
X71360000Y-59453995D03*
X71360000Y-53228995D03*
%TD*%
D38*
%TO.C,R10*%
X56769000Y-114808000D03*
X53844000Y-114808000D03*
%TD*%
D31*
%TO.C,R4*%
X56384000Y-125349000D03*
X59309000Y-125349000D03*
%TD*%
%TO.C,R5*%
X66294000Y-143002000D03*
X69219000Y-143002000D03*
%TD*%
D40*
%TO.C,Q2*%
X66270000Y-57851000D03*
X66270000Y-59751000D03*
X63270000Y-58801000D03*
%TD*%
D31*
%TO.C,R8*%
X85837500Y-59200000D03*
X88762500Y-59200000D03*
%TD*%
D38*
%TO.C,R2*%
X67056000Y-75184000D03*
X64131000Y-75184000D03*
%TD*%
D31*
%TO.C,R12*%
X57781000Y-58928000D03*
X60706000Y-58928000D03*
%TD*%
D41*
%TO.C,JP2*%
X111760000Y-78262000D03*
D42*
X111760000Y-76962000D03*
D43*
X111760000Y-75662000D03*
%TD*%
G36*
X79097419Y-61569027D02*
G01*
X79143177Y-61621828D01*
X79154386Y-61673373D01*
X79152026Y-73110021D01*
X79132328Y-73177056D01*
X79079514Y-73222800D01*
X79028026Y-73233995D01*
X69116000Y-73233995D01*
X69048961Y-73214310D01*
X69003206Y-73161506D01*
X68992000Y-73109995D01*
X68992000Y-61673986D01*
X69011685Y-61606947D01*
X69064489Y-61561192D01*
X69115992Y-61549986D01*
X79030378Y-61549347D01*
X79097419Y-61569027D01*
G37*
M02*
