%TF.GenerationSoftware,KiCad,Pcbnew,8.0.7-8.0.7-0~ubuntu22.04.1*%
%TF.CreationDate,2025-01-29T22:40:37+01:00*%
%TF.ProjectId,RAMROM_Board,52414d52-4f4d-45f4-926f-6172642e6b69,rev?*%
%TF.SameCoordinates,Original*%
%TF.FileFunction,Legend,Bot*%
%TF.FilePolarity,Positive*%
%FSLAX46Y46*%
G04 Gerber Fmt 4.6, Leading zero omitted, Abs format (unit mm)*
G04 Created by KiCad (PCBNEW 8.0.7-8.0.7-0~ubuntu22.04.1) date 2025-01-29 22:40:37*
%MOMM*%
%LPD*%
G01*
G04 APERTURE LIST*
%ADD10C,0.150000*%
%ADD11C,0.120000*%
G04 APERTURE END LIST*
D10*
X121761094Y-72508819D02*
X121761094Y-73318342D01*
X121761094Y-73318342D02*
X121713475Y-73413580D01*
X121713475Y-73413580D02*
X121665856Y-73461200D01*
X121665856Y-73461200D02*
X121570618Y-73508819D01*
X121570618Y-73508819D02*
X121380142Y-73508819D01*
X121380142Y-73508819D02*
X121284904Y-73461200D01*
X121284904Y-73461200D02*
X121237285Y-73413580D01*
X121237285Y-73413580D02*
X121189666Y-73318342D01*
X121189666Y-73318342D02*
X121189666Y-72508819D01*
X120761094Y-72604057D02*
X120713475Y-72556438D01*
X120713475Y-72556438D02*
X120618237Y-72508819D01*
X120618237Y-72508819D02*
X120380142Y-72508819D01*
X120380142Y-72508819D02*
X120284904Y-72556438D01*
X120284904Y-72556438D02*
X120237285Y-72604057D01*
X120237285Y-72604057D02*
X120189666Y-72699295D01*
X120189666Y-72699295D02*
X120189666Y-72794533D01*
X120189666Y-72794533D02*
X120237285Y-72937390D01*
X120237285Y-72937390D02*
X120808713Y-73508819D01*
X120808713Y-73508819D02*
X120189666Y-73508819D01*
X119570618Y-72508819D02*
X119475380Y-72508819D01*
X119475380Y-72508819D02*
X119380142Y-72556438D01*
X119380142Y-72556438D02*
X119332523Y-72604057D01*
X119332523Y-72604057D02*
X119284904Y-72699295D01*
X119284904Y-72699295D02*
X119237285Y-72889771D01*
X119237285Y-72889771D02*
X119237285Y-73127866D01*
X119237285Y-73127866D02*
X119284904Y-73318342D01*
X119284904Y-73318342D02*
X119332523Y-73413580D01*
X119332523Y-73413580D02*
X119380142Y-73461200D01*
X119380142Y-73461200D02*
X119475380Y-73508819D01*
X119475380Y-73508819D02*
X119570618Y-73508819D01*
X119570618Y-73508819D02*
X119665856Y-73461200D01*
X119665856Y-73461200D02*
X119713475Y-73413580D01*
X119713475Y-73413580D02*
X119761094Y-73318342D01*
X119761094Y-73318342D02*
X119808713Y-73127866D01*
X119808713Y-73127866D02*
X119808713Y-72889771D01*
X119808713Y-72889771D02*
X119761094Y-72699295D01*
X119761094Y-72699295D02*
X119713475Y-72604057D01*
X119713475Y-72604057D02*
X119665856Y-72556438D01*
X119665856Y-72556438D02*
X119570618Y-72508819D01*
X128936819Y-98228642D02*
X128460628Y-97895309D01*
X128936819Y-97657214D02*
X127936819Y-97657214D01*
X127936819Y-97657214D02*
X127936819Y-98038166D01*
X127936819Y-98038166D02*
X127984438Y-98133404D01*
X127984438Y-98133404D02*
X128032057Y-98181023D01*
X128032057Y-98181023D02*
X128127295Y-98228642D01*
X128127295Y-98228642D02*
X128270152Y-98228642D01*
X128270152Y-98228642D02*
X128365390Y-98181023D01*
X128365390Y-98181023D02*
X128413009Y-98133404D01*
X128413009Y-98133404D02*
X128460628Y-98038166D01*
X128460628Y-98038166D02*
X128460628Y-97657214D01*
X128936819Y-99181023D02*
X128936819Y-98609595D01*
X128936819Y-98895309D02*
X127936819Y-98895309D01*
X127936819Y-98895309D02*
X128079676Y-98800071D01*
X128079676Y-98800071D02*
X128174914Y-98704833D01*
X128174914Y-98704833D02*
X128222533Y-98609595D01*
X127936819Y-99514357D02*
X127936819Y-100133404D01*
X127936819Y-100133404D02*
X128317771Y-99800071D01*
X128317771Y-99800071D02*
X128317771Y-99942928D01*
X128317771Y-99942928D02*
X128365390Y-100038166D01*
X128365390Y-100038166D02*
X128413009Y-100085785D01*
X128413009Y-100085785D02*
X128508247Y-100133404D01*
X128508247Y-100133404D02*
X128746342Y-100133404D01*
X128746342Y-100133404D02*
X128841580Y-100085785D01*
X128841580Y-100085785D02*
X128889200Y-100038166D01*
X128889200Y-100038166D02*
X128936819Y-99942928D01*
X128936819Y-99942928D02*
X128936819Y-99657214D01*
X128936819Y-99657214D02*
X128889200Y-99561976D01*
X128889200Y-99561976D02*
X128841580Y-99514357D01*
X62462580Y-142914809D02*
X62510200Y-142867190D01*
X62510200Y-142867190D02*
X62557819Y-142724333D01*
X62557819Y-142724333D02*
X62557819Y-142629095D01*
X62557819Y-142629095D02*
X62510200Y-142486238D01*
X62510200Y-142486238D02*
X62414961Y-142391000D01*
X62414961Y-142391000D02*
X62319723Y-142343381D01*
X62319723Y-142343381D02*
X62129247Y-142295762D01*
X62129247Y-142295762D02*
X61986390Y-142295762D01*
X61986390Y-142295762D02*
X61795914Y-142343381D01*
X61795914Y-142343381D02*
X61700676Y-142391000D01*
X61700676Y-142391000D02*
X61605438Y-142486238D01*
X61605438Y-142486238D02*
X61557819Y-142629095D01*
X61557819Y-142629095D02*
X61557819Y-142724333D01*
X61557819Y-142724333D02*
X61605438Y-142867190D01*
X61605438Y-142867190D02*
X61653057Y-142914809D01*
X61557819Y-143200524D02*
X61557819Y-143771952D01*
X62557819Y-143486238D02*
X61557819Y-143486238D01*
X62557819Y-144676714D02*
X62081628Y-144343381D01*
X62557819Y-144105286D02*
X61557819Y-144105286D01*
X61557819Y-144105286D02*
X61557819Y-144486238D01*
X61557819Y-144486238D02*
X61605438Y-144581476D01*
X61605438Y-144581476D02*
X61653057Y-144629095D01*
X61653057Y-144629095D02*
X61748295Y-144676714D01*
X61748295Y-144676714D02*
X61891152Y-144676714D01*
X61891152Y-144676714D02*
X61986390Y-144629095D01*
X61986390Y-144629095D02*
X62034009Y-144581476D01*
X62034009Y-144581476D02*
X62081628Y-144486238D01*
X62081628Y-144486238D02*
X62081628Y-144105286D01*
X62557819Y-145581476D02*
X62557819Y-145105286D01*
X62557819Y-145105286D02*
X61557819Y-145105286D01*
X84242857Y-62454819D02*
X84576190Y-61978628D01*
X84814285Y-62454819D02*
X84814285Y-61454819D01*
X84814285Y-61454819D02*
X84433333Y-61454819D01*
X84433333Y-61454819D02*
X84338095Y-61502438D01*
X84338095Y-61502438D02*
X84290476Y-61550057D01*
X84290476Y-61550057D02*
X84242857Y-61645295D01*
X84242857Y-61645295D02*
X84242857Y-61788152D01*
X84242857Y-61788152D02*
X84290476Y-61883390D01*
X84290476Y-61883390D02*
X84338095Y-61931009D01*
X84338095Y-61931009D02*
X84433333Y-61978628D01*
X84433333Y-61978628D02*
X84814285Y-61978628D01*
X83290476Y-62454819D02*
X83861904Y-62454819D01*
X83576190Y-62454819D02*
X83576190Y-61454819D01*
X83576190Y-61454819D02*
X83671428Y-61597676D01*
X83671428Y-61597676D02*
X83766666Y-61692914D01*
X83766666Y-61692914D02*
X83861904Y-61740533D01*
X82338095Y-62454819D02*
X82909523Y-62454819D01*
X82623809Y-62454819D02*
X82623809Y-61454819D01*
X82623809Y-61454819D02*
X82719047Y-61597676D01*
X82719047Y-61597676D02*
X82814285Y-61692914D01*
X82814285Y-61692914D02*
X82909523Y-61740533D01*
X71729019Y-136296495D02*
X72538542Y-136296495D01*
X72538542Y-136296495D02*
X72633780Y-136344114D01*
X72633780Y-136344114D02*
X72681400Y-136391733D01*
X72681400Y-136391733D02*
X72729019Y-136486971D01*
X72729019Y-136486971D02*
X72729019Y-136677447D01*
X72729019Y-136677447D02*
X72681400Y-136772685D01*
X72681400Y-136772685D02*
X72633780Y-136820304D01*
X72633780Y-136820304D02*
X72538542Y-136867923D01*
X72538542Y-136867923D02*
X71729019Y-136867923D01*
X72062352Y-137772685D02*
X72729019Y-137772685D01*
X71681400Y-137534590D02*
X72395685Y-137296495D01*
X72395685Y-137296495D02*
X72395685Y-137915542D01*
X149369580Y-68012328D02*
X149417200Y-67964709D01*
X149417200Y-67964709D02*
X149464819Y-67821852D01*
X149464819Y-67821852D02*
X149464819Y-67726614D01*
X149464819Y-67726614D02*
X149417200Y-67583757D01*
X149417200Y-67583757D02*
X149321961Y-67488519D01*
X149321961Y-67488519D02*
X149226723Y-67440900D01*
X149226723Y-67440900D02*
X149036247Y-67393281D01*
X149036247Y-67393281D02*
X148893390Y-67393281D01*
X148893390Y-67393281D02*
X148702914Y-67440900D01*
X148702914Y-67440900D02*
X148607676Y-67488519D01*
X148607676Y-67488519D02*
X148512438Y-67583757D01*
X148512438Y-67583757D02*
X148464819Y-67726614D01*
X148464819Y-67726614D02*
X148464819Y-67821852D01*
X148464819Y-67821852D02*
X148512438Y-67964709D01*
X148512438Y-67964709D02*
X148560057Y-68012328D01*
X148464819Y-68345662D02*
X148464819Y-68964709D01*
X148464819Y-68964709D02*
X148845771Y-68631376D01*
X148845771Y-68631376D02*
X148845771Y-68774233D01*
X148845771Y-68774233D02*
X148893390Y-68869471D01*
X148893390Y-68869471D02*
X148941009Y-68917090D01*
X148941009Y-68917090D02*
X149036247Y-68964709D01*
X149036247Y-68964709D02*
X149274342Y-68964709D01*
X149274342Y-68964709D02*
X149369580Y-68917090D01*
X149369580Y-68917090D02*
X149417200Y-68869471D01*
X149417200Y-68869471D02*
X149464819Y-68774233D01*
X149464819Y-68774233D02*
X149464819Y-68488519D01*
X149464819Y-68488519D02*
X149417200Y-68393281D01*
X149417200Y-68393281D02*
X149369580Y-68345662D01*
X55052661Y-123523819D02*
X55385994Y-123047628D01*
X55624089Y-123523819D02*
X55624089Y-122523819D01*
X55624089Y-122523819D02*
X55243137Y-122523819D01*
X55243137Y-122523819D02*
X55147899Y-122571438D01*
X55147899Y-122571438D02*
X55100280Y-122619057D01*
X55100280Y-122619057D02*
X55052661Y-122714295D01*
X55052661Y-122714295D02*
X55052661Y-122857152D01*
X55052661Y-122857152D02*
X55100280Y-122952390D01*
X55100280Y-122952390D02*
X55147899Y-123000009D01*
X55147899Y-123000009D02*
X55243137Y-123047628D01*
X55243137Y-123047628D02*
X55624089Y-123047628D01*
X54719327Y-122523819D02*
X54100280Y-122523819D01*
X54100280Y-122523819D02*
X54433613Y-122904771D01*
X54433613Y-122904771D02*
X54290756Y-122904771D01*
X54290756Y-122904771D02*
X54195518Y-122952390D01*
X54195518Y-122952390D02*
X54147899Y-123000009D01*
X54147899Y-123000009D02*
X54100280Y-123095247D01*
X54100280Y-123095247D02*
X54100280Y-123333342D01*
X54100280Y-123333342D02*
X54147899Y-123428580D01*
X54147899Y-123428580D02*
X54195518Y-123476200D01*
X54195518Y-123476200D02*
X54290756Y-123523819D01*
X54290756Y-123523819D02*
X54576470Y-123523819D01*
X54576470Y-123523819D02*
X54671708Y-123476200D01*
X54671708Y-123476200D02*
X54719327Y-123428580D01*
X123698333Y-79926019D02*
X123698333Y-80640304D01*
X123698333Y-80640304D02*
X123745952Y-80783161D01*
X123745952Y-80783161D02*
X123841190Y-80878400D01*
X123841190Y-80878400D02*
X123984047Y-80926019D01*
X123984047Y-80926019D02*
X124079285Y-80926019D01*
X123222142Y-80926019D02*
X123222142Y-79926019D01*
X123222142Y-79926019D02*
X122841190Y-79926019D01*
X122841190Y-79926019D02*
X122745952Y-79973638D01*
X122745952Y-79973638D02*
X122698333Y-80021257D01*
X122698333Y-80021257D02*
X122650714Y-80116495D01*
X122650714Y-80116495D02*
X122650714Y-80259352D01*
X122650714Y-80259352D02*
X122698333Y-80354590D01*
X122698333Y-80354590D02*
X122745952Y-80402209D01*
X122745952Y-80402209D02*
X122841190Y-80449828D01*
X122841190Y-80449828D02*
X123222142Y-80449828D01*
X122317380Y-79926019D02*
X121698333Y-79926019D01*
X121698333Y-79926019D02*
X122031666Y-80306971D01*
X122031666Y-80306971D02*
X121888809Y-80306971D01*
X121888809Y-80306971D02*
X121793571Y-80354590D01*
X121793571Y-80354590D02*
X121745952Y-80402209D01*
X121745952Y-80402209D02*
X121698333Y-80497447D01*
X121698333Y-80497447D02*
X121698333Y-80735542D01*
X121698333Y-80735542D02*
X121745952Y-80830780D01*
X121745952Y-80830780D02*
X121793571Y-80878400D01*
X121793571Y-80878400D02*
X121888809Y-80926019D01*
X121888809Y-80926019D02*
X122174523Y-80926019D01*
X122174523Y-80926019D02*
X122269761Y-80878400D01*
X122269761Y-80878400D02*
X122317380Y-80830780D01*
X124982762Y-82710580D02*
X125030381Y-82758200D01*
X125030381Y-82758200D02*
X125173238Y-82805819D01*
X125173238Y-82805819D02*
X125268476Y-82805819D01*
X125268476Y-82805819D02*
X125411333Y-82758200D01*
X125411333Y-82758200D02*
X125506571Y-82662961D01*
X125506571Y-82662961D02*
X125554190Y-82567723D01*
X125554190Y-82567723D02*
X125601809Y-82377247D01*
X125601809Y-82377247D02*
X125601809Y-82234390D01*
X125601809Y-82234390D02*
X125554190Y-82043914D01*
X125554190Y-82043914D02*
X125506571Y-81948676D01*
X125506571Y-81948676D02*
X125411333Y-81853438D01*
X125411333Y-81853438D02*
X125268476Y-81805819D01*
X125268476Y-81805819D02*
X125173238Y-81805819D01*
X125173238Y-81805819D02*
X125030381Y-81853438D01*
X125030381Y-81853438D02*
X124982762Y-81901057D01*
X124554190Y-82282009D02*
X124220857Y-82282009D01*
X124078000Y-82805819D02*
X124554190Y-82805819D01*
X124554190Y-82805819D02*
X124554190Y-81805819D01*
X124554190Y-81805819D02*
X124078000Y-81805819D01*
X123649428Y-82805819D02*
X123649428Y-82139152D01*
X123649428Y-81805819D02*
X123697047Y-81853438D01*
X123697047Y-81853438D02*
X123649428Y-81901057D01*
X123649428Y-81901057D02*
X123601809Y-81853438D01*
X123601809Y-81853438D02*
X123649428Y-81805819D01*
X123649428Y-81805819D02*
X123649428Y-81901057D01*
X125692286Y-81528200D02*
X123511334Y-81528200D01*
X122554190Y-82139152D02*
X122173238Y-82139152D01*
X122411333Y-81805819D02*
X122411333Y-82662961D01*
X122411333Y-82662961D02*
X122363714Y-82758200D01*
X122363714Y-82758200D02*
X122268476Y-82805819D01*
X122268476Y-82805819D02*
X122173238Y-82805819D01*
X121697047Y-82805819D02*
X121792285Y-82758200D01*
X121792285Y-82758200D02*
X121839904Y-82710580D01*
X121839904Y-82710580D02*
X121887523Y-82615342D01*
X121887523Y-82615342D02*
X121887523Y-82329628D01*
X121887523Y-82329628D02*
X121839904Y-82234390D01*
X121839904Y-82234390D02*
X121792285Y-82186771D01*
X121792285Y-82186771D02*
X121697047Y-82139152D01*
X121697047Y-82139152D02*
X121554190Y-82139152D01*
X121554190Y-82139152D02*
X121458952Y-82186771D01*
X121458952Y-82186771D02*
X121411333Y-82234390D01*
X121411333Y-82234390D02*
X121363714Y-82329628D01*
X121363714Y-82329628D02*
X121363714Y-82615342D01*
X121363714Y-82615342D02*
X121411333Y-82710580D01*
X121411333Y-82710580D02*
X121458952Y-82758200D01*
X121458952Y-82758200D02*
X121554190Y-82805819D01*
X121554190Y-82805819D02*
X121697047Y-82805819D01*
X119649428Y-81853438D02*
X119744666Y-81805819D01*
X119744666Y-81805819D02*
X119887523Y-81805819D01*
X119887523Y-81805819D02*
X120030380Y-81853438D01*
X120030380Y-81853438D02*
X120125618Y-81948676D01*
X120125618Y-81948676D02*
X120173237Y-82043914D01*
X120173237Y-82043914D02*
X120220856Y-82234390D01*
X120220856Y-82234390D02*
X120220856Y-82377247D01*
X120220856Y-82377247D02*
X120173237Y-82567723D01*
X120173237Y-82567723D02*
X120125618Y-82662961D01*
X120125618Y-82662961D02*
X120030380Y-82758200D01*
X120030380Y-82758200D02*
X119887523Y-82805819D01*
X119887523Y-82805819D02*
X119792285Y-82805819D01*
X119792285Y-82805819D02*
X119649428Y-82758200D01*
X119649428Y-82758200D02*
X119601809Y-82710580D01*
X119601809Y-82710580D02*
X119601809Y-82377247D01*
X119601809Y-82377247D02*
X119792285Y-82377247D01*
X119173237Y-82805819D02*
X119173237Y-81805819D01*
X119173237Y-81805819D02*
X118601809Y-82805819D01*
X118601809Y-82805819D02*
X118601809Y-81805819D01*
X118125618Y-82805819D02*
X118125618Y-81805819D01*
X118125618Y-81805819D02*
X117887523Y-81805819D01*
X117887523Y-81805819D02*
X117744666Y-81853438D01*
X117744666Y-81853438D02*
X117649428Y-81948676D01*
X117649428Y-81948676D02*
X117601809Y-82043914D01*
X117601809Y-82043914D02*
X117554190Y-82234390D01*
X117554190Y-82234390D02*
X117554190Y-82377247D01*
X117554190Y-82377247D02*
X117601809Y-82567723D01*
X117601809Y-82567723D02*
X117649428Y-82662961D01*
X117649428Y-82662961D02*
X117744666Y-82758200D01*
X117744666Y-82758200D02*
X117887523Y-82805819D01*
X117887523Y-82805819D02*
X118125618Y-82805819D01*
X102097580Y-124956333D02*
X102145200Y-124908714D01*
X102145200Y-124908714D02*
X102192819Y-124765857D01*
X102192819Y-124765857D02*
X102192819Y-124670619D01*
X102192819Y-124670619D02*
X102145200Y-124527762D01*
X102145200Y-124527762D02*
X102049961Y-124432524D01*
X102049961Y-124432524D02*
X101954723Y-124384905D01*
X101954723Y-124384905D02*
X101764247Y-124337286D01*
X101764247Y-124337286D02*
X101621390Y-124337286D01*
X101621390Y-124337286D02*
X101430914Y-124384905D01*
X101430914Y-124384905D02*
X101335676Y-124432524D01*
X101335676Y-124432524D02*
X101240438Y-124527762D01*
X101240438Y-124527762D02*
X101192819Y-124670619D01*
X101192819Y-124670619D02*
X101192819Y-124765857D01*
X101192819Y-124765857D02*
X101240438Y-124908714D01*
X101240438Y-124908714D02*
X101288057Y-124956333D01*
X102192819Y-125432524D02*
X102192819Y-125623000D01*
X102192819Y-125623000D02*
X102145200Y-125718238D01*
X102145200Y-125718238D02*
X102097580Y-125765857D01*
X102097580Y-125765857D02*
X101954723Y-125861095D01*
X101954723Y-125861095D02*
X101764247Y-125908714D01*
X101764247Y-125908714D02*
X101383295Y-125908714D01*
X101383295Y-125908714D02*
X101288057Y-125861095D01*
X101288057Y-125861095D02*
X101240438Y-125813476D01*
X101240438Y-125813476D02*
X101192819Y-125718238D01*
X101192819Y-125718238D02*
X101192819Y-125527762D01*
X101192819Y-125527762D02*
X101240438Y-125432524D01*
X101240438Y-125432524D02*
X101288057Y-125384905D01*
X101288057Y-125384905D02*
X101383295Y-125337286D01*
X101383295Y-125337286D02*
X101621390Y-125337286D01*
X101621390Y-125337286D02*
X101716628Y-125384905D01*
X101716628Y-125384905D02*
X101764247Y-125432524D01*
X101764247Y-125432524D02*
X101811866Y-125527762D01*
X101811866Y-125527762D02*
X101811866Y-125718238D01*
X101811866Y-125718238D02*
X101764247Y-125813476D01*
X101764247Y-125813476D02*
X101716628Y-125861095D01*
X101716628Y-125861095D02*
X101621390Y-125908714D01*
X62365666Y-73270824D02*
X62698999Y-72794633D01*
X62937094Y-73270824D02*
X62937094Y-72270824D01*
X62937094Y-72270824D02*
X62556142Y-72270824D01*
X62556142Y-72270824D02*
X62460904Y-72318443D01*
X62460904Y-72318443D02*
X62413285Y-72366062D01*
X62413285Y-72366062D02*
X62365666Y-72461300D01*
X62365666Y-72461300D02*
X62365666Y-72604157D01*
X62365666Y-72604157D02*
X62413285Y-72699395D01*
X62413285Y-72699395D02*
X62460904Y-72747014D01*
X62460904Y-72747014D02*
X62556142Y-72794633D01*
X62556142Y-72794633D02*
X62937094Y-72794633D01*
X61413285Y-73270824D02*
X61984713Y-73270824D01*
X61698999Y-73270824D02*
X61698999Y-72270824D01*
X61698999Y-72270824D02*
X61794237Y-72413681D01*
X61794237Y-72413681D02*
X61889475Y-72508919D01*
X61889475Y-72508919D02*
X61984713Y-72556538D01*
X84066666Y-57454819D02*
X84399999Y-56978628D01*
X84638094Y-57454819D02*
X84638094Y-56454819D01*
X84638094Y-56454819D02*
X84257142Y-56454819D01*
X84257142Y-56454819D02*
X84161904Y-56502438D01*
X84161904Y-56502438D02*
X84114285Y-56550057D01*
X84114285Y-56550057D02*
X84066666Y-56645295D01*
X84066666Y-56645295D02*
X84066666Y-56788152D01*
X84066666Y-56788152D02*
X84114285Y-56883390D01*
X84114285Y-56883390D02*
X84161904Y-56931009D01*
X84161904Y-56931009D02*
X84257142Y-56978628D01*
X84257142Y-56978628D02*
X84638094Y-56978628D01*
X83733332Y-56454819D02*
X83066666Y-56454819D01*
X83066666Y-56454819D02*
X83495237Y-57454819D01*
X76359580Y-141011142D02*
X76407200Y-140963523D01*
X76407200Y-140963523D02*
X76454819Y-140820666D01*
X76454819Y-140820666D02*
X76454819Y-140725428D01*
X76454819Y-140725428D02*
X76407200Y-140582571D01*
X76407200Y-140582571D02*
X76311961Y-140487333D01*
X76311961Y-140487333D02*
X76216723Y-140439714D01*
X76216723Y-140439714D02*
X76026247Y-140392095D01*
X76026247Y-140392095D02*
X75883390Y-140392095D01*
X75883390Y-140392095D02*
X75692914Y-140439714D01*
X75692914Y-140439714D02*
X75597676Y-140487333D01*
X75597676Y-140487333D02*
X75502438Y-140582571D01*
X75502438Y-140582571D02*
X75454819Y-140725428D01*
X75454819Y-140725428D02*
X75454819Y-140820666D01*
X75454819Y-140820666D02*
X75502438Y-140963523D01*
X75502438Y-140963523D02*
X75550057Y-141011142D01*
X76454819Y-141963523D02*
X76454819Y-141392095D01*
X76454819Y-141677809D02*
X75454819Y-141677809D01*
X75454819Y-141677809D02*
X75597676Y-141582571D01*
X75597676Y-141582571D02*
X75692914Y-141487333D01*
X75692914Y-141487333D02*
X75740533Y-141392095D01*
X75454819Y-142296857D02*
X75454819Y-142963523D01*
X75454819Y-142963523D02*
X76454819Y-142534952D01*
X71360666Y-145688819D02*
X71693999Y-145212628D01*
X71932094Y-145688819D02*
X71932094Y-144688819D01*
X71932094Y-144688819D02*
X71551142Y-144688819D01*
X71551142Y-144688819D02*
X71455904Y-144736438D01*
X71455904Y-144736438D02*
X71408285Y-144784057D01*
X71408285Y-144784057D02*
X71360666Y-144879295D01*
X71360666Y-144879295D02*
X71360666Y-145022152D01*
X71360666Y-145022152D02*
X71408285Y-145117390D01*
X71408285Y-145117390D02*
X71455904Y-145165009D01*
X71455904Y-145165009D02*
X71551142Y-145212628D01*
X71551142Y-145212628D02*
X71932094Y-145212628D01*
X70503523Y-144688819D02*
X70693999Y-144688819D01*
X70693999Y-144688819D02*
X70789237Y-144736438D01*
X70789237Y-144736438D02*
X70836856Y-144784057D01*
X70836856Y-144784057D02*
X70932094Y-144926914D01*
X70932094Y-144926914D02*
X70979713Y-145117390D01*
X70979713Y-145117390D02*
X70979713Y-145498342D01*
X70979713Y-145498342D02*
X70932094Y-145593580D01*
X70932094Y-145593580D02*
X70884475Y-145641200D01*
X70884475Y-145641200D02*
X70789237Y-145688819D01*
X70789237Y-145688819D02*
X70598761Y-145688819D01*
X70598761Y-145688819D02*
X70503523Y-145641200D01*
X70503523Y-145641200D02*
X70455904Y-145593580D01*
X70455904Y-145593580D02*
X70408285Y-145498342D01*
X70408285Y-145498342D02*
X70408285Y-145260247D01*
X70408285Y-145260247D02*
X70455904Y-145165009D01*
X70455904Y-145165009D02*
X70503523Y-145117390D01*
X70503523Y-145117390D02*
X70598761Y-145069771D01*
X70598761Y-145069771D02*
X70789237Y-145069771D01*
X70789237Y-145069771D02*
X70884475Y-145117390D01*
X70884475Y-145117390D02*
X70932094Y-145165009D01*
X70932094Y-145165009D02*
X70979713Y-145260247D01*
X107854819Y-75336833D02*
X107378628Y-75003500D01*
X107854819Y-74765405D02*
X106854819Y-74765405D01*
X106854819Y-74765405D02*
X106854819Y-75146357D01*
X106854819Y-75146357D02*
X106902438Y-75241595D01*
X106902438Y-75241595D02*
X106950057Y-75289214D01*
X106950057Y-75289214D02*
X107045295Y-75336833D01*
X107045295Y-75336833D02*
X107188152Y-75336833D01*
X107188152Y-75336833D02*
X107283390Y-75289214D01*
X107283390Y-75289214D02*
X107331009Y-75241595D01*
X107331009Y-75241595D02*
X107378628Y-75146357D01*
X107378628Y-75146357D02*
X107378628Y-74765405D01*
X107854819Y-75813024D02*
X107854819Y-76003500D01*
X107854819Y-76003500D02*
X107807200Y-76098738D01*
X107807200Y-76098738D02*
X107759580Y-76146357D01*
X107759580Y-76146357D02*
X107616723Y-76241595D01*
X107616723Y-76241595D02*
X107426247Y-76289214D01*
X107426247Y-76289214D02*
X107045295Y-76289214D01*
X107045295Y-76289214D02*
X106950057Y-76241595D01*
X106950057Y-76241595D02*
X106902438Y-76193976D01*
X106902438Y-76193976D02*
X106854819Y-76098738D01*
X106854819Y-76098738D02*
X106854819Y-75908262D01*
X106854819Y-75908262D02*
X106902438Y-75813024D01*
X106902438Y-75813024D02*
X106950057Y-75765405D01*
X106950057Y-75765405D02*
X107045295Y-75717786D01*
X107045295Y-75717786D02*
X107283390Y-75717786D01*
X107283390Y-75717786D02*
X107378628Y-75765405D01*
X107378628Y-75765405D02*
X107426247Y-75813024D01*
X107426247Y-75813024D02*
X107473866Y-75908262D01*
X107473866Y-75908262D02*
X107473866Y-76098738D01*
X107473866Y-76098738D02*
X107426247Y-76193976D01*
X107426247Y-76193976D02*
X107378628Y-76241595D01*
X107378628Y-76241595D02*
X107283390Y-76289214D01*
X74819580Y-55698637D02*
X74867200Y-55651018D01*
X74867200Y-55651018D02*
X74914819Y-55508161D01*
X74914819Y-55508161D02*
X74914819Y-55412923D01*
X74914819Y-55412923D02*
X74867200Y-55270066D01*
X74867200Y-55270066D02*
X74771961Y-55174828D01*
X74771961Y-55174828D02*
X74676723Y-55127209D01*
X74676723Y-55127209D02*
X74486247Y-55079590D01*
X74486247Y-55079590D02*
X74343390Y-55079590D01*
X74343390Y-55079590D02*
X74152914Y-55127209D01*
X74152914Y-55127209D02*
X74057676Y-55174828D01*
X74057676Y-55174828D02*
X73962438Y-55270066D01*
X73962438Y-55270066D02*
X73914819Y-55412923D01*
X73914819Y-55412923D02*
X73914819Y-55508161D01*
X73914819Y-55508161D02*
X73962438Y-55651018D01*
X73962438Y-55651018D02*
X74010057Y-55698637D01*
X74914819Y-56651018D02*
X74914819Y-56079590D01*
X74914819Y-56365304D02*
X73914819Y-56365304D01*
X73914819Y-56365304D02*
X74057676Y-56270066D01*
X74057676Y-56270066D02*
X74152914Y-56174828D01*
X74152914Y-56174828D02*
X74200533Y-56079590D01*
X74010057Y-57031971D02*
X73962438Y-57079590D01*
X73962438Y-57079590D02*
X73914819Y-57174828D01*
X73914819Y-57174828D02*
X73914819Y-57412923D01*
X73914819Y-57412923D02*
X73962438Y-57508161D01*
X73962438Y-57508161D02*
X74010057Y-57555780D01*
X74010057Y-57555780D02*
X74105295Y-57603399D01*
X74105295Y-57603399D02*
X74200533Y-57603399D01*
X74200533Y-57603399D02*
X74343390Y-57555780D01*
X74343390Y-57555780D02*
X74914819Y-56984352D01*
X74914819Y-56984352D02*
X74914819Y-57603399D01*
X55949357Y-113442819D02*
X56282690Y-112966628D01*
X56520785Y-113442819D02*
X56520785Y-112442819D01*
X56520785Y-112442819D02*
X56139833Y-112442819D01*
X56139833Y-112442819D02*
X56044595Y-112490438D01*
X56044595Y-112490438D02*
X55996976Y-112538057D01*
X55996976Y-112538057D02*
X55949357Y-112633295D01*
X55949357Y-112633295D02*
X55949357Y-112776152D01*
X55949357Y-112776152D02*
X55996976Y-112871390D01*
X55996976Y-112871390D02*
X56044595Y-112919009D01*
X56044595Y-112919009D02*
X56139833Y-112966628D01*
X56139833Y-112966628D02*
X56520785Y-112966628D01*
X54996976Y-113442819D02*
X55568404Y-113442819D01*
X55282690Y-113442819D02*
X55282690Y-112442819D01*
X55282690Y-112442819D02*
X55377928Y-112585676D01*
X55377928Y-112585676D02*
X55473166Y-112680914D01*
X55473166Y-112680914D02*
X55568404Y-112728533D01*
X54377928Y-112442819D02*
X54282690Y-112442819D01*
X54282690Y-112442819D02*
X54187452Y-112490438D01*
X54187452Y-112490438D02*
X54139833Y-112538057D01*
X54139833Y-112538057D02*
X54092214Y-112633295D01*
X54092214Y-112633295D02*
X54044595Y-112823771D01*
X54044595Y-112823771D02*
X54044595Y-113061866D01*
X54044595Y-113061866D02*
X54092214Y-113252342D01*
X54092214Y-113252342D02*
X54139833Y-113347580D01*
X54139833Y-113347580D02*
X54187452Y-113395200D01*
X54187452Y-113395200D02*
X54282690Y-113442819D01*
X54282690Y-113442819D02*
X54377928Y-113442819D01*
X54377928Y-113442819D02*
X54473166Y-113395200D01*
X54473166Y-113395200D02*
X54520785Y-113347580D01*
X54520785Y-113347580D02*
X54568404Y-113252342D01*
X54568404Y-113252342D02*
X54616023Y-113061866D01*
X54616023Y-113061866D02*
X54616023Y-112823771D01*
X54616023Y-112823771D02*
X54568404Y-112633295D01*
X54568404Y-112633295D02*
X54520785Y-112538057D01*
X54520785Y-112538057D02*
X54473166Y-112490438D01*
X54473166Y-112490438D02*
X54377928Y-112442819D01*
X54850666Y-125729819D02*
X55183999Y-125253628D01*
X55422094Y-125729819D02*
X55422094Y-124729819D01*
X55422094Y-124729819D02*
X55041142Y-124729819D01*
X55041142Y-124729819D02*
X54945904Y-124777438D01*
X54945904Y-124777438D02*
X54898285Y-124825057D01*
X54898285Y-124825057D02*
X54850666Y-124920295D01*
X54850666Y-124920295D02*
X54850666Y-125063152D01*
X54850666Y-125063152D02*
X54898285Y-125158390D01*
X54898285Y-125158390D02*
X54945904Y-125206009D01*
X54945904Y-125206009D02*
X55041142Y-125253628D01*
X55041142Y-125253628D02*
X55422094Y-125253628D01*
X53993523Y-125063152D02*
X53993523Y-125729819D01*
X54231618Y-124682200D02*
X54469713Y-125396485D01*
X54469713Y-125396485D02*
X53850666Y-125396485D01*
X71260666Y-143415819D02*
X71593999Y-142939628D01*
X71832094Y-143415819D02*
X71832094Y-142415819D01*
X71832094Y-142415819D02*
X71451142Y-142415819D01*
X71451142Y-142415819D02*
X71355904Y-142463438D01*
X71355904Y-142463438D02*
X71308285Y-142511057D01*
X71308285Y-142511057D02*
X71260666Y-142606295D01*
X71260666Y-142606295D02*
X71260666Y-142749152D01*
X71260666Y-142749152D02*
X71308285Y-142844390D01*
X71308285Y-142844390D02*
X71355904Y-142892009D01*
X71355904Y-142892009D02*
X71451142Y-142939628D01*
X71451142Y-142939628D02*
X71832094Y-142939628D01*
X70355904Y-142415819D02*
X70832094Y-142415819D01*
X70832094Y-142415819D02*
X70879713Y-142892009D01*
X70879713Y-142892009D02*
X70832094Y-142844390D01*
X70832094Y-142844390D02*
X70736856Y-142796771D01*
X70736856Y-142796771D02*
X70498761Y-142796771D01*
X70498761Y-142796771D02*
X70403523Y-142844390D01*
X70403523Y-142844390D02*
X70355904Y-142892009D01*
X70355904Y-142892009D02*
X70308285Y-142987247D01*
X70308285Y-142987247D02*
X70308285Y-143225342D01*
X70308285Y-143225342D02*
X70355904Y-143320580D01*
X70355904Y-143320580D02*
X70403523Y-143368200D01*
X70403523Y-143368200D02*
X70498761Y-143415819D01*
X70498761Y-143415819D02*
X70736856Y-143415819D01*
X70736856Y-143415819D02*
X70832094Y-143368200D01*
X70832094Y-143368200D02*
X70879713Y-143320580D01*
X64865238Y-56601057D02*
X64960476Y-56553438D01*
X64960476Y-56553438D02*
X65055714Y-56458200D01*
X65055714Y-56458200D02*
X65198571Y-56315342D01*
X65198571Y-56315342D02*
X65293809Y-56267723D01*
X65293809Y-56267723D02*
X65389047Y-56267723D01*
X65341428Y-56505819D02*
X65436666Y-56458200D01*
X65436666Y-56458200D02*
X65531904Y-56362961D01*
X65531904Y-56362961D02*
X65579523Y-56172485D01*
X65579523Y-56172485D02*
X65579523Y-55839152D01*
X65579523Y-55839152D02*
X65531904Y-55648676D01*
X65531904Y-55648676D02*
X65436666Y-55553438D01*
X65436666Y-55553438D02*
X65341428Y-55505819D01*
X65341428Y-55505819D02*
X65150952Y-55505819D01*
X65150952Y-55505819D02*
X65055714Y-55553438D01*
X65055714Y-55553438D02*
X64960476Y-55648676D01*
X64960476Y-55648676D02*
X64912857Y-55839152D01*
X64912857Y-55839152D02*
X64912857Y-56172485D01*
X64912857Y-56172485D02*
X64960476Y-56362961D01*
X64960476Y-56362961D02*
X65055714Y-56458200D01*
X65055714Y-56458200D02*
X65150952Y-56505819D01*
X65150952Y-56505819D02*
X65341428Y-56505819D01*
X64531904Y-55601057D02*
X64484285Y-55553438D01*
X64484285Y-55553438D02*
X64389047Y-55505819D01*
X64389047Y-55505819D02*
X64150952Y-55505819D01*
X64150952Y-55505819D02*
X64055714Y-55553438D01*
X64055714Y-55553438D02*
X64008095Y-55601057D01*
X64008095Y-55601057D02*
X63960476Y-55696295D01*
X63960476Y-55696295D02*
X63960476Y-55791533D01*
X63960476Y-55791533D02*
X64008095Y-55934390D01*
X64008095Y-55934390D02*
X64579523Y-56505819D01*
X64579523Y-56505819D02*
X63960476Y-56505819D01*
X84104166Y-59854819D02*
X84437499Y-59378628D01*
X84675594Y-59854819D02*
X84675594Y-58854819D01*
X84675594Y-58854819D02*
X84294642Y-58854819D01*
X84294642Y-58854819D02*
X84199404Y-58902438D01*
X84199404Y-58902438D02*
X84151785Y-58950057D01*
X84151785Y-58950057D02*
X84104166Y-59045295D01*
X84104166Y-59045295D02*
X84104166Y-59188152D01*
X84104166Y-59188152D02*
X84151785Y-59283390D01*
X84151785Y-59283390D02*
X84199404Y-59331009D01*
X84199404Y-59331009D02*
X84294642Y-59378628D01*
X84294642Y-59378628D02*
X84675594Y-59378628D01*
X83532737Y-59283390D02*
X83627975Y-59235771D01*
X83627975Y-59235771D02*
X83675594Y-59188152D01*
X83675594Y-59188152D02*
X83723213Y-59092914D01*
X83723213Y-59092914D02*
X83723213Y-59045295D01*
X83723213Y-59045295D02*
X83675594Y-58950057D01*
X83675594Y-58950057D02*
X83627975Y-58902438D01*
X83627975Y-58902438D02*
X83532737Y-58854819D01*
X83532737Y-58854819D02*
X83342261Y-58854819D01*
X83342261Y-58854819D02*
X83247023Y-58902438D01*
X83247023Y-58902438D02*
X83199404Y-58950057D01*
X83199404Y-58950057D02*
X83151785Y-59045295D01*
X83151785Y-59045295D02*
X83151785Y-59092914D01*
X83151785Y-59092914D02*
X83199404Y-59188152D01*
X83199404Y-59188152D02*
X83247023Y-59235771D01*
X83247023Y-59235771D02*
X83342261Y-59283390D01*
X83342261Y-59283390D02*
X83532737Y-59283390D01*
X83532737Y-59283390D02*
X83627975Y-59331009D01*
X83627975Y-59331009D02*
X83675594Y-59378628D01*
X83675594Y-59378628D02*
X83723213Y-59473866D01*
X83723213Y-59473866D02*
X83723213Y-59664342D01*
X83723213Y-59664342D02*
X83675594Y-59759580D01*
X83675594Y-59759580D02*
X83627975Y-59807200D01*
X83627975Y-59807200D02*
X83532737Y-59854819D01*
X83532737Y-59854819D02*
X83342261Y-59854819D01*
X83342261Y-59854819D02*
X83247023Y-59807200D01*
X83247023Y-59807200D02*
X83199404Y-59759580D01*
X83199404Y-59759580D02*
X83151785Y-59664342D01*
X83151785Y-59664342D02*
X83151785Y-59473866D01*
X83151785Y-59473866D02*
X83199404Y-59378628D01*
X83199404Y-59378628D02*
X83247023Y-59331009D01*
X83247023Y-59331009D02*
X83342261Y-59283390D01*
X62365666Y-75683824D02*
X62698999Y-75207633D01*
X62937094Y-75683824D02*
X62937094Y-74683824D01*
X62937094Y-74683824D02*
X62556142Y-74683824D01*
X62556142Y-74683824D02*
X62460904Y-74731443D01*
X62460904Y-74731443D02*
X62413285Y-74779062D01*
X62413285Y-74779062D02*
X62365666Y-74874300D01*
X62365666Y-74874300D02*
X62365666Y-75017157D01*
X62365666Y-75017157D02*
X62413285Y-75112395D01*
X62413285Y-75112395D02*
X62460904Y-75160014D01*
X62460904Y-75160014D02*
X62556142Y-75207633D01*
X62556142Y-75207633D02*
X62937094Y-75207633D01*
X61984713Y-74779062D02*
X61937094Y-74731443D01*
X61937094Y-74731443D02*
X61841856Y-74683824D01*
X61841856Y-74683824D02*
X61603761Y-74683824D01*
X61603761Y-74683824D02*
X61508523Y-74731443D01*
X61508523Y-74731443D02*
X61460904Y-74779062D01*
X61460904Y-74779062D02*
X61413285Y-74874300D01*
X61413285Y-74874300D02*
X61413285Y-74969538D01*
X61413285Y-74969538D02*
X61460904Y-75112395D01*
X61460904Y-75112395D02*
X62032332Y-75683824D01*
X62032332Y-75683824D02*
X61413285Y-75683824D01*
X59886357Y-61202819D02*
X60219690Y-60726628D01*
X60457785Y-61202819D02*
X60457785Y-60202819D01*
X60457785Y-60202819D02*
X60076833Y-60202819D01*
X60076833Y-60202819D02*
X59981595Y-60250438D01*
X59981595Y-60250438D02*
X59933976Y-60298057D01*
X59933976Y-60298057D02*
X59886357Y-60393295D01*
X59886357Y-60393295D02*
X59886357Y-60536152D01*
X59886357Y-60536152D02*
X59933976Y-60631390D01*
X59933976Y-60631390D02*
X59981595Y-60679009D01*
X59981595Y-60679009D02*
X60076833Y-60726628D01*
X60076833Y-60726628D02*
X60457785Y-60726628D01*
X58933976Y-61202819D02*
X59505404Y-61202819D01*
X59219690Y-61202819D02*
X59219690Y-60202819D01*
X59219690Y-60202819D02*
X59314928Y-60345676D01*
X59314928Y-60345676D02*
X59410166Y-60440914D01*
X59410166Y-60440914D02*
X59505404Y-60488533D01*
X58553023Y-60298057D02*
X58505404Y-60250438D01*
X58505404Y-60250438D02*
X58410166Y-60202819D01*
X58410166Y-60202819D02*
X58172071Y-60202819D01*
X58172071Y-60202819D02*
X58076833Y-60250438D01*
X58076833Y-60250438D02*
X58029214Y-60298057D01*
X58029214Y-60298057D02*
X57981595Y-60393295D01*
X57981595Y-60393295D02*
X57981595Y-60488533D01*
X57981595Y-60488533D02*
X58029214Y-60631390D01*
X58029214Y-60631390D02*
X58600642Y-61202819D01*
X58600642Y-61202819D02*
X57981595Y-61202819D01*
X112490333Y-73408819D02*
X112490333Y-74123104D01*
X112490333Y-74123104D02*
X112537952Y-74265961D01*
X112537952Y-74265961D02*
X112633190Y-74361200D01*
X112633190Y-74361200D02*
X112776047Y-74408819D01*
X112776047Y-74408819D02*
X112871285Y-74408819D01*
X112014142Y-74408819D02*
X112014142Y-73408819D01*
X112014142Y-73408819D02*
X111633190Y-73408819D01*
X111633190Y-73408819D02*
X111537952Y-73456438D01*
X111537952Y-73456438D02*
X111490333Y-73504057D01*
X111490333Y-73504057D02*
X111442714Y-73599295D01*
X111442714Y-73599295D02*
X111442714Y-73742152D01*
X111442714Y-73742152D02*
X111490333Y-73837390D01*
X111490333Y-73837390D02*
X111537952Y-73885009D01*
X111537952Y-73885009D02*
X111633190Y-73932628D01*
X111633190Y-73932628D02*
X112014142Y-73932628D01*
X111061761Y-73504057D02*
X111014142Y-73456438D01*
X111014142Y-73456438D02*
X110918904Y-73408819D01*
X110918904Y-73408819D02*
X110680809Y-73408819D01*
X110680809Y-73408819D02*
X110585571Y-73456438D01*
X110585571Y-73456438D02*
X110537952Y-73504057D01*
X110537952Y-73504057D02*
X110490333Y-73599295D01*
X110490333Y-73599295D02*
X110490333Y-73694533D01*
X110490333Y-73694533D02*
X110537952Y-73837390D01*
X110537952Y-73837390D02*
X111109380Y-74408819D01*
X111109380Y-74408819D02*
X110490333Y-74408819D01*
X115016580Y-72227809D02*
X115064200Y-72180190D01*
X115064200Y-72180190D02*
X115111819Y-72037333D01*
X115111819Y-72037333D02*
X115111819Y-71942095D01*
X115111819Y-71942095D02*
X115064200Y-71799238D01*
X115064200Y-71799238D02*
X114968961Y-71704000D01*
X114968961Y-71704000D02*
X114873723Y-71656381D01*
X114873723Y-71656381D02*
X114683247Y-71608762D01*
X114683247Y-71608762D02*
X114540390Y-71608762D01*
X114540390Y-71608762D02*
X114349914Y-71656381D01*
X114349914Y-71656381D02*
X114254676Y-71704000D01*
X114254676Y-71704000D02*
X114159438Y-71799238D01*
X114159438Y-71799238D02*
X114111819Y-71942095D01*
X114111819Y-71942095D02*
X114111819Y-72037333D01*
X114111819Y-72037333D02*
X114159438Y-72180190D01*
X114159438Y-72180190D02*
X114207057Y-72227809D01*
X114588009Y-72656381D02*
X114588009Y-72989714D01*
X115111819Y-73132571D02*
X115111819Y-72656381D01*
X115111819Y-72656381D02*
X114111819Y-72656381D01*
X114111819Y-72656381D02*
X114111819Y-73132571D01*
X115111819Y-73561143D02*
X114445152Y-73561143D01*
X114111819Y-73561143D02*
X114159438Y-73513524D01*
X114159438Y-73513524D02*
X114207057Y-73561143D01*
X114207057Y-73561143D02*
X114159438Y-73608762D01*
X114159438Y-73608762D02*
X114111819Y-73561143D01*
X114111819Y-73561143D02*
X114207057Y-73561143D01*
X113834200Y-71518286D02*
X113834200Y-73699238D01*
X115111819Y-74942095D02*
X115064200Y-74846857D01*
X115064200Y-74846857D02*
X115016580Y-74799238D01*
X115016580Y-74799238D02*
X114921342Y-74751619D01*
X114921342Y-74751619D02*
X114635628Y-74751619D01*
X114635628Y-74751619D02*
X114540390Y-74799238D01*
X114540390Y-74799238D02*
X114492771Y-74846857D01*
X114492771Y-74846857D02*
X114445152Y-74942095D01*
X114445152Y-74942095D02*
X114445152Y-75084952D01*
X114445152Y-75084952D02*
X114492771Y-75180190D01*
X114492771Y-75180190D02*
X114540390Y-75227809D01*
X114540390Y-75227809D02*
X114635628Y-75275428D01*
X114635628Y-75275428D02*
X114921342Y-75275428D01*
X114921342Y-75275428D02*
X115016580Y-75227809D01*
X115016580Y-75227809D02*
X115064200Y-75180190D01*
X115064200Y-75180190D02*
X115111819Y-75084952D01*
X115111819Y-75084952D02*
X115111819Y-74942095D01*
X115111819Y-75704000D02*
X114445152Y-75704000D01*
X114635628Y-75704000D02*
X114540390Y-75751619D01*
X114540390Y-75751619D02*
X114492771Y-75799238D01*
X114492771Y-75799238D02*
X114445152Y-75894476D01*
X114445152Y-75894476D02*
X114445152Y-75989714D01*
X114588009Y-77418286D02*
X114635628Y-77561143D01*
X114635628Y-77561143D02*
X114683247Y-77608762D01*
X114683247Y-77608762D02*
X114778485Y-77656381D01*
X114778485Y-77656381D02*
X114921342Y-77656381D01*
X114921342Y-77656381D02*
X115016580Y-77608762D01*
X115016580Y-77608762D02*
X115064200Y-77561143D01*
X115064200Y-77561143D02*
X115111819Y-77465905D01*
X115111819Y-77465905D02*
X115111819Y-77084953D01*
X115111819Y-77084953D02*
X114111819Y-77084953D01*
X114111819Y-77084953D02*
X114111819Y-77418286D01*
X114111819Y-77418286D02*
X114159438Y-77513524D01*
X114159438Y-77513524D02*
X114207057Y-77561143D01*
X114207057Y-77561143D02*
X114302295Y-77608762D01*
X114302295Y-77608762D02*
X114397533Y-77608762D01*
X114397533Y-77608762D02*
X114492771Y-77561143D01*
X114492771Y-77561143D02*
X114540390Y-77513524D01*
X114540390Y-77513524D02*
X114588009Y-77418286D01*
X114588009Y-77418286D02*
X114588009Y-77084953D01*
X114111819Y-77989715D02*
X115111819Y-78227810D01*
X115111819Y-78227810D02*
X114397533Y-78418286D01*
X114397533Y-78418286D02*
X115111819Y-78608762D01*
X115111819Y-78608762D02*
X114111819Y-78846858D01*
X113834200Y-76946858D02*
X113834200Y-78889715D01*
D11*
%TO.C,U20*%
X122473000Y-79014000D02*
X120523000Y-79014000D01*
X118573000Y-79014000D02*
X120523000Y-79014000D01*
X122473000Y-73894000D02*
X120523000Y-73894000D01*
X118573000Y-73894000D02*
X120523000Y-73894000D01*
X123223000Y-73989000D02*
X122983000Y-73659000D01*
X123463000Y-73659000D01*
X123223000Y-73989000D01*
G36*
X123223000Y-73989000D02*
G01*
X122983000Y-73659000D01*
X123463000Y-73659000D01*
X123223000Y-73989000D01*
G37*
%TO.C,R13*%
X129392000Y-99598564D02*
X129392000Y-98144436D01*
X131212000Y-99598564D02*
X131212000Y-98144436D01*
%TO.C,JP1*%
X63008000Y-144703000D02*
X63008000Y-143303000D01*
X63708000Y-142603000D02*
X64308000Y-142603000D01*
X64308000Y-145403000D02*
X63708000Y-145403000D01*
X65008000Y-143303000D02*
X65008000Y-144703000D01*
X63008000Y-143303000D02*
G75*
G02*
X63708000Y-142603000I699999J1D01*
G01*
X63708000Y-145403000D02*
G75*
G02*
X63008000Y-144703000I0J700000D01*
G01*
X64308000Y-142603000D02*
G75*
G02*
X65008000Y-143303000I1J-699999D01*
G01*
X65008000Y-144703000D02*
G75*
G02*
X64308000Y-145403000I-700000J0D01*
G01*
%TO.C,R11*%
X88289564Y-61090000D02*
X86835436Y-61090000D01*
X88289564Y-62910000D02*
X86835436Y-62910000D01*
%TO.C,U4*%
X65549000Y-136378000D02*
X67499000Y-136378000D01*
X65549000Y-141498000D02*
X67499000Y-141498000D01*
X69449000Y-136378000D02*
X67499000Y-136378000D01*
X69449000Y-141498000D02*
X67499000Y-141498000D01*
X70199000Y-136473000D02*
X69959000Y-136143000D01*
X70439000Y-136143000D01*
X70199000Y-136473000D01*
G36*
X70199000Y-136473000D02*
G01*
X69959000Y-136143000D01*
X70439000Y-136143000D01*
X70199000Y-136473000D01*
G37*
%TO.C,C3*%
X146250000Y-67467743D02*
X146250000Y-68890247D01*
X148070000Y-67467743D02*
X148070000Y-68890247D01*
%TO.C,R3*%
X58573564Y-122153000D02*
X57119436Y-122153000D01*
X58573564Y-123973000D02*
X57119436Y-123973000D01*
%TO.C,JP3*%
X120461000Y-81518000D02*
X119061000Y-81518000D01*
X118361000Y-80818000D02*
X118361000Y-80218000D01*
X121161000Y-80218000D02*
X121161000Y-80818000D01*
X119061000Y-79518000D02*
X120461000Y-79518000D01*
X119061000Y-81518000D02*
G75*
G02*
X118361000Y-80818000I0J700000D01*
G01*
X121161000Y-80818000D02*
G75*
G02*
X120461000Y-81518000I-699999J-1D01*
G01*
X118361000Y-80218000D02*
G75*
G02*
X119061000Y-79518000I700000J0D01*
G01*
X120461000Y-79518000D02*
G75*
G02*
X121161000Y-80218000I1J-699999D01*
G01*
%TO.C,U13*%
X91640000Y-86362000D02*
X91640000Y-87062000D01*
X91640000Y-100582000D02*
X91640000Y-99882000D01*
X92340000Y-86362000D02*
X91640000Y-86362000D01*
X92340000Y-100582000D02*
X91640000Y-100582000D01*
X105160000Y-86362000D02*
X105860000Y-86362000D01*
X105160000Y-100582000D02*
X105860000Y-100582000D01*
X105860000Y-86362000D02*
X105860000Y-87062000D01*
X105860000Y-100582000D02*
X105860000Y-99882000D01*
X105630000Y-101549500D02*
X105160000Y-101209500D01*
X105630000Y-100869500D01*
X105630000Y-101549500D01*
G36*
X105630000Y-101549500D02*
G01*
X105160000Y-101209500D01*
X105630000Y-100869500D01*
X105630000Y-101549500D01*
G37*
%TO.C,C9*%
X98150000Y-126060252D02*
X98150000Y-124637748D01*
X99970000Y-126060252D02*
X99970000Y-124637748D01*
%TO.C,R1*%
X64866436Y-71988000D02*
X66320564Y-71988000D01*
X64866436Y-73808000D02*
X66320564Y-73808000D01*
%TO.C,R7*%
X88064564Y-55990000D02*
X86610436Y-55990000D01*
X88064564Y-57810000D02*
X86610436Y-57810000D01*
%TO.C,C17*%
X73004000Y-142365252D02*
X73004000Y-140942748D01*
X74824000Y-142365252D02*
X74824000Y-140942748D01*
%TO.C,R6*%
X68483564Y-144378000D02*
X67029436Y-144378000D01*
X68483564Y-146198000D02*
X67029436Y-146198000D01*
%TO.C,R9*%
X108310000Y-76230564D02*
X108310000Y-74776436D01*
X110130000Y-76230564D02*
X110130000Y-74776436D01*
%TO.C,C12*%
X69100000Y-52691495D02*
X69100000Y-60751495D01*
X69100000Y-60751495D02*
X73620000Y-60751495D01*
X73620000Y-60751495D02*
X73620000Y-52691495D01*
%TO.C,R10*%
X54579436Y-113898000D02*
X56033564Y-113898000D01*
X54579436Y-115718000D02*
X56033564Y-115718000D01*
%TO.C,R4*%
X58573564Y-124439000D02*
X57119436Y-124439000D01*
X58573564Y-126259000D02*
X57119436Y-126259000D01*
%TO.C,R5*%
X68483564Y-142092000D02*
X67029436Y-142092000D01*
X68483564Y-143912000D02*
X67029436Y-143912000D01*
%TO.C,Q2*%
X64010000Y-57221000D02*
X64810000Y-57221000D01*
X64010000Y-58151000D02*
X64010000Y-57221000D01*
X64010000Y-59451000D02*
X64010000Y-60381000D01*
X65470000Y-60381000D02*
X64010000Y-60381000D01*
X65610000Y-57221000D02*
X64810000Y-57221000D01*
X66110000Y-57191000D02*
X65870000Y-56861000D01*
X66350000Y-56861000D01*
X66110000Y-57191000D01*
G36*
X66110000Y-57191000D02*
G01*
X65870000Y-56861000D01*
X66350000Y-56861000D01*
X66110000Y-57191000D01*
G37*
%TO.C,R8*%
X88027064Y-58290000D02*
X86572936Y-58290000D01*
X88027064Y-60110000D02*
X86572936Y-60110000D01*
%TO.C,R2*%
X64866436Y-74274000D02*
X66320564Y-74274000D01*
X64866436Y-76094000D02*
X66320564Y-76094000D01*
%TO.C,R12*%
X59970564Y-58018000D02*
X58516436Y-58018000D01*
X59970564Y-59838000D02*
X58516436Y-59838000D01*
%TO.C,JP2*%
X112060000Y-79012000D02*
X111460000Y-79012000D01*
X110260000Y-78462000D02*
X110560000Y-78162000D01*
X110760000Y-78362000D02*
X110760000Y-75562000D01*
X110260000Y-77862000D02*
X110260000Y-78462000D01*
X110260000Y-77862000D02*
X110560000Y-78162000D01*
X112760000Y-75562000D02*
X112760000Y-78362000D01*
X111460000Y-74912000D02*
X112060000Y-74912000D01*
X111460000Y-79012000D02*
G75*
G02*
X110760000Y-78312000I-1J699999D01*
G01*
X112760000Y-78312000D02*
G75*
G02*
X112060000Y-79012000I-699999J-1D01*
G01*
X110760000Y-75612000D02*
G75*
G02*
X111460000Y-74912000I700000J0D01*
G01*
X112060000Y-74912000D02*
G75*
G02*
X112760000Y-75612000I0J-700000D01*
G01*
%TD*%
M02*
