%TF.GenerationSoftware,KiCad,Pcbnew,8.0.7-8.0.7-0~ubuntu22.04.1*%
%TF.CreationDate,2025-01-29T22:40:38+01:00*%
%TF.ProjectId,RAMROM_Board,52414d52-4f4d-45f4-926f-6172642e6b69,rev?*%
%TF.SameCoordinates,Original*%
%TF.FileFunction,Soldermask,Top*%
%TF.FilePolarity,Negative*%
%FSLAX46Y46*%
G04 Gerber Fmt 4.6, Leading zero omitted, Abs format (unit mm)*
G04 Created by KiCad (PCBNEW 8.0.7-8.0.7-0~ubuntu22.04.1) date 2025-01-29 22:40:38*
%MOMM*%
%LPD*%
G01*
G04 APERTURE LIST*
G04 Aperture macros list*
%AMRoundRect*
0 Rectangle with rounded corners*
0 $1 Rounding radius*
0 $2 $3 $4 $5 $6 $7 $8 $9 X,Y pos of 4 corners*
0 Add a 4 corners polygon primitive as box body*
4,1,4,$2,$3,$4,$5,$6,$7,$8,$9,$2,$3,0*
0 Add four circle primitives for the rounded corners*
1,1,$1+$1,$2,$3*
1,1,$1+$1,$4,$5*
1,1,$1+$1,$6,$7*
1,1,$1+$1,$8,$9*
0 Add four rect primitives between the rounded corners*
20,1,$1+$1,$2,$3,$4,$5,0*
20,1,$1+$1,$4,$5,$6,$7,0*
20,1,$1+$1,$6,$7,$8,$9,0*
20,1,$1+$1,$8,$9,$2,$3,0*%
%AMFreePoly0*
4,1,19,0.550000,-0.750000,0.000000,-0.750000,0.000000,-0.744911,-0.071157,-0.744911,-0.207708,-0.704816,-0.327430,-0.627875,-0.420627,-0.520320,-0.479746,-0.390866,-0.500000,-0.250000,-0.500000,0.250000,-0.479746,0.390866,-0.420627,0.520320,-0.327430,0.627875,-0.207708,0.704816,-0.071157,0.744911,0.000000,0.744911,0.000000,0.750000,0.550000,0.750000,0.550000,-0.750000,0.550000,-0.750000,
$1*%
%AMFreePoly1*
4,1,19,0.000000,0.744911,0.071157,0.744911,0.207708,0.704816,0.327430,0.627875,0.420627,0.520320,0.479746,0.390866,0.500000,0.250000,0.500000,-0.250000,0.479746,-0.390866,0.420627,-0.520320,0.327430,-0.627875,0.207708,-0.704816,0.071157,-0.744911,0.000000,-0.744911,0.000000,-0.750000,-0.550000,-0.750000,-0.550000,0.750000,0.000000,0.750000,0.000000,0.744911,0.000000,0.744911,
$1*%
G04 Aperture macros list end*
%ADD10RoundRect,0.150000X-0.150000X0.825000X-0.150000X-0.825000X0.150000X-0.825000X0.150000X0.825000X0*%
%ADD11R,1.000000X1.000000*%
%ADD12RoundRect,0.250000X0.650000X-0.325000X0.650000X0.325000X-0.650000X0.325000X-0.650000X-0.325000X0*%
%ADD13RoundRect,0.250000X0.325000X0.650000X-0.325000X0.650000X-0.325000X-0.650000X0.325000X-0.650000X0*%
%ADD14R,1.600000X1.600000*%
%ADD15C,1.600000*%
%ADD16R,0.850000X0.850000*%
%ADD17R,1.700000X1.700000*%
%ADD18O,1.700000X1.700000*%
%ADD19R,2.400000X1.600000*%
%ADD20O,2.400000X1.600000*%
%ADD21RoundRect,0.250000X1.025000X-0.787500X1.025000X0.787500X-1.025000X0.787500X-1.025000X-0.787500X0*%
%ADD22FreePoly0,180.000000*%
%ADD23R,1.000000X1.500000*%
%ADD24FreePoly1,180.000000*%
%ADD25RoundRect,0.150000X-0.150000X0.587500X-0.150000X-0.587500X0.150000X-0.587500X0.150000X0.587500X0*%
%ADD26R,1.400000X0.400000*%
%ADD27R,1.900000X2.300000*%
%ADD28R,1.900000X1.800000*%
%ADD29RoundRect,0.250000X-0.325000X-0.650000X0.325000X-0.650000X0.325000X0.650000X-0.325000X0.650000X0*%
%ADD30R,2.500000X2.500000*%
%ADD31C,2.500000*%
%ADD32O,1.600000X1.600000*%
%ADD33RoundRect,0.250000X-0.650000X0.325000X-0.650000X-0.325000X0.650000X-0.325000X0.650000X0.325000X0*%
%ADD34RoundRect,0.375000X0.375000X-0.625000X0.375000X0.625000X-0.375000X0.625000X-0.375000X-0.625000X0*%
%ADD35RoundRect,0.500000X1.400000X-0.500000X1.400000X0.500000X-1.400000X0.500000X-1.400000X-0.500000X0*%
%ADD36C,2.100000*%
%ADD37C,1.750000*%
%ADD38R,1.750000X0.700000*%
%ADD39R,1.000000X1.450000*%
%ADD40R,1.550000X1.000000*%
%ADD41R,1.500000X0.800000*%
%ADD42R,1.500000X1.300000*%
%ADD43R,1.500000X1.500000*%
%ADD44R,1.400000X0.800000*%
%ADD45C,3.200000*%
%ADD46RoundRect,0.250000X-1.025000X0.787500X-1.025000X-0.787500X1.025000X-0.787500X1.025000X0.787500X0*%
%ADD47R,1.510000X0.458000*%
%ADD48R,1.600000X2.000000*%
%ADD49O,1.600000X2.000000*%
%ADD50C,2.000000*%
%ADD51RoundRect,0.150000X0.150000X-0.837500X0.150000X0.837500X-0.150000X0.837500X-0.150000X-0.837500X0*%
%ADD52RoundRect,0.250000X0.900000X-1.000000X0.900000X1.000000X-0.900000X1.000000X-0.900000X-1.000000X0*%
G04 APERTURE END LIST*
D10*
%TO.C,U3*%
X96647000Y-123193000D03*
X95377000Y-123193000D03*
X94107000Y-123193000D03*
X92837000Y-123193000D03*
X91567000Y-123193000D03*
X90297000Y-123193000D03*
X89027000Y-123193000D03*
X89027000Y-128143000D03*
X90297000Y-128143000D03*
X91567000Y-128143000D03*
X92837000Y-128143000D03*
X94107000Y-128143000D03*
X95377000Y-128143000D03*
X96647000Y-128143000D03*
%TD*%
D11*
%TO.C,J15*%
X91948000Y-116713000D03*
%TD*%
%TO.C,J13*%
X94742000Y-116713000D03*
%TD*%
%TO.C,J12*%
X97536000Y-116713000D03*
%TD*%
%TO.C,J4*%
X100330000Y-116713000D03*
%TD*%
D12*
%TO.C,C20*%
X98806000Y-126775000D03*
X98806000Y-123825000D03*
%TD*%
D13*
%TO.C,C2*%
X88597000Y-141224000D03*
X85647000Y-141224000D03*
%TD*%
D14*
%TO.C,X1*%
X83312000Y-67056000D03*
D15*
X83312000Y-74676000D03*
X90932000Y-74676000D03*
X90932000Y-67056000D03*
%TD*%
D10*
%TO.C,U15*%
X137145000Y-122125000D03*
X135875000Y-122125000D03*
X134605000Y-122125000D03*
X133335000Y-122125000D03*
X132065000Y-122125000D03*
X130795000Y-122125000D03*
X129525000Y-122125000D03*
X128255000Y-122125000D03*
X128255000Y-127075000D03*
X129525000Y-127075000D03*
X130795000Y-127075000D03*
X132065000Y-127075000D03*
X133335000Y-127075000D03*
X134605000Y-127075000D03*
X135875000Y-127075000D03*
X137145000Y-127075000D03*
%TD*%
D16*
%TO.C,TP58*%
X96250000Y-82250000D03*
%TD*%
D17*
%TO.C,J8*%
X57404000Y-70739000D03*
D18*
X54864000Y-70739000D03*
X57404000Y-68199000D03*
X54864000Y-68199000D03*
%TD*%
D16*
%TO.C,TP9*%
X62230000Y-138557000D03*
%TD*%
D17*
%TO.C,J1*%
X92367000Y-53000000D03*
D18*
X92367000Y-55540000D03*
X94907000Y-53000000D03*
X94907000Y-55540000D03*
X97447000Y-53000000D03*
X97447000Y-55540000D03*
X99987000Y-53000000D03*
X99987000Y-55540000D03*
X102527000Y-53000000D03*
X102527000Y-55540000D03*
X105067000Y-53000000D03*
X105067000Y-55540000D03*
X107607000Y-53000000D03*
X107607000Y-55540000D03*
X110147000Y-53000000D03*
X110147000Y-55540000D03*
X112687000Y-53000000D03*
X112687000Y-55540000D03*
X115227000Y-53000000D03*
X115227000Y-55540000D03*
X117767000Y-53000000D03*
X117767000Y-55540000D03*
X120307000Y-53000000D03*
X120307000Y-55540000D03*
X122847000Y-53000000D03*
X122847000Y-55540000D03*
X125387000Y-53000000D03*
X125387000Y-55540000D03*
X127927000Y-53000000D03*
X127927000Y-55540000D03*
X130467000Y-53000000D03*
X130467000Y-55540000D03*
X133007000Y-53000000D03*
X133007000Y-55540000D03*
X135547000Y-53000000D03*
X135547000Y-55540000D03*
X138087000Y-53000000D03*
X138087000Y-55540000D03*
X140627000Y-53000000D03*
X140627000Y-55540000D03*
%TD*%
D16*
%TO.C,TP57*%
X94750000Y-82250000D03*
%TD*%
D10*
%TO.C,U1*%
X110871000Y-128400000D03*
X109601000Y-128400000D03*
X108331000Y-128400000D03*
X107061000Y-128400000D03*
X105791000Y-128400000D03*
X104521000Y-128400000D03*
X103251000Y-128400000D03*
X103251000Y-133350000D03*
X104521000Y-133350000D03*
X105791000Y-133350000D03*
X107061000Y-133350000D03*
X108331000Y-133350000D03*
X109601000Y-133350000D03*
X110871000Y-133350000D03*
%TD*%
D19*
%TO.C,J7*%
X67437000Y-86233000D03*
D20*
X67437000Y-88773000D03*
X67437000Y-91313000D03*
X67437000Y-93853000D03*
X67437000Y-96393000D03*
X67437000Y-98933000D03*
X67437000Y-101473000D03*
X67437000Y-104013000D03*
X67437000Y-106553000D03*
X67437000Y-109093000D03*
X67437000Y-111633000D03*
X67437000Y-114173000D03*
X67437000Y-116713000D03*
X67437000Y-119253000D03*
X67437000Y-121793000D03*
X67437000Y-124333000D03*
X67437000Y-126873000D03*
X67437000Y-129413000D03*
X67437000Y-131953000D03*
X67437000Y-134493000D03*
X82677000Y-134493000D03*
X82677000Y-131953000D03*
X82677000Y-129413000D03*
X82677000Y-126873000D03*
X82677000Y-124333000D03*
X82677000Y-121793000D03*
X82677000Y-119253000D03*
X82677000Y-116713000D03*
X82677000Y-114173000D03*
X82677000Y-111633000D03*
X82677000Y-109093000D03*
X82677000Y-106553000D03*
X82677000Y-104013000D03*
X82677000Y-101473000D03*
X82677000Y-98933000D03*
X82677000Y-96393000D03*
X82677000Y-93853000D03*
X82677000Y-91313000D03*
X82677000Y-88773000D03*
X82677000Y-86233000D03*
%TD*%
D21*
%TO.C,C15*%
X76460000Y-59466495D03*
X76460000Y-53241495D03*
%TD*%
D22*
%TO.C,JP4*%
X81467000Y-82296000D03*
D23*
X80167000Y-82296000D03*
D24*
X78867000Y-82296000D03*
%TD*%
D25*
%TO.C,D7*%
X137348000Y-66626500D03*
X135448000Y-66626500D03*
X136398000Y-68501500D03*
%TD*%
D26*
%TO.C,J6*%
X54382000Y-76678000D03*
X54382000Y-77328000D03*
X54382000Y-77978000D03*
X54382000Y-78628000D03*
X54382000Y-79278000D03*
D27*
X51532000Y-74228000D03*
D28*
X51532000Y-76828000D03*
X51532000Y-79128000D03*
D27*
X51532000Y-81728000D03*
%TD*%
D29*
%TO.C,C5*%
X99363000Y-97536000D03*
X102313000Y-97536000D03*
%TD*%
D17*
%TO.C,TP2*%
X140627000Y-141000000D03*
D18*
X140627000Y-138460000D03*
X138087000Y-141000000D03*
X138087000Y-138460000D03*
X135547000Y-141000000D03*
X135547000Y-138460000D03*
X133007000Y-141000000D03*
X133007000Y-138460000D03*
X130467000Y-141000000D03*
X130467000Y-138460000D03*
X127927000Y-141000000D03*
X127927000Y-138460000D03*
X125387000Y-141000000D03*
X125387000Y-138460000D03*
X122847000Y-141000000D03*
X122847000Y-138460000D03*
X120307000Y-141000000D03*
X120307000Y-138460000D03*
X117767000Y-141000000D03*
X117767000Y-138460000D03*
X115227000Y-141000000D03*
X115227000Y-138460000D03*
X112687000Y-141000000D03*
X112687000Y-138460000D03*
X110147000Y-141000000D03*
X110147000Y-138460000D03*
X107607000Y-141000000D03*
X107607000Y-138460000D03*
X105067000Y-141000000D03*
X105067000Y-138460000D03*
X102527000Y-141000000D03*
X102527000Y-138460000D03*
X99987000Y-141000000D03*
X99987000Y-138460000D03*
X97447000Y-141000000D03*
X97447000Y-138460000D03*
X94907000Y-141000000D03*
X94907000Y-138460000D03*
X92367000Y-141000000D03*
X92367000Y-138460000D03*
%TD*%
D30*
%TO.C,J5*%
X61200000Y-54600000D03*
D31*
X66200000Y-54600000D03*
%TD*%
D16*
%TO.C,TP10*%
X109220000Y-78994000D03*
%TD*%
%TO.C,TP49*%
X87500000Y-84750000D03*
%TD*%
D29*
%TO.C,C18*%
X96569000Y-89154000D03*
X99519000Y-89154000D03*
%TD*%
D25*
%TO.C,D3*%
X116012000Y-66626500D03*
X114112000Y-66626500D03*
X115062000Y-68501500D03*
%TD*%
D14*
%TO.C,RN4*%
X138049000Y-134955995D03*
D32*
X135509000Y-134955995D03*
X132969000Y-134955995D03*
X130429000Y-134955995D03*
X127889000Y-134955995D03*
X125349000Y-134955995D03*
X122809000Y-134955995D03*
X120269000Y-134955995D03*
X117729000Y-134955995D03*
%TD*%
D13*
%TO.C,C14*%
X75743000Y-78253995D03*
X72793000Y-78253995D03*
%TD*%
D17*
%TO.C,J3*%
X103886000Y-110490000D03*
D18*
X103886000Y-113030000D03*
X101346000Y-110490000D03*
X101346000Y-113030000D03*
X98806000Y-110490000D03*
X98806000Y-113030000D03*
X96266000Y-110490000D03*
X96266000Y-113030000D03*
X93726000Y-110490000D03*
X93726000Y-113030000D03*
%TD*%
D16*
%TO.C,TP8*%
X62230000Y-140589000D03*
%TD*%
D14*
%TO.C,RN3*%
X136779000Y-131572000D03*
D32*
X134239000Y-131572000D03*
X131699000Y-131572000D03*
X129159000Y-131572000D03*
X126619000Y-131572000D03*
X124079000Y-131572000D03*
X121539000Y-131572000D03*
X118999000Y-131572000D03*
X116459000Y-131572000D03*
%TD*%
D25*
%TO.C,D9*%
X130236000Y-66626500D03*
X128336000Y-66626500D03*
X129286000Y-68501500D03*
%TD*%
D33*
%TO.C,C6*%
X57277000Y-76376000D03*
X57277000Y-79326000D03*
%TD*%
D34*
%TO.C,U2*%
X71868000Y-75403995D03*
X74168000Y-75403995D03*
D35*
X74168000Y-69103995D03*
D34*
X76468000Y-75403995D03*
%TD*%
D12*
%TO.C,C13*%
X146304000Y-110187000D03*
X146304000Y-107237000D03*
%TD*%
D36*
%TO.C,SW2*%
X54811500Y-118206000D03*
X54811500Y-111196000D03*
D37*
X52321500Y-116956000D03*
X52321500Y-112456000D03*
%TD*%
D17*
%TO.C,J2*%
X140627000Y-147000000D03*
D18*
X140627000Y-144460000D03*
X138087000Y-147000000D03*
X138087000Y-144460000D03*
X135547000Y-147000000D03*
X135547000Y-144460000D03*
X133007000Y-147000000D03*
X133007000Y-144460000D03*
X130467000Y-147000000D03*
X130467000Y-144460000D03*
X127927000Y-147000000D03*
X127927000Y-144460000D03*
X125387000Y-147000000D03*
X125387000Y-144460000D03*
X122847000Y-147000000D03*
X122847000Y-144460000D03*
X120307000Y-147000000D03*
X120307000Y-144460000D03*
X117767000Y-147000000D03*
X117767000Y-144460000D03*
X115227000Y-147000000D03*
X115227000Y-144460000D03*
X112687000Y-147000000D03*
X112687000Y-144460000D03*
X110147000Y-147000000D03*
X110147000Y-144460000D03*
X107607000Y-147000000D03*
X107607000Y-144460000D03*
X105067000Y-147000000D03*
X105067000Y-144460000D03*
X102527000Y-147000000D03*
X102527000Y-144460000D03*
X99987000Y-147000000D03*
X99987000Y-144460000D03*
X97447000Y-147000000D03*
X97447000Y-144460000D03*
X94907000Y-147000000D03*
X94907000Y-144460000D03*
X92367000Y-147000000D03*
X92367000Y-144460000D03*
%TD*%
D25*
%TO.C,D8*%
X133792000Y-66626500D03*
X131892000Y-66626500D03*
X132842000Y-68501500D03*
%TD*%
D17*
%TO.C,J9*%
X144460000Y-124500000D03*
D18*
X147000000Y-124500000D03*
X144460000Y-127040000D03*
X147000000Y-127040000D03*
X144460000Y-129580000D03*
X147000000Y-129580000D03*
X144460000Y-132120000D03*
X147000000Y-132120000D03*
X144460000Y-134660000D03*
X147000000Y-134660000D03*
%TD*%
D16*
%TO.C,TP51*%
X87500000Y-81750000D03*
%TD*%
D38*
%TO.C,J10*%
X52969000Y-94762000D03*
X52969000Y-93662000D03*
X52969000Y-92562000D03*
X52969000Y-91462000D03*
X52969000Y-90362000D03*
X52969000Y-89262000D03*
X52969000Y-88162000D03*
X52969000Y-87062000D03*
D39*
X62194000Y-85937000D03*
D40*
X63769000Y-97162000D03*
D41*
X60694000Y-85612000D03*
D42*
X53094000Y-85862000D03*
D43*
X53094000Y-97212000D03*
D44*
X61344000Y-97562000D03*
%TD*%
D16*
%TO.C,TP61*%
X97500000Y-82250000D03*
%TD*%
%TO.C,TP52*%
X87500000Y-80250000D03*
%TD*%
D25*
%TO.C,D4*%
X112456000Y-66626500D03*
X110556000Y-66626500D03*
X111506000Y-68501500D03*
%TD*%
D16*
%TO.C,TP55*%
X91750000Y-82250000D03*
%TD*%
D25*
%TO.C,D6*%
X140904000Y-66626500D03*
X139004000Y-66626500D03*
X139954000Y-68501500D03*
%TD*%
D16*
%TO.C,TP11*%
X113411000Y-80772000D03*
%TD*%
D12*
%TO.C,C19*%
X94742000Y-97077000D03*
X94742000Y-94127000D03*
%TD*%
D45*
%TO.C,H3*%
X146000000Y-54000000D03*
%TD*%
D16*
%TO.C,TP14*%
X86868000Y-111633000D03*
%TD*%
D10*
%TO.C,U16*%
X126445000Y-122125000D03*
X125175000Y-122125000D03*
X123905000Y-122125000D03*
X122635000Y-122125000D03*
X121365000Y-122125000D03*
X120095000Y-122125000D03*
X118825000Y-122125000D03*
X117555000Y-122125000D03*
X117555000Y-127075000D03*
X118825000Y-127075000D03*
X120095000Y-127075000D03*
X121365000Y-127075000D03*
X122635000Y-127075000D03*
X123905000Y-127075000D03*
X125175000Y-127075000D03*
X126445000Y-127075000D03*
%TD*%
D33*
%TO.C,C11*%
X119634000Y-90395000D03*
X119634000Y-93345000D03*
%TD*%
D46*
%TO.C,C4*%
X63246000Y-75436000D03*
X63246000Y-81661000D03*
%TD*%
D47*
%TO.C,U11*%
X125060000Y-90184000D03*
X125060000Y-90984000D03*
X125060000Y-91784000D03*
X125060000Y-92584000D03*
X125060000Y-93384000D03*
X125060000Y-94184000D03*
X125060000Y-94984000D03*
X125060000Y-95784000D03*
X125060000Y-96584000D03*
X125060000Y-97384000D03*
X125060000Y-98184000D03*
X125060000Y-98984000D03*
X125060000Y-99784000D03*
X125060000Y-100584000D03*
X125060000Y-101384000D03*
X125060000Y-102184000D03*
X125060000Y-102984000D03*
X125060000Y-103784000D03*
X125060000Y-104584000D03*
X125060000Y-105384000D03*
X125060000Y-106184000D03*
X125060000Y-106984000D03*
X125060000Y-107784000D03*
X125060000Y-108584000D03*
X125060000Y-109384000D03*
X125060000Y-110184000D03*
X125060000Y-110984000D03*
X136560000Y-110984000D03*
X136560000Y-110184000D03*
X136560000Y-109384000D03*
X136560000Y-108584000D03*
X136560000Y-107784000D03*
X136560000Y-106984000D03*
X136560000Y-106184000D03*
X136560000Y-105384000D03*
X136560000Y-104584000D03*
X136560000Y-103784000D03*
X136560000Y-102984000D03*
X136560000Y-102184000D03*
X136560000Y-101384000D03*
X136560000Y-100584000D03*
X136560000Y-99784000D03*
X136560000Y-98984000D03*
X136560000Y-98184000D03*
X136560000Y-97384000D03*
X136560000Y-96584000D03*
X136560000Y-95784000D03*
X136560000Y-94984000D03*
X136560000Y-94184000D03*
X136560000Y-93384000D03*
X136560000Y-92584000D03*
X136560000Y-91784000D03*
X136560000Y-90984000D03*
X136560000Y-90184000D03*
%TD*%
D48*
%TO.C,BT1*%
X127762000Y-70946000D03*
X127762000Y-80946000D03*
D49*
X143262000Y-75946000D03*
%TD*%
D16*
%TO.C,TP48*%
X87500000Y-86250000D03*
%TD*%
D50*
%TO.C,SW1*%
X59220000Y-63500000D03*
X61760000Y-63500000D03*
X64300000Y-63500000D03*
X54140000Y-63500000D03*
%TD*%
D17*
%TO.C,TP1*%
X92367000Y-59000000D03*
D18*
X92367000Y-61540000D03*
X94907000Y-59000000D03*
X94907000Y-61540000D03*
X97447000Y-59000000D03*
X97447000Y-61540000D03*
X99987000Y-59000000D03*
X99987000Y-61540000D03*
X102527000Y-59000000D03*
X102527000Y-61540000D03*
X105067000Y-59000000D03*
X105067000Y-61540000D03*
X107607000Y-59000000D03*
X107607000Y-61540000D03*
X110147000Y-59000000D03*
X110147000Y-61540000D03*
X112687000Y-59000000D03*
X112687000Y-61540000D03*
X115227000Y-59000000D03*
X115227000Y-61540000D03*
X117767000Y-59000000D03*
X117767000Y-61540000D03*
X120307000Y-59000000D03*
X120307000Y-61540000D03*
X122847000Y-59000000D03*
X122847000Y-61540000D03*
X125387000Y-59000000D03*
X125387000Y-61540000D03*
X127927000Y-59000000D03*
X127927000Y-61540000D03*
X130467000Y-59000000D03*
X130467000Y-61540000D03*
X133007000Y-59000000D03*
X133007000Y-61540000D03*
X135547000Y-59000000D03*
X135547000Y-61540000D03*
X138087000Y-59000000D03*
X138087000Y-61540000D03*
X140627000Y-59000000D03*
X140627000Y-61540000D03*
%TD*%
D51*
%TO.C,U19*%
X97409000Y-73058500D03*
X98679000Y-73058500D03*
X99949000Y-73058500D03*
X101219000Y-73058500D03*
X102489000Y-73058500D03*
X103759000Y-73058500D03*
X105029000Y-73058500D03*
X106299000Y-73058500D03*
X107569000Y-73058500D03*
X108839000Y-73058500D03*
X108839000Y-66133500D03*
X107569000Y-66133500D03*
X106299000Y-66133500D03*
X105029000Y-66133500D03*
X103759000Y-66133500D03*
X102489000Y-66133500D03*
X101219000Y-66133500D03*
X99949000Y-66133500D03*
X98679000Y-66133500D03*
X97409000Y-66133500D03*
%TD*%
D16*
%TO.C,TP50*%
X87500000Y-83250000D03*
%TD*%
D25*
%TO.C,D10*%
X123124000Y-66626500D03*
X121224000Y-66626500D03*
X122174000Y-68501500D03*
%TD*%
D12*
%TO.C,C16*%
X139000000Y-125475000D03*
X139000000Y-122525000D03*
%TD*%
D45*
%TO.C,H1*%
X54000000Y-54000000D03*
%TD*%
D16*
%TO.C,TP62*%
X99000000Y-82250000D03*
%TD*%
D12*
%TO.C,C1*%
X88296000Y-55150995D03*
X88296000Y-52200995D03*
%TD*%
%TO.C,C10*%
X103378000Y-93423000D03*
X103378000Y-90473000D03*
%TD*%
D45*
%TO.C,H2*%
X54000000Y-146000000D03*
%TD*%
D16*
%TO.C,TP53*%
X87500000Y-78750000D03*
%TD*%
D25*
%TO.C,D11*%
X119568000Y-66626500D03*
X117668000Y-66626500D03*
X118618000Y-68501500D03*
%TD*%
D12*
%TO.C,C8*%
X113284000Y-133731000D03*
X113284000Y-130781000D03*
%TD*%
D16*
%TO.C,TP56*%
X93250000Y-82250000D03*
%TD*%
D50*
%TO.C,F1*%
X61372000Y-69596000D03*
X66452000Y-69606000D03*
%TD*%
D33*
%TO.C,C7*%
X95250000Y-67867000D03*
X95250000Y-70817000D03*
%TD*%
D25*
%TO.C,D5*%
X144460000Y-66626500D03*
X142560000Y-66626500D03*
X143510000Y-68501500D03*
%TD*%
%TO.C,D2*%
X126680000Y-66626500D03*
X124780000Y-66626500D03*
X125730000Y-68501500D03*
%TD*%
D52*
%TO.C,D1*%
X71532000Y-58247995D03*
X71532000Y-53947995D03*
%TD*%
D45*
%TO.C,H4*%
X146000000Y-146000000D03*
%TD*%
G36*
X79097419Y-61569027D02*
G01*
X79143177Y-61621828D01*
X79154386Y-61673373D01*
X79152026Y-73110021D01*
X79132328Y-73177056D01*
X79079514Y-73222800D01*
X79028026Y-73233995D01*
X69116000Y-73233995D01*
X69048961Y-73214310D01*
X69003206Y-73161506D01*
X68992000Y-73109995D01*
X68992000Y-61673986D01*
X69011685Y-61606947D01*
X69064489Y-61561192D01*
X69115992Y-61549986D01*
X79030378Y-61549347D01*
X79097419Y-61569027D01*
G37*
M02*
