%TF.GenerationSoftware,KiCad,Pcbnew,8.0.7-8.0.7-0~ubuntu22.04.1*%
%TF.CreationDate,2025-01-28T10:36:37+01:00*%
%TF.ProjectId,uPD7220_v1,75504437-3232-4305-9f76-312e6b696361,rev?*%
%TF.SameCoordinates,Original*%
%TF.FileFunction,Copper,L2,Bot*%
%TF.FilePolarity,Positive*%
%FSLAX46Y46*%
G04 Gerber Fmt 4.6, Leading zero omitted, Abs format (unit mm)*
G04 Created by KiCad (PCBNEW 8.0.7-8.0.7-0~ubuntu22.04.1) date 2025-01-28 10:36:37*
%MOMM*%
%LPD*%
G01*
G04 APERTURE LIST*
%TA.AperFunction,ComponentPad*%
%ADD10R,1.700000X1.700000*%
%TD*%
%TA.AperFunction,ComponentPad*%
%ADD11O,1.700000X1.700000*%
%TD*%
%TA.AperFunction,ComponentPad*%
%ADD12R,1.600000X1.600000*%
%TD*%
%TA.AperFunction,ComponentPad*%
%ADD13O,1.600000X1.600000*%
%TD*%
%TA.AperFunction,ViaPad*%
%ADD14C,0.600000*%
%TD*%
%TA.AperFunction,Conductor*%
%ADD15C,0.200000*%
%TD*%
%TA.AperFunction,Conductor*%
%ADD16C,0.400000*%
%TD*%
G04 APERTURE END LIST*
D10*
%TO.P,J2,1,Pin_1*%
%TO.N,/DRQ*%
X78994000Y-76200000D03*
D11*
%TO.P,J2,2,Pin_2*%
%TO.N,/~{INT}*%
X76454000Y-76200000D03*
%TO.P,J2,3,Pin_3*%
%TO.N,GND*%
X78994000Y-73660000D03*
%TO.P,J2,4,Pin_4*%
X76454000Y-73660000D03*
%TD*%
D10*
%TO.P,J3,1,Pin_1*%
%TO.N,/CGAB*%
X147000000Y-69000000D03*
D11*
%TO.P,J3,2,Pin_2*%
%TO.N,/CGAR*%
X144460000Y-69000000D03*
%TO.P,J3,3,Pin_3*%
%TO.N,/CGAI*%
X147000000Y-71540000D03*
%TO.P,J3,4,Pin_4*%
%TO.N,/CGAG*%
X144460000Y-71540000D03*
%TO.P,J3,5,Pin_5*%
%TO.N,/VA18*%
X147000000Y-74080000D03*
%TO.P,J3,6,Pin_6*%
%TO.N,/DRQ*%
X144460000Y-74080000D03*
%TO.P,J3,7,Pin_7*%
%TO.N,/VA16*%
X147000000Y-76620000D03*
%TO.P,J3,8,Pin_8*%
%TO.N,/VA17*%
X144460000Y-76620000D03*
%TO.P,J3,9,Pin_9*%
%TO.N,/VA14*%
X147000000Y-79160000D03*
%TO.P,J3,10,Pin_10*%
%TO.N,/VA15*%
X144460000Y-79160000D03*
%TO.P,J3,11,Pin_11*%
%TO.N,/VA12*%
X147000000Y-81700000D03*
%TO.P,J3,12,Pin_12*%
%TO.N,/VA13*%
X144460000Y-81700000D03*
%TO.P,J3,13,Pin_13*%
%TO.N,/VA10*%
X147000000Y-84240000D03*
%TO.P,J3,14,Pin_14*%
%TO.N,/VA11*%
X144460000Y-84240000D03*
%TO.P,J3,15,Pin_15*%
%TO.N,/VA8*%
X147000000Y-86780000D03*
%TO.P,J3,16,Pin_16*%
%TO.N,/VA9*%
X144460000Y-86780000D03*
%TO.P,J3,17,Pin_17*%
%TO.N,/VA6*%
X147000000Y-89320000D03*
%TO.P,J3,18,Pin_18*%
%TO.N,/VA7*%
X144460000Y-89320000D03*
%TO.P,J3,19,Pin_19*%
%TO.N,/VA4*%
X147000000Y-91860000D03*
%TO.P,J3,20,Pin_20*%
%TO.N,/VA5*%
X144460000Y-91860000D03*
%TO.P,J3,21,Pin_21*%
%TO.N,/VA2*%
X147000000Y-94400000D03*
%TO.P,J3,22,Pin_22*%
%TO.N,/VA3*%
X144460000Y-94400000D03*
%TO.P,J3,23,Pin_23*%
%TO.N,/VA0*%
X147000000Y-96940000D03*
%TO.P,J3,24,Pin_24*%
%TO.N,/VA1*%
X144460000Y-96940000D03*
%TO.P,J3,25,Pin_25*%
%TO.N,/In0*%
X147000000Y-99480000D03*
%TO.P,J3,26,Pin_26*%
%TO.N,/In1*%
X144460000Y-99480000D03*
%TO.P,J3,27,Pin_27*%
%TO.N,/In2*%
X147000000Y-102020000D03*
%TO.P,J3,28,Pin_28*%
%TO.N,/DE*%
X144460000Y-102020000D03*
%TO.P,J3,29,Pin_29*%
%TO.N,/HS*%
X147000000Y-104560000D03*
%TO.P,J3,30,Pin_30*%
%TO.N,/CRSR*%
X144460000Y-104560000D03*
%TO.P,J3,31,Pin_31*%
%TO.N,/VS*%
X147000000Y-107100000D03*
%TO.P,J3,32,Pin_32*%
%TO.N,/~{RP}*%
X144460000Y-107100000D03*
%TO.P,J3,33,Pin_33*%
%TO.N,GND*%
X147000000Y-109640000D03*
%TO.P,J3,34,Pin_34*%
X144460000Y-109640000D03*
%TD*%
D10*
%TO.P,J1,1,Pin_1*%
%TO.N,GND*%
X53000000Y-109640000D03*
D11*
%TO.P,J1,2,Pin_2*%
X55540000Y-109640000D03*
%TO.P,J1,3,Pin_3*%
%TO.N,/D1*%
X53000000Y-107100000D03*
%TO.P,J1,4,Pin_4*%
%TO.N,/D0*%
X55540000Y-107100000D03*
%TO.P,J1,5,Pin_5*%
%TO.N,/D3*%
X53000000Y-104560000D03*
%TO.P,J1,6,Pin_6*%
%TO.N,/D2*%
X55540000Y-104560000D03*
%TO.P,J1,7,Pin_7*%
%TO.N,/D5*%
X53000000Y-102020000D03*
%TO.P,J1,8,Pin_8*%
%TO.N,/D4*%
X55540000Y-102020000D03*
%TO.P,J1,9,Pin_9*%
%TO.N,/D7*%
X53000000Y-99480000D03*
%TO.P,J1,10,Pin_10*%
%TO.N,/D6*%
X55540000Y-99480000D03*
%TO.P,J1,11,Pin_11*%
%TO.N,/Out1*%
X53000000Y-96940000D03*
%TO.P,J1,12,Pin_12*%
%TO.N,/Out0*%
X55540000Y-96940000D03*
%TO.P,J1,13,Pin_13*%
%TO.N,/Out3*%
X53000000Y-94400000D03*
%TO.P,J1,14,Pin_14*%
%TO.N,/Out2*%
X55540000Y-94400000D03*
%TO.P,J1,15,Pin_15*%
%TO.N,/Out5*%
X53000000Y-91860000D03*
%TO.P,J1,16,Pin_16*%
%TO.N,/Out4*%
X55540000Y-91860000D03*
%TO.P,J1,17,Pin_17*%
%TO.N,/Out7*%
X53000000Y-89320000D03*
%TO.P,J1,18,Pin_18*%
%TO.N,/Out6*%
X55540000Y-89320000D03*
%TO.P,J1,19,Pin_19*%
%TO.N,/~{CS}*%
X53000000Y-86780000D03*
%TO.P,J1,20,Pin_20*%
%TO.N,/VCLK*%
X55540000Y-86780000D03*
%TO.P,J1,21,Pin_21*%
%TO.N,/A1#*%
X53000000Y-84240000D03*
%TO.P,J1,22,Pin_22*%
%TO.N,/R{slash}~{W}*%
X55540000Y-84240000D03*
%TO.P,J1,23,Pin_23*%
%TO.N,/~{RD}*%
X53000000Y-81700000D03*
%TO.P,J1,24,Pin_24*%
%TO.N,/A0#*%
X55540000Y-81700000D03*
%TO.P,J1,25,Pin_25*%
%TO.N,/~{RST}*%
X53000000Y-79160000D03*
%TO.P,J1,26,Pin_26*%
%TO.N,/~{WR}*%
X55540000Y-79160000D03*
%TO.P,J1,27,Pin_27*%
%TO.N,/CH0*%
X53000000Y-76620000D03*
%TO.P,J1,28,Pin_28*%
%TO.N,/PHI2*%
X55540000Y-76620000D03*
%TO.P,J1,29,Pin_29*%
%TO.N,/Y*%
X53000000Y-74080000D03*
%TO.P,J1,30,Pin_30*%
%TO.N,/A*%
X55540000Y-74080000D03*
%TO.P,J1,31,Pin_31*%
%TO.N,/B*%
X53000000Y-71540000D03*
%TO.P,J1,32,Pin_32*%
%TO.N,/~{INT}*%
X55540000Y-71540000D03*
%TO.P,J1,33,Pin_33*%
%TO.N,+5V*%
X53000000Y-69000000D03*
%TO.P,J1,34,Pin_34*%
X55540000Y-69000000D03*
%TD*%
D12*
%TO.P,U3,1,CKx2*%
%TO.N,/VCLK*%
X121412000Y-96012000D03*
D13*
%TO.P,U3,2,!DBIN*%
%TO.N,/CRSR*%
X118872000Y-96012000D03*
%TO.P,U3,3,HSYNC*%
%TO.N,/HS*%
X116332000Y-96012000D03*
%TO.P,U3,4,VSYNC*%
%TO.N,/VS*%
X113792000Y-96012000D03*
%TO.P,U3,5,BLANK*%
%TO.N,/DE*%
X111252000Y-96012000D03*
%TO.P,U3,6,ALE*%
%TO.N,/~{RP}*%
X108712000Y-96012000D03*
%TO.P,U3,7,DRQ*%
%TO.N,/DRQ*%
X106172000Y-96012000D03*
%TO.P,U3,8,DACK*%
%TO.N,/~{INT}*%
X103632000Y-96012000D03*
%TO.P,U3,9,!RD*%
%TO.N,/~{RD}*%
X101092000Y-96012000D03*
%TO.P,U3,10,!WE*%
%TO.N,/~{WR}*%
X98552000Y-96012000D03*
%TO.P,U3,11,iA0*%
%TO.N,/A0#*%
X96012000Y-96012000D03*
%TO.P,U3,12,DB0*%
%TO.N,/D0*%
X93472000Y-96012000D03*
%TO.P,U3,13,DB1*%
%TO.N,/D1*%
X90932000Y-96012000D03*
%TO.P,U3,14,DB2*%
%TO.N,/D2*%
X88392000Y-96012000D03*
%TO.P,U3,15,DB3*%
%TO.N,/D3*%
X85852000Y-96012000D03*
%TO.P,U3,16,DB4*%
%TO.N,/D4*%
X83312000Y-96012000D03*
%TO.P,U3,17,DB5*%
%TO.N,/D5*%
X80772000Y-96012000D03*
%TO.P,U3,18,DB6*%
%TO.N,/D6*%
X78232000Y-96012000D03*
%TO.P,U3,19,DB7*%
%TO.N,/D7*%
X75692000Y-96012000D03*
%TO.P,U3,20,GND*%
%TO.N,GND*%
X73152000Y-96012000D03*
%TO.P,U3,21,LPEN*%
%TO.N,unconnected-(U3-LPEN-Pad21)*%
X73152000Y-80772000D03*
%TO.P,U3,22,AD0*%
%TO.N,/VA0*%
X75692000Y-80772000D03*
%TO.P,U3,23,AD1*%
%TO.N,/VA1*%
X78232000Y-80772000D03*
%TO.P,U3,24,AD2*%
%TO.N,/VA2*%
X80772000Y-80772000D03*
%TO.P,U3,25,AD3*%
%TO.N,/VA3*%
X83312000Y-80772000D03*
%TO.P,U3,26,AD4*%
%TO.N,/VA4*%
X85852000Y-80772000D03*
%TO.P,U3,27,AD5*%
%TO.N,/VA5*%
X88392000Y-80772000D03*
%TO.P,U3,28,AD6*%
%TO.N,/VA6*%
X90932000Y-80772000D03*
%TO.P,U3,29,AD7*%
%TO.N,/VA7*%
X93472000Y-80772000D03*
%TO.P,U3,30,AD8*%
%TO.N,/VA8*%
X96012000Y-80772000D03*
%TO.P,U3,31,AD9*%
%TO.N,/VA9*%
X98552000Y-80772000D03*
%TO.P,U3,32,AD10*%
%TO.N,/VA10*%
X101092000Y-80772000D03*
%TO.P,U3,33,AD11*%
%TO.N,/VA11*%
X103632000Y-80772000D03*
%TO.P,U3,34,AD12*%
%TO.N,/VA12*%
X106172000Y-80772000D03*
%TO.P,U3,35,AD13*%
%TO.N,/VA13*%
X108712000Y-80772000D03*
%TO.P,U3,36,AD14*%
%TO.N,/VA14*%
X111252000Y-80772000D03*
%TO.P,U3,37,AD15*%
%TO.N,/VA15*%
X113792000Y-80772000D03*
%TO.P,U3,38,A16*%
%TO.N,/VA16*%
X116332000Y-80772000D03*
%TO.P,U3,39,A17*%
%TO.N,/VA17*%
X118872000Y-80772000D03*
%TO.P,U3,40,+5V*%
%TO.N,+5V*%
X121412000Y-80772000D03*
%TD*%
D14*
%TO.N,GND*%
X100330000Y-100584000D03*
X76200000Y-69596000D03*
X69088000Y-74930000D03*
X60198000Y-75438000D03*
X60198000Y-81280000D03*
X68834000Y-81026000D03*
X82804000Y-77724000D03*
X94742000Y-77216000D03*
X107696000Y-77216000D03*
X113284000Y-75946000D03*
X127762000Y-80518000D03*
X139446000Y-80772000D03*
X133604000Y-92710000D03*
X124714000Y-99822000D03*
X139192000Y-100076000D03*
X131064000Y-97536000D03*
%TO.N,/VA1*%
X78232000Y-90170000D03*
%TO.N,+5V*%
X73406000Y-89877500D03*
%TO.N,/VA2*%
X81026000Y-89154000D03*
%TO.N,/VA0*%
X76200000Y-90170000D03*
%TO.N,GND*%
X125222000Y-96304500D03*
%TO.N,+5V*%
X106452000Y-93218018D03*
%TO.N,/VA3*%
X83311998Y-88504006D03*
%TO.N,/VA4*%
X86106000Y-88358000D03*
%TO.N,/VA5*%
X88392000Y-87742000D03*
%TO.N,/VA6*%
X90932000Y-87122000D03*
%TO.N,/VA7*%
X93472000Y-86726000D03*
%TO.N,/VA8*%
X96012000Y-86326000D03*
%TO.N,/VA9*%
X98552000Y-85852000D03*
%TO.N,/VA10*%
X101092000Y-85090000D03*
%TO.N,/VA11*%
X103632000Y-83820000D03*
%TO.N,/VA12*%
X106172000Y-82804000D03*
%TO.N,/VA13*%
X108712000Y-82200000D03*
%TO.N,+5V*%
X125222022Y-93179511D03*
%TO.N,/VA15*%
X113792000Y-78232000D03*
%TO.N,/VA16*%
X116332000Y-75692000D03*
%TO.N,/VA17*%
X118872000Y-76454010D03*
%TO.N,/D7*%
X75946000Y-99060000D03*
%TO.N,/D6*%
X78232000Y-99314000D03*
%TO.N,/D5*%
X80772000Y-101092000D03*
%TO.N,/D4*%
X83058000Y-102108000D03*
%TO.N,/D3*%
X85598000Y-103632000D03*
%TO.N,/D2*%
X88646000Y-104902000D03*
%TO.N,/D1*%
X90932000Y-106426000D03*
%TO.N,/D0*%
X93726000Y-106680000D03*
%TO.N,/A0#*%
X96659433Y-83115715D03*
%TO.N,/~{WR}*%
X97536000Y-78740000D03*
%TO.N,/~{RD}*%
X100076000Y-83312000D03*
%TO.N,/~{INT}*%
X102362000Y-71882000D03*
%TO.N,/DRQ*%
X104648000Y-74168000D03*
%TO.N,/~{RP}*%
X108458000Y-106934000D03*
%TO.N,/DE*%
X110998000Y-101600000D03*
%TO.N,/VS*%
X113792000Y-105664000D03*
%TO.N,/HS*%
X116332000Y-103886000D03*
%TO.N,/CRSR*%
X118872000Y-104648000D03*
%TO.N,/VCLK*%
X121411993Y-92824200D03*
%TO.N,GND*%
X59690000Y-84582000D03*
X68580000Y-96520000D03*
X107950000Y-71374000D03*
X75438000Y-110236000D03*
X69850000Y-85090000D03*
X127254000Y-70612000D03*
X59182000Y-95758000D03*
X91948000Y-110236000D03*
X116332000Y-71120000D03*
X138684000Y-70358000D03*
%TD*%
D15*
%TO.N,/DRQ*%
X78994000Y-76200000D02*
X102616000Y-76200000D01*
X102616000Y-76200000D02*
X104648000Y-74168000D01*
%TO.N,/VA0*%
X76850000Y-90820000D02*
X76200000Y-90170000D01*
%TO.N,/VA1*%
X143168000Y-96940000D02*
X144460000Y-96940000D01*
%TO.N,/VA0*%
X135524000Y-90820000D02*
X76850000Y-90820000D01*
X145850000Y-98090000D02*
X142794000Y-98090000D01*
X147000000Y-96940000D02*
X145850000Y-98090000D01*
X142794000Y-98090000D02*
X135524000Y-90820000D01*
%TO.N,/VA1*%
X78232000Y-90170000D02*
X136398000Y-90170000D01*
X136398000Y-90170000D02*
X143168000Y-96940000D01*
D16*
%TO.N,+5V*%
X76746518Y-93218018D02*
X73406000Y-89877500D01*
D15*
%TO.N,/VCLK*%
X55540000Y-86780000D02*
X56390000Y-87630000D01*
X56390000Y-87630000D02*
X72644000Y-87630000D01*
X72644000Y-87630000D02*
X77612000Y-92598000D01*
X77612000Y-92598000D02*
X121185793Y-92598000D01*
X121185793Y-92598000D02*
X121411993Y-92824200D01*
%TO.N,/VA2*%
X81026000Y-89154000D02*
X81534000Y-89662000D01*
X81534000Y-89662000D02*
X136906000Y-89662000D01*
X136906000Y-89662000D02*
X143002000Y-95758000D01*
X143002000Y-95758000D02*
X145642000Y-95758000D01*
X145642000Y-95758000D02*
X147000000Y-94400000D01*
%TO.N,/VA6*%
X91186000Y-87376000D02*
X90932000Y-87122000D01*
X139446000Y-87376000D02*
X91186000Y-87376000D01*
X142540000Y-90470000D02*
X139446000Y-87376000D01*
X147000000Y-89320000D02*
X145850000Y-90470000D01*
X145850000Y-90470000D02*
X142540000Y-90470000D01*
%TO.N,/VA3*%
X137071686Y-89008000D02*
X83815992Y-89008000D01*
X144460000Y-94400000D02*
X142463686Y-94400000D01*
X83815992Y-89008000D02*
X83311998Y-88504006D01*
X142463686Y-94400000D02*
X137071686Y-89008000D01*
%TO.N,/VA4*%
X137021371Y-88392000D02*
X86140000Y-88392000D01*
X147000000Y-91860000D02*
X145850000Y-93010000D01*
X141639371Y-93010000D02*
X137021371Y-88392000D01*
X145850000Y-93010000D02*
X141639371Y-93010000D01*
X86140000Y-88392000D02*
X86106000Y-88358000D01*
%TO.N,/VA5*%
X141055057Y-91860000D02*
X137187057Y-87992000D01*
X144460000Y-91860000D02*
X141055057Y-91860000D01*
X137187057Y-87992000D02*
X88642000Y-87992000D01*
X88642000Y-87992000D02*
X88392000Y-87742000D01*
%TO.N,/VA7*%
X93722000Y-86976000D02*
X93472000Y-86726000D01*
X140913919Y-86976000D02*
X93722000Y-86976000D01*
%TO.N,/VA8*%
X141336000Y-86472000D02*
X96158000Y-86472000D01*
%TO.N,/VA7*%
X144460000Y-89320000D02*
X143257919Y-89320000D01*
X143257919Y-89320000D02*
X140913919Y-86976000D01*
%TO.N,/VA8*%
X147000000Y-86780000D02*
X145850000Y-87930000D01*
X145850000Y-87930000D02*
X142794000Y-87930000D01*
X142794000Y-87930000D02*
X141336000Y-86472000D01*
X96158000Y-86472000D02*
X96012000Y-86326000D01*
D16*
%TO.N,+5V*%
X106808176Y-93574194D02*
X124827339Y-93574194D01*
X124827339Y-93574194D02*
X125222022Y-93179511D01*
X106452000Y-93218018D02*
X106808176Y-93574194D01*
D15*
%TO.N,/D7*%
X53000000Y-99480000D02*
X54182000Y-98298000D01*
X54182000Y-98298000D02*
X72136000Y-98298000D01*
X72136000Y-98298000D02*
X72898000Y-99060000D01*
X72898000Y-99060000D02*
X75946000Y-99060000D01*
%TO.N,/D6*%
X77216000Y-100330000D02*
X56390000Y-100330000D01*
D16*
%TO.N,GND*%
X123591163Y-97935337D02*
X75075337Y-97935337D01*
X125222000Y-96304500D02*
X123591163Y-97935337D01*
D15*
%TO.N,/D6*%
X56390000Y-100330000D02*
X55540000Y-99480000D01*
X78232000Y-99314000D02*
X77216000Y-100330000D01*
D16*
%TO.N,GND*%
X75075337Y-97935337D02*
X73152000Y-96012000D01*
%TO.N,+5V*%
X76746518Y-93218018D02*
X106452000Y-93218018D01*
D15*
%TO.N,/~{RD}*%
X100076000Y-83312000D02*
X99628839Y-83759161D01*
X99628839Y-83759161D02*
X57033475Y-83759161D01*
X57033475Y-83759161D02*
X56124314Y-82850000D01*
X56124314Y-82850000D02*
X54150000Y-82850000D01*
X54150000Y-82850000D02*
X53000000Y-81700000D01*
%TO.N,/A0#*%
X96567718Y-83024000D02*
X96659433Y-83115715D01*
X56864000Y-83024000D02*
X96567718Y-83024000D01*
X55540000Y-81700000D02*
X56864000Y-83024000D01*
%TO.N,/VA9*%
X143532000Y-85852000D02*
X144460000Y-86780000D01*
X98552000Y-85852000D02*
X143532000Y-85852000D01*
%TO.N,/VA10*%
X101392000Y-85390000D02*
X145850000Y-85390000D01*
X101092000Y-85090000D02*
X101392000Y-85390000D01*
X145850000Y-85390000D02*
X147000000Y-84240000D01*
%TO.N,/VA11*%
X103632000Y-83820000D02*
X104140000Y-84328000D01*
X104140000Y-84328000D02*
X144372000Y-84328000D01*
X144372000Y-84328000D02*
X144460000Y-84240000D01*
%TO.N,/VA12*%
X106426000Y-83058000D02*
X106172000Y-82804000D01*
X145642000Y-83058000D02*
X106426000Y-83058000D01*
X147000000Y-81700000D02*
X145642000Y-83058000D01*
%TO.N,/VA13*%
X143960000Y-82200000D02*
X108712000Y-82200000D01*
X144460000Y-81700000D02*
X143960000Y-82200000D01*
%TO.N,/VA14*%
X111252000Y-80772000D02*
X113030000Y-78994000D01*
X142494000Y-78994000D02*
X144018000Y-80518000D01*
X113030000Y-78994000D02*
X142494000Y-78994000D01*
X144018000Y-80518000D02*
X145642000Y-80518000D01*
X145642000Y-80518000D02*
X147000000Y-79160000D01*
%TO.N,/VA15*%
X113792000Y-78232000D02*
X142748000Y-78232000D01*
X142748000Y-78232000D02*
X143676000Y-79160000D01*
X143676000Y-79160000D02*
X144460000Y-79160000D01*
%TO.N,/VA16*%
X116586000Y-75438000D02*
X116332000Y-75692000D01*
X145818000Y-75438000D02*
X116586000Y-75438000D01*
X147000000Y-76620000D02*
X145818000Y-75438000D01*
%TO.N,/VA17*%
X119037990Y-76620000D02*
X118872000Y-76454010D01*
X144460000Y-76620000D02*
X119037990Y-76620000D01*
%TO.N,/D5*%
X54150000Y-100870000D02*
X53000000Y-102020000D01*
X80772000Y-101092000D02*
X80518000Y-101092000D01*
X80518000Y-101092000D02*
X80296000Y-100870000D01*
X80296000Y-100870000D02*
X54150000Y-100870000D01*
%TO.N,/D4*%
X83058000Y-102108000D02*
X82970000Y-102020000D01*
X82970000Y-102020000D02*
X55540000Y-102020000D01*
%TO.N,/D3*%
X54150000Y-103410000D02*
X53000000Y-104560000D01*
X85598000Y-103632000D02*
X85376000Y-103410000D01*
X85376000Y-103410000D02*
X54150000Y-103410000D01*
%TO.N,/D2*%
X88646000Y-104902000D02*
X88304000Y-104560000D01*
X88304000Y-104560000D02*
X55540000Y-104560000D01*
%TO.N,/D1*%
X90932000Y-106426000D02*
X90456000Y-105950000D01*
X90456000Y-105950000D02*
X54150000Y-105950000D01*
X54150000Y-105950000D02*
X53000000Y-107100000D01*
%TO.N,/D0*%
X93306000Y-107100000D02*
X55540000Y-107100000D01*
X93726000Y-106680000D02*
X93306000Y-107100000D01*
%TO.N,/~{WR}*%
X97536000Y-78740000D02*
X97116000Y-79160000D01*
X97116000Y-79160000D02*
X55540000Y-79160000D01*
%TO.N,/~{INT}*%
X102020000Y-71540000D02*
X102362000Y-71882000D01*
X55540000Y-71540000D02*
X102020000Y-71540000D01*
%TO.N,/DRQ*%
X104648000Y-74168000D02*
X104736000Y-74080000D01*
X104736000Y-74080000D02*
X144460000Y-74080000D01*
%TO.N,/~{RP}*%
X108458000Y-106934000D02*
X144294000Y-106934000D01*
X144294000Y-106934000D02*
X144460000Y-107100000D01*
%TO.N,/DE*%
X110998000Y-101600000D02*
X111418000Y-102020000D01*
X111418000Y-102020000D02*
X144460000Y-102020000D01*
%TO.N,/VS*%
X145610000Y-105710000D02*
X147000000Y-107100000D01*
X113792000Y-105664000D02*
X114554000Y-105664000D01*
X114554000Y-105664000D02*
X114600000Y-105710000D01*
X114600000Y-105710000D02*
X145610000Y-105710000D01*
%TO.N,/HS*%
X116808000Y-103410000D02*
X145850000Y-103410000D01*
X116332000Y-103886000D02*
X116808000Y-103410000D01*
X145850000Y-103410000D02*
X147000000Y-104560000D01*
%TO.N,/CRSR*%
X118872000Y-104648000D02*
X118960000Y-104560000D01*
X118960000Y-104560000D02*
X144460000Y-104560000D01*
%TD*%
%TA.AperFunction,Conductor*%
%TO.N,GND*%
G36*
X55074075Y-109447007D02*
G01*
X55040000Y-109574174D01*
X55040000Y-109705826D01*
X55074075Y-109832993D01*
X55106988Y-109890000D01*
X53433012Y-109890000D01*
X53465925Y-109832993D01*
X53500000Y-109705826D01*
X53500000Y-109574174D01*
X53465925Y-109447007D01*
X53433012Y-109390000D01*
X55106988Y-109390000D01*
X55074075Y-109447007D01*
G37*
%TD.AperFunction*%
%TA.AperFunction,Conductor*%
G36*
X146534075Y-109447007D02*
G01*
X146500000Y-109574174D01*
X146500000Y-109705826D01*
X146534075Y-109832993D01*
X146566988Y-109890000D01*
X144893012Y-109890000D01*
X144925925Y-109832993D01*
X144960000Y-109705826D01*
X144960000Y-109574174D01*
X144925925Y-109447007D01*
X144893012Y-109390000D01*
X146566988Y-109390000D01*
X146534075Y-109447007D01*
G37*
%TD.AperFunction*%
%TA.AperFunction,Conductor*%
G36*
X72101479Y-79780185D02*
G01*
X72147234Y-79832989D01*
X72157178Y-79902147D01*
X72136015Y-79955623D01*
X72021432Y-80119265D01*
X72021431Y-80119267D01*
X71925261Y-80325502D01*
X71925258Y-80325511D01*
X71866366Y-80545302D01*
X71866364Y-80545313D01*
X71846532Y-80771998D01*
X71846532Y-80772001D01*
X71866364Y-80998686D01*
X71866366Y-80998697D01*
X71925258Y-81218488D01*
X71925261Y-81218497D01*
X72021431Y-81424732D01*
X72021432Y-81424734D01*
X72151954Y-81611141D01*
X72312858Y-81772045D01*
X72312861Y-81772047D01*
X72499266Y-81902568D01*
X72705504Y-81998739D01*
X72925308Y-82057635D01*
X73087230Y-82071801D01*
X73151998Y-82077468D01*
X73152000Y-82077468D01*
X73152002Y-82077468D01*
X73208673Y-82072509D01*
X73378692Y-82057635D01*
X73598496Y-81998739D01*
X73804734Y-81902568D01*
X73991139Y-81772047D01*
X74152047Y-81611139D01*
X74282568Y-81424734D01*
X74309618Y-81366724D01*
X74355790Y-81314285D01*
X74422983Y-81295133D01*
X74489865Y-81315348D01*
X74534382Y-81366725D01*
X74561429Y-81424728D01*
X74561432Y-81424734D01*
X74691954Y-81611141D01*
X74852858Y-81772045D01*
X74852861Y-81772047D01*
X75039266Y-81902568D01*
X75245504Y-81998739D01*
X75465308Y-82057635D01*
X75627230Y-82071801D01*
X75691998Y-82077468D01*
X75692000Y-82077468D01*
X75692002Y-82077468D01*
X75748673Y-82072509D01*
X75918692Y-82057635D01*
X76138496Y-81998739D01*
X76344734Y-81902568D01*
X76531139Y-81772047D01*
X76692047Y-81611139D01*
X76822568Y-81424734D01*
X76849618Y-81366724D01*
X76895790Y-81314285D01*
X76962983Y-81295133D01*
X77029865Y-81315348D01*
X77074382Y-81366725D01*
X77101429Y-81424728D01*
X77101432Y-81424734D01*
X77231954Y-81611141D01*
X77392858Y-81772045D01*
X77392861Y-81772047D01*
X77579266Y-81902568D01*
X77785504Y-81998739D01*
X78005308Y-82057635D01*
X78167230Y-82071801D01*
X78231998Y-82077468D01*
X78232000Y-82077468D01*
X78232002Y-82077468D01*
X78288673Y-82072509D01*
X78458692Y-82057635D01*
X78678496Y-81998739D01*
X78884734Y-81902568D01*
X79071139Y-81772047D01*
X79232047Y-81611139D01*
X79362568Y-81424734D01*
X79389618Y-81366724D01*
X79435790Y-81314285D01*
X79502983Y-81295133D01*
X79569865Y-81315348D01*
X79614382Y-81366725D01*
X79641429Y-81424728D01*
X79641432Y-81424734D01*
X79771954Y-81611141D01*
X79932858Y-81772045D01*
X79932861Y-81772047D01*
X80119266Y-81902568D01*
X80325504Y-81998739D01*
X80545308Y-82057635D01*
X80707230Y-82071801D01*
X80771998Y-82077468D01*
X80772000Y-82077468D01*
X80772002Y-82077468D01*
X80828673Y-82072509D01*
X80998692Y-82057635D01*
X81218496Y-81998739D01*
X81424734Y-81902568D01*
X81611139Y-81772047D01*
X81772047Y-81611139D01*
X81902568Y-81424734D01*
X81929618Y-81366724D01*
X81975790Y-81314285D01*
X82042983Y-81295133D01*
X82109865Y-81315348D01*
X82154382Y-81366725D01*
X82181429Y-81424728D01*
X82181432Y-81424734D01*
X82311954Y-81611141D01*
X82472858Y-81772045D01*
X82472861Y-81772047D01*
X82659266Y-81902568D01*
X82865504Y-81998739D01*
X83085308Y-82057635D01*
X83247230Y-82071801D01*
X83311998Y-82077468D01*
X83312000Y-82077468D01*
X83312002Y-82077468D01*
X83368673Y-82072509D01*
X83538692Y-82057635D01*
X83758496Y-81998739D01*
X83964734Y-81902568D01*
X84151139Y-81772047D01*
X84312047Y-81611139D01*
X84442568Y-81424734D01*
X84469618Y-81366724D01*
X84515790Y-81314285D01*
X84582983Y-81295133D01*
X84649865Y-81315348D01*
X84694382Y-81366725D01*
X84721429Y-81424728D01*
X84721432Y-81424734D01*
X84851954Y-81611141D01*
X85012858Y-81772045D01*
X85012861Y-81772047D01*
X85199266Y-81902568D01*
X85405504Y-81998739D01*
X85625308Y-82057635D01*
X85787230Y-82071801D01*
X85851998Y-82077468D01*
X85852000Y-82077468D01*
X85852002Y-82077468D01*
X85908673Y-82072509D01*
X86078692Y-82057635D01*
X86298496Y-81998739D01*
X86504734Y-81902568D01*
X86691139Y-81772047D01*
X86852047Y-81611139D01*
X86982568Y-81424734D01*
X87009618Y-81366724D01*
X87055790Y-81314285D01*
X87122983Y-81295133D01*
X87189865Y-81315348D01*
X87234382Y-81366725D01*
X87261429Y-81424728D01*
X87261432Y-81424734D01*
X87391954Y-81611141D01*
X87552858Y-81772045D01*
X87552861Y-81772047D01*
X87739266Y-81902568D01*
X87945504Y-81998739D01*
X88165308Y-82057635D01*
X88327230Y-82071801D01*
X88391998Y-82077468D01*
X88392000Y-82077468D01*
X88392002Y-82077468D01*
X88448673Y-82072509D01*
X88618692Y-82057635D01*
X88838496Y-81998739D01*
X89044734Y-81902568D01*
X89231139Y-81772047D01*
X89392047Y-81611139D01*
X89522568Y-81424734D01*
X89549618Y-81366724D01*
X89595790Y-81314285D01*
X89662983Y-81295133D01*
X89729865Y-81315348D01*
X89774382Y-81366725D01*
X89801429Y-81424728D01*
X89801432Y-81424734D01*
X89931954Y-81611141D01*
X90092858Y-81772045D01*
X90092861Y-81772047D01*
X90279266Y-81902568D01*
X90485504Y-81998739D01*
X90705308Y-82057635D01*
X90867230Y-82071801D01*
X90931998Y-82077468D01*
X90932000Y-82077468D01*
X90932002Y-82077468D01*
X90988673Y-82072509D01*
X91158692Y-82057635D01*
X91378496Y-81998739D01*
X91584734Y-81902568D01*
X91771139Y-81772047D01*
X91932047Y-81611139D01*
X92062568Y-81424734D01*
X92089618Y-81366724D01*
X92135790Y-81314285D01*
X92202983Y-81295133D01*
X92269865Y-81315348D01*
X92314382Y-81366725D01*
X92341429Y-81424728D01*
X92341432Y-81424734D01*
X92471954Y-81611141D01*
X92632858Y-81772045D01*
X92632861Y-81772047D01*
X92819266Y-81902568D01*
X93025504Y-81998739D01*
X93245308Y-82057635D01*
X93407230Y-82071801D01*
X93471998Y-82077468D01*
X93472000Y-82077468D01*
X93472002Y-82077468D01*
X93528673Y-82072509D01*
X93698692Y-82057635D01*
X93918496Y-81998739D01*
X94124734Y-81902568D01*
X94311139Y-81772047D01*
X94472047Y-81611139D01*
X94602568Y-81424734D01*
X94629618Y-81366724D01*
X94675790Y-81314285D01*
X94742983Y-81295133D01*
X94809865Y-81315348D01*
X94854382Y-81366725D01*
X94881429Y-81424728D01*
X94881432Y-81424734D01*
X95011954Y-81611141D01*
X95172858Y-81772045D01*
X95172861Y-81772047D01*
X95359266Y-81902568D01*
X95565504Y-81998739D01*
X95785308Y-82057635D01*
X95947230Y-82071801D01*
X96011998Y-82077468D01*
X96012000Y-82077468D01*
X96012002Y-82077468D01*
X96068673Y-82072509D01*
X96238692Y-82057635D01*
X96458496Y-81998739D01*
X96664734Y-81902568D01*
X96851139Y-81772047D01*
X97012047Y-81611139D01*
X97142568Y-81424734D01*
X97169618Y-81366724D01*
X97215790Y-81314285D01*
X97282983Y-81295133D01*
X97349865Y-81315348D01*
X97394382Y-81366725D01*
X97421429Y-81424728D01*
X97421432Y-81424734D01*
X97551954Y-81611141D01*
X97712858Y-81772045D01*
X97712861Y-81772047D01*
X97899266Y-81902568D01*
X98105504Y-81998739D01*
X98325308Y-82057635D01*
X98487230Y-82071801D01*
X98551998Y-82077468D01*
X98552000Y-82077468D01*
X98552002Y-82077468D01*
X98608673Y-82072509D01*
X98778692Y-82057635D01*
X98998496Y-81998739D01*
X99204734Y-81902568D01*
X99391139Y-81772047D01*
X99552047Y-81611139D01*
X99682568Y-81424734D01*
X99709618Y-81366724D01*
X99755790Y-81314285D01*
X99822983Y-81295133D01*
X99889865Y-81315348D01*
X99934382Y-81366725D01*
X99961429Y-81424728D01*
X99961432Y-81424734D01*
X100091954Y-81611141D01*
X100252858Y-81772045D01*
X100252861Y-81772047D01*
X100439266Y-81902568D01*
X100645504Y-81998739D01*
X100865308Y-82057635D01*
X101027230Y-82071801D01*
X101091998Y-82077468D01*
X101092000Y-82077468D01*
X101092002Y-82077468D01*
X101148673Y-82072509D01*
X101318692Y-82057635D01*
X101538496Y-81998739D01*
X101744734Y-81902568D01*
X101931139Y-81772047D01*
X102092047Y-81611139D01*
X102222568Y-81424734D01*
X102249618Y-81366724D01*
X102295790Y-81314285D01*
X102362983Y-81295133D01*
X102429865Y-81315348D01*
X102474382Y-81366725D01*
X102501429Y-81424728D01*
X102501432Y-81424734D01*
X102631954Y-81611141D01*
X102792858Y-81772045D01*
X102792861Y-81772047D01*
X102979266Y-81902568D01*
X103185504Y-81998739D01*
X103405308Y-82057635D01*
X103567230Y-82071801D01*
X103631998Y-82077468D01*
X103632000Y-82077468D01*
X103632002Y-82077468D01*
X103688673Y-82072509D01*
X103858692Y-82057635D01*
X104078496Y-81998739D01*
X104284734Y-81902568D01*
X104471139Y-81772047D01*
X104632047Y-81611139D01*
X104762568Y-81424734D01*
X104789618Y-81366724D01*
X104835790Y-81314285D01*
X104902983Y-81295133D01*
X104969865Y-81315348D01*
X105014382Y-81366725D01*
X105041429Y-81424728D01*
X105041432Y-81424734D01*
X105171954Y-81611141D01*
X105332858Y-81772045D01*
X105332861Y-81772047D01*
X105519266Y-81902568D01*
X105589691Y-81935408D01*
X105647785Y-81962498D01*
X105700224Y-82008671D01*
X105719376Y-82075864D01*
X105699160Y-82142745D01*
X105672700Y-82171821D01*
X105669740Y-82174181D01*
X105542184Y-82301737D01*
X105446211Y-82454476D01*
X105386631Y-82624745D01*
X105386630Y-82624750D01*
X105366435Y-82803996D01*
X105366435Y-82804003D01*
X105386630Y-82983249D01*
X105386631Y-82983254D01*
X105446211Y-83153523D01*
X105476361Y-83201506D01*
X105542184Y-83306262D01*
X105669738Y-83433816D01*
X105696292Y-83450501D01*
X105772691Y-83498506D01*
X105818982Y-83550841D01*
X105829630Y-83619895D01*
X105801255Y-83683743D01*
X105742865Y-83722115D01*
X105706719Y-83727500D01*
X104535707Y-83727500D01*
X104468668Y-83707815D01*
X104422913Y-83655011D01*
X104418665Y-83644454D01*
X104417368Y-83640748D01*
X104417368Y-83640745D01*
X104357789Y-83470478D01*
X104261816Y-83317738D01*
X104134262Y-83190184D01*
X103981523Y-83094211D01*
X103811254Y-83034631D01*
X103811249Y-83034630D01*
X103632004Y-83014435D01*
X103631996Y-83014435D01*
X103452750Y-83034630D01*
X103452745Y-83034631D01*
X103282476Y-83094211D01*
X103129737Y-83190184D01*
X103002184Y-83317737D01*
X102906211Y-83470476D01*
X102846631Y-83640745D01*
X102846630Y-83640750D01*
X102826435Y-83819996D01*
X102826435Y-83820003D01*
X102846630Y-83999249D01*
X102846631Y-83999254D01*
X102906211Y-84169523D01*
X102950495Y-84240000D01*
X103002184Y-84322262D01*
X103129738Y-84449816D01*
X103282478Y-84545789D01*
X103290105Y-84548458D01*
X103346881Y-84589179D01*
X103372629Y-84654132D01*
X103359173Y-84722693D01*
X103310787Y-84773097D01*
X103249151Y-84789500D01*
X101917124Y-84789500D01*
X101850085Y-84769815D01*
X101812130Y-84731472D01*
X101794657Y-84703664D01*
X101721816Y-84587738D01*
X101594262Y-84460184D01*
X101441523Y-84364211D01*
X101271254Y-84304631D01*
X101271249Y-84304630D01*
X101092004Y-84284435D01*
X101091996Y-84284435D01*
X100912750Y-84304630D01*
X100912745Y-84304631D01*
X100742476Y-84364211D01*
X100589737Y-84460184D01*
X100462184Y-84587737D01*
X100366211Y-84740476D01*
X100306631Y-84910745D01*
X100306630Y-84910750D01*
X100286435Y-85089996D01*
X100286435Y-85090000D01*
X100288846Y-85111402D01*
X100289096Y-85113615D01*
X100277042Y-85182437D01*
X100229694Y-85233817D01*
X100165876Y-85251500D01*
X99134412Y-85251500D01*
X99067373Y-85231815D01*
X99057097Y-85224445D01*
X99054263Y-85222185D01*
X99054262Y-85222184D01*
X98991005Y-85182437D01*
X98901523Y-85126211D01*
X98731254Y-85066631D01*
X98731249Y-85066630D01*
X98552004Y-85046435D01*
X98551996Y-85046435D01*
X98372750Y-85066630D01*
X98372745Y-85066631D01*
X98202476Y-85126211D01*
X98049737Y-85222184D01*
X97922184Y-85349737D01*
X97826211Y-85502476D01*
X97766631Y-85672745D01*
X97766630Y-85672749D01*
X97756644Y-85761384D01*
X97729577Y-85825798D01*
X97671982Y-85865353D01*
X97633424Y-85871500D01*
X96739620Y-85871500D01*
X96672581Y-85851815D01*
X96646833Y-85828568D01*
X96646740Y-85828662D01*
X96644918Y-85826840D01*
X96642675Y-85824815D01*
X96641816Y-85823738D01*
X96514262Y-85696184D01*
X96361523Y-85600211D01*
X96191254Y-85540631D01*
X96191249Y-85540630D01*
X96012004Y-85520435D01*
X96011996Y-85520435D01*
X95832750Y-85540630D01*
X95832745Y-85540631D01*
X95662476Y-85600211D01*
X95509737Y-85696184D01*
X95382184Y-85823737D01*
X95286211Y-85976476D01*
X95226631Y-86146745D01*
X95226630Y-86146749D01*
X95213264Y-86265384D01*
X95186197Y-86329798D01*
X95128603Y-86369353D01*
X95090044Y-86375500D01*
X94265707Y-86375500D01*
X94198668Y-86355815D01*
X94160713Y-86317472D01*
X94101815Y-86223737D01*
X93974262Y-86096184D01*
X93821523Y-86000211D01*
X93651254Y-85940631D01*
X93651249Y-85940630D01*
X93472004Y-85920435D01*
X93471996Y-85920435D01*
X93292750Y-85940630D01*
X93292745Y-85940631D01*
X93122476Y-86000211D01*
X92969737Y-86096184D01*
X92842184Y-86223737D01*
X92746211Y-86376476D01*
X92686631Y-86546745D01*
X92686630Y-86546749D01*
X92673264Y-86665384D01*
X92646197Y-86729798D01*
X92588603Y-86769353D01*
X92550044Y-86775500D01*
X91728220Y-86775500D01*
X91661181Y-86755815D01*
X91623226Y-86717472D01*
X91561815Y-86619737D01*
X91434262Y-86492184D01*
X91281523Y-86396211D01*
X91111254Y-86336631D01*
X91111249Y-86336630D01*
X90932004Y-86316435D01*
X90931996Y-86316435D01*
X90752750Y-86336630D01*
X90752745Y-86336631D01*
X90582476Y-86396211D01*
X90429737Y-86492184D01*
X90302184Y-86619737D01*
X90206211Y-86772476D01*
X90146631Y-86942745D01*
X90146630Y-86942750D01*
X90126435Y-87121996D01*
X90126435Y-87122003D01*
X90141264Y-87253617D01*
X90129209Y-87322439D01*
X90081860Y-87373818D01*
X90018044Y-87391500D01*
X89185707Y-87391500D01*
X89118668Y-87371815D01*
X89080713Y-87333472D01*
X89035354Y-87261284D01*
X89021816Y-87239738D01*
X88894262Y-87112184D01*
X88827800Y-87070423D01*
X88741523Y-87016211D01*
X88571254Y-86956631D01*
X88571249Y-86956630D01*
X88392004Y-86936435D01*
X88391996Y-86936435D01*
X88212750Y-86956630D01*
X88212745Y-86956631D01*
X88042476Y-87016211D01*
X87889737Y-87112184D01*
X87762184Y-87239737D01*
X87666211Y-87392476D01*
X87606631Y-87562745D01*
X87606630Y-87562749D01*
X87593264Y-87681384D01*
X87566197Y-87745798D01*
X87508603Y-87785353D01*
X87470044Y-87791500D01*
X86722940Y-87791500D01*
X86655901Y-87771815D01*
X86635259Y-87755181D01*
X86608262Y-87728184D01*
X86455523Y-87632211D01*
X86285254Y-87572631D01*
X86285249Y-87572630D01*
X86106004Y-87552435D01*
X86105996Y-87552435D01*
X85926750Y-87572630D01*
X85926745Y-87572631D01*
X85756476Y-87632211D01*
X85603737Y-87728184D01*
X85476184Y-87855737D01*
X85380211Y-88008476D01*
X85320631Y-88178745D01*
X85320630Y-88178749D01*
X85307264Y-88297384D01*
X85280197Y-88361798D01*
X85222603Y-88401353D01*
X85184044Y-88407500D01*
X84214304Y-88407500D01*
X84147265Y-88387815D01*
X84101510Y-88335011D01*
X84097262Y-88324454D01*
X84037787Y-88154484D01*
X83972135Y-88050000D01*
X83941814Y-88001744D01*
X83814260Y-87874190D01*
X83725627Y-87818498D01*
X83661521Y-87778217D01*
X83491252Y-87718637D01*
X83491247Y-87718636D01*
X83312002Y-87698441D01*
X83311994Y-87698441D01*
X83132748Y-87718636D01*
X83132743Y-87718637D01*
X82962474Y-87778217D01*
X82809735Y-87874190D01*
X82682182Y-88001743D01*
X82586209Y-88154482D01*
X82526629Y-88324751D01*
X82526628Y-88324756D01*
X82506433Y-88504002D01*
X82506433Y-88504009D01*
X82526628Y-88683255D01*
X82526629Y-88683260D01*
X82586209Y-88853528D01*
X82597519Y-88871528D01*
X82616519Y-88938764D01*
X82596152Y-89005600D01*
X82542884Y-89050814D01*
X82492525Y-89061500D01*
X81929707Y-89061500D01*
X81862668Y-89041815D01*
X81816913Y-88989011D01*
X81812665Y-88978454D01*
X81811368Y-88974748D01*
X81811368Y-88974745D01*
X81751789Y-88804478D01*
X81655816Y-88651738D01*
X81528262Y-88524184D01*
X81496143Y-88504002D01*
X81375523Y-88428211D01*
X81205254Y-88368631D01*
X81205249Y-88368630D01*
X81026004Y-88348435D01*
X81025996Y-88348435D01*
X80846750Y-88368630D01*
X80846745Y-88368631D01*
X80676476Y-88428211D01*
X80523737Y-88524184D01*
X80396184Y-88651737D01*
X80300211Y-88804476D01*
X80240631Y-88974745D01*
X80240630Y-88974750D01*
X80220435Y-89153996D01*
X80220435Y-89154003D01*
X80240630Y-89333249D01*
X80240632Y-89333257D01*
X80265577Y-89404546D01*
X80269138Y-89474325D01*
X80234409Y-89534952D01*
X80172415Y-89567179D01*
X80148535Y-89569500D01*
X78814412Y-89569500D01*
X78747373Y-89549815D01*
X78737097Y-89542445D01*
X78734263Y-89540185D01*
X78734262Y-89540184D01*
X78675915Y-89503522D01*
X78581523Y-89444211D01*
X78411254Y-89384631D01*
X78411249Y-89384630D01*
X78232004Y-89364435D01*
X78231996Y-89364435D01*
X78052750Y-89384630D01*
X78052745Y-89384631D01*
X77882476Y-89444211D01*
X77729737Y-89540184D01*
X77602184Y-89667737D01*
X77506211Y-89820476D01*
X77446631Y-89990745D01*
X77446630Y-89990749D01*
X77433264Y-90109384D01*
X77406197Y-90173798D01*
X77348603Y-90213353D01*
X77310044Y-90219500D01*
X77150097Y-90219500D01*
X77083058Y-90199815D01*
X77062416Y-90183181D01*
X77030700Y-90151465D01*
X76997215Y-90090142D01*
X76995163Y-90077686D01*
X76985368Y-89990745D01*
X76925789Y-89820478D01*
X76829816Y-89667738D01*
X76702262Y-89540184D01*
X76643915Y-89503522D01*
X76549523Y-89444211D01*
X76379254Y-89384631D01*
X76379249Y-89384630D01*
X76200004Y-89364435D01*
X76199996Y-89364435D01*
X76020750Y-89384630D01*
X76020745Y-89384631D01*
X75850476Y-89444211D01*
X75697739Y-89540183D01*
X75638259Y-89599663D01*
X75576935Y-89633147D01*
X75507244Y-89628162D01*
X75462897Y-89599662D01*
X73131590Y-87268355D01*
X73131588Y-87268352D01*
X73012717Y-87149481D01*
X73012709Y-87149475D01*
X72912292Y-87091500D01*
X72912291Y-87091499D01*
X72912291Y-87091500D01*
X72875785Y-87070423D01*
X72723057Y-87029499D01*
X72564943Y-87029499D01*
X72557347Y-87029499D01*
X72557331Y-87029500D01*
X57009152Y-87029500D01*
X56942113Y-87009815D01*
X56896358Y-86957011D01*
X56885624Y-86894694D01*
X56895659Y-86780000D01*
X56894727Y-86769353D01*
X56891267Y-86729798D01*
X56875063Y-86544592D01*
X56819341Y-86336631D01*
X56813905Y-86316344D01*
X56813904Y-86316343D01*
X56813903Y-86316337D01*
X56714035Y-86102171D01*
X56708425Y-86094158D01*
X56578494Y-85908597D01*
X56411402Y-85741506D01*
X56411396Y-85741501D01*
X56225842Y-85611575D01*
X56182217Y-85556998D01*
X56175023Y-85487500D01*
X56206546Y-85425145D01*
X56225842Y-85408425D01*
X56248026Y-85392891D01*
X56411401Y-85278495D01*
X56578495Y-85111401D01*
X56714035Y-84917830D01*
X56813903Y-84703663D01*
X56875063Y-84475408D01*
X56875286Y-84472857D01*
X56875697Y-84471804D01*
X56876002Y-84470080D01*
X56876348Y-84470141D01*
X56900737Y-84407788D01*
X56957327Y-84366808D01*
X56998814Y-84359662D01*
X57120128Y-84359662D01*
X57120144Y-84359661D01*
X99542170Y-84359661D01*
X99542186Y-84359662D01*
X99549782Y-84359662D01*
X99707893Y-84359662D01*
X99707896Y-84359662D01*
X99860624Y-84318738D01*
X99920038Y-84284435D01*
X99997555Y-84239681D01*
X100094538Y-84142697D01*
X100155857Y-84109215D01*
X100168315Y-84107163D01*
X100255255Y-84097368D01*
X100425522Y-84037789D01*
X100578262Y-83941816D01*
X100705816Y-83814262D01*
X100801789Y-83661522D01*
X100861368Y-83491255D01*
X100863709Y-83470478D01*
X100881565Y-83312003D01*
X100881565Y-83311996D01*
X100861369Y-83132750D01*
X100861368Y-83132745D01*
X100820866Y-83016998D01*
X100801789Y-82962478D01*
X100705816Y-82809738D01*
X100578262Y-82682184D01*
X100425523Y-82586211D01*
X100255254Y-82526631D01*
X100255249Y-82526630D01*
X100076004Y-82506435D01*
X100075996Y-82506435D01*
X99896750Y-82526630D01*
X99896745Y-82526631D01*
X99726476Y-82586211D01*
X99573737Y-82682184D01*
X99446184Y-82809737D01*
X99350209Y-82962480D01*
X99310621Y-83075616D01*
X99269900Y-83132392D01*
X99204947Y-83158139D01*
X99193580Y-83158661D01*
X97580650Y-83158661D01*
X97513611Y-83138976D01*
X97467856Y-83086172D01*
X97457430Y-83048544D01*
X97444802Y-82936465D01*
X97444801Y-82936460D01*
X97426845Y-82885145D01*
X97385222Y-82766193D01*
X97289249Y-82613453D01*
X97161695Y-82485899D01*
X97008956Y-82389926D01*
X96838687Y-82330346D01*
X96838682Y-82330345D01*
X96659437Y-82310150D01*
X96659429Y-82310150D01*
X96480183Y-82330345D01*
X96480170Y-82330348D01*
X96309915Y-82389923D01*
X96296399Y-82398415D01*
X96286723Y-82404495D01*
X96220754Y-82423500D01*
X57164098Y-82423500D01*
X57097059Y-82403815D01*
X57076417Y-82387181D01*
X56872766Y-82183530D01*
X56839281Y-82122207D01*
X56840671Y-82063757D01*
X56875063Y-81935408D01*
X56895659Y-81700000D01*
X56875063Y-81464592D01*
X56813903Y-81236337D01*
X56714035Y-81022171D01*
X56708425Y-81014158D01*
X56578494Y-80828597D01*
X56411402Y-80661506D01*
X56411396Y-80661501D01*
X56225842Y-80531575D01*
X56182217Y-80476998D01*
X56175023Y-80407500D01*
X56206546Y-80345145D01*
X56225842Y-80328425D01*
X56276922Y-80292658D01*
X56411401Y-80198495D01*
X56578495Y-80031401D01*
X56714035Y-79837830D01*
X56716707Y-79832097D01*
X56762878Y-79779658D01*
X56829091Y-79760500D01*
X72034440Y-79760500D01*
X72101479Y-79780185D01*
G37*
%TD.AperFunction*%
%TA.AperFunction,Conductor*%
G36*
X142260942Y-79614185D02*
G01*
X142281584Y-79630819D01*
X143371760Y-80720995D01*
X143405245Y-80782318D01*
X143400261Y-80852010D01*
X143385654Y-80879799D01*
X143285965Y-81022169D01*
X143285964Y-81022171D01*
X143186098Y-81236335D01*
X143186094Y-81236344D01*
X143124938Y-81464586D01*
X143124936Y-81464595D01*
X143123037Y-81486309D01*
X143097584Y-81551377D01*
X143040993Y-81592355D01*
X142999509Y-81599500D01*
X122655714Y-81599500D01*
X122588675Y-81579815D01*
X122542920Y-81527011D01*
X122532976Y-81457853D01*
X122543332Y-81423095D01*
X122569618Y-81366725D01*
X122638739Y-81218496D01*
X122697635Y-80998692D01*
X122717468Y-80772000D01*
X122697635Y-80545308D01*
X122638739Y-80325504D01*
X122542568Y-80119266D01*
X122412047Y-79932861D01*
X122412045Y-79932858D01*
X122285368Y-79806181D01*
X122251883Y-79744858D01*
X122256867Y-79675166D01*
X122298739Y-79619233D01*
X122364203Y-79594816D01*
X122373049Y-79594500D01*
X142193903Y-79594500D01*
X142260942Y-79614185D01*
G37*
%TD.AperFunction*%
%TA.AperFunction,Conductor*%
G36*
X76034015Y-72160185D02*
G01*
X76079770Y-72212989D01*
X76089714Y-72282147D01*
X76060689Y-72345703D01*
X76001911Y-72383477D01*
X75999069Y-72384275D01*
X75990516Y-72386566D01*
X75990507Y-72386570D01*
X75776422Y-72486399D01*
X75776420Y-72486400D01*
X75582926Y-72621886D01*
X75582920Y-72621891D01*
X75415891Y-72788920D01*
X75415886Y-72788926D01*
X75280400Y-72982420D01*
X75280399Y-72982422D01*
X75180570Y-73196507D01*
X75180567Y-73196513D01*
X75123364Y-73409999D01*
X75123364Y-73410000D01*
X76020988Y-73410000D01*
X75988075Y-73467007D01*
X75954000Y-73594174D01*
X75954000Y-73725826D01*
X75988075Y-73852993D01*
X76020988Y-73910000D01*
X75123364Y-73910000D01*
X75180567Y-74123486D01*
X75180570Y-74123492D01*
X75280399Y-74337578D01*
X75415894Y-74531082D01*
X75582917Y-74698105D01*
X75768595Y-74828119D01*
X75812219Y-74882696D01*
X75819412Y-74952195D01*
X75787890Y-75014549D01*
X75768595Y-75031269D01*
X75582594Y-75161508D01*
X75415505Y-75328597D01*
X75279965Y-75522169D01*
X75279964Y-75522171D01*
X75180098Y-75736335D01*
X75180094Y-75736344D01*
X75118938Y-75964586D01*
X75118936Y-75964596D01*
X75098341Y-76199999D01*
X75098341Y-76200000D01*
X75118936Y-76435403D01*
X75118938Y-76435413D01*
X75180094Y-76663655D01*
X75180096Y-76663659D01*
X75180097Y-76663663D01*
X75243906Y-76800501D01*
X75279965Y-76877830D01*
X75279967Y-76877834D01*
X75388281Y-77032521D01*
X75415505Y-77071401D01*
X75582599Y-77238495D01*
X75667338Y-77297830D01*
X75776165Y-77374032D01*
X75776167Y-77374033D01*
X75776170Y-77374035D01*
X75990337Y-77473903D01*
X76218592Y-77535063D01*
X76395034Y-77550500D01*
X76453999Y-77555659D01*
X76454000Y-77555659D01*
X76454001Y-77555659D01*
X76512966Y-77550500D01*
X76689408Y-77535063D01*
X76917663Y-77473903D01*
X77131830Y-77374035D01*
X77325401Y-77238495D01*
X77447329Y-77116566D01*
X77508648Y-77083084D01*
X77578340Y-77088068D01*
X77634274Y-77129939D01*
X77651189Y-77160917D01*
X77700202Y-77292328D01*
X77700206Y-77292335D01*
X77786452Y-77407544D01*
X77786455Y-77407547D01*
X77901664Y-77493793D01*
X77901671Y-77493797D01*
X78036517Y-77544091D01*
X78036516Y-77544091D01*
X78043444Y-77544835D01*
X78096127Y-77550500D01*
X79891872Y-77550499D01*
X79951483Y-77544091D01*
X80086331Y-77493796D01*
X80201546Y-77407546D01*
X80287796Y-77292331D01*
X80338091Y-77157483D01*
X80344500Y-77097873D01*
X80344500Y-76924500D01*
X80364185Y-76857461D01*
X80416989Y-76811706D01*
X80468500Y-76800500D01*
X102529331Y-76800500D01*
X102529347Y-76800501D01*
X102536943Y-76800501D01*
X102695054Y-76800501D01*
X102695057Y-76800501D01*
X102847785Y-76759577D01*
X102918861Y-76718541D01*
X102984716Y-76680520D01*
X103096520Y-76568716D01*
X103096520Y-76568714D01*
X103106724Y-76558511D01*
X103106728Y-76558506D01*
X104666535Y-74998698D01*
X104727856Y-74965215D01*
X104740311Y-74963163D01*
X104827255Y-74953368D01*
X104997522Y-74893789D01*
X105150262Y-74797816D01*
X105231259Y-74716819D01*
X105292582Y-74683334D01*
X105318940Y-74680500D01*
X116069180Y-74680500D01*
X116136219Y-74700185D01*
X116181974Y-74752989D01*
X116191918Y-74822147D01*
X116162893Y-74885703D01*
X116110135Y-74921542D01*
X115982476Y-74966211D01*
X115829737Y-75062184D01*
X115702184Y-75189737D01*
X115606211Y-75342476D01*
X115546631Y-75512745D01*
X115546630Y-75512750D01*
X115526435Y-75691996D01*
X115526435Y-75692003D01*
X115546630Y-75871249D01*
X115546631Y-75871254D01*
X115606211Y-76041523D01*
X115693315Y-76180147D01*
X115702184Y-76194262D01*
X115829738Y-76321816D01*
X115982478Y-76417789D01*
X116152745Y-76477368D01*
X116152750Y-76477369D01*
X116331996Y-76497565D01*
X116332000Y-76497565D01*
X116332004Y-76497565D01*
X116511249Y-76477369D01*
X116511252Y-76477368D01*
X116511255Y-76477368D01*
X116681522Y-76417789D01*
X116834262Y-76321816D01*
X116961816Y-76194262D01*
X117023226Y-76096527D01*
X117075561Y-76050237D01*
X117128220Y-76038500D01*
X117994539Y-76038500D01*
X118061578Y-76058185D01*
X118107333Y-76110989D01*
X118117277Y-76180147D01*
X118111581Y-76203455D01*
X118086631Y-76274755D01*
X118086630Y-76274760D01*
X118066435Y-76454006D01*
X118066435Y-76454013D01*
X118086630Y-76633259D01*
X118086631Y-76633264D01*
X118146211Y-76803533D01*
X118192898Y-76877834D01*
X118242184Y-76956272D01*
X118369738Y-77083826D01*
X118522478Y-77179799D01*
X118690216Y-77238493D01*
X118692745Y-77239378D01*
X118692750Y-77239379D01*
X118871996Y-77259575D01*
X118872000Y-77259575D01*
X118872004Y-77259575D01*
X119051246Y-77239379D01*
X119051245Y-77239379D01*
X119051255Y-77239378D01*
X119085317Y-77227458D01*
X119126272Y-77220500D01*
X143170909Y-77220500D01*
X143237948Y-77240185D01*
X143283292Y-77292097D01*
X143285965Y-77297830D01*
X143421501Y-77491396D01*
X143421506Y-77491402D01*
X143588597Y-77658493D01*
X143588603Y-77658498D01*
X143774158Y-77788425D01*
X143817783Y-77843002D01*
X143824977Y-77912500D01*
X143793454Y-77974855D01*
X143774158Y-77991575D01*
X143613919Y-78103774D01*
X143547713Y-78126101D01*
X143479945Y-78109091D01*
X143455115Y-78089880D01*
X143235590Y-77870355D01*
X143235588Y-77870352D01*
X143116717Y-77751481D01*
X143116709Y-77751475D01*
X143014936Y-77692717D01*
X143014934Y-77692716D01*
X142979790Y-77672425D01*
X142979789Y-77672424D01*
X142967263Y-77669067D01*
X142827057Y-77631499D01*
X142668943Y-77631499D01*
X142661347Y-77631499D01*
X142661331Y-77631500D01*
X114374412Y-77631500D01*
X114307373Y-77611815D01*
X114297097Y-77604445D01*
X114294263Y-77602185D01*
X114294262Y-77602184D01*
X114220218Y-77555659D01*
X114141523Y-77506211D01*
X113971254Y-77446631D01*
X113971249Y-77446630D01*
X113792004Y-77426435D01*
X113791996Y-77426435D01*
X113612750Y-77446630D01*
X113612745Y-77446631D01*
X113442476Y-77506211D01*
X113289737Y-77602184D01*
X113162184Y-77729737D01*
X113066211Y-77882476D01*
X113006631Y-78052745D01*
X113006630Y-78052750D01*
X112986435Y-78231996D01*
X112986435Y-78232002D01*
X112991110Y-78273496D01*
X112979055Y-78342318D01*
X112931706Y-78393697D01*
X112899988Y-78407152D01*
X112798216Y-78434423D01*
X112798215Y-78434423D01*
X112798213Y-78434424D01*
X112798209Y-78434426D01*
X112661290Y-78513475D01*
X112661282Y-78513481D01*
X111694705Y-79480058D01*
X111633382Y-79513543D01*
X111574931Y-79512152D01*
X111478697Y-79486366D01*
X111478693Y-79486365D01*
X111478692Y-79486365D01*
X111478691Y-79486364D01*
X111478686Y-79486364D01*
X111252002Y-79466532D01*
X111251998Y-79466532D01*
X111025313Y-79486364D01*
X111025302Y-79486366D01*
X110805511Y-79545258D01*
X110805502Y-79545261D01*
X110599267Y-79641431D01*
X110599265Y-79641432D01*
X110412858Y-79771954D01*
X110251954Y-79932858D01*
X110121432Y-80119265D01*
X110121431Y-80119267D01*
X110094382Y-80177275D01*
X110048209Y-80229714D01*
X109981016Y-80248866D01*
X109914135Y-80228650D01*
X109869618Y-80177275D01*
X109842568Y-80119267D01*
X109842567Y-80119265D01*
X109781045Y-80031402D01*
X109712047Y-79932861D01*
X109712045Y-79932858D01*
X109551141Y-79771954D01*
X109364734Y-79641432D01*
X109364732Y-79641431D01*
X109158497Y-79545261D01*
X109158488Y-79545258D01*
X108938697Y-79486366D01*
X108938693Y-79486365D01*
X108938692Y-79486365D01*
X108938691Y-79486364D01*
X108938686Y-79486364D01*
X108712002Y-79466532D01*
X108711998Y-79466532D01*
X108485313Y-79486364D01*
X108485302Y-79486366D01*
X108265511Y-79545258D01*
X108265502Y-79545261D01*
X108059267Y-79641431D01*
X108059265Y-79641432D01*
X107872858Y-79771954D01*
X107711954Y-79932858D01*
X107581432Y-80119265D01*
X107581431Y-80119267D01*
X107554382Y-80177275D01*
X107508209Y-80229714D01*
X107441016Y-80248866D01*
X107374135Y-80228650D01*
X107329618Y-80177275D01*
X107302568Y-80119267D01*
X107302567Y-80119265D01*
X107241045Y-80031402D01*
X107172047Y-79932861D01*
X107172045Y-79932858D01*
X107011141Y-79771954D01*
X106824734Y-79641432D01*
X106824732Y-79641431D01*
X106618497Y-79545261D01*
X106618488Y-79545258D01*
X106398697Y-79486366D01*
X106398693Y-79486365D01*
X106398692Y-79486365D01*
X106398691Y-79486364D01*
X106398686Y-79486364D01*
X106172002Y-79466532D01*
X106171998Y-79466532D01*
X105945313Y-79486364D01*
X105945302Y-79486366D01*
X105725511Y-79545258D01*
X105725502Y-79545261D01*
X105519267Y-79641431D01*
X105519265Y-79641432D01*
X105332858Y-79771954D01*
X105171954Y-79932858D01*
X105041432Y-80119265D01*
X105041431Y-80119267D01*
X105014382Y-80177275D01*
X104968209Y-80229714D01*
X104901016Y-80248866D01*
X104834135Y-80228650D01*
X104789618Y-80177275D01*
X104762568Y-80119267D01*
X104762567Y-80119265D01*
X104701045Y-80031402D01*
X104632047Y-79932861D01*
X104632045Y-79932858D01*
X104471141Y-79771954D01*
X104284734Y-79641432D01*
X104284732Y-79641431D01*
X104078497Y-79545261D01*
X104078488Y-79545258D01*
X103858697Y-79486366D01*
X103858693Y-79486365D01*
X103858692Y-79486365D01*
X103858691Y-79486364D01*
X103858686Y-79486364D01*
X103632002Y-79466532D01*
X103631998Y-79466532D01*
X103405313Y-79486364D01*
X103405302Y-79486366D01*
X103185511Y-79545258D01*
X103185502Y-79545261D01*
X102979267Y-79641431D01*
X102979265Y-79641432D01*
X102792858Y-79771954D01*
X102631954Y-79932858D01*
X102501432Y-80119265D01*
X102501431Y-80119267D01*
X102474382Y-80177275D01*
X102428209Y-80229714D01*
X102361016Y-80248866D01*
X102294135Y-80228650D01*
X102249618Y-80177275D01*
X102222568Y-80119267D01*
X102222567Y-80119265D01*
X102161045Y-80031402D01*
X102092047Y-79932861D01*
X102092045Y-79932858D01*
X101931141Y-79771954D01*
X101744734Y-79641432D01*
X101744732Y-79641431D01*
X101538497Y-79545261D01*
X101538488Y-79545258D01*
X101318697Y-79486366D01*
X101318693Y-79486365D01*
X101318692Y-79486365D01*
X101318691Y-79486364D01*
X101318686Y-79486364D01*
X101092002Y-79466532D01*
X101091998Y-79466532D01*
X100865313Y-79486364D01*
X100865302Y-79486366D01*
X100645511Y-79545258D01*
X100645502Y-79545261D01*
X100439267Y-79641431D01*
X100439265Y-79641432D01*
X100252858Y-79771954D01*
X100091954Y-79932858D01*
X99961432Y-80119265D01*
X99961431Y-80119267D01*
X99934382Y-80177275D01*
X99888209Y-80229714D01*
X99821016Y-80248866D01*
X99754135Y-80228650D01*
X99709618Y-80177275D01*
X99682568Y-80119267D01*
X99682567Y-80119265D01*
X99621045Y-80031402D01*
X99552047Y-79932861D01*
X99552045Y-79932858D01*
X99391141Y-79771954D01*
X99204734Y-79641432D01*
X99204732Y-79641431D01*
X98998497Y-79545261D01*
X98998488Y-79545258D01*
X98778697Y-79486366D01*
X98778693Y-79486365D01*
X98778692Y-79486365D01*
X98778691Y-79486364D01*
X98778686Y-79486364D01*
X98552002Y-79466532D01*
X98551998Y-79466532D01*
X98325313Y-79486364D01*
X98325302Y-79486366D01*
X98220991Y-79514316D01*
X98151141Y-79512653D01*
X98093279Y-79473490D01*
X98065775Y-79409261D01*
X98077362Y-79340359D01*
X98101212Y-79306865D01*
X98165816Y-79242262D01*
X98261789Y-79089522D01*
X98321368Y-78919255D01*
X98341565Y-78740000D01*
X98336646Y-78696344D01*
X98321369Y-78560750D01*
X98321368Y-78560745D01*
X98304829Y-78513480D01*
X98261789Y-78390478D01*
X98165816Y-78237738D01*
X98038262Y-78110184D01*
X98028061Y-78103774D01*
X97885523Y-78014211D01*
X97715254Y-77954631D01*
X97715249Y-77954630D01*
X97536004Y-77934435D01*
X97535996Y-77934435D01*
X97356750Y-77954630D01*
X97356745Y-77954631D01*
X97186476Y-78014211D01*
X97033737Y-78110184D01*
X96906184Y-78237737D01*
X96810211Y-78390476D01*
X96780127Y-78476454D01*
X96739405Y-78533230D01*
X96674453Y-78558978D01*
X96663085Y-78559500D01*
X56829091Y-78559500D01*
X56762052Y-78539815D01*
X56716711Y-78487909D01*
X56714037Y-78482175D01*
X56714034Y-78482170D01*
X56714033Y-78482169D01*
X56578495Y-78288599D01*
X56578494Y-78288597D01*
X56411402Y-78121506D01*
X56411396Y-78121501D01*
X56225842Y-77991575D01*
X56182217Y-77936998D01*
X56175023Y-77867500D01*
X56206546Y-77805145D01*
X56225842Y-77788425D01*
X56278612Y-77751475D01*
X56411401Y-77658495D01*
X56578495Y-77491401D01*
X56714035Y-77297830D01*
X56813903Y-77083663D01*
X56875063Y-76855408D01*
X56895659Y-76620000D01*
X56875063Y-76384592D01*
X56813903Y-76156337D01*
X56714035Y-75942171D01*
X56708425Y-75934158D01*
X56578494Y-75748597D01*
X56411402Y-75581506D01*
X56411396Y-75581501D01*
X56225842Y-75451575D01*
X56182217Y-75396998D01*
X56175023Y-75327500D01*
X56206546Y-75265145D01*
X56225842Y-75248425D01*
X56248026Y-75232891D01*
X56411401Y-75118495D01*
X56578495Y-74951401D01*
X56714035Y-74757830D01*
X56813903Y-74543663D01*
X56875063Y-74315408D01*
X56895659Y-74080000D01*
X56875063Y-73844592D01*
X56813903Y-73616337D01*
X56714035Y-73402171D01*
X56714034Y-73402169D01*
X56578494Y-73208597D01*
X56411402Y-73041506D01*
X56411396Y-73041501D01*
X56225842Y-72911575D01*
X56182217Y-72856998D01*
X56175023Y-72787500D01*
X56206546Y-72725145D01*
X56225842Y-72708425D01*
X56284477Y-72667368D01*
X56411401Y-72578495D01*
X56578495Y-72411401D01*
X56714035Y-72217830D01*
X56716707Y-72212097D01*
X56762878Y-72159658D01*
X56829091Y-72140500D01*
X75966976Y-72140500D01*
X76034015Y-72160185D01*
G37*
%TD.AperFunction*%
%TA.AperFunction,Conductor*%
G36*
X78528075Y-73467007D02*
G01*
X78494000Y-73594174D01*
X78494000Y-73725826D01*
X78528075Y-73852993D01*
X78560988Y-73910000D01*
X76887012Y-73910000D01*
X76919925Y-73852993D01*
X76954000Y-73725826D01*
X76954000Y-73594174D01*
X76919925Y-73467007D01*
X76887012Y-73410000D01*
X78560988Y-73410000D01*
X78528075Y-73467007D01*
G37*
%TD.AperFunction*%
%TA.AperFunction,Conductor*%
G36*
X148942539Y-67020185D02*
G01*
X148988294Y-67072989D01*
X148999500Y-67124500D01*
X148999500Y-111375500D01*
X148979815Y-111442539D01*
X148927011Y-111488294D01*
X148875500Y-111499500D01*
X51124500Y-111499500D01*
X51057461Y-111479815D01*
X51011706Y-111427011D01*
X51000500Y-111375500D01*
X51000500Y-68999999D01*
X51644341Y-68999999D01*
X51644341Y-69000000D01*
X51664936Y-69235403D01*
X51664938Y-69235413D01*
X51726094Y-69463655D01*
X51726096Y-69463659D01*
X51726097Y-69463663D01*
X51730000Y-69472032D01*
X51825965Y-69677830D01*
X51825967Y-69677834D01*
X51934281Y-69832521D01*
X51961501Y-69871396D01*
X51961506Y-69871402D01*
X52128597Y-70038493D01*
X52128603Y-70038498D01*
X52314158Y-70168425D01*
X52357783Y-70223002D01*
X52364977Y-70292500D01*
X52333454Y-70354855D01*
X52314158Y-70371575D01*
X52128597Y-70501505D01*
X51961505Y-70668597D01*
X51825965Y-70862169D01*
X51825964Y-70862171D01*
X51726098Y-71076335D01*
X51726094Y-71076344D01*
X51664938Y-71304586D01*
X51664936Y-71304596D01*
X51644341Y-71539999D01*
X51644341Y-71540000D01*
X51664936Y-71775403D01*
X51664938Y-71775413D01*
X51726094Y-72003655D01*
X51726096Y-72003659D01*
X51726097Y-72003663D01*
X51806004Y-72175023D01*
X51825965Y-72217830D01*
X51825967Y-72217834D01*
X51871000Y-72282147D01*
X51961501Y-72411396D01*
X51961506Y-72411402D01*
X52128597Y-72578493D01*
X52128603Y-72578498D01*
X52314158Y-72708425D01*
X52357783Y-72763002D01*
X52364977Y-72832500D01*
X52333454Y-72894855D01*
X52314158Y-72911575D01*
X52128597Y-73041505D01*
X51961505Y-73208597D01*
X51825965Y-73402169D01*
X51825964Y-73402171D01*
X51726098Y-73616335D01*
X51726094Y-73616344D01*
X51664938Y-73844586D01*
X51664936Y-73844596D01*
X51644341Y-74079999D01*
X51644341Y-74080000D01*
X51664936Y-74315403D01*
X51664938Y-74315413D01*
X51726094Y-74543655D01*
X51726096Y-74543659D01*
X51726097Y-74543663D01*
X51790320Y-74681389D01*
X51825965Y-74757830D01*
X51825967Y-74757834D01*
X51900962Y-74864937D01*
X51961501Y-74951396D01*
X51961506Y-74951402D01*
X52128597Y-75118493D01*
X52128603Y-75118498D01*
X52314158Y-75248425D01*
X52357783Y-75303002D01*
X52364977Y-75372500D01*
X52333454Y-75434855D01*
X52314158Y-75451575D01*
X52128597Y-75581505D01*
X51961505Y-75748597D01*
X51825965Y-75942169D01*
X51825964Y-75942171D01*
X51726098Y-76156335D01*
X51726094Y-76156344D01*
X51664938Y-76384586D01*
X51664936Y-76384596D01*
X51644341Y-76619999D01*
X51644341Y-76620000D01*
X51664936Y-76855403D01*
X51664938Y-76855413D01*
X51726094Y-77083655D01*
X51726096Y-77083659D01*
X51726097Y-77083663D01*
X51798296Y-77238493D01*
X51825965Y-77297830D01*
X51825967Y-77297834D01*
X51902789Y-77407546D01*
X51961501Y-77491396D01*
X51961506Y-77491402D01*
X52128597Y-77658493D01*
X52128603Y-77658498D01*
X52314158Y-77788425D01*
X52357783Y-77843002D01*
X52364977Y-77912500D01*
X52333454Y-77974855D01*
X52314158Y-77991575D01*
X52128597Y-78121505D01*
X51961505Y-78288597D01*
X51825965Y-78482169D01*
X51825964Y-78482171D01*
X51726098Y-78696335D01*
X51726094Y-78696344D01*
X51664938Y-78924586D01*
X51664936Y-78924596D01*
X51644341Y-79159999D01*
X51644341Y-79160000D01*
X51664936Y-79395403D01*
X51664938Y-79395413D01*
X51726094Y-79623655D01*
X51726096Y-79623659D01*
X51726097Y-79623663D01*
X51796125Y-79773838D01*
X51825965Y-79837830D01*
X51825967Y-79837834D01*
X51908445Y-79955624D01*
X51961501Y-80031396D01*
X51961506Y-80031402D01*
X52128597Y-80198493D01*
X52128603Y-80198498D01*
X52314158Y-80328425D01*
X52357783Y-80383002D01*
X52364977Y-80452500D01*
X52333454Y-80514855D01*
X52314158Y-80531575D01*
X52128597Y-80661505D01*
X51961505Y-80828597D01*
X51825965Y-81022169D01*
X51825964Y-81022171D01*
X51726098Y-81236335D01*
X51726094Y-81236344D01*
X51664938Y-81464586D01*
X51664936Y-81464596D01*
X51644341Y-81699999D01*
X51644341Y-81700000D01*
X51664936Y-81935403D01*
X51664938Y-81935413D01*
X51726094Y-82163655D01*
X51726096Y-82163659D01*
X51726097Y-82163663D01*
X51743043Y-82200003D01*
X51825965Y-82377830D01*
X51825967Y-82377834D01*
X51961501Y-82571395D01*
X51961506Y-82571402D01*
X52128597Y-82738493D01*
X52128603Y-82738498D01*
X52314158Y-82868425D01*
X52357783Y-82923002D01*
X52364977Y-82992500D01*
X52333454Y-83054855D01*
X52314158Y-83071575D01*
X52128597Y-83201505D01*
X51961505Y-83368597D01*
X51825965Y-83562169D01*
X51825964Y-83562171D01*
X51726098Y-83776335D01*
X51726094Y-83776344D01*
X51664938Y-84004586D01*
X51664936Y-84004596D01*
X51644341Y-84239999D01*
X51644341Y-84240000D01*
X51664936Y-84475403D01*
X51664938Y-84475413D01*
X51726094Y-84703655D01*
X51726096Y-84703659D01*
X51726097Y-84703663D01*
X51758475Y-84773097D01*
X51825965Y-84917830D01*
X51825967Y-84917834D01*
X51916015Y-85046435D01*
X51961501Y-85111396D01*
X51961506Y-85111402D01*
X52128597Y-85278493D01*
X52128603Y-85278498D01*
X52314158Y-85408425D01*
X52357783Y-85463002D01*
X52364977Y-85532500D01*
X52333454Y-85594855D01*
X52314158Y-85611575D01*
X52128597Y-85741505D01*
X51961505Y-85908597D01*
X51825965Y-86102169D01*
X51825964Y-86102171D01*
X51726098Y-86316335D01*
X51726094Y-86316344D01*
X51664938Y-86544586D01*
X51664936Y-86544596D01*
X51644341Y-86779999D01*
X51644341Y-86780000D01*
X51664936Y-87015403D01*
X51664938Y-87015413D01*
X51726094Y-87243655D01*
X51726096Y-87243659D01*
X51726097Y-87243663D01*
X51795035Y-87391500D01*
X51825965Y-87457830D01*
X51825967Y-87457834D01*
X51906350Y-87572632D01*
X51961501Y-87651396D01*
X51961506Y-87651402D01*
X52128597Y-87818493D01*
X52128603Y-87818498D01*
X52314158Y-87948425D01*
X52357783Y-88003002D01*
X52364977Y-88072500D01*
X52333454Y-88134855D01*
X52314158Y-88151575D01*
X52128597Y-88281505D01*
X51961505Y-88448597D01*
X51825965Y-88642169D01*
X51825964Y-88642171D01*
X51726098Y-88856335D01*
X51726094Y-88856344D01*
X51664938Y-89084586D01*
X51664936Y-89084596D01*
X51644341Y-89319999D01*
X51644341Y-89320000D01*
X51664936Y-89555403D01*
X51664938Y-89555413D01*
X51726094Y-89783655D01*
X51726096Y-89783659D01*
X51726097Y-89783663D01*
X51806004Y-89955023D01*
X51825965Y-89997830D01*
X51825967Y-89997834D01*
X51904076Y-90109384D01*
X51961501Y-90191396D01*
X51961506Y-90191402D01*
X52128597Y-90358493D01*
X52128603Y-90358498D01*
X52314158Y-90488425D01*
X52357783Y-90543002D01*
X52364977Y-90612500D01*
X52333454Y-90674855D01*
X52314158Y-90691575D01*
X52128597Y-90821505D01*
X51961505Y-90988597D01*
X51825965Y-91182169D01*
X51825964Y-91182171D01*
X51726098Y-91396335D01*
X51726094Y-91396344D01*
X51664938Y-91624586D01*
X51664936Y-91624596D01*
X51644341Y-91859999D01*
X51644341Y-91860000D01*
X51664936Y-92095403D01*
X51664938Y-92095413D01*
X51726094Y-92323655D01*
X51726096Y-92323659D01*
X51726097Y-92323663D01*
X51786745Y-92453722D01*
X51825965Y-92537830D01*
X51825967Y-92537834D01*
X51900968Y-92644945D01*
X51961501Y-92731396D01*
X51961506Y-92731402D01*
X52128597Y-92898493D01*
X52128603Y-92898498D01*
X52314158Y-93028425D01*
X52357783Y-93083002D01*
X52364977Y-93152500D01*
X52333454Y-93214855D01*
X52314158Y-93231575D01*
X52128597Y-93361505D01*
X51961505Y-93528597D01*
X51825965Y-93722169D01*
X51825964Y-93722171D01*
X51726098Y-93936335D01*
X51726094Y-93936344D01*
X51664938Y-94164586D01*
X51664936Y-94164596D01*
X51644341Y-94399999D01*
X51644341Y-94400000D01*
X51664936Y-94635403D01*
X51664938Y-94635413D01*
X51726094Y-94863655D01*
X51726096Y-94863659D01*
X51726097Y-94863663D01*
X51806004Y-95035023D01*
X51825965Y-95077830D01*
X51825967Y-95077834D01*
X51886392Y-95164129D01*
X51961501Y-95271396D01*
X51961506Y-95271402D01*
X52128597Y-95438493D01*
X52128603Y-95438498D01*
X52314158Y-95568425D01*
X52357783Y-95623002D01*
X52364977Y-95692500D01*
X52333454Y-95754855D01*
X52314158Y-95771575D01*
X52128597Y-95901505D01*
X51961505Y-96068597D01*
X51825965Y-96262169D01*
X51825964Y-96262171D01*
X51726098Y-96476335D01*
X51726094Y-96476344D01*
X51664938Y-96704586D01*
X51664936Y-96704596D01*
X51644341Y-96939999D01*
X51644341Y-96940000D01*
X51664936Y-97175403D01*
X51664938Y-97175413D01*
X51726094Y-97403655D01*
X51726096Y-97403659D01*
X51726097Y-97403663D01*
X51730000Y-97412032D01*
X51825965Y-97617830D01*
X51825967Y-97617834D01*
X51961501Y-97811395D01*
X51961506Y-97811402D01*
X52128597Y-97978493D01*
X52128603Y-97978498D01*
X52314158Y-98108425D01*
X52357783Y-98163002D01*
X52364977Y-98232500D01*
X52333454Y-98294855D01*
X52314158Y-98311575D01*
X52128597Y-98441505D01*
X51961505Y-98608597D01*
X51825965Y-98802169D01*
X51825964Y-98802171D01*
X51726098Y-99016335D01*
X51726094Y-99016344D01*
X51664938Y-99244586D01*
X51664936Y-99244596D01*
X51644341Y-99479999D01*
X51644341Y-99480000D01*
X51664936Y-99715403D01*
X51664938Y-99715413D01*
X51726094Y-99943655D01*
X51726096Y-99943659D01*
X51726097Y-99943663D01*
X51820703Y-100146546D01*
X51825965Y-100157830D01*
X51825967Y-100157834D01*
X51904157Y-100269500D01*
X51961501Y-100351396D01*
X51961506Y-100351402D01*
X52128597Y-100518493D01*
X52128603Y-100518498D01*
X52314158Y-100648425D01*
X52357783Y-100703002D01*
X52364977Y-100772500D01*
X52333454Y-100834855D01*
X52314158Y-100851575D01*
X52128597Y-100981505D01*
X51961505Y-101148597D01*
X51825965Y-101342169D01*
X51825964Y-101342171D01*
X51726098Y-101556335D01*
X51726094Y-101556344D01*
X51664938Y-101784586D01*
X51664936Y-101784596D01*
X51644341Y-102019999D01*
X51644341Y-102020000D01*
X51664936Y-102255403D01*
X51664938Y-102255413D01*
X51726094Y-102483655D01*
X51726096Y-102483659D01*
X51726097Y-102483663D01*
X51823708Y-102692989D01*
X51825965Y-102697830D01*
X51825967Y-102697834D01*
X51961501Y-102891395D01*
X51961506Y-102891402D01*
X52128597Y-103058493D01*
X52128603Y-103058498D01*
X52314158Y-103188425D01*
X52357783Y-103243002D01*
X52364977Y-103312500D01*
X52333454Y-103374855D01*
X52314158Y-103391575D01*
X52128597Y-103521505D01*
X51961505Y-103688597D01*
X51825965Y-103882169D01*
X51825964Y-103882171D01*
X51726098Y-104096335D01*
X51726094Y-104096344D01*
X51664938Y-104324586D01*
X51664936Y-104324596D01*
X51644341Y-104559999D01*
X51644341Y-104560000D01*
X51664936Y-104795403D01*
X51664938Y-104795413D01*
X51726094Y-105023655D01*
X51726096Y-105023659D01*
X51726097Y-105023663D01*
X51825965Y-105237830D01*
X51825967Y-105237834D01*
X51904157Y-105349500D01*
X51953072Y-105419358D01*
X51961501Y-105431395D01*
X51961506Y-105431402D01*
X52128597Y-105598493D01*
X52128603Y-105598498D01*
X52314158Y-105728425D01*
X52357783Y-105783002D01*
X52364977Y-105852500D01*
X52333454Y-105914855D01*
X52314158Y-105931575D01*
X52128597Y-106061505D01*
X51961505Y-106228597D01*
X51825965Y-106422169D01*
X51825964Y-106422171D01*
X51726098Y-106636335D01*
X51726094Y-106636344D01*
X51664938Y-106864586D01*
X51664936Y-106864596D01*
X51644341Y-107099999D01*
X51644341Y-107100000D01*
X51664936Y-107335403D01*
X51664938Y-107335413D01*
X51726094Y-107563655D01*
X51726096Y-107563659D01*
X51726097Y-107563663D01*
X51789906Y-107700501D01*
X51825965Y-107777830D01*
X51825967Y-107777834D01*
X51934281Y-107932521D01*
X51961501Y-107971396D01*
X51961506Y-107971402D01*
X52083818Y-108093714D01*
X52117303Y-108155037D01*
X52112319Y-108224729D01*
X52070447Y-108280662D01*
X52039471Y-108297577D01*
X51907912Y-108346646D01*
X51907906Y-108346649D01*
X51792812Y-108432809D01*
X51792809Y-108432812D01*
X51706649Y-108547906D01*
X51706645Y-108547913D01*
X51656403Y-108682620D01*
X51656401Y-108682627D01*
X51650000Y-108742155D01*
X51650000Y-109390000D01*
X52566988Y-109390000D01*
X52534075Y-109447007D01*
X52500000Y-109574174D01*
X52500000Y-109705826D01*
X52534075Y-109832993D01*
X52566988Y-109890000D01*
X51650000Y-109890000D01*
X51650000Y-110537844D01*
X51656401Y-110597372D01*
X51656403Y-110597379D01*
X51706645Y-110732086D01*
X51706649Y-110732093D01*
X51792809Y-110847187D01*
X51792812Y-110847190D01*
X51907906Y-110933350D01*
X51907913Y-110933354D01*
X52042620Y-110983596D01*
X52042627Y-110983598D01*
X52102155Y-110989999D01*
X52102172Y-110990000D01*
X52750000Y-110990000D01*
X52750000Y-110073012D01*
X52807007Y-110105925D01*
X52934174Y-110140000D01*
X53065826Y-110140000D01*
X53192993Y-110105925D01*
X53250000Y-110073012D01*
X53250000Y-110990000D01*
X53897828Y-110990000D01*
X53897844Y-110989999D01*
X53957372Y-110983598D01*
X53957379Y-110983596D01*
X54092086Y-110933354D01*
X54092093Y-110933350D01*
X54207187Y-110847190D01*
X54207190Y-110847187D01*
X54293350Y-110732093D01*
X54293354Y-110732086D01*
X54342614Y-110600013D01*
X54384485Y-110544079D01*
X54449949Y-110519662D01*
X54518222Y-110534513D01*
X54546477Y-110555665D01*
X54668917Y-110678105D01*
X54862421Y-110813600D01*
X55076507Y-110913429D01*
X55076516Y-110913433D01*
X55290000Y-110970634D01*
X55290000Y-110073012D01*
X55347007Y-110105925D01*
X55474174Y-110140000D01*
X55605826Y-110140000D01*
X55732993Y-110105925D01*
X55790000Y-110073012D01*
X55790000Y-110970633D01*
X56003483Y-110913433D01*
X56003492Y-110913429D01*
X56217578Y-110813600D01*
X56411082Y-110678105D01*
X56578105Y-110511082D01*
X56713600Y-110317578D01*
X56813429Y-110103492D01*
X56813432Y-110103486D01*
X56870636Y-109890000D01*
X55973012Y-109890000D01*
X56005925Y-109832993D01*
X56040000Y-109705826D01*
X56040000Y-109574174D01*
X56005925Y-109447007D01*
X55973012Y-109390000D01*
X56870636Y-109390000D01*
X56870635Y-109389999D01*
X56813432Y-109176513D01*
X56813429Y-109176507D01*
X56713600Y-108962422D01*
X56713599Y-108962420D01*
X56578113Y-108768926D01*
X56578108Y-108768920D01*
X56411078Y-108601890D01*
X56225405Y-108471879D01*
X56181780Y-108417302D01*
X56174588Y-108347804D01*
X56206110Y-108285449D01*
X56225406Y-108268730D01*
X56337500Y-108190241D01*
X56411401Y-108138495D01*
X56578495Y-107971401D01*
X56714035Y-107777830D01*
X56716707Y-107772097D01*
X56762878Y-107719658D01*
X56829091Y-107700500D01*
X93219331Y-107700500D01*
X93219347Y-107700501D01*
X93226943Y-107700501D01*
X93385054Y-107700501D01*
X93385057Y-107700501D01*
X93537785Y-107659577D01*
X93587904Y-107630639D01*
X93674716Y-107580520D01*
X93744536Y-107510698D01*
X93805857Y-107477215D01*
X93818313Y-107475163D01*
X93905255Y-107465368D01*
X94075522Y-107405789D01*
X94228262Y-107309816D01*
X94355816Y-107182262D01*
X94451789Y-107029522D01*
X94511368Y-106859255D01*
X94523143Y-106754750D01*
X94531565Y-106680003D01*
X94531565Y-106679996D01*
X94511369Y-106500750D01*
X94511368Y-106500745D01*
X94485567Y-106427011D01*
X94451789Y-106330478D01*
X94446973Y-106322814D01*
X94355815Y-106177737D01*
X94228262Y-106050184D01*
X94075523Y-105954211D01*
X93905254Y-105894631D01*
X93905249Y-105894630D01*
X93726004Y-105874435D01*
X93725996Y-105874435D01*
X93546750Y-105894630D01*
X93546745Y-105894631D01*
X93376476Y-105954211D01*
X93223737Y-106050184D01*
X93096184Y-106177737D01*
X93000211Y-106330476D01*
X92970127Y-106416454D01*
X92929405Y-106473230D01*
X92864453Y-106498978D01*
X92853085Y-106499500D01*
X91856660Y-106499500D01*
X91789621Y-106479815D01*
X91743866Y-106427011D01*
X91733440Y-106389383D01*
X91717369Y-106246750D01*
X91717368Y-106246745D01*
X91681251Y-106143528D01*
X91657789Y-106076478D01*
X91648381Y-106061506D01*
X91561815Y-105923737D01*
X91434262Y-105796184D01*
X91281521Y-105700210D01*
X91111249Y-105640630D01*
X91024332Y-105630837D01*
X90959918Y-105603770D01*
X90950535Y-105595298D01*
X90936523Y-105581286D01*
X90936520Y-105581284D01*
X90824717Y-105469481D01*
X90824716Y-105469480D01*
X90737904Y-105419360D01*
X90737904Y-105419359D01*
X90737900Y-105419358D01*
X90687785Y-105390423D01*
X90535057Y-105349499D01*
X90376943Y-105349499D01*
X90369347Y-105349499D01*
X90369331Y-105349500D01*
X89512267Y-105349500D01*
X89445228Y-105329815D01*
X89399473Y-105277011D01*
X89389529Y-105207853D01*
X89395226Y-105184545D01*
X89431366Y-105081262D01*
X89431369Y-105081249D01*
X89451565Y-104902003D01*
X89451565Y-104901996D01*
X89431369Y-104722750D01*
X89431368Y-104722745D01*
X89405215Y-104648003D01*
X89371789Y-104552478D01*
X89275816Y-104399738D01*
X89148262Y-104272184D01*
X88995521Y-104176210D01*
X88825249Y-104116630D01*
X88737467Y-104106740D01*
X88679792Y-104083478D01*
X88679755Y-104083544D01*
X88679291Y-104083276D01*
X88675859Y-104081892D01*
X88672716Y-104079480D01*
X88585904Y-104029360D01*
X88585904Y-104029359D01*
X88585900Y-104029358D01*
X88535785Y-104000423D01*
X88383057Y-103959499D01*
X88224943Y-103959499D01*
X88217347Y-103959499D01*
X88217331Y-103959500D01*
X86505023Y-103959500D01*
X86437984Y-103939815D01*
X86392229Y-103887011D01*
X86382285Y-103817853D01*
X86383149Y-103813198D01*
X86403565Y-103632003D01*
X86403565Y-103631996D01*
X86383369Y-103452750D01*
X86383368Y-103452745D01*
X86323788Y-103282476D01*
X86275197Y-103205145D01*
X86227816Y-103129738D01*
X86100262Y-103002184D01*
X85947523Y-102906211D01*
X85777254Y-102846631D01*
X85777249Y-102846630D01*
X85598004Y-102826435D01*
X85597999Y-102826435D01*
X85565173Y-102830132D01*
X85519203Y-102826686D01*
X85455058Y-102809499D01*
X85455057Y-102809499D01*
X85296943Y-102809499D01*
X85289347Y-102809499D01*
X85289331Y-102809500D01*
X83786417Y-102809500D01*
X83719378Y-102789815D01*
X83673623Y-102737011D01*
X83663679Y-102667853D01*
X83685617Y-102617104D01*
X83684111Y-102616158D01*
X83687816Y-102610262D01*
X83783789Y-102457522D01*
X83843368Y-102287255D01*
X83846956Y-102255413D01*
X83863565Y-102108003D01*
X83863565Y-102107996D01*
X83843369Y-101928750D01*
X83843368Y-101928745D01*
X83792928Y-101784596D01*
X83783789Y-101758478D01*
X83687816Y-101605738D01*
X83560262Y-101478184D01*
X83407523Y-101382211D01*
X83237254Y-101322631D01*
X83237249Y-101322630D01*
X83058004Y-101302435D01*
X83057996Y-101302435D01*
X82878750Y-101322630D01*
X82878745Y-101322631D01*
X82708475Y-101382211D01*
X82679382Y-101400493D01*
X82613409Y-101419500D01*
X81679023Y-101419500D01*
X81611984Y-101399815D01*
X81566229Y-101347011D01*
X81556285Y-101277853D01*
X81557149Y-101273198D01*
X81577565Y-101092003D01*
X81577565Y-101091996D01*
X81557369Y-100912750D01*
X81557368Y-100912745D01*
X81516866Y-100796998D01*
X81497789Y-100742478D01*
X81401816Y-100589738D01*
X81274262Y-100462184D01*
X81121523Y-100366211D01*
X80951254Y-100306631D01*
X80951249Y-100306630D01*
X80772004Y-100286435D01*
X80771996Y-100286435D01*
X80592751Y-100306630D01*
X80585959Y-100308181D01*
X80585566Y-100306462D01*
X80524756Y-100309564D01*
X80521507Y-100308741D01*
X80375057Y-100269499D01*
X80216943Y-100269499D01*
X80209347Y-100269499D01*
X80209331Y-100269500D01*
X78646353Y-100269500D01*
X78579314Y-100249815D01*
X78533559Y-100197011D01*
X78523615Y-100127853D01*
X78552640Y-100064297D01*
X78580381Y-100040506D01*
X78589290Y-100034907D01*
X78734262Y-99943816D01*
X78861816Y-99816262D01*
X78957789Y-99663522D01*
X79017368Y-99493255D01*
X79017369Y-99493249D01*
X79037565Y-99314003D01*
X79037565Y-99313996D01*
X79017369Y-99134750D01*
X79017368Y-99134745D01*
X78991215Y-99060003D01*
X78957789Y-98964478D01*
X78861816Y-98811738D01*
X78734262Y-98684184D01*
X78581523Y-98588211D01*
X78411254Y-98528631D01*
X78411249Y-98528630D01*
X78232004Y-98508435D01*
X78231996Y-98508435D01*
X78052750Y-98528630D01*
X78052745Y-98528631D01*
X77882476Y-98588211D01*
X77729737Y-98684184D01*
X77602184Y-98811737D01*
X77506210Y-98964478D01*
X77446630Y-99134750D01*
X77436837Y-99221668D01*
X77409770Y-99286082D01*
X77401298Y-99295465D01*
X77003584Y-99693181D01*
X76942261Y-99726666D01*
X76915903Y-99729500D01*
X76695095Y-99729500D01*
X76628056Y-99709815D01*
X76582301Y-99657011D01*
X76572357Y-99587853D01*
X76590101Y-99539528D01*
X76671788Y-99409523D01*
X76671789Y-99409522D01*
X76731368Y-99239255D01*
X76743143Y-99134750D01*
X76751565Y-99060003D01*
X76751565Y-99059996D01*
X76731369Y-98880750D01*
X76731368Y-98880745D01*
X76671788Y-98710476D01*
X76575815Y-98557737D01*
X76448262Y-98430184D01*
X76295523Y-98334211D01*
X76125254Y-98274631D01*
X76125249Y-98274630D01*
X75946004Y-98254435D01*
X75945996Y-98254435D01*
X75766750Y-98274630D01*
X75766745Y-98274631D01*
X75596476Y-98334211D01*
X75443736Y-98430185D01*
X75440903Y-98432445D01*
X75438724Y-98433334D01*
X75437842Y-98433889D01*
X75437744Y-98433734D01*
X75376217Y-98458855D01*
X75363588Y-98459500D01*
X73198098Y-98459500D01*
X73131059Y-98439815D01*
X73110417Y-98423181D01*
X72623590Y-97936355D01*
X72623588Y-97936352D01*
X72504717Y-97817481D01*
X72504716Y-97817480D01*
X72417904Y-97767360D01*
X72417904Y-97767359D01*
X72417900Y-97767358D01*
X72367785Y-97738423D01*
X72215057Y-97697499D01*
X72056943Y-97697499D01*
X72049347Y-97697499D01*
X72049331Y-97697500D01*
X56871525Y-97697500D01*
X56804486Y-97677815D01*
X56758731Y-97625011D01*
X56748787Y-97555853D01*
X56759143Y-97521095D01*
X56813903Y-97403663D01*
X56875063Y-97175408D01*
X56895659Y-96940000D01*
X56875063Y-96704592D01*
X56813903Y-96476337D01*
X56714035Y-96262171D01*
X56713916Y-96262000D01*
X56578494Y-96068597D01*
X56411402Y-95901506D01*
X56411396Y-95901501D01*
X56225842Y-95771575D01*
X56218188Y-95761999D01*
X71873127Y-95761999D01*
X71873128Y-95762000D01*
X72836314Y-95762000D01*
X72831920Y-95766394D01*
X72779259Y-95857606D01*
X72752000Y-95959339D01*
X72752000Y-96064661D01*
X72779259Y-96166394D01*
X72831920Y-96257606D01*
X72836314Y-96262000D01*
X71873128Y-96262000D01*
X71925730Y-96458317D01*
X71925734Y-96458326D01*
X72021865Y-96664482D01*
X72152342Y-96850820D01*
X72313179Y-97011657D01*
X72499517Y-97142134D01*
X72705673Y-97238265D01*
X72705682Y-97238269D01*
X72901999Y-97290872D01*
X72902000Y-97290871D01*
X72902000Y-96327686D01*
X72906394Y-96332080D01*
X72997606Y-96384741D01*
X73099339Y-96412000D01*
X73204661Y-96412000D01*
X73306394Y-96384741D01*
X73397606Y-96332080D01*
X73402000Y-96327686D01*
X73402000Y-97290872D01*
X73598317Y-97238269D01*
X73598326Y-97238265D01*
X73804482Y-97142134D01*
X73990820Y-97011657D01*
X74151657Y-96850820D01*
X74282132Y-96664484D01*
X74309341Y-96606134D01*
X74355513Y-96553695D01*
X74422707Y-96534542D01*
X74489588Y-96554757D01*
X74534106Y-96606133D01*
X74561431Y-96664732D01*
X74561432Y-96664734D01*
X74691954Y-96851141D01*
X74852858Y-97012045D01*
X74852861Y-97012047D01*
X75039266Y-97142568D01*
X75245504Y-97238739D01*
X75465308Y-97297635D01*
X75627230Y-97311801D01*
X75691998Y-97317468D01*
X75692000Y-97317468D01*
X75692002Y-97317468D01*
X75748807Y-97312498D01*
X75918692Y-97297635D01*
X76138496Y-97238739D01*
X76344734Y-97142568D01*
X76531139Y-97012047D01*
X76692047Y-96851139D01*
X76822568Y-96664734D01*
X76849618Y-96606724D01*
X76895790Y-96554285D01*
X76962983Y-96535133D01*
X77029865Y-96555348D01*
X77074382Y-96606725D01*
X77101429Y-96664728D01*
X77101432Y-96664734D01*
X77231954Y-96851141D01*
X77392858Y-97012045D01*
X77392861Y-97012047D01*
X77579266Y-97142568D01*
X77785504Y-97238739D01*
X78005308Y-97297635D01*
X78167230Y-97311801D01*
X78231998Y-97317468D01*
X78232000Y-97317468D01*
X78232002Y-97317468D01*
X78288807Y-97312498D01*
X78458692Y-97297635D01*
X78678496Y-97238739D01*
X78884734Y-97142568D01*
X79071139Y-97012047D01*
X79232047Y-96851139D01*
X79362568Y-96664734D01*
X79389618Y-96606724D01*
X79435790Y-96554285D01*
X79502983Y-96535133D01*
X79569865Y-96555348D01*
X79614382Y-96606725D01*
X79641429Y-96664728D01*
X79641432Y-96664734D01*
X79771954Y-96851141D01*
X79932858Y-97012045D01*
X79932861Y-97012047D01*
X80119266Y-97142568D01*
X80325504Y-97238739D01*
X80545308Y-97297635D01*
X80707230Y-97311801D01*
X80771998Y-97317468D01*
X80772000Y-97317468D01*
X80772002Y-97317468D01*
X80828807Y-97312498D01*
X80998692Y-97297635D01*
X81218496Y-97238739D01*
X81424734Y-97142568D01*
X81611139Y-97012047D01*
X81772047Y-96851139D01*
X81902568Y-96664734D01*
X81929618Y-96606724D01*
X81975790Y-96554285D01*
X82042983Y-96535133D01*
X82109865Y-96555348D01*
X82154382Y-96606725D01*
X82181429Y-96664728D01*
X82181432Y-96664734D01*
X82311954Y-96851141D01*
X82472858Y-97012045D01*
X82472861Y-97012047D01*
X82659266Y-97142568D01*
X82865504Y-97238739D01*
X83085308Y-97297635D01*
X83247230Y-97311801D01*
X83311998Y-97317468D01*
X83312000Y-97317468D01*
X83312002Y-97317468D01*
X83368807Y-97312498D01*
X83538692Y-97297635D01*
X83758496Y-97238739D01*
X83964734Y-97142568D01*
X84151139Y-97012047D01*
X84312047Y-96851139D01*
X84442568Y-96664734D01*
X84469618Y-96606724D01*
X84515790Y-96554285D01*
X84582983Y-96535133D01*
X84649865Y-96555348D01*
X84694382Y-96606725D01*
X84721429Y-96664728D01*
X84721432Y-96664734D01*
X84851954Y-96851141D01*
X85012858Y-97012045D01*
X85012861Y-97012047D01*
X85199266Y-97142568D01*
X85405504Y-97238739D01*
X85625308Y-97297635D01*
X85787230Y-97311801D01*
X85851998Y-97317468D01*
X85852000Y-97317468D01*
X85852002Y-97317468D01*
X85908807Y-97312498D01*
X86078692Y-97297635D01*
X86298496Y-97238739D01*
X86504734Y-97142568D01*
X86691139Y-97012047D01*
X86852047Y-96851139D01*
X86982568Y-96664734D01*
X87009618Y-96606724D01*
X87055790Y-96554285D01*
X87122983Y-96535133D01*
X87189865Y-96555348D01*
X87234382Y-96606725D01*
X87261429Y-96664728D01*
X87261432Y-96664734D01*
X87391954Y-96851141D01*
X87552858Y-97012045D01*
X87552861Y-97012047D01*
X87739266Y-97142568D01*
X87945504Y-97238739D01*
X88165308Y-97297635D01*
X88327230Y-97311801D01*
X88391998Y-97317468D01*
X88392000Y-97317468D01*
X88392002Y-97317468D01*
X88448807Y-97312498D01*
X88618692Y-97297635D01*
X88838496Y-97238739D01*
X89044734Y-97142568D01*
X89231139Y-97012047D01*
X89392047Y-96851139D01*
X89522568Y-96664734D01*
X89549618Y-96606724D01*
X89595790Y-96554285D01*
X89662983Y-96535133D01*
X89729865Y-96555348D01*
X89774382Y-96606725D01*
X89801429Y-96664728D01*
X89801432Y-96664734D01*
X89931954Y-96851141D01*
X90092858Y-97012045D01*
X90092861Y-97012047D01*
X90279266Y-97142568D01*
X90485504Y-97238739D01*
X90705308Y-97297635D01*
X90867230Y-97311801D01*
X90931998Y-97317468D01*
X90932000Y-97317468D01*
X90932002Y-97317468D01*
X90988807Y-97312498D01*
X91158692Y-97297635D01*
X91378496Y-97238739D01*
X91584734Y-97142568D01*
X91771139Y-97012047D01*
X91932047Y-96851139D01*
X92062568Y-96664734D01*
X92089618Y-96606724D01*
X92135790Y-96554285D01*
X92202983Y-96535133D01*
X92269865Y-96555348D01*
X92314382Y-96606725D01*
X92341429Y-96664728D01*
X92341432Y-96664734D01*
X92471954Y-96851141D01*
X92632858Y-97012045D01*
X92632861Y-97012047D01*
X92819266Y-97142568D01*
X93025504Y-97238739D01*
X93245308Y-97297635D01*
X93407230Y-97311801D01*
X93471998Y-97317468D01*
X93472000Y-97317468D01*
X93472002Y-97317468D01*
X93528807Y-97312498D01*
X93698692Y-97297635D01*
X93918496Y-97238739D01*
X94124734Y-97142568D01*
X94311139Y-97012047D01*
X94472047Y-96851139D01*
X94602568Y-96664734D01*
X94629618Y-96606724D01*
X94675790Y-96554285D01*
X94742983Y-96535133D01*
X94809865Y-96555348D01*
X94854382Y-96606725D01*
X94881429Y-96664728D01*
X94881432Y-96664734D01*
X95011954Y-96851141D01*
X95172858Y-97012045D01*
X95172861Y-97012047D01*
X95359266Y-97142568D01*
X95565504Y-97238739D01*
X95785308Y-97297635D01*
X95947230Y-97311801D01*
X96011998Y-97317468D01*
X96012000Y-97317468D01*
X96012002Y-97317468D01*
X96068807Y-97312498D01*
X96238692Y-97297635D01*
X96458496Y-97238739D01*
X96664734Y-97142568D01*
X96851139Y-97012047D01*
X97012047Y-96851139D01*
X97142568Y-96664734D01*
X97169618Y-96606724D01*
X97215790Y-96554285D01*
X97282983Y-96535133D01*
X97349865Y-96555348D01*
X97394382Y-96606725D01*
X97421429Y-96664728D01*
X97421432Y-96664734D01*
X97551954Y-96851141D01*
X97712858Y-97012045D01*
X97712861Y-97012047D01*
X97899266Y-97142568D01*
X98105504Y-97238739D01*
X98325308Y-97297635D01*
X98487230Y-97311801D01*
X98551998Y-97317468D01*
X98552000Y-97317468D01*
X98552002Y-97317468D01*
X98608807Y-97312498D01*
X98778692Y-97297635D01*
X98998496Y-97238739D01*
X99204734Y-97142568D01*
X99391139Y-97012047D01*
X99552047Y-96851139D01*
X99682568Y-96664734D01*
X99709618Y-96606724D01*
X99755790Y-96554285D01*
X99822983Y-96535133D01*
X99889865Y-96555348D01*
X99934382Y-96606725D01*
X99961429Y-96664728D01*
X99961432Y-96664734D01*
X100091954Y-96851141D01*
X100252858Y-97012045D01*
X100252861Y-97012047D01*
X100439266Y-97142568D01*
X100645504Y-97238739D01*
X100865308Y-97297635D01*
X101027230Y-97311801D01*
X101091998Y-97317468D01*
X101092000Y-97317468D01*
X101092002Y-97317468D01*
X101148807Y-97312498D01*
X101318692Y-97297635D01*
X101538496Y-97238739D01*
X101744734Y-97142568D01*
X101931139Y-97012047D01*
X102092047Y-96851139D01*
X102222568Y-96664734D01*
X102249618Y-96606724D01*
X102295790Y-96554285D01*
X102362983Y-96535133D01*
X102429865Y-96555348D01*
X102474382Y-96606725D01*
X102501429Y-96664728D01*
X102501432Y-96664734D01*
X102631954Y-96851141D01*
X102792858Y-97012045D01*
X102792861Y-97012047D01*
X102979266Y-97142568D01*
X103185504Y-97238739D01*
X103405308Y-97297635D01*
X103567230Y-97311801D01*
X103631998Y-97317468D01*
X103632000Y-97317468D01*
X103632002Y-97317468D01*
X103688807Y-97312498D01*
X103858692Y-97297635D01*
X104078496Y-97238739D01*
X104284734Y-97142568D01*
X104471139Y-97012047D01*
X104632047Y-96851139D01*
X104762568Y-96664734D01*
X104789618Y-96606724D01*
X104835790Y-96554285D01*
X104902983Y-96535133D01*
X104969865Y-96555348D01*
X105014382Y-96606725D01*
X105041429Y-96664728D01*
X105041432Y-96664734D01*
X105171954Y-96851141D01*
X105332858Y-97012045D01*
X105332861Y-97012047D01*
X105519266Y-97142568D01*
X105725504Y-97238739D01*
X105945308Y-97297635D01*
X106107230Y-97311801D01*
X106171998Y-97317468D01*
X106172000Y-97317468D01*
X106172002Y-97317468D01*
X106228807Y-97312498D01*
X106398692Y-97297635D01*
X106618496Y-97238739D01*
X106824734Y-97142568D01*
X107011139Y-97012047D01*
X107172047Y-96851139D01*
X107302568Y-96664734D01*
X107329618Y-96606724D01*
X107375790Y-96554285D01*
X107442983Y-96535133D01*
X107509865Y-96555348D01*
X107554382Y-96606725D01*
X107581429Y-96664728D01*
X107581432Y-96664734D01*
X107711954Y-96851141D01*
X107872858Y-97012045D01*
X107872861Y-97012047D01*
X108059266Y-97142568D01*
X108265504Y-97238739D01*
X108485308Y-97297635D01*
X108647230Y-97311801D01*
X108711998Y-97317468D01*
X108712000Y-97317468D01*
X108712002Y-97317468D01*
X108768807Y-97312498D01*
X108938692Y-97297635D01*
X109158496Y-97238739D01*
X109364734Y-97142568D01*
X109551139Y-97012047D01*
X109712047Y-96851139D01*
X109842568Y-96664734D01*
X109869618Y-96606724D01*
X109915790Y-96554285D01*
X109982983Y-96535133D01*
X110049865Y-96555348D01*
X110094382Y-96606725D01*
X110121429Y-96664728D01*
X110121432Y-96664734D01*
X110251954Y-96851141D01*
X110412858Y-97012045D01*
X110412861Y-97012047D01*
X110599266Y-97142568D01*
X110805504Y-97238739D01*
X111025308Y-97297635D01*
X111187230Y-97311801D01*
X111251998Y-97317468D01*
X111252000Y-97317468D01*
X111252002Y-97317468D01*
X111308807Y-97312498D01*
X111478692Y-97297635D01*
X111698496Y-97238739D01*
X111904734Y-97142568D01*
X112091139Y-97012047D01*
X112252047Y-96851139D01*
X112382568Y-96664734D01*
X112409618Y-96606724D01*
X112455790Y-96554285D01*
X112522983Y-96535133D01*
X112589865Y-96555348D01*
X112634382Y-96606725D01*
X112661429Y-96664728D01*
X112661432Y-96664734D01*
X112791954Y-96851141D01*
X112952858Y-97012045D01*
X112952861Y-97012047D01*
X113139266Y-97142568D01*
X113345504Y-97238739D01*
X113565308Y-97297635D01*
X113727230Y-97311801D01*
X113791998Y-97317468D01*
X113792000Y-97317468D01*
X113792002Y-97317468D01*
X113848807Y-97312498D01*
X114018692Y-97297635D01*
X114238496Y-97238739D01*
X114444734Y-97142568D01*
X114631139Y-97012047D01*
X114792047Y-96851139D01*
X114922568Y-96664734D01*
X114949618Y-96606724D01*
X114995790Y-96554285D01*
X115062983Y-96535133D01*
X115129865Y-96555348D01*
X115174382Y-96606725D01*
X115201429Y-96664728D01*
X115201432Y-96664734D01*
X115331954Y-96851141D01*
X115492858Y-97012045D01*
X115492861Y-97012047D01*
X115679266Y-97142568D01*
X115885504Y-97238739D01*
X116105308Y-97297635D01*
X116267230Y-97311801D01*
X116331998Y-97317468D01*
X116332000Y-97317468D01*
X116332002Y-97317468D01*
X116388807Y-97312498D01*
X116558692Y-97297635D01*
X116778496Y-97238739D01*
X116984734Y-97142568D01*
X117171139Y-97012047D01*
X117332047Y-96851139D01*
X117462568Y-96664734D01*
X117489618Y-96606724D01*
X117535790Y-96554285D01*
X117602983Y-96535133D01*
X117669865Y-96555348D01*
X117714382Y-96606725D01*
X117741429Y-96664728D01*
X117741432Y-96664734D01*
X117871954Y-96851141D01*
X118032858Y-97012045D01*
X118032861Y-97012047D01*
X118219266Y-97142568D01*
X118425504Y-97238739D01*
X118645308Y-97297635D01*
X118807230Y-97311801D01*
X118871998Y-97317468D01*
X118872000Y-97317468D01*
X118872002Y-97317468D01*
X118928807Y-97312498D01*
X119098692Y-97297635D01*
X119318496Y-97238739D01*
X119524734Y-97142568D01*
X119711139Y-97012047D01*
X119872047Y-96851139D01*
X119889272Y-96826539D01*
X119943848Y-96782913D01*
X120013346Y-96775718D01*
X120075701Y-96807239D01*
X120111116Y-96867468D01*
X120114138Y-96884406D01*
X120117908Y-96919483D01*
X120168202Y-97054328D01*
X120168206Y-97054335D01*
X120254452Y-97169544D01*
X120254455Y-97169547D01*
X120369664Y-97255793D01*
X120369671Y-97255797D01*
X120504517Y-97306091D01*
X120504516Y-97306091D01*
X120511444Y-97306835D01*
X120564127Y-97312500D01*
X122259872Y-97312499D01*
X122319483Y-97306091D01*
X122454331Y-97255796D01*
X122569546Y-97169546D01*
X122655796Y-97054331D01*
X122706091Y-96919483D01*
X122712500Y-96859873D01*
X122712499Y-95164128D01*
X122706091Y-95104517D01*
X122696137Y-95077830D01*
X122655797Y-94969671D01*
X122655793Y-94969664D01*
X122569547Y-94854455D01*
X122569544Y-94854452D01*
X122454335Y-94768206D01*
X122454328Y-94768202D01*
X122319482Y-94717908D01*
X122319483Y-94717908D01*
X122259883Y-94711501D01*
X122259881Y-94711500D01*
X122259873Y-94711500D01*
X122259864Y-94711500D01*
X120564129Y-94711500D01*
X120564123Y-94711501D01*
X120504516Y-94717908D01*
X120369671Y-94768202D01*
X120369664Y-94768206D01*
X120254455Y-94854452D01*
X120254452Y-94854455D01*
X120168206Y-94969664D01*
X120168202Y-94969671D01*
X120117908Y-95104516D01*
X120114137Y-95139596D01*
X120087398Y-95204146D01*
X120030006Y-95243994D01*
X119960180Y-95246487D01*
X119900092Y-95210834D01*
X119889273Y-95197462D01*
X119872045Y-95172858D01*
X119711141Y-95011954D01*
X119524734Y-94881432D01*
X119524732Y-94881431D01*
X119318497Y-94785261D01*
X119318488Y-94785258D01*
X119098697Y-94726366D01*
X119098693Y-94726365D01*
X119098692Y-94726365D01*
X119098691Y-94726364D01*
X119098686Y-94726364D01*
X118872002Y-94706532D01*
X118871998Y-94706532D01*
X118645313Y-94726364D01*
X118645302Y-94726366D01*
X118425511Y-94785258D01*
X118425502Y-94785261D01*
X118219267Y-94881431D01*
X118219265Y-94881432D01*
X118032858Y-95011954D01*
X117871954Y-95172858D01*
X117741432Y-95359265D01*
X117741431Y-95359267D01*
X117714382Y-95417275D01*
X117668209Y-95469714D01*
X117601016Y-95488866D01*
X117534135Y-95468650D01*
X117489618Y-95417275D01*
X117462686Y-95359520D01*
X117462568Y-95359266D01*
X117332047Y-95172861D01*
X117332045Y-95172858D01*
X117171141Y-95011954D01*
X116984734Y-94881432D01*
X116984732Y-94881431D01*
X116778497Y-94785261D01*
X116778488Y-94785258D01*
X116558697Y-94726366D01*
X116558693Y-94726365D01*
X116558692Y-94726365D01*
X116558691Y-94726364D01*
X116558686Y-94726364D01*
X116332002Y-94706532D01*
X116331998Y-94706532D01*
X116105313Y-94726364D01*
X116105302Y-94726366D01*
X115885511Y-94785258D01*
X115885502Y-94785261D01*
X115679267Y-94881431D01*
X115679265Y-94881432D01*
X115492858Y-95011954D01*
X115331954Y-95172858D01*
X115201432Y-95359265D01*
X115201431Y-95359267D01*
X115174382Y-95417275D01*
X115128209Y-95469714D01*
X115061016Y-95488866D01*
X114994135Y-95468650D01*
X114949618Y-95417275D01*
X114922686Y-95359520D01*
X114922568Y-95359266D01*
X114792047Y-95172861D01*
X114792045Y-95172858D01*
X114631141Y-95011954D01*
X114444734Y-94881432D01*
X114444732Y-94881431D01*
X114238497Y-94785261D01*
X114238488Y-94785258D01*
X114018697Y-94726366D01*
X114018693Y-94726365D01*
X114018692Y-94726365D01*
X114018691Y-94726364D01*
X114018686Y-94726364D01*
X113792002Y-94706532D01*
X113791998Y-94706532D01*
X113565313Y-94726364D01*
X113565302Y-94726366D01*
X113345511Y-94785258D01*
X113345502Y-94785261D01*
X113139267Y-94881431D01*
X113139265Y-94881432D01*
X112952858Y-95011954D01*
X112791954Y-95172858D01*
X112661432Y-95359265D01*
X112661431Y-95359267D01*
X112634382Y-95417275D01*
X112588209Y-95469714D01*
X112521016Y-95488866D01*
X112454135Y-95468650D01*
X112409618Y-95417275D01*
X112382686Y-95359520D01*
X112382568Y-95359266D01*
X112252047Y-95172861D01*
X112252045Y-95172858D01*
X112091141Y-95011954D01*
X111904734Y-94881432D01*
X111904732Y-94881431D01*
X111698497Y-94785261D01*
X111698488Y-94785258D01*
X111478697Y-94726366D01*
X111478693Y-94726365D01*
X111478692Y-94726365D01*
X111478691Y-94726364D01*
X111478686Y-94726364D01*
X111252002Y-94706532D01*
X111251998Y-94706532D01*
X111025313Y-94726364D01*
X111025302Y-94726366D01*
X110805511Y-94785258D01*
X110805502Y-94785261D01*
X110599267Y-94881431D01*
X110599265Y-94881432D01*
X110412858Y-95011954D01*
X110251954Y-95172858D01*
X110121432Y-95359265D01*
X110121431Y-95359267D01*
X110094382Y-95417275D01*
X110048209Y-95469714D01*
X109981016Y-95488866D01*
X109914135Y-95468650D01*
X109869618Y-95417275D01*
X109842686Y-95359520D01*
X109842568Y-95359266D01*
X109712047Y-95172861D01*
X109712045Y-95172858D01*
X109551141Y-95011954D01*
X109364734Y-94881432D01*
X109364732Y-94881431D01*
X109158497Y-94785261D01*
X109158488Y-94785258D01*
X108938697Y-94726366D01*
X108938693Y-94726365D01*
X108938692Y-94726365D01*
X108938691Y-94726364D01*
X108938686Y-94726364D01*
X108712002Y-94706532D01*
X108711998Y-94706532D01*
X108485313Y-94726364D01*
X108485302Y-94726366D01*
X108265511Y-94785258D01*
X108265502Y-94785261D01*
X108059267Y-94881431D01*
X108059265Y-94881432D01*
X107872858Y-95011954D01*
X107711954Y-95172858D01*
X107581432Y-95359265D01*
X107581431Y-95359267D01*
X107554382Y-95417275D01*
X107508209Y-95469714D01*
X107441016Y-95488866D01*
X107374135Y-95468650D01*
X107329618Y-95417275D01*
X107302686Y-95359520D01*
X107302568Y-95359266D01*
X107172047Y-95172861D01*
X107172045Y-95172858D01*
X107011141Y-95011954D01*
X106824734Y-94881432D01*
X106824732Y-94881431D01*
X106618497Y-94785261D01*
X106618488Y-94785258D01*
X106398697Y-94726366D01*
X106398693Y-94726365D01*
X106398692Y-94726365D01*
X106398691Y-94726364D01*
X106398686Y-94726364D01*
X106172002Y-94706532D01*
X106171998Y-94706532D01*
X105945313Y-94726364D01*
X105945302Y-94726366D01*
X105725511Y-94785258D01*
X105725502Y-94785261D01*
X105519267Y-94881431D01*
X105519265Y-94881432D01*
X105332858Y-95011954D01*
X105171954Y-95172858D01*
X105041432Y-95359265D01*
X105041431Y-95359267D01*
X105014382Y-95417275D01*
X104968209Y-95469714D01*
X104901016Y-95488866D01*
X104834135Y-95468650D01*
X104789618Y-95417275D01*
X104762686Y-95359520D01*
X104762568Y-95359266D01*
X104632047Y-95172861D01*
X104632045Y-95172858D01*
X104471141Y-95011954D01*
X104284734Y-94881432D01*
X104284732Y-94881431D01*
X104078497Y-94785261D01*
X104078488Y-94785258D01*
X103858697Y-94726366D01*
X103858693Y-94726365D01*
X103858692Y-94726365D01*
X103858691Y-94726364D01*
X103858686Y-94726364D01*
X103632002Y-94706532D01*
X103631998Y-94706532D01*
X103405313Y-94726364D01*
X103405302Y-94726366D01*
X103185511Y-94785258D01*
X103185502Y-94785261D01*
X102979267Y-94881431D01*
X102979265Y-94881432D01*
X102792858Y-95011954D01*
X102631954Y-95172858D01*
X102501432Y-95359265D01*
X102501431Y-95359267D01*
X102474382Y-95417275D01*
X102428209Y-95469714D01*
X102361016Y-95488866D01*
X102294135Y-95468650D01*
X102249618Y-95417275D01*
X102222686Y-95359520D01*
X102222568Y-95359266D01*
X102092047Y-95172861D01*
X102092045Y-95172858D01*
X101931141Y-95011954D01*
X101744734Y-94881432D01*
X101744732Y-94881431D01*
X101538497Y-94785261D01*
X101538488Y-94785258D01*
X101318697Y-94726366D01*
X101318693Y-94726365D01*
X101318692Y-94726365D01*
X101318691Y-94726364D01*
X101318686Y-94726364D01*
X101092002Y-94706532D01*
X101091998Y-94706532D01*
X100865313Y-94726364D01*
X100865302Y-94726366D01*
X100645511Y-94785258D01*
X100645502Y-94785261D01*
X100439267Y-94881431D01*
X100439265Y-94881432D01*
X100252858Y-95011954D01*
X100091954Y-95172858D01*
X99961432Y-95359265D01*
X99961431Y-95359267D01*
X99934382Y-95417275D01*
X99888209Y-95469714D01*
X99821016Y-95488866D01*
X99754135Y-95468650D01*
X99709618Y-95417275D01*
X99682686Y-95359520D01*
X99682568Y-95359266D01*
X99552047Y-95172861D01*
X99552045Y-95172858D01*
X99391141Y-95011954D01*
X99204734Y-94881432D01*
X99204732Y-94881431D01*
X98998497Y-94785261D01*
X98998488Y-94785258D01*
X98778697Y-94726366D01*
X98778693Y-94726365D01*
X98778692Y-94726365D01*
X98778691Y-94726364D01*
X98778686Y-94726364D01*
X98552002Y-94706532D01*
X98551998Y-94706532D01*
X98325313Y-94726364D01*
X98325302Y-94726366D01*
X98105511Y-94785258D01*
X98105502Y-94785261D01*
X97899267Y-94881431D01*
X97899265Y-94881432D01*
X97712858Y-95011954D01*
X97551954Y-95172858D01*
X97421432Y-95359265D01*
X97421431Y-95359267D01*
X97394382Y-95417275D01*
X97348209Y-95469714D01*
X97281016Y-95488866D01*
X97214135Y-95468650D01*
X97169618Y-95417275D01*
X97142686Y-95359520D01*
X97142568Y-95359266D01*
X97012047Y-95172861D01*
X97012045Y-95172858D01*
X96851141Y-95011954D01*
X96664734Y-94881432D01*
X96664732Y-94881431D01*
X96458497Y-94785261D01*
X96458488Y-94785258D01*
X96238697Y-94726366D01*
X96238693Y-94726365D01*
X96238692Y-94726365D01*
X96238691Y-94726364D01*
X96238686Y-94726364D01*
X96012002Y-94706532D01*
X96011998Y-94706532D01*
X95785313Y-94726364D01*
X95785302Y-94726366D01*
X95565511Y-94785258D01*
X95565502Y-94785261D01*
X95359267Y-94881431D01*
X95359265Y-94881432D01*
X95172858Y-95011954D01*
X95011954Y-95172858D01*
X94881432Y-95359265D01*
X94881431Y-95359267D01*
X94854382Y-95417275D01*
X94808209Y-95469714D01*
X94741016Y-95488866D01*
X94674135Y-95468650D01*
X94629618Y-95417275D01*
X94602686Y-95359520D01*
X94602568Y-95359266D01*
X94472047Y-95172861D01*
X94472045Y-95172858D01*
X94311141Y-95011954D01*
X94124734Y-94881432D01*
X94124732Y-94881431D01*
X93918497Y-94785261D01*
X93918488Y-94785258D01*
X93698697Y-94726366D01*
X93698693Y-94726365D01*
X93698692Y-94726365D01*
X93698691Y-94726364D01*
X93698686Y-94726364D01*
X93472002Y-94706532D01*
X93471998Y-94706532D01*
X93245313Y-94726364D01*
X93245302Y-94726366D01*
X93025511Y-94785258D01*
X93025502Y-94785261D01*
X92819267Y-94881431D01*
X92819265Y-94881432D01*
X92632858Y-95011954D01*
X92471954Y-95172858D01*
X92341432Y-95359265D01*
X92341431Y-95359267D01*
X92314382Y-95417275D01*
X92268209Y-95469714D01*
X92201016Y-95488866D01*
X92134135Y-95468650D01*
X92089618Y-95417275D01*
X92062686Y-95359520D01*
X92062568Y-95359266D01*
X91932047Y-95172861D01*
X91932045Y-95172858D01*
X91771141Y-95011954D01*
X91584734Y-94881432D01*
X91584732Y-94881431D01*
X91378497Y-94785261D01*
X91378488Y-94785258D01*
X91158697Y-94726366D01*
X91158693Y-94726365D01*
X91158692Y-94726365D01*
X91158691Y-94726364D01*
X91158686Y-94726364D01*
X90932002Y-94706532D01*
X90931998Y-94706532D01*
X90705313Y-94726364D01*
X90705302Y-94726366D01*
X90485511Y-94785258D01*
X90485502Y-94785261D01*
X90279267Y-94881431D01*
X90279265Y-94881432D01*
X90092858Y-95011954D01*
X89931954Y-95172858D01*
X89801432Y-95359265D01*
X89801431Y-95359267D01*
X89774382Y-95417275D01*
X89728209Y-95469714D01*
X89661016Y-95488866D01*
X89594135Y-95468650D01*
X89549618Y-95417275D01*
X89522686Y-95359520D01*
X89522568Y-95359266D01*
X89392047Y-95172861D01*
X89392045Y-95172858D01*
X89231141Y-95011954D01*
X89044734Y-94881432D01*
X89044732Y-94881431D01*
X88838497Y-94785261D01*
X88838488Y-94785258D01*
X88618697Y-94726366D01*
X88618693Y-94726365D01*
X88618692Y-94726365D01*
X88618691Y-94726364D01*
X88618686Y-94726364D01*
X88392002Y-94706532D01*
X88391998Y-94706532D01*
X88165313Y-94726364D01*
X88165302Y-94726366D01*
X87945511Y-94785258D01*
X87945502Y-94785261D01*
X87739267Y-94881431D01*
X87739265Y-94881432D01*
X87552858Y-95011954D01*
X87391954Y-95172858D01*
X87261432Y-95359265D01*
X87261431Y-95359267D01*
X87234382Y-95417275D01*
X87188209Y-95469714D01*
X87121016Y-95488866D01*
X87054135Y-95468650D01*
X87009618Y-95417275D01*
X86982686Y-95359520D01*
X86982568Y-95359266D01*
X86852047Y-95172861D01*
X86852045Y-95172858D01*
X86691141Y-95011954D01*
X86504734Y-94881432D01*
X86504732Y-94881431D01*
X86298497Y-94785261D01*
X86298488Y-94785258D01*
X86078697Y-94726366D01*
X86078693Y-94726365D01*
X86078692Y-94726365D01*
X86078691Y-94726364D01*
X86078686Y-94726364D01*
X85852002Y-94706532D01*
X85851998Y-94706532D01*
X85625313Y-94726364D01*
X85625302Y-94726366D01*
X85405511Y-94785258D01*
X85405502Y-94785261D01*
X85199267Y-94881431D01*
X85199265Y-94881432D01*
X85012858Y-95011954D01*
X84851954Y-95172858D01*
X84721432Y-95359265D01*
X84721431Y-95359267D01*
X84694382Y-95417275D01*
X84648209Y-95469714D01*
X84581016Y-95488866D01*
X84514135Y-95468650D01*
X84469618Y-95417275D01*
X84442686Y-95359520D01*
X84442568Y-95359266D01*
X84312047Y-95172861D01*
X84312045Y-95172858D01*
X84151141Y-95011954D01*
X83964734Y-94881432D01*
X83964732Y-94881431D01*
X83758497Y-94785261D01*
X83758488Y-94785258D01*
X83538697Y-94726366D01*
X83538693Y-94726365D01*
X83538692Y-94726365D01*
X83538691Y-94726364D01*
X83538686Y-94726364D01*
X83312002Y-94706532D01*
X83311998Y-94706532D01*
X83085313Y-94726364D01*
X83085302Y-94726366D01*
X82865511Y-94785258D01*
X82865502Y-94785261D01*
X82659267Y-94881431D01*
X82659265Y-94881432D01*
X82472858Y-95011954D01*
X82311954Y-95172858D01*
X82181432Y-95359265D01*
X82181431Y-95359267D01*
X82154382Y-95417275D01*
X82108209Y-95469714D01*
X82041016Y-95488866D01*
X81974135Y-95468650D01*
X81929618Y-95417275D01*
X81902686Y-95359520D01*
X81902568Y-95359266D01*
X81772047Y-95172861D01*
X81772045Y-95172858D01*
X81611141Y-95011954D01*
X81424734Y-94881432D01*
X81424732Y-94881431D01*
X81218497Y-94785261D01*
X81218488Y-94785258D01*
X80998697Y-94726366D01*
X80998693Y-94726365D01*
X80998692Y-94726365D01*
X80998691Y-94726364D01*
X80998686Y-94726364D01*
X80772002Y-94706532D01*
X80771998Y-94706532D01*
X80545313Y-94726364D01*
X80545302Y-94726366D01*
X80325511Y-94785258D01*
X80325502Y-94785261D01*
X80119267Y-94881431D01*
X80119265Y-94881432D01*
X79932858Y-95011954D01*
X79771954Y-95172858D01*
X79641432Y-95359265D01*
X79641431Y-95359267D01*
X79614382Y-95417275D01*
X79568209Y-95469714D01*
X79501016Y-95488866D01*
X79434135Y-95468650D01*
X79389618Y-95417275D01*
X79362686Y-95359520D01*
X79362568Y-95359266D01*
X79232047Y-95172861D01*
X79232045Y-95172858D01*
X79071141Y-95011954D01*
X78884734Y-94881432D01*
X78884732Y-94881431D01*
X78678497Y-94785261D01*
X78678488Y-94785258D01*
X78458697Y-94726366D01*
X78458693Y-94726365D01*
X78458692Y-94726365D01*
X78458691Y-94726364D01*
X78458686Y-94726364D01*
X78232002Y-94706532D01*
X78231998Y-94706532D01*
X78005313Y-94726364D01*
X78005302Y-94726366D01*
X77785511Y-94785258D01*
X77785502Y-94785261D01*
X77579267Y-94881431D01*
X77579265Y-94881432D01*
X77392858Y-95011954D01*
X77231954Y-95172858D01*
X77101432Y-95359265D01*
X77101431Y-95359267D01*
X77074382Y-95417275D01*
X77028209Y-95469714D01*
X76961016Y-95488866D01*
X76894135Y-95468650D01*
X76849618Y-95417275D01*
X76822686Y-95359520D01*
X76822568Y-95359266D01*
X76692047Y-95172861D01*
X76692045Y-95172858D01*
X76531141Y-95011954D01*
X76344734Y-94881432D01*
X76344732Y-94881431D01*
X76138497Y-94785261D01*
X76138488Y-94785258D01*
X75918697Y-94726366D01*
X75918693Y-94726365D01*
X75918692Y-94726365D01*
X75918691Y-94726364D01*
X75918686Y-94726364D01*
X75692002Y-94706532D01*
X75691998Y-94706532D01*
X75465313Y-94726364D01*
X75465302Y-94726366D01*
X75245511Y-94785258D01*
X75245502Y-94785261D01*
X75039267Y-94881431D01*
X75039265Y-94881432D01*
X74852858Y-95011954D01*
X74691954Y-95172858D01*
X74622954Y-95271402D01*
X74561432Y-95359266D01*
X74561315Y-95359518D01*
X74534106Y-95417867D01*
X74487933Y-95470306D01*
X74420739Y-95489457D01*
X74353858Y-95469241D01*
X74309342Y-95417865D01*
X74282135Y-95359520D01*
X74282134Y-95359518D01*
X74151657Y-95173179D01*
X73990820Y-95012342D01*
X73804482Y-94881865D01*
X73598328Y-94785734D01*
X73402000Y-94733127D01*
X73402000Y-95696314D01*
X73397606Y-95691920D01*
X73306394Y-95639259D01*
X73204661Y-95612000D01*
X73099339Y-95612000D01*
X72997606Y-95639259D01*
X72906394Y-95691920D01*
X72902000Y-95696314D01*
X72902000Y-94733127D01*
X72705671Y-94785734D01*
X72499517Y-94881865D01*
X72313179Y-95012342D01*
X72152342Y-95173179D01*
X72021865Y-95359517D01*
X71925734Y-95565673D01*
X71925730Y-95565682D01*
X71873127Y-95761999D01*
X56218188Y-95761999D01*
X56182217Y-95716998D01*
X56175023Y-95647500D01*
X56206546Y-95585145D01*
X56225842Y-95568425D01*
X56248026Y-95552891D01*
X56411401Y-95438495D01*
X56578495Y-95271401D01*
X56714035Y-95077830D01*
X56813903Y-94863663D01*
X56875063Y-94635408D01*
X56895659Y-94400000D01*
X56875063Y-94164592D01*
X56813903Y-93936337D01*
X56714035Y-93722171D01*
X56708425Y-93714158D01*
X56578494Y-93528597D01*
X56411402Y-93361506D01*
X56411396Y-93361501D01*
X56225842Y-93231575D01*
X56182217Y-93176998D01*
X56175023Y-93107500D01*
X56206546Y-93045145D01*
X56225842Y-93028425D01*
X56266071Y-93000256D01*
X56411401Y-92898495D01*
X56578495Y-92731401D01*
X56714035Y-92537830D01*
X56813903Y-92323663D01*
X56875063Y-92095408D01*
X56895659Y-91860000D01*
X56875063Y-91624592D01*
X56813903Y-91396337D01*
X56714035Y-91182171D01*
X56708425Y-91174158D01*
X56578494Y-90988597D01*
X56411402Y-90821506D01*
X56411396Y-90821501D01*
X56225842Y-90691575D01*
X56182217Y-90636998D01*
X56175023Y-90567500D01*
X56206546Y-90505145D01*
X56225842Y-90488425D01*
X56248026Y-90472891D01*
X56411401Y-90358495D01*
X56578495Y-90191401D01*
X56714035Y-89997830D01*
X56813903Y-89783663D01*
X56875063Y-89555408D01*
X56895659Y-89320000D01*
X56875063Y-89084592D01*
X56813903Y-88856337D01*
X56714035Y-88642171D01*
X56708425Y-88634158D01*
X56578494Y-88448597D01*
X56572078Y-88442181D01*
X56538593Y-88380858D01*
X56543577Y-88311166D01*
X56585449Y-88255233D01*
X56650913Y-88230816D01*
X56659759Y-88230500D01*
X72343903Y-88230500D01*
X72410942Y-88250185D01*
X72431584Y-88266819D01*
X73109537Y-88944772D01*
X73143022Y-89006095D01*
X73138038Y-89075787D01*
X73096166Y-89131720D01*
X73062811Y-89149495D01*
X73056476Y-89151711D01*
X72903737Y-89247684D01*
X72776184Y-89375237D01*
X72680211Y-89527976D01*
X72620631Y-89698245D01*
X72620630Y-89698250D01*
X72600435Y-89877496D01*
X72600435Y-89877503D01*
X72620630Y-90056749D01*
X72620631Y-90056754D01*
X72680211Y-90227023D01*
X72762820Y-90358493D01*
X72776184Y-90379762D01*
X72903738Y-90507316D01*
X72960532Y-90543002D01*
X73035328Y-90590000D01*
X73056478Y-90603289D01*
X73159984Y-90639507D01*
X73206710Y-90668867D01*
X76299971Y-93762129D01*
X76299972Y-93762130D01*
X76414710Y-93838795D01*
X76542185Y-93891596D01*
X76542190Y-93891598D01*
X76542194Y-93891598D01*
X76542195Y-93891599D01*
X76677521Y-93918518D01*
X76677524Y-93918518D01*
X76677525Y-93918518D01*
X106026506Y-93918518D01*
X106092477Y-93937524D01*
X106102472Y-93943804D01*
X106102475Y-93943806D01*
X106102478Y-93943807D01*
X106205984Y-93980025D01*
X106252708Y-94009383D01*
X106361633Y-94118308D01*
X106476365Y-94194969D01*
X106476368Y-94194971D01*
X106603843Y-94247772D01*
X106603848Y-94247774D01*
X106603852Y-94247774D01*
X106603853Y-94247775D01*
X106739179Y-94274694D01*
X106739182Y-94274694D01*
X124896335Y-94274694D01*
X124987379Y-94256583D01*
X125031667Y-94247774D01*
X125095408Y-94221371D01*
X125159146Y-94194971D01*
X125159147Y-94194970D01*
X125159150Y-94194969D01*
X125273882Y-94118308D01*
X125421313Y-93970876D01*
X125468038Y-93941517D01*
X125571544Y-93905300D01*
X125724284Y-93809327D01*
X125851838Y-93681773D01*
X125947811Y-93529033D01*
X126007390Y-93358766D01*
X126027587Y-93179511D01*
X126019473Y-93107500D01*
X126007391Y-93000261D01*
X126007390Y-93000256D01*
X125971782Y-92898495D01*
X125947811Y-92829989D01*
X125851838Y-92677249D01*
X125724284Y-92549695D01*
X125687443Y-92526546D01*
X125571545Y-92453722D01*
X125401276Y-92394142D01*
X125401271Y-92394141D01*
X125222026Y-92373946D01*
X125222018Y-92373946D01*
X125042772Y-92394141D01*
X125042767Y-92394142D01*
X124872498Y-92453722D01*
X124719759Y-92549695D01*
X124592206Y-92677248D01*
X124505233Y-92815666D01*
X124452898Y-92861957D01*
X124400239Y-92873694D01*
X122333948Y-92873694D01*
X122266909Y-92854009D01*
X122221154Y-92801205D01*
X122210728Y-92763577D01*
X122197362Y-92644950D01*
X122197361Y-92644945D01*
X122137782Y-92474678D01*
X122124614Y-92453722D01*
X122048151Y-92332032D01*
X122041809Y-92321938D01*
X121914255Y-92194384D01*
X121761516Y-92098411D01*
X121591247Y-92038831D01*
X121591242Y-92038830D01*
X121411997Y-92018635D01*
X121411991Y-92018635D01*
X121387244Y-92021422D01*
X121341275Y-92017976D01*
X121264851Y-91997499D01*
X121264850Y-91997499D01*
X121106736Y-91997499D01*
X121099140Y-91997499D01*
X121099124Y-91997500D01*
X77912097Y-91997500D01*
X77845058Y-91977815D01*
X77824416Y-91961181D01*
X77495416Y-91632181D01*
X77461931Y-91570858D01*
X77466915Y-91501166D01*
X77508787Y-91445233D01*
X77574251Y-91420816D01*
X77583097Y-91420500D01*
X135223903Y-91420500D01*
X135290942Y-91440185D01*
X135311583Y-91456818D01*
X142425284Y-98570520D01*
X142425286Y-98570521D01*
X142425290Y-98570524D01*
X142491239Y-98608599D01*
X142562216Y-98649577D01*
X142714943Y-98690501D01*
X142714945Y-98690501D01*
X142880654Y-98690501D01*
X142880670Y-98690500D01*
X143143397Y-98690500D01*
X143210436Y-98710185D01*
X143256191Y-98762989D01*
X143266135Y-98832147D01*
X143255779Y-98866905D01*
X143186097Y-99016335D01*
X143186094Y-99016344D01*
X143124938Y-99244586D01*
X143124936Y-99244596D01*
X143104341Y-99479999D01*
X143104341Y-99480000D01*
X143124936Y-99715403D01*
X143124938Y-99715413D01*
X143186094Y-99943655D01*
X143186096Y-99943659D01*
X143186097Y-99943663D01*
X143280703Y-100146546D01*
X143285965Y-100157830D01*
X143285967Y-100157834D01*
X143364157Y-100269500D01*
X143421501Y-100351396D01*
X143421506Y-100351402D01*
X143588597Y-100518493D01*
X143588603Y-100518498D01*
X143774158Y-100648425D01*
X143817783Y-100703002D01*
X143824977Y-100772500D01*
X143793454Y-100834855D01*
X143774158Y-100851575D01*
X143588597Y-100981505D01*
X143421506Y-101148596D01*
X143285965Y-101342170D01*
X143285962Y-101342175D01*
X143283289Y-101347909D01*
X143237115Y-101400346D01*
X143170909Y-101419500D01*
X111870915Y-101419500D01*
X111803876Y-101399815D01*
X111758121Y-101347011D01*
X111753873Y-101336454D01*
X111753070Y-101334158D01*
X111723789Y-101250478D01*
X111627816Y-101097738D01*
X111500262Y-100970184D01*
X111347523Y-100874211D01*
X111177254Y-100814631D01*
X111177249Y-100814630D01*
X110998004Y-100794435D01*
X110997996Y-100794435D01*
X110818750Y-100814630D01*
X110818745Y-100814631D01*
X110648476Y-100874211D01*
X110495737Y-100970184D01*
X110368184Y-101097737D01*
X110272211Y-101250476D01*
X110212631Y-101420745D01*
X110212630Y-101420750D01*
X110192435Y-101599996D01*
X110192435Y-101600003D01*
X110212630Y-101779249D01*
X110212631Y-101779254D01*
X110272211Y-101949523D01*
X110316495Y-102020000D01*
X110368184Y-102102262D01*
X110495738Y-102229816D01*
X110648478Y-102325789D01*
X110818745Y-102385368D01*
X110905668Y-102395161D01*
X110970079Y-102422226D01*
X110979464Y-102430700D01*
X111049284Y-102500520D01*
X111049286Y-102500521D01*
X111049290Y-102500524D01*
X111186209Y-102579573D01*
X111186216Y-102579577D01*
X111338943Y-102620501D01*
X111338945Y-102620501D01*
X111504654Y-102620501D01*
X111504670Y-102620500D01*
X116511680Y-102620500D01*
X116578719Y-102640185D01*
X116624474Y-102692989D01*
X116634418Y-102762147D01*
X116605393Y-102825703D01*
X116573679Y-102851887D01*
X116439290Y-102929475D01*
X116439286Y-102929478D01*
X116313465Y-103055299D01*
X116252142Y-103088783D01*
X116239668Y-103090837D01*
X116152750Y-103100630D01*
X115982478Y-103160210D01*
X115829737Y-103256184D01*
X115702184Y-103383737D01*
X115606211Y-103536476D01*
X115546631Y-103706745D01*
X115546630Y-103706750D01*
X115526435Y-103885996D01*
X115526435Y-103886003D01*
X115546630Y-104065249D01*
X115546631Y-104065254D01*
X115606211Y-104235523D01*
X115662177Y-104324592D01*
X115702184Y-104388262D01*
X115829738Y-104515816D01*
X115982478Y-104611789D01*
X116085952Y-104647996D01*
X116152745Y-104671368D01*
X116152750Y-104671369D01*
X116331996Y-104691565D01*
X116332000Y-104691565D01*
X116332004Y-104691565D01*
X116511249Y-104671369D01*
X116511252Y-104671368D01*
X116511255Y-104671368D01*
X116681522Y-104611789D01*
X116834262Y-104515816D01*
X116961816Y-104388262D01*
X117057789Y-104235522D01*
X117104517Y-104101980D01*
X117107469Y-104093545D01*
X117148191Y-104036769D01*
X117213144Y-104011022D01*
X117224511Y-104010500D01*
X118102798Y-104010500D01*
X118169837Y-104030185D01*
X118215592Y-104082989D01*
X118225536Y-104152147D01*
X118207792Y-104200472D01*
X118146211Y-104298476D01*
X118086631Y-104468745D01*
X118086630Y-104468750D01*
X118066435Y-104647996D01*
X118066435Y-104648003D01*
X118086630Y-104827249D01*
X118086633Y-104827262D01*
X118127673Y-104944545D01*
X118131235Y-105014324D01*
X118096507Y-105074951D01*
X118034513Y-105107179D01*
X118010632Y-105109500D01*
X114821057Y-105109500D01*
X114788963Y-105105275D01*
X114785786Y-105104423D01*
X114785785Y-105104423D01*
X114633057Y-105063499D01*
X114474943Y-105063499D01*
X114467347Y-105063499D01*
X114467331Y-105063500D01*
X114374412Y-105063500D01*
X114307373Y-105043815D01*
X114297097Y-105036445D01*
X114294263Y-105034185D01*
X114294262Y-105034184D01*
X114235915Y-104997522D01*
X114141523Y-104938211D01*
X113971254Y-104878631D01*
X113971249Y-104878630D01*
X113792004Y-104858435D01*
X113791996Y-104858435D01*
X113612750Y-104878630D01*
X113612745Y-104878631D01*
X113442476Y-104938211D01*
X113289737Y-105034184D01*
X113162184Y-105161737D01*
X113066211Y-105314476D01*
X113006631Y-105484745D01*
X113006630Y-105484750D01*
X112986435Y-105663996D01*
X112986435Y-105664003D01*
X113006630Y-105843249D01*
X113006631Y-105843254D01*
X113066211Y-106013523D01*
X113147899Y-106143528D01*
X113166899Y-106210765D01*
X113146531Y-106277600D01*
X113093263Y-106322814D01*
X113042905Y-106333500D01*
X109040412Y-106333500D01*
X108973373Y-106313815D01*
X108963097Y-106306445D01*
X108960263Y-106304185D01*
X108960262Y-106304184D01*
X108897105Y-106264500D01*
X108807523Y-106208211D01*
X108637254Y-106148631D01*
X108637249Y-106148630D01*
X108458004Y-106128435D01*
X108457996Y-106128435D01*
X108278750Y-106148630D01*
X108278745Y-106148631D01*
X108108476Y-106208211D01*
X107955737Y-106304184D01*
X107828184Y-106431737D01*
X107732211Y-106584476D01*
X107672631Y-106754745D01*
X107672630Y-106754750D01*
X107652435Y-106933996D01*
X107652435Y-106934003D01*
X107672630Y-107113249D01*
X107672631Y-107113254D01*
X107732211Y-107283523D01*
X107828184Y-107436262D01*
X107955738Y-107563816D01*
X107982324Y-107580521D01*
X108108140Y-107659577D01*
X108108478Y-107659789D01*
X108224826Y-107700501D01*
X108278745Y-107719368D01*
X108278750Y-107719369D01*
X108457996Y-107739565D01*
X108458000Y-107739565D01*
X108458004Y-107739565D01*
X108637249Y-107719369D01*
X108637252Y-107719368D01*
X108637255Y-107719368D01*
X108807522Y-107659789D01*
X108960262Y-107563816D01*
X108960267Y-107563810D01*
X108963097Y-107561555D01*
X108965275Y-107560665D01*
X108966158Y-107560111D01*
X108966255Y-107560265D01*
X109027783Y-107535145D01*
X109040412Y-107534500D01*
X143093502Y-107534500D01*
X143160541Y-107554185D01*
X143205882Y-107606093D01*
X143249906Y-107700501D01*
X143285965Y-107777830D01*
X143285967Y-107777834D01*
X143394281Y-107932521D01*
X143421501Y-107971396D01*
X143421506Y-107971402D01*
X143588597Y-108138493D01*
X143588603Y-108138498D01*
X143774594Y-108268730D01*
X143818219Y-108323307D01*
X143825413Y-108392805D01*
X143793890Y-108455160D01*
X143774595Y-108471880D01*
X143588922Y-108601890D01*
X143588920Y-108601891D01*
X143421891Y-108768920D01*
X143421886Y-108768926D01*
X143286400Y-108962420D01*
X143286399Y-108962422D01*
X143186570Y-109176507D01*
X143186567Y-109176513D01*
X143129364Y-109389999D01*
X143129364Y-109390000D01*
X144026988Y-109390000D01*
X143994075Y-109447007D01*
X143960000Y-109574174D01*
X143960000Y-109705826D01*
X143994075Y-109832993D01*
X144026988Y-109890000D01*
X143129364Y-109890000D01*
X143186567Y-110103486D01*
X143186570Y-110103492D01*
X143286399Y-110317578D01*
X143421894Y-110511082D01*
X143588917Y-110678105D01*
X143782421Y-110813600D01*
X143996507Y-110913429D01*
X143996516Y-110913433D01*
X144210000Y-110970634D01*
X144210000Y-110073012D01*
X144267007Y-110105925D01*
X144394174Y-110140000D01*
X144525826Y-110140000D01*
X144652993Y-110105925D01*
X144710000Y-110073012D01*
X144710000Y-110970633D01*
X144923483Y-110913433D01*
X144923492Y-110913429D01*
X145137578Y-110813600D01*
X145331082Y-110678105D01*
X145498105Y-110511082D01*
X145628425Y-110324968D01*
X145683002Y-110281344D01*
X145752501Y-110274151D01*
X145814855Y-110305673D01*
X145831575Y-110324968D01*
X145961894Y-110511082D01*
X146128917Y-110678105D01*
X146322421Y-110813600D01*
X146536507Y-110913429D01*
X146536516Y-110913433D01*
X146750000Y-110970634D01*
X146750000Y-110073012D01*
X146807007Y-110105925D01*
X146934174Y-110140000D01*
X147065826Y-110140000D01*
X147192993Y-110105925D01*
X147250000Y-110073012D01*
X147250000Y-110970633D01*
X147463483Y-110913433D01*
X147463492Y-110913429D01*
X147677578Y-110813600D01*
X147871082Y-110678105D01*
X148038105Y-110511082D01*
X148173600Y-110317578D01*
X148273429Y-110103492D01*
X148273432Y-110103486D01*
X148330636Y-109890000D01*
X147433012Y-109890000D01*
X147465925Y-109832993D01*
X147500000Y-109705826D01*
X147500000Y-109574174D01*
X147465925Y-109447007D01*
X147433012Y-109390000D01*
X148330636Y-109390000D01*
X148330635Y-109389999D01*
X148273432Y-109176513D01*
X148273429Y-109176507D01*
X148173600Y-108962422D01*
X148173599Y-108962420D01*
X148038113Y-108768926D01*
X148038108Y-108768920D01*
X147871078Y-108601890D01*
X147685405Y-108471879D01*
X147641780Y-108417302D01*
X147634588Y-108347804D01*
X147666110Y-108285449D01*
X147685406Y-108268730D01*
X147797500Y-108190241D01*
X147871401Y-108138495D01*
X148038495Y-107971401D01*
X148174035Y-107777830D01*
X148273903Y-107563663D01*
X148335063Y-107335408D01*
X148355659Y-107100000D01*
X148335063Y-106864592D01*
X148273903Y-106636337D01*
X148174035Y-106422171D01*
X148111948Y-106333500D01*
X148038494Y-106228597D01*
X147871402Y-106061506D01*
X147871396Y-106061501D01*
X147685842Y-105931575D01*
X147642217Y-105876998D01*
X147635023Y-105807500D01*
X147666546Y-105745145D01*
X147685842Y-105728425D01*
X147811226Y-105640630D01*
X147871401Y-105598495D01*
X148038495Y-105431401D01*
X148174035Y-105237830D01*
X148273903Y-105023663D01*
X148335063Y-104795408D01*
X148355659Y-104560000D01*
X148335063Y-104324592D01*
X148279341Y-104116632D01*
X148273905Y-104096344D01*
X148273904Y-104096343D01*
X148273903Y-104096337D01*
X148174035Y-103882171D01*
X148129000Y-103817853D01*
X148038494Y-103688597D01*
X147871402Y-103521506D01*
X147871396Y-103521501D01*
X147685842Y-103391575D01*
X147642217Y-103336998D01*
X147635023Y-103267500D01*
X147666546Y-103205145D01*
X147685842Y-103188425D01*
X147726137Y-103160210D01*
X147871401Y-103058495D01*
X148038495Y-102891401D01*
X148174035Y-102697830D01*
X148273903Y-102483663D01*
X148335063Y-102255408D01*
X148355659Y-102020000D01*
X148335063Y-101784592D01*
X148273903Y-101556337D01*
X148174035Y-101342171D01*
X148174034Y-101342169D01*
X148038494Y-101148597D01*
X147871402Y-100981506D01*
X147871396Y-100981501D01*
X147685842Y-100851575D01*
X147642217Y-100796998D01*
X147635023Y-100727500D01*
X147666546Y-100665145D01*
X147685842Y-100648425D01*
X147708026Y-100632891D01*
X147871401Y-100518495D01*
X148038495Y-100351401D01*
X148174035Y-100157830D01*
X148273903Y-99943663D01*
X148335063Y-99715408D01*
X148355659Y-99480000D01*
X148335063Y-99244592D01*
X148273903Y-99016337D01*
X148174035Y-98802171D01*
X148109832Y-98710478D01*
X148038494Y-98608597D01*
X147871402Y-98441506D01*
X147871396Y-98441501D01*
X147685842Y-98311575D01*
X147642217Y-98256998D01*
X147635023Y-98187500D01*
X147666546Y-98125145D01*
X147685842Y-98108425D01*
X147708026Y-98092891D01*
X147871401Y-97978495D01*
X148038495Y-97811401D01*
X148174035Y-97617830D01*
X148273903Y-97403663D01*
X148335063Y-97175408D01*
X148355659Y-96940000D01*
X148335063Y-96704592D01*
X148273903Y-96476337D01*
X148174035Y-96262171D01*
X148173916Y-96262000D01*
X148038494Y-96068597D01*
X147871402Y-95901506D01*
X147871396Y-95901501D01*
X147685842Y-95771575D01*
X147642217Y-95716998D01*
X147635023Y-95647500D01*
X147666546Y-95585145D01*
X147685842Y-95568425D01*
X147708026Y-95552891D01*
X147871401Y-95438495D01*
X148038495Y-95271401D01*
X148174035Y-95077830D01*
X148273903Y-94863663D01*
X148335063Y-94635408D01*
X148355659Y-94400000D01*
X148335063Y-94164592D01*
X148273903Y-93936337D01*
X148174035Y-93722171D01*
X148168425Y-93714158D01*
X148038494Y-93528597D01*
X147871402Y-93361506D01*
X147871396Y-93361501D01*
X147685842Y-93231575D01*
X147642217Y-93176998D01*
X147635023Y-93107500D01*
X147666546Y-93045145D01*
X147685842Y-93028425D01*
X147726071Y-93000256D01*
X147871401Y-92898495D01*
X148038495Y-92731401D01*
X148174035Y-92537830D01*
X148273903Y-92323663D01*
X148335063Y-92095408D01*
X148355659Y-91860000D01*
X148335063Y-91624592D01*
X148273903Y-91396337D01*
X148174035Y-91182171D01*
X148168425Y-91174158D01*
X148038494Y-90988597D01*
X147871402Y-90821506D01*
X147871396Y-90821501D01*
X147685842Y-90691575D01*
X147642217Y-90636998D01*
X147635023Y-90567500D01*
X147666546Y-90505145D01*
X147685842Y-90488425D01*
X147708026Y-90472891D01*
X147871401Y-90358495D01*
X148038495Y-90191401D01*
X148174035Y-89997830D01*
X148273903Y-89783663D01*
X148335063Y-89555408D01*
X148355659Y-89320000D01*
X148335063Y-89084592D01*
X148273903Y-88856337D01*
X148174035Y-88642171D01*
X148168425Y-88634158D01*
X148038494Y-88448597D01*
X147871402Y-88281506D01*
X147871396Y-88281501D01*
X147685842Y-88151575D01*
X147642217Y-88096998D01*
X147635023Y-88027500D01*
X147666546Y-87965145D01*
X147685842Y-87948425D01*
X147791860Y-87874190D01*
X147871401Y-87818495D01*
X148038495Y-87651401D01*
X148174035Y-87457830D01*
X148273903Y-87243663D01*
X148335063Y-87015408D01*
X148355659Y-86780000D01*
X148354727Y-86769353D01*
X148351267Y-86729798D01*
X148335063Y-86544592D01*
X148279341Y-86336631D01*
X148273905Y-86316344D01*
X148273904Y-86316343D01*
X148273903Y-86316337D01*
X148174035Y-86102171D01*
X148168425Y-86094158D01*
X148038494Y-85908597D01*
X147871402Y-85741506D01*
X147871396Y-85741501D01*
X147685842Y-85611575D01*
X147642217Y-85556998D01*
X147635023Y-85487500D01*
X147666546Y-85425145D01*
X147685842Y-85408425D01*
X147708026Y-85392891D01*
X147871401Y-85278495D01*
X148038495Y-85111401D01*
X148174035Y-84917830D01*
X148273903Y-84703663D01*
X148335063Y-84475408D01*
X148355659Y-84240000D01*
X148335063Y-84004592D01*
X148273903Y-83776337D01*
X148174035Y-83562171D01*
X148129457Y-83498506D01*
X148038494Y-83368597D01*
X147871402Y-83201506D01*
X147871396Y-83201501D01*
X147685842Y-83071575D01*
X147642217Y-83016998D01*
X147635023Y-82947500D01*
X147666546Y-82885145D01*
X147685842Y-82868425D01*
X147708026Y-82852891D01*
X147871401Y-82738495D01*
X148038495Y-82571401D01*
X148174035Y-82377830D01*
X148273903Y-82163663D01*
X148335063Y-81935408D01*
X148355659Y-81700000D01*
X148335063Y-81464592D01*
X148273903Y-81236337D01*
X148174035Y-81022171D01*
X148168425Y-81014158D01*
X148038494Y-80828597D01*
X147871402Y-80661506D01*
X147871396Y-80661501D01*
X147685842Y-80531575D01*
X147642217Y-80476998D01*
X147635023Y-80407500D01*
X147666546Y-80345145D01*
X147685842Y-80328425D01*
X147736922Y-80292658D01*
X147871401Y-80198495D01*
X148038495Y-80031401D01*
X148174035Y-79837830D01*
X148273903Y-79623663D01*
X148335063Y-79395408D01*
X148355659Y-79160000D01*
X148335063Y-78924592D01*
X148273903Y-78696337D01*
X148174035Y-78482171D01*
X148174034Y-78482169D01*
X148038494Y-78288597D01*
X147871402Y-78121506D01*
X147871396Y-78121501D01*
X147685842Y-77991575D01*
X147642217Y-77936998D01*
X147635023Y-77867500D01*
X147666546Y-77805145D01*
X147685842Y-77788425D01*
X147738612Y-77751475D01*
X147871401Y-77658495D01*
X148038495Y-77491401D01*
X148174035Y-77297830D01*
X148273903Y-77083663D01*
X148335063Y-76855408D01*
X148355659Y-76620000D01*
X148335063Y-76384592D01*
X148273903Y-76156337D01*
X148174035Y-75942171D01*
X148168425Y-75934158D01*
X148038494Y-75748597D01*
X147871402Y-75581506D01*
X147871396Y-75581501D01*
X147685842Y-75451575D01*
X147642217Y-75396998D01*
X147635023Y-75327500D01*
X147666546Y-75265145D01*
X147685842Y-75248425D01*
X147708026Y-75232891D01*
X147871401Y-75118495D01*
X148038495Y-74951401D01*
X148174035Y-74757830D01*
X148273903Y-74543663D01*
X148335063Y-74315408D01*
X148355659Y-74080000D01*
X148335063Y-73844592D01*
X148273903Y-73616337D01*
X148174035Y-73402171D01*
X148174034Y-73402169D01*
X148038494Y-73208597D01*
X147871402Y-73041506D01*
X147871396Y-73041501D01*
X147685842Y-72911575D01*
X147642217Y-72856998D01*
X147635023Y-72787500D01*
X147666546Y-72725145D01*
X147685842Y-72708425D01*
X147744477Y-72667368D01*
X147871401Y-72578495D01*
X148038495Y-72411401D01*
X148174035Y-72217830D01*
X148273903Y-72003663D01*
X148335063Y-71775408D01*
X148355659Y-71540000D01*
X148335063Y-71304592D01*
X148279341Y-71096632D01*
X148273905Y-71076344D01*
X148273904Y-71076343D01*
X148273903Y-71076337D01*
X148174035Y-70862171D01*
X148174034Y-70862169D01*
X148038496Y-70668600D01*
X148038493Y-70668597D01*
X147916567Y-70546671D01*
X147883084Y-70485351D01*
X147888068Y-70415659D01*
X147929939Y-70359725D01*
X147960915Y-70342810D01*
X148092331Y-70293796D01*
X148207546Y-70207546D01*
X148293796Y-70092331D01*
X148344091Y-69957483D01*
X148350500Y-69897873D01*
X148350499Y-68102128D01*
X148344091Y-68042517D01*
X148342810Y-68039083D01*
X148293797Y-67907671D01*
X148293793Y-67907664D01*
X148207547Y-67792455D01*
X148207544Y-67792452D01*
X148092335Y-67706206D01*
X148092328Y-67706202D01*
X147957482Y-67655908D01*
X147957483Y-67655908D01*
X147897883Y-67649501D01*
X147897881Y-67649500D01*
X147897873Y-67649500D01*
X147897864Y-67649500D01*
X146102129Y-67649500D01*
X146102123Y-67649501D01*
X146042516Y-67655908D01*
X145907671Y-67706202D01*
X145907664Y-67706206D01*
X145792455Y-67792452D01*
X145792452Y-67792455D01*
X145706206Y-67907664D01*
X145706203Y-67907669D01*
X145657189Y-68039083D01*
X145615317Y-68095016D01*
X145549853Y-68119433D01*
X145481580Y-68104581D01*
X145453326Y-68083430D01*
X145331402Y-67961506D01*
X145331395Y-67961501D01*
X145137834Y-67825967D01*
X145137830Y-67825965D01*
X145137828Y-67825964D01*
X144923663Y-67726097D01*
X144923659Y-67726096D01*
X144923655Y-67726094D01*
X144695413Y-67664938D01*
X144695403Y-67664936D01*
X144460001Y-67644341D01*
X144459999Y-67644341D01*
X144224596Y-67664936D01*
X144224586Y-67664938D01*
X143996344Y-67726094D01*
X143996335Y-67726098D01*
X143782171Y-67825964D01*
X143782169Y-67825965D01*
X143588597Y-67961505D01*
X143421505Y-68128597D01*
X143285965Y-68322169D01*
X143285964Y-68322171D01*
X143186098Y-68536335D01*
X143186094Y-68536344D01*
X143124938Y-68764586D01*
X143124936Y-68764596D01*
X143104341Y-68999999D01*
X143104341Y-69000000D01*
X143124936Y-69235403D01*
X143124938Y-69235413D01*
X143186094Y-69463655D01*
X143186096Y-69463659D01*
X143186097Y-69463663D01*
X143190000Y-69472032D01*
X143285965Y-69677830D01*
X143285967Y-69677834D01*
X143394281Y-69832521D01*
X143421501Y-69871396D01*
X143421506Y-69871402D01*
X143588597Y-70038493D01*
X143588603Y-70038498D01*
X143774158Y-70168425D01*
X143817783Y-70223002D01*
X143824977Y-70292500D01*
X143793454Y-70354855D01*
X143774158Y-70371575D01*
X143588597Y-70501505D01*
X143421505Y-70668597D01*
X143285965Y-70862169D01*
X143285964Y-70862171D01*
X143186098Y-71076335D01*
X143186094Y-71076344D01*
X143124938Y-71304586D01*
X143124936Y-71304596D01*
X143104341Y-71539999D01*
X143104341Y-71540000D01*
X143124936Y-71775403D01*
X143124938Y-71775413D01*
X143186094Y-72003655D01*
X143186096Y-72003659D01*
X143186097Y-72003663D01*
X143266004Y-72175023D01*
X143285965Y-72217830D01*
X143285967Y-72217834D01*
X143331000Y-72282147D01*
X143421501Y-72411396D01*
X143421506Y-72411402D01*
X143588597Y-72578493D01*
X143588603Y-72578498D01*
X143774158Y-72708425D01*
X143817783Y-72763002D01*
X143824977Y-72832500D01*
X143793454Y-72894855D01*
X143774158Y-72911575D01*
X143588597Y-73041505D01*
X143421506Y-73208596D01*
X143285965Y-73402170D01*
X143285962Y-73402175D01*
X143283289Y-73407909D01*
X143237115Y-73460346D01*
X143170909Y-73479500D01*
X105092591Y-73479500D01*
X105026618Y-73460493D01*
X104997524Y-73442211D01*
X104827254Y-73382631D01*
X104827249Y-73382630D01*
X104648004Y-73362435D01*
X104647996Y-73362435D01*
X104468750Y-73382630D01*
X104468745Y-73382631D01*
X104298476Y-73442211D01*
X104145737Y-73538184D01*
X104018184Y-73665737D01*
X103922210Y-73818478D01*
X103862630Y-73988750D01*
X103852837Y-74075668D01*
X103825770Y-74140082D01*
X103817298Y-74149465D01*
X102403584Y-75563181D01*
X102342261Y-75596666D01*
X102315903Y-75599500D01*
X80468499Y-75599500D01*
X80401460Y-75579815D01*
X80355705Y-75527011D01*
X80344499Y-75475500D01*
X80344499Y-75302129D01*
X80344498Y-75302123D01*
X80338091Y-75242516D01*
X80287797Y-75107671D01*
X80287793Y-75107664D01*
X80201547Y-74992455D01*
X80201544Y-74992452D01*
X80086335Y-74906206D01*
X80086328Y-74906202D01*
X79954401Y-74856997D01*
X79898467Y-74815126D01*
X79874050Y-74749662D01*
X79888902Y-74681389D01*
X79910053Y-74653133D01*
X80032108Y-74531078D01*
X80167600Y-74337578D01*
X80267429Y-74123492D01*
X80267432Y-74123486D01*
X80324636Y-73910000D01*
X79427012Y-73910000D01*
X79459925Y-73852993D01*
X79494000Y-73725826D01*
X79494000Y-73594174D01*
X79459925Y-73467007D01*
X79427012Y-73410000D01*
X80324636Y-73410000D01*
X80324635Y-73409999D01*
X80267432Y-73196513D01*
X80267429Y-73196507D01*
X80167600Y-72982422D01*
X80167599Y-72982420D01*
X80032113Y-72788926D01*
X80032108Y-72788920D01*
X79865082Y-72621894D01*
X79671578Y-72486399D01*
X79457492Y-72386570D01*
X79457483Y-72386566D01*
X79448931Y-72384275D01*
X79389270Y-72347910D01*
X79358741Y-72285063D01*
X79367036Y-72215688D01*
X79411521Y-72161810D01*
X79478073Y-72140535D01*
X79481024Y-72140500D01*
X101516378Y-72140500D01*
X101583417Y-72160185D01*
X101629172Y-72212989D01*
X101633420Y-72223547D01*
X101636211Y-72231522D01*
X101732184Y-72384262D01*
X101859738Y-72511816D01*
X102012478Y-72607789D01*
X102052788Y-72621894D01*
X102182745Y-72667368D01*
X102182750Y-72667369D01*
X102361996Y-72687565D01*
X102362000Y-72687565D01*
X102362004Y-72687565D01*
X102541249Y-72667369D01*
X102541252Y-72667368D01*
X102541255Y-72667368D01*
X102711522Y-72607789D01*
X102864262Y-72511816D01*
X102991816Y-72384262D01*
X103087789Y-72231522D01*
X103147368Y-72061255D01*
X103167565Y-71882000D01*
X103155555Y-71775408D01*
X103147369Y-71702750D01*
X103147368Y-71702745D01*
X103090421Y-71540000D01*
X103087789Y-71532478D01*
X102991816Y-71379738D01*
X102864262Y-71252184D01*
X102711521Y-71156210D01*
X102541249Y-71096630D01*
X102453467Y-71086740D01*
X102395792Y-71063478D01*
X102395755Y-71063544D01*
X102395291Y-71063276D01*
X102391859Y-71061892D01*
X102388716Y-71059480D01*
X102301904Y-71009360D01*
X102301904Y-71009359D01*
X102301900Y-71009358D01*
X102251785Y-70980423D01*
X102099057Y-70939499D01*
X101940943Y-70939499D01*
X101933347Y-70939499D01*
X101933331Y-70939500D01*
X56829091Y-70939500D01*
X56762052Y-70919815D01*
X56716711Y-70867909D01*
X56714037Y-70862175D01*
X56714034Y-70862170D01*
X56714033Y-70862169D01*
X56578495Y-70668599D01*
X56578494Y-70668597D01*
X56411402Y-70501506D01*
X56411396Y-70501501D01*
X56225842Y-70371575D01*
X56182217Y-70316998D01*
X56175023Y-70247500D01*
X56206546Y-70185145D01*
X56225842Y-70168425D01*
X56248026Y-70152891D01*
X56411401Y-70038495D01*
X56578495Y-69871401D01*
X56714035Y-69677830D01*
X56813903Y-69463663D01*
X56875063Y-69235408D01*
X56895659Y-69000000D01*
X56875063Y-68764592D01*
X56813903Y-68536337D01*
X56714035Y-68322171D01*
X56708425Y-68314158D01*
X56578494Y-68128597D01*
X56411402Y-67961506D01*
X56411395Y-67961501D01*
X56217834Y-67825967D01*
X56217830Y-67825965D01*
X56217828Y-67825964D01*
X56003663Y-67726097D01*
X56003659Y-67726096D01*
X56003655Y-67726094D01*
X55775413Y-67664938D01*
X55775403Y-67664936D01*
X55540001Y-67644341D01*
X55539999Y-67644341D01*
X55304596Y-67664936D01*
X55304586Y-67664938D01*
X55076344Y-67726094D01*
X55076335Y-67726098D01*
X54862171Y-67825964D01*
X54862169Y-67825965D01*
X54668597Y-67961505D01*
X54501505Y-68128597D01*
X54371575Y-68314158D01*
X54316998Y-68357783D01*
X54247500Y-68364977D01*
X54185145Y-68333454D01*
X54168425Y-68314158D01*
X54038494Y-68128597D01*
X53871402Y-67961506D01*
X53871395Y-67961501D01*
X53677834Y-67825967D01*
X53677830Y-67825965D01*
X53677828Y-67825964D01*
X53463663Y-67726097D01*
X53463659Y-67726096D01*
X53463655Y-67726094D01*
X53235413Y-67664938D01*
X53235403Y-67664936D01*
X53000001Y-67644341D01*
X52999999Y-67644341D01*
X52764596Y-67664936D01*
X52764586Y-67664938D01*
X52536344Y-67726094D01*
X52536335Y-67726098D01*
X52322171Y-67825964D01*
X52322169Y-67825965D01*
X52128597Y-67961505D01*
X51961505Y-68128597D01*
X51825965Y-68322169D01*
X51825964Y-68322171D01*
X51726098Y-68536335D01*
X51726094Y-68536344D01*
X51664938Y-68764586D01*
X51664936Y-68764596D01*
X51644341Y-68999999D01*
X51000500Y-68999999D01*
X51000500Y-67124500D01*
X51020185Y-67057461D01*
X51072989Y-67011706D01*
X51124500Y-67000500D01*
X148875500Y-67000500D01*
X148942539Y-67020185D01*
G37*
%TD.AperFunction*%
%TD*%
M02*
