M48
; DRILL file {KiCad 8.0.7-8.0.7-0~ubuntu22.04.1} date 2025-01-28T10:36:38+0100
; FORMAT={-:-/ absolute / inch / decimal}
; #@! TF.CreationDate,2025-01-28T10:36:38+01:00
; #@! TF.GenerationSoftware,Kicad,Pcbnew,8.0.7-8.0.7-0~ubuntu22.04.1
; #@! TF.FileFunction,MixedPlating,1,2
FMAT,2
INCH
; #@! TA.AperFunction,Plated,PTH,ViaDrill
T1C0.0118
; #@! TA.AperFunction,Plated,PTH,ComponentDrill
T2C0.0315
; #@! TA.AperFunction,Plated,PTH,ComponentDrill
T3C0.0394
%
G90
G05
T1
X2.33Y-3.77
X2.35Y-3.33
X2.37Y-2.97
X2.37Y-3.2
X2.7Y-3.8
X2.71Y-3.19
X2.72Y-2.95
X2.75Y-3.35
X2.89Y-3.5385
X2.97Y-4.34
X2.99Y-3.9
X3.0Y-2.74
X3.0Y-3.55
X3.08Y-3.55
X3.08Y-3.91
X3.18Y-3.98
X3.19Y-3.51
X3.26Y-3.06
X3.27Y-4.02
X3.28Y-3.4844
X3.37Y-4.08
X3.39Y-3.4787
X3.48Y-3.4544
X3.49Y-4.13
X3.58Y-3.43
X3.58Y-4.19
X3.62Y-4.34
X3.68Y-3.4144
X3.69Y-4.2
X3.73Y-3.04
X3.78Y-3.3987
X3.8055Y-3.2723
X3.84Y-3.1
X3.88Y-3.38
X3.94Y-3.28
X3.95Y-3.96
X3.98Y-3.35
X4.03Y-2.83
X4.08Y-3.3
X4.12Y-2.92
X4.18Y-3.26
X4.191Y-3.67
X4.24Y-3.04
X4.25Y-2.81
X4.27Y-4.21
X4.28Y-3.2362
X4.37Y-4.0
X4.46Y-2.99
X4.48Y-3.08
X4.48Y-4.16
X4.58Y-2.8
X4.58Y-2.98
X4.58Y-4.09
X4.68Y-3.01
X4.68Y-4.12
X4.78Y-3.6545
X4.91Y-3.93
X4.93Y-3.7915
X4.93Y-3.6685
X5.01Y-2.78
X5.03Y-3.17
X5.16Y-3.84
X5.26Y-3.65
X5.46Y-2.77
X5.48Y-3.94
X5.49Y-3.18
T2
X2.88Y-3.18
X2.88Y-3.78
X2.98Y-3.18
X2.98Y-3.78
X3.08Y-3.18
X3.08Y-3.78
X3.18Y-3.18
X3.18Y-3.78
X3.28Y-3.18
X3.28Y-3.78
X3.38Y-3.18
X3.38Y-3.78
X3.48Y-3.18
X3.48Y-3.78
X3.58Y-3.18
X3.58Y-3.78
X3.68Y-3.18
X3.68Y-3.78
X3.78Y-3.18
X3.78Y-3.78
X3.88Y-3.18
X3.88Y-3.78
X3.98Y-3.18
X3.98Y-3.78
X4.08Y-3.18
X4.08Y-3.78
X4.18Y-3.18
X4.18Y-3.78
X4.28Y-3.18
X4.28Y-3.78
X4.38Y-3.18
X4.38Y-3.78
X4.48Y-3.18
X4.48Y-3.78
X4.58Y-3.18
X4.58Y-3.78
X4.68Y-3.18
X4.68Y-3.78
X4.78Y-3.18
X4.78Y-3.78
T3
X2.0866Y-2.7165
X2.0866Y-2.8165
X2.0866Y-2.9165
X2.0866Y-3.0165
X2.0866Y-3.1165
X2.0866Y-3.2165
X2.0866Y-3.3165
X2.0866Y-3.4165
X2.0866Y-3.5165
X2.0866Y-3.6165
X2.0866Y-3.7165
X2.0866Y-3.8165
X2.0866Y-3.9165
X2.0866Y-4.0165
X2.0866Y-4.1165
X2.0866Y-4.2165
X2.0866Y-4.3165
X2.1866Y-2.7165
X2.1866Y-2.8165
X2.1866Y-2.9165
X2.1866Y-3.0165
X2.1866Y-3.1165
X2.1866Y-3.2165
X2.1866Y-3.3165
X2.1866Y-3.4165
X2.1866Y-3.5165
X2.1866Y-3.6165
X2.1866Y-3.7165
X2.1866Y-3.8165
X2.1866Y-3.9165
X2.1866Y-4.0165
X2.1866Y-4.1165
X2.1866Y-4.2165
X2.1866Y-4.3165
X3.01Y-2.9
X3.01Y-3.0
X3.11Y-2.9
X3.11Y-3.0
X5.6874Y-2.7165
X5.6874Y-2.8165
X5.6874Y-2.9165
X5.6874Y-3.0165
X5.6874Y-3.1165
X5.6874Y-3.2165
X5.6874Y-3.3165
X5.6874Y-3.4165
X5.6874Y-3.5165
X5.6874Y-3.6165
X5.6874Y-3.7165
X5.6874Y-3.8165
X5.6874Y-3.9165
X5.6874Y-4.0165
X5.6874Y-4.1165
X5.6874Y-4.2165
X5.6874Y-4.3165
X5.7874Y-2.7165
X5.7874Y-2.8165
X5.7874Y-2.9165
X5.7874Y-3.0165
X5.7874Y-3.1165
X5.7874Y-3.2165
X5.7874Y-3.3165
X5.7874Y-3.4165
X5.7874Y-3.5165
X5.7874Y-3.6165
X5.7874Y-3.7165
X5.7874Y-3.8165
X5.7874Y-3.9165
X5.7874Y-4.0165
X5.7874Y-4.1165
X5.7874Y-4.2165
X5.7874Y-4.3165
M30
