M48
; DRILL file {KiCad 8.0.5-8.0.5-0~ubuntu22.04.1} date 2024-10-11T08:26:31+0200
; FORMAT={-:-/ absolute / inch / decimal}
; #@! TF.CreationDate,2024-10-11T08:26:31+02:00
; #@! TF.GenerationSoftware,Kicad,Pcbnew,8.0.5-8.0.5-0~ubuntu22.04.1
; #@! TF.FileFunction,MixedPlating,1,2
FMAT,2
INCH
; #@! TA.AperFunction,Plated,PTH,ViaDrill
T1C0.0157
; #@! TA.AperFunction,Plated,PTH,ComponentDrill
T2C0.0256
; #@! TA.AperFunction,Plated,PTH,ComponentDrill
T3C0.0315
; #@! TA.AperFunction,Plated,PTH,ComponentDrill
T4C0.0394
; #@! TA.AperFunction,Plated,PTH,ComponentDrill
T5C0.0433
; #@! TA.AperFunction,NonPlated,NPTH,ComponentDrill
T6C0.1260
%
G90
G05
T1
X2.0Y-3.79
X2.08Y-3.82
X2.1Y-3.675
X2.14Y-3.88
X2.2344Y-3.8
X2.2901Y-5.6399
X2.305Y-3.815
X2.365Y-5.765
X2.39Y-2.5
X2.4364Y-5.13
X2.49Y-4.428
X2.525Y-4.54
X2.529Y-5.345
X2.54Y-5.2373
X2.5543Y-5.435
X2.555Y-3.935
X2.555Y-4.84
X2.556Y-5.035
X2.56Y-4.93
X2.6262Y-3.3659
X2.63Y-4.88
X2.65Y-2.455
X2.655Y-5.545
X2.665Y-5.195
X2.665Y-5.405
X2.69Y-3.14
X2.69Y-3.3
X2.69Y-3.34
X2.69Y-4.545
X2.69Y-4.667
X2.7Y-4.725
X2.705Y-4.24
X2.725Y-2.655
X2.7275Y-3.9575
X2.73Y-5.29
X2.74Y-2.205
X2.74Y-5.7
X2.75Y-4.585
X2.76Y-5.53
X2.7995Y-4.7091
X2.7995Y-5.0591
X2.7995Y-5.1091
X2.8Y-4.06
X2.8Y-4.51
X2.8451Y-5.53
X2.925Y-2.38
X2.9766Y-3.2094
X2.98Y-3.3
X3.0Y-3.34
X3.007Y-5.72
X3.04Y-5.18
X3.0721Y-5.0091
X3.0721Y-5.0591
X3.0726Y-4.21
X3.0726Y-4.06
X3.0726Y-4.11
X3.0726Y-4.31
X3.0726Y-4.36
X3.08Y-2.25
X3.16Y-4.6
X3.215Y-4.3905
X3.262Y-5.046
X3.388Y-4.4
X3.388Y-4.6
X3.39Y-4.5
X3.415Y-2.6
X3.424Y-4.936
X3.45Y-4.09
X3.47Y-2.44
X3.48Y-2.295
X3.495Y-3.72
X3.4961Y-5.7972
X3.55Y-5.025
X3.565Y-2.89
X3.61Y-4.8091
X3.62Y-3.27
X3.62Y-3.54
X3.65Y-4.84
X3.725Y-3.095
X3.74Y-4.71
X3.7709Y-4.7591
X3.8Y-2.89
X3.8Y-4.09
X3.828Y-4.448
X3.8702Y-3.845
X3.8819Y-2.92
X3.902Y-4.56
X3.916Y-4.242
X3.93Y-3.09
X3.96Y-3.745
X4.005Y-4.065
X4.008Y-3.868
X4.0364Y-2.5588
X4.0864Y-2.5588
X4.1364Y-2.5588
X4.1864Y-2.5588
X4.188Y-4.238
X4.205Y-3.395
X4.2364Y-2.5588
X4.2864Y-2.5588
X4.32Y-3.28
X4.3364Y-2.5588
X4.3384Y-3.2084
X4.3404Y-2.7434
X4.3864Y-2.5588
X4.4Y-2.74
X4.4364Y-2.69
X4.55Y-4.175
X4.58Y-3.795
X4.5819Y-3.59
X4.585Y-3.46
X5.175Y-2.575
X5.1758Y-2.5058
X5.49Y-2.535
X5.6507Y-2.85
X5.68Y-4.7
X5.6978Y-2.5394
X5.7548Y-4.7937
X5.8268Y-4.938
X5.8858Y-3.405
X5.8858Y-4.79
T2
X2.285Y-3.64
X2.7Y-4.46
X2.71Y-5.0
X3.19Y-4.51
X3.19Y-4.96
X3.27Y-5.16
X3.27Y-5.23
X3.27Y-5.3
X3.27Y-5.37
X3.27Y-5.44
X3.27Y-5.51
X3.27Y-5.58
X4.1Y-3.985
X4.1Y-4.24
X4.134Y-4.54
T3
X3.61Y-2.67
X3.7884Y-2.5561
X4.255Y-3.59
X4.255Y-3.69
X4.255Y-3.79
X4.255Y-3.89
X4.255Y-3.99
X4.255Y-4.09
X4.255Y-4.19
X4.255Y-4.29
X4.255Y-4.39
X4.255Y-4.49
X4.255Y-4.59
X4.255Y-4.69
X4.255Y-4.79
X4.255Y-4.89
X4.465Y-3.1894
X4.465Y-3.2894
X4.465Y-3.3894
X4.465Y-3.4894
X4.465Y-3.5894
X4.465Y-3.6894
X4.465Y-3.7894
X4.465Y-3.8894
X4.465Y-3.9894
X4.465Y-4.0894
X4.465Y-4.1894
X4.465Y-4.2894
X4.465Y-4.3894
X4.465Y-4.4894
X4.465Y-4.5894
X4.465Y-4.6894
X4.465Y-4.7894
X4.465Y-4.8894
X4.465Y-4.9894
X4.465Y-5.0894
X4.675Y-2.795
X4.675Y-2.91
X4.855Y-3.59
X4.855Y-3.69
X4.855Y-3.79
X4.855Y-3.89
X4.855Y-3.99
X4.855Y-4.09
X4.855Y-4.19
X4.855Y-4.29
X4.855Y-4.39
X4.855Y-4.49
X4.855Y-4.59
X4.855Y-4.69
X4.855Y-4.79
X4.855Y-4.89
X5.065Y-3.1894
X5.065Y-3.2894
X5.065Y-3.3894
X5.065Y-3.4894
X5.065Y-3.5894
X5.065Y-3.6894
X5.065Y-3.7894
X5.065Y-3.8894
X5.065Y-3.9894
X5.065Y-4.0894
X5.065Y-4.1894
X5.065Y-4.2894
X5.065Y-4.3894
X5.065Y-4.4894
X5.065Y-4.5894
X5.065Y-4.6894
X5.065Y-4.7894
X5.065Y-4.8894
X5.065Y-4.9894
X5.065Y-5.0894
X5.315Y-4.0935
X5.315Y-4.1935
X5.315Y-4.2935
X5.317Y-3.8063
X5.317Y-3.9063
X5.317Y-4.0063
X5.44Y-3.1
X5.44Y-3.4
X5.74Y-3.1
X5.74Y-3.4
T4
X2.0866Y-2.5
X2.0866Y-2.6
X2.0866Y-2.7
X2.0866Y-2.8
X2.0866Y-2.9
X2.0866Y-3.1
X2.0866Y-3.2
X2.0866Y-3.3
X2.0866Y-3.4
X2.0866Y-3.5
X2.0866Y-3.9365
X2.0866Y-4.0365
X2.0866Y-4.1365
X2.0866Y-4.2365
X2.0866Y-4.3365
X2.0866Y-4.4365
X2.0866Y-4.5365
X2.0866Y-4.6365
X2.0866Y-4.7365
X2.0866Y-4.8365
X2.0866Y-4.9365
X2.0866Y-5.0365
X2.0866Y-5.1365
X2.0866Y-5.2365
X2.0866Y-5.3365
X2.0866Y-5.4365
X2.0866Y-5.5365
X2.1866Y-2.5
X2.1866Y-2.6
X2.1866Y-2.7
X2.1866Y-2.8
X2.1866Y-2.9
X2.1866Y-3.1
X2.1866Y-3.2
X2.1866Y-3.3
X2.1866Y-3.4
X2.1866Y-3.5
X2.1866Y-3.9365
X2.1866Y-4.0365
X2.1866Y-4.1365
X2.1866Y-4.2365
X2.1866Y-4.3365
X2.1866Y-4.4365
X2.1866Y-4.5365
X2.1866Y-4.6365
X2.1866Y-4.7365
X2.1866Y-4.8365
X2.1866Y-4.9365
X2.1866Y-5.0365
X2.1866Y-5.1365
X2.1866Y-5.2365
X2.1866Y-5.3365
X2.1866Y-5.4365
X2.1866Y-5.5365
X2.3228Y-3.9365
X2.3228Y-4.0365
X2.3228Y-4.1365
X2.3228Y-4.2365
X2.3228Y-4.3365
X2.3228Y-4.4365
X2.3228Y-4.5365
X2.3228Y-4.6365
X2.3228Y-4.7365
X2.3228Y-4.8365
X2.3228Y-4.9365
X2.3228Y-5.0365
X2.3228Y-5.1365
X2.3228Y-5.2365
X2.3228Y-5.3365
X2.3228Y-5.4365
X2.3228Y-5.5365
X2.43Y-2.14
X2.43Y-2.24
X2.45Y-2.75
X2.45Y-2.85
X2.45Y-2.95
X2.45Y-3.05
X2.45Y-3.15
X2.45Y-3.25
X2.45Y-3.35
X2.45Y-3.45
X2.45Y-3.55
X2.45Y-3.65
X2.47Y-5.64
X2.53Y-2.14
X2.53Y-2.24
X2.55Y-3.65
X2.57Y-5.64
X2.575Y-2.75
X2.65Y-3.65
X2.67Y-5.64
X2.675Y-2.75
X2.75Y-3.65
X2.775Y-2.75
X2.85Y-3.65
X2.875Y-2.75
X2.95Y-3.65
X2.975Y-2.75
X3.05Y-3.65
X3.075Y-2.75
X3.15Y-3.65
X3.175Y-2.75
X3.2108Y-2.1408
X3.2108Y-2.2408
X3.275Y-2.75
X3.275Y-2.85
X3.275Y-2.95
X3.275Y-3.05
X3.275Y-3.15
X3.275Y-3.25
X3.275Y-3.35
X3.275Y-3.45
X3.275Y-3.55
X3.275Y-3.65
X3.3108Y-2.1408
X3.3108Y-2.2408
X3.41Y-5.18
X3.41Y-5.28
X3.41Y-5.38
X3.6365Y-2.0866
X3.6365Y-2.1866
X3.6365Y-2.3228
X3.6365Y-2.4228
X3.6365Y-5.4512
X3.6365Y-5.5512
X3.6365Y-5.6874
X3.6365Y-5.7874
X3.7365Y-2.0866
X3.7365Y-2.1866
X3.7365Y-2.3228
X3.7365Y-2.4228
X3.7365Y-5.4512
X3.7365Y-5.5512
X3.7365Y-5.6874
X3.7365Y-5.7874
X3.8365Y-2.0866
X3.8365Y-2.1866
X3.8365Y-2.3228
X3.8365Y-2.4228
X3.8365Y-5.4512
X3.8365Y-5.5512
X3.8365Y-5.6874
X3.8365Y-5.7874
X3.9365Y-2.0866
X3.9365Y-2.1866
X3.9365Y-2.3228
X3.9365Y-2.4228
X3.9365Y-5.4512
X3.9365Y-5.5512
X3.9365Y-5.6874
X3.9365Y-5.7874
X4.0365Y-2.0866
X4.0365Y-2.1866
X4.0365Y-2.3228
X4.0365Y-2.4228
X4.0365Y-5.4512
X4.0365Y-5.5512
X4.0365Y-5.6874
X4.0365Y-5.7874
X4.1365Y-2.0866
X4.1365Y-2.1866
X4.1365Y-2.3228
X4.1365Y-2.4228
X4.1365Y-5.4512
X4.1365Y-5.5512
X4.1365Y-5.6874
X4.1365Y-5.7874
X4.2365Y-2.0866
X4.2365Y-2.1866
X4.2365Y-2.3228
X4.2365Y-2.4228
X4.2365Y-5.4512
X4.2365Y-5.5512
X4.2365Y-5.6874
X4.2365Y-5.7874
X4.3033Y-5.2963
X4.3365Y-2.0866
X4.3365Y-2.1866
X4.3365Y-2.3228
X4.3365Y-2.4228
X4.3365Y-5.4512
X4.3365Y-5.5512
X4.3365Y-5.6874
X4.3365Y-5.7874
X4.4033Y-5.2963
X4.4365Y-2.0866
X4.4365Y-2.1866
X4.4365Y-2.3228
X4.4365Y-2.4228
X4.4365Y-5.4512
X4.4365Y-5.5512
X4.4365Y-5.6874
X4.4365Y-5.7874
X4.5033Y-5.2963
X4.5365Y-2.0866
X4.5365Y-2.1866
X4.5365Y-2.3228
X4.5365Y-2.4228
X4.5365Y-5.4512
X4.5365Y-5.5512
X4.5365Y-5.6874
X4.5365Y-5.7874
X4.6033Y-5.2963
X4.6365Y-2.0866
X4.6365Y-2.1866
X4.6365Y-2.3228
X4.6365Y-2.4228
X4.6365Y-5.4512
X4.6365Y-5.5512
X4.6365Y-5.6874
X4.6365Y-5.7874
X4.7033Y-5.2963
X4.7365Y-2.0866
X4.7365Y-2.1866
X4.7365Y-2.3228
X4.7365Y-2.4228
X4.7365Y-5.4512
X4.7365Y-5.5512
X4.7365Y-5.6874
X4.7365Y-5.7874
X4.8033Y-5.2963
X4.8365Y-2.0866
X4.8365Y-2.1866
X4.8365Y-2.3228
X4.8365Y-2.4228
X4.8365Y-5.4512
X4.8365Y-5.5512
X4.8365Y-5.6874
X4.8365Y-5.7874
X4.9033Y-5.2963
X4.9365Y-2.0866
X4.9365Y-2.1866
X4.9365Y-2.3228
X4.9365Y-2.4228
X4.9365Y-5.4512
X4.9365Y-5.5512
X4.9365Y-5.6874
X4.9365Y-5.7874
X5.0033Y-5.2963
X5.0365Y-2.0866
X5.0365Y-2.1866
X5.0365Y-2.3228
X5.0365Y-2.4228
X5.0365Y-5.4512
X5.0365Y-5.5512
X5.0365Y-5.6874
X5.0365Y-5.7874
X5.1033Y-5.2963
X5.1365Y-2.0866
X5.1365Y-2.1866
X5.1365Y-2.3228
X5.1365Y-2.4228
X5.1365Y-5.4512
X5.1365Y-5.5512
X5.1365Y-5.6874
X5.1365Y-5.7874
X5.2033Y-5.2963
X5.2365Y-2.0866
X5.2365Y-2.1866
X5.2365Y-2.3228
X5.2365Y-2.4228
X5.2365Y-5.4512
X5.2365Y-5.5512
X5.2365Y-5.6874
X5.2365Y-5.7874
X5.3033Y-5.2963
X5.325Y-3.62
X5.3365Y-2.0866
X5.3365Y-2.1866
X5.3365Y-2.3228
X5.3365Y-2.4228
X5.3365Y-5.4512
X5.3365Y-5.5512
X5.3365Y-5.6874
X5.3365Y-5.7874
X5.4033Y-5.2963
X5.425Y-3.62
X5.4365Y-2.0866
X5.4365Y-2.1866
X5.4365Y-2.3228
X5.4365Y-2.4228
X5.4365Y-5.4512
X5.4365Y-5.5512
X5.4365Y-5.6874
X5.4365Y-5.7874
X5.5033Y-5.2963
X5.5365Y-2.0866
X5.5365Y-2.1866
X5.5365Y-2.3228
X5.5365Y-2.4228
X5.5365Y-5.4512
X5.5365Y-5.5512
X5.5365Y-5.6874
X5.5365Y-5.7874
X5.6033Y-5.2963
X5.729Y-5.1092
X5.729Y-5.2092
T5
X3.98Y-4.7325
X3.98Y-5.0075
X4.13Y-4.87
T6
X2.126Y-2.126
X2.126Y-5.748
X5.748Y-2.126
X5.748Y-5.748
M30
