M48
; DRILL file {KiCad 8.0.5-8.0.5-0~ubuntu22.04.1} date 2024-10-05T19:48:31+0200
; FORMAT={-:-/ absolute / inch / decimal}
; #@! TF.CreationDate,2024-10-05T19:48:31+02:00
; #@! TF.GenerationSoftware,Kicad,Pcbnew,8.0.5-8.0.5-0~ubuntu22.04.1
; #@! TF.FileFunction,MixedPlating,1,2
FMAT,2
INCH
; #@! TA.AperFunction,Plated,PTH,ViaDrill
T1C0.0157
; #@! TA.AperFunction,Plated,PTH,ComponentDrill
T2C0.0256
; #@! TA.AperFunction,Plated,PTH,ComponentDrill
T3C0.0315
; #@! TA.AperFunction,Plated,PTH,ComponentDrill
T4C0.0394
; #@! TA.AperFunction,NonPlated,NPTH,ComponentDrill
T5C0.1260
%
G90
G05
T1
X2.195Y-3.6095
X2.285Y-4.715
X2.3Y-4.3
X2.335Y-3.6095
X2.425Y-4.855
X2.539Y-5.665
X2.565Y-2.27
X2.579Y-5.575
X2.58Y-2.435
X2.605Y-4.3
X2.614Y-5.485
X2.645Y-4.72
X2.649Y-5.375
X2.66Y-4.865
X2.889Y-5.565
X2.925Y-3.6095
X2.93Y-4.3
X2.94Y-2.27
X2.95Y-2.455
X3.023Y-5.256
X3.024Y-5.072
X3.024Y-5.164
X3.026Y-4.98
X3.12Y-5.3
X3.125Y-4.875
X3.13Y-5.115
X3.13Y-5.21
X3.135Y-5.03
X3.17Y-5.35
X3.17Y-5.42
X3.2098Y-3.63
X3.22Y-5.56
X3.224Y-3.574
X3.26Y-5.35
X3.28Y-5.445
X3.285Y-3.535
X3.295Y-5.3
X3.3037Y-2.8687
X3.355Y-2.575
X3.355Y-5.555
X3.39Y-4.77
X3.4077Y-2.8608
X3.4094Y-5.2495
X3.4235Y-3.23
X3.434Y-2.412
X3.4522Y-2.9432
X3.4522Y-3.0557
X3.46Y-4.655
X3.46Y-5.3519
X3.465Y-4.98
X3.494Y-5.21
X3.5022Y-2.9842
X3.5202Y-2.5412
X3.535Y-3.86
X3.54Y-5.165
X3.555Y-3.295
X3.565Y-5.065
X3.568Y-2.0212
X3.575Y-5.32
X3.5794Y-2.6482
X3.602Y-3.196
X3.608Y-2.0212
X3.6232Y-5.28
X3.625Y-3.855
X3.6306Y-2.6482
X3.642Y-2.0212
X3.6522Y-3.0582
X3.665Y-3.71
X3.7362Y-2.5892
X3.745Y-3.965
X3.75Y-4.6
X3.7933Y-2.632
X3.8239Y-3.74
X3.855Y-4.995
X3.875Y-3.305
X3.8772Y-2.7008
X3.8822Y-2.5833
X3.9032Y-3.96
X3.9272Y-2.6212
X3.9401Y-3.74
X3.9544Y-4.4122
X3.955Y-5.14
X3.965Y-3.865
X4.0102Y-3.0102
X4.02Y-3.38
X4.025Y-2.7008
X4.0272Y-2.8832
X4.036Y-5.128
X4.05Y-3.75
X4.055Y-4.4
X4.0772Y-2.6162
X4.125Y-3.835
X4.135Y-2.811
X4.1672Y-2.7033
X4.175Y-3.65
X4.176Y-4.4472
X4.2Y-4.0
X4.22Y-3.71
X4.2262Y-5.1412
X4.2412Y-4.27
X4.2882Y-5.3252
X4.2912Y-3.2982
X4.2919Y-3.2471
X4.306Y-4.73
X4.312Y-3.9
X4.315Y-4.47
X4.32Y-4.585
X4.3312Y-3.2432
X4.3712Y-3.2382
X4.4044Y-5.3252
X4.4162Y-3.2332
X4.4575Y-3.2276
X4.4772Y-4.272
X4.4988Y-3.2248
X4.54Y-3.2212
X4.5412Y-4.4585
X4.5412Y-4.5982
X4.5902Y-2.8822
X4.6232Y-3.0772
X4.6687Y-2.8697
X4.7232Y-2.7906
X4.9862Y-4.3732
X5.0112Y-4.9048
X5.1102Y-2.8772
X5.1551Y-4.7421
X5.2122Y-3.0792
X5.2453Y-4.8927
X5.2662Y-4.8237
X5.268Y-5.016
X5.2744Y-3.1174
X5.2946Y-2.9033
X5.3322Y-3.1312
X5.344Y-5.178
X5.4108Y-2.9033
X5.4552Y-3.2392
X5.4572Y-3.1312
X5.4572Y-3.1882
X5.4582Y-3.3022
X5.4807Y-2.8612
X5.535Y-4.235
X5.58Y-3.69
X5.585Y-3.98
X5.59Y-3.335
X5.65Y-4.525
X5.665Y-4.625
X5.78Y-3.345
X5.795Y-3.69
T2
X3.4922Y-2.7382
X3.5672Y-2.7382
X3.6422Y-2.7382
X3.7172Y-2.7382
X3.7972Y-3.1032
X3.9222Y-3.1032
X4.1122Y-4.7932
X4.1122Y-4.8432
X4.1122Y-4.8932
X4.1122Y-4.9432
X4.1122Y-4.9932
X4.1122Y-5.0432
X4.5802Y-4.8412
X4.5802Y-4.8912
X4.5802Y-4.9412
X4.5802Y-4.9912
X4.5802Y-5.0412
X4.5802Y-5.0912
T3
X2.1548Y-2.7728
X2.1548Y-3.0728
X2.155Y-3.455
X2.155Y-3.755
X2.155Y-4.155
X2.155Y-4.455
X2.2548Y-2.7728
X2.2548Y-3.0728
X2.255Y-3.455
X2.255Y-3.755
X2.255Y-4.155
X2.255Y-4.455
X2.3548Y-2.7728
X2.3548Y-3.0728
X2.355Y-3.455
X2.355Y-3.755
X2.355Y-4.155
X2.355Y-4.455
X2.4548Y-2.7728
X2.4548Y-3.0728
X2.455Y-3.455
X2.455Y-3.755
X2.455Y-4.155
X2.455Y-4.455
X2.5548Y-2.7728
X2.5548Y-3.0728
X2.555Y-3.455
X2.555Y-3.755
X2.555Y-4.155
X2.555Y-4.455
X2.6548Y-2.7728
X2.6548Y-3.0728
X2.655Y-3.455
X2.655Y-3.755
X2.655Y-4.155
X2.655Y-4.455
X2.7548Y-2.7728
X2.7548Y-3.0728
X2.755Y-3.455
X2.755Y-3.755
X2.755Y-4.155
X2.755Y-4.455
X2.8548Y-2.7728
X2.8548Y-3.0728
X2.855Y-3.455
X2.855Y-3.755
X2.855Y-4.155
X2.855Y-4.455
X2.9548Y-2.7728
X2.9548Y-3.0728
X2.955Y-3.455
X2.955Y-3.755
X2.955Y-4.155
X2.955Y-4.455
X3.0548Y-2.7728
X3.0548Y-3.0728
X3.055Y-3.455
X3.055Y-3.755
X3.055Y-4.155
X3.055Y-4.455
X3.1548Y-2.7728
X3.1548Y-3.0728
X3.155Y-3.455
X3.155Y-3.755
X3.155Y-4.155
X3.155Y-4.455
X3.2548Y-2.7728
X3.2548Y-3.0728
X3.255Y-3.455
X3.255Y-3.755
X3.255Y-4.155
X3.255Y-4.455
X3.4462Y-3.3932
X3.4502Y-3.5142
X3.4502Y-4.1142
X3.5502Y-3.5142
X3.5502Y-4.1142
X3.5512Y-3.3932
X3.5512Y-4.2332
X3.6492Y-4.2342
X3.6502Y-3.5142
X3.6502Y-4.1142
X3.6512Y-3.3932
X3.7502Y-3.5142
X3.7502Y-4.1142
X3.7512Y-4.2332
X3.8502Y-3.5142
X3.8502Y-4.1142
X3.8518Y-3.3932
X3.8532Y-4.2322
X3.9502Y-3.5142
X3.9502Y-4.1142
X3.9512Y-4.2322
X4.0502Y-3.5142
X4.0502Y-4.1142
X4.1502Y-3.5142
X4.1502Y-4.1142
X4.1512Y-3.3932
X4.2502Y-3.5142
X4.2502Y-4.1142
X4.3502Y-3.5142
X4.3502Y-4.1142
X4.4502Y-3.5142
X4.4502Y-4.1142
X4.5502Y-3.5142
X4.5502Y-4.1142
X4.6502Y-3.5142
X4.6502Y-4.1142
X4.7502Y-3.5142
X4.7502Y-4.1142
X4.8502Y-3.5142
X4.8502Y-4.1142
X4.9502Y-3.5142
X4.9502Y-4.1142
X5.0502Y-3.5142
X5.0502Y-4.1142
X5.1502Y-3.5142
X5.1502Y-4.1142
X5.2502Y-3.5142
X5.2502Y-4.1142
X5.3502Y-3.5142
X5.3502Y-4.1142
T4
X2.0866Y-5.0365
X2.0866Y-5.1365
X2.0866Y-5.2365
X2.0866Y-5.3365
X2.0866Y-5.4365
X2.0866Y-5.5365
X2.155Y-2.655
X2.155Y-3.19
X2.155Y-3.335
X2.155Y-3.875
X2.155Y-4.035
X2.155Y-4.575
X2.1866Y-5.0365
X2.1866Y-5.1365
X2.1866Y-5.2365
X2.1866Y-5.3365
X2.1866Y-5.4365
X2.1866Y-5.5365
X2.255Y-2.655
X2.255Y-3.19
X2.255Y-3.335
X2.255Y-3.875
X2.255Y-4.035
X2.255Y-4.575
X2.295Y-2.3785
X2.295Y-2.4785
X2.325Y-5.0365
X2.325Y-5.1365
X2.325Y-5.2365
X2.325Y-5.3365
X2.325Y-5.4365
X2.325Y-5.5365
X2.3362Y-2.0832
X2.3362Y-5.7832
X2.355Y-2.655
X2.355Y-3.19
X2.355Y-3.335
X2.355Y-3.875
X2.355Y-4.035
X2.355Y-4.575
X2.395Y-2.3785
X2.395Y-2.4785
X2.425Y-5.0365
X2.425Y-5.1365
X2.425Y-5.2365
X2.425Y-5.3365
X2.425Y-5.4365
X2.425Y-5.5365
X2.4362Y-2.0832
X2.4362Y-5.7832
X2.455Y-2.655
X2.455Y-3.19
X2.455Y-3.335
X2.455Y-3.875
X2.455Y-4.035
X2.455Y-4.575
X2.5362Y-2.0832
X2.5362Y-5.7832
X2.555Y-2.655
X2.555Y-3.19
X2.555Y-3.335
X2.555Y-3.875
X2.555Y-4.035
X2.555Y-4.575
X2.6362Y-2.0832
X2.6362Y-5.7832
X2.655Y-2.655
X2.655Y-3.19
X2.655Y-3.335
X2.655Y-3.875
X2.655Y-4.035
X2.655Y-4.575
X2.7362Y-2.0832
X2.7362Y-5.7832
X2.755Y-2.655
X2.755Y-3.19
X2.755Y-3.335
X2.755Y-3.875
X2.755Y-4.035
X2.755Y-4.575
X2.8362Y-2.0832
X2.8362Y-5.7832
X2.855Y-2.655
X2.855Y-3.19
X2.855Y-3.335
X2.855Y-3.875
X2.855Y-4.035
X2.855Y-4.575
X2.9362Y-2.0832
X2.9362Y-5.7832
X2.955Y-2.655
X2.955Y-3.19
X2.955Y-3.335
X2.955Y-3.875
X2.955Y-4.035
X2.955Y-4.575
X3.0362Y-2.0832
X3.0362Y-5.7832
X3.055Y-2.655
X3.055Y-3.19
X3.055Y-3.335
X3.055Y-3.875
X3.055Y-4.035
X3.055Y-4.575
X3.1362Y-2.0832
X3.1362Y-5.7832
X3.155Y-2.655
X3.155Y-3.19
X3.155Y-3.335
X3.155Y-3.875
X3.155Y-4.035
X3.155Y-4.575
X3.165Y-2.39
X3.165Y-2.49
X3.2362Y-2.0832
X3.2362Y-5.7832
X3.255Y-2.655
X3.255Y-3.19
X3.255Y-3.335
X3.255Y-3.875
X3.255Y-4.035
X3.255Y-4.575
X3.265Y-2.39
X3.265Y-2.49
X3.3362Y-2.0832
X3.3362Y-5.7832
X3.4362Y-2.0832
X3.4362Y-5.7832
X3.6365Y-2.0866
X3.6365Y-2.1866
X3.6365Y-2.3228
X3.6365Y-2.4228
X3.6365Y-5.4512
X3.6365Y-5.5512
X3.6365Y-5.6874
X3.6365Y-5.7874
X3.7365Y-2.0866
X3.7365Y-2.1866
X3.7365Y-2.3228
X3.7365Y-2.4228
X3.7365Y-5.4512
X3.7365Y-5.5512
X3.7365Y-5.6874
X3.7365Y-5.7874
X3.8365Y-2.0866
X3.8365Y-2.1866
X3.8365Y-2.3228
X3.8365Y-2.4228
X3.8365Y-5.4512
X3.8365Y-5.5512
X3.8365Y-5.6874
X3.8365Y-5.7874
X3.9365Y-2.0866
X3.9365Y-2.1866
X3.9365Y-2.3228
X3.9365Y-2.4228
X3.9365Y-5.4512
X3.9365Y-5.5512
X3.9365Y-5.6874
X3.9365Y-5.7874
X4.0365Y-2.0866
X4.0365Y-2.1866
X4.0365Y-2.3228
X4.0365Y-2.4228
X4.0365Y-5.4512
X4.0365Y-5.5512
X4.0365Y-5.6874
X4.0365Y-5.7874
X4.1365Y-2.0866
X4.1365Y-2.1866
X4.1365Y-2.3228
X4.1365Y-2.4228
X4.1365Y-5.4512
X4.1365Y-5.5512
X4.1365Y-5.6874
X4.1365Y-5.7874
X4.2365Y-2.0866
X4.2365Y-2.1866
X4.2365Y-2.3228
X4.2365Y-2.4228
X4.2365Y-5.4512
X4.2365Y-5.5512
X4.2365Y-5.6874
X4.2365Y-5.7874
X4.3365Y-2.0866
X4.3365Y-2.1866
X4.3365Y-2.3228
X4.3365Y-2.4228
X4.3365Y-5.4512
X4.3365Y-5.5512
X4.3365Y-5.6874
X4.3365Y-5.7874
X4.4365Y-2.0866
X4.4365Y-2.1866
X4.4365Y-2.3228
X4.4365Y-2.4228
X4.4365Y-5.4512
X4.4365Y-5.5512
X4.4365Y-5.6874
X4.4365Y-5.7874
X4.5365Y-2.0866
X4.5365Y-2.1866
X4.5365Y-2.3228
X4.5365Y-2.4228
X4.5365Y-5.4512
X4.5365Y-5.5512
X4.5365Y-5.6874
X4.5365Y-5.7874
X4.6365Y-2.0866
X4.6365Y-2.1866
X4.6365Y-2.3228
X4.6365Y-2.4228
X4.6365Y-5.4512
X4.6365Y-5.5512
X4.6365Y-5.6874
X4.6365Y-5.7874
X4.7362Y-4.4167
X4.7362Y-4.5167
X4.7362Y-4.6167
X4.7362Y-4.7167
X4.7362Y-4.8167
X4.7362Y-4.9167
X4.7362Y-5.0167
X4.7362Y-5.1167
X4.7362Y-5.2167
X4.7362Y-5.3167
X4.7365Y-2.0866
X4.7365Y-2.1866
X4.7365Y-2.3228
X4.7365Y-2.4228
X4.7365Y-5.4512
X4.7365Y-5.5512
X4.7365Y-5.6874
X4.7365Y-5.7874
X4.8362Y-4.4167
X4.8362Y-5.3167
X4.8365Y-2.0866
X4.8365Y-2.1866
X4.8365Y-2.3228
X4.8365Y-2.4228
X4.8365Y-5.4512
X4.8365Y-5.5512
X4.8365Y-5.6874
X4.8365Y-5.7874
X4.9362Y-4.4167
X4.9362Y-5.3167
X4.9365Y-2.0866
X4.9365Y-2.1866
X4.9365Y-2.3228
X4.9365Y-2.4228
X4.9365Y-5.4512
X4.9365Y-5.5512
X4.9365Y-5.6874
X4.9365Y-5.7874
X5.0362Y-4.4167
X5.0362Y-5.3167
X5.0365Y-2.0866
X5.0365Y-2.1866
X5.0365Y-2.3228
X5.0365Y-2.4228
X5.0365Y-5.4512
X5.0365Y-5.5512
X5.0365Y-5.6874
X5.0365Y-5.7874
X5.1362Y-4.4167
X5.1362Y-5.3167
X5.1365Y-2.0866
X5.1365Y-2.1866
X5.1365Y-2.3228
X5.1365Y-2.4228
X5.1365Y-5.4512
X5.1365Y-5.5512
X5.1365Y-5.6874
X5.1365Y-5.7874
X5.2362Y-4.4167
X5.2362Y-5.3167
X5.2365Y-2.0866
X5.2365Y-2.1866
X5.2365Y-2.3228
X5.2365Y-2.4228
X5.2365Y-5.4512
X5.2365Y-5.5512
X5.2365Y-5.6874
X5.2365Y-5.7874
X5.3362Y-4.4167
X5.3362Y-5.3167
X5.3365Y-2.0866
X5.3365Y-2.1866
X5.3365Y-2.3228
X5.3365Y-2.4228
X5.3365Y-5.4512
X5.3365Y-5.5512
X5.3365Y-5.6874
X5.3365Y-5.7874
X5.4362Y-4.4167
X5.4362Y-5.3167
X5.4365Y-2.0866
X5.4365Y-2.1866
X5.4365Y-2.3228
X5.4365Y-2.4228
X5.4365Y-5.4512
X5.4365Y-5.5512
X5.4365Y-5.6874
X5.4365Y-5.7874
X5.5362Y-4.4167
X5.5362Y-4.5167
X5.5362Y-4.6167
X5.5362Y-4.7167
X5.5362Y-4.8167
X5.5362Y-4.9167
X5.5362Y-5.0167
X5.5362Y-5.1167
X5.5362Y-5.2167
X5.5362Y-5.3167
X5.5365Y-2.0866
X5.5365Y-2.1866
X5.5365Y-2.3228
X5.5365Y-2.4228
X5.5365Y-5.4512
X5.5365Y-5.5512
X5.5365Y-5.6874
X5.5365Y-5.7874
X5.6874Y-4.9016
X5.6874Y-5.0016
X5.6874Y-5.1016
X5.6874Y-5.2016
X5.6874Y-5.3016
X5.7874Y-4.9016
X5.7874Y-5.0016
X5.7874Y-5.1016
X5.7874Y-5.2016
X5.7874Y-5.3016
T5
X2.126Y-2.126
X2.126Y-5.748
X5.748Y-2.126
X5.748Y-5.748
M30
