%TF.GenerationSoftware,KiCad,Pcbnew,8.0.5-8.0.5-0~ubuntu22.04.1*%
%TF.CreationDate,2024-10-05T19:48:29+02:00*%
%TF.ProjectId,6809_CPU,36383039-5f43-4505-952e-6b696361645f,rev?*%
%TF.SameCoordinates,Original*%
%TF.FileFunction,Soldermask,Bot*%
%TF.FilePolarity,Negative*%
%FSLAX46Y46*%
G04 Gerber Fmt 4.6, Leading zero omitted, Abs format (unit mm)*
G04 Created by KiCad (PCBNEW 8.0.5-8.0.5-0~ubuntu22.04.1) date 2024-10-05 19:48:29*
%MOMM*%
%LPD*%
G01*
G04 APERTURE LIST*
G04 Aperture macros list*
%AMRoundRect*
0 Rectangle with rounded corners*
0 $1 Rounding radius*
0 $2 $3 $4 $5 $6 $7 $8 $9 X,Y pos of 4 corners*
0 Add a 4 corners polygon primitive as box body*
4,1,4,$2,$3,$4,$5,$6,$7,$8,$9,$2,$3,0*
0 Add four circle primitives for the rounded corners*
1,1,$1+$1,$2,$3*
1,1,$1+$1,$4,$5*
1,1,$1+$1,$6,$7*
1,1,$1+$1,$8,$9*
0 Add four rect primitives between the rounded corners*
20,1,$1+$1,$2,$3,$4,$5,0*
20,1,$1+$1,$4,$5,$6,$7,0*
20,1,$1+$1,$6,$7,$8,$9,0*
20,1,$1+$1,$8,$9,$2,$3,0*%
%AMFreePoly0*
4,1,19,0.550000,-0.750000,0.000000,-0.750000,0.000000,-0.744911,-0.071157,-0.744911,-0.207708,-0.704816,-0.327430,-0.627875,-0.420627,-0.520320,-0.479746,-0.390866,-0.500000,-0.250000,-0.500000,0.250000,-0.479746,0.390866,-0.420627,0.520320,-0.327430,0.627875,-0.207708,0.704816,-0.071157,0.744911,0.000000,0.744911,0.000000,0.750000,0.550000,0.750000,0.550000,-0.750000,0.550000,-0.750000,
$1*%
%AMFreePoly1*
4,1,19,0.000000,0.744911,0.071157,0.744911,0.207708,0.704816,0.327430,0.627875,0.420627,0.520320,0.479746,0.390866,0.500000,0.250000,0.500000,-0.250000,0.479746,-0.390866,0.420627,-0.520320,0.327430,-0.627875,0.207708,-0.704816,0.071157,-0.744911,0.000000,-0.744911,0.000000,-0.750000,-0.550000,-0.750000,-0.550000,0.750000,0.000000,0.750000,0.000000,0.744911,0.000000,0.744911,
$1*%
%AMFreePoly2*
4,1,19,0.500000,-0.750000,0.000000,-0.750000,0.000000,-0.744911,-0.071157,-0.744911,-0.207708,-0.704816,-0.327430,-0.627875,-0.420627,-0.520320,-0.479746,-0.390866,-0.500000,-0.250000,-0.500000,0.250000,-0.479746,0.390866,-0.420627,0.520320,-0.327430,0.627875,-0.207708,0.704816,-0.071157,0.744911,0.000000,0.744911,0.000000,0.750000,0.500000,0.750000,0.500000,-0.750000,0.500000,-0.750000,
$1*%
%AMFreePoly3*
4,1,19,0.000000,0.744911,0.071157,0.744911,0.207708,0.704816,0.327430,0.627875,0.420627,0.520320,0.479746,0.390866,0.500000,0.250000,0.500000,-0.250000,0.479746,-0.390866,0.420627,-0.520320,0.327430,-0.627875,0.207708,-0.704816,0.071157,-0.744911,0.000000,-0.744911,0.000000,-0.750000,-0.500000,-0.750000,-0.500000,0.750000,0.000000,0.750000,0.000000,0.744911,0.000000,0.744911,
$1*%
G04 Aperture macros list end*
%ADD10R,1.600000X1.600000*%
%ADD11O,1.600000X1.600000*%
%ADD12R,1.700000X1.700000*%
%ADD13O,1.700000X1.700000*%
%ADD14R,1.000000X1.000000*%
%ADD15R,1.350000X1.350000*%
%ADD16O,1.000000X1.000000*%
%ADD17R,1.600000X2.400000*%
%ADD18O,1.600000X2.400000*%
%ADD19C,3.200000*%
%ADD20FreePoly0,0.000000*%
%ADD21R,1.000000X1.500000*%
%ADD22FreePoly1,0.000000*%
%ADD23RoundRect,0.250000X0.625000X-0.400000X0.625000X0.400000X-0.625000X0.400000X-0.625000X-0.400000X0*%
%ADD24RoundRect,0.250000X-0.650000X0.325000X-0.650000X-0.325000X0.650000X-0.325000X0.650000X0.325000X0*%
%ADD25FreePoly2,180.000000*%
%ADD26FreePoly3,180.000000*%
%ADD27RoundRect,0.250000X0.400000X0.625000X-0.400000X0.625000X-0.400000X-0.625000X0.400000X-0.625000X0*%
%ADD28RoundRect,0.250000X-0.400000X-0.625000X0.400000X-0.625000X0.400000X0.625000X-0.400000X0.625000X0*%
%ADD29FreePoly2,0.000000*%
%ADD30FreePoly3,0.000000*%
%ADD31FreePoly0,180.000000*%
%ADD32FreePoly1,180.000000*%
%ADD33RoundRect,0.250000X-0.325000X-0.650000X0.325000X-0.650000X0.325000X0.650000X-0.325000X0.650000X0*%
%ADD34RoundRect,0.250000X0.325000X0.650000X-0.325000X0.650000X-0.325000X-0.650000X0.325000X-0.650000X0*%
G04 APERTURE END LIST*
D10*
%TO.C,J39*%
X54737000Y-113157000D03*
D11*
X57277000Y-113157000D03*
X59817000Y-113157000D03*
X62357000Y-113157000D03*
X64897000Y-113157000D03*
X67437000Y-113157000D03*
X69977000Y-113157000D03*
X72517000Y-113157000D03*
X75057000Y-113157000D03*
X77597000Y-113157000D03*
X80137000Y-113157000D03*
X82677000Y-113157000D03*
X82677000Y-105537000D03*
X80137000Y-105537000D03*
X77597000Y-105537000D03*
X75057000Y-105537000D03*
X72517000Y-105537000D03*
X69977000Y-105537000D03*
X67437000Y-105537000D03*
X64897000Y-105537000D03*
X62357000Y-105537000D03*
X59817000Y-105537000D03*
X57277000Y-105537000D03*
X54737000Y-105537000D03*
%TD*%
D12*
%TO.C,J8*%
X120300000Y-135043000D03*
D13*
X122840000Y-135043000D03*
X125380000Y-135043000D03*
X127920000Y-135043000D03*
X130460000Y-135043000D03*
X133000000Y-135043000D03*
X135540000Y-135043000D03*
X138080000Y-135043000D03*
X140620000Y-135043000D03*
%TD*%
D12*
%TO.C,J36*%
X61595000Y-140627000D03*
D13*
X59055000Y-140627000D03*
X61595000Y-138087000D03*
X59055000Y-138087000D03*
X61595000Y-135547000D03*
X59055000Y-135547000D03*
X61595000Y-133007000D03*
X59055000Y-133007000D03*
X61595000Y-130467000D03*
X59055000Y-130467000D03*
X61595000Y-127927000D03*
X59055000Y-127927000D03*
%TD*%
D14*
%TO.C,J13*%
X88702400Y-69550995D03*
%TD*%
D12*
%TO.C,J1*%
X92367000Y-53000000D03*
D13*
X92367000Y-55540000D03*
X94907000Y-53000000D03*
X94907000Y-55540000D03*
X97447000Y-53000000D03*
X97447000Y-55540000D03*
X99987000Y-53000000D03*
X99987000Y-55540000D03*
X102527000Y-53000000D03*
X102527000Y-55540000D03*
X105067000Y-53000000D03*
X105067000Y-55540000D03*
X107607000Y-53000000D03*
X107607000Y-55540000D03*
X110147000Y-53000000D03*
X110147000Y-55540000D03*
X112687000Y-53000000D03*
X112687000Y-55540000D03*
X115227000Y-53000000D03*
X115227000Y-55540000D03*
X117767000Y-53000000D03*
X117767000Y-55540000D03*
X120307000Y-53000000D03*
X120307000Y-55540000D03*
X122847000Y-53000000D03*
X122847000Y-55540000D03*
X125387000Y-53000000D03*
X125387000Y-55540000D03*
X127927000Y-53000000D03*
X127927000Y-55540000D03*
X130467000Y-53000000D03*
X130467000Y-55540000D03*
X133007000Y-53000000D03*
X133007000Y-55540000D03*
X135547000Y-53000000D03*
X135547000Y-55540000D03*
X138087000Y-53000000D03*
X138087000Y-55540000D03*
X140627000Y-53000000D03*
X140627000Y-55540000D03*
%TD*%
D14*
%TO.C,J14*%
X94417400Y-69550995D03*
%TD*%
D15*
%TO.C,J9*%
X90201000Y-107523995D03*
%TD*%
D14*
%TO.C,J11*%
X96449400Y-78821995D03*
%TD*%
%TO.C,J31*%
X116337600Y-129317195D03*
D16*
X116337600Y-128047195D03*
X116337600Y-126777195D03*
X116337600Y-125507195D03*
X116337600Y-124237195D03*
X116337600Y-122967195D03*
%TD*%
D12*
%TO.C,J5*%
X120300000Y-112183000D03*
D13*
X122840000Y-112183000D03*
X125380000Y-112183000D03*
X127920000Y-112183000D03*
X130460000Y-112183000D03*
X133000000Y-112183000D03*
X135540000Y-112183000D03*
X138080000Y-112183000D03*
X140620000Y-112183000D03*
%TD*%
D12*
%TO.C,J4*%
X140627000Y-141000000D03*
D13*
X140627000Y-138460000D03*
X138087000Y-141000000D03*
X138087000Y-138460000D03*
X135547000Y-141000000D03*
X135547000Y-138460000D03*
X133007000Y-141000000D03*
X133007000Y-138460000D03*
X130467000Y-141000000D03*
X130467000Y-138460000D03*
X127927000Y-141000000D03*
X127927000Y-138460000D03*
X125387000Y-141000000D03*
X125387000Y-138460000D03*
X122847000Y-141000000D03*
X122847000Y-138460000D03*
X120307000Y-141000000D03*
X120307000Y-138460000D03*
X117767000Y-141000000D03*
X117767000Y-138460000D03*
X115227000Y-141000000D03*
X115227000Y-138460000D03*
X112687000Y-141000000D03*
X112687000Y-138460000D03*
X110147000Y-141000000D03*
X110147000Y-138460000D03*
X107607000Y-141000000D03*
X107607000Y-138460000D03*
X105067000Y-141000000D03*
X105067000Y-138460000D03*
X102527000Y-141000000D03*
X102527000Y-138460000D03*
X99987000Y-141000000D03*
X99987000Y-138460000D03*
X97447000Y-141000000D03*
X97447000Y-138460000D03*
X94907000Y-141000000D03*
X94907000Y-138460000D03*
X92367000Y-141000000D03*
X92367000Y-138460000D03*
%TD*%
D10*
%TO.C,J25*%
X54737000Y-95377000D03*
D11*
X57277000Y-95377000D03*
X59817000Y-95377000D03*
X62357000Y-95377000D03*
X64897000Y-95377000D03*
X67437000Y-95377000D03*
X69977000Y-95377000D03*
X72517000Y-95377000D03*
X75057000Y-95377000D03*
X77597000Y-95377000D03*
X80137000Y-95377000D03*
X82677000Y-95377000D03*
X82677000Y-87757000D03*
X80137000Y-87757000D03*
X77597000Y-87757000D03*
X75057000Y-87757000D03*
X72517000Y-87757000D03*
X69977000Y-87757000D03*
X67437000Y-87757000D03*
X64897000Y-87757000D03*
X62357000Y-87757000D03*
X59817000Y-87757000D03*
X57277000Y-87757000D03*
X54737000Y-87757000D03*
%TD*%
D17*
%TO.C,U22*%
X87635600Y-104501395D03*
D18*
X90175600Y-104501395D03*
X92715600Y-104501395D03*
X95255600Y-104501395D03*
X97795600Y-104501395D03*
X100335600Y-104501395D03*
X102875600Y-104501395D03*
X105415600Y-104501395D03*
X107955600Y-104501395D03*
X110495600Y-104501395D03*
X113035600Y-104501395D03*
X115575600Y-104501395D03*
X118115600Y-104501395D03*
X120655600Y-104501395D03*
X123195600Y-104501395D03*
X125735600Y-104501395D03*
X128275600Y-104501395D03*
X130815600Y-104501395D03*
X133355600Y-104501395D03*
X135895600Y-104501395D03*
X135895600Y-89261395D03*
X133355600Y-89261395D03*
X130815600Y-89261395D03*
X128275600Y-89261395D03*
X125735600Y-89261395D03*
X123195600Y-89261395D03*
X120655600Y-89261395D03*
X118115600Y-89261395D03*
X115575600Y-89261395D03*
X113035600Y-89261395D03*
X110495600Y-89261395D03*
X107955600Y-89261395D03*
X105415600Y-89261395D03*
X102875600Y-89261395D03*
X100335600Y-89261395D03*
X97795600Y-89261395D03*
X95255600Y-89261395D03*
X92715600Y-89261395D03*
X90175600Y-89261395D03*
X87635600Y-89261395D03*
%TD*%
D10*
%TO.C,J24*%
X54732000Y-78049000D03*
D11*
X57272000Y-78049000D03*
X59812000Y-78049000D03*
X62352000Y-78049000D03*
X64892000Y-78049000D03*
X67432000Y-78049000D03*
X69972000Y-78049000D03*
X72512000Y-78049000D03*
X75052000Y-78049000D03*
X77592000Y-78049000D03*
X80132000Y-78049000D03*
X82672000Y-78049000D03*
X82672000Y-70429000D03*
X80132000Y-70429000D03*
X77592000Y-70429000D03*
X75052000Y-70429000D03*
X72512000Y-70429000D03*
X69972000Y-70429000D03*
X67432000Y-70429000D03*
X64892000Y-70429000D03*
X62352000Y-70429000D03*
X59812000Y-70429000D03*
X57272000Y-70429000D03*
X54732000Y-70429000D03*
%TD*%
D15*
%TO.C,J32*%
X90201000Y-86187995D03*
%TD*%
%TO.C,J16*%
X92690200Y-107549395D03*
%TD*%
D12*
%TO.C,J37*%
X55540000Y-140627000D03*
D13*
X53000000Y-140627000D03*
X55540000Y-138087000D03*
X53000000Y-138087000D03*
X55540000Y-135547000D03*
X53000000Y-135547000D03*
X55540000Y-133007000D03*
X53000000Y-133007000D03*
X55540000Y-130467000D03*
X53000000Y-130467000D03*
X55540000Y-127927000D03*
X53000000Y-127927000D03*
%TD*%
D14*
%TO.C,J15*%
X90607400Y-69550995D03*
%TD*%
D15*
%TO.C,J19*%
X105441000Y-86187995D03*
%TD*%
D12*
%TO.C,J40*%
X54737000Y-102489000D03*
D13*
X57277000Y-102489000D03*
X59817000Y-102489000D03*
X62357000Y-102489000D03*
X64897000Y-102489000D03*
X67437000Y-102489000D03*
X69977000Y-102489000D03*
X72517000Y-102489000D03*
X75057000Y-102489000D03*
X77597000Y-102489000D03*
X80137000Y-102489000D03*
X82677000Y-102489000D03*
%TD*%
D12*
%TO.C,J23*%
X54737000Y-98425000D03*
D13*
X57277000Y-98425000D03*
X59817000Y-98425000D03*
X62357000Y-98425000D03*
X64897000Y-98425000D03*
X67437000Y-98425000D03*
X69977000Y-98425000D03*
X72517000Y-98425000D03*
X75057000Y-98425000D03*
X77597000Y-98425000D03*
X80137000Y-98425000D03*
X82677000Y-98425000D03*
%TD*%
D12*
%TO.C,J41*%
X60833000Y-60414000D03*
D13*
X58293000Y-60414000D03*
X60833000Y-62954000D03*
X58293000Y-62954000D03*
%TD*%
D15*
%TO.C,J29*%
X97835000Y-86187995D03*
%TD*%
D12*
%TO.C,J20*%
X59340000Y-146893995D03*
D13*
X61880000Y-146893995D03*
X64420000Y-146893995D03*
X66960000Y-146893995D03*
X69500000Y-146893995D03*
X72040000Y-146893995D03*
X74580000Y-146893995D03*
X77120000Y-146893995D03*
X79660000Y-146893995D03*
X82200000Y-146893995D03*
X84740000Y-146893995D03*
X87280000Y-146893995D03*
%TD*%
D15*
%TO.C,J33*%
X87534000Y-86187995D03*
%TD*%
D12*
%TO.C,J2*%
X140627000Y-147000000D03*
D13*
X140627000Y-144460000D03*
X138087000Y-147000000D03*
X138087000Y-144460000D03*
X135547000Y-147000000D03*
X135547000Y-144460000D03*
X133007000Y-147000000D03*
X133007000Y-144460000D03*
X130467000Y-147000000D03*
X130467000Y-144460000D03*
X127927000Y-147000000D03*
X127927000Y-144460000D03*
X125387000Y-147000000D03*
X125387000Y-144460000D03*
X122847000Y-147000000D03*
X122847000Y-144460000D03*
X120307000Y-147000000D03*
X120307000Y-144460000D03*
X117767000Y-147000000D03*
X117767000Y-144460000D03*
X115227000Y-147000000D03*
X115227000Y-144460000D03*
X112687000Y-147000000D03*
X112687000Y-144460000D03*
X110147000Y-147000000D03*
X110147000Y-144460000D03*
X107607000Y-147000000D03*
X107607000Y-144460000D03*
X105067000Y-147000000D03*
X105067000Y-144460000D03*
X102527000Y-147000000D03*
X102527000Y-144460000D03*
X99987000Y-147000000D03*
X99987000Y-144460000D03*
X97447000Y-147000000D03*
X97447000Y-144460000D03*
X94907000Y-147000000D03*
X94907000Y-144460000D03*
X92367000Y-147000000D03*
X92367000Y-144460000D03*
%TD*%
D14*
%TO.C,J30*%
X104450400Y-128097995D03*
D16*
X104450400Y-126827995D03*
X104450400Y-125557995D03*
X104450400Y-124287995D03*
X104450400Y-123017995D03*
X104450400Y-121747995D03*
%TD*%
D12*
%TO.C,J6*%
X140620000Y-132503000D03*
D13*
X140620000Y-129963000D03*
X140620000Y-127423000D03*
X140620000Y-124883000D03*
X140620000Y-122343000D03*
X140620000Y-119803000D03*
X140620000Y-117263000D03*
X140620000Y-114723000D03*
%TD*%
D12*
%TO.C,J26*%
X54737000Y-67437000D03*
D13*
X57277000Y-67437000D03*
X59817000Y-67437000D03*
X62357000Y-67437000D03*
X64897000Y-67437000D03*
X67437000Y-67437000D03*
X69977000Y-67437000D03*
X72517000Y-67437000D03*
X75057000Y-67437000D03*
X77597000Y-67437000D03*
X80137000Y-67437000D03*
X82677000Y-67437000D03*
%TD*%
D19*
%TO.C,H3*%
X146000000Y-54000000D03*
%TD*%
D12*
%TO.C,J38*%
X54737000Y-116205000D03*
D13*
X57277000Y-116205000D03*
X59817000Y-116205000D03*
X62357000Y-116205000D03*
X64897000Y-116205000D03*
X67437000Y-116205000D03*
X69977000Y-116205000D03*
X72517000Y-116205000D03*
X75057000Y-116205000D03*
X77597000Y-116205000D03*
X80137000Y-116205000D03*
X82677000Y-116205000D03*
%TD*%
D14*
%TO.C,J12*%
X92512400Y-69550995D03*
%TD*%
D15*
%TO.C,J28*%
X92741000Y-86187995D03*
%TD*%
D12*
%TO.C,J7*%
X120300000Y-114723000D03*
D13*
X120300000Y-117263000D03*
X120300000Y-119803000D03*
X120300000Y-122343000D03*
X120300000Y-124883000D03*
X120300000Y-127423000D03*
X120300000Y-129963000D03*
X120300000Y-132503000D03*
%TD*%
D14*
%TO.C,J10*%
X99624400Y-78821995D03*
%TD*%
D12*
%TO.C,J3*%
X92367000Y-59000000D03*
D13*
X92367000Y-61540000D03*
X94907000Y-59000000D03*
X94907000Y-61540000D03*
X97447000Y-59000000D03*
X97447000Y-61540000D03*
X99987000Y-59000000D03*
X99987000Y-61540000D03*
X102527000Y-59000000D03*
X102527000Y-61540000D03*
X105067000Y-59000000D03*
X105067000Y-61540000D03*
X107607000Y-59000000D03*
X107607000Y-61540000D03*
X110147000Y-59000000D03*
X110147000Y-61540000D03*
X112687000Y-59000000D03*
X112687000Y-61540000D03*
X115227000Y-59000000D03*
X115227000Y-61540000D03*
X117767000Y-59000000D03*
X117767000Y-61540000D03*
X120307000Y-59000000D03*
X120307000Y-61540000D03*
X122847000Y-59000000D03*
X122847000Y-61540000D03*
X125387000Y-59000000D03*
X125387000Y-61540000D03*
X127927000Y-59000000D03*
X127927000Y-61540000D03*
X130467000Y-59000000D03*
X130467000Y-61540000D03*
X133007000Y-59000000D03*
X133007000Y-61540000D03*
X135547000Y-59000000D03*
X135547000Y-61540000D03*
X138087000Y-59000000D03*
X138087000Y-61540000D03*
X140627000Y-59000000D03*
X140627000Y-61540000D03*
%TD*%
D12*
%TO.C,J22*%
X54737000Y-81026000D03*
D13*
X57277000Y-81026000D03*
X59817000Y-81026000D03*
X62357000Y-81026000D03*
X64897000Y-81026000D03*
X67437000Y-81026000D03*
X69977000Y-81026000D03*
X72517000Y-81026000D03*
X75057000Y-81026000D03*
X77597000Y-81026000D03*
X80137000Y-81026000D03*
X82677000Y-81026000D03*
%TD*%
D15*
%TO.C,J17*%
X97871800Y-107498595D03*
%TD*%
%TO.C,J18*%
X100361000Y-107498595D03*
%TD*%
D19*
%TO.C,H1*%
X54000000Y-54000000D03*
%TD*%
D12*
%TO.C,J42*%
X82931000Y-60706000D03*
D13*
X80391000Y-60706000D03*
X82931000Y-63246000D03*
X80391000Y-63246000D03*
%TD*%
D19*
%TO.C,H2*%
X54000000Y-146000000D03*
%TD*%
D15*
%TO.C,J27*%
X95281000Y-107523995D03*
%TD*%
D12*
%TO.C,J35*%
X54737000Y-84709000D03*
D13*
X57277000Y-84709000D03*
X59817000Y-84709000D03*
X62357000Y-84709000D03*
X64897000Y-84709000D03*
X67437000Y-84709000D03*
X69977000Y-84709000D03*
X72517000Y-84709000D03*
X75057000Y-84709000D03*
X77597000Y-84709000D03*
X80137000Y-84709000D03*
X82677000Y-84709000D03*
%TD*%
D12*
%TO.C,J34*%
X144460000Y-124500000D03*
D13*
X147000000Y-124500000D03*
X144460000Y-127040000D03*
X147000000Y-127040000D03*
X144460000Y-129580000D03*
X147000000Y-129580000D03*
X144460000Y-132120000D03*
X147000000Y-132120000D03*
X144460000Y-134660000D03*
X147000000Y-134660000D03*
%TD*%
D12*
%TO.C,J21*%
X59340000Y-52913995D03*
D13*
X61880000Y-52913995D03*
X64420000Y-52913995D03*
X66960000Y-52913995D03*
X69500000Y-52913995D03*
X72040000Y-52913995D03*
X74580000Y-52913995D03*
X77120000Y-52913995D03*
X79660000Y-52913995D03*
X82200000Y-52913995D03*
X84740000Y-52913995D03*
X87280000Y-52913995D03*
%TD*%
D19*
%TO.C,H4*%
X146000000Y-146000000D03*
%TD*%
D20*
%TO.C,JP29*%
X89616800Y-67264995D03*
D21*
X90916800Y-67264995D03*
D22*
X92216800Y-67264995D03*
%TD*%
D23*
%TO.C,R11*%
X98405200Y-70187195D03*
X98405200Y-67087195D03*
%TD*%
D24*
%TO.C,C10*%
X89357200Y-141169600D03*
X89357200Y-144119600D03*
%TD*%
D25*
%TO.C,JP13*%
X78867000Y-92837000D03*
D26*
X77567000Y-92837000D03*
%TD*%
D24*
%TO.C,C2*%
X87884000Y-135939000D03*
X87884000Y-138889000D03*
%TD*%
D27*
%TO.C,R14*%
X67590000Y-143891000D03*
X64490000Y-143891000D03*
%TD*%
D28*
%TO.C,R23*%
X73709600Y-128828800D03*
X76809600Y-128828800D03*
%TD*%
D25*
%TO.C,JP24*%
X107370400Y-115519200D03*
D26*
X106070400Y-115519200D03*
%TD*%
D29*
%TO.C,JP27*%
X106071400Y-112959595D03*
D30*
X107371400Y-112959595D03*
%TD*%
D27*
%TO.C,R13*%
X69495000Y-139319000D03*
X66395000Y-139319000D03*
%TD*%
D31*
%TO.C,JP9*%
X74930000Y-124079000D03*
D21*
X73630000Y-124079000D03*
D32*
X72330000Y-124079000D03*
%TD*%
D25*
%TO.C,JP12*%
X71501000Y-92837000D03*
D26*
X70201000Y-92837000D03*
%TD*%
D28*
%TO.C,R20*%
X73761000Y-126492000D03*
X76861000Y-126492000D03*
%TD*%
%TO.C,R22*%
X73709600Y-131165600D03*
X76809600Y-131165600D03*
%TD*%
%TO.C,R24*%
X73608000Y-135890000D03*
X76708000Y-135890000D03*
%TD*%
D31*
%TO.C,JP23*%
X100441800Y-112070595D03*
D21*
X99141800Y-112070595D03*
D32*
X97841800Y-112070595D03*
%TD*%
D28*
%TO.C,R21*%
X73684800Y-133502400D03*
X76784800Y-133502400D03*
%TD*%
%TO.C,R1*%
X109840200Y-72212995D03*
X112940200Y-72212995D03*
%TD*%
D33*
%TO.C,C7*%
X131193000Y-115789800D03*
X134143000Y-115789800D03*
%TD*%
D27*
%TO.C,R15*%
X76480000Y-141351000D03*
X73380000Y-141351000D03*
%TD*%
D31*
%TO.C,JP25*%
X115347000Y-113244995D03*
D21*
X114047000Y-113244995D03*
D32*
X112747000Y-113244995D03*
%TD*%
D34*
%TO.C,C8*%
X148083800Y-120904000D03*
X145133800Y-120904000D03*
%TD*%
D25*
%TO.C,JP15*%
X78867000Y-110617000D03*
D26*
X77567000Y-110617000D03*
%TD*%
D33*
%TO.C,C3*%
X134446000Y-73741995D03*
X137396000Y-73741995D03*
%TD*%
D31*
%TO.C,JP21*%
X113720400Y-108508800D03*
D21*
X112420400Y-108508800D03*
D32*
X111120400Y-108508800D03*
%TD*%
D27*
%TO.C,R8*%
X70384000Y-136525000D03*
X67284000Y-136525000D03*
%TD*%
%TO.C,R10*%
X110348800Y-69799995D03*
X107248800Y-69799995D03*
%TD*%
D25*
%TO.C,JP14*%
X71277000Y-110777000D03*
D26*
X69977000Y-110777000D03*
%TD*%
D27*
%TO.C,R9*%
X109687800Y-75006995D03*
X106587800Y-75006995D03*
%TD*%
D25*
%TO.C,JP11*%
X78867000Y-75565000D03*
D26*
X77567000Y-75565000D03*
%TD*%
D27*
%TO.C,R16*%
X68606000Y-141605000D03*
X65506000Y-141605000D03*
%TD*%
D24*
%TO.C,C6*%
X127285000Y-121631800D03*
X127285000Y-124581800D03*
%TD*%
D31*
%TO.C,JP22*%
X107726000Y-108458000D03*
D21*
X106426000Y-108458000D03*
D32*
X105126000Y-108458000D03*
%TD*%
D25*
%TO.C,JP10*%
X71247000Y-75565000D03*
D26*
X69947000Y-75565000D03*
%TD*%
D31*
%TO.C,JP26*%
X115347000Y-116794995D03*
D21*
X114047000Y-116794995D03*
D32*
X112747000Y-116794995D03*
%TD*%
M02*
