%TF.GenerationSoftware,KiCad,Pcbnew,8.0.7-8.0.7-0~ubuntu22.04.1*%
%TF.CreationDate,2024-12-21T14:21:34+01:00*%
%TF.ProjectId,MMU_v1,4d4d555f-7631-42e6-9b69-6361645f7063,rev?*%
%TF.SameCoordinates,Original*%
%TF.FileFunction,Legend,Bot*%
%TF.FilePolarity,Positive*%
%FSLAX46Y46*%
G04 Gerber Fmt 4.6, Leading zero omitted, Abs format (unit mm)*
G04 Created by KiCad (PCBNEW 8.0.7-8.0.7-0~ubuntu22.04.1) date 2024-12-21 14:21:34*
%MOMM*%
%LPD*%
G01*
G04 APERTURE LIST*
%ADD10C,0.150000*%
%ADD11C,0.120000*%
G04 APERTURE END LIST*
D10*
X89175792Y-76434636D02*
X89223411Y-76482256D01*
X89223411Y-76482256D02*
X89366268Y-76529875D01*
X89366268Y-76529875D02*
X89461506Y-76529875D01*
X89461506Y-76529875D02*
X89604363Y-76482256D01*
X89604363Y-76482256D02*
X89699601Y-76387017D01*
X89699601Y-76387017D02*
X89747220Y-76291779D01*
X89747220Y-76291779D02*
X89794839Y-76101303D01*
X89794839Y-76101303D02*
X89794839Y-75958446D01*
X89794839Y-75958446D02*
X89747220Y-75767970D01*
X89747220Y-75767970D02*
X89699601Y-75672732D01*
X89699601Y-75672732D02*
X89604363Y-75577494D01*
X89604363Y-75577494D02*
X89461506Y-75529875D01*
X89461506Y-75529875D02*
X89366268Y-75529875D01*
X89366268Y-75529875D02*
X89223411Y-75577494D01*
X89223411Y-75577494D02*
X89175792Y-75625113D01*
X88747220Y-76006065D02*
X88413887Y-76006065D01*
X88271030Y-76529875D02*
X88747220Y-76529875D01*
X88747220Y-76529875D02*
X88747220Y-75529875D01*
X88747220Y-75529875D02*
X88271030Y-75529875D01*
X87937696Y-75529875D02*
X87318649Y-75529875D01*
X87318649Y-75529875D02*
X87651982Y-75910827D01*
X87651982Y-75910827D02*
X87509125Y-75910827D01*
X87509125Y-75910827D02*
X87413887Y-75958446D01*
X87413887Y-75958446D02*
X87366268Y-76006065D01*
X87366268Y-76006065D02*
X87318649Y-76101303D01*
X87318649Y-76101303D02*
X87318649Y-76339398D01*
X87318649Y-76339398D02*
X87366268Y-76434636D01*
X87366268Y-76434636D02*
X87413887Y-76482256D01*
X87413887Y-76482256D02*
X87509125Y-76529875D01*
X87509125Y-76529875D02*
X87794839Y-76529875D01*
X87794839Y-76529875D02*
X87890077Y-76482256D01*
X87890077Y-76482256D02*
X87937696Y-76434636D01*
X89885316Y-75252256D02*
X87228173Y-75252256D01*
X89175792Y-78044580D02*
X89223411Y-78092200D01*
X89223411Y-78092200D02*
X89366268Y-78139819D01*
X89366268Y-78139819D02*
X89461506Y-78139819D01*
X89461506Y-78139819D02*
X89604363Y-78092200D01*
X89604363Y-78092200D02*
X89699601Y-77996961D01*
X89699601Y-77996961D02*
X89747220Y-77901723D01*
X89747220Y-77901723D02*
X89794839Y-77711247D01*
X89794839Y-77711247D02*
X89794839Y-77568390D01*
X89794839Y-77568390D02*
X89747220Y-77377914D01*
X89747220Y-77377914D02*
X89699601Y-77282676D01*
X89699601Y-77282676D02*
X89604363Y-77187438D01*
X89604363Y-77187438D02*
X89461506Y-77139819D01*
X89461506Y-77139819D02*
X89366268Y-77139819D01*
X89366268Y-77139819D02*
X89223411Y-77187438D01*
X89223411Y-77187438D02*
X89175792Y-77235057D01*
X88747220Y-77616009D02*
X88413887Y-77616009D01*
X88271030Y-78139819D02*
X88747220Y-78139819D01*
X88747220Y-78139819D02*
X88747220Y-77139819D01*
X88747220Y-77139819D02*
X88271030Y-77139819D01*
X87890077Y-77235057D02*
X87842458Y-77187438D01*
X87842458Y-77187438D02*
X87747220Y-77139819D01*
X87747220Y-77139819D02*
X87509125Y-77139819D01*
X87509125Y-77139819D02*
X87413887Y-77187438D01*
X87413887Y-77187438D02*
X87366268Y-77235057D01*
X87366268Y-77235057D02*
X87318649Y-77330295D01*
X87318649Y-77330295D02*
X87318649Y-77425533D01*
X87318649Y-77425533D02*
X87366268Y-77568390D01*
X87366268Y-77568390D02*
X87937696Y-78139819D01*
X87937696Y-78139819D02*
X87318649Y-78139819D01*
X89885316Y-76862200D02*
X87228173Y-76862200D01*
X54641666Y-80352580D02*
X54689285Y-80400200D01*
X54689285Y-80400200D02*
X54832142Y-80447819D01*
X54832142Y-80447819D02*
X54927380Y-80447819D01*
X54927380Y-80447819D02*
X55070237Y-80400200D01*
X55070237Y-80400200D02*
X55165475Y-80304961D01*
X55165475Y-80304961D02*
X55213094Y-80209723D01*
X55213094Y-80209723D02*
X55260713Y-80019247D01*
X55260713Y-80019247D02*
X55260713Y-79876390D01*
X55260713Y-79876390D02*
X55213094Y-79685914D01*
X55213094Y-79685914D02*
X55165475Y-79590676D01*
X55165475Y-79590676D02*
X55070237Y-79495438D01*
X55070237Y-79495438D02*
X54927380Y-79447819D01*
X54927380Y-79447819D02*
X54832142Y-79447819D01*
X54832142Y-79447819D02*
X54689285Y-79495438D01*
X54689285Y-79495438D02*
X54641666Y-79543057D01*
X54308332Y-79447819D02*
X53689285Y-79447819D01*
X53689285Y-79447819D02*
X54022618Y-79828771D01*
X54022618Y-79828771D02*
X53879761Y-79828771D01*
X53879761Y-79828771D02*
X53784523Y-79876390D01*
X53784523Y-79876390D02*
X53736904Y-79924009D01*
X53736904Y-79924009D02*
X53689285Y-80019247D01*
X53689285Y-80019247D02*
X53689285Y-80257342D01*
X53689285Y-80257342D02*
X53736904Y-80352580D01*
X53736904Y-80352580D02*
X53784523Y-80400200D01*
X53784523Y-80400200D02*
X53879761Y-80447819D01*
X53879761Y-80447819D02*
X54165475Y-80447819D01*
X54165475Y-80447819D02*
X54260713Y-80400200D01*
X54260713Y-80400200D02*
X54308332Y-80352580D01*
X74170666Y-73223580D02*
X74218285Y-73271200D01*
X74218285Y-73271200D02*
X74361142Y-73318819D01*
X74361142Y-73318819D02*
X74456380Y-73318819D01*
X74456380Y-73318819D02*
X74599237Y-73271200D01*
X74599237Y-73271200D02*
X74694475Y-73175961D01*
X74694475Y-73175961D02*
X74742094Y-73080723D01*
X74742094Y-73080723D02*
X74789713Y-72890247D01*
X74789713Y-72890247D02*
X74789713Y-72747390D01*
X74789713Y-72747390D02*
X74742094Y-72556914D01*
X74742094Y-72556914D02*
X74694475Y-72461676D01*
X74694475Y-72461676D02*
X74599237Y-72366438D01*
X74599237Y-72366438D02*
X74456380Y-72318819D01*
X74456380Y-72318819D02*
X74361142Y-72318819D01*
X74361142Y-72318819D02*
X74218285Y-72366438D01*
X74218285Y-72366438D02*
X74170666Y-72414057D01*
X73218285Y-73318819D02*
X73789713Y-73318819D01*
X73503999Y-73318819D02*
X73503999Y-72318819D01*
X73503999Y-72318819D02*
X73599237Y-72461676D01*
X73599237Y-72461676D02*
X73694475Y-72556914D01*
X73694475Y-72556914D02*
X73789713Y-72604533D01*
X74121666Y-79319580D02*
X74169285Y-79367200D01*
X74169285Y-79367200D02*
X74312142Y-79414819D01*
X74312142Y-79414819D02*
X74407380Y-79414819D01*
X74407380Y-79414819D02*
X74550237Y-79367200D01*
X74550237Y-79367200D02*
X74645475Y-79271961D01*
X74645475Y-79271961D02*
X74693094Y-79176723D01*
X74693094Y-79176723D02*
X74740713Y-78986247D01*
X74740713Y-78986247D02*
X74740713Y-78843390D01*
X74740713Y-78843390D02*
X74693094Y-78652914D01*
X74693094Y-78652914D02*
X74645475Y-78557676D01*
X74645475Y-78557676D02*
X74550237Y-78462438D01*
X74550237Y-78462438D02*
X74407380Y-78414819D01*
X74407380Y-78414819D02*
X74312142Y-78414819D01*
X74312142Y-78414819D02*
X74169285Y-78462438D01*
X74169285Y-78462438D02*
X74121666Y-78510057D01*
X73740713Y-78510057D02*
X73693094Y-78462438D01*
X73693094Y-78462438D02*
X73597856Y-78414819D01*
X73597856Y-78414819D02*
X73359761Y-78414819D01*
X73359761Y-78414819D02*
X73264523Y-78462438D01*
X73264523Y-78462438D02*
X73216904Y-78510057D01*
X73216904Y-78510057D02*
X73169285Y-78605295D01*
X73169285Y-78605295D02*
X73169285Y-78700533D01*
X73169285Y-78700533D02*
X73216904Y-78843390D01*
X73216904Y-78843390D02*
X73788332Y-79414819D01*
X73788332Y-79414819D02*
X73169285Y-79414819D01*
X119328329Y-115087234D02*
X119375948Y-115134854D01*
X119375948Y-115134854D02*
X119518805Y-115182473D01*
X119518805Y-115182473D02*
X119614043Y-115182473D01*
X119614043Y-115182473D02*
X119756900Y-115134854D01*
X119756900Y-115134854D02*
X119852138Y-115039615D01*
X119852138Y-115039615D02*
X119899757Y-114944377D01*
X119899757Y-114944377D02*
X119947376Y-114753901D01*
X119947376Y-114753901D02*
X119947376Y-114611044D01*
X119947376Y-114611044D02*
X119899757Y-114420568D01*
X119899757Y-114420568D02*
X119852138Y-114325330D01*
X119852138Y-114325330D02*
X119756900Y-114230092D01*
X119756900Y-114230092D02*
X119614043Y-114182473D01*
X119614043Y-114182473D02*
X119518805Y-114182473D01*
X119518805Y-114182473D02*
X119375948Y-114230092D01*
X119375948Y-114230092D02*
X119328329Y-114277711D01*
X118852138Y-115182473D02*
X118661662Y-115182473D01*
X118661662Y-115182473D02*
X118566424Y-115134854D01*
X118566424Y-115134854D02*
X118518805Y-115087234D01*
X118518805Y-115087234D02*
X118423567Y-114944377D01*
X118423567Y-114944377D02*
X118375948Y-114753901D01*
X118375948Y-114753901D02*
X118375948Y-114372949D01*
X118375948Y-114372949D02*
X118423567Y-114277711D01*
X118423567Y-114277711D02*
X118471186Y-114230092D01*
X118471186Y-114230092D02*
X118566424Y-114182473D01*
X118566424Y-114182473D02*
X118756900Y-114182473D01*
X118756900Y-114182473D02*
X118852138Y-114230092D01*
X118852138Y-114230092D02*
X118899757Y-114277711D01*
X118899757Y-114277711D02*
X118947376Y-114372949D01*
X118947376Y-114372949D02*
X118947376Y-114611044D01*
X118947376Y-114611044D02*
X118899757Y-114706282D01*
X118899757Y-114706282D02*
X118852138Y-114753901D01*
X118852138Y-114753901D02*
X118756900Y-114801520D01*
X118756900Y-114801520D02*
X118566424Y-114801520D01*
X118566424Y-114801520D02*
X118471186Y-114753901D01*
X118471186Y-114753901D02*
X118423567Y-114706282D01*
X118423567Y-114706282D02*
X118375948Y-114611044D01*
X119394520Y-116355734D02*
X119442139Y-116403354D01*
X119442139Y-116403354D02*
X119584996Y-116450973D01*
X119584996Y-116450973D02*
X119680234Y-116450973D01*
X119680234Y-116450973D02*
X119823091Y-116403354D01*
X119823091Y-116403354D02*
X119918329Y-116308115D01*
X119918329Y-116308115D02*
X119965948Y-116212877D01*
X119965948Y-116212877D02*
X120013567Y-116022401D01*
X120013567Y-116022401D02*
X120013567Y-115879544D01*
X120013567Y-115879544D02*
X119965948Y-115689068D01*
X119965948Y-115689068D02*
X119918329Y-115593830D01*
X119918329Y-115593830D02*
X119823091Y-115498592D01*
X119823091Y-115498592D02*
X119680234Y-115450973D01*
X119680234Y-115450973D02*
X119584996Y-115450973D01*
X119584996Y-115450973D02*
X119442139Y-115498592D01*
X119442139Y-115498592D02*
X119394520Y-115546211D01*
X118442139Y-116450973D02*
X119013567Y-116450973D01*
X118727853Y-116450973D02*
X118727853Y-115450973D01*
X118727853Y-115450973D02*
X118823091Y-115593830D01*
X118823091Y-115593830D02*
X118918329Y-115689068D01*
X118918329Y-115689068D02*
X119013567Y-115736687D01*
X117823091Y-115450973D02*
X117727853Y-115450973D01*
X117727853Y-115450973D02*
X117632615Y-115498592D01*
X117632615Y-115498592D02*
X117584996Y-115546211D01*
X117584996Y-115546211D02*
X117537377Y-115641449D01*
X117537377Y-115641449D02*
X117489758Y-115831925D01*
X117489758Y-115831925D02*
X117489758Y-116070020D01*
X117489758Y-116070020D02*
X117537377Y-116260496D01*
X117537377Y-116260496D02*
X117584996Y-116355734D01*
X117584996Y-116355734D02*
X117632615Y-116403354D01*
X117632615Y-116403354D02*
X117727853Y-116450973D01*
X117727853Y-116450973D02*
X117823091Y-116450973D01*
X117823091Y-116450973D02*
X117918329Y-116403354D01*
X117918329Y-116403354D02*
X117965948Y-116355734D01*
X117965948Y-116355734D02*
X118013567Y-116260496D01*
X118013567Y-116260496D02*
X118061186Y-116070020D01*
X118061186Y-116070020D02*
X118061186Y-115831925D01*
X118061186Y-115831925D02*
X118013567Y-115641449D01*
X118013567Y-115641449D02*
X117965948Y-115546211D01*
X117965948Y-115546211D02*
X117918329Y-115498592D01*
X117918329Y-115498592D02*
X117823091Y-115450973D01*
X67858904Y-120269819D02*
X67858904Y-121079342D01*
X67858904Y-121079342D02*
X67811285Y-121174580D01*
X67811285Y-121174580D02*
X67763666Y-121222200D01*
X67763666Y-121222200D02*
X67668428Y-121269819D01*
X67668428Y-121269819D02*
X67477952Y-121269819D01*
X67477952Y-121269819D02*
X67382714Y-121222200D01*
X67382714Y-121222200D02*
X67335095Y-121174580D01*
X67335095Y-121174580D02*
X67287476Y-121079342D01*
X67287476Y-121079342D02*
X67287476Y-120269819D01*
X66906523Y-120269819D02*
X66287476Y-120269819D01*
X66287476Y-120269819D02*
X66620809Y-120650771D01*
X66620809Y-120650771D02*
X66477952Y-120650771D01*
X66477952Y-120650771D02*
X66382714Y-120698390D01*
X66382714Y-120698390D02*
X66335095Y-120746009D01*
X66335095Y-120746009D02*
X66287476Y-120841247D01*
X66287476Y-120841247D02*
X66287476Y-121079342D01*
X66287476Y-121079342D02*
X66335095Y-121174580D01*
X66335095Y-121174580D02*
X66382714Y-121222200D01*
X66382714Y-121222200D02*
X66477952Y-121269819D01*
X66477952Y-121269819D02*
X66763666Y-121269819D01*
X66763666Y-121269819D02*
X66858904Y-121222200D01*
X66858904Y-121222200D02*
X66906523Y-121174580D01*
X76915666Y-79232819D02*
X77248999Y-78756628D01*
X77487094Y-79232819D02*
X77487094Y-78232819D01*
X77487094Y-78232819D02*
X77106142Y-78232819D01*
X77106142Y-78232819D02*
X77010904Y-78280438D01*
X77010904Y-78280438D02*
X76963285Y-78328057D01*
X76963285Y-78328057D02*
X76915666Y-78423295D01*
X76915666Y-78423295D02*
X76915666Y-78566152D01*
X76915666Y-78566152D02*
X76963285Y-78661390D01*
X76963285Y-78661390D02*
X77010904Y-78709009D01*
X77010904Y-78709009D02*
X77106142Y-78756628D01*
X77106142Y-78756628D02*
X77487094Y-78756628D01*
X76058523Y-78232819D02*
X76248999Y-78232819D01*
X76248999Y-78232819D02*
X76344237Y-78280438D01*
X76344237Y-78280438D02*
X76391856Y-78328057D01*
X76391856Y-78328057D02*
X76487094Y-78470914D01*
X76487094Y-78470914D02*
X76534713Y-78661390D01*
X76534713Y-78661390D02*
X76534713Y-79042342D01*
X76534713Y-79042342D02*
X76487094Y-79137580D01*
X76487094Y-79137580D02*
X76439475Y-79185200D01*
X76439475Y-79185200D02*
X76344237Y-79232819D01*
X76344237Y-79232819D02*
X76153761Y-79232819D01*
X76153761Y-79232819D02*
X76058523Y-79185200D01*
X76058523Y-79185200D02*
X76010904Y-79137580D01*
X76010904Y-79137580D02*
X75963285Y-79042342D01*
X75963285Y-79042342D02*
X75963285Y-78804247D01*
X75963285Y-78804247D02*
X76010904Y-78709009D01*
X76010904Y-78709009D02*
X76058523Y-78661390D01*
X76058523Y-78661390D02*
X76153761Y-78613771D01*
X76153761Y-78613771D02*
X76344237Y-78613771D01*
X76344237Y-78613771D02*
X76439475Y-78661390D01*
X76439475Y-78661390D02*
X76487094Y-78709009D01*
X76487094Y-78709009D02*
X76534713Y-78804247D01*
X72216666Y-125238580D02*
X72264285Y-125286200D01*
X72264285Y-125286200D02*
X72407142Y-125333819D01*
X72407142Y-125333819D02*
X72502380Y-125333819D01*
X72502380Y-125333819D02*
X72645237Y-125286200D01*
X72645237Y-125286200D02*
X72740475Y-125190961D01*
X72740475Y-125190961D02*
X72788094Y-125095723D01*
X72788094Y-125095723D02*
X72835713Y-124905247D01*
X72835713Y-124905247D02*
X72835713Y-124762390D01*
X72835713Y-124762390D02*
X72788094Y-124571914D01*
X72788094Y-124571914D02*
X72740475Y-124476676D01*
X72740475Y-124476676D02*
X72645237Y-124381438D01*
X72645237Y-124381438D02*
X72502380Y-124333819D01*
X72502380Y-124333819D02*
X72407142Y-124333819D01*
X72407142Y-124333819D02*
X72264285Y-124381438D01*
X72264285Y-124381438D02*
X72216666Y-124429057D01*
X71359523Y-124667152D02*
X71359523Y-125333819D01*
X71597618Y-124286200D02*
X71835713Y-125000485D01*
X71835713Y-125000485D02*
X71216666Y-125000485D01*
X76915666Y-77200819D02*
X77248999Y-76724628D01*
X77487094Y-77200819D02*
X77487094Y-76200819D01*
X77487094Y-76200819D02*
X77106142Y-76200819D01*
X77106142Y-76200819D02*
X77010904Y-76248438D01*
X77010904Y-76248438D02*
X76963285Y-76296057D01*
X76963285Y-76296057D02*
X76915666Y-76391295D01*
X76915666Y-76391295D02*
X76915666Y-76534152D01*
X76915666Y-76534152D02*
X76963285Y-76629390D01*
X76963285Y-76629390D02*
X77010904Y-76677009D01*
X77010904Y-76677009D02*
X77106142Y-76724628D01*
X77106142Y-76724628D02*
X77487094Y-76724628D01*
X76582332Y-76200819D02*
X75915666Y-76200819D01*
X75915666Y-76200819D02*
X76344237Y-77200819D01*
D11*
%TO.C,C3*%
X55186252Y-77233000D02*
X53763748Y-77233000D01*
X55186252Y-79053000D02*
X53763748Y-79053000D01*
%TO.C,J52*%
X104029000Y-65866000D02*
X104029000Y-64466000D01*
X104729000Y-63766000D02*
X105329000Y-63766000D01*
X105329000Y-66566000D02*
X104729000Y-66566000D01*
X106029000Y-64466000D02*
X106029000Y-65866000D01*
X104029000Y-64466000D02*
G75*
G02*
X104729000Y-63766000I699999J1D01*
G01*
X104729000Y-66566000D02*
G75*
G02*
X104029000Y-65866000I0J700000D01*
G01*
X105329000Y-63766000D02*
G75*
G02*
X106029000Y-64466000I1J-699999D01*
G01*
X106029000Y-65866000D02*
G75*
G02*
X105329000Y-66566000I-700000J0D01*
G01*
%TO.C,J91*%
X121807353Y-84699801D02*
X121807353Y-83299801D01*
X122507353Y-82599801D02*
X123107353Y-82599801D01*
X123107353Y-85399801D02*
X122507353Y-85399801D01*
X123807353Y-83299801D02*
X123807353Y-84699801D01*
X121807353Y-83299801D02*
G75*
G02*
X122507353Y-82599801I700000J0D01*
G01*
X122507353Y-85399801D02*
G75*
G02*
X121807353Y-84699801I-1J699999D01*
G01*
X123107353Y-82599801D02*
G75*
G02*
X123807353Y-83299801I0J-700000D01*
G01*
X123807353Y-84699801D02*
G75*
G02*
X123107353Y-85399801I-699999J-1D01*
G01*
%TO.C,J8*%
X93869000Y-65866000D02*
X93869000Y-64466000D01*
X94569000Y-63766000D02*
X95169000Y-63766000D01*
X95169000Y-66566000D02*
X94569000Y-66566000D01*
X95869000Y-64466000D02*
X95869000Y-65866000D01*
X93869000Y-64466000D02*
G75*
G02*
X94569000Y-63766000I699999J1D01*
G01*
X94569000Y-66566000D02*
G75*
G02*
X93869000Y-65866000I0J700000D01*
G01*
X95169000Y-63766000D02*
G75*
G02*
X95869000Y-64466000I1J-699999D01*
G01*
X95869000Y-65866000D02*
G75*
G02*
X95169000Y-66566000I-700000J0D01*
G01*
%TO.C,J82*%
X134509000Y-65866000D02*
X134509000Y-64466000D01*
X135209000Y-63766000D02*
X135809000Y-63766000D01*
X135809000Y-66566000D02*
X135209000Y-66566000D01*
X136509000Y-64466000D02*
X136509000Y-65866000D01*
X134509000Y-64466000D02*
G75*
G02*
X135209000Y-63766000I699999J1D01*
G01*
X135209000Y-66566000D02*
G75*
G02*
X134509000Y-65866000I0J700000D01*
G01*
X135809000Y-63766000D02*
G75*
G02*
X136509000Y-64466000I1J-699999D01*
G01*
X136509000Y-65866000D02*
G75*
G02*
X135809000Y-66566000I-700000J0D01*
G01*
%TO.C,J78*%
X131969000Y-65866000D02*
X131969000Y-64466000D01*
X132669000Y-63766000D02*
X133269000Y-63766000D01*
X133269000Y-66566000D02*
X132669000Y-66566000D01*
X133969000Y-64466000D02*
X133969000Y-65866000D01*
X131969000Y-64466000D02*
G75*
G02*
X132669000Y-63766000I699999J1D01*
G01*
X132669000Y-66566000D02*
G75*
G02*
X131969000Y-65866000I0J700000D01*
G01*
X133269000Y-63766000D02*
G75*
G02*
X133969000Y-64466000I1J-699999D01*
G01*
X133969000Y-65866000D02*
G75*
G02*
X133269000Y-66566000I-700000J0D01*
G01*
%TO.C,J56*%
X109109000Y-65866000D02*
X109109000Y-64466000D01*
X109809000Y-63766000D02*
X110409000Y-63766000D01*
X110409000Y-66566000D02*
X109809000Y-66566000D01*
X111109000Y-64466000D02*
X111109000Y-65866000D01*
X109109000Y-64466000D02*
G75*
G02*
X109809000Y-63766000I699999J1D01*
G01*
X109809000Y-66566000D02*
G75*
G02*
X109109000Y-65866000I0J700000D01*
G01*
X110409000Y-63766000D02*
G75*
G02*
X111109000Y-64466000I1J-699999D01*
G01*
X111109000Y-65866000D02*
G75*
G02*
X110409000Y-66566000I-700000J0D01*
G01*
%TO.C,J94*%
X129429000Y-84704000D02*
X129429000Y-83304000D01*
X130129000Y-82604000D02*
X130729000Y-82604000D01*
X130729000Y-85404000D02*
X130129000Y-85404000D01*
X131429000Y-83304000D02*
X131429000Y-84704000D01*
X129429000Y-83304000D02*
G75*
G02*
X130129000Y-82604000I700000J0D01*
G01*
X130129000Y-85404000D02*
G75*
G02*
X129429000Y-84704000I-1J699999D01*
G01*
X130729000Y-82604000D02*
G75*
G02*
X131429000Y-83304000I0J-700000D01*
G01*
X131429000Y-84704000D02*
G75*
G02*
X130729000Y-85404000I-699999J-1D01*
G01*
%TO.C,J99*%
X131978293Y-84686575D02*
X131978293Y-83286575D01*
X132678293Y-82586575D02*
X133278293Y-82586575D01*
X133278293Y-85386575D02*
X132678293Y-85386575D01*
X133978293Y-83286575D02*
X133978293Y-84686575D01*
X131978293Y-83286575D02*
G75*
G02*
X132678293Y-82586575I700000J0D01*
G01*
X132678293Y-85386575D02*
G75*
G02*
X131978293Y-84686575I-1J699999D01*
G01*
X133278293Y-82586575D02*
G75*
G02*
X133978293Y-83286575I0J-700000D01*
G01*
X133978293Y-84686575D02*
G75*
G02*
X133278293Y-85386575I-699999J-1D01*
G01*
%TO.C,J84*%
X114189000Y-84704000D02*
X114189000Y-83304000D01*
X114889000Y-82604000D02*
X115489000Y-82604000D01*
X115489000Y-85404000D02*
X114889000Y-85404000D01*
X116189000Y-83304000D02*
X116189000Y-84704000D01*
X114189000Y-83304000D02*
G75*
G02*
X114889000Y-82604000I700000J0D01*
G01*
X114889000Y-85404000D02*
G75*
G02*
X114189000Y-84704000I-1J699999D01*
G01*
X115489000Y-82604000D02*
G75*
G02*
X116189000Y-83304000I0J-700000D01*
G01*
X116189000Y-84704000D02*
G75*
G02*
X115489000Y-85404000I-699999J-1D01*
G01*
%TO.C,J86*%
X119269000Y-84704000D02*
X119269000Y-83304000D01*
X119969000Y-82604000D02*
X120569000Y-82604000D01*
X120569000Y-85404000D02*
X119969000Y-85404000D01*
X121269000Y-83304000D02*
X121269000Y-84704000D01*
X119269000Y-83304000D02*
G75*
G02*
X119969000Y-82604000I700000J0D01*
G01*
X119969000Y-85404000D02*
G75*
G02*
X119269000Y-84704000I-1J699999D01*
G01*
X120569000Y-82604000D02*
G75*
G02*
X121269000Y-83304000I0J-700000D01*
G01*
X121269000Y-84704000D02*
G75*
G02*
X120569000Y-85404000I-699999J-1D01*
G01*
%TO.C,J93*%
X126887353Y-84699801D02*
X126887353Y-83299801D01*
X127587353Y-82599801D02*
X128187353Y-82599801D01*
X128187353Y-85399801D02*
X127587353Y-85399801D01*
X128887353Y-83299801D02*
X128887353Y-84699801D01*
X126887353Y-83299801D02*
G75*
G02*
X127587353Y-82599801I700000J0D01*
G01*
X127587353Y-85399801D02*
G75*
G02*
X126887353Y-84699801I-1J699999D01*
G01*
X128187353Y-82599801D02*
G75*
G02*
X128887353Y-83299801I0J-700000D01*
G01*
X128887353Y-84699801D02*
G75*
G02*
X128187353Y-85399801I-699999J-1D01*
G01*
%TO.C,J85*%
X116729000Y-84704000D02*
X116729000Y-83304000D01*
X117429000Y-82604000D02*
X118029000Y-82604000D01*
X118029000Y-85404000D02*
X117429000Y-85404000D01*
X118729000Y-83304000D02*
X118729000Y-84704000D01*
X116729000Y-83304000D02*
G75*
G02*
X117429000Y-82604000I700000J0D01*
G01*
X117429000Y-85404000D02*
G75*
G02*
X116729000Y-84704000I-1J699999D01*
G01*
X118029000Y-82604000D02*
G75*
G02*
X118729000Y-83304000I0J-700000D01*
G01*
X118729000Y-84704000D02*
G75*
G02*
X118029000Y-85404000I-699999J-1D01*
G01*
%TO.C,J12*%
X91329000Y-84704000D02*
X91329000Y-83304000D01*
X92029000Y-82604000D02*
X92629000Y-82604000D01*
X92629000Y-85404000D02*
X92029000Y-85404000D01*
X93329000Y-83304000D02*
X93329000Y-84704000D01*
X91329000Y-83304000D02*
G75*
G02*
X92029000Y-82604000I700000J0D01*
G01*
X92029000Y-85404000D02*
G75*
G02*
X91329000Y-84704000I-1J699999D01*
G01*
X92629000Y-82604000D02*
G75*
G02*
X93329000Y-83304000I0J-700000D01*
G01*
X93329000Y-84704000D02*
G75*
G02*
X92629000Y-85404000I-699999J-1D01*
G01*
%TO.C,J70*%
X121809000Y-65836000D02*
X121809000Y-64436000D01*
X122509000Y-63736000D02*
X123109000Y-63736000D01*
X123109000Y-66536000D02*
X122509000Y-66536000D01*
X123809000Y-64436000D02*
X123809000Y-65836000D01*
X121809000Y-64436000D02*
G75*
G02*
X122509000Y-63736000I699999J1D01*
G01*
X122509000Y-66536000D02*
G75*
G02*
X121809000Y-65836000I0J700000D01*
G01*
X123109000Y-63736000D02*
G75*
G02*
X123809000Y-64436000I1J-699999D01*
G01*
X123809000Y-65836000D02*
G75*
G02*
X123109000Y-66536000I-700000J0D01*
G01*
%TO.C,J13*%
X93869000Y-84704000D02*
X93869000Y-83304000D01*
X94569000Y-82604000D02*
X95169000Y-82604000D01*
X95169000Y-85404000D02*
X94569000Y-85404000D01*
X95869000Y-83304000D02*
X95869000Y-84704000D01*
X93869000Y-83304000D02*
G75*
G02*
X94569000Y-82604000I700000J0D01*
G01*
X94569000Y-85404000D02*
G75*
G02*
X93869000Y-84704000I-1J699999D01*
G01*
X95169000Y-82604000D02*
G75*
G02*
X95869000Y-83304000I0J-700000D01*
G01*
X95869000Y-84704000D02*
G75*
G02*
X95169000Y-85404000I-699999J-1D01*
G01*
%TO.C,J44*%
X106569000Y-84704000D02*
X106569000Y-83304000D01*
X107269000Y-82604000D02*
X107869000Y-82604000D01*
X107869000Y-85404000D02*
X107269000Y-85404000D01*
X108569000Y-83304000D02*
X108569000Y-84704000D01*
X106569000Y-83304000D02*
G75*
G02*
X107269000Y-82604000I700000J0D01*
G01*
X107269000Y-85404000D02*
G75*
G02*
X106569000Y-84704000I-1J699999D01*
G01*
X107869000Y-82604000D02*
G75*
G02*
X108569000Y-83304000I0J-700000D01*
G01*
X108569000Y-84704000D02*
G75*
G02*
X107869000Y-85404000I-699999J-1D01*
G01*
%TO.C,J92*%
X124347353Y-84699801D02*
X124347353Y-83299801D01*
X125047353Y-82599801D02*
X125647353Y-82599801D01*
X125647353Y-85399801D02*
X125047353Y-85399801D01*
X126347353Y-83299801D02*
X126347353Y-84699801D01*
X124347353Y-83299801D02*
G75*
G02*
X125047353Y-82599801I700000J0D01*
G01*
X125047353Y-85399801D02*
G75*
G02*
X124347353Y-84699801I-1J699999D01*
G01*
X125647353Y-82599801D02*
G75*
G02*
X126347353Y-83299801I0J-700000D01*
G01*
X126347353Y-84699801D02*
G75*
G02*
X125647353Y-85399801I-699999J-1D01*
G01*
%TO.C,J79*%
X111649000Y-84704000D02*
X111649000Y-83304000D01*
X112349000Y-82604000D02*
X112949000Y-82604000D01*
X112949000Y-85404000D02*
X112349000Y-85404000D01*
X113649000Y-83304000D02*
X113649000Y-84704000D01*
X111649000Y-83304000D02*
G75*
G02*
X112349000Y-82604000I700000J0D01*
G01*
X112349000Y-85404000D02*
G75*
G02*
X111649000Y-84704000I-1J699999D01*
G01*
X112949000Y-82604000D02*
G75*
G02*
X113649000Y-83304000I0J-700000D01*
G01*
X113649000Y-84704000D02*
G75*
G02*
X112949000Y-85404000I-699999J-1D01*
G01*
%TO.C,J11*%
X101489000Y-65866000D02*
X101489000Y-64466000D01*
X102189000Y-63766000D02*
X102789000Y-63766000D01*
X102789000Y-66566000D02*
X102189000Y-66566000D01*
X103489000Y-64466000D02*
X103489000Y-65866000D01*
X101489000Y-64466000D02*
G75*
G02*
X102189000Y-63766000I699999J1D01*
G01*
X102189000Y-66566000D02*
G75*
G02*
X101489000Y-65866000I0J700000D01*
G01*
X102789000Y-63766000D02*
G75*
G02*
X103489000Y-64466000I1J-699999D01*
G01*
X103489000Y-65866000D02*
G75*
G02*
X102789000Y-66566000I-700000J0D01*
G01*
%TO.C,C1*%
X73292748Y-73804000D02*
X74715252Y-73804000D01*
X73292748Y-75624000D02*
X74715252Y-75624000D01*
%TO.C,J62*%
X111649000Y-65836000D02*
X111649000Y-64436000D01*
X112349000Y-63736000D02*
X112949000Y-63736000D01*
X112949000Y-66536000D02*
X112349000Y-66536000D01*
X113649000Y-64436000D02*
X113649000Y-65836000D01*
X111649000Y-64436000D02*
G75*
G02*
X112349000Y-63736000I699999J1D01*
G01*
X112349000Y-66536000D02*
G75*
G02*
X111649000Y-65836000I0J700000D01*
G01*
X112949000Y-63736000D02*
G75*
G02*
X113649000Y-64436000I1J-699999D01*
G01*
X113649000Y-65836000D02*
G75*
G02*
X112949000Y-66536000I-700000J0D01*
G01*
%TO.C,C2*%
X74308748Y-79900000D02*
X75731252Y-79900000D01*
X74308748Y-81720000D02*
X75731252Y-81720000D01*
%TO.C,C9*%
X119872915Y-111967654D02*
X118450411Y-111967654D01*
X119872915Y-113787654D02*
X118450411Y-113787654D01*
%TO.C,J55*%
X106569000Y-65836000D02*
X106569000Y-64436000D01*
X107269000Y-63736000D02*
X107869000Y-63736000D01*
X107869000Y-66536000D02*
X107269000Y-66536000D01*
X108569000Y-64436000D02*
X108569000Y-65836000D01*
X106569000Y-64436000D02*
G75*
G02*
X107269000Y-63736000I699999J1D01*
G01*
X107269000Y-66536000D02*
G75*
G02*
X106569000Y-65836000I0J700000D01*
G01*
X107869000Y-63736000D02*
G75*
G02*
X108569000Y-64436000I1J-699999D01*
G01*
X108569000Y-65836000D02*
G75*
G02*
X107869000Y-66536000I-700000J0D01*
G01*
%TO.C,J77*%
X129429000Y-65866000D02*
X129429000Y-64466000D01*
X130129000Y-63766000D02*
X130729000Y-63766000D01*
X130729000Y-66566000D02*
X130129000Y-66566000D01*
X131429000Y-64466000D02*
X131429000Y-65866000D01*
X129429000Y-64466000D02*
G75*
G02*
X130129000Y-63766000I699999J1D01*
G01*
X130129000Y-66566000D02*
G75*
G02*
X129429000Y-65866000I0J700000D01*
G01*
X130729000Y-63766000D02*
G75*
G02*
X131429000Y-64466000I1J-699999D01*
G01*
X131429000Y-65866000D02*
G75*
G02*
X130729000Y-66566000I-700000J0D01*
G01*
%TO.C,C10*%
X118040411Y-116936154D02*
X119462915Y-116936154D01*
X118040411Y-118756154D02*
X119462915Y-118756154D01*
%TO.C,J66*%
X116729000Y-65836000D02*
X116729000Y-64436000D01*
X117429000Y-63736000D02*
X118029000Y-63736000D01*
X118029000Y-66536000D02*
X117429000Y-66536000D01*
X118729000Y-64436000D02*
X118729000Y-65836000D01*
X116729000Y-64436000D02*
G75*
G02*
X117429000Y-63736000I699999J1D01*
G01*
X117429000Y-66536000D02*
G75*
G02*
X116729000Y-65836000I0J700000D01*
G01*
X118029000Y-63736000D02*
G75*
G02*
X118729000Y-64436000I1J-699999D01*
G01*
X118729000Y-65836000D02*
G75*
G02*
X118029000Y-66536000I-700000J0D01*
G01*
%TO.C,U3*%
X69908000Y-112316000D02*
X71858000Y-112316000D01*
X69908000Y-121186000D02*
X71858000Y-121186000D01*
X73808000Y-112316000D02*
X71858000Y-112316000D01*
X73808000Y-121186000D02*
X71858000Y-121186000D01*
X69398000Y-121451000D02*
X68918000Y-121451000D01*
X69158000Y-121121000D01*
X69398000Y-121451000D01*
G36*
X69398000Y-121451000D02*
G01*
X68918000Y-121451000D01*
X69158000Y-121121000D01*
X69398000Y-121451000D01*
G37*
%TO.C,J76*%
X126889000Y-65866000D02*
X126889000Y-64466000D01*
X127589000Y-63766000D02*
X128189000Y-63766000D01*
X128189000Y-66566000D02*
X127589000Y-66566000D01*
X128889000Y-64466000D02*
X128889000Y-65866000D01*
X126889000Y-64466000D02*
G75*
G02*
X127589000Y-63766000I699999J1D01*
G01*
X127589000Y-66566000D02*
G75*
G02*
X126889000Y-65866000I0J700000D01*
G01*
X128189000Y-63766000D02*
G75*
G02*
X128889000Y-64466000I1J-699999D01*
G01*
X128889000Y-65866000D02*
G75*
G02*
X128189000Y-66566000I-700000J0D01*
G01*
%TO.C,J43*%
X104029000Y-84704000D02*
X104029000Y-83304000D01*
X104729000Y-82604000D02*
X105329000Y-82604000D01*
X105329000Y-85404000D02*
X104729000Y-85404000D01*
X106029000Y-83304000D02*
X106029000Y-84704000D01*
X104029000Y-83304000D02*
G75*
G02*
X104729000Y-82604000I700000J0D01*
G01*
X104729000Y-85404000D02*
G75*
G02*
X104029000Y-84704000I-1J699999D01*
G01*
X105329000Y-82604000D02*
G75*
G02*
X106029000Y-83304000I0J-700000D01*
G01*
X106029000Y-84704000D02*
G75*
G02*
X105329000Y-85404000I-699999J-1D01*
G01*
%TO.C,J39*%
X98949000Y-84704000D02*
X98949000Y-83304000D01*
X99649000Y-82604000D02*
X100249000Y-82604000D01*
X100249000Y-85404000D02*
X99649000Y-85404000D01*
X100949000Y-83304000D02*
X100949000Y-84704000D01*
X98949000Y-83304000D02*
G75*
G02*
X99649000Y-82604000I700000J0D01*
G01*
X99649000Y-85404000D02*
G75*
G02*
X98949000Y-84704000I-1J699999D01*
G01*
X100249000Y-82604000D02*
G75*
G02*
X100949000Y-83304000I0J-700000D01*
G01*
X100949000Y-84704000D02*
G75*
G02*
X100249000Y-85404000I-699999J-1D01*
G01*
%TO.C,J63*%
X114189000Y-65836000D02*
X114189000Y-64436000D01*
X114889000Y-63736000D02*
X115489000Y-63736000D01*
X115489000Y-66536000D02*
X114889000Y-66536000D01*
X116189000Y-64436000D02*
X116189000Y-65836000D01*
X114189000Y-64436000D02*
G75*
G02*
X114889000Y-63736000I699999J1D01*
G01*
X114889000Y-66536000D02*
G75*
G02*
X114189000Y-65836000I0J700000D01*
G01*
X115489000Y-63736000D02*
G75*
G02*
X116189000Y-64436000I1J-699999D01*
G01*
X116189000Y-65836000D02*
G75*
G02*
X115489000Y-66536000I-700000J0D01*
G01*
%TO.C,J100*%
X134518293Y-84686575D02*
X134518293Y-83286575D01*
X135218293Y-82586575D02*
X135818293Y-82586575D01*
X135818293Y-85386575D02*
X135218293Y-85386575D01*
X136518293Y-83286575D02*
X136518293Y-84686575D01*
X134518293Y-83286575D02*
G75*
G02*
X135218293Y-82586575I700000J0D01*
G01*
X135218293Y-85386575D02*
G75*
G02*
X134518293Y-84686575I-1J699999D01*
G01*
X135818293Y-82586575D02*
G75*
G02*
X136518293Y-83286575I0J-700000D01*
G01*
X136518293Y-84686575D02*
G75*
G02*
X135818293Y-85386575I-699999J-1D01*
G01*
%TO.C,J9*%
X96409000Y-65866000D02*
X96409000Y-64466000D01*
X97109000Y-63766000D02*
X97709000Y-63766000D01*
X97709000Y-66566000D02*
X97109000Y-66566000D01*
X98409000Y-64466000D02*
X98409000Y-65866000D01*
X96409000Y-64466000D02*
G75*
G02*
X97109000Y-63766000I699999J1D01*
G01*
X97109000Y-66566000D02*
G75*
G02*
X96409000Y-65866000I0J700000D01*
G01*
X97709000Y-63766000D02*
G75*
G02*
X98409000Y-64466000I1J-699999D01*
G01*
X98409000Y-65866000D02*
G75*
G02*
X97709000Y-66566000I-700000J0D01*
G01*
%TO.C,J14*%
X96409000Y-84704000D02*
X96409000Y-83304000D01*
X97109000Y-82604000D02*
X97709000Y-82604000D01*
X97709000Y-85404000D02*
X97109000Y-85404000D01*
X98409000Y-83304000D02*
X98409000Y-84704000D01*
X96409000Y-83304000D02*
G75*
G02*
X97109000Y-82604000I700000J0D01*
G01*
X97109000Y-85404000D02*
G75*
G02*
X96409000Y-84704000I-1J699999D01*
G01*
X97709000Y-82604000D02*
G75*
G02*
X98409000Y-83304000I0J-700000D01*
G01*
X98409000Y-84704000D02*
G75*
G02*
X97709000Y-85404000I-699999J-1D01*
G01*
%TO.C,J69*%
X119269000Y-65836000D02*
X119269000Y-64436000D01*
X119969000Y-63736000D02*
X120569000Y-63736000D01*
X120569000Y-66536000D02*
X119969000Y-66536000D01*
X121269000Y-64436000D02*
X121269000Y-65836000D01*
X119269000Y-64436000D02*
G75*
G02*
X119969000Y-63736000I699999J1D01*
G01*
X119969000Y-66536000D02*
G75*
G02*
X119269000Y-65836000I0J700000D01*
G01*
X120569000Y-63736000D02*
G75*
G02*
X121269000Y-64436000I1J-699999D01*
G01*
X121269000Y-65836000D02*
G75*
G02*
X120569000Y-66536000I-700000J0D01*
G01*
%TO.C,R6*%
X80778064Y-77868000D02*
X79323936Y-77868000D01*
X80778064Y-79688000D02*
X79323936Y-79688000D01*
%TO.C,J75*%
X124349000Y-65836000D02*
X124349000Y-64436000D01*
X125049000Y-63736000D02*
X125649000Y-63736000D01*
X125649000Y-66536000D02*
X125049000Y-66536000D01*
X126349000Y-64436000D02*
X126349000Y-65836000D01*
X124349000Y-64436000D02*
G75*
G02*
X125049000Y-63736000I699999J1D01*
G01*
X125049000Y-66536000D02*
G75*
G02*
X124349000Y-65836000I0J700000D01*
G01*
X125649000Y-63736000D02*
G75*
G02*
X126349000Y-64436000I1J-699999D01*
G01*
X126349000Y-65836000D02*
G75*
G02*
X125649000Y-66536000I-700000J0D01*
G01*
%TO.C,C4*%
X71224748Y-121683000D02*
X72647252Y-121683000D01*
X71224748Y-123503000D02*
X72647252Y-123503000D01*
%TO.C,J41*%
X101489000Y-84704000D02*
X101489000Y-83304000D01*
X102189000Y-82604000D02*
X102789000Y-82604000D01*
X102789000Y-85404000D02*
X102189000Y-85404000D01*
X103489000Y-83304000D02*
X103489000Y-84704000D01*
X101489000Y-83304000D02*
G75*
G02*
X102189000Y-82604000I700000J0D01*
G01*
X102189000Y-85404000D02*
G75*
G02*
X101489000Y-84704000I-1J699999D01*
G01*
X102789000Y-82604000D02*
G75*
G02*
X103489000Y-83304000I0J-700000D01*
G01*
X103489000Y-84704000D02*
G75*
G02*
X102789000Y-85404000I-699999J-1D01*
G01*
%TO.C,J83*%
X137049000Y-65866000D02*
X137049000Y-64466000D01*
X137749000Y-63766000D02*
X138349000Y-63766000D01*
X138349000Y-66566000D02*
X137749000Y-66566000D01*
X139049000Y-64466000D02*
X139049000Y-65866000D01*
X137049000Y-64466000D02*
G75*
G02*
X137749000Y-63766000I699999J1D01*
G01*
X137749000Y-66566000D02*
G75*
G02*
X137049000Y-65866000I0J700000D01*
G01*
X138349000Y-63766000D02*
G75*
G02*
X139049000Y-64466000I1J-699999D01*
G01*
X139049000Y-65866000D02*
G75*
G02*
X138349000Y-66566000I-700000J0D01*
G01*
%TO.C,J10*%
X98949000Y-65866000D02*
X98949000Y-64466000D01*
X99649000Y-63766000D02*
X100249000Y-63766000D01*
X100249000Y-66566000D02*
X99649000Y-66566000D01*
X100949000Y-64466000D02*
X100949000Y-65866000D01*
X98949000Y-64466000D02*
G75*
G02*
X99649000Y-63766000I699999J1D01*
G01*
X99649000Y-66566000D02*
G75*
G02*
X98949000Y-65866000I0J700000D01*
G01*
X100249000Y-63766000D02*
G75*
G02*
X100949000Y-64466000I1J-699999D01*
G01*
X100949000Y-65866000D02*
G75*
G02*
X100249000Y-66566000I-700000J0D01*
G01*
%TO.C,R7*%
X80778064Y-75582000D02*
X79323936Y-75582000D01*
X80778064Y-77402000D02*
X79323936Y-77402000D01*
%TD*%
M02*
