M48
; DRILL file {KiCad 8.0.7-8.0.7-0~ubuntu22.04.1} date 2024-12-21T14:21:32+0100
; FORMAT={-:-/ absolute / inch / decimal}
; #@! TF.CreationDate,2024-12-21T14:21:32+01:00
; #@! TF.GenerationSoftware,Kicad,Pcbnew,8.0.7-8.0.7-0~ubuntu22.04.1
; #@! TF.FileFunction,MixedPlating,1,2
FMAT,2
INCH
; #@! TA.AperFunction,Plated,PTH,ViaDrill
T1C0.0157
; #@! TA.AperFunction,Plated,PTH,ComponentDrill
T2C0.0276
; #@! TA.AperFunction,Plated,PTH,ComponentDrill
T3C0.0315
; #@! TA.AperFunction,Plated,PTH,ComponentDrill
T4C0.0394
; #@! TA.AperFunction,NonPlated,NPTH,ComponentDrill
T5C0.1260
%
G90
G05
T1
X1.9898Y-5.6546
X2.0094Y-2.3081
X2.0685Y-3.2629
X2.0916Y-3.2065
X2.1762Y-3.174
X2.2063Y-2.3869
X2.2654Y-5.8711
X2.2949Y-3.4204
X2.3047Y-2.0326
X2.6Y-5.3593
X2.6394Y-2.1507
X2.7166Y-5.0665
X2.7166Y-5.1885
X2.7316Y-4.5965
X2.7616Y-3.2315
X2.7772Y-3.6467
X2.7816Y-3.0815
X2.8116Y-3.1415
X2.8165Y-4.0404
X2.8461Y-5.0665
X2.8555Y-2.9415
X2.8902Y-4.8265
X2.8955Y-3.1815
X2.915Y-5.379
X2.9716Y-2.9415
X2.974Y-2.3278
X2.9757Y-5.0665
X3.0116Y-3.1815
X3.0266Y-4.8965
X3.1512Y-4.8081
X3.2066Y-5.8494
X3.2216Y-3.1915
X3.2693Y-5.379
X3.289Y-3.6664
X3.3087Y-5.0641
X3.3283Y-4.0601
X3.4858Y-2.4066
X3.5365Y-2.9228
X3.5365Y-3.0228
X3.5365Y-3.1213
X3.6365Y-2.9228
X3.6365Y-3.1213
X3.6666Y-3.7815
X3.7365Y-2.9228
X3.7365Y-3.1213
X3.7614Y-4.8081
X3.8216Y-3.7515
X3.8365Y-2.9228
X3.8365Y-3.1213
X3.8402Y-5.0444
X3.9189Y-5.3003
X3.9365Y-2.9228
X3.9365Y-3.1213
X4.0365Y-2.9228
X4.0365Y-3.1213
X4.1365Y-2.9228
X4.1365Y-3.1213
X4.2365Y-2.9228
X4.2365Y-3.1213
X4.2535Y-5.2806
X4.3365Y-2.9228
X4.3365Y-3.1213
X4.4365Y-2.9228
X4.4365Y-3.1213
X4.5365Y-2.9228
X4.5365Y-3.1213
X4.6079Y-5.2806
X4.6172Y-4.6396
X4.6333Y-4.444
X4.6365Y-2.9228
X4.6365Y-3.1213
X4.7333Y-4.6396
X4.7365Y-2.9228
X4.7365Y-3.1213
X4.7389Y-4.7096
X4.7448Y-4.4487
X4.7889Y-4.6896
X4.8089Y-4.4596
X4.8365Y-2.9228
X4.8365Y-3.1213
X4.8389Y-4.6796
X4.9031Y-5.2806
X4.9365Y-2.9228
X4.9365Y-3.1213
X5.0365Y-2.9228
X5.0365Y-3.1213
X5.1197Y-5.2806
X5.1365Y-2.9228
X5.1365Y-3.1213
X5.2365Y-2.9228
X5.2365Y-3.1213
X5.3365Y-2.9228
X5.3365Y-3.1213
X5.4365Y-2.9228
X5.4365Y-3.0228
X5.4365Y-3.1213
X5.5528Y-4.9656
X5.5528Y-5.32
X5.6709Y-5.4971
X5.8087Y-4.6704
X5.8087Y-5.4774
T2
X2.5866Y-4.6465
X2.5866Y-4.6965
X2.5866Y-4.7465
X3.0866Y-4.5965
X3.0866Y-4.6465
X3.0866Y-4.6965
T3
X2.2866Y-3.5365
X2.2866Y-3.6365
X2.2866Y-3.7365
X2.2866Y-3.8365
X2.2866Y-3.9365
X2.2866Y-4.0365
X2.2866Y-4.1365
X2.2866Y-4.2365
X2.2866Y-4.3365
X4.1339Y-4.0551
X4.1339Y-4.1339
X4.1339Y-4.2126
X4.1339Y-4.2913
X4.1339Y-4.3701
X4.1339Y-4.4488
X4.1339Y-4.5276
X4.1339Y-4.6063
X4.1339Y-4.685
X4.1339Y-4.7638
X4.1339Y-4.8425
X4.1339Y-4.9213
X4.1339Y-5.0
X4.1339Y-5.0787
X4.2126Y-4.0551
X4.2126Y-5.0787
X4.2913Y-4.0551
X4.2913Y-5.0787
X4.3701Y-4.0551
X4.3701Y-5.0787
X4.4488Y-4.0551
X4.4488Y-5.0787
X4.5276Y-4.0551
X4.5276Y-5.0787
X4.6063Y-4.0551
X4.6063Y-5.0787
X4.685Y-4.0551
X4.685Y-5.0787
X4.7638Y-4.0551
X4.7638Y-5.0787
X4.8425Y-4.0551
X4.8425Y-5.0787
X4.9213Y-4.0551
X4.9213Y-5.0787
X5.0Y-4.0551
X5.0Y-5.0787
X5.0787Y-4.0551
X5.1575Y-4.0551
X5.2362Y-4.0551
X5.2362Y-4.1339
X5.2362Y-4.2126
X5.2362Y-4.2913
X5.2362Y-4.3701
X5.2362Y-4.4488
X5.2362Y-4.5276
X5.2362Y-4.6063
X5.2362Y-4.685
X5.2362Y-4.7638
X5.2362Y-4.8425
X5.2362Y-4.9213
X5.2362Y-5.0
X5.2362Y-5.0787
X5.4916Y-3.7941
X5.4916Y-3.8728
X5.4916Y-3.9516
X5.4916Y-4.0303
X5.4916Y-4.1091
X5.4916Y-4.1878
X5.4916Y-4.2665
X5.4916Y-4.3453
X5.4916Y-4.424
X5.4916Y-4.5028
T4
X2.0866Y-2.5365
X2.0866Y-2.6365
X2.0866Y-2.7365
X2.0866Y-2.8365
X2.0866Y-2.9365
X2.0866Y-3.6365
X2.0866Y-3.7365
X2.0866Y-3.8365
X2.0866Y-3.9365
X2.0866Y-4.0365
X2.0866Y-4.1365
X2.0866Y-4.2365
X2.0866Y-4.3365
X2.0866Y-4.4365
X2.0866Y-4.5365
X2.0866Y-4.6365
X2.0866Y-4.7365
X2.0866Y-4.8365
X2.0866Y-4.9365
X2.0866Y-5.0365
X2.0866Y-5.1365
X2.0866Y-5.2365
X2.0866Y-5.3365
X2.0866Y-5.4365
X2.0866Y-5.5365
X2.1866Y-2.5365
X2.1866Y-2.6365
X2.1866Y-2.7365
X2.1866Y-2.8365
X2.1866Y-2.9365
X2.1866Y-3.6365
X2.1866Y-3.7365
X2.1866Y-3.8365
X2.1866Y-3.9365
X2.1866Y-4.0365
X2.1866Y-4.1365
X2.1866Y-4.2365
X2.1866Y-4.3365
X2.1866Y-4.4365
X2.1866Y-4.5365
X2.1866Y-4.6365
X2.1866Y-4.7365
X2.1866Y-4.8365
X2.1866Y-4.9365
X2.1866Y-5.0365
X2.1866Y-5.1365
X2.1866Y-5.2365
X2.1866Y-5.3365
X2.1866Y-5.4365
X2.1866Y-5.5365
X2.3116Y-4.8365
X2.3116Y-4.9365
X2.3116Y-5.0365
X2.3116Y-5.1365
X2.3116Y-5.2365
X2.3116Y-5.3365
X2.3116Y-5.4365
X2.3116Y-5.5365
X2.3674Y-2.2973
X2.3674Y-2.3973
X2.4116Y-4.8365
X2.4116Y-4.9365
X2.4116Y-5.0365
X2.4116Y-5.1365
X2.4116Y-5.2365
X2.4116Y-5.3365
X2.4116Y-5.4365
X2.4116Y-5.5365
X2.4616Y-2.6719
X2.4616Y-2.7719
X2.4616Y-2.8719
X2.4616Y-2.9719
X2.4616Y-3.0719
X2.4616Y-3.1719
X2.4616Y-3.2719
X2.4616Y-3.3719
X2.4616Y-3.4719
X2.4674Y-2.2973
X2.4674Y-2.3973
X2.5616Y-2.6715
X2.5616Y-3.4715
X2.6616Y-2.6715
X2.6616Y-3.4715
X2.7616Y-2.6715
X2.7616Y-3.4715
X2.8616Y-2.6715
X2.8616Y-3.4715
X2.9616Y-2.6715
X2.9616Y-3.4715
X3.0616Y-2.6715
X3.0616Y-3.4715
X3.1616Y-2.6715
X3.1616Y-3.4715
X3.2616Y-2.6715
X3.2616Y-3.4715
X3.285Y-2.115
X3.285Y-2.215
X3.3616Y-2.6715
X3.3616Y-2.7715
X3.3616Y-2.8715
X3.3616Y-2.9715
X3.3616Y-3.0715
X3.3616Y-3.1715
X3.3616Y-3.2715
X3.3616Y-3.3715
X3.3616Y-3.4715
X3.385Y-2.115
X3.385Y-2.215
X3.5365Y-3.5628
X3.5365Y-3.6628
X3.6365Y-2.0866
X3.6365Y-2.1866
X3.6365Y-2.3228
X3.6365Y-2.4228
X3.6365Y-3.5628
X3.6365Y-3.6628
X3.6365Y-5.4512
X3.6365Y-5.5512
X3.6365Y-5.6874
X3.6365Y-5.7874
X3.7365Y-2.0866
X3.7365Y-2.1866
X3.7365Y-2.3228
X3.7365Y-2.4228
X3.7365Y-3.5628
X3.7365Y-3.6628
X3.7365Y-5.4512
X3.7365Y-5.5512
X3.7365Y-5.6874
X3.7365Y-5.7874
X3.8365Y-2.0866
X3.8365Y-2.1866
X3.8365Y-2.3228
X3.8365Y-2.4228
X3.8365Y-3.5628
X3.8365Y-3.6628
X3.8365Y-5.4512
X3.8365Y-5.5512
X3.8365Y-5.6874
X3.8365Y-5.7874
X3.9365Y-2.0866
X3.9365Y-2.1866
X3.9365Y-2.3228
X3.9365Y-2.4228
X3.9365Y-3.5628
X3.9365Y-3.6628
X3.9365Y-5.4512
X3.9365Y-5.5512
X3.9365Y-5.6874
X3.9365Y-5.7874
X4.0365Y-2.0866
X4.0365Y-2.1866
X4.0365Y-2.3228
X4.0365Y-2.4228
X4.0365Y-3.5628
X4.0365Y-3.6628
X4.0365Y-5.4512
X4.0365Y-5.5512
X4.0365Y-5.6874
X4.0365Y-5.7874
X4.1365Y-2.0866
X4.1365Y-2.1866
X4.1365Y-2.3228
X4.1365Y-2.4228
X4.1365Y-3.5628
X4.1365Y-3.6628
X4.1365Y-5.4512
X4.1365Y-5.5512
X4.1365Y-5.6874
X4.1365Y-5.7874
X4.2365Y-2.0866
X4.2365Y-2.1866
X4.2365Y-2.3228
X4.2365Y-2.4228
X4.2365Y-3.5628
X4.2365Y-3.6628
X4.2365Y-5.4512
X4.2365Y-5.5512
X4.2365Y-5.6874
X4.2365Y-5.7874
X4.3365Y-2.0866
X4.3365Y-2.1866
X4.3365Y-2.3228
X4.3365Y-2.4228
X4.3365Y-3.5628
X4.3365Y-3.6628
X4.3365Y-5.4512
X4.3365Y-5.5512
X4.3365Y-5.6874
X4.3365Y-5.7874
X4.4365Y-2.0866
X4.4365Y-2.1866
X4.4365Y-2.3228
X4.4365Y-2.4228
X4.4365Y-3.5628
X4.4365Y-3.6628
X4.4365Y-5.4512
X4.4365Y-5.5512
X4.4365Y-5.6874
X4.4365Y-5.7874
X4.5365Y-2.0866
X4.5365Y-2.1866
X4.5365Y-2.3228
X4.5365Y-2.4228
X4.5365Y-3.5628
X4.5365Y-3.6628
X4.5365Y-5.4512
X4.5365Y-5.5512
X4.5365Y-5.6874
X4.5365Y-5.7874
X4.6365Y-2.0866
X4.6365Y-2.1866
X4.6365Y-2.3228
X4.6365Y-2.4228
X4.6365Y-3.5628
X4.6365Y-3.6628
X4.6365Y-5.4512
X4.6365Y-5.5512
X4.6365Y-5.6874
X4.6365Y-5.7874
X4.7365Y-2.0866
X4.7365Y-2.1866
X4.7365Y-2.3228
X4.7365Y-2.4228
X4.7365Y-3.5628
X4.7365Y-3.6628
X4.7365Y-5.4512
X4.7365Y-5.5512
X4.7365Y-5.6874
X4.7365Y-5.7874
X4.8365Y-2.0866
X4.8365Y-2.1866
X4.8365Y-2.3228
X4.8365Y-2.4228
X4.8365Y-3.5628
X4.8365Y-3.6628
X4.8365Y-5.4512
X4.8365Y-5.5512
X4.8365Y-5.6874
X4.8365Y-5.7874
X4.9365Y-2.0866
X4.9365Y-2.1866
X4.9365Y-2.3228
X4.9365Y-2.4228
X4.9365Y-3.5628
X4.9365Y-3.6628
X4.9365Y-5.4512
X4.9365Y-5.5512
X4.9365Y-5.6874
X4.9365Y-5.7874
X5.0365Y-2.0866
X5.0365Y-2.1866
X5.0365Y-2.3228
X5.0365Y-2.4228
X5.0365Y-3.5628
X5.0365Y-3.6628
X5.0365Y-5.4512
X5.0365Y-5.5512
X5.0365Y-5.6874
X5.0365Y-5.7874
X5.1365Y-2.0866
X5.1365Y-2.1866
X5.1365Y-2.3228
X5.1365Y-2.4228
X5.1365Y-3.5628
X5.1365Y-3.6628
X5.1365Y-5.4512
X5.1365Y-5.5512
X5.1365Y-5.6874
X5.1365Y-5.7874
X5.2365Y-2.0866
X5.2365Y-2.1866
X5.2365Y-2.3228
X5.2365Y-2.4228
X5.2365Y-3.5628
X5.2365Y-3.6628
X5.2365Y-5.4512
X5.2365Y-5.5512
X5.2365Y-5.6874
X5.2365Y-5.7874
X5.3365Y-2.0866
X5.3365Y-2.1866
X5.3365Y-2.3228
X5.3365Y-2.4228
X5.3365Y-3.5628
X5.3365Y-3.6628
X5.3365Y-5.4512
X5.3365Y-5.5512
X5.3365Y-5.6874
X5.3365Y-5.7874
X5.4365Y-2.0866
X5.4365Y-2.1866
X5.4365Y-2.3228
X5.4365Y-2.4228
X5.4365Y-3.5628
X5.4365Y-3.6628
X5.4365Y-5.4512
X5.4365Y-5.5512
X5.4365Y-5.6874
X5.4365Y-5.7874
X5.5365Y-2.0866
X5.5365Y-2.1866
X5.5365Y-2.3228
X5.5365Y-2.4228
X5.5365Y-5.4512
X5.5365Y-5.5512
X5.5365Y-5.6874
X5.5365Y-5.7874
X5.6874Y-4.9016
X5.6874Y-5.0016
X5.6874Y-5.1016
X5.6874Y-5.2016
X5.6874Y-5.3016
X5.7874Y-4.9016
X5.7874Y-5.0016
X5.7874Y-5.1016
X5.7874Y-5.2016
X5.7874Y-5.3016
T5
X2.126Y-2.126
X2.126Y-5.748
X5.748Y-2.126
X5.748Y-5.748
M30
