%TF.GenerationSoftware,KiCad,Pcbnew,8.0.7-8.0.7-0~ubuntu22.04.1*%
%TF.CreationDate,2024-12-21T14:21:34+01:00*%
%TF.ProjectId,MMU_v1,4d4d555f-7631-42e6-9b69-6361645f7063,rev?*%
%TF.SameCoordinates,Original*%
%TF.FileFunction,Paste,Top*%
%TF.FilePolarity,Positive*%
%FSLAX46Y46*%
G04 Gerber Fmt 4.6, Leading zero omitted, Abs format (unit mm)*
G04 Created by KiCad (PCBNEW 8.0.7-8.0.7-0~ubuntu22.04.1) date 2024-12-21 14:21:34*
%MOMM*%
%LPD*%
G01*
G04 APERTURE LIST*
G04 Aperture macros list*
%AMRoundRect*
0 Rectangle with rounded corners*
0 $1 Rounding radius*
0 $2 $3 $4 $5 $6 $7 $8 $9 X,Y pos of 4 corners*
0 Add a 4 corners polygon primitive as box body*
4,1,4,$2,$3,$4,$5,$6,$7,$8,$9,$2,$3,0*
0 Add four circle primitives for the rounded corners*
1,1,$1+$1,$2,$3*
1,1,$1+$1,$4,$5*
1,1,$1+$1,$6,$7*
1,1,$1+$1,$8,$9*
0 Add four rect primitives between the rounded corners*
20,1,$1+$1,$2,$3,$4,$5,0*
20,1,$1+$1,$4,$5,$6,$7,0*
20,1,$1+$1,$6,$7,$8,$9,0*
20,1,$1+$1,$8,$9,$2,$3,0*%
G04 Aperture macros list end*
%ADD10RoundRect,0.250000X0.625000X-0.400000X0.625000X0.400000X-0.625000X0.400000X-0.625000X-0.400000X0*%
%ADD11RoundRect,0.250000X-0.325000X-0.650000X0.325000X-0.650000X0.325000X0.650000X-0.325000X0.650000X0*%
%ADD12RoundRect,0.250000X0.400000X0.625000X-0.400000X0.625000X-0.400000X-0.625000X0.400000X-0.625000X0*%
%ADD13R,1.000000X3.000000*%
%ADD14RoundRect,0.075000X-0.662500X-0.075000X0.662500X-0.075000X0.662500X0.075000X-0.662500X0.075000X0*%
%ADD15RoundRect,0.075000X-0.075000X-0.662500X0.075000X-0.662500X0.075000X0.662500X-0.075000X0.662500X0*%
%ADD16R,1.500000X0.550000*%
%ADD17R,0.550000X1.500000*%
G04 APERTURE END LIST*
D10*
%TO.C,R4*%
X75582000Y-131789000D03*
X75582000Y-128689000D03*
%TD*%
D11*
%TO.C,C8*%
X144471600Y-121462800D03*
X147421600Y-121462800D03*
%TD*%
D10*
%TO.C,R3*%
X72292000Y-131789000D03*
X72292000Y-128689000D03*
%TD*%
%TO.C,R2*%
X69002000Y-131789000D03*
X69002000Y-128689000D03*
%TD*%
D12*
%TO.C,R1*%
X138139000Y-135200000D03*
X135039000Y-135200000D03*
%TD*%
D13*
%TO.C,J3*%
X89827000Y-74240000D03*
X89827000Y-79280000D03*
X92367000Y-74240000D03*
X92367000Y-79280000D03*
X94907000Y-74240000D03*
X94907000Y-79280000D03*
X97447000Y-74240000D03*
X97447000Y-79280000D03*
X99987000Y-74240000D03*
X99987000Y-79280000D03*
X102527000Y-74240000D03*
X102527000Y-79280000D03*
X105067000Y-74240000D03*
X105067000Y-79280000D03*
X107607000Y-74240000D03*
X107607000Y-79280000D03*
X110147000Y-74240000D03*
X110147000Y-79280000D03*
X112687000Y-74240000D03*
X112687000Y-79280000D03*
X115227000Y-74240000D03*
X115227000Y-79280000D03*
X117767000Y-74240000D03*
X117767000Y-79280000D03*
X120307000Y-74240000D03*
X120307000Y-79280000D03*
X122847000Y-74240000D03*
X122847000Y-79280000D03*
X125387000Y-74240000D03*
X125387000Y-79280000D03*
X127927000Y-74240000D03*
X127927000Y-79280000D03*
X130467000Y-74240000D03*
X130467000Y-79280000D03*
X133007000Y-74240000D03*
X133007000Y-79280000D03*
X135547000Y-74240000D03*
X135547000Y-79280000D03*
X138087000Y-74240000D03*
X138087000Y-79280000D03*
%TD*%
D14*
%TO.C,U2*%
X113241663Y-112497654D03*
X113241663Y-112997654D03*
X113241663Y-113497654D03*
X113241663Y-113997654D03*
X113241663Y-114497654D03*
X113241663Y-114997654D03*
X113241663Y-115497654D03*
X113241663Y-115997654D03*
X113241663Y-116497654D03*
X113241663Y-116997654D03*
X113241663Y-117497654D03*
X113241663Y-117997654D03*
X113241663Y-118497654D03*
X113241663Y-118997654D03*
X113241663Y-119497654D03*
X113241663Y-119997654D03*
D15*
X115154163Y-121910154D03*
X115654163Y-121910154D03*
X116154163Y-121910154D03*
X116654163Y-121910154D03*
X117154163Y-121910154D03*
X117654163Y-121910154D03*
X118154163Y-121910154D03*
X118654163Y-121910154D03*
X119154163Y-121910154D03*
X119654163Y-121910154D03*
X120154163Y-121910154D03*
X120654163Y-121910154D03*
X121154163Y-121910154D03*
X121654163Y-121910154D03*
X122154163Y-121910154D03*
X122654163Y-121910154D03*
D14*
X124566663Y-119997654D03*
X124566663Y-119497654D03*
X124566663Y-118997654D03*
X124566663Y-118497654D03*
X124566663Y-117997654D03*
X124566663Y-117497654D03*
X124566663Y-116997654D03*
X124566663Y-116497654D03*
X124566663Y-115997654D03*
X124566663Y-115497654D03*
X124566663Y-114997654D03*
X124566663Y-114497654D03*
X124566663Y-113997654D03*
X124566663Y-113497654D03*
X124566663Y-112997654D03*
X124566663Y-112497654D03*
D15*
X122654163Y-110585154D03*
X122154163Y-110585154D03*
X121654163Y-110585154D03*
X121154163Y-110585154D03*
X120654163Y-110585154D03*
X120154163Y-110585154D03*
X119654163Y-110585154D03*
X119154163Y-110585154D03*
X118654163Y-110585154D03*
X118154163Y-110585154D03*
X117654163Y-110585154D03*
X117154163Y-110585154D03*
X116654163Y-110585154D03*
X116154163Y-110585154D03*
X115654163Y-110585154D03*
X115154163Y-110585154D03*
%TD*%
D16*
%TO.C,U1*%
X68255000Y-74016000D03*
X68255000Y-74816000D03*
X68255000Y-75616000D03*
X68255000Y-76416000D03*
X68255000Y-77216000D03*
X68255000Y-78016000D03*
X68255000Y-78816000D03*
X68255000Y-79616000D03*
X68255000Y-80416000D03*
X68255000Y-81216000D03*
X68255000Y-82016000D03*
D17*
X69955000Y-83716000D03*
X70755000Y-83716000D03*
X71555000Y-83716000D03*
X72355000Y-83716000D03*
X73155000Y-83716000D03*
X73955000Y-83716000D03*
X74755000Y-83716000D03*
X75555000Y-83716000D03*
X76355000Y-83716000D03*
X77155000Y-83716000D03*
X77955000Y-83716000D03*
D16*
X79655000Y-82016000D03*
X79655000Y-81216000D03*
X79655000Y-80416000D03*
X79655000Y-79616000D03*
X79655000Y-78816000D03*
X79655000Y-78016000D03*
X79655000Y-77216000D03*
X79655000Y-76416000D03*
X79655000Y-75616000D03*
X79655000Y-74816000D03*
X79655000Y-74016000D03*
D17*
X77955000Y-72316000D03*
X77155000Y-72316000D03*
X76355000Y-72316000D03*
X75555000Y-72316000D03*
X74755000Y-72316000D03*
X73955000Y-72316000D03*
X73155000Y-72316000D03*
X72355000Y-72316000D03*
X71555000Y-72316000D03*
X70755000Y-72316000D03*
X69955000Y-72316000D03*
%TD*%
M02*
