%TF.GenerationSoftware,KiCad,Pcbnew,8.0.5-8.0.5-0~ubuntu22.04.1*%
%TF.CreationDate,2024-10-05T19:46:27+02:00*%
%TF.ProjectId,6502_6800_CPU,36353032-5f36-4383-9030-5f4350552e6b,rev?*%
%TF.SameCoordinates,Original*%
%TF.FileFunction,Legend,Bot*%
%TF.FilePolarity,Positive*%
%FSLAX46Y46*%
G04 Gerber Fmt 4.6, Leading zero omitted, Abs format (unit mm)*
G04 Created by KiCad (PCBNEW 8.0.5-8.0.5-0~ubuntu22.04.1) date 2024-10-05 19:46:27*
%MOMM*%
%LPD*%
G01*
G04 APERTURE LIST*
%ADD10C,0.150000*%
%ADD11C,0.120000*%
G04 APERTURE END LIST*
D10*
X87076780Y-145684533D02*
X87124400Y-145636914D01*
X87124400Y-145636914D02*
X87172019Y-145494057D01*
X87172019Y-145494057D02*
X87172019Y-145398819D01*
X87172019Y-145398819D02*
X87124400Y-145255962D01*
X87124400Y-145255962D02*
X87029161Y-145160724D01*
X87029161Y-145160724D02*
X86933923Y-145113105D01*
X86933923Y-145113105D02*
X86743447Y-145065486D01*
X86743447Y-145065486D02*
X86600590Y-145065486D01*
X86600590Y-145065486D02*
X86410114Y-145113105D01*
X86410114Y-145113105D02*
X86314876Y-145160724D01*
X86314876Y-145160724D02*
X86219638Y-145255962D01*
X86219638Y-145255962D02*
X86172019Y-145398819D01*
X86172019Y-145398819D02*
X86172019Y-145494057D01*
X86172019Y-145494057D02*
X86219638Y-145636914D01*
X86219638Y-145636914D02*
X86267257Y-145684533D01*
X86267257Y-146065486D02*
X86219638Y-146113105D01*
X86219638Y-146113105D02*
X86172019Y-146208343D01*
X86172019Y-146208343D02*
X86172019Y-146446438D01*
X86172019Y-146446438D02*
X86219638Y-146541676D01*
X86219638Y-146541676D02*
X86267257Y-146589295D01*
X86267257Y-146589295D02*
X86362495Y-146636914D01*
X86362495Y-146636914D02*
X86457733Y-146636914D01*
X86457733Y-146636914D02*
X86600590Y-146589295D01*
X86600590Y-146589295D02*
X87172019Y-146017867D01*
X87172019Y-146017867D02*
X87172019Y-146636914D01*
X96678819Y-99655333D02*
X96202628Y-99322000D01*
X96678819Y-99083905D02*
X95678819Y-99083905D01*
X95678819Y-99083905D02*
X95678819Y-99464857D01*
X95678819Y-99464857D02*
X95726438Y-99560095D01*
X95726438Y-99560095D02*
X95774057Y-99607714D01*
X95774057Y-99607714D02*
X95869295Y-99655333D01*
X95869295Y-99655333D02*
X96012152Y-99655333D01*
X96012152Y-99655333D02*
X96107390Y-99607714D01*
X96107390Y-99607714D02*
X96155009Y-99560095D01*
X96155009Y-99560095D02*
X96202628Y-99464857D01*
X96202628Y-99464857D02*
X96202628Y-99083905D01*
X95678819Y-100512476D02*
X95678819Y-100322000D01*
X95678819Y-100322000D02*
X95726438Y-100226762D01*
X95726438Y-100226762D02*
X95774057Y-100179143D01*
X95774057Y-100179143D02*
X95916914Y-100083905D01*
X95916914Y-100083905D02*
X96107390Y-100036286D01*
X96107390Y-100036286D02*
X96488342Y-100036286D01*
X96488342Y-100036286D02*
X96583580Y-100083905D01*
X96583580Y-100083905D02*
X96631200Y-100131524D01*
X96631200Y-100131524D02*
X96678819Y-100226762D01*
X96678819Y-100226762D02*
X96678819Y-100417238D01*
X96678819Y-100417238D02*
X96631200Y-100512476D01*
X96631200Y-100512476D02*
X96583580Y-100560095D01*
X96583580Y-100560095D02*
X96488342Y-100607714D01*
X96488342Y-100607714D02*
X96250247Y-100607714D01*
X96250247Y-100607714D02*
X96155009Y-100560095D01*
X96155009Y-100560095D02*
X96107390Y-100512476D01*
X96107390Y-100512476D02*
X96059771Y-100417238D01*
X96059771Y-100417238D02*
X96059771Y-100226762D01*
X96059771Y-100226762D02*
X96107390Y-100131524D01*
X96107390Y-100131524D02*
X96155009Y-100083905D01*
X96155009Y-100083905D02*
X96250247Y-100036286D01*
X113907819Y-68006333D02*
X113431628Y-67673000D01*
X113907819Y-67434905D02*
X112907819Y-67434905D01*
X112907819Y-67434905D02*
X112907819Y-67815857D01*
X112907819Y-67815857D02*
X112955438Y-67911095D01*
X112955438Y-67911095D02*
X113003057Y-67958714D01*
X113003057Y-67958714D02*
X113098295Y-68006333D01*
X113098295Y-68006333D02*
X113241152Y-68006333D01*
X113241152Y-68006333D02*
X113336390Y-67958714D01*
X113336390Y-67958714D02*
X113384009Y-67911095D01*
X113384009Y-67911095D02*
X113431628Y-67815857D01*
X113431628Y-67815857D02*
X113431628Y-67434905D01*
X112907819Y-68911095D02*
X112907819Y-68434905D01*
X112907819Y-68434905D02*
X113384009Y-68387286D01*
X113384009Y-68387286D02*
X113336390Y-68434905D01*
X113336390Y-68434905D02*
X113288771Y-68530143D01*
X113288771Y-68530143D02*
X113288771Y-68768238D01*
X113288771Y-68768238D02*
X113336390Y-68863476D01*
X113336390Y-68863476D02*
X113384009Y-68911095D01*
X113384009Y-68911095D02*
X113479247Y-68958714D01*
X113479247Y-68958714D02*
X113717342Y-68958714D01*
X113717342Y-68958714D02*
X113812580Y-68911095D01*
X113812580Y-68911095D02*
X113860200Y-68863476D01*
X113860200Y-68863476D02*
X113907819Y-68768238D01*
X113907819Y-68768238D02*
X113907819Y-68530143D01*
X113907819Y-68530143D02*
X113860200Y-68434905D01*
X113860200Y-68434905D02*
X113812580Y-68387286D01*
X125056666Y-98602580D02*
X125104285Y-98650200D01*
X125104285Y-98650200D02*
X125247142Y-98697819D01*
X125247142Y-98697819D02*
X125342380Y-98697819D01*
X125342380Y-98697819D02*
X125485237Y-98650200D01*
X125485237Y-98650200D02*
X125580475Y-98554961D01*
X125580475Y-98554961D02*
X125628094Y-98459723D01*
X125628094Y-98459723D02*
X125675713Y-98269247D01*
X125675713Y-98269247D02*
X125675713Y-98126390D01*
X125675713Y-98126390D02*
X125628094Y-97935914D01*
X125628094Y-97935914D02*
X125580475Y-97840676D01*
X125580475Y-97840676D02*
X125485237Y-97745438D01*
X125485237Y-97745438D02*
X125342380Y-97697819D01*
X125342380Y-97697819D02*
X125247142Y-97697819D01*
X125247142Y-97697819D02*
X125104285Y-97745438D01*
X125104285Y-97745438D02*
X125056666Y-97793057D01*
X124199523Y-97697819D02*
X124389999Y-97697819D01*
X124389999Y-97697819D02*
X124485237Y-97745438D01*
X124485237Y-97745438D02*
X124532856Y-97793057D01*
X124532856Y-97793057D02*
X124628094Y-97935914D01*
X124628094Y-97935914D02*
X124675713Y-98126390D01*
X124675713Y-98126390D02*
X124675713Y-98507342D01*
X124675713Y-98507342D02*
X124628094Y-98602580D01*
X124628094Y-98602580D02*
X124580475Y-98650200D01*
X124580475Y-98650200D02*
X124485237Y-98697819D01*
X124485237Y-98697819D02*
X124294761Y-98697819D01*
X124294761Y-98697819D02*
X124199523Y-98650200D01*
X124199523Y-98650200D02*
X124151904Y-98602580D01*
X124151904Y-98602580D02*
X124104285Y-98507342D01*
X124104285Y-98507342D02*
X124104285Y-98269247D01*
X124104285Y-98269247D02*
X124151904Y-98174009D01*
X124151904Y-98174009D02*
X124199523Y-98126390D01*
X124199523Y-98126390D02*
X124294761Y-98078771D01*
X124294761Y-98078771D02*
X124485237Y-98078771D01*
X124485237Y-98078771D02*
X124580475Y-98126390D01*
X124580475Y-98126390D02*
X124628094Y-98174009D01*
X124628094Y-98174009D02*
X124675713Y-98269247D01*
X90132819Y-92257666D02*
X90847104Y-92257666D01*
X90847104Y-92257666D02*
X90989961Y-92210047D01*
X90989961Y-92210047D02*
X91085200Y-92114809D01*
X91085200Y-92114809D02*
X91132819Y-91971952D01*
X91132819Y-91971952D02*
X91132819Y-91876714D01*
X91132819Y-92733857D02*
X90132819Y-92733857D01*
X90132819Y-92733857D02*
X90132819Y-93114809D01*
X90132819Y-93114809D02*
X90180438Y-93210047D01*
X90180438Y-93210047D02*
X90228057Y-93257666D01*
X90228057Y-93257666D02*
X90323295Y-93305285D01*
X90323295Y-93305285D02*
X90466152Y-93305285D01*
X90466152Y-93305285D02*
X90561390Y-93257666D01*
X90561390Y-93257666D02*
X90609009Y-93210047D01*
X90609009Y-93210047D02*
X90656628Y-93114809D01*
X90656628Y-93114809D02*
X90656628Y-92733857D01*
X90132819Y-93638619D02*
X90132819Y-94257666D01*
X90132819Y-94257666D02*
X90513771Y-93924333D01*
X90513771Y-93924333D02*
X90513771Y-94067190D01*
X90513771Y-94067190D02*
X90561390Y-94162428D01*
X90561390Y-94162428D02*
X90609009Y-94210047D01*
X90609009Y-94210047D02*
X90704247Y-94257666D01*
X90704247Y-94257666D02*
X90942342Y-94257666D01*
X90942342Y-94257666D02*
X91037580Y-94210047D01*
X91037580Y-94210047D02*
X91085200Y-94162428D01*
X91085200Y-94162428D02*
X91132819Y-94067190D01*
X91132819Y-94067190D02*
X91132819Y-93781476D01*
X91132819Y-93781476D02*
X91085200Y-93686238D01*
X91085200Y-93686238D02*
X91037580Y-93638619D01*
X94450819Y-91726142D02*
X94450819Y-91535666D01*
X94450819Y-91535666D02*
X94498438Y-91440428D01*
X94498438Y-91440428D02*
X94546057Y-91392809D01*
X94546057Y-91392809D02*
X94688914Y-91297571D01*
X94688914Y-91297571D02*
X94879390Y-91249952D01*
X94879390Y-91249952D02*
X95260342Y-91249952D01*
X95260342Y-91249952D02*
X95355580Y-91297571D01*
X95355580Y-91297571D02*
X95403200Y-91345190D01*
X95403200Y-91345190D02*
X95450819Y-91440428D01*
X95450819Y-91440428D02*
X95450819Y-91630904D01*
X95450819Y-91630904D02*
X95403200Y-91726142D01*
X95403200Y-91726142D02*
X95355580Y-91773761D01*
X95355580Y-91773761D02*
X95260342Y-91821380D01*
X95260342Y-91821380D02*
X95022247Y-91821380D01*
X95022247Y-91821380D02*
X94927009Y-91773761D01*
X94927009Y-91773761D02*
X94879390Y-91726142D01*
X94879390Y-91726142D02*
X94831771Y-91630904D01*
X94831771Y-91630904D02*
X94831771Y-91440428D01*
X94831771Y-91440428D02*
X94879390Y-91345190D01*
X94879390Y-91345190D02*
X94927009Y-91297571D01*
X94927009Y-91297571D02*
X95022247Y-91249952D01*
X94879390Y-92392809D02*
X94831771Y-92297571D01*
X94831771Y-92297571D02*
X94784152Y-92249952D01*
X94784152Y-92249952D02*
X94688914Y-92202333D01*
X94688914Y-92202333D02*
X94641295Y-92202333D01*
X94641295Y-92202333D02*
X94546057Y-92249952D01*
X94546057Y-92249952D02*
X94498438Y-92297571D01*
X94498438Y-92297571D02*
X94450819Y-92392809D01*
X94450819Y-92392809D02*
X94450819Y-92583285D01*
X94450819Y-92583285D02*
X94498438Y-92678523D01*
X94498438Y-92678523D02*
X94546057Y-92726142D01*
X94546057Y-92726142D02*
X94641295Y-92773761D01*
X94641295Y-92773761D02*
X94688914Y-92773761D01*
X94688914Y-92773761D02*
X94784152Y-92726142D01*
X94784152Y-92726142D02*
X94831771Y-92678523D01*
X94831771Y-92678523D02*
X94879390Y-92583285D01*
X94879390Y-92583285D02*
X94879390Y-92392809D01*
X94879390Y-92392809D02*
X94927009Y-92297571D01*
X94927009Y-92297571D02*
X94974628Y-92249952D01*
X94974628Y-92249952D02*
X95069866Y-92202333D01*
X95069866Y-92202333D02*
X95260342Y-92202333D01*
X95260342Y-92202333D02*
X95355580Y-92249952D01*
X95355580Y-92249952D02*
X95403200Y-92297571D01*
X95403200Y-92297571D02*
X95450819Y-92392809D01*
X95450819Y-92392809D02*
X95450819Y-92583285D01*
X95450819Y-92583285D02*
X95403200Y-92678523D01*
X95403200Y-92678523D02*
X95355580Y-92726142D01*
X95355580Y-92726142D02*
X95260342Y-92773761D01*
X95260342Y-92773761D02*
X95069866Y-92773761D01*
X95069866Y-92773761D02*
X94974628Y-92726142D01*
X94974628Y-92726142D02*
X94927009Y-92678523D01*
X94927009Y-92678523D02*
X94879390Y-92583285D01*
X94450819Y-93392809D02*
X94450819Y-93488047D01*
X94450819Y-93488047D02*
X94498438Y-93583285D01*
X94498438Y-93583285D02*
X94546057Y-93630904D01*
X94546057Y-93630904D02*
X94641295Y-93678523D01*
X94641295Y-93678523D02*
X94831771Y-93726142D01*
X94831771Y-93726142D02*
X95069866Y-93726142D01*
X95069866Y-93726142D02*
X95260342Y-93678523D01*
X95260342Y-93678523D02*
X95355580Y-93630904D01*
X95355580Y-93630904D02*
X95403200Y-93583285D01*
X95403200Y-93583285D02*
X95450819Y-93488047D01*
X95450819Y-93488047D02*
X95450819Y-93392809D01*
X95450819Y-93392809D02*
X95403200Y-93297571D01*
X95403200Y-93297571D02*
X95355580Y-93249952D01*
X95355580Y-93249952D02*
X95260342Y-93202333D01*
X95260342Y-93202333D02*
X95069866Y-93154714D01*
X95069866Y-93154714D02*
X94831771Y-93154714D01*
X94831771Y-93154714D02*
X94641295Y-93202333D01*
X94641295Y-93202333D02*
X94546057Y-93249952D01*
X94546057Y-93249952D02*
X94498438Y-93297571D01*
X94498438Y-93297571D02*
X94450819Y-93392809D01*
X94546057Y-94107095D02*
X94498438Y-94154714D01*
X94498438Y-94154714D02*
X94450819Y-94249952D01*
X94450819Y-94249952D02*
X94450819Y-94488047D01*
X94450819Y-94488047D02*
X94498438Y-94583285D01*
X94498438Y-94583285D02*
X94546057Y-94630904D01*
X94546057Y-94630904D02*
X94641295Y-94678523D01*
X94641295Y-94678523D02*
X94736533Y-94678523D01*
X94736533Y-94678523D02*
X94879390Y-94630904D01*
X94879390Y-94630904D02*
X95450819Y-94059476D01*
X95450819Y-94059476D02*
X95450819Y-94678523D01*
X95546057Y-94869000D02*
X95546057Y-95630904D01*
X94498438Y-96392809D02*
X94450819Y-96297571D01*
X94450819Y-96297571D02*
X94450819Y-96154714D01*
X94450819Y-96154714D02*
X94498438Y-96011857D01*
X94498438Y-96011857D02*
X94593676Y-95916619D01*
X94593676Y-95916619D02*
X94688914Y-95869000D01*
X94688914Y-95869000D02*
X94879390Y-95821381D01*
X94879390Y-95821381D02*
X95022247Y-95821381D01*
X95022247Y-95821381D02*
X95212723Y-95869000D01*
X95212723Y-95869000D02*
X95307961Y-95916619D01*
X95307961Y-95916619D02*
X95403200Y-96011857D01*
X95403200Y-96011857D02*
X95450819Y-96154714D01*
X95450819Y-96154714D02*
X95450819Y-96249952D01*
X95450819Y-96249952D02*
X95403200Y-96392809D01*
X95403200Y-96392809D02*
X95355580Y-96440428D01*
X95355580Y-96440428D02*
X95022247Y-96440428D01*
X95022247Y-96440428D02*
X95022247Y-96249952D01*
X95450819Y-96869000D02*
X94450819Y-96869000D01*
X94450819Y-96869000D02*
X95450819Y-97440428D01*
X95450819Y-97440428D02*
X94450819Y-97440428D01*
X95450819Y-97916619D02*
X94450819Y-97916619D01*
X94450819Y-97916619D02*
X94450819Y-98154714D01*
X94450819Y-98154714D02*
X94498438Y-98297571D01*
X94498438Y-98297571D02*
X94593676Y-98392809D01*
X94593676Y-98392809D02*
X94688914Y-98440428D01*
X94688914Y-98440428D02*
X94879390Y-98488047D01*
X94879390Y-98488047D02*
X95022247Y-98488047D01*
X95022247Y-98488047D02*
X95212723Y-98440428D01*
X95212723Y-98440428D02*
X95307961Y-98392809D01*
X95307961Y-98392809D02*
X95403200Y-98297571D01*
X95403200Y-98297571D02*
X95450819Y-98154714D01*
X95450819Y-98154714D02*
X95450819Y-97916619D01*
X90618819Y-99892666D02*
X91333104Y-99892666D01*
X91333104Y-99892666D02*
X91475961Y-99845047D01*
X91475961Y-99845047D02*
X91571200Y-99749809D01*
X91571200Y-99749809D02*
X91618819Y-99606952D01*
X91618819Y-99606952D02*
X91618819Y-99511714D01*
X91618819Y-100368857D02*
X90618819Y-100368857D01*
X90618819Y-100368857D02*
X90618819Y-100749809D01*
X90618819Y-100749809D02*
X90666438Y-100845047D01*
X90666438Y-100845047D02*
X90714057Y-100892666D01*
X90714057Y-100892666D02*
X90809295Y-100940285D01*
X90809295Y-100940285D02*
X90952152Y-100940285D01*
X90952152Y-100940285D02*
X91047390Y-100892666D01*
X91047390Y-100892666D02*
X91095009Y-100845047D01*
X91095009Y-100845047D02*
X91142628Y-100749809D01*
X91142628Y-100749809D02*
X91142628Y-100368857D01*
X90618819Y-101797428D02*
X90618819Y-101606952D01*
X90618819Y-101606952D02*
X90666438Y-101511714D01*
X90666438Y-101511714D02*
X90714057Y-101464095D01*
X90714057Y-101464095D02*
X90856914Y-101368857D01*
X90856914Y-101368857D02*
X91047390Y-101321238D01*
X91047390Y-101321238D02*
X91428342Y-101321238D01*
X91428342Y-101321238D02*
X91523580Y-101368857D01*
X91523580Y-101368857D02*
X91571200Y-101416476D01*
X91571200Y-101416476D02*
X91618819Y-101511714D01*
X91618819Y-101511714D02*
X91618819Y-101702190D01*
X91618819Y-101702190D02*
X91571200Y-101797428D01*
X91571200Y-101797428D02*
X91523580Y-101845047D01*
X91523580Y-101845047D02*
X91428342Y-101892666D01*
X91428342Y-101892666D02*
X91190247Y-101892666D01*
X91190247Y-101892666D02*
X91095009Y-101845047D01*
X91095009Y-101845047D02*
X91047390Y-101797428D01*
X91047390Y-101797428D02*
X90999771Y-101702190D01*
X90999771Y-101702190D02*
X90999771Y-101511714D01*
X90999771Y-101511714D02*
X91047390Y-101416476D01*
X91047390Y-101416476D02*
X91095009Y-101368857D01*
X91095009Y-101368857D02*
X91190247Y-101321238D01*
X94318819Y-99297429D02*
X95318819Y-99535524D01*
X95318819Y-99535524D02*
X94604533Y-99726000D01*
X94604533Y-99726000D02*
X95318819Y-99916476D01*
X95318819Y-99916476D02*
X94318819Y-100154572D01*
X95318819Y-100535524D02*
X94318819Y-100535524D01*
X94318819Y-100535524D02*
X94318819Y-100773619D01*
X94318819Y-100773619D02*
X94366438Y-100916476D01*
X94366438Y-100916476D02*
X94461676Y-101011714D01*
X94461676Y-101011714D02*
X94556914Y-101059333D01*
X94556914Y-101059333D02*
X94747390Y-101106952D01*
X94747390Y-101106952D02*
X94890247Y-101106952D01*
X94890247Y-101106952D02*
X95080723Y-101059333D01*
X95080723Y-101059333D02*
X95175961Y-101011714D01*
X95175961Y-101011714D02*
X95271200Y-100916476D01*
X95271200Y-100916476D02*
X95318819Y-100773619D01*
X95318819Y-100773619D02*
X95318819Y-100535524D01*
X95223580Y-102106952D02*
X95271200Y-102059333D01*
X95271200Y-102059333D02*
X95318819Y-101916476D01*
X95318819Y-101916476D02*
X95318819Y-101821238D01*
X95318819Y-101821238D02*
X95271200Y-101678381D01*
X95271200Y-101678381D02*
X95175961Y-101583143D01*
X95175961Y-101583143D02*
X95080723Y-101535524D01*
X95080723Y-101535524D02*
X94890247Y-101487905D01*
X94890247Y-101487905D02*
X94747390Y-101487905D01*
X94747390Y-101487905D02*
X94556914Y-101535524D01*
X94556914Y-101535524D02*
X94461676Y-101583143D01*
X94461676Y-101583143D02*
X94366438Y-101678381D01*
X94366438Y-101678381D02*
X94318819Y-101821238D01*
X94318819Y-101821238D02*
X94318819Y-101916476D01*
X94318819Y-101916476D02*
X94366438Y-102059333D01*
X94366438Y-102059333D02*
X94414057Y-102106952D01*
X116846819Y-71681333D02*
X116370628Y-71348000D01*
X116846819Y-71109905D02*
X115846819Y-71109905D01*
X115846819Y-71109905D02*
X115846819Y-71490857D01*
X115846819Y-71490857D02*
X115894438Y-71586095D01*
X115894438Y-71586095D02*
X115942057Y-71633714D01*
X115942057Y-71633714D02*
X116037295Y-71681333D01*
X116037295Y-71681333D02*
X116180152Y-71681333D01*
X116180152Y-71681333D02*
X116275390Y-71633714D01*
X116275390Y-71633714D02*
X116323009Y-71586095D01*
X116323009Y-71586095D02*
X116370628Y-71490857D01*
X116370628Y-71490857D02*
X116370628Y-71109905D01*
X116180152Y-72538476D02*
X116846819Y-72538476D01*
X115799200Y-72300381D02*
X116513485Y-72062286D01*
X116513485Y-72062286D02*
X116513485Y-72681333D01*
X93130666Y-121866819D02*
X93463999Y-121390628D01*
X93702094Y-121866819D02*
X93702094Y-120866819D01*
X93702094Y-120866819D02*
X93321142Y-120866819D01*
X93321142Y-120866819D02*
X93225904Y-120914438D01*
X93225904Y-120914438D02*
X93178285Y-120962057D01*
X93178285Y-120962057D02*
X93130666Y-121057295D01*
X93130666Y-121057295D02*
X93130666Y-121200152D01*
X93130666Y-121200152D02*
X93178285Y-121295390D01*
X93178285Y-121295390D02*
X93225904Y-121343009D01*
X93225904Y-121343009D02*
X93321142Y-121390628D01*
X93321142Y-121390628D02*
X93702094Y-121390628D01*
X92797332Y-120866819D02*
X92130666Y-120866819D01*
X92130666Y-120866819D02*
X92559237Y-121866819D01*
X87764857Y-136090819D02*
X88098190Y-135614628D01*
X88336285Y-136090819D02*
X88336285Y-135090819D01*
X88336285Y-135090819D02*
X87955333Y-135090819D01*
X87955333Y-135090819D02*
X87860095Y-135138438D01*
X87860095Y-135138438D02*
X87812476Y-135186057D01*
X87812476Y-135186057D02*
X87764857Y-135281295D01*
X87764857Y-135281295D02*
X87764857Y-135424152D01*
X87764857Y-135424152D02*
X87812476Y-135519390D01*
X87812476Y-135519390D02*
X87860095Y-135567009D01*
X87860095Y-135567009D02*
X87955333Y-135614628D01*
X87955333Y-135614628D02*
X88336285Y-135614628D01*
X86812476Y-136090819D02*
X87383904Y-136090819D01*
X87098190Y-136090819D02*
X87098190Y-135090819D01*
X87098190Y-135090819D02*
X87193428Y-135233676D01*
X87193428Y-135233676D02*
X87288666Y-135328914D01*
X87288666Y-135328914D02*
X87383904Y-135376533D01*
X86479142Y-135090819D02*
X85860095Y-135090819D01*
X85860095Y-135090819D02*
X86193428Y-135471771D01*
X86193428Y-135471771D02*
X86050571Y-135471771D01*
X86050571Y-135471771D02*
X85955333Y-135519390D01*
X85955333Y-135519390D02*
X85907714Y-135567009D01*
X85907714Y-135567009D02*
X85860095Y-135662247D01*
X85860095Y-135662247D02*
X85860095Y-135900342D01*
X85860095Y-135900342D02*
X85907714Y-135995580D01*
X85907714Y-135995580D02*
X85955333Y-136043200D01*
X85955333Y-136043200D02*
X86050571Y-136090819D01*
X86050571Y-136090819D02*
X86336285Y-136090819D01*
X86336285Y-136090819D02*
X86431523Y-136043200D01*
X86431523Y-136043200D02*
X86479142Y-135995580D01*
X71811333Y-90364819D02*
X71811333Y-91079104D01*
X71811333Y-91079104D02*
X71858952Y-91221961D01*
X71858952Y-91221961D02*
X71954190Y-91317200D01*
X71954190Y-91317200D02*
X72097047Y-91364819D01*
X72097047Y-91364819D02*
X72192285Y-91364819D01*
X71335142Y-91364819D02*
X71335142Y-90364819D01*
X71335142Y-90364819D02*
X70954190Y-90364819D01*
X70954190Y-90364819D02*
X70858952Y-90412438D01*
X70858952Y-90412438D02*
X70811333Y-90460057D01*
X70811333Y-90460057D02*
X70763714Y-90555295D01*
X70763714Y-90555295D02*
X70763714Y-90698152D01*
X70763714Y-90698152D02*
X70811333Y-90793390D01*
X70811333Y-90793390D02*
X70858952Y-90841009D01*
X70858952Y-90841009D02*
X70954190Y-90888628D01*
X70954190Y-90888628D02*
X71335142Y-90888628D01*
X70430380Y-90364819D02*
X69763714Y-90364819D01*
X69763714Y-90364819D02*
X70192285Y-91364819D01*
X93352857Y-114246819D02*
X93686190Y-113770628D01*
X93924285Y-114246819D02*
X93924285Y-113246819D01*
X93924285Y-113246819D02*
X93543333Y-113246819D01*
X93543333Y-113246819D02*
X93448095Y-113294438D01*
X93448095Y-113294438D02*
X93400476Y-113342057D01*
X93400476Y-113342057D02*
X93352857Y-113437295D01*
X93352857Y-113437295D02*
X93352857Y-113580152D01*
X93352857Y-113580152D02*
X93400476Y-113675390D01*
X93400476Y-113675390D02*
X93448095Y-113723009D01*
X93448095Y-113723009D02*
X93543333Y-113770628D01*
X93543333Y-113770628D02*
X93924285Y-113770628D01*
X92400476Y-114246819D02*
X92971904Y-114246819D01*
X92686190Y-114246819D02*
X92686190Y-113246819D01*
X92686190Y-113246819D02*
X92781428Y-113389676D01*
X92781428Y-113389676D02*
X92876666Y-113484914D01*
X92876666Y-113484914D02*
X92971904Y-113532533D01*
X91781428Y-113246819D02*
X91686190Y-113246819D01*
X91686190Y-113246819D02*
X91590952Y-113294438D01*
X91590952Y-113294438D02*
X91543333Y-113342057D01*
X91543333Y-113342057D02*
X91495714Y-113437295D01*
X91495714Y-113437295D02*
X91448095Y-113627771D01*
X91448095Y-113627771D02*
X91448095Y-113865866D01*
X91448095Y-113865866D02*
X91495714Y-114056342D01*
X91495714Y-114056342D02*
X91543333Y-114151580D01*
X91543333Y-114151580D02*
X91590952Y-114199200D01*
X91590952Y-114199200D02*
X91686190Y-114246819D01*
X91686190Y-114246819D02*
X91781428Y-114246819D01*
X91781428Y-114246819D02*
X91876666Y-114199200D01*
X91876666Y-114199200D02*
X91924285Y-114151580D01*
X91924285Y-114151580D02*
X91971904Y-114056342D01*
X91971904Y-114056342D02*
X92019523Y-113865866D01*
X92019523Y-113865866D02*
X92019523Y-113627771D01*
X92019523Y-113627771D02*
X91971904Y-113437295D01*
X91971904Y-113437295D02*
X91924285Y-113342057D01*
X91924285Y-113342057D02*
X91876666Y-113294438D01*
X91876666Y-113294438D02*
X91781428Y-113246819D01*
X72033523Y-73092819D02*
X72033523Y-73807104D01*
X72033523Y-73807104D02*
X72081142Y-73949961D01*
X72081142Y-73949961D02*
X72176380Y-74045200D01*
X72176380Y-74045200D02*
X72319237Y-74092819D01*
X72319237Y-74092819D02*
X72414475Y-74092819D01*
X71557332Y-74092819D02*
X71557332Y-73092819D01*
X71557332Y-73092819D02*
X71176380Y-73092819D01*
X71176380Y-73092819D02*
X71081142Y-73140438D01*
X71081142Y-73140438D02*
X71033523Y-73188057D01*
X71033523Y-73188057D02*
X70985904Y-73283295D01*
X70985904Y-73283295D02*
X70985904Y-73426152D01*
X70985904Y-73426152D02*
X71033523Y-73521390D01*
X71033523Y-73521390D02*
X71081142Y-73569009D01*
X71081142Y-73569009D02*
X71176380Y-73616628D01*
X71176380Y-73616628D02*
X71557332Y-73616628D01*
X70033523Y-74092819D02*
X70604951Y-74092819D01*
X70319237Y-74092819D02*
X70319237Y-73092819D01*
X70319237Y-73092819D02*
X70414475Y-73235676D01*
X70414475Y-73235676D02*
X70509713Y-73330914D01*
X70509713Y-73330914D02*
X70604951Y-73378533D01*
X69081142Y-74092819D02*
X69652570Y-74092819D01*
X69366856Y-74092819D02*
X69366856Y-73092819D01*
X69366856Y-73092819D02*
X69462094Y-73235676D01*
X69462094Y-73235676D02*
X69557332Y-73330914D01*
X69557332Y-73330914D02*
X69652570Y-73378533D01*
X104632819Y-95813666D02*
X105347104Y-95813666D01*
X105347104Y-95813666D02*
X105489961Y-95766047D01*
X105489961Y-95766047D02*
X105585200Y-95670809D01*
X105585200Y-95670809D02*
X105632819Y-95527952D01*
X105632819Y-95527952D02*
X105632819Y-95432714D01*
X105632819Y-96289857D02*
X104632819Y-96289857D01*
X104632819Y-96289857D02*
X104632819Y-96670809D01*
X104632819Y-96670809D02*
X104680438Y-96766047D01*
X104680438Y-96766047D02*
X104728057Y-96813666D01*
X104728057Y-96813666D02*
X104823295Y-96861285D01*
X104823295Y-96861285D02*
X104966152Y-96861285D01*
X104966152Y-96861285D02*
X105061390Y-96813666D01*
X105061390Y-96813666D02*
X105109009Y-96766047D01*
X105109009Y-96766047D02*
X105156628Y-96670809D01*
X105156628Y-96670809D02*
X105156628Y-96289857D01*
X105632819Y-97813666D02*
X105632819Y-97242238D01*
X105632819Y-97527952D02*
X104632819Y-97527952D01*
X104632819Y-97527952D02*
X104775676Y-97432714D01*
X104775676Y-97432714D02*
X104870914Y-97337476D01*
X104870914Y-97337476D02*
X104918533Y-97242238D01*
X100932819Y-91932714D02*
X100932819Y-91742238D01*
X100932819Y-91742238D02*
X100980438Y-91647000D01*
X100980438Y-91647000D02*
X101028057Y-91599381D01*
X101028057Y-91599381D02*
X101170914Y-91504143D01*
X101170914Y-91504143D02*
X101361390Y-91456524D01*
X101361390Y-91456524D02*
X101742342Y-91456524D01*
X101742342Y-91456524D02*
X101837580Y-91504143D01*
X101837580Y-91504143D02*
X101885200Y-91551762D01*
X101885200Y-91551762D02*
X101932819Y-91647000D01*
X101932819Y-91647000D02*
X101932819Y-91837476D01*
X101932819Y-91837476D02*
X101885200Y-91932714D01*
X101885200Y-91932714D02*
X101837580Y-91980333D01*
X101837580Y-91980333D02*
X101742342Y-92027952D01*
X101742342Y-92027952D02*
X101504247Y-92027952D01*
X101504247Y-92027952D02*
X101409009Y-91980333D01*
X101409009Y-91980333D02*
X101361390Y-91932714D01*
X101361390Y-91932714D02*
X101313771Y-91837476D01*
X101313771Y-91837476D02*
X101313771Y-91647000D01*
X101313771Y-91647000D02*
X101361390Y-91551762D01*
X101361390Y-91551762D02*
X101409009Y-91504143D01*
X101409009Y-91504143D02*
X101504247Y-91456524D01*
X101361390Y-92599381D02*
X101313771Y-92504143D01*
X101313771Y-92504143D02*
X101266152Y-92456524D01*
X101266152Y-92456524D02*
X101170914Y-92408905D01*
X101170914Y-92408905D02*
X101123295Y-92408905D01*
X101123295Y-92408905D02*
X101028057Y-92456524D01*
X101028057Y-92456524D02*
X100980438Y-92504143D01*
X100980438Y-92504143D02*
X100932819Y-92599381D01*
X100932819Y-92599381D02*
X100932819Y-92789857D01*
X100932819Y-92789857D02*
X100980438Y-92885095D01*
X100980438Y-92885095D02*
X101028057Y-92932714D01*
X101028057Y-92932714D02*
X101123295Y-92980333D01*
X101123295Y-92980333D02*
X101170914Y-92980333D01*
X101170914Y-92980333D02*
X101266152Y-92932714D01*
X101266152Y-92932714D02*
X101313771Y-92885095D01*
X101313771Y-92885095D02*
X101361390Y-92789857D01*
X101361390Y-92789857D02*
X101361390Y-92599381D01*
X101361390Y-92599381D02*
X101409009Y-92504143D01*
X101409009Y-92504143D02*
X101456628Y-92456524D01*
X101456628Y-92456524D02*
X101551866Y-92408905D01*
X101551866Y-92408905D02*
X101742342Y-92408905D01*
X101742342Y-92408905D02*
X101837580Y-92456524D01*
X101837580Y-92456524D02*
X101885200Y-92504143D01*
X101885200Y-92504143D02*
X101932819Y-92599381D01*
X101932819Y-92599381D02*
X101932819Y-92789857D01*
X101932819Y-92789857D02*
X101885200Y-92885095D01*
X101885200Y-92885095D02*
X101837580Y-92932714D01*
X101837580Y-92932714D02*
X101742342Y-92980333D01*
X101742342Y-92980333D02*
X101551866Y-92980333D01*
X101551866Y-92980333D02*
X101456628Y-92932714D01*
X101456628Y-92932714D02*
X101409009Y-92885095D01*
X101409009Y-92885095D02*
X101361390Y-92789857D01*
X100932819Y-93599381D02*
X100932819Y-93694619D01*
X100932819Y-93694619D02*
X100980438Y-93789857D01*
X100980438Y-93789857D02*
X101028057Y-93837476D01*
X101028057Y-93837476D02*
X101123295Y-93885095D01*
X101123295Y-93885095D02*
X101313771Y-93932714D01*
X101313771Y-93932714D02*
X101551866Y-93932714D01*
X101551866Y-93932714D02*
X101742342Y-93885095D01*
X101742342Y-93885095D02*
X101837580Y-93837476D01*
X101837580Y-93837476D02*
X101885200Y-93789857D01*
X101885200Y-93789857D02*
X101932819Y-93694619D01*
X101932819Y-93694619D02*
X101932819Y-93599381D01*
X101932819Y-93599381D02*
X101885200Y-93504143D01*
X101885200Y-93504143D02*
X101837580Y-93456524D01*
X101837580Y-93456524D02*
X101742342Y-93408905D01*
X101742342Y-93408905D02*
X101551866Y-93361286D01*
X101551866Y-93361286D02*
X101313771Y-93361286D01*
X101313771Y-93361286D02*
X101123295Y-93408905D01*
X101123295Y-93408905D02*
X101028057Y-93456524D01*
X101028057Y-93456524D02*
X100980438Y-93504143D01*
X100980438Y-93504143D02*
X100932819Y-93599381D01*
X101028057Y-94313667D02*
X100980438Y-94361286D01*
X100980438Y-94361286D02*
X100932819Y-94456524D01*
X100932819Y-94456524D02*
X100932819Y-94694619D01*
X100932819Y-94694619D02*
X100980438Y-94789857D01*
X100980438Y-94789857D02*
X101028057Y-94837476D01*
X101028057Y-94837476D02*
X101123295Y-94885095D01*
X101123295Y-94885095D02*
X101218533Y-94885095D01*
X101218533Y-94885095D02*
X101361390Y-94837476D01*
X101361390Y-94837476D02*
X101932819Y-94266048D01*
X101932819Y-94266048D02*
X101932819Y-94885095D01*
X102028057Y-95075572D02*
X102028057Y-95837476D01*
X101932819Y-96647000D02*
X101456628Y-96313667D01*
X101932819Y-96075572D02*
X100932819Y-96075572D01*
X100932819Y-96075572D02*
X100932819Y-96456524D01*
X100932819Y-96456524D02*
X100980438Y-96551762D01*
X100980438Y-96551762D02*
X101028057Y-96599381D01*
X101028057Y-96599381D02*
X101123295Y-96647000D01*
X101123295Y-96647000D02*
X101266152Y-96647000D01*
X101266152Y-96647000D02*
X101361390Y-96599381D01*
X101361390Y-96599381D02*
X101409009Y-96551762D01*
X101409009Y-96551762D02*
X101456628Y-96456524D01*
X101456628Y-96456524D02*
X101456628Y-96075572D01*
X101647104Y-97027953D02*
X101647104Y-97504143D01*
X101932819Y-96932715D02*
X100932819Y-97266048D01*
X100932819Y-97266048D02*
X101932819Y-97599381D01*
X101932819Y-97932715D02*
X100932819Y-97932715D01*
X100932819Y-97932715D02*
X101647104Y-98266048D01*
X101647104Y-98266048D02*
X100932819Y-98599381D01*
X100932819Y-98599381D02*
X101932819Y-98599381D01*
X102028057Y-98837477D02*
X102028057Y-99599381D01*
X101932819Y-99837477D02*
X100932819Y-99837477D01*
X100932819Y-99837477D02*
X100932819Y-100075572D01*
X100932819Y-100075572D02*
X100980438Y-100218429D01*
X100980438Y-100218429D02*
X101075676Y-100313667D01*
X101075676Y-100313667D02*
X101170914Y-100361286D01*
X101170914Y-100361286D02*
X101361390Y-100408905D01*
X101361390Y-100408905D02*
X101504247Y-100408905D01*
X101504247Y-100408905D02*
X101694723Y-100361286D01*
X101694723Y-100361286D02*
X101789961Y-100313667D01*
X101789961Y-100313667D02*
X101885200Y-100218429D01*
X101885200Y-100218429D02*
X101932819Y-100075572D01*
X101932819Y-100075572D02*
X101932819Y-99837477D01*
X101932819Y-100837477D02*
X100932819Y-100837477D01*
X101885200Y-101266048D02*
X101932819Y-101408905D01*
X101932819Y-101408905D02*
X101932819Y-101647000D01*
X101932819Y-101647000D02*
X101885200Y-101742238D01*
X101885200Y-101742238D02*
X101837580Y-101789857D01*
X101837580Y-101789857D02*
X101742342Y-101837476D01*
X101742342Y-101837476D02*
X101647104Y-101837476D01*
X101647104Y-101837476D02*
X101551866Y-101789857D01*
X101551866Y-101789857D02*
X101504247Y-101742238D01*
X101504247Y-101742238D02*
X101456628Y-101647000D01*
X101456628Y-101647000D02*
X101409009Y-101456524D01*
X101409009Y-101456524D02*
X101361390Y-101361286D01*
X101361390Y-101361286D02*
X101313771Y-101313667D01*
X101313771Y-101313667D02*
X101218533Y-101266048D01*
X101218533Y-101266048D02*
X101123295Y-101266048D01*
X101123295Y-101266048D02*
X101028057Y-101313667D01*
X101028057Y-101313667D02*
X100980438Y-101361286D01*
X100980438Y-101361286D02*
X100932819Y-101456524D01*
X100932819Y-101456524D02*
X100932819Y-101694619D01*
X100932819Y-101694619D02*
X100980438Y-101837476D01*
X72063523Y-108304819D02*
X72063523Y-109019104D01*
X72063523Y-109019104D02*
X72111142Y-109161961D01*
X72111142Y-109161961D02*
X72206380Y-109257200D01*
X72206380Y-109257200D02*
X72349237Y-109304819D01*
X72349237Y-109304819D02*
X72444475Y-109304819D01*
X71587332Y-109304819D02*
X71587332Y-108304819D01*
X71587332Y-108304819D02*
X71206380Y-108304819D01*
X71206380Y-108304819D02*
X71111142Y-108352438D01*
X71111142Y-108352438D02*
X71063523Y-108400057D01*
X71063523Y-108400057D02*
X71015904Y-108495295D01*
X71015904Y-108495295D02*
X71015904Y-108638152D01*
X71015904Y-108638152D02*
X71063523Y-108733390D01*
X71063523Y-108733390D02*
X71111142Y-108781009D01*
X71111142Y-108781009D02*
X71206380Y-108828628D01*
X71206380Y-108828628D02*
X71587332Y-108828628D01*
X70063523Y-109304819D02*
X70634951Y-109304819D01*
X70349237Y-109304819D02*
X70349237Y-108304819D01*
X70349237Y-108304819D02*
X70444475Y-108447676D01*
X70444475Y-108447676D02*
X70539713Y-108542914D01*
X70539713Y-108542914D02*
X70634951Y-108590533D01*
X69730189Y-108304819D02*
X69111142Y-108304819D01*
X69111142Y-108304819D02*
X69444475Y-108685771D01*
X69444475Y-108685771D02*
X69301618Y-108685771D01*
X69301618Y-108685771D02*
X69206380Y-108733390D01*
X69206380Y-108733390D02*
X69158761Y-108781009D01*
X69158761Y-108781009D02*
X69111142Y-108876247D01*
X69111142Y-108876247D02*
X69111142Y-109114342D01*
X69111142Y-109114342D02*
X69158761Y-109209580D01*
X69158761Y-109209580D02*
X69206380Y-109257200D01*
X69206380Y-109257200D02*
X69301618Y-109304819D01*
X69301618Y-109304819D02*
X69587332Y-109304819D01*
X69587332Y-109304819D02*
X69682570Y-109257200D01*
X69682570Y-109257200D02*
X69730189Y-109209580D01*
X79653523Y-108144819D02*
X79653523Y-108859104D01*
X79653523Y-108859104D02*
X79701142Y-109001961D01*
X79701142Y-109001961D02*
X79796380Y-109097200D01*
X79796380Y-109097200D02*
X79939237Y-109144819D01*
X79939237Y-109144819D02*
X80034475Y-109144819D01*
X79177332Y-109144819D02*
X79177332Y-108144819D01*
X79177332Y-108144819D02*
X78796380Y-108144819D01*
X78796380Y-108144819D02*
X78701142Y-108192438D01*
X78701142Y-108192438D02*
X78653523Y-108240057D01*
X78653523Y-108240057D02*
X78605904Y-108335295D01*
X78605904Y-108335295D02*
X78605904Y-108478152D01*
X78605904Y-108478152D02*
X78653523Y-108573390D01*
X78653523Y-108573390D02*
X78701142Y-108621009D01*
X78701142Y-108621009D02*
X78796380Y-108668628D01*
X78796380Y-108668628D02*
X79177332Y-108668628D01*
X77653523Y-109144819D02*
X78224951Y-109144819D01*
X77939237Y-109144819D02*
X77939237Y-108144819D01*
X77939237Y-108144819D02*
X78034475Y-108287676D01*
X78034475Y-108287676D02*
X78129713Y-108382914D01*
X78129713Y-108382914D02*
X78224951Y-108430533D01*
X76748761Y-108144819D02*
X77224951Y-108144819D01*
X77224951Y-108144819D02*
X77272570Y-108621009D01*
X77272570Y-108621009D02*
X77224951Y-108573390D01*
X77224951Y-108573390D02*
X77129713Y-108525771D01*
X77129713Y-108525771D02*
X76891618Y-108525771D01*
X76891618Y-108525771D02*
X76796380Y-108573390D01*
X76796380Y-108573390D02*
X76748761Y-108621009D01*
X76748761Y-108621009D02*
X76701142Y-108716247D01*
X76701142Y-108716247D02*
X76701142Y-108954342D01*
X76701142Y-108954342D02*
X76748761Y-109049580D01*
X76748761Y-109049580D02*
X76796380Y-109097200D01*
X76796380Y-109097200D02*
X76891618Y-109144819D01*
X76891618Y-109144819D02*
X77129713Y-109144819D01*
X77129713Y-109144819D02*
X77224951Y-109097200D01*
X77224951Y-109097200D02*
X77272570Y-109049580D01*
X93130666Y-119072819D02*
X93463999Y-118596628D01*
X93702094Y-119072819D02*
X93702094Y-118072819D01*
X93702094Y-118072819D02*
X93321142Y-118072819D01*
X93321142Y-118072819D02*
X93225904Y-118120438D01*
X93225904Y-118120438D02*
X93178285Y-118168057D01*
X93178285Y-118168057D02*
X93130666Y-118263295D01*
X93130666Y-118263295D02*
X93130666Y-118406152D01*
X93130666Y-118406152D02*
X93178285Y-118501390D01*
X93178285Y-118501390D02*
X93225904Y-118549009D01*
X93225904Y-118549009D02*
X93321142Y-118596628D01*
X93321142Y-118596628D02*
X93702094Y-118596628D01*
X92559237Y-118501390D02*
X92654475Y-118453771D01*
X92654475Y-118453771D02*
X92702094Y-118406152D01*
X92702094Y-118406152D02*
X92749713Y-118310914D01*
X92749713Y-118310914D02*
X92749713Y-118263295D01*
X92749713Y-118263295D02*
X92702094Y-118168057D01*
X92702094Y-118168057D02*
X92654475Y-118120438D01*
X92654475Y-118120438D02*
X92559237Y-118072819D01*
X92559237Y-118072819D02*
X92368761Y-118072819D01*
X92368761Y-118072819D02*
X92273523Y-118120438D01*
X92273523Y-118120438D02*
X92225904Y-118168057D01*
X92225904Y-118168057D02*
X92178285Y-118263295D01*
X92178285Y-118263295D02*
X92178285Y-118310914D01*
X92178285Y-118310914D02*
X92225904Y-118406152D01*
X92225904Y-118406152D02*
X92273523Y-118453771D01*
X92273523Y-118453771D02*
X92368761Y-118501390D01*
X92368761Y-118501390D02*
X92559237Y-118501390D01*
X92559237Y-118501390D02*
X92654475Y-118549009D01*
X92654475Y-118549009D02*
X92702094Y-118596628D01*
X92702094Y-118596628D02*
X92749713Y-118691866D01*
X92749713Y-118691866D02*
X92749713Y-118882342D01*
X92749713Y-118882342D02*
X92702094Y-118977580D01*
X92702094Y-118977580D02*
X92654475Y-119025200D01*
X92654475Y-119025200D02*
X92559237Y-119072819D01*
X92559237Y-119072819D02*
X92368761Y-119072819D01*
X92368761Y-119072819D02*
X92273523Y-119025200D01*
X92273523Y-119025200D02*
X92225904Y-118977580D01*
X92225904Y-118977580D02*
X92178285Y-118882342D01*
X92178285Y-118882342D02*
X92178285Y-118691866D01*
X92178285Y-118691866D02*
X92225904Y-118596628D01*
X92225904Y-118596628D02*
X92273523Y-118549009D01*
X92273523Y-118549009D02*
X92368761Y-118501390D01*
X87764857Y-132280819D02*
X88098190Y-131804628D01*
X88336285Y-132280819D02*
X88336285Y-131280819D01*
X88336285Y-131280819D02*
X87955333Y-131280819D01*
X87955333Y-131280819D02*
X87860095Y-131328438D01*
X87860095Y-131328438D02*
X87812476Y-131376057D01*
X87812476Y-131376057D02*
X87764857Y-131471295D01*
X87764857Y-131471295D02*
X87764857Y-131614152D01*
X87764857Y-131614152D02*
X87812476Y-131709390D01*
X87812476Y-131709390D02*
X87860095Y-131757009D01*
X87860095Y-131757009D02*
X87955333Y-131804628D01*
X87955333Y-131804628D02*
X88336285Y-131804628D01*
X86812476Y-132280819D02*
X87383904Y-132280819D01*
X87098190Y-132280819D02*
X87098190Y-131280819D01*
X87098190Y-131280819D02*
X87193428Y-131423676D01*
X87193428Y-131423676D02*
X87288666Y-131518914D01*
X87288666Y-131518914D02*
X87383904Y-131566533D01*
X85955333Y-131614152D02*
X85955333Y-132280819D01*
X86193428Y-131233200D02*
X86431523Y-131947485D01*
X86431523Y-131947485D02*
X85812476Y-131947485D01*
X105985819Y-95671666D02*
X106700104Y-95671666D01*
X106700104Y-95671666D02*
X106842961Y-95624047D01*
X106842961Y-95624047D02*
X106938200Y-95528809D01*
X106938200Y-95528809D02*
X106985819Y-95385952D01*
X106985819Y-95385952D02*
X106985819Y-95290714D01*
X106985819Y-96147857D02*
X105985819Y-96147857D01*
X105985819Y-96147857D02*
X105985819Y-96528809D01*
X105985819Y-96528809D02*
X106033438Y-96624047D01*
X106033438Y-96624047D02*
X106081057Y-96671666D01*
X106081057Y-96671666D02*
X106176295Y-96719285D01*
X106176295Y-96719285D02*
X106319152Y-96719285D01*
X106319152Y-96719285D02*
X106414390Y-96671666D01*
X106414390Y-96671666D02*
X106462009Y-96624047D01*
X106462009Y-96624047D02*
X106509628Y-96528809D01*
X106509628Y-96528809D02*
X106509628Y-96147857D01*
X106081057Y-97100238D02*
X106033438Y-97147857D01*
X106033438Y-97147857D02*
X105985819Y-97243095D01*
X105985819Y-97243095D02*
X105985819Y-97481190D01*
X105985819Y-97481190D02*
X106033438Y-97576428D01*
X106033438Y-97576428D02*
X106081057Y-97624047D01*
X106081057Y-97624047D02*
X106176295Y-97671666D01*
X106176295Y-97671666D02*
X106271533Y-97671666D01*
X106271533Y-97671666D02*
X106414390Y-97624047D01*
X106414390Y-97624047D02*
X106985819Y-97052619D01*
X106985819Y-97052619D02*
X106985819Y-97671666D01*
X109685819Y-93005000D02*
X110685819Y-93338333D01*
X110685819Y-93338333D02*
X109685819Y-93671666D01*
X110590580Y-94576428D02*
X110638200Y-94528809D01*
X110638200Y-94528809D02*
X110685819Y-94385952D01*
X110685819Y-94385952D02*
X110685819Y-94290714D01*
X110685819Y-94290714D02*
X110638200Y-94147857D01*
X110638200Y-94147857D02*
X110542961Y-94052619D01*
X110542961Y-94052619D02*
X110447723Y-94005000D01*
X110447723Y-94005000D02*
X110257247Y-93957381D01*
X110257247Y-93957381D02*
X110114390Y-93957381D01*
X110114390Y-93957381D02*
X109923914Y-94005000D01*
X109923914Y-94005000D02*
X109828676Y-94052619D01*
X109828676Y-94052619D02*
X109733438Y-94147857D01*
X109733438Y-94147857D02*
X109685819Y-94290714D01*
X109685819Y-94290714D02*
X109685819Y-94385952D01*
X109685819Y-94385952D02*
X109733438Y-94528809D01*
X109733438Y-94528809D02*
X109781057Y-94576428D01*
X110590580Y-95576428D02*
X110638200Y-95528809D01*
X110638200Y-95528809D02*
X110685819Y-95385952D01*
X110685819Y-95385952D02*
X110685819Y-95290714D01*
X110685819Y-95290714D02*
X110638200Y-95147857D01*
X110638200Y-95147857D02*
X110542961Y-95052619D01*
X110542961Y-95052619D02*
X110447723Y-95005000D01*
X110447723Y-95005000D02*
X110257247Y-94957381D01*
X110257247Y-94957381D02*
X110114390Y-94957381D01*
X110114390Y-94957381D02*
X109923914Y-95005000D01*
X109923914Y-95005000D02*
X109828676Y-95052619D01*
X109828676Y-95052619D02*
X109733438Y-95147857D01*
X109733438Y-95147857D02*
X109685819Y-95290714D01*
X109685819Y-95290714D02*
X109685819Y-95385952D01*
X109685819Y-95385952D02*
X109733438Y-95528809D01*
X109733438Y-95528809D02*
X109781057Y-95576428D01*
X110781057Y-95766905D02*
X110781057Y-96528809D01*
X110638200Y-96719286D02*
X110685819Y-96862143D01*
X110685819Y-96862143D02*
X110685819Y-97100238D01*
X110685819Y-97100238D02*
X110638200Y-97195476D01*
X110638200Y-97195476D02*
X110590580Y-97243095D01*
X110590580Y-97243095D02*
X110495342Y-97290714D01*
X110495342Y-97290714D02*
X110400104Y-97290714D01*
X110400104Y-97290714D02*
X110304866Y-97243095D01*
X110304866Y-97243095D02*
X110257247Y-97195476D01*
X110257247Y-97195476D02*
X110209628Y-97100238D01*
X110209628Y-97100238D02*
X110162009Y-96909762D01*
X110162009Y-96909762D02*
X110114390Y-96814524D01*
X110114390Y-96814524D02*
X110066771Y-96766905D01*
X110066771Y-96766905D02*
X109971533Y-96719286D01*
X109971533Y-96719286D02*
X109876295Y-96719286D01*
X109876295Y-96719286D02*
X109781057Y-96766905D01*
X109781057Y-96766905D02*
X109733438Y-96814524D01*
X109733438Y-96814524D02*
X109685819Y-96909762D01*
X109685819Y-96909762D02*
X109685819Y-97147857D01*
X109685819Y-97147857D02*
X109733438Y-97290714D01*
X109685819Y-97576429D02*
X109685819Y-98147857D01*
X110685819Y-97862143D02*
X109685819Y-97862143D01*
X110162009Y-98814524D02*
X110209628Y-98957381D01*
X110209628Y-98957381D02*
X110257247Y-99005000D01*
X110257247Y-99005000D02*
X110352485Y-99052619D01*
X110352485Y-99052619D02*
X110495342Y-99052619D01*
X110495342Y-99052619D02*
X110590580Y-99005000D01*
X110590580Y-99005000D02*
X110638200Y-98957381D01*
X110638200Y-98957381D02*
X110685819Y-98862143D01*
X110685819Y-98862143D02*
X110685819Y-98481191D01*
X110685819Y-98481191D02*
X109685819Y-98481191D01*
X109685819Y-98481191D02*
X109685819Y-98814524D01*
X109685819Y-98814524D02*
X109733438Y-98909762D01*
X109733438Y-98909762D02*
X109781057Y-98957381D01*
X109781057Y-98957381D02*
X109876295Y-99005000D01*
X109876295Y-99005000D02*
X109971533Y-99005000D01*
X109971533Y-99005000D02*
X110066771Y-98957381D01*
X110066771Y-98957381D02*
X110114390Y-98909762D01*
X110114390Y-98909762D02*
X110162009Y-98814524D01*
X110162009Y-98814524D02*
X110162009Y-98481191D01*
X110209628Y-99671667D02*
X110685819Y-99671667D01*
X109685819Y-99338334D02*
X110209628Y-99671667D01*
X110209628Y-99671667D02*
X109685819Y-100005000D01*
X127922857Y-111029819D02*
X128256190Y-110553628D01*
X128494285Y-111029819D02*
X128494285Y-110029819D01*
X128494285Y-110029819D02*
X128113333Y-110029819D01*
X128113333Y-110029819D02*
X128018095Y-110077438D01*
X128018095Y-110077438D02*
X127970476Y-110125057D01*
X127970476Y-110125057D02*
X127922857Y-110220295D01*
X127922857Y-110220295D02*
X127922857Y-110363152D01*
X127922857Y-110363152D02*
X127970476Y-110458390D01*
X127970476Y-110458390D02*
X128018095Y-110506009D01*
X128018095Y-110506009D02*
X128113333Y-110553628D01*
X128113333Y-110553628D02*
X128494285Y-110553628D01*
X126970476Y-111029819D02*
X127541904Y-111029819D01*
X127256190Y-111029819D02*
X127256190Y-110029819D01*
X127256190Y-110029819D02*
X127351428Y-110172676D01*
X127351428Y-110172676D02*
X127446666Y-110267914D01*
X127446666Y-110267914D02*
X127541904Y-110315533D01*
X126589523Y-110125057D02*
X126541904Y-110077438D01*
X126541904Y-110077438D02*
X126446666Y-110029819D01*
X126446666Y-110029819D02*
X126208571Y-110029819D01*
X126208571Y-110029819D02*
X126113333Y-110077438D01*
X126113333Y-110077438D02*
X126065714Y-110125057D01*
X126065714Y-110125057D02*
X126018095Y-110220295D01*
X126018095Y-110220295D02*
X126018095Y-110315533D01*
X126018095Y-110315533D02*
X126065714Y-110458390D01*
X126065714Y-110458390D02*
X126637142Y-111029819D01*
X126637142Y-111029819D02*
X126018095Y-111029819D01*
X132451666Y-114604580D02*
X132499285Y-114652200D01*
X132499285Y-114652200D02*
X132642142Y-114699819D01*
X132642142Y-114699819D02*
X132737380Y-114699819D01*
X132737380Y-114699819D02*
X132880237Y-114652200D01*
X132880237Y-114652200D02*
X132975475Y-114556961D01*
X132975475Y-114556961D02*
X133023094Y-114461723D01*
X133023094Y-114461723D02*
X133070713Y-114271247D01*
X133070713Y-114271247D02*
X133070713Y-114128390D01*
X133070713Y-114128390D02*
X133023094Y-113937914D01*
X133023094Y-113937914D02*
X132975475Y-113842676D01*
X132975475Y-113842676D02*
X132880237Y-113747438D01*
X132880237Y-113747438D02*
X132737380Y-113699819D01*
X132737380Y-113699819D02*
X132642142Y-113699819D01*
X132642142Y-113699819D02*
X132499285Y-113747438D01*
X132499285Y-113747438D02*
X132451666Y-113795057D01*
X131975475Y-114699819D02*
X131784999Y-114699819D01*
X131784999Y-114699819D02*
X131689761Y-114652200D01*
X131689761Y-114652200D02*
X131642142Y-114604580D01*
X131642142Y-114604580D02*
X131546904Y-114461723D01*
X131546904Y-114461723D02*
X131499285Y-114271247D01*
X131499285Y-114271247D02*
X131499285Y-113890295D01*
X131499285Y-113890295D02*
X131546904Y-113795057D01*
X131546904Y-113795057D02*
X131594523Y-113747438D01*
X131594523Y-113747438D02*
X131689761Y-113699819D01*
X131689761Y-113699819D02*
X131880237Y-113699819D01*
X131880237Y-113699819D02*
X131975475Y-113747438D01*
X131975475Y-113747438D02*
X132023094Y-113795057D01*
X132023094Y-113795057D02*
X132070713Y-113890295D01*
X132070713Y-113890295D02*
X132070713Y-114128390D01*
X132070713Y-114128390D02*
X132023094Y-114223628D01*
X132023094Y-114223628D02*
X131975475Y-114271247D01*
X131975475Y-114271247D02*
X131880237Y-114318866D01*
X131880237Y-114318866D02*
X131689761Y-114318866D01*
X131689761Y-114318866D02*
X131594523Y-114271247D01*
X131594523Y-114271247D02*
X131546904Y-114223628D01*
X131546904Y-114223628D02*
X131499285Y-114128390D01*
X93130666Y-116786819D02*
X93463999Y-116310628D01*
X93702094Y-116786819D02*
X93702094Y-115786819D01*
X93702094Y-115786819D02*
X93321142Y-115786819D01*
X93321142Y-115786819D02*
X93225904Y-115834438D01*
X93225904Y-115834438D02*
X93178285Y-115882057D01*
X93178285Y-115882057D02*
X93130666Y-115977295D01*
X93130666Y-115977295D02*
X93130666Y-116120152D01*
X93130666Y-116120152D02*
X93178285Y-116215390D01*
X93178285Y-116215390D02*
X93225904Y-116263009D01*
X93225904Y-116263009D02*
X93321142Y-116310628D01*
X93321142Y-116310628D02*
X93702094Y-116310628D01*
X92654475Y-116786819D02*
X92463999Y-116786819D01*
X92463999Y-116786819D02*
X92368761Y-116739200D01*
X92368761Y-116739200D02*
X92321142Y-116691580D01*
X92321142Y-116691580D02*
X92225904Y-116548723D01*
X92225904Y-116548723D02*
X92178285Y-116358247D01*
X92178285Y-116358247D02*
X92178285Y-115977295D01*
X92178285Y-115977295D02*
X92225904Y-115882057D01*
X92225904Y-115882057D02*
X92273523Y-115834438D01*
X92273523Y-115834438D02*
X92368761Y-115786819D01*
X92368761Y-115786819D02*
X92559237Y-115786819D01*
X92559237Y-115786819D02*
X92654475Y-115834438D01*
X92654475Y-115834438D02*
X92702094Y-115882057D01*
X92702094Y-115882057D02*
X92749713Y-115977295D01*
X92749713Y-115977295D02*
X92749713Y-116215390D01*
X92749713Y-116215390D02*
X92702094Y-116310628D01*
X92702094Y-116310628D02*
X92654475Y-116358247D01*
X92654475Y-116358247D02*
X92559237Y-116405866D01*
X92559237Y-116405866D02*
X92368761Y-116405866D01*
X92368761Y-116405866D02*
X92273523Y-116358247D01*
X92273523Y-116358247D02*
X92225904Y-116310628D01*
X92225904Y-116310628D02*
X92178285Y-116215390D01*
X79653523Y-90364819D02*
X79653523Y-91079104D01*
X79653523Y-91079104D02*
X79701142Y-91221961D01*
X79701142Y-91221961D02*
X79796380Y-91317200D01*
X79796380Y-91317200D02*
X79939237Y-91364819D01*
X79939237Y-91364819D02*
X80034475Y-91364819D01*
X79177332Y-91364819D02*
X79177332Y-90364819D01*
X79177332Y-90364819D02*
X78796380Y-90364819D01*
X78796380Y-90364819D02*
X78701142Y-90412438D01*
X78701142Y-90412438D02*
X78653523Y-90460057D01*
X78653523Y-90460057D02*
X78605904Y-90555295D01*
X78605904Y-90555295D02*
X78605904Y-90698152D01*
X78605904Y-90698152D02*
X78653523Y-90793390D01*
X78653523Y-90793390D02*
X78701142Y-90841009D01*
X78701142Y-90841009D02*
X78796380Y-90888628D01*
X78796380Y-90888628D02*
X79177332Y-90888628D01*
X77653523Y-91364819D02*
X78224951Y-91364819D01*
X77939237Y-91364819D02*
X77939237Y-90364819D01*
X77939237Y-90364819D02*
X78034475Y-90507676D01*
X78034475Y-90507676D02*
X78129713Y-90602914D01*
X78129713Y-90602914D02*
X78224951Y-90650533D01*
X77034475Y-90364819D02*
X76939237Y-90364819D01*
X76939237Y-90364819D02*
X76843999Y-90412438D01*
X76843999Y-90412438D02*
X76796380Y-90460057D01*
X76796380Y-90460057D02*
X76748761Y-90555295D01*
X76748761Y-90555295D02*
X76701142Y-90745771D01*
X76701142Y-90745771D02*
X76701142Y-90983866D01*
X76701142Y-90983866D02*
X76748761Y-91174342D01*
X76748761Y-91174342D02*
X76796380Y-91269580D01*
X76796380Y-91269580D02*
X76843999Y-91317200D01*
X76843999Y-91317200D02*
X76939237Y-91364819D01*
X76939237Y-91364819D02*
X77034475Y-91364819D01*
X77034475Y-91364819D02*
X77129713Y-91317200D01*
X77129713Y-91317200D02*
X77177332Y-91269580D01*
X77177332Y-91269580D02*
X77224951Y-91174342D01*
X77224951Y-91174342D02*
X77272570Y-90983866D01*
X77272570Y-90983866D02*
X77272570Y-90745771D01*
X77272570Y-90745771D02*
X77224951Y-90555295D01*
X77224951Y-90555295D02*
X77177332Y-90460057D01*
X77177332Y-90460057D02*
X77129713Y-90412438D01*
X77129713Y-90412438D02*
X77034475Y-90364819D01*
X126372857Y-127414580D02*
X126420476Y-127462200D01*
X126420476Y-127462200D02*
X126563333Y-127509819D01*
X126563333Y-127509819D02*
X126658571Y-127509819D01*
X126658571Y-127509819D02*
X126801428Y-127462200D01*
X126801428Y-127462200D02*
X126896666Y-127366961D01*
X126896666Y-127366961D02*
X126944285Y-127271723D01*
X126944285Y-127271723D02*
X126991904Y-127081247D01*
X126991904Y-127081247D02*
X126991904Y-126938390D01*
X126991904Y-126938390D02*
X126944285Y-126747914D01*
X126944285Y-126747914D02*
X126896666Y-126652676D01*
X126896666Y-126652676D02*
X126801428Y-126557438D01*
X126801428Y-126557438D02*
X126658571Y-126509819D01*
X126658571Y-126509819D02*
X126563333Y-126509819D01*
X126563333Y-126509819D02*
X126420476Y-126557438D01*
X126420476Y-126557438D02*
X126372857Y-126605057D01*
X125420476Y-127509819D02*
X125991904Y-127509819D01*
X125706190Y-127509819D02*
X125706190Y-126509819D01*
X125706190Y-126509819D02*
X125801428Y-126652676D01*
X125801428Y-126652676D02*
X125896666Y-126747914D01*
X125896666Y-126747914D02*
X125991904Y-126795533D01*
X124801428Y-126509819D02*
X124706190Y-126509819D01*
X124706190Y-126509819D02*
X124610952Y-126557438D01*
X124610952Y-126557438D02*
X124563333Y-126605057D01*
X124563333Y-126605057D02*
X124515714Y-126700295D01*
X124515714Y-126700295D02*
X124468095Y-126890771D01*
X124468095Y-126890771D02*
X124468095Y-127128866D01*
X124468095Y-127128866D02*
X124515714Y-127319342D01*
X124515714Y-127319342D02*
X124563333Y-127414580D01*
X124563333Y-127414580D02*
X124610952Y-127462200D01*
X124610952Y-127462200D02*
X124706190Y-127509819D01*
X124706190Y-127509819D02*
X124801428Y-127509819D01*
X124801428Y-127509819D02*
X124896666Y-127462200D01*
X124896666Y-127462200D02*
X124944285Y-127414580D01*
X124944285Y-127414580D02*
X124991904Y-127319342D01*
X124991904Y-127319342D02*
X125039523Y-127128866D01*
X125039523Y-127128866D02*
X125039523Y-126890771D01*
X125039523Y-126890771D02*
X124991904Y-126700295D01*
X124991904Y-126700295D02*
X124944285Y-126605057D01*
X124944285Y-126605057D02*
X124896666Y-126557438D01*
X124896666Y-126557438D02*
X124801428Y-126509819D01*
X93098857Y-123898819D02*
X93432190Y-123422628D01*
X93670285Y-123898819D02*
X93670285Y-122898819D01*
X93670285Y-122898819D02*
X93289333Y-122898819D01*
X93289333Y-122898819D02*
X93194095Y-122946438D01*
X93194095Y-122946438D02*
X93146476Y-122994057D01*
X93146476Y-122994057D02*
X93098857Y-123089295D01*
X93098857Y-123089295D02*
X93098857Y-123232152D01*
X93098857Y-123232152D02*
X93146476Y-123327390D01*
X93146476Y-123327390D02*
X93194095Y-123375009D01*
X93194095Y-123375009D02*
X93289333Y-123422628D01*
X93289333Y-123422628D02*
X93670285Y-123422628D01*
X92146476Y-123898819D02*
X92717904Y-123898819D01*
X92432190Y-123898819D02*
X92432190Y-122898819D01*
X92432190Y-122898819D02*
X92527428Y-123041676D01*
X92527428Y-123041676D02*
X92622666Y-123136914D01*
X92622666Y-123136914D02*
X92717904Y-123184533D01*
X91194095Y-123898819D02*
X91765523Y-123898819D01*
X91479809Y-123898819D02*
X91479809Y-122898819D01*
X91479809Y-122898819D02*
X91575047Y-123041676D01*
X91575047Y-123041676D02*
X91670285Y-123136914D01*
X91670285Y-123136914D02*
X91765523Y-123184533D01*
X91209580Y-53958333D02*
X91257200Y-53910714D01*
X91257200Y-53910714D02*
X91304819Y-53767857D01*
X91304819Y-53767857D02*
X91304819Y-53672619D01*
X91304819Y-53672619D02*
X91257200Y-53529762D01*
X91257200Y-53529762D02*
X91161961Y-53434524D01*
X91161961Y-53434524D02*
X91066723Y-53386905D01*
X91066723Y-53386905D02*
X90876247Y-53339286D01*
X90876247Y-53339286D02*
X90733390Y-53339286D01*
X90733390Y-53339286D02*
X90542914Y-53386905D01*
X90542914Y-53386905D02*
X90447676Y-53434524D01*
X90447676Y-53434524D02*
X90352438Y-53529762D01*
X90352438Y-53529762D02*
X90304819Y-53672619D01*
X90304819Y-53672619D02*
X90304819Y-53767857D01*
X90304819Y-53767857D02*
X90352438Y-53910714D01*
X90352438Y-53910714D02*
X90400057Y-53958333D01*
X91304819Y-54910714D02*
X91304819Y-54339286D01*
X91304819Y-54625000D02*
X90304819Y-54625000D01*
X90304819Y-54625000D02*
X90447676Y-54529762D01*
X90447676Y-54529762D02*
X90542914Y-54434524D01*
X90542914Y-54434524D02*
X90590533Y-54339286D01*
X84397523Y-121098819D02*
X84397523Y-121813104D01*
X84397523Y-121813104D02*
X84445142Y-121955961D01*
X84445142Y-121955961D02*
X84540380Y-122051200D01*
X84540380Y-122051200D02*
X84683237Y-122098819D01*
X84683237Y-122098819D02*
X84778475Y-122098819D01*
X83921332Y-122098819D02*
X83921332Y-121098819D01*
X83921332Y-121098819D02*
X83540380Y-121098819D01*
X83540380Y-121098819D02*
X83445142Y-121146438D01*
X83445142Y-121146438D02*
X83397523Y-121194057D01*
X83397523Y-121194057D02*
X83349904Y-121289295D01*
X83349904Y-121289295D02*
X83349904Y-121432152D01*
X83349904Y-121432152D02*
X83397523Y-121527390D01*
X83397523Y-121527390D02*
X83445142Y-121575009D01*
X83445142Y-121575009D02*
X83540380Y-121622628D01*
X83540380Y-121622628D02*
X83921332Y-121622628D01*
X82397523Y-122098819D02*
X82968951Y-122098819D01*
X82683237Y-122098819D02*
X82683237Y-121098819D01*
X82683237Y-121098819D02*
X82778475Y-121241676D01*
X82778475Y-121241676D02*
X82873713Y-121336914D01*
X82873713Y-121336914D02*
X82968951Y-121384533D01*
X81540380Y-121432152D02*
X81540380Y-122098819D01*
X81778475Y-121051200D02*
X82016570Y-121765485D01*
X82016570Y-121765485D02*
X81397523Y-121765485D01*
X80821332Y-122898819D02*
X80202285Y-122898819D01*
X80202285Y-122898819D02*
X80535618Y-123279771D01*
X80535618Y-123279771D02*
X80392761Y-123279771D01*
X80392761Y-123279771D02*
X80297523Y-123327390D01*
X80297523Y-123327390D02*
X80249904Y-123375009D01*
X80249904Y-123375009D02*
X80202285Y-123470247D01*
X80202285Y-123470247D02*
X80202285Y-123708342D01*
X80202285Y-123708342D02*
X80249904Y-123803580D01*
X80249904Y-123803580D02*
X80297523Y-123851200D01*
X80297523Y-123851200D02*
X80392761Y-123898819D01*
X80392761Y-123898819D02*
X80678475Y-123898819D01*
X80678475Y-123898819D02*
X80773713Y-123851200D01*
X80773713Y-123851200D02*
X80821332Y-123803580D01*
X85402285Y-123898819D02*
X85973713Y-123898819D01*
X85687999Y-123898819D02*
X85687999Y-122898819D01*
X85687999Y-122898819D02*
X85783237Y-123041676D01*
X85783237Y-123041676D02*
X85878475Y-123136914D01*
X85878475Y-123136914D02*
X85973713Y-123184533D01*
X79653523Y-73092819D02*
X79653523Y-73807104D01*
X79653523Y-73807104D02*
X79701142Y-73949961D01*
X79701142Y-73949961D02*
X79796380Y-74045200D01*
X79796380Y-74045200D02*
X79939237Y-74092819D01*
X79939237Y-74092819D02*
X80034475Y-74092819D01*
X79177332Y-74092819D02*
X79177332Y-73092819D01*
X79177332Y-73092819D02*
X78796380Y-73092819D01*
X78796380Y-73092819D02*
X78701142Y-73140438D01*
X78701142Y-73140438D02*
X78653523Y-73188057D01*
X78653523Y-73188057D02*
X78605904Y-73283295D01*
X78605904Y-73283295D02*
X78605904Y-73426152D01*
X78605904Y-73426152D02*
X78653523Y-73521390D01*
X78653523Y-73521390D02*
X78701142Y-73569009D01*
X78701142Y-73569009D02*
X78796380Y-73616628D01*
X78796380Y-73616628D02*
X79177332Y-73616628D01*
X77653523Y-74092819D02*
X78224951Y-74092819D01*
X77939237Y-74092819D02*
X77939237Y-73092819D01*
X77939237Y-73092819D02*
X78034475Y-73235676D01*
X78034475Y-73235676D02*
X78129713Y-73330914D01*
X78129713Y-73330914D02*
X78224951Y-73378533D01*
X77272570Y-73188057D02*
X77224951Y-73140438D01*
X77224951Y-73140438D02*
X77129713Y-73092819D01*
X77129713Y-73092819D02*
X76891618Y-73092819D01*
X76891618Y-73092819D02*
X76796380Y-73140438D01*
X76796380Y-73140438D02*
X76748761Y-73188057D01*
X76748761Y-73188057D02*
X76701142Y-73283295D01*
X76701142Y-73283295D02*
X76701142Y-73378533D01*
X76701142Y-73378533D02*
X76748761Y-73521390D01*
X76748761Y-73521390D02*
X77320189Y-74092819D01*
X77320189Y-74092819D02*
X76701142Y-74092819D01*
X77578857Y-132746819D02*
X77912190Y-132270628D01*
X78150285Y-132746819D02*
X78150285Y-131746819D01*
X78150285Y-131746819D02*
X77769333Y-131746819D01*
X77769333Y-131746819D02*
X77674095Y-131794438D01*
X77674095Y-131794438D02*
X77626476Y-131842057D01*
X77626476Y-131842057D02*
X77578857Y-131937295D01*
X77578857Y-131937295D02*
X77578857Y-132080152D01*
X77578857Y-132080152D02*
X77626476Y-132175390D01*
X77626476Y-132175390D02*
X77674095Y-132223009D01*
X77674095Y-132223009D02*
X77769333Y-132270628D01*
X77769333Y-132270628D02*
X78150285Y-132270628D01*
X76626476Y-132746819D02*
X77197904Y-132746819D01*
X76912190Y-132746819D02*
X76912190Y-131746819D01*
X76912190Y-131746819D02*
X77007428Y-131889676D01*
X77007428Y-131889676D02*
X77102666Y-131984914D01*
X77102666Y-131984914D02*
X77197904Y-132032533D01*
X75721714Y-131746819D02*
X76197904Y-131746819D01*
X76197904Y-131746819D02*
X76245523Y-132223009D01*
X76245523Y-132223009D02*
X76197904Y-132175390D01*
X76197904Y-132175390D02*
X76102666Y-132127771D01*
X76102666Y-132127771D02*
X75864571Y-132127771D01*
X75864571Y-132127771D02*
X75769333Y-132175390D01*
X75769333Y-132175390D02*
X75721714Y-132223009D01*
X75721714Y-132223009D02*
X75674095Y-132318247D01*
X75674095Y-132318247D02*
X75674095Y-132556342D01*
X75674095Y-132556342D02*
X75721714Y-132651580D01*
X75721714Y-132651580D02*
X75769333Y-132699200D01*
X75769333Y-132699200D02*
X75864571Y-132746819D01*
X75864571Y-132746819D02*
X76102666Y-132746819D01*
X76102666Y-132746819D02*
X76197904Y-132699200D01*
X76197904Y-132699200D02*
X76245523Y-132651580D01*
X116193819Y-68006333D02*
X115717628Y-67673000D01*
X116193819Y-67434905D02*
X115193819Y-67434905D01*
X115193819Y-67434905D02*
X115193819Y-67815857D01*
X115193819Y-67815857D02*
X115241438Y-67911095D01*
X115241438Y-67911095D02*
X115289057Y-67958714D01*
X115289057Y-67958714D02*
X115384295Y-68006333D01*
X115384295Y-68006333D02*
X115527152Y-68006333D01*
X115527152Y-68006333D02*
X115622390Y-67958714D01*
X115622390Y-67958714D02*
X115670009Y-67911095D01*
X115670009Y-67911095D02*
X115717628Y-67815857D01*
X115717628Y-67815857D02*
X115717628Y-67434905D01*
X115193819Y-68339667D02*
X115193819Y-68958714D01*
X115193819Y-68958714D02*
X115574771Y-68625381D01*
X115574771Y-68625381D02*
X115574771Y-68768238D01*
X115574771Y-68768238D02*
X115622390Y-68863476D01*
X115622390Y-68863476D02*
X115670009Y-68911095D01*
X115670009Y-68911095D02*
X115765247Y-68958714D01*
X115765247Y-68958714D02*
X116003342Y-68958714D01*
X116003342Y-68958714D02*
X116098580Y-68911095D01*
X116098580Y-68911095D02*
X116146200Y-68863476D01*
X116146200Y-68863476D02*
X116193819Y-68768238D01*
X116193819Y-68768238D02*
X116193819Y-68482524D01*
X116193819Y-68482524D02*
X116146200Y-68387286D01*
X116146200Y-68387286D02*
X116098580Y-68339667D01*
X124618819Y-69836333D02*
X124142628Y-69503000D01*
X124618819Y-69264905D02*
X123618819Y-69264905D01*
X123618819Y-69264905D02*
X123618819Y-69645857D01*
X123618819Y-69645857D02*
X123666438Y-69741095D01*
X123666438Y-69741095D02*
X123714057Y-69788714D01*
X123714057Y-69788714D02*
X123809295Y-69836333D01*
X123809295Y-69836333D02*
X123952152Y-69836333D01*
X123952152Y-69836333D02*
X124047390Y-69788714D01*
X124047390Y-69788714D02*
X124095009Y-69741095D01*
X124095009Y-69741095D02*
X124142628Y-69645857D01*
X124142628Y-69645857D02*
X124142628Y-69264905D01*
X124618819Y-70788714D02*
X124618819Y-70217286D01*
X124618819Y-70503000D02*
X123618819Y-70503000D01*
X123618819Y-70503000D02*
X123761676Y-70407762D01*
X123761676Y-70407762D02*
X123856914Y-70312524D01*
X123856914Y-70312524D02*
X123904533Y-70217286D01*
X127031819Y-69911333D02*
X126555628Y-69578000D01*
X127031819Y-69339905D02*
X126031819Y-69339905D01*
X126031819Y-69339905D02*
X126031819Y-69720857D01*
X126031819Y-69720857D02*
X126079438Y-69816095D01*
X126079438Y-69816095D02*
X126127057Y-69863714D01*
X126127057Y-69863714D02*
X126222295Y-69911333D01*
X126222295Y-69911333D02*
X126365152Y-69911333D01*
X126365152Y-69911333D02*
X126460390Y-69863714D01*
X126460390Y-69863714D02*
X126508009Y-69816095D01*
X126508009Y-69816095D02*
X126555628Y-69720857D01*
X126555628Y-69720857D02*
X126555628Y-69339905D01*
X126127057Y-70292286D02*
X126079438Y-70339905D01*
X126079438Y-70339905D02*
X126031819Y-70435143D01*
X126031819Y-70435143D02*
X126031819Y-70673238D01*
X126031819Y-70673238D02*
X126079438Y-70768476D01*
X126079438Y-70768476D02*
X126127057Y-70816095D01*
X126127057Y-70816095D02*
X126222295Y-70863714D01*
X126222295Y-70863714D02*
X126317533Y-70863714D01*
X126317533Y-70863714D02*
X126460390Y-70816095D01*
X126460390Y-70816095D02*
X127031819Y-70244667D01*
X127031819Y-70244667D02*
X127031819Y-70863714D01*
X112775904Y-115405819D02*
X112775904Y-116215342D01*
X112775904Y-116215342D02*
X112728285Y-116310580D01*
X112728285Y-116310580D02*
X112680666Y-116358200D01*
X112680666Y-116358200D02*
X112585428Y-116405819D01*
X112585428Y-116405819D02*
X112394952Y-116405819D01*
X112394952Y-116405819D02*
X112299714Y-116358200D01*
X112299714Y-116358200D02*
X112252095Y-116310580D01*
X112252095Y-116310580D02*
X112204476Y-116215342D01*
X112204476Y-116215342D02*
X112204476Y-115405819D01*
X111299714Y-115405819D02*
X111490190Y-115405819D01*
X111490190Y-115405819D02*
X111585428Y-115453438D01*
X111585428Y-115453438D02*
X111633047Y-115501057D01*
X111633047Y-115501057D02*
X111728285Y-115643914D01*
X111728285Y-115643914D02*
X111775904Y-115834390D01*
X111775904Y-115834390D02*
X111775904Y-116215342D01*
X111775904Y-116215342D02*
X111728285Y-116310580D01*
X111728285Y-116310580D02*
X111680666Y-116358200D01*
X111680666Y-116358200D02*
X111585428Y-116405819D01*
X111585428Y-116405819D02*
X111394952Y-116405819D01*
X111394952Y-116405819D02*
X111299714Y-116358200D01*
X111299714Y-116358200D02*
X111252095Y-116310580D01*
X111252095Y-116310580D02*
X111204476Y-116215342D01*
X111204476Y-116215342D02*
X111204476Y-115977247D01*
X111204476Y-115977247D02*
X111252095Y-115882009D01*
X111252095Y-115882009D02*
X111299714Y-115834390D01*
X111299714Y-115834390D02*
X111394952Y-115786771D01*
X111394952Y-115786771D02*
X111585428Y-115786771D01*
X111585428Y-115786771D02*
X111680666Y-115834390D01*
X111680666Y-115834390D02*
X111728285Y-115882009D01*
X111728285Y-115882009D02*
X111775904Y-115977247D01*
X77832857Y-126142819D02*
X78166190Y-125666628D01*
X78404285Y-126142819D02*
X78404285Y-125142819D01*
X78404285Y-125142819D02*
X78023333Y-125142819D01*
X78023333Y-125142819D02*
X77928095Y-125190438D01*
X77928095Y-125190438D02*
X77880476Y-125238057D01*
X77880476Y-125238057D02*
X77832857Y-125333295D01*
X77832857Y-125333295D02*
X77832857Y-125476152D01*
X77832857Y-125476152D02*
X77880476Y-125571390D01*
X77880476Y-125571390D02*
X77928095Y-125619009D01*
X77928095Y-125619009D02*
X78023333Y-125666628D01*
X78023333Y-125666628D02*
X78404285Y-125666628D01*
X76880476Y-126142819D02*
X77451904Y-126142819D01*
X77166190Y-126142819D02*
X77166190Y-125142819D01*
X77166190Y-125142819D02*
X77261428Y-125285676D01*
X77261428Y-125285676D02*
X77356666Y-125380914D01*
X77356666Y-125380914D02*
X77451904Y-125428533D01*
X76023333Y-125142819D02*
X76213809Y-125142819D01*
X76213809Y-125142819D02*
X76309047Y-125190438D01*
X76309047Y-125190438D02*
X76356666Y-125238057D01*
X76356666Y-125238057D02*
X76451904Y-125380914D01*
X76451904Y-125380914D02*
X76499523Y-125571390D01*
X76499523Y-125571390D02*
X76499523Y-125952342D01*
X76499523Y-125952342D02*
X76451904Y-126047580D01*
X76451904Y-126047580D02*
X76404285Y-126095200D01*
X76404285Y-126095200D02*
X76309047Y-126142819D01*
X76309047Y-126142819D02*
X76118571Y-126142819D01*
X76118571Y-126142819D02*
X76023333Y-126095200D01*
X76023333Y-126095200D02*
X75975714Y-126047580D01*
X75975714Y-126047580D02*
X75928095Y-125952342D01*
X75928095Y-125952342D02*
X75928095Y-125714247D01*
X75928095Y-125714247D02*
X75975714Y-125619009D01*
X75975714Y-125619009D02*
X76023333Y-125571390D01*
X76023333Y-125571390D02*
X76118571Y-125523771D01*
X76118571Y-125523771D02*
X76309047Y-125523771D01*
X76309047Y-125523771D02*
X76404285Y-125571390D01*
X76404285Y-125571390D02*
X76451904Y-125619009D01*
X76451904Y-125619009D02*
X76499523Y-125714247D01*
D11*
%TO.C,C2*%
X87890000Y-146486252D02*
X87890000Y-145063748D01*
X89710000Y-146486252D02*
X89710000Y-145063748D01*
%TO.C,R6*%
X97134000Y-100549064D02*
X97134000Y-99094936D01*
X98954000Y-100549064D02*
X98954000Y-99094936D01*
%TO.C,R5*%
X110723000Y-67445936D02*
X110723000Y-68900064D01*
X112543000Y-67445936D02*
X112543000Y-68900064D01*
%TO.C,C6*%
X125601252Y-95483000D02*
X124178748Y-95483000D01*
X125601252Y-97303000D02*
X124178748Y-97303000D01*
%TO.C,JP3*%
X91964000Y-93933000D02*
X91964000Y-92533000D01*
X92664000Y-91833000D02*
X93264000Y-91833000D01*
X93264000Y-94633000D02*
X92664000Y-94633000D01*
X93964000Y-92533000D02*
X93964000Y-93933000D01*
X91964000Y-92533000D02*
G75*
G02*
X92664000Y-91833000I700000J0D01*
G01*
X92664000Y-94633000D02*
G75*
G02*
X91964000Y-93933000I-1J699999D01*
G01*
X93264000Y-91833000D02*
G75*
G02*
X93964000Y-92533000I0J-700000D01*
G01*
X93964000Y-93933000D02*
G75*
G02*
X93264000Y-94633000I-699999J-1D01*
G01*
%TO.C,JP6*%
X91964000Y-101426000D02*
X91964000Y-100026000D01*
X92664000Y-99326000D02*
X93264000Y-99326000D01*
X93264000Y-102126000D02*
X92664000Y-102126000D01*
X93964000Y-100026000D02*
X93964000Y-101426000D01*
X91964000Y-100026000D02*
G75*
G02*
X92664000Y-99326000I699999J1D01*
G01*
X92664000Y-102126000D02*
G75*
G02*
X91964000Y-101426000I0J700000D01*
G01*
X93264000Y-99326000D02*
G75*
G02*
X93964000Y-100026000I1J-699999D01*
G01*
X93964000Y-101426000D02*
G75*
G02*
X93264000Y-102126000I-700000J0D01*
G01*
%TO.C,J8*%
X100413000Y-82534000D02*
X102533000Y-82534000D01*
X100413000Y-82594000D02*
X100413000Y-82534000D01*
X100413000Y-82594000D02*
X102533000Y-82594000D01*
X101473000Y-80474000D02*
X102533000Y-80474000D01*
X102533000Y-80474000D02*
X102533000Y-81534000D01*
X102533000Y-82594000D02*
X102533000Y-82534000D01*
%TO.C,R4*%
X115422000Y-67445936D02*
X115422000Y-68900064D01*
X117242000Y-67445936D02*
X117242000Y-68900064D01*
%TO.C,R7*%
X89220064Y-120121000D02*
X87765936Y-120121000D01*
X89220064Y-121941000D02*
X87765936Y-121941000D01*
%TO.C,R13*%
X82304936Y-134726000D02*
X83759064Y-134726000D01*
X82304936Y-136546000D02*
X83759064Y-136546000D01*
%TO.C,JP7*%
X69578000Y-93010000D02*
X69578000Y-92410000D01*
X70278000Y-91710000D02*
X71678000Y-91710000D01*
X71678000Y-93710000D02*
X70278000Y-93710000D01*
X72378000Y-92410000D02*
X72378000Y-93010000D01*
X69578000Y-92410000D02*
G75*
G02*
X70278000Y-91710000I700000J0D01*
G01*
X70278000Y-93710000D02*
G75*
G02*
X69578000Y-93010000I0J700000D01*
G01*
X71678000Y-91710000D02*
G75*
G02*
X72378000Y-92410000I1J-699999D01*
G01*
X72378000Y-93010000D02*
G75*
G02*
X71678000Y-93710000I-699999J-1D01*
G01*
%TO.C,R10*%
X89220064Y-112755000D02*
X87765936Y-112755000D01*
X89220064Y-114575000D02*
X87765936Y-114575000D01*
%TO.C,C5*%
X99420000Y-71274252D02*
X99420000Y-69851748D01*
X101240000Y-71274252D02*
X101240000Y-69851748D01*
%TO.C,JP11*%
X69324000Y-75738000D02*
X69324000Y-75138000D01*
X70024000Y-74438000D02*
X71424000Y-74438000D01*
X71424000Y-76438000D02*
X70024000Y-76438000D01*
X72124000Y-75138000D02*
X72124000Y-75738000D01*
X69324000Y-75138000D02*
G75*
G02*
X70024000Y-74438000I700000J0D01*
G01*
X70024000Y-76438000D02*
G75*
G02*
X69324000Y-75738000I0J700000D01*
G01*
X71424000Y-74438000D02*
G75*
G02*
X72124000Y-75138000I1J-699999D01*
G01*
X72124000Y-75738000D02*
G75*
G02*
X71424000Y-76438000I-699999J-1D01*
G01*
%TO.C,J9*%
X100413000Y-80248000D02*
X102533000Y-80248000D01*
X100413000Y-80308000D02*
X100413000Y-80248000D01*
X100413000Y-80308000D02*
X102533000Y-80308000D01*
X101473000Y-78188000D02*
X102533000Y-78188000D01*
X102533000Y-78188000D02*
X102533000Y-79248000D01*
X102533000Y-80308000D02*
X102533000Y-80248000D01*
%TO.C,JP1*%
X102378000Y-97347000D02*
X102378000Y-95947000D01*
X103078000Y-95247000D02*
X103678000Y-95247000D01*
X103678000Y-98047000D02*
X103078000Y-98047000D01*
X104378000Y-95947000D02*
X104378000Y-97347000D01*
X102378000Y-95947000D02*
G75*
G02*
X103078000Y-95247000I700000J0D01*
G01*
X103078000Y-98047000D02*
G75*
G02*
X102378000Y-97347000I-1J699999D01*
G01*
X103678000Y-95247000D02*
G75*
G02*
X104378000Y-95947000I0J-700000D01*
G01*
X104378000Y-97347000D02*
G75*
G02*
X103678000Y-98047000I-699999J-1D01*
G01*
%TO.C,JP13*%
X69354000Y-110950000D02*
X69354000Y-110350000D01*
X70054000Y-109650000D02*
X71454000Y-109650000D01*
X71454000Y-111650000D02*
X70054000Y-111650000D01*
X72154000Y-110350000D02*
X72154000Y-110950000D01*
X69354000Y-110350000D02*
G75*
G02*
X70054000Y-109650000I700000J0D01*
G01*
X70054000Y-111650000D02*
G75*
G02*
X69354000Y-110950000I0J700000D01*
G01*
X71454000Y-109650000D02*
G75*
G02*
X72154000Y-110350000I1J-699999D01*
G01*
X72154000Y-110950000D02*
G75*
G02*
X71454000Y-111650000I-699999J-1D01*
G01*
%TO.C,JP15*%
X76944000Y-110790000D02*
X76944000Y-110190000D01*
X77644000Y-109490000D02*
X79044000Y-109490000D01*
X79044000Y-111490000D02*
X77644000Y-111490000D01*
X79744000Y-110190000D02*
X79744000Y-110790000D01*
X76944000Y-110190000D02*
G75*
G02*
X77644000Y-109490000I700000J0D01*
G01*
X77644000Y-111490000D02*
G75*
G02*
X76944000Y-110790000I0J700000D01*
G01*
X79044000Y-109490000D02*
G75*
G02*
X79744000Y-110190000I1J-699999D01*
G01*
X79744000Y-110790000D02*
G75*
G02*
X79044000Y-111490000I-699999J-1D01*
G01*
%TO.C,R8*%
X89220064Y-117708000D02*
X87765936Y-117708000D01*
X89220064Y-119528000D02*
X87765936Y-119528000D01*
%TO.C,R14*%
X82356936Y-131170000D02*
X83811064Y-131170000D01*
X82356936Y-132990000D02*
X83811064Y-132990000D01*
%TO.C,JP2*%
X107331000Y-97205000D02*
X107331000Y-95805000D01*
X108031000Y-95105000D02*
X108631000Y-95105000D01*
X108631000Y-97905000D02*
X108031000Y-97905000D01*
X109331000Y-95805000D02*
X109331000Y-97205000D01*
X107331000Y-95805000D02*
G75*
G02*
X108031000Y-95105000I699999J1D01*
G01*
X108031000Y-97905000D02*
G75*
G02*
X107331000Y-97205000I0J700000D01*
G01*
X108631000Y-95105000D02*
G75*
G02*
X109331000Y-95805000I1J-699999D01*
G01*
X109331000Y-97205000D02*
G75*
G02*
X108631000Y-97905000I-700000J0D01*
G01*
%TO.C,R12*%
X126552936Y-111485000D02*
X128007064Y-111485000D01*
X126552936Y-113305000D02*
X128007064Y-113305000D01*
%TO.C,C9*%
X132996252Y-111485000D02*
X131573748Y-111485000D01*
X132996252Y-113305000D02*
X131573748Y-113305000D01*
%TO.C,R9*%
X89220064Y-115295000D02*
X87765936Y-115295000D01*
X89220064Y-117115000D02*
X87765936Y-117115000D01*
%TO.C,JP10*%
X76944000Y-93010000D02*
X76944000Y-92410000D01*
X77644000Y-91710000D02*
X79044000Y-91710000D01*
X79044000Y-93710000D02*
X77644000Y-93710000D01*
X79744000Y-92410000D02*
X79744000Y-93010000D01*
X76944000Y-92410000D02*
G75*
G02*
X77644000Y-91710000I700000J0D01*
G01*
X77644000Y-93710000D02*
G75*
G02*
X76944000Y-93010000I0J700000D01*
G01*
X79044000Y-91710000D02*
G75*
G02*
X79744000Y-92410000I1J-699999D01*
G01*
X79744000Y-93010000D02*
G75*
G02*
X79044000Y-93710000I-699999J-1D01*
G01*
%TO.C,C10*%
X125018748Y-127995000D02*
X126441252Y-127995000D01*
X125018748Y-129815000D02*
X126441252Y-129815000D01*
%TO.C,R11*%
X89246064Y-122407000D02*
X87791936Y-122407000D01*
X89246064Y-124227000D02*
X87791936Y-124227000D01*
%TO.C,C1*%
X88090000Y-53413748D02*
X88090000Y-54836252D01*
X89910000Y-53413748D02*
X89910000Y-54836252D01*
%TO.C,JP14*%
X81038000Y-123744000D02*
X81038000Y-123144000D01*
X81688000Y-122444000D02*
X84488000Y-122444000D01*
X84488000Y-124444000D02*
X81688000Y-124444000D01*
X85138000Y-123144000D02*
X85138000Y-123744000D01*
X81038000Y-123144000D02*
G75*
G02*
X81738000Y-122444000I700000J0D01*
G01*
X81738000Y-124444000D02*
G75*
G02*
X81038000Y-123744000I0J700000D01*
G01*
X84438000Y-122444000D02*
G75*
G02*
X85138000Y-123144000I1J-699999D01*
G01*
X85138000Y-123744000D02*
G75*
G02*
X84438000Y-124444000I-699999J-1D01*
G01*
%TO.C,JP12*%
X76944000Y-75738000D02*
X76944000Y-75138000D01*
X77644000Y-74438000D02*
X79044000Y-74438000D01*
X79044000Y-76438000D02*
X77644000Y-76438000D01*
X79744000Y-75138000D02*
X79744000Y-75738000D01*
X76944000Y-75138000D02*
G75*
G02*
X77644000Y-74438000I700000J0D01*
G01*
X77644000Y-76438000D02*
G75*
G02*
X76944000Y-75738000I0J700000D01*
G01*
X79044000Y-74438000D02*
G75*
G02*
X79744000Y-75138000I1J-699999D01*
G01*
X79744000Y-75738000D02*
G75*
G02*
X79044000Y-76438000I-699999J-1D01*
G01*
%TO.C,R15*%
X76208936Y-133202000D02*
X77663064Y-133202000D01*
X76208936Y-135022000D02*
X77663064Y-135022000D01*
%TO.C,R3*%
X113009000Y-67445936D02*
X113009000Y-68900064D01*
X114829000Y-67445936D02*
X114829000Y-68900064D01*
%TO.C,R1*%
X125074000Y-70730064D02*
X125074000Y-69275936D01*
X126894000Y-70730064D02*
X126894000Y-69275936D01*
%TO.C,R2*%
X127487000Y-70805064D02*
X127487000Y-69350936D01*
X129307000Y-70805064D02*
X129307000Y-69350936D01*
%TO.C,U6*%
X105173000Y-115326000D02*
X107123000Y-115326000D01*
X105173000Y-124196000D02*
X107123000Y-124196000D01*
X109073000Y-115326000D02*
X107123000Y-115326000D01*
X109073000Y-124196000D02*
X107123000Y-124196000D01*
X109823000Y-115391000D02*
X109583000Y-115061000D01*
X110063000Y-115061000D01*
X109823000Y-115391000D01*
G36*
X109823000Y-115391000D02*
G01*
X109583000Y-115061000D01*
X110063000Y-115061000D01*
X109823000Y-115391000D01*
G37*
%TO.C,C4*%
X129900000Y-70815252D02*
X129900000Y-69392748D01*
X131720000Y-70815252D02*
X131720000Y-69392748D01*
%TO.C,R16*%
X76462936Y-126598000D02*
X77917064Y-126598000D01*
X76462936Y-128418000D02*
X77917064Y-128418000D01*
%TD*%
M02*
