M48
; DRILL file {KiCad 8.0.7-8.0.7-0~ubuntu22.04.1} date 2025-01-29T21:42:37+0100
; FORMAT={-:-/ absolute / inch / decimal}
; #@! TF.CreationDate,2025-01-29T21:42:37+01:00
; #@! TF.GenerationSoftware,Kicad,Pcbnew,8.0.7-8.0.7-0~ubuntu22.04.1
; #@! TF.FileFunction,MixedPlating,1,2
FMAT,2
INCH
; #@! TA.AperFunction,Plated,PTH,ViaDrill
T1C0.0157
; #@! TA.AperFunction,Plated,PTH,ComponentDrill
T2C0.0256
; #@! TA.AperFunction,Plated,PTH,ComponentDrill
T3C0.0394
; #@! TA.AperFunction,NonPlated,NPTH,ComponentDrill
T4C0.1260
%
G90
G05
T1
X2.38Y-3.13
X2.38Y-3.51
X2.38Y-4.46
X2.4Y-2.795
X2.4727Y-3.81
X2.489Y-4.46
X2.49Y-4.6
X2.492Y-4.822
X2.5045Y-3.5442
X2.522Y-2.605
X2.522Y-2.795
X2.531Y-3.09
X2.545Y-2.275
X2.555Y-5.03
X2.5725Y-4.98
X2.5902Y-4.31
X2.599Y-3.09
X2.603Y-3.5955
X2.62Y-3.68
X2.6841Y-4.1578
X2.6863Y-3.86
X2.6863Y-3.91
X2.6863Y-4.06
X2.6863Y-3.96
X2.6863Y-4.11
X2.6863Y-4.01
X2.6863Y-4.21
X2.6863Y-4.26
X2.715Y-4.6
X2.735Y-4.635
X2.755Y-4.675
X2.7713Y-4.725
X2.7891Y-4.763
X2.805Y-3.435
X2.8076Y-4.801
X2.8264Y-4.8378
X2.8366Y-3.4016
X2.845Y-4.875
X2.87Y-3.43
X2.87Y-5.3365
X2.9Y-3.395
X2.9068Y-5.145
X2.92Y-2.56
X2.925Y-5.53
X2.935Y-3.42
X2.955Y-5.4365
X2.9668Y-3.3918
X3.035Y-4.6036
X3.035Y-4.5357
X3.04Y-5.81
X3.165Y-5.8858
X3.198Y-2.347
X3.2194Y-4.3878
X3.2294Y-4.4528
X3.2644Y-4.4828
X3.28Y-5.1301
X3.2944Y-4.6428
X3.2994Y-4.6928
X3.33Y-5.1301
X3.4044Y-4.6414
X3.4094Y-4.695
X3.43Y-5.1301
X3.4383Y-4.4428
X3.4744Y-4.5028
X3.48Y-5.1301
X3.5044Y-4.7378
X3.525Y-2.525
X3.53Y-5.8366
X3.54Y-2.295
X3.57Y-2.865
X3.59Y-3.1155
X3.6Y-2.94
X3.6Y-3.0079
X3.625Y-3.339
X3.625Y-3.2688
X3.6421Y-3.46
X3.6544Y-4.5648
X3.6544Y-4.7228
X3.675Y-3.87
X3.71Y-2.895
X3.71Y-3.46
X3.7225Y-2.5925
X3.725Y-3.165
X3.77Y-2.595
X3.7779Y-2.895
X3.8Y-2.825
X3.8119Y-2.6005
X3.8244Y-4.4078
X3.832Y-2.6587
X3.8393Y-4.4555
X3.84Y-5.09
X3.8435Y-2.8271
X3.855Y-2.6182
X3.8743Y-4.4855
X3.8757Y-2.6782
X3.9Y-3.435
X3.9Y-4.66
X3.9121Y-2.9
X3.925Y-4.705
X3.98Y-2.9
X3.99Y-4.705
X3.99Y-5.265
X3.99Y-5.315
X3.99Y-2.81
X4.02Y-4.66
X4.0482Y-4.4455
X4.0721Y-3.47
X4.0843Y-4.4828
X4.1207Y-4.7341
X4.14Y-3.47
X4.18Y-3.3
X4.18Y-3.3679
X4.185Y-2.9379
X4.225Y-3.14
X4.2594Y-4.5688
X4.2594Y-4.7228
X4.4394Y-4.3878
X4.4494Y-4.4528
X4.4844Y-4.4828
X4.5144Y-4.6428
X4.5194Y-4.6928
X4.5406Y-3.3587
X4.585Y-3.44
X4.6109Y-3.501
X4.6144Y-3.562
X4.6175Y-3.623
X4.6244Y-4.6414
X4.6294Y-4.695
X4.65Y-3.5315
X4.655Y-3.5925
X4.6583Y-4.4428
X4.6811Y-3.6529
X4.685Y-3.2771
X4.685Y-3.345
X4.691Y-2.9453
X4.6944Y-4.5028
X4.7144Y-4.7478
X4.759Y-2.95
X4.89Y-4.5454
X4.895Y-4.645
X4.9155Y-4.17
X4.9169Y-3.34
X4.9171Y-2.955
X4.9397Y-4.2024
X4.955Y-4.32
X4.96Y-4.25
X4.97Y-4.36
X4.9835Y-4.7873
X4.985Y-2.955
X4.995Y-4.3913
X5.015Y-3.28
X5.0194Y-4.8179
X5.0285Y-4.4218
X5.0458Y-4.4594
X5.0529Y-4.8395
X5.0682Y-4.4978
X5.07Y-3.355
X5.0848Y-4.8656
X5.1Y-3.545
X5.1185Y-4.8895
X5.12Y-3.355
X5.14Y-3.2579
X5.1402Y-3.19
X5.1545Y-4.9117
X5.1808Y-4.9419
X5.215Y-4.97
X5.275Y-3.47
X5.2771Y-3.7
X5.34Y-3.44
X5.345Y-3.7
X5.36Y-4.0
X5.395Y-2.525
X5.4Y-3.655
X5.415Y-3.52
X5.42Y-3.565
X5.48Y-3.615
X5.8858Y-3.375
X5.8858Y-3.67
X5.8858Y-4.315
T2
X3.11Y-2.545
X3.21Y-2.545
X3.23Y-5.57
X3.255Y-2.635
X3.28Y-5.475
X3.31Y-2.545
X3.33Y-5.57
X3.38Y-5.475
X3.43Y-5.57
X3.48Y-5.475
X4.51Y-5.08
X5.67Y-2.51
X5.67Y-2.6
X5.795Y-2.55
T3
X2.0866Y-2.365
X2.0866Y-2.465
X2.0866Y-2.565
X2.0866Y-2.7165
X2.0866Y-2.8165
X2.0866Y-2.9165
X2.0866Y-3.0165
X2.0866Y-3.1165
X2.0866Y-3.2165
X2.0866Y-3.3165
X2.0866Y-3.4165
X2.0866Y-3.5165
X2.0866Y-3.6165
X2.0866Y-3.7165
X2.0866Y-3.8165
X2.0866Y-3.9165
X2.0866Y-4.0165
X2.0866Y-4.1165
X2.0866Y-4.2165
X2.0866Y-4.3165
X2.0866Y-4.5298
X2.0866Y-4.6298
X2.0866Y-4.7298
X2.0866Y-4.8298
X2.0866Y-4.9298
X2.0866Y-5.1365
X2.0866Y-5.2365
X2.0866Y-5.3365
X2.0866Y-5.4365
X2.0866Y-5.5365
X2.1866Y-2.365
X2.1866Y-2.465
X2.1866Y-2.565
X2.1866Y-2.7165
X2.1866Y-2.8165
X2.1866Y-2.9165
X2.1866Y-3.0165
X2.1866Y-3.1165
X2.1866Y-3.2165
X2.1866Y-3.3165
X2.1866Y-3.4165
X2.1866Y-3.5165
X2.1866Y-3.6165
X2.1866Y-3.7165
X2.1866Y-3.8165
X2.1866Y-3.9165
X2.1866Y-4.0165
X2.1866Y-4.1165
X2.1866Y-4.2165
X2.1866Y-4.3165
X2.1866Y-4.5298
X2.1866Y-4.6298
X2.1866Y-4.7298
X2.1866Y-4.8298
X2.1866Y-4.9298
X2.1866Y-5.1365
X2.1866Y-5.2365
X2.1866Y-5.3365
X2.1866Y-5.4365
X2.1866Y-5.5365
X2.3598Y-5.025
X2.4598Y-5.025
X3.6365Y-2.0866
X3.6365Y-2.1866
X3.6365Y-2.3228
X3.6365Y-2.4228
X3.6365Y-5.4512
X3.6365Y-5.5512
X3.6365Y-5.6874
X3.6365Y-5.7874
X3.7365Y-2.0866
X3.7365Y-2.1866
X3.7365Y-2.3228
X3.7365Y-2.4228
X3.7365Y-5.4512
X3.7365Y-5.5512
X3.7365Y-5.6874
X3.7365Y-5.7874
X3.8365Y-2.0866
X3.8365Y-2.1866
X3.8365Y-2.3228
X3.8365Y-2.4228
X3.8365Y-5.4512
X3.8365Y-5.5512
X3.8365Y-5.6874
X3.8365Y-5.7874
X3.9365Y-2.0866
X3.9365Y-2.1866
X3.9365Y-2.3228
X3.9365Y-2.4228
X3.9365Y-5.4512
X3.9365Y-5.5512
X3.9365Y-5.6874
X3.9365Y-5.7874
X4.0365Y-2.0866
X4.0365Y-2.1866
X4.0365Y-2.3228
X4.0365Y-2.4228
X4.0365Y-5.4512
X4.0365Y-5.5512
X4.0365Y-5.6874
X4.0365Y-5.7874
X4.1365Y-2.0866
X4.1365Y-2.1866
X4.1365Y-2.3228
X4.1365Y-2.4228
X4.1365Y-5.4512
X4.1365Y-5.5512
X4.1365Y-5.6874
X4.1365Y-5.7874
X4.225Y-5.28
X4.2365Y-2.0866
X4.2365Y-2.1866
X4.2365Y-2.3228
X4.2365Y-2.4228
X4.2365Y-5.4512
X4.2365Y-5.5512
X4.2365Y-5.6874
X4.2365Y-5.7874
X4.325Y-5.28
X4.3365Y-2.0866
X4.3365Y-2.1866
X4.3365Y-2.3228
X4.3365Y-2.4228
X4.3365Y-5.4512
X4.3365Y-5.5512
X4.3365Y-5.6874
X4.3365Y-5.7874
X4.425Y-5.28
X4.4365Y-2.0866
X4.4365Y-2.1866
X4.4365Y-2.3228
X4.4365Y-2.4228
X4.4365Y-5.4512
X4.4365Y-5.5512
X4.4365Y-5.6874
X4.4365Y-5.7874
X4.525Y-5.28
X4.5365Y-2.0866
X4.5365Y-2.1866
X4.5365Y-2.3228
X4.5365Y-2.4228
X4.5365Y-5.4512
X4.5365Y-5.5512
X4.5365Y-5.6874
X4.5365Y-5.7874
X4.625Y-5.28
X4.6365Y-2.0866
X4.6365Y-2.1866
X4.6365Y-2.3228
X4.6365Y-2.4228
X4.6365Y-5.4512
X4.6365Y-5.5512
X4.6365Y-5.6874
X4.6365Y-5.7874
X4.725Y-5.28
X4.7365Y-2.0866
X4.7365Y-2.1866
X4.7365Y-2.3228
X4.7365Y-2.4228
X4.7365Y-5.4512
X4.7365Y-5.5512
X4.7365Y-5.6874
X4.7365Y-5.7874
X4.815Y-5.085
X4.825Y-5.28
X4.8365Y-2.0866
X4.8365Y-2.1866
X4.8365Y-2.3228
X4.8365Y-2.4228
X4.8365Y-5.4512
X4.8365Y-5.5512
X4.8365Y-5.6874
X4.8365Y-5.7874
X4.915Y-5.085
X4.925Y-5.28
X4.9365Y-2.0866
X4.9365Y-2.1866
X4.9365Y-2.3228
X4.9365Y-2.4228
X4.9365Y-5.4512
X4.9365Y-5.5512
X4.9365Y-5.6874
X4.9365Y-5.7874
X5.025Y-5.28
X5.0365Y-2.0866
X5.0365Y-2.1866
X5.0365Y-2.3228
X5.0365Y-2.4228
X5.0365Y-5.4512
X5.0365Y-5.5512
X5.0365Y-5.6874
X5.0365Y-5.7874
X5.125Y-5.28
X5.1365Y-2.0866
X5.1365Y-2.1866
X5.1365Y-2.3228
X5.1365Y-2.4228
X5.1365Y-5.4512
X5.1365Y-5.5512
X5.1365Y-5.6874
X5.1365Y-5.7874
X5.225Y-5.28
X5.2365Y-2.0866
X5.2365Y-2.1866
X5.2365Y-2.3228
X5.2365Y-2.4228
X5.2365Y-5.4512
X5.2365Y-5.5512
X5.2365Y-5.6874
X5.2365Y-5.7874
X5.325Y-5.28
X5.3365Y-2.0866
X5.3365Y-2.1866
X5.3365Y-2.3228
X5.3365Y-2.4228
X5.3365Y-5.4512
X5.3365Y-5.5512
X5.3365Y-5.6874
X5.3365Y-5.7874
X5.425Y-5.28
X5.4365Y-2.0866
X5.4365Y-2.1866
X5.4365Y-2.3228
X5.4365Y-2.4228
X5.4365Y-5.4512
X5.4365Y-5.5512
X5.4365Y-5.6874
X5.4365Y-5.7874
X5.525Y-5.28
X5.5365Y-2.0866
X5.5365Y-2.1866
X5.5365Y-2.3228
X5.5365Y-2.4228
X5.5365Y-5.4512
X5.5365Y-5.5512
X5.5365Y-5.6874
X5.5365Y-5.7874
X5.6874Y-2.7165
X5.6874Y-2.8165
X5.6874Y-2.9165
X5.6874Y-3.0165
X5.6874Y-3.1165
X5.6874Y-3.2165
X5.6874Y-3.3165
X5.6874Y-3.4165
X5.6874Y-3.5165
X5.6874Y-3.6165
X5.6874Y-3.7165
X5.6874Y-3.8165
X5.6874Y-3.9165
X5.6874Y-4.0165
X5.6874Y-4.1165
X5.6874Y-4.2165
X5.6874Y-4.3165
X5.6874Y-4.9016
X5.6874Y-5.0016
X5.6874Y-5.1016
X5.6874Y-5.2016
X5.6874Y-5.3016
X5.7874Y-2.7165
X5.7874Y-2.8165
X5.7874Y-2.9165
X5.7874Y-3.0165
X5.7874Y-3.1165
X5.7874Y-3.2165
X5.7874Y-3.3165
X5.7874Y-3.4165
X5.7874Y-3.5165
X5.7874Y-3.6165
X5.7874Y-3.7165
X5.7874Y-3.8165
X5.7874Y-3.9165
X5.7874Y-4.0165
X5.7874Y-4.1165
X5.7874Y-4.2165
X5.7874Y-4.3165
X5.7874Y-4.9016
X5.7874Y-5.0016
X5.7874Y-5.1016
X5.7874Y-5.2016
X5.7874Y-5.3016
T4
X2.126Y-2.126
X2.126Y-5.748
X5.748Y-2.126
X5.748Y-5.748
M30
