%TF.GenerationSoftware,KiCad,Pcbnew,8.0.7-8.0.7-0~ubuntu22.04.1*%
%TF.CreationDate,2025-01-29T21:42:36+01:00*%
%TF.ProjectId,VideoBoard_v1,56696465-6f42-46f6-9172-645f76312e6b,rev?*%
%TF.SameCoordinates,Original*%
%TF.FileFunction,Legend,Bot*%
%TF.FilePolarity,Positive*%
%FSLAX46Y46*%
G04 Gerber Fmt 4.6, Leading zero omitted, Abs format (unit mm)*
G04 Created by KiCad (PCBNEW 8.0.7-8.0.7-0~ubuntu22.04.1) date 2025-01-29 21:42:36*
%MOMM*%
%LPD*%
G01*
G04 APERTURE LIST*
%ADD10C,0.150000*%
%ADD11C,0.120000*%
G04 APERTURE END LIST*
D10*
X96646904Y-126962819D02*
X96646904Y-127772342D01*
X96646904Y-127772342D02*
X96599285Y-127867580D01*
X96599285Y-127867580D02*
X96551666Y-127915200D01*
X96551666Y-127915200D02*
X96456428Y-127962819D01*
X96456428Y-127962819D02*
X96265952Y-127962819D01*
X96265952Y-127962819D02*
X96170714Y-127915200D01*
X96170714Y-127915200D02*
X96123095Y-127867580D01*
X96123095Y-127867580D02*
X96075476Y-127772342D01*
X96075476Y-127772342D02*
X96075476Y-126962819D01*
X95170714Y-127296152D02*
X95170714Y-127962819D01*
X95408809Y-126915200D02*
X95646904Y-127629485D01*
X95646904Y-127629485D02*
X95027857Y-127629485D01*
X120657857Y-73732580D02*
X120705476Y-73780200D01*
X120705476Y-73780200D02*
X120848333Y-73827819D01*
X120848333Y-73827819D02*
X120943571Y-73827819D01*
X120943571Y-73827819D02*
X121086428Y-73780200D01*
X121086428Y-73780200D02*
X121181666Y-73684961D01*
X121181666Y-73684961D02*
X121229285Y-73589723D01*
X121229285Y-73589723D02*
X121276904Y-73399247D01*
X121276904Y-73399247D02*
X121276904Y-73256390D01*
X121276904Y-73256390D02*
X121229285Y-73065914D01*
X121229285Y-73065914D02*
X121181666Y-72970676D01*
X121181666Y-72970676D02*
X121086428Y-72875438D01*
X121086428Y-72875438D02*
X120943571Y-72827819D01*
X120943571Y-72827819D02*
X120848333Y-72827819D01*
X120848333Y-72827819D02*
X120705476Y-72875438D01*
X120705476Y-72875438D02*
X120657857Y-72923057D01*
X119705476Y-73827819D02*
X120276904Y-73827819D01*
X119991190Y-73827819D02*
X119991190Y-72827819D01*
X119991190Y-72827819D02*
X120086428Y-72970676D01*
X120086428Y-72970676D02*
X120181666Y-73065914D01*
X120181666Y-73065914D02*
X120276904Y-73113533D01*
X118848333Y-73161152D02*
X118848333Y-73827819D01*
X119086428Y-72780200D02*
X119324523Y-73494485D01*
X119324523Y-73494485D02*
X118705476Y-73494485D01*
X135635904Y-93933819D02*
X135635904Y-94743342D01*
X135635904Y-94743342D02*
X135588285Y-94838580D01*
X135588285Y-94838580D02*
X135540666Y-94886200D01*
X135540666Y-94886200D02*
X135445428Y-94933819D01*
X135445428Y-94933819D02*
X135254952Y-94933819D01*
X135254952Y-94933819D02*
X135159714Y-94886200D01*
X135159714Y-94886200D02*
X135112095Y-94838580D01*
X135112095Y-94838580D02*
X135064476Y-94743342D01*
X135064476Y-94743342D02*
X135064476Y-93933819D01*
X134635904Y-94029057D02*
X134588285Y-93981438D01*
X134588285Y-93981438D02*
X134493047Y-93933819D01*
X134493047Y-93933819D02*
X134254952Y-93933819D01*
X134254952Y-93933819D02*
X134159714Y-93981438D01*
X134159714Y-93981438D02*
X134112095Y-94029057D01*
X134112095Y-94029057D02*
X134064476Y-94124295D01*
X134064476Y-94124295D02*
X134064476Y-94219533D01*
X134064476Y-94219533D02*
X134112095Y-94362390D01*
X134112095Y-94362390D02*
X134683523Y-94933819D01*
X134683523Y-94933819D02*
X134064476Y-94933819D01*
X125923166Y-76846580D02*
X125970785Y-76894200D01*
X125970785Y-76894200D02*
X126113642Y-76941819D01*
X126113642Y-76941819D02*
X126208880Y-76941819D01*
X126208880Y-76941819D02*
X126351737Y-76894200D01*
X126351737Y-76894200D02*
X126446975Y-76798961D01*
X126446975Y-76798961D02*
X126494594Y-76703723D01*
X126494594Y-76703723D02*
X126542213Y-76513247D01*
X126542213Y-76513247D02*
X126542213Y-76370390D01*
X126542213Y-76370390D02*
X126494594Y-76179914D01*
X126494594Y-76179914D02*
X126446975Y-76084676D01*
X126446975Y-76084676D02*
X126351737Y-75989438D01*
X126351737Y-75989438D02*
X126208880Y-75941819D01*
X126208880Y-75941819D02*
X126113642Y-75941819D01*
X126113642Y-75941819D02*
X125970785Y-75989438D01*
X125970785Y-75989438D02*
X125923166Y-76037057D01*
X124970785Y-76941819D02*
X125542213Y-76941819D01*
X125256499Y-76941819D02*
X125256499Y-75941819D01*
X125256499Y-75941819D02*
X125351737Y-76084676D01*
X125351737Y-76084676D02*
X125446975Y-76179914D01*
X125446975Y-76179914D02*
X125542213Y-76227533D01*
X132345580Y-81721833D02*
X132393200Y-81674214D01*
X132393200Y-81674214D02*
X132440819Y-81531357D01*
X132440819Y-81531357D02*
X132440819Y-81436119D01*
X132440819Y-81436119D02*
X132393200Y-81293262D01*
X132393200Y-81293262D02*
X132297961Y-81198024D01*
X132297961Y-81198024D02*
X132202723Y-81150405D01*
X132202723Y-81150405D02*
X132012247Y-81102786D01*
X132012247Y-81102786D02*
X131869390Y-81102786D01*
X131869390Y-81102786D02*
X131678914Y-81150405D01*
X131678914Y-81150405D02*
X131583676Y-81198024D01*
X131583676Y-81198024D02*
X131488438Y-81293262D01*
X131488438Y-81293262D02*
X131440819Y-81436119D01*
X131440819Y-81436119D02*
X131440819Y-81531357D01*
X131440819Y-81531357D02*
X131488438Y-81674214D01*
X131488438Y-81674214D02*
X131536057Y-81721833D01*
X131869390Y-82293262D02*
X131821771Y-82198024D01*
X131821771Y-82198024D02*
X131774152Y-82150405D01*
X131774152Y-82150405D02*
X131678914Y-82102786D01*
X131678914Y-82102786D02*
X131631295Y-82102786D01*
X131631295Y-82102786D02*
X131536057Y-82150405D01*
X131536057Y-82150405D02*
X131488438Y-82198024D01*
X131488438Y-82198024D02*
X131440819Y-82293262D01*
X131440819Y-82293262D02*
X131440819Y-82483738D01*
X131440819Y-82483738D02*
X131488438Y-82578976D01*
X131488438Y-82578976D02*
X131536057Y-82626595D01*
X131536057Y-82626595D02*
X131631295Y-82674214D01*
X131631295Y-82674214D02*
X131678914Y-82674214D01*
X131678914Y-82674214D02*
X131774152Y-82626595D01*
X131774152Y-82626595D02*
X131821771Y-82578976D01*
X131821771Y-82578976D02*
X131869390Y-82483738D01*
X131869390Y-82483738D02*
X131869390Y-82293262D01*
X131869390Y-82293262D02*
X131917009Y-82198024D01*
X131917009Y-82198024D02*
X131964628Y-82150405D01*
X131964628Y-82150405D02*
X132059866Y-82102786D01*
X132059866Y-82102786D02*
X132250342Y-82102786D01*
X132250342Y-82102786D02*
X132345580Y-82150405D01*
X132345580Y-82150405D02*
X132393200Y-82198024D01*
X132393200Y-82198024D02*
X132440819Y-82293262D01*
X132440819Y-82293262D02*
X132440819Y-82483738D01*
X132440819Y-82483738D02*
X132393200Y-82578976D01*
X132393200Y-82578976D02*
X132345580Y-82626595D01*
X132345580Y-82626595D02*
X132250342Y-82674214D01*
X132250342Y-82674214D02*
X132059866Y-82674214D01*
X132059866Y-82674214D02*
X131964628Y-82626595D01*
X131964628Y-82626595D02*
X131917009Y-82578976D01*
X131917009Y-82578976D02*
X131869390Y-82483738D01*
X65852404Y-87583819D02*
X65852404Y-88393342D01*
X65852404Y-88393342D02*
X65804785Y-88488580D01*
X65804785Y-88488580D02*
X65757166Y-88536200D01*
X65757166Y-88536200D02*
X65661928Y-88583819D01*
X65661928Y-88583819D02*
X65471452Y-88583819D01*
X65471452Y-88583819D02*
X65376214Y-88536200D01*
X65376214Y-88536200D02*
X65328595Y-88488580D01*
X65328595Y-88488580D02*
X65280976Y-88393342D01*
X65280976Y-88393342D02*
X65280976Y-87583819D01*
X64757166Y-88583819D02*
X64566690Y-88583819D01*
X64566690Y-88583819D02*
X64471452Y-88536200D01*
X64471452Y-88536200D02*
X64423833Y-88488580D01*
X64423833Y-88488580D02*
X64328595Y-88345723D01*
X64328595Y-88345723D02*
X64280976Y-88155247D01*
X64280976Y-88155247D02*
X64280976Y-87774295D01*
X64280976Y-87774295D02*
X64328595Y-87679057D01*
X64328595Y-87679057D02*
X64376214Y-87631438D01*
X64376214Y-87631438D02*
X64471452Y-87583819D01*
X64471452Y-87583819D02*
X64661928Y-87583819D01*
X64661928Y-87583819D02*
X64757166Y-87631438D01*
X64757166Y-87631438D02*
X64804785Y-87679057D01*
X64804785Y-87679057D02*
X64852404Y-87774295D01*
X64852404Y-87774295D02*
X64852404Y-88012390D01*
X64852404Y-88012390D02*
X64804785Y-88107628D01*
X64804785Y-88107628D02*
X64757166Y-88155247D01*
X64757166Y-88155247D02*
X64661928Y-88202866D01*
X64661928Y-88202866D02*
X64471452Y-88202866D01*
X64471452Y-88202866D02*
X64376214Y-88155247D01*
X64376214Y-88155247D02*
X64328595Y-88107628D01*
X64328595Y-88107628D02*
X64280976Y-88012390D01*
X77448580Y-112387142D02*
X77496200Y-112339523D01*
X77496200Y-112339523D02*
X77543819Y-112196666D01*
X77543819Y-112196666D02*
X77543819Y-112101428D01*
X77543819Y-112101428D02*
X77496200Y-111958571D01*
X77496200Y-111958571D02*
X77400961Y-111863333D01*
X77400961Y-111863333D02*
X77305723Y-111815714D01*
X77305723Y-111815714D02*
X77115247Y-111768095D01*
X77115247Y-111768095D02*
X76972390Y-111768095D01*
X76972390Y-111768095D02*
X76781914Y-111815714D01*
X76781914Y-111815714D02*
X76686676Y-111863333D01*
X76686676Y-111863333D02*
X76591438Y-111958571D01*
X76591438Y-111958571D02*
X76543819Y-112101428D01*
X76543819Y-112101428D02*
X76543819Y-112196666D01*
X76543819Y-112196666D02*
X76591438Y-112339523D01*
X76591438Y-112339523D02*
X76639057Y-112387142D01*
X77543819Y-113339523D02*
X77543819Y-112768095D01*
X77543819Y-113053809D02*
X76543819Y-113053809D01*
X76543819Y-113053809D02*
X76686676Y-112958571D01*
X76686676Y-112958571D02*
X76781914Y-112863333D01*
X76781914Y-112863333D02*
X76829533Y-112768095D01*
X77543819Y-114291904D02*
X77543819Y-113720476D01*
X77543819Y-114006190D02*
X76543819Y-114006190D01*
X76543819Y-114006190D02*
X76686676Y-113910952D01*
X76686676Y-113910952D02*
X76781914Y-113815714D01*
X76781914Y-113815714D02*
X76829533Y-113720476D01*
X68365666Y-78337580D02*
X68413285Y-78385200D01*
X68413285Y-78385200D02*
X68556142Y-78432819D01*
X68556142Y-78432819D02*
X68651380Y-78432819D01*
X68651380Y-78432819D02*
X68794237Y-78385200D01*
X68794237Y-78385200D02*
X68889475Y-78289961D01*
X68889475Y-78289961D02*
X68937094Y-78194723D01*
X68937094Y-78194723D02*
X68984713Y-78004247D01*
X68984713Y-78004247D02*
X68984713Y-77861390D01*
X68984713Y-77861390D02*
X68937094Y-77670914D01*
X68937094Y-77670914D02*
X68889475Y-77575676D01*
X68889475Y-77575676D02*
X68794237Y-77480438D01*
X68794237Y-77480438D02*
X68651380Y-77432819D01*
X68651380Y-77432819D02*
X68556142Y-77432819D01*
X68556142Y-77432819D02*
X68413285Y-77480438D01*
X68413285Y-77480438D02*
X68365666Y-77528057D01*
X67460904Y-77432819D02*
X67937094Y-77432819D01*
X67937094Y-77432819D02*
X67984713Y-77909009D01*
X67984713Y-77909009D02*
X67937094Y-77861390D01*
X67937094Y-77861390D02*
X67841856Y-77813771D01*
X67841856Y-77813771D02*
X67603761Y-77813771D01*
X67603761Y-77813771D02*
X67508523Y-77861390D01*
X67508523Y-77861390D02*
X67460904Y-77909009D01*
X67460904Y-77909009D02*
X67413285Y-78004247D01*
X67413285Y-78004247D02*
X67413285Y-78242342D01*
X67413285Y-78242342D02*
X67460904Y-78337580D01*
X67460904Y-78337580D02*
X67508523Y-78385200D01*
X67508523Y-78385200D02*
X67603761Y-78432819D01*
X67603761Y-78432819D02*
X67841856Y-78432819D01*
X67841856Y-78432819D02*
X67937094Y-78385200D01*
X67937094Y-78385200D02*
X67984713Y-78337580D01*
X69691094Y-78820819D02*
X69691094Y-79630342D01*
X69691094Y-79630342D02*
X69643475Y-79725580D01*
X69643475Y-79725580D02*
X69595856Y-79773200D01*
X69595856Y-79773200D02*
X69500618Y-79820819D01*
X69500618Y-79820819D02*
X69310142Y-79820819D01*
X69310142Y-79820819D02*
X69214904Y-79773200D01*
X69214904Y-79773200D02*
X69167285Y-79725580D01*
X69167285Y-79725580D02*
X69119666Y-79630342D01*
X69119666Y-79630342D02*
X69119666Y-78820819D01*
X68119666Y-79820819D02*
X68691094Y-79820819D01*
X68405380Y-79820819D02*
X68405380Y-78820819D01*
X68405380Y-78820819D02*
X68500618Y-78963676D01*
X68500618Y-78963676D02*
X68595856Y-79058914D01*
X68595856Y-79058914D02*
X68691094Y-79106533D01*
X67500618Y-78820819D02*
X67405380Y-78820819D01*
X67405380Y-78820819D02*
X67310142Y-78868438D01*
X67310142Y-78868438D02*
X67262523Y-78916057D01*
X67262523Y-78916057D02*
X67214904Y-79011295D01*
X67214904Y-79011295D02*
X67167285Y-79201771D01*
X67167285Y-79201771D02*
X67167285Y-79439866D01*
X67167285Y-79439866D02*
X67214904Y-79630342D01*
X67214904Y-79630342D02*
X67262523Y-79725580D01*
X67262523Y-79725580D02*
X67310142Y-79773200D01*
X67310142Y-79773200D02*
X67405380Y-79820819D01*
X67405380Y-79820819D02*
X67500618Y-79820819D01*
X67500618Y-79820819D02*
X67595856Y-79773200D01*
X67595856Y-79773200D02*
X67643475Y-79725580D01*
X67643475Y-79725580D02*
X67691094Y-79630342D01*
X67691094Y-79630342D02*
X67738713Y-79439866D01*
X67738713Y-79439866D02*
X67738713Y-79201771D01*
X67738713Y-79201771D02*
X67691094Y-79011295D01*
X67691094Y-79011295D02*
X67643475Y-78916057D01*
X67643475Y-78916057D02*
X67595856Y-78868438D01*
X67595856Y-78868438D02*
X67500618Y-78820819D01*
X107961580Y-84039642D02*
X108009200Y-83992023D01*
X108009200Y-83992023D02*
X108056819Y-83849166D01*
X108056819Y-83849166D02*
X108056819Y-83753928D01*
X108056819Y-83753928D02*
X108009200Y-83611071D01*
X108009200Y-83611071D02*
X107913961Y-83515833D01*
X107913961Y-83515833D02*
X107818723Y-83468214D01*
X107818723Y-83468214D02*
X107628247Y-83420595D01*
X107628247Y-83420595D02*
X107485390Y-83420595D01*
X107485390Y-83420595D02*
X107294914Y-83468214D01*
X107294914Y-83468214D02*
X107199676Y-83515833D01*
X107199676Y-83515833D02*
X107104438Y-83611071D01*
X107104438Y-83611071D02*
X107056819Y-83753928D01*
X107056819Y-83753928D02*
X107056819Y-83849166D01*
X107056819Y-83849166D02*
X107104438Y-83992023D01*
X107104438Y-83992023D02*
X107152057Y-84039642D01*
X108056819Y-84992023D02*
X108056819Y-84420595D01*
X108056819Y-84706309D02*
X107056819Y-84706309D01*
X107056819Y-84706309D02*
X107199676Y-84611071D01*
X107199676Y-84611071D02*
X107294914Y-84515833D01*
X107294914Y-84515833D02*
X107342533Y-84420595D01*
X107056819Y-85325357D02*
X107056819Y-85992023D01*
X107056819Y-85992023D02*
X108056819Y-85563452D01*
X108088580Y-73117642D02*
X108136200Y-73070023D01*
X108136200Y-73070023D02*
X108183819Y-72927166D01*
X108183819Y-72927166D02*
X108183819Y-72831928D01*
X108183819Y-72831928D02*
X108136200Y-72689071D01*
X108136200Y-72689071D02*
X108040961Y-72593833D01*
X108040961Y-72593833D02*
X107945723Y-72546214D01*
X107945723Y-72546214D02*
X107755247Y-72498595D01*
X107755247Y-72498595D02*
X107612390Y-72498595D01*
X107612390Y-72498595D02*
X107421914Y-72546214D01*
X107421914Y-72546214D02*
X107326676Y-72593833D01*
X107326676Y-72593833D02*
X107231438Y-72689071D01*
X107231438Y-72689071D02*
X107183819Y-72831928D01*
X107183819Y-72831928D02*
X107183819Y-72927166D01*
X107183819Y-72927166D02*
X107231438Y-73070023D01*
X107231438Y-73070023D02*
X107279057Y-73117642D01*
X108183819Y-74070023D02*
X108183819Y-73498595D01*
X108183819Y-73784309D02*
X107183819Y-73784309D01*
X107183819Y-73784309D02*
X107326676Y-73689071D01*
X107326676Y-73689071D02*
X107421914Y-73593833D01*
X107421914Y-73593833D02*
X107469533Y-73498595D01*
X107183819Y-74927166D02*
X107183819Y-74736690D01*
X107183819Y-74736690D02*
X107231438Y-74641452D01*
X107231438Y-74641452D02*
X107279057Y-74593833D01*
X107279057Y-74593833D02*
X107421914Y-74498595D01*
X107421914Y-74498595D02*
X107612390Y-74450976D01*
X107612390Y-74450976D02*
X107993342Y-74450976D01*
X107993342Y-74450976D02*
X108088580Y-74498595D01*
X108088580Y-74498595D02*
X108136200Y-74546214D01*
X108136200Y-74546214D02*
X108183819Y-74641452D01*
X108183819Y-74641452D02*
X108183819Y-74831928D01*
X108183819Y-74831928D02*
X108136200Y-74927166D01*
X108136200Y-74927166D02*
X108088580Y-74974785D01*
X108088580Y-74974785D02*
X107993342Y-75022404D01*
X107993342Y-75022404D02*
X107755247Y-75022404D01*
X107755247Y-75022404D02*
X107660009Y-74974785D01*
X107660009Y-74974785D02*
X107612390Y-74927166D01*
X107612390Y-74927166D02*
X107564771Y-74831928D01*
X107564771Y-74831928D02*
X107564771Y-74641452D01*
X107564771Y-74641452D02*
X107612390Y-74546214D01*
X107612390Y-74546214D02*
X107660009Y-74498595D01*
X107660009Y-74498595D02*
X107755247Y-74450976D01*
X93196580Y-113752333D02*
X93244200Y-113704714D01*
X93244200Y-113704714D02*
X93291819Y-113561857D01*
X93291819Y-113561857D02*
X93291819Y-113466619D01*
X93291819Y-113466619D02*
X93244200Y-113323762D01*
X93244200Y-113323762D02*
X93148961Y-113228524D01*
X93148961Y-113228524D02*
X93053723Y-113180905D01*
X93053723Y-113180905D02*
X92863247Y-113133286D01*
X92863247Y-113133286D02*
X92720390Y-113133286D01*
X92720390Y-113133286D02*
X92529914Y-113180905D01*
X92529914Y-113180905D02*
X92434676Y-113228524D01*
X92434676Y-113228524D02*
X92339438Y-113323762D01*
X92339438Y-113323762D02*
X92291819Y-113466619D01*
X92291819Y-113466619D02*
X92291819Y-113561857D01*
X92291819Y-113561857D02*
X92339438Y-113704714D01*
X92339438Y-113704714D02*
X92387057Y-113752333D01*
X93291819Y-114228524D02*
X93291819Y-114419000D01*
X93291819Y-114419000D02*
X93244200Y-114514238D01*
X93244200Y-114514238D02*
X93196580Y-114561857D01*
X93196580Y-114561857D02*
X93053723Y-114657095D01*
X93053723Y-114657095D02*
X92863247Y-114704714D01*
X92863247Y-114704714D02*
X92482295Y-114704714D01*
X92482295Y-114704714D02*
X92387057Y-114657095D01*
X92387057Y-114657095D02*
X92339438Y-114609476D01*
X92339438Y-114609476D02*
X92291819Y-114514238D01*
X92291819Y-114514238D02*
X92291819Y-114323762D01*
X92291819Y-114323762D02*
X92339438Y-114228524D01*
X92339438Y-114228524D02*
X92387057Y-114180905D01*
X92387057Y-114180905D02*
X92482295Y-114133286D01*
X92482295Y-114133286D02*
X92720390Y-114133286D01*
X92720390Y-114133286D02*
X92815628Y-114180905D01*
X92815628Y-114180905D02*
X92863247Y-114228524D01*
X92863247Y-114228524D02*
X92910866Y-114323762D01*
X92910866Y-114323762D02*
X92910866Y-114514238D01*
X92910866Y-114514238D02*
X92863247Y-114609476D01*
X92863247Y-114609476D02*
X92815628Y-114657095D01*
X92815628Y-114657095D02*
X92720390Y-114704714D01*
X120788580Y-83457642D02*
X120836200Y-83410023D01*
X120836200Y-83410023D02*
X120883819Y-83267166D01*
X120883819Y-83267166D02*
X120883819Y-83171928D01*
X120883819Y-83171928D02*
X120836200Y-83029071D01*
X120836200Y-83029071D02*
X120740961Y-82933833D01*
X120740961Y-82933833D02*
X120645723Y-82886214D01*
X120645723Y-82886214D02*
X120455247Y-82838595D01*
X120455247Y-82838595D02*
X120312390Y-82838595D01*
X120312390Y-82838595D02*
X120121914Y-82886214D01*
X120121914Y-82886214D02*
X120026676Y-82933833D01*
X120026676Y-82933833D02*
X119931438Y-83029071D01*
X119931438Y-83029071D02*
X119883819Y-83171928D01*
X119883819Y-83171928D02*
X119883819Y-83267166D01*
X119883819Y-83267166D02*
X119931438Y-83410023D01*
X119931438Y-83410023D02*
X119979057Y-83457642D01*
X120883819Y-84410023D02*
X120883819Y-83838595D01*
X120883819Y-84124309D02*
X119883819Y-84124309D01*
X119883819Y-84124309D02*
X120026676Y-84029071D01*
X120026676Y-84029071D02*
X120121914Y-83933833D01*
X120121914Y-83933833D02*
X120169533Y-83838595D01*
X119883819Y-85314785D02*
X119883819Y-84838595D01*
X119883819Y-84838595D02*
X120360009Y-84790976D01*
X120360009Y-84790976D02*
X120312390Y-84838595D01*
X120312390Y-84838595D02*
X120264771Y-84933833D01*
X120264771Y-84933833D02*
X120264771Y-85171928D01*
X120264771Y-85171928D02*
X120312390Y-85267166D01*
X120312390Y-85267166D02*
X120360009Y-85314785D01*
X120360009Y-85314785D02*
X120455247Y-85362404D01*
X120455247Y-85362404D02*
X120693342Y-85362404D01*
X120693342Y-85362404D02*
X120788580Y-85314785D01*
X120788580Y-85314785D02*
X120836200Y-85267166D01*
X120836200Y-85267166D02*
X120883819Y-85171928D01*
X120883819Y-85171928D02*
X120883819Y-84933833D01*
X120883819Y-84933833D02*
X120836200Y-84838595D01*
X120836200Y-84838595D02*
X120788580Y-84790976D01*
X100872357Y-72589580D02*
X100919976Y-72637200D01*
X100919976Y-72637200D02*
X101062833Y-72684819D01*
X101062833Y-72684819D02*
X101158071Y-72684819D01*
X101158071Y-72684819D02*
X101300928Y-72637200D01*
X101300928Y-72637200D02*
X101396166Y-72541961D01*
X101396166Y-72541961D02*
X101443785Y-72446723D01*
X101443785Y-72446723D02*
X101491404Y-72256247D01*
X101491404Y-72256247D02*
X101491404Y-72113390D01*
X101491404Y-72113390D02*
X101443785Y-71922914D01*
X101443785Y-71922914D02*
X101396166Y-71827676D01*
X101396166Y-71827676D02*
X101300928Y-71732438D01*
X101300928Y-71732438D02*
X101158071Y-71684819D01*
X101158071Y-71684819D02*
X101062833Y-71684819D01*
X101062833Y-71684819D02*
X100919976Y-71732438D01*
X100919976Y-71732438D02*
X100872357Y-71780057D01*
X100491404Y-71780057D02*
X100443785Y-71732438D01*
X100443785Y-71732438D02*
X100348547Y-71684819D01*
X100348547Y-71684819D02*
X100110452Y-71684819D01*
X100110452Y-71684819D02*
X100015214Y-71732438D01*
X100015214Y-71732438D02*
X99967595Y-71780057D01*
X99967595Y-71780057D02*
X99919976Y-71875295D01*
X99919976Y-71875295D02*
X99919976Y-71970533D01*
X99919976Y-71970533D02*
X99967595Y-72113390D01*
X99967595Y-72113390D02*
X100539023Y-72684819D01*
X100539023Y-72684819D02*
X99919976Y-72684819D01*
X99300928Y-71684819D02*
X99205690Y-71684819D01*
X99205690Y-71684819D02*
X99110452Y-71732438D01*
X99110452Y-71732438D02*
X99062833Y-71780057D01*
X99062833Y-71780057D02*
X99015214Y-71875295D01*
X99015214Y-71875295D02*
X98967595Y-72065771D01*
X98967595Y-72065771D02*
X98967595Y-72303866D01*
X98967595Y-72303866D02*
X99015214Y-72494342D01*
X99015214Y-72494342D02*
X99062833Y-72589580D01*
X99062833Y-72589580D02*
X99110452Y-72637200D01*
X99110452Y-72637200D02*
X99205690Y-72684819D01*
X99205690Y-72684819D02*
X99300928Y-72684819D01*
X99300928Y-72684819D02*
X99396166Y-72637200D01*
X99396166Y-72637200D02*
X99443785Y-72589580D01*
X99443785Y-72589580D02*
X99491404Y-72494342D01*
X99491404Y-72494342D02*
X99539023Y-72303866D01*
X99539023Y-72303866D02*
X99539023Y-72065771D01*
X99539023Y-72065771D02*
X99491404Y-71875295D01*
X99491404Y-71875295D02*
X99443785Y-71780057D01*
X99443785Y-71780057D02*
X99396166Y-71732438D01*
X99396166Y-71732438D02*
X99300928Y-71684819D01*
X140811094Y-72352819D02*
X140811094Y-73162342D01*
X140811094Y-73162342D02*
X140763475Y-73257580D01*
X140763475Y-73257580D02*
X140715856Y-73305200D01*
X140715856Y-73305200D02*
X140620618Y-73352819D01*
X140620618Y-73352819D02*
X140430142Y-73352819D01*
X140430142Y-73352819D02*
X140334904Y-73305200D01*
X140334904Y-73305200D02*
X140287285Y-73257580D01*
X140287285Y-73257580D02*
X140239666Y-73162342D01*
X140239666Y-73162342D02*
X140239666Y-72352819D01*
X139239666Y-73352819D02*
X139811094Y-73352819D01*
X139525380Y-73352819D02*
X139525380Y-72352819D01*
X139525380Y-72352819D02*
X139620618Y-72495676D01*
X139620618Y-72495676D02*
X139715856Y-72590914D01*
X139715856Y-72590914D02*
X139811094Y-72638533D01*
X138287285Y-73352819D02*
X138858713Y-73352819D01*
X138572999Y-73352819D02*
X138572999Y-72352819D01*
X138572999Y-72352819D02*
X138668237Y-72495676D01*
X138668237Y-72495676D02*
X138763475Y-72590914D01*
X138763475Y-72590914D02*
X138858713Y-72638533D01*
X112337340Y-126782819D02*
X112337340Y-127592342D01*
X112337340Y-127592342D02*
X112289721Y-127687580D01*
X112289721Y-127687580D02*
X112242102Y-127735200D01*
X112242102Y-127735200D02*
X112146864Y-127782819D01*
X112146864Y-127782819D02*
X111956388Y-127782819D01*
X111956388Y-127782819D02*
X111861150Y-127735200D01*
X111861150Y-127735200D02*
X111813531Y-127687580D01*
X111813531Y-127687580D02*
X111765912Y-127592342D01*
X111765912Y-127592342D02*
X111765912Y-126782819D01*
X111384959Y-126782819D02*
X110765912Y-126782819D01*
X110765912Y-126782819D02*
X111099245Y-127163771D01*
X111099245Y-127163771D02*
X110956388Y-127163771D01*
X110956388Y-127163771D02*
X110861150Y-127211390D01*
X110861150Y-127211390D02*
X110813531Y-127259009D01*
X110813531Y-127259009D02*
X110765912Y-127354247D01*
X110765912Y-127354247D02*
X110765912Y-127592342D01*
X110765912Y-127592342D02*
X110813531Y-127687580D01*
X110813531Y-127687580D02*
X110861150Y-127735200D01*
X110861150Y-127735200D02*
X110956388Y-127782819D01*
X110956388Y-127782819D02*
X111242102Y-127782819D01*
X111242102Y-127782819D02*
X111337340Y-127735200D01*
X111337340Y-127735200D02*
X111384959Y-127687580D01*
X95739357Y-75322580D02*
X95786976Y-75370200D01*
X95786976Y-75370200D02*
X95929833Y-75417819D01*
X95929833Y-75417819D02*
X96025071Y-75417819D01*
X96025071Y-75417819D02*
X96167928Y-75370200D01*
X96167928Y-75370200D02*
X96263166Y-75274961D01*
X96263166Y-75274961D02*
X96310785Y-75179723D01*
X96310785Y-75179723D02*
X96358404Y-74989247D01*
X96358404Y-74989247D02*
X96358404Y-74846390D01*
X96358404Y-74846390D02*
X96310785Y-74655914D01*
X96310785Y-74655914D02*
X96263166Y-74560676D01*
X96263166Y-74560676D02*
X96167928Y-74465438D01*
X96167928Y-74465438D02*
X96025071Y-74417819D01*
X96025071Y-74417819D02*
X95929833Y-74417819D01*
X95929833Y-74417819D02*
X95786976Y-74465438D01*
X95786976Y-74465438D02*
X95739357Y-74513057D01*
X94786976Y-75417819D02*
X95358404Y-75417819D01*
X95072690Y-75417819D02*
X95072690Y-74417819D01*
X95072690Y-74417819D02*
X95167928Y-74560676D01*
X95167928Y-74560676D02*
X95263166Y-74655914D01*
X95263166Y-74655914D02*
X95358404Y-74703533D01*
X94215547Y-74846390D02*
X94310785Y-74798771D01*
X94310785Y-74798771D02*
X94358404Y-74751152D01*
X94358404Y-74751152D02*
X94406023Y-74655914D01*
X94406023Y-74655914D02*
X94406023Y-74608295D01*
X94406023Y-74608295D02*
X94358404Y-74513057D01*
X94358404Y-74513057D02*
X94310785Y-74465438D01*
X94310785Y-74465438D02*
X94215547Y-74417819D01*
X94215547Y-74417819D02*
X94025071Y-74417819D01*
X94025071Y-74417819D02*
X93929833Y-74465438D01*
X93929833Y-74465438D02*
X93882214Y-74513057D01*
X93882214Y-74513057D02*
X93834595Y-74608295D01*
X93834595Y-74608295D02*
X93834595Y-74655914D01*
X93834595Y-74655914D02*
X93882214Y-74751152D01*
X93882214Y-74751152D02*
X93929833Y-74798771D01*
X93929833Y-74798771D02*
X94025071Y-74846390D01*
X94025071Y-74846390D02*
X94215547Y-74846390D01*
X94215547Y-74846390D02*
X94310785Y-74894009D01*
X94310785Y-74894009D02*
X94358404Y-74941628D01*
X94358404Y-74941628D02*
X94406023Y-75036866D01*
X94406023Y-75036866D02*
X94406023Y-75227342D01*
X94406023Y-75227342D02*
X94358404Y-75322580D01*
X94358404Y-75322580D02*
X94310785Y-75370200D01*
X94310785Y-75370200D02*
X94215547Y-75417819D01*
X94215547Y-75417819D02*
X94025071Y-75417819D01*
X94025071Y-75417819D02*
X93929833Y-75370200D01*
X93929833Y-75370200D02*
X93882214Y-75322580D01*
X93882214Y-75322580D02*
X93834595Y-75227342D01*
X93834595Y-75227342D02*
X93834595Y-75036866D01*
X93834595Y-75036866D02*
X93882214Y-74941628D01*
X93882214Y-74941628D02*
X93929833Y-74894009D01*
X93929833Y-74894009D02*
X94025071Y-74846390D01*
X90369580Y-74895642D02*
X90417200Y-74848023D01*
X90417200Y-74848023D02*
X90464819Y-74705166D01*
X90464819Y-74705166D02*
X90464819Y-74609928D01*
X90464819Y-74609928D02*
X90417200Y-74467071D01*
X90417200Y-74467071D02*
X90321961Y-74371833D01*
X90321961Y-74371833D02*
X90226723Y-74324214D01*
X90226723Y-74324214D02*
X90036247Y-74276595D01*
X90036247Y-74276595D02*
X89893390Y-74276595D01*
X89893390Y-74276595D02*
X89702914Y-74324214D01*
X89702914Y-74324214D02*
X89607676Y-74371833D01*
X89607676Y-74371833D02*
X89512438Y-74467071D01*
X89512438Y-74467071D02*
X89464819Y-74609928D01*
X89464819Y-74609928D02*
X89464819Y-74705166D01*
X89464819Y-74705166D02*
X89512438Y-74848023D01*
X89512438Y-74848023D02*
X89560057Y-74895642D01*
X89560057Y-75276595D02*
X89512438Y-75324214D01*
X89512438Y-75324214D02*
X89464819Y-75419452D01*
X89464819Y-75419452D02*
X89464819Y-75657547D01*
X89464819Y-75657547D02*
X89512438Y-75752785D01*
X89512438Y-75752785D02*
X89560057Y-75800404D01*
X89560057Y-75800404D02*
X89655295Y-75848023D01*
X89655295Y-75848023D02*
X89750533Y-75848023D01*
X89750533Y-75848023D02*
X89893390Y-75800404D01*
X89893390Y-75800404D02*
X90464819Y-75228976D01*
X90464819Y-75228976D02*
X90464819Y-75848023D01*
X90464819Y-76800404D02*
X90464819Y-76228976D01*
X90464819Y-76514690D02*
X89464819Y-76514690D01*
X89464819Y-76514690D02*
X89607676Y-76419452D01*
X89607676Y-76419452D02*
X89702914Y-76324214D01*
X89702914Y-76324214D02*
X89750533Y-76228976D01*
X93538166Y-89673580D02*
X93585785Y-89721200D01*
X93585785Y-89721200D02*
X93728642Y-89768819D01*
X93728642Y-89768819D02*
X93823880Y-89768819D01*
X93823880Y-89768819D02*
X93966737Y-89721200D01*
X93966737Y-89721200D02*
X94061975Y-89625961D01*
X94061975Y-89625961D02*
X94109594Y-89530723D01*
X94109594Y-89530723D02*
X94157213Y-89340247D01*
X94157213Y-89340247D02*
X94157213Y-89197390D01*
X94157213Y-89197390D02*
X94109594Y-89006914D01*
X94109594Y-89006914D02*
X94061975Y-88911676D01*
X94061975Y-88911676D02*
X93966737Y-88816438D01*
X93966737Y-88816438D02*
X93823880Y-88768819D01*
X93823880Y-88768819D02*
X93728642Y-88768819D01*
X93728642Y-88768819D02*
X93585785Y-88816438D01*
X93585785Y-88816438D02*
X93538166Y-88864057D01*
X93204832Y-88768819D02*
X92585785Y-88768819D01*
X92585785Y-88768819D02*
X92919118Y-89149771D01*
X92919118Y-89149771D02*
X92776261Y-89149771D01*
X92776261Y-89149771D02*
X92681023Y-89197390D01*
X92681023Y-89197390D02*
X92633404Y-89245009D01*
X92633404Y-89245009D02*
X92585785Y-89340247D01*
X92585785Y-89340247D02*
X92585785Y-89578342D01*
X92585785Y-89578342D02*
X92633404Y-89673580D01*
X92633404Y-89673580D02*
X92681023Y-89721200D01*
X92681023Y-89721200D02*
X92776261Y-89768819D01*
X92776261Y-89768819D02*
X93061975Y-89768819D01*
X93061975Y-89768819D02*
X93157213Y-89721200D01*
X93157213Y-89721200D02*
X93204832Y-89673580D01*
X104460166Y-89927580D02*
X104507785Y-89975200D01*
X104507785Y-89975200D02*
X104650642Y-90022819D01*
X104650642Y-90022819D02*
X104745880Y-90022819D01*
X104745880Y-90022819D02*
X104888737Y-89975200D01*
X104888737Y-89975200D02*
X104983975Y-89879961D01*
X104983975Y-89879961D02*
X105031594Y-89784723D01*
X105031594Y-89784723D02*
X105079213Y-89594247D01*
X105079213Y-89594247D02*
X105079213Y-89451390D01*
X105079213Y-89451390D02*
X105031594Y-89260914D01*
X105031594Y-89260914D02*
X104983975Y-89165676D01*
X104983975Y-89165676D02*
X104888737Y-89070438D01*
X104888737Y-89070438D02*
X104745880Y-89022819D01*
X104745880Y-89022819D02*
X104650642Y-89022819D01*
X104650642Y-89022819D02*
X104507785Y-89070438D01*
X104507785Y-89070438D02*
X104460166Y-89118057D01*
X103603023Y-89022819D02*
X103793499Y-89022819D01*
X103793499Y-89022819D02*
X103888737Y-89070438D01*
X103888737Y-89070438D02*
X103936356Y-89118057D01*
X103936356Y-89118057D02*
X104031594Y-89260914D01*
X104031594Y-89260914D02*
X104079213Y-89451390D01*
X104079213Y-89451390D02*
X104079213Y-89832342D01*
X104079213Y-89832342D02*
X104031594Y-89927580D01*
X104031594Y-89927580D02*
X103983975Y-89975200D01*
X103983975Y-89975200D02*
X103888737Y-90022819D01*
X103888737Y-90022819D02*
X103698261Y-90022819D01*
X103698261Y-90022819D02*
X103603023Y-89975200D01*
X103603023Y-89975200D02*
X103555404Y-89927580D01*
X103555404Y-89927580D02*
X103507785Y-89832342D01*
X103507785Y-89832342D02*
X103507785Y-89594247D01*
X103507785Y-89594247D02*
X103555404Y-89499009D01*
X103555404Y-89499009D02*
X103603023Y-89451390D01*
X103603023Y-89451390D02*
X103698261Y-89403771D01*
X103698261Y-89403771D02*
X103888737Y-89403771D01*
X103888737Y-89403771D02*
X103983975Y-89451390D01*
X103983975Y-89451390D02*
X104031594Y-89499009D01*
X104031594Y-89499009D02*
X104079213Y-89594247D01*
X125838357Y-119772580D02*
X125885976Y-119820200D01*
X125885976Y-119820200D02*
X126028833Y-119867819D01*
X126028833Y-119867819D02*
X126124071Y-119867819D01*
X126124071Y-119867819D02*
X126266928Y-119820200D01*
X126266928Y-119820200D02*
X126362166Y-119724961D01*
X126362166Y-119724961D02*
X126409785Y-119629723D01*
X126409785Y-119629723D02*
X126457404Y-119439247D01*
X126457404Y-119439247D02*
X126457404Y-119296390D01*
X126457404Y-119296390D02*
X126409785Y-119105914D01*
X126409785Y-119105914D02*
X126362166Y-119010676D01*
X126362166Y-119010676D02*
X126266928Y-118915438D01*
X126266928Y-118915438D02*
X126124071Y-118867819D01*
X126124071Y-118867819D02*
X126028833Y-118867819D01*
X126028833Y-118867819D02*
X125885976Y-118915438D01*
X125885976Y-118915438D02*
X125838357Y-118963057D01*
X124885976Y-119867819D02*
X125457404Y-119867819D01*
X125171690Y-119867819D02*
X125171690Y-118867819D01*
X125171690Y-118867819D02*
X125266928Y-119010676D01*
X125266928Y-119010676D02*
X125362166Y-119105914D01*
X125362166Y-119105914D02*
X125457404Y-119153533D01*
X124505023Y-118963057D02*
X124457404Y-118915438D01*
X124457404Y-118915438D02*
X124362166Y-118867819D01*
X124362166Y-118867819D02*
X124124071Y-118867819D01*
X124124071Y-118867819D02*
X124028833Y-118915438D01*
X124028833Y-118915438D02*
X123981214Y-118963057D01*
X123981214Y-118963057D02*
X123933595Y-119058295D01*
X123933595Y-119058295D02*
X123933595Y-119153533D01*
X123933595Y-119153533D02*
X123981214Y-119296390D01*
X123981214Y-119296390D02*
X124552642Y-119867819D01*
X124552642Y-119867819D02*
X123933595Y-119867819D01*
X135294666Y-64494580D02*
X135342285Y-64542200D01*
X135342285Y-64542200D02*
X135485142Y-64589819D01*
X135485142Y-64589819D02*
X135580380Y-64589819D01*
X135580380Y-64589819D02*
X135723237Y-64542200D01*
X135723237Y-64542200D02*
X135818475Y-64446961D01*
X135818475Y-64446961D02*
X135866094Y-64351723D01*
X135866094Y-64351723D02*
X135913713Y-64161247D01*
X135913713Y-64161247D02*
X135913713Y-64018390D01*
X135913713Y-64018390D02*
X135866094Y-63827914D01*
X135866094Y-63827914D02*
X135818475Y-63732676D01*
X135818475Y-63732676D02*
X135723237Y-63637438D01*
X135723237Y-63637438D02*
X135580380Y-63589819D01*
X135580380Y-63589819D02*
X135485142Y-63589819D01*
X135485142Y-63589819D02*
X135342285Y-63637438D01*
X135342285Y-63637438D02*
X135294666Y-63685057D01*
X134913713Y-63685057D02*
X134866094Y-63637438D01*
X134866094Y-63637438D02*
X134770856Y-63589819D01*
X134770856Y-63589819D02*
X134532761Y-63589819D01*
X134532761Y-63589819D02*
X134437523Y-63637438D01*
X134437523Y-63637438D02*
X134389904Y-63685057D01*
X134389904Y-63685057D02*
X134342285Y-63780295D01*
X134342285Y-63780295D02*
X134342285Y-63875533D01*
X134342285Y-63875533D02*
X134389904Y-64018390D01*
X134389904Y-64018390D02*
X134961332Y-64589819D01*
X134961332Y-64589819D02*
X134342285Y-64589819D01*
X71627904Y-96355819D02*
X71627904Y-97165342D01*
X71627904Y-97165342D02*
X71580285Y-97260580D01*
X71580285Y-97260580D02*
X71532666Y-97308200D01*
X71532666Y-97308200D02*
X71437428Y-97355819D01*
X71437428Y-97355819D02*
X71246952Y-97355819D01*
X71246952Y-97355819D02*
X71151714Y-97308200D01*
X71151714Y-97308200D02*
X71104095Y-97260580D01*
X71104095Y-97260580D02*
X71056476Y-97165342D01*
X71056476Y-97165342D02*
X71056476Y-96355819D01*
X70056476Y-97355819D02*
X70627904Y-97355819D01*
X70342190Y-97355819D02*
X70342190Y-96355819D01*
X70342190Y-96355819D02*
X70437428Y-96498676D01*
X70437428Y-96498676D02*
X70532666Y-96593914D01*
X70532666Y-96593914D02*
X70627904Y-96641533D01*
X67291357Y-112213580D02*
X67338976Y-112261200D01*
X67338976Y-112261200D02*
X67481833Y-112308819D01*
X67481833Y-112308819D02*
X67577071Y-112308819D01*
X67577071Y-112308819D02*
X67719928Y-112261200D01*
X67719928Y-112261200D02*
X67815166Y-112165961D01*
X67815166Y-112165961D02*
X67862785Y-112070723D01*
X67862785Y-112070723D02*
X67910404Y-111880247D01*
X67910404Y-111880247D02*
X67910404Y-111737390D01*
X67910404Y-111737390D02*
X67862785Y-111546914D01*
X67862785Y-111546914D02*
X67815166Y-111451676D01*
X67815166Y-111451676D02*
X67719928Y-111356438D01*
X67719928Y-111356438D02*
X67577071Y-111308819D01*
X67577071Y-111308819D02*
X67481833Y-111308819D01*
X67481833Y-111308819D02*
X67338976Y-111356438D01*
X67338976Y-111356438D02*
X67291357Y-111404057D01*
X66338976Y-112308819D02*
X66910404Y-112308819D01*
X66624690Y-112308819D02*
X66624690Y-111308819D01*
X66624690Y-111308819D02*
X66719928Y-111451676D01*
X66719928Y-111451676D02*
X66815166Y-111546914D01*
X66815166Y-111546914D02*
X66910404Y-111594533D01*
X65862785Y-112308819D02*
X65672309Y-112308819D01*
X65672309Y-112308819D02*
X65577071Y-112261200D01*
X65577071Y-112261200D02*
X65529452Y-112213580D01*
X65529452Y-112213580D02*
X65434214Y-112070723D01*
X65434214Y-112070723D02*
X65386595Y-111880247D01*
X65386595Y-111880247D02*
X65386595Y-111499295D01*
X65386595Y-111499295D02*
X65434214Y-111404057D01*
X65434214Y-111404057D02*
X65481833Y-111356438D01*
X65481833Y-111356438D02*
X65577071Y-111308819D01*
X65577071Y-111308819D02*
X65767547Y-111308819D01*
X65767547Y-111308819D02*
X65862785Y-111356438D01*
X65862785Y-111356438D02*
X65910404Y-111404057D01*
X65910404Y-111404057D02*
X65958023Y-111499295D01*
X65958023Y-111499295D02*
X65958023Y-111737390D01*
X65958023Y-111737390D02*
X65910404Y-111832628D01*
X65910404Y-111832628D02*
X65862785Y-111880247D01*
X65862785Y-111880247D02*
X65767547Y-111927866D01*
X65767547Y-111927866D02*
X65577071Y-111927866D01*
X65577071Y-111927866D02*
X65481833Y-111880247D01*
X65481833Y-111880247D02*
X65434214Y-111832628D01*
X65434214Y-111832628D02*
X65386595Y-111737390D01*
X91004580Y-83304142D02*
X91052200Y-83256523D01*
X91052200Y-83256523D02*
X91099819Y-83113666D01*
X91099819Y-83113666D02*
X91099819Y-83018428D01*
X91099819Y-83018428D02*
X91052200Y-82875571D01*
X91052200Y-82875571D02*
X90956961Y-82780333D01*
X90956961Y-82780333D02*
X90861723Y-82732714D01*
X90861723Y-82732714D02*
X90671247Y-82685095D01*
X90671247Y-82685095D02*
X90528390Y-82685095D01*
X90528390Y-82685095D02*
X90337914Y-82732714D01*
X90337914Y-82732714D02*
X90242676Y-82780333D01*
X90242676Y-82780333D02*
X90147438Y-82875571D01*
X90147438Y-82875571D02*
X90099819Y-83018428D01*
X90099819Y-83018428D02*
X90099819Y-83113666D01*
X90099819Y-83113666D02*
X90147438Y-83256523D01*
X90147438Y-83256523D02*
X90195057Y-83304142D01*
X90195057Y-83685095D02*
X90147438Y-83732714D01*
X90147438Y-83732714D02*
X90099819Y-83827952D01*
X90099819Y-83827952D02*
X90099819Y-84066047D01*
X90099819Y-84066047D02*
X90147438Y-84161285D01*
X90147438Y-84161285D02*
X90195057Y-84208904D01*
X90195057Y-84208904D02*
X90290295Y-84256523D01*
X90290295Y-84256523D02*
X90385533Y-84256523D01*
X90385533Y-84256523D02*
X90528390Y-84208904D01*
X90528390Y-84208904D02*
X91099819Y-83637476D01*
X91099819Y-83637476D02*
X91099819Y-84256523D01*
X90195057Y-84637476D02*
X90147438Y-84685095D01*
X90147438Y-84685095D02*
X90099819Y-84780333D01*
X90099819Y-84780333D02*
X90099819Y-85018428D01*
X90099819Y-85018428D02*
X90147438Y-85113666D01*
X90147438Y-85113666D02*
X90195057Y-85161285D01*
X90195057Y-85161285D02*
X90290295Y-85208904D01*
X90290295Y-85208904D02*
X90385533Y-85208904D01*
X90385533Y-85208904D02*
X90528390Y-85161285D01*
X90528390Y-85161285D02*
X91099819Y-84589857D01*
X91099819Y-84589857D02*
X91099819Y-85208904D01*
X62523666Y-115073580D02*
X62571285Y-115121200D01*
X62571285Y-115121200D02*
X62714142Y-115168819D01*
X62714142Y-115168819D02*
X62809380Y-115168819D01*
X62809380Y-115168819D02*
X62952237Y-115121200D01*
X62952237Y-115121200D02*
X63047475Y-115025961D01*
X63047475Y-115025961D02*
X63095094Y-114930723D01*
X63095094Y-114930723D02*
X63142713Y-114740247D01*
X63142713Y-114740247D02*
X63142713Y-114597390D01*
X63142713Y-114597390D02*
X63095094Y-114406914D01*
X63095094Y-114406914D02*
X63047475Y-114311676D01*
X63047475Y-114311676D02*
X62952237Y-114216438D01*
X62952237Y-114216438D02*
X62809380Y-114168819D01*
X62809380Y-114168819D02*
X62714142Y-114168819D01*
X62714142Y-114168819D02*
X62571285Y-114216438D01*
X62571285Y-114216438D02*
X62523666Y-114264057D01*
X61666523Y-114502152D02*
X61666523Y-115168819D01*
X61904618Y-114121200D02*
X62142713Y-114835485D01*
X62142713Y-114835485D02*
X61523666Y-114835485D01*
X65092404Y-114787819D02*
X65092404Y-115597342D01*
X65092404Y-115597342D02*
X65044785Y-115692580D01*
X65044785Y-115692580D02*
X64997166Y-115740200D01*
X64997166Y-115740200D02*
X64901928Y-115787819D01*
X64901928Y-115787819D02*
X64711452Y-115787819D01*
X64711452Y-115787819D02*
X64616214Y-115740200D01*
X64616214Y-115740200D02*
X64568595Y-115692580D01*
X64568595Y-115692580D02*
X64520976Y-115597342D01*
X64520976Y-115597342D02*
X64520976Y-114787819D01*
X63901928Y-115216390D02*
X63997166Y-115168771D01*
X63997166Y-115168771D02*
X64044785Y-115121152D01*
X64044785Y-115121152D02*
X64092404Y-115025914D01*
X64092404Y-115025914D02*
X64092404Y-114978295D01*
X64092404Y-114978295D02*
X64044785Y-114883057D01*
X64044785Y-114883057D02*
X63997166Y-114835438D01*
X63997166Y-114835438D02*
X63901928Y-114787819D01*
X63901928Y-114787819D02*
X63711452Y-114787819D01*
X63711452Y-114787819D02*
X63616214Y-114835438D01*
X63616214Y-114835438D02*
X63568595Y-114883057D01*
X63568595Y-114883057D02*
X63520976Y-114978295D01*
X63520976Y-114978295D02*
X63520976Y-115025914D01*
X63520976Y-115025914D02*
X63568595Y-115121152D01*
X63568595Y-115121152D02*
X63616214Y-115168771D01*
X63616214Y-115168771D02*
X63711452Y-115216390D01*
X63711452Y-115216390D02*
X63901928Y-115216390D01*
X63901928Y-115216390D02*
X63997166Y-115264009D01*
X63997166Y-115264009D02*
X64044785Y-115311628D01*
X64044785Y-115311628D02*
X64092404Y-115406866D01*
X64092404Y-115406866D02*
X64092404Y-115597342D01*
X64092404Y-115597342D02*
X64044785Y-115692580D01*
X64044785Y-115692580D02*
X63997166Y-115740200D01*
X63997166Y-115740200D02*
X63901928Y-115787819D01*
X63901928Y-115787819D02*
X63711452Y-115787819D01*
X63711452Y-115787819D02*
X63616214Y-115740200D01*
X63616214Y-115740200D02*
X63568595Y-115692580D01*
X63568595Y-115692580D02*
X63520976Y-115597342D01*
X63520976Y-115597342D02*
X63520976Y-115406866D01*
X63520976Y-115406866D02*
X63568595Y-115311628D01*
X63568595Y-115311628D02*
X63616214Y-115264009D01*
X63616214Y-115264009D02*
X63711452Y-115216390D01*
X108690580Y-113625333D02*
X108738200Y-113577714D01*
X108738200Y-113577714D02*
X108785819Y-113434857D01*
X108785819Y-113434857D02*
X108785819Y-113339619D01*
X108785819Y-113339619D02*
X108738200Y-113196762D01*
X108738200Y-113196762D02*
X108642961Y-113101524D01*
X108642961Y-113101524D02*
X108547723Y-113053905D01*
X108547723Y-113053905D02*
X108357247Y-113006286D01*
X108357247Y-113006286D02*
X108214390Y-113006286D01*
X108214390Y-113006286D02*
X108023914Y-113053905D01*
X108023914Y-113053905D02*
X107928676Y-113101524D01*
X107928676Y-113101524D02*
X107833438Y-113196762D01*
X107833438Y-113196762D02*
X107785819Y-113339619D01*
X107785819Y-113339619D02*
X107785819Y-113434857D01*
X107785819Y-113434857D02*
X107833438Y-113577714D01*
X107833438Y-113577714D02*
X107881057Y-113625333D01*
X107785819Y-113958667D02*
X107785819Y-114625333D01*
X107785819Y-114625333D02*
X108785819Y-114196762D01*
X81533152Y-126782500D02*
X81533152Y-127592023D01*
X81533152Y-127592023D02*
X81485533Y-127687261D01*
X81485533Y-127687261D02*
X81437914Y-127734881D01*
X81437914Y-127734881D02*
X81342676Y-127782500D01*
X81342676Y-127782500D02*
X81152200Y-127782500D01*
X81152200Y-127782500D02*
X81056962Y-127734881D01*
X81056962Y-127734881D02*
X81009343Y-127687261D01*
X81009343Y-127687261D02*
X80961724Y-127592023D01*
X80961724Y-127592023D02*
X80961724Y-126782500D01*
X80580771Y-126782500D02*
X79914105Y-126782500D01*
X79914105Y-126782500D02*
X80342676Y-127782500D01*
D11*
%TO.C,U4*%
X95921248Y-126278000D02*
X95921248Y-126478000D01*
X107121248Y-105678000D02*
X93921248Y-105678000D01*
X107121248Y-126478000D02*
X95921248Y-126478000D01*
X95210924Y-126500054D02*
X94730924Y-126500054D01*
X94970924Y-126170054D01*
X95210924Y-126500054D01*
G36*
X95210924Y-126500054D02*
G01*
X94730924Y-126500054D01*
X94970924Y-126170054D01*
X95210924Y-126500054D01*
G37*
%TO.C,C14*%
X119868733Y-74293000D02*
X120161267Y-74293000D01*
X119868733Y-75313000D02*
X120161267Y-75313000D01*
%TO.C,U2*%
X132674000Y-95294000D02*
X134874000Y-95294000D01*
X132674000Y-102064000D02*
X134874000Y-102064000D01*
X137074000Y-95294000D02*
X134874000Y-95294000D01*
X137074000Y-102064000D02*
X134874000Y-102064000D01*
X139064000Y-95994000D02*
X138734000Y-95754000D01*
X139064000Y-95514000D01*
X139064000Y-95994000D01*
G36*
X139064000Y-95994000D02*
G01*
X138734000Y-95754000D01*
X139064000Y-95514000D01*
X139064000Y-95994000D01*
G37*
%TO.C,C1*%
X125902767Y-74547000D02*
X125610233Y-74547000D01*
X125902767Y-75567000D02*
X125610233Y-75567000D01*
%TO.C,C8*%
X130046000Y-81742233D02*
X130046000Y-82034767D01*
X131066000Y-81742233D02*
X131066000Y-82034767D01*
%TO.C,U9*%
X62890500Y-88944000D02*
X65090500Y-88944000D01*
X62890500Y-95714000D02*
X65090500Y-95714000D01*
X67290500Y-88944000D02*
X65090500Y-88944000D01*
X67290500Y-95714000D02*
X65090500Y-95714000D01*
X69280500Y-89644000D02*
X68950500Y-89404000D01*
X69280500Y-89164000D01*
X69280500Y-89644000D01*
G36*
X69280500Y-89644000D02*
G01*
X68950500Y-89404000D01*
X69280500Y-89164000D01*
X69280500Y-89644000D01*
G37*
%TO.C,C11*%
X76579000Y-115923733D02*
X76579000Y-116216267D01*
X77599000Y-115923733D02*
X77599000Y-116216267D01*
%TO.C,C5*%
X65297267Y-77976000D02*
X65004733Y-77976000D01*
X65297267Y-78996000D02*
X65004733Y-78996000D01*
%TO.C,U10*%
X62824000Y-80181000D02*
X65024000Y-80181000D01*
X62824000Y-86951000D02*
X65024000Y-86951000D01*
X67224000Y-80181000D02*
X65024000Y-80181000D01*
X67224000Y-86951000D02*
X65024000Y-86951000D01*
X69214000Y-80881000D02*
X68884000Y-80641000D01*
X69214000Y-80401000D01*
X69214000Y-80881000D01*
G36*
X69214000Y-80881000D02*
G01*
X68884000Y-80641000D01*
X69214000Y-80401000D01*
X69214000Y-80881000D01*
G37*
%TO.C,C17*%
X105662000Y-84536233D02*
X105662000Y-84828767D01*
X106682000Y-84536233D02*
X106682000Y-84828767D01*
%TO.C,C16*%
X105789000Y-73614233D02*
X105789000Y-73906767D01*
X106809000Y-73614233D02*
X106809000Y-73906767D01*
%TO.C,C9*%
X92311248Y-116663233D02*
X92311248Y-116955767D01*
X93331248Y-116663233D02*
X93331248Y-116955767D01*
%TO.C,C15*%
X118489000Y-83954233D02*
X118489000Y-84246767D01*
X119509000Y-83954233D02*
X119509000Y-84246767D01*
%TO.C,C20*%
X100083233Y-73150000D02*
X100375767Y-73150000D01*
X100083233Y-74170000D02*
X100375767Y-74170000D01*
%TO.C,U11*%
X135536500Y-65191000D02*
X137736500Y-65191000D01*
X135536500Y-71961000D02*
X137736500Y-71961000D01*
X139936500Y-65191000D02*
X137736500Y-65191000D01*
X139936500Y-71961000D02*
X137736500Y-71961000D01*
X141926500Y-65891000D02*
X141596500Y-65651000D01*
X141926500Y-65411000D01*
X141926500Y-65891000D01*
G36*
X141926500Y-65891000D02*
G01*
X141596500Y-65651000D01*
X141926500Y-65411000D01*
X141926500Y-65891000D01*
G37*
%TO.C,U3*%
X111325436Y-126278000D02*
X111325436Y-126478000D01*
X122525436Y-105678000D02*
X109325436Y-105678000D01*
X122525436Y-126478000D02*
X111325436Y-126478000D01*
X110615112Y-126500054D02*
X110135112Y-126500054D01*
X110375112Y-126170054D01*
X110615112Y-126500054D01*
G36*
X110615112Y-126500054D02*
G01*
X110135112Y-126500054D01*
X110375112Y-126170054D01*
X110615112Y-126500054D01*
G37*
%TO.C,C18*%
X95242767Y-73023000D02*
X94950233Y-73023000D01*
X95242767Y-74043000D02*
X94950233Y-74043000D01*
%TO.C,C21*%
X90930000Y-75684767D02*
X90930000Y-75392233D01*
X91950000Y-75684767D02*
X91950000Y-75392233D01*
%TO.C,C3*%
X93517767Y-87374000D02*
X93225233Y-87374000D01*
X93517767Y-88394000D02*
X93225233Y-88394000D01*
%TO.C,C6*%
X104439767Y-87628000D02*
X104147233Y-87628000D01*
X104439767Y-88648000D02*
X104147233Y-88648000D01*
%TO.C,C12*%
X125341767Y-117473000D02*
X125049233Y-117473000D01*
X125341767Y-118493000D02*
X125049233Y-118493000D01*
%TO.C,C2*%
X138068267Y-63625000D02*
X137775733Y-63625000D01*
X138068267Y-64645000D02*
X137775733Y-64645000D01*
%TO.C,U1*%
X62120000Y-96149000D02*
X64770000Y-96149000D01*
X62120000Y-111369000D02*
X64770000Y-111369000D01*
X67420000Y-96149000D02*
X64770000Y-96149000D01*
X67420000Y-111369000D02*
X64770000Y-111369000D01*
X61460000Y-111634000D02*
X60980000Y-111634000D01*
X61220000Y-111304000D01*
X61460000Y-111634000D01*
G36*
X61460000Y-111634000D02*
G01*
X60980000Y-111634000D01*
X61220000Y-111304000D01*
X61460000Y-111634000D01*
G37*
%TO.C,C19*%
X66502233Y-112774000D02*
X66794767Y-112774000D01*
X66502233Y-113794000D02*
X66794767Y-113794000D01*
%TO.C,C22*%
X91565000Y-84093267D02*
X91565000Y-83800733D01*
X92585000Y-84093267D02*
X92585000Y-83800733D01*
%TO.C,C4*%
X62503267Y-112774000D02*
X62210733Y-112774000D01*
X62503267Y-113794000D02*
X62210733Y-113794000D01*
%TO.C,U8*%
X62130500Y-116148000D02*
X64330500Y-116148000D01*
X62130500Y-122918000D02*
X64330500Y-122918000D01*
X66530500Y-116148000D02*
X64330500Y-116148000D01*
X66530500Y-122918000D02*
X64330500Y-122918000D01*
X68520500Y-116848000D02*
X68190500Y-116608000D01*
X68520500Y-116368000D01*
X68520500Y-116848000D01*
G36*
X68520500Y-116848000D02*
G01*
X68190500Y-116608000D01*
X68520500Y-116368000D01*
X68520500Y-116848000D01*
G37*
%TO.C,C7*%
X107678248Y-116763733D02*
X107678248Y-117056267D01*
X108698248Y-116763733D02*
X108698248Y-117056267D01*
%TO.C,U7*%
X80521248Y-126277681D02*
X80521248Y-126477681D01*
X91721248Y-105677681D02*
X78521248Y-105677681D01*
X91721248Y-126477681D02*
X80521248Y-126477681D01*
X79810924Y-126499735D02*
X79330924Y-126499735D01*
X79570924Y-126169735D01*
X79810924Y-126499735D01*
G36*
X79810924Y-126499735D02*
G01*
X79330924Y-126499735D01*
X79570924Y-126169735D01*
X79810924Y-126499735D01*
G37*
%TD*%
M02*
