%TF.GenerationSoftware,KiCad,Pcbnew,8.0.7-8.0.7-0~ubuntu22.04.1*%
%TF.CreationDate,2025-01-29T21:42:35+01:00*%
%TF.ProjectId,VideoBoard_v1,56696465-6f42-46f6-9172-645f76312e6b,rev?*%
%TF.SameCoordinates,Original*%
%TF.FileFunction,Paste,Top*%
%TF.FilePolarity,Positive*%
%FSLAX46Y46*%
G04 Gerber Fmt 4.6, Leading zero omitted, Abs format (unit mm)*
G04 Created by KiCad (PCBNEW 8.0.7-8.0.7-0~ubuntu22.04.1) date 2025-01-29 21:42:35*
%MOMM*%
%LPD*%
G01*
G04 APERTURE LIST*
G04 Aperture macros list*
%AMRoundRect*
0 Rectangle with rounded corners*
0 $1 Rounding radius*
0 $2 $3 $4 $5 $6 $7 $8 $9 X,Y pos of 4 corners*
0 Add a 4 corners polygon primitive as box body*
4,1,4,$2,$3,$4,$5,$6,$7,$8,$9,$2,$3,0*
0 Add four circle primitives for the rounded corners*
1,1,$1+$1,$2,$3*
1,1,$1+$1,$4,$5*
1,1,$1+$1,$6,$7*
1,1,$1+$1,$8,$9*
0 Add four rect primitives between the rounded corners*
20,1,$1+$1,$2,$3,$4,$5,0*
20,1,$1+$1,$4,$5,$6,$7,0*
20,1,$1+$1,$6,$7,$8,$9,0*
20,1,$1+$1,$8,$9,$2,$3,0*%
G04 Aperture macros list end*
%ADD10RoundRect,0.237500X0.237500X-0.300000X0.237500X0.300000X-0.237500X0.300000X-0.237500X-0.300000X0*%
%ADD11RoundRect,0.150000X-0.150000X0.825000X-0.150000X-0.825000X0.150000X-0.825000X0.150000X0.825000X0*%
%ADD12RoundRect,0.200000X-0.750000X-0.200000X0.750000X-0.200000X0.750000X0.200000X-0.750000X0.200000X0*%
%ADD13RoundRect,0.237500X-0.300000X-0.237500X0.300000X-0.237500X0.300000X0.237500X-0.300000X0.237500X0*%
%ADD14RoundRect,0.250000X-1.025000X0.787500X-1.025000X-0.787500X1.025000X-0.787500X1.025000X0.787500X0*%
%ADD15RoundRect,0.250001X0.462499X1.074999X-0.462499X1.074999X-0.462499X-1.074999X0.462499X-1.074999X0*%
%ADD16RoundRect,0.250000X-0.400000X-0.625000X0.400000X-0.625000X0.400000X0.625000X-0.400000X0.625000X0*%
%ADD17RoundRect,0.250000X-0.625000X0.400000X-0.625000X-0.400000X0.625000X-0.400000X0.625000X0.400000X0*%
%ADD18RoundRect,0.250000X0.400000X0.625000X-0.400000X0.625000X-0.400000X-0.625000X0.400000X-0.625000X0*%
%ADD19RoundRect,0.075000X-0.662500X-0.075000X0.662500X-0.075000X0.662500X0.075000X-0.662500X0.075000X0*%
%ADD20RoundRect,0.075000X-0.075000X-0.662500X0.075000X-0.662500X0.075000X0.662500X-0.075000X0.662500X0*%
G04 APERTURE END LIST*
D10*
%TO.C,C23*%
X91567000Y-133577500D03*
X91567000Y-131852500D03*
%TD*%
D11*
%TO.C,U12*%
X89662000Y-130305000D03*
X88392000Y-130305000D03*
X87122000Y-130305000D03*
X85852000Y-130305000D03*
X84582000Y-130305000D03*
X83312000Y-130305000D03*
X82042000Y-130305000D03*
X82042000Y-135255000D03*
X83312000Y-135255000D03*
X84582000Y-135255000D03*
X85852000Y-135255000D03*
X87122000Y-135255000D03*
X88392000Y-135255000D03*
X89662000Y-135255000D03*
%TD*%
D12*
%TO.C,Q4*%
X66469000Y-63947000D03*
X66469000Y-65847000D03*
X69469000Y-64897000D03*
%TD*%
%TO.C,Q3*%
X66572000Y-68646000D03*
X66572000Y-70546000D03*
X69572000Y-69596000D03*
%TD*%
D13*
%TO.C,C10*%
X64288500Y-78486000D03*
X66013500Y-78486000D03*
%TD*%
D14*
%TO.C,C24*%
X81229500Y-53390000D03*
X81229500Y-59615000D03*
%TD*%
D15*
%TO.C,L1*%
X87797000Y-53646000D03*
X84822000Y-53646000D03*
%TD*%
D16*
%TO.C,R9*%
X60934000Y-63627000D03*
X64034000Y-63627000D03*
%TD*%
D17*
%TO.C,R6*%
X74168000Y-61924000D03*
X74168000Y-65024000D03*
%TD*%
%TO.C,R2*%
X68783500Y-52324000D03*
X68783500Y-55424000D03*
%TD*%
D13*
%TO.C,C13*%
X134038000Y-93980000D03*
X135763000Y-93980000D03*
%TD*%
D12*
%TO.C,Q1*%
X71474500Y-53585000D03*
X71474500Y-55485000D03*
X74474500Y-54535000D03*
%TD*%
D17*
%TO.C,R3*%
X77292500Y-52324000D03*
X77292500Y-55424000D03*
%TD*%
D12*
%TO.C,Q2*%
X74292500Y-57395000D03*
X74292500Y-59295000D03*
X77292500Y-58345000D03*
%TD*%
D18*
%TO.C,R7*%
X64060000Y-70993000D03*
X60960000Y-70993000D03*
%TD*%
D17*
%TO.C,R1*%
X68783500Y-57404000D03*
X68783500Y-60504000D03*
%TD*%
%TO.C,R5*%
X85039500Y-57404000D03*
X85039500Y-60504000D03*
%TD*%
D19*
%TO.C,U6*%
X88784000Y-71748000D03*
X88784000Y-72248000D03*
X88784000Y-72748000D03*
X88784000Y-73248000D03*
X88784000Y-73748000D03*
X88784000Y-74248000D03*
X88784000Y-74748000D03*
X88784000Y-75248000D03*
X88784000Y-75748000D03*
X88784000Y-76248000D03*
X88784000Y-76748000D03*
X88784000Y-77248000D03*
X88784000Y-77748000D03*
X88784000Y-78248000D03*
X88784000Y-78748000D03*
X88784000Y-79248000D03*
X88784000Y-79748000D03*
X88784000Y-80248000D03*
X88784000Y-80748000D03*
X88784000Y-81248000D03*
X88784000Y-81748000D03*
X88784000Y-82248000D03*
X88784000Y-82748000D03*
X88784000Y-83248000D03*
X88784000Y-83748000D03*
X88784000Y-84248000D03*
X88784000Y-84748000D03*
X88784000Y-85248000D03*
X88784000Y-85748000D03*
X88784000Y-86248000D03*
X88784000Y-86748000D03*
X88784000Y-87248000D03*
X88784000Y-87748000D03*
X88784000Y-88248000D03*
X88784000Y-88748000D03*
X88784000Y-89248000D03*
D20*
X90696500Y-91160500D03*
X91196500Y-91160500D03*
X91696500Y-91160500D03*
X92196500Y-91160500D03*
X92696500Y-91160500D03*
X93196500Y-91160500D03*
X93696500Y-91160500D03*
X94196500Y-91160500D03*
X94696500Y-91160500D03*
X95196500Y-91160500D03*
X95696500Y-91160500D03*
X96196500Y-91160500D03*
X96696500Y-91160500D03*
X97196500Y-91160500D03*
X97696500Y-91160500D03*
X98196500Y-91160500D03*
X98696500Y-91160500D03*
X99196500Y-91160500D03*
X99696500Y-91160500D03*
X100196500Y-91160500D03*
X100696500Y-91160500D03*
X101196500Y-91160500D03*
X101696500Y-91160500D03*
X102196500Y-91160500D03*
X102696500Y-91160500D03*
X103196500Y-91160500D03*
X103696500Y-91160500D03*
X104196500Y-91160500D03*
X104696500Y-91160500D03*
X105196500Y-91160500D03*
X105696500Y-91160500D03*
X106196500Y-91160500D03*
X106696500Y-91160500D03*
X107196500Y-91160500D03*
X107696500Y-91160500D03*
X108196500Y-91160500D03*
D19*
X110109000Y-89248000D03*
X110109000Y-88748000D03*
X110109000Y-88248000D03*
X110109000Y-87748000D03*
X110109000Y-87248000D03*
X110109000Y-86748000D03*
X110109000Y-86248000D03*
X110109000Y-85748000D03*
X110109000Y-85248000D03*
X110109000Y-84748000D03*
X110109000Y-84248000D03*
X110109000Y-83748000D03*
X110109000Y-83248000D03*
X110109000Y-82748000D03*
X110109000Y-82248000D03*
X110109000Y-81748000D03*
X110109000Y-81248000D03*
X110109000Y-80748000D03*
X110109000Y-80248000D03*
X110109000Y-79748000D03*
X110109000Y-79248000D03*
X110109000Y-78748000D03*
X110109000Y-78248000D03*
X110109000Y-77748000D03*
X110109000Y-77248000D03*
X110109000Y-76748000D03*
X110109000Y-76248000D03*
X110109000Y-75748000D03*
X110109000Y-75248000D03*
X110109000Y-74748000D03*
X110109000Y-74248000D03*
X110109000Y-73748000D03*
X110109000Y-73248000D03*
X110109000Y-72748000D03*
X110109000Y-72248000D03*
X110109000Y-71748000D03*
D20*
X108196500Y-69835500D03*
X107696500Y-69835500D03*
X107196500Y-69835500D03*
X106696500Y-69835500D03*
X106196500Y-69835500D03*
X105696500Y-69835500D03*
X105196500Y-69835500D03*
X104696500Y-69835500D03*
X104196500Y-69835500D03*
X103696500Y-69835500D03*
X103196500Y-69835500D03*
X102696500Y-69835500D03*
X102196500Y-69835500D03*
X101696500Y-69835500D03*
X101196500Y-69835500D03*
X100696500Y-69835500D03*
X100196500Y-69835500D03*
X99696500Y-69835500D03*
X99196500Y-69835500D03*
X98696500Y-69835500D03*
X98196500Y-69835500D03*
X97696500Y-69835500D03*
X97196500Y-69835500D03*
X96696500Y-69835500D03*
X96196500Y-69835500D03*
X95696500Y-69835500D03*
X95196500Y-69835500D03*
X94696500Y-69835500D03*
X94196500Y-69835500D03*
X93696500Y-69835500D03*
X93196500Y-69835500D03*
X92696500Y-69835500D03*
X92196500Y-69835500D03*
X91696500Y-69835500D03*
X91196500Y-69835500D03*
X90696500Y-69835500D03*
%TD*%
D18*
%TO.C,R10*%
X64060000Y-66167000D03*
X60960000Y-66167000D03*
%TD*%
D14*
%TO.C,C25*%
X64973500Y-53581500D03*
X64973500Y-59806500D03*
%TD*%
D16*
%TO.C,R8*%
X60934000Y-68580000D03*
X64034000Y-68580000D03*
%TD*%
D19*
%TO.C,U5*%
X117274500Y-73586500D03*
X117274500Y-74086500D03*
X117274500Y-74586500D03*
X117274500Y-75086500D03*
X117274500Y-75586500D03*
X117274500Y-76086500D03*
X117274500Y-76586500D03*
X117274500Y-77086500D03*
X117274500Y-77586500D03*
X117274500Y-78086500D03*
X117274500Y-78586500D03*
X117274500Y-79086500D03*
X117274500Y-79586500D03*
X117274500Y-80086500D03*
X117274500Y-80586500D03*
X117274500Y-81086500D03*
X117274500Y-81586500D03*
X117274500Y-82086500D03*
X117274500Y-82586500D03*
X117274500Y-83086500D03*
X117274500Y-83586500D03*
X117274500Y-84086500D03*
X117274500Y-84586500D03*
X117274500Y-85086500D03*
X117274500Y-85586500D03*
D20*
X118937000Y-87249000D03*
X119437000Y-87249000D03*
X119937000Y-87249000D03*
X120437000Y-87249000D03*
X120937000Y-87249000D03*
X121437000Y-87249000D03*
X121937000Y-87249000D03*
X122437000Y-87249000D03*
X122937000Y-87249000D03*
X123437000Y-87249000D03*
X123937000Y-87249000D03*
X124437000Y-87249000D03*
X124937000Y-87249000D03*
X125437000Y-87249000D03*
X125937000Y-87249000D03*
X126437000Y-87249000D03*
X126937000Y-87249000D03*
X127437000Y-87249000D03*
X127937000Y-87249000D03*
X128437000Y-87249000D03*
X128937000Y-87249000D03*
X129437000Y-87249000D03*
X129937000Y-87249000D03*
X130437000Y-87249000D03*
X130937000Y-87249000D03*
D19*
X132599500Y-85586500D03*
X132599500Y-85086500D03*
X132599500Y-84586500D03*
X132599500Y-84086500D03*
X132599500Y-83586500D03*
X132599500Y-83086500D03*
X132599500Y-82586500D03*
X132599500Y-82086500D03*
X132599500Y-81586500D03*
X132599500Y-81086500D03*
X132599500Y-80586500D03*
X132599500Y-80086500D03*
X132599500Y-79586500D03*
X132599500Y-79086500D03*
X132599500Y-78586500D03*
X132599500Y-78086500D03*
X132599500Y-77586500D03*
X132599500Y-77086500D03*
X132599500Y-76586500D03*
X132599500Y-76086500D03*
X132599500Y-75586500D03*
X132599500Y-75086500D03*
X132599500Y-74586500D03*
X132599500Y-74086500D03*
X132599500Y-73586500D03*
D20*
X130937000Y-71924000D03*
X130437000Y-71924000D03*
X129937000Y-71924000D03*
X129437000Y-71924000D03*
X128937000Y-71924000D03*
X128437000Y-71924000D03*
X127937000Y-71924000D03*
X127437000Y-71924000D03*
X126937000Y-71924000D03*
X126437000Y-71924000D03*
X125937000Y-71924000D03*
X125437000Y-71924000D03*
X124937000Y-71924000D03*
X124437000Y-71924000D03*
X123937000Y-71924000D03*
X123437000Y-71924000D03*
X122937000Y-71924000D03*
X122437000Y-71924000D03*
X121937000Y-71924000D03*
X121437000Y-71924000D03*
X120937000Y-71924000D03*
X120437000Y-71924000D03*
X119937000Y-71924000D03*
X119437000Y-71924000D03*
X118937000Y-71924000D03*
%TD*%
D17*
%TO.C,R4*%
X71323500Y-57456000D03*
X71323500Y-60556000D03*
%TD*%
M02*
