%TF.GenerationSoftware,KiCad,Pcbnew,8.0.7-8.0.7-0~ubuntu22.04.1*%
%TF.CreationDate,2025-01-29T21:42:36+01:00*%
%TF.ProjectId,VideoBoard_v1,56696465-6f42-46f6-9172-645f76312e6b,rev?*%
%TF.SameCoordinates,Original*%
%TF.FileFunction,Soldermask,Top*%
%TF.FilePolarity,Negative*%
%FSLAX46Y46*%
G04 Gerber Fmt 4.6, Leading zero omitted, Abs format (unit mm)*
G04 Created by KiCad (PCBNEW 8.0.7-8.0.7-0~ubuntu22.04.1) date 2025-01-29 21:42:36*
%MOMM*%
%LPD*%
G01*
G04 APERTURE LIST*
G04 Aperture macros list*
%AMRoundRect*
0 Rectangle with rounded corners*
0 $1 Rounding radius*
0 $2 $3 $4 $5 $6 $7 $8 $9 X,Y pos of 4 corners*
0 Add a 4 corners polygon primitive as box body*
4,1,4,$2,$3,$4,$5,$6,$7,$8,$9,$2,$3,0*
0 Add four circle primitives for the rounded corners*
1,1,$1+$1,$2,$3*
1,1,$1+$1,$4,$5*
1,1,$1+$1,$6,$7*
1,1,$1+$1,$8,$9*
0 Add four rect primitives between the rounded corners*
20,1,$1+$1,$2,$3,$4,$5,0*
20,1,$1+$1,$4,$5,$6,$7,0*
20,1,$1+$1,$6,$7,$8,$9,0*
20,1,$1+$1,$8,$9,$2,$3,0*%
G04 Aperture macros list end*
%ADD10RoundRect,0.237500X0.237500X-0.300000X0.237500X0.300000X-0.237500X0.300000X-0.237500X-0.300000X0*%
%ADD11RoundRect,0.150000X-0.150000X0.825000X-0.150000X-0.825000X0.150000X-0.825000X0.150000X0.825000X0*%
%ADD12R,1.000000X1.000000*%
%ADD13RoundRect,0.200000X-0.750000X-0.200000X0.750000X-0.200000X0.750000X0.200000X-0.750000X0.200000X0*%
%ADD14R,1.700000X1.700000*%
%ADD15O,1.700000X1.700000*%
%ADD16RoundRect,0.237500X-0.300000X-0.237500X0.300000X-0.237500X0.300000X0.237500X-0.300000X0.237500X0*%
%ADD17RoundRect,0.250000X-1.025000X0.787500X-1.025000X-0.787500X1.025000X-0.787500X1.025000X0.787500X0*%
%ADD18RoundRect,0.250001X0.462499X1.074999X-0.462499X1.074999X-0.462499X-1.074999X0.462499X-1.074999X0*%
%ADD19RoundRect,0.250000X-0.400000X-0.625000X0.400000X-0.625000X0.400000X0.625000X-0.400000X0.625000X0*%
%ADD20RoundRect,0.250000X-0.625000X0.400000X-0.625000X-0.400000X0.625000X-0.400000X0.625000X0.400000X0*%
%ADD21RoundRect,0.250000X0.400000X0.625000X-0.400000X0.625000X-0.400000X-0.625000X0.400000X-0.625000X0*%
%ADD22RoundRect,0.075000X-0.662500X-0.075000X0.662500X-0.075000X0.662500X0.075000X-0.662500X0.075000X0*%
%ADD23RoundRect,0.075000X-0.075000X-0.662500X0.075000X-0.662500X0.075000X0.662500X-0.075000X0.662500X0*%
%ADD24C,3.200000*%
G04 APERTURE END LIST*
D10*
%TO.C,C23*%
X91567000Y-133577500D03*
X91567000Y-131852500D03*
%TD*%
D11*
%TO.C,U12*%
X89662000Y-130305000D03*
X88392000Y-130305000D03*
X87122000Y-130305000D03*
X85852000Y-130305000D03*
X84582000Y-130305000D03*
X83312000Y-130305000D03*
X82042000Y-130305000D03*
X82042000Y-135255000D03*
X83312000Y-135255000D03*
X84582000Y-135255000D03*
X85852000Y-135255000D03*
X87122000Y-135255000D03*
X88392000Y-135255000D03*
X89662000Y-135255000D03*
%TD*%
D12*
%TO.C,J28*%
X85852000Y-139065000D03*
%TD*%
%TO.C,J27*%
X88392000Y-139065000D03*
%TD*%
%TO.C,J25*%
X87122000Y-141478000D03*
%TD*%
%TO.C,J24*%
X82042000Y-141478000D03*
%TD*%
%TO.C,J23*%
X84582000Y-141478000D03*
%TD*%
%TO.C,J22*%
X83312000Y-139065000D03*
%TD*%
D13*
%TO.C,Q4*%
X66469000Y-63947000D03*
X66469000Y-65847000D03*
X69469000Y-64897000D03*
%TD*%
%TO.C,Q3*%
X66572000Y-68646000D03*
X66572000Y-70546000D03*
X69572000Y-69596000D03*
%TD*%
D12*
%TO.C,J19*%
X82677000Y-66929000D03*
%TD*%
%TO.C,J16*%
X84074000Y-64643000D03*
%TD*%
%TO.C,J15*%
X114554000Y-129032000D03*
%TD*%
%TO.C,J11*%
X144018000Y-63754000D03*
%TD*%
D14*
%TO.C,J1*%
X92367000Y-53000000D03*
D15*
X92367000Y-55540000D03*
X94907000Y-53000000D03*
X94907000Y-55540000D03*
X97447000Y-53000000D03*
X97447000Y-55540000D03*
X99987000Y-53000000D03*
X99987000Y-55540000D03*
X102527000Y-53000000D03*
X102527000Y-55540000D03*
X105067000Y-53000000D03*
X105067000Y-55540000D03*
X107607000Y-53000000D03*
X107607000Y-55540000D03*
X110147000Y-53000000D03*
X110147000Y-55540000D03*
X112687000Y-53000000D03*
X112687000Y-55540000D03*
X115227000Y-53000000D03*
X115227000Y-55540000D03*
X117767000Y-53000000D03*
X117767000Y-55540000D03*
X120307000Y-53000000D03*
X120307000Y-55540000D03*
X122847000Y-53000000D03*
X122847000Y-55540000D03*
X125387000Y-53000000D03*
X125387000Y-55540000D03*
X127927000Y-53000000D03*
X127927000Y-55540000D03*
X130467000Y-53000000D03*
X130467000Y-55540000D03*
X133007000Y-53000000D03*
X133007000Y-55540000D03*
X135547000Y-53000000D03*
X135547000Y-55540000D03*
X138087000Y-53000000D03*
X138087000Y-55540000D03*
X140627000Y-53000000D03*
X140627000Y-55540000D03*
%TD*%
D14*
%TO.C,J8*%
X144460000Y-124500000D03*
D15*
X147000000Y-124500000D03*
X144460000Y-127040000D03*
X147000000Y-127040000D03*
X144460000Y-129580000D03*
X147000000Y-129580000D03*
X144460000Y-132120000D03*
X147000000Y-132120000D03*
X144460000Y-134660000D03*
X147000000Y-134660000D03*
%TD*%
D16*
%TO.C,C10*%
X64288500Y-78486000D03*
X66013500Y-78486000D03*
%TD*%
D12*
%TO.C,J13*%
X144018000Y-66040000D03*
%TD*%
D17*
%TO.C,C24*%
X81229500Y-53390000D03*
X81229500Y-59615000D03*
%TD*%
D18*
%TO.C,L1*%
X87797000Y-53646000D03*
X84822000Y-53646000D03*
%TD*%
D14*
%TO.C,J7*%
X147000000Y-69000000D03*
D15*
X144460000Y-69000000D03*
X147000000Y-71540000D03*
X144460000Y-71540000D03*
X147000000Y-74080000D03*
X144460000Y-74080000D03*
X147000000Y-76620000D03*
X144460000Y-76620000D03*
X147000000Y-79160000D03*
X144460000Y-79160000D03*
X147000000Y-81700000D03*
X144460000Y-81700000D03*
X147000000Y-84240000D03*
X144460000Y-84240000D03*
X147000000Y-86780000D03*
X144460000Y-86780000D03*
X147000000Y-89320000D03*
X144460000Y-89320000D03*
X147000000Y-91860000D03*
X144460000Y-91860000D03*
X147000000Y-94400000D03*
X144460000Y-94400000D03*
X147000000Y-96940000D03*
X144460000Y-96940000D03*
X147000000Y-99480000D03*
X144460000Y-99480000D03*
X147000000Y-102020000D03*
X144460000Y-102020000D03*
X147000000Y-104560000D03*
X144460000Y-104560000D03*
X147000000Y-107100000D03*
X144460000Y-107100000D03*
X147000000Y-109640000D03*
X144460000Y-109640000D03*
%TD*%
D19*
%TO.C,R9*%
X60934000Y-63627000D03*
X64034000Y-63627000D03*
%TD*%
D14*
%TO.C,J4*%
X140627000Y-141000000D03*
D15*
X140627000Y-138460000D03*
X138087000Y-141000000D03*
X138087000Y-138460000D03*
X135547000Y-141000000D03*
X135547000Y-138460000D03*
X133007000Y-141000000D03*
X133007000Y-138460000D03*
X130467000Y-141000000D03*
X130467000Y-138460000D03*
X127927000Y-141000000D03*
X127927000Y-138460000D03*
X125387000Y-141000000D03*
X125387000Y-138460000D03*
X122847000Y-141000000D03*
X122847000Y-138460000D03*
X120307000Y-141000000D03*
X120307000Y-138460000D03*
X117767000Y-141000000D03*
X117767000Y-138460000D03*
X115227000Y-141000000D03*
X115227000Y-138460000D03*
X112687000Y-141000000D03*
X112687000Y-138460000D03*
X110147000Y-141000000D03*
X110147000Y-138460000D03*
X107607000Y-141000000D03*
X107607000Y-138460000D03*
X105067000Y-141000000D03*
X105067000Y-138460000D03*
X102527000Y-141000000D03*
X102527000Y-138460000D03*
X99987000Y-141000000D03*
X99987000Y-138460000D03*
X97447000Y-141000000D03*
X97447000Y-138460000D03*
X94907000Y-141000000D03*
X94907000Y-138460000D03*
X92367000Y-141000000D03*
X92367000Y-138460000D03*
%TD*%
D20*
%TO.C,R6*%
X74168000Y-61924000D03*
X74168000Y-65024000D03*
%TD*%
D14*
%TO.C,J14*%
X55540000Y-65151000D03*
D15*
X53000000Y-65151000D03*
X55540000Y-62611000D03*
X53000000Y-62611000D03*
X55540000Y-60071000D03*
X53000000Y-60071000D03*
%TD*%
D20*
%TO.C,R2*%
X68783500Y-52324000D03*
X68783500Y-55424000D03*
%TD*%
D12*
%TO.C,J18*%
X78994000Y-64643000D03*
%TD*%
D16*
%TO.C,C13*%
X134038000Y-93980000D03*
X135763000Y-93980000D03*
%TD*%
D14*
%TO.C,J9*%
X53000000Y-109640000D03*
D15*
X55540000Y-109640000D03*
X53000000Y-107100000D03*
X55540000Y-107100000D03*
X53000000Y-104560000D03*
X55540000Y-104560000D03*
X53000000Y-102020000D03*
X55540000Y-102020000D03*
X53000000Y-99480000D03*
X55540000Y-99480000D03*
X53000000Y-96940000D03*
X55540000Y-96940000D03*
X53000000Y-94400000D03*
X55540000Y-94400000D03*
X53000000Y-91860000D03*
X55540000Y-91860000D03*
X53000000Y-89320000D03*
X55540000Y-89320000D03*
X53000000Y-86780000D03*
X55540000Y-86780000D03*
X53000000Y-84240000D03*
X55540000Y-84240000D03*
X53000000Y-81700000D03*
X55540000Y-81700000D03*
X53000000Y-79160000D03*
X55540000Y-79160000D03*
X53000000Y-76620000D03*
X55540000Y-76620000D03*
X53000000Y-74080000D03*
X55540000Y-74080000D03*
X53000000Y-71540000D03*
X55540000Y-71540000D03*
X53000000Y-69000000D03*
X55540000Y-69000000D03*
%TD*%
D13*
%TO.C,Q1*%
X71474500Y-53585000D03*
X71474500Y-55485000D03*
X74474500Y-54535000D03*
%TD*%
D20*
%TO.C,R3*%
X77292500Y-52324000D03*
X77292500Y-55424000D03*
%TD*%
D13*
%TO.C,Q2*%
X74292500Y-57395000D03*
X74292500Y-59295000D03*
X77292500Y-58345000D03*
%TD*%
D21*
%TO.C,R7*%
X64060000Y-70993000D03*
X60960000Y-70993000D03*
%TD*%
D14*
%TO.C,J10*%
X55540000Y-125217000D03*
D15*
X53000000Y-125217000D03*
X55540000Y-122677000D03*
X53000000Y-122677000D03*
X55540000Y-120137000D03*
X53000000Y-120137000D03*
X55540000Y-117597000D03*
X53000000Y-117597000D03*
X55540000Y-115057000D03*
X53000000Y-115057000D03*
%TD*%
D14*
%TO.C,J26*%
X124841000Y-129159000D03*
D15*
X122301000Y-129159000D03*
%TD*%
D14*
%TO.C,J2*%
X140627000Y-147000000D03*
D15*
X140627000Y-144460000D03*
X138087000Y-147000000D03*
X138087000Y-144460000D03*
X135547000Y-147000000D03*
X135547000Y-144460000D03*
X133007000Y-147000000D03*
X133007000Y-144460000D03*
X130467000Y-147000000D03*
X130467000Y-144460000D03*
X127927000Y-147000000D03*
X127927000Y-144460000D03*
X125387000Y-147000000D03*
X125387000Y-144460000D03*
X122847000Y-147000000D03*
X122847000Y-144460000D03*
X120307000Y-147000000D03*
X120307000Y-144460000D03*
X117767000Y-147000000D03*
X117767000Y-144460000D03*
X115227000Y-147000000D03*
X115227000Y-144460000D03*
X112687000Y-147000000D03*
X112687000Y-144460000D03*
X110147000Y-147000000D03*
X110147000Y-144460000D03*
X107607000Y-147000000D03*
X107607000Y-144460000D03*
X105067000Y-147000000D03*
X105067000Y-144460000D03*
X102527000Y-147000000D03*
X102527000Y-144460000D03*
X99987000Y-147000000D03*
X99987000Y-144460000D03*
X97447000Y-147000000D03*
X97447000Y-144460000D03*
X94907000Y-147000000D03*
X94907000Y-144460000D03*
X92367000Y-147000000D03*
X92367000Y-144460000D03*
%TD*%
D20*
%TO.C,R1*%
X68783500Y-57404000D03*
X68783500Y-60504000D03*
%TD*%
%TO.C,R5*%
X85039500Y-57404000D03*
X85039500Y-60504000D03*
%TD*%
D22*
%TO.C,U6*%
X88784000Y-71748000D03*
X88784000Y-72248000D03*
X88784000Y-72748000D03*
X88784000Y-73248000D03*
X88784000Y-73748000D03*
X88784000Y-74248000D03*
X88784000Y-74748000D03*
X88784000Y-75248000D03*
X88784000Y-75748000D03*
X88784000Y-76248000D03*
X88784000Y-76748000D03*
X88784000Y-77248000D03*
X88784000Y-77748000D03*
X88784000Y-78248000D03*
X88784000Y-78748000D03*
X88784000Y-79248000D03*
X88784000Y-79748000D03*
X88784000Y-80248000D03*
X88784000Y-80748000D03*
X88784000Y-81248000D03*
X88784000Y-81748000D03*
X88784000Y-82248000D03*
X88784000Y-82748000D03*
X88784000Y-83248000D03*
X88784000Y-83748000D03*
X88784000Y-84248000D03*
X88784000Y-84748000D03*
X88784000Y-85248000D03*
X88784000Y-85748000D03*
X88784000Y-86248000D03*
X88784000Y-86748000D03*
X88784000Y-87248000D03*
X88784000Y-87748000D03*
X88784000Y-88248000D03*
X88784000Y-88748000D03*
X88784000Y-89248000D03*
D23*
X90696500Y-91160500D03*
X91196500Y-91160500D03*
X91696500Y-91160500D03*
X92196500Y-91160500D03*
X92696500Y-91160500D03*
X93196500Y-91160500D03*
X93696500Y-91160500D03*
X94196500Y-91160500D03*
X94696500Y-91160500D03*
X95196500Y-91160500D03*
X95696500Y-91160500D03*
X96196500Y-91160500D03*
X96696500Y-91160500D03*
X97196500Y-91160500D03*
X97696500Y-91160500D03*
X98196500Y-91160500D03*
X98696500Y-91160500D03*
X99196500Y-91160500D03*
X99696500Y-91160500D03*
X100196500Y-91160500D03*
X100696500Y-91160500D03*
X101196500Y-91160500D03*
X101696500Y-91160500D03*
X102196500Y-91160500D03*
X102696500Y-91160500D03*
X103196500Y-91160500D03*
X103696500Y-91160500D03*
X104196500Y-91160500D03*
X104696500Y-91160500D03*
X105196500Y-91160500D03*
X105696500Y-91160500D03*
X106196500Y-91160500D03*
X106696500Y-91160500D03*
X107196500Y-91160500D03*
X107696500Y-91160500D03*
X108196500Y-91160500D03*
D22*
X110109000Y-89248000D03*
X110109000Y-88748000D03*
X110109000Y-88248000D03*
X110109000Y-87748000D03*
X110109000Y-87248000D03*
X110109000Y-86748000D03*
X110109000Y-86248000D03*
X110109000Y-85748000D03*
X110109000Y-85248000D03*
X110109000Y-84748000D03*
X110109000Y-84248000D03*
X110109000Y-83748000D03*
X110109000Y-83248000D03*
X110109000Y-82748000D03*
X110109000Y-82248000D03*
X110109000Y-81748000D03*
X110109000Y-81248000D03*
X110109000Y-80748000D03*
X110109000Y-80248000D03*
X110109000Y-79748000D03*
X110109000Y-79248000D03*
X110109000Y-78748000D03*
X110109000Y-78248000D03*
X110109000Y-77748000D03*
X110109000Y-77248000D03*
X110109000Y-76748000D03*
X110109000Y-76248000D03*
X110109000Y-75748000D03*
X110109000Y-75248000D03*
X110109000Y-74748000D03*
X110109000Y-74248000D03*
X110109000Y-73748000D03*
X110109000Y-73248000D03*
X110109000Y-72748000D03*
X110109000Y-72248000D03*
X110109000Y-71748000D03*
D23*
X108196500Y-69835500D03*
X107696500Y-69835500D03*
X107196500Y-69835500D03*
X106696500Y-69835500D03*
X106196500Y-69835500D03*
X105696500Y-69835500D03*
X105196500Y-69835500D03*
X104696500Y-69835500D03*
X104196500Y-69835500D03*
X103696500Y-69835500D03*
X103196500Y-69835500D03*
X102696500Y-69835500D03*
X102196500Y-69835500D03*
X101696500Y-69835500D03*
X101196500Y-69835500D03*
X100696500Y-69835500D03*
X100196500Y-69835500D03*
X99696500Y-69835500D03*
X99196500Y-69835500D03*
X98696500Y-69835500D03*
X98196500Y-69835500D03*
X97696500Y-69835500D03*
X97196500Y-69835500D03*
X96696500Y-69835500D03*
X96196500Y-69835500D03*
X95696500Y-69835500D03*
X95196500Y-69835500D03*
X94696500Y-69835500D03*
X94196500Y-69835500D03*
X93696500Y-69835500D03*
X93196500Y-69835500D03*
X92696500Y-69835500D03*
X92196500Y-69835500D03*
X91696500Y-69835500D03*
X91196500Y-69835500D03*
X90696500Y-69835500D03*
%TD*%
D24*
%TO.C,H3*%
X146000000Y-54000000D03*
%TD*%
D14*
%TO.C,J6*%
X55540000Y-140627000D03*
D15*
X53000000Y-140627000D03*
X55540000Y-138087000D03*
X53000000Y-138087000D03*
X55540000Y-135547000D03*
X53000000Y-135547000D03*
X55540000Y-133007000D03*
X53000000Y-133007000D03*
X55540000Y-130467000D03*
X53000000Y-130467000D03*
%TD*%
D12*
%TO.C,J17*%
X81534000Y-64643000D03*
%TD*%
D14*
%TO.C,J5*%
X140335000Y-134112000D03*
D15*
X137795000Y-134112000D03*
X135255000Y-134112000D03*
X132715000Y-134112000D03*
X130175000Y-134112000D03*
X127635000Y-134112000D03*
X125095000Y-134112000D03*
X122555000Y-134112000D03*
X120015000Y-134112000D03*
X117475000Y-134112000D03*
X114935000Y-134112000D03*
X112395000Y-134112000D03*
X109855000Y-134112000D03*
X107315000Y-134112000D03*
%TD*%
D21*
%TO.C,R10*%
X64060000Y-66167000D03*
X60960000Y-66167000D03*
%TD*%
D17*
%TO.C,C25*%
X64973500Y-53581500D03*
X64973500Y-59806500D03*
%TD*%
D14*
%TO.C,JP1*%
X59939000Y-127635000D03*
D15*
X62479000Y-127635000D03*
%TD*%
D14*
%TO.C,J3*%
X92367000Y-59000000D03*
D15*
X92367000Y-61540000D03*
X94907000Y-59000000D03*
X94907000Y-61540000D03*
X97447000Y-59000000D03*
X97447000Y-61540000D03*
X99987000Y-59000000D03*
X99987000Y-61540000D03*
X102527000Y-59000000D03*
X102527000Y-61540000D03*
X105067000Y-59000000D03*
X105067000Y-61540000D03*
X107607000Y-59000000D03*
X107607000Y-61540000D03*
X110147000Y-59000000D03*
X110147000Y-61540000D03*
X112687000Y-59000000D03*
X112687000Y-61540000D03*
X115227000Y-59000000D03*
X115227000Y-61540000D03*
X117767000Y-59000000D03*
X117767000Y-61540000D03*
X120307000Y-59000000D03*
X120307000Y-61540000D03*
X122847000Y-59000000D03*
X122847000Y-61540000D03*
X125387000Y-59000000D03*
X125387000Y-61540000D03*
X127927000Y-59000000D03*
X127927000Y-61540000D03*
X130467000Y-59000000D03*
X130467000Y-61540000D03*
X133007000Y-59000000D03*
X133007000Y-61540000D03*
X135547000Y-59000000D03*
X135547000Y-61540000D03*
X138087000Y-59000000D03*
X138087000Y-61540000D03*
X140627000Y-59000000D03*
X140627000Y-61540000D03*
%TD*%
D12*
%TO.C,J12*%
X147193000Y-64770000D03*
%TD*%
D24*
%TO.C,H1*%
X54000000Y-54000000D03*
%TD*%
%TO.C,H2*%
X54000000Y-146000000D03*
%TD*%
D19*
%TO.C,R8*%
X60934000Y-68580000D03*
X64034000Y-68580000D03*
%TD*%
D22*
%TO.C,U5*%
X117274500Y-73586500D03*
X117274500Y-74086500D03*
X117274500Y-74586500D03*
X117274500Y-75086500D03*
X117274500Y-75586500D03*
X117274500Y-76086500D03*
X117274500Y-76586500D03*
X117274500Y-77086500D03*
X117274500Y-77586500D03*
X117274500Y-78086500D03*
X117274500Y-78586500D03*
X117274500Y-79086500D03*
X117274500Y-79586500D03*
X117274500Y-80086500D03*
X117274500Y-80586500D03*
X117274500Y-81086500D03*
X117274500Y-81586500D03*
X117274500Y-82086500D03*
X117274500Y-82586500D03*
X117274500Y-83086500D03*
X117274500Y-83586500D03*
X117274500Y-84086500D03*
X117274500Y-84586500D03*
X117274500Y-85086500D03*
X117274500Y-85586500D03*
D23*
X118937000Y-87249000D03*
X119437000Y-87249000D03*
X119937000Y-87249000D03*
X120437000Y-87249000D03*
X120937000Y-87249000D03*
X121437000Y-87249000D03*
X121937000Y-87249000D03*
X122437000Y-87249000D03*
X122937000Y-87249000D03*
X123437000Y-87249000D03*
X123937000Y-87249000D03*
X124437000Y-87249000D03*
X124937000Y-87249000D03*
X125437000Y-87249000D03*
X125937000Y-87249000D03*
X126437000Y-87249000D03*
X126937000Y-87249000D03*
X127437000Y-87249000D03*
X127937000Y-87249000D03*
X128437000Y-87249000D03*
X128937000Y-87249000D03*
X129437000Y-87249000D03*
X129937000Y-87249000D03*
X130437000Y-87249000D03*
X130937000Y-87249000D03*
D22*
X132599500Y-85586500D03*
X132599500Y-85086500D03*
X132599500Y-84586500D03*
X132599500Y-84086500D03*
X132599500Y-83586500D03*
X132599500Y-83086500D03*
X132599500Y-82586500D03*
X132599500Y-82086500D03*
X132599500Y-81586500D03*
X132599500Y-81086500D03*
X132599500Y-80586500D03*
X132599500Y-80086500D03*
X132599500Y-79586500D03*
X132599500Y-79086500D03*
X132599500Y-78586500D03*
X132599500Y-78086500D03*
X132599500Y-77586500D03*
X132599500Y-77086500D03*
X132599500Y-76586500D03*
X132599500Y-76086500D03*
X132599500Y-75586500D03*
X132599500Y-75086500D03*
X132599500Y-74586500D03*
X132599500Y-74086500D03*
X132599500Y-73586500D03*
D23*
X130937000Y-71924000D03*
X130437000Y-71924000D03*
X129937000Y-71924000D03*
X129437000Y-71924000D03*
X128937000Y-71924000D03*
X128437000Y-71924000D03*
X127937000Y-71924000D03*
X127437000Y-71924000D03*
X126937000Y-71924000D03*
X126437000Y-71924000D03*
X125937000Y-71924000D03*
X125437000Y-71924000D03*
X124937000Y-71924000D03*
X124437000Y-71924000D03*
X123937000Y-71924000D03*
X123437000Y-71924000D03*
X122937000Y-71924000D03*
X122437000Y-71924000D03*
X121937000Y-71924000D03*
X121437000Y-71924000D03*
X120937000Y-71924000D03*
X120437000Y-71924000D03*
X119937000Y-71924000D03*
X119437000Y-71924000D03*
X118937000Y-71924000D03*
%TD*%
D20*
%TO.C,R4*%
X71323500Y-57456000D03*
X71323500Y-60556000D03*
%TD*%
D24*
%TO.C,H4*%
X146000000Y-146000000D03*
%TD*%
M02*
