M48
; DRILL file {KiCad 8.0.7-8.0.7-0~ubuntu22.04.1} date 2025-01-28T11:45:21+0100
; FORMAT={-:-/ absolute / inch / decimal}
; #@! TF.CreationDate,2025-01-28T11:45:21+01:00
; #@! TF.GenerationSoftware,Kicad,Pcbnew,8.0.7-8.0.7-0~ubuntu22.04.1
; #@! TF.FileFunction,MixedPlating,1,2
FMAT,2
INCH
; #@! TA.AperFunction,Plated,PTH,ViaDrill
T1C0.0118
; #@! TA.AperFunction,Plated,PTH,ComponentDrill
T2C0.0315
; #@! TA.AperFunction,Plated,PTH,ComponentDrill
T3C0.0394
%
G90
G05
T1
X2.29Y-3.89
X2.3Y-3.54
X2.35Y-2.87
X2.36Y-3.17
X2.62Y-3.51
X2.62Y-3.91
X2.74Y-2.86
X2.75Y-3.15
X2.81Y-3.94
X2.94Y-4.0972
X3.02Y-4.11
X3.1Y-3.55
X3.18Y-3.1
X3.24Y-4.31
X3.27Y-2.92
X3.29Y-3.55
X3.3716Y-4.3305
X3.41Y-3.27
X3.47Y-3.54
X3.48Y-2.94
X3.58Y-2.95
X3.68Y-2.89
X3.73Y-3.54
X3.75Y-3.27
X3.78Y-2.94
X3.8322Y-4.1256
X3.98Y-3.41
X3.99Y-3.54
X4.08Y-3.67
X4.13Y-3.51
X4.19Y-3.7
X4.24Y-3.53
X4.28Y-3.37
X4.28Y-3.02
X4.36Y-3.51
X4.38Y-3.33
X4.39Y-4.14
X4.44Y-3.66
X4.47Y-3.33
X4.49Y-4.15
X4.53Y-4.2756
X4.59Y-3.5
X4.59Y-4.17
X4.625Y-4.2571
X4.67Y-3.5
X4.68Y-4.17
X4.7244Y-4.2456
X4.75Y-2.96
X4.78Y-4.18
X4.81Y-3.29
X4.81Y-3.63
X4.92Y-4.2
X5.09Y-3.6
X5.18Y-2.95
X5.23Y-3.29
X5.38Y-4.21
X5.52Y-2.98
T2
X2.88Y-3.18
X2.88Y-3.78
X2.98Y-3.18
X2.98Y-3.78
X3.08Y-3.18
X3.08Y-3.78
X3.18Y-3.18
X3.18Y-3.78
X3.28Y-3.18
X3.28Y-3.78
X3.38Y-3.18
X3.38Y-3.78
X3.48Y-3.18
X3.48Y-3.78
X3.58Y-3.18
X3.58Y-3.78
X3.68Y-3.18
X3.68Y-3.78
X3.78Y-3.18
X3.78Y-3.78
X3.88Y-3.18
X3.88Y-3.78
X3.98Y-3.18
X3.98Y-3.78
X4.08Y-3.18
X4.08Y-3.78
X4.18Y-3.18
X4.18Y-3.78
X4.28Y-3.18
X4.28Y-3.78
X4.38Y-3.18
X4.38Y-3.78
X4.48Y-3.18
X4.48Y-3.78
X4.58Y-3.18
X4.58Y-3.78
X4.68Y-3.18
X4.68Y-3.78
X4.78Y-3.18
X4.78Y-3.78
T3
X2.0866Y-2.7165
X2.0866Y-2.8165
X2.0866Y-2.9165
X2.0866Y-3.0165
X2.0866Y-3.1165
X2.0866Y-3.2165
X2.0866Y-3.3165
X2.0866Y-3.4165
X2.0866Y-3.5165
X2.0866Y-3.6165
X2.0866Y-3.7165
X2.0866Y-3.8165
X2.0866Y-3.9165
X2.0866Y-4.0165
X2.0866Y-4.1165
X2.0866Y-4.2165
X2.0866Y-4.3165
X2.1866Y-2.7165
X2.1866Y-2.8165
X2.1866Y-2.9165
X2.1866Y-3.0165
X2.1866Y-3.1165
X2.1866Y-3.2165
X2.1866Y-3.3165
X2.1866Y-3.4165
X2.1866Y-3.5165
X2.1866Y-3.6165
X2.1866Y-3.7165
X2.1866Y-3.8165
X2.1866Y-3.9165
X2.1866Y-4.0165
X2.1866Y-4.1165
X2.1866Y-4.2165
X2.1866Y-4.3165
X5.6874Y-2.7165
X5.6874Y-2.8165
X5.6874Y-2.9165
X5.6874Y-3.0165
X5.6874Y-3.1165
X5.6874Y-3.2165
X5.6874Y-3.3165
X5.6874Y-3.4165
X5.6874Y-3.5165
X5.6874Y-3.6165
X5.6874Y-3.7165
X5.6874Y-3.8165
X5.6874Y-3.9165
X5.6874Y-4.0165
X5.6874Y-4.1165
X5.6874Y-4.2165
X5.6874Y-4.3165
X5.7874Y-2.7165
X5.7874Y-2.8165
X5.7874Y-2.9165
X5.7874Y-3.0165
X5.7874Y-3.1165
X5.7874Y-3.2165
X5.7874Y-3.3165
X5.7874Y-3.4165
X5.7874Y-3.5165
X5.7874Y-3.6165
X5.7874Y-3.7165
X5.7874Y-3.8165
X5.7874Y-3.9165
X5.7874Y-4.0165
X5.7874Y-4.1165
X5.7874Y-4.2165
X5.7874Y-4.3165
M30
