%TF.GenerationSoftware,KiCad,Pcbnew,8.0.7-8.0.7-0~ubuntu22.04.1*%
%TF.CreationDate,2025-01-28T11:45:19+01:00*%
%TF.ProjectId,EF9345,45463933-3435-42e6-9b69-6361645f7063,rev?*%
%TF.SameCoordinates,Original*%
%TF.FileFunction,Copper,L2,Bot*%
%TF.FilePolarity,Positive*%
%FSLAX46Y46*%
G04 Gerber Fmt 4.6, Leading zero omitted, Abs format (unit mm)*
G04 Created by KiCad (PCBNEW 8.0.7-8.0.7-0~ubuntu22.04.1) date 2025-01-28 11:45:19*
%MOMM*%
%LPD*%
G01*
G04 APERTURE LIST*
%TA.AperFunction,ComponentPad*%
%ADD10R,1.600000X1.600000*%
%TD*%
%TA.AperFunction,ComponentPad*%
%ADD11O,1.600000X1.600000*%
%TD*%
%TA.AperFunction,ComponentPad*%
%ADD12R,1.700000X1.700000*%
%TD*%
%TA.AperFunction,ComponentPad*%
%ADD13O,1.700000X1.700000*%
%TD*%
%TA.AperFunction,ViaPad*%
%ADD14C,0.600000*%
%TD*%
%TA.AperFunction,Conductor*%
%ADD15C,0.200000*%
%TD*%
%TA.AperFunction,Conductor*%
%ADD16C,0.400000*%
%TD*%
G04 APERTURE END LIST*
D10*
%TO.P,U5,1,Vss*%
%TO.N,GND*%
X73152000Y-80772000D03*
D11*
%TO.P,U5,2,~{OE}*%
%TO.N,/In1*%
X75692000Y-80772000D03*
%TO.P,U5,3,~{WE}*%
%TO.N,/In0*%
X78232000Y-80772000D03*
%TO.P,U5,4,~{ASM}*%
%TO.N,/VA14*%
X80772000Y-80772000D03*
%TO.P,U5,5,HVS/HS*%
%TO.N,/HS*%
X83312000Y-80772000D03*
%TO.P,U5,6,PC/VS*%
%TO.N,/VS*%
X85852000Y-80772000D03*
%TO.P,U5,7,B*%
%TO.N,/CGAB*%
X88392000Y-80772000D03*
%TO.P,U5,8,G*%
%TO.N,/CGAG*%
X90932000Y-80772000D03*
%TO.P,U5,9,R*%
%TO.N,/CGAR*%
X93472000Y-80772000D03*
%TO.P,U5,10,I*%
%TO.N,/CGAI*%
X96012000Y-80772000D03*
%TO.P,U5,11,HP*%
%TO.N,/In2*%
X98552000Y-80772000D03*
%TO.P,U5,12,CLK*%
%TO.N,/VCLK*%
X101092000Y-80772000D03*
%TO.P,U5,13,SYNC.IN*%
%TO.N,/Out1*%
X103632000Y-80772000D03*
%TO.P,U5,14,AS*%
%TO.N,/Out0*%
X106172000Y-80772000D03*
%TO.P,U5,15,DS*%
%TO.N,/PHI2*%
X108712000Y-80772000D03*
%TO.P,U5,16,R/~{W}*%
%TO.N,/R{slash}~{W}*%
X111252000Y-80772000D03*
%TO.P,U5,17,AD0*%
%TO.N,/D0*%
X113792000Y-80772000D03*
%TO.P,U5,18,AD1*%
%TO.N,/D1*%
X116332000Y-80772000D03*
%TO.P,U5,19,AD2*%
%TO.N,/D2*%
X118872000Y-80772000D03*
%TO.P,U5,20,Vcc*%
%TO.N,+5V*%
X121412000Y-80772000D03*
%TO.P,U5,21,AD3*%
%TO.N,/D3*%
X121412000Y-96012000D03*
%TO.P,U5,22,AD4*%
%TO.N,/D4*%
X118872000Y-96012000D03*
%TO.P,U5,23,AD5*%
%TO.N,/D5*%
X116332000Y-96012000D03*
%TO.P,U5,24,AD6*%
%TO.N,/D6*%
X113792000Y-96012000D03*
%TO.P,U5,25,AD7*%
%TO.N,/D7*%
X111252000Y-96012000D03*
%TO.P,U5,26,~{CS}*%
%TO.N,/~{CS}*%
X108712000Y-96012000D03*
%TO.P,U5,27,AM13*%
%TO.N,/VA13*%
X106172000Y-96012000D03*
%TO.P,U5,28,AM12*%
%TO.N,/VA12*%
X103632000Y-96012000D03*
%TO.P,U5,29,AM11*%
%TO.N,/VA11*%
X101092000Y-96012000D03*
%TO.P,U5,30,AM10*%
%TO.N,/VA10*%
X98552000Y-96012000D03*
%TO.P,U5,31,AM9*%
%TO.N,/VA9*%
X96012000Y-96012000D03*
%TO.P,U5,32,AM8*%
%TO.N,/VA8*%
X93472000Y-96012000D03*
%TO.P,U5,33,ADM7*%
%TO.N,/VA7*%
X90932000Y-96012000D03*
%TO.P,U5,34,ADM6*%
%TO.N,/VA6*%
X88392000Y-96012000D03*
%TO.P,U5,35,ADM5*%
%TO.N,/VA5*%
X85852000Y-96012000D03*
%TO.P,U5,36,ADM4*%
%TO.N,/VA4*%
X83312000Y-96012000D03*
%TO.P,U5,37,ADM3*%
%TO.N,/VA3*%
X80772000Y-96012000D03*
%TO.P,U5,38,ADM2*%
%TO.N,/VA2*%
X78232000Y-96012000D03*
%TO.P,U5,39,ADM1*%
%TO.N,/VA1*%
X75692000Y-96012000D03*
%TO.P,U5,40,ADM0*%
%TO.N,/VA0*%
X73152000Y-96012000D03*
%TD*%
D12*
%TO.P,J3,1,Pin_1*%
%TO.N,/CGAB*%
X147000000Y-69000000D03*
D13*
%TO.P,J3,2,Pin_2*%
%TO.N,/CGAR*%
X144460000Y-69000000D03*
%TO.P,J3,3,Pin_3*%
%TO.N,/CGAI*%
X147000000Y-71540000D03*
%TO.P,J3,4,Pin_4*%
%TO.N,/CGAG*%
X144460000Y-71540000D03*
%TO.P,J3,5,Pin_5*%
%TO.N,/VA18*%
X147000000Y-74080000D03*
%TO.P,J3,6,Pin_6*%
%TO.N,/Res0*%
X144460000Y-74080000D03*
%TO.P,J3,7,Pin_7*%
%TO.N,/VA16*%
X147000000Y-76620000D03*
%TO.P,J3,8,Pin_8*%
%TO.N,/VA17*%
X144460000Y-76620000D03*
%TO.P,J3,9,Pin_9*%
%TO.N,/VA14*%
X147000000Y-79160000D03*
%TO.P,J3,10,Pin_10*%
%TO.N,/VA15*%
X144460000Y-79160000D03*
%TO.P,J3,11,Pin_11*%
%TO.N,/VA12*%
X147000000Y-81700000D03*
%TO.P,J3,12,Pin_12*%
%TO.N,/VA13*%
X144460000Y-81700000D03*
%TO.P,J3,13,Pin_13*%
%TO.N,/VA10*%
X147000000Y-84240000D03*
%TO.P,J3,14,Pin_14*%
%TO.N,/VA11*%
X144460000Y-84240000D03*
%TO.P,J3,15,Pin_15*%
%TO.N,/VA8*%
X147000000Y-86780000D03*
%TO.P,J3,16,Pin_16*%
%TO.N,/VA9*%
X144460000Y-86780000D03*
%TO.P,J3,17,Pin_17*%
%TO.N,/VA6*%
X147000000Y-89320000D03*
%TO.P,J3,18,Pin_18*%
%TO.N,/VA7*%
X144460000Y-89320000D03*
%TO.P,J3,19,Pin_19*%
%TO.N,/VA4*%
X147000000Y-91860000D03*
%TO.P,J3,20,Pin_20*%
%TO.N,/VA5*%
X144460000Y-91860000D03*
%TO.P,J3,21,Pin_21*%
%TO.N,/VA2*%
X147000000Y-94400000D03*
%TO.P,J3,22,Pin_22*%
%TO.N,/VA3*%
X144460000Y-94400000D03*
%TO.P,J3,23,Pin_23*%
%TO.N,/VA0*%
X147000000Y-96940000D03*
%TO.P,J3,24,Pin_24*%
%TO.N,/VA1*%
X144460000Y-96940000D03*
%TO.P,J3,25,Pin_25*%
%TO.N,/In0*%
X147000000Y-99480000D03*
%TO.P,J3,26,Pin_26*%
%TO.N,/In1*%
X144460000Y-99480000D03*
%TO.P,J3,27,Pin_27*%
%TO.N,/In2*%
X147000000Y-102020000D03*
%TO.P,J3,28,Pin_28*%
%TO.N,/DE*%
X144460000Y-102020000D03*
%TO.P,J3,29,Pin_29*%
%TO.N,/HS*%
X147000000Y-104560000D03*
%TO.P,J3,30,Pin_30*%
%TO.N,/CRSR*%
X144460000Y-104560000D03*
%TO.P,J3,31,Pin_31*%
%TO.N,/VS*%
X147000000Y-107100000D03*
%TO.P,J3,32,Pin_32*%
%TO.N,/~{RP}*%
X144460000Y-107100000D03*
%TO.P,J3,33,Pin_33*%
%TO.N,GND*%
X147000000Y-109640000D03*
%TO.P,J3,34,Pin_34*%
X144460000Y-109640000D03*
%TD*%
D12*
%TO.P,J1,1,Pin_1*%
%TO.N,GND*%
X53000000Y-109640000D03*
D13*
%TO.P,J1,2,Pin_2*%
X55540000Y-109640000D03*
%TO.P,J1,3,Pin_3*%
%TO.N,/D1*%
X53000000Y-107100000D03*
%TO.P,J1,4,Pin_4*%
%TO.N,/D0*%
X55540000Y-107100000D03*
%TO.P,J1,5,Pin_5*%
%TO.N,/D3*%
X53000000Y-104560000D03*
%TO.P,J1,6,Pin_6*%
%TO.N,/D2*%
X55540000Y-104560000D03*
%TO.P,J1,7,Pin_7*%
%TO.N,/D5*%
X53000000Y-102020000D03*
%TO.P,J1,8,Pin_8*%
%TO.N,/D4*%
X55540000Y-102020000D03*
%TO.P,J1,9,Pin_9*%
%TO.N,/D7*%
X53000000Y-99480000D03*
%TO.P,J1,10,Pin_10*%
%TO.N,/D6*%
X55540000Y-99480000D03*
%TO.P,J1,11,Pin_11*%
%TO.N,/Out1*%
X53000000Y-96940000D03*
%TO.P,J1,12,Pin_12*%
%TO.N,/Out0*%
X55540000Y-96940000D03*
%TO.P,J1,13,Pin_13*%
%TO.N,/Out3*%
X53000000Y-94400000D03*
%TO.P,J1,14,Pin_14*%
%TO.N,/Out2*%
X55540000Y-94400000D03*
%TO.P,J1,15,Pin_15*%
%TO.N,/Out5*%
X53000000Y-91860000D03*
%TO.P,J1,16,Pin_16*%
%TO.N,/Out4*%
X55540000Y-91860000D03*
%TO.P,J1,17,Pin_17*%
%TO.N,/Out7*%
X53000000Y-89320000D03*
%TO.P,J1,18,Pin_18*%
%TO.N,/Out6*%
X55540000Y-89320000D03*
%TO.P,J1,19,Pin_19*%
%TO.N,/~{CS}*%
X53000000Y-86780000D03*
%TO.P,J1,20,Pin_20*%
%TO.N,/VCLK*%
X55540000Y-86780000D03*
%TO.P,J1,21,Pin_21*%
%TO.N,/A1#*%
X53000000Y-84240000D03*
%TO.P,J1,22,Pin_22*%
%TO.N,/R{slash}~{W}*%
X55540000Y-84240000D03*
%TO.P,J1,23,Pin_23*%
%TO.N,/~{RD}*%
X53000000Y-81700000D03*
%TO.P,J1,24,Pin_24*%
%TO.N,/A0#*%
X55540000Y-81700000D03*
%TO.P,J1,25,Pin_25*%
%TO.N,/~{RST}*%
X53000000Y-79160000D03*
%TO.P,J1,26,Pin_26*%
%TO.N,/~{WR}*%
X55540000Y-79160000D03*
%TO.P,J1,27,Pin_27*%
%TO.N,/CH0*%
X53000000Y-76620000D03*
%TO.P,J1,28,Pin_28*%
%TO.N,/PHI2*%
X55540000Y-76620000D03*
%TO.P,J1,29,Pin_29*%
%TO.N,/Y*%
X53000000Y-74080000D03*
%TO.P,J1,30,Pin_30*%
%TO.N,/A*%
X55540000Y-74080000D03*
%TO.P,J1,31,Pin_31*%
%TO.N,/B*%
X53000000Y-71540000D03*
%TO.P,J1,32,Pin_32*%
%TO.N,unconnected-(J1-Pin_32-Pad32)*%
X55540000Y-71540000D03*
%TO.P,J1,33,Pin_33*%
%TO.N,+5V*%
X53000000Y-69000000D03*
%TO.P,J1,34,Pin_34*%
X55540000Y-69000000D03*
%TD*%
D14*
%TO.N,GND*%
X136652000Y-106934000D03*
X124968000Y-106680000D03*
X140208000Y-75692000D03*
X131572000Y-74930000D03*
X120650000Y-75184000D03*
X129286000Y-91440000D03*
X132842000Y-83566000D03*
X122174000Y-92202000D03*
X122174000Y-83566000D03*
X118618000Y-88900000D03*
X116586000Y-88900000D03*
X113538000Y-84582000D03*
X112776000Y-92964000D03*
X110744000Y-89154000D03*
X104902000Y-89154000D03*
X107696000Y-89662000D03*
X101346000Y-89916000D03*
X95250000Y-83058000D03*
X86614000Y-83058000D03*
X94742000Y-89916000D03*
X88138000Y-89916000D03*
X83566000Y-90170000D03*
X78740000Y-90170000D03*
X71374000Y-100076000D03*
X66548000Y-99314000D03*
X58166000Y-98806000D03*
X66548000Y-89154000D03*
X58420000Y-89916000D03*
X59944000Y-80518000D03*
X69850000Y-80010000D03*
X83058000Y-74168000D03*
X69596000Y-72644000D03*
X59690000Y-72898000D03*
%TO.N,/In0*%
X76708000Y-104394000D03*
%TO.N,/In1*%
X74676000Y-104068000D03*
%TO.N,/VA14*%
X80772000Y-78740000D03*
%TO.N,/HS*%
X82296000Y-109474000D03*
%TO.N,/VS*%
X85639050Y-109994000D03*
%TO.N,/CGAB*%
X88392007Y-74676007D03*
%TO.N,/CGAR*%
X93472000Y-73406000D03*
%TO.N,/CGAG*%
X90932000Y-74930000D03*
%TO.N,/CGAI*%
X96012000Y-74676000D03*
%TO.N,/In2*%
X97337035Y-104790000D03*
%TO.N,/Out1*%
X103632000Y-93218000D03*
%TO.N,/Out0*%
X106426000Y-93980000D03*
%TO.N,/PHI2*%
X108712000Y-76708000D03*
%TO.N,/R{slash}~{W}*%
X111252000Y-84582000D03*
%TO.N,/VCLK*%
X101092000Y-86614000D03*
%TO.N,/~{CS}*%
X108711996Y-85598000D03*
%TO.N,/D7*%
X111506000Y-105156000D03*
%TO.N,/D6*%
X114046000Y-105410000D03*
%TO.N,/D5*%
X116586000Y-105918000D03*
%TO.N,/D4*%
X118872001Y-105917999D03*
%TO.N,/D3*%
X121412000Y-106172006D03*
%TO.N,/D2*%
X119999998Y-107838002D03*
%TO.N,/D1*%
X117474998Y-108130000D03*
%TO.N,/D0*%
X115062000Y-108600000D03*
%TD*%
D15*
%TO.N,/CGAG*%
X93432925Y-74930000D02*
X90932000Y-74930000D01*
X144460000Y-71540000D02*
X96822925Y-71540000D01*
%TO.N,/CGAR*%
X97878000Y-69000000D02*
X93472000Y-73406000D01*
%TO.N,/CGAB*%
X93741239Y-74056000D02*
X89012014Y-74056000D01*
X89012014Y-74056000D02*
X88392007Y-74676007D01*
X97424000Y-70373239D02*
X93741239Y-74056000D01*
%TO.N,/CGAG*%
X96822925Y-71540000D02*
X93432925Y-74930000D01*
%TO.N,/CGAB*%
X145626761Y-70373239D02*
X97424000Y-70373239D01*
X147000000Y-69000000D02*
X145626761Y-70373239D01*
%TO.N,/CGAR*%
X144460000Y-69000000D02*
X97878000Y-69000000D01*
%TO.N,/CGAI*%
X97790004Y-72897996D02*
X96012000Y-74676000D01*
X147000000Y-71540000D02*
X145642004Y-72897996D01*
X145642004Y-72897996D02*
X97790004Y-72897996D01*
D16*
%TO.N,+5V*%
X53000000Y-69000000D02*
X55540000Y-69000000D01*
D15*
%TO.N,/HS*%
X145850000Y-105710000D02*
X147000000Y-104560000D01*
%TO.N,/VS*%
X147000000Y-107100000D02*
X145642000Y-108458000D01*
%TO.N,/HS*%
X82296000Y-109474000D02*
X82426000Y-109344000D01*
%TO.N,/VS*%
X145642000Y-108458000D02*
X140011686Y-108458000D01*
X140011686Y-108458000D02*
X138595686Y-109874000D01*
X138595686Y-109874000D02*
X85759050Y-109874000D01*
X85759050Y-109874000D02*
X85639050Y-109994000D01*
%TO.N,/HS*%
X82426000Y-109344000D02*
X138560000Y-109344000D01*
D16*
%TO.N,GND*%
X144460000Y-109640000D02*
X143356000Y-110744000D01*
D15*
%TO.N,/HS*%
X138560000Y-109344000D02*
X142194000Y-105710000D01*
X142194000Y-105710000D02*
X145850000Y-105710000D01*
D16*
%TO.N,GND*%
X143356000Y-110744000D02*
X56644000Y-110744000D01*
X56644000Y-110744000D02*
X55540000Y-109640000D01*
X147000000Y-109640000D02*
X144460000Y-109640000D01*
D15*
%TO.N,/In2*%
X147000000Y-102020000D02*
X145850000Y-103170000D01*
%TO.N,/In1*%
X141642744Y-99480000D02*
X137636744Y-103486000D01*
X75258000Y-103486000D02*
X74676000Y-104068000D01*
%TO.N,/In2*%
X139711686Y-103170000D02*
X138341686Y-104540000D01*
X138341686Y-104540000D02*
X97587035Y-104540000D01*
%TO.N,/In0*%
X77724000Y-104140000D02*
X138176000Y-104140000D01*
%TO.N,/In1*%
X137636744Y-103486000D02*
X75258000Y-103486000D01*
X144460000Y-99480000D02*
X141642744Y-99480000D01*
%TO.N,/In2*%
X97587035Y-104540000D02*
X97337035Y-104790000D01*
%TO.N,/In0*%
X145850000Y-100630000D02*
X147000000Y-99480000D01*
%TO.N,/In2*%
X145850000Y-103170000D02*
X139711686Y-103170000D01*
%TO.N,/In0*%
X76708000Y-104394000D02*
X77470000Y-104394000D01*
X77470000Y-104394000D02*
X77724000Y-104140000D01*
X138176000Y-104140000D02*
X141686000Y-100630000D01*
X141686000Y-100630000D02*
X145850000Y-100630000D01*
%TO.N,/D7*%
X56420000Y-98330000D02*
X63496000Y-105406000D01*
X54150000Y-98330000D02*
X56420000Y-98330000D01*
X63496000Y-105406000D02*
X111256000Y-105406000D01*
X53000000Y-99480000D02*
X54150000Y-98330000D01*
X111256000Y-105406000D02*
X111506000Y-105156000D01*
%TO.N,/VA0*%
X137525808Y-103031250D02*
X142259058Y-98298000D01*
X145642000Y-98298000D02*
X147000000Y-96940000D01*
X142259058Y-98298000D02*
X145642000Y-98298000D01*
X73152000Y-96012000D02*
X80171250Y-103031250D01*
X80171250Y-103031250D02*
X137525808Y-103031250D01*
%TO.N,/D5*%
X56016346Y-100870000D02*
X61352346Y-106206000D01*
%TO.N,/D6*%
X61866000Y-105806000D02*
X113650000Y-105806000D01*
X55540000Y-99480000D02*
X61866000Y-105806000D01*
X113650000Y-105806000D02*
X114046000Y-105410000D01*
%TO.N,/D5*%
X53000000Y-102020000D02*
X54150000Y-100870000D01*
X54150000Y-100870000D02*
X56016346Y-100870000D01*
X61352346Y-106206000D02*
X116298000Y-106206000D01*
X116298000Y-106206000D02*
X116586000Y-105918000D01*
%TO.N,/D3*%
X57392974Y-103378000D02*
X61094974Y-107080000D01*
X120504006Y-107080000D02*
X121412000Y-106172006D01*
%TO.N,/D2*%
X59662081Y-107480000D02*
X118441372Y-107480000D01*
X118441372Y-107480000D02*
X118799374Y-107838002D01*
%TO.N,/D1*%
X53000000Y-107100000D02*
X54182002Y-105917998D01*
%TO.N,/D2*%
X55540000Y-104560000D02*
X56742081Y-104560000D01*
%TO.N,/D1*%
X54182002Y-105917998D02*
X56641998Y-105917998D01*
X56641998Y-105917998D02*
X58674000Y-107950000D01*
%TO.N,/D4*%
X55540000Y-102020000D02*
X56600660Y-102020000D01*
%TO.N,/D2*%
X56742081Y-104560000D02*
X59662081Y-107480000D01*
%TO.N,/D1*%
X58674000Y-107950000D02*
X117294998Y-107950000D01*
X117294998Y-107950000D02*
X117474998Y-108130000D01*
%TO.N,/D3*%
X61094974Y-107080000D02*
X120504006Y-107080000D01*
%TO.N,/D2*%
X118799374Y-107838002D02*
X119999998Y-107838002D01*
%TO.N,/D3*%
X54182000Y-103378000D02*
X57392974Y-103378000D01*
X53000000Y-104560000D02*
X54182000Y-103378000D01*
%TO.N,/D4*%
X56600660Y-102020000D02*
X61260660Y-106680000D01*
X61260660Y-106680000D02*
X118110000Y-106680000D01*
X118110000Y-106680000D02*
X118872001Y-105917999D01*
%TO.N,/VA1*%
X137375372Y-102616000D02*
X82296000Y-102616000D01*
%TO.N,/VA4*%
X145610000Y-93250000D02*
X147000000Y-91860000D01*
X83312000Y-96012000D02*
X88716000Y-101416000D01*
%TO.N,/VA1*%
X143051372Y-96940000D02*
X137375372Y-102616000D01*
%TO.N,/VA5*%
X85852000Y-96012000D02*
X90856000Y-101016000D01*
%TO.N,/VA1*%
X144460000Y-96940000D02*
X143051372Y-96940000D01*
%TO.N,/VA3*%
X144460000Y-94400000D02*
X137044000Y-101816000D01*
%TO.N,/VA4*%
X135566000Y-101416000D02*
X143732000Y-93250000D01*
X143732000Y-93250000D02*
X145610000Y-93250000D01*
%TO.N,/VA5*%
X135304000Y-101016000D02*
X144460000Y-91860000D01*
X90856000Y-101016000D02*
X135304000Y-101016000D01*
%TO.N,/VA2*%
X145610000Y-95790000D02*
X147000000Y-94400000D01*
%TO.N,/VA3*%
X137044000Y-101816000D02*
X86576000Y-101816000D01*
%TO.N,/VA4*%
X88716000Y-101416000D02*
X135566000Y-101416000D01*
%TO.N,/VA3*%
X86576000Y-101816000D02*
X80772000Y-96012000D01*
%TO.N,/VA2*%
X84436000Y-102216000D02*
X137209686Y-102216000D01*
X143635686Y-95790000D02*
X145610000Y-95790000D01*
X137209686Y-102216000D02*
X143635686Y-95790000D01*
X78232000Y-96012000D02*
X84436000Y-102216000D01*
%TO.N,/VA1*%
X82296000Y-102616000D02*
X75692000Y-96012000D01*
%TO.N,/VA11*%
X135228000Y-93626000D02*
X130270000Y-98584000D01*
%TO.N,/VA7*%
X95104000Y-100184000D02*
X132283686Y-100184000D01*
%TO.N,/VA6*%
X145850000Y-90470000D02*
X142563372Y-90470000D01*
%TO.N,/VA11*%
X135228000Y-93472000D02*
X135228000Y-93626000D01*
%TO.N,/VA7*%
X90932000Y-96012000D02*
X95104000Y-100184000D01*
X132283686Y-100184000D02*
X143147686Y-89320000D01*
%TO.N,/VA13*%
X107944000Y-97784000D02*
X128376000Y-97784000D01*
%TO.N,/VA12*%
X136398000Y-90678000D02*
X136398000Y-90675654D01*
%TO.N,/VA7*%
X143147686Y-89320000D02*
X144460000Y-89320000D01*
%TO.N,/VA6*%
X147000000Y-89320000D02*
X145850000Y-90470000D01*
%TO.N,/VA8*%
X147000000Y-86780000D02*
X145610000Y-88170000D01*
X145610000Y-88170000D02*
X143732000Y-88170000D01*
%TO.N,/VA10*%
X130629654Y-98984000D02*
X144223654Y-85390000D01*
%TO.N,/VA8*%
X143732000Y-88170000D02*
X132118000Y-99784000D01*
%TO.N,/VA13*%
X128376000Y-97784000D02*
X144460000Y-81700000D01*
X106172000Y-96012000D02*
X107944000Y-97784000D01*
%TO.N,/VA12*%
X144223654Y-82850000D02*
X145850000Y-82850000D01*
%TO.N,/VA6*%
X132449372Y-100584000D02*
X92964000Y-100584000D01*
%TO.N,/VA12*%
X103632000Y-96012000D02*
X105804000Y-98184000D01*
%TO.N,/VA8*%
X97244000Y-99784000D02*
X93472000Y-96012000D01*
%TO.N,/VA11*%
X103664000Y-98584000D02*
X101092000Y-96012000D01*
%TO.N,/VA12*%
X136398000Y-90675654D02*
X144223654Y-82850000D01*
%TO.N,/VA9*%
X144460000Y-86780000D02*
X131856000Y-99384000D01*
%TO.N,/VA11*%
X130270000Y-98584000D02*
X103664000Y-98584000D01*
X144460000Y-84240000D02*
X135228000Y-93472000D01*
%TO.N,/VA12*%
X105804000Y-98184000D02*
X128892000Y-98184000D01*
%TO.N,/VA10*%
X145850000Y-85390000D02*
X147000000Y-84240000D01*
X144223654Y-85390000D02*
X145850000Y-85390000D01*
%TO.N,/VA12*%
X128892000Y-98184000D02*
X136398000Y-90678000D01*
%TO.N,/VA10*%
X101524000Y-98984000D02*
X130629654Y-98984000D01*
%TO.N,/VA6*%
X92964000Y-100584000D02*
X88392000Y-96012000D01*
%TO.N,/VA9*%
X131856000Y-99384000D02*
X99384000Y-99384000D01*
%TO.N,/VA12*%
X145850000Y-82850000D02*
X147000000Y-81700000D01*
%TO.N,/VA9*%
X99384000Y-99384000D02*
X96012000Y-96012000D01*
%TO.N,/VA10*%
X98552000Y-96012000D02*
X101524000Y-98984000D01*
%TO.N,/VA8*%
X132118000Y-99784000D02*
X97244000Y-99784000D01*
%TO.N,/VA6*%
X142563372Y-90470000D02*
X132449372Y-100584000D01*
%TO.N,/VA14*%
X81502000Y-78010000D02*
X145850000Y-78010000D01*
X80772000Y-78740000D02*
X81502000Y-78010000D01*
X145850000Y-78010000D02*
X147000000Y-79160000D01*
%TO.N,/D0*%
X55540000Y-107100000D02*
X57006000Y-108566000D01*
X57006000Y-108566000D02*
X115028000Y-108566000D01*
X115028000Y-108566000D02*
X115062000Y-108600000D01*
%TO.N,/Out0*%
X60255686Y-93980000D02*
X57295686Y-96940000D01*
X106426000Y-93980000D02*
X60255686Y-93980000D01*
X57295686Y-96940000D02*
X55540000Y-96940000D01*
%TO.N,/Out1*%
X103632000Y-93218000D02*
X60452000Y-93218000D01*
X60452000Y-93218000D02*
X57880000Y-95790000D01*
X57880000Y-95790000D02*
X54150000Y-95790000D01*
X54150000Y-95790000D02*
X53000000Y-96940000D01*
%TO.N,/PHI2*%
X108624000Y-76620000D02*
X55540000Y-76620000D01*
X108712000Y-76708000D02*
X108624000Y-76620000D01*
%TO.N,/R{slash}~{W}*%
X111252000Y-84582000D02*
X110910000Y-84240000D01*
X110910000Y-84240000D02*
X55540000Y-84240000D01*
%TO.N,/VCLK*%
X100926000Y-86780000D02*
X101092000Y-86614000D01*
X55540000Y-86780000D02*
X100926000Y-86780000D01*
%TO.N,/~{CS}*%
X53000000Y-86780000D02*
X54150000Y-85630000D01*
X54150000Y-85630000D02*
X108679996Y-85630000D01*
X108679996Y-85630000D02*
X108711996Y-85598000D01*
%TD*%
%TA.AperFunction,Conductor*%
%TO.N,GND*%
G36*
X55074075Y-109447007D02*
G01*
X55040000Y-109574174D01*
X55040000Y-109705826D01*
X55074075Y-109832993D01*
X55106988Y-109890000D01*
X53433012Y-109890000D01*
X53465925Y-109832993D01*
X53500000Y-109705826D01*
X53500000Y-109574174D01*
X53465925Y-109447007D01*
X53433012Y-109390000D01*
X55106988Y-109390000D01*
X55074075Y-109447007D01*
G37*
%TD.AperFunction*%
%TA.AperFunction,Conductor*%
G36*
X146534075Y-109447007D02*
G01*
X146500000Y-109574174D01*
X146500000Y-109705826D01*
X146534075Y-109832993D01*
X146566988Y-109890000D01*
X144893012Y-109890000D01*
X144925925Y-109832993D01*
X144960000Y-109705826D01*
X144960000Y-109574174D01*
X144925925Y-109447007D01*
X144893012Y-109390000D01*
X146566988Y-109390000D01*
X146534075Y-109447007D01*
G37*
%TD.AperFunction*%
%TA.AperFunction,Conductor*%
G36*
X143210436Y-103790185D02*
G01*
X143256191Y-103842989D01*
X143266135Y-103912147D01*
X143255779Y-103946905D01*
X143186097Y-104096335D01*
X143186094Y-104096344D01*
X143124938Y-104324586D01*
X143124936Y-104324596D01*
X143104341Y-104559999D01*
X143104341Y-104560000D01*
X143124936Y-104795403D01*
X143124938Y-104795413D01*
X143167272Y-104953407D01*
X143165609Y-105023257D01*
X143126446Y-105081119D01*
X143062218Y-105108623D01*
X143047497Y-105109500D01*
X142114943Y-105109500D01*
X141962213Y-105150423D01*
X141921005Y-105174216D01*
X141921004Y-105174216D01*
X141825287Y-105229477D01*
X141825282Y-105229481D01*
X141713478Y-105341286D01*
X138347584Y-108707181D01*
X138286261Y-108740666D01*
X138259903Y-108743500D01*
X120493929Y-108743500D01*
X120426890Y-108723815D01*
X120381135Y-108671011D01*
X120371191Y-108601853D01*
X120400216Y-108538297D01*
X120427956Y-108514507D01*
X120502258Y-108467819D01*
X120502257Y-108467819D01*
X120502260Y-108467818D01*
X120629814Y-108340264D01*
X120725787Y-108187524D01*
X120785366Y-108017257D01*
X120790533Y-107971401D01*
X120805563Y-107838005D01*
X120805563Y-107837999D01*
X120789400Y-107694551D01*
X120801454Y-107625729D01*
X120848803Y-107574349D01*
X120850552Y-107573319D01*
X120872722Y-107560520D01*
X120984526Y-107448716D01*
X120984526Y-107448714D01*
X120994730Y-107438511D01*
X120994734Y-107438506D01*
X121430535Y-107002704D01*
X121491856Y-106969221D01*
X121504311Y-106967169D01*
X121591255Y-106957374D01*
X121761522Y-106897795D01*
X121914262Y-106801822D01*
X122041816Y-106674268D01*
X122137789Y-106521528D01*
X122197368Y-106351261D01*
X122197369Y-106351255D01*
X122217565Y-106172009D01*
X122217565Y-106172002D01*
X122197369Y-105992756D01*
X122197368Y-105992751D01*
X122179475Y-105941615D01*
X122137789Y-105822484D01*
X122041816Y-105669744D01*
X121914262Y-105542190D01*
X121899654Y-105533011D01*
X121761523Y-105446217D01*
X121591256Y-105386638D01*
X121585795Y-105385392D01*
X121524816Y-105351284D01*
X121491958Y-105289623D01*
X121497652Y-105219986D01*
X121540090Y-105164481D01*
X121605800Y-105140732D01*
X121613386Y-105140500D01*
X138255017Y-105140500D01*
X138255033Y-105140501D01*
X138262629Y-105140501D01*
X138420740Y-105140501D01*
X138420743Y-105140501D01*
X138573471Y-105099577D01*
X138641192Y-105060478D01*
X138710402Y-105020520D01*
X138822206Y-104908716D01*
X138822206Y-104908714D01*
X138832410Y-104898511D01*
X138832413Y-104898506D01*
X139924103Y-103806819D01*
X139985426Y-103773334D01*
X140011784Y-103770500D01*
X143143397Y-103770500D01*
X143210436Y-103790185D01*
G37*
%TD.AperFunction*%
%TA.AperFunction,Conductor*%
G36*
X72652327Y-94600185D02*
G01*
X72698082Y-94652989D01*
X72708026Y-94722147D01*
X72679001Y-94785703D01*
X72637693Y-94816882D01*
X72499267Y-94881431D01*
X72499265Y-94881432D01*
X72312858Y-95011954D01*
X72151954Y-95172858D01*
X72021432Y-95359265D01*
X72021431Y-95359267D01*
X71925261Y-95565502D01*
X71925258Y-95565511D01*
X71866366Y-95785302D01*
X71866364Y-95785313D01*
X71846532Y-96011998D01*
X71846532Y-96012001D01*
X71866364Y-96238686D01*
X71866366Y-96238697D01*
X71925258Y-96458488D01*
X71925261Y-96458497D01*
X72021431Y-96664732D01*
X72021432Y-96664734D01*
X72151954Y-96851141D01*
X72312858Y-97012045D01*
X72312861Y-97012047D01*
X72499266Y-97142568D01*
X72705504Y-97238739D01*
X72925308Y-97297635D01*
X73067361Y-97310063D01*
X73151998Y-97317468D01*
X73152000Y-97317468D01*
X73152002Y-97317468D01*
X73208673Y-97312509D01*
X73378692Y-97297635D01*
X73474932Y-97271847D01*
X73544781Y-97273510D01*
X73594706Y-97303941D01*
X78964583Y-102673819D01*
X78998068Y-102735142D01*
X78993084Y-102804834D01*
X78951212Y-102860767D01*
X78885748Y-102885184D01*
X78876902Y-102885500D01*
X75178942Y-102885500D01*
X75026215Y-102926423D01*
X74981582Y-102952192D01*
X74981581Y-102952192D01*
X74889290Y-103005475D01*
X74889282Y-103005481D01*
X74777480Y-103117284D01*
X74777478Y-103117286D01*
X74706339Y-103188425D01*
X74657465Y-103237299D01*
X74596142Y-103270783D01*
X74583668Y-103272837D01*
X74496750Y-103282630D01*
X74326478Y-103342210D01*
X74173737Y-103438184D01*
X74046184Y-103565737D01*
X73950211Y-103718476D01*
X73890631Y-103888745D01*
X73890630Y-103888750D01*
X73870435Y-104067996D01*
X73870435Y-104068003D01*
X73890630Y-104247249D01*
X73890631Y-104247254D01*
X73950211Y-104417523D01*
X74046184Y-104570262D01*
X74069741Y-104593819D01*
X74103226Y-104655142D01*
X74098242Y-104724834D01*
X74056370Y-104780767D01*
X73990906Y-104805184D01*
X73982060Y-104805500D01*
X63796097Y-104805500D01*
X63729058Y-104785815D01*
X63708416Y-104769181D01*
X56907590Y-97968355D01*
X56907588Y-97968352D01*
X56788717Y-97849481D01*
X56788712Y-97849477D01*
X56737219Y-97819748D01*
X56689004Y-97769181D01*
X56675780Y-97700574D01*
X56697646Y-97641236D01*
X56714032Y-97617835D01*
X56714032Y-97617833D01*
X56714035Y-97617830D01*
X56716707Y-97612097D01*
X56762878Y-97559658D01*
X56829091Y-97540500D01*
X57209017Y-97540500D01*
X57209033Y-97540501D01*
X57216629Y-97540501D01*
X57374740Y-97540501D01*
X57374743Y-97540501D01*
X57527471Y-97499577D01*
X57577590Y-97470639D01*
X57664402Y-97420520D01*
X57776206Y-97308716D01*
X57776206Y-97308714D01*
X57786414Y-97298507D01*
X57786415Y-97298504D01*
X60468102Y-94616819D01*
X60529425Y-94583334D01*
X60555783Y-94580500D01*
X72585288Y-94580500D01*
X72652327Y-94600185D01*
G37*
%TD.AperFunction*%
%TA.AperFunction,Conductor*%
G36*
X81272717Y-77240185D02*
G01*
X81318472Y-77292989D01*
X81328416Y-77362147D01*
X81299391Y-77425703D01*
X81267680Y-77451886D01*
X81229938Y-77473676D01*
X81220095Y-77479360D01*
X81176689Y-77504420D01*
X81133285Y-77529479D01*
X81133282Y-77529481D01*
X81021478Y-77641286D01*
X80753465Y-77909298D01*
X80692142Y-77942783D01*
X80679668Y-77944837D01*
X80592750Y-77954630D01*
X80422478Y-78014210D01*
X80269737Y-78110184D01*
X80142184Y-78237737D01*
X80046211Y-78390476D01*
X79986631Y-78560745D01*
X79986630Y-78560750D01*
X79966435Y-78739996D01*
X79966435Y-78740003D01*
X79986630Y-78919249D01*
X79986631Y-78919254D01*
X80046211Y-79089523D01*
X80090495Y-79160000D01*
X80142184Y-79242262D01*
X80269738Y-79369816D01*
X80269741Y-79369818D01*
X80272693Y-79372172D01*
X80274103Y-79374181D01*
X80274662Y-79374740D01*
X80274564Y-79374837D01*
X80312833Y-79429361D01*
X80315683Y-79499172D01*
X80280337Y-79559442D01*
X80247786Y-79581501D01*
X80119264Y-79641433D01*
X79932858Y-79771954D01*
X79771954Y-79932858D01*
X79641432Y-80119265D01*
X79641431Y-80119267D01*
X79614382Y-80177275D01*
X79568209Y-80229714D01*
X79501016Y-80248866D01*
X79434135Y-80228650D01*
X79389618Y-80177275D01*
X79362568Y-80119267D01*
X79362567Y-80119265D01*
X79301045Y-80031402D01*
X79232047Y-79932861D01*
X79232045Y-79932858D01*
X79071141Y-79771954D01*
X78884734Y-79641432D01*
X78884732Y-79641431D01*
X78678497Y-79545261D01*
X78678488Y-79545258D01*
X78458697Y-79486366D01*
X78458693Y-79486365D01*
X78458692Y-79486365D01*
X78458691Y-79486364D01*
X78458686Y-79486364D01*
X78232002Y-79466532D01*
X78231998Y-79466532D01*
X78005313Y-79486364D01*
X78005302Y-79486366D01*
X77785511Y-79545258D01*
X77785502Y-79545261D01*
X77579267Y-79641431D01*
X77579265Y-79641432D01*
X77392858Y-79771954D01*
X77231954Y-79932858D01*
X77101432Y-80119265D01*
X77101431Y-80119267D01*
X77074382Y-80177275D01*
X77028209Y-80229714D01*
X76961016Y-80248866D01*
X76894135Y-80228650D01*
X76849618Y-80177275D01*
X76822568Y-80119267D01*
X76822567Y-80119265D01*
X76761045Y-80031402D01*
X76692047Y-79932861D01*
X76692045Y-79932858D01*
X76531141Y-79771954D01*
X76344734Y-79641432D01*
X76344732Y-79641431D01*
X76138497Y-79545261D01*
X76138488Y-79545258D01*
X75918697Y-79486366D01*
X75918693Y-79486365D01*
X75918692Y-79486365D01*
X75918691Y-79486364D01*
X75918686Y-79486364D01*
X75692002Y-79466532D01*
X75691998Y-79466532D01*
X75465313Y-79486364D01*
X75465302Y-79486366D01*
X75245511Y-79545258D01*
X75245502Y-79545261D01*
X75039267Y-79641431D01*
X75039265Y-79641432D01*
X74852858Y-79771954D01*
X74691951Y-79932861D01*
X74674287Y-79958088D01*
X74619710Y-80001712D01*
X74550211Y-80008904D01*
X74487857Y-79977380D01*
X74452445Y-79917150D01*
X74449425Y-79900218D01*
X74445598Y-79864627D01*
X74445596Y-79864620D01*
X74395354Y-79729913D01*
X74395350Y-79729906D01*
X74309190Y-79614812D01*
X74309187Y-79614809D01*
X74194093Y-79528649D01*
X74194086Y-79528645D01*
X74059379Y-79478403D01*
X74059372Y-79478401D01*
X73999844Y-79472000D01*
X73402000Y-79472000D01*
X73402000Y-80456314D01*
X73397606Y-80451920D01*
X73306394Y-80399259D01*
X73204661Y-80372000D01*
X73099339Y-80372000D01*
X72997606Y-80399259D01*
X72906394Y-80451920D01*
X72902000Y-80456314D01*
X72902000Y-79472000D01*
X72304155Y-79472000D01*
X72244627Y-79478401D01*
X72244620Y-79478403D01*
X72109913Y-79528645D01*
X72109906Y-79528649D01*
X71994812Y-79614809D01*
X71994809Y-79614812D01*
X71908649Y-79729906D01*
X71908645Y-79729913D01*
X71858403Y-79864620D01*
X71858401Y-79864627D01*
X71852000Y-79924155D01*
X71852000Y-80522000D01*
X72836314Y-80522000D01*
X72831920Y-80526394D01*
X72779259Y-80617606D01*
X72752000Y-80719339D01*
X72752000Y-80824661D01*
X72779259Y-80926394D01*
X72831920Y-81017606D01*
X72836314Y-81022000D01*
X71852000Y-81022000D01*
X71852000Y-81619844D01*
X71858401Y-81679372D01*
X71858403Y-81679379D01*
X71908645Y-81814086D01*
X71908649Y-81814093D01*
X71994809Y-81929187D01*
X71994812Y-81929190D01*
X72109906Y-82015350D01*
X72109913Y-82015354D01*
X72244620Y-82065596D01*
X72244627Y-82065598D01*
X72304155Y-82071999D01*
X72304172Y-82072000D01*
X72902000Y-82072000D01*
X72902000Y-81087686D01*
X72906394Y-81092080D01*
X72997606Y-81144741D01*
X73099339Y-81172000D01*
X73204661Y-81172000D01*
X73306394Y-81144741D01*
X73397606Y-81092080D01*
X73402000Y-81087686D01*
X73402000Y-82072000D01*
X73999828Y-82072000D01*
X73999844Y-82071999D01*
X74059372Y-82065598D01*
X74059379Y-82065596D01*
X74194086Y-82015354D01*
X74194093Y-82015350D01*
X74309187Y-81929190D01*
X74309190Y-81929187D01*
X74395350Y-81814093D01*
X74395354Y-81814086D01*
X74445596Y-81679380D01*
X74449424Y-81643781D01*
X74476162Y-81579230D01*
X74533555Y-81539382D01*
X74603380Y-81536888D01*
X74663469Y-81572540D01*
X74674289Y-81585912D01*
X74691956Y-81611143D01*
X74852858Y-81772045D01*
X74852861Y-81772047D01*
X75039266Y-81902568D01*
X75245504Y-81998739D01*
X75465308Y-82057635D01*
X75627230Y-82071801D01*
X75691998Y-82077468D01*
X75692000Y-82077468D01*
X75692002Y-82077468D01*
X75754511Y-82071999D01*
X75918692Y-82057635D01*
X76138496Y-81998739D01*
X76344734Y-81902568D01*
X76531139Y-81772047D01*
X76692047Y-81611139D01*
X76822568Y-81424734D01*
X76849618Y-81366724D01*
X76895790Y-81314285D01*
X76962983Y-81295133D01*
X77029865Y-81315348D01*
X77074382Y-81366725D01*
X77101429Y-81424728D01*
X77101432Y-81424734D01*
X77231954Y-81611141D01*
X77392858Y-81772045D01*
X77392861Y-81772047D01*
X77579266Y-81902568D01*
X77785504Y-81998739D01*
X78005308Y-82057635D01*
X78167230Y-82071801D01*
X78231998Y-82077468D01*
X78232000Y-82077468D01*
X78232002Y-82077468D01*
X78294511Y-82071999D01*
X78458692Y-82057635D01*
X78678496Y-81998739D01*
X78884734Y-81902568D01*
X79071139Y-81772047D01*
X79232047Y-81611139D01*
X79362568Y-81424734D01*
X79389618Y-81366724D01*
X79435790Y-81314285D01*
X79502983Y-81295133D01*
X79569865Y-81315348D01*
X79614382Y-81366725D01*
X79641429Y-81424728D01*
X79641432Y-81424734D01*
X79771954Y-81611141D01*
X79932858Y-81772045D01*
X79932861Y-81772047D01*
X80119266Y-81902568D01*
X80325504Y-81998739D01*
X80545308Y-82057635D01*
X80707230Y-82071801D01*
X80771998Y-82077468D01*
X80772000Y-82077468D01*
X80772002Y-82077468D01*
X80834511Y-82071999D01*
X80998692Y-82057635D01*
X81218496Y-81998739D01*
X81424734Y-81902568D01*
X81611139Y-81772047D01*
X81772047Y-81611139D01*
X81902568Y-81424734D01*
X81929618Y-81366724D01*
X81975790Y-81314285D01*
X82042983Y-81295133D01*
X82109865Y-81315348D01*
X82154382Y-81366725D01*
X82181429Y-81424728D01*
X82181432Y-81424734D01*
X82311954Y-81611141D01*
X82472858Y-81772045D01*
X82472861Y-81772047D01*
X82659266Y-81902568D01*
X82865504Y-81998739D01*
X83085308Y-82057635D01*
X83247230Y-82071801D01*
X83311998Y-82077468D01*
X83312000Y-82077468D01*
X83312002Y-82077468D01*
X83374511Y-82071999D01*
X83538692Y-82057635D01*
X83758496Y-81998739D01*
X83964734Y-81902568D01*
X84151139Y-81772047D01*
X84312047Y-81611139D01*
X84442568Y-81424734D01*
X84469618Y-81366724D01*
X84515790Y-81314285D01*
X84582983Y-81295133D01*
X84649865Y-81315348D01*
X84694382Y-81366725D01*
X84721429Y-81424728D01*
X84721432Y-81424734D01*
X84851954Y-81611141D01*
X85012858Y-81772045D01*
X85012861Y-81772047D01*
X85199266Y-81902568D01*
X85405504Y-81998739D01*
X85625308Y-82057635D01*
X85787230Y-82071801D01*
X85851998Y-82077468D01*
X85852000Y-82077468D01*
X85852002Y-82077468D01*
X85914511Y-82071999D01*
X86078692Y-82057635D01*
X86298496Y-81998739D01*
X86504734Y-81902568D01*
X86691139Y-81772047D01*
X86852047Y-81611139D01*
X86982568Y-81424734D01*
X87009618Y-81366724D01*
X87055790Y-81314285D01*
X87122983Y-81295133D01*
X87189865Y-81315348D01*
X87234382Y-81366725D01*
X87261429Y-81424728D01*
X87261432Y-81424734D01*
X87391954Y-81611141D01*
X87552858Y-81772045D01*
X87552861Y-81772047D01*
X87739266Y-81902568D01*
X87945504Y-81998739D01*
X88165308Y-82057635D01*
X88327230Y-82071801D01*
X88391998Y-82077468D01*
X88392000Y-82077468D01*
X88392002Y-82077468D01*
X88454511Y-82071999D01*
X88618692Y-82057635D01*
X88838496Y-81998739D01*
X89044734Y-81902568D01*
X89231139Y-81772047D01*
X89392047Y-81611139D01*
X89522568Y-81424734D01*
X89549618Y-81366724D01*
X89595790Y-81314285D01*
X89662983Y-81295133D01*
X89729865Y-81315348D01*
X89774382Y-81366725D01*
X89801429Y-81424728D01*
X89801432Y-81424734D01*
X89931954Y-81611141D01*
X90092858Y-81772045D01*
X90092861Y-81772047D01*
X90279266Y-81902568D01*
X90485504Y-81998739D01*
X90705308Y-82057635D01*
X90867230Y-82071801D01*
X90931998Y-82077468D01*
X90932000Y-82077468D01*
X90932002Y-82077468D01*
X90994511Y-82071999D01*
X91158692Y-82057635D01*
X91378496Y-81998739D01*
X91584734Y-81902568D01*
X91771139Y-81772047D01*
X91932047Y-81611139D01*
X92062568Y-81424734D01*
X92089618Y-81366724D01*
X92135790Y-81314285D01*
X92202983Y-81295133D01*
X92269865Y-81315348D01*
X92314382Y-81366725D01*
X92341429Y-81424728D01*
X92341432Y-81424734D01*
X92471954Y-81611141D01*
X92632858Y-81772045D01*
X92632861Y-81772047D01*
X92819266Y-81902568D01*
X93025504Y-81998739D01*
X93245308Y-82057635D01*
X93407230Y-82071801D01*
X93471998Y-82077468D01*
X93472000Y-82077468D01*
X93472002Y-82077468D01*
X93534511Y-82071999D01*
X93698692Y-82057635D01*
X93918496Y-81998739D01*
X94124734Y-81902568D01*
X94311139Y-81772047D01*
X94472047Y-81611139D01*
X94602568Y-81424734D01*
X94629618Y-81366724D01*
X94675790Y-81314285D01*
X94742983Y-81295133D01*
X94809865Y-81315348D01*
X94854382Y-81366725D01*
X94881429Y-81424728D01*
X94881432Y-81424734D01*
X95011954Y-81611141D01*
X95172858Y-81772045D01*
X95172861Y-81772047D01*
X95359266Y-81902568D01*
X95565504Y-81998739D01*
X95785308Y-82057635D01*
X95947230Y-82071801D01*
X96011998Y-82077468D01*
X96012000Y-82077468D01*
X96012002Y-82077468D01*
X96074511Y-82071999D01*
X96238692Y-82057635D01*
X96458496Y-81998739D01*
X96664734Y-81902568D01*
X96851139Y-81772047D01*
X97012047Y-81611139D01*
X97142568Y-81424734D01*
X97169618Y-81366724D01*
X97215790Y-81314285D01*
X97282983Y-81295133D01*
X97349865Y-81315348D01*
X97394382Y-81366725D01*
X97421429Y-81424728D01*
X97421432Y-81424734D01*
X97551954Y-81611141D01*
X97712858Y-81772045D01*
X97712861Y-81772047D01*
X97899266Y-81902568D01*
X98105504Y-81998739D01*
X98325308Y-82057635D01*
X98487230Y-82071801D01*
X98551998Y-82077468D01*
X98552000Y-82077468D01*
X98552002Y-82077468D01*
X98614511Y-82071999D01*
X98778692Y-82057635D01*
X98998496Y-81998739D01*
X99204734Y-81902568D01*
X99391139Y-81772047D01*
X99552047Y-81611139D01*
X99682568Y-81424734D01*
X99709618Y-81366724D01*
X99755790Y-81314285D01*
X99822983Y-81295133D01*
X99889865Y-81315348D01*
X99934382Y-81366725D01*
X99961429Y-81424728D01*
X99961432Y-81424734D01*
X100091954Y-81611141D01*
X100252858Y-81772045D01*
X100252861Y-81772047D01*
X100439266Y-81902568D01*
X100645504Y-81998739D01*
X100865308Y-82057635D01*
X101027230Y-82071801D01*
X101091998Y-82077468D01*
X101092000Y-82077468D01*
X101092002Y-82077468D01*
X101154511Y-82071999D01*
X101318692Y-82057635D01*
X101538496Y-81998739D01*
X101744734Y-81902568D01*
X101931139Y-81772047D01*
X102092047Y-81611139D01*
X102222568Y-81424734D01*
X102249618Y-81366724D01*
X102295790Y-81314285D01*
X102362983Y-81295133D01*
X102429865Y-81315348D01*
X102474382Y-81366725D01*
X102501429Y-81424728D01*
X102501432Y-81424734D01*
X102631954Y-81611141D01*
X102792858Y-81772045D01*
X102792861Y-81772047D01*
X102979266Y-81902568D01*
X103185504Y-81998739D01*
X103405308Y-82057635D01*
X103567230Y-82071801D01*
X103631998Y-82077468D01*
X103632000Y-82077468D01*
X103632002Y-82077468D01*
X103694511Y-82071999D01*
X103858692Y-82057635D01*
X104078496Y-81998739D01*
X104284734Y-81902568D01*
X104471139Y-81772047D01*
X104632047Y-81611139D01*
X104762568Y-81424734D01*
X104789618Y-81366724D01*
X104835790Y-81314285D01*
X104902983Y-81295133D01*
X104969865Y-81315348D01*
X105014382Y-81366725D01*
X105041429Y-81424728D01*
X105041432Y-81424734D01*
X105171954Y-81611141D01*
X105332858Y-81772045D01*
X105332861Y-81772047D01*
X105519266Y-81902568D01*
X105725504Y-81998739D01*
X105945308Y-82057635D01*
X106107230Y-82071801D01*
X106171998Y-82077468D01*
X106172000Y-82077468D01*
X106172002Y-82077468D01*
X106234511Y-82071999D01*
X106398692Y-82057635D01*
X106618496Y-81998739D01*
X106824734Y-81902568D01*
X107011139Y-81772047D01*
X107172047Y-81611139D01*
X107302568Y-81424734D01*
X107329618Y-81366724D01*
X107375790Y-81314285D01*
X107442983Y-81295133D01*
X107509865Y-81315348D01*
X107554382Y-81366725D01*
X107581429Y-81424728D01*
X107581432Y-81424734D01*
X107711954Y-81611141D01*
X107872858Y-81772045D01*
X107872861Y-81772047D01*
X108059266Y-81902568D01*
X108265504Y-81998739D01*
X108485308Y-82057635D01*
X108647230Y-82071801D01*
X108711998Y-82077468D01*
X108712000Y-82077468D01*
X108712002Y-82077468D01*
X108774511Y-82071999D01*
X108938692Y-82057635D01*
X109158496Y-81998739D01*
X109364734Y-81902568D01*
X109551139Y-81772047D01*
X109712047Y-81611139D01*
X109842568Y-81424734D01*
X109869618Y-81366724D01*
X109915790Y-81314285D01*
X109982983Y-81295133D01*
X110049865Y-81315348D01*
X110094382Y-81366725D01*
X110121429Y-81424728D01*
X110121432Y-81424734D01*
X110251954Y-81611141D01*
X110412858Y-81772045D01*
X110412861Y-81772047D01*
X110599266Y-81902568D01*
X110805504Y-81998739D01*
X111025308Y-82057635D01*
X111187230Y-82071801D01*
X111251998Y-82077468D01*
X111252000Y-82077468D01*
X111252002Y-82077468D01*
X111314511Y-82071999D01*
X111478692Y-82057635D01*
X111698496Y-81998739D01*
X111904734Y-81902568D01*
X112091139Y-81772047D01*
X112252047Y-81611139D01*
X112382568Y-81424734D01*
X112409618Y-81366724D01*
X112455790Y-81314285D01*
X112522983Y-81295133D01*
X112589865Y-81315348D01*
X112634382Y-81366725D01*
X112661429Y-81424728D01*
X112661432Y-81424734D01*
X112791954Y-81611141D01*
X112952858Y-81772045D01*
X112952861Y-81772047D01*
X113139266Y-81902568D01*
X113345504Y-81998739D01*
X113565308Y-82057635D01*
X113727230Y-82071801D01*
X113791998Y-82077468D01*
X113792000Y-82077468D01*
X113792002Y-82077468D01*
X113854511Y-82071999D01*
X114018692Y-82057635D01*
X114238496Y-81998739D01*
X114444734Y-81902568D01*
X114631139Y-81772047D01*
X114792047Y-81611139D01*
X114922568Y-81424734D01*
X114949618Y-81366724D01*
X114995790Y-81314285D01*
X115062983Y-81295133D01*
X115129865Y-81315348D01*
X115174382Y-81366725D01*
X115201429Y-81424728D01*
X115201432Y-81424734D01*
X115331954Y-81611141D01*
X115492858Y-81772045D01*
X115492861Y-81772047D01*
X115679266Y-81902568D01*
X115885504Y-81998739D01*
X116105308Y-82057635D01*
X116267230Y-82071801D01*
X116331998Y-82077468D01*
X116332000Y-82077468D01*
X116332002Y-82077468D01*
X116394511Y-82071999D01*
X116558692Y-82057635D01*
X116778496Y-81998739D01*
X116984734Y-81902568D01*
X117171139Y-81772047D01*
X117332047Y-81611139D01*
X117462568Y-81424734D01*
X117489618Y-81366724D01*
X117535790Y-81314285D01*
X117602983Y-81295133D01*
X117669865Y-81315348D01*
X117714382Y-81366725D01*
X117741429Y-81424728D01*
X117741432Y-81424734D01*
X117871954Y-81611141D01*
X118032858Y-81772045D01*
X118032861Y-81772047D01*
X118219266Y-81902568D01*
X118425504Y-81998739D01*
X118645308Y-82057635D01*
X118807230Y-82071801D01*
X118871998Y-82077468D01*
X118872000Y-82077468D01*
X118872002Y-82077468D01*
X118934511Y-82071999D01*
X119098692Y-82057635D01*
X119318496Y-81998739D01*
X119524734Y-81902568D01*
X119711139Y-81772047D01*
X119872047Y-81611139D01*
X120002568Y-81424734D01*
X120029618Y-81366724D01*
X120075790Y-81314285D01*
X120142983Y-81295133D01*
X120209865Y-81315348D01*
X120254382Y-81366725D01*
X120281429Y-81424728D01*
X120281432Y-81424734D01*
X120411954Y-81611141D01*
X120572858Y-81772045D01*
X120572861Y-81772047D01*
X120759266Y-81902568D01*
X120965504Y-81998739D01*
X121185308Y-82057635D01*
X121347230Y-82071801D01*
X121411998Y-82077468D01*
X121412000Y-82077468D01*
X121412002Y-82077468D01*
X121474511Y-82071999D01*
X121638692Y-82057635D01*
X121858496Y-81998739D01*
X122064734Y-81902568D01*
X122251139Y-81772047D01*
X122412047Y-81611139D01*
X122542568Y-81424734D01*
X122638739Y-81218496D01*
X122697635Y-80998692D01*
X122717468Y-80772000D01*
X122697635Y-80545308D01*
X122638739Y-80325504D01*
X122542568Y-80119266D01*
X122412047Y-79932861D01*
X122412045Y-79932858D01*
X122251141Y-79771954D01*
X122064734Y-79641432D01*
X122064732Y-79641431D01*
X121858497Y-79545261D01*
X121858488Y-79545258D01*
X121638697Y-79486366D01*
X121638693Y-79486365D01*
X121638692Y-79486365D01*
X121638691Y-79486364D01*
X121638686Y-79486364D01*
X121412002Y-79466532D01*
X121411998Y-79466532D01*
X121185313Y-79486364D01*
X121185302Y-79486366D01*
X120965511Y-79545258D01*
X120965502Y-79545261D01*
X120759267Y-79641431D01*
X120759265Y-79641432D01*
X120572858Y-79771954D01*
X120411954Y-79932858D01*
X120281432Y-80119265D01*
X120281431Y-80119267D01*
X120254382Y-80177275D01*
X120208209Y-80229714D01*
X120141016Y-80248866D01*
X120074135Y-80228650D01*
X120029618Y-80177275D01*
X120002568Y-80119267D01*
X120002567Y-80119265D01*
X119941045Y-80031402D01*
X119872047Y-79932861D01*
X119872045Y-79932858D01*
X119711141Y-79771954D01*
X119524734Y-79641432D01*
X119524732Y-79641431D01*
X119318497Y-79545261D01*
X119318488Y-79545258D01*
X119098697Y-79486366D01*
X119098693Y-79486365D01*
X119098692Y-79486365D01*
X119098691Y-79486364D01*
X119098686Y-79486364D01*
X118872002Y-79466532D01*
X118871998Y-79466532D01*
X118645313Y-79486364D01*
X118645302Y-79486366D01*
X118425511Y-79545258D01*
X118425502Y-79545261D01*
X118219267Y-79641431D01*
X118219265Y-79641432D01*
X118032858Y-79771954D01*
X117871954Y-79932858D01*
X117741432Y-80119265D01*
X117741431Y-80119267D01*
X117714382Y-80177275D01*
X117668209Y-80229714D01*
X117601016Y-80248866D01*
X117534135Y-80228650D01*
X117489618Y-80177275D01*
X117462568Y-80119267D01*
X117462567Y-80119265D01*
X117401045Y-80031402D01*
X117332047Y-79932861D01*
X117332045Y-79932858D01*
X117171141Y-79771954D01*
X116984734Y-79641432D01*
X116984732Y-79641431D01*
X116778497Y-79545261D01*
X116778488Y-79545258D01*
X116558697Y-79486366D01*
X116558693Y-79486365D01*
X116558692Y-79486365D01*
X116558691Y-79486364D01*
X116558686Y-79486364D01*
X116332002Y-79466532D01*
X116331998Y-79466532D01*
X116105313Y-79486364D01*
X116105302Y-79486366D01*
X115885511Y-79545258D01*
X115885502Y-79545261D01*
X115679267Y-79641431D01*
X115679265Y-79641432D01*
X115492858Y-79771954D01*
X115331954Y-79932858D01*
X115201432Y-80119265D01*
X115201431Y-80119267D01*
X115174382Y-80177275D01*
X115128209Y-80229714D01*
X115061016Y-80248866D01*
X114994135Y-80228650D01*
X114949618Y-80177275D01*
X114922568Y-80119267D01*
X114922567Y-80119265D01*
X114861045Y-80031402D01*
X114792047Y-79932861D01*
X114792045Y-79932858D01*
X114631141Y-79771954D01*
X114444734Y-79641432D01*
X114444732Y-79641431D01*
X114238497Y-79545261D01*
X114238488Y-79545258D01*
X114018697Y-79486366D01*
X114018693Y-79486365D01*
X114018692Y-79486365D01*
X114018691Y-79486364D01*
X114018686Y-79486364D01*
X113792002Y-79466532D01*
X113791998Y-79466532D01*
X113565313Y-79486364D01*
X113565302Y-79486366D01*
X113345511Y-79545258D01*
X113345502Y-79545261D01*
X113139267Y-79641431D01*
X113139265Y-79641432D01*
X112952858Y-79771954D01*
X112791954Y-79932858D01*
X112661432Y-80119265D01*
X112661431Y-80119267D01*
X112634382Y-80177275D01*
X112588209Y-80229714D01*
X112521016Y-80248866D01*
X112454135Y-80228650D01*
X112409618Y-80177275D01*
X112382568Y-80119267D01*
X112382567Y-80119265D01*
X112321045Y-80031402D01*
X112252047Y-79932861D01*
X112252045Y-79932858D01*
X112091141Y-79771954D01*
X111904734Y-79641432D01*
X111904732Y-79641431D01*
X111698497Y-79545261D01*
X111698488Y-79545258D01*
X111478697Y-79486366D01*
X111478693Y-79486365D01*
X111478692Y-79486365D01*
X111478691Y-79486364D01*
X111478686Y-79486364D01*
X111252002Y-79466532D01*
X111251998Y-79466532D01*
X111025313Y-79486364D01*
X111025302Y-79486366D01*
X110805511Y-79545258D01*
X110805502Y-79545261D01*
X110599267Y-79641431D01*
X110599265Y-79641432D01*
X110412858Y-79771954D01*
X110251954Y-79932858D01*
X110121432Y-80119265D01*
X110121431Y-80119267D01*
X110094382Y-80177275D01*
X110048209Y-80229714D01*
X109981016Y-80248866D01*
X109914135Y-80228650D01*
X109869618Y-80177275D01*
X109842568Y-80119267D01*
X109842567Y-80119265D01*
X109781045Y-80031402D01*
X109712047Y-79932861D01*
X109712045Y-79932858D01*
X109551141Y-79771954D01*
X109364734Y-79641432D01*
X109364732Y-79641431D01*
X109158497Y-79545261D01*
X109158488Y-79545258D01*
X108938697Y-79486366D01*
X108938693Y-79486365D01*
X108938692Y-79486365D01*
X108938691Y-79486364D01*
X108938686Y-79486364D01*
X108712002Y-79466532D01*
X108711998Y-79466532D01*
X108485313Y-79486364D01*
X108485302Y-79486366D01*
X108265511Y-79545258D01*
X108265502Y-79545261D01*
X108059267Y-79641431D01*
X108059265Y-79641432D01*
X107872858Y-79771954D01*
X107711954Y-79932858D01*
X107581432Y-80119265D01*
X107581431Y-80119267D01*
X107554382Y-80177275D01*
X107508209Y-80229714D01*
X107441016Y-80248866D01*
X107374135Y-80228650D01*
X107329618Y-80177275D01*
X107302568Y-80119267D01*
X107302567Y-80119265D01*
X107241045Y-80031402D01*
X107172047Y-79932861D01*
X107172045Y-79932858D01*
X107011141Y-79771954D01*
X106824734Y-79641432D01*
X106824732Y-79641431D01*
X106618497Y-79545261D01*
X106618488Y-79545258D01*
X106398697Y-79486366D01*
X106398693Y-79486365D01*
X106398692Y-79486365D01*
X106398691Y-79486364D01*
X106398686Y-79486364D01*
X106172002Y-79466532D01*
X106171998Y-79466532D01*
X105945313Y-79486364D01*
X105945302Y-79486366D01*
X105725511Y-79545258D01*
X105725502Y-79545261D01*
X105519267Y-79641431D01*
X105519265Y-79641432D01*
X105332858Y-79771954D01*
X105171954Y-79932858D01*
X105041432Y-80119265D01*
X105041431Y-80119267D01*
X105014382Y-80177275D01*
X104968209Y-80229714D01*
X104901016Y-80248866D01*
X104834135Y-80228650D01*
X104789618Y-80177275D01*
X104762568Y-80119267D01*
X104762567Y-80119265D01*
X104701045Y-80031402D01*
X104632047Y-79932861D01*
X104632045Y-79932858D01*
X104471141Y-79771954D01*
X104284734Y-79641432D01*
X104284732Y-79641431D01*
X104078497Y-79545261D01*
X104078488Y-79545258D01*
X103858697Y-79486366D01*
X103858693Y-79486365D01*
X103858692Y-79486365D01*
X103858691Y-79486364D01*
X103858686Y-79486364D01*
X103632002Y-79466532D01*
X103631998Y-79466532D01*
X103405313Y-79486364D01*
X103405302Y-79486366D01*
X103185511Y-79545258D01*
X103185502Y-79545261D01*
X102979267Y-79641431D01*
X102979265Y-79641432D01*
X102792858Y-79771954D01*
X102631954Y-79932858D01*
X102501432Y-80119265D01*
X102501431Y-80119267D01*
X102474382Y-80177275D01*
X102428209Y-80229714D01*
X102361016Y-80248866D01*
X102294135Y-80228650D01*
X102249618Y-80177275D01*
X102222568Y-80119267D01*
X102222567Y-80119265D01*
X102161045Y-80031402D01*
X102092047Y-79932861D01*
X102092045Y-79932858D01*
X101931141Y-79771954D01*
X101744734Y-79641432D01*
X101744732Y-79641431D01*
X101538497Y-79545261D01*
X101538488Y-79545258D01*
X101318697Y-79486366D01*
X101318693Y-79486365D01*
X101318692Y-79486365D01*
X101318691Y-79486364D01*
X101318686Y-79486364D01*
X101092002Y-79466532D01*
X101091998Y-79466532D01*
X100865313Y-79486364D01*
X100865302Y-79486366D01*
X100645511Y-79545258D01*
X100645502Y-79545261D01*
X100439267Y-79641431D01*
X100439265Y-79641432D01*
X100252858Y-79771954D01*
X100091954Y-79932858D01*
X99961432Y-80119265D01*
X99961431Y-80119267D01*
X99934382Y-80177275D01*
X99888209Y-80229714D01*
X99821016Y-80248866D01*
X99754135Y-80228650D01*
X99709618Y-80177275D01*
X99682568Y-80119267D01*
X99682567Y-80119265D01*
X99621045Y-80031402D01*
X99552047Y-79932861D01*
X99552045Y-79932858D01*
X99391141Y-79771954D01*
X99204734Y-79641432D01*
X99204732Y-79641431D01*
X98998497Y-79545261D01*
X98998488Y-79545258D01*
X98778697Y-79486366D01*
X98778693Y-79486365D01*
X98778692Y-79486365D01*
X98778691Y-79486364D01*
X98778686Y-79486364D01*
X98552002Y-79466532D01*
X98551998Y-79466532D01*
X98325313Y-79486364D01*
X98325302Y-79486366D01*
X98105511Y-79545258D01*
X98105502Y-79545261D01*
X97899267Y-79641431D01*
X97899265Y-79641432D01*
X97712858Y-79771954D01*
X97551954Y-79932858D01*
X97421432Y-80119265D01*
X97421431Y-80119267D01*
X97394382Y-80177275D01*
X97348209Y-80229714D01*
X97281016Y-80248866D01*
X97214135Y-80228650D01*
X97169618Y-80177275D01*
X97142568Y-80119267D01*
X97142567Y-80119265D01*
X97081045Y-80031402D01*
X97012047Y-79932861D01*
X97012045Y-79932858D01*
X96851141Y-79771954D01*
X96664734Y-79641432D01*
X96664732Y-79641431D01*
X96458497Y-79545261D01*
X96458488Y-79545258D01*
X96238697Y-79486366D01*
X96238693Y-79486365D01*
X96238692Y-79486365D01*
X96238691Y-79486364D01*
X96238686Y-79486364D01*
X96012002Y-79466532D01*
X96011998Y-79466532D01*
X95785313Y-79486364D01*
X95785302Y-79486366D01*
X95565511Y-79545258D01*
X95565502Y-79545261D01*
X95359267Y-79641431D01*
X95359265Y-79641432D01*
X95172858Y-79771954D01*
X95011954Y-79932858D01*
X94881432Y-80119265D01*
X94881431Y-80119267D01*
X94854382Y-80177275D01*
X94808209Y-80229714D01*
X94741016Y-80248866D01*
X94674135Y-80228650D01*
X94629618Y-80177275D01*
X94602568Y-80119267D01*
X94602567Y-80119265D01*
X94541045Y-80031402D01*
X94472047Y-79932861D01*
X94472045Y-79932858D01*
X94311141Y-79771954D01*
X94124734Y-79641432D01*
X94124732Y-79641431D01*
X93918497Y-79545261D01*
X93918488Y-79545258D01*
X93698697Y-79486366D01*
X93698693Y-79486365D01*
X93698692Y-79486365D01*
X93698691Y-79486364D01*
X93698686Y-79486364D01*
X93472002Y-79466532D01*
X93471998Y-79466532D01*
X93245313Y-79486364D01*
X93245302Y-79486366D01*
X93025511Y-79545258D01*
X93025502Y-79545261D01*
X92819267Y-79641431D01*
X92819265Y-79641432D01*
X92632858Y-79771954D01*
X92471954Y-79932858D01*
X92341432Y-80119265D01*
X92341431Y-80119267D01*
X92314382Y-80177275D01*
X92268209Y-80229714D01*
X92201016Y-80248866D01*
X92134135Y-80228650D01*
X92089618Y-80177275D01*
X92062568Y-80119267D01*
X92062567Y-80119265D01*
X92001045Y-80031402D01*
X91932047Y-79932861D01*
X91932045Y-79932858D01*
X91771141Y-79771954D01*
X91584734Y-79641432D01*
X91584732Y-79641431D01*
X91378497Y-79545261D01*
X91378488Y-79545258D01*
X91158697Y-79486366D01*
X91158693Y-79486365D01*
X91158692Y-79486365D01*
X91158691Y-79486364D01*
X91158686Y-79486364D01*
X90932002Y-79466532D01*
X90931998Y-79466532D01*
X90705313Y-79486364D01*
X90705302Y-79486366D01*
X90485511Y-79545258D01*
X90485502Y-79545261D01*
X90279267Y-79641431D01*
X90279265Y-79641432D01*
X90092858Y-79771954D01*
X89931954Y-79932858D01*
X89801432Y-80119265D01*
X89801431Y-80119267D01*
X89774382Y-80177275D01*
X89728209Y-80229714D01*
X89661016Y-80248866D01*
X89594135Y-80228650D01*
X89549618Y-80177275D01*
X89522568Y-80119267D01*
X89522567Y-80119265D01*
X89461045Y-80031402D01*
X89392047Y-79932861D01*
X89392045Y-79932858D01*
X89231141Y-79771954D01*
X89044734Y-79641432D01*
X89044732Y-79641431D01*
X88838497Y-79545261D01*
X88838488Y-79545258D01*
X88618697Y-79486366D01*
X88618693Y-79486365D01*
X88618692Y-79486365D01*
X88618691Y-79486364D01*
X88618686Y-79486364D01*
X88392002Y-79466532D01*
X88391998Y-79466532D01*
X88165313Y-79486364D01*
X88165302Y-79486366D01*
X87945511Y-79545258D01*
X87945502Y-79545261D01*
X87739267Y-79641431D01*
X87739265Y-79641432D01*
X87552858Y-79771954D01*
X87391954Y-79932858D01*
X87261432Y-80119265D01*
X87261431Y-80119267D01*
X87234382Y-80177275D01*
X87188209Y-80229714D01*
X87121016Y-80248866D01*
X87054135Y-80228650D01*
X87009618Y-80177275D01*
X86982568Y-80119267D01*
X86982567Y-80119265D01*
X86921045Y-80031402D01*
X86852047Y-79932861D01*
X86852045Y-79932858D01*
X86691141Y-79771954D01*
X86504734Y-79641432D01*
X86504732Y-79641431D01*
X86298497Y-79545261D01*
X86298488Y-79545258D01*
X86078697Y-79486366D01*
X86078693Y-79486365D01*
X86078692Y-79486365D01*
X86078691Y-79486364D01*
X86078686Y-79486364D01*
X85852002Y-79466532D01*
X85851998Y-79466532D01*
X85625313Y-79486364D01*
X85625302Y-79486366D01*
X85405511Y-79545258D01*
X85405502Y-79545261D01*
X85199267Y-79641431D01*
X85199265Y-79641432D01*
X85012858Y-79771954D01*
X84851954Y-79932858D01*
X84721432Y-80119265D01*
X84721431Y-80119267D01*
X84694382Y-80177275D01*
X84648209Y-80229714D01*
X84581016Y-80248866D01*
X84514135Y-80228650D01*
X84469618Y-80177275D01*
X84442568Y-80119267D01*
X84442567Y-80119265D01*
X84381045Y-80031402D01*
X84312047Y-79932861D01*
X84312045Y-79932858D01*
X84151141Y-79771954D01*
X83964734Y-79641432D01*
X83964732Y-79641431D01*
X83758497Y-79545261D01*
X83758488Y-79545258D01*
X83538697Y-79486366D01*
X83538693Y-79486365D01*
X83538692Y-79486365D01*
X83538691Y-79486364D01*
X83538686Y-79486364D01*
X83312002Y-79466532D01*
X83311998Y-79466532D01*
X83085313Y-79486364D01*
X83085302Y-79486366D01*
X82865511Y-79545258D01*
X82865502Y-79545261D01*
X82659267Y-79641431D01*
X82659265Y-79641432D01*
X82472858Y-79771954D01*
X82311954Y-79932858D01*
X82181432Y-80119265D01*
X82181431Y-80119267D01*
X82154382Y-80177275D01*
X82108209Y-80229714D01*
X82041016Y-80248866D01*
X81974135Y-80228650D01*
X81929618Y-80177275D01*
X81902568Y-80119267D01*
X81902567Y-80119265D01*
X81841045Y-80031402D01*
X81772047Y-79932861D01*
X81772045Y-79932858D01*
X81611141Y-79771954D01*
X81424735Y-79641433D01*
X81424736Y-79641433D01*
X81424734Y-79641432D01*
X81339801Y-79601827D01*
X81296213Y-79581501D01*
X81243774Y-79535328D01*
X81224623Y-79468134D01*
X81244839Y-79401253D01*
X81271312Y-79372168D01*
X81274254Y-79369820D01*
X81274262Y-79369816D01*
X81401816Y-79242262D01*
X81497789Y-79089522D01*
X81557368Y-78919255D01*
X81567161Y-78832329D01*
X81594226Y-78767918D01*
X81602690Y-78758544D01*
X81714417Y-78646818D01*
X81775740Y-78613334D01*
X81802097Y-78610500D01*
X143047497Y-78610500D01*
X143114536Y-78630185D01*
X143160291Y-78682989D01*
X143170235Y-78752147D01*
X143167272Y-78766593D01*
X143124938Y-78924586D01*
X143124936Y-78924596D01*
X143104341Y-79159999D01*
X143104341Y-79160000D01*
X143124936Y-79395403D01*
X143124938Y-79395413D01*
X143186094Y-79623655D01*
X143186096Y-79623659D01*
X143186097Y-79623663D01*
X143266004Y-79795023D01*
X143285965Y-79837830D01*
X143285967Y-79837834D01*
X143383679Y-79977380D01*
X143421501Y-80031396D01*
X143421506Y-80031402D01*
X143588597Y-80198493D01*
X143588603Y-80198498D01*
X143774158Y-80328425D01*
X143817783Y-80383002D01*
X143824977Y-80452500D01*
X143793454Y-80514855D01*
X143774158Y-80531575D01*
X143588597Y-80661505D01*
X143421505Y-80828597D01*
X143285965Y-81022169D01*
X143285964Y-81022171D01*
X143186098Y-81236335D01*
X143186094Y-81236344D01*
X143124938Y-81464586D01*
X143124936Y-81464596D01*
X143104341Y-81699999D01*
X143104341Y-81700000D01*
X143124936Y-81935403D01*
X143124938Y-81935413D01*
X143159327Y-82063756D01*
X143157664Y-82133606D01*
X143127233Y-82183530D01*
X128163584Y-97147181D01*
X128102261Y-97180666D01*
X128075903Y-97183500D01*
X122379049Y-97183500D01*
X122312010Y-97163815D01*
X122266255Y-97111011D01*
X122256311Y-97041853D01*
X122285336Y-96978297D01*
X122291368Y-96971819D01*
X122412045Y-96851141D01*
X122412047Y-96851139D01*
X122542568Y-96664734D01*
X122638739Y-96458496D01*
X122697635Y-96238692D01*
X122717468Y-96012000D01*
X122697635Y-95785308D01*
X122638739Y-95565504D01*
X122542568Y-95359266D01*
X122412047Y-95172861D01*
X122412045Y-95172858D01*
X122251141Y-95011954D01*
X122064734Y-94881432D01*
X122064732Y-94881431D01*
X121858497Y-94785261D01*
X121858488Y-94785258D01*
X121638697Y-94726366D01*
X121638693Y-94726365D01*
X121638692Y-94726365D01*
X121638691Y-94726364D01*
X121638686Y-94726364D01*
X121412002Y-94706532D01*
X121411998Y-94706532D01*
X121185313Y-94726364D01*
X121185302Y-94726366D01*
X120965511Y-94785258D01*
X120965502Y-94785261D01*
X120759267Y-94881431D01*
X120759265Y-94881432D01*
X120572858Y-95011954D01*
X120411954Y-95172858D01*
X120281432Y-95359265D01*
X120281431Y-95359267D01*
X120254382Y-95417275D01*
X120208209Y-95469714D01*
X120141016Y-95488866D01*
X120074135Y-95468650D01*
X120029618Y-95417275D01*
X120002568Y-95359267D01*
X120002567Y-95359265D01*
X119941045Y-95271402D01*
X119872047Y-95172861D01*
X119872045Y-95172858D01*
X119711141Y-95011954D01*
X119524734Y-94881432D01*
X119524732Y-94881431D01*
X119318497Y-94785261D01*
X119318488Y-94785258D01*
X119098697Y-94726366D01*
X119098693Y-94726365D01*
X119098692Y-94726365D01*
X119098691Y-94726364D01*
X119098686Y-94726364D01*
X118872002Y-94706532D01*
X118871998Y-94706532D01*
X118645313Y-94726364D01*
X118645302Y-94726366D01*
X118425511Y-94785258D01*
X118425502Y-94785261D01*
X118219267Y-94881431D01*
X118219265Y-94881432D01*
X118032858Y-95011954D01*
X117871954Y-95172858D01*
X117741432Y-95359265D01*
X117741431Y-95359267D01*
X117714382Y-95417275D01*
X117668209Y-95469714D01*
X117601016Y-95488866D01*
X117534135Y-95468650D01*
X117489618Y-95417275D01*
X117462568Y-95359267D01*
X117462567Y-95359265D01*
X117401045Y-95271402D01*
X117332047Y-95172861D01*
X117332045Y-95172858D01*
X117171141Y-95011954D01*
X116984734Y-94881432D01*
X116984732Y-94881431D01*
X116778497Y-94785261D01*
X116778488Y-94785258D01*
X116558697Y-94726366D01*
X116558693Y-94726365D01*
X116558692Y-94726365D01*
X116558691Y-94726364D01*
X116558686Y-94726364D01*
X116332002Y-94706532D01*
X116331998Y-94706532D01*
X116105313Y-94726364D01*
X116105302Y-94726366D01*
X115885511Y-94785258D01*
X115885502Y-94785261D01*
X115679267Y-94881431D01*
X115679265Y-94881432D01*
X115492858Y-95011954D01*
X115331954Y-95172858D01*
X115201432Y-95359265D01*
X115201431Y-95359267D01*
X115174382Y-95417275D01*
X115128209Y-95469714D01*
X115061016Y-95488866D01*
X114994135Y-95468650D01*
X114949618Y-95417275D01*
X114922568Y-95359267D01*
X114922567Y-95359265D01*
X114861045Y-95271402D01*
X114792047Y-95172861D01*
X114792045Y-95172858D01*
X114631141Y-95011954D01*
X114444734Y-94881432D01*
X114444732Y-94881431D01*
X114238497Y-94785261D01*
X114238488Y-94785258D01*
X114018697Y-94726366D01*
X114018693Y-94726365D01*
X114018692Y-94726365D01*
X114018691Y-94726364D01*
X114018686Y-94726364D01*
X113792002Y-94706532D01*
X113791998Y-94706532D01*
X113565313Y-94726364D01*
X113565302Y-94726366D01*
X113345511Y-94785258D01*
X113345502Y-94785261D01*
X113139267Y-94881431D01*
X113139265Y-94881432D01*
X112952858Y-95011954D01*
X112791954Y-95172858D01*
X112661432Y-95359265D01*
X112661431Y-95359267D01*
X112634382Y-95417275D01*
X112588209Y-95469714D01*
X112521016Y-95488866D01*
X112454135Y-95468650D01*
X112409618Y-95417275D01*
X112382568Y-95359267D01*
X112382567Y-95359265D01*
X112321045Y-95271402D01*
X112252047Y-95172861D01*
X112252045Y-95172858D01*
X112091141Y-95011954D01*
X111904734Y-94881432D01*
X111904732Y-94881431D01*
X111698497Y-94785261D01*
X111698488Y-94785258D01*
X111478697Y-94726366D01*
X111478693Y-94726365D01*
X111478692Y-94726365D01*
X111478691Y-94726364D01*
X111478686Y-94726364D01*
X111252002Y-94706532D01*
X111251998Y-94706532D01*
X111025313Y-94726364D01*
X111025302Y-94726366D01*
X110805511Y-94785258D01*
X110805502Y-94785261D01*
X110599267Y-94881431D01*
X110599265Y-94881432D01*
X110412858Y-95011954D01*
X110251954Y-95172858D01*
X110121432Y-95359265D01*
X110121431Y-95359267D01*
X110094382Y-95417275D01*
X110048209Y-95469714D01*
X109981016Y-95488866D01*
X109914135Y-95468650D01*
X109869618Y-95417275D01*
X109842568Y-95359267D01*
X109842567Y-95359265D01*
X109781045Y-95271402D01*
X109712047Y-95172861D01*
X109712045Y-95172858D01*
X109551141Y-95011954D01*
X109364734Y-94881432D01*
X109364732Y-94881431D01*
X109158497Y-94785261D01*
X109158488Y-94785258D01*
X108938697Y-94726366D01*
X108938693Y-94726365D01*
X108938692Y-94726365D01*
X108938691Y-94726364D01*
X108938686Y-94726364D01*
X108712002Y-94706532D01*
X108711998Y-94706532D01*
X108485313Y-94726364D01*
X108485302Y-94726366D01*
X108265511Y-94785258D01*
X108265502Y-94785261D01*
X108059267Y-94881431D01*
X108059265Y-94881432D01*
X107872858Y-95011954D01*
X107711954Y-95172858D01*
X107581432Y-95359265D01*
X107581431Y-95359267D01*
X107554382Y-95417275D01*
X107508209Y-95469714D01*
X107441016Y-95488866D01*
X107374135Y-95468650D01*
X107329618Y-95417275D01*
X107302568Y-95359267D01*
X107302567Y-95359265D01*
X107241045Y-95271402D01*
X107172047Y-95172861D01*
X107172045Y-95172858D01*
X107011141Y-95011954D01*
X106822300Y-94879728D01*
X106778675Y-94825152D01*
X106771481Y-94755653D01*
X106803003Y-94693298D01*
X106827446Y-94673162D01*
X106928262Y-94609816D01*
X107055816Y-94482262D01*
X107151789Y-94329522D01*
X107211368Y-94159255D01*
X107231565Y-93980000D01*
X107226646Y-93936344D01*
X107211369Y-93800750D01*
X107211368Y-93800745D01*
X107151788Y-93630476D01*
X107055815Y-93477737D01*
X106928262Y-93350184D01*
X106775523Y-93254211D01*
X106605254Y-93194631D01*
X106605249Y-93194630D01*
X106426004Y-93174435D01*
X106425996Y-93174435D01*
X106246750Y-93194630D01*
X106246745Y-93194631D01*
X106076476Y-93254211D01*
X105923736Y-93350185D01*
X105920903Y-93352445D01*
X105918724Y-93353334D01*
X105917842Y-93353889D01*
X105917744Y-93353734D01*
X105856217Y-93378855D01*
X105843588Y-93379500D01*
X104558124Y-93379500D01*
X104491085Y-93359815D01*
X104445330Y-93307011D01*
X104434904Y-93241615D01*
X104436668Y-93225965D01*
X104437565Y-93218000D01*
X104434932Y-93194632D01*
X104417369Y-93038750D01*
X104417368Y-93038745D01*
X104368292Y-92898495D01*
X104357789Y-92868478D01*
X104261816Y-92715738D01*
X104134262Y-92588184D01*
X103981523Y-92492211D01*
X103811254Y-92432631D01*
X103811249Y-92432630D01*
X103632004Y-92412435D01*
X103631996Y-92412435D01*
X103452750Y-92432630D01*
X103452745Y-92432631D01*
X103282476Y-92492211D01*
X103129736Y-92588185D01*
X103126903Y-92590445D01*
X103124724Y-92591334D01*
X103123842Y-92591889D01*
X103123744Y-92591734D01*
X103062217Y-92616855D01*
X103049588Y-92617500D01*
X60531057Y-92617500D01*
X60372942Y-92617500D01*
X60220215Y-92658423D01*
X60220214Y-92658423D01*
X60220212Y-92658424D01*
X60220209Y-92658425D01*
X60185066Y-92678716D01*
X60185064Y-92678717D01*
X60083290Y-92737475D01*
X60083282Y-92737481D01*
X59971478Y-92849286D01*
X57667584Y-95153181D01*
X57606261Y-95186666D01*
X57579903Y-95189500D01*
X56856603Y-95189500D01*
X56789564Y-95169815D01*
X56743809Y-95117011D01*
X56733865Y-95047853D01*
X56744220Y-95013098D01*
X56813903Y-94863663D01*
X56875063Y-94635408D01*
X56895659Y-94400000D01*
X56875063Y-94164592D01*
X56813903Y-93936337D01*
X56714035Y-93722171D01*
X56708425Y-93714158D01*
X56578494Y-93528597D01*
X56411402Y-93361506D01*
X56411396Y-93361501D01*
X56225842Y-93231575D01*
X56182217Y-93176998D01*
X56175023Y-93107500D01*
X56206546Y-93045145D01*
X56225842Y-93028425D01*
X56248026Y-93012891D01*
X56411401Y-92898495D01*
X56578495Y-92731401D01*
X56714035Y-92537830D01*
X56813903Y-92323663D01*
X56875063Y-92095408D01*
X56895659Y-91860000D01*
X56875063Y-91624592D01*
X56813903Y-91396337D01*
X56714035Y-91182171D01*
X56708425Y-91174158D01*
X56578494Y-90988597D01*
X56411402Y-90821506D01*
X56411396Y-90821501D01*
X56225842Y-90691575D01*
X56182217Y-90636998D01*
X56175023Y-90567500D01*
X56206546Y-90505145D01*
X56225842Y-90488425D01*
X56248026Y-90472891D01*
X56411401Y-90358495D01*
X56578495Y-90191401D01*
X56714035Y-89997830D01*
X56813903Y-89783663D01*
X56875063Y-89555408D01*
X56895659Y-89320000D01*
X56875063Y-89084592D01*
X56813903Y-88856337D01*
X56714035Y-88642171D01*
X56708425Y-88634158D01*
X56578494Y-88448597D01*
X56411402Y-88281506D01*
X56411396Y-88281501D01*
X56225842Y-88151575D01*
X56182217Y-88096998D01*
X56175023Y-88027500D01*
X56206546Y-87965145D01*
X56225842Y-87948425D01*
X56248026Y-87932891D01*
X56411401Y-87818495D01*
X56578495Y-87651401D01*
X56714035Y-87457830D01*
X56716707Y-87452097D01*
X56762878Y-87399658D01*
X56829091Y-87380500D01*
X100837754Y-87380500D01*
X100878709Y-87387459D01*
X100912737Y-87399366D01*
X100912743Y-87399367D01*
X100912745Y-87399368D01*
X100912746Y-87399368D01*
X100912750Y-87399369D01*
X101091996Y-87419565D01*
X101092000Y-87419565D01*
X101092004Y-87419565D01*
X101271249Y-87399369D01*
X101271252Y-87399368D01*
X101271255Y-87399368D01*
X101441522Y-87339789D01*
X101594262Y-87243816D01*
X101721816Y-87116262D01*
X101817789Y-86963522D01*
X101877368Y-86793255D01*
X101877369Y-86793249D01*
X101897565Y-86614003D01*
X101897565Y-86613996D01*
X101877369Y-86434750D01*
X101877367Y-86434742D01*
X101863620Y-86395454D01*
X101860059Y-86325675D01*
X101894788Y-86265048D01*
X101956781Y-86232821D01*
X101980662Y-86230500D01*
X108178282Y-86230500D01*
X108244253Y-86249505D01*
X108362474Y-86323789D01*
X108532741Y-86383368D01*
X108532746Y-86383369D01*
X108711992Y-86403565D01*
X108711996Y-86403565D01*
X108712000Y-86403565D01*
X108891245Y-86383369D01*
X108891248Y-86383368D01*
X108891251Y-86383368D01*
X109061518Y-86323789D01*
X109214258Y-86227816D01*
X109341812Y-86100262D01*
X109437785Y-85947522D01*
X109497364Y-85777255D01*
X109501392Y-85741505D01*
X109517561Y-85598003D01*
X109517561Y-85597996D01*
X109497365Y-85418750D01*
X109497364Y-85418745D01*
X109448288Y-85278495D01*
X109437785Y-85248478D01*
X109341812Y-85095738D01*
X109298255Y-85052181D01*
X109264770Y-84990858D01*
X109269754Y-84921166D01*
X109311626Y-84865233D01*
X109377090Y-84840816D01*
X109385936Y-84840500D01*
X110406378Y-84840500D01*
X110473417Y-84860185D01*
X110519172Y-84912989D01*
X110523420Y-84923547D01*
X110526211Y-84931522D01*
X110622184Y-85084262D01*
X110749738Y-85211816D01*
X110902478Y-85307789D01*
X111072745Y-85367368D01*
X111072750Y-85367369D01*
X111251996Y-85387565D01*
X111252000Y-85387565D01*
X111252004Y-85387565D01*
X111431249Y-85367369D01*
X111431252Y-85367368D01*
X111431255Y-85367368D01*
X111601522Y-85307789D01*
X111754262Y-85211816D01*
X111881816Y-85084262D01*
X111977789Y-84931522D01*
X112037368Y-84761255D01*
X112057565Y-84582000D01*
X112045555Y-84475408D01*
X112037369Y-84402750D01*
X112037368Y-84402745D01*
X111980421Y-84240000D01*
X111977789Y-84232478D01*
X111881816Y-84079738D01*
X111754262Y-83952184D01*
X111601521Y-83856210D01*
X111431249Y-83796630D01*
X111343467Y-83786740D01*
X111285792Y-83763478D01*
X111285755Y-83763544D01*
X111285291Y-83763276D01*
X111281859Y-83761892D01*
X111278716Y-83759480D01*
X111191904Y-83709360D01*
X111191904Y-83709359D01*
X111191900Y-83709358D01*
X111141785Y-83680423D01*
X110989057Y-83639499D01*
X110830943Y-83639499D01*
X110823347Y-83639499D01*
X110823331Y-83639500D01*
X56829091Y-83639500D01*
X56762052Y-83619815D01*
X56716711Y-83567909D01*
X56714037Y-83562175D01*
X56714034Y-83562170D01*
X56714033Y-83562169D01*
X56635843Y-83450501D01*
X56578494Y-83368597D01*
X56411402Y-83201506D01*
X56411396Y-83201501D01*
X56225842Y-83071575D01*
X56182217Y-83016998D01*
X56175023Y-82947500D01*
X56206546Y-82885145D01*
X56225842Y-82868425D01*
X56248026Y-82852891D01*
X56411401Y-82738495D01*
X56578495Y-82571401D01*
X56714035Y-82377830D01*
X56813903Y-82163663D01*
X56875063Y-81935408D01*
X56895659Y-81700000D01*
X56875063Y-81464592D01*
X56813903Y-81236337D01*
X56714035Y-81022171D01*
X56713916Y-81022000D01*
X56578494Y-80828597D01*
X56411402Y-80661506D01*
X56411396Y-80661501D01*
X56225842Y-80531575D01*
X56182217Y-80476998D01*
X56175023Y-80407500D01*
X56206546Y-80345145D01*
X56225842Y-80328425D01*
X56248026Y-80312891D01*
X56411401Y-80198495D01*
X56578495Y-80031401D01*
X56714035Y-79837830D01*
X56813903Y-79623663D01*
X56875063Y-79395408D01*
X56895659Y-79160000D01*
X56875063Y-78924592D01*
X56813903Y-78696337D01*
X56714035Y-78482171D01*
X56708425Y-78474158D01*
X56578494Y-78288597D01*
X56411402Y-78121506D01*
X56411396Y-78121501D01*
X56225842Y-77991575D01*
X56182217Y-77936998D01*
X56175023Y-77867500D01*
X56206546Y-77805145D01*
X56225842Y-77788425D01*
X56248026Y-77772891D01*
X56411401Y-77658495D01*
X56578495Y-77491401D01*
X56714035Y-77297830D01*
X56716707Y-77292097D01*
X56762878Y-77239658D01*
X56829091Y-77220500D01*
X81205678Y-77220500D01*
X81272717Y-77240185D01*
G37*
%TD.AperFunction*%
%TA.AperFunction,Conductor*%
G36*
X148942539Y-67020185D02*
G01*
X148988294Y-67072989D01*
X148999500Y-67124500D01*
X148999500Y-111375500D01*
X148979815Y-111442539D01*
X148927011Y-111488294D01*
X148875500Y-111499500D01*
X51124500Y-111499500D01*
X51057461Y-111479815D01*
X51011706Y-111427011D01*
X51000500Y-111375500D01*
X51000500Y-68999999D01*
X51644341Y-68999999D01*
X51644341Y-69000000D01*
X51664936Y-69235403D01*
X51664938Y-69235413D01*
X51726094Y-69463655D01*
X51726096Y-69463659D01*
X51726097Y-69463663D01*
X51825965Y-69677830D01*
X51825967Y-69677834D01*
X51961501Y-69871395D01*
X51961506Y-69871402D01*
X52128597Y-70038493D01*
X52128603Y-70038498D01*
X52314158Y-70168425D01*
X52357783Y-70223002D01*
X52364977Y-70292500D01*
X52333454Y-70354855D01*
X52314158Y-70371575D01*
X52128597Y-70501505D01*
X51961505Y-70668597D01*
X51825965Y-70862169D01*
X51825964Y-70862171D01*
X51726098Y-71076335D01*
X51726094Y-71076344D01*
X51664938Y-71304586D01*
X51664936Y-71304596D01*
X51644341Y-71539999D01*
X51644341Y-71540000D01*
X51664936Y-71775403D01*
X51664938Y-71775413D01*
X51726094Y-72003655D01*
X51726096Y-72003659D01*
X51726097Y-72003663D01*
X51791227Y-72143334D01*
X51825965Y-72217830D01*
X51825967Y-72217834D01*
X51910402Y-72338419D01*
X51961501Y-72411396D01*
X51961506Y-72411402D01*
X52128597Y-72578493D01*
X52128603Y-72578498D01*
X52314158Y-72708425D01*
X52357783Y-72763002D01*
X52364977Y-72832500D01*
X52333454Y-72894855D01*
X52314158Y-72911575D01*
X52128597Y-73041505D01*
X51961505Y-73208597D01*
X51825965Y-73402169D01*
X51825964Y-73402171D01*
X51726098Y-73616335D01*
X51726094Y-73616344D01*
X51664938Y-73844586D01*
X51664936Y-73844596D01*
X51644341Y-74079999D01*
X51644341Y-74080000D01*
X51664936Y-74315403D01*
X51664938Y-74315413D01*
X51726094Y-74543655D01*
X51726096Y-74543659D01*
X51726097Y-74543663D01*
X51787810Y-74676007D01*
X51825965Y-74757830D01*
X51825967Y-74757834D01*
X51894188Y-74855263D01*
X51961501Y-74951396D01*
X51961506Y-74951402D01*
X52128597Y-75118493D01*
X52128603Y-75118498D01*
X52314158Y-75248425D01*
X52357783Y-75303002D01*
X52364977Y-75372500D01*
X52333454Y-75434855D01*
X52314158Y-75451575D01*
X52128597Y-75581505D01*
X51961505Y-75748597D01*
X51825965Y-75942169D01*
X51825964Y-75942171D01*
X51726098Y-76156335D01*
X51726094Y-76156344D01*
X51664938Y-76384586D01*
X51664936Y-76384596D01*
X51644341Y-76619999D01*
X51644341Y-76620000D01*
X51664936Y-76855403D01*
X51664938Y-76855413D01*
X51726094Y-77083655D01*
X51726096Y-77083659D01*
X51726097Y-77083663D01*
X51820703Y-77286546D01*
X51825965Y-77297830D01*
X51825967Y-77297834D01*
X51904157Y-77409500D01*
X51961501Y-77491396D01*
X51961506Y-77491402D01*
X52128597Y-77658493D01*
X52128603Y-77658498D01*
X52314158Y-77788425D01*
X52357783Y-77843002D01*
X52364977Y-77912500D01*
X52333454Y-77974855D01*
X52314158Y-77991575D01*
X52128597Y-78121505D01*
X51961505Y-78288597D01*
X51825965Y-78482169D01*
X51825964Y-78482171D01*
X51726098Y-78696335D01*
X51726094Y-78696344D01*
X51664938Y-78924586D01*
X51664936Y-78924596D01*
X51644341Y-79159999D01*
X51644341Y-79160000D01*
X51664936Y-79395403D01*
X51664938Y-79395413D01*
X51726094Y-79623655D01*
X51726096Y-79623659D01*
X51726097Y-79623663D01*
X51806004Y-79795023D01*
X51825965Y-79837830D01*
X51825967Y-79837834D01*
X51923679Y-79977380D01*
X51961501Y-80031396D01*
X51961506Y-80031402D01*
X52128597Y-80198493D01*
X52128603Y-80198498D01*
X52314158Y-80328425D01*
X52357783Y-80383002D01*
X52364977Y-80452500D01*
X52333454Y-80514855D01*
X52314158Y-80531575D01*
X52128597Y-80661505D01*
X51961505Y-80828597D01*
X51825965Y-81022169D01*
X51825964Y-81022171D01*
X51726098Y-81236335D01*
X51726094Y-81236344D01*
X51664938Y-81464586D01*
X51664936Y-81464596D01*
X51644341Y-81699999D01*
X51644341Y-81700000D01*
X51664936Y-81935403D01*
X51664938Y-81935413D01*
X51726094Y-82163655D01*
X51726096Y-82163659D01*
X51726097Y-82163663D01*
X51806004Y-82335023D01*
X51825965Y-82377830D01*
X51825967Y-82377834D01*
X51934281Y-82532521D01*
X51961501Y-82571396D01*
X51961506Y-82571402D01*
X52128597Y-82738493D01*
X52128603Y-82738498D01*
X52314158Y-82868425D01*
X52357783Y-82923002D01*
X52364977Y-82992500D01*
X52333454Y-83054855D01*
X52314158Y-83071575D01*
X52128597Y-83201505D01*
X51961505Y-83368597D01*
X51825965Y-83562169D01*
X51825964Y-83562171D01*
X51726098Y-83776335D01*
X51726094Y-83776344D01*
X51664938Y-84004586D01*
X51664936Y-84004596D01*
X51644341Y-84239999D01*
X51644341Y-84240000D01*
X51664936Y-84475403D01*
X51664938Y-84475413D01*
X51726094Y-84703655D01*
X51726096Y-84703659D01*
X51726097Y-84703663D01*
X51823708Y-84912989D01*
X51825965Y-84917830D01*
X51825967Y-84917834D01*
X51961501Y-85111395D01*
X51961506Y-85111402D01*
X52128597Y-85278493D01*
X52128603Y-85278498D01*
X52314158Y-85408425D01*
X52357783Y-85463002D01*
X52364977Y-85532500D01*
X52333454Y-85594855D01*
X52314158Y-85611575D01*
X52128597Y-85741505D01*
X51961505Y-85908597D01*
X51825965Y-86102169D01*
X51825964Y-86102171D01*
X51726098Y-86316335D01*
X51726094Y-86316344D01*
X51664938Y-86544586D01*
X51664936Y-86544596D01*
X51644341Y-86779999D01*
X51644341Y-86780000D01*
X51664936Y-87015403D01*
X51664938Y-87015413D01*
X51726094Y-87243655D01*
X51726096Y-87243659D01*
X51726097Y-87243663D01*
X51798703Y-87399366D01*
X51825965Y-87457830D01*
X51825967Y-87457834D01*
X51934281Y-87612521D01*
X51961501Y-87651396D01*
X51961506Y-87651402D01*
X52128597Y-87818493D01*
X52128603Y-87818498D01*
X52314158Y-87948425D01*
X52357783Y-88003002D01*
X52364977Y-88072500D01*
X52333454Y-88134855D01*
X52314158Y-88151575D01*
X52128597Y-88281505D01*
X51961505Y-88448597D01*
X51825965Y-88642169D01*
X51825964Y-88642171D01*
X51726098Y-88856335D01*
X51726094Y-88856344D01*
X51664938Y-89084586D01*
X51664936Y-89084596D01*
X51644341Y-89319999D01*
X51644341Y-89320000D01*
X51664936Y-89555403D01*
X51664938Y-89555413D01*
X51726094Y-89783655D01*
X51726096Y-89783659D01*
X51726097Y-89783663D01*
X51730000Y-89792032D01*
X51825965Y-89997830D01*
X51825967Y-89997834D01*
X51934281Y-90152521D01*
X51961501Y-90191396D01*
X51961506Y-90191402D01*
X52128597Y-90358493D01*
X52128603Y-90358498D01*
X52314158Y-90488425D01*
X52357783Y-90543002D01*
X52364977Y-90612500D01*
X52333454Y-90674855D01*
X52314158Y-90691575D01*
X52128597Y-90821505D01*
X51961505Y-90988597D01*
X51825965Y-91182169D01*
X51825964Y-91182171D01*
X51726098Y-91396335D01*
X51726094Y-91396344D01*
X51664938Y-91624586D01*
X51664936Y-91624596D01*
X51644341Y-91859999D01*
X51644341Y-91860000D01*
X51664936Y-92095403D01*
X51664938Y-92095413D01*
X51726094Y-92323655D01*
X51726096Y-92323659D01*
X51726097Y-92323663D01*
X51806004Y-92495023D01*
X51825965Y-92537830D01*
X51825967Y-92537834D01*
X51924615Y-92678717D01*
X51961501Y-92731396D01*
X51961506Y-92731402D01*
X52128597Y-92898493D01*
X52128603Y-92898498D01*
X52314158Y-93028425D01*
X52357783Y-93083002D01*
X52364977Y-93152500D01*
X52333454Y-93214855D01*
X52314158Y-93231575D01*
X52128597Y-93361505D01*
X51961505Y-93528597D01*
X51825965Y-93722169D01*
X51825964Y-93722171D01*
X51726098Y-93936335D01*
X51726094Y-93936344D01*
X51664938Y-94164586D01*
X51664936Y-94164596D01*
X51644341Y-94399999D01*
X51644341Y-94400000D01*
X51664936Y-94635403D01*
X51664938Y-94635413D01*
X51726094Y-94863655D01*
X51726096Y-94863659D01*
X51726097Y-94863663D01*
X51825965Y-95077830D01*
X51825967Y-95077834D01*
X51961501Y-95271395D01*
X51961506Y-95271402D01*
X52128597Y-95438493D01*
X52128603Y-95438498D01*
X52314158Y-95568425D01*
X52357783Y-95623002D01*
X52364977Y-95692500D01*
X52333454Y-95754855D01*
X52314158Y-95771575D01*
X52128597Y-95901505D01*
X51961505Y-96068597D01*
X51825965Y-96262169D01*
X51825964Y-96262171D01*
X51726098Y-96476335D01*
X51726094Y-96476344D01*
X51664938Y-96704586D01*
X51664936Y-96704596D01*
X51644341Y-96939999D01*
X51644341Y-96940000D01*
X51664936Y-97175403D01*
X51664938Y-97175413D01*
X51726094Y-97403655D01*
X51726096Y-97403659D01*
X51726097Y-97403663D01*
X51798839Y-97559658D01*
X51825965Y-97617830D01*
X51825967Y-97617834D01*
X51961501Y-97811395D01*
X51961506Y-97811402D01*
X52128597Y-97978493D01*
X52128603Y-97978498D01*
X52314158Y-98108425D01*
X52357783Y-98163002D01*
X52364977Y-98232500D01*
X52333454Y-98294855D01*
X52314158Y-98311575D01*
X52128597Y-98441505D01*
X51961505Y-98608597D01*
X51825965Y-98802169D01*
X51825964Y-98802171D01*
X51726098Y-99016335D01*
X51726094Y-99016344D01*
X51664938Y-99244586D01*
X51664936Y-99244596D01*
X51644341Y-99479999D01*
X51644341Y-99480000D01*
X51664936Y-99715403D01*
X51664938Y-99715413D01*
X51726094Y-99943655D01*
X51726096Y-99943659D01*
X51726097Y-99943663D01*
X51825965Y-100157830D01*
X51825967Y-100157834D01*
X51961501Y-100351395D01*
X51961506Y-100351402D01*
X52128597Y-100518493D01*
X52128603Y-100518498D01*
X52314158Y-100648425D01*
X52357783Y-100703002D01*
X52364977Y-100772500D01*
X52333454Y-100834855D01*
X52314158Y-100851575D01*
X52128597Y-100981505D01*
X51961505Y-101148597D01*
X51825965Y-101342169D01*
X51825964Y-101342171D01*
X51726098Y-101556335D01*
X51726094Y-101556344D01*
X51664938Y-101784586D01*
X51664936Y-101784596D01*
X51644341Y-102019999D01*
X51644341Y-102020000D01*
X51664936Y-102255403D01*
X51664938Y-102255413D01*
X51726094Y-102483655D01*
X51726096Y-102483659D01*
X51726097Y-102483663D01*
X51825965Y-102697830D01*
X51825967Y-102697834D01*
X51961501Y-102891395D01*
X51961506Y-102891402D01*
X52128597Y-103058493D01*
X52128603Y-103058498D01*
X52314158Y-103188425D01*
X52357783Y-103243002D01*
X52364977Y-103312500D01*
X52333454Y-103374855D01*
X52314158Y-103391575D01*
X52128597Y-103521505D01*
X51961505Y-103688597D01*
X51825965Y-103882169D01*
X51825964Y-103882171D01*
X51726098Y-104096335D01*
X51726094Y-104096344D01*
X51664938Y-104324586D01*
X51664936Y-104324596D01*
X51644341Y-104559999D01*
X51644341Y-104560000D01*
X51664936Y-104795403D01*
X51664938Y-104795413D01*
X51726094Y-105023655D01*
X51726096Y-105023659D01*
X51726097Y-105023663D01*
X51810889Y-105205500D01*
X51825965Y-105237830D01*
X51825967Y-105237834D01*
X51961501Y-105431395D01*
X51961506Y-105431402D01*
X52128597Y-105598493D01*
X52128603Y-105598498D01*
X52314158Y-105728425D01*
X52357783Y-105783002D01*
X52364977Y-105852500D01*
X52333454Y-105914855D01*
X52314158Y-105931575D01*
X52128597Y-106061505D01*
X51961505Y-106228597D01*
X51825965Y-106422169D01*
X51825964Y-106422171D01*
X51726098Y-106636335D01*
X51726094Y-106636344D01*
X51664938Y-106864586D01*
X51664936Y-106864596D01*
X51644341Y-107099999D01*
X51644341Y-107100000D01*
X51664936Y-107335403D01*
X51664938Y-107335413D01*
X51726094Y-107563655D01*
X51726096Y-107563659D01*
X51726097Y-107563663D01*
X51820703Y-107766546D01*
X51825965Y-107777830D01*
X51825967Y-107777834D01*
X51900890Y-107884834D01*
X51961501Y-107971396D01*
X51961506Y-107971402D01*
X52083818Y-108093714D01*
X52117303Y-108155037D01*
X52112319Y-108224729D01*
X52070447Y-108280662D01*
X52039471Y-108297577D01*
X51907912Y-108346646D01*
X51907906Y-108346649D01*
X51792812Y-108432809D01*
X51792809Y-108432812D01*
X51706649Y-108547906D01*
X51706645Y-108547913D01*
X51656403Y-108682620D01*
X51656401Y-108682627D01*
X51650000Y-108742155D01*
X51650000Y-109390000D01*
X52566988Y-109390000D01*
X52534075Y-109447007D01*
X52500000Y-109574174D01*
X52500000Y-109705826D01*
X52534075Y-109832993D01*
X52566988Y-109890000D01*
X51650000Y-109890000D01*
X51650000Y-110537844D01*
X51656401Y-110597372D01*
X51656403Y-110597379D01*
X51706645Y-110732086D01*
X51706649Y-110732093D01*
X51792809Y-110847187D01*
X51792812Y-110847190D01*
X51907906Y-110933350D01*
X51907913Y-110933354D01*
X52042620Y-110983596D01*
X52042627Y-110983598D01*
X52102155Y-110989999D01*
X52102172Y-110990000D01*
X52750000Y-110990000D01*
X52750000Y-110073012D01*
X52807007Y-110105925D01*
X52934174Y-110140000D01*
X53065826Y-110140000D01*
X53192993Y-110105925D01*
X53250000Y-110073012D01*
X53250000Y-110990000D01*
X53897828Y-110990000D01*
X53897844Y-110989999D01*
X53957372Y-110983598D01*
X53957379Y-110983596D01*
X54092086Y-110933354D01*
X54092093Y-110933350D01*
X54207187Y-110847190D01*
X54207190Y-110847187D01*
X54293350Y-110732093D01*
X54293354Y-110732086D01*
X54342614Y-110600013D01*
X54384485Y-110544079D01*
X54449949Y-110519662D01*
X54518222Y-110534513D01*
X54546477Y-110555665D01*
X54668917Y-110678105D01*
X54862421Y-110813600D01*
X55076507Y-110913429D01*
X55076516Y-110913433D01*
X55290000Y-110970634D01*
X55290000Y-110073012D01*
X55347007Y-110105925D01*
X55474174Y-110140000D01*
X55605826Y-110140000D01*
X55732993Y-110105925D01*
X55790000Y-110073012D01*
X55790000Y-110970633D01*
X56003483Y-110913433D01*
X56003492Y-110913429D01*
X56217578Y-110813600D01*
X56411082Y-110678105D01*
X56578105Y-110511082D01*
X56713600Y-110317578D01*
X56813429Y-110103492D01*
X56813432Y-110103486D01*
X56870636Y-109890000D01*
X55973012Y-109890000D01*
X56005925Y-109832993D01*
X56040000Y-109705826D01*
X56040000Y-109574174D01*
X56005925Y-109447007D01*
X55973012Y-109390000D01*
X56870636Y-109390000D01*
X56870636Y-109389999D01*
X56852575Y-109322593D01*
X56854238Y-109252743D01*
X56893401Y-109194881D01*
X56957629Y-109167377D01*
X56972350Y-109166500D01*
X81386325Y-109166500D01*
X81453364Y-109186185D01*
X81499119Y-109238989D01*
X81509545Y-109304383D01*
X81490435Y-109473996D01*
X81490435Y-109474003D01*
X81510630Y-109653249D01*
X81510631Y-109653254D01*
X81570211Y-109823523D01*
X81666184Y-109976262D01*
X81793738Y-110103816D01*
X81946478Y-110199789D01*
X82116745Y-110259368D01*
X82116750Y-110259369D01*
X82295996Y-110279565D01*
X82296000Y-110279565D01*
X82296004Y-110279565D01*
X82475249Y-110259369D01*
X82475252Y-110259368D01*
X82475255Y-110259368D01*
X82645522Y-110199789D01*
X82798262Y-110103816D01*
X82921260Y-109980818D01*
X82982583Y-109947334D01*
X83008941Y-109944500D01*
X84717094Y-109944500D01*
X84784133Y-109964185D01*
X84829888Y-110016989D01*
X84840314Y-110054616D01*
X84853680Y-110173250D01*
X84853681Y-110173254D01*
X84913261Y-110343523D01*
X84969846Y-110433577D01*
X85009234Y-110496262D01*
X85136788Y-110623816D01*
X85289528Y-110719789D01*
X85324671Y-110732086D01*
X85459795Y-110779368D01*
X85459800Y-110779369D01*
X85639046Y-110799565D01*
X85639050Y-110799565D01*
X85639054Y-110799565D01*
X85818299Y-110779369D01*
X85818302Y-110779368D01*
X85818305Y-110779368D01*
X85988572Y-110719789D01*
X86141312Y-110623816D01*
X86254309Y-110510819D01*
X86315632Y-110477334D01*
X86341990Y-110474500D01*
X138509017Y-110474500D01*
X138509033Y-110474501D01*
X138516629Y-110474501D01*
X138674740Y-110474501D01*
X138674743Y-110474501D01*
X138827471Y-110433577D01*
X138877590Y-110404639D01*
X138964402Y-110354520D01*
X139076206Y-110242716D01*
X139076206Y-110242714D01*
X139086414Y-110232507D01*
X139086415Y-110232504D01*
X140224102Y-109094819D01*
X140285425Y-109061334D01*
X140311783Y-109058500D01*
X143056589Y-109058500D01*
X143123628Y-109078185D01*
X143169383Y-109130989D01*
X143179327Y-109200147D01*
X143176364Y-109214594D01*
X143129364Y-109389999D01*
X143129364Y-109390000D01*
X144026988Y-109390000D01*
X143994075Y-109447007D01*
X143960000Y-109574174D01*
X143960000Y-109705826D01*
X143994075Y-109832993D01*
X144026988Y-109890000D01*
X143129364Y-109890000D01*
X143186567Y-110103486D01*
X143186570Y-110103492D01*
X143286399Y-110317578D01*
X143421894Y-110511082D01*
X143588917Y-110678105D01*
X143782421Y-110813600D01*
X143996507Y-110913429D01*
X143996516Y-110913433D01*
X144210000Y-110970634D01*
X144210000Y-110073012D01*
X144267007Y-110105925D01*
X144394174Y-110140000D01*
X144525826Y-110140000D01*
X144652993Y-110105925D01*
X144710000Y-110073012D01*
X144710000Y-110970633D01*
X144923483Y-110913433D01*
X144923492Y-110913429D01*
X145137578Y-110813600D01*
X145331082Y-110678105D01*
X145498105Y-110511082D01*
X145628425Y-110324968D01*
X145683002Y-110281344D01*
X145752501Y-110274151D01*
X145814855Y-110305673D01*
X145831575Y-110324968D01*
X145961894Y-110511082D01*
X146128917Y-110678105D01*
X146322421Y-110813600D01*
X146536507Y-110913429D01*
X146536516Y-110913433D01*
X146750000Y-110970634D01*
X146750000Y-110073012D01*
X146807007Y-110105925D01*
X146934174Y-110140000D01*
X147065826Y-110140000D01*
X147192993Y-110105925D01*
X147250000Y-110073012D01*
X147250000Y-110970633D01*
X147463483Y-110913433D01*
X147463492Y-110913429D01*
X147677578Y-110813600D01*
X147871082Y-110678105D01*
X148038105Y-110511082D01*
X148173600Y-110317578D01*
X148273429Y-110103492D01*
X148273432Y-110103486D01*
X148330636Y-109890000D01*
X147433012Y-109890000D01*
X147465925Y-109832993D01*
X147500000Y-109705826D01*
X147500000Y-109574174D01*
X147465925Y-109447007D01*
X147433012Y-109390000D01*
X148330636Y-109390000D01*
X148330635Y-109389999D01*
X148273432Y-109176513D01*
X148273429Y-109176507D01*
X148173600Y-108962422D01*
X148173599Y-108962420D01*
X148038113Y-108768926D01*
X148038108Y-108768920D01*
X147871078Y-108601890D01*
X147685405Y-108471879D01*
X147641780Y-108417302D01*
X147634588Y-108347804D01*
X147666110Y-108285449D01*
X147685406Y-108268730D01*
X147748246Y-108224729D01*
X147871401Y-108138495D01*
X148038495Y-107971401D01*
X148174035Y-107777830D01*
X148273903Y-107563663D01*
X148335063Y-107335408D01*
X148355659Y-107100000D01*
X148335063Y-106864592D01*
X148273903Y-106636337D01*
X148174035Y-106422171D01*
X148124384Y-106351261D01*
X148038494Y-106228597D01*
X147871402Y-106061506D01*
X147871396Y-106061501D01*
X147685842Y-105931575D01*
X147642217Y-105876998D01*
X147635023Y-105807500D01*
X147666546Y-105745145D01*
X147685842Y-105728425D01*
X147769648Y-105669743D01*
X147871401Y-105598495D01*
X148038495Y-105431401D01*
X148174035Y-105237830D01*
X148273903Y-105023663D01*
X148335063Y-104795408D01*
X148355659Y-104560000D01*
X148335063Y-104324592D01*
X148273903Y-104096337D01*
X148174035Y-103882171D01*
X148121274Y-103806819D01*
X148038494Y-103688597D01*
X147871402Y-103521506D01*
X147871396Y-103521501D01*
X147685842Y-103391575D01*
X147642217Y-103336998D01*
X147635023Y-103267500D01*
X147666546Y-103205145D01*
X147685842Y-103188425D01*
X147787437Y-103117287D01*
X147871401Y-103058495D01*
X148038495Y-102891401D01*
X148174035Y-102697830D01*
X148273903Y-102483663D01*
X148335063Y-102255408D01*
X148355659Y-102020000D01*
X148335063Y-101784592D01*
X148273903Y-101556337D01*
X148174035Y-101342171D01*
X148121274Y-101266819D01*
X148038494Y-101148597D01*
X147871402Y-100981506D01*
X147871396Y-100981501D01*
X147685842Y-100851575D01*
X147642217Y-100796998D01*
X147635023Y-100727500D01*
X147666546Y-100665145D01*
X147685842Y-100648425D01*
X147749546Y-100603819D01*
X147871401Y-100518495D01*
X148038495Y-100351401D01*
X148174035Y-100157830D01*
X148273903Y-99943663D01*
X148335063Y-99715408D01*
X148355659Y-99480000D01*
X148335063Y-99244592D01*
X148273903Y-99016337D01*
X148174035Y-98802171D01*
X148160962Y-98783500D01*
X148038494Y-98608597D01*
X147871402Y-98441506D01*
X147871396Y-98441501D01*
X147685842Y-98311575D01*
X147642217Y-98256998D01*
X147635023Y-98187500D01*
X147666546Y-98125145D01*
X147685842Y-98108425D01*
X147708026Y-98092891D01*
X147871401Y-97978495D01*
X148038495Y-97811401D01*
X148174035Y-97617830D01*
X148273903Y-97403663D01*
X148335063Y-97175408D01*
X148355659Y-96940000D01*
X148335063Y-96704592D01*
X148273903Y-96476337D01*
X148174035Y-96262171D01*
X148157599Y-96238697D01*
X148038494Y-96068597D01*
X147871402Y-95901506D01*
X147871396Y-95901501D01*
X147685842Y-95771575D01*
X147642217Y-95716998D01*
X147635023Y-95647500D01*
X147666546Y-95585145D01*
X147685842Y-95568425D01*
X147708026Y-95552891D01*
X147871401Y-95438495D01*
X148038495Y-95271401D01*
X148174035Y-95077830D01*
X148273903Y-94863663D01*
X148335063Y-94635408D01*
X148355659Y-94400000D01*
X148335063Y-94164592D01*
X148273903Y-93936337D01*
X148174035Y-93722171D01*
X148168425Y-93714158D01*
X148038494Y-93528597D01*
X147871402Y-93361506D01*
X147871396Y-93361501D01*
X147685842Y-93231575D01*
X147642217Y-93176998D01*
X147635023Y-93107500D01*
X147666546Y-93045145D01*
X147685842Y-93028425D01*
X147708026Y-93012891D01*
X147871401Y-92898495D01*
X148038495Y-92731401D01*
X148174035Y-92537830D01*
X148273903Y-92323663D01*
X148335063Y-92095408D01*
X148355659Y-91860000D01*
X148335063Y-91624592D01*
X148273903Y-91396337D01*
X148174035Y-91182171D01*
X148168425Y-91174158D01*
X148038494Y-90988597D01*
X147871402Y-90821506D01*
X147871396Y-90821501D01*
X147685842Y-90691575D01*
X147642217Y-90636998D01*
X147635023Y-90567500D01*
X147666546Y-90505145D01*
X147685842Y-90488425D01*
X147708026Y-90472891D01*
X147871401Y-90358495D01*
X148038495Y-90191401D01*
X148174035Y-89997830D01*
X148273903Y-89783663D01*
X148335063Y-89555408D01*
X148355659Y-89320000D01*
X148335063Y-89084592D01*
X148273903Y-88856337D01*
X148174035Y-88642171D01*
X148168425Y-88634158D01*
X148038494Y-88448597D01*
X147871402Y-88281506D01*
X147871396Y-88281501D01*
X147685842Y-88151575D01*
X147642217Y-88096998D01*
X147635023Y-88027500D01*
X147666546Y-87965145D01*
X147685842Y-87948425D01*
X147708026Y-87932891D01*
X147871401Y-87818495D01*
X148038495Y-87651401D01*
X148174035Y-87457830D01*
X148273903Y-87243663D01*
X148335063Y-87015408D01*
X148355659Y-86780000D01*
X148335063Y-86544592D01*
X148275900Y-86323789D01*
X148273905Y-86316344D01*
X148273904Y-86316343D01*
X148273903Y-86316337D01*
X148174035Y-86102171D01*
X148172699Y-86100262D01*
X148038494Y-85908597D01*
X147871402Y-85741506D01*
X147871396Y-85741501D01*
X147685842Y-85611575D01*
X147642217Y-85556998D01*
X147635023Y-85487500D01*
X147666546Y-85425145D01*
X147685842Y-85408425D01*
X147744477Y-85367368D01*
X147871401Y-85278495D01*
X148038495Y-85111401D01*
X148174035Y-84917830D01*
X148273903Y-84703663D01*
X148335063Y-84475408D01*
X148355659Y-84240000D01*
X148335063Y-84004592D01*
X148279341Y-83796632D01*
X148273905Y-83776344D01*
X148273904Y-83776343D01*
X148273903Y-83776337D01*
X148174035Y-83562171D01*
X148174034Y-83562169D01*
X148038494Y-83368597D01*
X147871402Y-83201506D01*
X147871396Y-83201501D01*
X147685842Y-83071575D01*
X147642217Y-83016998D01*
X147635023Y-82947500D01*
X147666546Y-82885145D01*
X147685842Y-82868425D01*
X147708026Y-82852891D01*
X147871401Y-82738495D01*
X148038495Y-82571401D01*
X148174035Y-82377830D01*
X148273903Y-82163663D01*
X148335063Y-81935408D01*
X148355659Y-81700000D01*
X148335063Y-81464592D01*
X148273903Y-81236337D01*
X148174035Y-81022171D01*
X148173916Y-81022000D01*
X148038494Y-80828597D01*
X147871402Y-80661506D01*
X147871396Y-80661501D01*
X147685842Y-80531575D01*
X147642217Y-80476998D01*
X147635023Y-80407500D01*
X147666546Y-80345145D01*
X147685842Y-80328425D01*
X147708026Y-80312891D01*
X147871401Y-80198495D01*
X148038495Y-80031401D01*
X148174035Y-79837830D01*
X148273903Y-79623663D01*
X148335063Y-79395408D01*
X148355659Y-79160000D01*
X148335063Y-78924592D01*
X148273903Y-78696337D01*
X148174035Y-78482171D01*
X148168425Y-78474158D01*
X148038494Y-78288597D01*
X147871402Y-78121506D01*
X147871396Y-78121501D01*
X147685842Y-77991575D01*
X147642217Y-77936998D01*
X147635023Y-77867500D01*
X147666546Y-77805145D01*
X147685842Y-77788425D01*
X147708026Y-77772891D01*
X147871401Y-77658495D01*
X148038495Y-77491401D01*
X148174035Y-77297830D01*
X148273903Y-77083663D01*
X148335063Y-76855408D01*
X148355659Y-76620000D01*
X148335063Y-76384592D01*
X148273903Y-76156337D01*
X148174035Y-75942171D01*
X148174034Y-75942169D01*
X148038494Y-75748597D01*
X147871402Y-75581506D01*
X147871396Y-75581501D01*
X147685842Y-75451575D01*
X147642217Y-75396998D01*
X147635023Y-75327500D01*
X147666546Y-75265145D01*
X147685842Y-75248425D01*
X147786045Y-75178262D01*
X147871401Y-75118495D01*
X148038495Y-74951401D01*
X148174035Y-74757830D01*
X148273903Y-74543663D01*
X148335063Y-74315408D01*
X148355659Y-74080000D01*
X148335063Y-73844592D01*
X148288626Y-73671285D01*
X148273905Y-73616344D01*
X148273904Y-73616343D01*
X148273903Y-73616337D01*
X148174035Y-73402171D01*
X148168425Y-73394158D01*
X148038494Y-73208597D01*
X147871402Y-73041506D01*
X147871396Y-73041501D01*
X147685842Y-72911575D01*
X147642217Y-72856998D01*
X147635023Y-72787500D01*
X147666546Y-72725145D01*
X147685842Y-72708425D01*
X147811226Y-72620630D01*
X147871401Y-72578495D01*
X148038495Y-72411401D01*
X148174035Y-72217830D01*
X148273903Y-72003663D01*
X148335063Y-71775408D01*
X148355659Y-71540000D01*
X148335063Y-71304592D01*
X148273903Y-71076337D01*
X148174035Y-70862171D01*
X148168424Y-70854158D01*
X148038496Y-70668600D01*
X148038493Y-70668597D01*
X147916567Y-70546671D01*
X147883084Y-70485351D01*
X147888068Y-70415659D01*
X147929939Y-70359725D01*
X147960915Y-70342810D01*
X148092331Y-70293796D01*
X148207546Y-70207546D01*
X148293796Y-70092331D01*
X148344091Y-69957483D01*
X148350500Y-69897873D01*
X148350499Y-68102128D01*
X148344091Y-68042517D01*
X148342810Y-68039083D01*
X148293797Y-67907671D01*
X148293793Y-67907664D01*
X148207547Y-67792455D01*
X148207544Y-67792452D01*
X148092335Y-67706206D01*
X148092328Y-67706202D01*
X147957482Y-67655908D01*
X147957483Y-67655908D01*
X147897883Y-67649501D01*
X147897881Y-67649500D01*
X147897873Y-67649500D01*
X147897864Y-67649500D01*
X146102129Y-67649500D01*
X146102123Y-67649501D01*
X146042516Y-67655908D01*
X145907671Y-67706202D01*
X145907664Y-67706206D01*
X145792455Y-67792452D01*
X145792452Y-67792455D01*
X145706206Y-67907664D01*
X145706203Y-67907669D01*
X145657189Y-68039083D01*
X145615317Y-68095016D01*
X145549853Y-68119433D01*
X145481580Y-68104581D01*
X145453326Y-68083430D01*
X145331402Y-67961506D01*
X145331395Y-67961501D01*
X145137834Y-67825967D01*
X145137830Y-67825965D01*
X145137828Y-67825964D01*
X144923663Y-67726097D01*
X144923659Y-67726096D01*
X144923655Y-67726094D01*
X144695413Y-67664938D01*
X144695403Y-67664936D01*
X144460001Y-67644341D01*
X144459999Y-67644341D01*
X144224596Y-67664936D01*
X144224586Y-67664938D01*
X143996344Y-67726094D01*
X143996335Y-67726098D01*
X143782171Y-67825964D01*
X143782169Y-67825965D01*
X143588597Y-67961505D01*
X143421506Y-68128596D01*
X143285965Y-68322170D01*
X143285962Y-68322175D01*
X143283289Y-68327909D01*
X143237115Y-68380346D01*
X143170909Y-68399500D01*
X97964669Y-68399500D01*
X97964653Y-68399499D01*
X97957057Y-68399499D01*
X97798943Y-68399499D01*
X97646215Y-68440423D01*
X97646214Y-68440423D01*
X97646212Y-68440424D01*
X97619434Y-68455885D01*
X97619433Y-68455886D01*
X97564358Y-68487683D01*
X97509285Y-68519479D01*
X97509282Y-68519481D01*
X97397478Y-68631286D01*
X93453465Y-72575298D01*
X93392142Y-72608783D01*
X93379668Y-72610837D01*
X93292750Y-72620630D01*
X93122478Y-72680210D01*
X92969737Y-72776184D01*
X92842184Y-72903737D01*
X92746211Y-73056476D01*
X92686631Y-73226745D01*
X92686630Y-73226749D01*
X92673264Y-73345384D01*
X92646197Y-73409798D01*
X92588603Y-73449353D01*
X92550044Y-73455500D01*
X89091071Y-73455500D01*
X88932956Y-73455500D01*
X88780229Y-73496423D01*
X88780228Y-73496423D01*
X88780226Y-73496424D01*
X88780223Y-73496425D01*
X88730110Y-73525359D01*
X88730109Y-73525360D01*
X88686703Y-73550420D01*
X88643299Y-73575479D01*
X88643296Y-73575481D01*
X88578635Y-73640143D01*
X88531494Y-73687284D01*
X88531492Y-73687286D01*
X88374192Y-73844586D01*
X88373472Y-73845306D01*
X88312149Y-73878790D01*
X88299675Y-73880844D01*
X88212757Y-73890637D01*
X88042485Y-73950217D01*
X87889744Y-74046191D01*
X87762191Y-74173744D01*
X87666218Y-74326483D01*
X87606638Y-74496752D01*
X87606637Y-74496757D01*
X87586442Y-74676003D01*
X87586442Y-74676010D01*
X87606637Y-74855256D01*
X87606638Y-74855261D01*
X87666218Y-75025530D01*
X87724631Y-75118493D01*
X87762191Y-75178269D01*
X87889745Y-75305823D01*
X87924244Y-75327500D01*
X88042473Y-75401789D01*
X88042485Y-75401796D01*
X88168713Y-75445965D01*
X88212752Y-75461375D01*
X88212757Y-75461376D01*
X88392003Y-75481572D01*
X88392007Y-75481572D01*
X88392011Y-75481572D01*
X88571256Y-75461376D01*
X88571259Y-75461375D01*
X88571262Y-75461375D01*
X88741529Y-75401796D01*
X88894269Y-75305823D01*
X89021823Y-75178269D01*
X89117796Y-75025529D01*
X89177375Y-74855262D01*
X89187168Y-74768337D01*
X89214233Y-74703927D01*
X89222707Y-74694542D01*
X89224430Y-74692819D01*
X89285753Y-74659334D01*
X89312111Y-74656500D01*
X90018495Y-74656500D01*
X90085534Y-74676185D01*
X90131289Y-74728989D01*
X90141715Y-74794384D01*
X90126435Y-74929997D01*
X90126435Y-74930003D01*
X90146630Y-75109249D01*
X90146631Y-75109254D01*
X90206211Y-75279523D01*
X90302184Y-75432262D01*
X90429738Y-75559816D01*
X90582478Y-75655789D01*
X90752745Y-75715368D01*
X90752750Y-75715369D01*
X90931996Y-75735565D01*
X90932000Y-75735565D01*
X90932004Y-75735565D01*
X91111249Y-75715369D01*
X91111252Y-75715368D01*
X91111255Y-75715368D01*
X91281522Y-75655789D01*
X91434262Y-75559816D01*
X91434267Y-75559810D01*
X91437097Y-75557555D01*
X91439275Y-75556665D01*
X91440158Y-75556111D01*
X91440255Y-75556265D01*
X91501783Y-75531145D01*
X91514412Y-75530500D01*
X93346256Y-75530500D01*
X93346272Y-75530501D01*
X93353868Y-75530501D01*
X93511979Y-75530501D01*
X93511982Y-75530501D01*
X93664710Y-75489577D01*
X93714829Y-75460639D01*
X93801641Y-75410520D01*
X93913445Y-75298716D01*
X93913445Y-75298714D01*
X93923653Y-75288507D01*
X93923654Y-75288504D01*
X95185175Y-74026984D01*
X95246495Y-73993501D01*
X95316187Y-73998485D01*
X95372120Y-74040357D01*
X95396537Y-74105821D01*
X95381685Y-74174094D01*
X95377847Y-74180639D01*
X95286211Y-74326476D01*
X95226631Y-74496745D01*
X95226630Y-74496750D01*
X95206435Y-74675996D01*
X95206435Y-74676003D01*
X95226630Y-74855249D01*
X95226631Y-74855254D01*
X95286211Y-75025523D01*
X95344630Y-75118495D01*
X95382184Y-75178262D01*
X95509738Y-75305816D01*
X95662478Y-75401789D01*
X95788726Y-75445965D01*
X95832745Y-75461368D01*
X95832750Y-75461369D01*
X96011996Y-75481565D01*
X96012000Y-75481565D01*
X96012004Y-75481565D01*
X96191249Y-75461369D01*
X96191252Y-75461368D01*
X96191255Y-75461368D01*
X96361522Y-75401789D01*
X96514262Y-75305816D01*
X96641816Y-75178262D01*
X96737789Y-75025522D01*
X96797368Y-74855255D01*
X96807161Y-74768329D01*
X96834226Y-74703918D01*
X96842692Y-74694542D01*
X98002420Y-73534815D01*
X98063743Y-73501330D01*
X98090101Y-73498496D01*
X143056072Y-73498496D01*
X143123111Y-73518181D01*
X143168866Y-73570985D01*
X143178810Y-73640143D01*
X143175847Y-73654589D01*
X143124938Y-73844586D01*
X143124936Y-73844596D01*
X143104341Y-74079999D01*
X143104341Y-74080000D01*
X143124936Y-74315403D01*
X143124938Y-74315413D01*
X143186094Y-74543655D01*
X143186096Y-74543659D01*
X143186097Y-74543663D01*
X143247810Y-74676007D01*
X143285965Y-74757830D01*
X143285967Y-74757834D01*
X143354188Y-74855263D01*
X143421501Y-74951396D01*
X143421506Y-74951402D01*
X143588597Y-75118493D01*
X143588603Y-75118498D01*
X143774158Y-75248425D01*
X143817783Y-75303002D01*
X143824977Y-75372500D01*
X143793454Y-75434855D01*
X143774158Y-75451575D01*
X143588597Y-75581505D01*
X143421505Y-75748597D01*
X143285965Y-75942169D01*
X143285964Y-75942171D01*
X143186098Y-76156335D01*
X143186094Y-76156344D01*
X143124938Y-76384586D01*
X143124936Y-76384596D01*
X143104341Y-76619999D01*
X143104341Y-76620000D01*
X143124936Y-76855403D01*
X143124938Y-76855413D01*
X143186094Y-77083655D01*
X143186097Y-77083664D01*
X143219268Y-77154800D01*
X143255779Y-77233096D01*
X143266271Y-77302172D01*
X143237751Y-77365956D01*
X143179275Y-77404196D01*
X143143397Y-77409500D01*
X109440417Y-77409500D01*
X109373378Y-77389815D01*
X109327623Y-77337011D01*
X109317679Y-77267853D01*
X109339617Y-77217104D01*
X109338111Y-77216158D01*
X109421363Y-77083664D01*
X109437789Y-77057522D01*
X109497368Y-76887255D01*
X109500956Y-76855413D01*
X109517565Y-76708003D01*
X109517565Y-76707996D01*
X109497369Y-76528750D01*
X109497368Y-76528745D01*
X109446928Y-76384596D01*
X109437789Y-76358478D01*
X109341816Y-76205738D01*
X109214262Y-76078184D01*
X109061523Y-75982211D01*
X108891254Y-75922631D01*
X108891249Y-75922630D01*
X108712004Y-75902435D01*
X108711996Y-75902435D01*
X108532750Y-75922630D01*
X108532745Y-75922631D01*
X108362475Y-75982211D01*
X108333382Y-76000493D01*
X108267409Y-76019500D01*
X56829091Y-76019500D01*
X56762052Y-75999815D01*
X56716711Y-75947909D01*
X56714037Y-75942175D01*
X56714034Y-75942170D01*
X56714033Y-75942169D01*
X56578495Y-75748599D01*
X56578494Y-75748597D01*
X56411402Y-75581506D01*
X56411396Y-75581501D01*
X56225842Y-75451575D01*
X56182217Y-75396998D01*
X56175023Y-75327500D01*
X56206546Y-75265145D01*
X56225842Y-75248425D01*
X56326045Y-75178262D01*
X56411401Y-75118495D01*
X56578495Y-74951401D01*
X56714035Y-74757830D01*
X56813903Y-74543663D01*
X56875063Y-74315408D01*
X56895659Y-74080000D01*
X56875063Y-73844592D01*
X56828626Y-73671285D01*
X56813905Y-73616344D01*
X56813904Y-73616343D01*
X56813903Y-73616337D01*
X56714035Y-73402171D01*
X56708425Y-73394158D01*
X56578494Y-73208597D01*
X56411402Y-73041506D01*
X56411396Y-73041501D01*
X56225842Y-72911575D01*
X56182217Y-72856998D01*
X56175023Y-72787500D01*
X56206546Y-72725145D01*
X56225842Y-72708425D01*
X56351226Y-72620630D01*
X56411401Y-72578495D01*
X56578495Y-72411401D01*
X56714035Y-72217830D01*
X56813903Y-72003663D01*
X56875063Y-71775408D01*
X56895659Y-71540000D01*
X56875063Y-71304592D01*
X56813903Y-71076337D01*
X56714035Y-70862171D01*
X56708425Y-70854158D01*
X56578494Y-70668597D01*
X56411402Y-70501506D01*
X56411396Y-70501501D01*
X56225842Y-70371575D01*
X56182217Y-70316998D01*
X56175023Y-70247500D01*
X56206546Y-70185145D01*
X56225842Y-70168425D01*
X56248026Y-70152891D01*
X56411401Y-70038495D01*
X56578495Y-69871401D01*
X56714035Y-69677830D01*
X56813903Y-69463663D01*
X56875063Y-69235408D01*
X56895659Y-69000000D01*
X56875063Y-68764592D01*
X56813903Y-68536337D01*
X56714035Y-68322171D01*
X56714034Y-68322169D01*
X56578494Y-68128597D01*
X56411402Y-67961506D01*
X56411395Y-67961501D01*
X56217834Y-67825967D01*
X56217830Y-67825965D01*
X56217828Y-67825964D01*
X56003663Y-67726097D01*
X56003659Y-67726096D01*
X56003655Y-67726094D01*
X55775413Y-67664938D01*
X55775403Y-67664936D01*
X55540001Y-67644341D01*
X55539999Y-67644341D01*
X55304596Y-67664936D01*
X55304586Y-67664938D01*
X55076344Y-67726094D01*
X55076335Y-67726098D01*
X54862171Y-67825964D01*
X54862169Y-67825965D01*
X54668597Y-67961505D01*
X54501506Y-68128596D01*
X54418864Y-68246623D01*
X54364287Y-68290248D01*
X54317289Y-68299500D01*
X54222711Y-68299500D01*
X54155672Y-68279815D01*
X54121136Y-68246623D01*
X54038494Y-68128597D01*
X53871402Y-67961506D01*
X53871395Y-67961501D01*
X53677834Y-67825967D01*
X53677830Y-67825965D01*
X53677828Y-67825964D01*
X53463663Y-67726097D01*
X53463659Y-67726096D01*
X53463655Y-67726094D01*
X53235413Y-67664938D01*
X53235403Y-67664936D01*
X53000001Y-67644341D01*
X52999999Y-67644341D01*
X52764596Y-67664936D01*
X52764586Y-67664938D01*
X52536344Y-67726094D01*
X52536335Y-67726098D01*
X52322171Y-67825964D01*
X52322169Y-67825965D01*
X52128597Y-67961505D01*
X51961505Y-68128597D01*
X51825965Y-68322169D01*
X51825964Y-68322171D01*
X51726098Y-68536335D01*
X51726094Y-68536344D01*
X51664938Y-68764586D01*
X51664936Y-68764596D01*
X51644341Y-68999999D01*
X51000500Y-68999999D01*
X51000500Y-67124500D01*
X51020185Y-67057461D01*
X51072989Y-67011706D01*
X51124500Y-67000500D01*
X148875500Y-67000500D01*
X148942539Y-67020185D01*
G37*
%TD.AperFunction*%
%TD*%
M02*
