%TF.GenerationSoftware,KiCad,Pcbnew,8.0.5-8.0.5-0~ubuntu22.04.1*%
%TF.CreationDate,2024-10-05T20:40:55+02:00*%
%TF.ProjectId,MOT_SerialBoard,4d4f545f-5365-4726-9961-6c426f617264,rev?*%
%TF.SameCoordinates,Original*%
%TF.FileFunction,Legend,Bot*%
%TF.FilePolarity,Positive*%
%FSLAX46Y46*%
G04 Gerber Fmt 4.6, Leading zero omitted, Abs format (unit mm)*
G04 Created by KiCad (PCBNEW 8.0.5-8.0.5-0~ubuntu22.04.1) date 2024-10-05 20:40:55*
%MOMM*%
%LPD*%
G01*
G04 APERTURE LIST*
%ADD10C,0.150000*%
%ADD11C,0.120000*%
G04 APERTURE END LIST*
D10*
X79399523Y-86046819D02*
X79399523Y-86761104D01*
X79399523Y-86761104D02*
X79447142Y-86903961D01*
X79447142Y-86903961D02*
X79542380Y-86999200D01*
X79542380Y-86999200D02*
X79685237Y-87046819D01*
X79685237Y-87046819D02*
X79780475Y-87046819D01*
X78923332Y-87046819D02*
X78923332Y-86046819D01*
X78923332Y-86046819D02*
X78542380Y-86046819D01*
X78542380Y-86046819D02*
X78447142Y-86094438D01*
X78447142Y-86094438D02*
X78399523Y-86142057D01*
X78399523Y-86142057D02*
X78351904Y-86237295D01*
X78351904Y-86237295D02*
X78351904Y-86380152D01*
X78351904Y-86380152D02*
X78399523Y-86475390D01*
X78399523Y-86475390D02*
X78447142Y-86523009D01*
X78447142Y-86523009D02*
X78542380Y-86570628D01*
X78542380Y-86570628D02*
X78923332Y-86570628D01*
X77399523Y-87046819D02*
X77970951Y-87046819D01*
X77685237Y-87046819D02*
X77685237Y-86046819D01*
X77685237Y-86046819D02*
X77780475Y-86189676D01*
X77780475Y-86189676D02*
X77875713Y-86284914D01*
X77875713Y-86284914D02*
X77970951Y-86332533D01*
X77018570Y-86142057D02*
X76970951Y-86094438D01*
X76970951Y-86094438D02*
X76875713Y-86046819D01*
X76875713Y-86046819D02*
X76637618Y-86046819D01*
X76637618Y-86046819D02*
X76542380Y-86094438D01*
X76542380Y-86094438D02*
X76494761Y-86142057D01*
X76494761Y-86142057D02*
X76447142Y-86237295D01*
X76447142Y-86237295D02*
X76447142Y-86332533D01*
X76447142Y-86332533D02*
X76494761Y-86475390D01*
X76494761Y-86475390D02*
X77066189Y-87046819D01*
X77066189Y-87046819D02*
X76447142Y-87046819D01*
X71779523Y-86046819D02*
X71779523Y-86761104D01*
X71779523Y-86761104D02*
X71827142Y-86903961D01*
X71827142Y-86903961D02*
X71922380Y-86999200D01*
X71922380Y-86999200D02*
X72065237Y-87046819D01*
X72065237Y-87046819D02*
X72160475Y-87046819D01*
X71303332Y-87046819D02*
X71303332Y-86046819D01*
X71303332Y-86046819D02*
X70922380Y-86046819D01*
X70922380Y-86046819D02*
X70827142Y-86094438D01*
X70827142Y-86094438D02*
X70779523Y-86142057D01*
X70779523Y-86142057D02*
X70731904Y-86237295D01*
X70731904Y-86237295D02*
X70731904Y-86380152D01*
X70731904Y-86380152D02*
X70779523Y-86475390D01*
X70779523Y-86475390D02*
X70827142Y-86523009D01*
X70827142Y-86523009D02*
X70922380Y-86570628D01*
X70922380Y-86570628D02*
X71303332Y-86570628D01*
X69779523Y-87046819D02*
X70350951Y-87046819D01*
X70065237Y-87046819D02*
X70065237Y-86046819D01*
X70065237Y-86046819D02*
X70160475Y-86189676D01*
X70160475Y-86189676D02*
X70255713Y-86284914D01*
X70255713Y-86284914D02*
X70350951Y-86332533D01*
X68827142Y-87046819D02*
X69398570Y-87046819D01*
X69112856Y-87046819D02*
X69112856Y-86046819D01*
X69112856Y-86046819D02*
X69208094Y-86189676D01*
X69208094Y-86189676D02*
X69303332Y-86284914D01*
X69303332Y-86284914D02*
X69398570Y-86332533D01*
X79175523Y-103820819D02*
X79175523Y-104535104D01*
X79175523Y-104535104D02*
X79223142Y-104677961D01*
X79223142Y-104677961D02*
X79318380Y-104773200D01*
X79318380Y-104773200D02*
X79461237Y-104820819D01*
X79461237Y-104820819D02*
X79556475Y-104820819D01*
X78699332Y-104820819D02*
X78699332Y-103820819D01*
X78699332Y-103820819D02*
X78318380Y-103820819D01*
X78318380Y-103820819D02*
X78223142Y-103868438D01*
X78223142Y-103868438D02*
X78175523Y-103916057D01*
X78175523Y-103916057D02*
X78127904Y-104011295D01*
X78127904Y-104011295D02*
X78127904Y-104154152D01*
X78127904Y-104154152D02*
X78175523Y-104249390D01*
X78175523Y-104249390D02*
X78223142Y-104297009D01*
X78223142Y-104297009D02*
X78318380Y-104344628D01*
X78318380Y-104344628D02*
X78699332Y-104344628D01*
X77175523Y-104820819D02*
X77746951Y-104820819D01*
X77461237Y-104820819D02*
X77461237Y-103820819D01*
X77461237Y-103820819D02*
X77556475Y-103963676D01*
X77556475Y-103963676D02*
X77651713Y-104058914D01*
X77651713Y-104058914D02*
X77746951Y-104106533D01*
X76556475Y-103820819D02*
X76461237Y-103820819D01*
X76461237Y-103820819D02*
X76365999Y-103868438D01*
X76365999Y-103868438D02*
X76318380Y-103916057D01*
X76318380Y-103916057D02*
X76270761Y-104011295D01*
X76270761Y-104011295D02*
X76223142Y-104201771D01*
X76223142Y-104201771D02*
X76223142Y-104439866D01*
X76223142Y-104439866D02*
X76270761Y-104630342D01*
X76270761Y-104630342D02*
X76318380Y-104725580D01*
X76318380Y-104725580D02*
X76365999Y-104773200D01*
X76365999Y-104773200D02*
X76461237Y-104820819D01*
X76461237Y-104820819D02*
X76556475Y-104820819D01*
X76556475Y-104820819D02*
X76651713Y-104773200D01*
X76651713Y-104773200D02*
X76699332Y-104725580D01*
X76699332Y-104725580D02*
X76746951Y-104630342D01*
X76746951Y-104630342D02*
X76794570Y-104439866D01*
X76794570Y-104439866D02*
X76794570Y-104201771D01*
X76794570Y-104201771D02*
X76746951Y-104011295D01*
X76746951Y-104011295D02*
X76699332Y-103916057D01*
X76699332Y-103916057D02*
X76651713Y-103868438D01*
X76651713Y-103868438D02*
X76556475Y-103820819D01*
X71079333Y-103826819D02*
X71079333Y-104541104D01*
X71079333Y-104541104D02*
X71126952Y-104683961D01*
X71126952Y-104683961D02*
X71222190Y-104779200D01*
X71222190Y-104779200D02*
X71365047Y-104826819D01*
X71365047Y-104826819D02*
X71460285Y-104826819D01*
X70603142Y-104826819D02*
X70603142Y-103826819D01*
X70603142Y-103826819D02*
X70222190Y-103826819D01*
X70222190Y-103826819D02*
X70126952Y-103874438D01*
X70126952Y-103874438D02*
X70079333Y-103922057D01*
X70079333Y-103922057D02*
X70031714Y-104017295D01*
X70031714Y-104017295D02*
X70031714Y-104160152D01*
X70031714Y-104160152D02*
X70079333Y-104255390D01*
X70079333Y-104255390D02*
X70126952Y-104303009D01*
X70126952Y-104303009D02*
X70222190Y-104350628D01*
X70222190Y-104350628D02*
X70603142Y-104350628D01*
X69698380Y-103826819D02*
X69031714Y-103826819D01*
X69031714Y-103826819D02*
X69460285Y-104826819D01*
X78923333Y-68266819D02*
X78923333Y-68981104D01*
X78923333Y-68981104D02*
X78970952Y-69123961D01*
X78970952Y-69123961D02*
X79066190Y-69219200D01*
X79066190Y-69219200D02*
X79209047Y-69266819D01*
X79209047Y-69266819D02*
X79304285Y-69266819D01*
X78447142Y-69266819D02*
X78447142Y-68266819D01*
X78447142Y-68266819D02*
X78066190Y-68266819D01*
X78066190Y-68266819D02*
X77970952Y-68314438D01*
X77970952Y-68314438D02*
X77923333Y-68362057D01*
X77923333Y-68362057D02*
X77875714Y-68457295D01*
X77875714Y-68457295D02*
X77875714Y-68600152D01*
X77875714Y-68600152D02*
X77923333Y-68695390D01*
X77923333Y-68695390D02*
X77970952Y-68743009D01*
X77970952Y-68743009D02*
X78066190Y-68790628D01*
X78066190Y-68790628D02*
X78447142Y-68790628D01*
X77018571Y-68266819D02*
X77209047Y-68266819D01*
X77209047Y-68266819D02*
X77304285Y-68314438D01*
X77304285Y-68314438D02*
X77351904Y-68362057D01*
X77351904Y-68362057D02*
X77447142Y-68504914D01*
X77447142Y-68504914D02*
X77494761Y-68695390D01*
X77494761Y-68695390D02*
X77494761Y-69076342D01*
X77494761Y-69076342D02*
X77447142Y-69171580D01*
X77447142Y-69171580D02*
X77399523Y-69219200D01*
X77399523Y-69219200D02*
X77304285Y-69266819D01*
X77304285Y-69266819D02*
X77113809Y-69266819D01*
X77113809Y-69266819D02*
X77018571Y-69219200D01*
X77018571Y-69219200D02*
X76970952Y-69171580D01*
X76970952Y-69171580D02*
X76923333Y-69076342D01*
X76923333Y-69076342D02*
X76923333Y-68838247D01*
X76923333Y-68838247D02*
X76970952Y-68743009D01*
X76970952Y-68743009D02*
X77018571Y-68695390D01*
X77018571Y-68695390D02*
X77113809Y-68647771D01*
X77113809Y-68647771D02*
X77304285Y-68647771D01*
X77304285Y-68647771D02*
X77399523Y-68695390D01*
X77399523Y-68695390D02*
X77447142Y-68743009D01*
X77447142Y-68743009D02*
X77494761Y-68838247D01*
X71303333Y-68266819D02*
X71303333Y-68981104D01*
X71303333Y-68981104D02*
X71350952Y-69123961D01*
X71350952Y-69123961D02*
X71446190Y-69219200D01*
X71446190Y-69219200D02*
X71589047Y-69266819D01*
X71589047Y-69266819D02*
X71684285Y-69266819D01*
X70827142Y-69266819D02*
X70827142Y-68266819D01*
X70827142Y-68266819D02*
X70446190Y-68266819D01*
X70446190Y-68266819D02*
X70350952Y-68314438D01*
X70350952Y-68314438D02*
X70303333Y-68362057D01*
X70303333Y-68362057D02*
X70255714Y-68457295D01*
X70255714Y-68457295D02*
X70255714Y-68600152D01*
X70255714Y-68600152D02*
X70303333Y-68695390D01*
X70303333Y-68695390D02*
X70350952Y-68743009D01*
X70350952Y-68743009D02*
X70446190Y-68790628D01*
X70446190Y-68790628D02*
X70827142Y-68790628D01*
X69350952Y-68266819D02*
X69827142Y-68266819D01*
X69827142Y-68266819D02*
X69874761Y-68743009D01*
X69874761Y-68743009D02*
X69827142Y-68695390D01*
X69827142Y-68695390D02*
X69731904Y-68647771D01*
X69731904Y-68647771D02*
X69493809Y-68647771D01*
X69493809Y-68647771D02*
X69398571Y-68695390D01*
X69398571Y-68695390D02*
X69350952Y-68743009D01*
X69350952Y-68743009D02*
X69303333Y-68838247D01*
X69303333Y-68838247D02*
X69303333Y-69076342D01*
X69303333Y-69076342D02*
X69350952Y-69171580D01*
X69350952Y-69171580D02*
X69398571Y-69219200D01*
X69398571Y-69219200D02*
X69493809Y-69266819D01*
X69493809Y-69266819D02*
X69731904Y-69266819D01*
X69731904Y-69266819D02*
X69827142Y-69219200D01*
X69827142Y-69219200D02*
X69874761Y-69171580D01*
X97538094Y-70714819D02*
X97538094Y-69714819D01*
X97538094Y-69714819D02*
X97299999Y-69714819D01*
X97299999Y-69714819D02*
X97157142Y-69762438D01*
X97157142Y-69762438D02*
X97061904Y-69857676D01*
X97061904Y-69857676D02*
X97014285Y-69952914D01*
X97014285Y-69952914D02*
X96966666Y-70143390D01*
X96966666Y-70143390D02*
X96966666Y-70286247D01*
X96966666Y-70286247D02*
X97014285Y-70476723D01*
X97014285Y-70476723D02*
X97061904Y-70571961D01*
X97061904Y-70571961D02*
X97157142Y-70667200D01*
X97157142Y-70667200D02*
X97299999Y-70714819D01*
X97299999Y-70714819D02*
X97538094Y-70714819D01*
X96347618Y-69714819D02*
X96157142Y-69714819D01*
X96157142Y-69714819D02*
X96061904Y-69762438D01*
X96061904Y-69762438D02*
X95966666Y-69857676D01*
X95966666Y-69857676D02*
X95919047Y-70048152D01*
X95919047Y-70048152D02*
X95919047Y-70381485D01*
X95919047Y-70381485D02*
X95966666Y-70571961D01*
X95966666Y-70571961D02*
X96061904Y-70667200D01*
X96061904Y-70667200D02*
X96157142Y-70714819D01*
X96157142Y-70714819D02*
X96347618Y-70714819D01*
X96347618Y-70714819D02*
X96442856Y-70667200D01*
X96442856Y-70667200D02*
X96538094Y-70571961D01*
X96538094Y-70571961D02*
X96585713Y-70381485D01*
X96585713Y-70381485D02*
X96585713Y-70048152D01*
X96585713Y-70048152D02*
X96538094Y-69857676D01*
X96538094Y-69857676D02*
X96442856Y-69762438D01*
X96442856Y-69762438D02*
X96347618Y-69714819D01*
X95490475Y-70191009D02*
X95157142Y-70191009D01*
X95014285Y-70714819D02*
X95490475Y-70714819D01*
X95490475Y-70714819D02*
X95490475Y-69714819D01*
X95490475Y-69714819D02*
X95014285Y-69714819D01*
X97676190Y-69437200D02*
X94923809Y-69437200D01*
X101798238Y-65224819D02*
X102131571Y-64748628D01*
X102369666Y-65224819D02*
X102369666Y-64224819D01*
X102369666Y-64224819D02*
X101988714Y-64224819D01*
X101988714Y-64224819D02*
X101893476Y-64272438D01*
X101893476Y-64272438D02*
X101845857Y-64320057D01*
X101845857Y-64320057D02*
X101798238Y-64415295D01*
X101798238Y-64415295D02*
X101798238Y-64558152D01*
X101798238Y-64558152D02*
X101845857Y-64653390D01*
X101845857Y-64653390D02*
X101893476Y-64701009D01*
X101893476Y-64701009D02*
X101988714Y-64748628D01*
X101988714Y-64748628D02*
X102369666Y-64748628D01*
X100655381Y-64177200D02*
X101512523Y-65462914D01*
X100417285Y-64224819D02*
X100179190Y-65224819D01*
X100179190Y-65224819D02*
X99988714Y-64510533D01*
X99988714Y-64510533D02*
X99798238Y-65224819D01*
X99798238Y-65224819D02*
X99560143Y-64224819D01*
X100460143Y-63947200D02*
X99517286Y-63947200D01*
X99417286Y-65320057D02*
X98655381Y-65320057D01*
X98036333Y-65177200D02*
X98131571Y-65224819D01*
X98131571Y-65224819D02*
X98322047Y-65224819D01*
X98322047Y-65224819D02*
X98417285Y-65177200D01*
X98417285Y-65177200D02*
X98464904Y-65081961D01*
X98464904Y-65081961D02*
X98464904Y-64701009D01*
X98464904Y-64701009D02*
X98417285Y-64605771D01*
X98417285Y-64605771D02*
X98322047Y-64558152D01*
X98322047Y-64558152D02*
X98131571Y-64558152D01*
X98131571Y-64558152D02*
X98036333Y-64605771D01*
X98036333Y-64605771D02*
X97988714Y-64701009D01*
X97988714Y-64701009D02*
X97988714Y-64796247D01*
X97988714Y-64796247D02*
X98464904Y-64891485D01*
X87076780Y-145684533D02*
X87124400Y-145636914D01*
X87124400Y-145636914D02*
X87172019Y-145494057D01*
X87172019Y-145494057D02*
X87172019Y-145398819D01*
X87172019Y-145398819D02*
X87124400Y-145255962D01*
X87124400Y-145255962D02*
X87029161Y-145160724D01*
X87029161Y-145160724D02*
X86933923Y-145113105D01*
X86933923Y-145113105D02*
X86743447Y-145065486D01*
X86743447Y-145065486D02*
X86600590Y-145065486D01*
X86600590Y-145065486D02*
X86410114Y-145113105D01*
X86410114Y-145113105D02*
X86314876Y-145160724D01*
X86314876Y-145160724D02*
X86219638Y-145255962D01*
X86219638Y-145255962D02*
X86172019Y-145398819D01*
X86172019Y-145398819D02*
X86172019Y-145494057D01*
X86172019Y-145494057D02*
X86219638Y-145636914D01*
X86219638Y-145636914D02*
X86267257Y-145684533D01*
X86267257Y-146065486D02*
X86219638Y-146113105D01*
X86219638Y-146113105D02*
X86172019Y-146208343D01*
X86172019Y-146208343D02*
X86172019Y-146446438D01*
X86172019Y-146446438D02*
X86219638Y-146541676D01*
X86219638Y-146541676D02*
X86267257Y-146589295D01*
X86267257Y-146589295D02*
X86362495Y-146636914D01*
X86362495Y-146636914D02*
X86457733Y-146636914D01*
X86457733Y-146636914D02*
X86600590Y-146589295D01*
X86600590Y-146589295D02*
X87172019Y-146017867D01*
X87172019Y-146017867D02*
X87172019Y-146636914D01*
X115639285Y-73791009D02*
X115305952Y-73791009D01*
X115163095Y-74314819D02*
X115639285Y-74314819D01*
X115639285Y-74314819D02*
X115639285Y-73314819D01*
X115639285Y-73314819D02*
X115163095Y-73314819D01*
X137066666Y-127839819D02*
X137399999Y-127363628D01*
X137638094Y-127839819D02*
X137638094Y-126839819D01*
X137638094Y-126839819D02*
X137257142Y-126839819D01*
X137257142Y-126839819D02*
X137161904Y-126887438D01*
X137161904Y-126887438D02*
X137114285Y-126935057D01*
X137114285Y-126935057D02*
X137066666Y-127030295D01*
X137066666Y-127030295D02*
X137066666Y-127173152D01*
X137066666Y-127173152D02*
X137114285Y-127268390D01*
X137114285Y-127268390D02*
X137161904Y-127316009D01*
X137161904Y-127316009D02*
X137257142Y-127363628D01*
X137257142Y-127363628D02*
X137638094Y-127363628D01*
X136209523Y-127173152D02*
X136209523Y-127839819D01*
X136447618Y-126792200D02*
X136685713Y-127506485D01*
X136685713Y-127506485D02*
X136066666Y-127506485D01*
X104052666Y-69955580D02*
X104100285Y-70003200D01*
X104100285Y-70003200D02*
X104243142Y-70050819D01*
X104243142Y-70050819D02*
X104338380Y-70050819D01*
X104338380Y-70050819D02*
X104481237Y-70003200D01*
X104481237Y-70003200D02*
X104576475Y-69907961D01*
X104576475Y-69907961D02*
X104624094Y-69812723D01*
X104624094Y-69812723D02*
X104671713Y-69622247D01*
X104671713Y-69622247D02*
X104671713Y-69479390D01*
X104671713Y-69479390D02*
X104624094Y-69288914D01*
X104624094Y-69288914D02*
X104576475Y-69193676D01*
X104576475Y-69193676D02*
X104481237Y-69098438D01*
X104481237Y-69098438D02*
X104338380Y-69050819D01*
X104338380Y-69050819D02*
X104243142Y-69050819D01*
X104243142Y-69050819D02*
X104100285Y-69098438D01*
X104100285Y-69098438D02*
X104052666Y-69146057D01*
X103147904Y-69050819D02*
X103624094Y-69050819D01*
X103624094Y-69050819D02*
X103671713Y-69527009D01*
X103671713Y-69527009D02*
X103624094Y-69479390D01*
X103624094Y-69479390D02*
X103528856Y-69431771D01*
X103528856Y-69431771D02*
X103290761Y-69431771D01*
X103290761Y-69431771D02*
X103195523Y-69479390D01*
X103195523Y-69479390D02*
X103147904Y-69527009D01*
X103147904Y-69527009D02*
X103100285Y-69622247D01*
X103100285Y-69622247D02*
X103100285Y-69860342D01*
X103100285Y-69860342D02*
X103147904Y-69955580D01*
X103147904Y-69955580D02*
X103195523Y-70003200D01*
X103195523Y-70003200D02*
X103290761Y-70050819D01*
X103290761Y-70050819D02*
X103528856Y-70050819D01*
X103528856Y-70050819D02*
X103624094Y-70003200D01*
X103624094Y-70003200D02*
X103671713Y-69955580D01*
X119410714Y-74314819D02*
X119744047Y-73838628D01*
X119982142Y-74314819D02*
X119982142Y-73314819D01*
X119982142Y-73314819D02*
X119601190Y-73314819D01*
X119601190Y-73314819D02*
X119505952Y-73362438D01*
X119505952Y-73362438D02*
X119458333Y-73410057D01*
X119458333Y-73410057D02*
X119410714Y-73505295D01*
X119410714Y-73505295D02*
X119410714Y-73648152D01*
X119410714Y-73648152D02*
X119458333Y-73743390D01*
X119458333Y-73743390D02*
X119505952Y-73791009D01*
X119505952Y-73791009D02*
X119601190Y-73838628D01*
X119601190Y-73838628D02*
X119982142Y-73838628D01*
X118267857Y-73267200D02*
X119124999Y-74552914D01*
X118029761Y-73314819D02*
X117791666Y-74314819D01*
X117791666Y-74314819D02*
X117601190Y-73600533D01*
X117601190Y-73600533D02*
X117410714Y-74314819D01*
X117410714Y-74314819D02*
X117172619Y-73314819D01*
X118072619Y-73037200D02*
X117129762Y-73037200D01*
X137291666Y-129879819D02*
X137624999Y-129403628D01*
X137863094Y-129879819D02*
X137863094Y-128879819D01*
X137863094Y-128879819D02*
X137482142Y-128879819D01*
X137482142Y-128879819D02*
X137386904Y-128927438D01*
X137386904Y-128927438D02*
X137339285Y-128975057D01*
X137339285Y-128975057D02*
X137291666Y-129070295D01*
X137291666Y-129070295D02*
X137291666Y-129213152D01*
X137291666Y-129213152D02*
X137339285Y-129308390D01*
X137339285Y-129308390D02*
X137386904Y-129356009D01*
X137386904Y-129356009D02*
X137482142Y-129403628D01*
X137482142Y-129403628D02*
X137863094Y-129403628D01*
X136386904Y-128879819D02*
X136863094Y-128879819D01*
X136863094Y-128879819D02*
X136910713Y-129356009D01*
X136910713Y-129356009D02*
X136863094Y-129308390D01*
X136863094Y-129308390D02*
X136767856Y-129260771D01*
X136767856Y-129260771D02*
X136529761Y-129260771D01*
X136529761Y-129260771D02*
X136434523Y-129308390D01*
X136434523Y-129308390D02*
X136386904Y-129356009D01*
X136386904Y-129356009D02*
X136339285Y-129451247D01*
X136339285Y-129451247D02*
X136339285Y-129689342D01*
X136339285Y-129689342D02*
X136386904Y-129784580D01*
X136386904Y-129784580D02*
X136434523Y-129832200D01*
X136434523Y-129832200D02*
X136529761Y-129879819D01*
X136529761Y-129879819D02*
X136767856Y-129879819D01*
X136767856Y-129879819D02*
X136863094Y-129832200D01*
X136863094Y-129832200D02*
X136910713Y-129784580D01*
X89513580Y-57491333D02*
X89561200Y-57443714D01*
X89561200Y-57443714D02*
X89608819Y-57300857D01*
X89608819Y-57300857D02*
X89608819Y-57205619D01*
X89608819Y-57205619D02*
X89561200Y-57062762D01*
X89561200Y-57062762D02*
X89465961Y-56967524D01*
X89465961Y-56967524D02*
X89370723Y-56919905D01*
X89370723Y-56919905D02*
X89180247Y-56872286D01*
X89180247Y-56872286D02*
X89037390Y-56872286D01*
X89037390Y-56872286D02*
X88846914Y-56919905D01*
X88846914Y-56919905D02*
X88751676Y-56967524D01*
X88751676Y-56967524D02*
X88656438Y-57062762D01*
X88656438Y-57062762D02*
X88608819Y-57205619D01*
X88608819Y-57205619D02*
X88608819Y-57300857D01*
X88608819Y-57300857D02*
X88656438Y-57443714D01*
X88656438Y-57443714D02*
X88704057Y-57491333D01*
X89608819Y-58443714D02*
X89608819Y-57872286D01*
X89608819Y-58158000D02*
X88608819Y-58158000D01*
X88608819Y-58158000D02*
X88751676Y-58062762D01*
X88751676Y-58062762D02*
X88846914Y-57967524D01*
X88846914Y-57967524D02*
X88894533Y-57872286D01*
X90491666Y-107834580D02*
X90539285Y-107882200D01*
X90539285Y-107882200D02*
X90682142Y-107929819D01*
X90682142Y-107929819D02*
X90777380Y-107929819D01*
X90777380Y-107929819D02*
X90920237Y-107882200D01*
X90920237Y-107882200D02*
X91015475Y-107786961D01*
X91015475Y-107786961D02*
X91063094Y-107691723D01*
X91063094Y-107691723D02*
X91110713Y-107501247D01*
X91110713Y-107501247D02*
X91110713Y-107358390D01*
X91110713Y-107358390D02*
X91063094Y-107167914D01*
X91063094Y-107167914D02*
X91015475Y-107072676D01*
X91015475Y-107072676D02*
X90920237Y-106977438D01*
X90920237Y-106977438D02*
X90777380Y-106929819D01*
X90777380Y-106929819D02*
X90682142Y-106929819D01*
X90682142Y-106929819D02*
X90539285Y-106977438D01*
X90539285Y-106977438D02*
X90491666Y-107025057D01*
X89634523Y-106929819D02*
X89824999Y-106929819D01*
X89824999Y-106929819D02*
X89920237Y-106977438D01*
X89920237Y-106977438D02*
X89967856Y-107025057D01*
X89967856Y-107025057D02*
X90063094Y-107167914D01*
X90063094Y-107167914D02*
X90110713Y-107358390D01*
X90110713Y-107358390D02*
X90110713Y-107739342D01*
X90110713Y-107739342D02*
X90063094Y-107834580D01*
X90063094Y-107834580D02*
X90015475Y-107882200D01*
X90015475Y-107882200D02*
X89920237Y-107929819D01*
X89920237Y-107929819D02*
X89729761Y-107929819D01*
X89729761Y-107929819D02*
X89634523Y-107882200D01*
X89634523Y-107882200D02*
X89586904Y-107834580D01*
X89586904Y-107834580D02*
X89539285Y-107739342D01*
X89539285Y-107739342D02*
X89539285Y-107501247D01*
X89539285Y-107501247D02*
X89586904Y-107406009D01*
X89586904Y-107406009D02*
X89634523Y-107358390D01*
X89634523Y-107358390D02*
X89729761Y-107310771D01*
X89729761Y-107310771D02*
X89920237Y-107310771D01*
X89920237Y-107310771D02*
X90015475Y-107358390D01*
X90015475Y-107358390D02*
X90063094Y-107406009D01*
X90063094Y-107406009D02*
X90110713Y-107501247D01*
X104052666Y-67415580D02*
X104100285Y-67463200D01*
X104100285Y-67463200D02*
X104243142Y-67510819D01*
X104243142Y-67510819D02*
X104338380Y-67510819D01*
X104338380Y-67510819D02*
X104481237Y-67463200D01*
X104481237Y-67463200D02*
X104576475Y-67367961D01*
X104576475Y-67367961D02*
X104624094Y-67272723D01*
X104624094Y-67272723D02*
X104671713Y-67082247D01*
X104671713Y-67082247D02*
X104671713Y-66939390D01*
X104671713Y-66939390D02*
X104624094Y-66748914D01*
X104624094Y-66748914D02*
X104576475Y-66653676D01*
X104576475Y-66653676D02*
X104481237Y-66558438D01*
X104481237Y-66558438D02*
X104338380Y-66510819D01*
X104338380Y-66510819D02*
X104243142Y-66510819D01*
X104243142Y-66510819D02*
X104100285Y-66558438D01*
X104100285Y-66558438D02*
X104052666Y-66606057D01*
X103195523Y-66844152D02*
X103195523Y-67510819D01*
X103433618Y-66463200D02*
X103671713Y-67177485D01*
X103671713Y-67177485D02*
X103052666Y-67177485D01*
D11*
%TO.C,JP12*%
X79490000Y-88092000D02*
X79490000Y-88692000D01*
X77390000Y-87392000D02*
X78790000Y-87392000D01*
X78790000Y-89392000D02*
X77390000Y-89392000D01*
X76690000Y-88692000D02*
X76690000Y-88092000D01*
X78790000Y-87392000D02*
G75*
G02*
X79490000Y-88092000I1J-699999D01*
G01*
X79490000Y-88692000D02*
G75*
G02*
X78790000Y-89392000I-699999J-1D01*
G01*
X76690000Y-88092000D02*
G75*
G02*
X77390000Y-87392000I700000J0D01*
G01*
X77390000Y-89392000D02*
G75*
G02*
X76690000Y-88692000I0J700000D01*
G01*
%TO.C,JP11*%
X71870000Y-88092000D02*
X71870000Y-88692000D01*
X69770000Y-87392000D02*
X71170000Y-87392000D01*
X71170000Y-89392000D02*
X69770000Y-89392000D01*
X69070000Y-88692000D02*
X69070000Y-88092000D01*
X71170000Y-87392000D02*
G75*
G02*
X71870000Y-88092000I1J-699999D01*
G01*
X71870000Y-88692000D02*
G75*
G02*
X71170000Y-89392000I-699999J-1D01*
G01*
X69070000Y-88092000D02*
G75*
G02*
X69770000Y-87392000I700000J0D01*
G01*
X69770000Y-89392000D02*
G75*
G02*
X69070000Y-88692000I0J700000D01*
G01*
%TO.C,JP10*%
X77166000Y-107166000D02*
G75*
G02*
X76466000Y-106466000I0J700000D01*
G01*
X76466000Y-105866000D02*
G75*
G02*
X77166000Y-105166000I700000J0D01*
G01*
X79266000Y-106466000D02*
G75*
G02*
X78566000Y-107166000I-699999J-1D01*
G01*
X78566000Y-105166000D02*
G75*
G02*
X79266000Y-105866000I1J-699999D01*
G01*
X76466000Y-106466000D02*
X76466000Y-105866000D01*
X78566000Y-107166000D02*
X77166000Y-107166000D01*
X77166000Y-105166000D02*
X78566000Y-105166000D01*
X79266000Y-105866000D02*
X79266000Y-106466000D01*
%TO.C,JP7*%
X69546000Y-107172000D02*
G75*
G02*
X68846000Y-106472000I0J700000D01*
G01*
X68846000Y-105872000D02*
G75*
G02*
X69546000Y-105172000I700000J0D01*
G01*
X71646000Y-106472000D02*
G75*
G02*
X70946000Y-107172000I-699999J-1D01*
G01*
X70946000Y-105172000D02*
G75*
G02*
X71646000Y-105872000I1J-699999D01*
G01*
X68846000Y-106472000D02*
X68846000Y-105872000D01*
X70946000Y-107172000D02*
X69546000Y-107172000D01*
X69546000Y-105172000D02*
X70946000Y-105172000D01*
X71646000Y-105872000D02*
X71646000Y-106472000D01*
%TO.C,JP6*%
X79490000Y-70312000D02*
X79490000Y-70912000D01*
X77390000Y-69612000D02*
X78790000Y-69612000D01*
X78790000Y-71612000D02*
X77390000Y-71612000D01*
X76690000Y-70912000D02*
X76690000Y-70312000D01*
X78790000Y-69612000D02*
G75*
G02*
X79490000Y-70312000I1J-699999D01*
G01*
X79490000Y-70912000D02*
G75*
G02*
X78790000Y-71612000I-699999J-1D01*
G01*
X76690000Y-70312000D02*
G75*
G02*
X77390000Y-69612000I700000J0D01*
G01*
X77390000Y-71612000D02*
G75*
G02*
X76690000Y-70912000I0J700000D01*
G01*
%TO.C,JP5*%
X71870000Y-70312000D02*
X71870000Y-70912000D01*
X69770000Y-69612000D02*
X71170000Y-69612000D01*
X71170000Y-71612000D02*
X69770000Y-71612000D01*
X69070000Y-70912000D02*
X69070000Y-70312000D01*
X71170000Y-69612000D02*
G75*
G02*
X71870000Y-70312000I1J-699999D01*
G01*
X71870000Y-70912000D02*
G75*
G02*
X71170000Y-71612000I-699999J-1D01*
G01*
X69070000Y-70312000D02*
G75*
G02*
X69770000Y-69612000I700000J0D01*
G01*
X69770000Y-71612000D02*
G75*
G02*
X69070000Y-70912000I0J700000D01*
G01*
%TO.C,J10*%
X96300000Y-67140000D02*
X97360000Y-67140000D01*
X97360000Y-67140000D02*
X97360000Y-68200000D01*
X97360000Y-69260000D02*
X97360000Y-69200000D01*
X95240000Y-69200000D02*
X97360000Y-69200000D01*
X95240000Y-69260000D02*
X97360000Y-69260000D01*
X95240000Y-69260000D02*
X95240000Y-69200000D01*
%TO.C,J5*%
X96225000Y-63865000D02*
X97285000Y-63865000D01*
X97285000Y-63865000D02*
X97285000Y-64925000D01*
X97285000Y-65985000D02*
X97285000Y-65925000D01*
X95165000Y-65925000D02*
X97285000Y-65925000D01*
X95165000Y-65985000D02*
X97285000Y-65985000D01*
X95165000Y-65985000D02*
X95165000Y-65925000D01*
%TO.C,C2*%
X87890000Y-146486252D02*
X87890000Y-145063748D01*
X89710000Y-146486252D02*
X89710000Y-145063748D01*
%TO.C,J8*%
X114365000Y-72800000D02*
X116485000Y-72800000D01*
X114365000Y-72860000D02*
X114365000Y-72800000D01*
X114365000Y-72860000D02*
X116485000Y-72860000D01*
X115425000Y-70740000D02*
X116485000Y-70740000D01*
X116485000Y-70740000D02*
X116485000Y-71800000D01*
X116485000Y-72860000D02*
X116485000Y-72800000D01*
%TO.C,R4*%
X141302064Y-126415000D02*
X139847936Y-126415000D01*
X141302064Y-128235000D02*
X139847936Y-128235000D01*
%TO.C,C5*%
X101344252Y-68686000D02*
X99921748Y-68686000D01*
X101344252Y-70506000D02*
X99921748Y-70506000D01*
%TO.C,J9*%
X117565000Y-72800000D02*
X119685000Y-72800000D01*
X117565000Y-72860000D02*
X117565000Y-72800000D01*
X117565000Y-72860000D02*
X119685000Y-72860000D01*
X118625000Y-70740000D02*
X119685000Y-70740000D01*
X119685000Y-70740000D02*
X119685000Y-71800000D01*
X119685000Y-72860000D02*
X119685000Y-72800000D01*
%TO.C,R5*%
X141277064Y-128715000D02*
X139822936Y-128715000D01*
X141277064Y-130535000D02*
X139822936Y-130535000D01*
%TO.C,C1*%
X88090000Y-53413748D02*
X88090000Y-54836252D01*
X89910000Y-53413748D02*
X89910000Y-54836252D01*
%TO.C,C6*%
X91036252Y-104715000D02*
X89613748Y-104715000D01*
X91036252Y-106535000D02*
X89613748Y-106535000D01*
%TO.C,C4*%
X101344252Y-66146000D02*
X99921748Y-66146000D01*
X101344252Y-67966000D02*
X99921748Y-67966000D01*
%TD*%
M02*
