M48
; DRILL file {KiCad 8.0.7-8.0.7-0~ubuntu22.04.1} date 2024-12-18T08:29:20+0100
; FORMAT={-:-/ absolute / inch / decimal}
; #@! TF.CreationDate,2024-12-18T08:29:20+01:00
; #@! TF.GenerationSoftware,Kicad,Pcbnew,8.0.7-8.0.7-0~ubuntu22.04.1
; #@! TF.FileFunction,MixedPlating,1,2
FMAT,2
INCH
; #@! TA.AperFunction,Plated,PTH,ComponentDrill
T1C0.0394
%
G90
G05
T1
X3.5365Y-2.9728
X3.5365Y-3.0728
X3.6365Y-2.0866
X3.6365Y-2.1866
X3.6365Y-2.9728
X3.6365Y-3.0728
X3.7365Y-2.0866
X3.7365Y-2.1866
X3.7365Y-2.9728
X3.7365Y-3.0728
X3.8365Y-2.0866
X3.8365Y-2.1866
X3.8365Y-2.9728
X3.8365Y-3.0728
X3.9365Y-2.0866
X3.9365Y-2.1866
X3.9365Y-2.9728
X3.9365Y-3.0728
X4.0365Y-2.0866
X4.0365Y-2.1866
X4.0365Y-2.9728
X4.0365Y-3.0728
X4.1365Y-2.0866
X4.1365Y-2.1866
X4.1365Y-2.9728
X4.1365Y-3.0728
X4.2365Y-2.0866
X4.2365Y-2.1866
X4.2365Y-2.9728
X4.2365Y-3.0728
X4.3365Y-2.0866
X4.3365Y-2.1866
X4.3365Y-2.9728
X4.3365Y-3.0728
X4.4365Y-2.0866
X4.4365Y-2.1866
X4.4365Y-2.9728
X4.4365Y-3.0728
X4.5365Y-2.0866
X4.5365Y-2.1866
X4.5365Y-2.9728
X4.5365Y-3.0728
X4.6365Y-2.0866
X4.6365Y-2.1866
X4.6365Y-2.9728
X4.6365Y-3.0728
X4.7365Y-2.0866
X4.7365Y-2.1866
X4.7365Y-2.9728
X4.7365Y-3.0728
X4.8365Y-2.0866
X4.8365Y-2.1866
X4.8365Y-2.9728
X4.8365Y-3.0728
X4.9365Y-2.0866
X4.9365Y-2.1866
X4.9365Y-2.9728
X4.9365Y-3.0728
X5.0365Y-2.0866
X5.0365Y-2.1866
X5.0365Y-2.9728
X5.0365Y-3.0728
X5.1365Y-2.0866
X5.1365Y-2.1866
X5.1365Y-2.9728
X5.1365Y-3.0728
X5.2365Y-2.0866
X5.2365Y-2.1866
X5.2365Y-2.9728
X5.2365Y-3.0728
X5.3365Y-2.0866
X5.3365Y-2.1866
X5.3365Y-2.9728
X5.3365Y-3.0728
X5.4365Y-2.0866
X5.4365Y-2.1866
X5.4365Y-2.9728
X5.4365Y-3.0728
X5.5365Y-2.0866
X5.5365Y-2.1866
M30
