%TF.GenerationSoftware,KiCad,Pcbnew,8.0.7-8.0.7-0~ubuntu22.04.1*%
%TF.CreationDate,2024-12-18T08:29:18+01:00*%
%TF.ProjectId,Mezzanine_v1,4d657a7a-616e-4696-9e65-5f76312e6b69,rev?*%
%TF.SameCoordinates,Original*%
%TF.FileFunction,Legend,Top*%
%TF.FilePolarity,Positive*%
%FSLAX46Y46*%
G04 Gerber Fmt 4.6, Leading zero omitted, Abs format (unit mm)*
G04 Created by KiCad (PCBNEW 8.0.7-8.0.7-0~ubuntu22.04.1) date 2024-12-18 08:29:18*
%MOMM*%
%LPD*%
G01*
G04 APERTURE LIST*
%ADD10C,0.100000*%
%ADD11C,0.150000*%
%ADD12C,0.120000*%
%ADD13C,0.000000*%
G04 APERTURE END LIST*
D10*
G36*
X92149624Y-50569211D02*
G01*
X92149624Y-50777111D01*
X92297391Y-50777111D01*
X92297391Y-50886532D01*
X92149624Y-50886532D01*
X92149624Y-51094431D01*
X92068292Y-51094431D01*
X92068292Y-50886532D01*
X91919914Y-50886532D01*
X91919914Y-50777111D01*
X92068292Y-50777111D01*
X92068292Y-50569211D01*
X92149624Y-50569211D01*
G37*
G36*
X92384586Y-50416022D02*
G01*
X92663145Y-50416022D01*
X92663145Y-50536385D01*
X92466652Y-50536385D01*
X92466652Y-50680855D01*
X92490412Y-50671549D01*
X92493030Y-50670939D01*
X92518065Y-50667769D01*
X92522950Y-50667690D01*
X92550554Y-50670034D01*
X92576124Y-50677067D01*
X92599659Y-50688788D01*
X92621158Y-50705197D01*
X92640623Y-50726294D01*
X92646659Y-50734368D01*
X92662762Y-50760715D01*
X92675533Y-50789875D01*
X92684972Y-50821848D01*
X92691080Y-50856633D01*
X92693857Y-50894232D01*
X92694042Y-50907390D01*
X92692234Y-50947673D01*
X92686812Y-50984663D01*
X92677774Y-51018359D01*
X92665122Y-51048761D01*
X92648854Y-51075869D01*
X92642629Y-51084173D01*
X92622081Y-51106252D01*
X92598905Y-51123763D01*
X92573102Y-51136706D01*
X92544672Y-51145081D01*
X92518973Y-51148571D01*
X92502678Y-51149142D01*
X92477845Y-51147988D01*
X92452806Y-51144525D01*
X92435999Y-51140935D01*
X92410606Y-51133626D01*
X92386966Y-51124899D01*
X92367367Y-51116315D01*
X92367367Y-50985010D01*
X92390748Y-51000985D01*
X92414653Y-51013349D01*
X92425863Y-51017837D01*
X92450371Y-51024921D01*
X92474880Y-51028394D01*
X92486191Y-51028779D01*
X92511386Y-51026845D01*
X92535881Y-51020045D01*
X92560283Y-51005086D01*
X92567646Y-50997833D01*
X92584613Y-50970681D01*
X92593750Y-50935643D01*
X92595490Y-50907903D01*
X92592214Y-50873090D01*
X92581169Y-50840965D01*
X92567768Y-50820879D01*
X92546615Y-50802190D01*
X92521103Y-50791259D01*
X92494129Y-50788053D01*
X92468659Y-50789856D01*
X92443081Y-50795266D01*
X92439663Y-50796260D01*
X92415717Y-50805011D01*
X92391537Y-50816904D01*
X92384586Y-50820879D01*
X92384586Y-50416022D01*
G37*
G36*
X92950985Y-51019204D02*
G01*
X93041233Y-50416022D01*
X93143327Y-50416022D01*
X93021327Y-51138200D01*
X92880888Y-51138200D01*
X92758888Y-50416022D01*
X92860982Y-50416022D01*
X92950985Y-51019204D01*
G37*
G36*
X94659998Y-50592932D02*
G01*
X94687498Y-50599985D01*
X94712646Y-50612327D01*
X94735440Y-50629958D01*
X94755882Y-50652878D01*
X94765221Y-50666322D01*
X94781615Y-50696408D01*
X94794616Y-50730244D01*
X94804226Y-50767830D01*
X94809643Y-50802018D01*
X94812705Y-50838810D01*
X94813459Y-50870119D01*
X94812281Y-50908994D01*
X94808748Y-50945265D01*
X94802860Y-50978932D01*
X94792685Y-51015893D01*
X94779118Y-51049104D01*
X94765221Y-51073915D01*
X94745956Y-51099480D01*
X94724337Y-51119756D01*
X94700366Y-51134743D01*
X94674042Y-51144440D01*
X94645366Y-51148848D01*
X94635284Y-51149142D01*
X94610640Y-51147305D01*
X94583209Y-51140252D01*
X94558113Y-51127911D01*
X94535352Y-51110279D01*
X94514928Y-51087359D01*
X94505591Y-51073915D01*
X94489198Y-51043829D01*
X94476196Y-51009993D01*
X94466586Y-50972407D01*
X94461169Y-50938219D01*
X94458107Y-50901427D01*
X94457353Y-50870119D01*
X94557981Y-50870119D01*
X94559263Y-50907924D01*
X94563771Y-50945193D01*
X94572587Y-50980069D01*
X94578497Y-50994927D01*
X94596157Y-51022223D01*
X94620211Y-51037577D01*
X94635284Y-51039721D01*
X94660346Y-51033422D01*
X94680942Y-51014524D01*
X94692193Y-50994927D01*
X94703076Y-50963491D01*
X94709425Y-50929317D01*
X94712327Y-50894263D01*
X94712831Y-50870119D01*
X94711541Y-50832313D01*
X94707006Y-50795044D01*
X94698138Y-50760168D01*
X94692193Y-50745310D01*
X94674573Y-50718014D01*
X94652488Y-50703316D01*
X94635284Y-50700516D01*
X94610354Y-50706815D01*
X94589786Y-50725713D01*
X94578497Y-50745310D01*
X94567678Y-50776746D01*
X94561367Y-50810920D01*
X94558482Y-50845974D01*
X94557981Y-50870119D01*
X94457353Y-50870119D01*
X94458531Y-50831243D01*
X94462064Y-50794972D01*
X94467952Y-50761306D01*
X94478127Y-50724344D01*
X94491694Y-50691133D01*
X94505591Y-50666322D01*
X94524848Y-50640757D01*
X94546441Y-50620481D01*
X94570369Y-50605494D01*
X94596633Y-50595797D01*
X94625232Y-50591389D01*
X94635284Y-50591096D01*
X94659998Y-50592932D01*
G37*
G36*
X94909324Y-51017837D02*
G01*
X95022653Y-51017837D01*
X95022653Y-50536385D01*
X94917140Y-50569211D01*
X94917140Y-50448848D01*
X95023264Y-50416022D01*
X95121205Y-50416022D01*
X95121205Y-51017837D01*
X95234534Y-51017837D01*
X95234534Y-51138200D01*
X94909324Y-51138200D01*
X94909324Y-51017837D01*
G37*
G36*
X95923222Y-50592932D02*
G01*
X95950722Y-50599985D01*
X95975870Y-50612327D01*
X95998664Y-50629958D01*
X96019106Y-50652878D01*
X96028445Y-50666322D01*
X96044839Y-50696408D01*
X96057840Y-50730244D01*
X96067450Y-50767830D01*
X96072867Y-50802018D01*
X96075929Y-50838810D01*
X96076683Y-50870119D01*
X96075505Y-50908994D01*
X96071972Y-50945265D01*
X96066084Y-50978932D01*
X96055909Y-51015893D01*
X96042342Y-51049104D01*
X96028445Y-51073915D01*
X96009180Y-51099480D01*
X95987561Y-51119756D01*
X95963590Y-51134743D01*
X95937266Y-51144440D01*
X95908590Y-51148848D01*
X95898508Y-51149142D01*
X95873864Y-51147305D01*
X95846433Y-51140252D01*
X95821337Y-51127911D01*
X95798576Y-51110279D01*
X95778152Y-51087359D01*
X95768815Y-51073915D01*
X95752422Y-51043829D01*
X95739420Y-51009993D01*
X95729810Y-50972407D01*
X95724393Y-50938219D01*
X95721331Y-50901427D01*
X95720577Y-50870119D01*
X95821205Y-50870119D01*
X95822487Y-50907924D01*
X95826995Y-50945193D01*
X95835811Y-50980069D01*
X95841721Y-50994927D01*
X95859381Y-51022223D01*
X95883435Y-51037577D01*
X95898508Y-51039721D01*
X95923570Y-51033422D01*
X95944166Y-51014524D01*
X95955417Y-50994927D01*
X95966300Y-50963491D01*
X95972649Y-50929317D01*
X95975551Y-50894263D01*
X95976055Y-50870119D01*
X95974765Y-50832313D01*
X95970230Y-50795044D01*
X95961362Y-50760168D01*
X95955417Y-50745310D01*
X95937797Y-50718014D01*
X95915712Y-50703316D01*
X95898508Y-50700516D01*
X95873578Y-50706815D01*
X95853010Y-50725713D01*
X95841721Y-50745310D01*
X95830902Y-50776746D01*
X95824591Y-50810920D01*
X95821706Y-50845974D01*
X95821205Y-50870119D01*
X95720577Y-50870119D01*
X95721755Y-50831243D01*
X95725288Y-50794972D01*
X95731176Y-50761306D01*
X95741351Y-50724344D01*
X95754918Y-50691133D01*
X95768815Y-50666322D01*
X95788072Y-50640757D01*
X95809665Y-50620481D01*
X95833593Y-50605494D01*
X95859857Y-50595797D01*
X95888456Y-50591389D01*
X95898508Y-50591096D01*
X95923222Y-50592932D01*
G37*
G36*
X96257056Y-51017837D02*
G01*
X96473089Y-51017837D01*
X96473089Y-51138200D01*
X96147391Y-51138200D01*
X96147391Y-51021598D01*
X96202346Y-50940216D01*
X96220033Y-50913981D01*
X96241508Y-50882054D01*
X96260575Y-50853615D01*
X96281023Y-50822974D01*
X96297708Y-50797783D01*
X96314745Y-50771675D01*
X96321170Y-50761553D01*
X96337183Y-50734336D01*
X96351716Y-50705036D01*
X96358295Y-50688548D01*
X96367157Y-50654905D01*
X96369652Y-50625460D01*
X96366226Y-50590177D01*
X96353758Y-50558440D01*
X96348892Y-50551601D01*
X96327384Y-50533720D01*
X96301426Y-50526082D01*
X96289907Y-50525443D01*
X96264899Y-50528126D01*
X96239376Y-50535424D01*
X96228969Y-50539463D01*
X96205366Y-50550596D01*
X96181070Y-50564719D01*
X96158382Y-50580153D01*
X96158382Y-50448848D01*
X96181201Y-50436493D01*
X96205944Y-50425217D01*
X96230312Y-50416364D01*
X96256352Y-50409488D01*
X96281534Y-50405785D01*
X96297845Y-50405080D01*
X96322447Y-50406395D01*
X96349718Y-50411444D01*
X96374534Y-50420280D01*
X96400381Y-50435374D01*
X96422886Y-50455622D01*
X96425828Y-50458936D01*
X96443958Y-50484296D01*
X96457635Y-50513404D01*
X96466859Y-50546258D01*
X96471630Y-50582860D01*
X96472357Y-50605457D01*
X96470416Y-50641842D01*
X96464596Y-50676199D01*
X96462220Y-50685642D01*
X96451586Y-50717447D01*
X96437513Y-50749259D01*
X96427416Y-50768904D01*
X96409830Y-50797609D01*
X96390126Y-50827318D01*
X96372323Y-50853388D01*
X96351414Y-50883498D01*
X96332450Y-50910495D01*
X96327398Y-50917648D01*
X96308922Y-50943889D01*
X96289925Y-50970913D01*
X96271253Y-50997534D01*
X96257056Y-51017837D01*
G37*
G36*
X99042600Y-51148135D02*
G01*
X98860858Y-51210051D01*
X98839658Y-51217256D01*
X98807881Y-51229578D01*
X98781122Y-51244792D01*
X98762008Y-51265505D01*
X98758105Y-51281125D01*
X98758105Y-51313365D01*
X99042600Y-51313365D01*
X99042600Y-51414726D01*
X98320422Y-51414726D01*
X98320422Y-51268425D01*
X98320537Y-51265616D01*
X98440785Y-51265616D01*
X98440785Y-51313365D01*
X98637743Y-51313365D01*
X98637743Y-51265616D01*
X98635035Y-51239855D01*
X98623759Y-51215124D01*
X98614833Y-51206143D01*
X98584357Y-51192587D01*
X98548706Y-51188228D01*
X98539093Y-51188069D01*
X98503702Y-51190576D01*
X98471365Y-51200762D01*
X98463524Y-51205898D01*
X98447203Y-51227900D01*
X98441340Y-51253113D01*
X98440785Y-51265616D01*
X98320537Y-51265616D01*
X98321629Y-51238875D01*
X98325247Y-51212051D01*
X98331279Y-51187951D01*
X98341702Y-51162629D01*
X98358252Y-51138047D01*
X98369833Y-51126397D01*
X98398417Y-51107537D01*
X98429791Y-51095455D01*
X98467106Y-51087498D01*
X98503817Y-51083962D01*
X98530715Y-51083289D01*
X98566160Y-51084899D01*
X98601462Y-51090561D01*
X98635008Y-51101633D01*
X98649539Y-51109056D01*
X98673652Y-51127367D01*
X98690853Y-51150091D01*
X98700423Y-51174315D01*
X98702369Y-51183184D01*
X98717737Y-51160499D01*
X98722373Y-51156928D01*
X98751539Y-51141966D01*
X98783580Y-51129695D01*
X99042600Y-51036882D01*
X99042600Y-51148135D01*
G37*
G36*
X98320422Y-50730602D02*
G01*
X98320422Y-50654642D01*
X99130136Y-50924653D01*
X99130136Y-51000490D01*
X98320422Y-50730602D01*
G37*
G36*
X98320422Y-50618251D02*
G01*
X98320422Y-50529590D01*
X98850087Y-50492832D01*
X98506438Y-50448624D01*
X98506438Y-50364482D01*
X98850087Y-50312947D01*
X98320422Y-50284004D01*
X98320422Y-50194733D01*
X99042600Y-50253840D01*
X99042600Y-50348240D01*
X98662533Y-50406614D01*
X99042600Y-50461324D01*
X99042600Y-50554992D01*
X98320422Y-50618251D01*
G37*
X98181600Y-50568251D02*
X98181600Y-50247177D01*
G36*
X114333400Y-51148135D02*
G01*
X114151658Y-51210051D01*
X114130458Y-51217256D01*
X114098681Y-51229578D01*
X114071922Y-51244792D01*
X114052808Y-51265505D01*
X114048905Y-51281125D01*
X114048905Y-51313365D01*
X114333400Y-51313365D01*
X114333400Y-51414726D01*
X113611222Y-51414726D01*
X113611222Y-51268425D01*
X113611337Y-51265616D01*
X113731585Y-51265616D01*
X113731585Y-51313365D01*
X113928543Y-51313365D01*
X113928543Y-51265616D01*
X113925835Y-51239855D01*
X113914559Y-51215124D01*
X113905633Y-51206143D01*
X113875157Y-51192587D01*
X113839506Y-51188228D01*
X113829893Y-51188069D01*
X113794502Y-51190576D01*
X113762165Y-51200762D01*
X113754324Y-51205898D01*
X113738003Y-51227900D01*
X113732140Y-51253113D01*
X113731585Y-51265616D01*
X113611337Y-51265616D01*
X113612429Y-51238875D01*
X113616047Y-51212051D01*
X113622079Y-51187951D01*
X113632502Y-51162629D01*
X113649052Y-51138047D01*
X113660633Y-51126397D01*
X113689217Y-51107537D01*
X113720591Y-51095455D01*
X113757906Y-51087498D01*
X113794617Y-51083962D01*
X113821515Y-51083289D01*
X113856960Y-51084899D01*
X113892262Y-51090561D01*
X113925808Y-51101633D01*
X113940339Y-51109056D01*
X113964452Y-51127367D01*
X113981653Y-51150091D01*
X113991223Y-51174315D01*
X113993169Y-51183184D01*
X114008537Y-51160499D01*
X114013173Y-51156928D01*
X114042339Y-51141966D01*
X114074380Y-51129695D01*
X114333400Y-51036882D01*
X114333400Y-51148135D01*
G37*
G36*
X114016934Y-50864203D02*
G01*
X114004065Y-50886923D01*
X113988357Y-50911000D01*
X113969666Y-50934695D01*
X113947825Y-50955978D01*
X113931107Y-50967884D01*
X113899875Y-50982181D01*
X113866598Y-50990520D01*
X113828426Y-50994571D01*
X113809889Y-50994995D01*
X113774689Y-50993428D01*
X113737344Y-50987638D01*
X113704008Y-50977583D01*
X113674681Y-50963262D01*
X113656187Y-50950420D01*
X113634403Y-50929270D01*
X113617970Y-50904930D01*
X113608142Y-50881527D01*
X113602246Y-50855780D01*
X113600280Y-50827688D01*
X113601843Y-50801144D01*
X113606021Y-50776842D01*
X113611393Y-50756980D01*
X113620189Y-50732719D01*
X113631530Y-50708631D01*
X113644048Y-50686882D01*
X113786296Y-50686882D01*
X113766016Y-50709429D01*
X113749373Y-50732236D01*
X113737398Y-50753194D01*
X113727188Y-50778296D01*
X113721690Y-50803226D01*
X113720643Y-50819751D01*
X113723528Y-50844915D01*
X113734187Y-50868196D01*
X113741159Y-50876171D01*
X113767976Y-50891417D01*
X113799973Y-50895710D01*
X113834376Y-50889609D01*
X113848871Y-50881544D01*
X113869216Y-50859501D01*
X113884394Y-50835350D01*
X113891613Y-50821949D01*
X113914523Y-50778229D01*
X113929343Y-50752755D01*
X113946126Y-50730401D01*
X113967711Y-50708675D01*
X113991860Y-50691025D01*
X113998298Y-50687249D01*
X114029698Y-50673140D01*
X114065425Y-50663648D01*
X114100816Y-50659088D01*
X114129603Y-50658062D01*
X114168200Y-50659676D01*
X114202949Y-50664519D01*
X114238629Y-50674250D01*
X114269072Y-50688375D01*
X114290999Y-50703979D01*
X114311784Y-50726259D01*
X114325536Y-50748928D01*
X114335538Y-50774894D01*
X114341008Y-50799051D01*
X114343873Y-50825498D01*
X114344342Y-50842465D01*
X114342705Y-50868689D01*
X114337796Y-50894971D01*
X114330493Y-50918913D01*
X114320552Y-50942617D01*
X114308040Y-50965796D01*
X114292956Y-50988451D01*
X114289631Y-50992919D01*
X114147384Y-50992919D01*
X114167646Y-50970325D01*
X114184770Y-50948156D01*
X114200118Y-50924023D01*
X114205172Y-50914517D01*
X114215090Y-50890863D01*
X114221756Y-50865036D01*
X114223979Y-50839412D01*
X114220709Y-50813681D01*
X114208629Y-50789695D01*
X114200727Y-50781404D01*
X114172816Y-50765925D01*
X114138187Y-50760786D01*
X114135587Y-50760766D01*
X114101003Y-50765631D01*
X114080535Y-50774566D01*
X114056991Y-50793894D01*
X114043092Y-50814377D01*
X114016934Y-50864203D01*
G37*
G36*
X114333400Y-50355811D02*
G01*
X114333400Y-50457172D01*
X113731585Y-50457172D01*
X113731585Y-50587353D01*
X113611222Y-50587353D01*
X113611222Y-50225630D01*
X113731585Y-50225630D01*
X113731585Y-50355811D01*
X114333400Y-50355811D01*
G37*
X113472400Y-51410400D02*
X113472400Y-50247176D01*
G36*
X102301585Y-51655293D02*
G01*
X102181222Y-51655293D01*
X102181222Y-51349989D01*
X102301585Y-51349989D01*
X102301585Y-51451961D01*
X102783037Y-51451961D01*
X102783037Y-51349989D01*
X102903400Y-51349989D01*
X102903400Y-51655293D01*
X102783037Y-51655293D01*
X102783037Y-51553321D01*
X102301585Y-51553321D01*
X102301585Y-51655293D01*
G37*
G36*
X102586990Y-50902149D02*
G01*
X102628704Y-50904284D01*
X102667624Y-50907843D01*
X102703749Y-50912825D01*
X102737080Y-50919231D01*
X102774815Y-50929239D01*
X102808183Y-50941472D01*
X102820308Y-50946988D01*
X102847398Y-50962255D01*
X102873845Y-50983402D01*
X102893680Y-51007630D01*
X102906903Y-51034942D01*
X102912872Y-51060056D01*
X102914342Y-51081688D01*
X102912046Y-51108448D01*
X102905159Y-51133084D01*
X102890833Y-51159846D01*
X102869896Y-51183551D01*
X102842347Y-51204199D01*
X102820308Y-51216266D01*
X102788686Y-51229354D01*
X102752698Y-51240223D01*
X102712344Y-51248874D01*
X102676917Y-51254198D01*
X102638696Y-51258102D01*
X102597681Y-51260586D01*
X102553871Y-51261651D01*
X102542482Y-51261695D01*
X102497896Y-51260986D01*
X102456121Y-51258856D01*
X102417155Y-51255307D01*
X102381001Y-51250338D01*
X102347656Y-51243950D01*
X102309928Y-51233968D01*
X102276590Y-51221767D01*
X102264485Y-51216266D01*
X102237346Y-51200970D01*
X102210851Y-51179812D01*
X102190979Y-51155598D01*
X102177732Y-51128327D01*
X102171752Y-51103266D01*
X102170280Y-51081688D01*
X102290643Y-51081688D01*
X102297674Y-51105920D01*
X102318765Y-51125216D01*
X102350141Y-51138475D01*
X102384474Y-51146275D01*
X102422036Y-51151273D01*
X102459819Y-51154198D01*
X102495244Y-51155678D01*
X102534251Y-51156287D01*
X102542482Y-51156305D01*
X102582106Y-51155869D01*
X102618166Y-51154563D01*
X102656733Y-51151847D01*
X102695239Y-51147094D01*
X102730691Y-51139572D01*
X102734481Y-51138475D01*
X102765857Y-51125216D01*
X102786948Y-51105920D01*
X102793979Y-51081688D01*
X102786948Y-51057333D01*
X102765857Y-51037999D01*
X102734481Y-51024780D01*
X102700170Y-51016926D01*
X102662661Y-51011894D01*
X102624950Y-51008949D01*
X102589603Y-51007459D01*
X102550692Y-51006846D01*
X102542482Y-51006828D01*
X102502759Y-51007266D01*
X102466617Y-51008581D01*
X102427975Y-51011316D01*
X102389410Y-51016102D01*
X102353931Y-51023675D01*
X102350141Y-51024780D01*
X102318765Y-51037999D01*
X102297674Y-51057333D01*
X102290643Y-51081688D01*
X102170280Y-51081688D01*
X102172580Y-51054862D01*
X102179480Y-51030176D01*
X102193831Y-51003378D01*
X102214806Y-50979663D01*
X102242405Y-50959031D01*
X102264485Y-50946988D01*
X102296066Y-50933866D01*
X102332038Y-50922967D01*
X102372401Y-50914293D01*
X102407853Y-50908955D01*
X102446116Y-50905040D01*
X102487189Y-50902549D01*
X102531072Y-50901482D01*
X102542482Y-50901437D01*
X102586990Y-50902149D01*
G37*
G36*
X102181222Y-50872250D02*
G01*
X102181222Y-50783590D01*
X102710887Y-50746831D01*
X102367238Y-50702624D01*
X102367238Y-50618482D01*
X102710887Y-50566947D01*
X102181222Y-50538004D01*
X102181222Y-50448733D01*
X102903400Y-50507840D01*
X102903400Y-50602240D01*
X102523333Y-50660614D01*
X102903400Y-50715324D01*
X102903400Y-50808991D01*
X102181222Y-50872250D01*
G37*
G36*
X102903400Y-50138911D02*
G01*
X102721658Y-50200827D01*
X102700458Y-50208032D01*
X102668681Y-50220354D01*
X102641922Y-50235568D01*
X102622808Y-50256281D01*
X102618905Y-50271901D01*
X102618905Y-50304141D01*
X102903400Y-50304141D01*
X102903400Y-50405502D01*
X102181222Y-50405502D01*
X102181222Y-50259201D01*
X102181337Y-50256392D01*
X102301585Y-50256392D01*
X102301585Y-50304141D01*
X102498543Y-50304141D01*
X102498543Y-50256392D01*
X102495835Y-50230631D01*
X102484559Y-50205900D01*
X102475633Y-50196919D01*
X102445157Y-50183363D01*
X102409506Y-50179004D01*
X102399893Y-50178845D01*
X102364502Y-50181352D01*
X102332165Y-50191538D01*
X102324324Y-50196674D01*
X102308003Y-50218676D01*
X102302140Y-50243889D01*
X102301585Y-50256392D01*
X102181337Y-50256392D01*
X102182429Y-50229651D01*
X102186047Y-50202827D01*
X102192079Y-50178727D01*
X102202502Y-50153405D01*
X102219052Y-50128823D01*
X102230633Y-50117173D01*
X102259217Y-50098313D01*
X102290591Y-50086231D01*
X102327906Y-50078274D01*
X102364617Y-50074738D01*
X102391515Y-50074065D01*
X102426960Y-50075675D01*
X102462262Y-50081337D01*
X102495808Y-50092409D01*
X102510339Y-50099832D01*
X102534452Y-50118143D01*
X102551653Y-50140867D01*
X102561223Y-50165091D01*
X102563169Y-50173960D01*
X102578537Y-50151275D01*
X102583173Y-50147704D01*
X102612339Y-50132742D01*
X102644380Y-50120471D01*
X102903400Y-50027658D01*
X102903400Y-50138911D01*
G37*
X102042400Y-51664400D02*
X102042400Y-50080102D01*
G36*
X103513099Y-50569742D02*
G01*
X103541217Y-50573701D01*
X103567138Y-50580299D01*
X103590860Y-50589537D01*
X103617421Y-50604796D01*
X103640548Y-50624179D01*
X103660240Y-50647685D01*
X103663766Y-50652881D01*
X103679703Y-50681843D01*
X103692939Y-50716047D01*
X103703474Y-50755493D01*
X103709957Y-50790825D01*
X103714711Y-50829513D01*
X103717737Y-50871555D01*
X103719033Y-50916953D01*
X103719087Y-50928827D01*
X103718601Y-50963886D01*
X103716440Y-51007705D01*
X103712550Y-51048180D01*
X103706932Y-51085310D01*
X103699584Y-51119095D01*
X103687969Y-51156623D01*
X103673653Y-51188925D01*
X103663766Y-51205798D01*
X103644761Y-51230228D01*
X103622321Y-51250518D01*
X103596447Y-51266666D01*
X103567138Y-51278674D01*
X103541217Y-51285299D01*
X103513099Y-51289274D01*
X103482782Y-51290600D01*
X103374216Y-51290600D01*
X103374216Y-51170237D01*
X103475577Y-51170237D01*
X103503054Y-51170237D01*
X103527586Y-51167610D01*
X103551587Y-51158178D01*
X103573442Y-51139366D01*
X103588295Y-51115355D01*
X103599408Y-51083117D01*
X103606527Y-51047037D01*
X103610695Y-51010263D01*
X103612803Y-50975496D01*
X103613672Y-50936980D01*
X103613696Y-50928827D01*
X103613076Y-50889816D01*
X103611216Y-50854529D01*
X103607346Y-50817098D01*
X103600574Y-50780206D01*
X103589858Y-50746979D01*
X103588295Y-50743496D01*
X103571283Y-50717049D01*
X103548822Y-50699257D01*
X103524283Y-50690709D01*
X103503054Y-50688785D01*
X103475577Y-50688785D01*
X103475577Y-51170237D01*
X103374216Y-51170237D01*
X103374216Y-50568422D01*
X103482782Y-50568422D01*
X103513099Y-50569742D01*
G37*
G36*
X103983907Y-50873668D02*
G01*
X103990441Y-50881297D01*
X104002004Y-50911976D01*
X104002775Y-50924211D01*
X103995837Y-50957582D01*
X103990441Y-50966782D01*
X103968642Y-50983131D01*
X103959911Y-50984221D01*
X103936143Y-50974604D01*
X103929624Y-50967124D01*
X103918061Y-50936510D01*
X103917290Y-50924211D01*
X103924228Y-50890519D01*
X103929624Y-50881297D01*
X103951286Y-50864948D01*
X103959911Y-50863858D01*
X103983907Y-50873668D01*
G37*
G36*
X103985464Y-50559743D02*
G01*
X104013365Y-50568430D01*
X104038252Y-50583633D01*
X104060125Y-50605351D01*
X104078984Y-50633586D01*
X104087283Y-50650146D01*
X104099456Y-50681404D01*
X104109566Y-50717262D01*
X104117612Y-50757719D01*
X104122564Y-50793397D01*
X104126195Y-50832019D01*
X104128506Y-50873585D01*
X104129496Y-50918094D01*
X104129537Y-50929682D01*
X104128877Y-50974847D01*
X104126896Y-51017080D01*
X104123595Y-51056379D01*
X104118974Y-51092744D01*
X104113032Y-51126177D01*
X104103747Y-51163843D01*
X104092400Y-51196926D01*
X104087283Y-51208876D01*
X104069931Y-51240368D01*
X104049565Y-51265344D01*
X104026185Y-51283805D01*
X103999791Y-51295750D01*
X103975494Y-51300727D01*
X103959911Y-51301542D01*
X103934428Y-51299275D01*
X103906596Y-51290572D01*
X103881760Y-51275341D01*
X103859921Y-51253582D01*
X103841079Y-51225296D01*
X103832782Y-51208705D01*
X103820609Y-51177369D01*
X103810500Y-51141492D01*
X103802453Y-51101074D01*
X103797502Y-51065469D01*
X103793871Y-51026958D01*
X103791560Y-50985541D01*
X103790569Y-50941217D01*
X103790528Y-50929682D01*
X103892500Y-50929682D01*
X103892893Y-50969023D01*
X103894074Y-51004875D01*
X103896530Y-51043291D01*
X103900827Y-51081759D01*
X103907628Y-51117348D01*
X103908620Y-51121168D01*
X103920608Y-51152814D01*
X103939842Y-51175318D01*
X103959911Y-51181179D01*
X103983684Y-51172740D01*
X104002065Y-51147423D01*
X104011324Y-51121168D01*
X104018430Y-51086696D01*
X104022982Y-51049206D01*
X104025647Y-51011627D01*
X104026995Y-50976473D01*
X104027550Y-50937829D01*
X104027566Y-50929682D01*
X104027169Y-50890242D01*
X104025980Y-50854308D01*
X104023505Y-50815816D01*
X104019175Y-50777289D01*
X104012323Y-50741674D01*
X104011324Y-50737854D01*
X103999376Y-50706207D01*
X103980096Y-50683703D01*
X103959911Y-50677843D01*
X103934537Y-50687747D01*
X103916625Y-50714471D01*
X103908620Y-50737854D01*
X103901567Y-50772347D01*
X103897049Y-50809891D01*
X103894404Y-50847542D01*
X103893066Y-50882775D01*
X103892515Y-50921513D01*
X103892500Y-50929682D01*
X103790528Y-50929682D01*
X103791188Y-50884554D01*
X103793169Y-50842348D01*
X103796470Y-50803065D01*
X103801092Y-50766705D01*
X103807034Y-50733267D01*
X103816318Y-50695579D01*
X103827665Y-50662458D01*
X103832782Y-50650488D01*
X103850126Y-50618880D01*
X103870466Y-50593811D01*
X103893803Y-50575282D01*
X103920137Y-50563293D01*
X103944371Y-50558298D01*
X103959911Y-50557480D01*
X103985464Y-50559743D01*
G37*
G36*
X104776323Y-50569742D02*
G01*
X104804441Y-50573701D01*
X104830362Y-50580299D01*
X104854084Y-50589537D01*
X104880645Y-50604796D01*
X104903772Y-50624179D01*
X104923464Y-50647685D01*
X104926990Y-50652881D01*
X104942927Y-50681843D01*
X104956163Y-50716047D01*
X104966698Y-50755493D01*
X104973181Y-50790825D01*
X104977935Y-50829513D01*
X104980961Y-50871555D01*
X104982257Y-50916953D01*
X104982311Y-50928827D01*
X104981825Y-50963886D01*
X104979664Y-51007705D01*
X104975774Y-51048180D01*
X104970156Y-51085310D01*
X104962808Y-51119095D01*
X104951193Y-51156623D01*
X104936877Y-51188925D01*
X104926990Y-51205798D01*
X104907985Y-51230228D01*
X104885545Y-51250518D01*
X104859671Y-51266666D01*
X104830362Y-51278674D01*
X104804441Y-51285299D01*
X104776323Y-51289274D01*
X104746006Y-51290600D01*
X104637440Y-51290600D01*
X104637440Y-51170237D01*
X104738801Y-51170237D01*
X104766278Y-51170237D01*
X104790810Y-51167610D01*
X104814811Y-51158178D01*
X104836666Y-51139366D01*
X104851519Y-51115355D01*
X104862632Y-51083117D01*
X104869751Y-51047037D01*
X104873919Y-51010263D01*
X104876027Y-50975496D01*
X104876896Y-50936980D01*
X104876920Y-50928827D01*
X104876300Y-50889816D01*
X104874440Y-50854529D01*
X104870570Y-50817098D01*
X104863798Y-50780206D01*
X104853082Y-50746979D01*
X104851519Y-50743496D01*
X104834507Y-50717049D01*
X104812046Y-50699257D01*
X104787507Y-50690709D01*
X104766278Y-50688785D01*
X104738801Y-50688785D01*
X104738801Y-51170237D01*
X104637440Y-51170237D01*
X104637440Y-50568422D01*
X104746006Y-50568422D01*
X104776323Y-50569742D01*
G37*
G36*
X105076100Y-51170237D02*
G01*
X105189429Y-51170237D01*
X105189429Y-50688785D01*
X105083916Y-50721611D01*
X105083916Y-50601248D01*
X105190040Y-50568422D01*
X105287981Y-50568422D01*
X105287981Y-51170237D01*
X105401310Y-51170237D01*
X105401310Y-51290600D01*
X105076100Y-51290600D01*
X105076100Y-51170237D01*
G37*
G36*
X106039547Y-50569742D02*
G01*
X106067665Y-50573701D01*
X106093586Y-50580299D01*
X106117308Y-50589537D01*
X106143869Y-50604796D01*
X106166996Y-50624179D01*
X106186688Y-50647685D01*
X106190214Y-50652881D01*
X106206151Y-50681843D01*
X106219387Y-50716047D01*
X106229922Y-50755493D01*
X106236405Y-50790825D01*
X106241159Y-50829513D01*
X106244185Y-50871555D01*
X106245481Y-50916953D01*
X106245535Y-50928827D01*
X106245049Y-50963886D01*
X106242888Y-51007705D01*
X106238998Y-51048180D01*
X106233380Y-51085310D01*
X106226032Y-51119095D01*
X106214417Y-51156623D01*
X106200101Y-51188925D01*
X106190214Y-51205798D01*
X106171209Y-51230228D01*
X106148769Y-51250518D01*
X106122895Y-51266666D01*
X106093586Y-51278674D01*
X106067665Y-51285299D01*
X106039547Y-51289274D01*
X106009230Y-51290600D01*
X105900664Y-51290600D01*
X105900664Y-51170237D01*
X106002025Y-51170237D01*
X106029502Y-51170237D01*
X106054034Y-51167610D01*
X106078035Y-51158178D01*
X106099890Y-51139366D01*
X106114743Y-51115355D01*
X106125856Y-51083117D01*
X106132975Y-51047037D01*
X106137143Y-51010263D01*
X106139251Y-50975496D01*
X106140120Y-50936980D01*
X106140144Y-50928827D01*
X106139524Y-50889816D01*
X106137664Y-50854529D01*
X106133794Y-50817098D01*
X106127022Y-50780206D01*
X106116306Y-50746979D01*
X106114743Y-50743496D01*
X106097731Y-50717049D01*
X106075270Y-50699257D01*
X106050731Y-50690709D01*
X106029502Y-50688785D01*
X106002025Y-50688785D01*
X106002025Y-51170237D01*
X105900664Y-51170237D01*
X105900664Y-50568422D01*
X106009230Y-50568422D01*
X106039547Y-50569742D01*
G37*
G36*
X106423832Y-51170237D02*
G01*
X106639865Y-51170237D01*
X106639865Y-51290600D01*
X106314167Y-51290600D01*
X106314167Y-51173998D01*
X106369122Y-51092616D01*
X106386809Y-51066381D01*
X106408284Y-51034454D01*
X106427351Y-51006015D01*
X106447799Y-50975374D01*
X106464484Y-50950183D01*
X106481521Y-50924075D01*
X106487946Y-50913953D01*
X106503959Y-50886736D01*
X106518492Y-50857436D01*
X106525071Y-50840948D01*
X106533933Y-50807305D01*
X106536428Y-50777860D01*
X106533002Y-50742577D01*
X106520534Y-50710840D01*
X106515668Y-50704001D01*
X106494160Y-50686120D01*
X106468202Y-50678482D01*
X106456683Y-50677843D01*
X106431675Y-50680526D01*
X106406152Y-50687824D01*
X106395745Y-50691863D01*
X106372142Y-50702996D01*
X106347846Y-50717119D01*
X106325158Y-50732553D01*
X106325158Y-50601248D01*
X106347977Y-50588893D01*
X106372720Y-50577617D01*
X106397088Y-50568764D01*
X106423128Y-50561888D01*
X106448310Y-50558185D01*
X106464621Y-50557480D01*
X106489223Y-50558795D01*
X106516494Y-50563844D01*
X106541310Y-50572680D01*
X106567157Y-50587774D01*
X106589662Y-50608022D01*
X106592604Y-50611336D01*
X106610734Y-50636696D01*
X106624411Y-50665804D01*
X106633635Y-50698658D01*
X106638406Y-50735260D01*
X106639133Y-50757857D01*
X106637192Y-50794242D01*
X106631372Y-50828599D01*
X106628996Y-50838042D01*
X106618362Y-50869847D01*
X106604289Y-50901659D01*
X106594192Y-50921304D01*
X106576606Y-50950009D01*
X106556902Y-50979718D01*
X106539099Y-51005788D01*
X106518190Y-51035898D01*
X106499226Y-51062895D01*
X106494174Y-51070048D01*
X106475698Y-51096289D01*
X106456701Y-51123313D01*
X106438029Y-51149934D01*
X106423832Y-51170237D01*
G37*
G36*
X107302771Y-50569742D02*
G01*
X107330889Y-50573701D01*
X107356810Y-50580299D01*
X107380532Y-50589537D01*
X107407093Y-50604796D01*
X107430220Y-50624179D01*
X107449912Y-50647685D01*
X107453438Y-50652881D01*
X107469375Y-50681843D01*
X107482611Y-50716047D01*
X107493146Y-50755493D01*
X107499629Y-50790825D01*
X107504383Y-50829513D01*
X107507409Y-50871555D01*
X107508705Y-50916953D01*
X107508759Y-50928827D01*
X107508273Y-50963886D01*
X107506112Y-51007705D01*
X107502222Y-51048180D01*
X107496604Y-51085310D01*
X107489256Y-51119095D01*
X107477641Y-51156623D01*
X107463325Y-51188925D01*
X107453438Y-51205798D01*
X107434433Y-51230228D01*
X107411993Y-51250518D01*
X107386119Y-51266666D01*
X107356810Y-51278674D01*
X107330889Y-51285299D01*
X107302771Y-51289274D01*
X107272454Y-51290600D01*
X107163888Y-51290600D01*
X107163888Y-51170237D01*
X107265249Y-51170237D01*
X107292726Y-51170237D01*
X107317258Y-51167610D01*
X107341259Y-51158178D01*
X107363114Y-51139366D01*
X107377967Y-51115355D01*
X107389080Y-51083117D01*
X107396199Y-51047037D01*
X107400367Y-51010263D01*
X107402475Y-50975496D01*
X107403344Y-50936980D01*
X107403368Y-50928827D01*
X107402748Y-50889816D01*
X107400888Y-50854529D01*
X107397018Y-50817098D01*
X107390246Y-50780206D01*
X107379530Y-50746979D01*
X107377967Y-50743496D01*
X107360955Y-50717049D01*
X107338494Y-50699257D01*
X107313955Y-50690709D01*
X107292726Y-50688785D01*
X107265249Y-50688785D01*
X107265249Y-51170237D01*
X107163888Y-51170237D01*
X107163888Y-50568422D01*
X107272454Y-50568422D01*
X107302771Y-50569742D01*
G37*
G36*
X107726502Y-50962337D02*
G01*
X107672280Y-50962337D01*
X107672280Y-50841974D01*
X107726502Y-50841974D01*
X107752491Y-50839041D01*
X107776734Y-50828204D01*
X107785120Y-50821116D01*
X107801319Y-50794129D01*
X107805881Y-50762302D01*
X107800690Y-50726869D01*
X107785120Y-50700240D01*
X107761900Y-50684164D01*
X107735699Y-50678193D01*
X107726502Y-50677843D01*
X107700489Y-50680003D01*
X107674911Y-50685876D01*
X107664708Y-50689127D01*
X107639635Y-50698904D01*
X107616048Y-50710401D01*
X107596320Y-50721611D01*
X107596320Y-50590306D01*
X107620538Y-50580264D01*
X107644497Y-50571999D01*
X107666052Y-50566029D01*
X107691411Y-50560819D01*
X107716014Y-50558014D01*
X107731997Y-50557480D01*
X107756464Y-50558682D01*
X107783517Y-50563298D01*
X107808055Y-50571377D01*
X107833503Y-50585177D01*
X107855526Y-50603690D01*
X107858393Y-50606720D01*
X107878215Y-50633594D01*
X107892373Y-50665149D01*
X107900868Y-50701383D01*
X107903656Y-50736928D01*
X107903700Y-50742299D01*
X107901148Y-50779688D01*
X107893491Y-50812570D01*
X107879174Y-50843533D01*
X107877566Y-50846078D01*
X107859114Y-50868574D01*
X107836274Y-50885628D01*
X107811965Y-50896322D01*
X107803072Y-50898907D01*
X107828916Y-50907819D01*
X107851493Y-50921048D01*
X107872988Y-50941090D01*
X107886847Y-50960456D01*
X107900838Y-50989861D01*
X107910250Y-51024025D01*
X107914772Y-51058390D01*
X107915790Y-51086632D01*
X107914111Y-51124185D01*
X107909075Y-51158239D01*
X107898956Y-51193548D01*
X107884268Y-51224096D01*
X107868040Y-51246489D01*
X107845081Y-51267940D01*
X107822109Y-51282133D01*
X107796097Y-51292456D01*
X107767046Y-51298907D01*
X107740514Y-51301327D01*
X107729310Y-51301542D01*
X107702756Y-51300531D01*
X107676490Y-51297501D01*
X107652862Y-51292993D01*
X107627393Y-51286345D01*
X107602703Y-51277918D01*
X107580933Y-51268715D01*
X107580933Y-51137410D01*
X107603704Y-51150911D01*
X107627687Y-51162028D01*
X107650542Y-51170066D01*
X107676765Y-51176393D01*
X107701380Y-51179866D01*
X107726734Y-51181168D01*
X107729310Y-51181179D01*
X107755584Y-51177967D01*
X107779638Y-51167135D01*
X107794523Y-51153994D01*
X107810969Y-51126426D01*
X107818205Y-51091593D01*
X107818581Y-51080306D01*
X107815738Y-51044548D01*
X107806153Y-51012451D01*
X107794523Y-50993112D01*
X107773681Y-50974358D01*
X107749657Y-50964771D01*
X107726502Y-50962337D01*
G37*
G36*
X108565995Y-50569742D02*
G01*
X108594113Y-50573701D01*
X108620034Y-50580299D01*
X108643756Y-50589537D01*
X108670317Y-50604796D01*
X108693444Y-50624179D01*
X108713136Y-50647685D01*
X108716662Y-50652881D01*
X108732599Y-50681843D01*
X108745835Y-50716047D01*
X108756370Y-50755493D01*
X108762853Y-50790825D01*
X108767607Y-50829513D01*
X108770633Y-50871555D01*
X108771929Y-50916953D01*
X108771983Y-50928827D01*
X108771497Y-50963886D01*
X108769336Y-51007705D01*
X108765446Y-51048180D01*
X108759828Y-51085310D01*
X108752480Y-51119095D01*
X108740865Y-51156623D01*
X108726549Y-51188925D01*
X108716662Y-51205798D01*
X108697657Y-51230228D01*
X108675217Y-51250518D01*
X108649343Y-51266666D01*
X108620034Y-51278674D01*
X108594113Y-51285299D01*
X108565995Y-51289274D01*
X108535678Y-51290600D01*
X108427112Y-51290600D01*
X108427112Y-51170237D01*
X108528473Y-51170237D01*
X108555950Y-51170237D01*
X108580482Y-51167610D01*
X108604483Y-51158178D01*
X108626338Y-51139366D01*
X108641191Y-51115355D01*
X108652304Y-51083117D01*
X108659423Y-51047037D01*
X108663591Y-51010263D01*
X108665699Y-50975496D01*
X108666568Y-50936980D01*
X108666592Y-50928827D01*
X108665972Y-50889816D01*
X108664112Y-50854529D01*
X108660242Y-50817098D01*
X108653470Y-50780206D01*
X108642754Y-50746979D01*
X108641191Y-50743496D01*
X108624179Y-50717049D01*
X108601718Y-50699257D01*
X108577179Y-50690709D01*
X108555950Y-50688785D01*
X108528473Y-50688785D01*
X108528473Y-51170237D01*
X108427112Y-51170237D01*
X108427112Y-50568422D01*
X108535678Y-50568422D01*
X108565995Y-50569742D01*
G37*
G36*
X109136760Y-51017048D02*
G01*
X109193058Y-51017048D01*
X109193058Y-51137410D01*
X109136760Y-51137410D01*
X109136760Y-51290600D01*
X109039551Y-51290600D01*
X109039551Y-51137410D01*
X108836219Y-51137410D01*
X108836219Y-51017048D01*
X108910103Y-51017048D01*
X109039551Y-51017048D01*
X109039551Y-50728792D01*
X108910103Y-51017048D01*
X108836219Y-51017048D01*
X108836219Y-50998412D01*
X109030636Y-50568422D01*
X109136760Y-50568422D01*
X109136760Y-51017048D01*
G37*
G36*
X109829219Y-50569742D02*
G01*
X109857337Y-50573701D01*
X109883258Y-50580299D01*
X109906980Y-50589537D01*
X109933541Y-50604796D01*
X109956668Y-50624179D01*
X109976360Y-50647685D01*
X109979886Y-50652881D01*
X109995823Y-50681843D01*
X110009059Y-50716047D01*
X110019594Y-50755493D01*
X110026077Y-50790825D01*
X110030831Y-50829513D01*
X110033857Y-50871555D01*
X110035153Y-50916953D01*
X110035207Y-50928827D01*
X110034721Y-50963886D01*
X110032560Y-51007705D01*
X110028670Y-51048180D01*
X110023052Y-51085310D01*
X110015704Y-51119095D01*
X110004089Y-51156623D01*
X109989773Y-51188925D01*
X109979886Y-51205798D01*
X109960881Y-51230228D01*
X109938441Y-51250518D01*
X109912567Y-51266666D01*
X109883258Y-51278674D01*
X109857337Y-51285299D01*
X109829219Y-51289274D01*
X109798902Y-51290600D01*
X109690336Y-51290600D01*
X109690336Y-51170237D01*
X109791697Y-51170237D01*
X109819174Y-51170237D01*
X109843706Y-51167610D01*
X109867707Y-51158178D01*
X109889562Y-51139366D01*
X109904415Y-51115355D01*
X109915528Y-51083117D01*
X109922647Y-51047037D01*
X109926815Y-51010263D01*
X109928923Y-50975496D01*
X109929792Y-50936980D01*
X109929816Y-50928827D01*
X109929196Y-50889816D01*
X109927336Y-50854529D01*
X109923466Y-50817098D01*
X109916694Y-50780206D01*
X109905978Y-50746979D01*
X109904415Y-50743496D01*
X109887403Y-50717049D01*
X109864942Y-50699257D01*
X109840403Y-50690709D01*
X109819174Y-50688785D01*
X109791697Y-50688785D01*
X109791697Y-51170237D01*
X109690336Y-51170237D01*
X109690336Y-50568422D01*
X109798902Y-50568422D01*
X109829219Y-50569742D01*
G37*
G36*
X110130706Y-50568422D02*
G01*
X110409265Y-50568422D01*
X110409265Y-50688785D01*
X110212772Y-50688785D01*
X110212772Y-50833255D01*
X110236532Y-50823949D01*
X110239150Y-50823339D01*
X110264185Y-50820169D01*
X110269070Y-50820090D01*
X110296674Y-50822434D01*
X110322244Y-50829467D01*
X110345779Y-50841188D01*
X110367278Y-50857597D01*
X110386743Y-50878694D01*
X110392779Y-50886768D01*
X110408882Y-50913115D01*
X110421653Y-50942275D01*
X110431092Y-50974248D01*
X110437200Y-51009033D01*
X110439977Y-51046632D01*
X110440162Y-51059790D01*
X110438354Y-51100073D01*
X110432932Y-51137063D01*
X110423894Y-51170759D01*
X110411242Y-51201161D01*
X110394975Y-51228269D01*
X110388749Y-51236573D01*
X110368201Y-51258652D01*
X110345025Y-51276163D01*
X110319222Y-51289106D01*
X110290792Y-51297481D01*
X110265093Y-51300971D01*
X110248798Y-51301542D01*
X110223965Y-51300388D01*
X110198926Y-51296925D01*
X110182119Y-51293335D01*
X110156726Y-51286026D01*
X110133086Y-51277299D01*
X110113487Y-51268715D01*
X110113487Y-51137410D01*
X110136868Y-51153385D01*
X110160773Y-51165749D01*
X110171983Y-51170237D01*
X110196491Y-51177321D01*
X110221000Y-51180794D01*
X110232311Y-51181179D01*
X110257506Y-51179245D01*
X110282001Y-51172445D01*
X110306403Y-51157486D01*
X110313766Y-51150233D01*
X110330733Y-51123081D01*
X110339870Y-51088043D01*
X110341610Y-51060303D01*
X110338334Y-51025490D01*
X110327289Y-50993365D01*
X110313888Y-50973279D01*
X110292735Y-50954590D01*
X110267223Y-50943659D01*
X110240249Y-50940453D01*
X110214779Y-50942256D01*
X110189201Y-50947666D01*
X110185783Y-50948660D01*
X110161837Y-50957411D01*
X110137658Y-50969304D01*
X110130706Y-50973279D01*
X110130706Y-50568422D01*
G37*
G36*
X111092443Y-50569742D02*
G01*
X111120561Y-50573701D01*
X111146482Y-50580299D01*
X111170204Y-50589537D01*
X111196765Y-50604796D01*
X111219892Y-50624179D01*
X111239584Y-50647685D01*
X111243110Y-50652881D01*
X111259047Y-50681843D01*
X111272283Y-50716047D01*
X111282818Y-50755493D01*
X111289301Y-50790825D01*
X111294055Y-50829513D01*
X111297081Y-50871555D01*
X111298377Y-50916953D01*
X111298431Y-50928827D01*
X111297945Y-50963886D01*
X111295784Y-51007705D01*
X111291894Y-51048180D01*
X111286276Y-51085310D01*
X111278928Y-51119095D01*
X111267313Y-51156623D01*
X111252997Y-51188925D01*
X111243110Y-51205798D01*
X111224105Y-51230228D01*
X111201665Y-51250518D01*
X111175791Y-51266666D01*
X111146482Y-51278674D01*
X111120561Y-51285299D01*
X111092443Y-51289274D01*
X111062126Y-51290600D01*
X110953560Y-51290600D01*
X110953560Y-51170237D01*
X111054921Y-51170237D01*
X111082398Y-51170237D01*
X111106930Y-51167610D01*
X111130931Y-51158178D01*
X111152786Y-51139366D01*
X111167639Y-51115355D01*
X111178752Y-51083117D01*
X111185871Y-51047037D01*
X111190039Y-51010263D01*
X111192147Y-50975496D01*
X111193016Y-50936980D01*
X111193040Y-50928827D01*
X111192420Y-50889816D01*
X111190560Y-50854529D01*
X111186690Y-50817098D01*
X111179918Y-50780206D01*
X111169202Y-50746979D01*
X111167639Y-50743496D01*
X111150627Y-50717049D01*
X111128166Y-50699257D01*
X111103627Y-50690709D01*
X111082398Y-50688785D01*
X111054921Y-50688785D01*
X111054921Y-51170237D01*
X110953560Y-51170237D01*
X110953560Y-50568422D01*
X111062126Y-50568422D01*
X111092443Y-50569742D01*
G37*
G36*
X111604467Y-50559532D02*
G01*
X111629624Y-50565687D01*
X111653774Y-50575184D01*
X111678139Y-50588287D01*
X111681404Y-50590306D01*
X111681404Y-50721611D01*
X111659739Y-50701643D01*
X111637219Y-50685187D01*
X111629380Y-50680579D01*
X111604956Y-50670320D01*
X111581509Y-50666901D01*
X111555672Y-50670096D01*
X111530530Y-50681328D01*
X111509540Y-50700648D01*
X111497855Y-50718021D01*
X111483876Y-50750644D01*
X111475084Y-50786136D01*
X111470195Y-50822206D01*
X111468088Y-50856847D01*
X111467814Y-50869158D01*
X111484885Y-50844377D01*
X111505874Y-50826132D01*
X111508969Y-50824193D01*
X111532664Y-50813908D01*
X111557681Y-50809515D01*
X111568075Y-50809148D01*
X111592975Y-50811324D01*
X111619214Y-50819362D01*
X111642426Y-50833324D01*
X111662611Y-50853209D01*
X111675176Y-50871039D01*
X111689927Y-50900512D01*
X111701055Y-50934927D01*
X111707710Y-50968358D01*
X111711702Y-51005420D01*
X111713033Y-51046112D01*
X111711996Y-51082813D01*
X111708883Y-51116835D01*
X111702409Y-51154123D01*
X111692946Y-51187552D01*
X111680496Y-51217122D01*
X111670535Y-51234692D01*
X111650342Y-51260740D01*
X111626841Y-51280390D01*
X111600033Y-51293642D01*
X111574421Y-51299910D01*
X111551223Y-51301542D01*
X111523166Y-51299396D01*
X111497613Y-51292960D01*
X111470256Y-51279572D01*
X111446505Y-51260005D01*
X111426361Y-51234260D01*
X111414935Y-51213663D01*
X111402727Y-51183559D01*
X111392588Y-51148170D01*
X111384519Y-51107497D01*
X111379553Y-51071154D01*
X111378119Y-51055516D01*
X111480758Y-51055516D01*
X111482130Y-51090369D01*
X111487532Y-51126281D01*
X111498100Y-51157072D01*
X111516265Y-51181031D01*
X111540415Y-51191573D01*
X111548414Y-51192121D01*
X111572685Y-51186336D01*
X111593188Y-51167169D01*
X111599094Y-51157072D01*
X111609885Y-51126281D01*
X111615401Y-51090369D01*
X111616802Y-51055516D01*
X111615401Y-51020732D01*
X111609885Y-50984830D01*
X111599094Y-50953960D01*
X111580678Y-50929767D01*
X111556418Y-50919122D01*
X111548414Y-50918569D01*
X111524203Y-50924381D01*
X111503900Y-50943642D01*
X111498100Y-50953789D01*
X111486872Y-50987486D01*
X111481842Y-51024153D01*
X111480758Y-51055516D01*
X111378119Y-51055516D01*
X111375911Y-51031429D01*
X111373593Y-50988322D01*
X111372724Y-50953772D01*
X111372559Y-50929682D01*
X111373370Y-50884554D01*
X111375803Y-50842348D01*
X111379858Y-50803065D01*
X111385534Y-50766705D01*
X111392833Y-50733267D01*
X111404237Y-50695579D01*
X111418176Y-50662458D01*
X111424460Y-50650488D01*
X111441944Y-50623694D01*
X111461956Y-50601441D01*
X111484496Y-50583729D01*
X111509564Y-50570559D01*
X111537160Y-50561931D01*
X111567285Y-50557843D01*
X111580043Y-50557480D01*
X111604467Y-50559532D01*
G37*
G36*
X112355667Y-50569742D02*
G01*
X112383785Y-50573701D01*
X112409706Y-50580299D01*
X112433428Y-50589537D01*
X112459989Y-50604796D01*
X112483116Y-50624179D01*
X112502808Y-50647685D01*
X112506334Y-50652881D01*
X112522271Y-50681843D01*
X112535507Y-50716047D01*
X112546042Y-50755493D01*
X112552525Y-50790825D01*
X112557279Y-50829513D01*
X112560305Y-50871555D01*
X112561601Y-50916953D01*
X112561655Y-50928827D01*
X112561169Y-50963886D01*
X112559008Y-51007705D01*
X112555118Y-51048180D01*
X112549500Y-51085310D01*
X112542152Y-51119095D01*
X112530537Y-51156623D01*
X112516221Y-51188925D01*
X112506334Y-51205798D01*
X112487329Y-51230228D01*
X112464889Y-51250518D01*
X112439015Y-51266666D01*
X112409706Y-51278674D01*
X112383785Y-51285299D01*
X112355667Y-51289274D01*
X112325350Y-51290600D01*
X112216784Y-51290600D01*
X112216784Y-51170237D01*
X112318145Y-51170237D01*
X112345622Y-51170237D01*
X112370154Y-51167610D01*
X112394155Y-51158178D01*
X112416010Y-51139366D01*
X112430863Y-51115355D01*
X112441976Y-51083117D01*
X112449095Y-51047037D01*
X112453263Y-51010263D01*
X112455371Y-50975496D01*
X112456240Y-50936980D01*
X112456264Y-50928827D01*
X112455644Y-50889816D01*
X112453784Y-50854529D01*
X112449914Y-50817098D01*
X112443142Y-50780206D01*
X112432426Y-50746979D01*
X112430863Y-50743496D01*
X112413851Y-50717049D01*
X112391390Y-50699257D01*
X112366851Y-50690709D01*
X112345622Y-50688785D01*
X112318145Y-50688785D01*
X112318145Y-51170237D01*
X112216784Y-51170237D01*
X112216784Y-50568422D01*
X112325350Y-50568422D01*
X112355667Y-50569742D01*
G37*
G36*
X112637248Y-50568422D02*
G01*
X112961481Y-50568422D01*
X112961481Y-50669466D01*
X112787702Y-51290600D01*
X112684265Y-51290600D01*
X112851205Y-50688785D01*
X112637248Y-50688785D01*
X112637248Y-50568422D01*
G37*
D11*
X123199636Y-63968847D02*
X123199636Y-64206942D01*
X122961541Y-64111704D02*
X123199636Y-64206942D01*
X123199636Y-64206942D02*
X123437731Y-64111704D01*
X123056779Y-64397418D02*
X123199636Y-64206942D01*
X123199636Y-64206942D02*
X123342493Y-64397418D01*
X123818684Y-63968847D02*
X123818684Y-64778370D01*
X123818684Y-64778370D02*
X123866303Y-64873608D01*
X123866303Y-64873608D02*
X123913922Y-64921228D01*
X123913922Y-64921228D02*
X124009160Y-64968847D01*
X124009160Y-64968847D02*
X124199636Y-64968847D01*
X124199636Y-64968847D02*
X124294874Y-64921228D01*
X124294874Y-64921228D02*
X124342493Y-64873608D01*
X124342493Y-64873608D02*
X124390112Y-64778370D01*
X124390112Y-64778370D02*
X124390112Y-63968847D01*
X124866303Y-64302180D02*
X124866303Y-64968847D01*
X124866303Y-64397418D02*
X124913922Y-64349799D01*
X124913922Y-64349799D02*
X125009160Y-64302180D01*
X125009160Y-64302180D02*
X125152017Y-64302180D01*
X125152017Y-64302180D02*
X125247255Y-64349799D01*
X125247255Y-64349799D02*
X125294874Y-64445037D01*
X125294874Y-64445037D02*
X125294874Y-64968847D01*
X125771065Y-64968847D02*
X125771065Y-64302180D01*
X125771065Y-63968847D02*
X125723446Y-64016466D01*
X125723446Y-64016466D02*
X125771065Y-64064085D01*
X125771065Y-64064085D02*
X125818684Y-64016466D01*
X125818684Y-64016466D02*
X125771065Y-63968847D01*
X125771065Y-63968847D02*
X125771065Y-64064085D01*
X126675826Y-64921228D02*
X126580588Y-64968847D01*
X126580588Y-64968847D02*
X126390112Y-64968847D01*
X126390112Y-64968847D02*
X126294874Y-64921228D01*
X126294874Y-64921228D02*
X126247255Y-64873608D01*
X126247255Y-64873608D02*
X126199636Y-64778370D01*
X126199636Y-64778370D02*
X126199636Y-64492656D01*
X126199636Y-64492656D02*
X126247255Y-64397418D01*
X126247255Y-64397418D02*
X126294874Y-64349799D01*
X126294874Y-64349799D02*
X126390112Y-64302180D01*
X126390112Y-64302180D02*
X126580588Y-64302180D01*
X126580588Y-64302180D02*
X126675826Y-64349799D01*
X127247255Y-64968847D02*
X127152017Y-64921228D01*
X127152017Y-64921228D02*
X127104398Y-64873608D01*
X127104398Y-64873608D02*
X127056779Y-64778370D01*
X127056779Y-64778370D02*
X127056779Y-64492656D01*
X127056779Y-64492656D02*
X127104398Y-64397418D01*
X127104398Y-64397418D02*
X127152017Y-64349799D01*
X127152017Y-64349799D02*
X127247255Y-64302180D01*
X127247255Y-64302180D02*
X127390112Y-64302180D01*
X127390112Y-64302180D02*
X127485350Y-64349799D01*
X127485350Y-64349799D02*
X127532969Y-64397418D01*
X127532969Y-64397418D02*
X127580588Y-64492656D01*
X127580588Y-64492656D02*
X127580588Y-64778370D01*
X127580588Y-64778370D02*
X127532969Y-64873608D01*
X127532969Y-64873608D02*
X127485350Y-64921228D01*
X127485350Y-64921228D02*
X127390112Y-64968847D01*
X127390112Y-64968847D02*
X127247255Y-64968847D01*
X128009160Y-64968847D02*
X128009160Y-64302180D01*
X128009160Y-64397418D02*
X128056779Y-64349799D01*
X128056779Y-64349799D02*
X128152017Y-64302180D01*
X128152017Y-64302180D02*
X128294874Y-64302180D01*
X128294874Y-64302180D02*
X128390112Y-64349799D01*
X128390112Y-64349799D02*
X128437731Y-64445037D01*
X128437731Y-64445037D02*
X128437731Y-64968847D01*
X128437731Y-64445037D02*
X128485350Y-64349799D01*
X128485350Y-64349799D02*
X128580588Y-64302180D01*
X128580588Y-64302180D02*
X128723445Y-64302180D01*
X128723445Y-64302180D02*
X128818684Y-64349799D01*
X128818684Y-64349799D02*
X128866303Y-64445037D01*
X128866303Y-64445037D02*
X128866303Y-64968847D01*
X129342493Y-64302180D02*
X129342493Y-65302180D01*
X129342493Y-64349799D02*
X129437731Y-64302180D01*
X129437731Y-64302180D02*
X129628207Y-64302180D01*
X129628207Y-64302180D02*
X129723445Y-64349799D01*
X129723445Y-64349799D02*
X129771064Y-64397418D01*
X129771064Y-64397418D02*
X129818683Y-64492656D01*
X129818683Y-64492656D02*
X129818683Y-64778370D01*
X129818683Y-64778370D02*
X129771064Y-64873608D01*
X129771064Y-64873608D02*
X129723445Y-64921228D01*
X129723445Y-64921228D02*
X129628207Y-64968847D01*
X129628207Y-64968847D02*
X129437731Y-64968847D01*
X129437731Y-64968847D02*
X129342493Y-64921228D01*
X130913922Y-64302180D02*
X131152017Y-64968847D01*
X131152017Y-64968847D02*
X131390112Y-64302180D01*
X131675827Y-63968847D02*
X132294874Y-63968847D01*
X132294874Y-63968847D02*
X131961541Y-64349799D01*
X131961541Y-64349799D02*
X132104398Y-64349799D01*
X132104398Y-64349799D02*
X132199636Y-64397418D01*
X132199636Y-64397418D02*
X132247255Y-64445037D01*
X132247255Y-64445037D02*
X132294874Y-64540275D01*
X132294874Y-64540275D02*
X132294874Y-64778370D01*
X132294874Y-64778370D02*
X132247255Y-64873608D01*
X132247255Y-64873608D02*
X132199636Y-64921228D01*
X132199636Y-64921228D02*
X132104398Y-64968847D01*
X132104398Y-64968847D02*
X131818684Y-64968847D01*
X131818684Y-64968847D02*
X131723446Y-64921228D01*
X131723446Y-64921228D02*
X131675827Y-64873608D01*
X132866303Y-63968847D02*
X132866303Y-64206942D01*
X132628208Y-64111704D02*
X132866303Y-64206942D01*
X132866303Y-64206942D02*
X133104398Y-64111704D01*
X132723446Y-64397418D02*
X132866303Y-64206942D01*
X132866303Y-64206942D02*
X133009160Y-64397418D01*
X123056779Y-66578791D02*
X123056779Y-65578791D01*
X123056779Y-65578791D02*
X123390112Y-66293076D01*
X123390112Y-66293076D02*
X123723445Y-65578791D01*
X123723445Y-65578791D02*
X123723445Y-66578791D01*
X124580588Y-66531172D02*
X124485350Y-66578791D01*
X124485350Y-66578791D02*
X124294874Y-66578791D01*
X124294874Y-66578791D02*
X124199636Y-66531172D01*
X124199636Y-66531172D02*
X124152017Y-66435933D01*
X124152017Y-66435933D02*
X124152017Y-66054981D01*
X124152017Y-66054981D02*
X124199636Y-65959743D01*
X124199636Y-65959743D02*
X124294874Y-65912124D01*
X124294874Y-65912124D02*
X124485350Y-65912124D01*
X124485350Y-65912124D02*
X124580588Y-65959743D01*
X124580588Y-65959743D02*
X124628207Y-66054981D01*
X124628207Y-66054981D02*
X124628207Y-66150219D01*
X124628207Y-66150219D02*
X124152017Y-66245457D01*
X124961541Y-65912124D02*
X125485350Y-65912124D01*
X125485350Y-65912124D02*
X124961541Y-66578791D01*
X124961541Y-66578791D02*
X125485350Y-66578791D01*
X125771065Y-65912124D02*
X126294874Y-65912124D01*
X126294874Y-65912124D02*
X125771065Y-66578791D01*
X125771065Y-66578791D02*
X126294874Y-66578791D01*
X127104398Y-66578791D02*
X127104398Y-66054981D01*
X127104398Y-66054981D02*
X127056779Y-65959743D01*
X127056779Y-65959743D02*
X126961541Y-65912124D01*
X126961541Y-65912124D02*
X126771065Y-65912124D01*
X126771065Y-65912124D02*
X126675827Y-65959743D01*
X127104398Y-66531172D02*
X127009160Y-66578791D01*
X127009160Y-66578791D02*
X126771065Y-66578791D01*
X126771065Y-66578791D02*
X126675827Y-66531172D01*
X126675827Y-66531172D02*
X126628208Y-66435933D01*
X126628208Y-66435933D02*
X126628208Y-66340695D01*
X126628208Y-66340695D02*
X126675827Y-66245457D01*
X126675827Y-66245457D02*
X126771065Y-66197838D01*
X126771065Y-66197838D02*
X127009160Y-66197838D01*
X127009160Y-66197838D02*
X127104398Y-66150219D01*
X127580589Y-65912124D02*
X127580589Y-66578791D01*
X127580589Y-66007362D02*
X127628208Y-65959743D01*
X127628208Y-65959743D02*
X127723446Y-65912124D01*
X127723446Y-65912124D02*
X127866303Y-65912124D01*
X127866303Y-65912124D02*
X127961541Y-65959743D01*
X127961541Y-65959743D02*
X128009160Y-66054981D01*
X128009160Y-66054981D02*
X128009160Y-66578791D01*
X128485351Y-66578791D02*
X128485351Y-65912124D01*
X128485351Y-65578791D02*
X128437732Y-65626410D01*
X128437732Y-65626410D02*
X128485351Y-65674029D01*
X128485351Y-65674029D02*
X128532970Y-65626410D01*
X128532970Y-65626410D02*
X128485351Y-65578791D01*
X128485351Y-65578791D02*
X128485351Y-65674029D01*
X128961541Y-65912124D02*
X128961541Y-66578791D01*
X128961541Y-66007362D02*
X129009160Y-65959743D01*
X129009160Y-65959743D02*
X129104398Y-65912124D01*
X129104398Y-65912124D02*
X129247255Y-65912124D01*
X129247255Y-65912124D02*
X129342493Y-65959743D01*
X129342493Y-65959743D02*
X129390112Y-66054981D01*
X129390112Y-66054981D02*
X129390112Y-66578791D01*
X130247255Y-66531172D02*
X130152017Y-66578791D01*
X130152017Y-66578791D02*
X129961541Y-66578791D01*
X129961541Y-66578791D02*
X129866303Y-66531172D01*
X129866303Y-66531172D02*
X129818684Y-66435933D01*
X129818684Y-66435933D02*
X129818684Y-66054981D01*
X129818684Y-66054981D02*
X129866303Y-65959743D01*
X129866303Y-65959743D02*
X129961541Y-65912124D01*
X129961541Y-65912124D02*
X130152017Y-65912124D01*
X130152017Y-65912124D02*
X130247255Y-65959743D01*
X130247255Y-65959743D02*
X130294874Y-66054981D01*
X130294874Y-66054981D02*
X130294874Y-66150219D01*
X130294874Y-66150219D02*
X129818684Y-66245457D01*
X131818684Y-66054981D02*
X131961541Y-66102600D01*
X131961541Y-66102600D02*
X132009160Y-66150219D01*
X132009160Y-66150219D02*
X132056779Y-66245457D01*
X132056779Y-66245457D02*
X132056779Y-66388314D01*
X132056779Y-66388314D02*
X132009160Y-66483552D01*
X132009160Y-66483552D02*
X131961541Y-66531172D01*
X131961541Y-66531172D02*
X131866303Y-66578791D01*
X131866303Y-66578791D02*
X131485351Y-66578791D01*
X131485351Y-66578791D02*
X131485351Y-65578791D01*
X131485351Y-65578791D02*
X131818684Y-65578791D01*
X131818684Y-65578791D02*
X131913922Y-65626410D01*
X131913922Y-65626410D02*
X131961541Y-65674029D01*
X131961541Y-65674029D02*
X132009160Y-65769267D01*
X132009160Y-65769267D02*
X132009160Y-65864505D01*
X132009160Y-65864505D02*
X131961541Y-65959743D01*
X131961541Y-65959743D02*
X131913922Y-66007362D01*
X131913922Y-66007362D02*
X131818684Y-66054981D01*
X131818684Y-66054981D02*
X131485351Y-66054981D01*
X132628208Y-66578791D02*
X132532970Y-66531172D01*
X132532970Y-66531172D02*
X132485351Y-66483552D01*
X132485351Y-66483552D02*
X132437732Y-66388314D01*
X132437732Y-66388314D02*
X132437732Y-66102600D01*
X132437732Y-66102600D02*
X132485351Y-66007362D01*
X132485351Y-66007362D02*
X132532970Y-65959743D01*
X132532970Y-65959743D02*
X132628208Y-65912124D01*
X132628208Y-65912124D02*
X132771065Y-65912124D01*
X132771065Y-65912124D02*
X132866303Y-65959743D01*
X132866303Y-65959743D02*
X132913922Y-66007362D01*
X132913922Y-66007362D02*
X132961541Y-66102600D01*
X132961541Y-66102600D02*
X132961541Y-66388314D01*
X132961541Y-66388314D02*
X132913922Y-66483552D01*
X132913922Y-66483552D02*
X132866303Y-66531172D01*
X132866303Y-66531172D02*
X132771065Y-66578791D01*
X132771065Y-66578791D02*
X132628208Y-66578791D01*
X133818684Y-66578791D02*
X133818684Y-66054981D01*
X133818684Y-66054981D02*
X133771065Y-65959743D01*
X133771065Y-65959743D02*
X133675827Y-65912124D01*
X133675827Y-65912124D02*
X133485351Y-65912124D01*
X133485351Y-65912124D02*
X133390113Y-65959743D01*
X133818684Y-66531172D02*
X133723446Y-66578791D01*
X133723446Y-66578791D02*
X133485351Y-66578791D01*
X133485351Y-66578791D02*
X133390113Y-66531172D01*
X133390113Y-66531172D02*
X133342494Y-66435933D01*
X133342494Y-66435933D02*
X133342494Y-66340695D01*
X133342494Y-66340695D02*
X133390113Y-66245457D01*
X133390113Y-66245457D02*
X133485351Y-66197838D01*
X133485351Y-66197838D02*
X133723446Y-66197838D01*
X133723446Y-66197838D02*
X133818684Y-66150219D01*
X134294875Y-66578791D02*
X134294875Y-65912124D01*
X134294875Y-66102600D02*
X134342494Y-66007362D01*
X134342494Y-66007362D02*
X134390113Y-65959743D01*
X134390113Y-65959743D02*
X134485351Y-65912124D01*
X134485351Y-65912124D02*
X134580589Y-65912124D01*
X135342494Y-66578791D02*
X135342494Y-65578791D01*
X135342494Y-66531172D02*
X135247256Y-66578791D01*
X135247256Y-66578791D02*
X135056780Y-66578791D01*
X135056780Y-66578791D02*
X134961542Y-66531172D01*
X134961542Y-66531172D02*
X134913923Y-66483552D01*
X134913923Y-66483552D02*
X134866304Y-66388314D01*
X134866304Y-66388314D02*
X134866304Y-66102600D01*
X134866304Y-66102600D02*
X134913923Y-66007362D01*
X134913923Y-66007362D02*
X134961542Y-65959743D01*
X134961542Y-65959743D02*
X135056780Y-65912124D01*
X135056780Y-65912124D02*
X135247256Y-65912124D01*
X135247256Y-65912124D02*
X135342494Y-65959743D01*
X136485352Y-65912124D02*
X136723447Y-66578791D01*
X136723447Y-66578791D02*
X136961542Y-65912124D01*
X137866304Y-66578791D02*
X137294876Y-66578791D01*
X137580590Y-66578791D02*
X137580590Y-65578791D01*
X137580590Y-65578791D02*
X137485352Y-65721648D01*
X137485352Y-65721648D02*
X137390114Y-65816886D01*
X137390114Y-65816886D02*
X137294876Y-65864505D01*
X138294876Y-66483552D02*
X138342495Y-66531172D01*
X138342495Y-66531172D02*
X138294876Y-66578791D01*
X138294876Y-66578791D02*
X138247257Y-66531172D01*
X138247257Y-66531172D02*
X138294876Y-66483552D01*
X138294876Y-66483552D02*
X138294876Y-66578791D01*
X138961542Y-65578791D02*
X139056780Y-65578791D01*
X139056780Y-65578791D02*
X139152018Y-65626410D01*
X139152018Y-65626410D02*
X139199637Y-65674029D01*
X139199637Y-65674029D02*
X139247256Y-65769267D01*
X139247256Y-65769267D02*
X139294875Y-65959743D01*
X139294875Y-65959743D02*
X139294875Y-66197838D01*
X139294875Y-66197838D02*
X139247256Y-66388314D01*
X139247256Y-66388314D02*
X139199637Y-66483552D01*
X139199637Y-66483552D02*
X139152018Y-66531172D01*
X139152018Y-66531172D02*
X139056780Y-66578791D01*
X139056780Y-66578791D02*
X138961542Y-66578791D01*
X138961542Y-66578791D02*
X138866304Y-66531172D01*
X138866304Y-66531172D02*
X138818685Y-66483552D01*
X138818685Y-66483552D02*
X138771066Y-66388314D01*
X138771066Y-66388314D02*
X138723447Y-66197838D01*
X138723447Y-66197838D02*
X138723447Y-65959743D01*
X138723447Y-65959743D02*
X138771066Y-65769267D01*
X138771066Y-65769267D02*
X138818685Y-65674029D01*
X138818685Y-65674029D02*
X138866304Y-65626410D01*
X138866304Y-65626410D02*
X138961542Y-65578791D01*
D10*
G36*
X99590422Y-51380046D02*
G01*
X99590422Y-51259146D01*
X99907230Y-51197963D01*
X99590422Y-51137269D01*
X99590422Y-51015636D01*
X100312600Y-51015636D01*
X100312600Y-51102830D01*
X99734037Y-51102830D01*
X100049990Y-51157175D01*
X100049990Y-51237897D01*
X99734037Y-51292851D01*
X100312600Y-51292851D01*
X100312600Y-51380046D01*
X99590422Y-51380046D01*
G37*
G36*
X100312600Y-50676260D02*
G01*
X100130858Y-50738176D01*
X100109658Y-50745381D01*
X100077881Y-50757704D01*
X100051122Y-50772917D01*
X100032008Y-50793630D01*
X100028105Y-50809251D01*
X100028105Y-50841491D01*
X100312600Y-50841491D01*
X100312600Y-50942851D01*
X99590422Y-50942851D01*
X99590422Y-50796550D01*
X99590537Y-50793741D01*
X99710785Y-50793741D01*
X99710785Y-50841491D01*
X99907743Y-50841491D01*
X99907743Y-50793741D01*
X99905035Y-50767980D01*
X99893759Y-50743250D01*
X99884833Y-50734268D01*
X99854357Y-50720713D01*
X99818706Y-50716353D01*
X99809093Y-50716194D01*
X99773702Y-50718701D01*
X99741365Y-50728887D01*
X99733524Y-50734024D01*
X99717203Y-50756025D01*
X99711340Y-50781239D01*
X99710785Y-50793741D01*
X99590537Y-50793741D01*
X99591629Y-50767001D01*
X99595247Y-50740176D01*
X99601279Y-50716077D01*
X99611702Y-50690755D01*
X99628252Y-50666172D01*
X99639833Y-50654523D01*
X99668417Y-50635663D01*
X99699791Y-50623580D01*
X99737106Y-50615624D01*
X99773817Y-50612087D01*
X99800715Y-50611414D01*
X99836160Y-50613024D01*
X99871462Y-50618686D01*
X99905008Y-50629758D01*
X99919539Y-50637181D01*
X99943652Y-50655493D01*
X99960853Y-50678216D01*
X99970423Y-50702440D01*
X99972369Y-50711309D01*
X99987737Y-50688624D01*
X99992373Y-50685053D01*
X100021539Y-50670091D01*
X100053580Y-50657820D01*
X100312600Y-50565008D01*
X100312600Y-50676260D01*
G37*
G36*
X99985886Y-50176049D02*
G01*
X100029705Y-50178210D01*
X100070180Y-50182099D01*
X100107310Y-50187718D01*
X100141095Y-50195065D01*
X100178623Y-50206681D01*
X100210925Y-50220997D01*
X100227798Y-50230884D01*
X100252228Y-50249889D01*
X100272518Y-50272328D01*
X100288666Y-50298203D01*
X100300674Y-50327512D01*
X100307299Y-50353432D01*
X100311274Y-50381551D01*
X100312600Y-50411867D01*
X100312600Y-50520433D01*
X99590422Y-50520433D01*
X99590422Y-50411867D01*
X99591305Y-50391595D01*
X99710785Y-50391595D01*
X99710785Y-50419073D01*
X100192237Y-50419073D01*
X100192237Y-50391595D01*
X100189610Y-50367063D01*
X100180178Y-50343063D01*
X100161366Y-50321208D01*
X100137355Y-50306355D01*
X100105117Y-50295242D01*
X100069037Y-50288122D01*
X100032263Y-50283955D01*
X99997496Y-50281846D01*
X99958980Y-50280978D01*
X99950827Y-50280953D01*
X99911816Y-50281573D01*
X99876529Y-50283434D01*
X99839098Y-50287304D01*
X99802206Y-50294076D01*
X99768979Y-50304792D01*
X99765496Y-50306355D01*
X99739049Y-50323367D01*
X99721257Y-50345827D01*
X99712709Y-50370366D01*
X99710785Y-50391595D01*
X99591305Y-50391595D01*
X99591742Y-50381551D01*
X99595701Y-50353432D01*
X99602299Y-50327512D01*
X99611537Y-50303790D01*
X99626796Y-50277229D01*
X99646179Y-50254102D01*
X99669685Y-50234410D01*
X99674881Y-50230884D01*
X99703843Y-50214946D01*
X99738047Y-50201710D01*
X99777493Y-50191176D01*
X99812825Y-50184693D01*
X99851513Y-50179938D01*
X99893555Y-50176913D01*
X99938953Y-50175617D01*
X99950827Y-50175563D01*
X99985886Y-50176049D01*
G37*
X99451600Y-51359600D02*
X99451600Y-50196376D01*
G36*
X100860422Y-51430846D02*
G01*
X100860422Y-51309946D01*
X101177230Y-51248763D01*
X100860422Y-51188069D01*
X100860422Y-51066436D01*
X101582600Y-51066436D01*
X101582600Y-51153630D01*
X101004037Y-51153630D01*
X101319990Y-51207975D01*
X101319990Y-51288697D01*
X101004037Y-51343651D01*
X101582600Y-51343651D01*
X101582600Y-51430846D01*
X100860422Y-51430846D01*
G37*
G36*
X100860422Y-51039325D02*
G01*
X100860422Y-50950665D01*
X101390087Y-50913906D01*
X101046438Y-50869698D01*
X101046438Y-50785557D01*
X101390087Y-50734021D01*
X100860422Y-50705078D01*
X100860422Y-50615808D01*
X101582600Y-50674915D01*
X101582600Y-50769314D01*
X101202533Y-50827688D01*
X101582600Y-50882399D01*
X101582600Y-50976066D01*
X100860422Y-51039325D01*
G37*
G36*
X101582600Y-50305986D02*
G01*
X101400858Y-50367901D01*
X101379658Y-50375106D01*
X101347881Y-50387429D01*
X101321122Y-50402643D01*
X101302008Y-50423356D01*
X101298105Y-50438976D01*
X101298105Y-50471216D01*
X101582600Y-50471216D01*
X101582600Y-50572577D01*
X100860422Y-50572577D01*
X100860422Y-50426275D01*
X100860537Y-50423466D01*
X100980785Y-50423466D01*
X100980785Y-50471216D01*
X101177743Y-50471216D01*
X101177743Y-50423466D01*
X101175035Y-50397706D01*
X101163759Y-50372975D01*
X101154833Y-50363993D01*
X101124357Y-50350438D01*
X101088706Y-50346078D01*
X101079093Y-50345919D01*
X101043702Y-50348427D01*
X101011365Y-50358613D01*
X101003524Y-50363749D01*
X100987203Y-50385751D01*
X100981340Y-50410964D01*
X100980785Y-50423466D01*
X100860537Y-50423466D01*
X100861629Y-50396726D01*
X100865247Y-50369901D01*
X100871279Y-50345802D01*
X100881702Y-50320480D01*
X100898252Y-50295897D01*
X100909833Y-50284248D01*
X100938417Y-50265388D01*
X100969791Y-50253306D01*
X101007106Y-50245349D01*
X101043817Y-50241813D01*
X101070715Y-50241139D01*
X101106160Y-50242750D01*
X101141462Y-50248412D01*
X101175008Y-50259484D01*
X101189539Y-50266907D01*
X101213652Y-50285218D01*
X101230853Y-50307942D01*
X101240423Y-50332166D01*
X101242369Y-50341035D01*
X101257737Y-50318350D01*
X101262373Y-50314778D01*
X101291539Y-50299817D01*
X101323580Y-50287545D01*
X101582600Y-50194733D01*
X101582600Y-50305986D01*
G37*
X100721600Y-51410400D02*
X100721600Y-50247176D01*
G36*
X97221585Y-51655293D02*
G01*
X97101222Y-51655293D01*
X97101222Y-51349989D01*
X97221585Y-51349989D01*
X97221585Y-51451961D01*
X97703037Y-51451961D01*
X97703037Y-51349989D01*
X97823400Y-51349989D01*
X97823400Y-51655293D01*
X97703037Y-51655293D01*
X97703037Y-51553321D01*
X97221585Y-51553321D01*
X97221585Y-51655293D01*
G37*
G36*
X97506990Y-50902149D02*
G01*
X97548704Y-50904284D01*
X97587624Y-50907843D01*
X97623749Y-50912825D01*
X97657080Y-50919231D01*
X97694815Y-50929239D01*
X97728183Y-50941472D01*
X97740308Y-50946988D01*
X97767398Y-50962255D01*
X97793845Y-50983402D01*
X97813680Y-51007630D01*
X97826903Y-51034942D01*
X97832872Y-51060056D01*
X97834342Y-51081688D01*
X97832046Y-51108448D01*
X97825159Y-51133084D01*
X97810833Y-51159846D01*
X97789896Y-51183551D01*
X97762347Y-51204199D01*
X97740308Y-51216266D01*
X97708686Y-51229354D01*
X97672698Y-51240223D01*
X97632344Y-51248874D01*
X97596917Y-51254198D01*
X97558696Y-51258102D01*
X97517681Y-51260586D01*
X97473871Y-51261651D01*
X97462482Y-51261695D01*
X97417896Y-51260986D01*
X97376121Y-51258856D01*
X97337155Y-51255307D01*
X97301001Y-51250338D01*
X97267656Y-51243950D01*
X97229928Y-51233968D01*
X97196590Y-51221767D01*
X97184485Y-51216266D01*
X97157346Y-51200970D01*
X97130851Y-51179812D01*
X97110979Y-51155598D01*
X97097732Y-51128327D01*
X97091752Y-51103266D01*
X97090280Y-51081688D01*
X97210643Y-51081688D01*
X97217674Y-51105920D01*
X97238765Y-51125216D01*
X97270141Y-51138475D01*
X97304474Y-51146275D01*
X97342036Y-51151273D01*
X97379819Y-51154198D01*
X97415244Y-51155678D01*
X97454251Y-51156287D01*
X97462482Y-51156305D01*
X97502106Y-51155869D01*
X97538166Y-51154563D01*
X97576733Y-51151847D01*
X97615239Y-51147094D01*
X97650691Y-51139572D01*
X97654481Y-51138475D01*
X97685857Y-51125216D01*
X97706948Y-51105920D01*
X97713979Y-51081688D01*
X97706948Y-51057333D01*
X97685857Y-51037999D01*
X97654481Y-51024780D01*
X97620170Y-51016926D01*
X97582661Y-51011894D01*
X97544950Y-51008949D01*
X97509603Y-51007459D01*
X97470692Y-51006846D01*
X97462482Y-51006828D01*
X97422759Y-51007266D01*
X97386617Y-51008581D01*
X97347975Y-51011316D01*
X97309410Y-51016102D01*
X97273931Y-51023675D01*
X97270141Y-51024780D01*
X97238765Y-51037999D01*
X97217674Y-51057333D01*
X97210643Y-51081688D01*
X97090280Y-51081688D01*
X97092580Y-51054862D01*
X97099480Y-51030176D01*
X97113831Y-51003378D01*
X97134806Y-50979663D01*
X97162405Y-50959031D01*
X97184485Y-50946988D01*
X97216066Y-50933866D01*
X97252038Y-50922967D01*
X97292401Y-50914293D01*
X97327853Y-50908955D01*
X97366116Y-50905040D01*
X97407189Y-50902549D01*
X97451072Y-50901482D01*
X97462482Y-50901437D01*
X97506990Y-50902149D01*
G37*
G36*
X97823400Y-50559986D02*
G01*
X97641658Y-50621901D01*
X97620458Y-50629106D01*
X97588681Y-50641429D01*
X97561922Y-50656643D01*
X97542808Y-50677356D01*
X97538905Y-50692976D01*
X97538905Y-50725216D01*
X97823400Y-50725216D01*
X97823400Y-50826577D01*
X97101222Y-50826577D01*
X97101222Y-50680275D01*
X97101337Y-50677466D01*
X97221585Y-50677466D01*
X97221585Y-50725216D01*
X97418543Y-50725216D01*
X97418543Y-50677466D01*
X97415835Y-50651706D01*
X97404559Y-50626975D01*
X97395633Y-50617993D01*
X97365157Y-50604438D01*
X97329506Y-50600078D01*
X97319893Y-50599919D01*
X97284502Y-50602427D01*
X97252165Y-50612613D01*
X97244324Y-50617749D01*
X97228003Y-50639751D01*
X97222140Y-50664964D01*
X97221585Y-50677466D01*
X97101337Y-50677466D01*
X97102429Y-50650726D01*
X97106047Y-50623901D01*
X97112079Y-50599802D01*
X97122502Y-50574480D01*
X97139052Y-50549897D01*
X97150633Y-50538248D01*
X97179217Y-50519388D01*
X97210591Y-50507306D01*
X97247906Y-50499349D01*
X97284617Y-50495813D01*
X97311515Y-50495139D01*
X97346960Y-50496750D01*
X97382262Y-50502412D01*
X97415808Y-50513484D01*
X97430339Y-50520907D01*
X97454452Y-50539218D01*
X97471653Y-50561942D01*
X97481223Y-50586166D01*
X97483169Y-50595035D01*
X97498537Y-50572350D01*
X97503173Y-50568778D01*
X97532339Y-50553817D01*
X97564380Y-50541545D01*
X97823400Y-50448733D01*
X97823400Y-50559986D01*
G37*
G36*
X97496686Y-50059774D02*
G01*
X97540505Y-50061935D01*
X97580980Y-50065825D01*
X97618110Y-50071443D01*
X97651895Y-50078791D01*
X97689423Y-50090406D01*
X97721725Y-50104722D01*
X97738598Y-50114609D01*
X97763028Y-50133614D01*
X97783318Y-50156054D01*
X97799466Y-50181928D01*
X97811474Y-50211237D01*
X97818099Y-50237158D01*
X97822074Y-50265276D01*
X97823400Y-50295593D01*
X97823400Y-50404159D01*
X97101222Y-50404159D01*
X97101222Y-50295593D01*
X97102105Y-50275321D01*
X97221585Y-50275321D01*
X97221585Y-50302798D01*
X97703037Y-50302798D01*
X97703037Y-50275321D01*
X97700410Y-50250789D01*
X97690978Y-50226788D01*
X97672166Y-50204933D01*
X97648155Y-50190080D01*
X97615917Y-50178967D01*
X97579837Y-50171848D01*
X97543063Y-50167680D01*
X97508296Y-50165572D01*
X97469780Y-50164703D01*
X97461627Y-50164679D01*
X97422616Y-50165299D01*
X97387329Y-50167159D01*
X97349898Y-50171029D01*
X97313006Y-50177801D01*
X97279779Y-50188517D01*
X97276296Y-50190080D01*
X97249849Y-50207092D01*
X97232057Y-50229553D01*
X97223509Y-50254092D01*
X97221585Y-50275321D01*
X97102105Y-50275321D01*
X97102542Y-50265276D01*
X97106501Y-50237158D01*
X97113099Y-50211237D01*
X97122337Y-50187515D01*
X97137596Y-50160954D01*
X97156979Y-50137827D01*
X97180485Y-50118135D01*
X97185681Y-50114609D01*
X97214643Y-50098672D01*
X97248847Y-50085436D01*
X97288293Y-50074901D01*
X97323625Y-50068418D01*
X97362313Y-50063664D01*
X97404355Y-50060638D01*
X97449753Y-50059342D01*
X97461627Y-50059288D01*
X97496686Y-50059774D01*
G37*
X96962400Y-51664400D02*
X96962400Y-50080102D01*
G36*
X115220159Y-51239800D02*
G01*
X115118799Y-51239800D01*
X115087291Y-51053784D01*
X114951614Y-51053784D01*
X114920718Y-51239800D01*
X114819357Y-51239800D01*
X114875960Y-50944363D01*
X114971886Y-50944363D01*
X115067630Y-50944363D01*
X115019636Y-50648414D01*
X114971886Y-50944363D01*
X114875960Y-50944363D01*
X114957720Y-50517622D01*
X115081796Y-50517622D01*
X115220159Y-51239800D01*
G37*
G36*
X115464707Y-50822868D02*
G01*
X115471241Y-50830497D01*
X115482804Y-50861176D01*
X115483575Y-50873411D01*
X115476637Y-50906782D01*
X115471241Y-50915982D01*
X115449442Y-50932331D01*
X115440711Y-50933421D01*
X115416943Y-50923804D01*
X115410424Y-50916324D01*
X115398861Y-50885710D01*
X115398090Y-50873411D01*
X115405028Y-50839719D01*
X115410424Y-50830497D01*
X115432086Y-50814148D01*
X115440711Y-50813058D01*
X115464707Y-50822868D01*
G37*
G36*
X115466264Y-50508943D02*
G01*
X115494165Y-50517630D01*
X115519052Y-50532833D01*
X115540925Y-50554551D01*
X115559784Y-50582786D01*
X115568083Y-50599346D01*
X115580256Y-50630604D01*
X115590366Y-50666462D01*
X115598412Y-50706919D01*
X115603364Y-50742597D01*
X115606995Y-50781219D01*
X115609306Y-50822785D01*
X115610296Y-50867294D01*
X115610337Y-50878882D01*
X115609677Y-50924047D01*
X115607696Y-50966280D01*
X115604395Y-51005579D01*
X115599774Y-51041944D01*
X115593832Y-51075377D01*
X115584547Y-51113043D01*
X115573200Y-51146126D01*
X115568083Y-51158076D01*
X115550731Y-51189568D01*
X115530365Y-51214544D01*
X115506985Y-51233005D01*
X115480591Y-51244950D01*
X115456294Y-51249927D01*
X115440711Y-51250742D01*
X115415228Y-51248475D01*
X115387396Y-51239772D01*
X115362560Y-51224541D01*
X115340721Y-51202782D01*
X115321879Y-51174496D01*
X115313582Y-51157905D01*
X115301409Y-51126569D01*
X115291300Y-51090692D01*
X115283253Y-51050274D01*
X115278302Y-51014669D01*
X115274671Y-50976158D01*
X115272360Y-50934741D01*
X115271369Y-50890417D01*
X115271328Y-50878882D01*
X115373300Y-50878882D01*
X115373693Y-50918223D01*
X115374874Y-50954075D01*
X115377330Y-50992491D01*
X115381627Y-51030959D01*
X115388428Y-51066548D01*
X115389420Y-51070368D01*
X115401408Y-51102014D01*
X115420642Y-51124518D01*
X115440711Y-51130379D01*
X115464484Y-51121940D01*
X115482865Y-51096623D01*
X115492124Y-51070368D01*
X115499230Y-51035896D01*
X115503782Y-50998406D01*
X115506447Y-50960827D01*
X115507795Y-50925673D01*
X115508350Y-50887029D01*
X115508366Y-50878882D01*
X115507969Y-50839442D01*
X115506780Y-50803508D01*
X115504305Y-50765016D01*
X115499975Y-50726489D01*
X115493123Y-50690874D01*
X115492124Y-50687054D01*
X115480176Y-50655407D01*
X115460896Y-50632903D01*
X115440711Y-50627043D01*
X115415337Y-50636947D01*
X115397425Y-50663671D01*
X115389420Y-50687054D01*
X115382367Y-50721547D01*
X115377849Y-50759091D01*
X115375204Y-50796742D01*
X115373866Y-50831975D01*
X115373315Y-50870713D01*
X115373300Y-50878882D01*
X115271328Y-50878882D01*
X115271988Y-50833754D01*
X115273969Y-50791548D01*
X115277270Y-50752265D01*
X115281892Y-50715905D01*
X115287834Y-50682467D01*
X115297118Y-50644779D01*
X115308465Y-50611658D01*
X115313582Y-50599688D01*
X115330926Y-50568080D01*
X115351266Y-50543011D01*
X115374603Y-50524482D01*
X115400937Y-50512493D01*
X115425171Y-50507498D01*
X115440711Y-50506680D01*
X115466264Y-50508943D01*
G37*
G36*
X116483383Y-51239800D02*
G01*
X116382023Y-51239800D01*
X116350515Y-51053784D01*
X116214838Y-51053784D01*
X116183942Y-51239800D01*
X116082581Y-51239800D01*
X116139184Y-50944363D01*
X116235110Y-50944363D01*
X116330854Y-50944363D01*
X116282860Y-50648414D01*
X116235110Y-50944363D01*
X116139184Y-50944363D01*
X116220944Y-50517622D01*
X116345020Y-50517622D01*
X116483383Y-51239800D01*
G37*
G36*
X116556900Y-51119437D02*
G01*
X116670229Y-51119437D01*
X116670229Y-50637985D01*
X116564716Y-50670811D01*
X116564716Y-50550448D01*
X116670840Y-50517622D01*
X116768781Y-50517622D01*
X116768781Y-51119437D01*
X116882110Y-51119437D01*
X116882110Y-51239800D01*
X116556900Y-51239800D01*
X116556900Y-51119437D01*
G37*
G36*
X117746607Y-51239800D02*
G01*
X117645247Y-51239800D01*
X117613739Y-51053784D01*
X117478062Y-51053784D01*
X117447166Y-51239800D01*
X117345805Y-51239800D01*
X117402408Y-50944363D01*
X117498334Y-50944363D01*
X117594078Y-50944363D01*
X117546084Y-50648414D01*
X117498334Y-50944363D01*
X117402408Y-50944363D01*
X117484168Y-50517622D01*
X117608244Y-50517622D01*
X117746607Y-51239800D01*
G37*
G36*
X117904632Y-51119437D02*
G01*
X118120665Y-51119437D01*
X118120665Y-51239800D01*
X117794967Y-51239800D01*
X117794967Y-51123198D01*
X117849922Y-51041816D01*
X117867609Y-51015581D01*
X117889084Y-50983654D01*
X117908151Y-50955215D01*
X117928599Y-50924574D01*
X117945284Y-50899383D01*
X117962321Y-50873275D01*
X117968746Y-50863153D01*
X117984759Y-50835936D01*
X117999292Y-50806636D01*
X118005871Y-50790148D01*
X118014733Y-50756505D01*
X118017228Y-50727060D01*
X118013802Y-50691777D01*
X118001334Y-50660040D01*
X117996468Y-50653201D01*
X117974960Y-50635320D01*
X117949002Y-50627682D01*
X117937483Y-50627043D01*
X117912475Y-50629726D01*
X117886952Y-50637024D01*
X117876545Y-50641063D01*
X117852942Y-50652196D01*
X117828646Y-50666319D01*
X117805958Y-50681753D01*
X117805958Y-50550448D01*
X117828777Y-50538093D01*
X117853520Y-50526817D01*
X117877888Y-50517964D01*
X117903928Y-50511088D01*
X117929110Y-50507385D01*
X117945421Y-50506680D01*
X117970023Y-50507995D01*
X117997294Y-50513044D01*
X118022110Y-50521880D01*
X118047957Y-50536974D01*
X118070462Y-50557222D01*
X118073404Y-50560536D01*
X118091534Y-50585896D01*
X118105211Y-50615004D01*
X118114435Y-50647858D01*
X118119206Y-50684460D01*
X118119933Y-50707057D01*
X118117992Y-50743442D01*
X118112172Y-50777799D01*
X118109796Y-50787242D01*
X118099162Y-50819047D01*
X118085089Y-50850859D01*
X118074992Y-50870504D01*
X118057406Y-50899209D01*
X118037702Y-50928918D01*
X118019899Y-50954988D01*
X117998990Y-50985098D01*
X117980026Y-51012095D01*
X117974974Y-51019248D01*
X117956498Y-51045489D01*
X117937501Y-51072513D01*
X117918829Y-51099134D01*
X117904632Y-51119437D01*
G37*
G36*
X119009831Y-51239800D02*
G01*
X118908471Y-51239800D01*
X118876963Y-51053784D01*
X118741286Y-51053784D01*
X118710390Y-51239800D01*
X118609029Y-51239800D01*
X118665632Y-50944363D01*
X118761558Y-50944363D01*
X118857302Y-50944363D01*
X118809308Y-50648414D01*
X118761558Y-50944363D01*
X118665632Y-50944363D01*
X118747392Y-50517622D01*
X118871468Y-50517622D01*
X119009831Y-51239800D01*
G37*
G36*
X119207302Y-50911537D02*
G01*
X119153080Y-50911537D01*
X119153080Y-50791174D01*
X119207302Y-50791174D01*
X119233291Y-50788241D01*
X119257534Y-50777404D01*
X119265920Y-50770316D01*
X119282119Y-50743329D01*
X119286681Y-50711502D01*
X119281490Y-50676069D01*
X119265920Y-50649440D01*
X119242700Y-50633364D01*
X119216499Y-50627393D01*
X119207302Y-50627043D01*
X119181289Y-50629203D01*
X119155711Y-50635076D01*
X119145508Y-50638327D01*
X119120435Y-50648104D01*
X119096848Y-50659601D01*
X119077120Y-50670811D01*
X119077120Y-50539506D01*
X119101338Y-50529464D01*
X119125297Y-50521199D01*
X119146852Y-50515229D01*
X119172211Y-50510019D01*
X119196814Y-50507214D01*
X119212797Y-50506680D01*
X119237264Y-50507882D01*
X119264317Y-50512498D01*
X119288855Y-50520577D01*
X119314303Y-50534377D01*
X119336326Y-50552890D01*
X119339193Y-50555920D01*
X119359015Y-50582794D01*
X119373173Y-50614349D01*
X119381668Y-50650583D01*
X119384456Y-50686128D01*
X119384500Y-50691499D01*
X119381948Y-50728888D01*
X119374291Y-50761770D01*
X119359974Y-50792733D01*
X119358366Y-50795278D01*
X119339914Y-50817774D01*
X119317074Y-50834828D01*
X119292765Y-50845522D01*
X119283872Y-50848107D01*
X119309716Y-50857019D01*
X119332293Y-50870248D01*
X119353788Y-50890290D01*
X119367647Y-50909656D01*
X119381638Y-50939061D01*
X119391050Y-50973225D01*
X119395572Y-51007590D01*
X119396590Y-51035832D01*
X119394911Y-51073385D01*
X119389875Y-51107439D01*
X119379756Y-51142748D01*
X119365068Y-51173296D01*
X119348840Y-51195689D01*
X119325881Y-51217140D01*
X119302909Y-51231333D01*
X119276897Y-51241656D01*
X119247846Y-51248107D01*
X119221314Y-51250527D01*
X119210110Y-51250742D01*
X119183556Y-51249731D01*
X119157290Y-51246701D01*
X119133662Y-51242193D01*
X119108193Y-51235545D01*
X119083503Y-51227118D01*
X119061733Y-51217915D01*
X119061733Y-51086610D01*
X119084504Y-51100111D01*
X119108487Y-51111228D01*
X119131342Y-51119266D01*
X119157565Y-51125593D01*
X119182180Y-51129066D01*
X119207534Y-51130368D01*
X119210110Y-51130379D01*
X119236384Y-51127167D01*
X119260438Y-51116335D01*
X119275323Y-51103194D01*
X119291769Y-51075626D01*
X119299005Y-51040793D01*
X119299381Y-51029506D01*
X119296538Y-50993748D01*
X119286953Y-50961651D01*
X119275323Y-50942312D01*
X119254481Y-50923558D01*
X119230457Y-50913971D01*
X119207302Y-50911537D01*
G37*
G36*
X120273055Y-51239800D02*
G01*
X120171695Y-51239800D01*
X120140187Y-51053784D01*
X120004510Y-51053784D01*
X119973614Y-51239800D01*
X119872253Y-51239800D01*
X119928856Y-50944363D01*
X120024782Y-50944363D01*
X120120526Y-50944363D01*
X120072532Y-50648414D01*
X120024782Y-50944363D01*
X119928856Y-50944363D01*
X120010616Y-50517622D01*
X120134692Y-50517622D01*
X120273055Y-51239800D01*
G37*
G36*
X120617560Y-50966248D02*
G01*
X120673858Y-50966248D01*
X120673858Y-51086610D01*
X120617560Y-51086610D01*
X120617560Y-51239800D01*
X120520351Y-51239800D01*
X120520351Y-51086610D01*
X120317019Y-51086610D01*
X120317019Y-50966248D01*
X120390903Y-50966248D01*
X120520351Y-50966248D01*
X120520351Y-50677992D01*
X120390903Y-50966248D01*
X120317019Y-50966248D01*
X120317019Y-50947612D01*
X120511436Y-50517622D01*
X120617560Y-50517622D01*
X120617560Y-50966248D01*
G37*
G36*
X121536279Y-51239800D02*
G01*
X121434919Y-51239800D01*
X121403411Y-51053784D01*
X121267734Y-51053784D01*
X121236838Y-51239800D01*
X121135477Y-51239800D01*
X121192080Y-50944363D01*
X121288006Y-50944363D01*
X121383750Y-50944363D01*
X121335756Y-50648414D01*
X121288006Y-50944363D01*
X121192080Y-50944363D01*
X121273840Y-50517622D01*
X121397916Y-50517622D01*
X121536279Y-51239800D01*
G37*
G36*
X121611506Y-50517622D02*
G01*
X121890065Y-50517622D01*
X121890065Y-50637985D01*
X121693572Y-50637985D01*
X121693572Y-50782455D01*
X121717332Y-50773149D01*
X121719950Y-50772539D01*
X121744985Y-50769369D01*
X121749870Y-50769290D01*
X121777474Y-50771634D01*
X121803044Y-50778667D01*
X121826579Y-50790388D01*
X121848078Y-50806797D01*
X121867543Y-50827894D01*
X121873579Y-50835968D01*
X121889682Y-50862315D01*
X121902453Y-50891475D01*
X121911892Y-50923448D01*
X121918000Y-50958233D01*
X121920777Y-50995832D01*
X121920962Y-51008990D01*
X121919154Y-51049273D01*
X121913732Y-51086263D01*
X121904694Y-51119959D01*
X121892042Y-51150361D01*
X121875775Y-51177469D01*
X121869549Y-51185773D01*
X121849001Y-51207852D01*
X121825825Y-51225363D01*
X121800022Y-51238306D01*
X121771592Y-51246681D01*
X121745893Y-51250171D01*
X121729598Y-51250742D01*
X121704765Y-51249588D01*
X121679726Y-51246125D01*
X121662919Y-51242535D01*
X121637526Y-51235226D01*
X121613886Y-51226499D01*
X121594287Y-51217915D01*
X121594287Y-51086610D01*
X121617668Y-51102585D01*
X121641573Y-51114949D01*
X121652783Y-51119437D01*
X121677291Y-51126521D01*
X121701800Y-51129994D01*
X121713111Y-51130379D01*
X121738306Y-51128445D01*
X121762801Y-51121645D01*
X121787203Y-51106686D01*
X121794566Y-51099433D01*
X121811533Y-51072281D01*
X121820670Y-51037243D01*
X121822410Y-51009503D01*
X121819134Y-50974690D01*
X121808089Y-50942565D01*
X121794688Y-50922479D01*
X121773535Y-50903790D01*
X121748023Y-50892859D01*
X121721049Y-50889653D01*
X121695579Y-50891456D01*
X121670001Y-50896866D01*
X121666583Y-50897860D01*
X121642637Y-50906611D01*
X121618458Y-50918504D01*
X121611506Y-50922479D01*
X121611506Y-50517622D01*
G37*
G36*
X122799503Y-51239800D02*
G01*
X122698143Y-51239800D01*
X122666635Y-51053784D01*
X122530958Y-51053784D01*
X122500062Y-51239800D01*
X122398701Y-51239800D01*
X122455304Y-50944363D01*
X122551230Y-50944363D01*
X122646974Y-50944363D01*
X122598980Y-50648414D01*
X122551230Y-50944363D01*
X122455304Y-50944363D01*
X122537064Y-50517622D01*
X122661140Y-50517622D01*
X122799503Y-51239800D01*
G37*
G36*
X123085267Y-50508732D02*
G01*
X123110424Y-50514887D01*
X123134574Y-50524384D01*
X123158939Y-50537487D01*
X123162204Y-50539506D01*
X123162204Y-50670811D01*
X123140539Y-50650843D01*
X123118019Y-50634387D01*
X123110180Y-50629779D01*
X123085756Y-50619520D01*
X123062309Y-50616101D01*
X123036472Y-50619296D01*
X123011330Y-50630528D01*
X122990340Y-50649848D01*
X122978655Y-50667221D01*
X122964676Y-50699844D01*
X122955884Y-50735336D01*
X122950995Y-50771406D01*
X122948888Y-50806047D01*
X122948614Y-50818358D01*
X122965685Y-50793577D01*
X122986674Y-50775332D01*
X122989769Y-50773393D01*
X123013464Y-50763108D01*
X123038481Y-50758715D01*
X123048875Y-50758348D01*
X123073775Y-50760524D01*
X123100014Y-50768562D01*
X123123226Y-50782524D01*
X123143411Y-50802409D01*
X123155976Y-50820239D01*
X123170727Y-50849712D01*
X123181855Y-50884127D01*
X123188510Y-50917558D01*
X123192502Y-50954620D01*
X123193833Y-50995312D01*
X123192796Y-51032013D01*
X123189683Y-51066035D01*
X123183209Y-51103323D01*
X123173746Y-51136752D01*
X123161296Y-51166322D01*
X123151335Y-51183892D01*
X123131142Y-51209940D01*
X123107641Y-51229590D01*
X123080833Y-51242842D01*
X123055221Y-51249110D01*
X123032023Y-51250742D01*
X123003966Y-51248596D01*
X122978413Y-51242160D01*
X122951056Y-51228772D01*
X122927305Y-51209205D01*
X122907161Y-51183460D01*
X122895735Y-51162863D01*
X122883527Y-51132759D01*
X122873388Y-51097370D01*
X122865319Y-51056697D01*
X122860353Y-51020354D01*
X122858919Y-51004716D01*
X122961558Y-51004716D01*
X122962930Y-51039569D01*
X122968332Y-51075481D01*
X122978900Y-51106272D01*
X122997065Y-51130231D01*
X123021215Y-51140773D01*
X123029214Y-51141321D01*
X123053485Y-51135536D01*
X123073988Y-51116369D01*
X123079894Y-51106272D01*
X123090685Y-51075481D01*
X123096201Y-51039569D01*
X123097602Y-51004716D01*
X123096201Y-50969932D01*
X123090685Y-50934030D01*
X123079894Y-50903160D01*
X123061478Y-50878967D01*
X123037218Y-50868322D01*
X123029214Y-50867769D01*
X123005003Y-50873581D01*
X122984700Y-50892842D01*
X122978900Y-50902989D01*
X122967672Y-50936686D01*
X122962642Y-50973353D01*
X122961558Y-51004716D01*
X122858919Y-51004716D01*
X122856711Y-50980629D01*
X122854393Y-50937522D01*
X122853524Y-50902972D01*
X122853359Y-50878882D01*
X122854170Y-50833754D01*
X122856603Y-50791548D01*
X122860658Y-50752265D01*
X122866334Y-50715905D01*
X122873633Y-50682467D01*
X122885037Y-50644779D01*
X122898976Y-50611658D01*
X122905260Y-50599688D01*
X122922744Y-50572894D01*
X122942756Y-50550641D01*
X122965296Y-50532929D01*
X122990364Y-50519759D01*
X123017960Y-50511131D01*
X123048085Y-50507043D01*
X123060843Y-50506680D01*
X123085267Y-50508732D01*
G37*
G36*
X124062727Y-51239800D02*
G01*
X123961367Y-51239800D01*
X123929859Y-51053784D01*
X123794182Y-51053784D01*
X123763286Y-51239800D01*
X123661925Y-51239800D01*
X123718528Y-50944363D01*
X123814454Y-50944363D01*
X123910198Y-50944363D01*
X123862204Y-50648414D01*
X123814454Y-50944363D01*
X123718528Y-50944363D01*
X123800288Y-50517622D01*
X123924364Y-50517622D01*
X124062727Y-51239800D01*
G37*
G36*
X124118048Y-50517622D02*
G01*
X124442281Y-50517622D01*
X124442281Y-50618666D01*
X124268502Y-51239800D01*
X124165065Y-51239800D01*
X124332005Y-50637985D01*
X124118048Y-50637985D01*
X124118048Y-50517622D01*
G37*
G36*
X125325951Y-51239800D02*
G01*
X125224591Y-51239800D01*
X125193083Y-51053784D01*
X125057406Y-51053784D01*
X125026510Y-51239800D01*
X124925149Y-51239800D01*
X124981752Y-50944363D01*
X125077678Y-50944363D01*
X125173422Y-50944363D01*
X125125428Y-50648414D01*
X125077678Y-50944363D01*
X124981752Y-50944363D01*
X125063512Y-50517622D01*
X125187588Y-50517622D01*
X125325951Y-51239800D01*
G37*
G36*
X125572324Y-50508489D02*
G01*
X125599769Y-50515173D01*
X125624326Y-50526783D01*
X125645997Y-50543317D01*
X125659709Y-50558142D01*
X125677928Y-50586117D01*
X125690942Y-50618751D01*
X125698750Y-50656044D01*
X125701312Y-50692497D01*
X125701353Y-50697996D01*
X125699409Y-50732089D01*
X125692780Y-50765659D01*
X125681447Y-50795107D01*
X125663959Y-50821946D01*
X125643432Y-50841438D01*
X125623439Y-50853749D01*
X125648252Y-50868128D01*
X125669416Y-50888184D01*
X125686930Y-50913916D01*
X125689995Y-50919744D01*
X125702682Y-50951196D01*
X125710670Y-50986355D01*
X125713842Y-51021167D01*
X125714053Y-51033439D01*
X125712521Y-51070761D01*
X125707922Y-51104765D01*
X125698683Y-51140244D01*
X125685272Y-51171206D01*
X125670456Y-51194151D01*
X125649623Y-51216201D01*
X125625272Y-51232836D01*
X125601600Y-51242783D01*
X125575344Y-51248752D01*
X125546503Y-51250742D01*
X125517744Y-51248752D01*
X125491554Y-51242783D01*
X125467930Y-51232836D01*
X125443615Y-51216201D01*
X125422794Y-51194151D01*
X125405806Y-51167059D01*
X125392991Y-51135452D01*
X125384348Y-51099328D01*
X125380261Y-51064771D01*
X125379196Y-51033439D01*
X125379581Y-51026258D01*
X125470543Y-51026258D01*
X125473480Y-51062194D01*
X125483289Y-51094830D01*
X125491426Y-51109691D01*
X125512306Y-51131313D01*
X125536174Y-51140549D01*
X125546503Y-51141321D01*
X125571971Y-51136016D01*
X125594664Y-51118438D01*
X125601579Y-51109178D01*
X125615258Y-51079987D01*
X125621964Y-51044645D01*
X125622706Y-51026258D01*
X125619753Y-50990266D01*
X125609886Y-50957732D01*
X125601702Y-50942996D01*
X125580858Y-50921491D01*
X125556898Y-50912305D01*
X125546503Y-50911537D01*
X125520976Y-50916729D01*
X125498309Y-50933933D01*
X125491426Y-50942996D01*
X125477905Y-50971913D01*
X125471277Y-51007547D01*
X125470543Y-51026258D01*
X125379581Y-51026258D01*
X125381128Y-50997378D01*
X125387807Y-50960926D01*
X125399256Y-50928282D01*
X125403621Y-50919231D01*
X125420722Y-50892413D01*
X125441497Y-50871373D01*
X125465945Y-50856109D01*
X125471276Y-50853749D01*
X125448817Y-50840048D01*
X125428300Y-50820233D01*
X125412169Y-50795448D01*
X125399816Y-50763071D01*
X125393500Y-50728999D01*
X125392436Y-50708425D01*
X125481900Y-50708425D01*
X125485220Y-50742720D01*
X125497142Y-50773580D01*
X125499242Y-50776813D01*
X125519728Y-50795790D01*
X125544645Y-50802092D01*
X125546503Y-50802116D01*
X125571964Y-50796556D01*
X125592912Y-50778370D01*
X125594008Y-50776813D01*
X125607014Y-50747064D01*
X125611332Y-50711100D01*
X125611349Y-50708425D01*
X125608030Y-50674461D01*
X125596108Y-50644061D01*
X125594008Y-50640892D01*
X125573461Y-50622299D01*
X125548375Y-50616125D01*
X125546503Y-50616101D01*
X125521426Y-50621623D01*
X125500475Y-50639687D01*
X125499364Y-50641234D01*
X125486266Y-50670512D01*
X125481917Y-50705802D01*
X125481900Y-50708425D01*
X125392436Y-50708425D01*
X125391897Y-50697996D01*
X125393884Y-50661033D01*
X125399844Y-50627637D01*
X125411522Y-50593839D01*
X125428390Y-50564699D01*
X125433418Y-50558142D01*
X125456102Y-50535628D01*
X125479006Y-50521204D01*
X125504762Y-50511706D01*
X125529108Y-50507484D01*
X125546503Y-50506680D01*
X125572324Y-50508489D01*
G37*
G36*
X126589175Y-51239800D02*
G01*
X126487815Y-51239800D01*
X126456307Y-51053784D01*
X126320630Y-51053784D01*
X126289734Y-51239800D01*
X126188373Y-51239800D01*
X126244976Y-50944363D01*
X126340903Y-50944363D01*
X126436646Y-50944363D01*
X126388652Y-50648414D01*
X126340903Y-50944363D01*
X126244976Y-50944363D01*
X126326736Y-50517622D01*
X126450812Y-50517622D01*
X126589175Y-51239800D01*
G37*
G36*
X126826022Y-50508826D02*
G01*
X126851536Y-50515262D01*
X126878847Y-50528650D01*
X126902552Y-50548217D01*
X126922651Y-50573962D01*
X126934046Y-50594559D01*
X126946289Y-50624610D01*
X126956457Y-50659945D01*
X126964550Y-50700564D01*
X126969531Y-50736865D01*
X126973183Y-50776547D01*
X126975507Y-50819612D01*
X126976379Y-50854129D01*
X126976545Y-50878198D01*
X126975734Y-50923331D01*
X126973301Y-50965553D01*
X126969246Y-51004863D01*
X126963569Y-51041261D01*
X126956270Y-51074747D01*
X126944866Y-51112510D01*
X126930928Y-51145723D01*
X126924643Y-51157734D01*
X126907195Y-51184528D01*
X126887212Y-51206781D01*
X126864695Y-51224492D01*
X126839644Y-51237662D01*
X126812059Y-51246291D01*
X126781940Y-51250378D01*
X126769182Y-51250742D01*
X126744728Y-51248647D01*
X126719479Y-51242364D01*
X126695417Y-51232820D01*
X126671086Y-51219894D01*
X126667822Y-51217915D01*
X126667822Y-51086610D01*
X126689486Y-51106965D01*
X126712006Y-51123459D01*
X126719845Y-51127985D01*
X126744270Y-51137987D01*
X126767717Y-51141321D01*
X126793393Y-51138104D01*
X126818410Y-51126797D01*
X126839332Y-51107348D01*
X126851004Y-51089859D01*
X126865012Y-51056785D01*
X126873879Y-51020620D01*
X126878870Y-50983751D01*
X126881093Y-50948268D01*
X126881412Y-50935644D01*
X126864314Y-50961840D01*
X126843244Y-50981125D01*
X126840135Y-50983174D01*
X126816453Y-50994043D01*
X126791281Y-50998686D01*
X126780784Y-50999074D01*
X126756004Y-50996898D01*
X126729862Y-50988859D01*
X126706700Y-50974898D01*
X126686518Y-50955013D01*
X126673928Y-50937183D01*
X126659224Y-50907560D01*
X126648132Y-50872995D01*
X126641499Y-50839436D01*
X126637519Y-50802246D01*
X126636192Y-50761425D01*
X126636592Y-50747235D01*
X126732424Y-50747235D01*
X126734153Y-50784097D01*
X126740050Y-50817973D01*
X126750131Y-50844859D01*
X126768547Y-50868000D01*
X126792807Y-50878182D01*
X126800812Y-50878711D01*
X126826421Y-50872264D01*
X126847374Y-50851049D01*
X126850759Y-50845030D01*
X126861987Y-50812559D01*
X126867017Y-50777326D01*
X126868101Y-50747235D01*
X126866407Y-50710406D01*
X126860632Y-50676644D01*
X126850759Y-50649953D01*
X126832664Y-50626812D01*
X126808725Y-50616630D01*
X126800812Y-50616101D01*
X126776541Y-50621688D01*
X126754797Y-50642019D01*
X126750131Y-50649953D01*
X126738666Y-50682257D01*
X126733531Y-50717305D01*
X126732424Y-50747235D01*
X126636592Y-50747235D01*
X126637224Y-50724782D01*
X126640318Y-50690827D01*
X126646756Y-50653629D01*
X126656164Y-50620302D01*
X126670895Y-50586312D01*
X126678446Y-50573358D01*
X126698609Y-50547377D01*
X126722127Y-50527778D01*
X126748999Y-50514559D01*
X126774702Y-50508308D01*
X126798003Y-50506680D01*
X126826022Y-50508826D01*
G37*
G36*
X127852399Y-51239800D02*
G01*
X127751039Y-51239800D01*
X127719531Y-51053784D01*
X127583854Y-51053784D01*
X127552958Y-51239800D01*
X127451597Y-51239800D01*
X127508200Y-50944363D01*
X127604127Y-50944363D01*
X127699870Y-50944363D01*
X127651876Y-50648414D01*
X127604127Y-50944363D01*
X127508200Y-50944363D01*
X127589960Y-50517622D01*
X127714036Y-50517622D01*
X127852399Y-51239800D01*
G37*
G36*
X127925916Y-51119437D02*
G01*
X128039245Y-51119437D01*
X128039245Y-50637985D01*
X127933732Y-50670811D01*
X127933732Y-50550448D01*
X128039856Y-50517622D01*
X128137797Y-50517622D01*
X128137797Y-51119437D01*
X128251126Y-51119437D01*
X128251126Y-51239800D01*
X127925916Y-51239800D01*
X127925916Y-51119437D01*
G37*
G36*
X128518022Y-50822868D02*
G01*
X128524556Y-50830497D01*
X128536119Y-50861176D01*
X128536890Y-50873411D01*
X128529952Y-50906782D01*
X128524556Y-50915982D01*
X128502757Y-50932331D01*
X128494025Y-50933421D01*
X128470257Y-50923804D01*
X128463739Y-50916324D01*
X128452176Y-50885710D01*
X128451405Y-50873411D01*
X128458343Y-50839719D01*
X128463739Y-50830497D01*
X128485400Y-50814148D01*
X128494025Y-50813058D01*
X128518022Y-50822868D01*
G37*
G36*
X128519578Y-50508943D02*
G01*
X128547479Y-50517630D01*
X128572366Y-50532833D01*
X128594239Y-50554551D01*
X128613099Y-50582786D01*
X128621398Y-50599346D01*
X128633571Y-50630604D01*
X128643680Y-50666462D01*
X128651727Y-50706919D01*
X128656678Y-50742597D01*
X128660310Y-50781219D01*
X128662620Y-50822785D01*
X128663611Y-50867294D01*
X128663652Y-50878882D01*
X128662992Y-50924047D01*
X128661011Y-50966280D01*
X128657710Y-51005579D01*
X128653088Y-51041944D01*
X128647147Y-51075377D01*
X128637862Y-51113043D01*
X128626515Y-51146126D01*
X128621398Y-51158076D01*
X128604046Y-51189568D01*
X128583680Y-51214544D01*
X128560300Y-51233005D01*
X128533906Y-51244950D01*
X128509608Y-51249927D01*
X128494025Y-51250742D01*
X128468543Y-51248475D01*
X128440710Y-51239772D01*
X128415875Y-51224541D01*
X128394036Y-51202782D01*
X128375194Y-51174496D01*
X128366897Y-51157905D01*
X128354724Y-51126569D01*
X128344615Y-51090692D01*
X128336568Y-51050274D01*
X128331616Y-51014669D01*
X128327985Y-50976158D01*
X128325674Y-50934741D01*
X128324684Y-50890417D01*
X128324643Y-50878882D01*
X128426614Y-50878882D01*
X128427008Y-50918223D01*
X128428189Y-50954075D01*
X128430644Y-50992491D01*
X128434942Y-51030959D01*
X128441743Y-51066548D01*
X128442734Y-51070368D01*
X128454722Y-51102014D01*
X128473956Y-51124518D01*
X128494025Y-51130379D01*
X128517799Y-51121940D01*
X128536180Y-51096623D01*
X128545438Y-51070368D01*
X128552544Y-51035896D01*
X128557097Y-50998406D01*
X128559761Y-50960827D01*
X128561110Y-50925673D01*
X128561665Y-50887029D01*
X128561681Y-50878882D01*
X128561284Y-50839442D01*
X128560094Y-50803508D01*
X128557620Y-50765016D01*
X128553290Y-50726489D01*
X128546438Y-50690874D01*
X128545438Y-50687054D01*
X128533491Y-50655407D01*
X128514211Y-50632903D01*
X128494025Y-50627043D01*
X128468652Y-50636947D01*
X128450740Y-50663671D01*
X128442734Y-50687054D01*
X128435682Y-50721547D01*
X128431164Y-50759091D01*
X128428519Y-50796742D01*
X128427181Y-50831975D01*
X128426630Y-50870713D01*
X128426614Y-50878882D01*
X128324643Y-50878882D01*
X128325303Y-50833754D01*
X128327284Y-50791548D01*
X128330585Y-50752265D01*
X128335206Y-50715905D01*
X128341148Y-50682467D01*
X128350433Y-50644779D01*
X128361780Y-50611658D01*
X128366897Y-50599688D01*
X128384241Y-50568080D01*
X128404581Y-50543011D01*
X128427918Y-50524482D01*
X128454252Y-50512493D01*
X128478486Y-50507498D01*
X128494025Y-50506680D01*
X128519578Y-50508943D01*
G37*
G36*
X130378847Y-51239800D02*
G01*
X130277487Y-51239800D01*
X130245979Y-51053784D01*
X130110302Y-51053784D01*
X130079406Y-51239800D01*
X129978045Y-51239800D01*
X130034648Y-50944363D01*
X130130575Y-50944363D01*
X130226318Y-50944363D01*
X130178324Y-50648414D01*
X130130575Y-50944363D01*
X130034648Y-50944363D01*
X130116408Y-50517622D01*
X130240484Y-50517622D01*
X130378847Y-51239800D01*
G37*
G36*
X130452364Y-51119437D02*
G01*
X130565693Y-51119437D01*
X130565693Y-50637985D01*
X130460180Y-50670811D01*
X130460180Y-50550448D01*
X130566304Y-50517622D01*
X130664245Y-50517622D01*
X130664245Y-51119437D01*
X130777574Y-51119437D01*
X130777574Y-51239800D01*
X130452364Y-51239800D01*
X130452364Y-51119437D01*
G37*
G36*
X130957947Y-51119437D02*
G01*
X131173980Y-51119437D01*
X131173980Y-51239800D01*
X130848282Y-51239800D01*
X130848282Y-51123198D01*
X130903237Y-51041816D01*
X130920924Y-51015581D01*
X130942399Y-50983654D01*
X130961466Y-50955215D01*
X130981913Y-50924574D01*
X130998598Y-50899383D01*
X131015636Y-50873275D01*
X131022061Y-50863153D01*
X131038073Y-50835936D01*
X131052607Y-50806636D01*
X131059186Y-50790148D01*
X131068048Y-50756505D01*
X131070543Y-50727060D01*
X131067117Y-50691777D01*
X131054648Y-50660040D01*
X131049782Y-50653201D01*
X131028274Y-50635320D01*
X131002316Y-50627682D01*
X130990798Y-50627043D01*
X130965790Y-50629726D01*
X130940266Y-50637024D01*
X130929859Y-50641063D01*
X130906256Y-50652196D01*
X130881961Y-50666319D01*
X130859273Y-50681753D01*
X130859273Y-50550448D01*
X130882092Y-50538093D01*
X130906835Y-50526817D01*
X130931203Y-50517964D01*
X130957243Y-50511088D01*
X130982425Y-50507385D01*
X130998736Y-50506680D01*
X131023338Y-50507995D01*
X131050609Y-50513044D01*
X131075424Y-50521880D01*
X131101272Y-50536974D01*
X131123777Y-50557222D01*
X131126719Y-50560536D01*
X131144849Y-50585896D01*
X131158525Y-50615004D01*
X131167749Y-50647858D01*
X131172520Y-50684460D01*
X131173247Y-50707057D01*
X131171307Y-50743442D01*
X131165487Y-50777799D01*
X131163111Y-50787242D01*
X131152477Y-50819047D01*
X131138404Y-50850859D01*
X131128307Y-50870504D01*
X131110721Y-50899209D01*
X131091016Y-50928918D01*
X131073214Y-50954988D01*
X131052305Y-50985098D01*
X131033341Y-51012095D01*
X131028289Y-51019248D01*
X131009813Y-51045489D01*
X130990815Y-51072513D01*
X130972144Y-51099134D01*
X130957947Y-51119437D01*
G37*
G36*
X132905295Y-51239800D02*
G01*
X132803935Y-51239800D01*
X132772427Y-51053784D01*
X132636750Y-51053784D01*
X132605854Y-51239800D01*
X132504493Y-51239800D01*
X132561096Y-50944363D01*
X132657023Y-50944363D01*
X132752766Y-50944363D01*
X132704772Y-50648414D01*
X132657023Y-50944363D01*
X132561096Y-50944363D01*
X132642856Y-50517622D01*
X132766932Y-50517622D01*
X132905295Y-51239800D01*
G37*
G36*
X132978812Y-51119437D02*
G01*
X133092141Y-51119437D01*
X133092141Y-50637985D01*
X132986628Y-50670811D01*
X132986628Y-50550448D01*
X133092752Y-50517622D01*
X133190693Y-50517622D01*
X133190693Y-51119437D01*
X133304022Y-51119437D01*
X133304022Y-51239800D01*
X132978812Y-51239800D01*
X132978812Y-51119437D01*
G37*
G36*
X133670875Y-50966248D02*
G01*
X133727173Y-50966248D01*
X133727173Y-51086610D01*
X133670875Y-51086610D01*
X133670875Y-51239800D01*
X133573666Y-51239800D01*
X133573666Y-51086610D01*
X133370334Y-51086610D01*
X133370334Y-50966248D01*
X133444217Y-50966248D01*
X133573666Y-50966248D01*
X133573666Y-50677992D01*
X133444217Y-50966248D01*
X133370334Y-50966248D01*
X133370334Y-50947612D01*
X133564751Y-50517622D01*
X133670875Y-50517622D01*
X133670875Y-50966248D01*
G37*
G36*
X135431743Y-51239800D02*
G01*
X135330383Y-51239800D01*
X135298875Y-51053784D01*
X135163198Y-51053784D01*
X135132302Y-51239800D01*
X135030941Y-51239800D01*
X135087544Y-50944363D01*
X135183471Y-50944363D01*
X135279214Y-50944363D01*
X135231220Y-50648414D01*
X135183471Y-50944363D01*
X135087544Y-50944363D01*
X135169304Y-50517622D01*
X135293380Y-50517622D01*
X135431743Y-51239800D01*
G37*
G36*
X135505260Y-51119437D02*
G01*
X135618589Y-51119437D01*
X135618589Y-50637985D01*
X135513076Y-50670811D01*
X135513076Y-50550448D01*
X135619200Y-50517622D01*
X135717141Y-50517622D01*
X135717141Y-51119437D01*
X135830470Y-51119437D01*
X135830470Y-51239800D01*
X135505260Y-51239800D01*
X135505260Y-51119437D01*
G37*
G36*
X136138582Y-50508732D02*
G01*
X136163739Y-50514887D01*
X136187889Y-50524384D01*
X136212254Y-50537487D01*
X136215519Y-50539506D01*
X136215519Y-50670811D01*
X136193854Y-50650843D01*
X136171334Y-50634387D01*
X136163495Y-50629779D01*
X136139071Y-50619520D01*
X136115623Y-50616101D01*
X136089787Y-50619296D01*
X136064644Y-50630528D01*
X136043655Y-50649848D01*
X136031970Y-50667221D01*
X136017991Y-50699844D01*
X136009198Y-50735336D01*
X136004310Y-50771406D01*
X136002203Y-50806047D01*
X136001928Y-50818358D01*
X136019000Y-50793577D01*
X136039989Y-50775332D01*
X136043083Y-50773393D01*
X136066779Y-50763108D01*
X136091795Y-50758715D01*
X136102190Y-50758348D01*
X136127090Y-50760524D01*
X136153329Y-50768562D01*
X136176541Y-50782524D01*
X136196726Y-50802409D01*
X136209290Y-50820239D01*
X136224042Y-50849712D01*
X136235170Y-50884127D01*
X136241824Y-50917558D01*
X136245817Y-50954620D01*
X136247148Y-50995312D01*
X136246111Y-51032013D01*
X136242998Y-51066035D01*
X136236524Y-51103323D01*
X136227061Y-51136752D01*
X136214610Y-51166322D01*
X136204650Y-51183892D01*
X136184457Y-51209940D01*
X136160956Y-51229590D01*
X136134147Y-51242842D01*
X136108536Y-51249110D01*
X136085337Y-51250742D01*
X136057280Y-51248596D01*
X136031728Y-51242160D01*
X136004371Y-51228772D01*
X135980620Y-51209205D01*
X135960476Y-51183460D01*
X135949050Y-51162863D01*
X135936842Y-51132759D01*
X135926703Y-51097370D01*
X135918633Y-51056697D01*
X135913667Y-51020354D01*
X135912234Y-51004716D01*
X136014873Y-51004716D01*
X136016245Y-51039569D01*
X136021647Y-51075481D01*
X136032214Y-51106272D01*
X136050380Y-51130231D01*
X136074530Y-51140773D01*
X136082528Y-51141321D01*
X136106799Y-51135536D01*
X136127303Y-51116369D01*
X136133209Y-51106272D01*
X136143999Y-51075481D01*
X136149516Y-51039569D01*
X136150916Y-51004716D01*
X136149516Y-50969932D01*
X136143999Y-50934030D01*
X136133209Y-50903160D01*
X136114793Y-50878967D01*
X136090533Y-50868322D01*
X136082528Y-50867769D01*
X136058318Y-50873581D01*
X136038015Y-50892842D01*
X136032214Y-50902989D01*
X136020987Y-50936686D01*
X136015957Y-50973353D01*
X136014873Y-51004716D01*
X135912234Y-51004716D01*
X135910026Y-50980629D01*
X135907708Y-50937522D01*
X135906839Y-50902972D01*
X135906674Y-50878882D01*
X135907485Y-50833754D01*
X135909917Y-50791548D01*
X135913972Y-50752265D01*
X135919649Y-50715905D01*
X135926948Y-50682467D01*
X135938352Y-50644779D01*
X135952290Y-50611658D01*
X135958575Y-50599688D01*
X135976059Y-50572894D01*
X135996070Y-50550641D01*
X136018610Y-50532929D01*
X136043679Y-50519759D01*
X136071275Y-50511131D01*
X136101400Y-50507043D01*
X136114158Y-50506680D01*
X136138582Y-50508732D01*
G37*
G36*
X137958191Y-51239800D02*
G01*
X137856831Y-51239800D01*
X137825323Y-51053784D01*
X137689646Y-51053784D01*
X137658750Y-51239800D01*
X137557389Y-51239800D01*
X137613992Y-50944363D01*
X137709919Y-50944363D01*
X137805662Y-50944363D01*
X137757668Y-50648414D01*
X137709919Y-50944363D01*
X137613992Y-50944363D01*
X137695752Y-50517622D01*
X137819828Y-50517622D01*
X137958191Y-51239800D01*
G37*
G36*
X138031709Y-51119437D02*
G01*
X138145037Y-51119437D01*
X138145037Y-50637985D01*
X138039524Y-50670811D01*
X138039524Y-50550448D01*
X138145648Y-50517622D01*
X138243589Y-50517622D01*
X138243589Y-51119437D01*
X138356918Y-51119437D01*
X138356918Y-51239800D01*
X138031709Y-51239800D01*
X138031709Y-51119437D01*
G37*
G36*
X138625639Y-50508489D02*
G01*
X138653083Y-50515173D01*
X138677641Y-50526783D01*
X138699312Y-50543317D01*
X138713024Y-50558142D01*
X138731243Y-50586117D01*
X138744256Y-50618751D01*
X138752065Y-50656044D01*
X138754627Y-50692497D01*
X138754667Y-50697996D01*
X138752723Y-50732089D01*
X138746095Y-50765659D01*
X138734762Y-50795107D01*
X138717273Y-50821946D01*
X138696747Y-50841438D01*
X138676754Y-50853749D01*
X138701567Y-50868128D01*
X138722731Y-50888184D01*
X138740245Y-50913916D01*
X138743310Y-50919744D01*
X138755997Y-50951196D01*
X138763985Y-50986355D01*
X138767157Y-51021167D01*
X138767368Y-51033439D01*
X138765835Y-51070761D01*
X138761237Y-51104765D01*
X138751998Y-51140244D01*
X138738587Y-51171206D01*
X138723771Y-51194151D01*
X138702938Y-51216201D01*
X138678587Y-51232836D01*
X138654915Y-51242783D01*
X138628659Y-51248752D01*
X138599817Y-51250742D01*
X138571059Y-51248752D01*
X138544868Y-51242783D01*
X138521245Y-51232836D01*
X138496929Y-51216201D01*
X138476108Y-51194151D01*
X138459121Y-51167059D01*
X138446305Y-51135452D01*
X138437663Y-51099328D01*
X138433575Y-51064771D01*
X138432511Y-51033439D01*
X138432896Y-51026258D01*
X138523858Y-51026258D01*
X138526794Y-51062194D01*
X138536604Y-51094830D01*
X138544741Y-51109691D01*
X138565621Y-51131313D01*
X138589489Y-51140549D01*
X138599817Y-51141321D01*
X138625285Y-51136016D01*
X138647979Y-51118438D01*
X138654894Y-51109178D01*
X138668573Y-51079987D01*
X138675278Y-51044645D01*
X138676021Y-51026258D01*
X138673067Y-50990266D01*
X138663201Y-50957732D01*
X138655016Y-50942996D01*
X138634173Y-50921491D01*
X138610213Y-50912305D01*
X138599817Y-50911537D01*
X138574291Y-50916729D01*
X138551624Y-50933933D01*
X138544741Y-50942996D01*
X138531220Y-50971913D01*
X138524592Y-51007547D01*
X138523858Y-51026258D01*
X138432896Y-51026258D01*
X138434443Y-50997378D01*
X138441122Y-50960926D01*
X138452570Y-50928282D01*
X138456935Y-50919231D01*
X138474037Y-50892413D01*
X138494812Y-50871373D01*
X138519260Y-50856109D01*
X138524591Y-50853749D01*
X138502132Y-50840048D01*
X138481614Y-50820233D01*
X138465484Y-50795448D01*
X138453130Y-50763071D01*
X138446815Y-50728999D01*
X138445751Y-50708425D01*
X138535215Y-50708425D01*
X138538534Y-50742720D01*
X138550456Y-50773580D01*
X138552556Y-50776813D01*
X138573042Y-50795790D01*
X138597960Y-50802092D01*
X138599817Y-50802116D01*
X138625279Y-50796556D01*
X138646226Y-50778370D01*
X138647323Y-50776813D01*
X138660329Y-50747064D01*
X138664647Y-50711100D01*
X138664664Y-50708425D01*
X138661345Y-50674461D01*
X138649423Y-50644061D01*
X138647323Y-50640892D01*
X138626776Y-50622299D01*
X138601690Y-50616125D01*
X138599817Y-50616101D01*
X138574741Y-50621623D01*
X138553789Y-50639687D01*
X138552678Y-50641234D01*
X138539581Y-50670512D01*
X138535232Y-50705802D01*
X138535215Y-50708425D01*
X138445751Y-50708425D01*
X138445212Y-50697996D01*
X138447199Y-50661033D01*
X138453159Y-50627637D01*
X138464837Y-50593839D01*
X138481705Y-50564699D01*
X138486733Y-50558142D01*
X138509417Y-50535628D01*
X138532321Y-50521204D01*
X138558077Y-50511706D01*
X138582423Y-50507484D01*
X138599817Y-50506680D01*
X138625639Y-50508489D01*
G37*
G36*
X140372043Y-51114137D02*
G01*
X140372043Y-50977190D01*
X140302556Y-50977190D01*
X140302556Y-50856827D01*
X140460581Y-50856827D01*
X140460581Y-51183550D01*
X140439794Y-51204454D01*
X140417563Y-51221560D01*
X140396101Y-51233816D01*
X140371330Y-51243452D01*
X140345375Y-51249089D01*
X140320752Y-51250742D01*
X140290753Y-51248379D01*
X140262959Y-51241291D01*
X140237372Y-51229479D01*
X140213992Y-51212941D01*
X140192817Y-51191678D01*
X140173849Y-51165691D01*
X140166879Y-51153973D01*
X140151259Y-51121741D01*
X140138286Y-51085528D01*
X140127960Y-51045332D01*
X140121606Y-51010309D01*
X140116947Y-50972737D01*
X140113981Y-50932616D01*
X140112711Y-50889947D01*
X140112658Y-50878882D01*
X140113512Y-50834953D01*
X140116077Y-50793696D01*
X140120351Y-50755110D01*
X140126335Y-50719196D01*
X140134029Y-50685953D01*
X140146050Y-50648156D01*
X140160743Y-50614533D01*
X140167368Y-50602252D01*
X140185690Y-50574719D01*
X140206385Y-50551853D01*
X140229453Y-50533653D01*
X140254895Y-50520120D01*
X140282709Y-50511253D01*
X140312898Y-50507053D01*
X140325637Y-50506680D01*
X140350560Y-50508542D01*
X140375119Y-50514129D01*
X140386332Y-50517964D01*
X140410017Y-50528769D01*
X140432452Y-50542847D01*
X140442385Y-50550448D01*
X140442385Y-50703638D01*
X140425538Y-50677712D01*
X140405233Y-50655648D01*
X140393415Y-50646363D01*
X140370103Y-50633854D01*
X140345018Y-50627722D01*
X140332842Y-50627043D01*
X140305838Y-50630954D01*
X140282467Y-50642687D01*
X140260518Y-50665236D01*
X140246625Y-50689618D01*
X140234176Y-50724849D01*
X140226201Y-50762284D01*
X140221533Y-50799282D01*
X140219171Y-50833575D01*
X140218198Y-50871016D01*
X140218170Y-50878882D01*
X140218841Y-50915914D01*
X140220854Y-50950075D01*
X140225040Y-50987277D01*
X140232365Y-51025453D01*
X140242320Y-51058000D01*
X140245648Y-51066265D01*
X140260951Y-51094315D01*
X140281908Y-51116291D01*
X140306825Y-51128125D01*
X140325637Y-51130379D01*
X140350147Y-51127368D01*
X140353115Y-51126446D01*
X140372043Y-51114137D01*
G37*
G36*
X140534465Y-50517622D02*
G01*
X140643275Y-50517622D01*
X140786157Y-51042500D01*
X140786157Y-50517622D01*
X140875550Y-50517622D01*
X140875550Y-51239800D01*
X140767351Y-51239800D01*
X140623736Y-50714922D01*
X140623736Y-51239800D01*
X140534465Y-51239800D01*
X140534465Y-50517622D01*
G37*
G36*
X141100528Y-50518942D02*
G01*
X141128647Y-50522901D01*
X141154567Y-50529499D01*
X141178289Y-50538737D01*
X141204851Y-50553996D01*
X141227977Y-50573379D01*
X141247669Y-50596885D01*
X141251196Y-50602081D01*
X141267133Y-50631043D01*
X141280369Y-50665247D01*
X141290904Y-50704693D01*
X141297386Y-50740025D01*
X141302141Y-50778713D01*
X141305166Y-50820755D01*
X141306463Y-50866153D01*
X141306517Y-50878027D01*
X141306030Y-50913086D01*
X141303869Y-50956905D01*
X141299980Y-50997380D01*
X141294361Y-51034510D01*
X141287014Y-51068295D01*
X141275399Y-51105823D01*
X141261082Y-51138125D01*
X141251196Y-51154998D01*
X141232190Y-51179428D01*
X141209751Y-51199718D01*
X141183876Y-51215866D01*
X141154567Y-51227874D01*
X141128647Y-51234499D01*
X141100528Y-51238474D01*
X141070212Y-51239800D01*
X140961646Y-51239800D01*
X140961646Y-51119437D01*
X141063006Y-51119437D01*
X141090484Y-51119437D01*
X141115016Y-51116810D01*
X141139016Y-51107378D01*
X141160872Y-51088566D01*
X141175725Y-51064555D01*
X141186838Y-51032317D01*
X141193957Y-50996237D01*
X141198124Y-50959463D01*
X141200233Y-50924696D01*
X141201101Y-50886180D01*
X141201126Y-50878027D01*
X141200506Y-50839016D01*
X141198645Y-50803729D01*
X141194775Y-50766298D01*
X141188003Y-50729406D01*
X141177287Y-50696179D01*
X141175725Y-50692696D01*
X141158712Y-50666249D01*
X141136252Y-50648457D01*
X141111713Y-50639909D01*
X141090484Y-50637985D01*
X141063006Y-50637985D01*
X141063006Y-51119437D01*
X140961646Y-51119437D01*
X140961646Y-50517622D01*
X141070212Y-50517622D01*
X141100528Y-50518942D01*
G37*
D11*
X89176266Y-50458019D02*
X89176266Y-51172304D01*
X89176266Y-51172304D02*
X89128647Y-51315161D01*
X89128647Y-51315161D02*
X89033409Y-51410400D01*
X89033409Y-51410400D02*
X88890552Y-51458019D01*
X88890552Y-51458019D02*
X88795314Y-51458019D01*
X90176266Y-51458019D02*
X89604838Y-51458019D01*
X89890552Y-51458019D02*
X89890552Y-50458019D01*
X89890552Y-50458019D02*
X89795314Y-50600876D01*
X89795314Y-50600876D02*
X89700076Y-50696114D01*
X89700076Y-50696114D02*
X89604838Y-50743733D01*
X86737866Y-75197619D02*
X86737866Y-75911904D01*
X86737866Y-75911904D02*
X86690247Y-76054761D01*
X86690247Y-76054761D02*
X86595009Y-76150000D01*
X86595009Y-76150000D02*
X86452152Y-76197619D01*
X86452152Y-76197619D02*
X86356914Y-76197619D01*
X87118819Y-75197619D02*
X87737866Y-75197619D01*
X87737866Y-75197619D02*
X87404533Y-75578571D01*
X87404533Y-75578571D02*
X87547390Y-75578571D01*
X87547390Y-75578571D02*
X87642628Y-75626190D01*
X87642628Y-75626190D02*
X87690247Y-75673809D01*
X87690247Y-75673809D02*
X87737866Y-75769047D01*
X87737866Y-75769047D02*
X87737866Y-76007142D01*
X87737866Y-76007142D02*
X87690247Y-76102380D01*
X87690247Y-76102380D02*
X87642628Y-76150000D01*
X87642628Y-76150000D02*
X87547390Y-76197619D01*
X87547390Y-76197619D02*
X87261676Y-76197619D01*
X87261676Y-76197619D02*
X87166438Y-76150000D01*
X87166438Y-76150000D02*
X87118819Y-76102380D01*
D12*
%TO.C,J1*%
X91037000Y-51670000D02*
X92367000Y-51670000D01*
X91037000Y-53000000D02*
X91037000Y-51670000D01*
X91037000Y-54270000D02*
X93637000Y-54270000D01*
X91037000Y-56870000D02*
X91037000Y-54270000D01*
X91037000Y-56870000D02*
X141957000Y-56870000D01*
X93637000Y-51670000D02*
X141957000Y-51670000D01*
X93637000Y-54270000D02*
X93637000Y-51670000D01*
X141957000Y-56870000D02*
X141957000Y-51670000D01*
%TO.C,J3*%
X139417000Y-79380000D02*
X139417000Y-74180000D01*
X91097000Y-76780000D02*
X91097000Y-74180000D01*
X91097000Y-74180000D02*
X139417000Y-74180000D01*
X88497000Y-79380000D02*
X139417000Y-79380000D01*
X88497000Y-79380000D02*
X88497000Y-76780000D01*
X88497000Y-76780000D02*
X91097000Y-76780000D01*
X88497000Y-75510000D02*
X88497000Y-74180000D01*
X88497000Y-74180000D02*
X89827000Y-74180000D01*
D13*
%TO.C,G\u002A\u002A\u002A*%
G36*
X100205249Y-63791901D02*
G01*
X100118154Y-63940266D01*
X99961892Y-64156857D01*
X99830692Y-64322538D01*
X99617860Y-64573843D01*
X99436419Y-64771266D01*
X99311595Y-64888212D01*
X99274711Y-64908692D01*
X99238911Y-64858128D01*
X99260193Y-64807035D01*
X99392264Y-64617076D01*
X99572744Y-64388622D01*
X99773000Y-64154033D01*
X99964402Y-63945669D01*
X100118318Y-63795888D01*
X100206115Y-63737051D01*
X100206943Y-63737024D01*
X100205249Y-63791901D01*
G37*
G36*
X103392084Y-65237122D02*
G01*
X103476200Y-65267075D01*
X103494070Y-65325106D01*
X103489923Y-65354674D01*
X103452987Y-65427420D01*
X103354894Y-65473455D01*
X103163824Y-65500915D01*
X102851920Y-65517787D01*
X102545575Y-65525986D01*
X102365300Y-65518109D01*
X102281184Y-65488155D01*
X102263314Y-65430125D01*
X102267461Y-65400556D01*
X102304397Y-65327811D01*
X102402490Y-65281775D01*
X102593560Y-65254315D01*
X102905464Y-65237444D01*
X103211809Y-65229244D01*
X103392084Y-65237122D01*
G37*
G36*
X98779241Y-65700588D02*
G01*
X98927934Y-65735478D01*
X98971000Y-65799100D01*
X98899716Y-65922023D01*
X98701740Y-65991487D01*
X98540197Y-66002846D01*
X98384470Y-66052135D01*
X98331666Y-66178692D01*
X98259260Y-66313207D01*
X98124825Y-66385565D01*
X97983161Y-66387467D01*
X97889068Y-66310611D01*
X97876846Y-66247587D01*
X97904734Y-66053524D01*
X97953065Y-65890703D01*
X98009266Y-65778805D01*
X98097851Y-65718633D01*
X98261931Y-65694390D01*
X98500142Y-65690231D01*
X98779241Y-65700588D01*
G37*
G36*
X99010401Y-65225406D02*
G01*
X99183175Y-65242628D01*
X99260004Y-65280368D01*
X99271016Y-65346016D01*
X99268978Y-65358077D01*
X99227399Y-65432965D01*
X99116070Y-65479325D01*
X98902349Y-65506195D01*
X98693218Y-65517483D01*
X98414013Y-65522108D01*
X98199992Y-65512852D01*
X98095389Y-65491720D01*
X98093739Y-65490304D01*
X98072729Y-65383152D01*
X98085977Y-65330898D01*
X98159087Y-65269566D01*
X98335961Y-65234514D01*
X98640231Y-65221600D01*
X98711553Y-65221308D01*
X99010401Y-65225406D01*
G37*
G36*
X100255098Y-65225310D02*
G01*
X100430302Y-65242145D01*
X100509231Y-65279057D01*
X100521852Y-65343290D01*
X100519440Y-65358077D01*
X100478777Y-65431983D01*
X100369867Y-65478107D01*
X100160406Y-65505168D01*
X99927555Y-65517808D01*
X99635097Y-65526277D01*
X99465521Y-65516726D01*
X99385725Y-65481154D01*
X99362604Y-65411558D01*
X99361769Y-65381039D01*
X99374698Y-65299761D01*
X99435050Y-65251923D01*
X99575169Y-65228795D01*
X99827400Y-65221649D01*
X99953653Y-65221308D01*
X100255098Y-65225310D01*
G37*
G36*
X100026523Y-65696227D02*
G01*
X100163636Y-65720948D01*
X100209826Y-65774494D01*
X100207013Y-65827000D01*
X100108609Y-65943372D01*
X99927995Y-65988241D01*
X99731752Y-66039787D01*
X99637679Y-66166693D01*
X99627086Y-66203164D01*
X99550045Y-66347279D01*
X99387209Y-66392997D01*
X99353296Y-66393615D01*
X99180841Y-66361065D01*
X99127307Y-66288047D01*
X99151820Y-66144032D01*
X99211004Y-65942419D01*
X99213107Y-65936355D01*
X99269394Y-65799556D01*
X99345613Y-65725999D01*
X99485767Y-65696092D01*
X99733856Y-65690246D01*
X99765914Y-65690231D01*
X100026523Y-65696227D01*
G37*
G36*
X100404007Y-64323785D02*
G01*
X100517577Y-64437699D01*
X100534077Y-64520702D01*
X100473323Y-64709695D01*
X100323453Y-64843000D01*
X100133054Y-64903623D01*
X99950713Y-64874568D01*
X99837159Y-64764468D01*
X99812106Y-64615630D01*
X100005883Y-64615630D01*
X100028626Y-64678356D01*
X100128804Y-64735996D01*
X100236106Y-64677579D01*
X100285807Y-64570062D01*
X100253211Y-64458770D01*
X100192727Y-64439769D01*
X100050689Y-64493425D01*
X100005883Y-64615630D01*
X99812106Y-64615630D01*
X99808496Y-64594182D01*
X99877917Y-64451852D01*
X100033157Y-64325508D01*
X100225527Y-64284603D01*
X100404007Y-64323785D01*
G37*
G36*
X95821010Y-63764651D02*
G01*
X95834765Y-63860306D01*
X95824851Y-64063922D01*
X95797393Y-64301136D01*
X95754063Y-64569259D01*
X95706849Y-64719423D01*
X95634939Y-64789057D01*
X95517520Y-64815591D01*
X95510911Y-64816363D01*
X95375178Y-64823238D01*
X95321989Y-64774642D01*
X95328594Y-64630377D01*
X95345053Y-64523286D01*
X95369060Y-64321262D01*
X95344062Y-64229512D01*
X95254674Y-64205661D01*
X95229604Y-64205308D01*
X95097237Y-64177088D01*
X95063307Y-64134126D01*
X95127174Y-64061502D01*
X95284368Y-63962357D01*
X95483275Y-63861860D01*
X95672286Y-63785178D01*
X95799787Y-63757476D01*
X95821010Y-63764651D01*
G37*
G36*
X99527130Y-63776760D02*
G01*
X99642895Y-63896247D01*
X99662268Y-63966467D01*
X99626278Y-64169677D01*
X99479853Y-64305581D01*
X99262396Y-64351387D01*
X99068692Y-64309855D01*
X98992742Y-64209816D01*
X98971000Y-64084314D01*
X98999034Y-63998591D01*
X99158432Y-63998591D01*
X99159455Y-64115757D01*
X99162176Y-64120344D01*
X99270681Y-64200695D01*
X99404282Y-64127815D01*
X99439155Y-64089002D01*
X99491255Y-63986145D01*
X99406784Y-63923238D01*
X99404395Y-63922316D01*
X99257939Y-63919509D01*
X99158432Y-63998591D01*
X98999034Y-63998591D01*
X99029405Y-63905725D01*
X99173091Y-63789562D01*
X99354763Y-63743886D01*
X99527130Y-63776760D01*
G37*
G36*
X96887420Y-63751023D02*
G01*
X97156071Y-63858047D01*
X97298102Y-64042511D01*
X97320119Y-64284650D01*
X97222378Y-64542305D01*
X97151344Y-64638484D01*
X96922969Y-64803737D01*
X96627478Y-64888525D01*
X96326870Y-64883783D01*
X96098846Y-64792380D01*
X95966757Y-64611365D01*
X95933193Y-64421479D01*
X96325380Y-64421479D01*
X96404651Y-64544369D01*
X96584392Y-64596067D01*
X96587373Y-64596077D01*
X96776020Y-64536937D01*
X96853095Y-64420231D01*
X96890334Y-64203125D01*
X96810126Y-64082884D01*
X96643822Y-64064311D01*
X96449622Y-64137585D01*
X96341922Y-64271263D01*
X96325380Y-64421479D01*
X95933193Y-64421479D01*
X95923248Y-64365214D01*
X95975188Y-64122042D01*
X96023178Y-64042227D01*
X96259131Y-63849554D01*
X96566453Y-63749358D01*
X96887420Y-63751023D01*
G37*
G36*
X98582555Y-63833616D02*
G01*
X98748554Y-63999756D01*
X98812996Y-64223960D01*
X98750791Y-64489515D01*
X98734221Y-64522252D01*
X98544698Y-64726430D01*
X98267317Y-64855452D01*
X97957520Y-64896580D01*
X97670754Y-64837078D01*
X97581620Y-64787030D01*
X97432009Y-64598993D01*
X97395932Y-64358646D01*
X97413083Y-64298622D01*
X97816899Y-64298622D01*
X97824887Y-64473457D01*
X97935342Y-64574610D01*
X98091325Y-64581772D01*
X98244780Y-64537691D01*
X98313491Y-64419459D01*
X98331608Y-64297290D01*
X98336961Y-64122378D01*
X98283141Y-64058863D01*
X98144106Y-64062828D01*
X97930798Y-64143197D01*
X97816899Y-64298622D01*
X97413083Y-64298622D01*
X97466149Y-64112904D01*
X97635420Y-63908682D01*
X97726128Y-63850725D01*
X98046251Y-63742386D01*
X98340090Y-63742255D01*
X98582555Y-63833616D01*
G37*
G36*
X102983008Y-65617734D02*
G01*
X103125117Y-65642602D01*
X103182460Y-65698528D01*
X103191307Y-65768385D01*
X103165092Y-65870647D01*
X103059133Y-65915843D01*
X102878692Y-65924692D01*
X102682931Y-65942026D01*
X102574048Y-65985327D01*
X102566077Y-66002846D01*
X102636290Y-66047788D01*
X102815485Y-66076044D01*
X102949529Y-66081000D01*
X103176814Y-66087590D01*
X103282823Y-66117957D01*
X103302387Y-66187992D01*
X103292106Y-66237308D01*
X103255840Y-66315736D01*
X103175297Y-66362614D01*
X103016890Y-66385831D01*
X102747034Y-66393275D01*
X102626643Y-66393615D01*
X102317218Y-66391966D01*
X102134643Y-66380478D01*
X102049459Y-66349343D01*
X102032208Y-66288751D01*
X102050228Y-66201677D01*
X102131591Y-65905131D01*
X102215151Y-65729553D01*
X102336881Y-65643297D01*
X102532755Y-65614717D01*
X102720450Y-65612077D01*
X102983008Y-65617734D01*
G37*
G36*
X97500902Y-65226095D02*
G01*
X97738800Y-65350241D01*
X97853628Y-65544978D01*
X97844006Y-65782796D01*
X97708554Y-66036184D01*
X97549704Y-66198461D01*
X97354766Y-66326492D01*
X97128989Y-66382853D01*
X96913465Y-66391239D01*
X96652804Y-66374918D01*
X96441679Y-66336027D01*
X96372384Y-66309201D01*
X96262485Y-66163989D01*
X96236672Y-65941665D01*
X96240585Y-65924361D01*
X96716141Y-65924361D01*
X96743183Y-66002147D01*
X96862803Y-66069493D01*
X97044350Y-66071257D01*
X97208997Y-66009828D01*
X97235984Y-65987215D01*
X97314322Y-65833738D01*
X97320976Y-65651399D01*
X97258441Y-65512301D01*
X97218645Y-65486375D01*
X97043884Y-65488405D01*
X96874945Y-65591297D01*
X96752229Y-65751226D01*
X96716141Y-65924361D01*
X96240585Y-65924361D01*
X96292402Y-65695225D01*
X96411461Y-65495113D01*
X96668298Y-65305634D01*
X97008078Y-65202913D01*
X97375595Y-65200581D01*
X97500902Y-65226095D01*
G37*
G36*
X101994256Y-65223372D02*
G01*
X102062192Y-65249749D01*
X102078121Y-65330717D01*
X102045902Y-65496552D01*
X101969394Y-65777533D01*
X101950140Y-65846538D01*
X101869352Y-66117972D01*
X101800056Y-66273033D01*
X101716500Y-66347154D01*
X101592928Y-66375770D01*
X101563176Y-66378950D01*
X101391937Y-66375644D01*
X101281368Y-66296496D01*
X101184968Y-66124950D01*
X101071488Y-65919245D01*
X100990487Y-65863120D01*
X100929751Y-65956373D01*
X100890925Y-66120077D01*
X100838726Y-66305391D01*
X100745965Y-66380975D01*
X100607200Y-66393615D01*
X100447277Y-66379494D01*
X100404810Y-66306388D01*
X100428586Y-66178692D01*
X100524977Y-65793409D01*
X100594691Y-65533686D01*
X100651359Y-65374066D01*
X100708614Y-65289088D01*
X100780090Y-65253293D01*
X100879419Y-65241222D01*
X100932782Y-65237098D01*
X101114136Y-65237434D01*
X101228167Y-65303348D01*
X101331892Y-65472126D01*
X101351080Y-65510636D01*
X101497224Y-65807461D01*
X101570491Y-65514385D01*
X101635450Y-65320307D01*
X101728280Y-65237395D01*
X101870456Y-65221308D01*
X101994256Y-65223372D01*
G37*
G36*
X104318631Y-65237906D02*
G01*
X104633168Y-65252674D01*
X104824018Y-65275656D01*
X104923796Y-65316244D01*
X104965119Y-65383831D01*
X104973466Y-65426489D01*
X104941205Y-65615897D01*
X104879496Y-65710262D01*
X104802791Y-65820915D01*
X104804620Y-65870723D01*
X104819432Y-65969124D01*
X104795998Y-66147530D01*
X104794689Y-66153565D01*
X104732052Y-66324825D01*
X104612088Y-66387764D01*
X104508800Y-66393615D01*
X104345504Y-66375017D01*
X104295121Y-66296033D01*
X104300087Y-66217769D01*
X104270556Y-66066432D01*
X104161720Y-66004590D01*
X104024572Y-66035398D01*
X103910106Y-66162011D01*
X103896752Y-66192811D01*
X103795744Y-66324837D01*
X103649332Y-66394910D01*
X103510011Y-66393847D01*
X103430273Y-66312464D01*
X103425769Y-66275205D01*
X103445823Y-66140274D01*
X103497893Y-65910057D01*
X103556631Y-65686110D01*
X103577214Y-65612077D01*
X104051000Y-65612077D01*
X104117882Y-65670827D01*
X104246384Y-65690231D01*
X104393260Y-65663478D01*
X104441769Y-65612077D01*
X104374886Y-65553327D01*
X104246384Y-65533923D01*
X104099509Y-65560676D01*
X104051000Y-65612077D01*
X103577214Y-65612077D01*
X103687492Y-65215427D01*
X104318631Y-65237906D01*
G37*
%TD*%
M02*
