%TF.GenerationSoftware,KiCad,Pcbnew,8.0.7-8.0.7-0~ubuntu22.04.1*%
%TF.CreationDate,2024-12-18T08:29:18+01:00*%
%TF.ProjectId,Mezzanine_v1,4d657a7a-616e-4696-9e65-5f76312e6b69,rev?*%
%TF.SameCoordinates,Original*%
%TF.FileFunction,Soldermask,Top*%
%TF.FilePolarity,Negative*%
%FSLAX46Y46*%
G04 Gerber Fmt 4.6, Leading zero omitted, Abs format (unit mm)*
G04 Created by KiCad (PCBNEW 8.0.7-8.0.7-0~ubuntu22.04.1) date 2024-12-18 08:29:18*
%MOMM*%
%LPD*%
G01*
G04 APERTURE LIST*
%ADD10R,1.700000X1.700000*%
%ADD11O,1.700000X1.700000*%
G04 APERTURE END LIST*
D10*
%TO.C,J1*%
X92367000Y-53000000D03*
D11*
X92367000Y-55540000D03*
X94907000Y-53000000D03*
X94907000Y-55540000D03*
X97447000Y-53000000D03*
X97447000Y-55540000D03*
X99987000Y-53000000D03*
X99987000Y-55540000D03*
X102527000Y-53000000D03*
X102527000Y-55540000D03*
X105067000Y-53000000D03*
X105067000Y-55540000D03*
X107607000Y-53000000D03*
X107607000Y-55540000D03*
X110147000Y-53000000D03*
X110147000Y-55540000D03*
X112687000Y-53000000D03*
X112687000Y-55540000D03*
X115227000Y-53000000D03*
X115227000Y-55540000D03*
X117767000Y-53000000D03*
X117767000Y-55540000D03*
X120307000Y-53000000D03*
X120307000Y-55540000D03*
X122847000Y-53000000D03*
X122847000Y-55540000D03*
X125387000Y-53000000D03*
X125387000Y-55540000D03*
X127927000Y-53000000D03*
X127927000Y-55540000D03*
X130467000Y-53000000D03*
X130467000Y-55540000D03*
X133007000Y-53000000D03*
X133007000Y-55540000D03*
X135547000Y-53000000D03*
X135547000Y-55540000D03*
X138087000Y-53000000D03*
X138087000Y-55540000D03*
X140627000Y-53000000D03*
X140627000Y-55540000D03*
%TD*%
%TO.C,J3*%
X138087000Y-78050000D03*
X138087000Y-75510000D03*
X135547000Y-78050000D03*
X135547000Y-75510000D03*
X133007000Y-78050000D03*
X133007000Y-75510000D03*
X130467000Y-78050000D03*
X130467000Y-75510000D03*
X127927000Y-78050000D03*
X127927000Y-75510000D03*
X125387000Y-78050000D03*
X125387000Y-75510000D03*
X122847000Y-78050000D03*
X122847000Y-75510000D03*
X120307000Y-78050000D03*
X120307000Y-75510000D03*
X117767000Y-78050000D03*
X117767000Y-75510000D03*
X115227000Y-78050000D03*
X115227000Y-75510000D03*
X112687000Y-78050000D03*
X112687000Y-75510000D03*
X110147000Y-78050000D03*
X110147000Y-75510000D03*
X107607000Y-78050000D03*
X107607000Y-75510000D03*
X105067000Y-78050000D03*
X105067000Y-75510000D03*
X102527000Y-78050000D03*
X102527000Y-75510000D03*
X99987000Y-78050000D03*
X99987000Y-75510000D03*
X97447000Y-78050000D03*
X97447000Y-75510000D03*
X94907000Y-78050000D03*
X94907000Y-75510000D03*
X92367000Y-78050000D03*
X92367000Y-75510000D03*
X89827000Y-78050000D03*
D10*
X89827000Y-75510000D03*
%TD*%
M02*
