%TF.GenerationSoftware,KiCad,Pcbnew,8.0.5-8.0.5-0~ubuntu22.04.1*%
%TF.CreationDate,2024-10-05T17:02:35+02:00*%
%TF.ProjectId,USB-Serial InputBoard,5553422d-5365-4726-9961-6c20496e7075,rev?*%
%TF.SameCoordinates,Original*%
%TF.FileFunction,Soldermask,Bot*%
%TF.FilePolarity,Negative*%
%FSLAX46Y46*%
G04 Gerber Fmt 4.6, Leading zero omitted, Abs format (unit mm)*
G04 Created by KiCad (PCBNEW 8.0.5-8.0.5-0~ubuntu22.04.1) date 2024-10-05 17:02:35*
%MOMM*%
%LPD*%
G01*
G04 APERTURE LIST*
G04 Aperture macros list*
%AMRoundRect*
0 Rectangle with rounded corners*
0 $1 Rounding radius*
0 $2 $3 $4 $5 $6 $7 $8 $9 X,Y pos of 4 corners*
0 Add a 4 corners polygon primitive as box body*
4,1,4,$2,$3,$4,$5,$6,$7,$8,$9,$2,$3,0*
0 Add four circle primitives for the rounded corners*
1,1,$1+$1,$2,$3*
1,1,$1+$1,$4,$5*
1,1,$1+$1,$6,$7*
1,1,$1+$1,$8,$9*
0 Add four rect primitives between the rounded corners*
20,1,$1+$1,$2,$3,$4,$5,0*
20,1,$1+$1,$4,$5,$6,$7,0*
20,1,$1+$1,$6,$7,$8,$9,0*
20,1,$1+$1,$8,$9,$2,$3,0*%
G04 Aperture macros list end*
%ADD10C,3.200000*%
%ADD11R,1.700000X1.700000*%
%ADD12O,1.700000X1.700000*%
%ADD13RoundRect,0.250000X-0.650000X0.325000X-0.650000X-0.325000X0.650000X-0.325000X0.650000X0.325000X0*%
%ADD14RoundRect,0.250000X0.650000X-0.325000X0.650000X0.325000X-0.650000X0.325000X-0.650000X-0.325000X0*%
G04 APERTURE END LIST*
D10*
%TO.C,H10*%
X54565000Y-130910000D03*
%TD*%
D11*
%TO.C,J8*%
X99300000Y-131960000D03*
D12*
X99300000Y-134500000D03*
X101840000Y-131960000D03*
X101840000Y-134500000D03*
X104380000Y-131960000D03*
X104380000Y-134500000D03*
X106920000Y-131960000D03*
X106920000Y-134500000D03*
X109460000Y-131960000D03*
X109460000Y-134500000D03*
X112000000Y-131960000D03*
X112000000Y-134500000D03*
X114540000Y-131960000D03*
X114540000Y-134500000D03*
X117080000Y-131960000D03*
X117080000Y-134500000D03*
X119620000Y-131960000D03*
X119620000Y-134500000D03*
X122160000Y-131960000D03*
X122160000Y-134500000D03*
X124700000Y-131960000D03*
X124700000Y-134500000D03*
X127240000Y-131960000D03*
X127240000Y-134500000D03*
X129780000Y-131960000D03*
X129780000Y-134500000D03*
X132320000Y-131960000D03*
X132320000Y-134500000D03*
X134860000Y-131960000D03*
X134860000Y-134500000D03*
X137400000Y-131960000D03*
X137400000Y-134500000D03*
%TD*%
D10*
%TO.C,H9*%
X92775000Y-130910000D03*
%TD*%
D11*
%TO.C,J1*%
X92367000Y-53000000D03*
D12*
X92367000Y-55540000D03*
X94907000Y-53000000D03*
X94907000Y-55540000D03*
X97447000Y-53000000D03*
X97447000Y-55540000D03*
X99987000Y-53000000D03*
X99987000Y-55540000D03*
X102527000Y-53000000D03*
X102527000Y-55540000D03*
X105067000Y-53000000D03*
X105067000Y-55540000D03*
X107607000Y-53000000D03*
X107607000Y-55540000D03*
X110147000Y-53000000D03*
X110147000Y-55540000D03*
X112687000Y-53000000D03*
X112687000Y-55540000D03*
X115227000Y-53000000D03*
X115227000Y-55540000D03*
X117767000Y-53000000D03*
X117767000Y-55540000D03*
X120307000Y-53000000D03*
X120307000Y-55540000D03*
X122847000Y-53000000D03*
X122847000Y-55540000D03*
X125387000Y-53000000D03*
X125387000Y-55540000D03*
X127927000Y-53000000D03*
X127927000Y-55540000D03*
X130467000Y-53000000D03*
X130467000Y-55540000D03*
X133007000Y-53000000D03*
X133007000Y-55540000D03*
X135547000Y-53000000D03*
X135547000Y-55540000D03*
X138087000Y-53000000D03*
X138087000Y-55540000D03*
X140627000Y-53000000D03*
X140627000Y-55540000D03*
%TD*%
D11*
%TO.C,J4*%
X140627000Y-141000000D03*
D12*
X140627000Y-138460000D03*
X138087000Y-141000000D03*
X138087000Y-138460000D03*
X135547000Y-141000000D03*
X135547000Y-138460000D03*
X133007000Y-141000000D03*
X133007000Y-138460000D03*
X130467000Y-141000000D03*
X130467000Y-138460000D03*
X127927000Y-141000000D03*
X127927000Y-138460000D03*
X125387000Y-141000000D03*
X125387000Y-138460000D03*
X122847000Y-141000000D03*
X122847000Y-138460000D03*
X120307000Y-141000000D03*
X120307000Y-138460000D03*
X117767000Y-141000000D03*
X117767000Y-138460000D03*
X115227000Y-141000000D03*
X115227000Y-138460000D03*
X112687000Y-141000000D03*
X112687000Y-138460000D03*
X110147000Y-141000000D03*
X110147000Y-138460000D03*
X107607000Y-141000000D03*
X107607000Y-138460000D03*
X105067000Y-141000000D03*
X105067000Y-138460000D03*
X102527000Y-141000000D03*
X102527000Y-138460000D03*
X99987000Y-141000000D03*
X99987000Y-138460000D03*
X97447000Y-141000000D03*
X97447000Y-138460000D03*
X94907000Y-141000000D03*
X94907000Y-138460000D03*
X92367000Y-141000000D03*
X92367000Y-138460000D03*
%TD*%
D11*
%TO.C,J2*%
X140627000Y-147000000D03*
D12*
X140627000Y-144460000D03*
X138087000Y-147000000D03*
X138087000Y-144460000D03*
X135547000Y-147000000D03*
X135547000Y-144460000D03*
X133007000Y-147000000D03*
X133007000Y-144460000D03*
X130467000Y-147000000D03*
X130467000Y-144460000D03*
X127927000Y-147000000D03*
X127927000Y-144460000D03*
X125387000Y-147000000D03*
X125387000Y-144460000D03*
X122847000Y-147000000D03*
X122847000Y-144460000D03*
X120307000Y-147000000D03*
X120307000Y-144460000D03*
X117767000Y-147000000D03*
X117767000Y-144460000D03*
X115227000Y-147000000D03*
X115227000Y-144460000D03*
X112687000Y-147000000D03*
X112687000Y-144460000D03*
X110147000Y-147000000D03*
X110147000Y-144460000D03*
X107607000Y-147000000D03*
X107607000Y-144460000D03*
X105067000Y-147000000D03*
X105067000Y-144460000D03*
X102527000Y-147000000D03*
X102527000Y-144460000D03*
X99987000Y-147000000D03*
X99987000Y-144460000D03*
X97447000Y-147000000D03*
X97447000Y-144460000D03*
X94907000Y-147000000D03*
X94907000Y-144460000D03*
X92367000Y-147000000D03*
X92367000Y-144460000D03*
%TD*%
D10*
%TO.C,H3*%
X146000000Y-54000000D03*
%TD*%
D11*
%TO.C,J7*%
X69890000Y-131285000D03*
D12*
X69890000Y-128745000D03*
X67350000Y-131285000D03*
X67350000Y-128745000D03*
X64810000Y-131285000D03*
X64810000Y-128745000D03*
X62270000Y-131285000D03*
X62270000Y-128745000D03*
%TD*%
D11*
%TO.C,J3*%
X92367000Y-59000000D03*
D12*
X92367000Y-61540000D03*
X94907000Y-59000000D03*
X94907000Y-61540000D03*
X97447000Y-59000000D03*
X97447000Y-61540000D03*
X99987000Y-59000000D03*
X99987000Y-61540000D03*
X102527000Y-59000000D03*
X102527000Y-61540000D03*
X105067000Y-59000000D03*
X105067000Y-61540000D03*
X107607000Y-59000000D03*
X107607000Y-61540000D03*
X110147000Y-59000000D03*
X110147000Y-61540000D03*
X112687000Y-59000000D03*
X112687000Y-61540000D03*
X115227000Y-59000000D03*
X115227000Y-61540000D03*
X117767000Y-59000000D03*
X117767000Y-61540000D03*
X120307000Y-59000000D03*
X120307000Y-61540000D03*
X122847000Y-59000000D03*
X122847000Y-61540000D03*
X125387000Y-59000000D03*
X125387000Y-61540000D03*
X127927000Y-59000000D03*
X127927000Y-61540000D03*
X130467000Y-59000000D03*
X130467000Y-61540000D03*
X133007000Y-59000000D03*
X133007000Y-61540000D03*
X135547000Y-59000000D03*
X135547000Y-61540000D03*
X138087000Y-59000000D03*
X138087000Y-61540000D03*
X140627000Y-59000000D03*
X140627000Y-61540000D03*
%TD*%
D11*
%TO.C,J6*%
X92750000Y-81435000D03*
D12*
X92750000Y-83975000D03*
X92750000Y-86515000D03*
X92750000Y-89055000D03*
X92750000Y-91595000D03*
%TD*%
D11*
%TO.C,J5*%
X92750000Y-123535000D03*
D12*
X92750000Y-120995000D03*
X90210000Y-123535000D03*
X90210000Y-120995000D03*
X87670000Y-123535000D03*
X87670000Y-120995000D03*
X85130000Y-123535000D03*
X85130000Y-120995000D03*
X82590000Y-123535000D03*
X82590000Y-120995000D03*
X80050000Y-123535000D03*
X80050000Y-120995000D03*
X77510000Y-123535000D03*
X77510000Y-120995000D03*
X74970000Y-123535000D03*
X74970000Y-120995000D03*
X72430000Y-123535000D03*
X72430000Y-120995000D03*
X69890000Y-123535000D03*
X69890000Y-120995000D03*
X67350000Y-123535000D03*
X67350000Y-120995000D03*
X64810000Y-123535000D03*
X64810000Y-120995000D03*
X62270000Y-123535000D03*
X62270000Y-120995000D03*
X59730000Y-123535000D03*
X59730000Y-120995000D03*
X57190000Y-123535000D03*
X57190000Y-120995000D03*
X54650000Y-123535000D03*
X54650000Y-120995000D03*
%TD*%
D10*
%TO.C,H7*%
X92775000Y-69690000D03*
%TD*%
D11*
%TO.C,J9*%
X101000000Y-81340000D03*
D12*
X101000000Y-83880000D03*
X101000000Y-86420000D03*
X101000000Y-88960000D03*
X101000000Y-91500000D03*
%TD*%
D10*
%TO.C,H1*%
X54000000Y-54000000D03*
%TD*%
%TO.C,H2*%
X54000000Y-146000000D03*
%TD*%
%TO.C,H8*%
X54565000Y-69690000D03*
%TD*%
%TO.C,H4*%
X146000000Y-146000000D03*
%TD*%
D13*
%TO.C,C2*%
X88800000Y-144300000D03*
X88800000Y-147250000D03*
%TD*%
D14*
%TO.C,C1*%
X89000000Y-55600000D03*
X89000000Y-52650000D03*
%TD*%
M02*
