M48
; DRILL file {KiCad 8.0.5-8.0.5-0~ubuntu22.04.1} date 2024-10-05T16:59:32+0200
; FORMAT={-:-/ absolute / inch / decimal}
; #@! TF.CreationDate,2024-10-05T16:59:32+02:00
; #@! TF.GenerationSoftware,Kicad,Pcbnew,8.0.5-8.0.5-0~ubuntu22.04.1
; #@! TF.FileFunction,MixedPlating,1,2
FMAT,2
INCH
; #@! TA.AperFunction,Plated,PTH,ComponentDrill
T1C0.0394
; #@! TA.AperFunction,NonPlated,NPTH,ComponentDrill
T2C0.1260
%
G90
G05
T1
X2.1516Y-4.7636
X2.1516Y-4.8636
X2.2516Y-4.7636
X2.2516Y-4.8636
X2.3516Y-4.7636
X2.3516Y-4.8636
X2.4516Y-4.7636
X2.4516Y-4.8636
X2.4516Y-5.0687
X2.4516Y-5.1687
X2.5516Y-4.7636
X2.5516Y-4.8636
X2.5516Y-5.0687
X2.5516Y-5.1687
X2.6516Y-4.7636
X2.6516Y-4.8636
X2.6516Y-5.0687
X2.6516Y-5.1687
X2.7516Y-4.7636
X2.7516Y-4.8636
X2.7516Y-5.0687
X2.7516Y-5.1687
X2.8516Y-4.7636
X2.8516Y-4.8636
X2.9516Y-4.7636
X2.9516Y-4.8636
X3.0516Y-4.7636
X3.0516Y-4.8636
X3.1516Y-4.7636
X3.1516Y-4.8636
X3.2516Y-4.7636
X3.2516Y-4.8636
X3.3516Y-4.7636
X3.3516Y-4.8636
X3.4516Y-4.7636
X3.4516Y-4.8636
X3.5516Y-4.7636
X3.5516Y-4.8636
X3.6365Y-2.0866
X3.6365Y-2.1866
X3.6365Y-2.3228
X3.6365Y-2.4228
X3.6365Y-5.4512
X3.6365Y-5.5512
X3.6365Y-5.6874
X3.6365Y-5.7874
X3.6516Y-3.2061
X3.6516Y-3.3061
X3.6516Y-3.4061
X3.6516Y-3.5061
X3.6516Y-3.6061
X3.6516Y-4.7636
X3.6516Y-4.8636
X3.7365Y-2.0866
X3.7365Y-2.1866
X3.7365Y-2.3228
X3.7365Y-2.4228
X3.7365Y-5.4512
X3.7365Y-5.5512
X3.7365Y-5.6874
X3.7365Y-5.7874
X3.8365Y-2.0866
X3.8365Y-2.1866
X3.8365Y-2.3228
X3.8365Y-2.4228
X3.8365Y-5.4512
X3.8365Y-5.5512
X3.8365Y-5.6874
X3.8365Y-5.7874
X3.9094Y-5.1953
X3.9094Y-5.2953
X3.9365Y-2.0866
X3.9365Y-2.1866
X3.9365Y-2.3228
X3.9365Y-2.4228
X3.9365Y-5.4512
X3.9365Y-5.5512
X3.9365Y-5.6874
X3.9365Y-5.7874
X3.9764Y-3.2024
X3.9764Y-3.3024
X3.9764Y-3.4024
X3.9764Y-3.5024
X3.9764Y-3.6024
X4.0094Y-5.1953
X4.0094Y-5.2953
X4.0365Y-2.0866
X4.0365Y-2.1866
X4.0365Y-2.3228
X4.0365Y-2.4228
X4.0365Y-5.4512
X4.0365Y-5.5512
X4.0365Y-5.6874
X4.0365Y-5.7874
X4.1094Y-5.1953
X4.1094Y-5.2953
X4.1365Y-2.0866
X4.1365Y-2.1866
X4.1365Y-2.3228
X4.1365Y-2.4228
X4.1365Y-5.4512
X4.1365Y-5.5512
X4.1365Y-5.6874
X4.1365Y-5.7874
X4.2094Y-5.1953
X4.2094Y-5.2953
X4.2365Y-2.0866
X4.2365Y-2.1866
X4.2365Y-2.3228
X4.2365Y-2.4228
X4.2365Y-5.4512
X4.2365Y-5.5512
X4.2365Y-5.6874
X4.2365Y-5.7874
X4.3094Y-5.1953
X4.3094Y-5.2953
X4.3365Y-2.0866
X4.3365Y-2.1866
X4.3365Y-2.3228
X4.3365Y-2.4228
X4.3365Y-5.4512
X4.3365Y-5.5512
X4.3365Y-5.6874
X4.3365Y-5.7874
X4.4094Y-5.1953
X4.4094Y-5.2953
X4.4365Y-2.0866
X4.4365Y-2.1866
X4.4365Y-2.3228
X4.4365Y-2.4228
X4.4365Y-5.4512
X4.4365Y-5.5512
X4.4365Y-5.6874
X4.4365Y-5.7874
X4.5094Y-5.1953
X4.5094Y-5.2953
X4.5365Y-2.0866
X4.5365Y-2.1866
X4.5365Y-2.3228
X4.5365Y-2.4228
X4.5365Y-5.4512
X4.5365Y-5.5512
X4.5365Y-5.6874
X4.5365Y-5.7874
X4.6094Y-5.1953
X4.6094Y-5.2953
X4.6365Y-2.0866
X4.6365Y-2.1866
X4.6365Y-2.3228
X4.6365Y-2.4228
X4.6365Y-5.4512
X4.6365Y-5.5512
X4.6365Y-5.6874
X4.6365Y-5.7874
X4.7094Y-5.1953
X4.7094Y-5.2953
X4.7365Y-2.0866
X4.7365Y-2.1866
X4.7365Y-2.3228
X4.7365Y-2.4228
X4.7365Y-5.4512
X4.7365Y-5.5512
X4.7365Y-5.6874
X4.7365Y-5.7874
X4.8094Y-5.1953
X4.8094Y-5.2953
X4.8365Y-2.0866
X4.8365Y-2.1866
X4.8365Y-2.3228
X4.8365Y-2.4228
X4.8365Y-5.4512
X4.8365Y-5.5512
X4.8365Y-5.6874
X4.8365Y-5.7874
X4.9094Y-5.1953
X4.9094Y-5.2953
X4.9365Y-2.0866
X4.9365Y-2.1866
X4.9365Y-2.3228
X4.9365Y-2.4228
X4.9365Y-5.4512
X4.9365Y-5.5512
X4.9365Y-5.6874
X4.9365Y-5.7874
X5.0094Y-5.1953
X5.0094Y-5.2953
X5.0365Y-2.0866
X5.0365Y-2.1866
X5.0365Y-2.3228
X5.0365Y-2.4228
X5.0365Y-5.4512
X5.0365Y-5.5512
X5.0365Y-5.6874
X5.0365Y-5.7874
X5.1094Y-5.1953
X5.1094Y-5.2953
X5.1365Y-2.0866
X5.1365Y-2.1866
X5.1365Y-2.3228
X5.1365Y-2.4228
X5.1365Y-5.4512
X5.1365Y-5.5512
X5.1365Y-5.6874
X5.1365Y-5.7874
X5.2094Y-5.1953
X5.2094Y-5.2953
X5.2365Y-2.0866
X5.2365Y-2.1866
X5.2365Y-2.3228
X5.2365Y-2.4228
X5.2365Y-5.4512
X5.2365Y-5.5512
X5.2365Y-5.6874
X5.2365Y-5.7874
X5.3094Y-5.1953
X5.3094Y-5.2953
X5.3365Y-2.0866
X5.3365Y-2.1866
X5.3365Y-2.3228
X5.3365Y-2.4228
X5.3365Y-5.4512
X5.3365Y-5.5512
X5.3365Y-5.6874
X5.3365Y-5.7874
X5.4094Y-5.1953
X5.4094Y-5.2953
X5.4365Y-2.0866
X5.4365Y-2.1866
X5.4365Y-2.3228
X5.4365Y-2.4228
X5.4365Y-5.4512
X5.4365Y-5.5512
X5.4365Y-5.6874
X5.4365Y-5.7874
X5.5365Y-2.0866
X5.5365Y-2.1866
X5.5365Y-2.3228
X5.5365Y-2.4228
X5.5365Y-5.4512
X5.5365Y-5.5512
X5.5365Y-5.6874
X5.5365Y-5.7874
T2
X2.126Y-2.126
X2.126Y-5.748
X2.1482Y-2.7437
X2.1482Y-5.1539
X3.6526Y-2.7437
X3.6526Y-5.1539
X5.748Y-2.126
X5.748Y-5.748
M30
