%TF.GenerationSoftware,KiCad,Pcbnew,8.0.7-8.0.7-0~ubuntu22.04.1*%
%TF.CreationDate,2025-01-28T11:11:41+01:00*%
%TF.ProjectId,EF9366,45463933-3636-42e6-9b69-6361645f7063,rev?*%
%TF.SameCoordinates,Original*%
%TF.FileFunction,Copper,L2,Bot*%
%TF.FilePolarity,Positive*%
%FSLAX46Y46*%
G04 Gerber Fmt 4.6, Leading zero omitted, Abs format (unit mm)*
G04 Created by KiCad (PCBNEW 8.0.7-8.0.7-0~ubuntu22.04.1) date 2025-01-28 11:11:41*
%MOMM*%
%LPD*%
G01*
G04 APERTURE LIST*
G04 Aperture macros list*
%AMRoundRect*
0 Rectangle with rounded corners*
0 $1 Rounding radius*
0 $2 $3 $4 $5 $6 $7 $8 $9 X,Y pos of 4 corners*
0 Add a 4 corners polygon primitive as box body*
4,1,4,$2,$3,$4,$5,$6,$7,$8,$9,$2,$3,0*
0 Add four circle primitives for the rounded corners*
1,1,$1+$1,$2,$3*
1,1,$1+$1,$4,$5*
1,1,$1+$1,$6,$7*
1,1,$1+$1,$8,$9*
0 Add four rect primitives between the rounded corners*
20,1,$1+$1,$2,$3,$4,$5,0*
20,1,$1+$1,$4,$5,$6,$7,0*
20,1,$1+$1,$6,$7,$8,$9,0*
20,1,$1+$1,$8,$9,$2,$3,0*%
G04 Aperture macros list end*
%TA.AperFunction,ComponentPad*%
%ADD10R,1.700000X1.700000*%
%TD*%
%TA.AperFunction,ComponentPad*%
%ADD11O,1.700000X1.700000*%
%TD*%
%TA.AperFunction,SMDPad,CuDef*%
%ADD12RoundRect,0.250000X0.412500X0.650000X-0.412500X0.650000X-0.412500X-0.650000X0.412500X-0.650000X0*%
%TD*%
%TA.AperFunction,ComponentPad*%
%ADD13R,1.600000X1.600000*%
%TD*%
%TA.AperFunction,ComponentPad*%
%ADD14O,1.600000X1.600000*%
%TD*%
%TA.AperFunction,ViaPad*%
%ADD15C,0.600000*%
%TD*%
%TA.AperFunction,Conductor*%
%ADD16C,0.200000*%
%TD*%
%TA.AperFunction,Conductor*%
%ADD17C,0.400000*%
%TD*%
G04 APERTURE END LIST*
D10*
%TO.P,J2,1,Pin_1*%
%TO.N,/~{INT}*%
X69145000Y-83571000D03*
D11*
%TO.P,J2,2,Pin_2*%
%TO.N,GND*%
X69145000Y-81031000D03*
%TD*%
D10*
%TO.P,JP2,1,A*%
%TO.N,GND*%
X75692000Y-76962000D03*
D11*
%TO.P,JP2,2,C*%
%TO.N,Net-(JP2-C)*%
X78232000Y-76962000D03*
%TO.P,JP2,3,B*%
%TO.N,+5V*%
X80772000Y-76962000D03*
%TD*%
D10*
%TO.P,JP1,1,A*%
%TO.N,GND*%
X101092000Y-99822000D03*
D11*
%TO.P,JP1,2,C*%
%TO.N,Net-(JP1-C)*%
X103632000Y-99822000D03*
%TO.P,JP1,3,B*%
%TO.N,+5V*%
X106172000Y-99822000D03*
%TD*%
D12*
%TO.P,C2,1*%
%TO.N,+5V*%
X120942500Y-77216000D03*
%TO.P,C2,2*%
%TO.N,GND*%
X117817500Y-77216000D03*
%TD*%
%TO.P,C1,1*%
%TO.N,+5V*%
X120981000Y-74168000D03*
%TO.P,C1,2*%
%TO.N,GND*%
X117856000Y-74168000D03*
%TD*%
D10*
%TO.P,J3,1,Pin_1*%
%TO.N,unconnected-(J3-Pin_1-Pad1)*%
X147000000Y-69000000D03*
D11*
%TO.P,J3,2,Pin_2*%
%TO.N,unconnected-(J3-Pin_2-Pad2)*%
X144460000Y-69000000D03*
%TO.P,J3,3,Pin_3*%
%TO.N,unconnected-(J3-Pin_3-Pad3)*%
X147000000Y-71540000D03*
%TO.P,J3,4,Pin_4*%
%TO.N,unconnected-(J3-Pin_4-Pad4)*%
X144460000Y-71540000D03*
%TO.P,J3,5,Pin_5*%
%TO.N,/VA18*%
X147000000Y-74080000D03*
%TO.P,J3,6,Pin_6*%
%TO.N,unconnected-(J3-Pin_6-Pad6)*%
X144460000Y-74080000D03*
%TO.P,J3,7,Pin_7*%
%TO.N,/VA16*%
X147000000Y-76620000D03*
%TO.P,J3,8,Pin_8*%
%TO.N,/VA17*%
X144460000Y-76620000D03*
%TO.P,J3,9,Pin_9*%
%TO.N,/VA14*%
X147000000Y-79160000D03*
%TO.P,J3,10,Pin_10*%
%TO.N,/VA15*%
X144460000Y-79160000D03*
%TO.P,J3,11,Pin_11*%
%TO.N,/VA12*%
X147000000Y-81700000D03*
%TO.P,J3,12,Pin_12*%
%TO.N,/VA13*%
X144460000Y-81700000D03*
%TO.P,J3,13,Pin_13*%
%TO.N,/VA10*%
X147000000Y-84240000D03*
%TO.P,J3,14,Pin_14*%
%TO.N,/VA11*%
X144460000Y-84240000D03*
%TO.P,J3,15,Pin_15*%
%TO.N,/VA8*%
X147000000Y-86780000D03*
%TO.P,J3,16,Pin_16*%
%TO.N,/VA9*%
X144460000Y-86780000D03*
%TO.P,J3,17,Pin_17*%
%TO.N,/VA6*%
X147000000Y-89320000D03*
%TO.P,J3,18,Pin_18*%
%TO.N,/VA7*%
X144460000Y-89320000D03*
%TO.P,J3,19,Pin_19*%
%TO.N,/VA4*%
X147000000Y-91860000D03*
%TO.P,J3,20,Pin_20*%
%TO.N,/VA5*%
X144460000Y-91860000D03*
%TO.P,J3,21,Pin_21*%
%TO.N,/VA2*%
X147000000Y-94400000D03*
%TO.P,J3,22,Pin_22*%
%TO.N,/VA3*%
X144460000Y-94400000D03*
%TO.P,J3,23,Pin_23*%
%TO.N,/VA0*%
X147000000Y-96940000D03*
%TO.P,J3,24,Pin_24*%
%TO.N,/VA1*%
X144460000Y-96940000D03*
%TO.P,J3,25,Pin_25*%
%TO.N,/In0*%
X147000000Y-99480000D03*
%TO.P,J3,26,Pin_26*%
%TO.N,/In1*%
X144460000Y-99480000D03*
%TO.P,J3,27,Pin_27*%
%TO.N,/In2*%
X147000000Y-102020000D03*
%TO.P,J3,28,Pin_28*%
%TO.N,/DE*%
X144460000Y-102020000D03*
%TO.P,J3,29,Pin_29*%
%TO.N,/HS*%
X147000000Y-104560000D03*
%TO.P,J3,30,Pin_30*%
%TO.N,/CRSR*%
X144460000Y-104560000D03*
%TO.P,J3,31,Pin_31*%
%TO.N,/VS*%
X147000000Y-107100000D03*
%TO.P,J3,32,Pin_32*%
%TO.N,/~{RP}*%
X144460000Y-107100000D03*
%TO.P,J3,33,Pin_33*%
%TO.N,GND*%
X147000000Y-109640000D03*
%TO.P,J3,34,Pin_34*%
X144460000Y-109640000D03*
%TD*%
D10*
%TO.P,J1,1,Pin_1*%
%TO.N,GND*%
X53000000Y-109640000D03*
D11*
%TO.P,J1,2,Pin_2*%
X55540000Y-109640000D03*
%TO.P,J1,3,Pin_3*%
%TO.N,/D1*%
X53000000Y-107100000D03*
%TO.P,J1,4,Pin_4*%
%TO.N,/D0*%
X55540000Y-107100000D03*
%TO.P,J1,5,Pin_5*%
%TO.N,/D3*%
X53000000Y-104560000D03*
%TO.P,J1,6,Pin_6*%
%TO.N,/D2*%
X55540000Y-104560000D03*
%TO.P,J1,7,Pin_7*%
%TO.N,/D5*%
X53000000Y-102020000D03*
%TO.P,J1,8,Pin_8*%
%TO.N,/D4*%
X55540000Y-102020000D03*
%TO.P,J1,9,Pin_9*%
%TO.N,/D7*%
X53000000Y-99480000D03*
%TO.P,J1,10,Pin_10*%
%TO.N,/D6*%
X55540000Y-99480000D03*
%TO.P,J1,11,Pin_11*%
%TO.N,/Out1*%
X53000000Y-96940000D03*
%TO.P,J1,12,Pin_12*%
%TO.N,/Out0*%
X55540000Y-96940000D03*
%TO.P,J1,13,Pin_13*%
%TO.N,/Out3*%
X53000000Y-94400000D03*
%TO.P,J1,14,Pin_14*%
%TO.N,/Out2*%
X55540000Y-94400000D03*
%TO.P,J1,15,Pin_15*%
%TO.N,/Out5*%
X53000000Y-91860000D03*
%TO.P,J1,16,Pin_16*%
%TO.N,/Out4*%
X55540000Y-91860000D03*
%TO.P,J1,17,Pin_17*%
%TO.N,/Out7*%
X53000000Y-89320000D03*
%TO.P,J1,18,Pin_18*%
%TO.N,/Out6*%
X55540000Y-89320000D03*
%TO.P,J1,19,Pin_19*%
%TO.N,/~{CS}*%
X53000000Y-86780000D03*
%TO.P,J1,20,Pin_20*%
%TO.N,/VCLK*%
X55540000Y-86780000D03*
%TO.P,J1,21,Pin_21*%
%TO.N,/A1#*%
X53000000Y-84240000D03*
%TO.P,J1,22,Pin_22*%
%TO.N,/R{slash}~{W}*%
X55540000Y-84240000D03*
%TO.P,J1,23,Pin_23*%
%TO.N,/~{RD}*%
X53000000Y-81700000D03*
%TO.P,J1,24,Pin_24*%
%TO.N,/A0#*%
X55540000Y-81700000D03*
%TO.P,J1,25,Pin_25*%
%TO.N,/~{RST}*%
X53000000Y-79160000D03*
%TO.P,J1,26,Pin_26*%
%TO.N,/~{WR}*%
X55540000Y-79160000D03*
%TO.P,J1,27,Pin_27*%
%TO.N,/CH0*%
X53000000Y-76620000D03*
%TO.P,J1,28,Pin_28*%
%TO.N,/PHI2*%
X55540000Y-76620000D03*
%TO.P,J1,29,Pin_29*%
%TO.N,/Y*%
X53000000Y-74080000D03*
%TO.P,J1,30,Pin_30*%
%TO.N,/A*%
X55540000Y-74080000D03*
%TO.P,J1,31,Pin_31*%
%TO.N,/B*%
X53000000Y-71540000D03*
%TO.P,J1,32,Pin_32*%
%TO.N,/~{INT}*%
X55540000Y-71540000D03*
%TO.P,J1,33,Pin_33*%
%TO.N,+5V*%
X53000000Y-69000000D03*
%TO.P,J1,34,Pin_34*%
X55540000Y-69000000D03*
%TD*%
D13*
%TO.P,U4,1,CLK*%
%TO.N,/VCLK*%
X121412000Y-96012000D03*
D14*
%TO.P,U4,2,DAD5*%
%TO.N,/VA5*%
X118872000Y-96012000D03*
%TO.P,U4,3,DAD4*%
%TO.N,/VA4*%
X116332000Y-96012000D03*
%TO.P,U4,4,DAD3*%
%TO.N,/VA3*%
X113792000Y-96012000D03*
%TO.P,U4,5,DAD6*%
%TO.N,/VA6*%
X111252000Y-96012000D03*
%TO.P,U4,6,MSL0*%
%TO.N,/VA7*%
X108712000Y-96012000D03*
%TO.P,U4,7,MSL2*%
%TO.N,/VA9*%
X106172000Y-96012000D03*
%TO.P,U4,8,FMAT*%
%TO.N,Net-(JP1-C)*%
X103632000Y-96012000D03*
%TO.P,U4,9,A0*%
%TO.N,/A0#*%
X101092000Y-96012000D03*
%TO.P,U4,10,A1*%
%TO.N,/A1#*%
X98552000Y-96012000D03*
%TO.P,U4,11,A2*%
%TO.N,/Out0*%
X96012000Y-96012000D03*
%TO.P,U4,12,A3*%
%TO.N,/Out1*%
X93472000Y-96012000D03*
%TO.P,U4,13,~{IRQ}*%
%TO.N,/~{INT}*%
X90932000Y-96012000D03*
%TO.P,U4,14,~{DW}*%
%TO.N,/VA16*%
X88392000Y-96012000D03*
%TO.P,U4,15,Din*%
%TO.N,/VA15*%
X85852000Y-96012000D03*
%TO.P,U4,16,VB*%
%TO.N,/VA14*%
X83312000Y-96012000D03*
%TO.P,U4,17,~{E}*%
%TO.N,/~{CS}*%
X80772000Y-96012000D03*
%TO.P,U4,18,R~{W}*%
%TO.N,/R{slash}~{W}*%
X78232000Y-96012000D03*
%TO.P,U4,19,MFREE/X9*%
%TO.N,/VA18*%
X75692000Y-96012000D03*
%TO.P,U4,20,GND*%
%TO.N,GND*%
X73152000Y-96012000D03*
%TO.P,U4,21,LPCK*%
%TO.N,unconnected-(U4-LPCK-Pad21)*%
X73152000Y-80772000D03*
%TO.P,U4,22,~{ALL}*%
%TO.N,/VA11*%
X75692000Y-80772000D03*
%TO.P,U4,23,WO*%
%TO.N,Net-(JP2-C)*%
X78232000Y-80772000D03*
%TO.P,U4,24,~{WHITE}*%
%TO.N,/VA17*%
X80772000Y-80772000D03*
%TO.P,U4,25,BLK*%
%TO.N,/VA13*%
X83312000Y-80772000D03*
%TO.P,U4,26,D7*%
%TO.N,/D7*%
X85852000Y-80772000D03*
%TO.P,U4,27,D6*%
%TO.N,/D6*%
X88392000Y-80772000D03*
%TO.P,U4,28,D5*%
%TO.N,/D5*%
X90932000Y-80772000D03*
%TO.P,U4,29,D4*%
%TO.N,/D4*%
X93472000Y-80772000D03*
%TO.P,U4,30,D3*%
%TO.N,/D3*%
X96012000Y-80772000D03*
%TO.P,U4,31,D2*%
%TO.N,/D2*%
X98552000Y-80772000D03*
%TO.P,U4,32,D1*%
%TO.N,/D1*%
X101092000Y-80772000D03*
%TO.P,U4,33,D0*%
%TO.N,/D0*%
X103632000Y-80772000D03*
%TO.P,U4,34,SYNC*%
%TO.N,/VA12*%
X106172000Y-80772000D03*
%TO.P,U4,35,MSL3*%
%TO.N,/VA10*%
X108712000Y-80772000D03*
%TO.P,U4,36,MSL1*%
%TO.N,/VA8*%
X111252000Y-80772000D03*
%TO.P,U4,37,DAD0*%
%TO.N,/VA0*%
X113792000Y-80772000D03*
%TO.P,U4,38,DAD2*%
%TO.N,/VA2*%
X116332000Y-80772000D03*
%TO.P,U4,39,DAD1*%
%TO.N,/VA1*%
X118872000Y-80772000D03*
%TO.P,U4,40,VCC*%
%TO.N,+5V*%
X121412000Y-80772000D03*
%TD*%
D15*
%TO.N,/~{INT}*%
X71374000Y-70866000D03*
%TO.N,GND*%
X58420000Y-91948000D03*
X58674000Y-80264000D03*
X59182000Y-73406000D03*
X68580000Y-78232000D03*
X68326000Y-87122000D03*
X85852000Y-83058000D03*
X80518000Y-86360000D03*
X78740000Y-83312000D03*
X76962000Y-87122000D03*
X103632000Y-89916000D03*
X108966000Y-90170000D03*
X119634000Y-90424000D03*
X128016000Y-90932000D03*
X138684000Y-90424000D03*
%TO.N,/VA17*%
X81026005Y-84328005D03*
%TO.N,/VA12*%
X106172000Y-86360000D03*
%TO.N,/VA13*%
X83820000Y-86867998D03*
%TO.N,/VA10*%
X108966000Y-87629996D03*
%TO.N,/VA2*%
X115062003Y-98043989D03*
%TO.N,/VA0*%
X112649000Y-100457000D03*
%TO.N,/VA1*%
X117602000Y-99822000D03*
%TO.N,/VA11*%
X76454018Y-84074000D03*
%TO.N,/VA8*%
X111252000Y-89154000D03*
%TO.N,/D7*%
X60863977Y-75865225D03*
%TO.N,/D6*%
X61276074Y-75121800D03*
%TO.N,/D5*%
X61877382Y-74521023D03*
%TO.N,/D4*%
X62477573Y-73919130D03*
%TO.N,/D3*%
X63081306Y-73320790D03*
%TO.N,/D2*%
X63674061Y-72711573D03*
%TO.N,/D1*%
X64296339Y-72132544D03*
%TO.N,/D0*%
X64881469Y-71516000D03*
%TO.N,/VA18*%
X74930000Y-84074000D03*
%TO.N,GND*%
X66294000Y-69974000D03*
X72898000Y-99822000D03*
%TO.N,/R{slash}~{W}*%
X78232000Y-90424000D03*
%TO.N,/~{CS}*%
X80772000Y-92090000D03*
%TO.N,/VA14*%
X82804000Y-85598000D03*
%TO.N,/VA15*%
X85852000Y-86106000D03*
%TO.N,/VA16*%
X88392000Y-83566000D03*
%TO.N,/~{INT}*%
X89663361Y-70724000D03*
%TO.N,/Out1*%
X93472000Y-98806000D03*
%TO.N,/Out0*%
X96012000Y-98044000D03*
%TO.N,/A1#*%
X98552000Y-89662000D03*
%TO.N,/A0#*%
X101092000Y-89154000D03*
%TO.N,/VA9*%
X106172000Y-92964000D03*
%TO.N,/VA6*%
X111252000Y-92852000D03*
%TO.N,/VCLK*%
X121412008Y-91186000D03*
%TO.N,GND*%
X114554000Y-107696000D03*
X68580000Y-96520000D03*
X107950000Y-71374000D03*
X102870000Y-76962000D03*
X75438000Y-110236000D03*
X127254000Y-70612000D03*
X139192000Y-103886000D03*
X139954000Y-108712000D03*
X97536000Y-71120000D03*
X91948000Y-110236000D03*
X138684000Y-70358000D03*
%TO.N,+5V*%
X81788000Y-93980000D03*
X105072000Y-93980000D03*
X80771996Y-69000000D03*
%TD*%
D16*
%TO.N,/~{INT}*%
X56214000Y-70866000D02*
X71374000Y-70866000D01*
X71374000Y-70866000D02*
X89521361Y-70866000D01*
%TO.N,/VA18*%
X147000000Y-74080000D02*
X145850000Y-72930000D01*
X145850000Y-72930000D02*
X142462000Y-72930000D01*
X142462000Y-72930000D02*
X133426000Y-81966000D01*
X133426000Y-81966000D02*
X77038000Y-81966000D01*
X77038000Y-81966000D02*
X74930000Y-84074000D01*
%TO.N,/VA16*%
X133153686Y-83566000D02*
X88392000Y-83566000D01*
X141249686Y-75470000D02*
X133153686Y-83566000D01*
X145850000Y-75470000D02*
X141249686Y-75470000D01*
X147000000Y-76620000D02*
X145850000Y-75470000D01*
%TO.N,/VA15*%
X144460000Y-79160000D02*
X141058000Y-79160000D01*
X86322000Y-85636000D02*
X85852000Y-86106000D01*
X141058000Y-79160000D02*
X134582000Y-85636000D01*
X134582000Y-85636000D02*
X86322000Y-85636000D01*
%TO.N,/VA17*%
X144460000Y-76620000D02*
X141058000Y-76620000D01*
X141058000Y-76620000D02*
X133350000Y-84328000D01*
X133350000Y-84328000D02*
X81026010Y-84328000D01*
X81026010Y-84328000D02*
X81026005Y-84328005D01*
%TO.N,/VA14*%
X147000000Y-79160000D02*
X145610000Y-77770000D01*
X83566000Y-84836000D02*
X82804000Y-85598000D01*
X134169686Y-84836000D02*
X83566000Y-84836000D01*
X141235686Y-77770000D02*
X134169686Y-84836000D01*
X145610000Y-77770000D02*
X141235686Y-77770000D01*
%TO.N,/VA13*%
X83962002Y-87010000D02*
X83820000Y-86867998D01*
X144460000Y-81700000D02*
X141820000Y-81700000D01*
%TO.N,/VA12*%
X145850000Y-80550000D02*
X140684000Y-80550000D01*
%TO.N,/VA13*%
X141820000Y-81700000D02*
X136510000Y-87010000D01*
X136510000Y-87010000D02*
X83962002Y-87010000D01*
%TO.N,/VA12*%
X140684000Y-80550000D02*
X136398000Y-84836000D01*
X147000000Y-81700000D02*
X145850000Y-80550000D01*
X136398000Y-84836000D02*
X134874000Y-86360000D01*
X134874000Y-86360000D02*
X106172000Y-86360000D01*
%TO.N,/VA8*%
X140111686Y-89154000D02*
X111252000Y-89154000D01*
X143667686Y-85598000D02*
X140111686Y-89154000D01*
X145818000Y-85598000D02*
X143667686Y-85598000D01*
X147000000Y-86780000D02*
X145818000Y-85598000D01*
%TO.N,/VA11*%
X144460000Y-84240000D02*
X140308000Y-88392000D01*
X140308000Y-88392000D02*
X80772018Y-88392000D01*
X80772018Y-88392000D02*
X76454018Y-84074000D01*
%TO.N,/VA10*%
X145850000Y-83090000D02*
X140995686Y-83090000D01*
X147000000Y-84240000D02*
X145850000Y-83090000D01*
X140995686Y-83090000D02*
X136455686Y-87630000D01*
X136455686Y-87630000D02*
X108966004Y-87630000D01*
X108966004Y-87630000D02*
X108966000Y-87629996D01*
%TO.N,+5V*%
X105072000Y-93980000D02*
X81788000Y-93980000D01*
%TO.N,/VA5*%
X144460000Y-91860000D02*
X143852000Y-91860000D01*
X143852000Y-91860000D02*
X141440000Y-94272000D01*
X141440000Y-94272000D02*
X120612000Y-94272000D01*
X120612000Y-94272000D02*
X118872000Y-96012000D01*
%TO.N,/VA0*%
X142702000Y-98090000D02*
X140335000Y-100457000D01*
X145850000Y-98090000D02*
X142702000Y-98090000D01*
X147000000Y-96940000D02*
X145850000Y-98090000D01*
X140335000Y-100457000D02*
X112649000Y-100457000D01*
%TO.N,/VA1*%
X140629919Y-99568000D02*
X117856000Y-99568000D01*
X117856000Y-99568000D02*
X117602000Y-99822000D01*
X143257919Y-96940000D02*
X140629919Y-99568000D01*
X144460000Y-96940000D02*
X143257919Y-96940000D01*
%TO.N,/VA2*%
X138938011Y-98043989D02*
X115062003Y-98043989D01*
X145850000Y-93250000D02*
X143732000Y-93250000D01*
X147000000Y-94400000D02*
X145850000Y-93250000D01*
X143732000Y-93250000D02*
X138938011Y-98043989D01*
%TO.N,/VA3*%
X144460000Y-94400000D02*
X139800000Y-99060000D01*
X139800000Y-99060000D02*
X114475380Y-99060000D01*
X114475380Y-99060000D02*
X113792000Y-98376620D01*
X113792000Y-98376620D02*
X113792000Y-96012000D01*
%TO.N,/A0#*%
X63942081Y-88900000D02*
X100838000Y-88900000D01*
X56742081Y-81700000D02*
X63942081Y-88900000D01*
X55540000Y-81700000D02*
X56742081Y-81700000D01*
X100838000Y-88900000D02*
X101092000Y-89154000D01*
%TO.N,/A1#*%
X56870314Y-83090000D02*
X63442314Y-89662000D01*
X54150000Y-83090000D02*
X56870314Y-83090000D01*
X53000000Y-84240000D02*
X54150000Y-83090000D01*
X63442314Y-89662000D02*
X98552000Y-89662000D01*
%TO.N,/R{slash}~{W}*%
X55540000Y-84240000D02*
X61724000Y-90424000D01*
X61724000Y-90424000D02*
X78232000Y-90424000D01*
%TO.N,/~{CS}*%
X53000000Y-86780000D02*
X54358000Y-88138000D01*
X54358000Y-88138000D02*
X57404000Y-88138000D01*
X57404000Y-88138000D02*
X61356000Y-92090000D01*
X61356000Y-92090000D02*
X80772000Y-92090000D01*
%TO.N,/VCLK*%
X55540000Y-86780000D02*
X57062000Y-86780000D01*
X57062000Y-86780000D02*
X61722000Y-91440000D01*
X61722000Y-91440000D02*
X121158008Y-91440000D01*
X121158008Y-91440000D02*
X121412008Y-91186000D01*
%TO.N,/VA6*%
X139361686Y-92852000D02*
X111252000Y-92852000D01*
X143310000Y-88903686D02*
X139361686Y-92852000D01*
X143983654Y-88170000D02*
X143310000Y-88843654D01*
%TO.N,/VA9*%
X144460000Y-86780000D02*
X139038000Y-92202000D01*
%TO.N,/VA6*%
X145850000Y-88170000D02*
X143983654Y-88170000D01*
X147000000Y-89320000D02*
X145850000Y-88170000D01*
X143310000Y-88843654D02*
X143310000Y-88903686D01*
%TO.N,/VA9*%
X139038000Y-92202000D02*
X106934000Y-92202000D01*
X106934000Y-92202000D02*
X106172000Y-92964000D01*
%TO.N,/VA7*%
X144460000Y-89320000D02*
X143775000Y-89320000D01*
X143775000Y-89320000D02*
X139623000Y-93472000D01*
X139623000Y-93472000D02*
X111252000Y-93472000D01*
X111252000Y-93472000D02*
X108712000Y-96012000D01*
%TO.N,/VA4*%
X118472000Y-93872000D02*
X116332000Y-96012000D01*
X140473686Y-93872000D02*
X118472000Y-93872000D01*
X143635686Y-90710000D02*
X140473686Y-93872000D01*
X145850000Y-90710000D02*
X143635686Y-90710000D01*
X147000000Y-91860000D02*
X145850000Y-90710000D01*
%TO.N,/~{INT}*%
X55540000Y-71540000D02*
X56214000Y-70866000D01*
X89521361Y-70866000D02*
X89663361Y-70724000D01*
%TO.N,/D2*%
X63745032Y-72782544D02*
X63674061Y-72711573D01*
X90562544Y-72782544D02*
X63745032Y-72782544D01*
%TO.N,/D3*%
X96012000Y-80772000D02*
X88560790Y-73320790D01*
%TO.N,/D0*%
X94376000Y-71516000D02*
X64881469Y-71516000D01*
%TO.N,/D6*%
X88392000Y-80772000D02*
X82741800Y-75121800D01*
%TO.N,/D1*%
X92452544Y-72132544D02*
X64296339Y-72132544D01*
X101092000Y-80772000D02*
X92452544Y-72132544D01*
%TO.N,/D5*%
X84681023Y-74521023D02*
X61877382Y-74521023D01*
X90932000Y-80772000D02*
X84681023Y-74521023D01*
%TO.N,/D0*%
X103632000Y-80772000D02*
X94376000Y-71516000D01*
%TO.N,/D4*%
X62529233Y-73970790D02*
X62477573Y-73919130D01*
%TO.N,/D6*%
X82741800Y-75121800D02*
X61276074Y-75121800D01*
%TO.N,/D7*%
X85852000Y-79640630D02*
X81958454Y-75747084D01*
X81958454Y-75747084D02*
X60982118Y-75747084D01*
%TO.N,/D4*%
X93472000Y-80772000D02*
X86670790Y-73970790D01*
%TO.N,/D7*%
X60982118Y-75747084D02*
X60863977Y-75865225D01*
%TO.N,/D4*%
X86670790Y-73970790D02*
X62529233Y-73970790D01*
%TO.N,/D3*%
X88560790Y-73320790D02*
X63081306Y-73320790D01*
%TO.N,/D2*%
X98552000Y-80772000D02*
X90562544Y-72782544D01*
%TO.N,/D7*%
X85852000Y-80772000D02*
X85852000Y-79640630D01*
D17*
%TO.N,GND*%
X114562000Y-69974000D02*
X66294000Y-69974000D01*
X117856000Y-73268000D02*
X114562000Y-69974000D01*
X117856000Y-74168000D02*
X117856000Y-73268000D01*
%TO.N,+5V*%
X117768000Y-69000000D02*
X80771996Y-69000000D01*
X120942500Y-72174500D02*
X117768000Y-69000000D01*
X120942500Y-77216000D02*
X120942500Y-72174500D01*
X53000000Y-69000000D02*
X80771996Y-69000000D01*
%TO.N,GND*%
X117856000Y-74168000D02*
X117856000Y-77177500D01*
X117856000Y-77177500D02*
X117817500Y-77216000D01*
%TO.N,+5V*%
X121412000Y-80772000D02*
X121412000Y-77685500D01*
X121412000Y-77685500D02*
X120942500Y-77216000D01*
D16*
%TO.N,GND*%
X101092000Y-99822000D02*
X72898000Y-99822000D01*
%TO.N,/Out1*%
X56492346Y-98806000D02*
X93472000Y-98806000D01*
X53000000Y-96940000D02*
X54358000Y-98298000D01*
X55984346Y-98298000D02*
X56492346Y-98806000D01*
X54358000Y-98298000D02*
X55984346Y-98298000D01*
%TO.N,/Out0*%
X56644000Y-98044000D02*
X96012000Y-98044000D01*
X55540000Y-96940000D02*
X56644000Y-98044000D01*
D17*
%TO.N,GND*%
X147000000Y-109640000D02*
X144460000Y-109640000D01*
%TD*%
%TA.AperFunction,Conductor*%
%TO.N,GND*%
G36*
X55074075Y-109447007D02*
G01*
X55040000Y-109574174D01*
X55040000Y-109705826D01*
X55074075Y-109832993D01*
X55106988Y-109890000D01*
X53433012Y-109890000D01*
X53465925Y-109832993D01*
X53500000Y-109705826D01*
X53500000Y-109574174D01*
X53465925Y-109447007D01*
X53433012Y-109390000D01*
X55106988Y-109390000D01*
X55074075Y-109447007D01*
G37*
%TD.AperFunction*%
%TA.AperFunction,Conductor*%
G36*
X146534075Y-109447007D02*
G01*
X146500000Y-109574174D01*
X146500000Y-109705826D01*
X146534075Y-109832993D01*
X146566988Y-109890000D01*
X144893012Y-109890000D01*
X144925925Y-109832993D01*
X144960000Y-109705826D01*
X144960000Y-109574174D01*
X144925925Y-109447007D01*
X144893012Y-109390000D01*
X146566988Y-109390000D01*
X146534075Y-109447007D01*
G37*
%TD.AperFunction*%
%TA.AperFunction,Conductor*%
G36*
X57170942Y-88758185D02*
G01*
X57191584Y-88774819D01*
X60871139Y-92454374D01*
X60871149Y-92454385D01*
X60875479Y-92458715D01*
X60875480Y-92458716D01*
X60987284Y-92570520D01*
X61063422Y-92614478D01*
X61124215Y-92649577D01*
X61276943Y-92690501D01*
X61276946Y-92690501D01*
X61442653Y-92690501D01*
X61442669Y-92690500D01*
X80189588Y-92690500D01*
X80256627Y-92710185D01*
X80266903Y-92717555D01*
X80269736Y-92719814D01*
X80269738Y-92719816D01*
X80422478Y-92815789D01*
X80525963Y-92852000D01*
X80592745Y-92875368D01*
X80592750Y-92875369D01*
X80771996Y-92895565D01*
X80772000Y-92895565D01*
X80772004Y-92895565D01*
X80951249Y-92875369D01*
X80951252Y-92875368D01*
X80951255Y-92875368D01*
X81121522Y-92815789D01*
X81274262Y-92719816D01*
X81401816Y-92592262D01*
X81497789Y-92439522D01*
X81557368Y-92269255D01*
X81569230Y-92163980D01*
X81570736Y-92150616D01*
X81597803Y-92086202D01*
X81655397Y-92046647D01*
X81693956Y-92040500D01*
X105706719Y-92040500D01*
X105773758Y-92060185D01*
X105819513Y-92112989D01*
X105829457Y-92182147D01*
X105800432Y-92245703D01*
X105772691Y-92269494D01*
X105669737Y-92334184D01*
X105542184Y-92461737D01*
X105446211Y-92614476D01*
X105386631Y-92784745D01*
X105386630Y-92784750D01*
X105366435Y-92963996D01*
X105366435Y-92964003D01*
X105376826Y-93056229D01*
X105364771Y-93125051D01*
X105317422Y-93176430D01*
X105249812Y-93194054D01*
X105239723Y-93193332D01*
X105072004Y-93174435D01*
X105071996Y-93174435D01*
X104892750Y-93194630D01*
X104892745Y-93194631D01*
X104722476Y-93254211D01*
X104569736Y-93350185D01*
X104566903Y-93352445D01*
X104564724Y-93353334D01*
X104563842Y-93353889D01*
X104563744Y-93353734D01*
X104502217Y-93378855D01*
X104489588Y-93379500D01*
X82370412Y-93379500D01*
X82303373Y-93359815D01*
X82293097Y-93352445D01*
X82290263Y-93350185D01*
X82290262Y-93350184D01*
X82197372Y-93291817D01*
X82137523Y-93254211D01*
X81967254Y-93194631D01*
X81967249Y-93194630D01*
X81788004Y-93174435D01*
X81787996Y-93174435D01*
X81608750Y-93194630D01*
X81608745Y-93194631D01*
X81438476Y-93254211D01*
X81285737Y-93350184D01*
X81158184Y-93477737D01*
X81062211Y-93630476D01*
X81002631Y-93800745D01*
X81002630Y-93800750D01*
X80982435Y-93979996D01*
X80982435Y-93980003D01*
X81002630Y-94159249D01*
X81002631Y-94159254D01*
X81062211Y-94329523D01*
X81158184Y-94482262D01*
X81222782Y-94546860D01*
X81256267Y-94608183D01*
X81251283Y-94677875D01*
X81209411Y-94733808D01*
X81143947Y-94758225D01*
X81103008Y-94754316D01*
X80998697Y-94726366D01*
X80998693Y-94726365D01*
X80998692Y-94726365D01*
X80998691Y-94726364D01*
X80998686Y-94726364D01*
X80772002Y-94706532D01*
X80771998Y-94706532D01*
X80545313Y-94726364D01*
X80545302Y-94726366D01*
X80325511Y-94785258D01*
X80325502Y-94785261D01*
X80119267Y-94881431D01*
X80119265Y-94881432D01*
X79932858Y-95011954D01*
X79771954Y-95172858D01*
X79641432Y-95359265D01*
X79641431Y-95359267D01*
X79614382Y-95417275D01*
X79568209Y-95469714D01*
X79501016Y-95488866D01*
X79434135Y-95468650D01*
X79389618Y-95417275D01*
X79362686Y-95359520D01*
X79362568Y-95359266D01*
X79232047Y-95172861D01*
X79232045Y-95172858D01*
X79071141Y-95011954D01*
X78884734Y-94881432D01*
X78884732Y-94881431D01*
X78678497Y-94785261D01*
X78678488Y-94785258D01*
X78458697Y-94726366D01*
X78458693Y-94726365D01*
X78458692Y-94726365D01*
X78458691Y-94726364D01*
X78458686Y-94726364D01*
X78232002Y-94706532D01*
X78231998Y-94706532D01*
X78005313Y-94726364D01*
X78005302Y-94726366D01*
X77785511Y-94785258D01*
X77785502Y-94785261D01*
X77579267Y-94881431D01*
X77579265Y-94881432D01*
X77392858Y-95011954D01*
X77231954Y-95172858D01*
X77101432Y-95359265D01*
X77101431Y-95359267D01*
X77074382Y-95417275D01*
X77028209Y-95469714D01*
X76961016Y-95488866D01*
X76894135Y-95468650D01*
X76849618Y-95417275D01*
X76822686Y-95359520D01*
X76822568Y-95359266D01*
X76692047Y-95172861D01*
X76692045Y-95172858D01*
X76531141Y-95011954D01*
X76344734Y-94881432D01*
X76344732Y-94881431D01*
X76138497Y-94785261D01*
X76138488Y-94785258D01*
X75918697Y-94726366D01*
X75918693Y-94726365D01*
X75918692Y-94726365D01*
X75918691Y-94726364D01*
X75918686Y-94726364D01*
X75692002Y-94706532D01*
X75691998Y-94706532D01*
X75465313Y-94726364D01*
X75465302Y-94726366D01*
X75245511Y-94785258D01*
X75245502Y-94785261D01*
X75039267Y-94881431D01*
X75039265Y-94881432D01*
X74852858Y-95011954D01*
X74691954Y-95172858D01*
X74622954Y-95271402D01*
X74561432Y-95359266D01*
X74561315Y-95359518D01*
X74534106Y-95417867D01*
X74487933Y-95470306D01*
X74420739Y-95489457D01*
X74353858Y-95469241D01*
X74309342Y-95417865D01*
X74282135Y-95359520D01*
X74282134Y-95359518D01*
X74151657Y-95173179D01*
X73990820Y-95012342D01*
X73804482Y-94881865D01*
X73598328Y-94785734D01*
X73402000Y-94733127D01*
X73402000Y-95696314D01*
X73397606Y-95691920D01*
X73306394Y-95639259D01*
X73204661Y-95612000D01*
X73099339Y-95612000D01*
X72997606Y-95639259D01*
X72906394Y-95691920D01*
X72902000Y-95696314D01*
X72902000Y-94733127D01*
X72705671Y-94785734D01*
X72499517Y-94881865D01*
X72313179Y-95012342D01*
X72152342Y-95173179D01*
X72021865Y-95359517D01*
X71925734Y-95565673D01*
X71925730Y-95565682D01*
X71873127Y-95761999D01*
X71873128Y-95762000D01*
X72836314Y-95762000D01*
X72831920Y-95766394D01*
X72779259Y-95857606D01*
X72752000Y-95959339D01*
X72752000Y-96064661D01*
X72779259Y-96166394D01*
X72831920Y-96257606D01*
X72836314Y-96262000D01*
X71873128Y-96262000D01*
X71925730Y-96458317D01*
X71925734Y-96458326D01*
X72021865Y-96664482D01*
X72152342Y-96850820D01*
X72313179Y-97011657D01*
X72499517Y-97142134D01*
X72638876Y-97207118D01*
X72691315Y-97253290D01*
X72710467Y-97320484D01*
X72690251Y-97387365D01*
X72637086Y-97432700D01*
X72586471Y-97443500D01*
X56964828Y-97443500D01*
X56897789Y-97423815D01*
X56852034Y-97371011D01*
X56842090Y-97301853D01*
X56845053Y-97287407D01*
X56858215Y-97238286D01*
X56875063Y-97175408D01*
X56895659Y-96940000D01*
X56875063Y-96704592D01*
X56813903Y-96476337D01*
X56714035Y-96262171D01*
X56713916Y-96262000D01*
X56578494Y-96068597D01*
X56411402Y-95901506D01*
X56411396Y-95901501D01*
X56225842Y-95771575D01*
X56182217Y-95716998D01*
X56175023Y-95647500D01*
X56206546Y-95585145D01*
X56225842Y-95568425D01*
X56276924Y-95532657D01*
X56411401Y-95438495D01*
X56578495Y-95271401D01*
X56714035Y-95077830D01*
X56813903Y-94863663D01*
X56875063Y-94635408D01*
X56895659Y-94400000D01*
X56875063Y-94164592D01*
X56813903Y-93936337D01*
X56714035Y-93722171D01*
X56708425Y-93714158D01*
X56578494Y-93528597D01*
X56411402Y-93361506D01*
X56411396Y-93361501D01*
X56225842Y-93231575D01*
X56182217Y-93176998D01*
X56175023Y-93107500D01*
X56206546Y-93045145D01*
X56225842Y-93028425D01*
X56391234Y-92912616D01*
X56411401Y-92898495D01*
X56578495Y-92731401D01*
X56714035Y-92537830D01*
X56813903Y-92323663D01*
X56875063Y-92095408D01*
X56895659Y-91860000D01*
X56875063Y-91624592D01*
X56813903Y-91396337D01*
X56714035Y-91182171D01*
X56708425Y-91174158D01*
X56578494Y-90988597D01*
X56411402Y-90821506D01*
X56411396Y-90821501D01*
X56225842Y-90691575D01*
X56182217Y-90636998D01*
X56175023Y-90567500D01*
X56206546Y-90505145D01*
X56225842Y-90488425D01*
X56317850Y-90424000D01*
X56411401Y-90358495D01*
X56578495Y-90191401D01*
X56714035Y-89997830D01*
X56813903Y-89783663D01*
X56875063Y-89555408D01*
X56895659Y-89320000D01*
X56875063Y-89084592D01*
X56824154Y-88894593D01*
X56825817Y-88824743D01*
X56864980Y-88766881D01*
X56929209Y-88739377D01*
X56943929Y-88738500D01*
X57103903Y-88738500D01*
X57170942Y-88758185D01*
G37*
%TD.AperFunction*%
%TA.AperFunction,Conductor*%
G36*
X110392915Y-89012185D02*
G01*
X110438670Y-89064989D01*
X110449096Y-89130385D01*
X110446435Y-89153999D01*
X110446435Y-89154003D01*
X110466630Y-89333249D01*
X110466631Y-89333254D01*
X110526211Y-89503523D01*
X110610951Y-89638385D01*
X110622184Y-89656262D01*
X110749738Y-89783816D01*
X110902478Y-89879789D01*
X111012839Y-89918406D01*
X111072745Y-89939368D01*
X111072750Y-89939369D01*
X111251996Y-89959565D01*
X111252000Y-89959565D01*
X111252004Y-89959565D01*
X111431249Y-89939369D01*
X111431252Y-89939368D01*
X111431255Y-89939368D01*
X111601522Y-89879789D01*
X111754262Y-89783816D01*
X111754267Y-89783810D01*
X111757097Y-89781555D01*
X111759275Y-89780665D01*
X111760158Y-89780111D01*
X111760255Y-89780265D01*
X111821783Y-89755145D01*
X111834412Y-89754500D01*
X140025017Y-89754500D01*
X140025033Y-89754501D01*
X140032629Y-89754501D01*
X140190740Y-89754501D01*
X140190743Y-89754501D01*
X140343471Y-89713577D01*
X140343472Y-89713576D01*
X140351322Y-89711473D01*
X140352152Y-89714573D01*
X140406602Y-89708679D01*
X140469105Y-89739908D01*
X140504802Y-89799970D01*
X140502359Y-89869797D01*
X140472357Y-89918406D01*
X138825584Y-91565181D01*
X138764261Y-91598666D01*
X138737903Y-91601500D01*
X122289473Y-91601500D01*
X122222434Y-91581815D01*
X122176679Y-91529011D01*
X122166735Y-91459853D01*
X122172431Y-91436546D01*
X122197375Y-91365257D01*
X122197376Y-91365255D01*
X122197377Y-91365249D01*
X122217573Y-91186003D01*
X122217573Y-91185996D01*
X122197377Y-91006750D01*
X122197376Y-91006745D01*
X122137796Y-90836476D01*
X122041823Y-90683737D01*
X121914270Y-90556184D01*
X121761531Y-90460211D01*
X121591262Y-90400631D01*
X121591257Y-90400630D01*
X121412012Y-90380435D01*
X121412004Y-90380435D01*
X121232758Y-90400630D01*
X121232753Y-90400631D01*
X121062484Y-90460211D01*
X120909745Y-90556184D01*
X120782192Y-90683737D01*
X120720782Y-90781472D01*
X120668447Y-90827763D01*
X120615788Y-90839500D01*
X79109465Y-90839500D01*
X79042426Y-90819815D01*
X78996671Y-90767011D01*
X78986727Y-90697853D01*
X78992423Y-90674546D01*
X79017367Y-90603257D01*
X79017368Y-90603255D01*
X79017369Y-90603249D01*
X79037565Y-90424003D01*
X79037565Y-90423999D01*
X79034904Y-90400385D01*
X79046958Y-90331563D01*
X79094306Y-90280183D01*
X79158124Y-90262500D01*
X97969588Y-90262500D01*
X98036627Y-90282185D01*
X98046903Y-90289555D01*
X98049736Y-90291814D01*
X98049738Y-90291816D01*
X98202478Y-90387789D01*
X98305963Y-90424000D01*
X98372745Y-90447368D01*
X98372750Y-90447369D01*
X98551996Y-90467565D01*
X98552000Y-90467565D01*
X98552004Y-90467565D01*
X98731249Y-90447369D01*
X98731252Y-90447368D01*
X98731255Y-90447368D01*
X98901522Y-90387789D01*
X99054262Y-90291816D01*
X99181816Y-90164262D01*
X99277789Y-90011522D01*
X99337368Y-89841255D01*
X99337369Y-89841249D01*
X99357565Y-89662003D01*
X99357565Y-89661999D01*
X99354904Y-89638385D01*
X99366958Y-89569563D01*
X99414306Y-89518183D01*
X99478124Y-89500500D01*
X100295780Y-89500500D01*
X100362819Y-89520185D01*
X100400772Y-89558526D01*
X100462184Y-89656262D01*
X100589738Y-89783816D01*
X100742478Y-89879789D01*
X100852839Y-89918406D01*
X100912745Y-89939368D01*
X100912750Y-89939369D01*
X101091996Y-89959565D01*
X101092000Y-89959565D01*
X101092004Y-89959565D01*
X101271249Y-89939369D01*
X101271252Y-89939368D01*
X101271255Y-89939368D01*
X101441522Y-89879789D01*
X101594262Y-89783816D01*
X101721816Y-89656262D01*
X101817789Y-89503522D01*
X101877368Y-89333255D01*
X101877369Y-89333249D01*
X101897565Y-89154003D01*
X101897565Y-89153999D01*
X101894904Y-89130385D01*
X101906958Y-89061563D01*
X101954306Y-89010183D01*
X102018124Y-88992500D01*
X110325876Y-88992500D01*
X110392915Y-89012185D01*
G37*
%TD.AperFunction*%
%TA.AperFunction,Conductor*%
G36*
X63612112Y-71486185D02*
G01*
X63657867Y-71538989D01*
X63667811Y-71608147D01*
X63650067Y-71656472D01*
X63570551Y-71783018D01*
X63543747Y-71859618D01*
X63503024Y-71916393D01*
X63467661Y-71935702D01*
X63324541Y-71985782D01*
X63171798Y-72081757D01*
X63044245Y-72209310D01*
X62948270Y-72362053D01*
X62905313Y-72484817D01*
X62864592Y-72541593D01*
X62829228Y-72560903D01*
X62731782Y-72595001D01*
X62731781Y-72595002D01*
X62579043Y-72690974D01*
X62451490Y-72818527D01*
X62355518Y-72971265D01*
X62355517Y-72971266D01*
X62318427Y-73077263D01*
X62277705Y-73134038D01*
X62242341Y-73153348D01*
X62128053Y-73193339D01*
X61975310Y-73289314D01*
X61847757Y-73416867D01*
X61751785Y-73569605D01*
X61751784Y-73569606D01*
X61712783Y-73681064D01*
X61672061Y-73737839D01*
X61636698Y-73757149D01*
X61527858Y-73795234D01*
X61527857Y-73795235D01*
X61375119Y-73891207D01*
X61247566Y-74018760D01*
X61151594Y-74171498D01*
X61151593Y-74171499D01*
X61113193Y-74281240D01*
X61072471Y-74338015D01*
X61037108Y-74357325D01*
X60926550Y-74396011D01*
X60926549Y-74396012D01*
X60773811Y-74491984D01*
X60646258Y-74619537D01*
X60550285Y-74772276D01*
X60490705Y-74942545D01*
X60490704Y-74942549D01*
X60471707Y-75111156D01*
X60444640Y-75175570D01*
X60414461Y-75202265D01*
X60361715Y-75235408D01*
X60234161Y-75362962D01*
X60138188Y-75515701D01*
X60078608Y-75685970D01*
X60078607Y-75685975D01*
X60058412Y-75865221D01*
X60058412Y-75865228D01*
X60078607Y-76044474D01*
X60078608Y-76044479D01*
X60138188Y-76214748D01*
X60221655Y-76347584D01*
X60234161Y-76367487D01*
X60361715Y-76495041D01*
X60514455Y-76591014D01*
X60684722Y-76650593D01*
X60684727Y-76650594D01*
X60863973Y-76670790D01*
X60863977Y-76670790D01*
X60863981Y-76670790D01*
X61043226Y-76650594D01*
X61043229Y-76650593D01*
X61043232Y-76650593D01*
X61213499Y-76591014D01*
X61366239Y-76495041D01*
X61477377Y-76383903D01*
X61538700Y-76350418D01*
X61565058Y-76347584D01*
X74218000Y-76347584D01*
X74285039Y-76367269D01*
X74330794Y-76420073D01*
X74342000Y-76471584D01*
X74342000Y-76712000D01*
X75258988Y-76712000D01*
X75226075Y-76769007D01*
X75192000Y-76896174D01*
X75192000Y-77027826D01*
X75226075Y-77154993D01*
X75258988Y-77212000D01*
X74342000Y-77212000D01*
X74342000Y-77859844D01*
X74348401Y-77919372D01*
X74348403Y-77919379D01*
X74398645Y-78054086D01*
X74398649Y-78054093D01*
X74484809Y-78169187D01*
X74484812Y-78169190D01*
X74599906Y-78255350D01*
X74599913Y-78255354D01*
X74734620Y-78305596D01*
X74734627Y-78305598D01*
X74794155Y-78311999D01*
X74794172Y-78312000D01*
X75442000Y-78312000D01*
X75442000Y-77395012D01*
X75499007Y-77427925D01*
X75626174Y-77462000D01*
X75757826Y-77462000D01*
X75884993Y-77427925D01*
X75942000Y-77395012D01*
X75942000Y-78312000D01*
X76589828Y-78312000D01*
X76589844Y-78311999D01*
X76649372Y-78305598D01*
X76649379Y-78305596D01*
X76784086Y-78255354D01*
X76784093Y-78255350D01*
X76899187Y-78169190D01*
X76899190Y-78169187D01*
X76985350Y-78054093D01*
X76985354Y-78054086D01*
X77034422Y-77922529D01*
X77076293Y-77866595D01*
X77141757Y-77842178D01*
X77210030Y-77857030D01*
X77238285Y-77878181D01*
X77360599Y-78000495D01*
X77386736Y-78018796D01*
X77554165Y-78136032D01*
X77554167Y-78136033D01*
X77554170Y-78136035D01*
X77768337Y-78235903D01*
X77996592Y-78297063D01*
X78167319Y-78312000D01*
X78231999Y-78317659D01*
X78232000Y-78317659D01*
X78232001Y-78317659D01*
X78296681Y-78312000D01*
X78467408Y-78297063D01*
X78695663Y-78235903D01*
X78909830Y-78136035D01*
X79103401Y-78000495D01*
X79270495Y-77833401D01*
X79400425Y-77647842D01*
X79455002Y-77604217D01*
X79524500Y-77597023D01*
X79586855Y-77628546D01*
X79603575Y-77647842D01*
X79733500Y-77833395D01*
X79733505Y-77833401D01*
X79900599Y-78000495D01*
X79926736Y-78018796D01*
X80094165Y-78136032D01*
X80094167Y-78136033D01*
X80094170Y-78136035D01*
X80308337Y-78235903D01*
X80536592Y-78297063D01*
X80707319Y-78312000D01*
X80771999Y-78317659D01*
X80772000Y-78317659D01*
X80772001Y-78317659D01*
X80836681Y-78312000D01*
X81007408Y-78297063D01*
X81235663Y-78235903D01*
X81449830Y-78136035D01*
X81643401Y-78000495D01*
X81810495Y-77833401D01*
X81946035Y-77639830D01*
X82045903Y-77425663D01*
X82107063Y-77197408D01*
X82120289Y-77046235D01*
X82145742Y-76981168D01*
X82202332Y-76940189D01*
X82272094Y-76936311D01*
X82331498Y-76969363D01*
X84985793Y-79623658D01*
X85019278Y-79684981D01*
X85014294Y-79754673D01*
X84985793Y-79799020D01*
X84851954Y-79932858D01*
X84721432Y-80119265D01*
X84721431Y-80119267D01*
X84694382Y-80177275D01*
X84648209Y-80229714D01*
X84581016Y-80248866D01*
X84514135Y-80228650D01*
X84469618Y-80177275D01*
X84442568Y-80119267D01*
X84442567Y-80119265D01*
X84381045Y-80031402D01*
X84312047Y-79932861D01*
X84312045Y-79932858D01*
X84151141Y-79771954D01*
X83964734Y-79641432D01*
X83964732Y-79641431D01*
X83758497Y-79545261D01*
X83758488Y-79545258D01*
X83538697Y-79486366D01*
X83538693Y-79486365D01*
X83538692Y-79486365D01*
X83538691Y-79486364D01*
X83538686Y-79486364D01*
X83312002Y-79466532D01*
X83311998Y-79466532D01*
X83085313Y-79486364D01*
X83085302Y-79486366D01*
X82865511Y-79545258D01*
X82865502Y-79545261D01*
X82659267Y-79641431D01*
X82659265Y-79641432D01*
X82472858Y-79771954D01*
X82311954Y-79932858D01*
X82181432Y-80119265D01*
X82181431Y-80119267D01*
X82154382Y-80177275D01*
X82108209Y-80229714D01*
X82041016Y-80248866D01*
X81974135Y-80228650D01*
X81929618Y-80177275D01*
X81902568Y-80119267D01*
X81902567Y-80119265D01*
X81841045Y-80031402D01*
X81772047Y-79932861D01*
X81772045Y-79932858D01*
X81611141Y-79771954D01*
X81424734Y-79641432D01*
X81424732Y-79641431D01*
X81218497Y-79545261D01*
X81218488Y-79545258D01*
X80998697Y-79486366D01*
X80998693Y-79486365D01*
X80998692Y-79486365D01*
X80998691Y-79486364D01*
X80998686Y-79486364D01*
X80772002Y-79466532D01*
X80771998Y-79466532D01*
X80545313Y-79486364D01*
X80545302Y-79486366D01*
X80325511Y-79545258D01*
X80325502Y-79545261D01*
X80119267Y-79641431D01*
X80119265Y-79641432D01*
X79932858Y-79771954D01*
X79771954Y-79932858D01*
X79641432Y-80119265D01*
X79641431Y-80119267D01*
X79614382Y-80177275D01*
X79568209Y-80229714D01*
X79501016Y-80248866D01*
X79434135Y-80228650D01*
X79389618Y-80177275D01*
X79362568Y-80119267D01*
X79362567Y-80119265D01*
X79301045Y-80031402D01*
X79232047Y-79932861D01*
X79232045Y-79932858D01*
X79071141Y-79771954D01*
X78884734Y-79641432D01*
X78884732Y-79641431D01*
X78678497Y-79545261D01*
X78678488Y-79545258D01*
X78458697Y-79486366D01*
X78458693Y-79486365D01*
X78458692Y-79486365D01*
X78458691Y-79486364D01*
X78458686Y-79486364D01*
X78232002Y-79466532D01*
X78231998Y-79466532D01*
X78005313Y-79486364D01*
X78005302Y-79486366D01*
X77785511Y-79545258D01*
X77785502Y-79545261D01*
X77579267Y-79641431D01*
X77579265Y-79641432D01*
X77392858Y-79771954D01*
X77231954Y-79932858D01*
X77101432Y-80119265D01*
X77101431Y-80119267D01*
X77074382Y-80177275D01*
X77028209Y-80229714D01*
X76961016Y-80248866D01*
X76894135Y-80228650D01*
X76849618Y-80177275D01*
X76822568Y-80119267D01*
X76822567Y-80119265D01*
X76761045Y-80031402D01*
X76692047Y-79932861D01*
X76692045Y-79932858D01*
X76531141Y-79771954D01*
X76344734Y-79641432D01*
X76344732Y-79641431D01*
X76138497Y-79545261D01*
X76138488Y-79545258D01*
X75918697Y-79486366D01*
X75918693Y-79486365D01*
X75918692Y-79486365D01*
X75918691Y-79486364D01*
X75918686Y-79486364D01*
X75692002Y-79466532D01*
X75691998Y-79466532D01*
X75465313Y-79486364D01*
X75465302Y-79486366D01*
X75245511Y-79545258D01*
X75245502Y-79545261D01*
X75039267Y-79641431D01*
X75039265Y-79641432D01*
X74852858Y-79771954D01*
X74691954Y-79932858D01*
X74561432Y-80119265D01*
X74561431Y-80119267D01*
X74534382Y-80177275D01*
X74488209Y-80229714D01*
X74421016Y-80248866D01*
X74354135Y-80228650D01*
X74309618Y-80177275D01*
X74282568Y-80119267D01*
X74282567Y-80119265D01*
X74221045Y-80031402D01*
X74152047Y-79932861D01*
X74152045Y-79932858D01*
X73991141Y-79771954D01*
X73804734Y-79641432D01*
X73804732Y-79641431D01*
X73598497Y-79545261D01*
X73598488Y-79545258D01*
X73378697Y-79486366D01*
X73378693Y-79486365D01*
X73378692Y-79486365D01*
X73378691Y-79486364D01*
X73378686Y-79486364D01*
X73152002Y-79466532D01*
X73151998Y-79466532D01*
X72925313Y-79486364D01*
X72925302Y-79486366D01*
X72705511Y-79545258D01*
X72705502Y-79545261D01*
X72499267Y-79641431D01*
X72499265Y-79641432D01*
X72312858Y-79771954D01*
X72151954Y-79932858D01*
X72021432Y-80119265D01*
X72021431Y-80119267D01*
X71925261Y-80325502D01*
X71925258Y-80325511D01*
X71866366Y-80545302D01*
X71866364Y-80545313D01*
X71846532Y-80771998D01*
X71846532Y-80772001D01*
X71866364Y-80998686D01*
X71866366Y-80998697D01*
X71925258Y-81218488D01*
X71925261Y-81218497D01*
X72021431Y-81424732D01*
X72021432Y-81424734D01*
X72151954Y-81611141D01*
X72312858Y-81772045D01*
X72312861Y-81772047D01*
X72499266Y-81902568D01*
X72705504Y-81998739D01*
X72925308Y-82057635D01*
X73069144Y-82070219D01*
X73151998Y-82077468D01*
X73152000Y-82077468D01*
X73152002Y-82077468D01*
X73208673Y-82072509D01*
X73378692Y-82057635D01*
X73598496Y-81998739D01*
X73804734Y-81902568D01*
X73991139Y-81772047D01*
X74152047Y-81611139D01*
X74282568Y-81424734D01*
X74309618Y-81366724D01*
X74355790Y-81314285D01*
X74422983Y-81295133D01*
X74489865Y-81315348D01*
X74534382Y-81366725D01*
X74561429Y-81424728D01*
X74561432Y-81424734D01*
X74691954Y-81611141D01*
X74852858Y-81772045D01*
X74852861Y-81772047D01*
X75039266Y-81902568D01*
X75245504Y-81998739D01*
X75465308Y-82057635D01*
X75609144Y-82070219D01*
X75691998Y-82077468D01*
X75691999Y-82077468D01*
X75691999Y-82077467D01*
X75692000Y-82077468D01*
X75774848Y-82070219D01*
X75843345Y-82083985D01*
X75893529Y-82132600D01*
X75909463Y-82200628D01*
X75886088Y-82266472D01*
X75873335Y-82281428D01*
X74911465Y-83243298D01*
X74850142Y-83276783D01*
X74837668Y-83278837D01*
X74750750Y-83288630D01*
X74580478Y-83348210D01*
X74427737Y-83444184D01*
X74300184Y-83571737D01*
X74204211Y-83724476D01*
X74144631Y-83894745D01*
X74144630Y-83894750D01*
X74124435Y-84073996D01*
X74124435Y-84074003D01*
X74144630Y-84253249D01*
X74144631Y-84253254D01*
X74204211Y-84423523D01*
X74256823Y-84507254D01*
X74300184Y-84576262D01*
X74427738Y-84703816D01*
X74518080Y-84760582D01*
X74546671Y-84778547D01*
X74580478Y-84799789D01*
X74750742Y-84859367D01*
X74750745Y-84859368D01*
X74750750Y-84859369D01*
X74929996Y-84879565D01*
X74930000Y-84879565D01*
X74930004Y-84879565D01*
X75109249Y-84859369D01*
X75109252Y-84859368D01*
X75109255Y-84859368D01*
X75279522Y-84799789D01*
X75432262Y-84703816D01*
X75559816Y-84576262D01*
X75587015Y-84532974D01*
X75639349Y-84486683D01*
X75708403Y-84476034D01*
X75772251Y-84504409D01*
X75797003Y-84532975D01*
X75824199Y-84576259D01*
X75824202Y-84576262D01*
X75951756Y-84703816D01*
X76104496Y-84799789D01*
X76274763Y-84859368D01*
X76361687Y-84869161D01*
X76426098Y-84896226D01*
X76435483Y-84904700D01*
X79618602Y-88087819D01*
X79652087Y-88149142D01*
X79647103Y-88218834D01*
X79605231Y-88274767D01*
X79539767Y-88299184D01*
X79530921Y-88299500D01*
X64242179Y-88299500D01*
X64175140Y-88279815D01*
X64154498Y-88263181D01*
X58564451Y-82673135D01*
X67794500Y-82673135D01*
X67794500Y-84468870D01*
X67794501Y-84468876D01*
X67800908Y-84528483D01*
X67851202Y-84663328D01*
X67851206Y-84663335D01*
X67937452Y-84778544D01*
X67937455Y-84778547D01*
X68052664Y-84864793D01*
X68052671Y-84864797D01*
X68187517Y-84915091D01*
X68187516Y-84915091D01*
X68194444Y-84915835D01*
X68247127Y-84921500D01*
X70042872Y-84921499D01*
X70102483Y-84915091D01*
X70237331Y-84864796D01*
X70352546Y-84778546D01*
X70438796Y-84663331D01*
X70489091Y-84528483D01*
X70495500Y-84468873D01*
X70495499Y-82673128D01*
X70489091Y-82613517D01*
X70442835Y-82489499D01*
X70438797Y-82478671D01*
X70438793Y-82478664D01*
X70352547Y-82363455D01*
X70352544Y-82363452D01*
X70237335Y-82277206D01*
X70237328Y-82277202D01*
X70105401Y-82227997D01*
X70049467Y-82186126D01*
X70025050Y-82120662D01*
X70039902Y-82052389D01*
X70061053Y-82024133D01*
X70183108Y-81902078D01*
X70318600Y-81708578D01*
X70418429Y-81494492D01*
X70418432Y-81494486D01*
X70475636Y-81281000D01*
X69578012Y-81281000D01*
X69610925Y-81223993D01*
X69645000Y-81096826D01*
X69645000Y-80965174D01*
X69610925Y-80838007D01*
X69578012Y-80781000D01*
X70475636Y-80781000D01*
X70475635Y-80780999D01*
X70418432Y-80567513D01*
X70418429Y-80567507D01*
X70318600Y-80353422D01*
X70318599Y-80353420D01*
X70183113Y-80159926D01*
X70183108Y-80159920D01*
X70016082Y-79992894D01*
X69822578Y-79857399D01*
X69608492Y-79757570D01*
X69608486Y-79757567D01*
X69395000Y-79700364D01*
X69395000Y-80597988D01*
X69337993Y-80565075D01*
X69210826Y-80531000D01*
X69079174Y-80531000D01*
X68952007Y-80565075D01*
X68895000Y-80597988D01*
X68895000Y-79700364D01*
X68894999Y-79700364D01*
X68681513Y-79757567D01*
X68681507Y-79757570D01*
X68467422Y-79857399D01*
X68467420Y-79857400D01*
X68273926Y-79992886D01*
X68273920Y-79992891D01*
X68106891Y-80159920D01*
X68106886Y-80159926D01*
X67971400Y-80353420D01*
X67971399Y-80353422D01*
X67871570Y-80567507D01*
X67871567Y-80567513D01*
X67814364Y-80780999D01*
X67814364Y-80781000D01*
X68711988Y-80781000D01*
X68679075Y-80838007D01*
X68645000Y-80965174D01*
X68645000Y-81096826D01*
X68679075Y-81223993D01*
X68711988Y-81281000D01*
X67814364Y-81281000D01*
X67871567Y-81494486D01*
X67871570Y-81494492D01*
X67971399Y-81708578D01*
X68106894Y-81902082D01*
X68228946Y-82024134D01*
X68262431Y-82085457D01*
X68257447Y-82155149D01*
X68215575Y-82211082D01*
X68184598Y-82227997D01*
X68052671Y-82277202D01*
X68052664Y-82277206D01*
X67937455Y-82363452D01*
X67937452Y-82363455D01*
X67851206Y-82478664D01*
X67851202Y-82478671D01*
X67800908Y-82613517D01*
X67798781Y-82633306D01*
X67794501Y-82673123D01*
X67794500Y-82673135D01*
X58564451Y-82673135D01*
X57229671Y-81338355D01*
X57229669Y-81338352D01*
X57110798Y-81219481D01*
X57110797Y-81219480D01*
X57023985Y-81169360D01*
X57023985Y-81169359D01*
X57023981Y-81169358D01*
X56973866Y-81140423D01*
X56821135Y-81099498D01*
X56813078Y-81098438D01*
X56813539Y-81094932D01*
X56762052Y-81079814D01*
X56716711Y-81027908D01*
X56714037Y-81022174D01*
X56714034Y-81022169D01*
X56578494Y-80828597D01*
X56411402Y-80661506D01*
X56411396Y-80661501D01*
X56225842Y-80531575D01*
X56182217Y-80476998D01*
X56175023Y-80407500D01*
X56206546Y-80345145D01*
X56225842Y-80328425D01*
X56276924Y-80292657D01*
X56411401Y-80198495D01*
X56578495Y-80031401D01*
X56714035Y-79837830D01*
X56813903Y-79623663D01*
X56875063Y-79395408D01*
X56895659Y-79160000D01*
X56875063Y-78924592D01*
X56813903Y-78696337D01*
X56714035Y-78482171D01*
X56708425Y-78474158D01*
X56578494Y-78288597D01*
X56411402Y-78121506D01*
X56411396Y-78121501D01*
X56225842Y-77991575D01*
X56182217Y-77936998D01*
X56175023Y-77867500D01*
X56206546Y-77805145D01*
X56225842Y-77788425D01*
X56248026Y-77772891D01*
X56411401Y-77658495D01*
X56578495Y-77491401D01*
X56714035Y-77297830D01*
X56813903Y-77083663D01*
X56875063Y-76855408D01*
X56895659Y-76620000D01*
X56875063Y-76384592D01*
X56813903Y-76156337D01*
X56714035Y-75942171D01*
X56708425Y-75934158D01*
X56578494Y-75748597D01*
X56411402Y-75581506D01*
X56411396Y-75581501D01*
X56225842Y-75451575D01*
X56182217Y-75396998D01*
X56175023Y-75327500D01*
X56206546Y-75265145D01*
X56225842Y-75248425D01*
X56291874Y-75202189D01*
X56411401Y-75118495D01*
X56578495Y-74951401D01*
X56714035Y-74757830D01*
X56813903Y-74543663D01*
X56875063Y-74315408D01*
X56895659Y-74080000D01*
X56875063Y-73844592D01*
X56813903Y-73616337D01*
X56714035Y-73402171D01*
X56708425Y-73394158D01*
X56578494Y-73208597D01*
X56411402Y-73041506D01*
X56411396Y-73041501D01*
X56225842Y-72911575D01*
X56182217Y-72856998D01*
X56175023Y-72787500D01*
X56206546Y-72725145D01*
X56225842Y-72708425D01*
X56250764Y-72690974D01*
X56411401Y-72578495D01*
X56578495Y-72411401D01*
X56714035Y-72217830D01*
X56813903Y-72003663D01*
X56875063Y-71775408D01*
X56892186Y-71579692D01*
X56917638Y-71514624D01*
X56974229Y-71473645D01*
X57015714Y-71466500D01*
X63545073Y-71466500D01*
X63612112Y-71486185D01*
G37*
%TD.AperFunction*%
%TA.AperFunction,Conductor*%
G36*
X88161925Y-82586185D02*
G01*
X88207680Y-82638989D01*
X88217624Y-82708147D01*
X88188599Y-82771703D01*
X88135840Y-82807542D01*
X88042478Y-82840210D01*
X87889737Y-82936184D01*
X87762184Y-83063737D01*
X87666211Y-83216476D01*
X87606631Y-83386745D01*
X87606630Y-83386750D01*
X87586435Y-83565996D01*
X87586435Y-83566000D01*
X87589096Y-83589615D01*
X87577042Y-83658437D01*
X87529694Y-83709817D01*
X87465876Y-83727500D01*
X81608411Y-83727500D01*
X81541372Y-83707815D01*
X81531097Y-83700446D01*
X81528267Y-83698189D01*
X81375528Y-83602216D01*
X81205259Y-83542636D01*
X81205254Y-83542635D01*
X81026009Y-83522440D01*
X81026001Y-83522440D01*
X80846755Y-83542635D01*
X80846750Y-83542636D01*
X80676481Y-83602216D01*
X80523742Y-83698189D01*
X80396189Y-83825742D01*
X80300216Y-83978481D01*
X80240636Y-84148750D01*
X80240635Y-84148755D01*
X80220440Y-84328001D01*
X80220440Y-84328008D01*
X80240635Y-84507254D01*
X80240636Y-84507259D01*
X80300216Y-84677528D01*
X80363691Y-84778547D01*
X80396189Y-84830267D01*
X80523743Y-84957821D01*
X80676483Y-85053794D01*
X80796352Y-85095738D01*
X80846750Y-85113373D01*
X80846755Y-85113374D01*
X81026001Y-85133570D01*
X81026005Y-85133570D01*
X81026009Y-85133570D01*
X81205254Y-85113374D01*
X81205257Y-85113373D01*
X81205260Y-85113373D01*
X81375527Y-85053794D01*
X81528267Y-84957821D01*
X81528277Y-84957810D01*
X81531106Y-84955556D01*
X81533291Y-84954663D01*
X81534163Y-84954116D01*
X81534258Y-84954268D01*
X81595792Y-84929145D01*
X81608423Y-84928500D01*
X82054905Y-84928500D01*
X82121944Y-84948185D01*
X82167699Y-85000989D01*
X82177643Y-85070147D01*
X82159899Y-85118472D01*
X82078211Y-85248476D01*
X82018631Y-85418745D01*
X82018630Y-85418750D01*
X81998435Y-85597996D01*
X81998435Y-85598003D01*
X82018630Y-85777249D01*
X82018631Y-85777254D01*
X82078211Y-85947523D01*
X82160883Y-86079094D01*
X82174184Y-86100262D01*
X82301738Y-86227816D01*
X82454478Y-86323789D01*
X82588428Y-86370660D01*
X82624745Y-86383368D01*
X82624750Y-86383369D01*
X82803996Y-86403565D01*
X82804000Y-86403565D01*
X82804002Y-86403565D01*
X82848041Y-86398602D01*
X82951877Y-86386903D01*
X83020698Y-86398957D01*
X83072077Y-86446306D01*
X83089702Y-86513916D01*
X83082802Y-86551077D01*
X83034632Y-86688740D01*
X83034630Y-86688748D01*
X83014435Y-86867994D01*
X83014435Y-86868001D01*
X83034630Y-87047247D01*
X83034631Y-87047252D01*
X83094211Y-87217521D01*
X83190184Y-87370260D01*
X83317737Y-87497813D01*
X83317743Y-87497818D01*
X83420694Y-87562507D01*
X83466985Y-87614841D01*
X83477633Y-87683895D01*
X83449258Y-87747743D01*
X83390868Y-87786115D01*
X83354722Y-87791500D01*
X81072115Y-87791500D01*
X81005076Y-87771815D01*
X80984434Y-87755181D01*
X77284718Y-84055465D01*
X77251233Y-83994142D01*
X77249181Y-83981686D01*
X77239386Y-83894745D01*
X77179807Y-83724478D01*
X77083834Y-83571738D01*
X76956280Y-83444184D01*
X76803537Y-83348209D01*
X76768672Y-83336009D01*
X76711896Y-83295288D01*
X76686149Y-83230335D01*
X76699605Y-83161773D01*
X76721942Y-83131291D01*
X77250416Y-82602819D01*
X77311739Y-82569334D01*
X77338097Y-82566500D01*
X88094886Y-82566500D01*
X88161925Y-82586185D01*
G37*
%TD.AperFunction*%
%TA.AperFunction,Conductor*%
G36*
X117493520Y-69720185D02*
G01*
X117514162Y-69736819D01*
X120205681Y-72428338D01*
X120239166Y-72489661D01*
X120242000Y-72516019D01*
X120242000Y-72768398D01*
X120222315Y-72835437D01*
X120183097Y-72873936D01*
X120099847Y-72925285D01*
X120099843Y-72925288D01*
X119975789Y-73049342D01*
X119883687Y-73198663D01*
X119883685Y-73198668D01*
X119855849Y-73282670D01*
X119828501Y-73365203D01*
X119828501Y-73365204D01*
X119828500Y-73365204D01*
X119818000Y-73467983D01*
X119818000Y-74868001D01*
X119818001Y-74868018D01*
X119828500Y-74970796D01*
X119828501Y-74970799D01*
X119878551Y-75121839D01*
X119883686Y-75137334D01*
X119975788Y-75286656D01*
X120099844Y-75410712D01*
X120183097Y-75462063D01*
X120229821Y-75514008D01*
X120242000Y-75567600D01*
X120242000Y-75792652D01*
X120222315Y-75859691D01*
X120183098Y-75898189D01*
X120124784Y-75934158D01*
X120061342Y-75973289D01*
X119937289Y-76097342D01*
X119845187Y-76246663D01*
X119845185Y-76246668D01*
X119845115Y-76246880D01*
X119790001Y-76413203D01*
X119790001Y-76413204D01*
X119790000Y-76413204D01*
X119779500Y-76515983D01*
X119779500Y-77916001D01*
X119779501Y-77916018D01*
X119790000Y-78018796D01*
X119790001Y-78018799D01*
X119828850Y-78136035D01*
X119845186Y-78185334D01*
X119937288Y-78334656D01*
X120061344Y-78458712D01*
X120210666Y-78550814D01*
X120377203Y-78605999D01*
X120479991Y-78616500D01*
X120587500Y-78616499D01*
X120654539Y-78636183D01*
X120700294Y-78688987D01*
X120711500Y-78740499D01*
X120711500Y-79610326D01*
X120691815Y-79677365D01*
X120658624Y-79711901D01*
X120572863Y-79771951D01*
X120411951Y-79932862D01*
X120281432Y-80119265D01*
X120281431Y-80119267D01*
X120254382Y-80177275D01*
X120208209Y-80229714D01*
X120141016Y-80248866D01*
X120074135Y-80228650D01*
X120029618Y-80177275D01*
X120002568Y-80119267D01*
X120002567Y-80119265D01*
X119941045Y-80031402D01*
X119872047Y-79932861D01*
X119872045Y-79932858D01*
X119711141Y-79771954D01*
X119524734Y-79641432D01*
X119524732Y-79641431D01*
X119318497Y-79545261D01*
X119318488Y-79545258D01*
X119098697Y-79486366D01*
X119098693Y-79486365D01*
X119098692Y-79486365D01*
X119098691Y-79486364D01*
X119098686Y-79486364D01*
X118872002Y-79466532D01*
X118871998Y-79466532D01*
X118645313Y-79486364D01*
X118645302Y-79486366D01*
X118425511Y-79545258D01*
X118425502Y-79545261D01*
X118219267Y-79641431D01*
X118219265Y-79641432D01*
X118032858Y-79771954D01*
X117871954Y-79932858D01*
X117741432Y-80119265D01*
X117741431Y-80119267D01*
X117714382Y-80177275D01*
X117668209Y-80229714D01*
X117601016Y-80248866D01*
X117534135Y-80228650D01*
X117489618Y-80177275D01*
X117462568Y-80119267D01*
X117462567Y-80119265D01*
X117401045Y-80031402D01*
X117332047Y-79932861D01*
X117332045Y-79932858D01*
X117171141Y-79771954D01*
X116984734Y-79641432D01*
X116984732Y-79641431D01*
X116778497Y-79545261D01*
X116778488Y-79545258D01*
X116558697Y-79486366D01*
X116558693Y-79486365D01*
X116558692Y-79486365D01*
X116558691Y-79486364D01*
X116558686Y-79486364D01*
X116332002Y-79466532D01*
X116331998Y-79466532D01*
X116105313Y-79486364D01*
X116105302Y-79486366D01*
X115885511Y-79545258D01*
X115885502Y-79545261D01*
X115679267Y-79641431D01*
X115679265Y-79641432D01*
X115492858Y-79771954D01*
X115331954Y-79932858D01*
X115201432Y-80119265D01*
X115201431Y-80119267D01*
X115174382Y-80177275D01*
X115128209Y-80229714D01*
X115061016Y-80248866D01*
X114994135Y-80228650D01*
X114949618Y-80177275D01*
X114922568Y-80119267D01*
X114922567Y-80119265D01*
X114861045Y-80031402D01*
X114792047Y-79932861D01*
X114792045Y-79932858D01*
X114631141Y-79771954D01*
X114444734Y-79641432D01*
X114444732Y-79641431D01*
X114238497Y-79545261D01*
X114238488Y-79545258D01*
X114018697Y-79486366D01*
X114018693Y-79486365D01*
X114018692Y-79486365D01*
X114018691Y-79486364D01*
X114018686Y-79486364D01*
X113792002Y-79466532D01*
X113791998Y-79466532D01*
X113565313Y-79486364D01*
X113565302Y-79486366D01*
X113345511Y-79545258D01*
X113345502Y-79545261D01*
X113139267Y-79641431D01*
X113139265Y-79641432D01*
X112952858Y-79771954D01*
X112791954Y-79932858D01*
X112661432Y-80119265D01*
X112661431Y-80119267D01*
X112634382Y-80177275D01*
X112588209Y-80229714D01*
X112521016Y-80248866D01*
X112454135Y-80228650D01*
X112409618Y-80177275D01*
X112382568Y-80119267D01*
X112382567Y-80119265D01*
X112321045Y-80031402D01*
X112252047Y-79932861D01*
X112252045Y-79932858D01*
X112091141Y-79771954D01*
X111904734Y-79641432D01*
X111904732Y-79641431D01*
X111698497Y-79545261D01*
X111698488Y-79545258D01*
X111478697Y-79486366D01*
X111478693Y-79486365D01*
X111478692Y-79486365D01*
X111478691Y-79486364D01*
X111478686Y-79486364D01*
X111252002Y-79466532D01*
X111251998Y-79466532D01*
X111025313Y-79486364D01*
X111025302Y-79486366D01*
X110805511Y-79545258D01*
X110805502Y-79545261D01*
X110599267Y-79641431D01*
X110599265Y-79641432D01*
X110412858Y-79771954D01*
X110251954Y-79932858D01*
X110121432Y-80119265D01*
X110121431Y-80119267D01*
X110094382Y-80177275D01*
X110048209Y-80229714D01*
X109981016Y-80248866D01*
X109914135Y-80228650D01*
X109869618Y-80177275D01*
X109842568Y-80119267D01*
X109842567Y-80119265D01*
X109781045Y-80031402D01*
X109712047Y-79932861D01*
X109712045Y-79932858D01*
X109551141Y-79771954D01*
X109364734Y-79641432D01*
X109364732Y-79641431D01*
X109158497Y-79545261D01*
X109158488Y-79545258D01*
X108938697Y-79486366D01*
X108938693Y-79486365D01*
X108938692Y-79486365D01*
X108938691Y-79486364D01*
X108938686Y-79486364D01*
X108712002Y-79466532D01*
X108711998Y-79466532D01*
X108485313Y-79486364D01*
X108485302Y-79486366D01*
X108265511Y-79545258D01*
X108265502Y-79545261D01*
X108059267Y-79641431D01*
X108059265Y-79641432D01*
X107872858Y-79771954D01*
X107711954Y-79932858D01*
X107581432Y-80119265D01*
X107581431Y-80119267D01*
X107554382Y-80177275D01*
X107508209Y-80229714D01*
X107441016Y-80248866D01*
X107374135Y-80228650D01*
X107329618Y-80177275D01*
X107302568Y-80119267D01*
X107302567Y-80119265D01*
X107241045Y-80031402D01*
X107172047Y-79932861D01*
X107172045Y-79932858D01*
X107011141Y-79771954D01*
X106824734Y-79641432D01*
X106824732Y-79641431D01*
X106618497Y-79545261D01*
X106618488Y-79545258D01*
X106398697Y-79486366D01*
X106398693Y-79486365D01*
X106398692Y-79486365D01*
X106398691Y-79486364D01*
X106398686Y-79486364D01*
X106172002Y-79466532D01*
X106171998Y-79466532D01*
X105945313Y-79486364D01*
X105945302Y-79486366D01*
X105725511Y-79545258D01*
X105725502Y-79545261D01*
X105519267Y-79641431D01*
X105519265Y-79641432D01*
X105332858Y-79771954D01*
X105171954Y-79932858D01*
X105041432Y-80119265D01*
X105041431Y-80119267D01*
X105014382Y-80177275D01*
X104968209Y-80229714D01*
X104901016Y-80248866D01*
X104834135Y-80228650D01*
X104789618Y-80177275D01*
X104762568Y-80119267D01*
X104762567Y-80119265D01*
X104701045Y-80031402D01*
X104632047Y-79932861D01*
X104632045Y-79932858D01*
X104471141Y-79771954D01*
X104284734Y-79641432D01*
X104284732Y-79641431D01*
X104078497Y-79545261D01*
X104078488Y-79545258D01*
X103858697Y-79486366D01*
X103858693Y-79486365D01*
X103858692Y-79486365D01*
X103858691Y-79486364D01*
X103858686Y-79486364D01*
X103632002Y-79466532D01*
X103631998Y-79466532D01*
X103405313Y-79486364D01*
X103405302Y-79486366D01*
X103309068Y-79512152D01*
X103239218Y-79510489D01*
X103189294Y-79480058D01*
X101625222Y-77915986D01*
X116655001Y-77915986D01*
X116665494Y-78018697D01*
X116720641Y-78185119D01*
X116720643Y-78185124D01*
X116812684Y-78334345D01*
X116936654Y-78458315D01*
X117085875Y-78550356D01*
X117085880Y-78550358D01*
X117252302Y-78605505D01*
X117252309Y-78605506D01*
X117355019Y-78615999D01*
X117567499Y-78615999D01*
X118067500Y-78615999D01*
X118279972Y-78615999D01*
X118279986Y-78615998D01*
X118382697Y-78605505D01*
X118549119Y-78550358D01*
X118549124Y-78550356D01*
X118698345Y-78458315D01*
X118822315Y-78334345D01*
X118914356Y-78185124D01*
X118914358Y-78185119D01*
X118969505Y-78018697D01*
X118969506Y-78018690D01*
X118979999Y-77915986D01*
X118980000Y-77915973D01*
X118980000Y-77466000D01*
X118067500Y-77466000D01*
X118067500Y-78615999D01*
X117567499Y-78615999D01*
X117567500Y-78615998D01*
X117567500Y-77466000D01*
X116655001Y-77466000D01*
X116655001Y-77915986D01*
X101625222Y-77915986D01*
X100225249Y-76516013D01*
X116655000Y-76516013D01*
X116655000Y-76966000D01*
X117567500Y-76966000D01*
X118067500Y-76966000D01*
X118979999Y-76966000D01*
X118979999Y-76516028D01*
X118979998Y-76516013D01*
X118969505Y-76413302D01*
X118914358Y-76246880D01*
X118914356Y-76246875D01*
X118822315Y-76097654D01*
X118698345Y-75973684D01*
X118549124Y-75881643D01*
X118549119Y-75881641D01*
X118382697Y-75826494D01*
X118382690Y-75826493D01*
X118279986Y-75816000D01*
X118067500Y-75816000D01*
X118067500Y-76966000D01*
X117567500Y-76966000D01*
X117567500Y-75816000D01*
X117355029Y-75816000D01*
X117355012Y-75816001D01*
X117252302Y-75826494D01*
X117085880Y-75881641D01*
X117085875Y-75881643D01*
X116936654Y-75973684D01*
X116812684Y-76097654D01*
X116720643Y-76246875D01*
X116720641Y-76246880D01*
X116665494Y-76413302D01*
X116665493Y-76413309D01*
X116655000Y-76516013D01*
X100225249Y-76516013D01*
X98577221Y-74867986D01*
X116693501Y-74867986D01*
X116703994Y-74970697D01*
X116759141Y-75137119D01*
X116759143Y-75137124D01*
X116851184Y-75286345D01*
X116975154Y-75410315D01*
X117124375Y-75502356D01*
X117124380Y-75502358D01*
X117290802Y-75557505D01*
X117290809Y-75557506D01*
X117393519Y-75567999D01*
X117605999Y-75567999D01*
X118106000Y-75567999D01*
X118318472Y-75567999D01*
X118318486Y-75567998D01*
X118421197Y-75557505D01*
X118587619Y-75502358D01*
X118587624Y-75502356D01*
X118736845Y-75410315D01*
X118860815Y-75286345D01*
X118952856Y-75137124D01*
X118952858Y-75137119D01*
X119008005Y-74970697D01*
X119008006Y-74970690D01*
X119018499Y-74867986D01*
X119018500Y-74867973D01*
X119018500Y-74418000D01*
X118106000Y-74418000D01*
X118106000Y-75567999D01*
X117605999Y-75567999D01*
X117606000Y-75567998D01*
X117606000Y-74418000D01*
X116693501Y-74418000D01*
X116693501Y-74867986D01*
X98577221Y-74867986D01*
X97177248Y-73468013D01*
X116693500Y-73468013D01*
X116693500Y-73918000D01*
X117606000Y-73918000D01*
X118106000Y-73918000D01*
X119018499Y-73918000D01*
X119018499Y-73468028D01*
X119018498Y-73468013D01*
X119008005Y-73365302D01*
X118952858Y-73198880D01*
X118952856Y-73198875D01*
X118860815Y-73049654D01*
X118736845Y-72925684D01*
X118587624Y-72833643D01*
X118587619Y-72833641D01*
X118421197Y-72778494D01*
X118421190Y-72778493D01*
X118318486Y-72768000D01*
X118106000Y-72768000D01*
X118106000Y-73918000D01*
X117606000Y-73918000D01*
X117606000Y-72768000D01*
X117393529Y-72768000D01*
X117393512Y-72768001D01*
X117290802Y-72778494D01*
X117124380Y-72833641D01*
X117124375Y-72833643D01*
X116975154Y-72925684D01*
X116851184Y-73049654D01*
X116759143Y-73198875D01*
X116759141Y-73198880D01*
X116703994Y-73365302D01*
X116703993Y-73365309D01*
X116693500Y-73468013D01*
X97177248Y-73468013D01*
X94863590Y-71154355D01*
X94863588Y-71154352D01*
X94744717Y-71035481D01*
X94744709Y-71035475D01*
X94642936Y-70976717D01*
X94642934Y-70976716D01*
X94607790Y-70956425D01*
X94607789Y-70956424D01*
X94595263Y-70953067D01*
X94455057Y-70915499D01*
X94296943Y-70915499D01*
X94289347Y-70915499D01*
X94289331Y-70915500D01*
X90586105Y-70915500D01*
X90519066Y-70895815D01*
X90473311Y-70843011D01*
X90462885Y-70777616D01*
X90468926Y-70724002D01*
X90468926Y-70723996D01*
X90448730Y-70544750D01*
X90448729Y-70544745D01*
X90389149Y-70374476D01*
X90323502Y-70270000D01*
X90293177Y-70221738D01*
X90165623Y-70094184D01*
X90111912Y-70060435D01*
X90012884Y-69998211D01*
X89850932Y-69941542D01*
X89794156Y-69900820D01*
X89768409Y-69835867D01*
X89781865Y-69767306D01*
X89830252Y-69716903D01*
X89891887Y-69700500D01*
X117426481Y-69700500D01*
X117493520Y-69720185D01*
G37*
%TD.AperFunction*%
%TA.AperFunction,Conductor*%
G36*
X80412473Y-69719506D02*
G01*
X80422470Y-69725787D01*
X80422471Y-69725787D01*
X80422474Y-69725789D01*
X80541123Y-69767306D01*
X80592741Y-69785368D01*
X80592746Y-69785369D01*
X80771992Y-69805565D01*
X80771996Y-69805565D01*
X80772000Y-69805565D01*
X80951245Y-69785369D01*
X80951248Y-69785368D01*
X80951251Y-69785368D01*
X81121518Y-69725789D01*
X81122484Y-69725181D01*
X81131519Y-69719506D01*
X81197490Y-69700500D01*
X89434835Y-69700500D01*
X89501874Y-69720185D01*
X89547629Y-69772989D01*
X89557573Y-69842147D01*
X89528548Y-69905703D01*
X89475790Y-69941542D01*
X89313837Y-69998211D01*
X89161098Y-70094184D01*
X89028621Y-70226662D01*
X89027002Y-70225043D01*
X88978685Y-70258955D01*
X88938931Y-70265500D01*
X71956412Y-70265500D01*
X71889373Y-70245815D01*
X71879097Y-70238445D01*
X71876263Y-70236185D01*
X71876262Y-70236184D01*
X71777353Y-70174035D01*
X71723523Y-70140211D01*
X71553254Y-70080631D01*
X71553249Y-70080630D01*
X71374004Y-70060435D01*
X71373996Y-70060435D01*
X71194750Y-70080630D01*
X71194745Y-70080631D01*
X71024476Y-70140211D01*
X70871736Y-70236185D01*
X70868903Y-70238445D01*
X70866724Y-70239334D01*
X70865842Y-70239889D01*
X70865744Y-70239734D01*
X70804217Y-70264855D01*
X70791588Y-70265500D01*
X56480482Y-70265500D01*
X56413443Y-70245815D01*
X56367688Y-70193011D01*
X56357744Y-70123853D01*
X56386769Y-70060297D01*
X56409358Y-70039924D01*
X56411401Y-70038495D01*
X56578495Y-69871401D01*
X56661136Y-69753376D01*
X56715713Y-69709752D01*
X56762711Y-69700500D01*
X80346502Y-69700500D01*
X80412473Y-69719506D01*
G37*
%TD.AperFunction*%
%TA.AperFunction,Conductor*%
G36*
X148942539Y-67020185D02*
G01*
X148988294Y-67072989D01*
X148999500Y-67124500D01*
X148999500Y-111375500D01*
X148979815Y-111442539D01*
X148927011Y-111488294D01*
X148875500Y-111499500D01*
X51124500Y-111499500D01*
X51057461Y-111479815D01*
X51011706Y-111427011D01*
X51000500Y-111375500D01*
X51000500Y-68999999D01*
X51644341Y-68999999D01*
X51644341Y-69000000D01*
X51664936Y-69235403D01*
X51664938Y-69235413D01*
X51726094Y-69463655D01*
X51726096Y-69463659D01*
X51726097Y-69463663D01*
X51810499Y-69644663D01*
X51825965Y-69677830D01*
X51825967Y-69677834D01*
X51961501Y-69871395D01*
X51961506Y-69871402D01*
X52128597Y-70038493D01*
X52128603Y-70038498D01*
X52314158Y-70168425D01*
X52357783Y-70223002D01*
X52364977Y-70292500D01*
X52333454Y-70354855D01*
X52314158Y-70371575D01*
X52128597Y-70501505D01*
X51961505Y-70668597D01*
X51825965Y-70862169D01*
X51825964Y-70862171D01*
X51726098Y-71076335D01*
X51726094Y-71076344D01*
X51664938Y-71304586D01*
X51664936Y-71304596D01*
X51644341Y-71539999D01*
X51644341Y-71540000D01*
X51664936Y-71775403D01*
X51664938Y-71775413D01*
X51726094Y-72003655D01*
X51726096Y-72003659D01*
X51726097Y-72003663D01*
X51806004Y-72175023D01*
X51825965Y-72217830D01*
X51825967Y-72217834D01*
X51904157Y-72329500D01*
X51961501Y-72411396D01*
X51961506Y-72411402D01*
X52128597Y-72578493D01*
X52128603Y-72578498D01*
X52314158Y-72708425D01*
X52357783Y-72763002D01*
X52364977Y-72832500D01*
X52333454Y-72894855D01*
X52314158Y-72911575D01*
X52128597Y-73041505D01*
X51961505Y-73208597D01*
X51825965Y-73402169D01*
X51825964Y-73402171D01*
X51726098Y-73616335D01*
X51726094Y-73616344D01*
X51664938Y-73844586D01*
X51664936Y-73844596D01*
X51644341Y-74079999D01*
X51644341Y-74080000D01*
X51664936Y-74315403D01*
X51664938Y-74315413D01*
X51726094Y-74543655D01*
X51726096Y-74543659D01*
X51726097Y-74543663D01*
X51820703Y-74746546D01*
X51825965Y-74757830D01*
X51825967Y-74757834D01*
X51904157Y-74869500D01*
X51961501Y-74951396D01*
X51961506Y-74951402D01*
X52128597Y-75118493D01*
X52128603Y-75118498D01*
X52314158Y-75248425D01*
X52357783Y-75303002D01*
X52364977Y-75372500D01*
X52333454Y-75434855D01*
X52314158Y-75451575D01*
X52128597Y-75581505D01*
X51961505Y-75748597D01*
X51825965Y-75942169D01*
X51825964Y-75942171D01*
X51726098Y-76156335D01*
X51726094Y-76156344D01*
X51664938Y-76384586D01*
X51664936Y-76384596D01*
X51644341Y-76619999D01*
X51644341Y-76620000D01*
X51664936Y-76855403D01*
X51664938Y-76855413D01*
X51726094Y-77083655D01*
X51726096Y-77083659D01*
X51726097Y-77083663D01*
X51779140Y-77197413D01*
X51825965Y-77297830D01*
X51825967Y-77297834D01*
X51921335Y-77434032D01*
X51961501Y-77491396D01*
X51961506Y-77491402D01*
X52128597Y-77658493D01*
X52128603Y-77658498D01*
X52314158Y-77788425D01*
X52357783Y-77843002D01*
X52364977Y-77912500D01*
X52333454Y-77974855D01*
X52314158Y-77991575D01*
X52128597Y-78121505D01*
X51961505Y-78288597D01*
X51825965Y-78482169D01*
X51825964Y-78482171D01*
X51726098Y-78696335D01*
X51726094Y-78696344D01*
X51664938Y-78924586D01*
X51664936Y-78924596D01*
X51644341Y-79159999D01*
X51644341Y-79160000D01*
X51664936Y-79395403D01*
X51664938Y-79395413D01*
X51726094Y-79623655D01*
X51726096Y-79623659D01*
X51726097Y-79623663D01*
X51806004Y-79795023D01*
X51825965Y-79837830D01*
X51825967Y-79837834D01*
X51904157Y-79949500D01*
X51961501Y-80031396D01*
X51961506Y-80031402D01*
X52128597Y-80198493D01*
X52128603Y-80198498D01*
X52314158Y-80328425D01*
X52357783Y-80383002D01*
X52364977Y-80452500D01*
X52333454Y-80514855D01*
X52314158Y-80531575D01*
X52128597Y-80661505D01*
X51961505Y-80828597D01*
X51825965Y-81022169D01*
X51825964Y-81022171D01*
X51726098Y-81236335D01*
X51726094Y-81236344D01*
X51664938Y-81464586D01*
X51664936Y-81464596D01*
X51644341Y-81699999D01*
X51644341Y-81700000D01*
X51664936Y-81935403D01*
X51664938Y-81935413D01*
X51726094Y-82163655D01*
X51726096Y-82163659D01*
X51726097Y-82163663D01*
X51819260Y-82363452D01*
X51825965Y-82377830D01*
X51825967Y-82377834D01*
X51961501Y-82571395D01*
X51961506Y-82571402D01*
X52128597Y-82738493D01*
X52128603Y-82738498D01*
X52314158Y-82868425D01*
X52357783Y-82923002D01*
X52364977Y-82992500D01*
X52333454Y-83054855D01*
X52314158Y-83071575D01*
X52128597Y-83201505D01*
X51961505Y-83368597D01*
X51825965Y-83562169D01*
X51825964Y-83562171D01*
X51726098Y-83776335D01*
X51726094Y-83776344D01*
X51664938Y-84004586D01*
X51664936Y-84004596D01*
X51644341Y-84239999D01*
X51644341Y-84240000D01*
X51664936Y-84475403D01*
X51664938Y-84475413D01*
X51726094Y-84703655D01*
X51726096Y-84703659D01*
X51726097Y-84703663D01*
X51801235Y-84864796D01*
X51825965Y-84917830D01*
X51825967Y-84917834D01*
X51921167Y-85053793D01*
X51961501Y-85111396D01*
X51961506Y-85111402D01*
X52128597Y-85278493D01*
X52128603Y-85278498D01*
X52314158Y-85408425D01*
X52357783Y-85463002D01*
X52364977Y-85532500D01*
X52333454Y-85594855D01*
X52314158Y-85611575D01*
X52128597Y-85741505D01*
X51961505Y-85908597D01*
X51825965Y-86102169D01*
X51825964Y-86102171D01*
X51726098Y-86316335D01*
X51726094Y-86316344D01*
X51664938Y-86544586D01*
X51664936Y-86544596D01*
X51644341Y-86779999D01*
X51644341Y-86780000D01*
X51664936Y-87015403D01*
X51664938Y-87015413D01*
X51726094Y-87243655D01*
X51726096Y-87243659D01*
X51726097Y-87243663D01*
X51825965Y-87457830D01*
X51825967Y-87457834D01*
X51961501Y-87651395D01*
X51961506Y-87651402D01*
X52128597Y-87818493D01*
X52128603Y-87818498D01*
X52314158Y-87948425D01*
X52357783Y-88003002D01*
X52364977Y-88072500D01*
X52333454Y-88134855D01*
X52314158Y-88151575D01*
X52128597Y-88281505D01*
X51961505Y-88448597D01*
X51825965Y-88642169D01*
X51825964Y-88642171D01*
X51726098Y-88856335D01*
X51726094Y-88856344D01*
X51664938Y-89084586D01*
X51664936Y-89084596D01*
X51644341Y-89319999D01*
X51644341Y-89320000D01*
X51664936Y-89555403D01*
X51664938Y-89555413D01*
X51726094Y-89783655D01*
X51726096Y-89783659D01*
X51726097Y-89783663D01*
X51788929Y-89918406D01*
X51825965Y-89997830D01*
X51825967Y-89997834D01*
X51904157Y-90109500D01*
X51961501Y-90191396D01*
X51961506Y-90191402D01*
X52128597Y-90358493D01*
X52128603Y-90358498D01*
X52314158Y-90488425D01*
X52357783Y-90543002D01*
X52364977Y-90612500D01*
X52333454Y-90674855D01*
X52314158Y-90691575D01*
X52128597Y-90821505D01*
X51961505Y-90988597D01*
X51825965Y-91182169D01*
X51825964Y-91182171D01*
X51726098Y-91396335D01*
X51726094Y-91396344D01*
X51664938Y-91624586D01*
X51664936Y-91624596D01*
X51644341Y-91859999D01*
X51644341Y-91860000D01*
X51664936Y-92095403D01*
X51664938Y-92095413D01*
X51726094Y-92323655D01*
X51726096Y-92323659D01*
X51726097Y-92323663D01*
X51790482Y-92461737D01*
X51825965Y-92537830D01*
X51825967Y-92537834D01*
X51904157Y-92649500D01*
X51961501Y-92731396D01*
X51961506Y-92731402D01*
X52128597Y-92898493D01*
X52128603Y-92898498D01*
X52314158Y-93028425D01*
X52357783Y-93083002D01*
X52364977Y-93152500D01*
X52333454Y-93214855D01*
X52314158Y-93231575D01*
X52128597Y-93361505D01*
X51961505Y-93528597D01*
X51825965Y-93722169D01*
X51825964Y-93722171D01*
X51726098Y-93936335D01*
X51726094Y-93936344D01*
X51664938Y-94164586D01*
X51664936Y-94164596D01*
X51644341Y-94399999D01*
X51644341Y-94400000D01*
X51664936Y-94635403D01*
X51664938Y-94635413D01*
X51726094Y-94863655D01*
X51726096Y-94863659D01*
X51726097Y-94863663D01*
X51796269Y-95014147D01*
X51825965Y-95077830D01*
X51825967Y-95077834D01*
X51886392Y-95164129D01*
X51961501Y-95271396D01*
X51961506Y-95271402D01*
X52128597Y-95438493D01*
X52128603Y-95438498D01*
X52314158Y-95568425D01*
X52357783Y-95623002D01*
X52364977Y-95692500D01*
X52333454Y-95754855D01*
X52314158Y-95771575D01*
X52128597Y-95901505D01*
X51961505Y-96068597D01*
X51825965Y-96262169D01*
X51825964Y-96262171D01*
X51726098Y-96476335D01*
X51726094Y-96476344D01*
X51664938Y-96704586D01*
X51664936Y-96704596D01*
X51644341Y-96939999D01*
X51644341Y-96940000D01*
X51664936Y-97175403D01*
X51664938Y-97175413D01*
X51726094Y-97403655D01*
X51726096Y-97403659D01*
X51726097Y-97403663D01*
X51790482Y-97541737D01*
X51825965Y-97617830D01*
X51825967Y-97617834D01*
X51961501Y-97811395D01*
X51961506Y-97811402D01*
X52128597Y-97978493D01*
X52128603Y-97978498D01*
X52314158Y-98108425D01*
X52357783Y-98163002D01*
X52364977Y-98232500D01*
X52333454Y-98294855D01*
X52314158Y-98311575D01*
X52128597Y-98441505D01*
X51961505Y-98608597D01*
X51825965Y-98802169D01*
X51825964Y-98802171D01*
X51726098Y-99016335D01*
X51726094Y-99016344D01*
X51664938Y-99244586D01*
X51664936Y-99244596D01*
X51644341Y-99479999D01*
X51644341Y-99480000D01*
X51664936Y-99715403D01*
X51664938Y-99715413D01*
X51726094Y-99943655D01*
X51726096Y-99943659D01*
X51726097Y-99943663D01*
X51806004Y-100115023D01*
X51825965Y-100157830D01*
X51825967Y-100157834D01*
X51921335Y-100294032D01*
X51961501Y-100351396D01*
X51961506Y-100351402D01*
X52128597Y-100518493D01*
X52128603Y-100518498D01*
X52314158Y-100648425D01*
X52357783Y-100703002D01*
X52364977Y-100772500D01*
X52333454Y-100834855D01*
X52314158Y-100851575D01*
X52128597Y-100981505D01*
X51961505Y-101148597D01*
X51825965Y-101342169D01*
X51825964Y-101342171D01*
X51726098Y-101556335D01*
X51726094Y-101556344D01*
X51664938Y-101784586D01*
X51664936Y-101784596D01*
X51644341Y-102019999D01*
X51644341Y-102020000D01*
X51664936Y-102255403D01*
X51664938Y-102255413D01*
X51726094Y-102483655D01*
X51726096Y-102483659D01*
X51726097Y-102483663D01*
X51730000Y-102492032D01*
X51825965Y-102697830D01*
X51825967Y-102697834D01*
X51934281Y-102852521D01*
X51961501Y-102891396D01*
X51961506Y-102891402D01*
X52128597Y-103058493D01*
X52128603Y-103058498D01*
X52314158Y-103188425D01*
X52357783Y-103243002D01*
X52364977Y-103312500D01*
X52333454Y-103374855D01*
X52314158Y-103391575D01*
X52128597Y-103521505D01*
X51961505Y-103688597D01*
X51825965Y-103882169D01*
X51825964Y-103882171D01*
X51726098Y-104096335D01*
X51726094Y-104096344D01*
X51664938Y-104324586D01*
X51664936Y-104324596D01*
X51644341Y-104559999D01*
X51644341Y-104560000D01*
X51664936Y-104795403D01*
X51664938Y-104795413D01*
X51726094Y-105023655D01*
X51726096Y-105023659D01*
X51726097Y-105023663D01*
X51730000Y-105032032D01*
X51825965Y-105237830D01*
X51825967Y-105237834D01*
X51934281Y-105392521D01*
X51961501Y-105431396D01*
X51961506Y-105431402D01*
X52128597Y-105598493D01*
X52128603Y-105598498D01*
X52314158Y-105728425D01*
X52357783Y-105783002D01*
X52364977Y-105852500D01*
X52333454Y-105914855D01*
X52314158Y-105931575D01*
X52128597Y-106061505D01*
X51961505Y-106228597D01*
X51825965Y-106422169D01*
X51825964Y-106422171D01*
X51726098Y-106636335D01*
X51726094Y-106636344D01*
X51664938Y-106864586D01*
X51664936Y-106864596D01*
X51644341Y-107099999D01*
X51644341Y-107100000D01*
X51664936Y-107335403D01*
X51664938Y-107335413D01*
X51726094Y-107563655D01*
X51726096Y-107563659D01*
X51726097Y-107563663D01*
X51730000Y-107572032D01*
X51825965Y-107777830D01*
X51825967Y-107777834D01*
X51934281Y-107932521D01*
X51961501Y-107971396D01*
X51961506Y-107971402D01*
X52083818Y-108093714D01*
X52117303Y-108155037D01*
X52112319Y-108224729D01*
X52070447Y-108280662D01*
X52039471Y-108297577D01*
X51907912Y-108346646D01*
X51907906Y-108346649D01*
X51792812Y-108432809D01*
X51792809Y-108432812D01*
X51706649Y-108547906D01*
X51706645Y-108547913D01*
X51656403Y-108682620D01*
X51656401Y-108682627D01*
X51650000Y-108742155D01*
X51650000Y-109390000D01*
X52566988Y-109390000D01*
X52534075Y-109447007D01*
X52500000Y-109574174D01*
X52500000Y-109705826D01*
X52534075Y-109832993D01*
X52566988Y-109890000D01*
X51650000Y-109890000D01*
X51650000Y-110537844D01*
X51656401Y-110597372D01*
X51656403Y-110597379D01*
X51706645Y-110732086D01*
X51706649Y-110732093D01*
X51792809Y-110847187D01*
X51792812Y-110847190D01*
X51907906Y-110933350D01*
X51907913Y-110933354D01*
X52042620Y-110983596D01*
X52042627Y-110983598D01*
X52102155Y-110989999D01*
X52102172Y-110990000D01*
X52750000Y-110990000D01*
X52750000Y-110073012D01*
X52807007Y-110105925D01*
X52934174Y-110140000D01*
X53065826Y-110140000D01*
X53192993Y-110105925D01*
X53250000Y-110073012D01*
X53250000Y-110990000D01*
X53897828Y-110990000D01*
X53897844Y-110989999D01*
X53957372Y-110983598D01*
X53957379Y-110983596D01*
X54092086Y-110933354D01*
X54092093Y-110933350D01*
X54207187Y-110847190D01*
X54207190Y-110847187D01*
X54293350Y-110732093D01*
X54293354Y-110732086D01*
X54342614Y-110600013D01*
X54384485Y-110544079D01*
X54449949Y-110519662D01*
X54518222Y-110534513D01*
X54546477Y-110555665D01*
X54668917Y-110678105D01*
X54862421Y-110813600D01*
X55076507Y-110913429D01*
X55076516Y-110913433D01*
X55290000Y-110970634D01*
X55290000Y-110073012D01*
X55347007Y-110105925D01*
X55474174Y-110140000D01*
X55605826Y-110140000D01*
X55732993Y-110105925D01*
X55790000Y-110073012D01*
X55790000Y-110970633D01*
X56003483Y-110913433D01*
X56003492Y-110913429D01*
X56217578Y-110813600D01*
X56411082Y-110678105D01*
X56578105Y-110511082D01*
X56713600Y-110317578D01*
X56813429Y-110103492D01*
X56813432Y-110103486D01*
X56870636Y-109890000D01*
X55973012Y-109890000D01*
X56005925Y-109832993D01*
X56040000Y-109705826D01*
X56040000Y-109574174D01*
X56005925Y-109447007D01*
X55973012Y-109390000D01*
X56870636Y-109390000D01*
X56870635Y-109389999D01*
X56813432Y-109176513D01*
X56813429Y-109176507D01*
X56713600Y-108962422D01*
X56713599Y-108962420D01*
X56578113Y-108768926D01*
X56578108Y-108768920D01*
X56411078Y-108601890D01*
X56225405Y-108471879D01*
X56181780Y-108417302D01*
X56174588Y-108347804D01*
X56206110Y-108285449D01*
X56225406Y-108268730D01*
X56337500Y-108190241D01*
X56411401Y-108138495D01*
X56578495Y-107971401D01*
X56714035Y-107777830D01*
X56813903Y-107563663D01*
X56875063Y-107335408D01*
X56895659Y-107100000D01*
X56875063Y-106864592D01*
X56813903Y-106636337D01*
X56714035Y-106422171D01*
X56708425Y-106414158D01*
X56578494Y-106228597D01*
X56411402Y-106061506D01*
X56411396Y-106061501D01*
X56225842Y-105931575D01*
X56182217Y-105876998D01*
X56175023Y-105807500D01*
X56206546Y-105745145D01*
X56225842Y-105728425D01*
X56248026Y-105712891D01*
X56411401Y-105598495D01*
X56578495Y-105431401D01*
X56714035Y-105237830D01*
X56813903Y-105023663D01*
X56875063Y-104795408D01*
X56895659Y-104560000D01*
X56875063Y-104324592D01*
X56813903Y-104096337D01*
X56714035Y-103882171D01*
X56708425Y-103874158D01*
X56578494Y-103688597D01*
X56411402Y-103521506D01*
X56411396Y-103521501D01*
X56225842Y-103391575D01*
X56182217Y-103336998D01*
X56175023Y-103267500D01*
X56206546Y-103205145D01*
X56225842Y-103188425D01*
X56248026Y-103172891D01*
X56411401Y-103058495D01*
X56578495Y-102891401D01*
X56714035Y-102697830D01*
X56813903Y-102483663D01*
X56875063Y-102255408D01*
X56895659Y-102020000D01*
X56875063Y-101784592D01*
X56813903Y-101556337D01*
X56714035Y-101342171D01*
X56708425Y-101334158D01*
X56578494Y-101148597D01*
X56411401Y-100981505D01*
X56411396Y-100981501D01*
X56225842Y-100851575D01*
X56182217Y-100796998D01*
X56175023Y-100727500D01*
X56206546Y-100665145D01*
X56225842Y-100648425D01*
X56248026Y-100632891D01*
X56411401Y-100518495D01*
X56578495Y-100351401D01*
X56714035Y-100157830D01*
X56813903Y-99943663D01*
X56875063Y-99715408D01*
X56892186Y-99519692D01*
X56917638Y-99454624D01*
X56974229Y-99413645D01*
X57015714Y-99406500D01*
X92889588Y-99406500D01*
X92956627Y-99426185D01*
X92966903Y-99433555D01*
X92969736Y-99435814D01*
X92969738Y-99435816D01*
X93122478Y-99531789D01*
X93256085Y-99578540D01*
X93292745Y-99591368D01*
X93292750Y-99591369D01*
X93471996Y-99611565D01*
X93472000Y-99611565D01*
X93472004Y-99611565D01*
X93651249Y-99591369D01*
X93651252Y-99591368D01*
X93651255Y-99591368D01*
X93821522Y-99531789D01*
X93974262Y-99435816D01*
X94101816Y-99308262D01*
X94197789Y-99155522D01*
X94257368Y-98985255D01*
X94261273Y-98950597D01*
X94264252Y-98924155D01*
X99742000Y-98924155D01*
X99742000Y-99572000D01*
X100658988Y-99572000D01*
X100626075Y-99629007D01*
X100592000Y-99756174D01*
X100592000Y-99887826D01*
X100626075Y-100014993D01*
X100658988Y-100072000D01*
X99742000Y-100072000D01*
X99742000Y-100719844D01*
X99748401Y-100779372D01*
X99748403Y-100779379D01*
X99798645Y-100914086D01*
X99798649Y-100914093D01*
X99884809Y-101029187D01*
X99884812Y-101029190D01*
X99999906Y-101115350D01*
X99999913Y-101115354D01*
X100134620Y-101165596D01*
X100134627Y-101165598D01*
X100194155Y-101171999D01*
X100194172Y-101172000D01*
X100842000Y-101172000D01*
X100842000Y-100255012D01*
X100899007Y-100287925D01*
X101026174Y-100322000D01*
X101157826Y-100322000D01*
X101284993Y-100287925D01*
X101342000Y-100255012D01*
X101342000Y-101172000D01*
X101989828Y-101172000D01*
X101989844Y-101171999D01*
X102049372Y-101165598D01*
X102049379Y-101165596D01*
X102184086Y-101115354D01*
X102184093Y-101115350D01*
X102299187Y-101029190D01*
X102299190Y-101029187D01*
X102385350Y-100914093D01*
X102385354Y-100914086D01*
X102434422Y-100782529D01*
X102476293Y-100726595D01*
X102541757Y-100702178D01*
X102610030Y-100717030D01*
X102638285Y-100738181D01*
X102760599Y-100860495D01*
X102837135Y-100914086D01*
X102954165Y-100996032D01*
X102954167Y-100996033D01*
X102954170Y-100996035D01*
X103168337Y-101095903D01*
X103396592Y-101157063D01*
X103567319Y-101172000D01*
X103631999Y-101177659D01*
X103632000Y-101177659D01*
X103632001Y-101177659D01*
X103696681Y-101172000D01*
X103867408Y-101157063D01*
X104095663Y-101095903D01*
X104309830Y-100996035D01*
X104503401Y-100860495D01*
X104670495Y-100693401D01*
X104800425Y-100507842D01*
X104855002Y-100464217D01*
X104924500Y-100457023D01*
X104986855Y-100488546D01*
X105003575Y-100507842D01*
X105133500Y-100693395D01*
X105133505Y-100693401D01*
X105300599Y-100860495D01*
X105377135Y-100914086D01*
X105494165Y-100996032D01*
X105494167Y-100996033D01*
X105494170Y-100996035D01*
X105708337Y-101095903D01*
X105936592Y-101157063D01*
X106107319Y-101172000D01*
X106171999Y-101177659D01*
X106172000Y-101177659D01*
X106172001Y-101177659D01*
X106236681Y-101172000D01*
X106407408Y-101157063D01*
X106635663Y-101095903D01*
X106849830Y-100996035D01*
X107043401Y-100860495D01*
X107210495Y-100693401D01*
X107346035Y-100499830D01*
X107445903Y-100285663D01*
X107507063Y-100057408D01*
X107527659Y-99822000D01*
X107507063Y-99586592D01*
X107445903Y-99358337D01*
X107346035Y-99144171D01*
X107340425Y-99136158D01*
X107210494Y-98950597D01*
X107043402Y-98783506D01*
X107043395Y-98783501D01*
X107023812Y-98769789D01*
X107004521Y-98756281D01*
X106849834Y-98647967D01*
X106849830Y-98647965D01*
X106804326Y-98626746D01*
X106635663Y-98548097D01*
X106635659Y-98548096D01*
X106635655Y-98548094D01*
X106407413Y-98486938D01*
X106407403Y-98486936D01*
X106172001Y-98466341D01*
X106171999Y-98466341D01*
X105936596Y-98486936D01*
X105936586Y-98486938D01*
X105708344Y-98548094D01*
X105708335Y-98548098D01*
X105494171Y-98647964D01*
X105494169Y-98647965D01*
X105300597Y-98783505D01*
X105133505Y-98950597D01*
X105003575Y-99136158D01*
X104948998Y-99179783D01*
X104879500Y-99186977D01*
X104817145Y-99155454D01*
X104800425Y-99136158D01*
X104670494Y-98950597D01*
X104503402Y-98783506D01*
X104503395Y-98783501D01*
X104483812Y-98769789D01*
X104464521Y-98756281D01*
X104309834Y-98647967D01*
X104309830Y-98647965D01*
X104264326Y-98626746D01*
X104095663Y-98548097D01*
X104095659Y-98548096D01*
X104095655Y-98548094D01*
X103867413Y-98486938D01*
X103867403Y-98486936D01*
X103632001Y-98466341D01*
X103631999Y-98466341D01*
X103396596Y-98486936D01*
X103396586Y-98486938D01*
X103168344Y-98548094D01*
X103168335Y-98548098D01*
X102954171Y-98647964D01*
X102954169Y-98647965D01*
X102760600Y-98783503D01*
X102638284Y-98905819D01*
X102576961Y-98939303D01*
X102507269Y-98934319D01*
X102451336Y-98892447D01*
X102434421Y-98861470D01*
X102385354Y-98729913D01*
X102385350Y-98729906D01*
X102299190Y-98614812D01*
X102299187Y-98614809D01*
X102184093Y-98528649D01*
X102184086Y-98528645D01*
X102049379Y-98478403D01*
X102049372Y-98478401D01*
X101989844Y-98472000D01*
X101342000Y-98472000D01*
X101342000Y-99388988D01*
X101284993Y-99356075D01*
X101157826Y-99322000D01*
X101026174Y-99322000D01*
X100899007Y-99356075D01*
X100842000Y-99388988D01*
X100842000Y-98472000D01*
X100194155Y-98472000D01*
X100134627Y-98478401D01*
X100134620Y-98478403D01*
X99999913Y-98528645D01*
X99999906Y-98528649D01*
X99884812Y-98614809D01*
X99884809Y-98614812D01*
X99798649Y-98729906D01*
X99798645Y-98729913D01*
X99748403Y-98864620D01*
X99748401Y-98864627D01*
X99742000Y-98924155D01*
X94264252Y-98924155D01*
X94277565Y-98806003D01*
X94277565Y-98805999D01*
X94274904Y-98782385D01*
X94286958Y-98713563D01*
X94334306Y-98662183D01*
X94398124Y-98644500D01*
X95429588Y-98644500D01*
X95496627Y-98664185D01*
X95506903Y-98671555D01*
X95509736Y-98673814D01*
X95509738Y-98673816D01*
X95662478Y-98769789D01*
X95765963Y-98806000D01*
X95832745Y-98829368D01*
X95832750Y-98829369D01*
X96011996Y-98849565D01*
X96012000Y-98849565D01*
X96012004Y-98849565D01*
X96191249Y-98829369D01*
X96191252Y-98829368D01*
X96191255Y-98829368D01*
X96361522Y-98769789D01*
X96514262Y-98673816D01*
X96641816Y-98546262D01*
X96737789Y-98393522D01*
X96797368Y-98223255D01*
X96797369Y-98223249D01*
X96817565Y-98044003D01*
X96817565Y-98043996D01*
X96797369Y-97864750D01*
X96797368Y-97864745D01*
X96737788Y-97694476D01*
X96641815Y-97541737D01*
X96514263Y-97414185D01*
X96511305Y-97411826D01*
X96509894Y-97409816D01*
X96509338Y-97409260D01*
X96509435Y-97409162D01*
X96471165Y-97354637D01*
X96468316Y-97284825D01*
X96503663Y-97224556D01*
X96536212Y-97202498D01*
X96664734Y-97142568D01*
X96851139Y-97012047D01*
X97012047Y-96851139D01*
X97142568Y-96664734D01*
X97169618Y-96606724D01*
X97215790Y-96554285D01*
X97282983Y-96535133D01*
X97349865Y-96555348D01*
X97394382Y-96606725D01*
X97421429Y-96664728D01*
X97421432Y-96664734D01*
X97551954Y-96851141D01*
X97712858Y-97012045D01*
X97712861Y-97012047D01*
X97899266Y-97142568D01*
X98105504Y-97238739D01*
X98325308Y-97297635D01*
X98487230Y-97311801D01*
X98551998Y-97317468D01*
X98552000Y-97317468D01*
X98552002Y-97317468D01*
X98608796Y-97312499D01*
X98778692Y-97297635D01*
X98998496Y-97238739D01*
X99204734Y-97142568D01*
X99391139Y-97012047D01*
X99552047Y-96851139D01*
X99682568Y-96664734D01*
X99709618Y-96606724D01*
X99755790Y-96554285D01*
X99822983Y-96535133D01*
X99889865Y-96555348D01*
X99934382Y-96606725D01*
X99961429Y-96664728D01*
X99961432Y-96664734D01*
X100091954Y-96851141D01*
X100252858Y-97012045D01*
X100252861Y-97012047D01*
X100439266Y-97142568D01*
X100645504Y-97238739D01*
X100865308Y-97297635D01*
X101027230Y-97311801D01*
X101091998Y-97317468D01*
X101092000Y-97317468D01*
X101092002Y-97317468D01*
X101148796Y-97312499D01*
X101318692Y-97297635D01*
X101538496Y-97238739D01*
X101744734Y-97142568D01*
X101931139Y-97012047D01*
X102092047Y-96851139D01*
X102222568Y-96664734D01*
X102249618Y-96606724D01*
X102295790Y-96554285D01*
X102362983Y-96535133D01*
X102429865Y-96555348D01*
X102474382Y-96606725D01*
X102501429Y-96664728D01*
X102501432Y-96664734D01*
X102631954Y-96851141D01*
X102792858Y-97012045D01*
X102792861Y-97012047D01*
X102979266Y-97142568D01*
X103185504Y-97238739D01*
X103405308Y-97297635D01*
X103567230Y-97311801D01*
X103631998Y-97317468D01*
X103632000Y-97317468D01*
X103632002Y-97317468D01*
X103688796Y-97312499D01*
X103858692Y-97297635D01*
X104078496Y-97238739D01*
X104284734Y-97142568D01*
X104471139Y-97012047D01*
X104632047Y-96851139D01*
X104762568Y-96664734D01*
X104789618Y-96606724D01*
X104835790Y-96554285D01*
X104902983Y-96535133D01*
X104969865Y-96555348D01*
X105014382Y-96606725D01*
X105041429Y-96664728D01*
X105041432Y-96664734D01*
X105171954Y-96851141D01*
X105332858Y-97012045D01*
X105332861Y-97012047D01*
X105519266Y-97142568D01*
X105725504Y-97238739D01*
X105945308Y-97297635D01*
X106107230Y-97311801D01*
X106171998Y-97317468D01*
X106172000Y-97317468D01*
X106172002Y-97317468D01*
X106228796Y-97312499D01*
X106398692Y-97297635D01*
X106618496Y-97238739D01*
X106824734Y-97142568D01*
X107011139Y-97012047D01*
X107172047Y-96851139D01*
X107302568Y-96664734D01*
X107329618Y-96606724D01*
X107375790Y-96554285D01*
X107442983Y-96535133D01*
X107509865Y-96555348D01*
X107554382Y-96606725D01*
X107581429Y-96664728D01*
X107581432Y-96664734D01*
X107711954Y-96851141D01*
X107872858Y-97012045D01*
X107872861Y-97012047D01*
X108059266Y-97142568D01*
X108265504Y-97238739D01*
X108485308Y-97297635D01*
X108647230Y-97311801D01*
X108711998Y-97317468D01*
X108712000Y-97317468D01*
X108712002Y-97317468D01*
X108768796Y-97312499D01*
X108938692Y-97297635D01*
X109158496Y-97238739D01*
X109364734Y-97142568D01*
X109551139Y-97012047D01*
X109712047Y-96851139D01*
X109842568Y-96664734D01*
X109869618Y-96606724D01*
X109915790Y-96554285D01*
X109982983Y-96535133D01*
X110049865Y-96555348D01*
X110094382Y-96606725D01*
X110121429Y-96664728D01*
X110121432Y-96664734D01*
X110251954Y-96851141D01*
X110412858Y-97012045D01*
X110412861Y-97012047D01*
X110599266Y-97142568D01*
X110805504Y-97238739D01*
X111025308Y-97297635D01*
X111187230Y-97311801D01*
X111251998Y-97317468D01*
X111252000Y-97317468D01*
X111252002Y-97317468D01*
X111308796Y-97312499D01*
X111478692Y-97297635D01*
X111698496Y-97238739D01*
X111904734Y-97142568D01*
X112091139Y-97012047D01*
X112252047Y-96851139D01*
X112382568Y-96664734D01*
X112409618Y-96606724D01*
X112455790Y-96554285D01*
X112522983Y-96535133D01*
X112589865Y-96555348D01*
X112634382Y-96606725D01*
X112661429Y-96664728D01*
X112661432Y-96664734D01*
X112791954Y-96851141D01*
X112952858Y-97012045D01*
X112952861Y-97012047D01*
X113138624Y-97142118D01*
X113182248Y-97196693D01*
X113191500Y-97243692D01*
X113191500Y-98289950D01*
X113191499Y-98289968D01*
X113191499Y-98455674D01*
X113191498Y-98455674D01*
X113199875Y-98486936D01*
X113232423Y-98608405D01*
X113232424Y-98608407D01*
X113232423Y-98608407D01*
X113243012Y-98626746D01*
X113243013Y-98626748D01*
X113311475Y-98745329D01*
X113311481Y-98745337D01*
X113430349Y-98864205D01*
X113430355Y-98864210D01*
X113990519Y-99424374D01*
X113990529Y-99424385D01*
X114106665Y-99540521D01*
X114139591Y-99559530D01*
X114172519Y-99578541D01*
X114194738Y-99591369D01*
X114250634Y-99623641D01*
X114249389Y-99625796D01*
X114294041Y-99661777D01*
X114316108Y-99728071D01*
X114298831Y-99795771D01*
X114247695Y-99843382D01*
X114192187Y-99856500D01*
X113231412Y-99856500D01*
X113164373Y-99836815D01*
X113154097Y-99829445D01*
X113151263Y-99827185D01*
X113151262Y-99827184D01*
X113094496Y-99791515D01*
X112998523Y-99731211D01*
X112828254Y-99671631D01*
X112828249Y-99671630D01*
X112649004Y-99651435D01*
X112648996Y-99651435D01*
X112469750Y-99671630D01*
X112469745Y-99671631D01*
X112299476Y-99731211D01*
X112146737Y-99827184D01*
X112019184Y-99954737D01*
X111923211Y-100107476D01*
X111863631Y-100277745D01*
X111863630Y-100277750D01*
X111843435Y-100456996D01*
X111843435Y-100457003D01*
X111863630Y-100636249D01*
X111863631Y-100636254D01*
X111923211Y-100806523D01*
X112019184Y-100959262D01*
X112146738Y-101086816D01*
X112192150Y-101115350D01*
X112291313Y-101177659D01*
X112299478Y-101182789D01*
X112469745Y-101242368D01*
X112469750Y-101242369D01*
X112648996Y-101262565D01*
X112649000Y-101262565D01*
X112649004Y-101262565D01*
X112828249Y-101242369D01*
X112828252Y-101242368D01*
X112828255Y-101242368D01*
X112998522Y-101182789D01*
X113151262Y-101086816D01*
X113151267Y-101086810D01*
X113154097Y-101084555D01*
X113156275Y-101083665D01*
X113157158Y-101083111D01*
X113157255Y-101083265D01*
X113218783Y-101058145D01*
X113231412Y-101057500D01*
X140248331Y-101057500D01*
X140248347Y-101057501D01*
X140255943Y-101057501D01*
X140414054Y-101057501D01*
X140414057Y-101057501D01*
X140566785Y-101016577D01*
X140627531Y-100981505D01*
X140703716Y-100937520D01*
X140815520Y-100825716D01*
X140815520Y-100825714D01*
X140825724Y-100815511D01*
X140825727Y-100815506D01*
X142914417Y-98726819D01*
X142975740Y-98693334D01*
X143002098Y-98690500D01*
X143143397Y-98690500D01*
X143210436Y-98710185D01*
X143256191Y-98762989D01*
X143266135Y-98832147D01*
X143255779Y-98866905D01*
X143186097Y-99016335D01*
X143186094Y-99016344D01*
X143124938Y-99244586D01*
X143124936Y-99244596D01*
X143104341Y-99479999D01*
X143104341Y-99480000D01*
X143124936Y-99715403D01*
X143124938Y-99715413D01*
X143186094Y-99943655D01*
X143186096Y-99943659D01*
X143186097Y-99943663D01*
X143266004Y-100115023D01*
X143285965Y-100157830D01*
X143285967Y-100157834D01*
X143381335Y-100294032D01*
X143421501Y-100351396D01*
X143421506Y-100351402D01*
X143588597Y-100518493D01*
X143588603Y-100518498D01*
X143774158Y-100648425D01*
X143817783Y-100703002D01*
X143824977Y-100772500D01*
X143793454Y-100834855D01*
X143774158Y-100851575D01*
X143588597Y-100981505D01*
X143421505Y-101148597D01*
X143285965Y-101342169D01*
X143285964Y-101342171D01*
X143186098Y-101556335D01*
X143186094Y-101556344D01*
X143124938Y-101784586D01*
X143124936Y-101784596D01*
X143104341Y-102019999D01*
X143104341Y-102020000D01*
X143124936Y-102255403D01*
X143124938Y-102255413D01*
X143186094Y-102483655D01*
X143186096Y-102483659D01*
X143186097Y-102483663D01*
X143190000Y-102492032D01*
X143285965Y-102697830D01*
X143285967Y-102697834D01*
X143394281Y-102852521D01*
X143421501Y-102891396D01*
X143421506Y-102891402D01*
X143588597Y-103058493D01*
X143588603Y-103058498D01*
X143774158Y-103188425D01*
X143817783Y-103243002D01*
X143824977Y-103312500D01*
X143793454Y-103374855D01*
X143774158Y-103391575D01*
X143588597Y-103521505D01*
X143421505Y-103688597D01*
X143285965Y-103882169D01*
X143285964Y-103882171D01*
X143186098Y-104096335D01*
X143186094Y-104096344D01*
X143124938Y-104324586D01*
X143124936Y-104324596D01*
X143104341Y-104559999D01*
X143104341Y-104560000D01*
X143124936Y-104795403D01*
X143124938Y-104795413D01*
X143186094Y-105023655D01*
X143186096Y-105023659D01*
X143186097Y-105023663D01*
X143190000Y-105032032D01*
X143285965Y-105237830D01*
X143285967Y-105237834D01*
X143394281Y-105392521D01*
X143421501Y-105431396D01*
X143421506Y-105431402D01*
X143588597Y-105598493D01*
X143588603Y-105598498D01*
X143774158Y-105728425D01*
X143817783Y-105783002D01*
X143824977Y-105852500D01*
X143793454Y-105914855D01*
X143774158Y-105931575D01*
X143588597Y-106061505D01*
X143421505Y-106228597D01*
X143285965Y-106422169D01*
X143285964Y-106422171D01*
X143186098Y-106636335D01*
X143186094Y-106636344D01*
X143124938Y-106864586D01*
X143124936Y-106864596D01*
X143104341Y-107099999D01*
X143104341Y-107100000D01*
X143124936Y-107335403D01*
X143124938Y-107335413D01*
X143186094Y-107563655D01*
X143186096Y-107563659D01*
X143186097Y-107563663D01*
X143190000Y-107572032D01*
X143285965Y-107777830D01*
X143285967Y-107777834D01*
X143394281Y-107932521D01*
X143421501Y-107971396D01*
X143421506Y-107971402D01*
X143588597Y-108138493D01*
X143588603Y-108138498D01*
X143774594Y-108268730D01*
X143818219Y-108323307D01*
X143825413Y-108392805D01*
X143793890Y-108455160D01*
X143774595Y-108471880D01*
X143588922Y-108601890D01*
X143588920Y-108601891D01*
X143421891Y-108768920D01*
X143421886Y-108768926D01*
X143286400Y-108962420D01*
X143286399Y-108962422D01*
X143186570Y-109176507D01*
X143186567Y-109176513D01*
X143129364Y-109389999D01*
X143129364Y-109390000D01*
X144026988Y-109390000D01*
X143994075Y-109447007D01*
X143960000Y-109574174D01*
X143960000Y-109705826D01*
X143994075Y-109832993D01*
X144026988Y-109890000D01*
X143129364Y-109890000D01*
X143186567Y-110103486D01*
X143186570Y-110103492D01*
X143286399Y-110317578D01*
X143421894Y-110511082D01*
X143588917Y-110678105D01*
X143782421Y-110813600D01*
X143996507Y-110913429D01*
X143996516Y-110913433D01*
X144210000Y-110970634D01*
X144210000Y-110073012D01*
X144267007Y-110105925D01*
X144394174Y-110140000D01*
X144525826Y-110140000D01*
X144652993Y-110105925D01*
X144710000Y-110073012D01*
X144710000Y-110970633D01*
X144923483Y-110913433D01*
X144923492Y-110913429D01*
X145137578Y-110813600D01*
X145331082Y-110678105D01*
X145498105Y-110511082D01*
X145628425Y-110324968D01*
X145683002Y-110281344D01*
X145752501Y-110274151D01*
X145814855Y-110305673D01*
X145831575Y-110324968D01*
X145961894Y-110511082D01*
X146128917Y-110678105D01*
X146322421Y-110813600D01*
X146536507Y-110913429D01*
X146536516Y-110913433D01*
X146750000Y-110970634D01*
X146750000Y-110073012D01*
X146807007Y-110105925D01*
X146934174Y-110140000D01*
X147065826Y-110140000D01*
X147192993Y-110105925D01*
X147250000Y-110073012D01*
X147250000Y-110970633D01*
X147463483Y-110913433D01*
X147463492Y-110913429D01*
X147677578Y-110813600D01*
X147871082Y-110678105D01*
X148038105Y-110511082D01*
X148173600Y-110317578D01*
X148273429Y-110103492D01*
X148273432Y-110103486D01*
X148330636Y-109890000D01*
X147433012Y-109890000D01*
X147465925Y-109832993D01*
X147500000Y-109705826D01*
X147500000Y-109574174D01*
X147465925Y-109447007D01*
X147433012Y-109390000D01*
X148330636Y-109390000D01*
X148330635Y-109389999D01*
X148273432Y-109176513D01*
X148273429Y-109176507D01*
X148173600Y-108962422D01*
X148173599Y-108962420D01*
X148038113Y-108768926D01*
X148038108Y-108768920D01*
X147871078Y-108601890D01*
X147685405Y-108471879D01*
X147641780Y-108417302D01*
X147634588Y-108347804D01*
X147666110Y-108285449D01*
X147685406Y-108268730D01*
X147797500Y-108190241D01*
X147871401Y-108138495D01*
X148038495Y-107971401D01*
X148174035Y-107777830D01*
X148273903Y-107563663D01*
X148335063Y-107335408D01*
X148355659Y-107100000D01*
X148335063Y-106864592D01*
X148273903Y-106636337D01*
X148174035Y-106422171D01*
X148168425Y-106414158D01*
X148038494Y-106228597D01*
X147871402Y-106061506D01*
X147871396Y-106061501D01*
X147685842Y-105931575D01*
X147642217Y-105876998D01*
X147635023Y-105807500D01*
X147666546Y-105745145D01*
X147685842Y-105728425D01*
X147708026Y-105712891D01*
X147871401Y-105598495D01*
X148038495Y-105431401D01*
X148174035Y-105237830D01*
X148273903Y-105023663D01*
X148335063Y-104795408D01*
X148355659Y-104560000D01*
X148335063Y-104324592D01*
X148273903Y-104096337D01*
X148174035Y-103882171D01*
X148168425Y-103874158D01*
X148038494Y-103688597D01*
X147871402Y-103521506D01*
X147871396Y-103521501D01*
X147685842Y-103391575D01*
X147642217Y-103336998D01*
X147635023Y-103267500D01*
X147666546Y-103205145D01*
X147685842Y-103188425D01*
X147708026Y-103172891D01*
X147871401Y-103058495D01*
X148038495Y-102891401D01*
X148174035Y-102697830D01*
X148273903Y-102483663D01*
X148335063Y-102255408D01*
X148355659Y-102020000D01*
X148335063Y-101784592D01*
X148273903Y-101556337D01*
X148174035Y-101342171D01*
X148168425Y-101334158D01*
X148038494Y-101148597D01*
X147871401Y-100981505D01*
X147871396Y-100981501D01*
X147685842Y-100851575D01*
X147642217Y-100796998D01*
X147635023Y-100727500D01*
X147666546Y-100665145D01*
X147685842Y-100648425D01*
X147708026Y-100632891D01*
X147871401Y-100518495D01*
X148038495Y-100351401D01*
X148174035Y-100157830D01*
X148273903Y-99943663D01*
X148335063Y-99715408D01*
X148355659Y-99480000D01*
X148335063Y-99244592D01*
X148273903Y-99016337D01*
X148174035Y-98802171D01*
X148160963Y-98783501D01*
X148038494Y-98608597D01*
X147871402Y-98441506D01*
X147871396Y-98441501D01*
X147685842Y-98311575D01*
X147642217Y-98256998D01*
X147635023Y-98187500D01*
X147666546Y-98125145D01*
X147685842Y-98108425D01*
X147777856Y-98043996D01*
X147871401Y-97978495D01*
X148038495Y-97811401D01*
X148174035Y-97617830D01*
X148273903Y-97403663D01*
X148335063Y-97175408D01*
X148355659Y-96940000D01*
X148335063Y-96704592D01*
X148273903Y-96476337D01*
X148174035Y-96262171D01*
X148173916Y-96262000D01*
X148038494Y-96068597D01*
X147871402Y-95901506D01*
X147871396Y-95901501D01*
X147685842Y-95771575D01*
X147642217Y-95716998D01*
X147635023Y-95647500D01*
X147666546Y-95585145D01*
X147685842Y-95568425D01*
X147736924Y-95532657D01*
X147871401Y-95438495D01*
X148038495Y-95271401D01*
X148174035Y-95077830D01*
X148273903Y-94863663D01*
X148335063Y-94635408D01*
X148355659Y-94400000D01*
X148335063Y-94164592D01*
X148273903Y-93936337D01*
X148174035Y-93722171D01*
X148168425Y-93714158D01*
X148038494Y-93528597D01*
X147871402Y-93361506D01*
X147871396Y-93361501D01*
X147685842Y-93231575D01*
X147642217Y-93176998D01*
X147635023Y-93107500D01*
X147666546Y-93045145D01*
X147685842Y-93028425D01*
X147851234Y-92912616D01*
X147871401Y-92898495D01*
X148038495Y-92731401D01*
X148174035Y-92537830D01*
X148273903Y-92323663D01*
X148335063Y-92095408D01*
X148355659Y-91860000D01*
X148335063Y-91624592D01*
X148273903Y-91396337D01*
X148174035Y-91182171D01*
X148168425Y-91174158D01*
X148038494Y-90988597D01*
X147871402Y-90821506D01*
X147871396Y-90821501D01*
X147685842Y-90691575D01*
X147642217Y-90636998D01*
X147635023Y-90567500D01*
X147666546Y-90505145D01*
X147685842Y-90488425D01*
X147777850Y-90424000D01*
X147871401Y-90358495D01*
X148038495Y-90191401D01*
X148174035Y-89997830D01*
X148273903Y-89783663D01*
X148335063Y-89555408D01*
X148355659Y-89320000D01*
X148335063Y-89084592D01*
X148273903Y-88856337D01*
X148174035Y-88642171D01*
X148038495Y-88448599D01*
X148038494Y-88448597D01*
X147871402Y-88281506D01*
X147871396Y-88281501D01*
X147685842Y-88151575D01*
X147642217Y-88096998D01*
X147635023Y-88027500D01*
X147666546Y-87965145D01*
X147685842Y-87948425D01*
X147708026Y-87932891D01*
X147871401Y-87818495D01*
X148038495Y-87651401D01*
X148174035Y-87457830D01*
X148273903Y-87243663D01*
X148335063Y-87015408D01*
X148355659Y-86780000D01*
X148335063Y-86544592D01*
X148275900Y-86323789D01*
X148273905Y-86316344D01*
X148273904Y-86316343D01*
X148273903Y-86316337D01*
X148174035Y-86102171D01*
X148172699Y-86100262D01*
X148038494Y-85908597D01*
X147871402Y-85741506D01*
X147871396Y-85741501D01*
X147685842Y-85611575D01*
X147642217Y-85556998D01*
X147635023Y-85487500D01*
X147666546Y-85425145D01*
X147685842Y-85408425D01*
X147708026Y-85392891D01*
X147871401Y-85278495D01*
X148038495Y-85111401D01*
X148174035Y-84917830D01*
X148273903Y-84703663D01*
X148335063Y-84475408D01*
X148355659Y-84240000D01*
X148335063Y-84004592D01*
X148273903Y-83776337D01*
X148174035Y-83562171D01*
X148160358Y-83542637D01*
X148038494Y-83368597D01*
X147871402Y-83201506D01*
X147871396Y-83201501D01*
X147685842Y-83071575D01*
X147642217Y-83016998D01*
X147635023Y-82947500D01*
X147666546Y-82885145D01*
X147685842Y-82868425D01*
X147726137Y-82840210D01*
X147871401Y-82738495D01*
X148038495Y-82571401D01*
X148174035Y-82377830D01*
X148273903Y-82163663D01*
X148335063Y-81935408D01*
X148355659Y-81700000D01*
X148335063Y-81464592D01*
X148273903Y-81236337D01*
X148174035Y-81022171D01*
X148168425Y-81014158D01*
X148038494Y-80828597D01*
X147871402Y-80661506D01*
X147871396Y-80661501D01*
X147685842Y-80531575D01*
X147642217Y-80476998D01*
X147635023Y-80407500D01*
X147666546Y-80345145D01*
X147685842Y-80328425D01*
X147736924Y-80292657D01*
X147871401Y-80198495D01*
X148038495Y-80031401D01*
X148174035Y-79837830D01*
X148273903Y-79623663D01*
X148335063Y-79395408D01*
X148355659Y-79160000D01*
X148335063Y-78924592D01*
X148273903Y-78696337D01*
X148174035Y-78482171D01*
X148168425Y-78474158D01*
X148038494Y-78288597D01*
X147871402Y-78121506D01*
X147871396Y-78121501D01*
X147685842Y-77991575D01*
X147642217Y-77936998D01*
X147635023Y-77867500D01*
X147666546Y-77805145D01*
X147685842Y-77788425D01*
X147708026Y-77772891D01*
X147871401Y-77658495D01*
X148038495Y-77491401D01*
X148174035Y-77297830D01*
X148273903Y-77083663D01*
X148335063Y-76855408D01*
X148355659Y-76620000D01*
X148335063Y-76384592D01*
X148273903Y-76156337D01*
X148174035Y-75942171D01*
X148168425Y-75934158D01*
X148038494Y-75748597D01*
X147871402Y-75581506D01*
X147871396Y-75581501D01*
X147685842Y-75451575D01*
X147642217Y-75396998D01*
X147635023Y-75327500D01*
X147666546Y-75265145D01*
X147685842Y-75248425D01*
X147751874Y-75202189D01*
X147871401Y-75118495D01*
X148038495Y-74951401D01*
X148174035Y-74757830D01*
X148273903Y-74543663D01*
X148335063Y-74315408D01*
X148355659Y-74080000D01*
X148335063Y-73844592D01*
X148273903Y-73616337D01*
X148174035Y-73402171D01*
X148168425Y-73394158D01*
X148038494Y-73208597D01*
X147871402Y-73041506D01*
X147871396Y-73041501D01*
X147685842Y-72911575D01*
X147642217Y-72856998D01*
X147635023Y-72787500D01*
X147666546Y-72725145D01*
X147685842Y-72708425D01*
X147710764Y-72690974D01*
X147871401Y-72578495D01*
X148038495Y-72411401D01*
X148174035Y-72217830D01*
X148273903Y-72003663D01*
X148335063Y-71775408D01*
X148355659Y-71540000D01*
X148335063Y-71304592D01*
X148273903Y-71076337D01*
X148174035Y-70862171D01*
X148168424Y-70854158D01*
X148038496Y-70668600D01*
X148038493Y-70668597D01*
X147916567Y-70546671D01*
X147883084Y-70485351D01*
X147888068Y-70415659D01*
X147929939Y-70359725D01*
X147960915Y-70342810D01*
X148092331Y-70293796D01*
X148207546Y-70207546D01*
X148293796Y-70092331D01*
X148344091Y-69957483D01*
X148350500Y-69897873D01*
X148350499Y-68102128D01*
X148344091Y-68042517D01*
X148342810Y-68039083D01*
X148293797Y-67907671D01*
X148293793Y-67907664D01*
X148207547Y-67792455D01*
X148207544Y-67792452D01*
X148092335Y-67706206D01*
X148092328Y-67706202D01*
X147957482Y-67655908D01*
X147957483Y-67655908D01*
X147897883Y-67649501D01*
X147897881Y-67649500D01*
X147897873Y-67649500D01*
X147897864Y-67649500D01*
X146102129Y-67649500D01*
X146102123Y-67649501D01*
X146042516Y-67655908D01*
X145907671Y-67706202D01*
X145907664Y-67706206D01*
X145792455Y-67792452D01*
X145792452Y-67792455D01*
X145706206Y-67907664D01*
X145706203Y-67907669D01*
X145657189Y-68039083D01*
X145615317Y-68095016D01*
X145549853Y-68119433D01*
X145481580Y-68104581D01*
X145453326Y-68083430D01*
X145331402Y-67961506D01*
X145331395Y-67961501D01*
X145137834Y-67825967D01*
X145137830Y-67825965D01*
X145137828Y-67825964D01*
X144923663Y-67726097D01*
X144923659Y-67726096D01*
X144923655Y-67726094D01*
X144695413Y-67664938D01*
X144695403Y-67664936D01*
X144460001Y-67644341D01*
X144459999Y-67644341D01*
X144224596Y-67664936D01*
X144224586Y-67664938D01*
X143996344Y-67726094D01*
X143996335Y-67726098D01*
X143782171Y-67825964D01*
X143782169Y-67825965D01*
X143588597Y-67961505D01*
X143421505Y-68128597D01*
X143285965Y-68322169D01*
X143285964Y-68322171D01*
X143186098Y-68536335D01*
X143186094Y-68536344D01*
X143124938Y-68764586D01*
X143124936Y-68764596D01*
X143104341Y-68999999D01*
X143104341Y-69000000D01*
X143124936Y-69235403D01*
X143124938Y-69235413D01*
X143186094Y-69463655D01*
X143186096Y-69463659D01*
X143186097Y-69463663D01*
X143270499Y-69644663D01*
X143285965Y-69677830D01*
X143285967Y-69677834D01*
X143421501Y-69871395D01*
X143421506Y-69871402D01*
X143588597Y-70038493D01*
X143588603Y-70038498D01*
X143774158Y-70168425D01*
X143817783Y-70223002D01*
X143824977Y-70292500D01*
X143793454Y-70354855D01*
X143774158Y-70371575D01*
X143588597Y-70501505D01*
X143421505Y-70668597D01*
X143285965Y-70862169D01*
X143285964Y-70862171D01*
X143186098Y-71076335D01*
X143186094Y-71076344D01*
X143124938Y-71304586D01*
X143124936Y-71304596D01*
X143104341Y-71539999D01*
X143104341Y-71540000D01*
X143124936Y-71775403D01*
X143124938Y-71775413D01*
X143186094Y-72003655D01*
X143186097Y-72003664D01*
X143219268Y-72074800D01*
X143255779Y-72153096D01*
X143266271Y-72222172D01*
X143237751Y-72285956D01*
X143179275Y-72324196D01*
X143143397Y-72329500D01*
X142548670Y-72329500D01*
X142548654Y-72329499D01*
X142541058Y-72329499D01*
X142382943Y-72329499D01*
X142306579Y-72349961D01*
X142230214Y-72370423D01*
X142230209Y-72370426D01*
X142093290Y-72449475D01*
X142093282Y-72449481D01*
X133213584Y-81329181D01*
X133152261Y-81362666D01*
X133125903Y-81365500D01*
X122760950Y-81365500D01*
X122693911Y-81345815D01*
X122648156Y-81293011D01*
X122638212Y-81223853D01*
X122641175Y-81209407D01*
X122671848Y-81094932D01*
X122697635Y-80998692D01*
X122717468Y-80772000D01*
X122697635Y-80545308D01*
X122638739Y-80325504D01*
X122542568Y-80119266D01*
X122412047Y-79932861D01*
X122251139Y-79771953D01*
X122165376Y-79711901D01*
X122121751Y-79657324D01*
X122112500Y-79610326D01*
X122112500Y-77616506D01*
X122107882Y-77593293D01*
X122105499Y-77569099D01*
X122105499Y-76515998D01*
X122105498Y-76515981D01*
X122094999Y-76413203D01*
X122094998Y-76413200D01*
X122039814Y-76246666D01*
X121947712Y-76097344D01*
X121823656Y-75973288D01*
X121701902Y-75898190D01*
X121655179Y-75846243D01*
X121643000Y-75792652D01*
X121643000Y-75614374D01*
X121662685Y-75547335D01*
X121707608Y-75508099D01*
X121706687Y-75506605D01*
X121712832Y-75502814D01*
X121712834Y-75502814D01*
X121862156Y-75410712D01*
X121986212Y-75286656D01*
X122078314Y-75137334D01*
X122133499Y-74970797D01*
X122144000Y-74868009D01*
X122143999Y-73467992D01*
X122139031Y-73419363D01*
X122133499Y-73365203D01*
X122133498Y-73365200D01*
X122081605Y-73208599D01*
X122078314Y-73198666D01*
X121986212Y-73049344D01*
X121862156Y-72925288D01*
X121712834Y-72833186D01*
X121712832Y-72833185D01*
X121706687Y-72829395D01*
X121707626Y-72827872D01*
X121662154Y-72787831D01*
X121643000Y-72721625D01*
X121643000Y-72105511D01*
X121643000Y-72105507D01*
X121642694Y-72103972D01*
X121641821Y-72099579D01*
X121641819Y-72099574D01*
X121616080Y-71970172D01*
X121601802Y-71935702D01*
X121563277Y-71842692D01*
X121486612Y-71727954D01*
X118214545Y-68455887D01*
X118099807Y-68379222D01*
X117972332Y-68326421D01*
X117972322Y-68326418D01*
X117836996Y-68299500D01*
X117836994Y-68299500D01*
X117836993Y-68299500D01*
X81197490Y-68299500D01*
X81131519Y-68280494D01*
X81121521Y-68274212D01*
X80951250Y-68214631D01*
X80951245Y-68214630D01*
X80772000Y-68194435D01*
X80771992Y-68194435D01*
X80592746Y-68214630D01*
X80592741Y-68214631D01*
X80422470Y-68274212D01*
X80412473Y-68280494D01*
X80346502Y-68299500D01*
X56762711Y-68299500D01*
X56695672Y-68279815D01*
X56661136Y-68246623D01*
X56578494Y-68128597D01*
X56411402Y-67961506D01*
X56411395Y-67961501D01*
X56217834Y-67825967D01*
X56217830Y-67825965D01*
X56217828Y-67825964D01*
X56003663Y-67726097D01*
X56003659Y-67726096D01*
X56003655Y-67726094D01*
X55775413Y-67664938D01*
X55775403Y-67664936D01*
X55540001Y-67644341D01*
X55539999Y-67644341D01*
X55304596Y-67664936D01*
X55304586Y-67664938D01*
X55076344Y-67726094D01*
X55076335Y-67726098D01*
X54862171Y-67825964D01*
X54862169Y-67825965D01*
X54668597Y-67961505D01*
X54501506Y-68128596D01*
X54418864Y-68246623D01*
X54364287Y-68290248D01*
X54317289Y-68299500D01*
X54222711Y-68299500D01*
X54155672Y-68279815D01*
X54121136Y-68246623D01*
X54038494Y-68128597D01*
X53871402Y-67961506D01*
X53871395Y-67961501D01*
X53677834Y-67825967D01*
X53677830Y-67825965D01*
X53677828Y-67825964D01*
X53463663Y-67726097D01*
X53463659Y-67726096D01*
X53463655Y-67726094D01*
X53235413Y-67664938D01*
X53235403Y-67664936D01*
X53000001Y-67644341D01*
X52999999Y-67644341D01*
X52764596Y-67664936D01*
X52764586Y-67664938D01*
X52536344Y-67726094D01*
X52536335Y-67726098D01*
X52322171Y-67825964D01*
X52322169Y-67825965D01*
X52128597Y-67961505D01*
X51961505Y-68128597D01*
X51825965Y-68322169D01*
X51825964Y-68322171D01*
X51726098Y-68536335D01*
X51726094Y-68536344D01*
X51664938Y-68764586D01*
X51664936Y-68764596D01*
X51644341Y-68999999D01*
X51000500Y-68999999D01*
X51000500Y-67124500D01*
X51020185Y-67057461D01*
X51072989Y-67011706D01*
X51124500Y-67000500D01*
X148875500Y-67000500D01*
X148942539Y-67020185D01*
G37*
%TD.AperFunction*%
%TD*%
M02*
