M48
; DRILL file {KiCad 8.0.7-8.0.7-0~ubuntu22.04.1} date 2025-01-28T11:11:42+0100
; FORMAT={-:-/ absolute / inch / decimal}
; #@! TF.CreationDate,2025-01-28T11:11:42+01:00
; #@! TF.GenerationSoftware,Kicad,Pcbnew,8.0.7-8.0.7-0~ubuntu22.04.1
; #@! TF.FileFunction,MixedPlating,1,2
FMAT,2
INCH
; #@! TA.AperFunction,Plated,PTH,ViaDrill
T1C0.0118
; #@! TA.AperFunction,Plated,PTH,ComponentDrill
T2C0.0315
; #@! TA.AperFunction,Plated,PTH,ComponentDrill
T3C0.0394
%
G90
G05
T1
X2.3Y-3.62
X2.31Y-3.16
X2.33Y-2.89
X2.3962Y-2.9868
X2.4124Y-2.9576
X2.4361Y-2.9339
X2.4597Y-2.9102
X2.4835Y-2.8866
X2.5069Y-2.8627
X2.5314Y-2.8399
X2.5544Y-2.8156
X2.61Y-2.7549
X2.69Y-3.43
X2.7Y-3.08
X2.7Y-3.8
X2.81Y-2.79
X2.87Y-3.93
X2.95Y-3.31
X2.97Y-4.34
X3.01Y-3.31
X3.03Y-3.43
X3.08Y-3.56
X3.1Y-3.28
X3.17Y-3.4
X3.18Y-2.7165
X3.18Y-3.6256
X3.19Y-3.32
X3.22Y-3.7
X3.26Y-3.37
X3.3Y-3.42
X3.38Y-3.27
X3.38Y-3.39
X3.48Y-3.29
X3.5301Y-2.7844
X3.62Y-4.34
X3.68Y-3.89
X3.78Y-3.86
X3.84Y-2.8
X3.88Y-3.53
X3.98Y-3.51
X4.05Y-3.03
X4.08Y-3.54
X4.1367Y-3.7
X4.18Y-3.4
X4.18Y-3.66
X4.25Y-2.81
X4.29Y-3.45
X4.29Y-3.55
X4.38Y-3.51
X4.38Y-3.6556
X4.435Y-3.955
X4.51Y-4.24
X4.53Y-3.86
X4.63Y-3.93
X4.71Y-3.56
X4.78Y-3.59
X5.01Y-2.78
X5.04Y-3.58
X5.46Y-2.77
X5.46Y-3.56
X5.48Y-4.09
X5.51Y-4.28
T2
X2.88Y-3.18
X2.88Y-3.78
X2.98Y-3.18
X2.98Y-3.78
X3.08Y-3.18
X3.08Y-3.78
X3.18Y-3.18
X3.18Y-3.78
X3.28Y-3.18
X3.28Y-3.78
X3.38Y-3.18
X3.38Y-3.78
X3.48Y-3.18
X3.48Y-3.78
X3.58Y-3.18
X3.58Y-3.78
X3.68Y-3.18
X3.68Y-3.78
X3.78Y-3.18
X3.78Y-3.78
X3.88Y-3.18
X3.88Y-3.78
X3.98Y-3.18
X3.98Y-3.78
X4.08Y-3.18
X4.08Y-3.78
X4.18Y-3.18
X4.18Y-3.78
X4.28Y-3.18
X4.28Y-3.78
X4.38Y-3.18
X4.38Y-3.78
X4.48Y-3.18
X4.48Y-3.78
X4.58Y-3.18
X4.58Y-3.78
X4.68Y-3.18
X4.68Y-3.78
X4.78Y-3.18
X4.78Y-3.78
T3
X2.0866Y-2.7165
X2.0866Y-2.8165
X2.0866Y-2.9165
X2.0866Y-3.0165
X2.0866Y-3.1165
X2.0866Y-3.2165
X2.0866Y-3.3165
X2.0866Y-3.4165
X2.0866Y-3.5165
X2.0866Y-3.6165
X2.0866Y-3.7165
X2.0866Y-3.8165
X2.0866Y-3.9165
X2.0866Y-4.0165
X2.0866Y-4.1165
X2.0866Y-4.2165
X2.0866Y-4.3165
X2.1866Y-2.7165
X2.1866Y-2.8165
X2.1866Y-2.9165
X2.1866Y-3.0165
X2.1866Y-3.1165
X2.1866Y-3.2165
X2.1866Y-3.3165
X2.1866Y-3.4165
X2.1866Y-3.5165
X2.1866Y-3.6165
X2.1866Y-3.7165
X2.1866Y-3.8165
X2.1866Y-3.9165
X2.1866Y-4.0165
X2.1866Y-4.1165
X2.1866Y-4.2165
X2.1866Y-4.3165
X2.7222Y-3.1902
X2.7222Y-3.2902
X2.98Y-3.03
X3.08Y-3.03
X3.18Y-3.03
X3.98Y-3.93
X4.08Y-3.93
X4.18Y-3.93
X5.6874Y-2.7165
X5.6874Y-2.8165
X5.6874Y-2.9165
X5.6874Y-3.0165
X5.6874Y-3.1165
X5.6874Y-3.2165
X5.6874Y-3.3165
X5.6874Y-3.4165
X5.6874Y-3.5165
X5.6874Y-3.6165
X5.6874Y-3.7165
X5.6874Y-3.8165
X5.6874Y-3.9165
X5.6874Y-4.0165
X5.6874Y-4.1165
X5.6874Y-4.2165
X5.6874Y-4.3165
X5.7874Y-2.7165
X5.7874Y-2.8165
X5.7874Y-2.9165
X5.7874Y-3.0165
X5.7874Y-3.1165
X5.7874Y-3.2165
X5.7874Y-3.3165
X5.7874Y-3.4165
X5.7874Y-3.5165
X5.7874Y-3.6165
X5.7874Y-3.7165
X5.7874Y-3.8165
X5.7874Y-3.9165
X5.7874Y-4.0165
X5.7874Y-4.1165
X5.7874Y-4.2165
X5.7874Y-4.3165
M30
