%TF.GenerationSoftware,KiCad,Pcbnew,8.0.7-8.0.7-0~ubuntu22.04.1*%
%TF.CreationDate,2025-01-28T11:11:40+01:00*%
%TF.ProjectId,EF9366,45463933-3636-42e6-9b69-6361645f7063,rev?*%
%TF.SameCoordinates,Original*%
%TF.FileFunction,Copper,L1,Top*%
%TF.FilePolarity,Positive*%
%FSLAX46Y46*%
G04 Gerber Fmt 4.6, Leading zero omitted, Abs format (unit mm)*
G04 Created by KiCad (PCBNEW 8.0.7-8.0.7-0~ubuntu22.04.1) date 2025-01-28 11:11:40*
%MOMM*%
%LPD*%
G01*
G04 APERTURE LIST*
G04 Aperture macros list*
%AMRoundRect*
0 Rectangle with rounded corners*
0 $1 Rounding radius*
0 $2 $3 $4 $5 $6 $7 $8 $9 X,Y pos of 4 corners*
0 Add a 4 corners polygon primitive as box body*
4,1,4,$2,$3,$4,$5,$6,$7,$8,$9,$2,$3,0*
0 Add four circle primitives for the rounded corners*
1,1,$1+$1,$2,$3*
1,1,$1+$1,$4,$5*
1,1,$1+$1,$6,$7*
1,1,$1+$1,$8,$9*
0 Add four rect primitives between the rounded corners*
20,1,$1+$1,$2,$3,$4,$5,0*
20,1,$1+$1,$4,$5,$6,$7,0*
20,1,$1+$1,$6,$7,$8,$9,0*
20,1,$1+$1,$8,$9,$2,$3,0*%
G04 Aperture macros list end*
%TA.AperFunction,ComponentPad*%
%ADD10R,1.700000X1.700000*%
%TD*%
%TA.AperFunction,ComponentPad*%
%ADD11O,1.700000X1.700000*%
%TD*%
%TA.AperFunction,SMDPad,CuDef*%
%ADD12RoundRect,0.250000X0.400000X0.625000X-0.400000X0.625000X-0.400000X-0.625000X0.400000X-0.625000X0*%
%TD*%
%TA.AperFunction,ComponentPad*%
%ADD13R,1.600000X1.600000*%
%TD*%
%TA.AperFunction,ComponentPad*%
%ADD14O,1.600000X1.600000*%
%TD*%
%TA.AperFunction,ViaPad*%
%ADD15C,0.600000*%
%TD*%
%TA.AperFunction,Conductor*%
%ADD16C,0.200000*%
%TD*%
%TA.AperFunction,Conductor*%
%ADD17C,0.400000*%
%TD*%
G04 APERTURE END LIST*
D10*
%TO.P,J2,1,Pin_1*%
%TO.N,/~{INT}*%
X69145000Y-83571000D03*
D11*
%TO.P,J2,2,Pin_2*%
%TO.N,GND*%
X69145000Y-81031000D03*
%TD*%
D12*
%TO.P,R1,1*%
%TO.N,+5V*%
X77470000Y-69850000D03*
%TO.P,R1,2*%
%TO.N,/~{INT}*%
X74370000Y-69850000D03*
%TD*%
D10*
%TO.P,JP2,1,A*%
%TO.N,GND*%
X75692000Y-76962000D03*
D11*
%TO.P,JP2,2,C*%
%TO.N,Net-(JP2-C)*%
X78232000Y-76962000D03*
%TO.P,JP2,3,B*%
%TO.N,+5V*%
X80772000Y-76962000D03*
%TD*%
D10*
%TO.P,JP1,1,A*%
%TO.N,GND*%
X101092000Y-99822000D03*
D11*
%TO.P,JP1,2,C*%
%TO.N,Net-(JP1-C)*%
X103632000Y-99822000D03*
%TO.P,JP1,3,B*%
%TO.N,+5V*%
X106172000Y-99822000D03*
%TD*%
D10*
%TO.P,J3,1,Pin_1*%
%TO.N,unconnected-(J3-Pin_1-Pad1)*%
X147000000Y-69000000D03*
D11*
%TO.P,J3,2,Pin_2*%
%TO.N,unconnected-(J3-Pin_2-Pad2)*%
X144460000Y-69000000D03*
%TO.P,J3,3,Pin_3*%
%TO.N,unconnected-(J3-Pin_3-Pad3)*%
X147000000Y-71540000D03*
%TO.P,J3,4,Pin_4*%
%TO.N,unconnected-(J3-Pin_4-Pad4)*%
X144460000Y-71540000D03*
%TO.P,J3,5,Pin_5*%
%TO.N,/VA18*%
X147000000Y-74080000D03*
%TO.P,J3,6,Pin_6*%
%TO.N,unconnected-(J3-Pin_6-Pad6)*%
X144460000Y-74080000D03*
%TO.P,J3,7,Pin_7*%
%TO.N,/VA16*%
X147000000Y-76620000D03*
%TO.P,J3,8,Pin_8*%
%TO.N,/VA17*%
X144460000Y-76620000D03*
%TO.P,J3,9,Pin_9*%
%TO.N,/VA14*%
X147000000Y-79160000D03*
%TO.P,J3,10,Pin_10*%
%TO.N,/VA15*%
X144460000Y-79160000D03*
%TO.P,J3,11,Pin_11*%
%TO.N,/VA12*%
X147000000Y-81700000D03*
%TO.P,J3,12,Pin_12*%
%TO.N,/VA13*%
X144460000Y-81700000D03*
%TO.P,J3,13,Pin_13*%
%TO.N,/VA10*%
X147000000Y-84240000D03*
%TO.P,J3,14,Pin_14*%
%TO.N,/VA11*%
X144460000Y-84240000D03*
%TO.P,J3,15,Pin_15*%
%TO.N,/VA8*%
X147000000Y-86780000D03*
%TO.P,J3,16,Pin_16*%
%TO.N,/VA9*%
X144460000Y-86780000D03*
%TO.P,J3,17,Pin_17*%
%TO.N,/VA6*%
X147000000Y-89320000D03*
%TO.P,J3,18,Pin_18*%
%TO.N,/VA7*%
X144460000Y-89320000D03*
%TO.P,J3,19,Pin_19*%
%TO.N,/VA4*%
X147000000Y-91860000D03*
%TO.P,J3,20,Pin_20*%
%TO.N,/VA5*%
X144460000Y-91860000D03*
%TO.P,J3,21,Pin_21*%
%TO.N,/VA2*%
X147000000Y-94400000D03*
%TO.P,J3,22,Pin_22*%
%TO.N,/VA3*%
X144460000Y-94400000D03*
%TO.P,J3,23,Pin_23*%
%TO.N,/VA0*%
X147000000Y-96940000D03*
%TO.P,J3,24,Pin_24*%
%TO.N,/VA1*%
X144460000Y-96940000D03*
%TO.P,J3,25,Pin_25*%
%TO.N,/In0*%
X147000000Y-99480000D03*
%TO.P,J3,26,Pin_26*%
%TO.N,/In1*%
X144460000Y-99480000D03*
%TO.P,J3,27,Pin_27*%
%TO.N,/In2*%
X147000000Y-102020000D03*
%TO.P,J3,28,Pin_28*%
%TO.N,/DE*%
X144460000Y-102020000D03*
%TO.P,J3,29,Pin_29*%
%TO.N,/HS*%
X147000000Y-104560000D03*
%TO.P,J3,30,Pin_30*%
%TO.N,/CRSR*%
X144460000Y-104560000D03*
%TO.P,J3,31,Pin_31*%
%TO.N,/VS*%
X147000000Y-107100000D03*
%TO.P,J3,32,Pin_32*%
%TO.N,/~{RP}*%
X144460000Y-107100000D03*
%TO.P,J3,33,Pin_33*%
%TO.N,GND*%
X147000000Y-109640000D03*
%TO.P,J3,34,Pin_34*%
X144460000Y-109640000D03*
%TD*%
D10*
%TO.P,J1,1,Pin_1*%
%TO.N,GND*%
X53000000Y-109640000D03*
D11*
%TO.P,J1,2,Pin_2*%
X55540000Y-109640000D03*
%TO.P,J1,3,Pin_3*%
%TO.N,/D1*%
X53000000Y-107100000D03*
%TO.P,J1,4,Pin_4*%
%TO.N,/D0*%
X55540000Y-107100000D03*
%TO.P,J1,5,Pin_5*%
%TO.N,/D3*%
X53000000Y-104560000D03*
%TO.P,J1,6,Pin_6*%
%TO.N,/D2*%
X55540000Y-104560000D03*
%TO.P,J1,7,Pin_7*%
%TO.N,/D5*%
X53000000Y-102020000D03*
%TO.P,J1,8,Pin_8*%
%TO.N,/D4*%
X55540000Y-102020000D03*
%TO.P,J1,9,Pin_9*%
%TO.N,/D7*%
X53000000Y-99480000D03*
%TO.P,J1,10,Pin_10*%
%TO.N,/D6*%
X55540000Y-99480000D03*
%TO.P,J1,11,Pin_11*%
%TO.N,/Out1*%
X53000000Y-96940000D03*
%TO.P,J1,12,Pin_12*%
%TO.N,/Out0*%
X55540000Y-96940000D03*
%TO.P,J1,13,Pin_13*%
%TO.N,/Out3*%
X53000000Y-94400000D03*
%TO.P,J1,14,Pin_14*%
%TO.N,/Out2*%
X55540000Y-94400000D03*
%TO.P,J1,15,Pin_15*%
%TO.N,/Out5*%
X53000000Y-91860000D03*
%TO.P,J1,16,Pin_16*%
%TO.N,/Out4*%
X55540000Y-91860000D03*
%TO.P,J1,17,Pin_17*%
%TO.N,/Out7*%
X53000000Y-89320000D03*
%TO.P,J1,18,Pin_18*%
%TO.N,/Out6*%
X55540000Y-89320000D03*
%TO.P,J1,19,Pin_19*%
%TO.N,/~{CS}*%
X53000000Y-86780000D03*
%TO.P,J1,20,Pin_20*%
%TO.N,/VCLK*%
X55540000Y-86780000D03*
%TO.P,J1,21,Pin_21*%
%TO.N,/A1#*%
X53000000Y-84240000D03*
%TO.P,J1,22,Pin_22*%
%TO.N,/R{slash}~{W}*%
X55540000Y-84240000D03*
%TO.P,J1,23,Pin_23*%
%TO.N,/~{RD}*%
X53000000Y-81700000D03*
%TO.P,J1,24,Pin_24*%
%TO.N,/A0#*%
X55540000Y-81700000D03*
%TO.P,J1,25,Pin_25*%
%TO.N,/~{RST}*%
X53000000Y-79160000D03*
%TO.P,J1,26,Pin_26*%
%TO.N,/~{WR}*%
X55540000Y-79160000D03*
%TO.P,J1,27,Pin_27*%
%TO.N,/CH0*%
X53000000Y-76620000D03*
%TO.P,J1,28,Pin_28*%
%TO.N,/PHI2*%
X55540000Y-76620000D03*
%TO.P,J1,29,Pin_29*%
%TO.N,/Y*%
X53000000Y-74080000D03*
%TO.P,J1,30,Pin_30*%
%TO.N,/A*%
X55540000Y-74080000D03*
%TO.P,J1,31,Pin_31*%
%TO.N,/B*%
X53000000Y-71540000D03*
%TO.P,J1,32,Pin_32*%
%TO.N,/~{INT}*%
X55540000Y-71540000D03*
%TO.P,J1,33,Pin_33*%
%TO.N,+5V*%
X53000000Y-69000000D03*
%TO.P,J1,34,Pin_34*%
X55540000Y-69000000D03*
%TD*%
D13*
%TO.P,U4,1,CLK*%
%TO.N,/VCLK*%
X121412000Y-96012000D03*
D14*
%TO.P,U4,2,DAD5*%
%TO.N,/VA5*%
X118872000Y-96012000D03*
%TO.P,U4,3,DAD4*%
%TO.N,/VA4*%
X116332000Y-96012000D03*
%TO.P,U4,4,DAD3*%
%TO.N,/VA3*%
X113792000Y-96012000D03*
%TO.P,U4,5,DAD6*%
%TO.N,/VA6*%
X111252000Y-96012000D03*
%TO.P,U4,6,MSL0*%
%TO.N,/VA7*%
X108712000Y-96012000D03*
%TO.P,U4,7,MSL2*%
%TO.N,/VA9*%
X106172000Y-96012000D03*
%TO.P,U4,8,FMAT*%
%TO.N,Net-(JP1-C)*%
X103632000Y-96012000D03*
%TO.P,U4,9,A0*%
%TO.N,/A0#*%
X101092000Y-96012000D03*
%TO.P,U4,10,A1*%
%TO.N,/A1#*%
X98552000Y-96012000D03*
%TO.P,U4,11,A2*%
%TO.N,/Out0*%
X96012000Y-96012000D03*
%TO.P,U4,12,A3*%
%TO.N,/Out1*%
X93472000Y-96012000D03*
%TO.P,U4,13,~{IRQ}*%
%TO.N,/~{INT}*%
X90932000Y-96012000D03*
%TO.P,U4,14,~{DW}*%
%TO.N,/VA16*%
X88392000Y-96012000D03*
%TO.P,U4,15,Din*%
%TO.N,/VA15*%
X85852000Y-96012000D03*
%TO.P,U4,16,VB*%
%TO.N,/VA14*%
X83312000Y-96012000D03*
%TO.P,U4,17,~{E}*%
%TO.N,/~{CS}*%
X80772000Y-96012000D03*
%TO.P,U4,18,R~{W}*%
%TO.N,/R{slash}~{W}*%
X78232000Y-96012000D03*
%TO.P,U4,19,MFREE/X9*%
%TO.N,/VA18*%
X75692000Y-96012000D03*
%TO.P,U4,20,GND*%
%TO.N,GND*%
X73152000Y-96012000D03*
%TO.P,U4,21,LPCK*%
%TO.N,unconnected-(U4-LPCK-Pad21)*%
X73152000Y-80772000D03*
%TO.P,U4,22,~{ALL}*%
%TO.N,/VA11*%
X75692000Y-80772000D03*
%TO.P,U4,23,WO*%
%TO.N,Net-(JP2-C)*%
X78232000Y-80772000D03*
%TO.P,U4,24,~{WHITE}*%
%TO.N,/VA17*%
X80772000Y-80772000D03*
%TO.P,U4,25,BLK*%
%TO.N,/VA13*%
X83312000Y-80772000D03*
%TO.P,U4,26,D7*%
%TO.N,/D7*%
X85852000Y-80772000D03*
%TO.P,U4,27,D6*%
%TO.N,/D6*%
X88392000Y-80772000D03*
%TO.P,U4,28,D5*%
%TO.N,/D5*%
X90932000Y-80772000D03*
%TO.P,U4,29,D4*%
%TO.N,/D4*%
X93472000Y-80772000D03*
%TO.P,U4,30,D3*%
%TO.N,/D3*%
X96012000Y-80772000D03*
%TO.P,U4,31,D2*%
%TO.N,/D2*%
X98552000Y-80772000D03*
%TO.P,U4,32,D1*%
%TO.N,/D1*%
X101092000Y-80772000D03*
%TO.P,U4,33,D0*%
%TO.N,/D0*%
X103632000Y-80772000D03*
%TO.P,U4,34,SYNC*%
%TO.N,/VA12*%
X106172000Y-80772000D03*
%TO.P,U4,35,MSL3*%
%TO.N,/VA10*%
X108712000Y-80772000D03*
%TO.P,U4,36,MSL1*%
%TO.N,/VA8*%
X111252000Y-80772000D03*
%TO.P,U4,37,DAD0*%
%TO.N,/VA0*%
X113792000Y-80772000D03*
%TO.P,U4,38,DAD2*%
%TO.N,/VA2*%
X116332000Y-80772000D03*
%TO.P,U4,39,DAD1*%
%TO.N,/VA1*%
X118872000Y-80772000D03*
%TO.P,U4,40,VCC*%
%TO.N,+5V*%
X121412000Y-80772000D03*
%TD*%
D15*
%TO.N,/~{INT}*%
X71374000Y-70866000D03*
%TO.N,GND*%
X58420000Y-91948000D03*
X58674000Y-80264000D03*
X59182000Y-73406000D03*
X68580000Y-78232000D03*
X68326000Y-87122000D03*
X85852000Y-83058000D03*
X80518000Y-86360000D03*
X78740000Y-83312000D03*
X76962000Y-87122000D03*
X103632000Y-89916000D03*
X108966000Y-90170000D03*
X119634000Y-90424000D03*
X128016000Y-90932000D03*
X138684000Y-90424000D03*
%TO.N,/VA17*%
X81026005Y-84328005D03*
%TO.N,/VA12*%
X106172000Y-86360000D03*
%TO.N,/VA13*%
X83820000Y-86867998D03*
%TO.N,/VA10*%
X108966000Y-87629996D03*
%TO.N,/VA2*%
X115062003Y-98043989D03*
%TO.N,/VA0*%
X112649000Y-100457000D03*
%TO.N,/VA1*%
X117602000Y-99822000D03*
%TO.N,/VA11*%
X76454018Y-84074000D03*
%TO.N,/VA8*%
X111252000Y-89154000D03*
%TO.N,/D7*%
X60863977Y-75865225D03*
%TO.N,/D6*%
X61276074Y-75121800D03*
%TO.N,/D5*%
X61877382Y-74521023D03*
%TO.N,/D4*%
X62477573Y-73919130D03*
%TO.N,/D3*%
X63081306Y-73320790D03*
%TO.N,/D2*%
X63674061Y-72711573D03*
%TO.N,/D1*%
X64296339Y-72132544D03*
%TO.N,/D0*%
X64881469Y-71516000D03*
%TO.N,/VA18*%
X74930000Y-84074000D03*
%TO.N,GND*%
X66294000Y-69974000D03*
X72898000Y-99822000D03*
%TO.N,/R{slash}~{W}*%
X78232000Y-90424000D03*
%TO.N,/~{CS}*%
X80772000Y-92090000D03*
%TO.N,/VA14*%
X82804000Y-85598000D03*
%TO.N,/VA15*%
X85852000Y-86106000D03*
%TO.N,/VA16*%
X88392000Y-83566000D03*
%TO.N,/~{INT}*%
X89663361Y-70724000D03*
%TO.N,/Out1*%
X93472000Y-98806000D03*
%TO.N,/Out0*%
X96012000Y-98044000D03*
%TO.N,/A1#*%
X98552000Y-89662000D03*
%TO.N,/A0#*%
X101092000Y-89154000D03*
%TO.N,/VA9*%
X106172000Y-92964000D03*
%TO.N,/VA6*%
X111252000Y-92852000D03*
%TO.N,/VCLK*%
X121412008Y-91186000D03*
%TO.N,GND*%
X114554000Y-107696000D03*
X68580000Y-96520000D03*
X107950000Y-71374000D03*
X102870000Y-76962000D03*
X75438000Y-110236000D03*
X127254000Y-70612000D03*
X139192000Y-103886000D03*
X139954000Y-108712000D03*
X97536000Y-71120000D03*
X91948000Y-110236000D03*
X138684000Y-70358000D03*
%TO.N,+5V*%
X81788000Y-93980000D03*
X105072000Y-93980000D03*
X80771996Y-69000000D03*
%TD*%
D16*
%TO.N,+5V*%
X77470000Y-69850000D02*
X79921996Y-69850000D01*
X79921996Y-69850000D02*
X80771996Y-69000000D01*
%TO.N,/~{INT}*%
X74370000Y-69850000D02*
X72390000Y-69850000D01*
X72390000Y-69850000D02*
X71374000Y-70866000D01*
X69145000Y-83571000D02*
X69145000Y-83223365D01*
X69145000Y-83223365D02*
X71374000Y-80994365D01*
X71374000Y-80994365D02*
X71374000Y-70866000D01*
D17*
%TO.N,GND*%
X66294000Y-101004000D02*
X66294000Y-80518000D01*
X66294000Y-80518000D02*
X66294000Y-69974000D01*
X69145000Y-81031000D02*
X66807000Y-81031000D01*
X66807000Y-81031000D02*
X66294000Y-80518000D01*
D16*
%TO.N,/VA14*%
X82804000Y-95504000D02*
X82804000Y-85598000D01*
X83312000Y-96012000D02*
X82804000Y-95504000D01*
%TO.N,/VA15*%
X85852000Y-96012000D02*
X85852000Y-86106000D01*
%TO.N,/VA17*%
X80772000Y-84074000D02*
X81026005Y-84328005D01*
X80772000Y-80772000D02*
X80772000Y-84074000D01*
%TO.N,/VA12*%
X106172000Y-86360000D02*
X106172000Y-80772000D01*
%TO.N,/VA13*%
X83820000Y-81280000D02*
X83820000Y-86867998D01*
X83312000Y-80772000D02*
X83820000Y-81280000D01*
%TO.N,/VA8*%
X111252000Y-80772000D02*
X111252000Y-89154000D01*
%TO.N,/VA10*%
X108712000Y-80772000D02*
X108712000Y-87375996D01*
X108712000Y-87375996D02*
X108966000Y-87629996D01*
%TO.N,/VA16*%
X88392000Y-96012000D02*
X88392000Y-83566000D01*
%TO.N,+5V*%
X82041999Y-93726001D02*
X81788000Y-93980000D01*
X82041999Y-78231999D02*
X82041999Y-93726001D01*
X80772000Y-76962000D02*
X82041999Y-78231999D01*
%TO.N,/VA0*%
X112649000Y-81915000D02*
X112649000Y-100457000D01*
X113792000Y-80772000D02*
X112649000Y-81915000D01*
%TO.N,/VA1*%
X117602000Y-82042000D02*
X117602000Y-99822000D01*
X118872000Y-80772000D02*
X117602000Y-82042000D01*
%TO.N,/VA2*%
X115062003Y-82041997D02*
X115062003Y-98043989D01*
X116332000Y-80772000D02*
X115062003Y-82041997D01*
%TO.N,/A0#*%
X101092000Y-96012000D02*
X101092000Y-89154000D01*
%TO.N,/A1#*%
X98552000Y-90170000D02*
X98552000Y-89662000D01*
X98552000Y-96012000D02*
X98552000Y-90170000D01*
%TO.N,/R{slash}~{W}*%
X78232000Y-96012000D02*
X78232000Y-90424000D01*
%TO.N,/~{CS}*%
X80772000Y-96012000D02*
X80772000Y-92090000D01*
%TO.N,+5V*%
X106172000Y-99822000D02*
X105072000Y-98722000D01*
X105072000Y-98722000D02*
X105072000Y-93980000D01*
%TO.N,/VA11*%
X75692000Y-83311982D02*
X76454018Y-84074000D01*
X75692000Y-80772000D02*
X75692000Y-83311982D01*
%TO.N,/VA18*%
X75692000Y-84836000D02*
X74930000Y-84074000D01*
X75692000Y-96012000D02*
X75692000Y-84836000D01*
%TO.N,/VCLK*%
X121412000Y-96012000D02*
X121412000Y-91186008D01*
X121412000Y-91186008D02*
X121412008Y-91186000D01*
%TO.N,/VA6*%
X111252000Y-96012000D02*
X111252000Y-92852000D01*
%TO.N,/VA9*%
X106172000Y-96012000D02*
X106172000Y-92964000D01*
%TO.N,/D1*%
X53000000Y-107100000D02*
X54150000Y-105950000D01*
X54150000Y-105950000D02*
X55776346Y-105950000D01*
X55776346Y-105950000D02*
X64516000Y-97210346D01*
X64516000Y-97210346D02*
X64516000Y-72352205D01*
X64516000Y-72352205D02*
X64296339Y-72132544D01*
%TO.N,/D0*%
X65170000Y-71804531D02*
X64881469Y-71516000D01*
X65170000Y-97470000D02*
X65170000Y-71804531D01*
X55540000Y-107100000D02*
X65170000Y-97470000D01*
%TO.N,/D2*%
X55540000Y-104560000D02*
X64008000Y-96092000D01*
X64008000Y-96092000D02*
X64008000Y-73045512D01*
X64008000Y-73045512D02*
X63674061Y-72711573D01*
%TO.N,/D4*%
X55540000Y-102020000D02*
X62738000Y-94822000D01*
X62738000Y-94822000D02*
X62738000Y-74179557D01*
X62738000Y-74179557D02*
X62477573Y-73919130D01*
%TO.N,/D6*%
X55540000Y-99480000D02*
X61468000Y-93552000D01*
X61468000Y-93552000D02*
X61468000Y-75313726D01*
X61468000Y-75313726D02*
X61276074Y-75121800D01*
%TO.N,/D7*%
X60863977Y-93242369D02*
X60863977Y-75865225D01*
%TO.N,/D5*%
X56016346Y-100870000D02*
X62118000Y-94768346D01*
X62118000Y-94768346D02*
X62118000Y-74761641D01*
X62118000Y-74761641D02*
X61877382Y-74521023D01*
%TO.N,/D7*%
X54182000Y-98298000D02*
X55808346Y-98298000D01*
X53000000Y-99480000D02*
X54182000Y-98298000D01*
X55808346Y-98298000D02*
X60863977Y-93242369D01*
%TO.N,/D5*%
X54150000Y-100870000D02*
X56016346Y-100870000D01*
X53000000Y-102020000D02*
X54150000Y-100870000D01*
%TO.N,/D3*%
X63320086Y-73559570D02*
X63081306Y-73320790D01*
X53000000Y-104560000D02*
X54150000Y-103410000D01*
X56016346Y-103410000D02*
X63320086Y-96106260D01*
X54150000Y-103410000D02*
X56016346Y-103410000D01*
X63320086Y-96106260D02*
X63320086Y-73559570D01*
D17*
%TO.N,GND*%
X57658000Y-109640000D02*
X66294000Y-101004000D01*
D16*
%TO.N,/~{INT}*%
X90932000Y-96012000D02*
X89663361Y-94743361D01*
X89663361Y-94743361D02*
X89663361Y-70724000D01*
%TO.N,+5V*%
X80772000Y-76962000D02*
X80772000Y-69000004D01*
X80772000Y-69000004D02*
X80771996Y-69000000D01*
D17*
%TO.N,GND*%
X57658000Y-109640000D02*
X55540000Y-109640000D01*
X61860000Y-109640000D02*
X57658000Y-109640000D01*
D16*
X71882000Y-99822000D02*
X71780000Y-99720000D01*
X72898000Y-99822000D02*
X71882000Y-99822000D01*
D17*
X73152000Y-98348000D02*
X71780000Y-99720000D01*
X71780000Y-99720000D02*
X70256000Y-101244000D01*
D16*
%TO.N,/Out1*%
X93472000Y-96012000D02*
X93472000Y-98806000D01*
%TO.N,/Out0*%
X96012000Y-96012000D02*
X96012000Y-98044000D01*
%TO.N,Net-(JP1-C)*%
X103632000Y-99822000D02*
X103632000Y-96012000D01*
%TO.N,Net-(JP2-C)*%
X78232000Y-76962000D02*
X78232000Y-80772000D01*
%TO.N,GND*%
X75692000Y-76962000D02*
X74252000Y-78402000D01*
X74252000Y-78402000D02*
X74252000Y-94912000D01*
X74252000Y-94912000D02*
X73152000Y-96012000D01*
D17*
X70256000Y-101244000D02*
X61860000Y-109640000D01*
X73152000Y-96012000D02*
X73152000Y-98348000D01*
%TD*%
%TA.AperFunction,Conductor*%
%TO.N,GND*%
G36*
X55074075Y-109447007D02*
G01*
X55040000Y-109574174D01*
X55040000Y-109705826D01*
X55074075Y-109832993D01*
X55106988Y-109890000D01*
X53433012Y-109890000D01*
X53465925Y-109832993D01*
X53500000Y-109705826D01*
X53500000Y-109574174D01*
X53465925Y-109447007D01*
X53433012Y-109390000D01*
X55106988Y-109390000D01*
X55074075Y-109447007D01*
G37*
%TD.AperFunction*%
%TA.AperFunction,Conductor*%
G36*
X146534075Y-109447007D02*
G01*
X146500000Y-109574174D01*
X146500000Y-109705826D01*
X146534075Y-109832993D01*
X146566988Y-109890000D01*
X144893012Y-109890000D01*
X144925925Y-109832993D01*
X144960000Y-109705826D01*
X144960000Y-109574174D01*
X144925925Y-109447007D01*
X144893012Y-109390000D01*
X146566988Y-109390000D01*
X146534075Y-109447007D01*
G37*
%TD.AperFunction*%
%TA.AperFunction,Conductor*%
G36*
X79569865Y-81315348D02*
G01*
X79614382Y-81366725D01*
X79641429Y-81424728D01*
X79641432Y-81424734D01*
X79771954Y-81611141D01*
X79932858Y-81772045D01*
X79932861Y-81772047D01*
X80118624Y-81902118D01*
X80162248Y-81956693D01*
X80171500Y-82003692D01*
X80171500Y-83987330D01*
X80171499Y-83987348D01*
X80171499Y-84153054D01*
X80171498Y-84153054D01*
X80212424Y-84305789D01*
X80213296Y-84307893D01*
X80221955Y-84341461D01*
X80240635Y-84507255D01*
X80240636Y-84507259D01*
X80300216Y-84677528D01*
X80377038Y-84799788D01*
X80396189Y-84830267D01*
X80523743Y-84957821D01*
X80676483Y-85053794D01*
X80765285Y-85084867D01*
X80846750Y-85113373D01*
X80846755Y-85113374D01*
X81026001Y-85133570D01*
X81026005Y-85133570D01*
X81026009Y-85133570D01*
X81205254Y-85113374D01*
X81205256Y-85113373D01*
X81205260Y-85113373D01*
X81205263Y-85113371D01*
X81205267Y-85113371D01*
X81276544Y-85088430D01*
X81346322Y-85084867D01*
X81406950Y-85119596D01*
X81439177Y-85181589D01*
X81441499Y-85205471D01*
X81441499Y-91340904D01*
X81421814Y-91407943D01*
X81369010Y-91453698D01*
X81299852Y-91463642D01*
X81251527Y-91445898D01*
X81121523Y-91364211D01*
X80951254Y-91304631D01*
X80951249Y-91304630D01*
X80772004Y-91284435D01*
X80771996Y-91284435D01*
X80592750Y-91304630D01*
X80592745Y-91304631D01*
X80422476Y-91364211D01*
X80269737Y-91460184D01*
X80142184Y-91587737D01*
X80046211Y-91740476D01*
X79986631Y-91910745D01*
X79986630Y-91910750D01*
X79966435Y-92089996D01*
X79966435Y-92090003D01*
X79986630Y-92269249D01*
X79986631Y-92269254D01*
X80046211Y-92439523D01*
X80142185Y-92592263D01*
X80144445Y-92595097D01*
X80145334Y-92597275D01*
X80145889Y-92598158D01*
X80145734Y-92598255D01*
X80170855Y-92659783D01*
X80171500Y-92672412D01*
X80171500Y-94780306D01*
X80151815Y-94847345D01*
X80118623Y-94881881D01*
X79932859Y-95011953D01*
X79771954Y-95172858D01*
X79641432Y-95359265D01*
X79641431Y-95359267D01*
X79614382Y-95417275D01*
X79568209Y-95469714D01*
X79501016Y-95488866D01*
X79434135Y-95468650D01*
X79389618Y-95417275D01*
X79362686Y-95359520D01*
X79362568Y-95359266D01*
X79232047Y-95172861D01*
X79232045Y-95172858D01*
X79071140Y-95011953D01*
X78885377Y-94881881D01*
X78841752Y-94827304D01*
X78832500Y-94780306D01*
X78832500Y-91006412D01*
X78852185Y-90939373D01*
X78859555Y-90929097D01*
X78861810Y-90926267D01*
X78861816Y-90926262D01*
X78957789Y-90773522D01*
X79017368Y-90603255D01*
X79017369Y-90603249D01*
X79037565Y-90424003D01*
X79037565Y-90423996D01*
X79017369Y-90244750D01*
X79017368Y-90244745D01*
X78998700Y-90191395D01*
X78957789Y-90074478D01*
X78861816Y-89921738D01*
X78734262Y-89794184D01*
X78725916Y-89788940D01*
X78581523Y-89698211D01*
X78411254Y-89638631D01*
X78411249Y-89638630D01*
X78232004Y-89618435D01*
X78231996Y-89618435D01*
X78052750Y-89638630D01*
X78052745Y-89638631D01*
X77882476Y-89698211D01*
X77729737Y-89794184D01*
X77602184Y-89921737D01*
X77506211Y-90074476D01*
X77446631Y-90244745D01*
X77446630Y-90244750D01*
X77426435Y-90423996D01*
X77426435Y-90424003D01*
X77446630Y-90603249D01*
X77446631Y-90603254D01*
X77506211Y-90773523D01*
X77602185Y-90926263D01*
X77604445Y-90929097D01*
X77605334Y-90931275D01*
X77605889Y-90932158D01*
X77605734Y-90932255D01*
X77630855Y-90993783D01*
X77631500Y-91006412D01*
X77631500Y-94780306D01*
X77611815Y-94847345D01*
X77578623Y-94881881D01*
X77392859Y-95011953D01*
X77231954Y-95172858D01*
X77101432Y-95359265D01*
X77101431Y-95359267D01*
X77074382Y-95417275D01*
X77028209Y-95469714D01*
X76961016Y-95488866D01*
X76894135Y-95468650D01*
X76849618Y-95417275D01*
X76822686Y-95359520D01*
X76822568Y-95359266D01*
X76692047Y-95172861D01*
X76692045Y-95172858D01*
X76531140Y-95011953D01*
X76345377Y-94881881D01*
X76301752Y-94827304D01*
X76292500Y-94780306D01*
X76292500Y-85000122D01*
X76312185Y-84933083D01*
X76364989Y-84887328D01*
X76430384Y-84876902D01*
X76443528Y-84878383D01*
X76454017Y-84879565D01*
X76454018Y-84879565D01*
X76454022Y-84879565D01*
X76633267Y-84859369D01*
X76633270Y-84859368D01*
X76633273Y-84859368D01*
X76803540Y-84799789D01*
X76956280Y-84703816D01*
X77083834Y-84576262D01*
X77179807Y-84423522D01*
X77239386Y-84253255D01*
X77239387Y-84253249D01*
X77259583Y-84074003D01*
X77259583Y-84073996D01*
X77239387Y-83894750D01*
X77239386Y-83894745D01*
X77179807Y-83724478D01*
X77083834Y-83571738D01*
X76956280Y-83444184D01*
X76803539Y-83348210D01*
X76633267Y-83288630D01*
X76546348Y-83278837D01*
X76481934Y-83251770D01*
X76472551Y-83243298D01*
X76328819Y-83099566D01*
X76295334Y-83038243D01*
X76292500Y-83011885D01*
X76292500Y-82003692D01*
X76312185Y-81936653D01*
X76345374Y-81902119D01*
X76531139Y-81772047D01*
X76692047Y-81611139D01*
X76822568Y-81424734D01*
X76849618Y-81366724D01*
X76895790Y-81314285D01*
X76962983Y-81295133D01*
X77029865Y-81315348D01*
X77074382Y-81366725D01*
X77101429Y-81424728D01*
X77101432Y-81424734D01*
X77231954Y-81611141D01*
X77392858Y-81772045D01*
X77392861Y-81772047D01*
X77579266Y-81902568D01*
X77785504Y-81998739D01*
X78005308Y-82057635D01*
X78167230Y-82071801D01*
X78231998Y-82077468D01*
X78232000Y-82077468D01*
X78232002Y-82077468D01*
X78288673Y-82072509D01*
X78458692Y-82057635D01*
X78678496Y-81998739D01*
X78884734Y-81902568D01*
X79071139Y-81772047D01*
X79232047Y-81611139D01*
X79362568Y-81424734D01*
X79389618Y-81366724D01*
X79435790Y-81314285D01*
X79502983Y-81295133D01*
X79569865Y-81315348D01*
G37*
%TD.AperFunction*%
%TA.AperFunction,Conductor*%
G36*
X87189865Y-81315348D02*
G01*
X87234382Y-81366725D01*
X87261429Y-81424728D01*
X87261432Y-81424734D01*
X87391954Y-81611141D01*
X87552858Y-81772045D01*
X87552861Y-81772047D01*
X87739266Y-81902568D01*
X87945504Y-81998739D01*
X88165308Y-82057635D01*
X88327230Y-82071801D01*
X88391998Y-82077468D01*
X88392000Y-82077468D01*
X88392002Y-82077468D01*
X88448673Y-82072509D01*
X88618692Y-82057635D01*
X88838496Y-81998739D01*
X88886458Y-81976373D01*
X88955532Y-81965882D01*
X89019317Y-81994401D01*
X89057557Y-82052877D01*
X89062861Y-82088756D01*
X89062861Y-82817760D01*
X89043176Y-82884799D01*
X88990372Y-82930554D01*
X88921214Y-82940498D01*
X88872889Y-82922754D01*
X88741523Y-82840211D01*
X88571254Y-82780631D01*
X88571249Y-82780630D01*
X88392004Y-82760435D01*
X88391996Y-82760435D01*
X88212750Y-82780630D01*
X88212745Y-82780631D01*
X88042476Y-82840211D01*
X87889737Y-82936184D01*
X87762184Y-83063737D01*
X87666211Y-83216476D01*
X87606631Y-83386745D01*
X87606630Y-83386750D01*
X87586435Y-83565996D01*
X87586435Y-83566003D01*
X87606630Y-83745249D01*
X87606631Y-83745254D01*
X87666211Y-83915523D01*
X87762185Y-84068263D01*
X87764445Y-84071097D01*
X87765334Y-84073275D01*
X87765889Y-84074158D01*
X87765734Y-84074255D01*
X87790855Y-84135783D01*
X87791500Y-84148412D01*
X87791500Y-94780306D01*
X87771815Y-94847345D01*
X87738623Y-94881881D01*
X87552859Y-95011953D01*
X87391954Y-95172858D01*
X87261432Y-95359265D01*
X87261431Y-95359267D01*
X87234382Y-95417275D01*
X87188209Y-95469714D01*
X87121016Y-95488866D01*
X87054135Y-95468650D01*
X87009618Y-95417275D01*
X86982686Y-95359520D01*
X86982568Y-95359266D01*
X86852047Y-95172861D01*
X86852045Y-95172858D01*
X86691140Y-95011953D01*
X86505377Y-94881881D01*
X86461752Y-94827304D01*
X86452500Y-94780306D01*
X86452500Y-86688412D01*
X86472185Y-86621373D01*
X86479555Y-86611097D01*
X86481810Y-86608267D01*
X86481816Y-86608262D01*
X86577789Y-86455522D01*
X86637368Y-86285255D01*
X86649143Y-86180750D01*
X86657565Y-86106003D01*
X86657565Y-86105996D01*
X86637369Y-85926750D01*
X86637368Y-85926745D01*
X86577788Y-85756476D01*
X86481815Y-85603737D01*
X86354262Y-85476184D01*
X86201523Y-85380211D01*
X86031254Y-85320631D01*
X86031249Y-85320630D01*
X85852004Y-85300435D01*
X85851996Y-85300435D01*
X85672750Y-85320630D01*
X85672745Y-85320631D01*
X85502476Y-85380211D01*
X85349737Y-85476184D01*
X85222184Y-85603737D01*
X85126211Y-85756476D01*
X85066631Y-85926745D01*
X85066630Y-85926750D01*
X85046435Y-86105996D01*
X85046435Y-86106003D01*
X85066630Y-86285249D01*
X85066631Y-86285254D01*
X85126211Y-86455523D01*
X85222185Y-86608263D01*
X85224445Y-86611097D01*
X85225334Y-86613275D01*
X85225889Y-86614158D01*
X85225734Y-86614255D01*
X85250855Y-86675783D01*
X85251500Y-86688412D01*
X85251500Y-94780306D01*
X85231815Y-94847345D01*
X85198623Y-94881881D01*
X85012859Y-95011953D01*
X84851954Y-95172858D01*
X84721432Y-95359265D01*
X84721431Y-95359267D01*
X84694382Y-95417275D01*
X84648209Y-95469714D01*
X84581016Y-95488866D01*
X84514135Y-95468650D01*
X84469618Y-95417275D01*
X84442686Y-95359520D01*
X84442568Y-95359266D01*
X84312047Y-95172861D01*
X84312045Y-95172858D01*
X84151141Y-95011954D01*
X83964734Y-94881432D01*
X83964732Y-94881431D01*
X83758497Y-94785261D01*
X83758488Y-94785258D01*
X83538697Y-94726366D01*
X83538694Y-94726365D01*
X83538692Y-94726365D01*
X83528437Y-94725467D01*
X83517688Y-94724527D01*
X83452621Y-94699072D01*
X83411644Y-94642480D01*
X83404500Y-94600999D01*
X83404500Y-87745462D01*
X83424185Y-87678423D01*
X83476989Y-87632668D01*
X83546147Y-87622724D01*
X83569455Y-87628421D01*
X83640737Y-87653364D01*
X83640743Y-87653365D01*
X83640745Y-87653366D01*
X83640746Y-87653366D01*
X83640750Y-87653367D01*
X83819996Y-87673563D01*
X83820000Y-87673563D01*
X83820004Y-87673563D01*
X83999249Y-87653367D01*
X83999252Y-87653366D01*
X83999255Y-87653366D01*
X84169522Y-87593787D01*
X84322262Y-87497814D01*
X84449816Y-87370260D01*
X84545789Y-87217520D01*
X84605368Y-87047253D01*
X84605369Y-87047247D01*
X84625565Y-86868001D01*
X84625565Y-86867994D01*
X84605369Y-86688748D01*
X84605368Y-86688743D01*
X84581794Y-86621373D01*
X84545789Y-86518476D01*
X84449816Y-86365736D01*
X84449814Y-86365734D01*
X84449813Y-86365732D01*
X84447550Y-86362894D01*
X84446659Y-86360713D01*
X84446111Y-86359840D01*
X84446264Y-86359743D01*
X84421144Y-86298207D01*
X84420500Y-86285585D01*
X84420500Y-81495347D01*
X84440185Y-81428308D01*
X84442475Y-81424893D01*
X84442562Y-81424741D01*
X84442568Y-81424734D01*
X84469618Y-81366726D01*
X84515790Y-81314286D01*
X84582983Y-81295134D01*
X84649865Y-81315349D01*
X84694382Y-81366725D01*
X84721431Y-81424732D01*
X84721432Y-81424734D01*
X84851954Y-81611141D01*
X85012858Y-81772045D01*
X85012861Y-81772047D01*
X85199266Y-81902568D01*
X85405504Y-81998739D01*
X85625308Y-82057635D01*
X85787230Y-82071801D01*
X85851998Y-82077468D01*
X85852000Y-82077468D01*
X85852002Y-82077468D01*
X85908673Y-82072509D01*
X86078692Y-82057635D01*
X86298496Y-81998739D01*
X86504734Y-81902568D01*
X86691139Y-81772047D01*
X86852047Y-81611139D01*
X86982568Y-81424734D01*
X87009618Y-81366724D01*
X87055790Y-81314285D01*
X87122983Y-81295133D01*
X87189865Y-81315348D01*
G37*
%TD.AperFunction*%
%TA.AperFunction,Conductor*%
G36*
X110049865Y-81315348D02*
G01*
X110094382Y-81366725D01*
X110121429Y-81424728D01*
X110121432Y-81424734D01*
X110251954Y-81611141D01*
X110412858Y-81772045D01*
X110412861Y-81772047D01*
X110598624Y-81902118D01*
X110642248Y-81956693D01*
X110651500Y-82003692D01*
X110651500Y-88571587D01*
X110631815Y-88638626D01*
X110624450Y-88648896D01*
X110622186Y-88651734D01*
X110526211Y-88804476D01*
X110466631Y-88974745D01*
X110466630Y-88974750D01*
X110446435Y-89153996D01*
X110446435Y-89154003D01*
X110466630Y-89333249D01*
X110466631Y-89333254D01*
X110526211Y-89503523D01*
X110558810Y-89555403D01*
X110622184Y-89656262D01*
X110749738Y-89783816D01*
X110902478Y-89879789D01*
X111072745Y-89939368D01*
X111072750Y-89939369D01*
X111251996Y-89959565D01*
X111252000Y-89959565D01*
X111252004Y-89959565D01*
X111431249Y-89939369D01*
X111431252Y-89939368D01*
X111431255Y-89939368D01*
X111601522Y-89879789D01*
X111754262Y-89783816D01*
X111836819Y-89701259D01*
X111898142Y-89667774D01*
X111967834Y-89672758D01*
X112023767Y-89714630D01*
X112048184Y-89780094D01*
X112048500Y-89788940D01*
X112048500Y-92217060D01*
X112028815Y-92284099D01*
X111976011Y-92329854D01*
X111906853Y-92339798D01*
X111843297Y-92310773D01*
X111836819Y-92304741D01*
X111754262Y-92222184D01*
X111601523Y-92126211D01*
X111431254Y-92066631D01*
X111431249Y-92066630D01*
X111252004Y-92046435D01*
X111251996Y-92046435D01*
X111072750Y-92066630D01*
X111072745Y-92066631D01*
X110902476Y-92126211D01*
X110749737Y-92222184D01*
X110622184Y-92349737D01*
X110526211Y-92502476D01*
X110466631Y-92672745D01*
X110466630Y-92672750D01*
X110446435Y-92851996D01*
X110446435Y-92852003D01*
X110466630Y-93031249D01*
X110466631Y-93031254D01*
X110526211Y-93201523D01*
X110622185Y-93354263D01*
X110624445Y-93357097D01*
X110625334Y-93359275D01*
X110625889Y-93360158D01*
X110625734Y-93360255D01*
X110650855Y-93421783D01*
X110651500Y-93434412D01*
X110651500Y-94780306D01*
X110631815Y-94847345D01*
X110598623Y-94881881D01*
X110412859Y-95011953D01*
X110251954Y-95172858D01*
X110121432Y-95359265D01*
X110121431Y-95359267D01*
X110094382Y-95417275D01*
X110048209Y-95469714D01*
X109981016Y-95488866D01*
X109914135Y-95468650D01*
X109869618Y-95417275D01*
X109842686Y-95359520D01*
X109842568Y-95359266D01*
X109712047Y-95172861D01*
X109712045Y-95172858D01*
X109551141Y-95011954D01*
X109364734Y-94881432D01*
X109364732Y-94881431D01*
X109158497Y-94785261D01*
X109158488Y-94785258D01*
X108938697Y-94726366D01*
X108938693Y-94726365D01*
X108938692Y-94726365D01*
X108938691Y-94726364D01*
X108938686Y-94726364D01*
X108712002Y-94706532D01*
X108711998Y-94706532D01*
X108485313Y-94726364D01*
X108485302Y-94726366D01*
X108265511Y-94785258D01*
X108265502Y-94785261D01*
X108059267Y-94881431D01*
X108059265Y-94881432D01*
X107872858Y-95011954D01*
X107711954Y-95172858D01*
X107581432Y-95359265D01*
X107581431Y-95359267D01*
X107554382Y-95417275D01*
X107508209Y-95469714D01*
X107441016Y-95488866D01*
X107374135Y-95468650D01*
X107329618Y-95417275D01*
X107302686Y-95359520D01*
X107302568Y-95359266D01*
X107172047Y-95172861D01*
X107172045Y-95172858D01*
X107011140Y-95011953D01*
X106825377Y-94881881D01*
X106781752Y-94827304D01*
X106772500Y-94780306D01*
X106772500Y-93546412D01*
X106792185Y-93479373D01*
X106799555Y-93469097D01*
X106801810Y-93466267D01*
X106801816Y-93466262D01*
X106897789Y-93313522D01*
X106957368Y-93143255D01*
X106957369Y-93143249D01*
X106977565Y-92964003D01*
X106977565Y-92963996D01*
X106957369Y-92784750D01*
X106957368Y-92784745D01*
X106918179Y-92672750D01*
X106897789Y-92614478D01*
X106887595Y-92598255D01*
X106842538Y-92526546D01*
X106801816Y-92461738D01*
X106674262Y-92334184D01*
X106627404Y-92304741D01*
X106521523Y-92238211D01*
X106351254Y-92178631D01*
X106351249Y-92178630D01*
X106172004Y-92158435D01*
X106171996Y-92158435D01*
X105992750Y-92178630D01*
X105992745Y-92178631D01*
X105822476Y-92238211D01*
X105669737Y-92334184D01*
X105542184Y-92461737D01*
X105446211Y-92614476D01*
X105386631Y-92784745D01*
X105386630Y-92784750D01*
X105366435Y-92963996D01*
X105366435Y-92964003D01*
X105376826Y-93056229D01*
X105364771Y-93125051D01*
X105317422Y-93176430D01*
X105249812Y-93194054D01*
X105239723Y-93193332D01*
X105072004Y-93174435D01*
X105071996Y-93174435D01*
X104892750Y-93194630D01*
X104892745Y-93194631D01*
X104722476Y-93254211D01*
X104569737Y-93350184D01*
X104442184Y-93477737D01*
X104346211Y-93630476D01*
X104286631Y-93800745D01*
X104286630Y-93800750D01*
X104266435Y-93979996D01*
X104266435Y-93980003D01*
X104286630Y-94159249D01*
X104286631Y-94159254D01*
X104346211Y-94329523D01*
X104442185Y-94482263D01*
X104444445Y-94485097D01*
X104445334Y-94487275D01*
X104445889Y-94488158D01*
X104445734Y-94488255D01*
X104470855Y-94549783D01*
X104471500Y-94562412D01*
X104471500Y-94774487D01*
X104451815Y-94841526D01*
X104399011Y-94887281D01*
X104329853Y-94897225D01*
X104289805Y-94883365D01*
X104289640Y-94883720D01*
X104286216Y-94882123D01*
X104285507Y-94881878D01*
X104284738Y-94881434D01*
X104246628Y-94863663D01*
X104147592Y-94817481D01*
X104078497Y-94785261D01*
X104078488Y-94785258D01*
X103858697Y-94726366D01*
X103858693Y-94726365D01*
X103858692Y-94726365D01*
X103858691Y-94726364D01*
X103858686Y-94726364D01*
X103632002Y-94706532D01*
X103631998Y-94706532D01*
X103405313Y-94726364D01*
X103405302Y-94726366D01*
X103185511Y-94785258D01*
X103185502Y-94785261D01*
X102979267Y-94881431D01*
X102979265Y-94881432D01*
X102792858Y-95011954D01*
X102631954Y-95172858D01*
X102501432Y-95359265D01*
X102501431Y-95359267D01*
X102474382Y-95417275D01*
X102428209Y-95469714D01*
X102361016Y-95488866D01*
X102294135Y-95468650D01*
X102249618Y-95417275D01*
X102222686Y-95359520D01*
X102222568Y-95359266D01*
X102092047Y-95172861D01*
X102092045Y-95172858D01*
X101931140Y-95011953D01*
X101745377Y-94881881D01*
X101701752Y-94827304D01*
X101692500Y-94780306D01*
X101692500Y-89736412D01*
X101712185Y-89669373D01*
X101719555Y-89659097D01*
X101721810Y-89656267D01*
X101721816Y-89656262D01*
X101817789Y-89503522D01*
X101877368Y-89333255D01*
X101877369Y-89333249D01*
X101897565Y-89154003D01*
X101897565Y-89153996D01*
X101877369Y-88974750D01*
X101877368Y-88974745D01*
X101843036Y-88876630D01*
X101817789Y-88804478D01*
X101721816Y-88651738D01*
X101594262Y-88524184D01*
X101441523Y-88428211D01*
X101271254Y-88368631D01*
X101271249Y-88368630D01*
X101092004Y-88348435D01*
X101091996Y-88348435D01*
X100912750Y-88368630D01*
X100912745Y-88368631D01*
X100742476Y-88428211D01*
X100589737Y-88524184D01*
X100462184Y-88651737D01*
X100366211Y-88804476D01*
X100306631Y-88974745D01*
X100306630Y-88974750D01*
X100286435Y-89153996D01*
X100286435Y-89154003D01*
X100306630Y-89333249D01*
X100306631Y-89333254D01*
X100366211Y-89503523D01*
X100398810Y-89555403D01*
X100451106Y-89638632D01*
X100462185Y-89656263D01*
X100464445Y-89659097D01*
X100465334Y-89661275D01*
X100465889Y-89662158D01*
X100465734Y-89662255D01*
X100490855Y-89723783D01*
X100491500Y-89736412D01*
X100491500Y-94780306D01*
X100471815Y-94847345D01*
X100438623Y-94881881D01*
X100252859Y-95011953D01*
X100091954Y-95172858D01*
X99961432Y-95359265D01*
X99961431Y-95359267D01*
X99934382Y-95417275D01*
X99888209Y-95469714D01*
X99821016Y-95488866D01*
X99754135Y-95468650D01*
X99709618Y-95417275D01*
X99682686Y-95359520D01*
X99682568Y-95359266D01*
X99552047Y-95172861D01*
X99552045Y-95172858D01*
X99391140Y-95011953D01*
X99205377Y-94881881D01*
X99161752Y-94827304D01*
X99152500Y-94780306D01*
X99152500Y-90244412D01*
X99172185Y-90177373D01*
X99179555Y-90167097D01*
X99181810Y-90164267D01*
X99181816Y-90164262D01*
X99277789Y-90011522D01*
X99337368Y-89841255D01*
X99342914Y-89792032D01*
X99357565Y-89662003D01*
X99357565Y-89661996D01*
X99337369Y-89482750D01*
X99337368Y-89482745D01*
X99280421Y-89320000D01*
X99277789Y-89312478D01*
X99181816Y-89159738D01*
X99054262Y-89032184D01*
X98901523Y-88936211D01*
X98731254Y-88876631D01*
X98731249Y-88876630D01*
X98552004Y-88856435D01*
X98551996Y-88856435D01*
X98372750Y-88876630D01*
X98372745Y-88876631D01*
X98202476Y-88936211D01*
X98049737Y-89032184D01*
X97922184Y-89159737D01*
X97826211Y-89312476D01*
X97766631Y-89482745D01*
X97766630Y-89482750D01*
X97746435Y-89661996D01*
X97746435Y-89662003D01*
X97766630Y-89841249D01*
X97766631Y-89841254D01*
X97826211Y-90011523D01*
X97922185Y-90164263D01*
X97924445Y-90167097D01*
X97925334Y-90169275D01*
X97925889Y-90170158D01*
X97925734Y-90170255D01*
X97950855Y-90231783D01*
X97951500Y-90244412D01*
X97951500Y-94780306D01*
X97931815Y-94847345D01*
X97898623Y-94881881D01*
X97712859Y-95011953D01*
X97551954Y-95172858D01*
X97421432Y-95359265D01*
X97421431Y-95359267D01*
X97394382Y-95417275D01*
X97348209Y-95469714D01*
X97281016Y-95488866D01*
X97214135Y-95468650D01*
X97169618Y-95417275D01*
X97142686Y-95359520D01*
X97142568Y-95359266D01*
X97012047Y-95172861D01*
X97012045Y-95172858D01*
X96851141Y-95011954D01*
X96664734Y-94881432D01*
X96664732Y-94881431D01*
X96458497Y-94785261D01*
X96458488Y-94785258D01*
X96238697Y-94726366D01*
X96238693Y-94726365D01*
X96238692Y-94726365D01*
X96238691Y-94726364D01*
X96238686Y-94726364D01*
X96012002Y-94706532D01*
X96011998Y-94706532D01*
X95785313Y-94726364D01*
X95785302Y-94726366D01*
X95565511Y-94785258D01*
X95565502Y-94785261D01*
X95359267Y-94881431D01*
X95359265Y-94881432D01*
X95172858Y-95011954D01*
X95011954Y-95172858D01*
X94881432Y-95359265D01*
X94881431Y-95359267D01*
X94854382Y-95417275D01*
X94808209Y-95469714D01*
X94741016Y-95488866D01*
X94674135Y-95468650D01*
X94629618Y-95417275D01*
X94602686Y-95359520D01*
X94602568Y-95359266D01*
X94472047Y-95172861D01*
X94472045Y-95172858D01*
X94311141Y-95011954D01*
X94124734Y-94881432D01*
X94124732Y-94881431D01*
X93918497Y-94785261D01*
X93918488Y-94785258D01*
X93698697Y-94726366D01*
X93698693Y-94726365D01*
X93698692Y-94726365D01*
X93698691Y-94726364D01*
X93698686Y-94726364D01*
X93472002Y-94706532D01*
X93471998Y-94706532D01*
X93245313Y-94726364D01*
X93245302Y-94726366D01*
X93025511Y-94785258D01*
X93025502Y-94785261D01*
X92819267Y-94881431D01*
X92819265Y-94881432D01*
X92632858Y-95011954D01*
X92471954Y-95172858D01*
X92341432Y-95359265D01*
X92341431Y-95359267D01*
X92314382Y-95417275D01*
X92268209Y-95469714D01*
X92201016Y-95488866D01*
X92134135Y-95468650D01*
X92089618Y-95417275D01*
X92062686Y-95359520D01*
X92062568Y-95359266D01*
X91932047Y-95172861D01*
X91932045Y-95172858D01*
X91771141Y-95011954D01*
X91584734Y-94881432D01*
X91584732Y-94881431D01*
X91378497Y-94785261D01*
X91378488Y-94785258D01*
X91158697Y-94726366D01*
X91158693Y-94726365D01*
X91158692Y-94726365D01*
X91158691Y-94726364D01*
X91158686Y-94726364D01*
X90932002Y-94706532D01*
X90931998Y-94706532D01*
X90705313Y-94726364D01*
X90705302Y-94726366D01*
X90609067Y-94752152D01*
X90539217Y-94750489D01*
X90489293Y-94720058D01*
X90300180Y-94530945D01*
X90266695Y-94469622D01*
X90263861Y-94443264D01*
X90263861Y-82090025D01*
X90283546Y-82022986D01*
X90336350Y-81977231D01*
X90405508Y-81967287D01*
X90440262Y-81977642D01*
X90485504Y-81998739D01*
X90705308Y-82057635D01*
X90867230Y-82071801D01*
X90931998Y-82077468D01*
X90932000Y-82077468D01*
X90932002Y-82077468D01*
X90988673Y-82072509D01*
X91158692Y-82057635D01*
X91378496Y-81998739D01*
X91584734Y-81902568D01*
X91771139Y-81772047D01*
X91932047Y-81611139D01*
X92062568Y-81424734D01*
X92089618Y-81366724D01*
X92135790Y-81314285D01*
X92202983Y-81295133D01*
X92269865Y-81315348D01*
X92314382Y-81366725D01*
X92341429Y-81424728D01*
X92341432Y-81424734D01*
X92471954Y-81611141D01*
X92632858Y-81772045D01*
X92632861Y-81772047D01*
X92819266Y-81902568D01*
X93025504Y-81998739D01*
X93245308Y-82057635D01*
X93407230Y-82071801D01*
X93471998Y-82077468D01*
X93472000Y-82077468D01*
X93472002Y-82077468D01*
X93528673Y-82072509D01*
X93698692Y-82057635D01*
X93918496Y-81998739D01*
X94124734Y-81902568D01*
X94311139Y-81772047D01*
X94472047Y-81611139D01*
X94602568Y-81424734D01*
X94629618Y-81366724D01*
X94675790Y-81314285D01*
X94742983Y-81295133D01*
X94809865Y-81315348D01*
X94854382Y-81366725D01*
X94881429Y-81424728D01*
X94881432Y-81424734D01*
X95011954Y-81611141D01*
X95172858Y-81772045D01*
X95172861Y-81772047D01*
X95359266Y-81902568D01*
X95565504Y-81998739D01*
X95785308Y-82057635D01*
X95947230Y-82071801D01*
X96011998Y-82077468D01*
X96012000Y-82077468D01*
X96012002Y-82077468D01*
X96068673Y-82072509D01*
X96238692Y-82057635D01*
X96458496Y-81998739D01*
X96664734Y-81902568D01*
X96851139Y-81772047D01*
X97012047Y-81611139D01*
X97142568Y-81424734D01*
X97169618Y-81366724D01*
X97215790Y-81314285D01*
X97282983Y-81295133D01*
X97349865Y-81315348D01*
X97394382Y-81366725D01*
X97421429Y-81424728D01*
X97421432Y-81424734D01*
X97551954Y-81611141D01*
X97712858Y-81772045D01*
X97712861Y-81772047D01*
X97899266Y-81902568D01*
X98105504Y-81998739D01*
X98325308Y-82057635D01*
X98487230Y-82071801D01*
X98551998Y-82077468D01*
X98552000Y-82077468D01*
X98552002Y-82077468D01*
X98608673Y-82072509D01*
X98778692Y-82057635D01*
X98998496Y-81998739D01*
X99204734Y-81902568D01*
X99391139Y-81772047D01*
X99552047Y-81611139D01*
X99682568Y-81424734D01*
X99709618Y-81366724D01*
X99755790Y-81314285D01*
X99822983Y-81295133D01*
X99889865Y-81315348D01*
X99934382Y-81366725D01*
X99961429Y-81424728D01*
X99961432Y-81424734D01*
X100091954Y-81611141D01*
X100252858Y-81772045D01*
X100252861Y-81772047D01*
X100439266Y-81902568D01*
X100645504Y-81998739D01*
X100865308Y-82057635D01*
X101027230Y-82071801D01*
X101091998Y-82077468D01*
X101092000Y-82077468D01*
X101092002Y-82077468D01*
X101148673Y-82072509D01*
X101318692Y-82057635D01*
X101538496Y-81998739D01*
X101744734Y-81902568D01*
X101931139Y-81772047D01*
X102092047Y-81611139D01*
X102222568Y-81424734D01*
X102249618Y-81366724D01*
X102295790Y-81314285D01*
X102362983Y-81295133D01*
X102429865Y-81315348D01*
X102474382Y-81366725D01*
X102501429Y-81424728D01*
X102501432Y-81424734D01*
X102631954Y-81611141D01*
X102792858Y-81772045D01*
X102792861Y-81772047D01*
X102979266Y-81902568D01*
X103185504Y-81998739D01*
X103405308Y-82057635D01*
X103567230Y-82071801D01*
X103631998Y-82077468D01*
X103632000Y-82077468D01*
X103632002Y-82077468D01*
X103688673Y-82072509D01*
X103858692Y-82057635D01*
X104078496Y-81998739D01*
X104284734Y-81902568D01*
X104471139Y-81772047D01*
X104632047Y-81611139D01*
X104762568Y-81424734D01*
X104789618Y-81366724D01*
X104835790Y-81314285D01*
X104902983Y-81295133D01*
X104969865Y-81315348D01*
X105014382Y-81366725D01*
X105041429Y-81424728D01*
X105041432Y-81424734D01*
X105171954Y-81611141D01*
X105332858Y-81772045D01*
X105332861Y-81772047D01*
X105518624Y-81902118D01*
X105562248Y-81956693D01*
X105571500Y-82003692D01*
X105571500Y-85777587D01*
X105551815Y-85844626D01*
X105544450Y-85854896D01*
X105542186Y-85857734D01*
X105446211Y-86010476D01*
X105386631Y-86180745D01*
X105386630Y-86180750D01*
X105366435Y-86359996D01*
X105366435Y-86360003D01*
X105386630Y-86539249D01*
X105386631Y-86539254D01*
X105446211Y-86709523D01*
X105490495Y-86780000D01*
X105542184Y-86862262D01*
X105669738Y-86989816D01*
X105822478Y-87085789D01*
X105942347Y-87127733D01*
X105992745Y-87145368D01*
X105992750Y-87145369D01*
X106171996Y-87165565D01*
X106172000Y-87165565D01*
X106172004Y-87165565D01*
X106351249Y-87145369D01*
X106351252Y-87145368D01*
X106351255Y-87145368D01*
X106521522Y-87085789D01*
X106674262Y-86989816D01*
X106801816Y-86862262D01*
X106897789Y-86709522D01*
X106957368Y-86539255D01*
X106957369Y-86539249D01*
X106977565Y-86360003D01*
X106977565Y-86359996D01*
X106957369Y-86180750D01*
X106957368Y-86180745D01*
X106931215Y-86106003D01*
X106897789Y-86010478D01*
X106801816Y-85857738D01*
X106801814Y-85857736D01*
X106801813Y-85857734D01*
X106799550Y-85854896D01*
X106798659Y-85852715D01*
X106798111Y-85851842D01*
X106798264Y-85851745D01*
X106773144Y-85790209D01*
X106772500Y-85777587D01*
X106772500Y-82003692D01*
X106792185Y-81936653D01*
X106825374Y-81902119D01*
X107011139Y-81772047D01*
X107172047Y-81611139D01*
X107302568Y-81424734D01*
X107329618Y-81366724D01*
X107375790Y-81314285D01*
X107442983Y-81295133D01*
X107509865Y-81315348D01*
X107554382Y-81366725D01*
X107581429Y-81424728D01*
X107581432Y-81424734D01*
X107711954Y-81611141D01*
X107872858Y-81772045D01*
X107872861Y-81772047D01*
X108058624Y-81902118D01*
X108102248Y-81956693D01*
X108111500Y-82003692D01*
X108111500Y-87289326D01*
X108111499Y-87289344D01*
X108111499Y-87455050D01*
X108111498Y-87455050D01*
X108152423Y-87607780D01*
X108153290Y-87609873D01*
X108161950Y-87643446D01*
X108180630Y-87809245D01*
X108180631Y-87809250D01*
X108240211Y-87979519D01*
X108314029Y-88096998D01*
X108336184Y-88132258D01*
X108463738Y-88259812D01*
X108498264Y-88281506D01*
X108604780Y-88348435D01*
X108616478Y-88355785D01*
X108653190Y-88368631D01*
X108786745Y-88415364D01*
X108786750Y-88415365D01*
X108965996Y-88435561D01*
X108966000Y-88435561D01*
X108966004Y-88435561D01*
X109145249Y-88415365D01*
X109145252Y-88415364D01*
X109145255Y-88415364D01*
X109315522Y-88355785D01*
X109468262Y-88259812D01*
X109595816Y-88132258D01*
X109691789Y-87979518D01*
X109751368Y-87809251D01*
X109751369Y-87809245D01*
X109771565Y-87629999D01*
X109771565Y-87629992D01*
X109751369Y-87450746D01*
X109751368Y-87450741D01*
X109697549Y-87296935D01*
X109691789Y-87280474D01*
X109595816Y-87127734D01*
X109468262Y-87000180D01*
X109468260Y-87000178D01*
X109370527Y-86938768D01*
X109324237Y-86886434D01*
X109312500Y-86833775D01*
X109312500Y-82003692D01*
X109332185Y-81936653D01*
X109365374Y-81902119D01*
X109551139Y-81772047D01*
X109712047Y-81611139D01*
X109842568Y-81424734D01*
X109869618Y-81366724D01*
X109915790Y-81314285D01*
X109982983Y-81295133D01*
X110049865Y-81315348D01*
G37*
%TD.AperFunction*%
%TA.AperFunction,Conductor*%
G36*
X148942539Y-67020185D02*
G01*
X148988294Y-67072989D01*
X148999500Y-67124500D01*
X148999500Y-111375500D01*
X148979815Y-111442539D01*
X148927011Y-111488294D01*
X148875500Y-111499500D01*
X51124500Y-111499500D01*
X51057461Y-111479815D01*
X51011706Y-111427011D01*
X51000500Y-111375500D01*
X51000500Y-68999999D01*
X51644341Y-68999999D01*
X51644341Y-69000000D01*
X51664936Y-69235403D01*
X51664938Y-69235413D01*
X51726094Y-69463655D01*
X51726096Y-69463659D01*
X51726097Y-69463663D01*
X51806004Y-69635023D01*
X51825965Y-69677830D01*
X51825967Y-69677834D01*
X51934281Y-69832521D01*
X51961501Y-69871396D01*
X51961506Y-69871402D01*
X52128597Y-70038493D01*
X52128603Y-70038498D01*
X52314158Y-70168425D01*
X52357783Y-70223002D01*
X52364977Y-70292500D01*
X52333454Y-70354855D01*
X52314158Y-70371575D01*
X52128597Y-70501505D01*
X51961505Y-70668597D01*
X51825965Y-70862169D01*
X51825964Y-70862171D01*
X51726098Y-71076335D01*
X51726094Y-71076344D01*
X51664938Y-71304586D01*
X51664936Y-71304596D01*
X51644341Y-71539999D01*
X51644341Y-71540000D01*
X51664936Y-71775403D01*
X51664938Y-71775413D01*
X51726094Y-72003655D01*
X51726096Y-72003659D01*
X51726097Y-72003663D01*
X51730000Y-72012032D01*
X51825965Y-72217830D01*
X51825967Y-72217834D01*
X51926950Y-72362051D01*
X51961501Y-72411396D01*
X51961506Y-72411402D01*
X52128597Y-72578493D01*
X52128603Y-72578498D01*
X52314158Y-72708425D01*
X52357783Y-72763002D01*
X52364977Y-72832500D01*
X52333454Y-72894855D01*
X52314158Y-72911575D01*
X52128597Y-73041505D01*
X51961505Y-73208597D01*
X51825965Y-73402169D01*
X51825964Y-73402171D01*
X51726098Y-73616335D01*
X51726094Y-73616344D01*
X51664938Y-73844586D01*
X51664936Y-73844596D01*
X51644341Y-74079999D01*
X51644341Y-74080000D01*
X51664936Y-74315403D01*
X51664938Y-74315413D01*
X51726094Y-74543655D01*
X51726096Y-74543659D01*
X51726097Y-74543663D01*
X51806004Y-74715023D01*
X51825965Y-74757830D01*
X51825967Y-74757834D01*
X51934281Y-74912521D01*
X51961501Y-74951396D01*
X51961506Y-74951402D01*
X52128597Y-75118493D01*
X52128603Y-75118498D01*
X52314158Y-75248425D01*
X52357783Y-75303002D01*
X52364977Y-75372500D01*
X52333454Y-75434855D01*
X52314158Y-75451575D01*
X52128597Y-75581505D01*
X51961505Y-75748597D01*
X51825965Y-75942169D01*
X51825964Y-75942171D01*
X51726098Y-76156335D01*
X51726094Y-76156344D01*
X51664938Y-76384586D01*
X51664936Y-76384596D01*
X51644341Y-76619999D01*
X51644341Y-76620000D01*
X51664936Y-76855403D01*
X51664938Y-76855413D01*
X51726094Y-77083655D01*
X51726096Y-77083659D01*
X51726097Y-77083663D01*
X51779139Y-77197412D01*
X51825965Y-77297830D01*
X51825967Y-77297834D01*
X51921335Y-77434032D01*
X51961501Y-77491396D01*
X51961506Y-77491402D01*
X52128597Y-77658493D01*
X52128603Y-77658498D01*
X52314158Y-77788425D01*
X52357783Y-77843002D01*
X52364977Y-77912500D01*
X52333454Y-77974855D01*
X52314158Y-77991575D01*
X52128597Y-78121505D01*
X51961505Y-78288597D01*
X51825965Y-78482169D01*
X51825964Y-78482171D01*
X51726098Y-78696335D01*
X51726094Y-78696344D01*
X51664938Y-78924586D01*
X51664936Y-78924596D01*
X51644341Y-79159999D01*
X51644341Y-79160000D01*
X51664936Y-79395403D01*
X51664938Y-79395413D01*
X51726094Y-79623655D01*
X51726096Y-79623659D01*
X51726097Y-79623663D01*
X51806004Y-79795023D01*
X51825965Y-79837830D01*
X51825967Y-79837834D01*
X51892504Y-79932858D01*
X51961501Y-80031396D01*
X51961506Y-80031402D01*
X52128597Y-80198493D01*
X52128603Y-80198498D01*
X52314158Y-80328425D01*
X52357783Y-80383002D01*
X52364977Y-80452500D01*
X52333454Y-80514855D01*
X52314158Y-80531575D01*
X52128597Y-80661505D01*
X51961505Y-80828597D01*
X51825965Y-81022169D01*
X51825964Y-81022171D01*
X51726098Y-81236335D01*
X51726094Y-81236344D01*
X51664938Y-81464586D01*
X51664936Y-81464596D01*
X51644341Y-81699999D01*
X51644341Y-81700000D01*
X51664936Y-81935403D01*
X51664938Y-81935413D01*
X51726094Y-82163655D01*
X51726096Y-82163659D01*
X51726097Y-82163663D01*
X51785352Y-82290735D01*
X51825965Y-82377830D01*
X51825967Y-82377834D01*
X51934281Y-82532521D01*
X51961501Y-82571396D01*
X51961506Y-82571402D01*
X52128597Y-82738493D01*
X52128603Y-82738498D01*
X52314158Y-82868425D01*
X52357783Y-82923002D01*
X52364977Y-82992500D01*
X52333454Y-83054855D01*
X52314158Y-83071575D01*
X52128597Y-83201505D01*
X51961505Y-83368597D01*
X51825965Y-83562169D01*
X51825964Y-83562171D01*
X51726098Y-83776335D01*
X51726094Y-83776344D01*
X51664938Y-84004586D01*
X51664936Y-84004596D01*
X51644341Y-84239999D01*
X51644341Y-84240000D01*
X51664936Y-84475403D01*
X51664938Y-84475413D01*
X51726094Y-84703655D01*
X51726096Y-84703659D01*
X51726097Y-84703663D01*
X51805536Y-84874019D01*
X51825965Y-84917830D01*
X51825967Y-84917834D01*
X51892142Y-85012341D01*
X51961501Y-85111396D01*
X51961506Y-85111402D01*
X52128597Y-85278493D01*
X52128603Y-85278498D01*
X52314158Y-85408425D01*
X52357783Y-85463002D01*
X52364977Y-85532500D01*
X52333454Y-85594855D01*
X52314158Y-85611575D01*
X52128597Y-85741505D01*
X51961505Y-85908597D01*
X51825965Y-86102169D01*
X51825964Y-86102171D01*
X51726098Y-86316335D01*
X51726094Y-86316344D01*
X51664938Y-86544586D01*
X51664936Y-86544596D01*
X51644341Y-86779999D01*
X51644341Y-86780000D01*
X51664936Y-87015403D01*
X51664938Y-87015413D01*
X51726094Y-87243655D01*
X51726096Y-87243659D01*
X51726097Y-87243663D01*
X51806004Y-87415023D01*
X51825965Y-87457830D01*
X51825967Y-87457834D01*
X51921163Y-87593787D01*
X51961501Y-87651396D01*
X51961506Y-87651402D01*
X52128597Y-87818493D01*
X52128603Y-87818498D01*
X52314158Y-87948425D01*
X52357783Y-88003002D01*
X52364977Y-88072500D01*
X52333454Y-88134855D01*
X52314158Y-88151575D01*
X52128597Y-88281505D01*
X51961505Y-88448597D01*
X51825965Y-88642169D01*
X51825964Y-88642171D01*
X51726098Y-88856335D01*
X51726094Y-88856344D01*
X51664938Y-89084586D01*
X51664936Y-89084596D01*
X51644341Y-89319999D01*
X51644341Y-89320000D01*
X51664936Y-89555403D01*
X51664938Y-89555413D01*
X51726094Y-89783655D01*
X51726096Y-89783659D01*
X51726097Y-89783663D01*
X51790482Y-89921737D01*
X51825965Y-89997830D01*
X51825967Y-89997834D01*
X51934281Y-90152521D01*
X51961501Y-90191396D01*
X51961506Y-90191402D01*
X52128597Y-90358493D01*
X52128603Y-90358498D01*
X52314158Y-90488425D01*
X52357783Y-90543002D01*
X52364977Y-90612500D01*
X52333454Y-90674855D01*
X52314158Y-90691575D01*
X52128597Y-90821505D01*
X51961505Y-90988597D01*
X51825965Y-91182169D01*
X51825964Y-91182171D01*
X51726098Y-91396335D01*
X51726094Y-91396344D01*
X51664938Y-91624586D01*
X51664936Y-91624596D01*
X51644341Y-91859999D01*
X51644341Y-91860000D01*
X51664936Y-92095403D01*
X51664938Y-92095413D01*
X51726094Y-92323655D01*
X51726096Y-92323659D01*
X51726097Y-92323663D01*
X51733621Y-92339798D01*
X51825965Y-92537830D01*
X51825967Y-92537834D01*
X51920437Y-92672750D01*
X51961501Y-92731396D01*
X51961506Y-92731402D01*
X52128597Y-92898493D01*
X52128603Y-92898498D01*
X52314158Y-93028425D01*
X52357783Y-93083002D01*
X52364977Y-93152500D01*
X52333454Y-93214855D01*
X52314158Y-93231575D01*
X52128597Y-93361505D01*
X51961505Y-93528597D01*
X51825965Y-93722169D01*
X51825964Y-93722171D01*
X51726098Y-93936335D01*
X51726094Y-93936344D01*
X51664938Y-94164586D01*
X51664936Y-94164596D01*
X51644341Y-94399999D01*
X51644341Y-94400000D01*
X51664936Y-94635403D01*
X51664938Y-94635413D01*
X51726094Y-94863655D01*
X51726096Y-94863659D01*
X51726097Y-94863663D01*
X51806004Y-95035023D01*
X51825965Y-95077830D01*
X51825967Y-95077834D01*
X51886392Y-95164129D01*
X51961501Y-95271396D01*
X51961506Y-95271402D01*
X52128597Y-95438493D01*
X52128603Y-95438498D01*
X52314158Y-95568425D01*
X52357783Y-95623002D01*
X52364977Y-95692500D01*
X52333454Y-95754855D01*
X52314158Y-95771575D01*
X52128597Y-95901505D01*
X51961505Y-96068597D01*
X51825965Y-96262169D01*
X51825964Y-96262171D01*
X51726098Y-96476335D01*
X51726094Y-96476344D01*
X51664938Y-96704586D01*
X51664936Y-96704596D01*
X51644341Y-96939999D01*
X51644341Y-96940000D01*
X51664936Y-97175403D01*
X51664938Y-97175413D01*
X51726094Y-97403655D01*
X51726096Y-97403659D01*
X51726097Y-97403663D01*
X51790481Y-97541734D01*
X51825965Y-97617830D01*
X51825967Y-97617834D01*
X51884750Y-97701784D01*
X51961501Y-97811396D01*
X51961506Y-97811402D01*
X52128597Y-97978493D01*
X52128603Y-97978498D01*
X52314158Y-98108425D01*
X52357783Y-98163002D01*
X52364977Y-98232500D01*
X52333454Y-98294855D01*
X52314158Y-98311575D01*
X52128597Y-98441505D01*
X51961505Y-98608597D01*
X51825965Y-98802169D01*
X51825964Y-98802171D01*
X51726098Y-99016335D01*
X51726094Y-99016344D01*
X51664938Y-99244586D01*
X51664936Y-99244596D01*
X51644341Y-99479999D01*
X51644341Y-99480000D01*
X51664936Y-99715403D01*
X51664938Y-99715413D01*
X51726094Y-99943655D01*
X51726096Y-99943659D01*
X51726097Y-99943663D01*
X51806004Y-100115023D01*
X51825965Y-100157830D01*
X51825967Y-100157834D01*
X51921335Y-100294032D01*
X51961501Y-100351396D01*
X51961506Y-100351402D01*
X52128597Y-100518493D01*
X52128603Y-100518498D01*
X52314158Y-100648425D01*
X52357783Y-100703002D01*
X52364977Y-100772500D01*
X52333454Y-100834855D01*
X52314158Y-100851575D01*
X52128597Y-100981505D01*
X51961505Y-101148597D01*
X51825965Y-101342169D01*
X51825964Y-101342171D01*
X51726098Y-101556335D01*
X51726094Y-101556344D01*
X51664938Y-101784586D01*
X51664936Y-101784596D01*
X51644341Y-102019999D01*
X51644341Y-102020000D01*
X51664936Y-102255403D01*
X51664938Y-102255413D01*
X51726094Y-102483655D01*
X51726096Y-102483659D01*
X51726097Y-102483663D01*
X51730000Y-102492032D01*
X51825965Y-102697830D01*
X51825967Y-102697834D01*
X51904157Y-102809500D01*
X51961501Y-102891396D01*
X51961506Y-102891402D01*
X52128597Y-103058493D01*
X52128603Y-103058498D01*
X52314158Y-103188425D01*
X52357783Y-103243002D01*
X52364977Y-103312500D01*
X52333454Y-103374855D01*
X52314158Y-103391575D01*
X52128597Y-103521505D01*
X51961505Y-103688597D01*
X51825965Y-103882169D01*
X51825964Y-103882171D01*
X51726098Y-104096335D01*
X51726094Y-104096344D01*
X51664938Y-104324586D01*
X51664936Y-104324596D01*
X51644341Y-104559999D01*
X51644341Y-104560000D01*
X51664936Y-104795403D01*
X51664938Y-104795413D01*
X51726094Y-105023655D01*
X51726096Y-105023659D01*
X51726097Y-105023663D01*
X51730000Y-105032032D01*
X51825965Y-105237830D01*
X51825967Y-105237834D01*
X51904157Y-105349500D01*
X51961501Y-105431396D01*
X51961506Y-105431402D01*
X52128597Y-105598493D01*
X52128603Y-105598498D01*
X52314158Y-105728425D01*
X52357783Y-105783002D01*
X52364977Y-105852500D01*
X52333454Y-105914855D01*
X52314158Y-105931575D01*
X52128597Y-106061505D01*
X51961505Y-106228597D01*
X51825965Y-106422169D01*
X51825964Y-106422171D01*
X51726098Y-106636335D01*
X51726094Y-106636344D01*
X51664938Y-106864586D01*
X51664936Y-106864596D01*
X51644341Y-107099999D01*
X51644341Y-107100000D01*
X51664936Y-107335403D01*
X51664938Y-107335413D01*
X51726094Y-107563655D01*
X51726096Y-107563659D01*
X51726097Y-107563663D01*
X51730000Y-107572032D01*
X51825965Y-107777830D01*
X51825967Y-107777834D01*
X51934281Y-107932521D01*
X51961501Y-107971396D01*
X51961506Y-107971402D01*
X52083818Y-108093714D01*
X52117303Y-108155037D01*
X52112319Y-108224729D01*
X52070447Y-108280662D01*
X52039471Y-108297577D01*
X51907912Y-108346646D01*
X51907906Y-108346649D01*
X51792812Y-108432809D01*
X51792809Y-108432812D01*
X51706649Y-108547906D01*
X51706645Y-108547913D01*
X51656403Y-108682620D01*
X51656401Y-108682627D01*
X51650000Y-108742155D01*
X51650000Y-109390000D01*
X52566988Y-109390000D01*
X52534075Y-109447007D01*
X52500000Y-109574174D01*
X52500000Y-109705826D01*
X52534075Y-109832993D01*
X52566988Y-109890000D01*
X51650000Y-109890000D01*
X51650000Y-110537844D01*
X51656401Y-110597372D01*
X51656403Y-110597379D01*
X51706645Y-110732086D01*
X51706649Y-110732093D01*
X51792809Y-110847187D01*
X51792812Y-110847190D01*
X51907906Y-110933350D01*
X51907913Y-110933354D01*
X52042620Y-110983596D01*
X52042627Y-110983598D01*
X52102155Y-110989999D01*
X52102172Y-110990000D01*
X52750000Y-110990000D01*
X52750000Y-110073012D01*
X52807007Y-110105925D01*
X52934174Y-110140000D01*
X53065826Y-110140000D01*
X53192993Y-110105925D01*
X53250000Y-110073012D01*
X53250000Y-110990000D01*
X53897828Y-110990000D01*
X53897844Y-110989999D01*
X53957372Y-110983598D01*
X53957379Y-110983596D01*
X54092086Y-110933354D01*
X54092093Y-110933350D01*
X54207187Y-110847190D01*
X54207190Y-110847187D01*
X54293350Y-110732093D01*
X54293354Y-110732086D01*
X54342614Y-110600013D01*
X54384485Y-110544079D01*
X54449949Y-110519662D01*
X54518222Y-110534513D01*
X54546477Y-110555665D01*
X54668917Y-110678105D01*
X54862421Y-110813600D01*
X55076507Y-110913429D01*
X55076516Y-110913433D01*
X55290000Y-110970634D01*
X55290000Y-110073012D01*
X55347007Y-110105925D01*
X55474174Y-110140000D01*
X55605826Y-110140000D01*
X55732993Y-110105925D01*
X55790000Y-110073012D01*
X55790000Y-110970633D01*
X56003483Y-110913433D01*
X56003492Y-110913429D01*
X56217578Y-110813600D01*
X56411082Y-110678105D01*
X56578105Y-110511082D01*
X56713600Y-110317578D01*
X56813429Y-110103492D01*
X56813432Y-110103486D01*
X56870636Y-109890000D01*
X55973012Y-109890000D01*
X56005925Y-109832993D01*
X56040000Y-109705826D01*
X56040000Y-109574174D01*
X56005925Y-109447007D01*
X55973012Y-109390000D01*
X56870636Y-109390000D01*
X56870635Y-109389999D01*
X56813432Y-109176513D01*
X56813429Y-109176507D01*
X56713600Y-108962422D01*
X56713599Y-108962420D01*
X56578113Y-108768926D01*
X56578108Y-108768920D01*
X56411078Y-108601890D01*
X56225405Y-108471879D01*
X56181780Y-108417302D01*
X56174588Y-108347804D01*
X56206110Y-108285449D01*
X56225406Y-108268730D01*
X56337500Y-108190241D01*
X56411401Y-108138495D01*
X56578495Y-107971401D01*
X56714035Y-107777830D01*
X56813903Y-107563663D01*
X56875063Y-107335408D01*
X56895659Y-107100000D01*
X56875063Y-106864592D01*
X56840671Y-106736239D01*
X56842334Y-106666393D01*
X56872763Y-106616470D01*
X65650520Y-97838716D01*
X65729577Y-97701784D01*
X65770501Y-97549057D01*
X65770501Y-97390942D01*
X65770501Y-97383347D01*
X65770500Y-97383329D01*
X65770500Y-82673135D01*
X67794500Y-82673135D01*
X67794500Y-84468870D01*
X67794501Y-84468876D01*
X67800908Y-84528483D01*
X67851202Y-84663328D01*
X67851206Y-84663335D01*
X67937452Y-84778544D01*
X67937455Y-84778547D01*
X68052664Y-84864793D01*
X68052671Y-84864797D01*
X68187517Y-84915091D01*
X68187516Y-84915091D01*
X68194444Y-84915835D01*
X68247127Y-84921500D01*
X70042872Y-84921499D01*
X70102483Y-84915091D01*
X70237331Y-84864796D01*
X70352546Y-84778546D01*
X70438796Y-84663331D01*
X70489091Y-84528483D01*
X70495500Y-84468873D01*
X70495499Y-82773460D01*
X70515184Y-82706422D01*
X70531813Y-82685785D01*
X71742713Y-81474886D01*
X71742716Y-81474885D01*
X71823526Y-81394074D01*
X71884845Y-81360592D01*
X71954537Y-81365576D01*
X72010471Y-81407447D01*
X72018198Y-81420346D01*
X72018724Y-81420043D01*
X72021432Y-81424734D01*
X72151954Y-81611141D01*
X72312858Y-81772045D01*
X72312861Y-81772047D01*
X72499266Y-81902568D01*
X72705504Y-81998739D01*
X72925308Y-82057635D01*
X73087230Y-82071801D01*
X73151998Y-82077468D01*
X73152000Y-82077468D01*
X73152002Y-82077468D01*
X73208673Y-82072509D01*
X73378692Y-82057635D01*
X73598496Y-81998739D01*
X73804734Y-81902568D01*
X73991139Y-81772047D01*
X74152047Y-81611139D01*
X74282568Y-81424734D01*
X74309618Y-81366724D01*
X74355790Y-81314285D01*
X74422983Y-81295133D01*
X74489865Y-81315348D01*
X74534382Y-81366725D01*
X74561429Y-81424728D01*
X74561432Y-81424734D01*
X74691954Y-81611141D01*
X74852858Y-81772045D01*
X74852861Y-81772047D01*
X75038624Y-81902118D01*
X75082248Y-81956693D01*
X75091500Y-82003692D01*
X75091500Y-83147875D01*
X75071815Y-83214914D01*
X75019011Y-83260669D01*
X74953619Y-83271096D01*
X74946727Y-83270319D01*
X74930000Y-83268435D01*
X74929998Y-83268435D01*
X74929997Y-83268435D01*
X74929996Y-83268435D01*
X74750750Y-83288630D01*
X74750745Y-83288631D01*
X74580476Y-83348211D01*
X74427737Y-83444184D01*
X74300184Y-83571737D01*
X74204211Y-83724476D01*
X74144631Y-83894745D01*
X74144630Y-83894750D01*
X74124435Y-84073996D01*
X74124435Y-84074003D01*
X74144630Y-84253249D01*
X74144631Y-84253254D01*
X74204211Y-84423523D01*
X74232713Y-84468883D01*
X74300184Y-84576262D01*
X74427738Y-84703816D01*
X74580478Y-84799789D01*
X74750745Y-84859368D01*
X74837669Y-84869161D01*
X74902080Y-84896226D01*
X74911465Y-84904700D01*
X75055181Y-85048416D01*
X75088666Y-85109739D01*
X75091500Y-85136097D01*
X75091500Y-94780306D01*
X75071815Y-94847345D01*
X75038623Y-94881881D01*
X74852859Y-95011953D01*
X74691954Y-95172858D01*
X74561433Y-95359264D01*
X74561432Y-95359266D01*
X74561315Y-95359518D01*
X74534106Y-95417867D01*
X74487933Y-95470306D01*
X74420739Y-95489457D01*
X74353858Y-95469241D01*
X74309342Y-95417865D01*
X74282135Y-95359520D01*
X74282134Y-95359518D01*
X74151657Y-95173179D01*
X73990820Y-95012342D01*
X73804482Y-94881865D01*
X73598328Y-94785734D01*
X73402000Y-94733127D01*
X73402000Y-95696314D01*
X73397606Y-95691920D01*
X73306394Y-95639259D01*
X73204661Y-95612000D01*
X73099339Y-95612000D01*
X72997606Y-95639259D01*
X72906394Y-95691920D01*
X72902000Y-95696314D01*
X72902000Y-94733127D01*
X72705671Y-94785734D01*
X72499517Y-94881865D01*
X72313179Y-95012342D01*
X72152342Y-95173179D01*
X72021865Y-95359517D01*
X71925734Y-95565673D01*
X71925730Y-95565682D01*
X71873127Y-95761999D01*
X71873128Y-95762000D01*
X72836314Y-95762000D01*
X72831920Y-95766394D01*
X72779259Y-95857606D01*
X72752000Y-95959339D01*
X72752000Y-96064661D01*
X72779259Y-96166394D01*
X72831920Y-96257606D01*
X72836314Y-96262000D01*
X71873128Y-96262000D01*
X71925730Y-96458317D01*
X71925734Y-96458326D01*
X72021865Y-96664482D01*
X72152342Y-96850820D01*
X72313179Y-97011657D01*
X72499517Y-97142134D01*
X72705673Y-97238265D01*
X72705682Y-97238269D01*
X72901999Y-97290872D01*
X72902000Y-97290871D01*
X72902000Y-96327686D01*
X72906394Y-96332080D01*
X72997606Y-96384741D01*
X73099339Y-96412000D01*
X73204661Y-96412000D01*
X73306394Y-96384741D01*
X73397606Y-96332080D01*
X73402000Y-96327686D01*
X73402000Y-97290872D01*
X73598317Y-97238269D01*
X73598326Y-97238265D01*
X73804482Y-97142134D01*
X73990820Y-97011657D01*
X74151657Y-96850820D01*
X74282132Y-96664484D01*
X74309341Y-96606134D01*
X74355513Y-96553695D01*
X74422707Y-96534542D01*
X74489588Y-96554757D01*
X74534106Y-96606133D01*
X74561431Y-96664732D01*
X74561432Y-96664734D01*
X74691954Y-96851141D01*
X74852858Y-97012045D01*
X74852861Y-97012047D01*
X75039266Y-97142568D01*
X75245504Y-97238739D01*
X75465308Y-97297635D01*
X75627230Y-97311801D01*
X75691998Y-97317468D01*
X75692000Y-97317468D01*
X75692002Y-97317468D01*
X75748807Y-97312498D01*
X75918692Y-97297635D01*
X76138496Y-97238739D01*
X76344734Y-97142568D01*
X76531139Y-97012047D01*
X76692047Y-96851139D01*
X76822568Y-96664734D01*
X76849618Y-96606724D01*
X76895790Y-96554285D01*
X76962983Y-96535133D01*
X77029865Y-96555348D01*
X77074382Y-96606725D01*
X77101429Y-96664728D01*
X77101432Y-96664734D01*
X77231954Y-96851141D01*
X77392858Y-97012045D01*
X77392861Y-97012047D01*
X77579266Y-97142568D01*
X77785504Y-97238739D01*
X78005308Y-97297635D01*
X78167230Y-97311801D01*
X78231998Y-97317468D01*
X78232000Y-97317468D01*
X78232002Y-97317468D01*
X78288807Y-97312498D01*
X78458692Y-97297635D01*
X78678496Y-97238739D01*
X78884734Y-97142568D01*
X79071139Y-97012047D01*
X79232047Y-96851139D01*
X79362568Y-96664734D01*
X79389618Y-96606724D01*
X79435790Y-96554285D01*
X79502983Y-96535133D01*
X79569865Y-96555348D01*
X79614382Y-96606725D01*
X79641429Y-96664728D01*
X79641432Y-96664734D01*
X79771954Y-96851141D01*
X79932858Y-97012045D01*
X79932861Y-97012047D01*
X80119266Y-97142568D01*
X80325504Y-97238739D01*
X80545308Y-97297635D01*
X80707230Y-97311801D01*
X80771998Y-97317468D01*
X80772000Y-97317468D01*
X80772002Y-97317468D01*
X80828807Y-97312498D01*
X80998692Y-97297635D01*
X81218496Y-97238739D01*
X81424734Y-97142568D01*
X81611139Y-97012047D01*
X81772047Y-96851139D01*
X81902568Y-96664734D01*
X81929618Y-96606724D01*
X81975790Y-96554285D01*
X82042983Y-96535133D01*
X82109865Y-96555348D01*
X82154382Y-96606725D01*
X82181429Y-96664728D01*
X82181432Y-96664734D01*
X82311954Y-96851141D01*
X82472858Y-97012045D01*
X82472861Y-97012047D01*
X82659266Y-97142568D01*
X82865504Y-97238739D01*
X83085308Y-97297635D01*
X83247230Y-97311801D01*
X83311998Y-97317468D01*
X83312000Y-97317468D01*
X83312002Y-97317468D01*
X83368807Y-97312498D01*
X83538692Y-97297635D01*
X83758496Y-97238739D01*
X83964734Y-97142568D01*
X84151139Y-97012047D01*
X84312047Y-96851139D01*
X84442568Y-96664734D01*
X84469618Y-96606724D01*
X84515790Y-96554285D01*
X84582983Y-96535133D01*
X84649865Y-96555348D01*
X84694382Y-96606725D01*
X84721429Y-96664728D01*
X84721432Y-96664734D01*
X84851954Y-96851141D01*
X85012858Y-97012045D01*
X85012861Y-97012047D01*
X85199266Y-97142568D01*
X85405504Y-97238739D01*
X85625308Y-97297635D01*
X85787230Y-97311801D01*
X85851998Y-97317468D01*
X85852000Y-97317468D01*
X85852002Y-97317468D01*
X85908807Y-97312498D01*
X86078692Y-97297635D01*
X86298496Y-97238739D01*
X86504734Y-97142568D01*
X86691139Y-97012047D01*
X86852047Y-96851139D01*
X86982568Y-96664734D01*
X87009618Y-96606724D01*
X87055790Y-96554285D01*
X87122983Y-96535133D01*
X87189865Y-96555348D01*
X87234382Y-96606725D01*
X87261429Y-96664728D01*
X87261432Y-96664734D01*
X87391954Y-96851141D01*
X87552858Y-97012045D01*
X87552861Y-97012047D01*
X87739266Y-97142568D01*
X87945504Y-97238739D01*
X88165308Y-97297635D01*
X88327230Y-97311801D01*
X88391998Y-97317468D01*
X88392000Y-97317468D01*
X88392002Y-97317468D01*
X88448807Y-97312498D01*
X88618692Y-97297635D01*
X88838496Y-97238739D01*
X89044734Y-97142568D01*
X89231139Y-97012047D01*
X89392047Y-96851139D01*
X89522568Y-96664734D01*
X89549618Y-96606724D01*
X89595790Y-96554285D01*
X89662983Y-96535133D01*
X89729865Y-96555348D01*
X89774382Y-96606725D01*
X89801429Y-96664728D01*
X89801432Y-96664734D01*
X89931954Y-96851141D01*
X90092858Y-97012045D01*
X90092861Y-97012047D01*
X90279266Y-97142568D01*
X90485504Y-97238739D01*
X90705308Y-97297635D01*
X90867230Y-97311801D01*
X90931998Y-97317468D01*
X90932000Y-97317468D01*
X90932002Y-97317468D01*
X90988807Y-97312498D01*
X91158692Y-97297635D01*
X91378496Y-97238739D01*
X91584734Y-97142568D01*
X91771139Y-97012047D01*
X91932047Y-96851139D01*
X92062568Y-96664734D01*
X92089618Y-96606724D01*
X92135790Y-96554285D01*
X92202983Y-96535133D01*
X92269865Y-96555348D01*
X92314382Y-96606725D01*
X92341429Y-96664728D01*
X92341432Y-96664734D01*
X92471954Y-96851141D01*
X92632858Y-97012045D01*
X92632861Y-97012047D01*
X92818624Y-97142118D01*
X92862248Y-97196693D01*
X92871500Y-97243692D01*
X92871500Y-98223587D01*
X92851815Y-98290626D01*
X92844450Y-98300896D01*
X92842186Y-98303734D01*
X92746211Y-98456476D01*
X92686631Y-98626745D01*
X92686630Y-98626750D01*
X92666435Y-98805996D01*
X92666435Y-98806003D01*
X92686630Y-98985249D01*
X92686631Y-98985254D01*
X92746211Y-99155523D01*
X92830974Y-99290422D01*
X92842184Y-99308262D01*
X92969738Y-99435816D01*
X93122478Y-99531789D01*
X93279079Y-99586586D01*
X93292745Y-99591368D01*
X93292750Y-99591369D01*
X93471996Y-99611565D01*
X93472000Y-99611565D01*
X93472004Y-99611565D01*
X93651249Y-99591369D01*
X93651252Y-99591368D01*
X93651255Y-99591368D01*
X93821522Y-99531789D01*
X93974262Y-99435816D01*
X94101816Y-99308262D01*
X94197789Y-99155522D01*
X94257368Y-98985255D01*
X94261273Y-98950597D01*
X94277565Y-98806003D01*
X94277565Y-98805996D01*
X94257369Y-98626750D01*
X94257368Y-98626745D01*
X94223041Y-98528645D01*
X94197789Y-98456478D01*
X94188381Y-98441506D01*
X94101813Y-98303734D01*
X94099550Y-98300896D01*
X94098659Y-98298715D01*
X94098111Y-98297842D01*
X94098264Y-98297745D01*
X94073144Y-98236209D01*
X94072500Y-98223587D01*
X94072500Y-97243692D01*
X94092185Y-97176653D01*
X94125374Y-97142119D01*
X94311139Y-97012047D01*
X94472047Y-96851139D01*
X94602568Y-96664734D01*
X94629618Y-96606724D01*
X94675790Y-96554285D01*
X94742983Y-96535133D01*
X94809865Y-96555348D01*
X94854382Y-96606725D01*
X94881429Y-96664728D01*
X94881432Y-96664734D01*
X95011954Y-96851141D01*
X95172858Y-97012045D01*
X95172861Y-97012047D01*
X95358624Y-97142118D01*
X95402248Y-97196693D01*
X95411500Y-97243692D01*
X95411500Y-97461587D01*
X95391815Y-97528626D01*
X95384450Y-97538896D01*
X95382186Y-97541734D01*
X95286211Y-97694476D01*
X95226631Y-97864745D01*
X95226630Y-97864750D01*
X95206435Y-98043996D01*
X95206435Y-98044003D01*
X95226630Y-98223249D01*
X95226631Y-98223254D01*
X95286211Y-98393523D01*
X95344908Y-98486938D01*
X95382184Y-98546262D01*
X95509738Y-98673816D01*
X95599005Y-98729906D01*
X95662458Y-98769777D01*
X95662478Y-98769789D01*
X95832714Y-98829357D01*
X95832745Y-98829368D01*
X95832750Y-98829369D01*
X96011996Y-98849565D01*
X96012000Y-98849565D01*
X96012004Y-98849565D01*
X96191249Y-98829369D01*
X96191252Y-98829368D01*
X96191255Y-98829368D01*
X96361522Y-98769789D01*
X96514262Y-98673816D01*
X96641816Y-98546262D01*
X96737789Y-98393522D01*
X96797368Y-98223255D01*
X96797369Y-98223249D01*
X96817565Y-98044003D01*
X96817565Y-98043996D01*
X96797369Y-97864750D01*
X96797368Y-97864745D01*
X96778700Y-97811395D01*
X96737789Y-97694478D01*
X96641816Y-97541738D01*
X96641814Y-97541736D01*
X96641813Y-97541734D01*
X96639550Y-97538896D01*
X96638659Y-97536715D01*
X96638111Y-97535842D01*
X96638264Y-97535745D01*
X96613144Y-97474209D01*
X96612500Y-97461587D01*
X96612500Y-97243692D01*
X96632185Y-97176653D01*
X96665374Y-97142119D01*
X96851139Y-97012047D01*
X97012047Y-96851139D01*
X97142568Y-96664734D01*
X97169618Y-96606724D01*
X97215790Y-96554285D01*
X97282983Y-96535133D01*
X97349865Y-96555348D01*
X97394382Y-96606725D01*
X97421429Y-96664728D01*
X97421432Y-96664734D01*
X97551954Y-96851141D01*
X97712858Y-97012045D01*
X97712861Y-97012047D01*
X97899266Y-97142568D01*
X98105504Y-97238739D01*
X98325308Y-97297635D01*
X98487230Y-97311801D01*
X98551998Y-97317468D01*
X98552000Y-97317468D01*
X98552002Y-97317468D01*
X98608807Y-97312498D01*
X98778692Y-97297635D01*
X98998496Y-97238739D01*
X99204734Y-97142568D01*
X99391139Y-97012047D01*
X99552047Y-96851139D01*
X99682568Y-96664734D01*
X99709618Y-96606724D01*
X99755790Y-96554285D01*
X99822983Y-96535133D01*
X99889865Y-96555348D01*
X99934382Y-96606725D01*
X99961429Y-96664728D01*
X99961432Y-96664734D01*
X100091954Y-96851141D01*
X100252858Y-97012045D01*
X100252861Y-97012047D01*
X100439266Y-97142568D01*
X100645504Y-97238739D01*
X100865308Y-97297635D01*
X101027230Y-97311801D01*
X101091998Y-97317468D01*
X101092000Y-97317468D01*
X101092002Y-97317468D01*
X101148807Y-97312498D01*
X101318692Y-97297635D01*
X101538496Y-97238739D01*
X101744734Y-97142568D01*
X101931139Y-97012047D01*
X102092047Y-96851139D01*
X102222568Y-96664734D01*
X102249618Y-96606724D01*
X102295790Y-96554285D01*
X102362983Y-96535133D01*
X102429865Y-96555348D01*
X102474382Y-96606725D01*
X102501429Y-96664728D01*
X102501432Y-96664734D01*
X102631954Y-96851141D01*
X102792858Y-97012045D01*
X102792861Y-97012047D01*
X102978624Y-97142118D01*
X103022248Y-97196693D01*
X103031500Y-97243692D01*
X103031500Y-98532908D01*
X103011815Y-98599947D01*
X102959914Y-98645286D01*
X102954173Y-98647963D01*
X102954169Y-98647965D01*
X102760600Y-98783503D01*
X102638284Y-98905819D01*
X102576961Y-98939303D01*
X102507269Y-98934319D01*
X102451336Y-98892447D01*
X102434421Y-98861470D01*
X102385354Y-98729913D01*
X102385350Y-98729906D01*
X102299190Y-98614812D01*
X102299187Y-98614809D01*
X102184093Y-98528649D01*
X102184086Y-98528645D01*
X102049379Y-98478403D01*
X102049372Y-98478401D01*
X101989844Y-98472000D01*
X101342000Y-98472000D01*
X101342000Y-99388988D01*
X101284993Y-99356075D01*
X101157826Y-99322000D01*
X101026174Y-99322000D01*
X100899007Y-99356075D01*
X100842000Y-99388988D01*
X100842000Y-98472000D01*
X100194155Y-98472000D01*
X100134627Y-98478401D01*
X100134620Y-98478403D01*
X99999913Y-98528645D01*
X99999906Y-98528649D01*
X99884812Y-98614809D01*
X99884809Y-98614812D01*
X99798649Y-98729906D01*
X99798645Y-98729913D01*
X99748403Y-98864620D01*
X99748401Y-98864627D01*
X99742000Y-98924155D01*
X99742000Y-99572000D01*
X100658988Y-99572000D01*
X100626075Y-99629007D01*
X100592000Y-99756174D01*
X100592000Y-99887826D01*
X100626075Y-100014993D01*
X100658988Y-100072000D01*
X99742000Y-100072000D01*
X99742000Y-100719844D01*
X99748401Y-100779372D01*
X99748403Y-100779379D01*
X99798645Y-100914086D01*
X99798649Y-100914093D01*
X99884809Y-101029187D01*
X99884812Y-101029190D01*
X99999906Y-101115350D01*
X99999913Y-101115354D01*
X100134620Y-101165596D01*
X100134627Y-101165598D01*
X100194155Y-101171999D01*
X100194172Y-101172000D01*
X100842000Y-101172000D01*
X100842000Y-100255012D01*
X100899007Y-100287925D01*
X101026174Y-100322000D01*
X101157826Y-100322000D01*
X101284993Y-100287925D01*
X101342000Y-100255012D01*
X101342000Y-101172000D01*
X101989828Y-101172000D01*
X101989844Y-101171999D01*
X102049372Y-101165598D01*
X102049379Y-101165596D01*
X102184086Y-101115354D01*
X102184093Y-101115350D01*
X102299187Y-101029190D01*
X102299190Y-101029187D01*
X102385350Y-100914093D01*
X102385354Y-100914086D01*
X102434422Y-100782529D01*
X102476293Y-100726595D01*
X102541757Y-100702178D01*
X102610030Y-100717030D01*
X102638285Y-100738181D01*
X102760599Y-100860495D01*
X102837135Y-100914086D01*
X102954165Y-100996032D01*
X102954167Y-100996033D01*
X102954170Y-100996035D01*
X103168337Y-101095903D01*
X103396592Y-101157063D01*
X103567319Y-101172000D01*
X103631999Y-101177659D01*
X103632000Y-101177659D01*
X103632001Y-101177659D01*
X103696681Y-101172000D01*
X103867408Y-101157063D01*
X104095663Y-101095903D01*
X104309830Y-100996035D01*
X104503401Y-100860495D01*
X104670495Y-100693401D01*
X104800425Y-100507842D01*
X104855002Y-100464217D01*
X104924500Y-100457023D01*
X104986855Y-100488546D01*
X105003575Y-100507842D01*
X105133500Y-100693395D01*
X105133505Y-100693401D01*
X105300599Y-100860495D01*
X105377135Y-100914086D01*
X105494165Y-100996032D01*
X105494167Y-100996033D01*
X105494170Y-100996035D01*
X105708337Y-101095903D01*
X105936592Y-101157063D01*
X106107319Y-101172000D01*
X106171999Y-101177659D01*
X106172000Y-101177659D01*
X106172001Y-101177659D01*
X106236681Y-101172000D01*
X106407408Y-101157063D01*
X106635663Y-101095903D01*
X106849830Y-100996035D01*
X107043401Y-100860495D01*
X107210495Y-100693401D01*
X107346035Y-100499830D01*
X107445903Y-100285663D01*
X107507063Y-100057408D01*
X107527659Y-99822000D01*
X107507063Y-99586592D01*
X107445903Y-99358337D01*
X107346035Y-99144171D01*
X107278060Y-99047091D01*
X107210494Y-98950597D01*
X107043402Y-98783506D01*
X107043395Y-98783501D01*
X107023812Y-98769789D01*
X106966854Y-98729906D01*
X106849834Y-98647967D01*
X106849830Y-98647965D01*
X106804334Y-98626750D01*
X106635663Y-98548097D01*
X106635659Y-98548096D01*
X106635655Y-98548094D01*
X106407413Y-98486938D01*
X106407403Y-98486936D01*
X106172001Y-98466341D01*
X106171999Y-98466341D01*
X105936596Y-98486936D01*
X105936583Y-98486939D01*
X105828592Y-98515874D01*
X105758742Y-98514211D01*
X105700880Y-98475048D01*
X105673377Y-98410819D01*
X105672500Y-98396099D01*
X105672500Y-97386136D01*
X105692185Y-97319097D01*
X105744989Y-97273342D01*
X105814147Y-97263398D01*
X105828582Y-97266358D01*
X105945308Y-97297635D01*
X106107230Y-97311801D01*
X106171998Y-97317468D01*
X106172000Y-97317468D01*
X106172002Y-97317468D01*
X106228807Y-97312498D01*
X106398692Y-97297635D01*
X106618496Y-97238739D01*
X106824734Y-97142568D01*
X107011139Y-97012047D01*
X107172047Y-96851139D01*
X107302568Y-96664734D01*
X107329618Y-96606724D01*
X107375790Y-96554285D01*
X107442983Y-96535133D01*
X107509865Y-96555348D01*
X107554382Y-96606725D01*
X107581429Y-96664728D01*
X107581432Y-96664734D01*
X107711954Y-96851141D01*
X107872858Y-97012045D01*
X107872861Y-97012047D01*
X108059266Y-97142568D01*
X108265504Y-97238739D01*
X108485308Y-97297635D01*
X108647230Y-97311801D01*
X108711998Y-97317468D01*
X108712000Y-97317468D01*
X108712002Y-97317468D01*
X108768807Y-97312498D01*
X108938692Y-97297635D01*
X109158496Y-97238739D01*
X109364734Y-97142568D01*
X109551139Y-97012047D01*
X109712047Y-96851139D01*
X109842568Y-96664734D01*
X109869618Y-96606724D01*
X109915790Y-96554285D01*
X109982983Y-96535133D01*
X110049865Y-96555348D01*
X110094382Y-96606725D01*
X110121429Y-96664728D01*
X110121432Y-96664734D01*
X110251954Y-96851141D01*
X110412858Y-97012045D01*
X110412861Y-97012047D01*
X110599266Y-97142568D01*
X110805504Y-97238739D01*
X111025308Y-97297635D01*
X111187230Y-97311801D01*
X111251998Y-97317468D01*
X111252000Y-97317468D01*
X111252002Y-97317468D01*
X111308807Y-97312498D01*
X111478692Y-97297635D01*
X111698496Y-97238739D01*
X111872095Y-97157788D01*
X111941173Y-97147296D01*
X112004957Y-97175816D01*
X112043196Y-97234292D01*
X112048500Y-97270170D01*
X112048500Y-99874587D01*
X112028815Y-99941626D01*
X112021450Y-99951896D01*
X112019186Y-99954734D01*
X111923211Y-100107476D01*
X111863631Y-100277745D01*
X111863630Y-100277750D01*
X111843435Y-100456996D01*
X111843435Y-100457003D01*
X111863630Y-100636249D01*
X111863631Y-100636254D01*
X111923211Y-100806523D01*
X111957126Y-100860498D01*
X112019184Y-100959262D01*
X112146738Y-101086816D01*
X112192150Y-101115350D01*
X112291313Y-101177659D01*
X112299478Y-101182789D01*
X112469745Y-101242368D01*
X112469750Y-101242369D01*
X112648996Y-101262565D01*
X112649000Y-101262565D01*
X112649004Y-101262565D01*
X112828249Y-101242369D01*
X112828252Y-101242368D01*
X112828255Y-101242368D01*
X112998522Y-101182789D01*
X113151262Y-101086816D01*
X113278816Y-100959262D01*
X113374789Y-100806522D01*
X113434368Y-100636255D01*
X113447636Y-100518498D01*
X113454565Y-100457003D01*
X113454565Y-100456996D01*
X113434369Y-100277750D01*
X113434368Y-100277745D01*
X113374788Y-100107476D01*
X113316677Y-100014993D01*
X113278816Y-99954738D01*
X113278814Y-99954736D01*
X113278813Y-99954734D01*
X113276550Y-99951896D01*
X113275659Y-99949715D01*
X113275111Y-99948842D01*
X113275264Y-99948745D01*
X113250144Y-99887209D01*
X113249500Y-99874587D01*
X113249500Y-97374614D01*
X113269185Y-97307575D01*
X113321989Y-97261820D01*
X113391147Y-97251876D01*
X113405578Y-97254835D01*
X113565308Y-97297635D01*
X113727230Y-97311801D01*
X113791998Y-97317468D01*
X113792000Y-97317468D01*
X113792002Y-97317468D01*
X113848807Y-97312498D01*
X114018692Y-97297635D01*
X114238496Y-97238739D01*
X114285098Y-97217007D01*
X114354174Y-97206515D01*
X114417958Y-97235034D01*
X114456199Y-97293510D01*
X114461503Y-97329389D01*
X114461503Y-97461576D01*
X114441818Y-97528615D01*
X114434453Y-97538885D01*
X114432189Y-97541723D01*
X114336214Y-97694465D01*
X114276634Y-97864734D01*
X114276633Y-97864739D01*
X114256438Y-98043985D01*
X114256438Y-98043992D01*
X114276633Y-98223238D01*
X114276634Y-98223243D01*
X114336214Y-98393512D01*
X114394918Y-98486938D01*
X114432187Y-98546251D01*
X114559741Y-98673805D01*
X114712481Y-98769778D01*
X114805055Y-98802171D01*
X114882748Y-98829357D01*
X114882753Y-98829358D01*
X115061999Y-98849554D01*
X115062003Y-98849554D01*
X115062007Y-98849554D01*
X115241252Y-98829358D01*
X115241255Y-98829357D01*
X115241258Y-98829357D01*
X115411525Y-98769778D01*
X115564265Y-98673805D01*
X115691819Y-98546251D01*
X115787792Y-98393511D01*
X115847371Y-98223244D01*
X115847372Y-98223238D01*
X115867568Y-98043992D01*
X115867568Y-98043985D01*
X115847372Y-97864739D01*
X115847371Y-97864734D01*
X115790354Y-97701790D01*
X115787792Y-97694467D01*
X115691819Y-97541727D01*
X115691817Y-97541725D01*
X115691816Y-97541723D01*
X115689553Y-97538885D01*
X115688662Y-97536704D01*
X115688114Y-97535831D01*
X115688267Y-97535734D01*
X115663147Y-97474198D01*
X115662503Y-97461576D01*
X115662503Y-97329392D01*
X115682188Y-97262353D01*
X115734992Y-97216598D01*
X115804150Y-97206654D01*
X115838901Y-97217007D01*
X115885504Y-97238739D01*
X116105308Y-97297635D01*
X116267230Y-97311801D01*
X116331998Y-97317468D01*
X116332000Y-97317468D01*
X116332002Y-97317468D01*
X116388807Y-97312498D01*
X116558692Y-97297635D01*
X116778496Y-97238739D01*
X116825096Y-97217008D01*
X116894172Y-97206517D01*
X116957956Y-97235036D01*
X116996196Y-97293513D01*
X117001500Y-97329391D01*
X117001500Y-99239587D01*
X116981815Y-99306626D01*
X116974450Y-99316896D01*
X116972186Y-99319734D01*
X116876211Y-99472476D01*
X116816631Y-99642745D01*
X116816630Y-99642750D01*
X116796435Y-99821996D01*
X116796435Y-99822003D01*
X116816630Y-100001249D01*
X116816631Y-100001254D01*
X116876211Y-100171523D01*
X116947931Y-100285664D01*
X116972184Y-100324262D01*
X117099738Y-100451816D01*
X117252478Y-100547789D01*
X117422745Y-100607368D01*
X117422750Y-100607369D01*
X117601996Y-100627565D01*
X117602000Y-100627565D01*
X117602004Y-100627565D01*
X117781249Y-100607369D01*
X117781252Y-100607368D01*
X117781255Y-100607368D01*
X117951522Y-100547789D01*
X118104262Y-100451816D01*
X118231816Y-100324262D01*
X118327789Y-100171522D01*
X118387368Y-100001255D01*
X118392914Y-99952032D01*
X118407565Y-99822003D01*
X118407565Y-99821996D01*
X118387369Y-99642750D01*
X118387368Y-99642745D01*
X118348542Y-99531788D01*
X118327789Y-99472478D01*
X118231816Y-99319738D01*
X118231814Y-99319736D01*
X118231813Y-99319734D01*
X118229550Y-99316896D01*
X118228659Y-99314715D01*
X118228111Y-99313842D01*
X118228264Y-99313745D01*
X118203144Y-99252209D01*
X118202500Y-99239587D01*
X118202500Y-97329391D01*
X118222185Y-97262352D01*
X118274989Y-97216597D01*
X118344147Y-97206653D01*
X118378902Y-97217008D01*
X118425504Y-97238739D01*
X118645308Y-97297635D01*
X118807230Y-97311801D01*
X118871998Y-97317468D01*
X118872000Y-97317468D01*
X118872002Y-97317468D01*
X118928807Y-97312498D01*
X119098692Y-97297635D01*
X119318496Y-97238739D01*
X119524734Y-97142568D01*
X119711139Y-97012047D01*
X119872047Y-96851139D01*
X119889272Y-96826539D01*
X119943848Y-96782913D01*
X120013346Y-96775718D01*
X120075701Y-96807239D01*
X120111116Y-96867468D01*
X120114138Y-96884406D01*
X120117908Y-96919483D01*
X120168202Y-97054328D01*
X120168206Y-97054335D01*
X120254452Y-97169544D01*
X120254455Y-97169547D01*
X120369664Y-97255793D01*
X120369671Y-97255797D01*
X120504517Y-97306091D01*
X120504516Y-97306091D01*
X120511444Y-97306835D01*
X120564127Y-97312500D01*
X122259872Y-97312499D01*
X122319483Y-97306091D01*
X122454331Y-97255796D01*
X122569546Y-97169546D01*
X122655796Y-97054331D01*
X122706091Y-96919483D01*
X122712500Y-96859873D01*
X122712499Y-95164128D01*
X122706091Y-95104517D01*
X122696137Y-95077830D01*
X122655797Y-94969671D01*
X122655793Y-94969664D01*
X122569547Y-94854455D01*
X122569544Y-94854452D01*
X122454335Y-94768206D01*
X122454328Y-94768202D01*
X122319482Y-94717908D01*
X122319483Y-94717908D01*
X122259883Y-94711501D01*
X122259881Y-94711500D01*
X122259873Y-94711500D01*
X122259865Y-94711500D01*
X122136500Y-94711500D01*
X122069461Y-94691815D01*
X122023706Y-94639011D01*
X122012500Y-94587500D01*
X122012500Y-91768422D01*
X122032185Y-91701383D01*
X122039555Y-91691107D01*
X122041818Y-91688267D01*
X122041824Y-91688262D01*
X122137797Y-91535522D01*
X122197376Y-91365255D01*
X122206482Y-91284435D01*
X122217573Y-91186003D01*
X122217573Y-91185996D01*
X122197377Y-91006750D01*
X122197376Y-91006745D01*
X122179472Y-90955578D01*
X122137797Y-90836478D01*
X122128389Y-90821506D01*
X122041823Y-90683737D01*
X121914270Y-90556184D01*
X121761531Y-90460211D01*
X121591262Y-90400631D01*
X121591257Y-90400630D01*
X121412012Y-90380435D01*
X121412004Y-90380435D01*
X121232758Y-90400630D01*
X121232753Y-90400631D01*
X121062484Y-90460211D01*
X120909745Y-90556184D01*
X120782192Y-90683737D01*
X120686219Y-90836476D01*
X120626639Y-91006745D01*
X120626638Y-91006750D01*
X120606443Y-91185996D01*
X120606443Y-91186003D01*
X120626638Y-91365249D01*
X120626639Y-91365254D01*
X120686219Y-91535523D01*
X120742182Y-91624586D01*
X120758711Y-91650893D01*
X120782193Y-91688263D01*
X120784445Y-91691087D01*
X120785331Y-91693257D01*
X120785897Y-91694158D01*
X120785739Y-91694257D01*
X120810855Y-91755773D01*
X120811500Y-91768402D01*
X120811500Y-94587500D01*
X120791815Y-94654539D01*
X120739011Y-94700294D01*
X120687501Y-94711500D01*
X120564130Y-94711500D01*
X120564123Y-94711501D01*
X120504516Y-94717908D01*
X120369671Y-94768202D01*
X120369664Y-94768206D01*
X120254455Y-94854452D01*
X120254452Y-94854455D01*
X120168206Y-94969664D01*
X120168202Y-94969671D01*
X120117908Y-95104516D01*
X120114137Y-95139596D01*
X120087398Y-95204146D01*
X120030006Y-95243994D01*
X119960180Y-95246487D01*
X119900092Y-95210834D01*
X119889273Y-95197462D01*
X119872045Y-95172858D01*
X119711141Y-95011954D01*
X119524734Y-94881432D01*
X119524732Y-94881431D01*
X119318497Y-94785261D01*
X119318488Y-94785258D01*
X119098697Y-94726366D01*
X119098693Y-94726365D01*
X119098692Y-94726365D01*
X119098691Y-94726364D01*
X119098686Y-94726364D01*
X118872002Y-94706532D01*
X118871998Y-94706532D01*
X118645313Y-94726364D01*
X118645302Y-94726366D01*
X118425511Y-94785258D01*
X118425506Y-94785260D01*
X118378904Y-94806991D01*
X118309826Y-94817482D01*
X118246042Y-94788961D01*
X118207803Y-94730484D01*
X118202500Y-94694608D01*
X118202500Y-82342096D01*
X118222185Y-82275057D01*
X118238815Y-82254419D01*
X118429294Y-82063939D01*
X118490615Y-82030456D01*
X118549066Y-82031847D01*
X118568604Y-82037082D01*
X118645308Y-82057635D01*
X118807230Y-82071801D01*
X118871998Y-82077468D01*
X118872000Y-82077468D01*
X118872002Y-82077468D01*
X118928673Y-82072509D01*
X119098692Y-82057635D01*
X119318496Y-81998739D01*
X119524734Y-81902568D01*
X119711139Y-81772047D01*
X119872047Y-81611139D01*
X120002568Y-81424734D01*
X120029618Y-81366724D01*
X120075790Y-81314285D01*
X120142983Y-81295133D01*
X120209865Y-81315348D01*
X120254382Y-81366725D01*
X120281429Y-81424728D01*
X120281432Y-81424734D01*
X120411954Y-81611141D01*
X120572858Y-81772045D01*
X120572861Y-81772047D01*
X120759266Y-81902568D01*
X120965504Y-81998739D01*
X121185308Y-82057635D01*
X121347230Y-82071801D01*
X121411998Y-82077468D01*
X121412000Y-82077468D01*
X121412002Y-82077468D01*
X121468673Y-82072509D01*
X121638692Y-82057635D01*
X121858496Y-81998739D01*
X122064734Y-81902568D01*
X122251139Y-81772047D01*
X122412047Y-81611139D01*
X122542568Y-81424734D01*
X122638739Y-81218496D01*
X122697635Y-80998692D01*
X122717468Y-80772000D01*
X122716532Y-80761306D01*
X122707801Y-80661505D01*
X122697635Y-80545308D01*
X122638739Y-80325504D01*
X122542568Y-80119266D01*
X122412047Y-79932861D01*
X122412045Y-79932858D01*
X122251141Y-79771954D01*
X122064734Y-79641432D01*
X122064732Y-79641431D01*
X121858497Y-79545261D01*
X121858488Y-79545258D01*
X121638697Y-79486366D01*
X121638693Y-79486365D01*
X121638692Y-79486365D01*
X121638691Y-79486364D01*
X121638686Y-79486364D01*
X121412002Y-79466532D01*
X121411998Y-79466532D01*
X121185313Y-79486364D01*
X121185302Y-79486366D01*
X120965511Y-79545258D01*
X120965502Y-79545261D01*
X120759267Y-79641431D01*
X120759265Y-79641432D01*
X120572858Y-79771954D01*
X120411954Y-79932858D01*
X120281432Y-80119265D01*
X120281431Y-80119267D01*
X120254382Y-80177275D01*
X120208209Y-80229714D01*
X120141016Y-80248866D01*
X120074135Y-80228650D01*
X120029618Y-80177275D01*
X120002568Y-80119267D01*
X120002567Y-80119265D01*
X119941045Y-80031402D01*
X119872047Y-79932861D01*
X119872045Y-79932858D01*
X119711141Y-79771954D01*
X119524734Y-79641432D01*
X119524732Y-79641431D01*
X119318497Y-79545261D01*
X119318488Y-79545258D01*
X119098697Y-79486366D01*
X119098693Y-79486365D01*
X119098692Y-79486365D01*
X119098691Y-79486364D01*
X119098686Y-79486364D01*
X118872002Y-79466532D01*
X118871998Y-79466532D01*
X118645313Y-79486364D01*
X118645302Y-79486366D01*
X118425511Y-79545258D01*
X118425502Y-79545261D01*
X118219267Y-79641431D01*
X118219265Y-79641432D01*
X118032858Y-79771954D01*
X117871954Y-79932858D01*
X117741432Y-80119265D01*
X117741431Y-80119267D01*
X117714382Y-80177275D01*
X117668209Y-80229714D01*
X117601016Y-80248866D01*
X117534135Y-80228650D01*
X117489618Y-80177275D01*
X117462568Y-80119267D01*
X117462567Y-80119265D01*
X117401045Y-80031402D01*
X117332047Y-79932861D01*
X117332045Y-79932858D01*
X117171141Y-79771954D01*
X116984734Y-79641432D01*
X116984732Y-79641431D01*
X116778497Y-79545261D01*
X116778488Y-79545258D01*
X116558697Y-79486366D01*
X116558693Y-79486365D01*
X116558692Y-79486365D01*
X116558691Y-79486364D01*
X116558686Y-79486364D01*
X116332002Y-79466532D01*
X116331998Y-79466532D01*
X116105313Y-79486364D01*
X116105302Y-79486366D01*
X115885511Y-79545258D01*
X115885502Y-79545261D01*
X115679267Y-79641431D01*
X115679265Y-79641432D01*
X115492858Y-79771954D01*
X115331954Y-79932858D01*
X115201432Y-80119265D01*
X115201431Y-80119267D01*
X115174382Y-80177275D01*
X115128209Y-80229714D01*
X115061016Y-80248866D01*
X114994135Y-80228650D01*
X114949618Y-80177275D01*
X114922568Y-80119267D01*
X114922567Y-80119265D01*
X114861045Y-80031402D01*
X114792047Y-79932861D01*
X114792045Y-79932858D01*
X114631141Y-79771954D01*
X114444734Y-79641432D01*
X114444732Y-79641431D01*
X114238497Y-79545261D01*
X114238488Y-79545258D01*
X114018697Y-79486366D01*
X114018693Y-79486365D01*
X114018692Y-79486365D01*
X114018691Y-79486364D01*
X114018686Y-79486364D01*
X113792002Y-79466532D01*
X113791998Y-79466532D01*
X113565313Y-79486364D01*
X113565302Y-79486366D01*
X113345511Y-79545258D01*
X113345502Y-79545261D01*
X113139267Y-79641431D01*
X113139265Y-79641432D01*
X112952858Y-79771954D01*
X112791954Y-79932858D01*
X112661432Y-80119265D01*
X112661431Y-80119267D01*
X112634382Y-80177275D01*
X112588209Y-80229714D01*
X112521016Y-80248866D01*
X112454135Y-80228650D01*
X112409618Y-80177275D01*
X112382568Y-80119267D01*
X112382567Y-80119265D01*
X112321045Y-80031402D01*
X112252047Y-79932861D01*
X112252045Y-79932858D01*
X112091141Y-79771954D01*
X111904734Y-79641432D01*
X111904732Y-79641431D01*
X111698497Y-79545261D01*
X111698488Y-79545258D01*
X111478697Y-79486366D01*
X111478693Y-79486365D01*
X111478692Y-79486365D01*
X111478691Y-79486364D01*
X111478686Y-79486364D01*
X111252002Y-79466532D01*
X111251998Y-79466532D01*
X111025313Y-79486364D01*
X111025302Y-79486366D01*
X110805511Y-79545258D01*
X110805502Y-79545261D01*
X110599267Y-79641431D01*
X110599265Y-79641432D01*
X110412858Y-79771954D01*
X110251954Y-79932858D01*
X110121432Y-80119265D01*
X110121431Y-80119267D01*
X110094382Y-80177275D01*
X110048209Y-80229714D01*
X109981016Y-80248866D01*
X109914135Y-80228650D01*
X109869618Y-80177275D01*
X109842568Y-80119267D01*
X109842567Y-80119265D01*
X109781045Y-80031402D01*
X109712047Y-79932861D01*
X109712045Y-79932858D01*
X109551141Y-79771954D01*
X109364734Y-79641432D01*
X109364732Y-79641431D01*
X109158497Y-79545261D01*
X109158488Y-79545258D01*
X108938697Y-79486366D01*
X108938693Y-79486365D01*
X108938692Y-79486365D01*
X108938691Y-79486364D01*
X108938686Y-79486364D01*
X108712002Y-79466532D01*
X108711998Y-79466532D01*
X108485313Y-79486364D01*
X108485302Y-79486366D01*
X108265511Y-79545258D01*
X108265502Y-79545261D01*
X108059267Y-79641431D01*
X108059265Y-79641432D01*
X107872858Y-79771954D01*
X107711954Y-79932858D01*
X107581432Y-80119265D01*
X107581431Y-80119267D01*
X107554382Y-80177275D01*
X107508209Y-80229714D01*
X107441016Y-80248866D01*
X107374135Y-80228650D01*
X107329618Y-80177275D01*
X107302568Y-80119267D01*
X107302567Y-80119265D01*
X107241045Y-80031402D01*
X107172047Y-79932861D01*
X107172045Y-79932858D01*
X107011141Y-79771954D01*
X106824734Y-79641432D01*
X106824732Y-79641431D01*
X106618497Y-79545261D01*
X106618488Y-79545258D01*
X106398697Y-79486366D01*
X106398693Y-79486365D01*
X106398692Y-79486365D01*
X106398691Y-79486364D01*
X106398686Y-79486364D01*
X106172002Y-79466532D01*
X106171998Y-79466532D01*
X105945313Y-79486364D01*
X105945302Y-79486366D01*
X105725511Y-79545258D01*
X105725502Y-79545261D01*
X105519267Y-79641431D01*
X105519265Y-79641432D01*
X105332858Y-79771954D01*
X105171954Y-79932858D01*
X105041432Y-80119265D01*
X105041431Y-80119267D01*
X105014382Y-80177275D01*
X104968209Y-80229714D01*
X104901016Y-80248866D01*
X104834135Y-80228650D01*
X104789618Y-80177275D01*
X104762568Y-80119267D01*
X104762567Y-80119265D01*
X104701045Y-80031402D01*
X104632047Y-79932861D01*
X104632045Y-79932858D01*
X104471141Y-79771954D01*
X104284734Y-79641432D01*
X104284732Y-79641431D01*
X104078497Y-79545261D01*
X104078488Y-79545258D01*
X103858697Y-79486366D01*
X103858693Y-79486365D01*
X103858692Y-79486365D01*
X103858691Y-79486364D01*
X103858686Y-79486364D01*
X103632002Y-79466532D01*
X103631998Y-79466532D01*
X103405313Y-79486364D01*
X103405302Y-79486366D01*
X103185511Y-79545258D01*
X103185502Y-79545261D01*
X102979267Y-79641431D01*
X102979265Y-79641432D01*
X102792858Y-79771954D01*
X102631954Y-79932858D01*
X102501432Y-80119265D01*
X102501431Y-80119267D01*
X102474382Y-80177275D01*
X102428209Y-80229714D01*
X102361016Y-80248866D01*
X102294135Y-80228650D01*
X102249618Y-80177275D01*
X102222568Y-80119267D01*
X102222567Y-80119265D01*
X102161045Y-80031402D01*
X102092047Y-79932861D01*
X102092045Y-79932858D01*
X101931141Y-79771954D01*
X101744734Y-79641432D01*
X101744732Y-79641431D01*
X101538497Y-79545261D01*
X101538488Y-79545258D01*
X101318697Y-79486366D01*
X101318693Y-79486365D01*
X101318692Y-79486365D01*
X101318691Y-79486364D01*
X101318686Y-79486364D01*
X101092002Y-79466532D01*
X101091998Y-79466532D01*
X100865313Y-79486364D01*
X100865302Y-79486366D01*
X100645511Y-79545258D01*
X100645502Y-79545261D01*
X100439267Y-79641431D01*
X100439265Y-79641432D01*
X100252858Y-79771954D01*
X100091954Y-79932858D01*
X99961432Y-80119265D01*
X99961431Y-80119267D01*
X99934382Y-80177275D01*
X99888209Y-80229714D01*
X99821016Y-80248866D01*
X99754135Y-80228650D01*
X99709618Y-80177275D01*
X99682568Y-80119267D01*
X99682567Y-80119265D01*
X99621045Y-80031402D01*
X99552047Y-79932861D01*
X99552045Y-79932858D01*
X99391141Y-79771954D01*
X99204734Y-79641432D01*
X99204732Y-79641431D01*
X98998497Y-79545261D01*
X98998488Y-79545258D01*
X98778697Y-79486366D01*
X98778693Y-79486365D01*
X98778692Y-79486365D01*
X98778691Y-79486364D01*
X98778686Y-79486364D01*
X98552002Y-79466532D01*
X98551998Y-79466532D01*
X98325313Y-79486364D01*
X98325302Y-79486366D01*
X98105511Y-79545258D01*
X98105502Y-79545261D01*
X97899267Y-79641431D01*
X97899265Y-79641432D01*
X97712858Y-79771954D01*
X97551954Y-79932858D01*
X97421432Y-80119265D01*
X97421431Y-80119267D01*
X97394382Y-80177275D01*
X97348209Y-80229714D01*
X97281016Y-80248866D01*
X97214135Y-80228650D01*
X97169618Y-80177275D01*
X97142568Y-80119267D01*
X97142567Y-80119265D01*
X97081045Y-80031402D01*
X97012047Y-79932861D01*
X97012045Y-79932858D01*
X96851141Y-79771954D01*
X96664734Y-79641432D01*
X96664732Y-79641431D01*
X96458497Y-79545261D01*
X96458488Y-79545258D01*
X96238697Y-79486366D01*
X96238693Y-79486365D01*
X96238692Y-79486365D01*
X96238691Y-79486364D01*
X96238686Y-79486364D01*
X96012002Y-79466532D01*
X96011998Y-79466532D01*
X95785313Y-79486364D01*
X95785302Y-79486366D01*
X95565511Y-79545258D01*
X95565502Y-79545261D01*
X95359267Y-79641431D01*
X95359265Y-79641432D01*
X95172858Y-79771954D01*
X95011954Y-79932858D01*
X94881432Y-80119265D01*
X94881431Y-80119267D01*
X94854382Y-80177275D01*
X94808209Y-80229714D01*
X94741016Y-80248866D01*
X94674135Y-80228650D01*
X94629618Y-80177275D01*
X94602568Y-80119267D01*
X94602567Y-80119265D01*
X94541045Y-80031402D01*
X94472047Y-79932861D01*
X94472045Y-79932858D01*
X94311141Y-79771954D01*
X94124734Y-79641432D01*
X94124732Y-79641431D01*
X93918497Y-79545261D01*
X93918488Y-79545258D01*
X93698697Y-79486366D01*
X93698693Y-79486365D01*
X93698692Y-79486365D01*
X93698691Y-79486364D01*
X93698686Y-79486364D01*
X93472002Y-79466532D01*
X93471998Y-79466532D01*
X93245313Y-79486364D01*
X93245302Y-79486366D01*
X93025511Y-79545258D01*
X93025502Y-79545261D01*
X92819267Y-79641431D01*
X92819265Y-79641432D01*
X92632858Y-79771954D01*
X92471954Y-79932858D01*
X92341432Y-80119265D01*
X92341431Y-80119267D01*
X92314382Y-80177275D01*
X92268209Y-80229714D01*
X92201016Y-80248866D01*
X92134135Y-80228650D01*
X92089618Y-80177275D01*
X92062568Y-80119267D01*
X92062567Y-80119265D01*
X92001045Y-80031402D01*
X91932047Y-79932861D01*
X91932045Y-79932858D01*
X91771141Y-79771954D01*
X91584734Y-79641432D01*
X91584732Y-79641431D01*
X91378497Y-79545261D01*
X91378488Y-79545258D01*
X91158697Y-79486366D01*
X91158693Y-79486365D01*
X91158692Y-79486365D01*
X91158691Y-79486364D01*
X91158686Y-79486364D01*
X90932002Y-79466532D01*
X90931998Y-79466532D01*
X90705313Y-79486364D01*
X90705302Y-79486366D01*
X90485511Y-79545258D01*
X90485502Y-79545262D01*
X90440266Y-79566356D01*
X90371188Y-79576848D01*
X90307404Y-79548328D01*
X90269165Y-79489852D01*
X90263861Y-79453974D01*
X90263861Y-71306412D01*
X90283546Y-71239373D01*
X90290916Y-71229097D01*
X90293171Y-71226267D01*
X90293177Y-71226262D01*
X90389150Y-71073522D01*
X90448729Y-70903255D01*
X90449781Y-70893918D01*
X90468926Y-70724003D01*
X90468926Y-70723996D01*
X90448730Y-70544750D01*
X90448729Y-70544745D01*
X90441826Y-70525018D01*
X90389150Y-70374478D01*
X90293177Y-70221738D01*
X90165623Y-70094184D01*
X90144052Y-70080630D01*
X90012884Y-69998211D01*
X89842615Y-69938631D01*
X89842610Y-69938630D01*
X89663365Y-69918435D01*
X89663357Y-69918435D01*
X89484111Y-69938630D01*
X89484106Y-69938631D01*
X89313837Y-69998211D01*
X89161098Y-70094184D01*
X89033545Y-70221737D01*
X88937572Y-70374476D01*
X88877992Y-70544745D01*
X88877991Y-70544750D01*
X88857796Y-70723996D01*
X88857796Y-70724003D01*
X88877991Y-70903249D01*
X88877992Y-70903254D01*
X88937572Y-71073523D01*
X88939345Y-71076344D01*
X89033066Y-71225500D01*
X89033546Y-71226263D01*
X89035806Y-71229097D01*
X89036695Y-71231275D01*
X89037250Y-71232158D01*
X89037095Y-71232255D01*
X89062216Y-71293783D01*
X89062861Y-71306412D01*
X89062861Y-79455243D01*
X89043176Y-79522282D01*
X88990372Y-79568037D01*
X88921214Y-79577981D01*
X88886457Y-79567625D01*
X88838502Y-79545263D01*
X88838488Y-79545258D01*
X88618697Y-79486366D01*
X88618693Y-79486365D01*
X88618692Y-79486365D01*
X88618691Y-79486364D01*
X88618686Y-79486364D01*
X88392002Y-79466532D01*
X88391998Y-79466532D01*
X88165313Y-79486364D01*
X88165302Y-79486366D01*
X87945511Y-79545258D01*
X87945502Y-79545261D01*
X87739267Y-79641431D01*
X87739265Y-79641432D01*
X87552858Y-79771954D01*
X87391954Y-79932858D01*
X87261432Y-80119265D01*
X87261431Y-80119267D01*
X87234382Y-80177275D01*
X87188209Y-80229714D01*
X87121016Y-80248866D01*
X87054135Y-80228650D01*
X87009618Y-80177275D01*
X86982568Y-80119267D01*
X86982567Y-80119265D01*
X86921045Y-80031402D01*
X86852047Y-79932861D01*
X86852045Y-79932858D01*
X86691141Y-79771954D01*
X86504734Y-79641432D01*
X86504732Y-79641431D01*
X86298497Y-79545261D01*
X86298488Y-79545258D01*
X86078697Y-79486366D01*
X86078693Y-79486365D01*
X86078692Y-79486365D01*
X86078691Y-79486364D01*
X86078686Y-79486364D01*
X85852002Y-79466532D01*
X85851998Y-79466532D01*
X85625313Y-79486364D01*
X85625302Y-79486366D01*
X85405511Y-79545258D01*
X85405502Y-79545261D01*
X85199267Y-79641431D01*
X85199265Y-79641432D01*
X85012858Y-79771954D01*
X84851954Y-79932858D01*
X84721432Y-80119265D01*
X84721431Y-80119267D01*
X84694382Y-80177275D01*
X84648209Y-80229714D01*
X84581016Y-80248866D01*
X84514135Y-80228650D01*
X84469618Y-80177275D01*
X84442568Y-80119267D01*
X84442567Y-80119265D01*
X84381045Y-80031402D01*
X84312047Y-79932861D01*
X84312045Y-79932858D01*
X84151141Y-79771954D01*
X83964734Y-79641432D01*
X83964732Y-79641431D01*
X83758497Y-79545261D01*
X83758488Y-79545258D01*
X83538697Y-79486366D01*
X83538693Y-79486365D01*
X83538692Y-79486365D01*
X83538691Y-79486364D01*
X83538686Y-79486364D01*
X83312002Y-79466532D01*
X83311998Y-79466532D01*
X83085313Y-79486364D01*
X83085302Y-79486366D01*
X82865511Y-79545258D01*
X82865497Y-79545263D01*
X82818903Y-79566991D01*
X82749826Y-79577483D01*
X82686042Y-79548963D01*
X82647803Y-79490486D01*
X82642499Y-79454609D01*
X82642499Y-78321059D01*
X82642500Y-78321046D01*
X82642500Y-78152944D01*
X82642500Y-78152942D01*
X82601576Y-78000214D01*
X82540197Y-77893903D01*
X82522519Y-77863283D01*
X82410715Y-77751479D01*
X82410714Y-77751478D01*
X82406384Y-77747148D01*
X82406373Y-77747138D01*
X82104766Y-77445531D01*
X82071281Y-77384208D01*
X82072672Y-77325757D01*
X82080155Y-77297830D01*
X82107063Y-77197408D01*
X82127659Y-76962000D01*
X82107063Y-76726592D01*
X82045903Y-76498337D01*
X81946035Y-76284171D01*
X81940425Y-76276158D01*
X81810494Y-76090597D01*
X81643402Y-75923506D01*
X81643395Y-75923501D01*
X81449831Y-75787965D01*
X81449826Y-75787962D01*
X81444091Y-75785288D01*
X81391653Y-75739113D01*
X81372500Y-75672908D01*
X81372500Y-69582407D01*
X81392185Y-69515368D01*
X81399555Y-69505092D01*
X81401806Y-69502267D01*
X81401812Y-69502262D01*
X81497785Y-69349522D01*
X81557364Y-69179255D01*
X81557844Y-69174998D01*
X81577561Y-69000003D01*
X81577561Y-68999999D01*
X143104341Y-68999999D01*
X143104341Y-69000000D01*
X143124936Y-69235403D01*
X143124938Y-69235413D01*
X143186094Y-69463655D01*
X143186096Y-69463659D01*
X143186097Y-69463663D01*
X143266004Y-69635023D01*
X143285965Y-69677830D01*
X143285967Y-69677834D01*
X143394281Y-69832521D01*
X143421501Y-69871396D01*
X143421506Y-69871402D01*
X143588597Y-70038493D01*
X143588603Y-70038498D01*
X143774158Y-70168425D01*
X143817783Y-70223002D01*
X143824977Y-70292500D01*
X143793454Y-70354855D01*
X143774158Y-70371575D01*
X143588597Y-70501505D01*
X143421505Y-70668597D01*
X143285965Y-70862169D01*
X143285964Y-70862171D01*
X143186098Y-71076335D01*
X143186094Y-71076344D01*
X143124938Y-71304586D01*
X143124936Y-71304596D01*
X143104341Y-71539999D01*
X143104341Y-71540000D01*
X143124936Y-71775403D01*
X143124938Y-71775413D01*
X143186094Y-72003655D01*
X143186096Y-72003659D01*
X143186097Y-72003663D01*
X143190000Y-72012032D01*
X143285965Y-72217830D01*
X143285967Y-72217834D01*
X143386950Y-72362051D01*
X143421501Y-72411396D01*
X143421506Y-72411402D01*
X143588597Y-72578493D01*
X143588603Y-72578498D01*
X143774158Y-72708425D01*
X143817783Y-72763002D01*
X143824977Y-72832500D01*
X143793454Y-72894855D01*
X143774158Y-72911575D01*
X143588597Y-73041505D01*
X143421505Y-73208597D01*
X143285965Y-73402169D01*
X143285964Y-73402171D01*
X143186098Y-73616335D01*
X143186094Y-73616344D01*
X143124938Y-73844586D01*
X143124936Y-73844596D01*
X143104341Y-74079999D01*
X143104341Y-74080000D01*
X143124936Y-74315403D01*
X143124938Y-74315413D01*
X143186094Y-74543655D01*
X143186096Y-74543659D01*
X143186097Y-74543663D01*
X143266004Y-74715023D01*
X143285965Y-74757830D01*
X143285967Y-74757834D01*
X143394281Y-74912521D01*
X143421501Y-74951396D01*
X143421506Y-74951402D01*
X143588597Y-75118493D01*
X143588603Y-75118498D01*
X143774158Y-75248425D01*
X143817783Y-75303002D01*
X143824977Y-75372500D01*
X143793454Y-75434855D01*
X143774158Y-75451575D01*
X143588597Y-75581505D01*
X143421505Y-75748597D01*
X143285965Y-75942169D01*
X143285964Y-75942171D01*
X143186098Y-76156335D01*
X143186094Y-76156344D01*
X143124938Y-76384586D01*
X143124936Y-76384596D01*
X143104341Y-76619999D01*
X143104341Y-76620000D01*
X143124936Y-76855403D01*
X143124938Y-76855413D01*
X143186094Y-77083655D01*
X143186096Y-77083659D01*
X143186097Y-77083663D01*
X143239139Y-77197412D01*
X143285965Y-77297830D01*
X143285967Y-77297834D01*
X143381335Y-77434032D01*
X143421501Y-77491396D01*
X143421506Y-77491402D01*
X143588597Y-77658493D01*
X143588603Y-77658498D01*
X143774158Y-77788425D01*
X143817783Y-77843002D01*
X143824977Y-77912500D01*
X143793454Y-77974855D01*
X143774158Y-77991575D01*
X143588597Y-78121505D01*
X143421505Y-78288597D01*
X143285965Y-78482169D01*
X143285964Y-78482171D01*
X143186098Y-78696335D01*
X143186094Y-78696344D01*
X143124938Y-78924586D01*
X143124936Y-78924596D01*
X143104341Y-79159999D01*
X143104341Y-79160000D01*
X143124936Y-79395403D01*
X143124938Y-79395413D01*
X143186094Y-79623655D01*
X143186096Y-79623659D01*
X143186097Y-79623663D01*
X143266004Y-79795023D01*
X143285965Y-79837830D01*
X143285967Y-79837834D01*
X143352504Y-79932858D01*
X143421501Y-80031396D01*
X143421506Y-80031402D01*
X143588597Y-80198493D01*
X143588603Y-80198498D01*
X143774158Y-80328425D01*
X143817783Y-80383002D01*
X143824977Y-80452500D01*
X143793454Y-80514855D01*
X143774158Y-80531575D01*
X143588597Y-80661505D01*
X143421505Y-80828597D01*
X143285965Y-81022169D01*
X143285964Y-81022171D01*
X143186098Y-81236335D01*
X143186094Y-81236344D01*
X143124938Y-81464586D01*
X143124936Y-81464596D01*
X143104341Y-81699999D01*
X143104341Y-81700000D01*
X143124936Y-81935403D01*
X143124938Y-81935413D01*
X143186094Y-82163655D01*
X143186096Y-82163659D01*
X143186097Y-82163663D01*
X143245352Y-82290735D01*
X143285965Y-82377830D01*
X143285967Y-82377834D01*
X143394281Y-82532521D01*
X143421501Y-82571396D01*
X143421506Y-82571402D01*
X143588597Y-82738493D01*
X143588603Y-82738498D01*
X143774158Y-82868425D01*
X143817783Y-82923002D01*
X143824977Y-82992500D01*
X143793454Y-83054855D01*
X143774158Y-83071575D01*
X143588597Y-83201505D01*
X143421505Y-83368597D01*
X143285965Y-83562169D01*
X143285964Y-83562171D01*
X143186098Y-83776335D01*
X143186094Y-83776344D01*
X143124938Y-84004586D01*
X143124936Y-84004596D01*
X143104341Y-84239999D01*
X143104341Y-84240000D01*
X143124936Y-84475403D01*
X143124938Y-84475413D01*
X143186094Y-84703655D01*
X143186096Y-84703659D01*
X143186097Y-84703663D01*
X143265536Y-84874019D01*
X143285965Y-84917830D01*
X143285967Y-84917834D01*
X143352142Y-85012341D01*
X143421501Y-85111396D01*
X143421506Y-85111402D01*
X143588597Y-85278493D01*
X143588603Y-85278498D01*
X143774158Y-85408425D01*
X143817783Y-85463002D01*
X143824977Y-85532500D01*
X143793454Y-85594855D01*
X143774158Y-85611575D01*
X143588597Y-85741505D01*
X143421505Y-85908597D01*
X143285965Y-86102169D01*
X143285964Y-86102171D01*
X143186098Y-86316335D01*
X143186094Y-86316344D01*
X143124938Y-86544586D01*
X143124936Y-86544596D01*
X143104341Y-86779999D01*
X143104341Y-86780000D01*
X143124936Y-87015403D01*
X143124938Y-87015413D01*
X143186094Y-87243655D01*
X143186096Y-87243659D01*
X143186097Y-87243663D01*
X143266004Y-87415023D01*
X143285965Y-87457830D01*
X143285967Y-87457834D01*
X143381163Y-87593787D01*
X143421501Y-87651396D01*
X143421506Y-87651402D01*
X143588597Y-87818493D01*
X143588603Y-87818498D01*
X143774158Y-87948425D01*
X143817783Y-88003002D01*
X143824977Y-88072500D01*
X143793454Y-88134855D01*
X143774158Y-88151575D01*
X143588597Y-88281505D01*
X143421505Y-88448597D01*
X143285965Y-88642169D01*
X143285964Y-88642171D01*
X143186098Y-88856335D01*
X143186094Y-88856344D01*
X143124938Y-89084586D01*
X143124936Y-89084596D01*
X143104341Y-89319999D01*
X143104341Y-89320000D01*
X143124936Y-89555403D01*
X143124938Y-89555413D01*
X143186094Y-89783655D01*
X143186096Y-89783659D01*
X143186097Y-89783663D01*
X143250482Y-89921737D01*
X143285965Y-89997830D01*
X143285967Y-89997834D01*
X143394281Y-90152521D01*
X143421501Y-90191396D01*
X143421506Y-90191402D01*
X143588597Y-90358493D01*
X143588603Y-90358498D01*
X143774158Y-90488425D01*
X143817783Y-90543002D01*
X143824977Y-90612500D01*
X143793454Y-90674855D01*
X143774158Y-90691575D01*
X143588597Y-90821505D01*
X143421505Y-90988597D01*
X143285965Y-91182169D01*
X143285964Y-91182171D01*
X143186098Y-91396335D01*
X143186094Y-91396344D01*
X143124938Y-91624586D01*
X143124936Y-91624596D01*
X143104341Y-91859999D01*
X143104341Y-91860000D01*
X143124936Y-92095403D01*
X143124938Y-92095413D01*
X143186094Y-92323655D01*
X143186096Y-92323659D01*
X143186097Y-92323663D01*
X143193621Y-92339798D01*
X143285965Y-92537830D01*
X143285967Y-92537834D01*
X143380437Y-92672750D01*
X143421501Y-92731396D01*
X143421506Y-92731402D01*
X143588597Y-92898493D01*
X143588603Y-92898498D01*
X143774158Y-93028425D01*
X143817783Y-93083002D01*
X143824977Y-93152500D01*
X143793454Y-93214855D01*
X143774158Y-93231575D01*
X143588597Y-93361505D01*
X143421505Y-93528597D01*
X143285965Y-93722169D01*
X143285964Y-93722171D01*
X143186098Y-93936335D01*
X143186094Y-93936344D01*
X143124938Y-94164586D01*
X143124936Y-94164596D01*
X143104341Y-94399999D01*
X143104341Y-94400000D01*
X143124936Y-94635403D01*
X143124938Y-94635413D01*
X143186094Y-94863655D01*
X143186096Y-94863659D01*
X143186097Y-94863663D01*
X143266004Y-95035023D01*
X143285965Y-95077830D01*
X143285967Y-95077834D01*
X143346392Y-95164129D01*
X143421501Y-95271396D01*
X143421506Y-95271402D01*
X143588597Y-95438493D01*
X143588603Y-95438498D01*
X143774158Y-95568425D01*
X143817783Y-95623002D01*
X143824977Y-95692500D01*
X143793454Y-95754855D01*
X143774158Y-95771575D01*
X143588597Y-95901505D01*
X143421505Y-96068597D01*
X143285965Y-96262169D01*
X143285964Y-96262171D01*
X143186098Y-96476335D01*
X143186094Y-96476344D01*
X143124938Y-96704586D01*
X143124936Y-96704596D01*
X143104341Y-96939999D01*
X143104341Y-96940000D01*
X143124936Y-97175403D01*
X143124938Y-97175413D01*
X143186094Y-97403655D01*
X143186096Y-97403659D01*
X143186097Y-97403663D01*
X143250481Y-97541734D01*
X143285965Y-97617830D01*
X143285967Y-97617834D01*
X143344750Y-97701784D01*
X143421501Y-97811396D01*
X143421506Y-97811402D01*
X143588597Y-97978493D01*
X143588603Y-97978498D01*
X143774158Y-98108425D01*
X143817783Y-98163002D01*
X143824977Y-98232500D01*
X143793454Y-98294855D01*
X143774158Y-98311575D01*
X143588597Y-98441505D01*
X143421505Y-98608597D01*
X143285965Y-98802169D01*
X143285964Y-98802171D01*
X143186098Y-99016335D01*
X143186094Y-99016344D01*
X143124938Y-99244586D01*
X143124936Y-99244596D01*
X143104341Y-99479999D01*
X143104341Y-99480000D01*
X143124936Y-99715403D01*
X143124938Y-99715413D01*
X143186094Y-99943655D01*
X143186096Y-99943659D01*
X143186097Y-99943663D01*
X143266004Y-100115023D01*
X143285965Y-100157830D01*
X143285967Y-100157834D01*
X143381335Y-100294032D01*
X143421501Y-100351396D01*
X143421506Y-100351402D01*
X143588597Y-100518493D01*
X143588603Y-100518498D01*
X143774158Y-100648425D01*
X143817783Y-100703002D01*
X143824977Y-100772500D01*
X143793454Y-100834855D01*
X143774158Y-100851575D01*
X143588597Y-100981505D01*
X143421505Y-101148597D01*
X143285965Y-101342169D01*
X143285964Y-101342171D01*
X143186098Y-101556335D01*
X143186094Y-101556344D01*
X143124938Y-101784586D01*
X143124936Y-101784596D01*
X143104341Y-102019999D01*
X143104341Y-102020000D01*
X143124936Y-102255403D01*
X143124938Y-102255413D01*
X143186094Y-102483655D01*
X143186096Y-102483659D01*
X143186097Y-102483663D01*
X143190000Y-102492032D01*
X143285965Y-102697830D01*
X143285967Y-102697834D01*
X143364157Y-102809500D01*
X143421501Y-102891396D01*
X143421506Y-102891402D01*
X143588597Y-103058493D01*
X143588603Y-103058498D01*
X143774158Y-103188425D01*
X143817783Y-103243002D01*
X143824977Y-103312500D01*
X143793454Y-103374855D01*
X143774158Y-103391575D01*
X143588597Y-103521505D01*
X143421505Y-103688597D01*
X143285965Y-103882169D01*
X143285964Y-103882171D01*
X143186098Y-104096335D01*
X143186094Y-104096344D01*
X143124938Y-104324586D01*
X143124936Y-104324596D01*
X143104341Y-104559999D01*
X143104341Y-104560000D01*
X143124936Y-104795403D01*
X143124938Y-104795413D01*
X143186094Y-105023655D01*
X143186096Y-105023659D01*
X143186097Y-105023663D01*
X143190000Y-105032032D01*
X143285965Y-105237830D01*
X143285967Y-105237834D01*
X143364157Y-105349500D01*
X143421501Y-105431396D01*
X143421506Y-105431402D01*
X143588597Y-105598493D01*
X143588603Y-105598498D01*
X143774158Y-105728425D01*
X143817783Y-105783002D01*
X143824977Y-105852500D01*
X143793454Y-105914855D01*
X143774158Y-105931575D01*
X143588597Y-106061505D01*
X143421505Y-106228597D01*
X143285965Y-106422169D01*
X143285964Y-106422171D01*
X143186098Y-106636335D01*
X143186094Y-106636344D01*
X143124938Y-106864586D01*
X143124936Y-106864596D01*
X143104341Y-107099999D01*
X143104341Y-107100000D01*
X143124936Y-107335403D01*
X143124938Y-107335413D01*
X143186094Y-107563655D01*
X143186096Y-107563659D01*
X143186097Y-107563663D01*
X143190000Y-107572032D01*
X143285965Y-107777830D01*
X143285967Y-107777834D01*
X143394281Y-107932521D01*
X143421501Y-107971396D01*
X143421506Y-107971402D01*
X143588597Y-108138493D01*
X143588603Y-108138498D01*
X143774594Y-108268730D01*
X143818219Y-108323307D01*
X143825413Y-108392805D01*
X143793890Y-108455160D01*
X143774595Y-108471880D01*
X143588922Y-108601890D01*
X143588920Y-108601891D01*
X143421891Y-108768920D01*
X143421886Y-108768926D01*
X143286400Y-108962420D01*
X143286399Y-108962422D01*
X143186570Y-109176507D01*
X143186567Y-109176513D01*
X143129364Y-109389999D01*
X143129364Y-109390000D01*
X144026988Y-109390000D01*
X143994075Y-109447007D01*
X143960000Y-109574174D01*
X143960000Y-109705826D01*
X143994075Y-109832993D01*
X144026988Y-109890000D01*
X143129364Y-109890000D01*
X143186567Y-110103486D01*
X143186570Y-110103492D01*
X143286399Y-110317578D01*
X143421894Y-110511082D01*
X143588917Y-110678105D01*
X143782421Y-110813600D01*
X143996507Y-110913429D01*
X143996516Y-110913433D01*
X144210000Y-110970634D01*
X144210000Y-110073012D01*
X144267007Y-110105925D01*
X144394174Y-110140000D01*
X144525826Y-110140000D01*
X144652993Y-110105925D01*
X144710000Y-110073012D01*
X144710000Y-110970633D01*
X144923483Y-110913433D01*
X144923492Y-110913429D01*
X145137578Y-110813600D01*
X145331082Y-110678105D01*
X145498105Y-110511082D01*
X145628425Y-110324968D01*
X145683002Y-110281344D01*
X145752501Y-110274151D01*
X145814855Y-110305673D01*
X145831575Y-110324968D01*
X145961894Y-110511082D01*
X146128917Y-110678105D01*
X146322421Y-110813600D01*
X146536507Y-110913429D01*
X146536516Y-110913433D01*
X146750000Y-110970634D01*
X146750000Y-110073012D01*
X146807007Y-110105925D01*
X146934174Y-110140000D01*
X147065826Y-110140000D01*
X147192993Y-110105925D01*
X147250000Y-110073012D01*
X147250000Y-110970633D01*
X147463483Y-110913433D01*
X147463492Y-110913429D01*
X147677578Y-110813600D01*
X147871082Y-110678105D01*
X148038105Y-110511082D01*
X148173600Y-110317578D01*
X148273429Y-110103492D01*
X148273432Y-110103486D01*
X148330636Y-109890000D01*
X147433012Y-109890000D01*
X147465925Y-109832993D01*
X147500000Y-109705826D01*
X147500000Y-109574174D01*
X147465925Y-109447007D01*
X147433012Y-109390000D01*
X148330636Y-109390000D01*
X148330635Y-109389999D01*
X148273432Y-109176513D01*
X148273429Y-109176507D01*
X148173600Y-108962422D01*
X148173599Y-108962420D01*
X148038113Y-108768926D01*
X148038108Y-108768920D01*
X147871078Y-108601890D01*
X147685405Y-108471879D01*
X147641780Y-108417302D01*
X147634588Y-108347804D01*
X147666110Y-108285449D01*
X147685406Y-108268730D01*
X147797500Y-108190241D01*
X147871401Y-108138495D01*
X148038495Y-107971401D01*
X148174035Y-107777830D01*
X148273903Y-107563663D01*
X148335063Y-107335408D01*
X148355659Y-107100000D01*
X148335063Y-106864592D01*
X148273903Y-106636337D01*
X148174035Y-106422171D01*
X148168425Y-106414158D01*
X148038494Y-106228597D01*
X147871402Y-106061506D01*
X147871396Y-106061501D01*
X147685842Y-105931575D01*
X147642217Y-105876998D01*
X147635023Y-105807500D01*
X147666546Y-105745145D01*
X147685842Y-105728425D01*
X147708026Y-105712891D01*
X147871401Y-105598495D01*
X148038495Y-105431401D01*
X148174035Y-105237830D01*
X148273903Y-105023663D01*
X148335063Y-104795408D01*
X148355659Y-104560000D01*
X148335063Y-104324592D01*
X148273903Y-104096337D01*
X148174035Y-103882171D01*
X148168425Y-103874158D01*
X148038494Y-103688597D01*
X147871402Y-103521506D01*
X147871396Y-103521501D01*
X147685842Y-103391575D01*
X147642217Y-103336998D01*
X147635023Y-103267500D01*
X147666546Y-103205145D01*
X147685842Y-103188425D01*
X147708026Y-103172891D01*
X147871401Y-103058495D01*
X148038495Y-102891401D01*
X148174035Y-102697830D01*
X148273903Y-102483663D01*
X148335063Y-102255408D01*
X148355659Y-102020000D01*
X148335063Y-101784592D01*
X148273903Y-101556337D01*
X148174035Y-101342171D01*
X148168425Y-101334158D01*
X148038494Y-101148597D01*
X147871402Y-100981506D01*
X147871396Y-100981501D01*
X147685842Y-100851575D01*
X147642217Y-100796998D01*
X147635023Y-100727500D01*
X147666546Y-100665145D01*
X147685842Y-100648425D01*
X147744477Y-100607368D01*
X147871401Y-100518495D01*
X148038495Y-100351401D01*
X148174035Y-100157830D01*
X148273903Y-99943663D01*
X148335063Y-99715408D01*
X148355659Y-99480000D01*
X148335063Y-99244592D01*
X148273903Y-99016337D01*
X148174035Y-98802171D01*
X148168425Y-98794158D01*
X148038494Y-98608597D01*
X147871402Y-98441506D01*
X147871396Y-98441501D01*
X147685842Y-98311575D01*
X147642217Y-98256998D01*
X147635023Y-98187500D01*
X147666546Y-98125145D01*
X147685842Y-98108425D01*
X147777856Y-98043996D01*
X147871401Y-97978495D01*
X148038495Y-97811401D01*
X148174035Y-97617830D01*
X148273903Y-97403663D01*
X148335063Y-97175408D01*
X148355659Y-96940000D01*
X148335063Y-96704592D01*
X148273903Y-96476337D01*
X148174035Y-96262171D01*
X148174032Y-96262166D01*
X148038494Y-96068597D01*
X147871402Y-95901506D01*
X147871396Y-95901501D01*
X147685842Y-95771575D01*
X147642217Y-95716998D01*
X147635023Y-95647500D01*
X147666546Y-95585145D01*
X147685842Y-95568425D01*
X147736924Y-95532657D01*
X147871401Y-95438495D01*
X148038495Y-95271401D01*
X148174035Y-95077830D01*
X148273903Y-94863663D01*
X148335063Y-94635408D01*
X148355659Y-94400000D01*
X148335063Y-94164592D01*
X148273903Y-93936337D01*
X148174035Y-93722171D01*
X148168425Y-93714158D01*
X148038494Y-93528597D01*
X147871402Y-93361506D01*
X147871396Y-93361501D01*
X147685842Y-93231575D01*
X147642217Y-93176998D01*
X147635023Y-93107500D01*
X147666546Y-93045145D01*
X147685842Y-93028425D01*
X147713141Y-93009310D01*
X147871401Y-92898495D01*
X148038495Y-92731401D01*
X148174035Y-92537830D01*
X148273903Y-92323663D01*
X148335063Y-92095408D01*
X148355659Y-91860000D01*
X148335063Y-91624592D01*
X148273903Y-91396337D01*
X148174035Y-91182171D01*
X148168425Y-91174158D01*
X148038494Y-90988597D01*
X147871402Y-90821506D01*
X147871396Y-90821501D01*
X147685842Y-90691575D01*
X147642217Y-90636998D01*
X147635023Y-90567500D01*
X147666546Y-90505145D01*
X147685842Y-90488425D01*
X147811223Y-90400632D01*
X147871401Y-90358495D01*
X148038495Y-90191401D01*
X148174035Y-89997830D01*
X148273903Y-89783663D01*
X148335063Y-89555408D01*
X148355659Y-89320000D01*
X148335063Y-89084592D01*
X148279341Y-88876631D01*
X148273905Y-88856344D01*
X148273904Y-88856343D01*
X148273903Y-88856337D01*
X148174035Y-88642171D01*
X148168425Y-88634158D01*
X148038494Y-88448597D01*
X147871402Y-88281506D01*
X147871396Y-88281501D01*
X147685842Y-88151575D01*
X147642217Y-88096998D01*
X147635023Y-88027500D01*
X147666546Y-87965145D01*
X147685842Y-87948425D01*
X147708026Y-87932891D01*
X147871401Y-87818495D01*
X148038495Y-87651401D01*
X148174035Y-87457830D01*
X148273903Y-87243663D01*
X148335063Y-87015408D01*
X148355659Y-86780000D01*
X148335063Y-86544592D01*
X148273903Y-86316337D01*
X148174035Y-86102171D01*
X148168425Y-86094158D01*
X148038494Y-85908597D01*
X147871402Y-85741506D01*
X147871396Y-85741501D01*
X147685842Y-85611575D01*
X147642217Y-85556998D01*
X147635023Y-85487500D01*
X147666546Y-85425145D01*
X147685842Y-85408425D01*
X147811223Y-85320632D01*
X147871401Y-85278495D01*
X148038495Y-85111401D01*
X148174035Y-84917830D01*
X148273903Y-84703663D01*
X148335063Y-84475408D01*
X148355659Y-84240000D01*
X148335063Y-84004592D01*
X148273903Y-83776337D01*
X148174035Y-83562171D01*
X148168425Y-83554158D01*
X148038494Y-83368597D01*
X147871402Y-83201506D01*
X147871396Y-83201501D01*
X147685842Y-83071575D01*
X147642217Y-83016998D01*
X147635023Y-82947500D01*
X147666546Y-82885145D01*
X147685842Y-82868425D01*
X147811223Y-82780632D01*
X147871401Y-82738495D01*
X148038495Y-82571401D01*
X148174035Y-82377830D01*
X148273903Y-82163663D01*
X148335063Y-81935408D01*
X148355659Y-81700000D01*
X148335063Y-81464592D01*
X148273903Y-81236337D01*
X148174035Y-81022171D01*
X148168425Y-81014158D01*
X148038494Y-80828597D01*
X147871402Y-80661506D01*
X147871396Y-80661501D01*
X147685842Y-80531575D01*
X147642217Y-80476998D01*
X147635023Y-80407500D01*
X147666546Y-80345145D01*
X147685842Y-80328425D01*
X147708026Y-80312891D01*
X147871401Y-80198495D01*
X148038495Y-80031401D01*
X148174035Y-79837830D01*
X148273903Y-79623663D01*
X148335063Y-79395408D01*
X148355659Y-79160000D01*
X148335063Y-78924592D01*
X148273903Y-78696337D01*
X148174035Y-78482171D01*
X148168425Y-78474158D01*
X148038494Y-78288597D01*
X147871402Y-78121506D01*
X147871396Y-78121501D01*
X147685842Y-77991575D01*
X147642217Y-77936998D01*
X147635023Y-77867500D01*
X147666546Y-77805145D01*
X147685842Y-77788425D01*
X147738609Y-77751477D01*
X147871401Y-77658495D01*
X148038495Y-77491401D01*
X148174035Y-77297830D01*
X148273903Y-77083663D01*
X148335063Y-76855408D01*
X148355659Y-76620000D01*
X148335063Y-76384592D01*
X148273903Y-76156337D01*
X148174035Y-75942171D01*
X148168425Y-75934158D01*
X148038494Y-75748597D01*
X147871402Y-75581506D01*
X147871396Y-75581501D01*
X147685842Y-75451575D01*
X147642217Y-75396998D01*
X147635023Y-75327500D01*
X147666546Y-75265145D01*
X147685842Y-75248425D01*
X147751765Y-75202265D01*
X147871401Y-75118495D01*
X148038495Y-74951401D01*
X148174035Y-74757830D01*
X148273903Y-74543663D01*
X148335063Y-74315408D01*
X148355659Y-74080000D01*
X148335063Y-73844592D01*
X148273903Y-73616337D01*
X148174035Y-73402171D01*
X148168425Y-73394158D01*
X148038494Y-73208597D01*
X147871402Y-73041506D01*
X147871396Y-73041501D01*
X147685842Y-72911575D01*
X147642217Y-72856998D01*
X147635023Y-72787500D01*
X147666546Y-72725145D01*
X147685842Y-72708425D01*
X147710764Y-72690974D01*
X147871401Y-72578495D01*
X148038495Y-72411401D01*
X148174035Y-72217830D01*
X148273903Y-72003663D01*
X148335063Y-71775408D01*
X148355659Y-71540000D01*
X148335063Y-71304592D01*
X148273903Y-71076337D01*
X148174035Y-70862171D01*
X148168424Y-70854158D01*
X148038496Y-70668600D01*
X147997690Y-70627794D01*
X147916567Y-70546671D01*
X147883084Y-70485351D01*
X147888068Y-70415659D01*
X147929939Y-70359725D01*
X147960915Y-70342810D01*
X148092331Y-70293796D01*
X148207546Y-70207546D01*
X148293796Y-70092331D01*
X148344091Y-69957483D01*
X148350500Y-69897873D01*
X148350499Y-68102128D01*
X148344091Y-68042517D01*
X148342810Y-68039083D01*
X148293797Y-67907671D01*
X148293793Y-67907664D01*
X148207547Y-67792455D01*
X148207544Y-67792452D01*
X148092335Y-67706206D01*
X148092328Y-67706202D01*
X147957482Y-67655908D01*
X147957483Y-67655908D01*
X147897883Y-67649501D01*
X147897881Y-67649500D01*
X147897873Y-67649500D01*
X147897864Y-67649500D01*
X146102129Y-67649500D01*
X146102123Y-67649501D01*
X146042516Y-67655908D01*
X145907671Y-67706202D01*
X145907664Y-67706206D01*
X145792455Y-67792452D01*
X145792452Y-67792455D01*
X145706206Y-67907664D01*
X145706203Y-67907669D01*
X145657189Y-68039083D01*
X145615317Y-68095016D01*
X145549853Y-68119433D01*
X145481580Y-68104581D01*
X145453326Y-68083430D01*
X145331402Y-67961506D01*
X145331395Y-67961501D01*
X145137834Y-67825967D01*
X145137830Y-67825965D01*
X145137828Y-67825964D01*
X144923663Y-67726097D01*
X144923659Y-67726096D01*
X144923655Y-67726094D01*
X144695413Y-67664938D01*
X144695403Y-67664936D01*
X144460001Y-67644341D01*
X144459999Y-67644341D01*
X144224596Y-67664936D01*
X144224586Y-67664938D01*
X143996344Y-67726094D01*
X143996335Y-67726098D01*
X143782171Y-67825964D01*
X143782169Y-67825965D01*
X143588597Y-67961505D01*
X143421505Y-68128597D01*
X143285965Y-68322169D01*
X143285964Y-68322171D01*
X143186098Y-68536335D01*
X143186094Y-68536344D01*
X143124938Y-68764586D01*
X143124936Y-68764596D01*
X143104341Y-68999999D01*
X81577561Y-68999999D01*
X81577561Y-68999996D01*
X81557365Y-68820750D01*
X81557364Y-68820745D01*
X81497784Y-68650476D01*
X81458578Y-68588080D01*
X81401812Y-68497738D01*
X81274258Y-68370184D01*
X81197843Y-68322169D01*
X81121519Y-68274211D01*
X80951250Y-68214631D01*
X80951245Y-68214630D01*
X80772000Y-68194435D01*
X80771992Y-68194435D01*
X80592746Y-68214630D01*
X80592741Y-68214631D01*
X80422472Y-68274211D01*
X80269733Y-68370184D01*
X80142180Y-68497737D01*
X80046206Y-68650478D01*
X79986626Y-68820750D01*
X79976833Y-68907668D01*
X79949766Y-68972082D01*
X79941295Y-68981465D01*
X79709578Y-69213182D01*
X79648258Y-69246666D01*
X79621899Y-69249500D01*
X78740089Y-69249500D01*
X78673050Y-69229815D01*
X78627295Y-69177011D01*
X78616731Y-69138102D01*
X78614839Y-69119591D01*
X78609999Y-69072203D01*
X78554814Y-68905666D01*
X78462712Y-68756344D01*
X78338656Y-68632288D01*
X78189334Y-68540186D01*
X78022797Y-68485001D01*
X78022795Y-68485000D01*
X77920010Y-68474500D01*
X77019998Y-68474500D01*
X77019980Y-68474501D01*
X76917203Y-68485000D01*
X76917200Y-68485001D01*
X76750668Y-68540185D01*
X76750663Y-68540187D01*
X76601342Y-68632289D01*
X76477289Y-68756342D01*
X76385187Y-68905663D01*
X76385185Y-68905668D01*
X76370235Y-68950784D01*
X76330001Y-69072203D01*
X76330001Y-69072204D01*
X76330000Y-69072204D01*
X76319500Y-69174983D01*
X76319500Y-70525001D01*
X76319501Y-70525018D01*
X76330000Y-70627796D01*
X76330001Y-70627799D01*
X76364077Y-70730631D01*
X76385186Y-70794334D01*
X76477288Y-70943656D01*
X76601344Y-71067712D01*
X76750666Y-71159814D01*
X76917203Y-71214999D01*
X77019991Y-71225500D01*
X77920008Y-71225499D01*
X77920016Y-71225498D01*
X77920019Y-71225498D01*
X77976302Y-71219748D01*
X78022797Y-71214999D01*
X78189334Y-71159814D01*
X78338656Y-71067712D01*
X78462712Y-70943656D01*
X78554814Y-70794334D01*
X78609999Y-70627797D01*
X78612431Y-70603989D01*
X78616732Y-70561897D01*
X78643129Y-70497205D01*
X78700310Y-70457054D01*
X78740090Y-70450500D01*
X79835327Y-70450500D01*
X79835343Y-70450501D01*
X79842939Y-70450501D01*
X80001051Y-70450501D01*
X80001053Y-70450501D01*
X80015406Y-70446655D01*
X80085254Y-70448316D01*
X80143117Y-70487478D01*
X80170623Y-70551705D01*
X80171500Y-70566429D01*
X80171500Y-75672908D01*
X80151815Y-75739947D01*
X80099914Y-75785286D01*
X80094173Y-75787963D01*
X80094169Y-75787965D01*
X79900597Y-75923505D01*
X79733505Y-76090597D01*
X79603575Y-76276158D01*
X79548998Y-76319783D01*
X79479500Y-76326977D01*
X79417145Y-76295454D01*
X79400425Y-76276158D01*
X79270494Y-76090597D01*
X79103402Y-75923506D01*
X79103395Y-75923501D01*
X78909834Y-75787967D01*
X78909830Y-75787965D01*
X78832499Y-75751905D01*
X78695663Y-75688097D01*
X78695659Y-75688096D01*
X78695655Y-75688094D01*
X78467413Y-75626938D01*
X78467403Y-75626936D01*
X78232001Y-75606341D01*
X78231999Y-75606341D01*
X77996596Y-75626936D01*
X77996586Y-75626938D01*
X77768344Y-75688094D01*
X77768335Y-75688098D01*
X77554171Y-75787964D01*
X77554169Y-75787965D01*
X77360600Y-75923503D01*
X77238284Y-76045819D01*
X77176961Y-76079303D01*
X77107269Y-76074319D01*
X77051336Y-76032447D01*
X77034421Y-76001470D01*
X76985354Y-75869913D01*
X76985350Y-75869906D01*
X76899190Y-75754812D01*
X76899187Y-75754809D01*
X76784093Y-75668649D01*
X76784086Y-75668645D01*
X76649379Y-75618403D01*
X76649372Y-75618401D01*
X76589844Y-75612000D01*
X75942000Y-75612000D01*
X75942000Y-76528988D01*
X75884993Y-76496075D01*
X75757826Y-76462000D01*
X75626174Y-76462000D01*
X75499007Y-76496075D01*
X75442000Y-76528988D01*
X75442000Y-75612000D01*
X74794155Y-75612000D01*
X74734627Y-75618401D01*
X74734620Y-75618403D01*
X74599913Y-75668645D01*
X74599906Y-75668649D01*
X74484812Y-75754809D01*
X74484809Y-75754812D01*
X74398649Y-75869906D01*
X74398645Y-75869913D01*
X74348403Y-76004620D01*
X74348401Y-76004627D01*
X74342000Y-76064155D01*
X74342000Y-76712000D01*
X75258988Y-76712000D01*
X75226075Y-76769007D01*
X75192000Y-76896174D01*
X75192000Y-77027826D01*
X75226075Y-77154993D01*
X75258988Y-77212000D01*
X74342000Y-77212000D01*
X74342000Y-77859844D01*
X74348401Y-77919372D01*
X74348403Y-77919379D01*
X74398645Y-78054086D01*
X74398649Y-78054093D01*
X74484809Y-78169187D01*
X74484812Y-78169190D01*
X74599906Y-78255350D01*
X74599913Y-78255354D01*
X74734620Y-78305596D01*
X74734627Y-78305598D01*
X74794155Y-78311999D01*
X74794172Y-78312000D01*
X75442000Y-78312000D01*
X75442000Y-77395012D01*
X75499007Y-77427925D01*
X75626174Y-77462000D01*
X75757826Y-77462000D01*
X75884993Y-77427925D01*
X75942000Y-77395012D01*
X75942000Y-78312000D01*
X76589828Y-78312000D01*
X76589844Y-78311999D01*
X76649372Y-78305598D01*
X76649379Y-78305596D01*
X76784086Y-78255354D01*
X76784093Y-78255350D01*
X76899187Y-78169190D01*
X76899190Y-78169187D01*
X76985350Y-78054093D01*
X76985354Y-78054086D01*
X77034422Y-77922529D01*
X77076293Y-77866595D01*
X77141757Y-77842178D01*
X77210030Y-77857030D01*
X77238285Y-77878181D01*
X77360599Y-78000495D01*
X77437135Y-78054086D01*
X77554165Y-78136032D01*
X77554167Y-78136033D01*
X77554170Y-78136035D01*
X77559898Y-78138706D01*
X77612339Y-78184872D01*
X77631500Y-78251090D01*
X77631500Y-79540306D01*
X77611815Y-79607345D01*
X77578623Y-79641881D01*
X77392859Y-79771953D01*
X77231954Y-79932858D01*
X77101432Y-80119265D01*
X77101431Y-80119267D01*
X77074382Y-80177275D01*
X77028209Y-80229714D01*
X76961016Y-80248866D01*
X76894135Y-80228650D01*
X76849618Y-80177275D01*
X76822568Y-80119267D01*
X76822567Y-80119265D01*
X76761045Y-80031402D01*
X76692047Y-79932861D01*
X76692045Y-79932858D01*
X76531141Y-79771954D01*
X76344734Y-79641432D01*
X76344732Y-79641431D01*
X76138497Y-79545261D01*
X76138488Y-79545258D01*
X75918697Y-79486366D01*
X75918693Y-79486365D01*
X75918692Y-79486365D01*
X75918691Y-79486364D01*
X75918686Y-79486364D01*
X75692002Y-79466532D01*
X75691998Y-79466532D01*
X75465313Y-79486364D01*
X75465302Y-79486366D01*
X75245511Y-79545258D01*
X75245502Y-79545261D01*
X75039267Y-79641431D01*
X75039265Y-79641432D01*
X74852858Y-79771954D01*
X74691954Y-79932858D01*
X74561432Y-80119265D01*
X74561431Y-80119267D01*
X74534382Y-80177275D01*
X74488209Y-80229714D01*
X74421016Y-80248866D01*
X74354135Y-80228650D01*
X74309618Y-80177275D01*
X74282568Y-80119267D01*
X74282567Y-80119265D01*
X74221045Y-80031402D01*
X74152047Y-79932861D01*
X74152045Y-79932858D01*
X73991141Y-79771954D01*
X73804734Y-79641432D01*
X73804732Y-79641431D01*
X73598497Y-79545261D01*
X73598488Y-79545258D01*
X73378697Y-79486366D01*
X73378693Y-79486365D01*
X73378692Y-79486365D01*
X73378691Y-79486364D01*
X73378686Y-79486364D01*
X73152002Y-79466532D01*
X73151998Y-79466532D01*
X72925313Y-79486364D01*
X72925302Y-79486366D01*
X72705511Y-79545258D01*
X72705502Y-79545261D01*
X72499267Y-79641431D01*
X72499265Y-79641432D01*
X72312858Y-79771954D01*
X72186181Y-79898632D01*
X72124858Y-79932117D01*
X72055166Y-79927133D01*
X71999233Y-79885261D01*
X71974816Y-79819797D01*
X71974500Y-79810951D01*
X71974500Y-71448412D01*
X71994185Y-71381373D01*
X72001555Y-71371097D01*
X72003810Y-71368267D01*
X72003816Y-71368262D01*
X72099789Y-71215522D01*
X72159368Y-71045255D01*
X72169161Y-70958329D01*
X72196226Y-70893918D01*
X72204690Y-70884543D01*
X72602416Y-70486819D01*
X72663739Y-70453334D01*
X72690097Y-70450500D01*
X73099911Y-70450500D01*
X73166950Y-70470185D01*
X73212705Y-70522989D01*
X73223269Y-70561898D01*
X73230001Y-70627797D01*
X73230001Y-70627799D01*
X73264077Y-70730631D01*
X73285186Y-70794334D01*
X73377288Y-70943656D01*
X73501344Y-71067712D01*
X73650666Y-71159814D01*
X73817203Y-71214999D01*
X73919991Y-71225500D01*
X74820008Y-71225499D01*
X74820016Y-71225498D01*
X74820019Y-71225498D01*
X74876302Y-71219748D01*
X74922797Y-71214999D01*
X75089334Y-71159814D01*
X75238656Y-71067712D01*
X75362712Y-70943656D01*
X75454814Y-70794334D01*
X75509999Y-70627797D01*
X75520500Y-70525009D01*
X75520499Y-69174992D01*
X75509999Y-69072203D01*
X75454814Y-68905666D01*
X75362712Y-68756344D01*
X75238656Y-68632288D01*
X75089334Y-68540186D01*
X74922797Y-68485001D01*
X74922795Y-68485000D01*
X74820010Y-68474500D01*
X73919998Y-68474500D01*
X73919980Y-68474501D01*
X73817203Y-68485000D01*
X73817200Y-68485001D01*
X73650668Y-68540185D01*
X73650663Y-68540187D01*
X73501342Y-68632289D01*
X73377289Y-68756342D01*
X73285187Y-68905663D01*
X73285185Y-68905668D01*
X73270235Y-68950784D01*
X73230002Y-69072202D01*
X73230001Y-69072204D01*
X73230000Y-69072205D01*
X73223268Y-69138103D01*
X73196871Y-69202795D01*
X73139690Y-69242946D01*
X73099910Y-69249500D01*
X72476669Y-69249500D01*
X72476653Y-69249499D01*
X72469057Y-69249499D01*
X72310943Y-69249499D01*
X72203587Y-69278265D01*
X72158210Y-69290424D01*
X72158209Y-69290425D01*
X72108096Y-69319359D01*
X72108095Y-69319360D01*
X72064689Y-69344420D01*
X72021285Y-69369479D01*
X72021282Y-69369481D01*
X71909478Y-69481286D01*
X71355465Y-70035298D01*
X71294142Y-70068783D01*
X71281668Y-70070837D01*
X71194750Y-70080630D01*
X71024478Y-70140210D01*
X70871737Y-70236184D01*
X70744184Y-70363737D01*
X70648211Y-70516476D01*
X70588631Y-70686745D01*
X70588630Y-70686750D01*
X70568435Y-70865996D01*
X70568435Y-70866003D01*
X70588630Y-71045249D01*
X70588631Y-71045254D01*
X70648211Y-71215523D01*
X70673380Y-71255578D01*
X70737365Y-71357410D01*
X70744185Y-71368263D01*
X70746445Y-71371097D01*
X70747334Y-71373275D01*
X70747889Y-71374158D01*
X70747734Y-71374255D01*
X70772855Y-71435783D01*
X70773500Y-71448412D01*
X70773500Y-80694267D01*
X70753815Y-80761306D01*
X70737181Y-80781948D01*
X70682975Y-80836154D01*
X70621652Y-80869639D01*
X70551960Y-80864655D01*
X70496027Y-80822783D01*
X70475519Y-80780566D01*
X70418433Y-80567516D01*
X70418429Y-80567507D01*
X70318600Y-80353422D01*
X70318599Y-80353420D01*
X70183113Y-80159926D01*
X70183108Y-80159920D01*
X70016082Y-79992894D01*
X69822578Y-79857399D01*
X69608492Y-79757570D01*
X69608486Y-79757567D01*
X69395000Y-79700364D01*
X69395000Y-80597988D01*
X69337993Y-80565075D01*
X69210826Y-80531000D01*
X69079174Y-80531000D01*
X68952007Y-80565075D01*
X68895000Y-80597988D01*
X68895000Y-79700364D01*
X68894999Y-79700364D01*
X68681513Y-79757567D01*
X68681507Y-79757570D01*
X68467422Y-79857399D01*
X68467420Y-79857400D01*
X68273926Y-79992886D01*
X68273920Y-79992891D01*
X68106891Y-80159920D01*
X68106886Y-80159926D01*
X67971400Y-80353420D01*
X67971399Y-80353422D01*
X67871570Y-80567507D01*
X67871567Y-80567513D01*
X67814364Y-80780999D01*
X67814364Y-80781000D01*
X68711988Y-80781000D01*
X68679075Y-80838007D01*
X68645000Y-80965174D01*
X68645000Y-81096826D01*
X68679075Y-81223993D01*
X68711988Y-81281000D01*
X67814364Y-81281000D01*
X67871567Y-81494486D01*
X67871570Y-81494492D01*
X67971399Y-81708578D01*
X68106894Y-81902082D01*
X68228946Y-82024134D01*
X68262431Y-82085457D01*
X68257447Y-82155149D01*
X68215575Y-82211082D01*
X68184598Y-82227997D01*
X68052671Y-82277202D01*
X68052664Y-82277206D01*
X67937455Y-82363452D01*
X67937452Y-82363455D01*
X67851206Y-82478664D01*
X67851202Y-82478671D01*
X67800908Y-82613517D01*
X67794501Y-82673116D01*
X67794500Y-82673135D01*
X65770500Y-82673135D01*
X65770500Y-71725476D01*
X65770500Y-71725474D01*
X65729577Y-71572747D01*
X65697597Y-71517357D01*
X65681765Y-71469240D01*
X65666838Y-71336750D01*
X65666837Y-71336745D01*
X65629169Y-71229097D01*
X65607258Y-71166478D01*
X65603069Y-71159812D01*
X65550623Y-71076344D01*
X65511285Y-71013738D01*
X65383731Y-70886184D01*
X65351613Y-70866003D01*
X65230992Y-70790211D01*
X65060723Y-70730631D01*
X65060718Y-70730630D01*
X64881473Y-70710435D01*
X64881465Y-70710435D01*
X64702219Y-70730630D01*
X64702214Y-70730631D01*
X64531945Y-70790211D01*
X64379206Y-70886184D01*
X64251653Y-71013737D01*
X64155679Y-71166478D01*
X64108737Y-71300633D01*
X64068015Y-71357410D01*
X64032650Y-71376720D01*
X63946818Y-71406754D01*
X63946814Y-71406756D01*
X63794076Y-71502728D01*
X63666523Y-71630281D01*
X63570551Y-71783018D01*
X63543747Y-71859618D01*
X63503024Y-71916393D01*
X63467661Y-71935702D01*
X63324541Y-71985782D01*
X63171798Y-72081757D01*
X63044245Y-72209310D01*
X62948270Y-72362053D01*
X62905313Y-72484817D01*
X62864592Y-72541593D01*
X62829228Y-72560903D01*
X62731782Y-72595001D01*
X62731781Y-72595002D01*
X62579043Y-72690974D01*
X62451490Y-72818527D01*
X62355518Y-72971265D01*
X62355517Y-72971266D01*
X62318427Y-73077263D01*
X62277705Y-73134038D01*
X62242341Y-73153348D01*
X62128053Y-73193339D01*
X61975310Y-73289314D01*
X61847757Y-73416867D01*
X61751785Y-73569605D01*
X61751784Y-73569606D01*
X61712783Y-73681064D01*
X61672061Y-73737839D01*
X61636698Y-73757149D01*
X61527858Y-73795234D01*
X61527857Y-73795235D01*
X61375119Y-73891207D01*
X61247566Y-74018760D01*
X61151594Y-74171498D01*
X61151593Y-74171499D01*
X61113193Y-74281240D01*
X61072471Y-74338015D01*
X61037108Y-74357325D01*
X60926550Y-74396011D01*
X60926549Y-74396012D01*
X60773811Y-74491984D01*
X60646258Y-74619537D01*
X60550285Y-74772276D01*
X60490705Y-74942545D01*
X60490704Y-74942549D01*
X60471707Y-75111156D01*
X60444640Y-75175570D01*
X60414461Y-75202265D01*
X60361715Y-75235408D01*
X60234161Y-75362962D01*
X60138188Y-75515701D01*
X60078608Y-75685970D01*
X60078607Y-75685975D01*
X60058412Y-75865221D01*
X60058412Y-75865228D01*
X60078607Y-76044474D01*
X60078608Y-76044479D01*
X60138188Y-76214748D01*
X60234162Y-76367488D01*
X60236422Y-76370322D01*
X60237311Y-76372500D01*
X60237866Y-76373383D01*
X60237711Y-76373480D01*
X60262832Y-76435008D01*
X60263477Y-76447637D01*
X60263477Y-92942271D01*
X60243792Y-93009310D01*
X60227158Y-93029952D01*
X56928588Y-96328521D01*
X56867265Y-96362006D01*
X56797573Y-96357022D01*
X56741640Y-96315150D01*
X56728525Y-96293245D01*
X56719296Y-96273454D01*
X56714035Y-96262171D01*
X56714032Y-96262167D01*
X56714032Y-96262166D01*
X56578494Y-96068597D01*
X56411402Y-95901506D01*
X56411396Y-95901501D01*
X56225842Y-95771575D01*
X56182217Y-95716998D01*
X56175023Y-95647500D01*
X56206546Y-95585145D01*
X56225842Y-95568425D01*
X56276924Y-95532657D01*
X56411401Y-95438495D01*
X56578495Y-95271401D01*
X56714035Y-95077830D01*
X56813903Y-94863663D01*
X56875063Y-94635408D01*
X56895659Y-94400000D01*
X56875063Y-94164592D01*
X56813903Y-93936337D01*
X56714035Y-93722171D01*
X56708425Y-93714158D01*
X56578494Y-93528597D01*
X56411402Y-93361506D01*
X56411396Y-93361501D01*
X56225842Y-93231575D01*
X56182217Y-93176998D01*
X56175023Y-93107500D01*
X56206546Y-93045145D01*
X56225842Y-93028425D01*
X56253141Y-93009310D01*
X56411401Y-92898495D01*
X56578495Y-92731401D01*
X56714035Y-92537830D01*
X56813903Y-92323663D01*
X56875063Y-92095408D01*
X56895659Y-91860000D01*
X56875063Y-91624592D01*
X56813903Y-91396337D01*
X56714035Y-91182171D01*
X56708425Y-91174158D01*
X56578494Y-90988597D01*
X56411402Y-90821506D01*
X56411396Y-90821501D01*
X56225842Y-90691575D01*
X56182217Y-90636998D01*
X56175023Y-90567500D01*
X56206546Y-90505145D01*
X56225842Y-90488425D01*
X56351223Y-90400632D01*
X56411401Y-90358495D01*
X56578495Y-90191401D01*
X56714035Y-89997830D01*
X56813903Y-89783663D01*
X56875063Y-89555408D01*
X56895659Y-89320000D01*
X56875063Y-89084592D01*
X56819341Y-88876631D01*
X56813905Y-88856344D01*
X56813904Y-88856343D01*
X56813903Y-88856337D01*
X56714035Y-88642171D01*
X56708425Y-88634158D01*
X56578494Y-88448597D01*
X56411402Y-88281506D01*
X56411396Y-88281501D01*
X56225842Y-88151575D01*
X56182217Y-88096998D01*
X56175023Y-88027500D01*
X56206546Y-87965145D01*
X56225842Y-87948425D01*
X56248026Y-87932891D01*
X56411401Y-87818495D01*
X56578495Y-87651401D01*
X56714035Y-87457830D01*
X56813903Y-87243663D01*
X56875063Y-87015408D01*
X56895659Y-86780000D01*
X56875063Y-86544592D01*
X56813903Y-86316337D01*
X56714035Y-86102171D01*
X56708425Y-86094158D01*
X56578494Y-85908597D01*
X56411402Y-85741506D01*
X56411396Y-85741501D01*
X56225842Y-85611575D01*
X56182217Y-85556998D01*
X56175023Y-85487500D01*
X56206546Y-85425145D01*
X56225842Y-85408425D01*
X56351223Y-85320632D01*
X56411401Y-85278495D01*
X56578495Y-85111401D01*
X56714035Y-84917830D01*
X56813903Y-84703663D01*
X56875063Y-84475408D01*
X56895659Y-84240000D01*
X56875063Y-84004592D01*
X56813903Y-83776337D01*
X56714035Y-83562171D01*
X56708425Y-83554158D01*
X56578494Y-83368597D01*
X56411402Y-83201506D01*
X56411396Y-83201501D01*
X56225842Y-83071575D01*
X56182217Y-83016998D01*
X56175023Y-82947500D01*
X56206546Y-82885145D01*
X56225842Y-82868425D01*
X56351223Y-82780632D01*
X56411401Y-82738495D01*
X56578495Y-82571401D01*
X56714035Y-82377830D01*
X56813903Y-82163663D01*
X56875063Y-81935408D01*
X56895659Y-81700000D01*
X56875063Y-81464592D01*
X56813903Y-81236337D01*
X56714035Y-81022171D01*
X56708425Y-81014158D01*
X56578494Y-80828597D01*
X56411402Y-80661506D01*
X56411396Y-80661501D01*
X56225842Y-80531575D01*
X56182217Y-80476998D01*
X56175023Y-80407500D01*
X56206546Y-80345145D01*
X56225842Y-80328425D01*
X56248026Y-80312891D01*
X56411401Y-80198495D01*
X56578495Y-80031401D01*
X56714035Y-79837830D01*
X56813903Y-79623663D01*
X56875063Y-79395408D01*
X56895659Y-79160000D01*
X56875063Y-78924592D01*
X56813903Y-78696337D01*
X56714035Y-78482171D01*
X56708425Y-78474158D01*
X56578494Y-78288597D01*
X56411402Y-78121506D01*
X56411396Y-78121501D01*
X56225842Y-77991575D01*
X56182217Y-77936998D01*
X56175023Y-77867500D01*
X56206546Y-77805145D01*
X56225842Y-77788425D01*
X56278609Y-77751477D01*
X56411401Y-77658495D01*
X56578495Y-77491401D01*
X56714035Y-77297830D01*
X56813903Y-77083663D01*
X56875063Y-76855408D01*
X56895659Y-76620000D01*
X56875063Y-76384592D01*
X56813903Y-76156337D01*
X56714035Y-75942171D01*
X56708425Y-75934158D01*
X56578494Y-75748597D01*
X56411402Y-75581506D01*
X56411396Y-75581501D01*
X56225842Y-75451575D01*
X56182217Y-75396998D01*
X56175023Y-75327500D01*
X56206546Y-75265145D01*
X56225842Y-75248425D01*
X56291765Y-75202265D01*
X56411401Y-75118495D01*
X56578495Y-74951401D01*
X56714035Y-74757830D01*
X56813903Y-74543663D01*
X56875063Y-74315408D01*
X56895659Y-74080000D01*
X56875063Y-73844592D01*
X56813903Y-73616337D01*
X56714035Y-73402171D01*
X56708425Y-73394158D01*
X56578494Y-73208597D01*
X56411402Y-73041506D01*
X56411396Y-73041501D01*
X56225842Y-72911575D01*
X56182217Y-72856998D01*
X56175023Y-72787500D01*
X56206546Y-72725145D01*
X56225842Y-72708425D01*
X56250764Y-72690974D01*
X56411401Y-72578495D01*
X56578495Y-72411401D01*
X56714035Y-72217830D01*
X56813903Y-72003663D01*
X56875063Y-71775408D01*
X56895659Y-71540000D01*
X56875063Y-71304592D01*
X56813903Y-71076337D01*
X56714035Y-70862171D01*
X56708425Y-70854158D01*
X56578494Y-70668597D01*
X56411402Y-70501506D01*
X56411396Y-70501501D01*
X56225842Y-70371575D01*
X56182217Y-70316998D01*
X56175023Y-70247500D01*
X56206546Y-70185145D01*
X56225842Y-70168425D01*
X56331869Y-70094184D01*
X56411401Y-70038495D01*
X56578495Y-69871401D01*
X56714035Y-69677830D01*
X56813903Y-69463663D01*
X56875063Y-69235408D01*
X56895659Y-69000000D01*
X56875063Y-68764592D01*
X56813903Y-68536337D01*
X56714035Y-68322171D01*
X56708425Y-68314158D01*
X56578494Y-68128597D01*
X56411402Y-67961506D01*
X56411395Y-67961501D01*
X56217834Y-67825967D01*
X56217830Y-67825965D01*
X56217828Y-67825964D01*
X56003663Y-67726097D01*
X56003659Y-67726096D01*
X56003655Y-67726094D01*
X55775413Y-67664938D01*
X55775403Y-67664936D01*
X55540001Y-67644341D01*
X55539999Y-67644341D01*
X55304596Y-67664936D01*
X55304586Y-67664938D01*
X55076344Y-67726094D01*
X55076335Y-67726098D01*
X54862171Y-67825964D01*
X54862169Y-67825965D01*
X54668597Y-67961505D01*
X54501505Y-68128597D01*
X54371575Y-68314158D01*
X54316998Y-68357783D01*
X54247500Y-68364977D01*
X54185145Y-68333454D01*
X54168425Y-68314158D01*
X54038494Y-68128597D01*
X53871402Y-67961506D01*
X53871395Y-67961501D01*
X53677834Y-67825967D01*
X53677830Y-67825965D01*
X53677828Y-67825964D01*
X53463663Y-67726097D01*
X53463659Y-67726096D01*
X53463655Y-67726094D01*
X53235413Y-67664938D01*
X53235403Y-67664936D01*
X53000001Y-67644341D01*
X52999999Y-67644341D01*
X52764596Y-67664936D01*
X52764586Y-67664938D01*
X52536344Y-67726094D01*
X52536335Y-67726098D01*
X52322171Y-67825964D01*
X52322169Y-67825965D01*
X52128597Y-67961505D01*
X51961505Y-68128597D01*
X51825965Y-68322169D01*
X51825964Y-68322171D01*
X51726098Y-68536335D01*
X51726094Y-68536344D01*
X51664938Y-68764586D01*
X51664936Y-68764596D01*
X51644341Y-68999999D01*
X51000500Y-68999999D01*
X51000500Y-67124500D01*
X51020185Y-67057461D01*
X51072989Y-67011706D01*
X51124500Y-67000500D01*
X148875500Y-67000500D01*
X148942539Y-67020185D01*
G37*
%TD.AperFunction*%
%TD*%
M02*
