%TF.GenerationSoftware,KiCad,Pcbnew,8.0.5-8.0.5-0~ubuntu22.04.1*%
%TF.CreationDate,2024-10-05T20:14:47+02:00*%
%TF.ProjectId,MP_Board,4d505f42-6f61-4726-942e-6b696361645f,rev?*%
%TF.SameCoordinates,Original*%
%TF.FileFunction,Legend,Bot*%
%TF.FilePolarity,Positive*%
%FSLAX46Y46*%
G04 Gerber Fmt 4.6, Leading zero omitted, Abs format (unit mm)*
G04 Created by KiCad (PCBNEW 8.0.5-8.0.5-0~ubuntu22.04.1) date 2024-10-05 20:14:47*
%MOMM*%
%LPD*%
G01*
G04 APERTURE LIST*
%ADD10C,0.150000*%
%ADD11C,0.120000*%
G04 APERTURE END LIST*
D10*
X135509000Y-79121000D02*
X135255000Y-81407000D01*
X136855030Y-77736819D02*
X137331220Y-77736819D01*
X137331220Y-77736819D02*
X137378839Y-78213009D01*
X137378839Y-78213009D02*
X137331220Y-78165390D01*
X137331220Y-78165390D02*
X137235982Y-78117771D01*
X137235982Y-78117771D02*
X136997887Y-78117771D01*
X136997887Y-78117771D02*
X136902649Y-78165390D01*
X136902649Y-78165390D02*
X136855030Y-78213009D01*
X136855030Y-78213009D02*
X136807411Y-78308247D01*
X136807411Y-78308247D02*
X136807411Y-78546342D01*
X136807411Y-78546342D02*
X136855030Y-78641580D01*
X136855030Y-78641580D02*
X136902649Y-78689200D01*
X136902649Y-78689200D02*
X136997887Y-78736819D01*
X136997887Y-78736819D02*
X137235982Y-78736819D01*
X137235982Y-78736819D02*
X137331220Y-78689200D01*
X137331220Y-78689200D02*
X137378839Y-78641580D01*
X136521696Y-77736819D02*
X136188363Y-78736819D01*
X136188363Y-78736819D02*
X135855030Y-77736819D01*
X134902648Y-78070152D02*
X134521696Y-78070152D01*
X134759791Y-77736819D02*
X134759791Y-78593961D01*
X134759791Y-78593961D02*
X134712172Y-78689200D01*
X134712172Y-78689200D02*
X134616934Y-78736819D01*
X134616934Y-78736819D02*
X134521696Y-78736819D01*
X134045505Y-78736819D02*
X134140743Y-78689200D01*
X134140743Y-78689200D02*
X134188362Y-78641580D01*
X134188362Y-78641580D02*
X134235981Y-78546342D01*
X134235981Y-78546342D02*
X134235981Y-78260628D01*
X134235981Y-78260628D02*
X134188362Y-78165390D01*
X134188362Y-78165390D02*
X134140743Y-78117771D01*
X134140743Y-78117771D02*
X134045505Y-78070152D01*
X134045505Y-78070152D02*
X133902648Y-78070152D01*
X133902648Y-78070152D02*
X133807410Y-78117771D01*
X133807410Y-78117771D02*
X133759791Y-78165390D01*
X133759791Y-78165390D02*
X133712172Y-78260628D01*
X133712172Y-78260628D02*
X133712172Y-78546342D01*
X133712172Y-78546342D02*
X133759791Y-78641580D01*
X133759791Y-78641580D02*
X133807410Y-78689200D01*
X133807410Y-78689200D02*
X133902648Y-78736819D01*
X133902648Y-78736819D02*
X134045505Y-78736819D01*
X131950267Y-78641580D02*
X131997886Y-78689200D01*
X131997886Y-78689200D02*
X132140743Y-78736819D01*
X132140743Y-78736819D02*
X132235981Y-78736819D01*
X132235981Y-78736819D02*
X132378838Y-78689200D01*
X132378838Y-78689200D02*
X132474076Y-78593961D01*
X132474076Y-78593961D02*
X132521695Y-78498723D01*
X132521695Y-78498723D02*
X132569314Y-78308247D01*
X132569314Y-78308247D02*
X132569314Y-78165390D01*
X132569314Y-78165390D02*
X132521695Y-77974914D01*
X132521695Y-77974914D02*
X132474076Y-77879676D01*
X132474076Y-77879676D02*
X132378838Y-77784438D01*
X132378838Y-77784438D02*
X132235981Y-77736819D01*
X132235981Y-77736819D02*
X132140743Y-77736819D01*
X132140743Y-77736819D02*
X131997886Y-77784438D01*
X131997886Y-77784438D02*
X131950267Y-77832057D01*
X131569314Y-78689200D02*
X131426457Y-78736819D01*
X131426457Y-78736819D02*
X131188362Y-78736819D01*
X131188362Y-78736819D02*
X131093124Y-78689200D01*
X131093124Y-78689200D02*
X131045505Y-78641580D01*
X131045505Y-78641580D02*
X130997886Y-78546342D01*
X130997886Y-78546342D02*
X130997886Y-78451104D01*
X130997886Y-78451104D02*
X131045505Y-78355866D01*
X131045505Y-78355866D02*
X131093124Y-78308247D01*
X131093124Y-78308247D02*
X131188362Y-78260628D01*
X131188362Y-78260628D02*
X131378838Y-78213009D01*
X131378838Y-78213009D02*
X131474076Y-78165390D01*
X131474076Y-78165390D02*
X131521695Y-78117771D01*
X131521695Y-78117771D02*
X131569314Y-78022533D01*
X131569314Y-78022533D02*
X131569314Y-77927295D01*
X131569314Y-77927295D02*
X131521695Y-77832057D01*
X131521695Y-77832057D02*
X131474076Y-77784438D01*
X131474076Y-77784438D02*
X131378838Y-77736819D01*
X131378838Y-77736819D02*
X131140743Y-77736819D01*
X131140743Y-77736819D02*
X130997886Y-77784438D01*
X130045505Y-78736819D02*
X130616933Y-78736819D01*
X130331219Y-78736819D02*
X130331219Y-77736819D01*
X130331219Y-77736819D02*
X130426457Y-77879676D01*
X130426457Y-77879676D02*
X130521695Y-77974914D01*
X130521695Y-77974914D02*
X130616933Y-78022533D01*
X135458030Y-121043819D02*
X135934220Y-121043819D01*
X135934220Y-121043819D02*
X135981839Y-121520009D01*
X135981839Y-121520009D02*
X135934220Y-121472390D01*
X135934220Y-121472390D02*
X135838982Y-121424771D01*
X135838982Y-121424771D02*
X135600887Y-121424771D01*
X135600887Y-121424771D02*
X135505649Y-121472390D01*
X135505649Y-121472390D02*
X135458030Y-121520009D01*
X135458030Y-121520009D02*
X135410411Y-121615247D01*
X135410411Y-121615247D02*
X135410411Y-121853342D01*
X135410411Y-121853342D02*
X135458030Y-121948580D01*
X135458030Y-121948580D02*
X135505649Y-121996200D01*
X135505649Y-121996200D02*
X135600887Y-122043819D01*
X135600887Y-122043819D02*
X135838982Y-122043819D01*
X135838982Y-122043819D02*
X135934220Y-121996200D01*
X135934220Y-121996200D02*
X135981839Y-121948580D01*
X135124696Y-121043819D02*
X134791363Y-122043819D01*
X134791363Y-122043819D02*
X134458030Y-121043819D01*
X133505648Y-121377152D02*
X133124696Y-121377152D01*
X133362791Y-121043819D02*
X133362791Y-121900961D01*
X133362791Y-121900961D02*
X133315172Y-121996200D01*
X133315172Y-121996200D02*
X133219934Y-122043819D01*
X133219934Y-122043819D02*
X133124696Y-122043819D01*
X132648505Y-122043819D02*
X132743743Y-121996200D01*
X132743743Y-121996200D02*
X132791362Y-121948580D01*
X132791362Y-121948580D02*
X132838981Y-121853342D01*
X132838981Y-121853342D02*
X132838981Y-121567628D01*
X132838981Y-121567628D02*
X132791362Y-121472390D01*
X132791362Y-121472390D02*
X132743743Y-121424771D01*
X132743743Y-121424771D02*
X132648505Y-121377152D01*
X132648505Y-121377152D02*
X132505648Y-121377152D01*
X132505648Y-121377152D02*
X132410410Y-121424771D01*
X132410410Y-121424771D02*
X132362791Y-121472390D01*
X132362791Y-121472390D02*
X132315172Y-121567628D01*
X132315172Y-121567628D02*
X132315172Y-121853342D01*
X132315172Y-121853342D02*
X132362791Y-121948580D01*
X132362791Y-121948580D02*
X132410410Y-121996200D01*
X132410410Y-121996200D02*
X132505648Y-122043819D01*
X132505648Y-122043819D02*
X132648505Y-122043819D01*
X130553267Y-121948580D02*
X130600886Y-121996200D01*
X130600886Y-121996200D02*
X130743743Y-122043819D01*
X130743743Y-122043819D02*
X130838981Y-122043819D01*
X130838981Y-122043819D02*
X130981838Y-121996200D01*
X130981838Y-121996200D02*
X131077076Y-121900961D01*
X131077076Y-121900961D02*
X131124695Y-121805723D01*
X131124695Y-121805723D02*
X131172314Y-121615247D01*
X131172314Y-121615247D02*
X131172314Y-121472390D01*
X131172314Y-121472390D02*
X131124695Y-121281914D01*
X131124695Y-121281914D02*
X131077076Y-121186676D01*
X131077076Y-121186676D02*
X130981838Y-121091438D01*
X130981838Y-121091438D02*
X130838981Y-121043819D01*
X130838981Y-121043819D02*
X130743743Y-121043819D01*
X130743743Y-121043819D02*
X130600886Y-121091438D01*
X130600886Y-121091438D02*
X130553267Y-121139057D01*
X130172314Y-121996200D02*
X130029457Y-122043819D01*
X130029457Y-122043819D02*
X129791362Y-122043819D01*
X129791362Y-122043819D02*
X129696124Y-121996200D01*
X129696124Y-121996200D02*
X129648505Y-121948580D01*
X129648505Y-121948580D02*
X129600886Y-121853342D01*
X129600886Y-121853342D02*
X129600886Y-121758104D01*
X129600886Y-121758104D02*
X129648505Y-121662866D01*
X129648505Y-121662866D02*
X129696124Y-121615247D01*
X129696124Y-121615247D02*
X129791362Y-121567628D01*
X129791362Y-121567628D02*
X129981838Y-121520009D01*
X129981838Y-121520009D02*
X130077076Y-121472390D01*
X130077076Y-121472390D02*
X130124695Y-121424771D01*
X130124695Y-121424771D02*
X130172314Y-121329533D01*
X130172314Y-121329533D02*
X130172314Y-121234295D01*
X130172314Y-121234295D02*
X130124695Y-121139057D01*
X130124695Y-121139057D02*
X130077076Y-121091438D01*
X130077076Y-121091438D02*
X129981838Y-121043819D01*
X129981838Y-121043819D02*
X129743743Y-121043819D01*
X129743743Y-121043819D02*
X129600886Y-121091438D01*
X128648505Y-122043819D02*
X129219933Y-122043819D01*
X128934219Y-122043819D02*
X128934219Y-121043819D01*
X128934219Y-121043819D02*
X129029457Y-121186676D01*
X129029457Y-121186676D02*
X129124695Y-121281914D01*
X129124695Y-121281914D02*
X129219933Y-121329533D01*
X99067857Y-92589580D02*
X99115476Y-92637200D01*
X99115476Y-92637200D02*
X99258333Y-92684819D01*
X99258333Y-92684819D02*
X99353571Y-92684819D01*
X99353571Y-92684819D02*
X99496428Y-92637200D01*
X99496428Y-92637200D02*
X99591666Y-92541961D01*
X99591666Y-92541961D02*
X99639285Y-92446723D01*
X99639285Y-92446723D02*
X99686904Y-92256247D01*
X99686904Y-92256247D02*
X99686904Y-92113390D01*
X99686904Y-92113390D02*
X99639285Y-91922914D01*
X99639285Y-91922914D02*
X99591666Y-91827676D01*
X99591666Y-91827676D02*
X99496428Y-91732438D01*
X99496428Y-91732438D02*
X99353571Y-91684819D01*
X99353571Y-91684819D02*
X99258333Y-91684819D01*
X99258333Y-91684819D02*
X99115476Y-91732438D01*
X99115476Y-91732438D02*
X99067857Y-91780057D01*
X98686904Y-92637200D02*
X98544047Y-92684819D01*
X98544047Y-92684819D02*
X98305952Y-92684819D01*
X98305952Y-92684819D02*
X98210714Y-92637200D01*
X98210714Y-92637200D02*
X98163095Y-92589580D01*
X98163095Y-92589580D02*
X98115476Y-92494342D01*
X98115476Y-92494342D02*
X98115476Y-92399104D01*
X98115476Y-92399104D02*
X98163095Y-92303866D01*
X98163095Y-92303866D02*
X98210714Y-92256247D01*
X98210714Y-92256247D02*
X98305952Y-92208628D01*
X98305952Y-92208628D02*
X98496428Y-92161009D01*
X98496428Y-92161009D02*
X98591666Y-92113390D01*
X98591666Y-92113390D02*
X98639285Y-92065771D01*
X98639285Y-92065771D02*
X98686904Y-91970533D01*
X98686904Y-91970533D02*
X98686904Y-91875295D01*
X98686904Y-91875295D02*
X98639285Y-91780057D01*
X98639285Y-91780057D02*
X98591666Y-91732438D01*
X98591666Y-91732438D02*
X98496428Y-91684819D01*
X98496428Y-91684819D02*
X98258333Y-91684819D01*
X98258333Y-91684819D02*
X98115476Y-91732438D01*
X97163095Y-92684819D02*
X97734523Y-92684819D01*
X97448809Y-92684819D02*
X97448809Y-91684819D01*
X97448809Y-91684819D02*
X97544047Y-91827676D01*
X97544047Y-91827676D02*
X97639285Y-91922914D01*
X97639285Y-91922914D02*
X97734523Y-91970533D01*
X103671666Y-92684819D02*
X104004999Y-92208628D01*
X104243094Y-92684819D02*
X104243094Y-91684819D01*
X104243094Y-91684819D02*
X103862142Y-91684819D01*
X103862142Y-91684819D02*
X103766904Y-91732438D01*
X103766904Y-91732438D02*
X103719285Y-91780057D01*
X103719285Y-91780057D02*
X103671666Y-91875295D01*
X103671666Y-91875295D02*
X103671666Y-92018152D01*
X103671666Y-92018152D02*
X103719285Y-92113390D01*
X103719285Y-92113390D02*
X103766904Y-92161009D01*
X103766904Y-92161009D02*
X103862142Y-92208628D01*
X103862142Y-92208628D02*
X104243094Y-92208628D01*
X103290713Y-92637200D02*
X103147856Y-92684819D01*
X103147856Y-92684819D02*
X102909761Y-92684819D01*
X102909761Y-92684819D02*
X102814523Y-92637200D01*
X102814523Y-92637200D02*
X102766904Y-92589580D01*
X102766904Y-92589580D02*
X102719285Y-92494342D01*
X102719285Y-92494342D02*
X102719285Y-92399104D01*
X102719285Y-92399104D02*
X102766904Y-92303866D01*
X102766904Y-92303866D02*
X102814523Y-92256247D01*
X102814523Y-92256247D02*
X102909761Y-92208628D01*
X102909761Y-92208628D02*
X103100237Y-92161009D01*
X103100237Y-92161009D02*
X103195475Y-92113390D01*
X103195475Y-92113390D02*
X103243094Y-92065771D01*
X103243094Y-92065771D02*
X103290713Y-91970533D01*
X103290713Y-91970533D02*
X103290713Y-91875295D01*
X103290713Y-91875295D02*
X103243094Y-91780057D01*
X103243094Y-91780057D02*
X103195475Y-91732438D01*
X103195475Y-91732438D02*
X103100237Y-91684819D01*
X103100237Y-91684819D02*
X102862142Y-91684819D01*
X102862142Y-91684819D02*
X102719285Y-91732438D01*
X104381190Y-91407200D02*
X102628809Y-91407200D01*
X94313285Y-105833104D02*
X93837095Y-105833104D01*
X94408523Y-106118819D02*
X94075190Y-105118819D01*
X94075190Y-105118819D02*
X93741857Y-106118819D01*
X92932333Y-105118819D02*
X93408523Y-105118819D01*
X93408523Y-105118819D02*
X93456142Y-105595009D01*
X93456142Y-105595009D02*
X93408523Y-105547390D01*
X93408523Y-105547390D02*
X93313285Y-105499771D01*
X93313285Y-105499771D02*
X93075190Y-105499771D01*
X93075190Y-105499771D02*
X92979952Y-105547390D01*
X92979952Y-105547390D02*
X92932333Y-105595009D01*
X92932333Y-105595009D02*
X92884714Y-105690247D01*
X92884714Y-105690247D02*
X92884714Y-105928342D01*
X92884714Y-105928342D02*
X92932333Y-106023580D01*
X92932333Y-106023580D02*
X92979952Y-106071200D01*
X92979952Y-106071200D02*
X93075190Y-106118819D01*
X93075190Y-106118819D02*
X93313285Y-106118819D01*
X93313285Y-106118819D02*
X93408523Y-106071200D01*
X93408523Y-106071200D02*
X93456142Y-106023580D01*
X101925238Y-65351819D02*
X102258571Y-64875628D01*
X102496666Y-65351819D02*
X102496666Y-64351819D01*
X102496666Y-64351819D02*
X102115714Y-64351819D01*
X102115714Y-64351819D02*
X102020476Y-64399438D01*
X102020476Y-64399438D02*
X101972857Y-64447057D01*
X101972857Y-64447057D02*
X101925238Y-64542295D01*
X101925238Y-64542295D02*
X101925238Y-64685152D01*
X101925238Y-64685152D02*
X101972857Y-64780390D01*
X101972857Y-64780390D02*
X102020476Y-64828009D01*
X102020476Y-64828009D02*
X102115714Y-64875628D01*
X102115714Y-64875628D02*
X102496666Y-64875628D01*
X100782381Y-64304200D02*
X101639523Y-65589914D01*
X100544285Y-64351819D02*
X100306190Y-65351819D01*
X100306190Y-65351819D02*
X100115714Y-64637533D01*
X100115714Y-64637533D02*
X99925238Y-65351819D01*
X99925238Y-65351819D02*
X99687143Y-64351819D01*
X100587143Y-64074200D02*
X99644286Y-64074200D01*
X99544286Y-65447057D02*
X98782381Y-65447057D01*
X98163333Y-65304200D02*
X98258571Y-65351819D01*
X98258571Y-65351819D02*
X98449047Y-65351819D01*
X98449047Y-65351819D02*
X98544285Y-65304200D01*
X98544285Y-65304200D02*
X98591904Y-65208961D01*
X98591904Y-65208961D02*
X98591904Y-64828009D01*
X98591904Y-64828009D02*
X98544285Y-64732771D01*
X98544285Y-64732771D02*
X98449047Y-64685152D01*
X98449047Y-64685152D02*
X98258571Y-64685152D01*
X98258571Y-64685152D02*
X98163333Y-64732771D01*
X98163333Y-64732771D02*
X98115714Y-64828009D01*
X98115714Y-64828009D02*
X98115714Y-64923247D01*
X98115714Y-64923247D02*
X98591904Y-65018485D01*
X96853285Y-84243104D02*
X96377095Y-84243104D01*
X96948523Y-84528819D02*
X96615190Y-83528819D01*
X96615190Y-83528819D02*
X96281857Y-84528819D01*
X95519952Y-83528819D02*
X95710428Y-83528819D01*
X95710428Y-83528819D02*
X95805666Y-83576438D01*
X95805666Y-83576438D02*
X95853285Y-83624057D01*
X95853285Y-83624057D02*
X95948523Y-83766914D01*
X95948523Y-83766914D02*
X95996142Y-83957390D01*
X95996142Y-83957390D02*
X95996142Y-84338342D01*
X95996142Y-84338342D02*
X95948523Y-84433580D01*
X95948523Y-84433580D02*
X95900904Y-84481200D01*
X95900904Y-84481200D02*
X95805666Y-84528819D01*
X95805666Y-84528819D02*
X95615190Y-84528819D01*
X95615190Y-84528819D02*
X95519952Y-84481200D01*
X95519952Y-84481200D02*
X95472333Y-84433580D01*
X95472333Y-84433580D02*
X95424714Y-84338342D01*
X95424714Y-84338342D02*
X95424714Y-84100247D01*
X95424714Y-84100247D02*
X95472333Y-84005009D01*
X95472333Y-84005009D02*
X95519952Y-83957390D01*
X95519952Y-83957390D02*
X95615190Y-83909771D01*
X95615190Y-83909771D02*
X95805666Y-83909771D01*
X95805666Y-83909771D02*
X95900904Y-83957390D01*
X95900904Y-83957390D02*
X95948523Y-84005009D01*
X95948523Y-84005009D02*
X95996142Y-84100247D01*
X97377094Y-71320819D02*
X97377094Y-70320819D01*
X97377094Y-70320819D02*
X97138999Y-70320819D01*
X97138999Y-70320819D02*
X96996142Y-70368438D01*
X96996142Y-70368438D02*
X96900904Y-70463676D01*
X96900904Y-70463676D02*
X96853285Y-70558914D01*
X96853285Y-70558914D02*
X96805666Y-70749390D01*
X96805666Y-70749390D02*
X96805666Y-70892247D01*
X96805666Y-70892247D02*
X96853285Y-71082723D01*
X96853285Y-71082723D02*
X96900904Y-71177961D01*
X96900904Y-71177961D02*
X96996142Y-71273200D01*
X96996142Y-71273200D02*
X97138999Y-71320819D01*
X97138999Y-71320819D02*
X97377094Y-71320819D01*
X96186618Y-70320819D02*
X95996142Y-70320819D01*
X95996142Y-70320819D02*
X95900904Y-70368438D01*
X95900904Y-70368438D02*
X95805666Y-70463676D01*
X95805666Y-70463676D02*
X95758047Y-70654152D01*
X95758047Y-70654152D02*
X95758047Y-70987485D01*
X95758047Y-70987485D02*
X95805666Y-71177961D01*
X95805666Y-71177961D02*
X95900904Y-71273200D01*
X95900904Y-71273200D02*
X95996142Y-71320819D01*
X95996142Y-71320819D02*
X96186618Y-71320819D01*
X96186618Y-71320819D02*
X96281856Y-71273200D01*
X96281856Y-71273200D02*
X96377094Y-71177961D01*
X96377094Y-71177961D02*
X96424713Y-70987485D01*
X96424713Y-70987485D02*
X96424713Y-70654152D01*
X96424713Y-70654152D02*
X96377094Y-70463676D01*
X96377094Y-70463676D02*
X96281856Y-70368438D01*
X96281856Y-70368438D02*
X96186618Y-70320819D01*
X95329475Y-70797009D02*
X94996142Y-70797009D01*
X94853285Y-71320819D02*
X95329475Y-71320819D01*
X95329475Y-71320819D02*
X95329475Y-70320819D01*
X95329475Y-70320819D02*
X94853285Y-70320819D01*
X97515190Y-70043200D02*
X94762809Y-70043200D01*
X134627857Y-115830580D02*
X134675476Y-115878200D01*
X134675476Y-115878200D02*
X134818333Y-115925819D01*
X134818333Y-115925819D02*
X134913571Y-115925819D01*
X134913571Y-115925819D02*
X135056428Y-115878200D01*
X135056428Y-115878200D02*
X135151666Y-115782961D01*
X135151666Y-115782961D02*
X135199285Y-115687723D01*
X135199285Y-115687723D02*
X135246904Y-115497247D01*
X135246904Y-115497247D02*
X135246904Y-115354390D01*
X135246904Y-115354390D02*
X135199285Y-115163914D01*
X135199285Y-115163914D02*
X135151666Y-115068676D01*
X135151666Y-115068676D02*
X135056428Y-114973438D01*
X135056428Y-114973438D02*
X134913571Y-114925819D01*
X134913571Y-114925819D02*
X134818333Y-114925819D01*
X134818333Y-114925819D02*
X134675476Y-114973438D01*
X134675476Y-114973438D02*
X134627857Y-115021057D01*
X134246904Y-115878200D02*
X134104047Y-115925819D01*
X134104047Y-115925819D02*
X133865952Y-115925819D01*
X133865952Y-115925819D02*
X133770714Y-115878200D01*
X133770714Y-115878200D02*
X133723095Y-115830580D01*
X133723095Y-115830580D02*
X133675476Y-115735342D01*
X133675476Y-115735342D02*
X133675476Y-115640104D01*
X133675476Y-115640104D02*
X133723095Y-115544866D01*
X133723095Y-115544866D02*
X133770714Y-115497247D01*
X133770714Y-115497247D02*
X133865952Y-115449628D01*
X133865952Y-115449628D02*
X134056428Y-115402009D01*
X134056428Y-115402009D02*
X134151666Y-115354390D01*
X134151666Y-115354390D02*
X134199285Y-115306771D01*
X134199285Y-115306771D02*
X134246904Y-115211533D01*
X134246904Y-115211533D02*
X134246904Y-115116295D01*
X134246904Y-115116295D02*
X134199285Y-115021057D01*
X134199285Y-115021057D02*
X134151666Y-114973438D01*
X134151666Y-114973438D02*
X134056428Y-114925819D01*
X134056428Y-114925819D02*
X133818333Y-114925819D01*
X133818333Y-114925819D02*
X133675476Y-114973438D01*
X132723095Y-115925819D02*
X133294523Y-115925819D01*
X133008809Y-115925819D02*
X133008809Y-114925819D01*
X133008809Y-114925819D02*
X133104047Y-115068676D01*
X133104047Y-115068676D02*
X133199285Y-115163914D01*
X133199285Y-115163914D02*
X133294523Y-115211533D01*
X87076780Y-145684533D02*
X87124400Y-145636914D01*
X87124400Y-145636914D02*
X87172019Y-145494057D01*
X87172019Y-145494057D02*
X87172019Y-145398819D01*
X87172019Y-145398819D02*
X87124400Y-145255962D01*
X87124400Y-145255962D02*
X87029161Y-145160724D01*
X87029161Y-145160724D02*
X86933923Y-145113105D01*
X86933923Y-145113105D02*
X86743447Y-145065486D01*
X86743447Y-145065486D02*
X86600590Y-145065486D01*
X86600590Y-145065486D02*
X86410114Y-145113105D01*
X86410114Y-145113105D02*
X86314876Y-145160724D01*
X86314876Y-145160724D02*
X86219638Y-145255962D01*
X86219638Y-145255962D02*
X86172019Y-145398819D01*
X86172019Y-145398819D02*
X86172019Y-145494057D01*
X86172019Y-145494057D02*
X86219638Y-145636914D01*
X86219638Y-145636914D02*
X86267257Y-145684533D01*
X86267257Y-146065486D02*
X86219638Y-146113105D01*
X86219638Y-146113105D02*
X86172019Y-146208343D01*
X86172019Y-146208343D02*
X86172019Y-146446438D01*
X86172019Y-146446438D02*
X86219638Y-146541676D01*
X86219638Y-146541676D02*
X86267257Y-146589295D01*
X86267257Y-146589295D02*
X86362495Y-146636914D01*
X86362495Y-146636914D02*
X86457733Y-146636914D01*
X86457733Y-146636914D02*
X86600590Y-146589295D01*
X86600590Y-146589295D02*
X87172019Y-146017867D01*
X87172019Y-146017867D02*
X87172019Y-146636914D01*
X111265666Y-90116819D02*
X111598999Y-89640628D01*
X111837094Y-90116819D02*
X111837094Y-89116819D01*
X111837094Y-89116819D02*
X111456142Y-89116819D01*
X111456142Y-89116819D02*
X111360904Y-89164438D01*
X111360904Y-89164438D02*
X111313285Y-89212057D01*
X111313285Y-89212057D02*
X111265666Y-89307295D01*
X111265666Y-89307295D02*
X111265666Y-89450152D01*
X111265666Y-89450152D02*
X111313285Y-89545390D01*
X111313285Y-89545390D02*
X111360904Y-89593009D01*
X111360904Y-89593009D02*
X111456142Y-89640628D01*
X111456142Y-89640628D02*
X111837094Y-89640628D01*
X110313285Y-90116819D02*
X110884713Y-90116819D01*
X110598999Y-90116819D02*
X110598999Y-89116819D01*
X110598999Y-89116819D02*
X110694237Y-89259676D01*
X110694237Y-89259676D02*
X110789475Y-89354914D01*
X110789475Y-89354914D02*
X110884713Y-89402533D01*
X131659285Y-84922009D02*
X131325952Y-84922009D01*
X131183095Y-85445819D02*
X131659285Y-85445819D01*
X131659285Y-85445819D02*
X131659285Y-84445819D01*
X131659285Y-84445819D02*
X131183095Y-84445819D01*
X77432819Y-144526095D02*
X78242342Y-144526095D01*
X78242342Y-144526095D02*
X78337580Y-144573714D01*
X78337580Y-144573714D02*
X78385200Y-144621333D01*
X78385200Y-144621333D02*
X78432819Y-144716571D01*
X78432819Y-144716571D02*
X78432819Y-144907047D01*
X78432819Y-144907047D02*
X78385200Y-145002285D01*
X78385200Y-145002285D02*
X78337580Y-145049904D01*
X78337580Y-145049904D02*
X78242342Y-145097523D01*
X78242342Y-145097523D02*
X77432819Y-145097523D01*
X77432819Y-145478476D02*
X77432819Y-146097523D01*
X77432819Y-146097523D02*
X77813771Y-145764190D01*
X77813771Y-145764190D02*
X77813771Y-145907047D01*
X77813771Y-145907047D02*
X77861390Y-146002285D01*
X77861390Y-146002285D02*
X77909009Y-146049904D01*
X77909009Y-146049904D02*
X78004247Y-146097523D01*
X78004247Y-146097523D02*
X78242342Y-146097523D01*
X78242342Y-146097523D02*
X78337580Y-146049904D01*
X78337580Y-146049904D02*
X78385200Y-146002285D01*
X78385200Y-146002285D02*
X78432819Y-145907047D01*
X78432819Y-145907047D02*
X78432819Y-145621333D01*
X78432819Y-145621333D02*
X78385200Y-145526095D01*
X78385200Y-145526095D02*
X78337580Y-145478476D01*
X104052666Y-69955580D02*
X104100285Y-70003200D01*
X104100285Y-70003200D02*
X104243142Y-70050819D01*
X104243142Y-70050819D02*
X104338380Y-70050819D01*
X104338380Y-70050819D02*
X104481237Y-70003200D01*
X104481237Y-70003200D02*
X104576475Y-69907961D01*
X104576475Y-69907961D02*
X104624094Y-69812723D01*
X104624094Y-69812723D02*
X104671713Y-69622247D01*
X104671713Y-69622247D02*
X104671713Y-69479390D01*
X104671713Y-69479390D02*
X104624094Y-69288914D01*
X104624094Y-69288914D02*
X104576475Y-69193676D01*
X104576475Y-69193676D02*
X104481237Y-69098438D01*
X104481237Y-69098438D02*
X104338380Y-69050819D01*
X104338380Y-69050819D02*
X104243142Y-69050819D01*
X104243142Y-69050819D02*
X104100285Y-69098438D01*
X104100285Y-69098438D02*
X104052666Y-69146057D01*
X103147904Y-69050819D02*
X103624094Y-69050819D01*
X103624094Y-69050819D02*
X103671713Y-69527009D01*
X103671713Y-69527009D02*
X103624094Y-69479390D01*
X103624094Y-69479390D02*
X103528856Y-69431771D01*
X103528856Y-69431771D02*
X103290761Y-69431771D01*
X103290761Y-69431771D02*
X103195523Y-69479390D01*
X103195523Y-69479390D02*
X103147904Y-69527009D01*
X103147904Y-69527009D02*
X103100285Y-69622247D01*
X103100285Y-69622247D02*
X103100285Y-69860342D01*
X103100285Y-69860342D02*
X103147904Y-69955580D01*
X103147904Y-69955580D02*
X103195523Y-70003200D01*
X103195523Y-70003200D02*
X103290761Y-70050819D01*
X103290761Y-70050819D02*
X103528856Y-70050819D01*
X103528856Y-70050819D02*
X103624094Y-70003200D01*
X103624094Y-70003200D02*
X103671713Y-69955580D01*
X141155714Y-85664819D02*
X141489047Y-85188628D01*
X141727142Y-85664819D02*
X141727142Y-84664819D01*
X141727142Y-84664819D02*
X141346190Y-84664819D01*
X141346190Y-84664819D02*
X141250952Y-84712438D01*
X141250952Y-84712438D02*
X141203333Y-84760057D01*
X141203333Y-84760057D02*
X141155714Y-84855295D01*
X141155714Y-84855295D02*
X141155714Y-84998152D01*
X141155714Y-84998152D02*
X141203333Y-85093390D01*
X141203333Y-85093390D02*
X141250952Y-85141009D01*
X141250952Y-85141009D02*
X141346190Y-85188628D01*
X141346190Y-85188628D02*
X141727142Y-85188628D01*
X140012857Y-84617200D02*
X140869999Y-85902914D01*
X139774761Y-84664819D02*
X139536666Y-85664819D01*
X139536666Y-85664819D02*
X139346190Y-84950533D01*
X139346190Y-84950533D02*
X139155714Y-85664819D01*
X139155714Y-85664819D02*
X138917619Y-84664819D01*
X139817619Y-84387200D02*
X138874762Y-84387200D01*
X82782580Y-141438333D02*
X82830200Y-141390714D01*
X82830200Y-141390714D02*
X82877819Y-141247857D01*
X82877819Y-141247857D02*
X82877819Y-141152619D01*
X82877819Y-141152619D02*
X82830200Y-141009762D01*
X82830200Y-141009762D02*
X82734961Y-140914524D01*
X82734961Y-140914524D02*
X82639723Y-140866905D01*
X82639723Y-140866905D02*
X82449247Y-140819286D01*
X82449247Y-140819286D02*
X82306390Y-140819286D01*
X82306390Y-140819286D02*
X82115914Y-140866905D01*
X82115914Y-140866905D02*
X82020676Y-140914524D01*
X82020676Y-140914524D02*
X81925438Y-141009762D01*
X81925438Y-141009762D02*
X81877819Y-141152619D01*
X81877819Y-141152619D02*
X81877819Y-141247857D01*
X81877819Y-141247857D02*
X81925438Y-141390714D01*
X81925438Y-141390714D02*
X81973057Y-141438333D01*
X82877819Y-141914524D02*
X82877819Y-142105000D01*
X82877819Y-142105000D02*
X82830200Y-142200238D01*
X82830200Y-142200238D02*
X82782580Y-142247857D01*
X82782580Y-142247857D02*
X82639723Y-142343095D01*
X82639723Y-142343095D02*
X82449247Y-142390714D01*
X82449247Y-142390714D02*
X82068295Y-142390714D01*
X82068295Y-142390714D02*
X81973057Y-142343095D01*
X81973057Y-142343095D02*
X81925438Y-142295476D01*
X81925438Y-142295476D02*
X81877819Y-142200238D01*
X81877819Y-142200238D02*
X81877819Y-142009762D01*
X81877819Y-142009762D02*
X81925438Y-141914524D01*
X81925438Y-141914524D02*
X81973057Y-141866905D01*
X81973057Y-141866905D02*
X82068295Y-141819286D01*
X82068295Y-141819286D02*
X82306390Y-141819286D01*
X82306390Y-141819286D02*
X82401628Y-141866905D01*
X82401628Y-141866905D02*
X82449247Y-141914524D01*
X82449247Y-141914524D02*
X82496866Y-142009762D01*
X82496866Y-142009762D02*
X82496866Y-142200238D01*
X82496866Y-142200238D02*
X82449247Y-142295476D01*
X82449247Y-142295476D02*
X82401628Y-142343095D01*
X82401628Y-142343095D02*
X82306390Y-142390714D01*
X64462819Y-147534333D02*
X63986628Y-147201000D01*
X64462819Y-146962905D02*
X63462819Y-146962905D01*
X63462819Y-146962905D02*
X63462819Y-147343857D01*
X63462819Y-147343857D02*
X63510438Y-147439095D01*
X63510438Y-147439095D02*
X63558057Y-147486714D01*
X63558057Y-147486714D02*
X63653295Y-147534333D01*
X63653295Y-147534333D02*
X63796152Y-147534333D01*
X63796152Y-147534333D02*
X63891390Y-147486714D01*
X63891390Y-147486714D02*
X63939009Y-147439095D01*
X63939009Y-147439095D02*
X63986628Y-147343857D01*
X63986628Y-147343857D02*
X63986628Y-146962905D01*
X63558057Y-147915286D02*
X63510438Y-147962905D01*
X63510438Y-147962905D02*
X63462819Y-148058143D01*
X63462819Y-148058143D02*
X63462819Y-148296238D01*
X63462819Y-148296238D02*
X63510438Y-148391476D01*
X63510438Y-148391476D02*
X63558057Y-148439095D01*
X63558057Y-148439095D02*
X63653295Y-148486714D01*
X63653295Y-148486714D02*
X63748533Y-148486714D01*
X63748533Y-148486714D02*
X63891390Y-148439095D01*
X63891390Y-148439095D02*
X64462819Y-147867667D01*
X64462819Y-147867667D02*
X64462819Y-148486714D01*
X66780580Y-147534333D02*
X66828200Y-147486714D01*
X66828200Y-147486714D02*
X66875819Y-147343857D01*
X66875819Y-147343857D02*
X66875819Y-147248619D01*
X66875819Y-147248619D02*
X66828200Y-147105762D01*
X66828200Y-147105762D02*
X66732961Y-147010524D01*
X66732961Y-147010524D02*
X66637723Y-146962905D01*
X66637723Y-146962905D02*
X66447247Y-146915286D01*
X66447247Y-146915286D02*
X66304390Y-146915286D01*
X66304390Y-146915286D02*
X66113914Y-146962905D01*
X66113914Y-146962905D02*
X66018676Y-147010524D01*
X66018676Y-147010524D02*
X65923438Y-147105762D01*
X65923438Y-147105762D02*
X65875819Y-147248619D01*
X65875819Y-147248619D02*
X65875819Y-147343857D01*
X65875819Y-147343857D02*
X65923438Y-147486714D01*
X65923438Y-147486714D02*
X65971057Y-147534333D01*
X66304390Y-148105762D02*
X66256771Y-148010524D01*
X66256771Y-148010524D02*
X66209152Y-147962905D01*
X66209152Y-147962905D02*
X66113914Y-147915286D01*
X66113914Y-147915286D02*
X66066295Y-147915286D01*
X66066295Y-147915286D02*
X65971057Y-147962905D01*
X65971057Y-147962905D02*
X65923438Y-148010524D01*
X65923438Y-148010524D02*
X65875819Y-148105762D01*
X65875819Y-148105762D02*
X65875819Y-148296238D01*
X65875819Y-148296238D02*
X65923438Y-148391476D01*
X65923438Y-148391476D02*
X65971057Y-148439095D01*
X65971057Y-148439095D02*
X66066295Y-148486714D01*
X66066295Y-148486714D02*
X66113914Y-148486714D01*
X66113914Y-148486714D02*
X66209152Y-148439095D01*
X66209152Y-148439095D02*
X66256771Y-148391476D01*
X66256771Y-148391476D02*
X66304390Y-148296238D01*
X66304390Y-148296238D02*
X66304390Y-148105762D01*
X66304390Y-148105762D02*
X66352009Y-148010524D01*
X66352009Y-148010524D02*
X66399628Y-147962905D01*
X66399628Y-147962905D02*
X66494866Y-147915286D01*
X66494866Y-147915286D02*
X66685342Y-147915286D01*
X66685342Y-147915286D02*
X66780580Y-147962905D01*
X66780580Y-147962905D02*
X66828200Y-148010524D01*
X66828200Y-148010524D02*
X66875819Y-148105762D01*
X66875819Y-148105762D02*
X66875819Y-148296238D01*
X66875819Y-148296238D02*
X66828200Y-148391476D01*
X66828200Y-148391476D02*
X66780580Y-148439095D01*
X66780580Y-148439095D02*
X66685342Y-148486714D01*
X66685342Y-148486714D02*
X66494866Y-148486714D01*
X66494866Y-148486714D02*
X66399628Y-148439095D01*
X66399628Y-148439095D02*
X66352009Y-148391476D01*
X66352009Y-148391476D02*
X66304390Y-148296238D01*
X91209580Y-53958333D02*
X91257200Y-53910714D01*
X91257200Y-53910714D02*
X91304819Y-53767857D01*
X91304819Y-53767857D02*
X91304819Y-53672619D01*
X91304819Y-53672619D02*
X91257200Y-53529762D01*
X91257200Y-53529762D02*
X91161961Y-53434524D01*
X91161961Y-53434524D02*
X91066723Y-53386905D01*
X91066723Y-53386905D02*
X90876247Y-53339286D01*
X90876247Y-53339286D02*
X90733390Y-53339286D01*
X90733390Y-53339286D02*
X90542914Y-53386905D01*
X90542914Y-53386905D02*
X90447676Y-53434524D01*
X90447676Y-53434524D02*
X90352438Y-53529762D01*
X90352438Y-53529762D02*
X90304819Y-53672619D01*
X90304819Y-53672619D02*
X90304819Y-53767857D01*
X90304819Y-53767857D02*
X90352438Y-53910714D01*
X90352438Y-53910714D02*
X90400057Y-53958333D01*
X91304819Y-54910714D02*
X91304819Y-54339286D01*
X91304819Y-54625000D02*
X90304819Y-54625000D01*
X90304819Y-54625000D02*
X90447676Y-54529762D01*
X90447676Y-54529762D02*
X90542914Y-54434524D01*
X90542914Y-54434524D02*
X90590533Y-54339286D01*
X140273066Y-113114380D02*
X140320685Y-113162000D01*
X140320685Y-113162000D02*
X140463542Y-113209619D01*
X140463542Y-113209619D02*
X140558780Y-113209619D01*
X140558780Y-113209619D02*
X140701637Y-113162000D01*
X140701637Y-113162000D02*
X140796875Y-113066761D01*
X140796875Y-113066761D02*
X140844494Y-112971523D01*
X140844494Y-112971523D02*
X140892113Y-112781047D01*
X140892113Y-112781047D02*
X140892113Y-112638190D01*
X140892113Y-112638190D02*
X140844494Y-112447714D01*
X140844494Y-112447714D02*
X140796875Y-112352476D01*
X140796875Y-112352476D02*
X140701637Y-112257238D01*
X140701637Y-112257238D02*
X140558780Y-112209619D01*
X140558780Y-112209619D02*
X140463542Y-112209619D01*
X140463542Y-112209619D02*
X140320685Y-112257238D01*
X140320685Y-112257238D02*
X140273066Y-112304857D01*
X139939732Y-112209619D02*
X139273066Y-112209619D01*
X139273066Y-112209619D02*
X139701637Y-113209619D01*
X66875819Y-135088333D02*
X66399628Y-134755000D01*
X66875819Y-134516905D02*
X65875819Y-134516905D01*
X65875819Y-134516905D02*
X65875819Y-134897857D01*
X65875819Y-134897857D02*
X65923438Y-134993095D01*
X65923438Y-134993095D02*
X65971057Y-135040714D01*
X65971057Y-135040714D02*
X66066295Y-135088333D01*
X66066295Y-135088333D02*
X66209152Y-135088333D01*
X66209152Y-135088333D02*
X66304390Y-135040714D01*
X66304390Y-135040714D02*
X66352009Y-134993095D01*
X66352009Y-134993095D02*
X66399628Y-134897857D01*
X66399628Y-134897857D02*
X66399628Y-134516905D01*
X65875819Y-135421667D02*
X65875819Y-136040714D01*
X65875819Y-136040714D02*
X66256771Y-135707381D01*
X66256771Y-135707381D02*
X66256771Y-135850238D01*
X66256771Y-135850238D02*
X66304390Y-135945476D01*
X66304390Y-135945476D02*
X66352009Y-135993095D01*
X66352009Y-135993095D02*
X66447247Y-136040714D01*
X66447247Y-136040714D02*
X66685342Y-136040714D01*
X66685342Y-136040714D02*
X66780580Y-135993095D01*
X66780580Y-135993095D02*
X66828200Y-135945476D01*
X66828200Y-135945476D02*
X66875819Y-135850238D01*
X66875819Y-135850238D02*
X66875819Y-135564524D01*
X66875819Y-135564524D02*
X66828200Y-135469286D01*
X66828200Y-135469286D02*
X66780580Y-135421667D01*
X104052666Y-67415580D02*
X104100285Y-67463200D01*
X104100285Y-67463200D02*
X104243142Y-67510819D01*
X104243142Y-67510819D02*
X104338380Y-67510819D01*
X104338380Y-67510819D02*
X104481237Y-67463200D01*
X104481237Y-67463200D02*
X104576475Y-67367961D01*
X104576475Y-67367961D02*
X104624094Y-67272723D01*
X104624094Y-67272723D02*
X104671713Y-67082247D01*
X104671713Y-67082247D02*
X104671713Y-66939390D01*
X104671713Y-66939390D02*
X104624094Y-66748914D01*
X104624094Y-66748914D02*
X104576475Y-66653676D01*
X104576475Y-66653676D02*
X104481237Y-66558438D01*
X104481237Y-66558438D02*
X104338380Y-66510819D01*
X104338380Y-66510819D02*
X104243142Y-66510819D01*
X104243142Y-66510819D02*
X104100285Y-66558438D01*
X104100285Y-66558438D02*
X104052666Y-66606057D01*
X103195523Y-66844152D02*
X103195523Y-67510819D01*
X103433618Y-66463200D02*
X103671713Y-67177485D01*
X103671713Y-67177485D02*
X103052666Y-67177485D01*
D11*
%TO.C,J10*%
X98425000Y-89110000D02*
X99485000Y-89110000D01*
X99485000Y-89110000D02*
X99485000Y-90170000D01*
X99485000Y-91230000D02*
X99485000Y-91170000D01*
X97365000Y-91170000D02*
X99485000Y-91170000D01*
X97365000Y-91230000D02*
X99485000Y-91230000D01*
X97365000Y-91230000D02*
X97365000Y-91170000D01*
%TO.C,J13*%
X103505000Y-89110000D02*
X104565000Y-89110000D01*
X104565000Y-89110000D02*
X104565000Y-90170000D01*
X104565000Y-91230000D02*
X104565000Y-91170000D01*
X102445000Y-91170000D02*
X104565000Y-91170000D01*
X102445000Y-91230000D02*
X104565000Y-91230000D01*
X102445000Y-91230000D02*
X102445000Y-91170000D01*
%TO.C,J11*%
X95885000Y-104604000D02*
X96945000Y-104604000D01*
X96945000Y-104604000D02*
X96945000Y-105664000D01*
X96945000Y-106724000D02*
X96945000Y-106664000D01*
X94825000Y-106664000D02*
X96945000Y-106664000D01*
X94825000Y-106724000D02*
X96945000Y-106724000D01*
X94825000Y-106724000D02*
X94825000Y-106664000D01*
%TO.C,J7*%
X97326000Y-65278000D02*
X97326000Y-66338000D01*
X97326000Y-66338000D02*
X96266000Y-66338000D01*
X95206000Y-64218000D02*
X95266000Y-64218000D01*
X95266000Y-64218000D02*
X95266000Y-66338000D01*
X95206000Y-66338000D02*
X95266000Y-66338000D01*
X95206000Y-64218000D02*
X95206000Y-66338000D01*
%TO.C,J12*%
X93472000Y-83014000D02*
X94532000Y-83014000D01*
X94532000Y-83014000D02*
X94532000Y-84074000D01*
X94532000Y-85134000D02*
X94532000Y-85074000D01*
X92412000Y-85074000D02*
X94532000Y-85074000D01*
X92412000Y-85134000D02*
X94532000Y-85134000D01*
X92412000Y-85134000D02*
X92412000Y-85074000D01*
%TO.C,J6*%
X97326000Y-68326000D02*
X97326000Y-69386000D01*
X97326000Y-69386000D02*
X96266000Y-69386000D01*
X95206000Y-67266000D02*
X95266000Y-67266000D01*
X95266000Y-67266000D02*
X95266000Y-69386000D01*
X95206000Y-69386000D02*
X95266000Y-69386000D01*
X95206000Y-67266000D02*
X95206000Y-69386000D01*
%TO.C,J15*%
X133985000Y-112351000D02*
X135045000Y-112351000D01*
X135045000Y-112351000D02*
X135045000Y-113411000D01*
X135045000Y-114471000D02*
X135045000Y-114411000D01*
X132925000Y-114411000D02*
X135045000Y-114411000D01*
X132925000Y-114471000D02*
X135045000Y-114471000D01*
X132925000Y-114471000D02*
X132925000Y-114411000D01*
%TO.C,C2*%
X87890000Y-146486252D02*
X87890000Y-145063748D01*
X89710000Y-146486252D02*
X89710000Y-145063748D01*
%TO.C,R1*%
X107095936Y-88879000D02*
X108550064Y-88879000D01*
X107095936Y-90699000D02*
X108550064Y-90699000D01*
%TO.C,J8*%
X130385000Y-83931000D02*
X132505000Y-83931000D01*
X130385000Y-83991000D02*
X130385000Y-83931000D01*
X130385000Y-83991000D02*
X132505000Y-83991000D01*
X131445000Y-81871000D02*
X132505000Y-81871000D01*
X132505000Y-81871000D02*
X132505000Y-82931000D01*
X132505000Y-83991000D02*
X132505000Y-83931000D01*
%TO.C,U3*%
X67828000Y-140352000D02*
X67828000Y-142302000D01*
X67828000Y-144252000D02*
X67828000Y-142302000D01*
X76698000Y-140352000D02*
X76698000Y-142302000D01*
X76698000Y-144252000D02*
X76698000Y-142302000D01*
X76963000Y-145242000D02*
X76633000Y-145002000D01*
X76963000Y-144762000D01*
X76963000Y-145242000D01*
G36*
X76963000Y-145242000D02*
G01*
X76633000Y-145002000D01*
X76963000Y-144762000D01*
X76963000Y-145242000D01*
G37*
%TO.C,C5*%
X101344252Y-68686000D02*
X99921748Y-68686000D01*
X101344252Y-70506000D02*
X99921748Y-70506000D01*
%TO.C,J9*%
X139310000Y-84150000D02*
X141430000Y-84150000D01*
X139310000Y-84210000D02*
X139310000Y-84150000D01*
X139310000Y-84210000D02*
X141430000Y-84210000D01*
X140370000Y-82090000D02*
X141430000Y-82090000D01*
X141430000Y-82090000D02*
X141430000Y-83150000D01*
X141430000Y-84210000D02*
X141430000Y-84150000D01*
%TO.C,C9*%
X81315000Y-138511252D02*
X81315000Y-137088748D01*
X83135000Y-138511252D02*
X83135000Y-137088748D01*
%TO.C,JP11*%
X137182400Y-121864400D02*
X137182400Y-121264400D01*
X137882400Y-120564400D02*
X139282400Y-120564400D01*
X139282400Y-122564400D02*
X137882400Y-122564400D01*
X139982400Y-121264400D02*
X139982400Y-121864400D01*
X137182400Y-121264400D02*
G75*
G02*
X137882400Y-120564400I700000J0D01*
G01*
X137882400Y-122564400D02*
G75*
G02*
X137182400Y-121864400I0J700000D01*
G01*
X139282400Y-120564400D02*
G75*
G02*
X139982400Y-121264400I1J-699999D01*
G01*
X139982400Y-121864400D02*
G75*
G02*
X139282400Y-122564400I-699999J-1D01*
G01*
%TO.C,R2*%
X63040000Y-143322936D02*
X63040000Y-144777064D01*
X64860000Y-143322936D02*
X64860000Y-144777064D01*
%TO.C,C8*%
X65415000Y-144811252D02*
X65415000Y-143388748D01*
X67235000Y-144811252D02*
X67235000Y-143388748D01*
%TO.C,C1*%
X88090000Y-53413748D02*
X88090000Y-54836252D01*
X89910000Y-53413748D02*
X89910000Y-54836252D01*
%TO.C,C7*%
X139395148Y-113694800D02*
X140817652Y-113694800D01*
X139395148Y-115514800D02*
X140817652Y-115514800D01*
%TO.C,JP7*%
X133382000Y-83450000D02*
X133382000Y-82850000D01*
X134082000Y-82150000D02*
X135482000Y-82150000D01*
X135482000Y-84150000D02*
X134082000Y-84150000D01*
X136182000Y-82850000D02*
X136182000Y-83450000D01*
X133382000Y-82850000D02*
G75*
G02*
X134082000Y-82150000I700000J0D01*
G01*
X134082000Y-84150000D02*
G75*
G02*
X133382000Y-83450000I0J700000D01*
G01*
X135482000Y-82150000D02*
G75*
G02*
X136182000Y-82850000I1J-699999D01*
G01*
X136182000Y-83450000D02*
G75*
G02*
X135482000Y-84150000I-699999J-1D01*
G01*
%TO.C,R3*%
X65384000Y-138109936D02*
X65384000Y-139564064D01*
X67204000Y-138109936D02*
X67204000Y-139564064D01*
%TO.C,C4*%
X101344252Y-66146000D02*
X99921748Y-66146000D01*
X101344252Y-67966000D02*
X99921748Y-67966000D01*
%TD*%
M02*
