M48
; DRILL file {KiCad 8.0.5-8.0.5-0~ubuntu22.04.1} date 2024-10-05T20:14:49+0200
; FORMAT={-:-/ absolute / inch / decimal}
; #@! TF.CreationDate,2024-10-05T20:14:49+02:00
; #@! TF.GenerationSoftware,Kicad,Pcbnew,8.0.5-8.0.5-0~ubuntu22.04.1
; #@! TF.FileFunction,MixedPlating,1,2
FMAT,2
INCH
; #@! TA.AperFunction,Plated,PTH,ViaDrill
T1C0.0157
; #@! TA.AperFunction,Plated,PTH,ComponentDrill
T2C0.0315
; #@! TA.AperFunction,Plated,PTH,ComponentDrill
T3C0.0394
; #@! TA.AperFunction,NonPlated,NPTH,ComponentDrill
T4C0.1260
%
G90
G05
T1
X2.088Y-3.24
X2.61Y-5.405
X2.6112Y-5.6152
X2.6762Y-4.2697
X2.748Y-4.6102
X2.7874Y-4.4724
X2.8051Y-4.6132
X2.8401Y-4.3465
X2.845Y-5.505
X2.845Y-5.6999
X2.8551Y-4.6138
X2.895Y-5.6999
X2.9744Y-4.7156
X2.9774Y-4.9528
X3.0098Y-4.6014
X3.0543Y-4.6329
X3.0768Y-5.628
X3.1348Y-4.5876
X3.2323Y-4.2323
X3.3829Y-5.3425
X3.3927Y-4.0955
X3.4026Y-3.85
X3.55Y-5.355
X3.5876Y-4.5531
X3.6764Y-4.745
X3.71Y-5.274
X3.7648Y-2.9577
X3.8234Y-4.4066
X3.8327Y-3.0571
X3.855Y-4.155
X3.9039Y-2.64
X3.9039Y-2.74
X3.9454Y-3.6023
X3.96Y-2.91
X3.96Y-3.0
X3.975Y-3.045
X3.985Y-3.55
X3.9864Y-2.5588
X3.99Y-2.96
X3.99Y-3.9564
X4.018Y-4.148
X4.035Y-4.215
X4.0774Y-3.07
X4.09Y-2.68
X4.1Y-3.9591
X4.1595Y-3.0556
X4.2205Y-3.0618
X4.245Y-3.9591
X4.345Y-3.9591
X4.4364Y-2.5588
X4.445Y-3.9628
X4.47Y-2.93
X4.555Y-3.85
X4.595Y-3.075
X4.62Y-3.325
X4.64Y-4.218
X4.78Y-4.1779
X4.974Y-4.408
X5.0246Y-4.376
X5.128Y-4.37
X5.225Y-4.37
X5.27Y-3.93
X5.32Y-4.122
X5.408Y-4.138
X5.42Y-2.9282
X5.4304Y-4.786
X5.6179Y-2.8311
X5.6293Y-3.27
X5.65Y-2.65
X5.665Y-3.3
X5.68Y-4.7
X5.6978Y-2.5394
X5.76Y-4.19
X5.7632Y-3.11
X5.814Y-2.5394
X5.8858Y-4.79
T2
X2.2974Y-2.2384
X2.2974Y-2.5384
X2.3974Y-2.2384
X2.3974Y-2.5384
X2.4974Y-2.2384
X2.4974Y-2.5384
X2.5974Y-2.2384
X2.5974Y-2.5384
X2.6974Y-2.2384
X2.6974Y-2.5384
X2.7766Y-2.8524
X2.7766Y-3.7402
X2.7776Y-3.8435
X2.7854Y-3.9478
X2.7974Y-2.2384
X2.7974Y-2.5384
X2.892Y-5.386
X2.8974Y-2.2384
X2.8974Y-2.5384
X2.992Y-5.388
X2.9974Y-2.2384
X2.9974Y-2.5384
X3.0974Y-2.2384
X3.0974Y-2.5384
X3.1974Y-2.2384
X3.1974Y-2.5384
X3.2974Y-2.2384
X3.2974Y-2.5384
X3.3974Y-2.2384
X3.3974Y-2.5384
X3.4144Y-4.4705
X3.5305Y-4.4724
X3.676Y-4.306
X3.676Y-4.906
X3.6764Y-3.4336
X3.6764Y-4.0336
X3.6774Y-3.1711
X3.6774Y-3.7711
X3.68Y-3.31
X3.775Y-4.16
X3.776Y-4.306
X3.776Y-4.906
X3.7764Y-3.4336
X3.7764Y-4.0336
X3.7774Y-3.1711
X3.7774Y-3.7711
X3.79Y-2.57
X3.79Y-2.69
X3.875Y-3.55
X3.876Y-4.306
X3.876Y-4.906
X3.8764Y-3.4336
X3.8764Y-4.0336
X3.8774Y-3.1711
X3.8774Y-3.7711
X3.976Y-4.306
X3.976Y-4.906
X3.9764Y-3.4336
X3.9764Y-4.0336
X3.9774Y-3.1711
X3.9774Y-3.7711
X4.075Y-3.55
X4.076Y-4.306
X4.076Y-4.906
X4.0764Y-3.4336
X4.0764Y-4.0336
X4.0774Y-3.1711
X4.0774Y-3.7711
X4.176Y-4.306
X4.176Y-4.906
X4.1764Y-3.4336
X4.1764Y-4.0336
X4.1774Y-3.1711
X4.1774Y-3.7711
X4.276Y-4.306
X4.276Y-4.906
X4.2764Y-3.4336
X4.2764Y-4.0336
X4.2774Y-3.1711
X4.2774Y-3.7711
X4.376Y-4.306
X4.376Y-4.906
X4.3764Y-3.4336
X4.3764Y-4.0336
X4.3774Y-3.1711
X4.3774Y-3.7711
X4.476Y-4.306
X4.476Y-4.906
X4.4764Y-3.4336
X4.4764Y-4.0336
X4.4774Y-3.1711
X4.4774Y-3.7711
X4.576Y-4.306
X4.576Y-4.906
X4.5764Y-3.4336
X4.5764Y-4.0336
X4.5774Y-3.1711
X4.5774Y-3.7711
X4.676Y-4.306
X4.676Y-4.906
X4.6764Y-3.4336
X4.6764Y-4.0336
X4.6774Y-3.1711
X4.6774Y-3.7711
X4.776Y-4.306
X4.776Y-4.906
X4.7764Y-3.4336
X4.7764Y-4.0336
X4.7774Y-3.1711
X4.7774Y-3.7711
X4.876Y-4.306
X4.876Y-4.906
X4.8764Y-3.4336
X4.8764Y-4.0336
X4.8774Y-3.1711
X4.8774Y-3.7711
X4.976Y-4.306
X4.976Y-4.906
X4.9764Y-3.4336
X4.9764Y-4.0336
X4.9774Y-3.1711
X4.9774Y-3.7711
X5.076Y-4.306
X5.076Y-4.906
X5.0764Y-3.4336
X5.0764Y-4.0336
X5.0774Y-3.1711
X5.0774Y-3.7711
X5.175Y-3.265
X5.176Y-4.306
X5.176Y-4.906
X5.1764Y-3.4336
X5.1764Y-4.0336
X5.1774Y-3.1711
X5.1774Y-3.7711
X5.275Y-4.465
X5.276Y-4.306
X5.276Y-4.906
X5.2764Y-3.4336
X5.2764Y-4.0336
X5.2774Y-3.1711
X5.2774Y-3.7711
X5.376Y-4.306
X5.376Y-4.906
X5.3764Y-3.4336
X5.3764Y-4.0336
X5.3774Y-3.1711
X5.3774Y-3.7711
X5.476Y-4.306
X5.476Y-4.906
X5.4764Y-3.4336
X5.4764Y-4.0336
X5.4774Y-3.1711
X5.4774Y-3.7711
X5.5264Y-3.2736
X5.576Y-4.306
X5.576Y-4.906
X5.5764Y-3.4336
X5.5764Y-4.0336
X5.5774Y-3.1711
X5.5774Y-3.7711
T3
X2.0555Y-2.5496
X2.0555Y-2.6496
X2.0866Y-3.4365
X2.0866Y-3.5365
X2.0866Y-3.6365
X2.0866Y-3.7365
X2.0866Y-3.8365
X2.0866Y-3.9365
X2.0866Y-4.0365
X2.0866Y-4.1365
X2.0866Y-4.2365
X2.0866Y-4.3365
X2.0866Y-4.4365
X2.0866Y-4.5365
X2.0866Y-4.6365
X2.0866Y-4.7365
X2.0866Y-4.8365
X2.0866Y-4.9365
X2.0866Y-5.0365
X2.0866Y-5.1365
X2.0866Y-5.2365
X2.0866Y-5.3365
X2.0866Y-5.4365
X2.0866Y-5.5365
X2.1555Y-2.5496
X2.1555Y-2.6496
X2.1866Y-3.4365
X2.1866Y-3.5365
X2.1866Y-3.6365
X2.1866Y-3.7365
X2.1866Y-3.8365
X2.1866Y-3.9365
X2.1866Y-4.0365
X2.1866Y-4.1365
X2.1866Y-4.2365
X2.1866Y-4.3365
X2.1866Y-4.4365
X2.1866Y-4.5365
X2.1866Y-4.6365
X2.1866Y-4.7365
X2.1866Y-4.8365
X2.1866Y-4.9365
X2.1866Y-5.0365
X2.1866Y-5.1365
X2.1866Y-5.2365
X2.1866Y-5.3365
X2.1866Y-5.4365
X2.1866Y-5.5365
X2.2976Y-2.6506
X2.33Y-3.436
X2.33Y-3.536
X2.33Y-3.636
X2.33Y-3.736
X2.33Y-3.836
X2.33Y-3.936
X2.33Y-4.036
X2.33Y-4.136
X2.33Y-4.236
X2.33Y-4.336
X2.33Y-4.436
X2.33Y-4.536
X2.33Y-4.636
X2.33Y-4.736
X2.33Y-4.836
X2.33Y-4.936
X2.33Y-5.036
X2.33Y-5.136
X2.33Y-5.236
X2.33Y-5.336
X2.33Y-5.436
X2.33Y-5.536
X2.3957Y-2.124
X2.3976Y-2.6506
X2.43Y-3.436
X2.43Y-3.536
X2.43Y-3.636
X2.43Y-3.736
X2.43Y-3.836
X2.43Y-3.936
X2.43Y-4.036
X2.43Y-4.136
X2.43Y-4.236
X2.43Y-4.336
X2.43Y-4.436
X2.43Y-4.536
X2.43Y-4.636
X2.43Y-4.736
X2.43Y-4.836
X2.43Y-4.936
X2.43Y-5.036
X2.43Y-5.136
X2.43Y-5.236
X2.43Y-5.336
X2.43Y-5.436
X2.43Y-5.536
X2.4957Y-2.124
X2.4976Y-2.6506
X2.5957Y-2.124
X2.5976Y-2.6506
X2.6957Y-2.124
X2.6976Y-2.6506
X2.7957Y-2.124
X2.7976Y-2.6506
X2.8931Y-2.85
X2.8931Y-2.95
X2.8931Y-3.05
X2.8931Y-3.15
X2.8931Y-3.25
X2.8931Y-3.35
X2.8931Y-3.45
X2.8931Y-3.55
X2.8931Y-3.65
X2.8931Y-3.75
X2.8931Y-3.85
X2.8931Y-3.95
X2.8931Y-4.05
X2.8931Y-4.15
X2.8931Y-4.25
X2.8957Y-2.124
X2.8976Y-2.6506
X2.9957Y-2.124
X2.9976Y-2.6506
X3.0543Y-4.8065
X3.0543Y-4.9065
X3.0957Y-2.124
X3.0976Y-2.6506
X3.12Y-5.43
X3.12Y-5.53
X3.1543Y-4.8065
X3.1543Y-4.9065
X3.1957Y-2.124
X3.1976Y-2.6506
X3.2543Y-4.8065
X3.2543Y-4.9065
X3.2957Y-2.124
X3.2976Y-2.6506
X3.3543Y-4.8065
X3.3543Y-4.9065
X3.355Y-5.43
X3.355Y-5.53
X3.3957Y-2.124
X3.3976Y-2.6506
X3.4543Y-4.8065
X3.4543Y-4.9065
X3.455Y-5.43
X3.455Y-5.53
X3.4931Y-2.85
X3.4931Y-2.95
X3.4931Y-3.05
X3.4931Y-3.15
X3.4931Y-3.25
X3.4931Y-3.35
X3.4931Y-3.45
X3.4931Y-3.55
X3.4931Y-3.65
X3.4931Y-3.75
X3.4931Y-3.85
X3.4931Y-3.95
X3.4931Y-4.05
X3.4931Y-4.15
X3.4931Y-4.25
X3.5236Y-2.5531
X3.5236Y-2.6531
X3.6236Y-2.5531
X3.6236Y-2.6531
X3.6365Y-2.0866
X3.6365Y-2.1866
X3.6365Y-2.3228
X3.6365Y-2.4228
X3.6365Y-5.4512
X3.6365Y-5.5512
X3.6365Y-5.6874
X3.6365Y-5.7874
X3.7365Y-2.0866
X3.7365Y-2.1866
X3.7365Y-2.3228
X3.7365Y-2.4228
X3.7365Y-5.4512
X3.7365Y-5.5512
X3.7365Y-5.6874
X3.7365Y-5.7874
X3.8365Y-2.0866
X3.8365Y-2.1866
X3.8365Y-2.3228
X3.8365Y-2.4228
X3.8365Y-5.4512
X3.8365Y-5.5512
X3.8365Y-5.6874
X3.8365Y-5.7874
X3.9365Y-2.0866
X3.9365Y-2.1866
X3.9365Y-2.3228
X3.9365Y-2.4228
X3.9365Y-5.4512
X3.9365Y-5.5512
X3.9365Y-5.6874
X3.9365Y-5.7874
X4.0365Y-2.0866
X4.0365Y-2.1866
X4.0365Y-2.3228
X4.0365Y-2.4228
X4.0365Y-5.4512
X4.0365Y-5.5512
X4.0365Y-5.6874
X4.0365Y-5.7874
X4.1365Y-2.0866
X4.1365Y-2.1866
X4.1365Y-2.3228
X4.1365Y-2.4228
X4.1365Y-5.4512
X4.1365Y-5.5512
X4.1365Y-5.6874
X4.1365Y-5.7874
X4.2365Y-2.0866
X4.2365Y-2.1866
X4.2365Y-2.3228
X4.2365Y-2.4228
X4.2365Y-5.4512
X4.2365Y-5.5512
X4.2365Y-5.6874
X4.2365Y-5.7874
X4.3Y-5.29
X4.3365Y-2.0866
X4.3365Y-2.1866
X4.3365Y-2.3228
X4.3365Y-2.4228
X4.3365Y-5.4512
X4.3365Y-5.5512
X4.3365Y-5.6874
X4.3365Y-5.7874
X4.4Y-5.29
X4.4365Y-2.0866
X4.4365Y-2.1866
X4.4365Y-2.3228
X4.4365Y-2.4228
X4.4365Y-5.4512
X4.4365Y-5.5512
X4.4365Y-5.6874
X4.4365Y-5.7874
X4.5Y-5.29
X4.5365Y-2.0866
X4.5365Y-2.1866
X4.5365Y-2.3228
X4.5365Y-2.4228
X4.5365Y-5.4512
X4.5365Y-5.5512
X4.5365Y-5.6874
X4.5365Y-5.7874
X4.57Y-2.68
X4.57Y-2.78
X4.57Y-2.88
X4.6Y-5.29
X4.6365Y-2.0866
X4.6365Y-2.1866
X4.6365Y-2.3228
X4.6365Y-2.4228
X4.6365Y-5.4512
X4.6365Y-5.5512
X4.6365Y-5.6874
X4.6365Y-5.7874
X4.67Y-2.68
X4.67Y-2.78
X4.67Y-2.88
X4.7Y-5.29
X4.7365Y-2.0866
X4.7365Y-2.1866
X4.7365Y-2.3228
X4.7365Y-2.4228
X4.7365Y-5.4512
X4.7365Y-5.5512
X4.7365Y-5.6874
X4.7365Y-5.7874
X4.77Y-2.68
X4.77Y-2.78
X4.77Y-2.88
X4.8Y-5.29
X4.8365Y-2.0866
X4.8365Y-2.1866
X4.8365Y-2.3228
X4.8365Y-2.4228
X4.8365Y-5.4512
X4.8365Y-5.5512
X4.8365Y-5.6874
X4.8365Y-5.7874
X4.87Y-2.68
X4.87Y-2.78
X4.87Y-2.88
X4.9Y-5.29
X4.9365Y-2.0866
X4.9365Y-2.1866
X4.9365Y-2.3228
X4.9365Y-2.4228
X4.9365Y-5.4512
X4.9365Y-5.5512
X4.9365Y-5.6874
X4.9365Y-5.7874
X4.97Y-2.68
X4.97Y-2.78
X4.97Y-2.88
X5.0Y-5.29
X5.0365Y-2.0866
X5.0365Y-2.1866
X5.0365Y-2.3228
X5.0365Y-2.4228
X5.0365Y-5.4512
X5.0365Y-5.5512
X5.0365Y-5.6874
X5.0365Y-5.7874
X5.07Y-2.68
X5.07Y-2.78
X5.07Y-2.88
X5.1Y-5.29
X5.1365Y-2.0866
X5.1365Y-2.1866
X5.1365Y-2.3228
X5.1365Y-2.4228
X5.1365Y-5.4512
X5.1365Y-5.5512
X5.1365Y-5.6874
X5.1365Y-5.7874
X5.2Y-5.29
X5.2365Y-2.0866
X5.2365Y-2.1866
X5.2365Y-2.3228
X5.2365Y-2.4228
X5.2365Y-5.4512
X5.2365Y-5.5512
X5.2365Y-5.6874
X5.2365Y-5.7874
X5.3Y-5.29
X5.3365Y-2.0866
X5.3365Y-2.1866
X5.3365Y-2.3228
X5.3365Y-2.4228
X5.3365Y-5.4512
X5.3365Y-5.5512
X5.3365Y-5.6874
X5.3365Y-5.7874
X5.4Y-5.29
X5.4365Y-2.0866
X5.4365Y-2.1866
X5.4365Y-2.3228
X5.4365Y-2.4228
X5.4365Y-5.4512
X5.4365Y-5.5512
X5.4365Y-5.6874
X5.4365Y-5.7874
X5.5Y-5.29
X5.5365Y-2.0866
X5.5365Y-2.1866
X5.5365Y-2.3228
X5.5365Y-2.4228
X5.5365Y-5.4512
X5.5365Y-5.5512
X5.5365Y-5.6874
X5.5365Y-5.7874
X5.6Y-5.29
X5.729Y-5.1092
X5.729Y-5.2092
T4
X2.126Y-2.126
X2.126Y-5.748
X5.748Y-2.126
X5.748Y-5.748
M30
