M48
; DRILL file {KiCad 8.0.5-8.0.5-0~ubuntu22.04.1} date 2024-10-05T19:46:30+0200
; FORMAT={-:-/ absolute / inch / decimal}
; #@! TF.CreationDate,2024-10-05T19:46:30+02:00
; #@! TF.GenerationSoftware,Kicad,Pcbnew,8.0.5-8.0.5-0~ubuntu22.04.1
; #@! TF.FileFunction,MixedPlating,1,2
FMAT,2
INCH
; #@! TA.AperFunction,Plated,PTH,ViaDrill
T1C0.0157
; #@! TA.AperFunction,Plated,PTH,ComponentDrill
T2C0.0256
; #@! TA.AperFunction,Plated,PTH,ComponentDrill
T3C0.0276
; #@! TA.AperFunction,Plated,PTH,ComponentDrill
T4C0.0315
; #@! TA.AperFunction,Plated,PTH,ComponentDrill
T5C0.0394
; #@! TA.AperFunction,NonPlated,NPTH,ComponentDrill
T6C0.1260
%
G90
G05
T1
X2.1961Y-4.82
X2.968Y-5.28
X2.978Y-5.02
X3.208Y-5.34
X3.21Y-5.2
X3.22Y-4.86
X3.3224Y-4.86
X3.405Y-4.195
X3.43Y-2.3776
X3.445Y-4.335
X3.4865Y-3.9367
X3.4969Y-5.7981
X3.525Y-2.72
X3.525Y-4.23
X3.55Y-4.28
X3.5651Y-2.93
X3.57Y-2.66
X3.595Y-5.36
X3.5986Y-4.3064
X3.625Y-4.775
X3.645Y-3.04
X3.655Y-2.55
X3.66Y-3.645
X3.66Y-3.695
X3.66Y-3.94
X3.675Y-5.185
X3.7062Y-2.55
X3.71Y-4.885
X3.71Y-5.3081
X3.7404Y-4.4525
X3.76Y-5.215
X3.81Y-5.05
X3.8365Y-2.55
X3.8517Y-3.01
X3.86Y-4.56
X3.8941Y-4.2659
X3.945Y-4.865
X3.945Y-5.295
X3.98Y-4.715
X4.015Y-4.815
X4.0466Y-2.96
X4.0466Y-2.81
X4.05Y-4.665
X4.065Y-2.615
X4.07Y-3.7794
X4.07Y-3.8306
X4.07Y-3.935
X4.075Y-2.665
X4.085Y-2.565
X4.085Y-3.115
X4.0988Y-5.275
X4.105Y-2.7635
X4.1713Y-5.1044
X4.195Y-2.9976
X4.2268Y-4.9812
X4.23Y-5.115
X4.265Y-3.7738
X4.275Y-5.05
X4.395Y-4.815
X4.4159Y-3.3241
X4.42Y-3.24
X4.45Y-4.71
X4.49Y-4.87
X4.5144Y-3.1837
X4.515Y-3.62
X4.5684Y-3.1516
X4.605Y-3.62
X4.645Y-2.9976
X4.685Y-3.11
X4.695Y-2.8
X4.71Y-3.625
X4.745Y-2.725
X4.8091Y-3.2509
X4.81Y-3.615
X4.8466Y-3.2884
X4.8891Y-3.3309
X4.915Y-3.625
X4.9266Y-3.3684
X4.96Y-2.817
X4.96Y-4.78
X4.98Y-3.395
X5.015Y-3.63
X5.06Y-3.43
X5.06Y-3.605
X5.0886Y-4.7024
X5.11Y-3.43
X5.12Y-4.9
X5.1201Y-4.625
X5.15Y-4.425
X5.15Y-5.05
X5.17Y-4.68
X5.21Y-3.445
X5.21Y-3.65
X5.24Y-4.98
X5.26Y-2.9963
X5.31Y-3.675
X5.315Y-3.445
X5.365Y-2.9
X5.41Y-3.44
X5.41Y-3.68
X5.505Y-3.405
X5.515Y-3.68
X5.7119Y-2.5
T2
X3.8666Y-2.63
X3.9666Y-2.63
T3
X3.195Y-5.025
T4
X2.1598Y-2.7678
X2.1598Y-3.0678
X2.16Y-3.45
X2.16Y-3.75
X2.16Y-4.15
X2.16Y-4.45
X2.2598Y-2.7678
X2.2598Y-3.0678
X2.26Y-3.45
X2.26Y-3.75
X2.26Y-4.15
X2.26Y-4.45
X2.3598Y-2.7678
X2.3598Y-3.0678
X2.36Y-3.45
X2.36Y-3.75
X2.36Y-4.15
X2.36Y-4.45
X2.4598Y-2.7678
X2.4598Y-3.0678
X2.46Y-3.45
X2.46Y-3.75
X2.46Y-4.15
X2.46Y-4.45
X2.5598Y-2.7678
X2.5598Y-3.0678
X2.56Y-3.45
X2.56Y-3.75
X2.56Y-4.15
X2.56Y-4.45
X2.6598Y-2.7678
X2.6598Y-3.0678
X2.66Y-3.45
X2.66Y-3.75
X2.66Y-4.15
X2.66Y-4.45
X2.7598Y-2.7678
X2.7598Y-3.0678
X2.76Y-3.45
X2.76Y-3.75
X2.76Y-4.15
X2.76Y-4.45
X2.8598Y-2.7678
X2.8598Y-3.0678
X2.86Y-3.45
X2.86Y-3.75
X2.86Y-4.15
X2.86Y-4.45
X2.9598Y-2.7678
X2.9598Y-3.0678
X2.96Y-3.45
X2.96Y-3.75
X2.96Y-4.15
X2.96Y-4.45
X3.0598Y-2.7678
X3.0598Y-3.0678
X3.06Y-3.45
X3.06Y-3.75
X3.06Y-4.15
X3.06Y-4.45
X3.1598Y-2.7678
X3.1598Y-3.0678
X3.16Y-3.45
X3.16Y-3.75
X3.16Y-4.15
X3.16Y-4.45
X3.2598Y-2.7678
X3.2598Y-3.0678
X3.26Y-3.45
X3.26Y-3.75
X3.26Y-4.15
X3.26Y-4.45
X3.66Y-3.52
X3.66Y-4.12
X3.76Y-3.52
X3.76Y-4.12
X3.86Y-3.52
X3.86Y-4.12
X3.96Y-3.52
X3.96Y-4.12
X3.995Y-3.12
X3.995Y-3.21
X4.06Y-3.52
X4.06Y-4.12
X4.16Y-3.52
X4.16Y-4.12
X4.26Y-3.52
X4.26Y-4.12
X4.36Y-3.52
X4.36Y-4.12
X4.46Y-3.52
X4.46Y-4.12
X4.56Y-3.52
X4.56Y-4.12
X4.66Y-3.52
X4.66Y-4.12
X4.76Y-3.52
X4.76Y-4.12
X4.86Y-3.52
X4.86Y-4.12
X4.96Y-3.52
X4.96Y-4.12
X5.06Y-3.52
X5.06Y-4.12
X5.16Y-3.52
X5.16Y-4.12
X5.26Y-3.52
X5.26Y-4.12
X5.36Y-3.52
X5.36Y-4.12
X5.46Y-3.52
X5.46Y-4.12
X5.56Y-3.52
X5.56Y-4.12
T5
X2.0866Y-5.0365
X2.0866Y-5.1365
X2.0866Y-5.2365
X2.0866Y-5.3365
X2.0866Y-5.4365
X2.0866Y-5.5365
X2.16Y-2.65
X2.16Y-3.18
X2.16Y-3.33
X2.16Y-3.87
X2.16Y-4.03
X2.16Y-4.57
X2.1866Y-5.0365
X2.1866Y-5.1365
X2.1866Y-5.2365
X2.1866Y-5.3365
X2.1866Y-5.4365
X2.1866Y-5.5365
X2.26Y-2.65
X2.26Y-3.18
X2.26Y-3.33
X2.26Y-3.87
X2.26Y-4.03
X2.26Y-4.57
X2.3Y-2.37
X2.3Y-2.47
X2.325Y-5.035
X2.325Y-5.135
X2.325Y-5.235
X2.325Y-5.335
X2.325Y-5.435
X2.325Y-5.535
X2.36Y-2.65
X2.36Y-3.18
X2.36Y-3.33
X2.36Y-3.87
X2.36Y-4.03
X2.36Y-4.57
X2.4Y-2.37
X2.4Y-2.47
X2.425Y-5.035
X2.425Y-5.135
X2.425Y-5.235
X2.425Y-5.335
X2.425Y-5.435
X2.425Y-5.535
X2.46Y-2.65
X2.46Y-3.18
X2.46Y-3.33
X2.46Y-3.87
X2.46Y-4.03
X2.46Y-4.57
X2.56Y-2.65
X2.56Y-3.18
X2.56Y-3.33
X2.56Y-3.87
X2.56Y-4.03
X2.56Y-4.57
X2.66Y-2.65
X2.66Y-3.18
X2.66Y-3.33
X2.66Y-3.87
X2.66Y-4.03
X2.66Y-4.57
X2.76Y-2.65
X2.76Y-3.18
X2.76Y-3.33
X2.76Y-3.87
X2.76Y-4.03
X2.76Y-4.57
X2.86Y-2.65
X2.86Y-3.18
X2.86Y-3.33
X2.86Y-3.87
X2.86Y-4.03
X2.86Y-4.57
X2.96Y-2.65
X2.96Y-3.18
X2.96Y-3.33
X2.96Y-3.87
X2.96Y-4.03
X2.96Y-4.57
X3.06Y-2.65
X3.06Y-3.18
X3.06Y-3.33
X3.06Y-3.87
X3.06Y-4.03
X3.06Y-4.57
X3.16Y-2.65
X3.16Y-3.18
X3.16Y-3.33
X3.16Y-3.87
X3.16Y-4.03
X3.16Y-4.57
X3.1708Y-2.3808
X3.1708Y-2.4808
X3.26Y-2.65
X3.26Y-3.18
X3.26Y-3.33
X3.26Y-3.87
X3.26Y-4.03
X3.26Y-4.57
X3.2708Y-2.3808
X3.2708Y-2.4808
X3.6365Y-2.0866
X3.6365Y-2.1866
X3.6365Y-2.3228
X3.6365Y-2.4228
X3.6365Y-5.4512
X3.6365Y-5.5512
X3.6365Y-5.6874
X3.6365Y-5.7874
X3.7365Y-2.0866
X3.7365Y-2.1866
X3.7365Y-2.3228
X3.7365Y-2.4228
X3.7365Y-5.4512
X3.7365Y-5.5512
X3.7365Y-5.6874
X3.7365Y-5.7874
X3.8365Y-2.0866
X3.8365Y-2.1866
X3.8365Y-2.3228
X3.8365Y-2.4228
X3.8365Y-5.4512
X3.8365Y-5.5512
X3.8365Y-5.6874
X3.8365Y-5.7874
X3.9365Y-2.0866
X3.9365Y-2.1866
X3.9365Y-2.3228
X3.9365Y-2.4228
X3.9365Y-5.4512
X3.9365Y-5.5512
X3.9365Y-5.6874
X3.9365Y-5.7874
X4.0365Y-2.0866
X4.0365Y-2.1866
X4.0365Y-2.3228
X4.0365Y-2.4228
X4.0365Y-5.4512
X4.0365Y-5.5512
X4.0365Y-5.6874
X4.0365Y-5.7874
X4.1365Y-2.0866
X4.1365Y-2.1866
X4.1365Y-2.3228
X4.1365Y-2.4228
X4.1365Y-5.4512
X4.1365Y-5.5512
X4.1365Y-5.6874
X4.1365Y-5.7874
X4.2365Y-2.0866
X4.2365Y-2.1866
X4.2365Y-2.3228
X4.2365Y-2.4228
X4.2365Y-5.4512
X4.2365Y-5.5512
X4.2365Y-5.6874
X4.2365Y-5.7874
X4.3365Y-2.0866
X4.3365Y-2.1866
X4.3365Y-2.3228
X4.3365Y-2.4228
X4.3365Y-5.4512
X4.3365Y-5.5512
X4.3365Y-5.6874
X4.3365Y-5.7874
X4.4365Y-2.0866
X4.4365Y-2.1866
X4.4365Y-2.3228
X4.4365Y-2.4228
X4.4365Y-5.4512
X4.4365Y-5.5512
X4.4365Y-5.6874
X4.4365Y-5.7874
X4.5365Y-2.0866
X4.5365Y-2.1866
X4.5365Y-2.3228
X4.5365Y-2.4228
X4.5365Y-5.4512
X4.5365Y-5.5512
X4.5365Y-5.6874
X4.5365Y-5.7874
X4.625Y-4.3
X4.625Y-4.4
X4.625Y-4.5
X4.625Y-4.6
X4.625Y-4.7
X4.625Y-4.8
X4.625Y-4.9
X4.625Y-5.0
X4.625Y-5.1
X4.625Y-5.2
X4.6365Y-2.0866
X4.6365Y-2.1866
X4.6365Y-2.3228
X4.6365Y-2.4228
X4.6365Y-5.4512
X4.6365Y-5.5512
X4.6365Y-5.6874
X4.6365Y-5.7874
X4.725Y-4.3
X4.725Y-5.2
X4.7365Y-2.0866
X4.7365Y-2.1866
X4.7365Y-2.3228
X4.7365Y-2.4228
X4.7365Y-5.4512
X4.7365Y-5.5512
X4.7365Y-5.6874
X4.7365Y-5.7874
X4.825Y-4.3
X4.825Y-5.2
X4.8365Y-2.0866
X4.8365Y-2.1866
X4.8365Y-2.3228
X4.8365Y-2.4228
X4.8365Y-5.4512
X4.8365Y-5.5512
X4.8365Y-5.6874
X4.8365Y-5.7874
X4.925Y-4.3
X4.925Y-5.2
X4.9365Y-2.0866
X4.9365Y-2.1866
X4.9365Y-2.3228
X4.9365Y-2.4228
X4.9365Y-5.4512
X4.9365Y-5.5512
X4.9365Y-5.6874
X4.9365Y-5.7874
X5.025Y-4.3
X5.025Y-5.2
X5.0365Y-2.0866
X5.0365Y-2.1866
X5.0365Y-2.3228
X5.0365Y-2.4228
X5.0365Y-5.4512
X5.0365Y-5.5512
X5.0365Y-5.6874
X5.0365Y-5.7874
X5.125Y-4.3
X5.125Y-5.2
X5.1365Y-2.0866
X5.1365Y-2.1866
X5.1365Y-2.3228
X5.1365Y-2.4228
X5.1365Y-5.4512
X5.1365Y-5.5512
X5.1365Y-5.6874
X5.1365Y-5.7874
X5.225Y-4.3
X5.225Y-5.2
X5.2365Y-2.0866
X5.2365Y-2.1866
X5.2365Y-2.3228
X5.2365Y-2.4228
X5.2365Y-5.4512
X5.2365Y-5.5512
X5.2365Y-5.6874
X5.2365Y-5.7874
X5.325Y-4.3
X5.325Y-5.2
X5.3365Y-2.0866
X5.3365Y-2.1866
X5.3365Y-2.3228
X5.3365Y-2.4228
X5.3365Y-5.4512
X5.3365Y-5.5512
X5.3365Y-5.6874
X5.3365Y-5.7874
X5.425Y-4.3
X5.425Y-4.4
X5.425Y-4.5
X5.425Y-4.6
X5.425Y-4.7
X5.425Y-4.8
X5.425Y-4.9
X5.425Y-5.0
X5.425Y-5.1
X5.425Y-5.2
X5.4365Y-2.0866
X5.4365Y-2.1866
X5.4365Y-2.3228
X5.4365Y-2.4228
X5.4365Y-5.4512
X5.4365Y-5.5512
X5.4365Y-5.6874
X5.4365Y-5.7874
X5.5365Y-2.0866
X5.5365Y-2.1866
X5.5365Y-2.3228
X5.5365Y-2.4228
X5.5365Y-5.4512
X5.5365Y-5.5512
X5.5365Y-5.6874
X5.5365Y-5.7874
X5.6874Y-4.9016
X5.6874Y-5.0016
X5.6874Y-5.1016
X5.6874Y-5.2016
X5.6874Y-5.3016
X5.7874Y-4.9016
X5.7874Y-5.0016
X5.7874Y-5.1016
X5.7874Y-5.2016
X5.7874Y-5.3016
T6
X2.126Y-2.126
X2.126Y-5.748
X5.748Y-2.126
X5.748Y-5.748
M30
