%TF.GenerationSoftware,KiCad,Pcbnew,8.0.5-8.0.5-0~ubuntu22.04.1*%
%TF.CreationDate,2024-10-05T19:46:27+02:00*%
%TF.ProjectId,6502_6800_CPU,36353032-5f36-4383-9030-5f4350552e6b,rev?*%
%TF.SameCoordinates,Original*%
%TF.FileFunction,Paste,Top*%
%TF.FilePolarity,Positive*%
%FSLAX46Y46*%
G04 Gerber Fmt 4.6, Leading zero omitted, Abs format (unit mm)*
G04 Created by KiCad (PCBNEW 8.0.5-8.0.5-0~ubuntu22.04.1) date 2024-10-05 19:46:27*
%MOMM*%
%LPD*%
G01*
G04 APERTURE LIST*
G04 Aperture macros list*
%AMRoundRect*
0 Rectangle with rounded corners*
0 $1 Rounding radius*
0 $2 $3 $4 $5 $6 $7 $8 $9 X,Y pos of 4 corners*
0 Add a 4 corners polygon primitive as box body*
4,1,4,$2,$3,$4,$5,$6,$7,$8,$9,$2,$3,0*
0 Add four circle primitives for the rounded corners*
1,1,$1+$1,$2,$3*
1,1,$1+$1,$4,$5*
1,1,$1+$1,$6,$7*
1,1,$1+$1,$8,$9*
0 Add four rect primitives between the rounded corners*
20,1,$1+$1,$2,$3,$4,$5,0*
20,1,$1+$1,$4,$5,$6,$7,0*
20,1,$1+$1,$6,$7,$8,$9,0*
20,1,$1+$1,$8,$9,$2,$3,0*%
G04 Aperture macros list end*
%ADD10RoundRect,0.200000X-0.750000X-0.200000X0.750000X-0.200000X0.750000X0.200000X-0.750000X0.200000X0*%
%ADD11RoundRect,0.150000X-0.150000X0.837500X-0.150000X-0.837500X0.150000X-0.837500X0.150000X0.837500X0*%
%ADD12RoundRect,0.150000X0.150000X-0.837500X0.150000X0.837500X-0.150000X0.837500X-0.150000X-0.837500X0*%
%ADD13RoundRect,0.250000X-0.325000X-0.650000X0.325000X-0.650000X0.325000X0.650000X-0.325000X0.650000X0*%
%ADD14RoundRect,0.150000X-0.825000X-0.150000X0.825000X-0.150000X0.825000X0.150000X-0.825000X0.150000X0*%
%ADD15R,0.550000X1.500000*%
%ADD16R,1.500000X0.550000*%
G04 APERTURE END LIST*
D10*
%TO.C,D2*%
X83844000Y-126558000D03*
X83844000Y-128458000D03*
X86844000Y-127508000D03*
%TD*%
%TO.C,D1*%
X83844000Y-132400000D03*
X83844000Y-134300000D03*
X86844000Y-133350000D03*
%TD*%
D11*
%TO.C,U2*%
X120523000Y-69215000D03*
X119253000Y-69215000D03*
X117983000Y-69215000D03*
X116713000Y-69215000D03*
X115443000Y-69215000D03*
X114173000Y-69215000D03*
X112903000Y-69215000D03*
X111633000Y-69215000D03*
X110363000Y-69215000D03*
X109093000Y-69215000D03*
X107823000Y-69215000D03*
X106553000Y-69215000D03*
X106553000Y-76140000D03*
X107823000Y-76140000D03*
X109093000Y-76140000D03*
X110363000Y-76140000D03*
X111633000Y-76140000D03*
X112903000Y-76140000D03*
X114173000Y-76140000D03*
X115443000Y-76140000D03*
X116713000Y-76140000D03*
X117983000Y-76140000D03*
X119253000Y-76140000D03*
X120523000Y-76140000D03*
%TD*%
D12*
%TO.C,U4*%
X135255000Y-76106500D03*
X136525000Y-76106500D03*
X137795000Y-76106500D03*
X139065000Y-76106500D03*
X140335000Y-76106500D03*
X141605000Y-76106500D03*
X142875000Y-76106500D03*
X144145000Y-76106500D03*
X145415000Y-76106500D03*
X146685000Y-76106500D03*
X146685000Y-69181500D03*
X145415000Y-69181500D03*
X144145000Y-69181500D03*
X142875000Y-69181500D03*
X141605000Y-69181500D03*
X140335000Y-69181500D03*
X139065000Y-69181500D03*
X137795000Y-69181500D03*
X136525000Y-69181500D03*
X135255000Y-69181500D03*
%TD*%
D13*
%TO.C,C3*%
X145083000Y-63500000D03*
X148033000Y-63500000D03*
%TD*%
D14*
%TO.C,U5*%
X97834001Y-68834000D03*
X97834001Y-70104000D03*
X97834001Y-71374000D03*
X97834001Y-72644000D03*
X97834001Y-73914000D03*
X97834001Y-75184000D03*
X97834001Y-76454000D03*
X102784001Y-76454000D03*
X102784001Y-75184000D03*
X102784001Y-73914000D03*
X102784001Y-72644000D03*
X102784001Y-71374000D03*
X102784001Y-70104000D03*
X102784001Y-68834000D03*
%TD*%
D13*
%TO.C,C8*%
X144471600Y-121462800D03*
X147421600Y-121462800D03*
%TD*%
D15*
%TO.C,U9*%
X123650000Y-126490000D03*
X124450000Y-126490000D03*
X125250000Y-126490000D03*
X126050000Y-126490000D03*
X126850000Y-126490000D03*
X127650000Y-126490000D03*
X128450000Y-126490000D03*
X129250000Y-126490000D03*
X130050000Y-126490000D03*
X130850000Y-126490000D03*
X131650000Y-126490000D03*
D16*
X133350000Y-124790000D03*
X133350000Y-123990000D03*
X133350000Y-123190000D03*
X133350000Y-122390000D03*
X133350000Y-121590000D03*
X133350000Y-120790000D03*
X133350000Y-119990000D03*
X133350000Y-119190000D03*
X133350000Y-118390000D03*
X133350000Y-117590000D03*
X133350000Y-116790000D03*
D15*
X131650000Y-115090000D03*
X130850000Y-115090000D03*
X130050000Y-115090000D03*
X129250000Y-115090000D03*
X128450000Y-115090000D03*
X127650000Y-115090000D03*
X126850000Y-115090000D03*
X126050000Y-115090000D03*
X125250000Y-115090000D03*
X124450000Y-115090000D03*
X123650000Y-115090000D03*
D16*
X121950000Y-116790000D03*
X121950000Y-117590000D03*
X121950000Y-118390000D03*
X121950000Y-119190000D03*
X121950000Y-119990000D03*
X121950000Y-120790000D03*
X121950000Y-121590000D03*
X121950000Y-122390000D03*
X121950000Y-123190000D03*
X121950000Y-123990000D03*
X121950000Y-124790000D03*
%TD*%
D12*
%TO.C,U3*%
X122174000Y-76106500D03*
X123444000Y-76106500D03*
X124714000Y-76106500D03*
X125984000Y-76106500D03*
X127254000Y-76106500D03*
X128524000Y-76106500D03*
X129794000Y-76106500D03*
X131064000Y-76106500D03*
X132334000Y-76106500D03*
X133604000Y-76106500D03*
X133604000Y-69181500D03*
X132334000Y-69181500D03*
X131064000Y-69181500D03*
X129794000Y-69181500D03*
X128524000Y-69181500D03*
X127254000Y-69181500D03*
X125984000Y-69181500D03*
X124714000Y-69181500D03*
X123444000Y-69181500D03*
X122174000Y-69181500D03*
%TD*%
D13*
%TO.C,C7*%
X52832000Y-122428000D03*
X55782000Y-122428000D03*
%TD*%
M02*
