%TF.GenerationSoftware,KiCad,Pcbnew,8.0.5-8.0.5-0~ubuntu22.04.1*%
%TF.CreationDate,2024-10-05T19:46:27+02:00*%
%TF.ProjectId,6502_6800_CPU,36353032-5f36-4383-9030-5f4350552e6b,rev?*%
%TF.SameCoordinates,Original*%
%TF.FileFunction,Soldermask,Top*%
%TF.FilePolarity,Negative*%
%FSLAX46Y46*%
G04 Gerber Fmt 4.6, Leading zero omitted, Abs format (unit mm)*
G04 Created by KiCad (PCBNEW 8.0.5-8.0.5-0~ubuntu22.04.1) date 2024-10-05 19:46:27*
%MOMM*%
%LPD*%
G01*
G04 APERTURE LIST*
G04 Aperture macros list*
%AMRoundRect*
0 Rectangle with rounded corners*
0 $1 Rounding radius*
0 $2 $3 $4 $5 $6 $7 $8 $9 X,Y pos of 4 corners*
0 Add a 4 corners polygon primitive as box body*
4,1,4,$2,$3,$4,$5,$6,$7,$8,$9,$2,$3,0*
0 Add four circle primitives for the rounded corners*
1,1,$1+$1,$2,$3*
1,1,$1+$1,$4,$5*
1,1,$1+$1,$6,$7*
1,1,$1+$1,$8,$9*
0 Add four rect primitives between the rounded corners*
20,1,$1+$1,$2,$3,$4,$5,0*
20,1,$1+$1,$4,$5,$6,$7,0*
20,1,$1+$1,$6,$7,$8,$9,0*
20,1,$1+$1,$8,$9,$2,$3,0*%
%AMFreePoly0*
4,1,19,0.500000,-0.750000,0.000000,-0.750000,0.000000,-0.744911,-0.071157,-0.744911,-0.207708,-0.704816,-0.327430,-0.627875,-0.420627,-0.520320,-0.479746,-0.390866,-0.500000,-0.250000,-0.500000,0.250000,-0.479746,0.390866,-0.420627,0.520320,-0.327430,0.627875,-0.207708,0.704816,-0.071157,0.744911,0.000000,0.744911,0.000000,0.750000,0.500000,0.750000,0.500000,-0.750000,0.500000,-0.750000,
$1*%
%AMFreePoly1*
4,1,19,0.000000,0.744911,0.071157,0.744911,0.207708,0.704816,0.327430,0.627875,0.420627,0.520320,0.479746,0.390866,0.500000,0.250000,0.500000,-0.250000,0.479746,-0.390866,0.420627,-0.520320,0.327430,-0.627875,0.207708,-0.704816,0.071157,-0.744911,0.000000,-0.744911,0.000000,-0.750000,-0.500000,-0.750000,-0.500000,0.750000,0.000000,0.750000,0.000000,0.744911,0.000000,0.744911,
$1*%
%AMFreePoly2*
4,1,19,0.550000,-0.750000,0.000000,-0.750000,0.000000,-0.744911,-0.071157,-0.744911,-0.207708,-0.704816,-0.327430,-0.627875,-0.420627,-0.520320,-0.479746,-0.390866,-0.500000,-0.250000,-0.500000,0.250000,-0.479746,0.390866,-0.420627,0.520320,-0.327430,0.627875,-0.207708,0.704816,-0.071157,0.744911,0.000000,0.744911,0.000000,0.750000,0.550000,0.750000,0.550000,-0.750000,0.550000,-0.750000,
$1*%
%AMFreePoly3*
4,1,19,0.000000,0.744911,0.071157,0.744911,0.207708,0.704816,0.327430,0.627875,0.420627,0.520320,0.479746,0.390866,0.500000,0.250000,0.500000,-0.250000,0.479746,-0.390866,0.420627,-0.520320,0.327430,-0.627875,0.207708,-0.704816,0.071157,-0.744911,0.000000,-0.744911,0.000000,-0.750000,-0.550000,-0.750000,-0.550000,0.750000,0.000000,0.750000,0.000000,0.744911,0.000000,0.744911,
$1*%
G04 Aperture macros list end*
%ADD10RoundRect,0.200000X-0.750000X-0.200000X0.750000X-0.200000X0.750000X0.200000X-0.750000X0.200000X0*%
%ADD11R,1.700000X1.700000*%
%ADD12O,1.700000X1.700000*%
%ADD13R,1.600000X1.600000*%
%ADD14O,1.600000X1.600000*%
%ADD15RoundRect,0.150000X-0.150000X0.837500X-0.150000X-0.837500X0.150000X-0.837500X0.150000X0.837500X0*%
%ADD16RoundRect,0.150000X0.150000X-0.837500X0.150000X0.837500X-0.150000X0.837500X-0.150000X-0.837500X0*%
%ADD17FreePoly0,180.000000*%
%ADD18FreePoly1,180.000000*%
%ADD19RoundRect,0.250000X-0.325000X-0.650000X0.325000X-0.650000X0.325000X0.650000X-0.325000X0.650000X0*%
%ADD20RoundRect,0.150000X-0.825000X-0.150000X0.825000X-0.150000X0.825000X0.150000X-0.825000X0.150000X0*%
%ADD21FreePoly0,0.000000*%
%ADD22FreePoly1,0.000000*%
%ADD23R,1.000000X1.500000*%
%ADD24R,1.000000X1.000000*%
%ADD25FreePoly2,270.000000*%
%ADD26R,1.500000X1.000000*%
%ADD27FreePoly3,270.000000*%
%ADD28R,1.600000X2.400000*%
%ADD29O,1.600000X2.400000*%
%ADD30C,3.200000*%
%ADD31FreePoly2,0.000000*%
%ADD32FreePoly3,0.000000*%
%ADD33FreePoly0,270.000000*%
%ADD34FreePoly1,270.000000*%
%ADD35R,0.550000X1.500000*%
%ADD36R,1.500000X0.550000*%
%ADD37R,1.350000X1.350000*%
G04 APERTURE END LIST*
D10*
%TO.C,D2*%
X83844000Y-126558000D03*
X83844000Y-128458000D03*
X86844000Y-127508000D03*
%TD*%
%TO.C,D1*%
X83844000Y-132400000D03*
X83844000Y-134300000D03*
X86844000Y-133350000D03*
%TD*%
D11*
%TO.C,J30*%
X60960000Y-60198000D03*
D12*
X58420000Y-60198000D03*
X60960000Y-62738000D03*
X58420000Y-62738000D03*
%TD*%
D13*
%TO.C,J17*%
X54864000Y-113030000D03*
D14*
X57404000Y-113030000D03*
X59944000Y-113030000D03*
X62484000Y-113030000D03*
X65024000Y-113030000D03*
X67564000Y-113030000D03*
X70104000Y-113030000D03*
X72644000Y-113030000D03*
X75184000Y-113030000D03*
X77724000Y-113030000D03*
X80264000Y-113030000D03*
X82804000Y-113030000D03*
X82804000Y-105410000D03*
X80264000Y-105410000D03*
X77724000Y-105410000D03*
X75184000Y-105410000D03*
X72644000Y-105410000D03*
X70104000Y-105410000D03*
X67564000Y-105410000D03*
X65024000Y-105410000D03*
X62484000Y-105410000D03*
X59944000Y-105410000D03*
X57404000Y-105410000D03*
X54864000Y-105410000D03*
%TD*%
D15*
%TO.C,U2*%
X120523000Y-69215000D03*
X119253000Y-69215000D03*
X117983000Y-69215000D03*
X116713000Y-69215000D03*
X115443000Y-69215000D03*
X114173000Y-69215000D03*
X112903000Y-69215000D03*
X111633000Y-69215000D03*
X110363000Y-69215000D03*
X109093000Y-69215000D03*
X107823000Y-69215000D03*
X106553000Y-69215000D03*
X106553000Y-76140000D03*
X107823000Y-76140000D03*
X109093000Y-76140000D03*
X110363000Y-76140000D03*
X111633000Y-76140000D03*
X112903000Y-76140000D03*
X114173000Y-76140000D03*
X115443000Y-76140000D03*
X116713000Y-76140000D03*
X117983000Y-76140000D03*
X119253000Y-76140000D03*
X120523000Y-76140000D03*
%TD*%
D16*
%TO.C,U4*%
X135255000Y-76106500D03*
X136525000Y-76106500D03*
X137795000Y-76106500D03*
X139065000Y-76106500D03*
X140335000Y-76106500D03*
X141605000Y-76106500D03*
X142875000Y-76106500D03*
X144145000Y-76106500D03*
X145415000Y-76106500D03*
X146685000Y-76106500D03*
X146685000Y-69181500D03*
X145415000Y-69181500D03*
X144145000Y-69181500D03*
X142875000Y-69181500D03*
X141605000Y-69181500D03*
X140335000Y-69181500D03*
X139065000Y-69181500D03*
X137795000Y-69181500D03*
X136525000Y-69181500D03*
X135255000Y-69181500D03*
%TD*%
D11*
%TO.C,J1*%
X92367000Y-53000000D03*
D12*
X92367000Y-55540000D03*
X94907000Y-53000000D03*
X94907000Y-55540000D03*
X97447000Y-53000000D03*
X97447000Y-55540000D03*
X99987000Y-53000000D03*
X99987000Y-55540000D03*
X102527000Y-53000000D03*
X102527000Y-55540000D03*
X105067000Y-53000000D03*
X105067000Y-55540000D03*
X107607000Y-53000000D03*
X107607000Y-55540000D03*
X110147000Y-53000000D03*
X110147000Y-55540000D03*
X112687000Y-53000000D03*
X112687000Y-55540000D03*
X115227000Y-53000000D03*
X115227000Y-55540000D03*
X117767000Y-53000000D03*
X117767000Y-55540000D03*
X120307000Y-53000000D03*
X120307000Y-55540000D03*
X122847000Y-53000000D03*
X122847000Y-55540000D03*
X125387000Y-53000000D03*
X125387000Y-55540000D03*
X127927000Y-53000000D03*
X127927000Y-55540000D03*
X130467000Y-53000000D03*
X130467000Y-55540000D03*
X133007000Y-53000000D03*
X133007000Y-55540000D03*
X135547000Y-53000000D03*
X135547000Y-55540000D03*
X138087000Y-53000000D03*
X138087000Y-55540000D03*
X140627000Y-53000000D03*
X140627000Y-55540000D03*
%TD*%
D11*
%TO.C,J16*%
X54864000Y-116078000D03*
D12*
X57404000Y-116078000D03*
X59944000Y-116078000D03*
X62484000Y-116078000D03*
X65024000Y-116078000D03*
X67564000Y-116078000D03*
X70104000Y-116078000D03*
X72644000Y-116078000D03*
X75184000Y-116078000D03*
X77724000Y-116078000D03*
X80264000Y-116078000D03*
X82804000Y-116078000D03*
%TD*%
D17*
%TO.C,JP100*%
X120299000Y-78994000D03*
D18*
X118999000Y-78994000D03*
%TD*%
D19*
%TO.C,C3*%
X145083000Y-63500000D03*
X148033000Y-63500000D03*
%TD*%
D20*
%TO.C,U5*%
X97834001Y-68834000D03*
X97834001Y-70104000D03*
X97834001Y-71374000D03*
X97834001Y-72644000D03*
X97834001Y-73914000D03*
X97834001Y-75184000D03*
X97834001Y-76454000D03*
X102784001Y-76454000D03*
X102784001Y-75184000D03*
X102784001Y-73914000D03*
X102784001Y-72644000D03*
X102784001Y-71374000D03*
X102784001Y-70104000D03*
X102784001Y-68834000D03*
%TD*%
D21*
%TO.C,JP8*%
X97536000Y-79248000D03*
D22*
X98836000Y-79248000D03*
%TD*%
D11*
%TO.C,J4*%
X140627000Y-141000000D03*
D12*
X140627000Y-138460000D03*
X138087000Y-141000000D03*
X138087000Y-138460000D03*
X135547000Y-141000000D03*
X135547000Y-138460000D03*
X133007000Y-141000000D03*
X133007000Y-138460000D03*
X130467000Y-141000000D03*
X130467000Y-138460000D03*
X127927000Y-141000000D03*
X127927000Y-138460000D03*
X125387000Y-141000000D03*
X125387000Y-138460000D03*
X122847000Y-141000000D03*
X122847000Y-138460000D03*
X120307000Y-141000000D03*
X120307000Y-138460000D03*
X117767000Y-141000000D03*
X117767000Y-138460000D03*
X115227000Y-141000000D03*
X115227000Y-138460000D03*
X112687000Y-141000000D03*
X112687000Y-138460000D03*
X110147000Y-141000000D03*
X110147000Y-138460000D03*
X107607000Y-141000000D03*
X107607000Y-138460000D03*
X105067000Y-141000000D03*
X105067000Y-138460000D03*
X102527000Y-141000000D03*
X102527000Y-138460000D03*
X99987000Y-141000000D03*
X99987000Y-138460000D03*
X97447000Y-141000000D03*
X97447000Y-138460000D03*
X94907000Y-141000000D03*
X94907000Y-138460000D03*
X92367000Y-141000000D03*
X92367000Y-138460000D03*
%TD*%
D11*
%TO.C,J31*%
X83078000Y-60472000D03*
D12*
X80538000Y-60472000D03*
X83078000Y-63012000D03*
X80538000Y-63012000D03*
%TD*%
D11*
%TO.C,J19*%
X137795000Y-129540000D03*
D12*
X137795000Y-127000000D03*
X137795000Y-124460000D03*
X137795000Y-121920000D03*
X137795000Y-119380000D03*
X137795000Y-116840000D03*
X137795000Y-114300000D03*
X137795000Y-111760000D03*
%TD*%
D19*
%TO.C,C8*%
X144471600Y-121462800D03*
X147421600Y-121462800D03*
%TD*%
D23*
%TO.C,JP4*%
X100584000Y-85344000D03*
X101884000Y-85344000D03*
X103184000Y-85344000D03*
%TD*%
D11*
%TO.C,J20*%
X117475000Y-111760000D03*
D12*
X117475000Y-114300000D03*
X117475000Y-116840000D03*
X117475000Y-119380000D03*
X117475000Y-121920000D03*
X117475000Y-124460000D03*
X117475000Y-127000000D03*
X117475000Y-129540000D03*
%TD*%
D11*
%TO.C,J10*%
X54864000Y-98298000D03*
D12*
X57404000Y-98298000D03*
X59944000Y-98298000D03*
X62484000Y-98298000D03*
X65024000Y-98298000D03*
X67564000Y-98298000D03*
X70104000Y-98298000D03*
X72644000Y-98298000D03*
X75184000Y-98298000D03*
X77724000Y-98298000D03*
X80264000Y-98298000D03*
X82804000Y-98298000D03*
%TD*%
D11*
%TO.C,J29*%
X54864000Y-80772000D03*
D12*
X57404000Y-80772000D03*
X59944000Y-80772000D03*
X62484000Y-80772000D03*
X65024000Y-80772000D03*
X67564000Y-80772000D03*
X70104000Y-80772000D03*
X72644000Y-80772000D03*
X75184000Y-80772000D03*
X77724000Y-80772000D03*
X80264000Y-80772000D03*
X82804000Y-80772000D03*
%TD*%
D11*
%TO.C,J22*%
X144460000Y-124500000D03*
D12*
X147000000Y-124500000D03*
X144460000Y-127040000D03*
X147000000Y-127040000D03*
X144460000Y-129580000D03*
X147000000Y-129580000D03*
X144460000Y-132120000D03*
X147000000Y-132120000D03*
X144460000Y-134660000D03*
X147000000Y-134660000D03*
%TD*%
D11*
%TO.C,J14*%
X54864000Y-67310000D03*
D12*
X57404000Y-67310000D03*
X59944000Y-67310000D03*
X62484000Y-67310000D03*
X65024000Y-67310000D03*
X67564000Y-67310000D03*
X70104000Y-67310000D03*
X72644000Y-67310000D03*
X75184000Y-67310000D03*
X77724000Y-67310000D03*
X80264000Y-67310000D03*
X82804000Y-67310000D03*
%TD*%
D24*
%TO.C,J12*%
X100752001Y-66802000D03*
%TD*%
D11*
%TO.C,J23*%
X54864000Y-102362000D03*
D12*
X57404000Y-102362000D03*
X59944000Y-102362000D03*
X62484000Y-102362000D03*
X65024000Y-102362000D03*
X67564000Y-102362000D03*
X70104000Y-102362000D03*
X72644000Y-102362000D03*
X75184000Y-102362000D03*
X77724000Y-102362000D03*
X80264000Y-102362000D03*
X82804000Y-102362000D03*
%TD*%
D23*
%TO.C,JP104*%
X91537000Y-64770000D03*
X92837000Y-64770000D03*
X94137000Y-64770000D03*
%TD*%
%TO.C,JP5*%
X94204000Y-85344000D03*
X95504000Y-85344000D03*
X96804000Y-85344000D03*
%TD*%
D11*
%TO.C,J2*%
X140627000Y-147000000D03*
D12*
X140627000Y-144460000D03*
X138087000Y-147000000D03*
X138087000Y-144460000D03*
X135547000Y-147000000D03*
X135547000Y-144460000D03*
X133007000Y-147000000D03*
X133007000Y-144460000D03*
X130467000Y-147000000D03*
X130467000Y-144460000D03*
X127927000Y-147000000D03*
X127927000Y-144460000D03*
X125387000Y-147000000D03*
X125387000Y-144460000D03*
X122847000Y-147000000D03*
X122847000Y-144460000D03*
X120307000Y-147000000D03*
X120307000Y-144460000D03*
X117767000Y-147000000D03*
X117767000Y-144460000D03*
X115227000Y-147000000D03*
X115227000Y-144460000D03*
X112687000Y-147000000D03*
X112687000Y-144460000D03*
X110147000Y-147000000D03*
X110147000Y-144460000D03*
X107607000Y-147000000D03*
X107607000Y-144460000D03*
X105067000Y-147000000D03*
X105067000Y-144460000D03*
X102527000Y-147000000D03*
X102527000Y-144460000D03*
X99987000Y-147000000D03*
X99987000Y-144460000D03*
X97447000Y-147000000D03*
X97447000Y-144460000D03*
X94907000Y-147000000D03*
X94907000Y-144460000D03*
X92367000Y-147000000D03*
X92367000Y-144460000D03*
%TD*%
D11*
%TO.C,J7*%
X55540000Y-140627000D03*
D12*
X53000000Y-140627000D03*
X55540000Y-138087000D03*
X53000000Y-138087000D03*
X55540000Y-135547000D03*
X53000000Y-135547000D03*
X55540000Y-133007000D03*
X53000000Y-133007000D03*
X55540000Y-130467000D03*
X53000000Y-130467000D03*
X55540000Y-127927000D03*
X53000000Y-127927000D03*
%TD*%
D11*
%TO.C,J18*%
X117475000Y-109220000D03*
D12*
X120015000Y-109220000D03*
X122555000Y-109220000D03*
X125095000Y-109220000D03*
X127635000Y-109220000D03*
X130175000Y-109220000D03*
X132715000Y-109220000D03*
X135255000Y-109220000D03*
X137795000Y-109220000D03*
%TD*%
D25*
%TO.C,JP105*%
X87884000Y-60392000D03*
D26*
X87884000Y-61692000D03*
D27*
X87884000Y-62992000D03*
%TD*%
D28*
%TO.C,U7*%
X92964000Y-104648000D03*
D29*
X95504000Y-104648000D03*
X98044000Y-104648000D03*
X100584000Y-104648000D03*
X103124000Y-104648000D03*
X105664000Y-104648000D03*
X108204000Y-104648000D03*
X110744000Y-104648000D03*
X113284000Y-104648000D03*
X115824000Y-104648000D03*
X118364000Y-104648000D03*
X120904000Y-104648000D03*
X123444000Y-104648000D03*
X125984000Y-104648000D03*
X128524000Y-104648000D03*
X131064000Y-104648000D03*
X133604000Y-104648000D03*
X136144000Y-104648000D03*
X138684000Y-104648000D03*
X141224000Y-104648000D03*
X141224000Y-89408000D03*
X138684000Y-89408000D03*
X136144000Y-89408000D03*
X133604000Y-89408000D03*
X131064000Y-89408000D03*
X128524000Y-89408000D03*
X125984000Y-89408000D03*
X123444000Y-89408000D03*
X120904000Y-89408000D03*
X118364000Y-89408000D03*
X115824000Y-89408000D03*
X113284000Y-89408000D03*
X110744000Y-89408000D03*
X108204000Y-89408000D03*
X105664000Y-89408000D03*
X103124000Y-89408000D03*
X100584000Y-89408000D03*
X98044000Y-89408000D03*
X95504000Y-89408000D03*
X92964000Y-89408000D03*
%TD*%
D30*
%TO.C,H3*%
X146000000Y-54000000D03*
%TD*%
D24*
%TO.C,J5*%
X81153000Y-127635000D03*
%TD*%
D11*
%TO.C,J21*%
X117475000Y-132080000D03*
D12*
X120015000Y-132080000D03*
X122555000Y-132080000D03*
X125095000Y-132080000D03*
X127635000Y-132080000D03*
X130175000Y-132080000D03*
X132715000Y-132080000D03*
X135255000Y-132080000D03*
X137795000Y-132080000D03*
%TD*%
D24*
%TO.C,J11*%
X98212001Y-66802000D03*
%TD*%
D31*
%TO.C,JP101*%
X105888000Y-81407000D03*
D23*
X107188000Y-81407000D03*
D32*
X108488000Y-81407000D03*
%TD*%
D13*
%TO.C,J35*%
X54859000Y-77922000D03*
D14*
X57399000Y-77922000D03*
X59939000Y-77922000D03*
X62479000Y-77922000D03*
X65019000Y-77922000D03*
X67559000Y-77922000D03*
X70099000Y-77922000D03*
X72639000Y-77922000D03*
X75179000Y-77922000D03*
X77719000Y-77922000D03*
X80259000Y-77922000D03*
X82799000Y-77922000D03*
X82799000Y-70302000D03*
X80259000Y-70302000D03*
X77719000Y-70302000D03*
X75179000Y-70302000D03*
X72639000Y-70302000D03*
X70099000Y-70302000D03*
X67559000Y-70302000D03*
X65019000Y-70302000D03*
X62479000Y-70302000D03*
X59939000Y-70302000D03*
X57399000Y-70302000D03*
X54859000Y-70302000D03*
%TD*%
D11*
%TO.C,J15*%
X54864000Y-84582000D03*
D12*
X57404000Y-84582000D03*
X59944000Y-84582000D03*
X62484000Y-84582000D03*
X65024000Y-84582000D03*
X67564000Y-84582000D03*
X70104000Y-84582000D03*
X72644000Y-84582000D03*
X75184000Y-84582000D03*
X77724000Y-84582000D03*
X80264000Y-84582000D03*
X82804000Y-84582000D03*
%TD*%
D31*
%TO.C,JP102*%
X102810000Y-133985000D03*
D23*
X104110000Y-133985000D03*
D32*
X105410000Y-133985000D03*
%TD*%
D11*
%TO.C,J3*%
X92367000Y-59000000D03*
D12*
X92367000Y-61540000D03*
X94907000Y-59000000D03*
X94907000Y-61540000D03*
X97447000Y-59000000D03*
X97447000Y-61540000D03*
X99987000Y-59000000D03*
X99987000Y-61540000D03*
X102527000Y-59000000D03*
X102527000Y-61540000D03*
X105067000Y-59000000D03*
X105067000Y-61540000D03*
X107607000Y-59000000D03*
X107607000Y-61540000D03*
X110147000Y-59000000D03*
X110147000Y-61540000D03*
X112687000Y-59000000D03*
X112687000Y-61540000D03*
X115227000Y-59000000D03*
X115227000Y-61540000D03*
X117767000Y-59000000D03*
X117767000Y-61540000D03*
X120307000Y-59000000D03*
X120307000Y-61540000D03*
X122847000Y-59000000D03*
X122847000Y-61540000D03*
X125387000Y-59000000D03*
X125387000Y-61540000D03*
X127927000Y-59000000D03*
X127927000Y-61540000D03*
X130467000Y-59000000D03*
X130467000Y-61540000D03*
X133007000Y-59000000D03*
X133007000Y-61540000D03*
X135547000Y-59000000D03*
X135547000Y-61540000D03*
X138087000Y-59000000D03*
X138087000Y-61540000D03*
X140627000Y-59000000D03*
X140627000Y-61540000D03*
%TD*%
D11*
%TO.C,J6*%
X61595000Y-140589000D03*
D12*
X59055000Y-140589000D03*
X61595000Y-138049000D03*
X59055000Y-138049000D03*
X61595000Y-135509000D03*
X59055000Y-135509000D03*
X61595000Y-132969000D03*
X59055000Y-132969000D03*
X61595000Y-130429000D03*
X59055000Y-130429000D03*
X61595000Y-127889000D03*
X59055000Y-127889000D03*
%TD*%
D33*
%TO.C,JP9*%
X94869000Y-79614000D03*
D34*
X94869000Y-80914000D03*
%TD*%
D35*
%TO.C,U9*%
X123650000Y-126490000D03*
X124450000Y-126490000D03*
X125250000Y-126490000D03*
X126050000Y-126490000D03*
X126850000Y-126490000D03*
X127650000Y-126490000D03*
X128450000Y-126490000D03*
X129250000Y-126490000D03*
X130050000Y-126490000D03*
X130850000Y-126490000D03*
X131650000Y-126490000D03*
D36*
X133350000Y-124790000D03*
X133350000Y-123990000D03*
X133350000Y-123190000D03*
X133350000Y-122390000D03*
X133350000Y-121590000D03*
X133350000Y-120790000D03*
X133350000Y-119990000D03*
X133350000Y-119190000D03*
X133350000Y-118390000D03*
X133350000Y-117590000D03*
X133350000Y-116790000D03*
D35*
X131650000Y-115090000D03*
X130850000Y-115090000D03*
X130050000Y-115090000D03*
X129250000Y-115090000D03*
X128450000Y-115090000D03*
X127650000Y-115090000D03*
X126850000Y-115090000D03*
X126050000Y-115090000D03*
X125250000Y-115090000D03*
X124450000Y-115090000D03*
X123650000Y-115090000D03*
D36*
X121950000Y-116790000D03*
X121950000Y-117590000D03*
X121950000Y-118390000D03*
X121950000Y-119190000D03*
X121950000Y-119990000D03*
X121950000Y-120790000D03*
X121950000Y-121590000D03*
X121950000Y-122390000D03*
X121950000Y-123190000D03*
X121950000Y-123990000D03*
X121950000Y-124790000D03*
%TD*%
D13*
%TO.C,J13*%
X54864000Y-95250000D03*
D14*
X57404000Y-95250000D03*
X59944000Y-95250000D03*
X62484000Y-95250000D03*
X65024000Y-95250000D03*
X67564000Y-95250000D03*
X70104000Y-95250000D03*
X72644000Y-95250000D03*
X75184000Y-95250000D03*
X77724000Y-95250000D03*
X80264000Y-95250000D03*
X82804000Y-95250000D03*
X82804000Y-87630000D03*
X80264000Y-87630000D03*
X77724000Y-87630000D03*
X75184000Y-87630000D03*
X72644000Y-87630000D03*
X70104000Y-87630000D03*
X67564000Y-87630000D03*
X65024000Y-87630000D03*
X62484000Y-87630000D03*
X59944000Y-87630000D03*
X57404000Y-87630000D03*
X54864000Y-87630000D03*
%TD*%
D30*
%TO.C,H1*%
X54000000Y-54000000D03*
%TD*%
D16*
%TO.C,U3*%
X122174000Y-76106500D03*
X123444000Y-76106500D03*
X124714000Y-76106500D03*
X125984000Y-76106500D03*
X127254000Y-76106500D03*
X128524000Y-76106500D03*
X129794000Y-76106500D03*
X131064000Y-76106500D03*
X132334000Y-76106500D03*
X133604000Y-76106500D03*
X133604000Y-69181500D03*
X132334000Y-69181500D03*
X131064000Y-69181500D03*
X129794000Y-69181500D03*
X128524000Y-69181500D03*
X127254000Y-69181500D03*
X125984000Y-69181500D03*
X124714000Y-69181500D03*
X123444000Y-69181500D03*
X122174000Y-69181500D03*
%TD*%
D30*
%TO.C,H2*%
X54000000Y-146000000D03*
%TD*%
D19*
%TO.C,C7*%
X52832000Y-122428000D03*
X55782000Y-122428000D03*
%TD*%
D30*
%TO.C,H4*%
X146000000Y-146000000D03*
%TD*%
D37*
%TO.C,J8*%
X101473000Y-81534000D03*
%TD*%
%TO.C,J9*%
X101473000Y-79248000D03*
%TD*%
M02*
