%TF.GenerationSoftware,KiCad,Pcbnew,8.0.5-8.0.5-0~ubuntu22.04.1*%
%TF.CreationDate,2024-10-05T19:46:27+02:00*%
%TF.ProjectId,6502_6800_CPU,36353032-5f36-4383-9030-5f4350552e6b,rev?*%
%TF.SameCoordinates,Original*%
%TF.FileFunction,Soldermask,Bot*%
%TF.FilePolarity,Negative*%
%FSLAX46Y46*%
G04 Gerber Fmt 4.6, Leading zero omitted, Abs format (unit mm)*
G04 Created by KiCad (PCBNEW 8.0.5-8.0.5-0~ubuntu22.04.1) date 2024-10-05 19:46:27*
%MOMM*%
%LPD*%
G01*
G04 APERTURE LIST*
G04 Aperture macros list*
%AMRoundRect*
0 Rectangle with rounded corners*
0 $1 Rounding radius*
0 $2 $3 $4 $5 $6 $7 $8 $9 X,Y pos of 4 corners*
0 Add a 4 corners polygon primitive as box body*
4,1,4,$2,$3,$4,$5,$6,$7,$8,$9,$2,$3,0*
0 Add four circle primitives for the rounded corners*
1,1,$1+$1,$2,$3*
1,1,$1+$1,$4,$5*
1,1,$1+$1,$6,$7*
1,1,$1+$1,$8,$9*
0 Add four rect primitives between the rounded corners*
20,1,$1+$1,$2,$3,$4,$5,0*
20,1,$1+$1,$4,$5,$6,$7,0*
20,1,$1+$1,$6,$7,$8,$9,0*
20,1,$1+$1,$8,$9,$2,$3,0*%
%AMFreePoly0*
4,1,19,0.500000,-0.750000,0.000000,-0.750000,0.000000,-0.744911,-0.071157,-0.744911,-0.207708,-0.704816,-0.327430,-0.627875,-0.420627,-0.520320,-0.479746,-0.390866,-0.500000,-0.250000,-0.500000,0.250000,-0.479746,0.390866,-0.420627,0.520320,-0.327430,0.627875,-0.207708,0.704816,-0.071157,0.744911,0.000000,0.744911,0.000000,0.750000,0.500000,0.750000,0.500000,-0.750000,0.500000,-0.750000,
$1*%
%AMFreePoly1*
4,1,19,0.000000,0.744911,0.071157,0.744911,0.207708,0.704816,0.327430,0.627875,0.420627,0.520320,0.479746,0.390866,0.500000,0.250000,0.500000,-0.250000,0.479746,-0.390866,0.420627,-0.520320,0.327430,-0.627875,0.207708,-0.704816,0.071157,-0.744911,0.000000,-0.744911,0.000000,-0.750000,-0.500000,-0.750000,-0.500000,0.750000,0.000000,0.750000,0.000000,0.744911,0.000000,0.744911,
$1*%
%AMFreePoly2*
4,1,19,0.550000,-0.750000,0.000000,-0.750000,0.000000,-0.744911,-0.071157,-0.744911,-0.207708,-0.704816,-0.327430,-0.627875,-0.420627,-0.520320,-0.479746,-0.390866,-0.500000,-0.250000,-0.500000,0.250000,-0.479746,0.390866,-0.420627,0.520320,-0.327430,0.627875,-0.207708,0.704816,-0.071157,0.744911,0.000000,0.744911,0.000000,0.750000,0.550000,0.750000,0.550000,-0.750000,0.550000,-0.750000,
$1*%
%AMFreePoly3*
4,1,19,0.000000,0.744911,0.071157,0.744911,0.207708,0.704816,0.327430,0.627875,0.420627,0.520320,0.479746,0.390866,0.500000,0.250000,0.500000,-0.250000,0.479746,-0.390866,0.420627,-0.520320,0.327430,-0.627875,0.207708,-0.704816,0.071157,-0.744911,0.000000,-0.744911,0.000000,-0.750000,-0.550000,-0.750000,-0.550000,0.750000,0.000000,0.750000,0.000000,0.744911,0.000000,0.744911,
$1*%
G04 Aperture macros list end*
%ADD10R,1.700000X1.700000*%
%ADD11O,1.700000X1.700000*%
%ADD12R,1.600000X1.600000*%
%ADD13O,1.600000X1.600000*%
%ADD14R,1.000000X1.000000*%
%ADD15R,1.600000X2.400000*%
%ADD16O,1.600000X2.400000*%
%ADD17C,3.200000*%
%ADD18RoundRect,0.250000X-0.650000X0.325000X-0.650000X-0.325000X0.650000X-0.325000X0.650000X0.325000X0*%
%ADD19RoundRect,0.250000X-0.625000X0.400000X-0.625000X-0.400000X0.625000X-0.400000X0.625000X0.400000X0*%
%ADD20RoundRect,0.250000X0.625000X-0.400000X0.625000X0.400000X-0.625000X0.400000X-0.625000X-0.400000X0*%
%ADD21RoundRect,0.250000X-0.325000X-0.650000X0.325000X-0.650000X0.325000X0.650000X-0.325000X0.650000X0*%
%ADD22FreePoly0,90.000000*%
%ADD23FreePoly1,90.000000*%
%ADD24FreePoly0,270.000000*%
%ADD25FreePoly1,270.000000*%
%ADD26R,1.350000X1.350000*%
%ADD27RoundRect,0.250000X-0.400000X-0.625000X0.400000X-0.625000X0.400000X0.625000X-0.400000X0.625000X0*%
%ADD28RoundRect,0.250000X0.400000X0.625000X-0.400000X0.625000X-0.400000X-0.625000X0.400000X-0.625000X0*%
%ADD29FreePoly0,180.000000*%
%ADD30FreePoly1,180.000000*%
%ADD31RoundRect,0.250000X0.325000X0.650000X-0.325000X0.650000X-0.325000X-0.650000X0.325000X-0.650000X0*%
%ADD32RoundRect,0.250000X0.650000X-0.325000X0.650000X0.325000X-0.650000X0.325000X-0.650000X-0.325000X0*%
%ADD33FreePoly2,180.000000*%
%ADD34R,1.000000X1.500000*%
%ADD35FreePoly3,180.000000*%
%ADD36RoundRect,0.150000X0.825000X0.150000X-0.825000X0.150000X-0.825000X-0.150000X0.825000X-0.150000X0*%
G04 APERTURE END LIST*
D10*
%TO.C,J30*%
X60960000Y-60198000D03*
D11*
X58420000Y-60198000D03*
X60960000Y-62738000D03*
X58420000Y-62738000D03*
%TD*%
D12*
%TO.C,J17*%
X54864000Y-113030000D03*
D13*
X57404000Y-113030000D03*
X59944000Y-113030000D03*
X62484000Y-113030000D03*
X65024000Y-113030000D03*
X67564000Y-113030000D03*
X70104000Y-113030000D03*
X72644000Y-113030000D03*
X75184000Y-113030000D03*
X77724000Y-113030000D03*
X80264000Y-113030000D03*
X82804000Y-113030000D03*
X82804000Y-105410000D03*
X80264000Y-105410000D03*
X77724000Y-105410000D03*
X75184000Y-105410000D03*
X72644000Y-105410000D03*
X70104000Y-105410000D03*
X67564000Y-105410000D03*
X65024000Y-105410000D03*
X62484000Y-105410000D03*
X59944000Y-105410000D03*
X57404000Y-105410000D03*
X54864000Y-105410000D03*
%TD*%
D10*
%TO.C,J1*%
X92367000Y-53000000D03*
D11*
X92367000Y-55540000D03*
X94907000Y-53000000D03*
X94907000Y-55540000D03*
X97447000Y-53000000D03*
X97447000Y-55540000D03*
X99987000Y-53000000D03*
X99987000Y-55540000D03*
X102527000Y-53000000D03*
X102527000Y-55540000D03*
X105067000Y-53000000D03*
X105067000Y-55540000D03*
X107607000Y-53000000D03*
X107607000Y-55540000D03*
X110147000Y-53000000D03*
X110147000Y-55540000D03*
X112687000Y-53000000D03*
X112687000Y-55540000D03*
X115227000Y-53000000D03*
X115227000Y-55540000D03*
X117767000Y-53000000D03*
X117767000Y-55540000D03*
X120307000Y-53000000D03*
X120307000Y-55540000D03*
X122847000Y-53000000D03*
X122847000Y-55540000D03*
X125387000Y-53000000D03*
X125387000Y-55540000D03*
X127927000Y-53000000D03*
X127927000Y-55540000D03*
X130467000Y-53000000D03*
X130467000Y-55540000D03*
X133007000Y-53000000D03*
X133007000Y-55540000D03*
X135547000Y-53000000D03*
X135547000Y-55540000D03*
X138087000Y-53000000D03*
X138087000Y-55540000D03*
X140627000Y-53000000D03*
X140627000Y-55540000D03*
%TD*%
D10*
%TO.C,J16*%
X54864000Y-116078000D03*
D11*
X57404000Y-116078000D03*
X59944000Y-116078000D03*
X62484000Y-116078000D03*
X65024000Y-116078000D03*
X67564000Y-116078000D03*
X70104000Y-116078000D03*
X72644000Y-116078000D03*
X75184000Y-116078000D03*
X77724000Y-116078000D03*
X80264000Y-116078000D03*
X82804000Y-116078000D03*
%TD*%
D10*
%TO.C,J4*%
X140627000Y-141000000D03*
D11*
X140627000Y-138460000D03*
X138087000Y-141000000D03*
X138087000Y-138460000D03*
X135547000Y-141000000D03*
X135547000Y-138460000D03*
X133007000Y-141000000D03*
X133007000Y-138460000D03*
X130467000Y-141000000D03*
X130467000Y-138460000D03*
X127927000Y-141000000D03*
X127927000Y-138460000D03*
X125387000Y-141000000D03*
X125387000Y-138460000D03*
X122847000Y-141000000D03*
X122847000Y-138460000D03*
X120307000Y-141000000D03*
X120307000Y-138460000D03*
X117767000Y-141000000D03*
X117767000Y-138460000D03*
X115227000Y-141000000D03*
X115227000Y-138460000D03*
X112687000Y-141000000D03*
X112687000Y-138460000D03*
X110147000Y-141000000D03*
X110147000Y-138460000D03*
X107607000Y-141000000D03*
X107607000Y-138460000D03*
X105067000Y-141000000D03*
X105067000Y-138460000D03*
X102527000Y-141000000D03*
X102527000Y-138460000D03*
X99987000Y-141000000D03*
X99987000Y-138460000D03*
X97447000Y-141000000D03*
X97447000Y-138460000D03*
X94907000Y-141000000D03*
X94907000Y-138460000D03*
X92367000Y-141000000D03*
X92367000Y-138460000D03*
%TD*%
D10*
%TO.C,J31*%
X83078000Y-60472000D03*
D11*
X80538000Y-60472000D03*
X83078000Y-63012000D03*
X80538000Y-63012000D03*
%TD*%
D10*
%TO.C,J19*%
X137795000Y-129540000D03*
D11*
X137795000Y-127000000D03*
X137795000Y-124460000D03*
X137795000Y-121920000D03*
X137795000Y-119380000D03*
X137795000Y-116840000D03*
X137795000Y-114300000D03*
X137795000Y-111760000D03*
%TD*%
D10*
%TO.C,J20*%
X117475000Y-111760000D03*
D11*
X117475000Y-114300000D03*
X117475000Y-116840000D03*
X117475000Y-119380000D03*
X117475000Y-121920000D03*
X117475000Y-124460000D03*
X117475000Y-127000000D03*
X117475000Y-129540000D03*
%TD*%
D10*
%TO.C,J10*%
X54864000Y-98298000D03*
D11*
X57404000Y-98298000D03*
X59944000Y-98298000D03*
X62484000Y-98298000D03*
X65024000Y-98298000D03*
X67564000Y-98298000D03*
X70104000Y-98298000D03*
X72644000Y-98298000D03*
X75184000Y-98298000D03*
X77724000Y-98298000D03*
X80264000Y-98298000D03*
X82804000Y-98298000D03*
%TD*%
D10*
%TO.C,J29*%
X54864000Y-80772000D03*
D11*
X57404000Y-80772000D03*
X59944000Y-80772000D03*
X62484000Y-80772000D03*
X65024000Y-80772000D03*
X67564000Y-80772000D03*
X70104000Y-80772000D03*
X72644000Y-80772000D03*
X75184000Y-80772000D03*
X77724000Y-80772000D03*
X80264000Y-80772000D03*
X82804000Y-80772000D03*
%TD*%
D10*
%TO.C,J22*%
X144460000Y-124500000D03*
D11*
X147000000Y-124500000D03*
X144460000Y-127040000D03*
X147000000Y-127040000D03*
X144460000Y-129580000D03*
X147000000Y-129580000D03*
X144460000Y-132120000D03*
X147000000Y-132120000D03*
X144460000Y-134660000D03*
X147000000Y-134660000D03*
%TD*%
D10*
%TO.C,J14*%
X54864000Y-67310000D03*
D11*
X57404000Y-67310000D03*
X59944000Y-67310000D03*
X62484000Y-67310000D03*
X65024000Y-67310000D03*
X67564000Y-67310000D03*
X70104000Y-67310000D03*
X72644000Y-67310000D03*
X75184000Y-67310000D03*
X77724000Y-67310000D03*
X80264000Y-67310000D03*
X82804000Y-67310000D03*
%TD*%
D14*
%TO.C,J12*%
X100752001Y-66802000D03*
%TD*%
D10*
%TO.C,J23*%
X54864000Y-102362000D03*
D11*
X57404000Y-102362000D03*
X59944000Y-102362000D03*
X62484000Y-102362000D03*
X65024000Y-102362000D03*
X67564000Y-102362000D03*
X70104000Y-102362000D03*
X72644000Y-102362000D03*
X75184000Y-102362000D03*
X77724000Y-102362000D03*
X80264000Y-102362000D03*
X82804000Y-102362000D03*
%TD*%
D10*
%TO.C,J2*%
X140627000Y-147000000D03*
D11*
X140627000Y-144460000D03*
X138087000Y-147000000D03*
X138087000Y-144460000D03*
X135547000Y-147000000D03*
X135547000Y-144460000D03*
X133007000Y-147000000D03*
X133007000Y-144460000D03*
X130467000Y-147000000D03*
X130467000Y-144460000D03*
X127927000Y-147000000D03*
X127927000Y-144460000D03*
X125387000Y-147000000D03*
X125387000Y-144460000D03*
X122847000Y-147000000D03*
X122847000Y-144460000D03*
X120307000Y-147000000D03*
X120307000Y-144460000D03*
X117767000Y-147000000D03*
X117767000Y-144460000D03*
X115227000Y-147000000D03*
X115227000Y-144460000D03*
X112687000Y-147000000D03*
X112687000Y-144460000D03*
X110147000Y-147000000D03*
X110147000Y-144460000D03*
X107607000Y-147000000D03*
X107607000Y-144460000D03*
X105067000Y-147000000D03*
X105067000Y-144460000D03*
X102527000Y-147000000D03*
X102527000Y-144460000D03*
X99987000Y-147000000D03*
X99987000Y-144460000D03*
X97447000Y-147000000D03*
X97447000Y-144460000D03*
X94907000Y-147000000D03*
X94907000Y-144460000D03*
X92367000Y-147000000D03*
X92367000Y-144460000D03*
%TD*%
D10*
%TO.C,J7*%
X55540000Y-140627000D03*
D11*
X53000000Y-140627000D03*
X55540000Y-138087000D03*
X53000000Y-138087000D03*
X55540000Y-135547000D03*
X53000000Y-135547000D03*
X55540000Y-133007000D03*
X53000000Y-133007000D03*
X55540000Y-130467000D03*
X53000000Y-130467000D03*
X55540000Y-127927000D03*
X53000000Y-127927000D03*
%TD*%
D10*
%TO.C,J18*%
X117475000Y-109220000D03*
D11*
X120015000Y-109220000D03*
X122555000Y-109220000D03*
X125095000Y-109220000D03*
X127635000Y-109220000D03*
X130175000Y-109220000D03*
X132715000Y-109220000D03*
X135255000Y-109220000D03*
X137795000Y-109220000D03*
%TD*%
D15*
%TO.C,U7*%
X92964000Y-104648000D03*
D16*
X95504000Y-104648000D03*
X98044000Y-104648000D03*
X100584000Y-104648000D03*
X103124000Y-104648000D03*
X105664000Y-104648000D03*
X108204000Y-104648000D03*
X110744000Y-104648000D03*
X113284000Y-104648000D03*
X115824000Y-104648000D03*
X118364000Y-104648000D03*
X120904000Y-104648000D03*
X123444000Y-104648000D03*
X125984000Y-104648000D03*
X128524000Y-104648000D03*
X131064000Y-104648000D03*
X133604000Y-104648000D03*
X136144000Y-104648000D03*
X138684000Y-104648000D03*
X141224000Y-104648000D03*
X141224000Y-89408000D03*
X138684000Y-89408000D03*
X136144000Y-89408000D03*
X133604000Y-89408000D03*
X131064000Y-89408000D03*
X128524000Y-89408000D03*
X125984000Y-89408000D03*
X123444000Y-89408000D03*
X120904000Y-89408000D03*
X118364000Y-89408000D03*
X115824000Y-89408000D03*
X113284000Y-89408000D03*
X110744000Y-89408000D03*
X108204000Y-89408000D03*
X105664000Y-89408000D03*
X103124000Y-89408000D03*
X100584000Y-89408000D03*
X98044000Y-89408000D03*
X95504000Y-89408000D03*
X92964000Y-89408000D03*
%TD*%
D17*
%TO.C,H3*%
X146000000Y-54000000D03*
%TD*%
D14*
%TO.C,J5*%
X81153000Y-127635000D03*
%TD*%
D10*
%TO.C,J21*%
X117475000Y-132080000D03*
D11*
X120015000Y-132080000D03*
X122555000Y-132080000D03*
X125095000Y-132080000D03*
X127635000Y-132080000D03*
X130175000Y-132080000D03*
X132715000Y-132080000D03*
X135255000Y-132080000D03*
X137795000Y-132080000D03*
%TD*%
D14*
%TO.C,J11*%
X98212001Y-66802000D03*
%TD*%
D12*
%TO.C,J35*%
X54859000Y-77922000D03*
D13*
X57399000Y-77922000D03*
X59939000Y-77922000D03*
X62479000Y-77922000D03*
X65019000Y-77922000D03*
X67559000Y-77922000D03*
X70099000Y-77922000D03*
X72639000Y-77922000D03*
X75179000Y-77922000D03*
X77719000Y-77922000D03*
X80259000Y-77922000D03*
X82799000Y-77922000D03*
X82799000Y-70302000D03*
X80259000Y-70302000D03*
X77719000Y-70302000D03*
X75179000Y-70302000D03*
X72639000Y-70302000D03*
X70099000Y-70302000D03*
X67559000Y-70302000D03*
X65019000Y-70302000D03*
X62479000Y-70302000D03*
X59939000Y-70302000D03*
X57399000Y-70302000D03*
X54859000Y-70302000D03*
%TD*%
D10*
%TO.C,J15*%
X54864000Y-84582000D03*
D11*
X57404000Y-84582000D03*
X59944000Y-84582000D03*
X62484000Y-84582000D03*
X65024000Y-84582000D03*
X67564000Y-84582000D03*
X70104000Y-84582000D03*
X72644000Y-84582000D03*
X75184000Y-84582000D03*
X77724000Y-84582000D03*
X80264000Y-84582000D03*
X82804000Y-84582000D03*
%TD*%
D10*
%TO.C,J3*%
X92367000Y-59000000D03*
D11*
X92367000Y-61540000D03*
X94907000Y-59000000D03*
X94907000Y-61540000D03*
X97447000Y-59000000D03*
X97447000Y-61540000D03*
X99987000Y-59000000D03*
X99987000Y-61540000D03*
X102527000Y-59000000D03*
X102527000Y-61540000D03*
X105067000Y-59000000D03*
X105067000Y-61540000D03*
X107607000Y-59000000D03*
X107607000Y-61540000D03*
X110147000Y-59000000D03*
X110147000Y-61540000D03*
X112687000Y-59000000D03*
X112687000Y-61540000D03*
X115227000Y-59000000D03*
X115227000Y-61540000D03*
X117767000Y-59000000D03*
X117767000Y-61540000D03*
X120307000Y-59000000D03*
X120307000Y-61540000D03*
X122847000Y-59000000D03*
X122847000Y-61540000D03*
X125387000Y-59000000D03*
X125387000Y-61540000D03*
X127927000Y-59000000D03*
X127927000Y-61540000D03*
X130467000Y-59000000D03*
X130467000Y-61540000D03*
X133007000Y-59000000D03*
X133007000Y-61540000D03*
X135547000Y-59000000D03*
X135547000Y-61540000D03*
X138087000Y-59000000D03*
X138087000Y-61540000D03*
X140627000Y-59000000D03*
X140627000Y-61540000D03*
%TD*%
D10*
%TO.C,J6*%
X61595000Y-140589000D03*
D11*
X59055000Y-140589000D03*
X61595000Y-138049000D03*
X59055000Y-138049000D03*
X61595000Y-135509000D03*
X59055000Y-135509000D03*
X61595000Y-132969000D03*
X59055000Y-132969000D03*
X61595000Y-130429000D03*
X59055000Y-130429000D03*
X61595000Y-127889000D03*
X59055000Y-127889000D03*
%TD*%
D12*
%TO.C,J13*%
X54864000Y-95250000D03*
D13*
X57404000Y-95250000D03*
X59944000Y-95250000D03*
X62484000Y-95250000D03*
X65024000Y-95250000D03*
X67564000Y-95250000D03*
X70104000Y-95250000D03*
X72644000Y-95250000D03*
X75184000Y-95250000D03*
X77724000Y-95250000D03*
X80264000Y-95250000D03*
X82804000Y-95250000D03*
X82804000Y-87630000D03*
X80264000Y-87630000D03*
X77724000Y-87630000D03*
X75184000Y-87630000D03*
X72644000Y-87630000D03*
X70104000Y-87630000D03*
X67564000Y-87630000D03*
X65024000Y-87630000D03*
X62484000Y-87630000D03*
X59944000Y-87630000D03*
X57404000Y-87630000D03*
X54864000Y-87630000D03*
%TD*%
D17*
%TO.C,H1*%
X54000000Y-54000000D03*
%TD*%
%TO.C,H2*%
X54000000Y-146000000D03*
%TD*%
%TO.C,H4*%
X146000000Y-146000000D03*
%TD*%
D18*
%TO.C,C2*%
X88800000Y-144300000D03*
X88800000Y-147250000D03*
%TD*%
D19*
%TO.C,R6*%
X98044000Y-98272000D03*
X98044000Y-101372000D03*
%TD*%
D20*
%TO.C,R5*%
X111633000Y-69723000D03*
X111633000Y-66623000D03*
%TD*%
D21*
%TO.C,C6*%
X123415000Y-96393000D03*
X126365000Y-96393000D03*
%TD*%
D22*
%TO.C,JP3*%
X92964000Y-93883000D03*
D23*
X92964000Y-92583000D03*
%TD*%
D24*
%TO.C,JP6*%
X92964000Y-100076000D03*
D25*
X92964000Y-101376000D03*
%TD*%
D26*
%TO.C,J8*%
X101473000Y-81534000D03*
%TD*%
D20*
%TO.C,R4*%
X116332000Y-69723000D03*
X116332000Y-66623000D03*
%TD*%
D27*
%TO.C,R7*%
X86943000Y-121031000D03*
X90043000Y-121031000D03*
%TD*%
D28*
%TO.C,R13*%
X84582000Y-135636000D03*
X81482000Y-135636000D03*
%TD*%
D29*
%TO.C,JP7*%
X71628000Y-92710000D03*
D30*
X70328000Y-92710000D03*
%TD*%
D27*
%TO.C,R10*%
X86943000Y-113665000D03*
X90043000Y-113665000D03*
%TD*%
D18*
%TO.C,C5*%
X100330000Y-69088000D03*
X100330000Y-72038000D03*
%TD*%
D29*
%TO.C,JP11*%
X71374000Y-75438000D03*
D30*
X70074000Y-75438000D03*
%TD*%
D26*
%TO.C,J9*%
X101473000Y-79248000D03*
%TD*%
D22*
%TO.C,JP1*%
X103378000Y-97297000D03*
D23*
X103378000Y-95997000D03*
%TD*%
D29*
%TO.C,JP13*%
X71404000Y-110650000D03*
D30*
X70104000Y-110650000D03*
%TD*%
D29*
%TO.C,JP15*%
X78994000Y-110490000D03*
D30*
X77694000Y-110490000D03*
%TD*%
D27*
%TO.C,R8*%
X86943000Y-118618000D03*
X90043000Y-118618000D03*
%TD*%
D28*
%TO.C,R14*%
X84634000Y-132080000D03*
X81534000Y-132080000D03*
%TD*%
D24*
%TO.C,JP2*%
X108331000Y-95855000D03*
D25*
X108331000Y-97155000D03*
%TD*%
D28*
%TO.C,R12*%
X128830000Y-112395000D03*
X125730000Y-112395000D03*
%TD*%
D21*
%TO.C,C9*%
X130810000Y-112395000D03*
X133760000Y-112395000D03*
%TD*%
D27*
%TO.C,R9*%
X86943000Y-116205000D03*
X90043000Y-116205000D03*
%TD*%
D29*
%TO.C,JP10*%
X78994000Y-92710000D03*
D30*
X77694000Y-92710000D03*
%TD*%
D31*
%TO.C,C10*%
X127205000Y-128905000D03*
X124255000Y-128905000D03*
%TD*%
D27*
%TO.C,R11*%
X86969000Y-123317000D03*
X90069000Y-123317000D03*
%TD*%
D32*
%TO.C,C1*%
X89000000Y-55600000D03*
X89000000Y-52650000D03*
%TD*%
D33*
%TO.C,JP14*%
X84388000Y-123444000D03*
D34*
X83088000Y-123444000D03*
D35*
X81788000Y-123444000D03*
%TD*%
D29*
%TO.C,JP12*%
X78994000Y-75438000D03*
D30*
X77694000Y-75438000D03*
%TD*%
D28*
%TO.C,R15*%
X78486000Y-134112000D03*
X75386000Y-134112000D03*
%TD*%
D20*
%TO.C,R3*%
X113919000Y-69723000D03*
X113919000Y-66623000D03*
%TD*%
D19*
%TO.C,R1*%
X125984000Y-68453000D03*
X125984000Y-71553000D03*
%TD*%
%TO.C,R2*%
X128397000Y-68528000D03*
X128397000Y-71628000D03*
%TD*%
D36*
%TO.C,U6*%
X109598000Y-115951000D03*
X109598000Y-117221000D03*
X109598000Y-118491000D03*
X109598000Y-119761000D03*
X109598000Y-121031000D03*
X109598000Y-122301000D03*
X109598000Y-123571000D03*
X104648000Y-123571000D03*
X104648000Y-122301000D03*
X104648000Y-121031000D03*
X104648000Y-119761000D03*
X104648000Y-118491000D03*
X104648000Y-117221000D03*
X104648000Y-115951000D03*
%TD*%
D18*
%TO.C,C4*%
X130810000Y-68629000D03*
X130810000Y-71579000D03*
%TD*%
D28*
%TO.C,R16*%
X78740000Y-127508000D03*
X75640000Y-127508000D03*
%TD*%
M02*
