M48
; DRILL file {KiCad 8.0.5-8.0.5-0~ubuntu22.04.1} date 2024-09-30T17:12:21+0200
; FORMAT={-:-/ absolute / inch / decimal}
; #@! TF.CreationDate,2024-09-30T17:12:21+02:00
; #@! TF.GenerationSoftware,Kicad,Pcbnew,8.0.5-8.0.5-0~ubuntu22.04.1
; #@! TF.FileFunction,MixedPlating,1,2
FMAT,2
INCH
; #@! TA.AperFunction,Plated,PTH,ViaDrill
T1C0.0157
; #@! TA.AperFunction,Plated,PTH,ComponentDrill
T2C0.0197
; #@! TA.AperFunction,Plated,PTH,ComponentDrill
T3C0.0315
; #@! TA.AperFunction,Plated,PTH,ComponentDrill
T4C0.0335
; #@! TA.AperFunction,Plated,PTH,ComponentDrill
T5C0.0390
; #@! TA.AperFunction,Plated,PTH,ComponentDrill
T6C0.0394
; #@! TA.AperFunction,Plated,PTH,ComponentDrill
T7C0.0433
; #@! TA.AperFunction,Plated,PTH,ComponentDrill
T8C0.0512
; #@! TA.AperFunction,NonPlated,NPTH,ComponentDrill
T9C0.1260
%
G90
G05
T1
X2.09Y-3.8272
X2.09Y-4.02
X2.09Y-4.24
X2.0904Y-3.3804
X2.12Y-4.81
X2.195Y-3.605
X2.281Y-3.141
X2.34Y-4.09
X2.34Y-4.7
X2.35Y-5.05
X2.5Y-5.49
X2.515Y-5.225
X2.54Y-3.1358
X2.63Y-3.1358
X2.65Y-5.66
X2.72Y-3.1358
X2.75Y-2.0
X2.7562Y-2.5332
X2.7562Y-2.5832
X2.7562Y-2.6332
X2.7562Y-2.6832
X2.7562Y-2.7332
X2.7562Y-2.7832
X2.7562Y-2.8332
X2.79Y-4.04
X2.79Y-4.35
X2.825Y-2.975
X2.83Y-5.2
X2.84Y-4.9
X2.84Y-5.47
X2.85Y-4.62
X2.85Y-4.8
X2.8562Y-2.5332
X2.8562Y-2.5832
X2.8562Y-2.6332
X2.8575Y-3.0725
X2.88Y-3.42
X2.88Y-3.67
X2.88Y-5.0
X2.9Y-3.95
X2.92Y-2.5332
X2.92Y-2.5832
X2.92Y-2.6332
X2.92Y-2.6932
X2.92Y-2.9377
X2.96Y-4.19
X2.9812Y-2.5332
X2.9812Y-2.5832
X2.9812Y-2.6332
X2.99Y-5.05
X3.01Y-4.62
X3.01Y-4.8
X3.0118Y-2.2835
X3.02Y-4.9
X3.0562Y-2.5332
X3.0562Y-2.5832
X3.0562Y-2.6332
X3.0562Y-2.6832
X3.0562Y-2.7332
X3.0562Y-2.7832
X3.0562Y-2.8332
X3.065Y-5.2
X3.0709Y-3.3268
X3.0748Y-3.374
X3.0789Y-3.4289
X3.08Y-5.47
X3.09Y-2.0061
X3.1095Y-5.0936
X3.115Y-3.465
X3.1473Y-5.02
X3.16Y-3.545
X3.18Y-2.11
X3.2559Y-2.5315
X3.2598Y-3.0236
X3.26Y-2.0061
X3.29Y-3.3
X3.3071Y-2.4567
X3.315Y-3.0118
X3.33Y-2.11
X3.35Y-3.23
X3.36Y-2.51
X3.36Y-3.47
X3.36Y-3.65
X3.365Y-4.595
X3.45Y-4.86
X3.455Y-4.79
X3.4646Y-3.0315
X3.48Y-4.54
X3.4922Y-2.6642
X3.4922Y-2.7803
X3.5Y-3.795
X3.515Y-3.85
X3.535Y-3.13
X3.54Y-4.005
X3.5891Y-3.8741
X3.6Y-3.96
X3.605Y-3.325
X3.6312Y-4.8121
X3.6315Y-4.9291
X3.6386Y-3.2328
X3.6463Y-5.1332
X3.6463Y-5.1832
X3.7212Y-2.8277
X3.7762Y-4.9782
X3.8048Y-3.7682
X3.8048Y-3.8182
X3.8048Y-3.9182
X3.8048Y-3.9682
X3.8063Y-3.2382
X3.8063Y-3.2882
X3.8063Y-3.3382
X3.8063Y-3.3882
X3.8063Y-3.4382
X3.8262Y-4.7833
X3.8262Y-4.9782
X3.8662Y-2.9032
X3.8703Y-4.3396
X3.8962Y-2.7282
X3.9162Y-3.3082
X3.9262Y-4.9782
X3.9606Y-2.7165
X3.9724Y-4.1582
X3.98Y-5.28
X4.0076Y-3.7182
X4.02Y-3.65
X4.0262Y-4.7833
X4.0262Y-4.9782
X4.0276Y-2.8189
X4.0473Y-4.1141
X4.0795Y-3.51
X4.08Y-3.14
X4.08Y-3.77
X4.08Y-5.28
X4.1089Y-3.7241
X4.11Y-4.85
X4.11Y-4.99
X4.1262Y-3.8682
X4.1612Y-3.8977
X4.1617Y-3.265
X4.1662Y-2.9958
X4.185Y-3.325
X4.1912Y-3.9282
X4.2Y-4.1
X4.2Y-5.2
X4.2091Y-3.3882
X4.2212Y-3.9582
X4.23Y-5.26
X4.235Y-3.44
X4.25Y-4.1
X4.25Y-4.8
X4.2517Y-3.5997
X4.26Y-4.465
X4.2942Y-3.6003
X4.315Y-3.11
X4.3262Y-3.0532
X4.331Y-3.6169
X4.3342Y-4.4132
X4.3342Y-4.5294
X4.3342Y-4.755
X4.35Y-3.14
X4.3662Y-3.0232
X4.3713Y-3.178
X4.3849Y-3.6387
X4.3962Y-2.9832
X4.3976Y-2.8801
X4.4055Y-3.2126
X4.4162Y-3.6832
X4.43Y-3.0684
X4.45Y-4.1882
X4.45Y-4.7279
X4.455Y-3.105
X4.4606Y-3.2512
X4.4762Y-2.9932
X4.4981Y-3.2686
X4.5Y-4.5733
X4.51Y-3.122
X4.5212Y-2.601
X4.5312Y-3.7432
X4.5394Y-3.2677
X4.55Y-4.255
X4.55Y-4.4705
X4.55Y-4.5733
X4.5662Y-3.9995
X4.5712Y-2.601
X4.5861Y-3.2714
X4.6Y-4.5733
X4.605Y-4.225
X4.6171Y-2.9589
X4.6212Y-2.601
X4.622Y-3.2874
X4.6224Y-4.4703
X4.6311Y-2.9178
X4.6362Y-3.4782
X4.65Y-4.5733
X4.6575Y-3.3189
X4.6712Y-2.601
X4.6712Y-2.7982
X4.6759Y-2.935
X4.6762Y-3.5032
X4.6937Y-4.225
X4.7Y-4.5733
X4.7212Y-2.601
X4.7423Y-2.9332
X4.745Y-4.26
X4.75Y-4.3705
X4.75Y-4.5733
X4.7712Y-2.601
X4.7712Y-2.7982
X4.8Y-4.5733
X4.8Y-4.3705
X4.8Y-4.4961
X4.8212Y-2.601
X4.8212Y-2.7982
X4.8281Y-3.55
X4.855Y-4.575
X4.86Y-3.175
X4.8712Y-2.601
X4.9Y-4.7279
X4.9Y-5.0005
X4.9352Y-2.601
X4.9434Y-3.1905
X4.9443Y-3.55
X4.97Y-4.73
X4.9829Y-2.7958
X4.9852Y-2.601
X4.9875Y-3.1905
X5.0159Y-2.9986
X5.02Y-4.0605
X5.02Y-4.5705
X5.035Y-4.175
X5.0352Y-2.601
X5.0352Y-2.7959
X5.07Y-3.5165
X5.07Y-4.5705
X5.08Y-2.69
X5.085Y-3.22
X5.0852Y-2.601
X5.09Y-2.995
X5.1092Y-3.9832
X5.12Y-4.5705
X5.1352Y-2.601
X5.145Y-3.24
X5.16Y-3.41
X5.1663Y-4.1832
X5.17Y-4.37
X5.17Y-4.5705
X5.1852Y-2.601
X5.1862Y-2.9417
X5.1873Y-2.7959
X5.19Y-3.255
X5.19Y-3.5165
X5.2Y-3.73
X5.22Y-4.5705
X5.2287Y-3.8637
X5.2311Y-3.2631
X5.2352Y-2.601
X5.2352Y-2.7959
X5.24Y-2.995
X5.27Y-4.5705
X5.28Y-3.41
X5.2852Y-2.601
X5.29Y-3.22
X5.3Y-4.45
X5.31Y-3.5165
X5.315Y-3.8755
X5.3162Y-2.7132
X5.32Y-4.5705
X5.34Y-3.3
X5.34Y-3.9527
X5.3502Y-2.6006
X5.3502Y-2.7955
X5.3512Y-2.9492
X5.3562Y-3.1314
X5.4002Y-2.6006
X5.4002Y-2.7955
X5.42Y-3.41
X5.42Y-4.7279
X5.42Y-5.0005
X5.45Y-3.22
X5.4502Y-2.6006
X5.4512Y-2.7932
X5.4512Y-2.9532
X5.47Y-3.52
X5.4962Y-2.9232
X5.4992Y-4.0232
X5.5002Y-2.7955
X5.51Y-3.29
X5.56Y-3.33
X5.59Y-2.98
X5.5992Y-4.0532
X5.6Y-3.21
X5.6Y-3.41
X5.605Y-4.375
X5.6069Y-4.775
X5.635Y-3.935
X5.6407Y-2.7086
X5.65Y-3.33
X5.6776Y-3.6996
X5.69Y-3.23
X5.7Y-3.16
X5.7059Y-3.6607
X5.71Y-3.12
X5.7231Y-4.775
X5.73Y-3.08
X5.7349Y-2.8768
X5.7364Y-3.6291
X5.74Y-2.97
X5.74Y-3.02
X5.76Y-4.64
X5.7659Y-3.6002
X5.78Y-4.13
X5.79Y-2.82
X5.7937Y-2.6261
X5.8008Y-3.578
T2
X2.205Y-3.995
X3.3882Y-2.9076
X3.415Y-5.125
X3.515Y-5.125
X3.5662Y-2.5382
X3.6262Y-2.5382
X3.6862Y-2.5382
X3.7462Y-2.5382
X3.8061Y-2.5382
X3.8662Y-2.5382
T3
X2.655Y-3.395
X2.655Y-3.495
X2.655Y-3.595
X2.655Y-3.695
X2.655Y-3.795
X2.655Y-3.895
X2.655Y-3.995
X2.655Y-4.095
X2.655Y-4.195
X2.655Y-4.295
X2.655Y-4.395
X2.655Y-4.495
X2.655Y-4.595
X2.655Y-4.695
X2.655Y-4.795
X2.655Y-4.895
X2.655Y-4.995
X2.655Y-5.095
X2.655Y-5.195
X2.655Y-5.295
X3.255Y-3.395
X3.255Y-3.495
X3.255Y-3.595
X3.255Y-3.695
X3.255Y-3.795
X3.255Y-3.895
X3.255Y-3.995
X3.255Y-4.095
X3.255Y-4.195
X3.255Y-4.295
X3.255Y-4.395
X3.255Y-4.495
X3.255Y-4.595
X3.255Y-4.695
X3.255Y-4.795
X3.255Y-4.895
X3.255Y-4.995
X3.255Y-5.095
X3.255Y-5.195
X3.255Y-5.295
X4.585Y-5.18
X4.635Y-5.3132
X4.685Y-5.18
X4.735Y-5.3132
X4.785Y-5.18
X4.835Y-5.3132
X4.885Y-5.18
X4.935Y-5.3132
X4.985Y-5.18
X5.035Y-5.3132
X5.085Y-5.18
X5.135Y-5.3132
X5.185Y-5.18
X5.235Y-5.3132
X5.285Y-5.18
X5.335Y-5.3132
X5.385Y-5.18
X5.435Y-5.3132
T4
X3.5598Y-4.44
X4.17Y-4.2431
X4.17Y-4.6369
T5
X2.0599Y-4.4274
X2.0599Y-4.6046
T6
X2.08Y-5.025
X2.08Y-5.125
X2.08Y-5.225
X2.1631Y-2.6234
X2.1631Y-2.7234
X2.2631Y-2.6234
X2.2631Y-2.7234
X2.4162Y-2.6432
X2.6162Y-2.6436
X3.6365Y-2.0866
X3.6365Y-2.1866
X3.6365Y-2.3228
X3.6365Y-2.4228
X3.6365Y-5.4512
X3.6365Y-5.5512
X3.6365Y-5.6874
X3.6365Y-5.7874
X3.7365Y-2.0866
X3.7365Y-2.1866
X3.7365Y-2.3228
X3.7365Y-2.4228
X3.7365Y-5.4512
X3.7365Y-5.5512
X3.7365Y-5.6874
X3.7365Y-5.7874
X3.8365Y-2.0866
X3.8365Y-2.1866
X3.8365Y-2.3228
X3.8365Y-2.4228
X3.8365Y-5.4512
X3.8365Y-5.5512
X3.8365Y-5.6874
X3.8365Y-5.7874
X3.9365Y-2.0866
X3.9365Y-2.1866
X3.9365Y-2.3228
X3.9365Y-2.4228
X3.9365Y-5.4512
X3.9365Y-5.5512
X3.9365Y-5.6874
X3.9365Y-5.7874
X4.0365Y-2.0866
X4.0365Y-2.1866
X4.0365Y-2.3228
X4.0365Y-2.4228
X4.0365Y-5.4512
X4.0365Y-5.5512
X4.0365Y-5.6874
X4.0365Y-5.7874
X4.1365Y-2.0866
X4.1365Y-2.1866
X4.1365Y-2.3228
X4.1365Y-2.4228
X4.1365Y-5.4512
X4.1365Y-5.5512
X4.1365Y-5.6874
X4.1365Y-5.7874
X4.2365Y-2.0866
X4.2365Y-2.1866
X4.2365Y-2.3228
X4.2365Y-2.4228
X4.2365Y-5.4512
X4.2365Y-5.5512
X4.2365Y-5.6874
X4.2365Y-5.7874
X4.3365Y-2.0866
X4.3365Y-2.1866
X4.3365Y-2.3228
X4.3365Y-2.4228
X4.3365Y-5.4512
X4.3365Y-5.5512
X4.3365Y-5.6874
X4.3365Y-5.7874
X4.4365Y-2.0866
X4.4365Y-2.1866
X4.4365Y-2.3228
X4.4365Y-2.4228
X4.4365Y-5.4512
X4.4365Y-5.5512
X4.4365Y-5.6874
X4.4365Y-5.7874
X4.5365Y-2.0866
X4.5365Y-2.1866
X4.5365Y-2.3228
X4.5365Y-2.4228
X4.5365Y-5.4512
X4.5365Y-5.5512
X4.5365Y-5.6874
X4.5365Y-5.7874
X4.6365Y-2.0866
X4.6365Y-2.1866
X4.6365Y-2.3228
X4.6365Y-2.4228
X4.6365Y-5.4512
X4.6365Y-5.5512
X4.6365Y-5.6874
X4.6365Y-5.7874
X4.7365Y-2.0866
X4.7365Y-2.1866
X4.7365Y-2.3228
X4.7365Y-2.4228
X4.7365Y-5.4512
X4.7365Y-5.5512
X4.7365Y-5.6874
X4.7365Y-5.7874
X4.8365Y-2.0866
X4.8365Y-2.1866
X4.8365Y-2.3228
X4.8365Y-2.4228
X4.8365Y-5.4512
X4.8365Y-5.5512
X4.8365Y-5.6874
X4.8365Y-5.7874
X4.9365Y-2.0866
X4.9365Y-2.1866
X4.9365Y-2.3228
X4.9365Y-2.4228
X4.9365Y-5.4512
X4.9365Y-5.5512
X4.9365Y-5.6874
X4.9365Y-5.7874
X5.0365Y-2.0866
X5.0365Y-2.1866
X5.0365Y-2.3228
X5.0365Y-2.4228
X5.0365Y-5.4512
X5.0365Y-5.5512
X5.0365Y-5.6874
X5.0365Y-5.7874
X5.1365Y-2.0866
X5.1365Y-2.1866
X5.1365Y-2.3228
X5.1365Y-2.4228
X5.1365Y-5.4512
X5.1365Y-5.5512
X5.1365Y-5.6874
X5.1365Y-5.7874
X5.2365Y-2.0866
X5.2365Y-2.1866
X5.2365Y-2.3228
X5.2365Y-2.4228
X5.2365Y-5.4512
X5.2365Y-5.5512
X5.2365Y-5.6874
X5.2365Y-5.7874
X5.3365Y-2.0866
X5.3365Y-2.1866
X5.3365Y-2.3228
X5.3365Y-2.4228
X5.3365Y-5.4512
X5.3365Y-5.5512
X5.3365Y-5.6874
X5.3365Y-5.7874
X5.4365Y-2.0866
X5.4365Y-2.1866
X5.4365Y-2.3228
X5.4365Y-2.4228
X5.4365Y-5.4512
X5.4365Y-5.5512
X5.4365Y-5.6874
X5.4365Y-5.7874
X5.5365Y-2.0866
X5.5365Y-2.1866
X5.5365Y-2.3228
X5.5365Y-2.4228
X5.5365Y-5.4512
X5.5365Y-5.5512
X5.5365Y-5.6874
X5.5365Y-5.7874
X5.6299Y-4.9016
X5.6299Y-5.0016
X5.6299Y-5.1016
X5.6299Y-5.2016
X5.6299Y-5.3016
X5.7299Y-4.9016
X5.7299Y-5.0016
X5.7299Y-5.1016
X5.7299Y-5.2016
X5.7299Y-5.3016
T7
X2.1315Y-2.4352
X2.3315Y-2.4352
X2.4315Y-2.4352
X2.5315Y-2.4352
T8
X2.1579Y-4.3778
X2.1579Y-4.6538
X2.4094Y-2.1496
X2.6063Y-2.1496
T9
X2.126Y-2.126
X2.126Y-5.748
X5.748Y-2.126
X5.748Y-5.748
M30
