%TF.GenerationSoftware,KiCad,Pcbnew,8.0.5-8.0.5-0~ubuntu22.04.1*%
%TF.CreationDate,2024-10-23T07:47:20+02:00*%
%TF.ProjectId,RamRomBoard,52616d52-6f6d-4426-9f61-72642e6b6963,rev?*%
%TF.SameCoordinates,Original*%
%TF.FileFunction,Soldermask,Top*%
%TF.FilePolarity,Negative*%
%FSLAX46Y46*%
G04 Gerber Fmt 4.6, Leading zero omitted, Abs format (unit mm)*
G04 Created by KiCad (PCBNEW 8.0.5-8.0.5-0~ubuntu22.04.1) date 2024-10-23 07:47:20*
%MOMM*%
%LPD*%
G01*
G04 APERTURE LIST*
G04 Aperture macros list*
%AMRoundRect*
0 Rectangle with rounded corners*
0 $1 Rounding radius*
0 $2 $3 $4 $5 $6 $7 $8 $9 X,Y pos of 4 corners*
0 Add a 4 corners polygon primitive as box body*
4,1,4,$2,$3,$4,$5,$6,$7,$8,$9,$2,$3,0*
0 Add four circle primitives for the rounded corners*
1,1,$1+$1,$2,$3*
1,1,$1+$1,$4,$5*
1,1,$1+$1,$6,$7*
1,1,$1+$1,$8,$9*
0 Add four rect primitives between the rounded corners*
20,1,$1+$1,$2,$3,$4,$5,0*
20,1,$1+$1,$4,$5,$6,$7,0*
20,1,$1+$1,$6,$7,$8,$9,0*
20,1,$1+$1,$8,$9,$2,$3,0*%
%AMFreePoly0*
4,1,19,0.500000,-0.750000,0.000000,-0.750000,0.000000,-0.744911,-0.071157,-0.744911,-0.207708,-0.704816,-0.327430,-0.627875,-0.420627,-0.520320,-0.479746,-0.390866,-0.500000,-0.250000,-0.500000,0.250000,-0.479746,0.390866,-0.420627,0.520320,-0.327430,0.627875,-0.207708,0.704816,-0.071157,0.744911,0.000000,0.744911,0.000000,0.750000,0.500000,0.750000,0.500000,-0.750000,0.500000,-0.750000,
$1*%
%AMFreePoly1*
4,1,19,0.000000,0.744911,0.071157,0.744911,0.207708,0.704816,0.327430,0.627875,0.420627,0.520320,0.479746,0.390866,0.500000,0.250000,0.500000,-0.250000,0.479746,-0.390866,0.420627,-0.520320,0.327430,-0.627875,0.207708,-0.704816,0.071157,-0.744911,0.000000,-0.744911,0.000000,-0.750000,-0.500000,-0.750000,-0.500000,0.750000,0.000000,0.750000,0.000000,0.744911,0.000000,0.744911,
$1*%
G04 Aperture macros list end*
%ADD10RoundRect,0.250000X0.325000X0.650000X-0.325000X0.650000X-0.325000X-0.650000X0.325000X-0.650000X0*%
%ADD11R,1.700000X1.700000*%
%ADD12O,1.700000X1.700000*%
%ADD13R,0.850000X0.850000*%
%ADD14RoundRect,0.150000X-0.150000X0.825000X-0.150000X-0.825000X0.150000X-0.825000X0.150000X0.825000X0*%
%ADD15R,2.400000X1.600000*%
%ADD16O,2.400000X1.600000*%
%ADD17RoundRect,0.250000X1.025000X-0.787500X1.025000X0.787500X-1.025000X0.787500X-1.025000X-0.787500X0*%
%ADD18RoundRect,0.150000X0.150000X-0.587500X0.150000X0.587500X-0.150000X0.587500X-0.150000X-0.587500X0*%
%ADD19R,1.400000X0.400000*%
%ADD20R,1.900000X2.300000*%
%ADD21R,1.900000X1.800000*%
%ADD22RoundRect,0.150000X-0.512500X-0.150000X0.512500X-0.150000X0.512500X0.150000X-0.512500X0.150000X0*%
%ADD23R,2.500000X2.500000*%
%ADD24C,2.500000*%
%ADD25RoundRect,0.150000X-0.587500X-0.150000X0.587500X-0.150000X0.587500X0.150000X-0.587500X0.150000X0*%
%ADD26R,1.600000X1.600000*%
%ADD27O,1.600000X1.600000*%
%ADD28FreePoly0,180.000000*%
%ADD29FreePoly1,180.000000*%
%ADD30RoundRect,0.150000X0.150000X-0.825000X0.150000X0.825000X-0.150000X0.825000X-0.150000X-0.825000X0*%
%ADD31RoundRect,0.150000X-0.150000X0.512500X-0.150000X-0.512500X0.150000X-0.512500X0.150000X0.512500X0*%
%ADD32RoundRect,0.250000X-0.650000X0.325000X-0.650000X-0.325000X0.650000X-0.325000X0.650000X0.325000X0*%
%ADD33RoundRect,0.375000X0.375000X-0.625000X0.375000X0.625000X-0.375000X0.625000X-0.375000X-0.625000X0*%
%ADD34RoundRect,0.500000X1.400000X-0.500000X1.400000X0.500000X-1.400000X0.500000X-1.400000X-0.500000X0*%
%ADD35C,2.100000*%
%ADD36C,1.750000*%
%ADD37R,1.750000X0.700000*%
%ADD38R,1.000000X1.450000*%
%ADD39R,1.550000X1.000000*%
%ADD40R,1.500000X0.800000*%
%ADD41R,1.500000X1.300000*%
%ADD42R,1.500000X1.500000*%
%ADD43R,1.400000X0.800000*%
%ADD44RoundRect,0.150000X-0.150000X0.837500X-0.150000X-0.837500X0.150000X-0.837500X0.150000X0.837500X0*%
%ADD45C,3.200000*%
%ADD46RoundRect,0.250000X-1.025000X0.787500X-1.025000X-0.787500X1.025000X-0.787500X1.025000X0.787500X0*%
%ADD47R,1.510000X0.458000*%
%ADD48R,1.600000X2.000000*%
%ADD49O,1.600000X2.000000*%
%ADD50C,2.000000*%
%ADD51RoundRect,0.150000X0.150000X-0.837500X0.150000X0.837500X-0.150000X0.837500X-0.150000X-0.837500X0*%
%ADD52RoundRect,0.250000X-0.325000X-0.650000X0.325000X-0.650000X0.325000X0.650000X-0.325000X0.650000X0*%
%ADD53RoundRect,0.250000X0.650000X-0.325000X0.650000X0.325000X-0.650000X0.325000X-0.650000X-0.325000X0*%
%ADD54RoundRect,0.250000X0.900000X-1.000000X0.900000X1.000000X-0.900000X1.000000X-0.900000X-1.000000X0*%
G04 APERTURE END LIST*
D10*
%TO.C,C2*%
X88597000Y-141224000D03*
X85647000Y-141224000D03*
%TD*%
D11*
%TO.C,J8*%
X57482000Y-69174995D03*
D12*
X54942000Y-69174995D03*
X57482000Y-66634995D03*
X54942000Y-66634995D03*
%TD*%
D13*
%TO.C,TP9*%
X89281000Y-130175000D03*
%TD*%
D11*
%TO.C,J1*%
X92367000Y-53000000D03*
D12*
X92367000Y-55540000D03*
X94907000Y-53000000D03*
X94907000Y-55540000D03*
X97447000Y-53000000D03*
X97447000Y-55540000D03*
X99987000Y-53000000D03*
X99987000Y-55540000D03*
X102527000Y-53000000D03*
X102527000Y-55540000D03*
X105067000Y-53000000D03*
X105067000Y-55540000D03*
X107607000Y-53000000D03*
X107607000Y-55540000D03*
X110147000Y-53000000D03*
X110147000Y-55540000D03*
X112687000Y-53000000D03*
X112687000Y-55540000D03*
X115227000Y-53000000D03*
X115227000Y-55540000D03*
X117767000Y-53000000D03*
X117767000Y-55540000D03*
X120307000Y-53000000D03*
X120307000Y-55540000D03*
X122847000Y-53000000D03*
X122847000Y-55540000D03*
X125387000Y-53000000D03*
X125387000Y-55540000D03*
X127927000Y-53000000D03*
X127927000Y-55540000D03*
X130467000Y-53000000D03*
X130467000Y-55540000D03*
X133007000Y-53000000D03*
X133007000Y-55540000D03*
X135547000Y-53000000D03*
X135547000Y-55540000D03*
X138087000Y-53000000D03*
X138087000Y-55540000D03*
X140627000Y-53000000D03*
X140627000Y-55540000D03*
%TD*%
D14*
%TO.C,U1*%
X102266000Y-121496995D03*
X100996000Y-121496995D03*
X99726000Y-121496995D03*
X98456000Y-121496995D03*
X97186000Y-121496995D03*
X95916000Y-121496995D03*
X94646000Y-121496995D03*
X94646000Y-126446995D03*
X95916000Y-126446995D03*
X97186000Y-126446995D03*
X98456000Y-126446995D03*
X99726000Y-126446995D03*
X100996000Y-126446995D03*
X102266000Y-126446995D03*
%TD*%
D15*
%TO.C,J7*%
X67437000Y-86233000D03*
D16*
X67437000Y-88773000D03*
X67437000Y-91313000D03*
X67437000Y-93853000D03*
X67437000Y-96393000D03*
X67437000Y-98933000D03*
X67437000Y-101473000D03*
X67437000Y-104013000D03*
X67437000Y-106553000D03*
X67437000Y-109093000D03*
X67437000Y-111633000D03*
X67437000Y-114173000D03*
X67437000Y-116713000D03*
X67437000Y-119253000D03*
X67437000Y-121793000D03*
X67437000Y-124333000D03*
X67437000Y-126873000D03*
X67437000Y-129413000D03*
X67437000Y-131953000D03*
X67437000Y-134493000D03*
X82677000Y-134493000D03*
X82677000Y-131953000D03*
X82677000Y-129413000D03*
X82677000Y-126873000D03*
X82677000Y-124333000D03*
X82677000Y-121793000D03*
X82677000Y-119253000D03*
X82677000Y-116713000D03*
X82677000Y-114173000D03*
X82677000Y-111633000D03*
X82677000Y-109093000D03*
X82677000Y-106553000D03*
X82677000Y-104013000D03*
X82677000Y-101473000D03*
X82677000Y-98933000D03*
X82677000Y-96393000D03*
X82677000Y-93853000D03*
X82677000Y-91313000D03*
X82677000Y-88773000D03*
X82677000Y-86233000D03*
%TD*%
D17*
%TO.C,C15*%
X76460000Y-59466495D03*
X76460000Y-53241495D03*
%TD*%
D13*
%TO.C,TP12*%
X95154000Y-64470995D03*
%TD*%
D18*
%TO.C,D7*%
X134940000Y-79169500D03*
X136840000Y-79169500D03*
X135890000Y-77294500D03*
%TD*%
D19*
%TO.C,J6*%
X54310000Y-75205995D03*
X54310000Y-75855995D03*
X54310000Y-76505995D03*
X54310000Y-77155995D03*
X54310000Y-77805995D03*
D20*
X51460000Y-72755995D03*
D21*
X51460000Y-75355995D03*
X51460000Y-77655995D03*
D20*
X51460000Y-80255995D03*
%TD*%
D22*
%TO.C,U6*%
X83885000Y-68153995D03*
X83885000Y-69103995D03*
X83885000Y-70053995D03*
X86160000Y-70053995D03*
X86160000Y-68153995D03*
%TD*%
D11*
%TO.C,TP2*%
X140627000Y-141000000D03*
D12*
X140627000Y-138460000D03*
X138087000Y-141000000D03*
X138087000Y-138460000D03*
X135547000Y-141000000D03*
X135547000Y-138460000D03*
X133007000Y-141000000D03*
X133007000Y-138460000D03*
X130467000Y-141000000D03*
X130467000Y-138460000D03*
X127927000Y-141000000D03*
X127927000Y-138460000D03*
X125387000Y-141000000D03*
X125387000Y-138460000D03*
X122847000Y-141000000D03*
X122847000Y-138460000D03*
X120307000Y-141000000D03*
X120307000Y-138460000D03*
X117767000Y-141000000D03*
X117767000Y-138460000D03*
X115227000Y-141000000D03*
X115227000Y-138460000D03*
X112687000Y-141000000D03*
X112687000Y-138460000D03*
X110147000Y-141000000D03*
X110147000Y-138460000D03*
X107607000Y-141000000D03*
X107607000Y-138460000D03*
X105067000Y-141000000D03*
X105067000Y-138460000D03*
X102527000Y-141000000D03*
X102527000Y-138460000D03*
X99987000Y-141000000D03*
X99987000Y-138460000D03*
X97447000Y-141000000D03*
X97447000Y-138460000D03*
X94907000Y-141000000D03*
X94907000Y-138460000D03*
X92367000Y-141000000D03*
X92367000Y-138460000D03*
%TD*%
D23*
%TO.C,J5*%
X61200000Y-54600000D03*
D24*
X66200000Y-54600000D03*
%TD*%
D25*
%TO.C,D3*%
X144907000Y-78110000D03*
X144907000Y-80010000D03*
X146782000Y-79060000D03*
%TD*%
D26*
%TO.C,RN4*%
X138049000Y-134955995D03*
D27*
X135509000Y-134955995D03*
X132969000Y-134955995D03*
X130429000Y-134955995D03*
X127889000Y-134955995D03*
X125349000Y-134955995D03*
X122809000Y-134955995D03*
X120269000Y-134955995D03*
X117729000Y-134955995D03*
%TD*%
D11*
%TO.C,J3*%
X52832000Y-127635000D03*
D12*
X52832000Y-130175000D03*
X52832000Y-132715000D03*
%TD*%
D10*
%TO.C,C14*%
X75743000Y-78253995D03*
X72793000Y-78253995D03*
%TD*%
D28*
%TO.C,JP5*%
X93200000Y-74800000D03*
D29*
X91900000Y-74800000D03*
%TD*%
D13*
%TO.C,TP3*%
X98202000Y-64470995D03*
%TD*%
%TO.C,TP8*%
X86741000Y-130175000D03*
%TD*%
D26*
%TO.C,RN3*%
X136779000Y-131572000D03*
D27*
X134239000Y-131572000D03*
X131699000Y-131572000D03*
X129159000Y-131572000D03*
X126619000Y-131572000D03*
X124079000Y-131572000D03*
X121539000Y-131572000D03*
X118999000Y-131572000D03*
X116459000Y-131572000D03*
%TD*%
D30*
%TO.C,U3*%
X90709000Y-71822795D03*
X91979000Y-71822795D03*
X93249000Y-71822795D03*
X94519000Y-71822795D03*
X95789000Y-71822795D03*
X97059000Y-71822795D03*
X98329000Y-71822795D03*
X98329000Y-66872795D03*
X97059000Y-66872795D03*
X95789000Y-66872795D03*
X94519000Y-66872795D03*
X93249000Y-66872795D03*
X91979000Y-66872795D03*
X90709000Y-66872795D03*
%TD*%
D18*
%TO.C,D9*%
X127929600Y-79169500D03*
X129829600Y-79169500D03*
X128879600Y-77294500D03*
%TD*%
D31*
%TO.C,U10*%
X117409000Y-111270995D03*
X116459000Y-111270995D03*
X115509000Y-111270995D03*
X115509000Y-113545995D03*
X117409000Y-113545995D03*
%TD*%
D32*
%TO.C,C6*%
X61880000Y-74806995D03*
X61880000Y-77756995D03*
%TD*%
D33*
%TO.C,U2*%
X71868000Y-75403995D03*
X74168000Y-75403995D03*
D34*
X74168000Y-69103995D03*
D33*
X76468000Y-75403995D03*
%TD*%
D13*
%TO.C,TP6*%
X93630000Y-64470995D03*
%TD*%
D35*
%TO.C,SW2*%
X54811500Y-118206000D03*
X54811500Y-111196000D03*
D36*
X52321500Y-116956000D03*
X52321500Y-112456000D03*
%TD*%
D13*
%TO.C,TP13*%
X96676000Y-64470995D03*
%TD*%
D11*
%TO.C,J2*%
X140627000Y-147000000D03*
D12*
X140627000Y-144460000D03*
X138087000Y-147000000D03*
X138087000Y-144460000D03*
X135547000Y-147000000D03*
X135547000Y-144460000D03*
X133007000Y-147000000D03*
X133007000Y-144460000D03*
X130467000Y-147000000D03*
X130467000Y-144460000D03*
X127927000Y-147000000D03*
X127927000Y-144460000D03*
X125387000Y-147000000D03*
X125387000Y-144460000D03*
X122847000Y-147000000D03*
X122847000Y-144460000D03*
X120307000Y-147000000D03*
X120307000Y-144460000D03*
X117767000Y-147000000D03*
X117767000Y-144460000D03*
X115227000Y-147000000D03*
X115227000Y-144460000D03*
X112687000Y-147000000D03*
X112687000Y-144460000D03*
X110147000Y-147000000D03*
X110147000Y-144460000D03*
X107607000Y-147000000D03*
X107607000Y-144460000D03*
X105067000Y-147000000D03*
X105067000Y-144460000D03*
X102527000Y-147000000D03*
X102527000Y-144460000D03*
X99987000Y-147000000D03*
X99987000Y-144460000D03*
X97447000Y-147000000D03*
X97447000Y-144460000D03*
X94907000Y-147000000D03*
X94907000Y-144460000D03*
X92367000Y-147000000D03*
X92367000Y-144460000D03*
%TD*%
D18*
%TO.C,D8*%
X131434800Y-79220300D03*
X133334800Y-79220300D03*
X132384800Y-77345300D03*
%TD*%
D11*
%TO.C,J9*%
X144460000Y-124500000D03*
D12*
X147000000Y-124500000D03*
X144460000Y-127040000D03*
X147000000Y-127040000D03*
X144460000Y-129580000D03*
X147000000Y-129580000D03*
X144460000Y-132120000D03*
X147000000Y-132120000D03*
X144460000Y-134660000D03*
X147000000Y-134660000D03*
%TD*%
D37*
%TO.C,J10*%
X52969000Y-94762000D03*
X52969000Y-93662000D03*
X52969000Y-92562000D03*
X52969000Y-91462000D03*
X52969000Y-90362000D03*
X52969000Y-89262000D03*
X52969000Y-88162000D03*
X52969000Y-87062000D03*
D38*
X62194000Y-85937000D03*
D39*
X63769000Y-97162000D03*
D40*
X60694000Y-85612000D03*
D41*
X53094000Y-85862000D03*
D42*
X53094000Y-97212000D03*
D43*
X61344000Y-97562000D03*
%TD*%
D25*
%TO.C,D4*%
X144221200Y-81584800D03*
X144221200Y-83484800D03*
X146096200Y-82534800D03*
%TD*%
D18*
%TO.C,D6*%
X138648400Y-79141800D03*
X140548400Y-79141800D03*
X139598400Y-77266800D03*
%TD*%
D13*
%TO.C,TP11*%
X110744000Y-131318000D03*
%TD*%
D44*
%TO.C,U16*%
X124460000Y-120088495D03*
X123190000Y-120088495D03*
X121920000Y-120088495D03*
X120650000Y-120088495D03*
X119380000Y-120088495D03*
X118110000Y-120088495D03*
X116840000Y-120088495D03*
X115570000Y-120088495D03*
X114300000Y-120088495D03*
X113030000Y-120088495D03*
X113030000Y-127013495D03*
X114300000Y-127013495D03*
X115570000Y-127013495D03*
X116840000Y-127013495D03*
X118110000Y-127013495D03*
X119380000Y-127013495D03*
X120650000Y-127013495D03*
X121920000Y-127013495D03*
X123190000Y-127013495D03*
X124460000Y-127013495D03*
%TD*%
D45*
%TO.C,H3*%
X146000000Y-54000000D03*
%TD*%
D13*
%TO.C,TP4*%
X90582000Y-64470995D03*
%TD*%
%TO.C,TP14*%
X56007000Y-101473000D03*
%TD*%
D10*
%TO.C,C11*%
X125585000Y-90170000D03*
X122635000Y-90170000D03*
%TD*%
D46*
%TO.C,C4*%
X58070000Y-73423495D03*
X58070000Y-79648495D03*
%TD*%
D47*
%TO.C,U11*%
X137576000Y-113449495D03*
X137576000Y-112649495D03*
X137576000Y-111849495D03*
X137576000Y-111049495D03*
X137576000Y-110249495D03*
X137576000Y-109449495D03*
X137576000Y-108649495D03*
X137576000Y-107849495D03*
X137576000Y-107049495D03*
X137576000Y-106249495D03*
X137576000Y-105449495D03*
X137576000Y-104649495D03*
X137576000Y-103849495D03*
X137576000Y-103049495D03*
X137576000Y-102249495D03*
X137576000Y-101449495D03*
X137576000Y-100649495D03*
X137576000Y-99849495D03*
X137576000Y-99049495D03*
X137576000Y-98249495D03*
X137576000Y-97449495D03*
X137576000Y-96649495D03*
X137576000Y-95849495D03*
X137576000Y-95049495D03*
X137576000Y-94249495D03*
X137576000Y-93449495D03*
X137576000Y-92649495D03*
X126076000Y-92649495D03*
X126076000Y-93449495D03*
X126076000Y-94249495D03*
X126076000Y-95049495D03*
X126076000Y-95849495D03*
X126076000Y-96649495D03*
X126076000Y-97449495D03*
X126076000Y-98249495D03*
X126076000Y-99049495D03*
X126076000Y-99849495D03*
X126076000Y-100649495D03*
X126076000Y-101449495D03*
X126076000Y-102249495D03*
X126076000Y-103049495D03*
X126076000Y-103849495D03*
X126076000Y-104649495D03*
X126076000Y-105449495D03*
X126076000Y-106249495D03*
X126076000Y-107049495D03*
X126076000Y-107849495D03*
X126076000Y-108649495D03*
X126076000Y-109449495D03*
X126076000Y-110249495D03*
X126076000Y-111049495D03*
X126076000Y-111849495D03*
X126076000Y-112649495D03*
X126076000Y-113449495D03*
%TD*%
D48*
%TO.C,BT1*%
X105918000Y-117776000D03*
X105918000Y-107776000D03*
D49*
X90418000Y-112776000D03*
%TD*%
D50*
%TO.C,SW1*%
X59220000Y-61853995D03*
X61760000Y-61853995D03*
X64300000Y-61853995D03*
X54140000Y-61853995D03*
%TD*%
D11*
%TO.C,TP1*%
X92367000Y-59000000D03*
D12*
X92367000Y-61540000D03*
X94907000Y-59000000D03*
X94907000Y-61540000D03*
X97447000Y-59000000D03*
X97447000Y-61540000D03*
X99987000Y-59000000D03*
X99987000Y-61540000D03*
X102527000Y-59000000D03*
X102527000Y-61540000D03*
X105067000Y-59000000D03*
X105067000Y-61540000D03*
X107607000Y-59000000D03*
X107607000Y-61540000D03*
X110147000Y-59000000D03*
X110147000Y-61540000D03*
X112687000Y-59000000D03*
X112687000Y-61540000D03*
X115227000Y-59000000D03*
X115227000Y-61540000D03*
X117767000Y-59000000D03*
X117767000Y-61540000D03*
X120307000Y-59000000D03*
X120307000Y-61540000D03*
X122847000Y-59000000D03*
X122847000Y-61540000D03*
X125387000Y-59000000D03*
X125387000Y-61540000D03*
X127927000Y-59000000D03*
X127927000Y-61540000D03*
X130467000Y-59000000D03*
X130467000Y-61540000D03*
X133007000Y-59000000D03*
X133007000Y-61540000D03*
X135547000Y-59000000D03*
X135547000Y-61540000D03*
X138087000Y-59000000D03*
X138087000Y-61540000D03*
X140627000Y-59000000D03*
X140627000Y-61540000D03*
%TD*%
D51*
%TO.C,U19*%
X100270000Y-73153995D03*
X101540000Y-73153995D03*
X102810000Y-73153995D03*
X104080000Y-73153995D03*
X105350000Y-73153995D03*
X106620000Y-73153995D03*
X107890000Y-73153995D03*
X109160000Y-73153995D03*
X110430000Y-73153995D03*
X111700000Y-73153995D03*
X111700000Y-66228995D03*
X110430000Y-66228995D03*
X109160000Y-66228995D03*
X107890000Y-66228995D03*
X106620000Y-66228995D03*
X105350000Y-66228995D03*
X104080000Y-66228995D03*
X102810000Y-66228995D03*
X101540000Y-66228995D03*
X100270000Y-66228995D03*
%TD*%
D18*
%TO.C,D10*%
X124424400Y-79169500D03*
X126324400Y-79169500D03*
X125374400Y-77294500D03*
%TD*%
D52*
%TO.C,C16*%
X142416000Y-121285000D03*
X145366000Y-121285000D03*
%TD*%
D45*
%TO.C,H1*%
X54000000Y-54000000D03*
%TD*%
D53*
%TO.C,C1*%
X88296000Y-55150995D03*
X88296000Y-52200995D03*
%TD*%
D45*
%TO.C,H2*%
X54000000Y-146000000D03*
%TD*%
D18*
%TO.C,D11*%
X120868400Y-79192600D03*
X122768400Y-79192600D03*
X121818400Y-77317600D03*
%TD*%
D53*
%TO.C,C8*%
X92233000Y-125176995D03*
X92233000Y-122226995D03*
%TD*%
D50*
%TO.C,F1*%
X61372000Y-67137995D03*
X66452000Y-67147995D03*
%TD*%
D44*
%TO.C,U15*%
X137668000Y-120088495D03*
X136398000Y-120088495D03*
X135128000Y-120088495D03*
X133858000Y-120088495D03*
X132588000Y-120088495D03*
X131318000Y-120088495D03*
X130048000Y-120088495D03*
X128778000Y-120088495D03*
X127508000Y-120088495D03*
X126238000Y-120088495D03*
X126238000Y-127013495D03*
X127508000Y-127013495D03*
X128778000Y-127013495D03*
X130048000Y-127013495D03*
X131318000Y-127013495D03*
X132588000Y-127013495D03*
X133858000Y-127013495D03*
X135128000Y-127013495D03*
X136398000Y-127013495D03*
X137668000Y-127013495D03*
%TD*%
D32*
%TO.C,C7*%
X88702400Y-67669595D03*
X88702400Y-70619595D03*
%TD*%
D25*
%TO.C,D5*%
X143006600Y-85156000D03*
X143006600Y-87056000D03*
X144881600Y-86106000D03*
%TD*%
D13*
%TO.C,TP5*%
X92106000Y-64470995D03*
%TD*%
D25*
%TO.C,D2*%
X145415000Y-74300000D03*
X145415000Y-76200000D03*
X147290000Y-75250000D03*
%TD*%
D54*
%TO.C,D1*%
X71532000Y-58247995D03*
X71532000Y-53947995D03*
%TD*%
D45*
%TO.C,H4*%
X146000000Y-146000000D03*
%TD*%
D28*
%TO.C,JP6*%
X96600000Y-74800000D03*
D29*
X95300000Y-74800000D03*
%TD*%
D13*
%TO.C,TP7*%
X86300000Y-72000000D03*
%TD*%
%TO.C,TP10*%
X85600000Y-105400000D03*
%TD*%
G36*
X79097419Y-61569027D02*
G01*
X79143177Y-61621828D01*
X79154386Y-61673373D01*
X79152026Y-73110021D01*
X79132328Y-73177056D01*
X79079514Y-73222800D01*
X79028026Y-73233995D01*
X69116000Y-73233995D01*
X69048961Y-73214310D01*
X69003206Y-73161506D01*
X68992000Y-73109995D01*
X68992000Y-61673986D01*
X69011685Y-61606947D01*
X69064489Y-61561192D01*
X69115992Y-61549986D01*
X79030378Y-61549347D01*
X79097419Y-61569027D01*
G37*
M02*
