M48
; DRILL file {KiCad 8.0.5-8.0.5-0~ubuntu22.04.1} date 2024-10-23T07:47:22+0200
; FORMAT={-:-/ absolute / inch / decimal}
; #@! TF.CreationDate,2024-10-23T07:47:22+02:00
; #@! TF.GenerationSoftware,Kicad,Pcbnew,8.0.5-8.0.5-0~ubuntu22.04.1
; #@! TF.FileFunction,MixedPlating,1,2
FMAT,2
INCH
; #@! TA.AperFunction,Plated,PTH,ViaDrill
T1C0.0157
; #@! TA.AperFunction,Plated,PTH,ComponentDrill
T2C0.0197
; #@! TA.AperFunction,Plated,PTH,ComponentDrill
T3C0.0315
; #@! TA.AperFunction,Plated,PTH,ComponentDrill
T4C0.0335
; #@! TA.AperFunction,Plated,PTH,ComponentDrill
T5C0.0390
; #@! TA.AperFunction,Plated,PTH,ComponentDrill
T6C0.0394
; #@! TA.AperFunction,Plated,PTH,ComponentDrill
T7C0.0433
; #@! TA.AperFunction,Plated,PTH,ComponentDrill
T8C0.0512
; #@! TA.AperFunction,NonPlated,NPTH,ComponentDrill
T9C0.1260
%
G90
G05
T1
X2.09Y-3.8272
X2.09Y-4.02
X2.09Y-4.24
X2.0904Y-3.3804
X2.12Y-4.81
X2.195Y-3.605
X2.281Y-3.141
X2.34Y-4.09
X2.34Y-4.7
X2.35Y-5.05
X2.5Y-5.49
X2.515Y-5.225
X2.54Y-3.1358
X2.63Y-3.1358
X2.65Y-5.66
X2.72Y-3.1358
X2.75Y-2.0
X2.7562Y-2.5332
X2.7562Y-2.5832
X2.7562Y-2.6332
X2.7562Y-2.6832
X2.7562Y-2.7332
X2.7562Y-2.7832
X2.7562Y-2.8332
X2.788Y-4.352
X2.79Y-4.04
X2.825Y-2.975
X2.83Y-5.2
X2.84Y-4.9
X2.84Y-5.47
X2.85Y-4.62
X2.85Y-4.8
X2.8562Y-2.5332
X2.8562Y-2.5832
X2.8562Y-2.6332
X2.8575Y-3.0725
X2.88Y-3.42
X2.88Y-3.67
X2.88Y-5.0
X2.9Y-3.95
X2.92Y-2.5332
X2.92Y-2.5832
X2.92Y-2.6332
X2.92Y-2.6932
X2.92Y-2.9377
X2.958Y-4.188
X2.9812Y-2.5332
X2.9812Y-2.5832
X2.9812Y-2.6332
X2.99Y-5.05
X3.01Y-4.62
X3.01Y-4.8
X3.0118Y-2.2835
X3.02Y-4.9
X3.0562Y-2.5332
X3.0562Y-2.5832
X3.0562Y-2.6332
X3.0562Y-2.6832
X3.0562Y-2.7332
X3.0562Y-2.7832
X3.0562Y-2.8332
X3.065Y-5.2
X3.08Y-5.47
X3.09Y-2.0061
X3.092Y-3.324
X3.096Y-3.386
X3.1095Y-5.0936
X3.1473Y-5.02
X3.168Y-3.45
X3.1732Y-3.545
X3.18Y-2.11
X3.235Y-3.115
X3.24Y-3.06
X3.2559Y-2.5315
X3.2559Y-2.6181
X3.26Y-2.0061
X3.2818Y-3.025
X3.29Y-3.3
X3.3071Y-2.4567
X3.33Y-2.11
X3.35Y-3.23
X3.36Y-2.51
X3.36Y-3.47
X3.36Y-3.65
X3.36Y-3.846
X3.36Y-3.934
X3.365Y-4.595
X3.366Y-4.04
X3.4Y-4.68
X3.4125Y-3.0675
X3.45Y-4.86
X3.455Y-4.79
X3.48Y-4.54
X3.4922Y-2.6642
X3.4922Y-2.7803
X3.5Y-3.795
X3.515Y-3.85
X3.516Y-4.052
X3.535Y-3.13
X3.56Y-4.008
X3.5891Y-3.8741
X3.6Y-3.96
X3.605Y-3.325
X3.6312Y-4.8121
X3.6315Y-4.9291
X3.634Y-5.042
X3.6386Y-3.2328
X3.6463Y-5.1332
X3.6463Y-5.1832
X3.682Y-3.474
X3.689Y-4.5039
X3.7084Y-3.0018
X3.71Y-3.654
X3.7212Y-2.8277
X3.7762Y-4.9782
X3.8048Y-3.7682
X3.8048Y-3.8182
X3.8048Y-3.9182
X3.8048Y-3.9682
X3.8063Y-3.2382
X3.8063Y-3.2882
X3.8063Y-3.3382
X3.8063Y-3.3882
X3.8063Y-3.4382
X3.8262Y-4.7833
X3.8262Y-4.9782
X3.8402Y-4.4154
X3.842Y-5.282
X3.8662Y-2.9032
X3.8962Y-2.7282
X3.9094Y-2.9882
X3.9162Y-3.3082
X3.9262Y-4.9782
X3.9606Y-2.7165
X3.9724Y-4.1582
X3.98Y-5.28
X4.0076Y-3.7182
X4.02Y-3.65
X4.0262Y-4.7833
X4.0262Y-4.9782
X4.0276Y-2.8
X4.0473Y-4.1141
X4.0795Y-3.51
X4.08Y-3.13
X4.08Y-3.77
X4.08Y-5.28
X4.1089Y-3.7241
X4.11Y-4.85
X4.11Y-4.99
X4.1262Y-3.88
X4.158Y-3.928
X4.1617Y-3.265
X4.1662Y-2.9958
X4.185Y-4.12
X4.185Y-3.325
X4.198Y-3.96
X4.2Y-5.2
X4.2091Y-3.3882
X4.23Y-5.26
X4.235Y-3.44
X4.236Y-3.996
X4.2517Y-3.5997
X4.2559Y-4.7874
X4.26Y-4.465
X4.2942Y-3.6003
X4.3191Y-4.1236
X4.331Y-3.628
X4.332Y-4.276
X4.3342Y-4.4132
X4.3342Y-4.5294
X4.3342Y-4.755
X4.335Y-3.095
X4.342Y-5.258
X4.376Y-3.664
X4.378Y-4.124
X4.3831Y-3.7224
X4.3942Y-3.2095
X4.395Y-3.08
X4.3976Y-2.8801
X4.4Y-3.015
X4.4348Y-4.2134
X4.45Y-4.7279
X4.47Y-2.505
X4.472Y-5.182
X4.475Y-3.215
X4.478Y-4.274
X4.5Y-4.5733
X4.5Y-5.0005
X4.5133Y-3.2379
X4.5212Y-2.601
X4.526Y-2.986
X4.5312Y-3.7432
X4.55Y-4.255
X4.55Y-4.4705
X4.55Y-4.5733
X4.5601Y-3.2365
X4.5662Y-4.0105
X4.57Y-2.795
X4.5712Y-2.601
X4.572Y-2.978
X4.598Y-2.9295
X4.6Y-4.5733
X4.605Y-3.245
X4.605Y-4.225
X4.6212Y-2.601
X4.6224Y-4.4703
X4.6362Y-3.4782
X4.637Y-2.958
X4.65Y-4.5733
X4.6568Y-3.2628
X4.6712Y-2.601
X4.6712Y-2.7959
X4.6762Y-3.5032
X4.6933Y-3.2933
X4.6937Y-4.225
X4.6984Y-2.9564
X4.7Y-4.5733
X4.7212Y-2.601
X4.745Y-4.26
X4.75Y-4.3705
X4.75Y-4.5733
X4.7712Y-2.601
X4.7712Y-2.7982
X4.774Y-4.928
X4.8Y-4.5733
X4.8Y-4.3705
X4.8Y-4.4961
X4.806Y-2.97
X4.8184Y-2.7984
X4.8212Y-2.601
X4.8281Y-3.55
X4.855Y-4.575
X4.9Y-4.7279
X4.9Y-5.0005
X4.932Y-2.95
X4.9352Y-2.7959
X4.9365Y-2.5997
X4.9443Y-3.55
X4.9625Y-2.7325
X4.97Y-4.73
X4.9734Y-3.1169
X4.9852Y-2.601
X5.006Y-2.912
X5.02Y-4.0605
X5.02Y-4.5705
X5.035Y-4.175
X5.0352Y-2.601
X5.068Y-3.1792
X5.07Y-3.5165
X5.07Y-4.5705
X5.075Y-2.967
X5.0852Y-2.601
X5.102Y-3.386
X5.1092Y-3.9832
X5.12Y-4.5705
X5.132Y-3.192
X5.1352Y-2.601
X5.1663Y-4.155
X5.17Y-4.37
X5.17Y-4.5705
X5.1852Y-2.601
X5.186Y-3.194
X5.19Y-3.5165
X5.198Y-2.978
X5.2Y-3.73
X5.22Y-4.5705
X5.2287Y-3.8637
X5.2352Y-2.601
X5.262Y-3.2
X5.27Y-4.5705
X5.3Y-4.45
X5.31Y-3.5165
X5.315Y-3.8755
X5.316Y-2.98
X5.32Y-3.2
X5.32Y-4.5705
X5.324Y-3.38
X5.34Y-3.9527
X5.3502Y-2.6006
X5.3502Y-2.7955
X5.39Y-3.206
X5.4002Y-2.6006
X5.4002Y-2.7955
X5.42Y-4.7279
X5.42Y-5.0005
X5.429Y-2.975
X5.435Y-2.885
X5.438Y-3.208
X5.4502Y-2.6006
X5.4512Y-2.7932
X5.47Y-3.52
X5.4992Y-4.0232
X5.5Y-3.255
X5.515Y-2.885
X5.538Y-3.326
X5.555Y-2.935
X5.5992Y-4.0532
X5.605Y-4.375
X5.6069Y-4.775
X5.6302Y-3.4274
X5.6302Y-3.3526
X5.635Y-3.935
X5.6417Y-3.5028
X5.675Y-2.435
X5.6776Y-3.6996
X5.678Y-3.2868
X5.678Y-3.212
X5.704Y-3.39
X5.705Y-3.15
X5.705Y-3.0752
X5.7059Y-3.6607
X5.7231Y-4.775
X5.725Y-2.9252
X5.725Y-3.0
X5.7364Y-3.6291
X5.7518Y-3.2494
X5.76Y-4.64
X5.7659Y-3.6002
X5.7788Y-3.1126
X5.78Y-4.13
X5.7937Y-2.6261
X5.7988Y-2.9626
X5.8Y-2.5
X5.8008Y-3.578
X5.845Y-2.29
T2
X2.205Y-3.995
X3.3701Y-4.1496
X3.3976Y-2.8346
X3.415Y-5.125
X3.515Y-5.125
X3.5662Y-2.5382
X3.6262Y-2.5382
X3.6862Y-2.5382
X3.7462Y-2.5382
X3.8061Y-2.5382
X3.8662Y-2.5382
X4.36Y-5.17
T3
X2.655Y-3.395
X2.655Y-3.495
X2.655Y-3.595
X2.655Y-3.695
X2.655Y-3.795
X2.655Y-3.895
X2.655Y-3.995
X2.655Y-4.095
X2.655Y-4.195
X2.655Y-4.295
X2.655Y-4.395
X2.655Y-4.495
X2.655Y-4.595
X2.655Y-4.695
X2.655Y-4.795
X2.655Y-4.895
X2.655Y-4.995
X2.655Y-5.095
X2.655Y-5.195
X2.655Y-5.295
X3.255Y-3.395
X3.255Y-3.495
X3.255Y-3.595
X3.255Y-3.695
X3.255Y-3.795
X3.255Y-3.895
X3.255Y-3.995
X3.255Y-4.095
X3.255Y-4.195
X3.255Y-4.295
X3.255Y-4.395
X3.255Y-4.495
X3.255Y-4.595
X3.255Y-4.695
X3.255Y-4.795
X3.255Y-4.895
X3.255Y-4.995
X3.255Y-5.095
X3.255Y-5.195
X3.255Y-5.295
X4.585Y-5.18
X4.635Y-5.3132
X4.685Y-5.18
X4.735Y-5.3132
X4.785Y-5.18
X4.835Y-5.3132
X4.885Y-5.18
X4.935Y-5.3132
X4.985Y-5.18
X5.035Y-5.3132
X5.085Y-5.18
X5.135Y-5.3132
X5.185Y-5.18
X5.235Y-5.3132
X5.285Y-5.18
X5.335Y-5.3132
X5.385Y-5.18
X5.435Y-5.3132
T4
X3.5598Y-4.44
X4.17Y-4.2431
X4.17Y-4.6369
T5
X2.0599Y-4.4274
X2.0599Y-4.6046
T6
X2.08Y-5.025
X2.08Y-5.125
X2.08Y-5.225
X2.1631Y-2.6234
X2.1631Y-2.7234
X2.2631Y-2.6234
X2.2631Y-2.7234
X2.4162Y-2.6432
X2.6162Y-2.6436
X3.6365Y-2.0866
X3.6365Y-2.1866
X3.6365Y-2.3228
X3.6365Y-2.4228
X3.6365Y-5.4512
X3.6365Y-5.5512
X3.6365Y-5.6874
X3.6365Y-5.7874
X3.7365Y-2.0866
X3.7365Y-2.1866
X3.7365Y-2.3228
X3.7365Y-2.4228
X3.7365Y-5.4512
X3.7365Y-5.5512
X3.7365Y-5.6874
X3.7365Y-5.7874
X3.8365Y-2.0866
X3.8365Y-2.1866
X3.8365Y-2.3228
X3.8365Y-2.4228
X3.8365Y-5.4512
X3.8365Y-5.5512
X3.8365Y-5.6874
X3.8365Y-5.7874
X3.9365Y-2.0866
X3.9365Y-2.1866
X3.9365Y-2.3228
X3.9365Y-2.4228
X3.9365Y-5.4512
X3.9365Y-5.5512
X3.9365Y-5.6874
X3.9365Y-5.7874
X4.0365Y-2.0866
X4.0365Y-2.1866
X4.0365Y-2.3228
X4.0365Y-2.4228
X4.0365Y-5.4512
X4.0365Y-5.5512
X4.0365Y-5.6874
X4.0365Y-5.7874
X4.1365Y-2.0866
X4.1365Y-2.1866
X4.1365Y-2.3228
X4.1365Y-2.4228
X4.1365Y-5.4512
X4.1365Y-5.5512
X4.1365Y-5.6874
X4.1365Y-5.7874
X4.2365Y-2.0866
X4.2365Y-2.1866
X4.2365Y-2.3228
X4.2365Y-2.4228
X4.2365Y-5.4512
X4.2365Y-5.5512
X4.2365Y-5.6874
X4.2365Y-5.7874
X4.3365Y-2.0866
X4.3365Y-2.1866
X4.3365Y-2.3228
X4.3365Y-2.4228
X4.3365Y-5.4512
X4.3365Y-5.5512
X4.3365Y-5.6874
X4.3365Y-5.7874
X4.4365Y-2.0866
X4.4365Y-2.1866
X4.4365Y-2.3228
X4.4365Y-2.4228
X4.4365Y-5.4512
X4.4365Y-5.5512
X4.4365Y-5.6874
X4.4365Y-5.7874
X4.5365Y-2.0866
X4.5365Y-2.1866
X4.5365Y-2.3228
X4.5365Y-2.4228
X4.5365Y-5.4512
X4.5365Y-5.5512
X4.5365Y-5.6874
X4.5365Y-5.7874
X4.6365Y-2.0866
X4.6365Y-2.1866
X4.6365Y-2.3228
X4.6365Y-2.4228
X4.6365Y-5.4512
X4.6365Y-5.5512
X4.6365Y-5.6874
X4.6365Y-5.7874
X4.7365Y-2.0866
X4.7365Y-2.1866
X4.7365Y-2.3228
X4.7365Y-2.4228
X4.7365Y-5.4512
X4.7365Y-5.5512
X4.7365Y-5.6874
X4.7365Y-5.7874
X4.8365Y-2.0866
X4.8365Y-2.1866
X4.8365Y-2.3228
X4.8365Y-2.4228
X4.8365Y-5.4512
X4.8365Y-5.5512
X4.8365Y-5.6874
X4.8365Y-5.7874
X4.9365Y-2.0866
X4.9365Y-2.1866
X4.9365Y-2.3228
X4.9365Y-2.4228
X4.9365Y-5.4512
X4.9365Y-5.5512
X4.9365Y-5.6874
X4.9365Y-5.7874
X5.0365Y-2.0866
X5.0365Y-2.1866
X5.0365Y-2.3228
X5.0365Y-2.4228
X5.0365Y-5.4512
X5.0365Y-5.5512
X5.0365Y-5.6874
X5.0365Y-5.7874
X5.1365Y-2.0866
X5.1365Y-2.1866
X5.1365Y-2.3228
X5.1365Y-2.4228
X5.1365Y-5.4512
X5.1365Y-5.5512
X5.1365Y-5.6874
X5.1365Y-5.7874
X5.2365Y-2.0866
X5.2365Y-2.1866
X5.2365Y-2.3228
X5.2365Y-2.4228
X5.2365Y-5.4512
X5.2365Y-5.5512
X5.2365Y-5.6874
X5.2365Y-5.7874
X5.3365Y-2.0866
X5.3365Y-2.1866
X5.3365Y-2.3228
X5.3365Y-2.4228
X5.3365Y-5.4512
X5.3365Y-5.5512
X5.3365Y-5.6874
X5.3365Y-5.7874
X5.4365Y-2.0866
X5.4365Y-2.1866
X5.4365Y-2.3228
X5.4365Y-2.4228
X5.4365Y-5.4512
X5.4365Y-5.5512
X5.4365Y-5.6874
X5.4365Y-5.7874
X5.5365Y-2.0866
X5.5365Y-2.1866
X5.5365Y-2.3228
X5.5365Y-2.4228
X5.5365Y-5.4512
X5.5365Y-5.5512
X5.5365Y-5.6874
X5.5365Y-5.7874
X5.6874Y-4.9016
X5.6874Y-5.0016
X5.6874Y-5.1016
X5.6874Y-5.2016
X5.6874Y-5.3016
X5.7874Y-4.9016
X5.7874Y-5.0016
X5.7874Y-5.1016
X5.7874Y-5.2016
X5.7874Y-5.3016
T7
X2.1315Y-2.4352
X2.3315Y-2.4352
X2.4315Y-2.4352
X2.5315Y-2.4352
T8
X2.1579Y-4.3778
X2.1579Y-4.6538
X2.4094Y-2.1496
X2.6063Y-2.1496
T9
X2.126Y-2.126
X2.126Y-5.748
X5.748Y-2.126
X5.748Y-5.748
M30
