%TF.GenerationSoftware,KiCad,Pcbnew,8.0.5-8.0.5-0~ubuntu22.04.1*%
%TF.CreationDate,2024-09-17T15:44:00+02:00*%
%TF.ProjectId,RamRomBoard,52616d52-6f6d-4426-9f61-72642e6b6963,rev?*%
%TF.SameCoordinates,Original*%
%TF.FileFunction,Legend,Bot*%
%TF.FilePolarity,Positive*%
%FSLAX46Y46*%
G04 Gerber Fmt 4.6, Leading zero omitted, Abs format (unit mm)*
G04 Created by KiCad (PCBNEW 8.0.5-8.0.5-0~ubuntu22.04.1) date 2024-09-17 15:44:00*
%MOMM*%
%LPD*%
G01*
G04 APERTURE LIST*
%ADD10C,0.150000*%
%ADD11C,0.120000*%
G04 APERTURE END LIST*
D10*
X103340819Y-114077905D02*
X104150342Y-114077905D01*
X104150342Y-114077905D02*
X104245580Y-114125524D01*
X104245580Y-114125524D02*
X104293200Y-114173143D01*
X104293200Y-114173143D02*
X104340819Y-114268381D01*
X104340819Y-114268381D02*
X104340819Y-114458857D01*
X104340819Y-114458857D02*
X104293200Y-114554095D01*
X104293200Y-114554095D02*
X104245580Y-114601714D01*
X104245580Y-114601714D02*
X104150342Y-114649333D01*
X104150342Y-114649333D02*
X103340819Y-114649333D01*
X103436057Y-115077905D02*
X103388438Y-115125524D01*
X103388438Y-115125524D02*
X103340819Y-115220762D01*
X103340819Y-115220762D02*
X103340819Y-115458857D01*
X103340819Y-115458857D02*
X103388438Y-115554095D01*
X103388438Y-115554095D02*
X103436057Y-115601714D01*
X103436057Y-115601714D02*
X103531295Y-115649333D01*
X103531295Y-115649333D02*
X103626533Y-115649333D01*
X103626533Y-115649333D02*
X103769390Y-115601714D01*
X103769390Y-115601714D02*
X104340819Y-115030286D01*
X104340819Y-115030286D02*
X104340819Y-115649333D01*
X103340819Y-116268381D02*
X103340819Y-116363619D01*
X103340819Y-116363619D02*
X103388438Y-116458857D01*
X103388438Y-116458857D02*
X103436057Y-116506476D01*
X103436057Y-116506476D02*
X103531295Y-116554095D01*
X103531295Y-116554095D02*
X103721771Y-116601714D01*
X103721771Y-116601714D02*
X103959866Y-116601714D01*
X103959866Y-116601714D02*
X104150342Y-116554095D01*
X104150342Y-116554095D02*
X104245580Y-116506476D01*
X104245580Y-116506476D02*
X104293200Y-116458857D01*
X104293200Y-116458857D02*
X104340819Y-116363619D01*
X104340819Y-116363619D02*
X104340819Y-116268381D01*
X104340819Y-116268381D02*
X104293200Y-116173143D01*
X104293200Y-116173143D02*
X104245580Y-116125524D01*
X104245580Y-116125524D02*
X104150342Y-116077905D01*
X104150342Y-116077905D02*
X103959866Y-116030286D01*
X103959866Y-116030286D02*
X103721771Y-116030286D01*
X103721771Y-116030286D02*
X103531295Y-116077905D01*
X103531295Y-116077905D02*
X103436057Y-116125524D01*
X103436057Y-116125524D02*
X103388438Y-116173143D01*
X103388438Y-116173143D02*
X103340819Y-116268381D01*
X136564319Y-114839905D02*
X137373842Y-114839905D01*
X137373842Y-114839905D02*
X137469080Y-114887524D01*
X137469080Y-114887524D02*
X137516700Y-114935143D01*
X137516700Y-114935143D02*
X137564319Y-115030381D01*
X137564319Y-115030381D02*
X137564319Y-115220857D01*
X137564319Y-115220857D02*
X137516700Y-115316095D01*
X137516700Y-115316095D02*
X137469080Y-115363714D01*
X137469080Y-115363714D02*
X137373842Y-115411333D01*
X137373842Y-115411333D02*
X136564319Y-115411333D01*
X137564319Y-116411333D02*
X137564319Y-115839905D01*
X137564319Y-116125619D02*
X136564319Y-116125619D01*
X136564319Y-116125619D02*
X136707176Y-116030381D01*
X136707176Y-116030381D02*
X136802414Y-115935143D01*
X136802414Y-115935143D02*
X136850033Y-115839905D01*
X136564319Y-116744667D02*
X136564319Y-117363714D01*
X136564319Y-117363714D02*
X136945271Y-117030381D01*
X136945271Y-117030381D02*
X136945271Y-117173238D01*
X136945271Y-117173238D02*
X136992890Y-117268476D01*
X136992890Y-117268476D02*
X137040509Y-117316095D01*
X137040509Y-117316095D02*
X137135747Y-117363714D01*
X137135747Y-117363714D02*
X137373842Y-117363714D01*
X137373842Y-117363714D02*
X137469080Y-117316095D01*
X137469080Y-117316095D02*
X137516700Y-117268476D01*
X137516700Y-117268476D02*
X137564319Y-117173238D01*
X137564319Y-117173238D02*
X137564319Y-116887524D01*
X137564319Y-116887524D02*
X137516700Y-116792286D01*
X137516700Y-116792286D02*
X137469080Y-116744667D01*
X99322019Y-129647490D02*
X100131542Y-129647490D01*
X100131542Y-129647490D02*
X100226780Y-129695109D01*
X100226780Y-129695109D02*
X100274400Y-129742728D01*
X100274400Y-129742728D02*
X100322019Y-129837966D01*
X100322019Y-129837966D02*
X100322019Y-130028442D01*
X100322019Y-130028442D02*
X100274400Y-130123680D01*
X100274400Y-130123680D02*
X100226780Y-130171299D01*
X100226780Y-130171299D02*
X100131542Y-130218918D01*
X100131542Y-130218918D02*
X99322019Y-130218918D01*
X99655352Y-131123680D02*
X100322019Y-131123680D01*
X99274400Y-130885585D02*
X99988685Y-130647490D01*
X99988685Y-130647490D02*
X99988685Y-131266537D01*
X149369580Y-68012328D02*
X149417200Y-67964709D01*
X149417200Y-67964709D02*
X149464819Y-67821852D01*
X149464819Y-67821852D02*
X149464819Y-67726614D01*
X149464819Y-67726614D02*
X149417200Y-67583757D01*
X149417200Y-67583757D02*
X149321961Y-67488519D01*
X149321961Y-67488519D02*
X149226723Y-67440900D01*
X149226723Y-67440900D02*
X149036247Y-67393281D01*
X149036247Y-67393281D02*
X148893390Y-67393281D01*
X148893390Y-67393281D02*
X148702914Y-67440900D01*
X148702914Y-67440900D02*
X148607676Y-67488519D01*
X148607676Y-67488519D02*
X148512438Y-67583757D01*
X148512438Y-67583757D02*
X148464819Y-67726614D01*
X148464819Y-67726614D02*
X148464819Y-67821852D01*
X148464819Y-67821852D02*
X148512438Y-67964709D01*
X148512438Y-67964709D02*
X148560057Y-68012328D01*
X148464819Y-68345662D02*
X148464819Y-68964709D01*
X148464819Y-68964709D02*
X148845771Y-68631376D01*
X148845771Y-68631376D02*
X148845771Y-68774233D01*
X148845771Y-68774233D02*
X148893390Y-68869471D01*
X148893390Y-68869471D02*
X148941009Y-68917090D01*
X148941009Y-68917090D02*
X149036247Y-68964709D01*
X149036247Y-68964709D02*
X149274342Y-68964709D01*
X149274342Y-68964709D02*
X149369580Y-68917090D01*
X149369580Y-68917090D02*
X149417200Y-68869471D01*
X149417200Y-68869471D02*
X149464819Y-68774233D01*
X149464819Y-68774233D02*
X149464819Y-68488519D01*
X149464819Y-68488519D02*
X149417200Y-68393281D01*
X149417200Y-68393281D02*
X149369580Y-68345662D01*
X110173580Y-68700328D02*
X110221200Y-68652709D01*
X110221200Y-68652709D02*
X110268819Y-68509852D01*
X110268819Y-68509852D02*
X110268819Y-68414614D01*
X110268819Y-68414614D02*
X110221200Y-68271757D01*
X110221200Y-68271757D02*
X110125961Y-68176519D01*
X110125961Y-68176519D02*
X110030723Y-68128900D01*
X110030723Y-68128900D02*
X109840247Y-68081281D01*
X109840247Y-68081281D02*
X109697390Y-68081281D01*
X109697390Y-68081281D02*
X109506914Y-68128900D01*
X109506914Y-68128900D02*
X109411676Y-68176519D01*
X109411676Y-68176519D02*
X109316438Y-68271757D01*
X109316438Y-68271757D02*
X109268819Y-68414614D01*
X109268819Y-68414614D02*
X109268819Y-68509852D01*
X109268819Y-68509852D02*
X109316438Y-68652709D01*
X109316438Y-68652709D02*
X109364057Y-68700328D01*
X109268819Y-69605090D02*
X109268819Y-69128900D01*
X109268819Y-69128900D02*
X109745009Y-69081281D01*
X109745009Y-69081281D02*
X109697390Y-69128900D01*
X109697390Y-69128900D02*
X109649771Y-69224138D01*
X109649771Y-69224138D02*
X109649771Y-69462233D01*
X109649771Y-69462233D02*
X109697390Y-69557471D01*
X109697390Y-69557471D02*
X109745009Y-69605090D01*
X109745009Y-69605090D02*
X109840247Y-69652709D01*
X109840247Y-69652709D02*
X110078342Y-69652709D01*
X110078342Y-69652709D02*
X110173580Y-69605090D01*
X110173580Y-69605090D02*
X110221200Y-69557471D01*
X110221200Y-69557471D02*
X110268819Y-69462233D01*
X110268819Y-69462233D02*
X110268819Y-69224138D01*
X110268819Y-69224138D02*
X110221200Y-69128900D01*
X110221200Y-69128900D02*
X110173580Y-69081281D01*
X104080819Y-129522328D02*
X103604628Y-129188995D01*
X104080819Y-128950900D02*
X103080819Y-128950900D01*
X103080819Y-128950900D02*
X103080819Y-129331852D01*
X103080819Y-129331852D02*
X103128438Y-129427090D01*
X103128438Y-129427090D02*
X103176057Y-129474709D01*
X103176057Y-129474709D02*
X103271295Y-129522328D01*
X103271295Y-129522328D02*
X103414152Y-129522328D01*
X103414152Y-129522328D02*
X103509390Y-129474709D01*
X103509390Y-129474709D02*
X103557009Y-129427090D01*
X103557009Y-129427090D02*
X103604628Y-129331852D01*
X103604628Y-129331852D02*
X103604628Y-128950900D01*
X103080819Y-129855662D02*
X103080819Y-130474709D01*
X103080819Y-130474709D02*
X103461771Y-130141376D01*
X103461771Y-130141376D02*
X103461771Y-130284233D01*
X103461771Y-130284233D02*
X103509390Y-130379471D01*
X103509390Y-130379471D02*
X103557009Y-130427090D01*
X103557009Y-130427090D02*
X103652247Y-130474709D01*
X103652247Y-130474709D02*
X103890342Y-130474709D01*
X103890342Y-130474709D02*
X103985580Y-130427090D01*
X103985580Y-130427090D02*
X104033200Y-130379471D01*
X104033200Y-130379471D02*
X104080819Y-130284233D01*
X104080819Y-130284233D02*
X104080819Y-129998519D01*
X104080819Y-129998519D02*
X104033200Y-129903281D01*
X104033200Y-129903281D02*
X103985580Y-129855662D01*
X122829819Y-112348400D02*
X123639342Y-112348400D01*
X123639342Y-112348400D02*
X123734580Y-112396019D01*
X123734580Y-112396019D02*
X123782200Y-112443638D01*
X123782200Y-112443638D02*
X123829819Y-112538876D01*
X123829819Y-112538876D02*
X123829819Y-112729352D01*
X123829819Y-112729352D02*
X123782200Y-112824590D01*
X123782200Y-112824590D02*
X123734580Y-112872209D01*
X123734580Y-112872209D02*
X123639342Y-112919828D01*
X123639342Y-112919828D02*
X122829819Y-112919828D01*
X123829819Y-113919828D02*
X123829819Y-113348400D01*
X123829819Y-113634114D02*
X122829819Y-113634114D01*
X122829819Y-113634114D02*
X122972676Y-113538876D01*
X122972676Y-113538876D02*
X123067914Y-113443638D01*
X123067914Y-113443638D02*
X123115533Y-113348400D01*
X123163152Y-114776971D02*
X123829819Y-114776971D01*
X122782200Y-114538876D02*
X123496485Y-114300781D01*
X123496485Y-114300781D02*
X123496485Y-114919828D01*
X100456094Y-92442814D02*
X100456094Y-93252337D01*
X100456094Y-93252337D02*
X100408475Y-93347575D01*
X100408475Y-93347575D02*
X100360856Y-93395195D01*
X100360856Y-93395195D02*
X100265618Y-93442814D01*
X100265618Y-93442814D02*
X100075142Y-93442814D01*
X100075142Y-93442814D02*
X99979904Y-93395195D01*
X99979904Y-93395195D02*
X99932285Y-93347575D01*
X99932285Y-93347575D02*
X99884666Y-93252337D01*
X99884666Y-93252337D02*
X99884666Y-92442814D01*
X98884666Y-93442814D02*
X99456094Y-93442814D01*
X99170380Y-93442814D02*
X99170380Y-92442814D01*
X99170380Y-92442814D02*
X99265618Y-92585671D01*
X99265618Y-92585671D02*
X99360856Y-92680909D01*
X99360856Y-92680909D02*
X99456094Y-92728528D01*
X98551332Y-92442814D02*
X97884666Y-92442814D01*
X97884666Y-92442814D02*
X98313237Y-93442814D01*
X103840704Y-67304014D02*
X103840704Y-68113537D01*
X103840704Y-68113537D02*
X103793085Y-68208775D01*
X103793085Y-68208775D02*
X103745466Y-68256395D01*
X103745466Y-68256395D02*
X103650228Y-68304014D01*
X103650228Y-68304014D02*
X103459752Y-68304014D01*
X103459752Y-68304014D02*
X103364514Y-68256395D01*
X103364514Y-68256395D02*
X103316895Y-68208775D01*
X103316895Y-68208775D02*
X103269276Y-68113537D01*
X103269276Y-68113537D02*
X103269276Y-67304014D01*
X102316895Y-67304014D02*
X102793085Y-67304014D01*
X102793085Y-67304014D02*
X102840704Y-67780204D01*
X102840704Y-67780204D02*
X102793085Y-67732585D01*
X102793085Y-67732585D02*
X102697847Y-67684966D01*
X102697847Y-67684966D02*
X102459752Y-67684966D01*
X102459752Y-67684966D02*
X102364514Y-67732585D01*
X102364514Y-67732585D02*
X102316895Y-67780204D01*
X102316895Y-67780204D02*
X102269276Y-67875442D01*
X102269276Y-67875442D02*
X102269276Y-68113537D01*
X102269276Y-68113537D02*
X102316895Y-68208775D01*
X102316895Y-68208775D02*
X102364514Y-68256395D01*
X102364514Y-68256395D02*
X102459752Y-68304014D01*
X102459752Y-68304014D02*
X102697847Y-68304014D01*
X102697847Y-68304014D02*
X102793085Y-68256395D01*
X102793085Y-68256395D02*
X102840704Y-68208775D01*
X99589666Y-107828575D02*
X99637285Y-107876195D01*
X99637285Y-107876195D02*
X99780142Y-107923814D01*
X99780142Y-107923814D02*
X99875380Y-107923814D01*
X99875380Y-107923814D02*
X100018237Y-107876195D01*
X100018237Y-107876195D02*
X100113475Y-107780956D01*
X100113475Y-107780956D02*
X100161094Y-107685718D01*
X100161094Y-107685718D02*
X100208713Y-107495242D01*
X100208713Y-107495242D02*
X100208713Y-107352385D01*
X100208713Y-107352385D02*
X100161094Y-107161909D01*
X100161094Y-107161909D02*
X100113475Y-107066671D01*
X100113475Y-107066671D02*
X100018237Y-106971433D01*
X100018237Y-106971433D02*
X99875380Y-106923814D01*
X99875380Y-106923814D02*
X99780142Y-106923814D01*
X99780142Y-106923814D02*
X99637285Y-106971433D01*
X99637285Y-106971433D02*
X99589666Y-107019052D01*
X99113475Y-107923814D02*
X98922999Y-107923814D01*
X98922999Y-107923814D02*
X98827761Y-107876195D01*
X98827761Y-107876195D02*
X98780142Y-107828575D01*
X98780142Y-107828575D02*
X98684904Y-107685718D01*
X98684904Y-107685718D02*
X98637285Y-107495242D01*
X98637285Y-107495242D02*
X98637285Y-107114290D01*
X98637285Y-107114290D02*
X98684904Y-107019052D01*
X98684904Y-107019052D02*
X98732523Y-106971433D01*
X98732523Y-106971433D02*
X98827761Y-106923814D01*
X98827761Y-106923814D02*
X99018237Y-106923814D01*
X99018237Y-106923814D02*
X99113475Y-106971433D01*
X99113475Y-106971433D02*
X99161094Y-107019052D01*
X99161094Y-107019052D02*
X99208713Y-107114290D01*
X99208713Y-107114290D02*
X99208713Y-107352385D01*
X99208713Y-107352385D02*
X99161094Y-107447623D01*
X99161094Y-107447623D02*
X99113475Y-107495242D01*
X99113475Y-107495242D02*
X99018237Y-107542861D01*
X99018237Y-107542861D02*
X98827761Y-107542861D01*
X98827761Y-107542861D02*
X98732523Y-107495242D01*
X98732523Y-107495242D02*
X98684904Y-107447623D01*
X98684904Y-107447623D02*
X98637285Y-107352385D01*
X115346029Y-63352338D02*
X115346029Y-64161861D01*
X115346029Y-64161861D02*
X115298410Y-64257099D01*
X115298410Y-64257099D02*
X115250791Y-64304719D01*
X115250791Y-64304719D02*
X115155553Y-64352338D01*
X115155553Y-64352338D02*
X114965077Y-64352338D01*
X114965077Y-64352338D02*
X114869839Y-64304719D01*
X114869839Y-64304719D02*
X114822220Y-64257099D01*
X114822220Y-64257099D02*
X114774601Y-64161861D01*
X114774601Y-64161861D02*
X114774601Y-63352338D01*
X114393648Y-63352338D02*
X113726982Y-63352338D01*
X113726982Y-63352338D02*
X114155553Y-64352338D01*
X65664166Y-71868814D02*
X65997499Y-71392623D01*
X66235594Y-71868814D02*
X66235594Y-70868814D01*
X66235594Y-70868814D02*
X65854642Y-70868814D01*
X65854642Y-70868814D02*
X65759404Y-70916433D01*
X65759404Y-70916433D02*
X65711785Y-70964052D01*
X65711785Y-70964052D02*
X65664166Y-71059290D01*
X65664166Y-71059290D02*
X65664166Y-71202147D01*
X65664166Y-71202147D02*
X65711785Y-71297385D01*
X65711785Y-71297385D02*
X65759404Y-71345004D01*
X65759404Y-71345004D02*
X65854642Y-71392623D01*
X65854642Y-71392623D02*
X66235594Y-71392623D01*
X64711785Y-71868814D02*
X65283213Y-71868814D01*
X64997499Y-71868814D02*
X64997499Y-70868814D01*
X64997499Y-70868814D02*
X65092737Y-71011671D01*
X65092737Y-71011671D02*
X65187975Y-71106909D01*
X65187975Y-71106909D02*
X65283213Y-71154528D01*
X110251866Y-64875014D02*
X110585199Y-64398823D01*
X110823294Y-64875014D02*
X110823294Y-63875014D01*
X110823294Y-63875014D02*
X110442342Y-63875014D01*
X110442342Y-63875014D02*
X110347104Y-63922633D01*
X110347104Y-63922633D02*
X110299485Y-63970252D01*
X110299485Y-63970252D02*
X110251866Y-64065490D01*
X110251866Y-64065490D02*
X110251866Y-64208347D01*
X110251866Y-64208347D02*
X110299485Y-64303585D01*
X110299485Y-64303585D02*
X110347104Y-64351204D01*
X110347104Y-64351204D02*
X110442342Y-64398823D01*
X110442342Y-64398823D02*
X110823294Y-64398823D01*
X109918532Y-63875014D02*
X109251866Y-63875014D01*
X109251866Y-63875014D02*
X109680437Y-64875014D01*
X129172319Y-86161400D02*
X129981842Y-86161400D01*
X129981842Y-86161400D02*
X130077080Y-86209019D01*
X130077080Y-86209019D02*
X130124700Y-86256638D01*
X130124700Y-86256638D02*
X130172319Y-86351876D01*
X130172319Y-86351876D02*
X130172319Y-86542352D01*
X130172319Y-86542352D02*
X130124700Y-86637590D01*
X130124700Y-86637590D02*
X130077080Y-86685209D01*
X130077080Y-86685209D02*
X129981842Y-86732828D01*
X129981842Y-86732828D02*
X129172319Y-86732828D01*
X130172319Y-87732828D02*
X130172319Y-87161400D01*
X130172319Y-87447114D02*
X129172319Y-87447114D01*
X129172319Y-87447114D02*
X129315176Y-87351876D01*
X129315176Y-87351876D02*
X129410414Y-87256638D01*
X129410414Y-87256638D02*
X129458033Y-87161400D01*
X129267557Y-88113781D02*
X129219938Y-88161400D01*
X129219938Y-88161400D02*
X129172319Y-88256638D01*
X129172319Y-88256638D02*
X129172319Y-88494733D01*
X129172319Y-88494733D02*
X129219938Y-88589971D01*
X129219938Y-88589971D02*
X129267557Y-88637590D01*
X129267557Y-88637590D02*
X129362795Y-88685209D01*
X129362795Y-88685209D02*
X129458033Y-88685209D01*
X129458033Y-88685209D02*
X129600890Y-88637590D01*
X129600890Y-88637590D02*
X130172319Y-88066162D01*
X130172319Y-88066162D02*
X130172319Y-88685209D01*
X131892357Y-99683575D02*
X131939976Y-99731195D01*
X131939976Y-99731195D02*
X132082833Y-99778814D01*
X132082833Y-99778814D02*
X132178071Y-99778814D01*
X132178071Y-99778814D02*
X132320928Y-99731195D01*
X132320928Y-99731195D02*
X132416166Y-99635956D01*
X132416166Y-99635956D02*
X132463785Y-99540718D01*
X132463785Y-99540718D02*
X132511404Y-99350242D01*
X132511404Y-99350242D02*
X132511404Y-99207385D01*
X132511404Y-99207385D02*
X132463785Y-99016909D01*
X132463785Y-99016909D02*
X132416166Y-98921671D01*
X132416166Y-98921671D02*
X132320928Y-98826433D01*
X132320928Y-98826433D02*
X132178071Y-98778814D01*
X132178071Y-98778814D02*
X132082833Y-98778814D01*
X132082833Y-98778814D02*
X131939976Y-98826433D01*
X131939976Y-98826433D02*
X131892357Y-98874052D01*
X130939976Y-99778814D02*
X131511404Y-99778814D01*
X131225690Y-99778814D02*
X131225690Y-98778814D01*
X131225690Y-98778814D02*
X131320928Y-98921671D01*
X131320928Y-98921671D02*
X131416166Y-99016909D01*
X131416166Y-99016909D02*
X131511404Y-99064528D01*
X130606642Y-98778814D02*
X129987595Y-98778814D01*
X129987595Y-98778814D02*
X130320928Y-99159766D01*
X130320928Y-99159766D02*
X130178071Y-99159766D01*
X130178071Y-99159766D02*
X130082833Y-99207385D01*
X130082833Y-99207385D02*
X130035214Y-99255004D01*
X130035214Y-99255004D02*
X129987595Y-99350242D01*
X129987595Y-99350242D02*
X129987595Y-99588337D01*
X129987595Y-99588337D02*
X130035214Y-99683575D01*
X130035214Y-99683575D02*
X130082833Y-99731195D01*
X130082833Y-99731195D02*
X130178071Y-99778814D01*
X130178071Y-99778814D02*
X130463785Y-99778814D01*
X130463785Y-99778814D02*
X130559023Y-99731195D01*
X130559023Y-99731195D02*
X130606642Y-99683575D01*
X89721219Y-123316833D02*
X89245028Y-122983500D01*
X89721219Y-122745405D02*
X88721219Y-122745405D01*
X88721219Y-122745405D02*
X88721219Y-123126357D01*
X88721219Y-123126357D02*
X88768838Y-123221595D01*
X88768838Y-123221595D02*
X88816457Y-123269214D01*
X88816457Y-123269214D02*
X88911695Y-123316833D01*
X88911695Y-123316833D02*
X89054552Y-123316833D01*
X89054552Y-123316833D02*
X89149790Y-123269214D01*
X89149790Y-123269214D02*
X89197409Y-123221595D01*
X89197409Y-123221595D02*
X89245028Y-123126357D01*
X89245028Y-123126357D02*
X89245028Y-122745405D01*
X88721219Y-124173976D02*
X88721219Y-123983500D01*
X88721219Y-123983500D02*
X88768838Y-123888262D01*
X88768838Y-123888262D02*
X88816457Y-123840643D01*
X88816457Y-123840643D02*
X88959314Y-123745405D01*
X88959314Y-123745405D02*
X89149790Y-123697786D01*
X89149790Y-123697786D02*
X89530742Y-123697786D01*
X89530742Y-123697786D02*
X89625980Y-123745405D01*
X89625980Y-123745405D02*
X89673600Y-123793024D01*
X89673600Y-123793024D02*
X89721219Y-123888262D01*
X89721219Y-123888262D02*
X89721219Y-124078738D01*
X89721219Y-124078738D02*
X89673600Y-124173976D01*
X89673600Y-124173976D02*
X89625980Y-124221595D01*
X89625980Y-124221595D02*
X89530742Y-124269214D01*
X89530742Y-124269214D02*
X89292647Y-124269214D01*
X89292647Y-124269214D02*
X89197409Y-124221595D01*
X89197409Y-124221595D02*
X89149790Y-124173976D01*
X89149790Y-124173976D02*
X89102171Y-124078738D01*
X89102171Y-124078738D02*
X89102171Y-123888262D01*
X89102171Y-123888262D02*
X89149790Y-123793024D01*
X89149790Y-123793024D02*
X89197409Y-123745405D01*
X89197409Y-123745405D02*
X89292647Y-123697786D01*
X93958166Y-104298819D02*
X94291499Y-103822628D01*
X94529594Y-104298819D02*
X94529594Y-103298819D01*
X94529594Y-103298819D02*
X94148642Y-103298819D01*
X94148642Y-103298819D02*
X94053404Y-103346438D01*
X94053404Y-103346438D02*
X94005785Y-103394057D01*
X94005785Y-103394057D02*
X93958166Y-103489295D01*
X93958166Y-103489295D02*
X93958166Y-103632152D01*
X93958166Y-103632152D02*
X94005785Y-103727390D01*
X94005785Y-103727390D02*
X94053404Y-103775009D01*
X94053404Y-103775009D02*
X94148642Y-103822628D01*
X94148642Y-103822628D02*
X94529594Y-103822628D01*
X93481975Y-104298819D02*
X93291499Y-104298819D01*
X93291499Y-104298819D02*
X93196261Y-104251200D01*
X93196261Y-104251200D02*
X93148642Y-104203580D01*
X93148642Y-104203580D02*
X93053404Y-104060723D01*
X93053404Y-104060723D02*
X93005785Y-103870247D01*
X93005785Y-103870247D02*
X93005785Y-103489295D01*
X93005785Y-103489295D02*
X93053404Y-103394057D01*
X93053404Y-103394057D02*
X93101023Y-103346438D01*
X93101023Y-103346438D02*
X93196261Y-103298819D01*
X93196261Y-103298819D02*
X93386737Y-103298819D01*
X93386737Y-103298819D02*
X93481975Y-103346438D01*
X93481975Y-103346438D02*
X93529594Y-103394057D01*
X93529594Y-103394057D02*
X93577213Y-103489295D01*
X93577213Y-103489295D02*
X93577213Y-103727390D01*
X93577213Y-103727390D02*
X93529594Y-103822628D01*
X93529594Y-103822628D02*
X93481975Y-103870247D01*
X93481975Y-103870247D02*
X93386737Y-103917866D01*
X93386737Y-103917866D02*
X93196261Y-103917866D01*
X93196261Y-103917866D02*
X93101023Y-103870247D01*
X93101023Y-103870247D02*
X93053404Y-103822628D01*
X93053404Y-103822628D02*
X93005785Y-103727390D01*
X74819580Y-55698637D02*
X74867200Y-55651018D01*
X74867200Y-55651018D02*
X74914819Y-55508161D01*
X74914819Y-55508161D02*
X74914819Y-55412923D01*
X74914819Y-55412923D02*
X74867200Y-55270066D01*
X74867200Y-55270066D02*
X74771961Y-55174828D01*
X74771961Y-55174828D02*
X74676723Y-55127209D01*
X74676723Y-55127209D02*
X74486247Y-55079590D01*
X74486247Y-55079590D02*
X74343390Y-55079590D01*
X74343390Y-55079590D02*
X74152914Y-55127209D01*
X74152914Y-55127209D02*
X74057676Y-55174828D01*
X74057676Y-55174828D02*
X73962438Y-55270066D01*
X73962438Y-55270066D02*
X73914819Y-55412923D01*
X73914819Y-55412923D02*
X73914819Y-55508161D01*
X73914819Y-55508161D02*
X73962438Y-55651018D01*
X73962438Y-55651018D02*
X74010057Y-55698637D01*
X74914819Y-56651018D02*
X74914819Y-56079590D01*
X74914819Y-56365304D02*
X73914819Y-56365304D01*
X73914819Y-56365304D02*
X74057676Y-56270066D01*
X74057676Y-56270066D02*
X74152914Y-56174828D01*
X74152914Y-56174828D02*
X74200533Y-56079590D01*
X74010057Y-57031971D02*
X73962438Y-57079590D01*
X73962438Y-57079590D02*
X73914819Y-57174828D01*
X73914819Y-57174828D02*
X73914819Y-57412923D01*
X73914819Y-57412923D02*
X73962438Y-57508161D01*
X73962438Y-57508161D02*
X74010057Y-57555780D01*
X74010057Y-57555780D02*
X74105295Y-57603399D01*
X74105295Y-57603399D02*
X74200533Y-57603399D01*
X74200533Y-57603399D02*
X74343390Y-57555780D01*
X74343390Y-57555780D02*
X74914819Y-56984352D01*
X74914819Y-56984352D02*
X74914819Y-57603399D01*
X126014029Y-63301538D02*
X126014029Y-64111061D01*
X126014029Y-64111061D02*
X125966410Y-64206299D01*
X125966410Y-64206299D02*
X125918791Y-64253919D01*
X125918791Y-64253919D02*
X125823553Y-64301538D01*
X125823553Y-64301538D02*
X125633077Y-64301538D01*
X125633077Y-64301538D02*
X125537839Y-64253919D01*
X125537839Y-64253919D02*
X125490220Y-64206299D01*
X125490220Y-64206299D02*
X125442601Y-64111061D01*
X125442601Y-64111061D02*
X125442601Y-63301538D01*
X124823553Y-63730109D02*
X124918791Y-63682490D01*
X124918791Y-63682490D02*
X124966410Y-63634871D01*
X124966410Y-63634871D02*
X125014029Y-63539633D01*
X125014029Y-63539633D02*
X125014029Y-63492014D01*
X125014029Y-63492014D02*
X124966410Y-63396776D01*
X124966410Y-63396776D02*
X124918791Y-63349157D01*
X124918791Y-63349157D02*
X124823553Y-63301538D01*
X124823553Y-63301538D02*
X124633077Y-63301538D01*
X124633077Y-63301538D02*
X124537839Y-63349157D01*
X124537839Y-63349157D02*
X124490220Y-63396776D01*
X124490220Y-63396776D02*
X124442601Y-63492014D01*
X124442601Y-63492014D02*
X124442601Y-63539633D01*
X124442601Y-63539633D02*
X124490220Y-63634871D01*
X124490220Y-63634871D02*
X124537839Y-63682490D01*
X124537839Y-63682490D02*
X124633077Y-63730109D01*
X124633077Y-63730109D02*
X124823553Y-63730109D01*
X124823553Y-63730109D02*
X124918791Y-63777728D01*
X124918791Y-63777728D02*
X124966410Y-63825347D01*
X124966410Y-63825347D02*
X125014029Y-63920585D01*
X125014029Y-63920585D02*
X125014029Y-64111061D01*
X125014029Y-64111061D02*
X124966410Y-64206299D01*
X124966410Y-64206299D02*
X124918791Y-64253919D01*
X124918791Y-64253919D02*
X124823553Y-64301538D01*
X124823553Y-64301538D02*
X124633077Y-64301538D01*
X124633077Y-64301538D02*
X124537839Y-64253919D01*
X124537839Y-64253919D02*
X124490220Y-64206299D01*
X124490220Y-64206299D02*
X124442601Y-64111061D01*
X124442601Y-64111061D02*
X124442601Y-63920585D01*
X124442601Y-63920585D02*
X124490220Y-63825347D01*
X124490220Y-63825347D02*
X124537839Y-63777728D01*
X124537839Y-63777728D02*
X124633077Y-63730109D01*
X55949357Y-113442819D02*
X56282690Y-112966628D01*
X56520785Y-113442819D02*
X56520785Y-112442819D01*
X56520785Y-112442819D02*
X56139833Y-112442819D01*
X56139833Y-112442819D02*
X56044595Y-112490438D01*
X56044595Y-112490438D02*
X55996976Y-112538057D01*
X55996976Y-112538057D02*
X55949357Y-112633295D01*
X55949357Y-112633295D02*
X55949357Y-112776152D01*
X55949357Y-112776152D02*
X55996976Y-112871390D01*
X55996976Y-112871390D02*
X56044595Y-112919009D01*
X56044595Y-112919009D02*
X56139833Y-112966628D01*
X56139833Y-112966628D02*
X56520785Y-112966628D01*
X54996976Y-113442819D02*
X55568404Y-113442819D01*
X55282690Y-113442819D02*
X55282690Y-112442819D01*
X55282690Y-112442819D02*
X55377928Y-112585676D01*
X55377928Y-112585676D02*
X55473166Y-112680914D01*
X55473166Y-112680914D02*
X55568404Y-112728533D01*
X54377928Y-112442819D02*
X54282690Y-112442819D01*
X54282690Y-112442819D02*
X54187452Y-112490438D01*
X54187452Y-112490438D02*
X54139833Y-112538057D01*
X54139833Y-112538057D02*
X54092214Y-112633295D01*
X54092214Y-112633295D02*
X54044595Y-112823771D01*
X54044595Y-112823771D02*
X54044595Y-113061866D01*
X54044595Y-113061866D02*
X54092214Y-113252342D01*
X54092214Y-113252342D02*
X54139833Y-113347580D01*
X54139833Y-113347580D02*
X54187452Y-113395200D01*
X54187452Y-113395200D02*
X54282690Y-113442819D01*
X54282690Y-113442819D02*
X54377928Y-113442819D01*
X54377928Y-113442819D02*
X54473166Y-113395200D01*
X54473166Y-113395200D02*
X54520785Y-113347580D01*
X54520785Y-113347580D02*
X54568404Y-113252342D01*
X54568404Y-113252342D02*
X54616023Y-113061866D01*
X54616023Y-113061866D02*
X54616023Y-112823771D01*
X54616023Y-112823771D02*
X54568404Y-112633295D01*
X54568404Y-112633295D02*
X54520785Y-112538057D01*
X54520785Y-112538057D02*
X54473166Y-112490438D01*
X54473166Y-112490438D02*
X54377928Y-112442819D01*
X101620819Y-129320333D02*
X101144628Y-128987000D01*
X101620819Y-128748905D02*
X100620819Y-128748905D01*
X100620819Y-128748905D02*
X100620819Y-129129857D01*
X100620819Y-129129857D02*
X100668438Y-129225095D01*
X100668438Y-129225095D02*
X100716057Y-129272714D01*
X100716057Y-129272714D02*
X100811295Y-129320333D01*
X100811295Y-129320333D02*
X100954152Y-129320333D01*
X100954152Y-129320333D02*
X101049390Y-129272714D01*
X101049390Y-129272714D02*
X101097009Y-129225095D01*
X101097009Y-129225095D02*
X101144628Y-129129857D01*
X101144628Y-129129857D02*
X101144628Y-128748905D01*
X100954152Y-130177476D02*
X101620819Y-130177476D01*
X100573200Y-129939381D02*
X101287485Y-129701286D01*
X101287485Y-129701286D02*
X101287485Y-130320333D01*
X87297419Y-123316833D02*
X86821228Y-122983500D01*
X87297419Y-122745405D02*
X86297419Y-122745405D01*
X86297419Y-122745405D02*
X86297419Y-123126357D01*
X86297419Y-123126357D02*
X86345038Y-123221595D01*
X86345038Y-123221595D02*
X86392657Y-123269214D01*
X86392657Y-123269214D02*
X86487895Y-123316833D01*
X86487895Y-123316833D02*
X86630752Y-123316833D01*
X86630752Y-123316833D02*
X86725990Y-123269214D01*
X86725990Y-123269214D02*
X86773609Y-123221595D01*
X86773609Y-123221595D02*
X86821228Y-123126357D01*
X86821228Y-123126357D02*
X86821228Y-122745405D01*
X86297419Y-124221595D02*
X86297419Y-123745405D01*
X86297419Y-123745405D02*
X86773609Y-123697786D01*
X86773609Y-123697786D02*
X86725990Y-123745405D01*
X86725990Y-123745405D02*
X86678371Y-123840643D01*
X86678371Y-123840643D02*
X86678371Y-124078738D01*
X86678371Y-124078738D02*
X86725990Y-124173976D01*
X86725990Y-124173976D02*
X86773609Y-124221595D01*
X86773609Y-124221595D02*
X86868847Y-124269214D01*
X86868847Y-124269214D02*
X87106942Y-124269214D01*
X87106942Y-124269214D02*
X87202180Y-124221595D01*
X87202180Y-124221595D02*
X87249800Y-124173976D01*
X87249800Y-124173976D02*
X87297419Y-124078738D01*
X87297419Y-124078738D02*
X87297419Y-123840643D01*
X87297419Y-123840643D02*
X87249800Y-123745405D01*
X87249800Y-123745405D02*
X87202180Y-123697786D01*
X110531266Y-67338814D02*
X110864599Y-66862623D01*
X111102694Y-67338814D02*
X111102694Y-66338814D01*
X111102694Y-66338814D02*
X110721742Y-66338814D01*
X110721742Y-66338814D02*
X110626504Y-66386433D01*
X110626504Y-66386433D02*
X110578885Y-66434052D01*
X110578885Y-66434052D02*
X110531266Y-66529290D01*
X110531266Y-66529290D02*
X110531266Y-66672147D01*
X110531266Y-66672147D02*
X110578885Y-66767385D01*
X110578885Y-66767385D02*
X110626504Y-66815004D01*
X110626504Y-66815004D02*
X110721742Y-66862623D01*
X110721742Y-66862623D02*
X111102694Y-66862623D01*
X109959837Y-66767385D02*
X110055075Y-66719766D01*
X110055075Y-66719766D02*
X110102694Y-66672147D01*
X110102694Y-66672147D02*
X110150313Y-66576909D01*
X110150313Y-66576909D02*
X110150313Y-66529290D01*
X110150313Y-66529290D02*
X110102694Y-66434052D01*
X110102694Y-66434052D02*
X110055075Y-66386433D01*
X110055075Y-66386433D02*
X109959837Y-66338814D01*
X109959837Y-66338814D02*
X109769361Y-66338814D01*
X109769361Y-66338814D02*
X109674123Y-66386433D01*
X109674123Y-66386433D02*
X109626504Y-66434052D01*
X109626504Y-66434052D02*
X109578885Y-66529290D01*
X109578885Y-66529290D02*
X109578885Y-66576909D01*
X109578885Y-66576909D02*
X109626504Y-66672147D01*
X109626504Y-66672147D02*
X109674123Y-66719766D01*
X109674123Y-66719766D02*
X109769361Y-66767385D01*
X109769361Y-66767385D02*
X109959837Y-66767385D01*
X109959837Y-66767385D02*
X110055075Y-66815004D01*
X110055075Y-66815004D02*
X110102694Y-66862623D01*
X110102694Y-66862623D02*
X110150313Y-66957861D01*
X110150313Y-66957861D02*
X110150313Y-67148337D01*
X110150313Y-67148337D02*
X110102694Y-67243575D01*
X110102694Y-67243575D02*
X110055075Y-67291195D01*
X110055075Y-67291195D02*
X109959837Y-67338814D01*
X109959837Y-67338814D02*
X109769361Y-67338814D01*
X109769361Y-67338814D02*
X109674123Y-67291195D01*
X109674123Y-67291195D02*
X109626504Y-67243575D01*
X109626504Y-67243575D02*
X109578885Y-67148337D01*
X109578885Y-67148337D02*
X109578885Y-66957861D01*
X109578885Y-66957861D02*
X109626504Y-66862623D01*
X109626504Y-66862623D02*
X109674123Y-66815004D01*
X109674123Y-66815004D02*
X109769361Y-66767385D01*
X65664166Y-69328814D02*
X65997499Y-68852623D01*
X66235594Y-69328814D02*
X66235594Y-68328814D01*
X66235594Y-68328814D02*
X65854642Y-68328814D01*
X65854642Y-68328814D02*
X65759404Y-68376433D01*
X65759404Y-68376433D02*
X65711785Y-68424052D01*
X65711785Y-68424052D02*
X65664166Y-68519290D01*
X65664166Y-68519290D02*
X65664166Y-68662147D01*
X65664166Y-68662147D02*
X65711785Y-68757385D01*
X65711785Y-68757385D02*
X65759404Y-68805004D01*
X65759404Y-68805004D02*
X65854642Y-68852623D01*
X65854642Y-68852623D02*
X66235594Y-68852623D01*
X65283213Y-68424052D02*
X65235594Y-68376433D01*
X65235594Y-68376433D02*
X65140356Y-68328814D01*
X65140356Y-68328814D02*
X64902261Y-68328814D01*
X64902261Y-68328814D02*
X64807023Y-68376433D01*
X64807023Y-68376433D02*
X64759404Y-68424052D01*
X64759404Y-68424052D02*
X64711785Y-68519290D01*
X64711785Y-68519290D02*
X64711785Y-68614528D01*
X64711785Y-68614528D02*
X64759404Y-68757385D01*
X64759404Y-68757385D02*
X65330832Y-69328814D01*
X65330832Y-69328814D02*
X64711785Y-69328814D01*
X100394094Y-78980814D02*
X100394094Y-79790337D01*
X100394094Y-79790337D02*
X100346475Y-79885575D01*
X100346475Y-79885575D02*
X100298856Y-79933195D01*
X100298856Y-79933195D02*
X100203618Y-79980814D01*
X100203618Y-79980814D02*
X100013142Y-79980814D01*
X100013142Y-79980814D02*
X99917904Y-79933195D01*
X99917904Y-79933195D02*
X99870285Y-79885575D01*
X99870285Y-79885575D02*
X99822666Y-79790337D01*
X99822666Y-79790337D02*
X99822666Y-78980814D01*
X98822666Y-79980814D02*
X99394094Y-79980814D01*
X99108380Y-79980814D02*
X99108380Y-78980814D01*
X99108380Y-78980814D02*
X99203618Y-79123671D01*
X99203618Y-79123671D02*
X99298856Y-79218909D01*
X99298856Y-79218909D02*
X99394094Y-79266528D01*
X98251237Y-79409385D02*
X98346475Y-79361766D01*
X98346475Y-79361766D02*
X98394094Y-79314147D01*
X98394094Y-79314147D02*
X98441713Y-79218909D01*
X98441713Y-79218909D02*
X98441713Y-79171290D01*
X98441713Y-79171290D02*
X98394094Y-79076052D01*
X98394094Y-79076052D02*
X98346475Y-79028433D01*
X98346475Y-79028433D02*
X98251237Y-78980814D01*
X98251237Y-78980814D02*
X98060761Y-78980814D01*
X98060761Y-78980814D02*
X97965523Y-79028433D01*
X97965523Y-79028433D02*
X97917904Y-79076052D01*
X97917904Y-79076052D02*
X97870285Y-79171290D01*
X97870285Y-79171290D02*
X97870285Y-79218909D01*
X97870285Y-79218909D02*
X97917904Y-79314147D01*
X97917904Y-79314147D02*
X97965523Y-79361766D01*
X97965523Y-79361766D02*
X98060761Y-79409385D01*
X98060761Y-79409385D02*
X98251237Y-79409385D01*
X98251237Y-79409385D02*
X98346475Y-79457004D01*
X98346475Y-79457004D02*
X98394094Y-79504623D01*
X98394094Y-79504623D02*
X98441713Y-79599861D01*
X98441713Y-79599861D02*
X98441713Y-79790337D01*
X98441713Y-79790337D02*
X98394094Y-79885575D01*
X98394094Y-79885575D02*
X98346475Y-79933195D01*
X98346475Y-79933195D02*
X98251237Y-79980814D01*
X98251237Y-79980814D02*
X98060761Y-79980814D01*
X98060761Y-79980814D02*
X97965523Y-79933195D01*
X97965523Y-79933195D02*
X97917904Y-79885575D01*
X97917904Y-79885575D02*
X97870285Y-79790337D01*
X97870285Y-79790337D02*
X97870285Y-79599861D01*
X97870285Y-79599861D02*
X97917904Y-79504623D01*
X97917904Y-79504623D02*
X97965523Y-79457004D01*
X97965523Y-79457004D02*
X98060761Y-79409385D01*
X112299080Y-112928137D02*
X112346700Y-112880518D01*
X112346700Y-112880518D02*
X112394319Y-112737661D01*
X112394319Y-112737661D02*
X112394319Y-112642423D01*
X112394319Y-112642423D02*
X112346700Y-112499566D01*
X112346700Y-112499566D02*
X112251461Y-112404328D01*
X112251461Y-112404328D02*
X112156223Y-112356709D01*
X112156223Y-112356709D02*
X111965747Y-112309090D01*
X111965747Y-112309090D02*
X111822890Y-112309090D01*
X111822890Y-112309090D02*
X111632414Y-112356709D01*
X111632414Y-112356709D02*
X111537176Y-112404328D01*
X111537176Y-112404328D02*
X111441938Y-112499566D01*
X111441938Y-112499566D02*
X111394319Y-112642423D01*
X111394319Y-112642423D02*
X111394319Y-112737661D01*
X111394319Y-112737661D02*
X111441938Y-112880518D01*
X111441938Y-112880518D02*
X111489557Y-112928137D01*
X112394319Y-113880518D02*
X112394319Y-113309090D01*
X112394319Y-113594804D02*
X111394319Y-113594804D01*
X111394319Y-113594804D02*
X111537176Y-113499566D01*
X111537176Y-113499566D02*
X111632414Y-113404328D01*
X111632414Y-113404328D02*
X111680033Y-113309090D01*
X111394319Y-114499566D02*
X111394319Y-114594804D01*
X111394319Y-114594804D02*
X111441938Y-114690042D01*
X111441938Y-114690042D02*
X111489557Y-114737661D01*
X111489557Y-114737661D02*
X111584795Y-114785280D01*
X111584795Y-114785280D02*
X111775271Y-114832899D01*
X111775271Y-114832899D02*
X112013366Y-114832899D01*
X112013366Y-114832899D02*
X112203842Y-114785280D01*
X112203842Y-114785280D02*
X112299080Y-114737661D01*
X112299080Y-114737661D02*
X112346700Y-114690042D01*
X112346700Y-114690042D02*
X112394319Y-114594804D01*
X112394319Y-114594804D02*
X112394319Y-114499566D01*
X112394319Y-114499566D02*
X112346700Y-114404328D01*
X112346700Y-114404328D02*
X112299080Y-114356709D01*
X112299080Y-114356709D02*
X112203842Y-114309090D01*
X112203842Y-114309090D02*
X112013366Y-114261471D01*
X112013366Y-114261471D02*
X111775271Y-114261471D01*
X111775271Y-114261471D02*
X111584795Y-114309090D01*
X111584795Y-114309090D02*
X111489557Y-114356709D01*
X111489557Y-114356709D02*
X111441938Y-114404328D01*
X111441938Y-114404328D02*
X111394319Y-114499566D01*
X136631229Y-63403138D02*
X136631229Y-64212661D01*
X136631229Y-64212661D02*
X136583610Y-64307899D01*
X136583610Y-64307899D02*
X136535991Y-64355519D01*
X136535991Y-64355519D02*
X136440753Y-64403138D01*
X136440753Y-64403138D02*
X136250277Y-64403138D01*
X136250277Y-64403138D02*
X136155039Y-64355519D01*
X136155039Y-64355519D02*
X136107420Y-64307899D01*
X136107420Y-64307899D02*
X136059801Y-64212661D01*
X136059801Y-64212661D02*
X136059801Y-63403138D01*
X135535991Y-64403138D02*
X135345515Y-64403138D01*
X135345515Y-64403138D02*
X135250277Y-64355519D01*
X135250277Y-64355519D02*
X135202658Y-64307899D01*
X135202658Y-64307899D02*
X135107420Y-64165042D01*
X135107420Y-64165042D02*
X135059801Y-63974566D01*
X135059801Y-63974566D02*
X135059801Y-63593614D01*
X135059801Y-63593614D02*
X135107420Y-63498376D01*
X135107420Y-63498376D02*
X135155039Y-63450757D01*
X135155039Y-63450757D02*
X135250277Y-63403138D01*
X135250277Y-63403138D02*
X135440753Y-63403138D01*
X135440753Y-63403138D02*
X135535991Y-63450757D01*
X135535991Y-63450757D02*
X135583610Y-63498376D01*
X135583610Y-63498376D02*
X135631229Y-63593614D01*
X135631229Y-63593614D02*
X135631229Y-63831709D01*
X135631229Y-63831709D02*
X135583610Y-63926947D01*
X135583610Y-63926947D02*
X135535991Y-63974566D01*
X135535991Y-63974566D02*
X135440753Y-64022185D01*
X135440753Y-64022185D02*
X135250277Y-64022185D01*
X135250277Y-64022185D02*
X135155039Y-63974566D01*
X135155039Y-63974566D02*
X135107420Y-63926947D01*
X135107420Y-63926947D02*
X135059801Y-63831709D01*
D11*
%TO.C,U20*%
X102723000Y-114788000D02*
X102723000Y-112838000D01*
X102723000Y-110888000D02*
X102723000Y-112838000D01*
X92603000Y-114788000D02*
X92603000Y-112838000D01*
X92603000Y-110888000D02*
X92603000Y-112838000D01*
X102998000Y-115778000D02*
X102668000Y-115538000D01*
X102998000Y-115298000D01*
X102998000Y-115778000D01*
G36*
X102998000Y-115778000D02*
G01*
X102668000Y-115538000D01*
X102998000Y-115298000D01*
X102998000Y-115778000D01*
G37*
%TO.C,U13*%
X135743000Y-115466495D02*
X135743000Y-113516495D01*
X135743000Y-111566495D02*
X135743000Y-113516495D01*
X125623000Y-115466495D02*
X125623000Y-113516495D01*
X125623000Y-111566495D02*
X125623000Y-113516495D01*
X136018000Y-116456495D02*
X135688000Y-116216495D01*
X136018000Y-115976495D01*
X136018000Y-116456495D01*
G36*
X136018000Y-116456495D02*
G01*
X135688000Y-116216495D01*
X136018000Y-115976495D01*
X136018000Y-116456495D01*
G37*
%TO.C,U4*%
X97042000Y-129728995D02*
X95092000Y-129728995D01*
X93142000Y-129728995D02*
X95092000Y-129728995D01*
X97042000Y-134848995D02*
X95092000Y-134848995D01*
X93142000Y-134848995D02*
X95092000Y-134848995D01*
X97792000Y-129823995D02*
X97552000Y-129493995D01*
X98032000Y-129493995D01*
X97792000Y-129823995D01*
G36*
X97792000Y-129823995D02*
G01*
X97552000Y-129493995D01*
X98032000Y-129493995D01*
X97792000Y-129823995D01*
G37*
%TO.C,C3*%
X148070000Y-67467743D02*
X148070000Y-68890247D01*
X146250000Y-67467743D02*
X146250000Y-68890247D01*
%TO.C,C5*%
X110754000Y-69578247D02*
X110754000Y-68155743D01*
X112574000Y-69578247D02*
X112574000Y-68155743D01*
%TO.C,R3*%
X102722000Y-133376564D02*
X102722000Y-131922436D01*
X104542000Y-133376564D02*
X104542000Y-131922436D01*
%TO.C,U14*%
X122535000Y-115536495D02*
X122535000Y-113586495D01*
X122535000Y-111636495D02*
X122535000Y-113586495D01*
X112415000Y-115536495D02*
X112415000Y-113586495D01*
X112415000Y-111636495D02*
X112415000Y-113586495D01*
X122810000Y-116526495D02*
X122480000Y-116286495D01*
X122810000Y-116046495D01*
X122810000Y-116526495D01*
G36*
X122810000Y-116526495D02*
G01*
X122480000Y-116286495D01*
X122810000Y-116046495D01*
X122810000Y-116526495D01*
G37*
%TO.C,U17*%
X101168000Y-93827995D02*
X99218000Y-93827995D01*
X97268000Y-93827995D02*
X99218000Y-93827995D01*
X101168000Y-103947995D02*
X99218000Y-103947995D01*
X97268000Y-103947995D02*
X99218000Y-103947995D01*
X101918000Y-93882995D02*
X101678000Y-93552995D01*
X102158000Y-93552995D01*
X101918000Y-93882995D01*
G36*
X101918000Y-93882995D02*
G01*
X101678000Y-93552995D01*
X102158000Y-93552995D01*
X101918000Y-93882995D01*
G37*
%TO.C,U5*%
X101057400Y-72014395D02*
X102857400Y-72014395D01*
X102657400Y-68794395D02*
X101857400Y-68794395D01*
X101057400Y-68794395D02*
X101857400Y-68794395D01*
X103157400Y-68844395D02*
X102917400Y-68514395D01*
X103397400Y-68514395D01*
X103157400Y-68844395D01*
G36*
X103157400Y-68844395D02*
G01*
X102917400Y-68514395D01*
X103397400Y-68514395D01*
X103157400Y-68844395D01*
G37*
%TO.C,C9*%
X100134252Y-106528995D02*
X98711748Y-106528995D01*
X100134252Y-104708995D02*
X98711748Y-104708995D01*
%TO.C,U7*%
X114223125Y-66591470D02*
X114223125Y-68541470D01*
X114223125Y-70491470D02*
X114223125Y-68541470D01*
X124343125Y-66591470D02*
X124343125Y-68541470D01*
X124343125Y-70491470D02*
X124343125Y-68541470D01*
X114278125Y-65841470D02*
X113948125Y-66081470D01*
X113948125Y-65601470D01*
X114278125Y-65841470D01*
G36*
X114278125Y-65841470D02*
G01*
X113948125Y-66081470D01*
X113948125Y-65601470D01*
X114278125Y-65841470D01*
G37*
%TO.C,R1*%
X64770436Y-72323995D02*
X66224564Y-72323995D01*
X64770436Y-74143995D02*
X66224564Y-74143995D01*
%TO.C,R7*%
X105791436Y-63560995D02*
X107245564Y-63560995D01*
X105791436Y-65380995D02*
X107245564Y-65380995D01*
%TO.C,U12*%
X127584000Y-97092995D02*
X127964000Y-97092995D01*
X109714000Y-97092995D02*
X109334000Y-97092995D01*
X127964000Y-97092995D02*
X127964000Y-91902995D01*
X127964000Y-86712995D02*
X127964000Y-91902995D01*
X109334000Y-97092995D02*
X109334000Y-91902995D01*
X109334000Y-86712995D02*
X109334000Y-91902995D01*
X127584000Y-86712995D02*
X127964000Y-86712995D01*
X109714000Y-86712995D02*
X109334000Y-86712995D01*
X127914000Y-97857995D02*
X127584000Y-97617995D01*
X127914000Y-97377995D01*
X127914000Y-97857995D01*
G36*
X127914000Y-97857995D02*
G01*
X127584000Y-97617995D01*
X127914000Y-97377995D01*
X127914000Y-97857995D01*
G37*
%TO.C,C13*%
X130538248Y-100263995D02*
X131960752Y-100263995D01*
X130538248Y-102083995D02*
X131960752Y-102083995D01*
%TO.C,R6*%
X88244000Y-127473064D02*
X88244000Y-126018936D01*
X90064000Y-127473064D02*
X90064000Y-126018936D01*
%TO.C,R9*%
X93064436Y-104754000D02*
X94518564Y-104754000D01*
X93064436Y-106574000D02*
X94518564Y-106574000D01*
%TO.C,C12*%
X69100000Y-60751495D02*
X73620000Y-60751495D01*
X69100000Y-52691495D02*
X69100000Y-60751495D01*
X73620000Y-60751495D02*
X73620000Y-52691495D01*
%TO.C,U8*%
X124738725Y-66591470D02*
X124738725Y-68541470D01*
X124738725Y-70491470D02*
X124738725Y-68541470D01*
X134858725Y-66591470D02*
X134858725Y-68541470D01*
X134858725Y-70491470D02*
X134858725Y-68541470D01*
X124793725Y-65841470D02*
X124463725Y-66081470D01*
X124463725Y-65601470D01*
X124793725Y-65841470D01*
G36*
X124793725Y-65841470D02*
G01*
X124463725Y-66081470D01*
X124463725Y-65601470D01*
X124793725Y-65841470D01*
G37*
%TO.C,R10*%
X54579436Y-113898000D02*
X56033564Y-113898000D01*
X54579436Y-115718000D02*
X56033564Y-115718000D01*
%TO.C,R4*%
X100182000Y-133376564D02*
X100182000Y-131922436D01*
X102002000Y-133376564D02*
X102002000Y-131922436D01*
%TO.C,R5*%
X85831000Y-127473064D02*
X85831000Y-126018936D01*
X87651000Y-127473064D02*
X87651000Y-126018936D01*
%TO.C,R8*%
X105918436Y-65973995D02*
X107372564Y-65973995D01*
X105918436Y-67793995D02*
X107372564Y-67793995D01*
%TO.C,R2*%
X64770436Y-69783995D02*
X66224564Y-69783995D01*
X64770436Y-71603995D02*
X66224564Y-71603995D01*
%TO.C,U18*%
X101106000Y-80365995D02*
X99156000Y-80365995D01*
X97206000Y-80365995D02*
X99156000Y-80365995D01*
X101106000Y-90485995D02*
X99156000Y-90485995D01*
X97206000Y-90485995D02*
X99156000Y-90485995D01*
X101856000Y-80420995D02*
X101616000Y-80090995D01*
X102096000Y-80090995D01*
X101856000Y-80420995D01*
G36*
X101856000Y-80420995D02*
G01*
X101616000Y-80090995D01*
X102096000Y-80090995D01*
X101856000Y-80420995D01*
G37*
%TO.C,C10*%
X110999500Y-112859743D02*
X110999500Y-114282247D01*
X109179500Y-112859743D02*
X109179500Y-114282247D01*
%TO.C,U9*%
X135279725Y-66580270D02*
X135279725Y-68530270D01*
X135279725Y-70480270D02*
X135279725Y-68530270D01*
X145399725Y-66580270D02*
X145399725Y-68530270D01*
X145399725Y-70480270D02*
X145399725Y-68530270D01*
X135334725Y-65830270D02*
X135004725Y-66070270D01*
X135004725Y-65590270D01*
X135334725Y-65830270D01*
G36*
X135334725Y-65830270D02*
G01*
X135004725Y-66070270D01*
X135004725Y-65590270D01*
X135334725Y-65830270D01*
G37*
%TD*%
M02*
