%TF.GenerationSoftware,KiCad,Pcbnew,8.0.5-8.0.5-0~ubuntu22.04.1*%
%TF.CreationDate,2024-10-04T08:27:40+02:00*%
%TF.ProjectId,MOT_SerialBoard,4d4f545f-5365-4726-9961-6c426f617264,rev?*%
%TF.SameCoordinates,Original*%
%TF.FileFunction,Legend,Bot*%
%TF.FilePolarity,Positive*%
%FSLAX46Y46*%
G04 Gerber Fmt 4.6, Leading zero omitted, Abs format (unit mm)*
G04 Created by KiCad (PCBNEW 8.0.5-8.0.5-0~ubuntu22.04.1) date 2024-10-04 08:27:40*
%MOMM*%
%LPD*%
G01*
G04 APERTURE LIST*
%ADD10C,0.150000*%
%ADD11C,0.120000*%
G04 APERTURE END LIST*
D10*
X87076780Y-145684533D02*
X87124400Y-145636914D01*
X87124400Y-145636914D02*
X87172019Y-145494057D01*
X87172019Y-145494057D02*
X87172019Y-145398819D01*
X87172019Y-145398819D02*
X87124400Y-145255962D01*
X87124400Y-145255962D02*
X87029161Y-145160724D01*
X87029161Y-145160724D02*
X86933923Y-145113105D01*
X86933923Y-145113105D02*
X86743447Y-145065486D01*
X86743447Y-145065486D02*
X86600590Y-145065486D01*
X86600590Y-145065486D02*
X86410114Y-145113105D01*
X86410114Y-145113105D02*
X86314876Y-145160724D01*
X86314876Y-145160724D02*
X86219638Y-145255962D01*
X86219638Y-145255962D02*
X86172019Y-145398819D01*
X86172019Y-145398819D02*
X86172019Y-145494057D01*
X86172019Y-145494057D02*
X86219638Y-145636914D01*
X86219638Y-145636914D02*
X86267257Y-145684533D01*
X86267257Y-146065486D02*
X86219638Y-146113105D01*
X86219638Y-146113105D02*
X86172019Y-146208343D01*
X86172019Y-146208343D02*
X86172019Y-146446438D01*
X86172019Y-146446438D02*
X86219638Y-146541676D01*
X86219638Y-146541676D02*
X86267257Y-146589295D01*
X86267257Y-146589295D02*
X86362495Y-146636914D01*
X86362495Y-146636914D02*
X86457733Y-146636914D01*
X86457733Y-146636914D02*
X86600590Y-146589295D01*
X86600590Y-146589295D02*
X87172019Y-146017867D01*
X87172019Y-146017867D02*
X87172019Y-146636914D01*
X137066666Y-127839819D02*
X137399999Y-127363628D01*
X137638094Y-127839819D02*
X137638094Y-126839819D01*
X137638094Y-126839819D02*
X137257142Y-126839819D01*
X137257142Y-126839819D02*
X137161904Y-126887438D01*
X137161904Y-126887438D02*
X137114285Y-126935057D01*
X137114285Y-126935057D02*
X137066666Y-127030295D01*
X137066666Y-127030295D02*
X137066666Y-127173152D01*
X137066666Y-127173152D02*
X137114285Y-127268390D01*
X137114285Y-127268390D02*
X137161904Y-127316009D01*
X137161904Y-127316009D02*
X137257142Y-127363628D01*
X137257142Y-127363628D02*
X137638094Y-127363628D01*
X136209523Y-127173152D02*
X136209523Y-127839819D01*
X136447618Y-126792200D02*
X136685713Y-127506485D01*
X136685713Y-127506485D02*
X136066666Y-127506485D01*
X104052666Y-69955580D02*
X104100285Y-70003200D01*
X104100285Y-70003200D02*
X104243142Y-70050819D01*
X104243142Y-70050819D02*
X104338380Y-70050819D01*
X104338380Y-70050819D02*
X104481237Y-70003200D01*
X104481237Y-70003200D02*
X104576475Y-69907961D01*
X104576475Y-69907961D02*
X104624094Y-69812723D01*
X104624094Y-69812723D02*
X104671713Y-69622247D01*
X104671713Y-69622247D02*
X104671713Y-69479390D01*
X104671713Y-69479390D02*
X104624094Y-69288914D01*
X104624094Y-69288914D02*
X104576475Y-69193676D01*
X104576475Y-69193676D02*
X104481237Y-69098438D01*
X104481237Y-69098438D02*
X104338380Y-69050819D01*
X104338380Y-69050819D02*
X104243142Y-69050819D01*
X104243142Y-69050819D02*
X104100285Y-69098438D01*
X104100285Y-69098438D02*
X104052666Y-69146057D01*
X103147904Y-69050819D02*
X103624094Y-69050819D01*
X103624094Y-69050819D02*
X103671713Y-69527009D01*
X103671713Y-69527009D02*
X103624094Y-69479390D01*
X103624094Y-69479390D02*
X103528856Y-69431771D01*
X103528856Y-69431771D02*
X103290761Y-69431771D01*
X103290761Y-69431771D02*
X103195523Y-69479390D01*
X103195523Y-69479390D02*
X103147904Y-69527009D01*
X103147904Y-69527009D02*
X103100285Y-69622247D01*
X103100285Y-69622247D02*
X103100285Y-69860342D01*
X103100285Y-69860342D02*
X103147904Y-69955580D01*
X103147904Y-69955580D02*
X103195523Y-70003200D01*
X103195523Y-70003200D02*
X103290761Y-70050819D01*
X103290761Y-70050819D02*
X103528856Y-70050819D01*
X103528856Y-70050819D02*
X103624094Y-70003200D01*
X103624094Y-70003200D02*
X103671713Y-69955580D01*
X137291666Y-129879819D02*
X137624999Y-129403628D01*
X137863094Y-129879819D02*
X137863094Y-128879819D01*
X137863094Y-128879819D02*
X137482142Y-128879819D01*
X137482142Y-128879819D02*
X137386904Y-128927438D01*
X137386904Y-128927438D02*
X137339285Y-128975057D01*
X137339285Y-128975057D02*
X137291666Y-129070295D01*
X137291666Y-129070295D02*
X137291666Y-129213152D01*
X137291666Y-129213152D02*
X137339285Y-129308390D01*
X137339285Y-129308390D02*
X137386904Y-129356009D01*
X137386904Y-129356009D02*
X137482142Y-129403628D01*
X137482142Y-129403628D02*
X137863094Y-129403628D01*
X136386904Y-128879819D02*
X136863094Y-128879819D01*
X136863094Y-128879819D02*
X136910713Y-129356009D01*
X136910713Y-129356009D02*
X136863094Y-129308390D01*
X136863094Y-129308390D02*
X136767856Y-129260771D01*
X136767856Y-129260771D02*
X136529761Y-129260771D01*
X136529761Y-129260771D02*
X136434523Y-129308390D01*
X136434523Y-129308390D02*
X136386904Y-129356009D01*
X136386904Y-129356009D02*
X136339285Y-129451247D01*
X136339285Y-129451247D02*
X136339285Y-129689342D01*
X136339285Y-129689342D02*
X136386904Y-129784580D01*
X136386904Y-129784580D02*
X136434523Y-129832200D01*
X136434523Y-129832200D02*
X136529761Y-129879819D01*
X136529761Y-129879819D02*
X136767856Y-129879819D01*
X136767856Y-129879819D02*
X136863094Y-129832200D01*
X136863094Y-129832200D02*
X136910713Y-129784580D01*
X91209580Y-53958333D02*
X91257200Y-53910714D01*
X91257200Y-53910714D02*
X91304819Y-53767857D01*
X91304819Y-53767857D02*
X91304819Y-53672619D01*
X91304819Y-53672619D02*
X91257200Y-53529762D01*
X91257200Y-53529762D02*
X91161961Y-53434524D01*
X91161961Y-53434524D02*
X91066723Y-53386905D01*
X91066723Y-53386905D02*
X90876247Y-53339286D01*
X90876247Y-53339286D02*
X90733390Y-53339286D01*
X90733390Y-53339286D02*
X90542914Y-53386905D01*
X90542914Y-53386905D02*
X90447676Y-53434524D01*
X90447676Y-53434524D02*
X90352438Y-53529762D01*
X90352438Y-53529762D02*
X90304819Y-53672619D01*
X90304819Y-53672619D02*
X90304819Y-53767857D01*
X90304819Y-53767857D02*
X90352438Y-53910714D01*
X90352438Y-53910714D02*
X90400057Y-53958333D01*
X91304819Y-54910714D02*
X91304819Y-54339286D01*
X91304819Y-54625000D02*
X90304819Y-54625000D01*
X90304819Y-54625000D02*
X90447676Y-54529762D01*
X90447676Y-54529762D02*
X90542914Y-54434524D01*
X90542914Y-54434524D02*
X90590533Y-54339286D01*
X90491666Y-107834580D02*
X90539285Y-107882200D01*
X90539285Y-107882200D02*
X90682142Y-107929819D01*
X90682142Y-107929819D02*
X90777380Y-107929819D01*
X90777380Y-107929819D02*
X90920237Y-107882200D01*
X90920237Y-107882200D02*
X91015475Y-107786961D01*
X91015475Y-107786961D02*
X91063094Y-107691723D01*
X91063094Y-107691723D02*
X91110713Y-107501247D01*
X91110713Y-107501247D02*
X91110713Y-107358390D01*
X91110713Y-107358390D02*
X91063094Y-107167914D01*
X91063094Y-107167914D02*
X91015475Y-107072676D01*
X91015475Y-107072676D02*
X90920237Y-106977438D01*
X90920237Y-106977438D02*
X90777380Y-106929819D01*
X90777380Y-106929819D02*
X90682142Y-106929819D01*
X90682142Y-106929819D02*
X90539285Y-106977438D01*
X90539285Y-106977438D02*
X90491666Y-107025057D01*
X89634523Y-106929819D02*
X89824999Y-106929819D01*
X89824999Y-106929819D02*
X89920237Y-106977438D01*
X89920237Y-106977438D02*
X89967856Y-107025057D01*
X89967856Y-107025057D02*
X90063094Y-107167914D01*
X90063094Y-107167914D02*
X90110713Y-107358390D01*
X90110713Y-107358390D02*
X90110713Y-107739342D01*
X90110713Y-107739342D02*
X90063094Y-107834580D01*
X90063094Y-107834580D02*
X90015475Y-107882200D01*
X90015475Y-107882200D02*
X89920237Y-107929819D01*
X89920237Y-107929819D02*
X89729761Y-107929819D01*
X89729761Y-107929819D02*
X89634523Y-107882200D01*
X89634523Y-107882200D02*
X89586904Y-107834580D01*
X89586904Y-107834580D02*
X89539285Y-107739342D01*
X89539285Y-107739342D02*
X89539285Y-107501247D01*
X89539285Y-107501247D02*
X89586904Y-107406009D01*
X89586904Y-107406009D02*
X89634523Y-107358390D01*
X89634523Y-107358390D02*
X89729761Y-107310771D01*
X89729761Y-107310771D02*
X89920237Y-107310771D01*
X89920237Y-107310771D02*
X90015475Y-107358390D01*
X90015475Y-107358390D02*
X90063094Y-107406009D01*
X90063094Y-107406009D02*
X90110713Y-107501247D01*
X104052666Y-67415580D02*
X104100285Y-67463200D01*
X104100285Y-67463200D02*
X104243142Y-67510819D01*
X104243142Y-67510819D02*
X104338380Y-67510819D01*
X104338380Y-67510819D02*
X104481237Y-67463200D01*
X104481237Y-67463200D02*
X104576475Y-67367961D01*
X104576475Y-67367961D02*
X104624094Y-67272723D01*
X104624094Y-67272723D02*
X104671713Y-67082247D01*
X104671713Y-67082247D02*
X104671713Y-66939390D01*
X104671713Y-66939390D02*
X104624094Y-66748914D01*
X104624094Y-66748914D02*
X104576475Y-66653676D01*
X104576475Y-66653676D02*
X104481237Y-66558438D01*
X104481237Y-66558438D02*
X104338380Y-66510819D01*
X104338380Y-66510819D02*
X104243142Y-66510819D01*
X104243142Y-66510819D02*
X104100285Y-66558438D01*
X104100285Y-66558438D02*
X104052666Y-66606057D01*
X103195523Y-66844152D02*
X103195523Y-67510819D01*
X103433618Y-66463200D02*
X103671713Y-67177485D01*
X103671713Y-67177485D02*
X103052666Y-67177485D01*
D11*
%TO.C,C2*%
X87890000Y-146486252D02*
X87890000Y-145063748D01*
X89710000Y-146486252D02*
X89710000Y-145063748D01*
%TO.C,J8*%
X114365000Y-72800000D02*
X116485000Y-72800000D01*
X114365000Y-72860000D02*
X114365000Y-72800000D01*
X114365000Y-72860000D02*
X116485000Y-72860000D01*
X115425000Y-70740000D02*
X116485000Y-70740000D01*
X116485000Y-70740000D02*
X116485000Y-71800000D01*
X116485000Y-72860000D02*
X116485000Y-72800000D01*
%TO.C,R4*%
X141302064Y-126415000D02*
X139847936Y-126415000D01*
X141302064Y-128235000D02*
X139847936Y-128235000D01*
%TO.C,C5*%
X101344252Y-68686000D02*
X99921748Y-68686000D01*
X101344252Y-70506000D02*
X99921748Y-70506000D01*
%TO.C,J9*%
X117565000Y-72800000D02*
X119685000Y-72800000D01*
X117565000Y-72860000D02*
X117565000Y-72800000D01*
X117565000Y-72860000D02*
X119685000Y-72860000D01*
X118625000Y-70740000D02*
X119685000Y-70740000D01*
X119685000Y-70740000D02*
X119685000Y-71800000D01*
X119685000Y-72860000D02*
X119685000Y-72800000D01*
%TO.C,R5*%
X141277064Y-128715000D02*
X139822936Y-128715000D01*
X141277064Y-130535000D02*
X139822936Y-130535000D01*
%TO.C,C1*%
X88090000Y-53413748D02*
X88090000Y-54836252D01*
X89910000Y-53413748D02*
X89910000Y-54836252D01*
%TO.C,C6*%
X91036252Y-104715000D02*
X89613748Y-104715000D01*
X91036252Y-106535000D02*
X89613748Y-106535000D01*
%TO.C,C4*%
X101344252Y-66146000D02*
X99921748Y-66146000D01*
X101344252Y-67966000D02*
X99921748Y-67966000D01*
%TD*%
M02*
