%TF.GenerationSoftware,KiCad,Pcbnew,8.0.5-8.0.5-0~ubuntu22.04.1*%
%TF.CreationDate,2024-10-04T08:27:40+02:00*%
%TF.ProjectId,MOT_SerialBoard,4d4f545f-5365-4726-9961-6c426f617264,rev?*%
%TF.SameCoordinates,Original*%
%TF.FileFunction,Soldermask,Top*%
%TF.FilePolarity,Negative*%
%FSLAX46Y46*%
G04 Gerber Fmt 4.6, Leading zero omitted, Abs format (unit mm)*
G04 Created by KiCad (PCBNEW 8.0.5-8.0.5-0~ubuntu22.04.1) date 2024-10-04 08:27:40*
%MOMM*%
%LPD*%
G01*
G04 APERTURE LIST*
G04 Aperture macros list*
%AMRoundRect*
0 Rectangle with rounded corners*
0 $1 Rounding radius*
0 $2 $3 $4 $5 $6 $7 $8 $9 X,Y pos of 4 corners*
0 Add a 4 corners polygon primitive as box body*
4,1,4,$2,$3,$4,$5,$6,$7,$8,$9,$2,$3,0*
0 Add four circle primitives for the rounded corners*
1,1,$1+$1,$2,$3*
1,1,$1+$1,$4,$5*
1,1,$1+$1,$6,$7*
1,1,$1+$1,$8,$9*
0 Add four rect primitives between the rounded corners*
20,1,$1+$1,$2,$3,$4,$5,0*
20,1,$1+$1,$4,$5,$6,$7,0*
20,1,$1+$1,$6,$7,$8,$9,0*
20,1,$1+$1,$8,$9,$2,$3,0*%
%AMFreePoly0*
4,1,19,0.500000,-0.750000,0.000000,-0.750000,0.000000,-0.744911,-0.071157,-0.744911,-0.207708,-0.704816,-0.327430,-0.627875,-0.420627,-0.520320,-0.479746,-0.390866,-0.500000,-0.250000,-0.500000,0.250000,-0.479746,0.390866,-0.420627,0.520320,-0.327430,0.627875,-0.207708,0.704816,-0.071157,0.744911,0.000000,0.744911,0.000000,0.750000,0.500000,0.750000,0.500000,-0.750000,0.500000,-0.750000,
$1*%
%AMFreePoly1*
4,1,19,0.000000,0.744911,0.071157,0.744911,0.207708,0.704816,0.327430,0.627875,0.420627,0.520320,0.479746,0.390866,0.500000,0.250000,0.500000,-0.250000,0.479746,-0.390866,0.420627,-0.520320,0.327430,-0.627875,0.207708,-0.704816,0.071157,-0.744911,0.000000,-0.744911,0.000000,-0.750000,-0.500000,-0.750000,-0.500000,0.750000,0.000000,0.750000,0.000000,0.744911,0.000000,0.744911,
$1*%
G04 Aperture macros list end*
%ADD10R,1.700000X1.700000*%
%ADD11O,1.700000X1.700000*%
%ADD12R,1.600000X2.400000*%
%ADD13O,1.600000X2.400000*%
%ADD14RoundRect,0.250000X-0.325000X-0.650000X0.325000X-0.650000X0.325000X0.650000X-0.325000X0.650000X0*%
%ADD15RoundRect,0.162500X-0.162500X0.617500X-0.162500X-0.617500X0.162500X-0.617500X0.162500X0.617500X0*%
%ADD16FreePoly0,270.000000*%
%ADD17FreePoly1,270.000000*%
%ADD18R,1.350000X1.350000*%
%ADD19FreePoly0,180.000000*%
%ADD20FreePoly1,180.000000*%
%ADD21FreePoly0,0.000000*%
%ADD22FreePoly1,0.000000*%
%ADD23C,3.200000*%
%ADD24R,1.600000X1.600000*%
%ADD25O,1.600000X1.600000*%
%ADD26RoundRect,0.150000X0.150000X-0.837500X0.150000X0.837500X-0.150000X0.837500X-0.150000X-0.837500X0*%
%ADD27RoundRect,0.250000X0.325000X0.650000X-0.325000X0.650000X-0.325000X-0.650000X0.325000X-0.650000X0*%
G04 APERTURE END LIST*
D10*
%TO.C,J27*%
X112531000Y-124479000D03*
D11*
X109991000Y-124479000D03*
X112531000Y-127019000D03*
X109991000Y-127019000D03*
%TD*%
D10*
%TO.C,J30*%
X54750000Y-64760000D03*
D11*
X52210000Y-64760000D03*
X54750000Y-67300000D03*
X52210000Y-67300000D03*
%TD*%
D10*
%TO.C,J36*%
X60850000Y-53950000D03*
D11*
X63390000Y-53950000D03*
X65930000Y-53950000D03*
X68470000Y-53950000D03*
X71010000Y-53950000D03*
X73550000Y-53950000D03*
X76090000Y-53950000D03*
X78630000Y-53950000D03*
X81170000Y-53950000D03*
X83710000Y-53950000D03*
X86250000Y-53950000D03*
%TD*%
D10*
%TO.C,J1*%
X92367000Y-53000000D03*
D11*
X92367000Y-55540000D03*
X94907000Y-53000000D03*
X94907000Y-55540000D03*
X97447000Y-53000000D03*
X97447000Y-55540000D03*
X99987000Y-53000000D03*
X99987000Y-55540000D03*
X102527000Y-53000000D03*
X102527000Y-55540000D03*
X105067000Y-53000000D03*
X105067000Y-55540000D03*
X107607000Y-53000000D03*
X107607000Y-55540000D03*
X110147000Y-53000000D03*
X110147000Y-55540000D03*
X112687000Y-53000000D03*
X112687000Y-55540000D03*
X115227000Y-53000000D03*
X115227000Y-55540000D03*
X117767000Y-53000000D03*
X117767000Y-55540000D03*
X120307000Y-53000000D03*
X120307000Y-55540000D03*
X122847000Y-53000000D03*
X122847000Y-55540000D03*
X125387000Y-53000000D03*
X125387000Y-55540000D03*
X127927000Y-53000000D03*
X127927000Y-55540000D03*
X130467000Y-53000000D03*
X130467000Y-55540000D03*
X133007000Y-53000000D03*
X133007000Y-55540000D03*
X135547000Y-53000000D03*
X135547000Y-55540000D03*
X138087000Y-53000000D03*
X138087000Y-55540000D03*
X140627000Y-53000000D03*
X140627000Y-55540000D03*
%TD*%
D12*
%TO.C,U1*%
X124648000Y-80674800D03*
D13*
X122108000Y-80674800D03*
X119568000Y-80674800D03*
X117028000Y-80674800D03*
X114488000Y-80674800D03*
X111948000Y-80674800D03*
X109408000Y-80674800D03*
X106868000Y-80674800D03*
X104328000Y-80674800D03*
X101788000Y-80674800D03*
X99248000Y-80674800D03*
X96708000Y-80674800D03*
X94168000Y-80674800D03*
X91628000Y-80674800D03*
X91628000Y-95914800D03*
X94168000Y-95914800D03*
X96708000Y-95914800D03*
X99248000Y-95914800D03*
X101788000Y-95914800D03*
X104328000Y-95914800D03*
X106868000Y-95914800D03*
X109408000Y-95914800D03*
X111948000Y-95914800D03*
X114488000Y-95914800D03*
X117028000Y-95914800D03*
X119568000Y-95914800D03*
X122108000Y-95914800D03*
X124648000Y-95914800D03*
%TD*%
D14*
%TO.C,C3*%
X144725000Y-64500000D03*
X147675000Y-64500000D03*
%TD*%
D15*
%TO.C,U5*%
X146172000Y-121760000D03*
X145222000Y-121760000D03*
X144272000Y-121760000D03*
X144272000Y-124460000D03*
X146172000Y-124460000D03*
%TD*%
D16*
%TO.C,JP8*%
X94800000Y-73675000D03*
D17*
X94800000Y-74975000D03*
%TD*%
D10*
%TO.C,J4*%
X140627000Y-141000000D03*
D11*
X140627000Y-138460000D03*
X138087000Y-141000000D03*
X138087000Y-138460000D03*
X135547000Y-141000000D03*
X135547000Y-138460000D03*
X133007000Y-141000000D03*
X133007000Y-138460000D03*
X130467000Y-141000000D03*
X130467000Y-138460000D03*
X127927000Y-141000000D03*
X127927000Y-138460000D03*
X125387000Y-141000000D03*
X125387000Y-138460000D03*
X122847000Y-141000000D03*
X122847000Y-138460000D03*
X120307000Y-141000000D03*
X120307000Y-138460000D03*
X117767000Y-141000000D03*
X117767000Y-138460000D03*
X115227000Y-141000000D03*
X115227000Y-138460000D03*
X112687000Y-141000000D03*
X112687000Y-138460000D03*
X110147000Y-141000000D03*
X110147000Y-138460000D03*
X107607000Y-141000000D03*
X107607000Y-138460000D03*
X105067000Y-141000000D03*
X105067000Y-138460000D03*
X102527000Y-141000000D03*
X102527000Y-138460000D03*
X99987000Y-141000000D03*
X99987000Y-138460000D03*
X97447000Y-141000000D03*
X97447000Y-138460000D03*
X94907000Y-141000000D03*
X94907000Y-138460000D03*
X92367000Y-141000000D03*
X92367000Y-138460000D03*
%TD*%
D10*
%TO.C,J31*%
X92040000Y-64850000D03*
D11*
X89500000Y-64850000D03*
X92040000Y-67390000D03*
X89500000Y-67390000D03*
%TD*%
D10*
%TO.C,JP3*%
X98775000Y-118875000D03*
D11*
X96235000Y-118875000D03*
X93695000Y-118875000D03*
%TD*%
D10*
%TO.C,J29*%
X58360000Y-67325000D03*
D11*
X60900000Y-67325000D03*
X63440000Y-67325000D03*
X65980000Y-67325000D03*
X68520000Y-67325000D03*
X71060000Y-67325000D03*
X73600000Y-67325000D03*
X76140000Y-67325000D03*
X78680000Y-67325000D03*
X81220000Y-67325000D03*
X83760000Y-67325000D03*
X86300000Y-67325000D03*
%TD*%
D18*
%TO.C,J10*%
X96300000Y-68200000D03*
%TD*%
D10*
%TO.C,J6*%
X122250000Y-122020000D03*
D11*
X119710000Y-122020000D03*
X122250000Y-124560000D03*
X119710000Y-124560000D03*
X122250000Y-127100000D03*
X119710000Y-127100000D03*
%TD*%
D19*
%TO.C,JP4*%
X142625000Y-128050000D03*
D20*
X141325000Y-128050000D03*
%TD*%
D18*
%TO.C,J5*%
X96225000Y-64925000D03*
%TD*%
D10*
%TO.C,J26*%
X145517000Y-132314000D03*
D11*
X145517000Y-129774000D03*
%TD*%
D10*
%TO.C,J2*%
X140627000Y-147000000D03*
D11*
X140627000Y-144460000D03*
X138087000Y-147000000D03*
X138087000Y-144460000D03*
X135547000Y-147000000D03*
X135547000Y-144460000D03*
X133007000Y-147000000D03*
X133007000Y-144460000D03*
X130467000Y-147000000D03*
X130467000Y-144460000D03*
X127927000Y-147000000D03*
X127927000Y-144460000D03*
X125387000Y-147000000D03*
X125387000Y-144460000D03*
X122847000Y-147000000D03*
X122847000Y-144460000D03*
X120307000Y-147000000D03*
X120307000Y-144460000D03*
X117767000Y-147000000D03*
X117767000Y-144460000D03*
X115227000Y-147000000D03*
X115227000Y-144460000D03*
X112687000Y-147000000D03*
X112687000Y-144460000D03*
X110147000Y-147000000D03*
X110147000Y-144460000D03*
X107607000Y-147000000D03*
X107607000Y-144460000D03*
X105067000Y-147000000D03*
X105067000Y-144460000D03*
X102527000Y-147000000D03*
X102527000Y-144460000D03*
X99987000Y-147000000D03*
X99987000Y-144460000D03*
X97447000Y-147000000D03*
X97447000Y-144460000D03*
X94907000Y-147000000D03*
X94907000Y-144460000D03*
X92367000Y-147000000D03*
X92367000Y-144460000D03*
%TD*%
D21*
%TO.C,JP2*%
X103550000Y-119425000D03*
D22*
X104850000Y-119425000D03*
%TD*%
D12*
%TO.C,U3*%
X89855000Y-115477800D03*
D13*
X92395000Y-115477800D03*
X94935000Y-115477800D03*
X97475000Y-115477800D03*
X100015000Y-115477800D03*
X102555000Y-115477800D03*
X105095000Y-115477800D03*
X107635000Y-115477800D03*
X110175000Y-115477800D03*
X112715000Y-115477800D03*
X115255000Y-115477800D03*
X117795000Y-115477800D03*
X120335000Y-115477800D03*
X122875000Y-115477800D03*
X125415000Y-115477800D03*
X127955000Y-115477800D03*
X130495000Y-115477800D03*
X133035000Y-115477800D03*
X135575000Y-115477800D03*
X138115000Y-115477800D03*
X138115000Y-100237800D03*
X135575000Y-100237800D03*
X133035000Y-100237800D03*
X130495000Y-100237800D03*
X127955000Y-100237800D03*
X125415000Y-100237800D03*
X122875000Y-100237800D03*
X120335000Y-100237800D03*
X117795000Y-100237800D03*
X115255000Y-100237800D03*
X112715000Y-100237800D03*
X110175000Y-100237800D03*
X107635000Y-100237800D03*
X105095000Y-100237800D03*
X102555000Y-100237800D03*
X100015000Y-100237800D03*
X97475000Y-100237800D03*
X94935000Y-100237800D03*
X92395000Y-100237800D03*
X89855000Y-100237800D03*
%TD*%
D23*
%TO.C,H3*%
X146000000Y-54000000D03*
%TD*%
D10*
%TO.C,J11*%
X142325000Y-134525000D03*
D11*
X139785000Y-134525000D03*
X137245000Y-134525000D03*
X134705000Y-134525000D03*
X132165000Y-134525000D03*
X129625000Y-134525000D03*
X127085000Y-134525000D03*
X124545000Y-134525000D03*
X122005000Y-134525000D03*
X119465000Y-134525000D03*
X116925000Y-134525000D03*
X114385000Y-134525000D03*
X111845000Y-134525000D03*
X109305000Y-134525000D03*
%TD*%
D24*
%TO.C,J35*%
X58355000Y-64475000D03*
D25*
X60895000Y-64475000D03*
X63435000Y-64475000D03*
X65975000Y-64475000D03*
X68515000Y-64475000D03*
X71055000Y-64475000D03*
X73595000Y-64475000D03*
X76135000Y-64475000D03*
X78675000Y-64475000D03*
X81215000Y-64475000D03*
X83755000Y-64475000D03*
X86295000Y-64475000D03*
X86295000Y-56855000D03*
X83755000Y-56855000D03*
X81215000Y-56855000D03*
X78675000Y-56855000D03*
X76135000Y-56855000D03*
X73595000Y-56855000D03*
X71055000Y-56855000D03*
X68515000Y-56855000D03*
X65975000Y-56855000D03*
X63435000Y-56855000D03*
X60895000Y-56855000D03*
X58355000Y-56855000D03*
%TD*%
D10*
%TO.C,J3*%
X92367000Y-59000000D03*
D11*
X92367000Y-61540000D03*
X94907000Y-59000000D03*
X94907000Y-61540000D03*
X97447000Y-59000000D03*
X97447000Y-61540000D03*
X99987000Y-59000000D03*
X99987000Y-61540000D03*
X102527000Y-59000000D03*
X102527000Y-61540000D03*
X105067000Y-59000000D03*
X105067000Y-61540000D03*
X107607000Y-59000000D03*
X107607000Y-61540000D03*
X110147000Y-59000000D03*
X110147000Y-61540000D03*
X112687000Y-59000000D03*
X112687000Y-61540000D03*
X115227000Y-59000000D03*
X115227000Y-61540000D03*
X117767000Y-59000000D03*
X117767000Y-61540000D03*
X120307000Y-59000000D03*
X120307000Y-61540000D03*
X122847000Y-59000000D03*
X122847000Y-61540000D03*
X125387000Y-59000000D03*
X125387000Y-61540000D03*
X127927000Y-59000000D03*
X127927000Y-61540000D03*
X130467000Y-59000000D03*
X130467000Y-61540000D03*
X133007000Y-59000000D03*
X133007000Y-61540000D03*
X135547000Y-59000000D03*
X135547000Y-61540000D03*
X138087000Y-59000000D03*
X138087000Y-61540000D03*
X140627000Y-59000000D03*
X140627000Y-61540000D03*
%TD*%
D10*
%TO.C,JP1*%
X116125000Y-77125000D03*
D11*
X113585000Y-77125000D03*
X111045000Y-77125000D03*
%TD*%
D16*
%TO.C,JP9*%
X92200000Y-72150000D03*
D17*
X92200000Y-73450000D03*
%TD*%
D26*
%TO.C,U9*%
X98714717Y-71919580D03*
X99984717Y-71919580D03*
X101254717Y-71919580D03*
X102524717Y-71919580D03*
X103794717Y-71919580D03*
X105064717Y-71919580D03*
X106334717Y-71919580D03*
X107604717Y-71919580D03*
X108874717Y-71919580D03*
X110144717Y-71919580D03*
X111414717Y-71919580D03*
X112684717Y-71919580D03*
X112684717Y-64994580D03*
X111414717Y-64994580D03*
X110144717Y-64994580D03*
X108874717Y-64994580D03*
X107604717Y-64994580D03*
X106334717Y-64994580D03*
X105064717Y-64994580D03*
X103794717Y-64994580D03*
X102524717Y-64994580D03*
X101254717Y-64994580D03*
X99984717Y-64994580D03*
X98714717Y-64994580D03*
%TD*%
D23*
%TO.C,H1*%
X54000000Y-54000000D03*
%TD*%
%TO.C,H2*%
X54000000Y-146000000D03*
%TD*%
D27*
%TO.C,C7*%
X142100000Y-122525000D03*
X139150000Y-122525000D03*
%TD*%
D12*
%TO.C,U4*%
X94168000Y-105820800D03*
D13*
X96708000Y-105820800D03*
X99248000Y-105820800D03*
X101788000Y-105820800D03*
X104328000Y-105820800D03*
X106868000Y-105820800D03*
X109408000Y-105820800D03*
X111948000Y-105820800D03*
X114488000Y-105820800D03*
X117028000Y-105820800D03*
X119568000Y-105820800D03*
X122108000Y-105820800D03*
X122108000Y-90580800D03*
X119568000Y-90580800D03*
X117028000Y-90580800D03*
X114488000Y-90580800D03*
X111948000Y-90580800D03*
X109408000Y-90580800D03*
X106868000Y-90580800D03*
X104328000Y-90580800D03*
X101788000Y-90580800D03*
X99248000Y-90580800D03*
X96708000Y-90580800D03*
X94168000Y-90580800D03*
%TD*%
D23*
%TO.C,H4*%
X146000000Y-146000000D03*
%TD*%
D18*
%TO.C,J8*%
X115425000Y-71800000D03*
%TD*%
%TO.C,J9*%
X118625000Y-71800000D03*
%TD*%
M02*
