M48
; DRILL file {KiCad 8.0.5-8.0.5-0~ubuntu22.04.1} date 2024-10-04T08:27:42+0200
; FORMAT={-:-/ absolute / inch / decimal}
; #@! TF.CreationDate,2024-10-04T08:27:42+02:00
; #@! TF.GenerationSoftware,Kicad,Pcbnew,8.0.5-8.0.5-0~ubuntu22.04.1
; #@! TF.FileFunction,MixedPlating,1,2
FMAT,2
INCH
; #@! TA.AperFunction,Plated,PTH,ViaDrill
T1C0.0157
; #@! TA.AperFunction,Plated,PTH,ComponentDrill
T2C0.0315
; #@! TA.AperFunction,Plated,PTH,ComponentDrill
T3C0.0394
; #@! TA.AperFunction,NonPlated,NPTH,ComponentDrill
T4C0.1260
%
G90
G05
T1
X3.5486Y-3.833
X3.5512Y-3.2323
X3.5886Y-4.237
X3.6299Y-2.8917
X3.6856Y-3.383
X3.7323Y-2.9518
X3.8074Y-4.0423
X3.814Y-3.0541
X3.8486Y-3.4
X3.8806Y-3.438
X3.9039Y-2.64
X3.9039Y-2.74
X3.9286Y-4.433
X3.9577Y-4.0984
X3.9864Y-2.5588
X4.0576Y-4.452
X4.09Y-2.68
X4.2074Y-4.314
X4.2549Y-3.8593
X4.4364Y-2.5588
X4.4882Y-2.9321
X4.5346Y-4.383
X4.5955Y-4.32
X4.5994Y-3.3907
X4.6496Y-2.9291
X4.6815Y-3.2709
X4.688Y-4.0226
X4.6919Y-2.9232
X4.8868Y-3.8642
X4.8874Y-4.3162
X4.9376Y-4.12
X4.997Y-3.6978
X5.0306Y-4.45
X5.0797Y-3.7264
X5.1348Y-3.5059
X5.1586Y-4.05
X5.2372Y-4.0866
X5.2411Y-3.6565
X5.3297Y-3.6811
X5.4921Y-4.7254
X5.6179Y-2.7067
X5.65Y-2.65
X5.68Y-4.7
X5.6978Y-2.5394
X5.7548Y-4.7937
X5.814Y-2.5394
X5.8268Y-4.938
X5.8858Y-3.0453
X5.8858Y-4.79
T2
X2.2974Y-2.2384
X2.2974Y-2.5384
X2.3974Y-2.2384
X2.3974Y-2.5384
X2.4974Y-2.2384
X2.4974Y-2.5384
X2.5974Y-2.2384
X2.5974Y-2.5384
X2.6974Y-2.2384
X2.6974Y-2.5384
X2.7974Y-2.2384
X2.7974Y-2.5384
X2.8974Y-2.2384
X2.8974Y-2.5384
X2.9974Y-2.2384
X2.9974Y-2.5384
X3.0974Y-2.2384
X3.0974Y-2.5384
X3.1974Y-2.2384
X3.1974Y-2.5384
X3.2974Y-2.2384
X3.2974Y-2.5384
X3.3974Y-2.2384
X3.3974Y-2.5384
X3.5376Y-3.9464
X3.5376Y-4.5464
X3.6074Y-3.1762
X3.6074Y-3.7762
X3.6376Y-3.9464
X3.6376Y-4.5464
X3.7074Y-3.1762
X3.7074Y-3.5662
X3.7074Y-3.7762
X3.7074Y-4.1662
X3.7376Y-3.9464
X3.7376Y-4.5464
X3.7884Y-2.5561
X3.7913Y-2.685
X3.8074Y-3.1762
X3.8074Y-3.5662
X3.8074Y-3.7762
X3.8074Y-4.1662
X3.8376Y-3.9464
X3.8376Y-4.5464
X3.9074Y-3.1762
X3.9074Y-3.5662
X3.9074Y-3.7762
X3.9074Y-4.1662
X3.9376Y-3.9464
X3.9376Y-4.5464
X4.0074Y-3.1762
X4.0074Y-3.5662
X4.0074Y-3.7762
X4.0074Y-4.1662
X4.0376Y-3.9464
X4.0376Y-4.5464
X4.1074Y-3.1762
X4.1074Y-3.5662
X4.1074Y-3.7762
X4.1074Y-4.1662
X4.1376Y-3.9464
X4.1376Y-4.5464
X4.2074Y-3.1762
X4.2074Y-3.5662
X4.2074Y-3.7762
X4.2074Y-4.1662
X4.2376Y-3.9464
X4.2376Y-4.5464
X4.3074Y-3.1762
X4.3074Y-3.5662
X4.3074Y-3.7762
X4.3074Y-4.1662
X4.3376Y-3.9464
X4.3376Y-4.5464
X4.4074Y-3.1762
X4.4074Y-3.5662
X4.4074Y-3.7762
X4.4074Y-4.1662
X4.4376Y-3.9464
X4.4376Y-4.5464
X4.5074Y-3.1762
X4.5074Y-3.5662
X4.5074Y-3.7762
X4.5074Y-4.1662
X4.5376Y-3.9464
X4.5376Y-4.5464
X4.5443Y-2.8268
X4.6074Y-3.1762
X4.6074Y-3.5662
X4.6074Y-3.7762
X4.6074Y-4.1662
X4.6376Y-3.9464
X4.6376Y-4.5464
X4.6703Y-2.8268
X4.7074Y-3.1762
X4.7074Y-3.5662
X4.7074Y-3.7762
X4.7074Y-4.1662
X4.7376Y-3.9464
X4.7376Y-4.5464
X4.8074Y-3.1762
X4.8074Y-3.5662
X4.8074Y-3.7762
X4.8074Y-4.1662
X4.8376Y-3.9464
X4.8376Y-4.5464
X4.9074Y-3.1762
X4.9074Y-3.7762
X4.9376Y-3.9464
X4.9376Y-4.5464
X5.0376Y-3.9464
X5.0376Y-4.5464
X5.1376Y-3.9464
X5.1376Y-4.5464
X5.2376Y-3.9464
X5.2376Y-4.5464
X5.3376Y-3.9464
X5.3376Y-4.5464
X5.4376Y-3.9464
X5.4376Y-4.5464
T3
X2.0555Y-2.5496
X2.0555Y-2.6496
X2.1555Y-2.5496
X2.1555Y-2.6496
X2.2976Y-2.6506
X2.3957Y-2.124
X2.3976Y-2.6506
X2.4957Y-2.124
X2.4976Y-2.6506
X2.5957Y-2.124
X2.5976Y-2.6506
X2.6957Y-2.124
X2.6976Y-2.6506
X2.7957Y-2.124
X2.7976Y-2.6506
X2.8957Y-2.124
X2.8976Y-2.6506
X2.9957Y-2.124
X2.9976Y-2.6506
X3.0957Y-2.124
X3.0976Y-2.6506
X3.1957Y-2.124
X3.1976Y-2.6506
X3.2957Y-2.124
X3.2976Y-2.6506
X3.3957Y-2.124
X3.3976Y-2.6506
X3.5236Y-2.5531
X3.5236Y-2.6531
X3.6236Y-2.5531
X3.6236Y-2.6531
X3.6365Y-2.0866
X3.6365Y-2.1866
X3.6365Y-2.3228
X3.6365Y-2.4228
X3.6365Y-5.4512
X3.6365Y-5.5512
X3.6365Y-5.6874
X3.6365Y-5.7874
X3.6888Y-4.6801
X3.7365Y-2.0866
X3.7365Y-2.1866
X3.7365Y-2.3228
X3.7365Y-2.4228
X3.7365Y-5.4512
X3.7365Y-5.5512
X3.7365Y-5.6874
X3.7365Y-5.7874
X3.7888Y-4.6801
X3.8365Y-2.0866
X3.8365Y-2.1866
X3.8365Y-2.3228
X3.8365Y-2.4228
X3.8365Y-5.4512
X3.8365Y-5.5512
X3.8365Y-5.6874
X3.8365Y-5.7874
X3.8888Y-4.6801
X3.9365Y-2.0866
X3.9365Y-2.1866
X3.9365Y-2.3228
X3.9365Y-2.4228
X3.9365Y-5.4512
X3.9365Y-5.5512
X3.9365Y-5.6874
X3.9365Y-5.7874
X4.0365Y-2.0866
X4.0365Y-2.1866
X4.0365Y-2.3228
X4.0365Y-2.4228
X4.0365Y-5.4512
X4.0365Y-5.5512
X4.0365Y-5.6874
X4.0365Y-5.7874
X4.1365Y-2.0866
X4.1365Y-2.1866
X4.1365Y-2.3228
X4.1365Y-2.4228
X4.1365Y-5.4512
X4.1365Y-5.5512
X4.1365Y-5.6874
X4.1365Y-5.7874
X4.2365Y-2.0866
X4.2365Y-2.1866
X4.2365Y-2.3228
X4.2365Y-2.4228
X4.2365Y-5.4512
X4.2365Y-5.5512
X4.2365Y-5.6874
X4.2365Y-5.7874
X4.3033Y-5.2963
X4.3304Y-4.9007
X4.3304Y-5.0007
X4.3365Y-2.0866
X4.3365Y-2.1866
X4.3365Y-2.3228
X4.3365Y-2.4228
X4.3365Y-5.4512
X4.3365Y-5.5512
X4.3365Y-5.6874
X4.3365Y-5.7874
X4.3719Y-3.0364
X4.4033Y-5.2963
X4.4304Y-4.9007
X4.4304Y-5.0007
X4.4365Y-2.0866
X4.4365Y-2.1866
X4.4365Y-2.3228
X4.4365Y-2.4228
X4.4365Y-5.4512
X4.4365Y-5.5512
X4.4365Y-5.6874
X4.4365Y-5.7874
X4.4719Y-3.0364
X4.5033Y-5.2963
X4.5365Y-2.0866
X4.5365Y-2.1866
X4.5365Y-2.3228
X4.5365Y-2.4228
X4.5365Y-5.4512
X4.5365Y-5.5512
X4.5365Y-5.6874
X4.5365Y-5.7874
X4.5719Y-3.0364
X4.6033Y-5.2963
X4.6365Y-2.0866
X4.6365Y-2.1866
X4.6365Y-2.3228
X4.6365Y-2.4228
X4.6365Y-5.4512
X4.6365Y-5.5512
X4.6365Y-5.6874
X4.6365Y-5.7874
X4.7033Y-5.2963
X4.713Y-4.8039
X4.713Y-4.9039
X4.713Y-5.0039
X4.7365Y-2.0866
X4.7365Y-2.1866
X4.7365Y-2.3228
X4.7365Y-2.4228
X4.7365Y-5.4512
X4.7365Y-5.5512
X4.7365Y-5.6874
X4.7365Y-5.7874
X4.8033Y-5.2963
X4.813Y-4.8039
X4.813Y-4.9039
X4.813Y-5.0039
X4.8365Y-2.0866
X4.8365Y-2.1866
X4.8365Y-2.3228
X4.8365Y-2.4228
X4.8365Y-5.4512
X4.8365Y-5.5512
X4.8365Y-5.6874
X4.8365Y-5.7874
X4.9033Y-5.2963
X4.9365Y-2.0866
X4.9365Y-2.1866
X4.9365Y-2.3228
X4.9365Y-2.4228
X4.9365Y-5.4512
X4.9365Y-5.5512
X4.9365Y-5.6874
X4.9365Y-5.7874
X5.0033Y-5.2963
X5.0365Y-2.0866
X5.0365Y-2.1866
X5.0365Y-2.3228
X5.0365Y-2.4228
X5.0365Y-5.4512
X5.0365Y-5.5512
X5.0365Y-5.6874
X5.0365Y-5.7874
X5.1033Y-5.2963
X5.1365Y-2.0866
X5.1365Y-2.1866
X5.1365Y-2.3228
X5.1365Y-2.4228
X5.1365Y-5.4512
X5.1365Y-5.5512
X5.1365Y-5.6874
X5.1365Y-5.7874
X5.2033Y-5.2963
X5.2365Y-2.0866
X5.2365Y-2.1866
X5.2365Y-2.3228
X5.2365Y-2.4228
X5.2365Y-5.4512
X5.2365Y-5.5512
X5.2365Y-5.6874
X5.2365Y-5.7874
X5.3033Y-5.2963
X5.3365Y-2.0866
X5.3365Y-2.1866
X5.3365Y-2.3228
X5.3365Y-2.4228
X5.3365Y-5.4512
X5.3365Y-5.5512
X5.3365Y-5.6874
X5.3365Y-5.7874
X5.4033Y-5.2963
X5.4365Y-2.0866
X5.4365Y-2.1866
X5.4365Y-2.3228
X5.4365Y-2.4228
X5.4365Y-5.4512
X5.4365Y-5.5512
X5.4365Y-5.6874
X5.4365Y-5.7874
X5.5033Y-5.2963
X5.5365Y-2.0866
X5.5365Y-2.1866
X5.5365Y-2.3228
X5.5365Y-2.4228
X5.5365Y-5.4512
X5.5365Y-5.5512
X5.5365Y-5.6874
X5.5365Y-5.7874
X5.6033Y-5.2963
X5.729Y-5.1092
X5.729Y-5.2092
T4
X2.126Y-2.126
X2.126Y-5.748
X5.748Y-2.126
X5.748Y-5.748
M30
