%TF.GenerationSoftware,KiCad,Pcbnew,8.0.5-8.0.5-0~ubuntu22.04.1*%
%TF.CreationDate,2024-10-11T08:26:29+02:00*%
%TF.ProjectId,WD1771_Board,57443137-3731-45f4-926f-6172642e6b69,rev?*%
%TF.SameCoordinates,Original*%
%TF.FileFunction,Soldermask,Top*%
%TF.FilePolarity,Negative*%
%FSLAX46Y46*%
G04 Gerber Fmt 4.6, Leading zero omitted, Abs format (unit mm)*
G04 Created by KiCad (PCBNEW 8.0.5-8.0.5-0~ubuntu22.04.1) date 2024-10-11 08:26:29*
%MOMM*%
%LPD*%
G01*
G04 APERTURE LIST*
G04 Aperture macros list*
%AMRoundRect*
0 Rectangle with rounded corners*
0 $1 Rounding radius*
0 $2 $3 $4 $5 $6 $7 $8 $9 X,Y pos of 4 corners*
0 Add a 4 corners polygon primitive as box body*
4,1,4,$2,$3,$4,$5,$6,$7,$8,$9,$2,$3,0*
0 Add four circle primitives for the rounded corners*
1,1,$1+$1,$2,$3*
1,1,$1+$1,$4,$5*
1,1,$1+$1,$6,$7*
1,1,$1+$1,$8,$9*
0 Add four rect primitives between the rounded corners*
20,1,$1+$1,$2,$3,$4,$5,0*
20,1,$1+$1,$4,$5,$6,$7,0*
20,1,$1+$1,$6,$7,$8,$9,0*
20,1,$1+$1,$8,$9,$2,$3,0*%
%AMFreePoly0*
4,1,19,0.500000,-0.750000,0.000000,-0.750000,0.000000,-0.744911,-0.071157,-0.744911,-0.207708,-0.704816,-0.327430,-0.627875,-0.420627,-0.520320,-0.479746,-0.390866,-0.500000,-0.250000,-0.500000,0.250000,-0.479746,0.390866,-0.420627,0.520320,-0.327430,0.627875,-0.207708,0.704816,-0.071157,0.744911,0.000000,0.744911,0.000000,0.750000,0.500000,0.750000,0.500000,-0.750000,0.500000,-0.750000,
$1*%
%AMFreePoly1*
4,1,19,0.000000,0.744911,0.071157,0.744911,0.207708,0.704816,0.327430,0.627875,0.420627,0.520320,0.479746,0.390866,0.500000,0.250000,0.500000,-0.250000,0.479746,-0.390866,0.420627,-0.520320,0.327430,-0.627875,0.207708,-0.704816,0.071157,-0.744911,0.000000,-0.744911,0.000000,-0.750000,-0.500000,-0.750000,-0.500000,0.750000,0.000000,0.750000,0.000000,0.744911,0.000000,0.744911,
$1*%
G04 Aperture macros list end*
%ADD10RoundRect,0.150000X0.150000X-0.875000X0.150000X0.875000X-0.150000X0.875000X-0.150000X-0.875000X0*%
%ADD11R,1.700000X1.700000*%
%ADD12O,1.700000X1.700000*%
%ADD13RoundRect,0.250001X-0.462499X-0.624999X0.462499X-0.624999X0.462499X0.624999X-0.462499X0.624999X0*%
%ADD14R,1.000000X1.000000*%
%ADD15R,1.500000X0.550000*%
%ADD16R,0.550000X1.500000*%
%ADD17R,1.350000X1.350000*%
%ADD18RoundRect,0.250000X-0.325000X-0.650000X0.325000X-0.650000X0.325000X0.650000X-0.325000X0.650000X0*%
%ADD19RoundRect,0.162500X-0.162500X0.617500X-0.162500X-0.617500X0.162500X-0.617500X0.162500X0.617500X0*%
%ADD20FreePoly0,270.000000*%
%ADD21FreePoly1,270.000000*%
%ADD22RoundRect,0.150000X-0.825000X-0.150000X0.825000X-0.150000X0.825000X0.150000X-0.825000X0.150000X0*%
%ADD23FreePoly0,0.000000*%
%ADD24FreePoly1,0.000000*%
%ADD25FreePoly0,180.000000*%
%ADD26FreePoly1,180.000000*%
%ADD27C,1.800000*%
%ADD28C,3.200000*%
%ADD29R,1.600000X1.600000*%
%ADD30O,1.600000X1.600000*%
%ADD31C,1.600000*%
%ADD32C,1.440000*%
%ADD33RoundRect,0.150000X0.150000X-0.837500X0.150000X0.837500X-0.150000X0.837500X-0.150000X-0.837500X0*%
%ADD34RoundRect,0.250000X0.400000X0.625000X-0.400000X0.625000X-0.400000X-0.625000X0.400000X-0.625000X0*%
%ADD35RoundRect,0.250000X0.325000X0.650000X-0.325000X0.650000X-0.325000X-0.650000X0.325000X-0.650000X0*%
%ADD36RoundRect,0.250000X-0.650000X0.325000X-0.650000X-0.325000X0.650000X-0.325000X0.650000X0.325000X0*%
%ADD37RoundRect,0.150000X-0.837500X-0.150000X0.837500X-0.150000X0.837500X0.150000X-0.837500X0.150000X0*%
G04 APERTURE END LIST*
D10*
%TO.C,U8*%
X99983783Y-74321416D03*
X101253783Y-74321416D03*
X102523783Y-74321416D03*
X103793783Y-74321416D03*
X105063783Y-74321416D03*
X106333783Y-74321416D03*
X107603783Y-74321416D03*
X108873783Y-74321416D03*
X110143783Y-74321416D03*
X111413783Y-74321416D03*
X111413783Y-65021416D03*
X110143783Y-65021416D03*
X108873783Y-65021416D03*
X107603783Y-65021416D03*
X106333783Y-65021416D03*
X105063783Y-65021416D03*
X103793783Y-65021416D03*
X102523783Y-65021416D03*
X101253783Y-65021416D03*
X99983783Y-65021416D03*
%TD*%
D11*
%TO.C,J30*%
X64262000Y-54356000D03*
D12*
X61722000Y-54356000D03*
X64262000Y-56896000D03*
X61722000Y-56896000D03*
%TD*%
D13*
%TO.C,D12*%
X61885500Y-135255000D03*
X64860500Y-135255000D03*
%TD*%
D14*
%TO.C,J29*%
X83058000Y-131064000D03*
%TD*%
D15*
%TO.C,U4*%
X66705000Y-77420000D03*
X66705000Y-78220000D03*
X66705000Y-79020000D03*
X66705000Y-79820000D03*
X66705000Y-80620000D03*
X66705000Y-81420000D03*
X66705000Y-82220000D03*
X66705000Y-83020000D03*
X66705000Y-83820000D03*
X66705000Y-84620000D03*
X66705000Y-85420000D03*
D16*
X68405000Y-87120000D03*
X69205000Y-87120000D03*
X70005000Y-87120000D03*
X70805000Y-87120000D03*
X71605000Y-87120000D03*
X72405000Y-87120000D03*
X73205000Y-87120000D03*
X74005000Y-87120000D03*
X74805000Y-87120000D03*
X75605000Y-87120000D03*
X76405000Y-87120000D03*
D15*
X78105000Y-85420000D03*
X78105000Y-84620000D03*
X78105000Y-83820000D03*
X78105000Y-83020000D03*
X78105000Y-82220000D03*
X78105000Y-81420000D03*
X78105000Y-80620000D03*
X78105000Y-79820000D03*
X78105000Y-79020000D03*
X78105000Y-78220000D03*
X78105000Y-77420000D03*
D16*
X76405000Y-75720000D03*
X75605000Y-75720000D03*
X74805000Y-75720000D03*
X74005000Y-75720000D03*
X73205000Y-75720000D03*
X72405000Y-75720000D03*
X71605000Y-75720000D03*
X70805000Y-75720000D03*
X70005000Y-75720000D03*
X69205000Y-75720000D03*
X68405000Y-75720000D03*
%TD*%
D11*
%TO.C,J15*%
X83185000Y-72390000D03*
D12*
X83185000Y-74930000D03*
X83185000Y-77470000D03*
X83185000Y-80010000D03*
X83185000Y-82550000D03*
X83185000Y-85090000D03*
X83185000Y-87630000D03*
X83185000Y-90170000D03*
X83185000Y-92710000D03*
%TD*%
D17*
%TO.C,J8*%
X91694000Y-67818000D03*
%TD*%
D11*
%TO.C,J1*%
X92367000Y-53000000D03*
D12*
X92367000Y-55540000D03*
X94907000Y-53000000D03*
X94907000Y-55540000D03*
X97447000Y-53000000D03*
X97447000Y-55540000D03*
X99987000Y-53000000D03*
X99987000Y-55540000D03*
X102527000Y-53000000D03*
X102527000Y-55540000D03*
X105067000Y-53000000D03*
X105067000Y-55540000D03*
X107607000Y-53000000D03*
X107607000Y-55540000D03*
X110147000Y-53000000D03*
X110147000Y-55540000D03*
X112687000Y-53000000D03*
X112687000Y-55540000D03*
X115227000Y-53000000D03*
X115227000Y-55540000D03*
X117767000Y-53000000D03*
X117767000Y-55540000D03*
X120307000Y-53000000D03*
X120307000Y-55540000D03*
X122847000Y-53000000D03*
X122847000Y-55540000D03*
X125387000Y-53000000D03*
X125387000Y-55540000D03*
X127927000Y-53000000D03*
X127927000Y-55540000D03*
X130467000Y-53000000D03*
X130467000Y-55540000D03*
X133007000Y-53000000D03*
X133007000Y-55540000D03*
X135547000Y-53000000D03*
X135547000Y-55540000D03*
X138087000Y-53000000D03*
X138087000Y-55540000D03*
X140627000Y-53000000D03*
X140627000Y-55540000D03*
%TD*%
D11*
%TO.C,JP6*%
X135255000Y-91948000D03*
D12*
X137795000Y-91948000D03*
%TD*%
D11*
%TO.C,J12*%
X55540000Y-140627000D03*
D12*
X53000000Y-140627000D03*
X55540000Y-138087000D03*
X53000000Y-138087000D03*
X55540000Y-135547000D03*
X53000000Y-135547000D03*
X55540000Y-133007000D03*
X53000000Y-133007000D03*
X55540000Y-130467000D03*
X53000000Y-130467000D03*
X55540000Y-127927000D03*
X53000000Y-127927000D03*
X55540000Y-125387000D03*
X53000000Y-125387000D03*
X55540000Y-122847000D03*
X53000000Y-122847000D03*
X55540000Y-120307000D03*
X53000000Y-120307000D03*
X55540000Y-117767000D03*
X53000000Y-117767000D03*
X55540000Y-115227000D03*
X53000000Y-115227000D03*
X55540000Y-112687000D03*
X53000000Y-112687000D03*
X55540000Y-110147000D03*
X53000000Y-110147000D03*
X55540000Y-107607000D03*
X53000000Y-107607000D03*
X55540000Y-105067000D03*
X53000000Y-105067000D03*
X55540000Y-102527000D03*
X53000000Y-102527000D03*
X55540000Y-99987000D03*
X53000000Y-99987000D03*
%TD*%
D18*
%TO.C,C3*%
X144725000Y-64500000D03*
X147675000Y-64500000D03*
%TD*%
D13*
%TO.C,D6*%
X61922000Y-120269000D03*
X64897000Y-120269000D03*
%TD*%
D19*
%TO.C,U5*%
X146172000Y-121760000D03*
X145222000Y-121760000D03*
X144272000Y-121760000D03*
X144272000Y-124460000D03*
X146172000Y-124460000D03*
%TD*%
D20*
%TO.C,JP8*%
X99822000Y-77186000D03*
D21*
X99822000Y-78486000D03*
%TD*%
D11*
%TO.C,JP3*%
X86614000Y-131572000D03*
D12*
X86614000Y-134112000D03*
X86614000Y-136652000D03*
%TD*%
D17*
%TO.C,J9*%
X118745000Y-73914000D03*
%TD*%
D11*
%TO.C,J4*%
X140627000Y-141000000D03*
D12*
X140627000Y-138460000D03*
X138087000Y-141000000D03*
X138087000Y-138460000D03*
X135547000Y-141000000D03*
X135547000Y-138460000D03*
X133007000Y-141000000D03*
X133007000Y-138460000D03*
X130467000Y-141000000D03*
X130467000Y-138460000D03*
X127927000Y-141000000D03*
X127927000Y-138460000D03*
X125387000Y-141000000D03*
X125387000Y-138460000D03*
X122847000Y-141000000D03*
X122847000Y-138460000D03*
X120307000Y-141000000D03*
X120307000Y-138460000D03*
X117767000Y-141000000D03*
X117767000Y-138460000D03*
X115227000Y-141000000D03*
X115227000Y-138460000D03*
X112687000Y-141000000D03*
X112687000Y-138460000D03*
X110147000Y-141000000D03*
X110147000Y-138460000D03*
X107607000Y-141000000D03*
X107607000Y-138460000D03*
X105067000Y-141000000D03*
X105067000Y-138460000D03*
X102527000Y-141000000D03*
X102527000Y-138460000D03*
X99987000Y-141000000D03*
X99987000Y-138460000D03*
X97447000Y-141000000D03*
X97447000Y-138460000D03*
X94907000Y-141000000D03*
X94907000Y-138460000D03*
X92367000Y-141000000D03*
X92367000Y-138460000D03*
%TD*%
D11*
%TO.C,J31*%
X84094000Y-54376000D03*
D12*
X81554000Y-54376000D03*
X84094000Y-56916000D03*
X81554000Y-56916000D03*
%TD*%
D14*
%TO.C,J28*%
X83058000Y-132842000D03*
%TD*%
D11*
%TO.C,J7*%
X83185000Y-69850000D03*
D12*
X80645000Y-69850000D03*
X78105000Y-69850000D03*
X75565000Y-69850000D03*
X73025000Y-69850000D03*
X70485000Y-69850000D03*
X67945000Y-69850000D03*
X65405000Y-69850000D03*
%TD*%
D14*
%TO.C,J18*%
X81026000Y-114554000D03*
%TD*%
D22*
%TO.C,U6*%
X72266000Y-131572000D03*
X72266000Y-132842000D03*
X72266000Y-134112000D03*
X72266000Y-135382000D03*
X72266000Y-136652000D03*
X72266000Y-137922000D03*
X72266000Y-139192000D03*
X72266000Y-140462000D03*
X77216000Y-140462000D03*
X77216000Y-139192000D03*
X77216000Y-137922000D03*
X77216000Y-136652000D03*
X77216000Y-135382000D03*
X77216000Y-134112000D03*
X77216000Y-132842000D03*
X77216000Y-131572000D03*
%TD*%
D14*
%TO.C,J17*%
X68834000Y-127000000D03*
%TD*%
D11*
%TO.C,JP1*%
X62738000Y-143256000D03*
D12*
X65278000Y-143256000D03*
X67818000Y-143256000D03*
%TD*%
D17*
%TO.C,J10*%
X118745000Y-70993000D03*
%TD*%
D23*
%TO.C,JP2*%
X56754000Y-94615000D03*
D24*
X58054000Y-94615000D03*
%TD*%
D14*
%TO.C,J27*%
X83058000Y-134620000D03*
%TD*%
%TO.C,J34*%
X104140000Y-107696000D03*
%TD*%
%TO.C,J20*%
X81026000Y-125984000D03*
%TD*%
D25*
%TO.C,JP4*%
X142625000Y-128050000D03*
D26*
X141325000Y-128050000D03*
%TD*%
D13*
%TO.C,D5*%
X61922000Y-110109000D03*
X64897000Y-110109000D03*
%TD*%
%TO.C,D14*%
X61904500Y-140678000D03*
X64879500Y-140678000D03*
%TD*%
%TO.C,D11*%
X61885500Y-130302000D03*
X64860500Y-130302000D03*
%TD*%
D23*
%TO.C,JP7*%
X100096800Y-112674400D03*
D24*
X101396800Y-112674400D03*
%TD*%
D13*
%TO.C,D8*%
X61922000Y-122809000D03*
X64897000Y-122809000D03*
%TD*%
D17*
%TO.C,J5*%
X96225000Y-64925000D03*
%TD*%
D11*
%TO.C,J26*%
X145517000Y-132314000D03*
D12*
X145517000Y-129774000D03*
%TD*%
D11*
%TO.C,J2*%
X140627000Y-147000000D03*
D12*
X140627000Y-144460000D03*
X138087000Y-147000000D03*
X138087000Y-144460000D03*
X135547000Y-147000000D03*
X135547000Y-144460000D03*
X133007000Y-147000000D03*
X133007000Y-144460000D03*
X130467000Y-147000000D03*
X130467000Y-144460000D03*
X127927000Y-147000000D03*
X127927000Y-144460000D03*
X125387000Y-147000000D03*
X125387000Y-144460000D03*
X122847000Y-147000000D03*
X122847000Y-144460000D03*
X120307000Y-147000000D03*
X120307000Y-144460000D03*
X117767000Y-147000000D03*
X117767000Y-144460000D03*
X115227000Y-147000000D03*
X115227000Y-144460000D03*
X112687000Y-147000000D03*
X112687000Y-144460000D03*
X110147000Y-147000000D03*
X110147000Y-144460000D03*
X107607000Y-147000000D03*
X107607000Y-144460000D03*
X105067000Y-147000000D03*
X105067000Y-144460000D03*
X102527000Y-147000000D03*
X102527000Y-144460000D03*
X99987000Y-147000000D03*
X99987000Y-144460000D03*
X97447000Y-147000000D03*
X97447000Y-144460000D03*
X94907000Y-147000000D03*
X94907000Y-144460000D03*
X92367000Y-147000000D03*
X92367000Y-144460000D03*
%TD*%
D11*
%TO.C,J32*%
X55540000Y-73660000D03*
D12*
X53000000Y-73660000D03*
X55540000Y-71120000D03*
X53000000Y-71120000D03*
X55540000Y-68580000D03*
X53000000Y-68580000D03*
X55540000Y-66040000D03*
X53000000Y-66040000D03*
X55540000Y-63500000D03*
X53000000Y-63500000D03*
%TD*%
D11*
%TO.C,J14*%
X55540000Y-88900000D03*
D12*
X53000000Y-88900000D03*
X55540000Y-86360000D03*
X53000000Y-86360000D03*
X55540000Y-83820000D03*
X53000000Y-83820000D03*
X55540000Y-81280000D03*
X53000000Y-81280000D03*
X55540000Y-78740000D03*
X53000000Y-78740000D03*
%TD*%
D27*
%TO.C,C9*%
X104902000Y-123698000D03*
X101092000Y-120205500D03*
X101092000Y-127190500D03*
%TD*%
D13*
%TO.C,D10*%
X61883500Y-127824000D03*
X64858500Y-127824000D03*
%TD*%
%TO.C,D2*%
X61922000Y-99949000D03*
X64897000Y-99949000D03*
%TD*%
D28*
%TO.C,H3*%
X146000000Y-54000000D03*
%TD*%
D14*
%TO.C,J22*%
X83058000Y-141732000D03*
%TD*%
%TO.C,J33*%
X104140000Y-101219000D03*
%TD*%
D13*
%TO.C,D4*%
X61922000Y-107569000D03*
X64897000Y-107569000D03*
%TD*%
D29*
%TO.C,U3*%
X123317000Y-124206000D03*
D30*
X123317000Y-121666000D03*
X123317000Y-119126000D03*
X123317000Y-116586000D03*
X123317000Y-114046000D03*
X123317000Y-111506000D03*
X123317000Y-108966000D03*
X123317000Y-106426000D03*
X123317000Y-103886000D03*
X123317000Y-101346000D03*
X123317000Y-98806000D03*
X123317000Y-96266000D03*
X123317000Y-93726000D03*
X123317000Y-91186000D03*
X108077000Y-91186000D03*
X108077000Y-93726000D03*
X108077000Y-96266000D03*
X108077000Y-98806000D03*
X108077000Y-101346000D03*
X108077000Y-103886000D03*
X108077000Y-106426000D03*
X108077000Y-108966000D03*
X108077000Y-111506000D03*
X108077000Y-114046000D03*
X108077000Y-116586000D03*
X108077000Y-119126000D03*
X108077000Y-121666000D03*
X108077000Y-124206000D03*
%TD*%
D14*
%TO.C,J19*%
X68580000Y-113284000D03*
%TD*%
%TO.C,J35*%
X105003600Y-115316000D03*
%TD*%
D13*
%TO.C,D3*%
X61904500Y-102616000D03*
X64879500Y-102616000D03*
%TD*%
D14*
%TO.C,J24*%
X83058000Y-136398000D03*
%TD*%
D11*
%TO.C,J11*%
X142325000Y-134525000D03*
D12*
X139785000Y-134525000D03*
X137245000Y-134525000D03*
X134705000Y-134525000D03*
X132165000Y-134525000D03*
X129625000Y-134525000D03*
X127085000Y-134525000D03*
X124545000Y-134525000D03*
X122005000Y-134525000D03*
X119465000Y-134525000D03*
X116925000Y-134525000D03*
X114385000Y-134525000D03*
X111845000Y-134525000D03*
X109305000Y-134525000D03*
%TD*%
D13*
%TO.C,D9*%
X61922000Y-125349000D03*
X64897000Y-125349000D03*
%TD*%
D29*
%TO.C,X1*%
X138176000Y-86360000D03*
D31*
X145796000Y-86360000D03*
X145796000Y-78740000D03*
X138176000Y-78740000D03*
%TD*%
D11*
%TO.C,J3*%
X92367000Y-59000000D03*
D12*
X92367000Y-61540000D03*
X94907000Y-59000000D03*
X94907000Y-61540000D03*
X97447000Y-59000000D03*
X97447000Y-61540000D03*
X99987000Y-59000000D03*
X99987000Y-61540000D03*
X102527000Y-59000000D03*
X102527000Y-61540000D03*
X105067000Y-59000000D03*
X105067000Y-61540000D03*
X107607000Y-59000000D03*
X107607000Y-61540000D03*
X110147000Y-59000000D03*
X110147000Y-61540000D03*
X112687000Y-59000000D03*
X112687000Y-61540000D03*
X115227000Y-59000000D03*
X115227000Y-61540000D03*
X117767000Y-59000000D03*
X117767000Y-61540000D03*
X120307000Y-59000000D03*
X120307000Y-61540000D03*
X122847000Y-59000000D03*
X122847000Y-61540000D03*
X125387000Y-59000000D03*
X125387000Y-61540000D03*
X127927000Y-59000000D03*
X127927000Y-61540000D03*
X130467000Y-59000000D03*
X130467000Y-61540000D03*
X133007000Y-59000000D03*
X133007000Y-61540000D03*
X135547000Y-59000000D03*
X135547000Y-61540000D03*
X138087000Y-59000000D03*
X138087000Y-61540000D03*
X140627000Y-59000000D03*
X140627000Y-61540000D03*
%TD*%
D14*
%TO.C,J21*%
X58039000Y-92456000D03*
%TD*%
D13*
%TO.C,D13*%
X61904500Y-138049000D03*
X64879500Y-138049000D03*
%TD*%
D32*
%TO.C,RV1*%
X135052000Y-96680000D03*
X135052000Y-99220000D03*
X135052000Y-101760000D03*
%TD*%
D25*
%TO.C,JP9*%
X92964000Y-65278000D03*
D26*
X91664000Y-65278000D03*
%TD*%
D14*
%TO.C,J23*%
X83058000Y-139954000D03*
%TD*%
D11*
%TO.C,J16*%
X62230000Y-92710000D03*
D12*
X64770000Y-92710000D03*
X67310000Y-92710000D03*
X69850000Y-92710000D03*
X72390000Y-92710000D03*
X74930000Y-92710000D03*
X77470000Y-92710000D03*
X80010000Y-92710000D03*
%TD*%
D33*
%TO.C,U9*%
X98714717Y-71919580D03*
X99984717Y-71919580D03*
X101254717Y-71919580D03*
X102524717Y-71919580D03*
X103794717Y-71919580D03*
X105064717Y-71919580D03*
X106334717Y-71919580D03*
X107604717Y-71919580D03*
X108874717Y-71919580D03*
X110144717Y-71919580D03*
X111414717Y-71919580D03*
X112684717Y-71919580D03*
X112684717Y-64994580D03*
X111414717Y-64994580D03*
X110144717Y-64994580D03*
X108874717Y-64994580D03*
X107604717Y-64994580D03*
X106334717Y-64994580D03*
X105064717Y-64994580D03*
X103794717Y-64994580D03*
X102524717Y-64994580D03*
X101254717Y-64994580D03*
X99984717Y-64994580D03*
X98714717Y-64994580D03*
%TD*%
D28*
%TO.C,H1*%
X54000000Y-54000000D03*
%TD*%
D34*
%TO.C,R8*%
X89154000Y-116840000D03*
X86054000Y-116840000D03*
%TD*%
D14*
%TO.C,J25*%
X83058000Y-138176000D03*
%TD*%
D13*
%TO.C,D7*%
X61922000Y-117729000D03*
X64897000Y-117729000D03*
%TD*%
D28*
%TO.C,H2*%
X54000000Y-146000000D03*
%TD*%
D35*
%TO.C,C7*%
X142100000Y-122525000D03*
X139150000Y-122525000D03*
%TD*%
D11*
%TO.C,J6*%
X62230000Y-69850000D03*
D12*
X62230000Y-72390000D03*
X62230000Y-74930000D03*
X62230000Y-77470000D03*
X62230000Y-80010000D03*
X62230000Y-82550000D03*
X62230000Y-85090000D03*
X62230000Y-87630000D03*
X62230000Y-90170000D03*
%TD*%
D36*
%TO.C,C4*%
X96520000Y-68170000D03*
X96520000Y-71120000D03*
%TD*%
D37*
%TO.C,U2*%
X71120000Y-103124000D03*
X71120000Y-104394000D03*
X71120000Y-105664000D03*
X71120000Y-106934000D03*
X71120000Y-108204000D03*
X71120000Y-109474000D03*
X71120000Y-110744000D03*
X71120000Y-112014000D03*
X71120000Y-113284000D03*
X71120000Y-114554000D03*
X78045000Y-114554000D03*
X78045000Y-113284000D03*
X78045000Y-112014000D03*
X78045000Y-110744000D03*
X78045000Y-109474000D03*
X78045000Y-108204000D03*
X78045000Y-106934000D03*
X78045000Y-105664000D03*
X78045000Y-104394000D03*
X78045000Y-103124000D03*
%TD*%
D29*
%TO.C,U7*%
X128651000Y-129271000D03*
D30*
X128651000Y-126731000D03*
X128651000Y-124191000D03*
X128651000Y-121651000D03*
X128651000Y-119111000D03*
X128651000Y-116571000D03*
X128651000Y-114031000D03*
X128651000Y-111491000D03*
X128651000Y-108951000D03*
X128651000Y-106411000D03*
X128651000Y-103871000D03*
X128651000Y-101331000D03*
X128651000Y-98791000D03*
X128651000Y-96251000D03*
X128651000Y-93711000D03*
X128651000Y-91171000D03*
X128651000Y-88631000D03*
X128651000Y-86091000D03*
X128651000Y-83551000D03*
X128651000Y-81011000D03*
X113411000Y-81011000D03*
X113411000Y-83551000D03*
X113411000Y-86091000D03*
X113411000Y-88631000D03*
X113411000Y-91171000D03*
X113411000Y-93711000D03*
X113411000Y-96251000D03*
X113411000Y-98791000D03*
X113411000Y-101331000D03*
X113411000Y-103871000D03*
X113411000Y-106411000D03*
X113411000Y-108951000D03*
X113411000Y-111491000D03*
X113411000Y-114031000D03*
X113411000Y-116571000D03*
X113411000Y-119111000D03*
X113411000Y-121651000D03*
X113411000Y-124191000D03*
X113411000Y-126731000D03*
X113411000Y-129271000D03*
%TD*%
D32*
%TO.C,RV2*%
X135000000Y-103975000D03*
X135000000Y-106515000D03*
X135000000Y-109055000D03*
%TD*%
D34*
%TO.C,R10*%
X89154000Y-111760000D03*
X86054000Y-111760000D03*
%TD*%
%TO.C,R9*%
X89206000Y-114300000D03*
X86106000Y-114300000D03*
%TD*%
D11*
%TO.C,J13*%
X59000000Y-140627000D03*
D12*
X59000000Y-138087000D03*
X59000000Y-135547000D03*
X59000000Y-133007000D03*
X59000000Y-130467000D03*
X59000000Y-127927000D03*
X59000000Y-125387000D03*
X59000000Y-122847000D03*
X59000000Y-120307000D03*
X59000000Y-117767000D03*
X59000000Y-115227000D03*
X59000000Y-112687000D03*
X59000000Y-110147000D03*
X59000000Y-107607000D03*
X59000000Y-105067000D03*
X59000000Y-102527000D03*
X59000000Y-99987000D03*
%TD*%
D28*
%TO.C,H4*%
X146000000Y-146000000D03*
%TD*%
M02*
