%TF.GenerationSoftware,KiCad,Pcbnew,8.0.5-8.0.5-0~ubuntu22.04.1*%
%TF.CreationDate,2024-10-11T08:26:29+02:00*%
%TF.ProjectId,WD1771_Board,57443137-3731-45f4-926f-6172642e6b69,rev?*%
%TF.SameCoordinates,Original*%
%TF.FileFunction,Paste,Top*%
%TF.FilePolarity,Positive*%
%FSLAX46Y46*%
G04 Gerber Fmt 4.6, Leading zero omitted, Abs format (unit mm)*
G04 Created by KiCad (PCBNEW 8.0.5-8.0.5-0~ubuntu22.04.1) date 2024-10-11 08:26:29*
%MOMM*%
%LPD*%
G01*
G04 APERTURE LIST*
G04 Aperture macros list*
%AMRoundRect*
0 Rectangle with rounded corners*
0 $1 Rounding radius*
0 $2 $3 $4 $5 $6 $7 $8 $9 X,Y pos of 4 corners*
0 Add a 4 corners polygon primitive as box body*
4,1,4,$2,$3,$4,$5,$6,$7,$8,$9,$2,$3,0*
0 Add four circle primitives for the rounded corners*
1,1,$1+$1,$2,$3*
1,1,$1+$1,$4,$5*
1,1,$1+$1,$6,$7*
1,1,$1+$1,$8,$9*
0 Add four rect primitives between the rounded corners*
20,1,$1+$1,$2,$3,$4,$5,0*
20,1,$1+$1,$4,$5,$6,$7,0*
20,1,$1+$1,$6,$7,$8,$9,0*
20,1,$1+$1,$8,$9,$2,$3,0*%
G04 Aperture macros list end*
%ADD10RoundRect,0.150000X0.150000X-0.875000X0.150000X0.875000X-0.150000X0.875000X-0.150000X-0.875000X0*%
%ADD11RoundRect,0.250001X-0.462499X-0.624999X0.462499X-0.624999X0.462499X0.624999X-0.462499X0.624999X0*%
%ADD12R,1.500000X0.550000*%
%ADD13R,0.550000X1.500000*%
%ADD14RoundRect,0.250000X-0.325000X-0.650000X0.325000X-0.650000X0.325000X0.650000X-0.325000X0.650000X0*%
%ADD15RoundRect,0.162500X-0.162500X0.617500X-0.162500X-0.617500X0.162500X-0.617500X0.162500X0.617500X0*%
%ADD16RoundRect,0.150000X-0.825000X-0.150000X0.825000X-0.150000X0.825000X0.150000X-0.825000X0.150000X0*%
%ADD17RoundRect,0.150000X0.150000X-0.837500X0.150000X0.837500X-0.150000X0.837500X-0.150000X-0.837500X0*%
%ADD18RoundRect,0.250000X0.400000X0.625000X-0.400000X0.625000X-0.400000X-0.625000X0.400000X-0.625000X0*%
%ADD19RoundRect,0.250000X0.325000X0.650000X-0.325000X0.650000X-0.325000X-0.650000X0.325000X-0.650000X0*%
%ADD20RoundRect,0.250000X-0.650000X0.325000X-0.650000X-0.325000X0.650000X-0.325000X0.650000X0.325000X0*%
%ADD21RoundRect,0.150000X-0.837500X-0.150000X0.837500X-0.150000X0.837500X0.150000X-0.837500X0.150000X0*%
G04 APERTURE END LIST*
D10*
%TO.C,U8*%
X99983783Y-74321416D03*
X101253783Y-74321416D03*
X102523783Y-74321416D03*
X103793783Y-74321416D03*
X105063783Y-74321416D03*
X106333783Y-74321416D03*
X107603783Y-74321416D03*
X108873783Y-74321416D03*
X110143783Y-74321416D03*
X111413783Y-74321416D03*
X111413783Y-65021416D03*
X110143783Y-65021416D03*
X108873783Y-65021416D03*
X107603783Y-65021416D03*
X106333783Y-65021416D03*
X105063783Y-65021416D03*
X103793783Y-65021416D03*
X102523783Y-65021416D03*
X101253783Y-65021416D03*
X99983783Y-65021416D03*
%TD*%
D11*
%TO.C,D12*%
X61885500Y-135255000D03*
X64860500Y-135255000D03*
%TD*%
D12*
%TO.C,U4*%
X66705000Y-77420000D03*
X66705000Y-78220000D03*
X66705000Y-79020000D03*
X66705000Y-79820000D03*
X66705000Y-80620000D03*
X66705000Y-81420000D03*
X66705000Y-82220000D03*
X66705000Y-83020000D03*
X66705000Y-83820000D03*
X66705000Y-84620000D03*
X66705000Y-85420000D03*
D13*
X68405000Y-87120000D03*
X69205000Y-87120000D03*
X70005000Y-87120000D03*
X70805000Y-87120000D03*
X71605000Y-87120000D03*
X72405000Y-87120000D03*
X73205000Y-87120000D03*
X74005000Y-87120000D03*
X74805000Y-87120000D03*
X75605000Y-87120000D03*
X76405000Y-87120000D03*
D12*
X78105000Y-85420000D03*
X78105000Y-84620000D03*
X78105000Y-83820000D03*
X78105000Y-83020000D03*
X78105000Y-82220000D03*
X78105000Y-81420000D03*
X78105000Y-80620000D03*
X78105000Y-79820000D03*
X78105000Y-79020000D03*
X78105000Y-78220000D03*
X78105000Y-77420000D03*
D13*
X76405000Y-75720000D03*
X75605000Y-75720000D03*
X74805000Y-75720000D03*
X74005000Y-75720000D03*
X73205000Y-75720000D03*
X72405000Y-75720000D03*
X71605000Y-75720000D03*
X70805000Y-75720000D03*
X70005000Y-75720000D03*
X69205000Y-75720000D03*
X68405000Y-75720000D03*
%TD*%
D14*
%TO.C,C3*%
X144725000Y-64500000D03*
X147675000Y-64500000D03*
%TD*%
D11*
%TO.C,D6*%
X61922000Y-120269000D03*
X64897000Y-120269000D03*
%TD*%
D15*
%TO.C,U5*%
X146172000Y-121760000D03*
X145222000Y-121760000D03*
X144272000Y-121760000D03*
X144272000Y-124460000D03*
X146172000Y-124460000D03*
%TD*%
D16*
%TO.C,U6*%
X72266000Y-131572000D03*
X72266000Y-132842000D03*
X72266000Y-134112000D03*
X72266000Y-135382000D03*
X72266000Y-136652000D03*
X72266000Y-137922000D03*
X72266000Y-139192000D03*
X72266000Y-140462000D03*
X77216000Y-140462000D03*
X77216000Y-139192000D03*
X77216000Y-137922000D03*
X77216000Y-136652000D03*
X77216000Y-135382000D03*
X77216000Y-134112000D03*
X77216000Y-132842000D03*
X77216000Y-131572000D03*
%TD*%
D11*
%TO.C,D5*%
X61922000Y-110109000D03*
X64897000Y-110109000D03*
%TD*%
%TO.C,D14*%
X61904500Y-140678000D03*
X64879500Y-140678000D03*
%TD*%
%TO.C,D11*%
X61885500Y-130302000D03*
X64860500Y-130302000D03*
%TD*%
%TO.C,D8*%
X61922000Y-122809000D03*
X64897000Y-122809000D03*
%TD*%
%TO.C,D10*%
X61883500Y-127824000D03*
X64858500Y-127824000D03*
%TD*%
%TO.C,D2*%
X61922000Y-99949000D03*
X64897000Y-99949000D03*
%TD*%
%TO.C,D4*%
X61922000Y-107569000D03*
X64897000Y-107569000D03*
%TD*%
%TO.C,D3*%
X61904500Y-102616000D03*
X64879500Y-102616000D03*
%TD*%
%TO.C,D9*%
X61922000Y-125349000D03*
X64897000Y-125349000D03*
%TD*%
%TO.C,D13*%
X61904500Y-138049000D03*
X64879500Y-138049000D03*
%TD*%
D17*
%TO.C,U9*%
X98714717Y-71919580D03*
X99984717Y-71919580D03*
X101254717Y-71919580D03*
X102524717Y-71919580D03*
X103794717Y-71919580D03*
X105064717Y-71919580D03*
X106334717Y-71919580D03*
X107604717Y-71919580D03*
X108874717Y-71919580D03*
X110144717Y-71919580D03*
X111414717Y-71919580D03*
X112684717Y-71919580D03*
X112684717Y-64994580D03*
X111414717Y-64994580D03*
X110144717Y-64994580D03*
X108874717Y-64994580D03*
X107604717Y-64994580D03*
X106334717Y-64994580D03*
X105064717Y-64994580D03*
X103794717Y-64994580D03*
X102524717Y-64994580D03*
X101254717Y-64994580D03*
X99984717Y-64994580D03*
X98714717Y-64994580D03*
%TD*%
D18*
%TO.C,R8*%
X89154000Y-116840000D03*
X86054000Y-116840000D03*
%TD*%
D11*
%TO.C,D7*%
X61922000Y-117729000D03*
X64897000Y-117729000D03*
%TD*%
D19*
%TO.C,C7*%
X142100000Y-122525000D03*
X139150000Y-122525000D03*
%TD*%
D20*
%TO.C,C4*%
X96520000Y-68170000D03*
X96520000Y-71120000D03*
%TD*%
D21*
%TO.C,U2*%
X71120000Y-103124000D03*
X71120000Y-104394000D03*
X71120000Y-105664000D03*
X71120000Y-106934000D03*
X71120000Y-108204000D03*
X71120000Y-109474000D03*
X71120000Y-110744000D03*
X71120000Y-112014000D03*
X71120000Y-113284000D03*
X71120000Y-114554000D03*
X78045000Y-114554000D03*
X78045000Y-113284000D03*
X78045000Y-112014000D03*
X78045000Y-110744000D03*
X78045000Y-109474000D03*
X78045000Y-108204000D03*
X78045000Y-106934000D03*
X78045000Y-105664000D03*
X78045000Y-104394000D03*
X78045000Y-103124000D03*
%TD*%
D18*
%TO.C,R10*%
X89154000Y-111760000D03*
X86054000Y-111760000D03*
%TD*%
%TO.C,R9*%
X89206000Y-114300000D03*
X86106000Y-114300000D03*
%TD*%
M02*
