%TF.GenerationSoftware,KiCad,Pcbnew,8.0.5-8.0.5-0~ubuntu22.04.1*%
%TF.CreationDate,2024-10-11T08:26:29+02:00*%
%TF.ProjectId,WD1771_Board,57443137-3731-45f4-926f-6172642e6b69,rev?*%
%TF.SameCoordinates,Original*%
%TF.FileFunction,Paste,Bot*%
%TF.FilePolarity,Positive*%
%FSLAX46Y46*%
G04 Gerber Fmt 4.6, Leading zero omitted, Abs format (unit mm)*
G04 Created by KiCad (PCBNEW 8.0.5-8.0.5-0~ubuntu22.04.1) date 2024-10-11 08:26:29*
%MOMM*%
%LPD*%
G01*
G04 APERTURE LIST*
G04 Aperture macros list*
%AMRoundRect*
0 Rectangle with rounded corners*
0 $1 Rounding radius*
0 $2 $3 $4 $5 $6 $7 $8 $9 X,Y pos of 4 corners*
0 Add a 4 corners polygon primitive as box body*
4,1,4,$2,$3,$4,$5,$6,$7,$8,$9,$2,$3,0*
0 Add four circle primitives for the rounded corners*
1,1,$1+$1,$2,$3*
1,1,$1+$1,$4,$5*
1,1,$1+$1,$6,$7*
1,1,$1+$1,$8,$9*
0 Add four rect primitives between the rounded corners*
20,1,$1+$1,$2,$3,$4,$5,0*
20,1,$1+$1,$4,$5,$6,$7,0*
20,1,$1+$1,$6,$7,$8,$9,0*
20,1,$1+$1,$8,$9,$2,$3,0*%
G04 Aperture macros list end*
%ADD10RoundRect,0.250000X-0.650000X0.325000X-0.650000X-0.325000X0.650000X-0.325000X0.650000X0.325000X0*%
%ADD11RoundRect,0.250000X0.400000X0.625000X-0.400000X0.625000X-0.400000X-0.625000X0.400000X-0.625000X0*%
%ADD12RoundRect,0.250000X-0.325000X-0.650000X0.325000X-0.650000X0.325000X0.650000X-0.325000X0.650000X0*%
%ADD13RoundRect,0.250000X-0.400000X-0.625000X0.400000X-0.625000X0.400000X0.625000X-0.400000X0.625000X0*%
%ADD14RoundRect,0.250000X0.325000X0.650000X-0.325000X0.650000X-0.325000X-0.650000X0.325000X-0.650000X0*%
%ADD15RoundRect,0.250001X-0.462499X-0.624999X0.462499X-0.624999X0.462499X0.624999X-0.462499X0.624999X0*%
%ADD16RoundRect,0.250000X-0.625000X0.400000X-0.625000X-0.400000X0.625000X-0.400000X0.625000X0.400000X0*%
%ADD17RoundRect,0.250000X0.625000X-0.400000X0.625000X0.400000X-0.625000X0.400000X-0.625000X-0.400000X0*%
%ADD18RoundRect,0.250000X0.650000X-0.325000X0.650000X0.325000X-0.650000X0.325000X-0.650000X-0.325000X0*%
%ADD19RoundRect,0.150000X0.837500X0.150000X-0.837500X0.150000X-0.837500X-0.150000X0.837500X-0.150000X0*%
G04 APERTURE END LIST*
D10*
%TO.C,C2*%
X88800000Y-144300000D03*
X88800000Y-147250000D03*
%TD*%
D11*
%TO.C,R27*%
X67336000Y-135763000D03*
X64236000Y-135763000D03*
%TD*%
%TO.C,R26*%
X75083000Y-131826000D03*
X71983000Y-131826000D03*
%TD*%
D12*
%TO.C,C6*%
X116381000Y-91186000D03*
X119331000Y-91186000D03*
%TD*%
D13*
%TO.C,R13*%
X118745000Y-88265000D03*
X121845000Y-88265000D03*
%TD*%
D11*
%TO.C,R1*%
X66294000Y-132969000D03*
X63194000Y-132969000D03*
%TD*%
D13*
%TO.C,R4*%
X139025000Y-127325000D03*
X142125000Y-127325000D03*
%TD*%
D11*
%TO.C,R20*%
X66346000Y-112649000D03*
X63246000Y-112649000D03*
%TD*%
D14*
%TO.C,C11*%
X72595000Y-79756000D03*
X69645000Y-79756000D03*
%TD*%
D11*
%TO.C,R17*%
X66320000Y-97663000D03*
X63220000Y-97663000D03*
%TD*%
D12*
%TO.C,C8*%
X118716000Y-82931000D03*
X121666000Y-82931000D03*
%TD*%
D15*
%TO.C,D1*%
X118818000Y-85725000D03*
X121793000Y-85725000D03*
%TD*%
D12*
%TO.C,C5*%
X98601000Y-74168000D03*
X101551000Y-74168000D03*
%TD*%
D11*
%TO.C,R2*%
X66346000Y-105054400D03*
X63246000Y-105054400D03*
%TD*%
D16*
%TO.C,R19*%
X68707000Y-104596000D03*
X68707000Y-107696000D03*
%TD*%
D12*
%TO.C,C15*%
X73201000Y-142748000D03*
X76151000Y-142748000D03*
%TD*%
D11*
%TO.C,R3*%
X66344800Y-110134400D03*
X63244800Y-110134400D03*
%TD*%
D13*
%TO.C,R11*%
X73279000Y-145288000D03*
X76379000Y-145288000D03*
%TD*%
D11*
%TO.C,R12*%
X66346000Y-100076000D03*
X63246000Y-100076000D03*
%TD*%
D13*
%TO.C,R5*%
X139000000Y-129625000D03*
X142100000Y-129625000D03*
%TD*%
D11*
%TO.C,R6*%
X66344800Y-107594400D03*
X63244800Y-107594400D03*
%TD*%
%TO.C,R14*%
X121793000Y-80264000D03*
X118693000Y-80264000D03*
%TD*%
%TO.C,R29*%
X73152000Y-147701000D03*
X70052000Y-147701000D03*
%TD*%
%TO.C,R15*%
X134926000Y-88646000D03*
X131826000Y-88646000D03*
%TD*%
%TO.C,R7*%
X66370800Y-102514400D03*
X63270800Y-102514400D03*
%TD*%
D10*
%TO.C,C13*%
X78486000Y-81329000D03*
X78486000Y-84279000D03*
%TD*%
D13*
%TO.C,R18*%
X68326000Y-97663000D03*
X71426000Y-97663000D03*
%TD*%
D17*
%TO.C,R21*%
X76073000Y-116511000D03*
X76073000Y-113411000D03*
%TD*%
%TO.C,R22*%
X73787000Y-116511000D03*
X73787000Y-113411000D03*
%TD*%
D14*
%TO.C,C14*%
X76151000Y-104394000D03*
X73201000Y-104394000D03*
%TD*%
D13*
%TO.C,R16*%
X116332000Y-96393000D03*
X119432000Y-96393000D03*
%TD*%
%TO.C,R25*%
X61823000Y-127889000D03*
X64923000Y-127889000D03*
%TD*%
D18*
%TO.C,C1*%
X89000000Y-55600000D03*
X89000000Y-52650000D03*
%TD*%
D13*
%TO.C,R24*%
X61924000Y-125222000D03*
X65024000Y-125222000D03*
%TD*%
D14*
%TO.C,C12*%
X73660000Y-89154000D03*
X70710000Y-89154000D03*
%TD*%
D19*
%TO.C,U1*%
X78031824Y-118341735D03*
X78031824Y-119611735D03*
X78031824Y-120881735D03*
X78031824Y-122151735D03*
X78031824Y-123421735D03*
X78031824Y-124691735D03*
X78031824Y-125961735D03*
X78031824Y-127231735D03*
X78031824Y-128501735D03*
X78031824Y-129771735D03*
X71106824Y-129771735D03*
X71106824Y-128501735D03*
X71106824Y-127231735D03*
X71106824Y-125961735D03*
X71106824Y-124691735D03*
X71106824Y-123421735D03*
X71106824Y-122151735D03*
X71106824Y-120881735D03*
X71106824Y-119611735D03*
X71106824Y-118341735D03*
%TD*%
D11*
%TO.C,R28*%
X67870000Y-138938000D03*
X64770000Y-138938000D03*
%TD*%
D13*
%TO.C,R23*%
X61924000Y-122555000D03*
X65024000Y-122555000D03*
%TD*%
M02*
