%TF.GenerationSoftware,KiCad,Pcbnew,8.0.7-8.0.7-0~ubuntu22.04.1*%
%TF.CreationDate,2025-01-28T09:52:26+01:00*%
%TF.ProjectId,6847_v1,36383437-5f76-4312-9e6b-696361645f70,rev?*%
%TF.SameCoordinates,Original*%
%TF.FileFunction,Copper,L2,Bot*%
%TF.FilePolarity,Positive*%
%FSLAX46Y46*%
G04 Gerber Fmt 4.6, Leading zero omitted, Abs format (unit mm)*
G04 Created by KiCad (PCBNEW 8.0.7-8.0.7-0~ubuntu22.04.1) date 2025-01-28 09:52:26*
%MOMM*%
%LPD*%
G01*
G04 APERTURE LIST*
%TA.AperFunction,ComponentPad*%
%ADD10R,1.700000X1.700000*%
%TD*%
%TA.AperFunction,ComponentPad*%
%ADD11O,1.700000X1.700000*%
%TD*%
%TA.AperFunction,ComponentPad*%
%ADD12R,1.600000X1.600000*%
%TD*%
%TA.AperFunction,ComponentPad*%
%ADD13O,1.600000X1.600000*%
%TD*%
%TA.AperFunction,ViaPad*%
%ADD14C,0.600000*%
%TD*%
%TA.AperFunction,Conductor*%
%ADD15C,0.400000*%
%TD*%
%TA.AperFunction,Conductor*%
%ADD16C,0.200000*%
%TD*%
G04 APERTURE END LIST*
D10*
%TO.P,J3,1,Pin_1*%
%TO.N,unconnected-(J3-Pin_1-Pad1)*%
X147000000Y-69000000D03*
D11*
%TO.P,J3,2,Pin_2*%
%TO.N,unconnected-(J3-Pin_2-Pad2)*%
X144460000Y-69000000D03*
%TO.P,J3,3,Pin_3*%
%TO.N,unconnected-(J3-Pin_3-Pad3)*%
X147000000Y-71540000D03*
%TO.P,J3,4,Pin_4*%
%TO.N,unconnected-(J3-Pin_4-Pad4)*%
X144460000Y-71540000D03*
%TO.P,J3,5,Pin_5*%
%TO.N,/VA18*%
X147000000Y-74080000D03*
%TO.P,J3,6,Pin_6*%
%TO.N,unconnected-(J3-Pin_6-Pad6)*%
X144460000Y-74080000D03*
%TO.P,J3,7,Pin_7*%
%TO.N,/VA16*%
X147000000Y-76620000D03*
%TO.P,J3,8,Pin_8*%
%TO.N,/VA17*%
X144460000Y-76620000D03*
%TO.P,J3,9,Pin_9*%
%TO.N,/VA14*%
X147000000Y-79160000D03*
%TO.P,J3,10,Pin_10*%
%TO.N,/VA15*%
X144460000Y-79160000D03*
%TO.P,J3,11,Pin_11*%
%TO.N,/VA12*%
X147000000Y-81700000D03*
%TO.P,J3,12,Pin_12*%
%TO.N,/VA13*%
X144460000Y-81700000D03*
%TO.P,J3,13,Pin_13*%
%TO.N,/VA10*%
X147000000Y-84240000D03*
%TO.P,J3,14,Pin_14*%
%TO.N,/VA11*%
X144460000Y-84240000D03*
%TO.P,J3,15,Pin_15*%
%TO.N,/VA8*%
X147000000Y-86780000D03*
%TO.P,J3,16,Pin_16*%
%TO.N,/VA9*%
X144460000Y-86780000D03*
%TO.P,J3,17,Pin_17*%
%TO.N,/VA6*%
X147000000Y-89320000D03*
%TO.P,J3,18,Pin_18*%
%TO.N,/VA7*%
X144460000Y-89320000D03*
%TO.P,J3,19,Pin_19*%
%TO.N,/VA4*%
X147000000Y-91860000D03*
%TO.P,J3,20,Pin_20*%
%TO.N,/VA5*%
X144460000Y-91860000D03*
%TO.P,J3,21,Pin_21*%
%TO.N,/VA2*%
X147000000Y-94400000D03*
%TO.P,J3,22,Pin_22*%
%TO.N,/VA3*%
X144460000Y-94400000D03*
%TO.P,J3,23,Pin_23*%
%TO.N,/VA0*%
X147000000Y-96940000D03*
%TO.P,J3,24,Pin_24*%
%TO.N,/VA1*%
X144460000Y-96940000D03*
%TO.P,J3,25,Pin_25*%
%TO.N,/In0*%
X147000000Y-99480000D03*
%TO.P,J3,26,Pin_26*%
%TO.N,/In1*%
X144460000Y-99480000D03*
%TO.P,J3,27,Pin_27*%
%TO.N,/In2*%
X147000000Y-102020000D03*
%TO.P,J3,28,Pin_28*%
%TO.N,/DE*%
X144460000Y-102020000D03*
%TO.P,J3,29,Pin_29*%
%TO.N,/HS*%
X147000000Y-104560000D03*
%TO.P,J3,30,Pin_30*%
%TO.N,/CRSR*%
X144460000Y-104560000D03*
%TO.P,J3,31,Pin_31*%
%TO.N,/VS*%
X147000000Y-107100000D03*
%TO.P,J3,32,Pin_32*%
%TO.N,/~{RP}*%
X144460000Y-107100000D03*
%TO.P,J3,33,Pin_33*%
%TO.N,GND*%
X147000000Y-109640000D03*
%TO.P,J3,34,Pin_34*%
X144460000Y-109640000D03*
%TD*%
D10*
%TO.P,J1,1,Pin_1*%
%TO.N,GND*%
X53000000Y-109640000D03*
D11*
%TO.P,J1,2,Pin_2*%
X55540000Y-109640000D03*
%TO.P,J1,3,Pin_3*%
%TO.N,/D1*%
X53000000Y-107100000D03*
%TO.P,J1,4,Pin_4*%
%TO.N,/D0*%
X55540000Y-107100000D03*
%TO.P,J1,5,Pin_5*%
%TO.N,/D3*%
X53000000Y-104560000D03*
%TO.P,J1,6,Pin_6*%
%TO.N,/D2*%
X55540000Y-104560000D03*
%TO.P,J1,7,Pin_7*%
%TO.N,/D5*%
X53000000Y-102020000D03*
%TO.P,J1,8,Pin_8*%
%TO.N,/D4*%
X55540000Y-102020000D03*
%TO.P,J1,9,Pin_9*%
%TO.N,/D7*%
X53000000Y-99480000D03*
%TO.P,J1,10,Pin_10*%
%TO.N,/D6*%
X55540000Y-99480000D03*
%TO.P,J1,11,Pin_11*%
%TO.N,/Out1*%
X53000000Y-96940000D03*
%TO.P,J1,12,Pin_12*%
%TO.N,/Out0*%
X55540000Y-96940000D03*
%TO.P,J1,13,Pin_13*%
%TO.N,/Out3*%
X53000000Y-94400000D03*
%TO.P,J1,14,Pin_14*%
%TO.N,/Out2*%
X55540000Y-94400000D03*
%TO.P,J1,15,Pin_15*%
%TO.N,/Out5*%
X53000000Y-91860000D03*
%TO.P,J1,16,Pin_16*%
%TO.N,/Out4*%
X55540000Y-91860000D03*
%TO.P,J1,17,Pin_17*%
%TO.N,/Out7*%
X53000000Y-89320000D03*
%TO.P,J1,18,Pin_18*%
%TO.N,/Out6*%
X55540000Y-89320000D03*
%TO.P,J1,19,Pin_19*%
%TO.N,/~{CS}*%
X53000000Y-86780000D03*
%TO.P,J1,20,Pin_20*%
%TO.N,/VCLK*%
X55540000Y-86780000D03*
%TO.P,J1,21,Pin_21*%
%TO.N,/A1#*%
X53000000Y-84240000D03*
%TO.P,J1,22,Pin_22*%
%TO.N,/R{slash}~{W}*%
X55540000Y-84240000D03*
%TO.P,J1,23,Pin_23*%
%TO.N,/~{RD}*%
X53000000Y-81700000D03*
%TO.P,J1,24,Pin_24*%
%TO.N,/A0#*%
X55540000Y-81700000D03*
%TO.P,J1,25,Pin_25*%
%TO.N,/~{RST}*%
X53000000Y-79160000D03*
%TO.P,J1,26,Pin_26*%
%TO.N,/~{WR}*%
X55540000Y-79160000D03*
%TO.P,J1,27,Pin_27*%
%TO.N,/CH0*%
X53000000Y-76620000D03*
%TO.P,J1,28,Pin_28*%
%TO.N,/PHI2*%
X55540000Y-76620000D03*
%TO.P,J1,29,Pin_29*%
%TO.N,/Y*%
X53000000Y-74080000D03*
%TO.P,J1,30,Pin_30*%
%TO.N,/A*%
X55540000Y-74080000D03*
%TO.P,J1,31,Pin_31*%
%TO.N,/B*%
X53000000Y-71540000D03*
%TO.P,J1,32,Pin_32*%
%TO.N,unconnected-(J1-Pin_32-Pad32)*%
X55540000Y-71540000D03*
%TO.P,J1,33,Pin_33*%
%TO.N,+5V*%
X53000000Y-69000000D03*
%TO.P,J1,34,Pin_34*%
X55540000Y-69000000D03*
%TD*%
D12*
%TO.P,U2,1,GND*%
%TO.N,GND*%
X121412000Y-96012000D03*
D13*
%TO.P,U2,2,D6*%
%TO.N,/D6*%
X118872000Y-96012000D03*
%TO.P,U2,3,D0*%
%TO.N,/D0*%
X116332000Y-96012000D03*
%TO.P,U2,4,D1*%
%TO.N,/D1*%
X113792000Y-96012000D03*
%TO.P,U2,5,D2*%
%TO.N,/D2*%
X111252000Y-96012000D03*
%TO.P,U2,6,D3*%
%TO.N,/D3*%
X108712000Y-96012000D03*
%TO.P,U2,7,D4*%
%TO.N,/D4*%
X106172000Y-96012000D03*
%TO.P,U2,8,D5*%
%TO.N,/D5*%
X103632000Y-96012000D03*
%TO.P,U2,9,CH0*%
%TO.N,/CH0*%
X101092000Y-96012000D03*
%TO.P,U2,10,B*%
%TO.N,/B*%
X98552000Y-96012000D03*
%TO.P,U2,11,A*%
%TO.N,/A*%
X96012000Y-96012000D03*
%TO.P,U2,12,MS*%
%TO.N,GND*%
X93472000Y-96012000D03*
%TO.P,U2,13,VA5*%
%TO.N,/VA5*%
X90932000Y-96012000D03*
%TO.P,U2,14,VA6*%
%TO.N,/VA6*%
X88392000Y-96012000D03*
%TO.P,U2,15,VA7*%
%TO.N,/VA7*%
X85852000Y-96012000D03*
%TO.P,U2,16,VA8*%
%TO.N,/VA8*%
X83312000Y-96012000D03*
%TO.P,U2,17,VCC*%
%TO.N,+5V*%
X80772000Y-96012000D03*
%TO.P,U2,18,VA9*%
%TO.N,/VA9*%
X78232000Y-96012000D03*
%TO.P,U2,19,VA10*%
%TO.N,/VA10*%
X75692000Y-96012000D03*
%TO.P,U2,20,VA11*%
%TO.N,/VA11*%
X73152000Y-96012000D03*
%TO.P,U2,21,VA12*%
%TO.N,/VA12*%
X73152000Y-80772000D03*
%TO.P,U2,22,VA0*%
%TO.N,/VA0*%
X75692000Y-80772000D03*
%TO.P,U2,23,VA1*%
%TO.N,/VA1*%
X78232000Y-80772000D03*
%TO.P,U2,24,VA2*%
%TO.N,/VA2*%
X80772000Y-80772000D03*
%TO.P,U2,25,VA3*%
%TO.N,/VA3*%
X83312000Y-80772000D03*
%TO.P,U2,26,VA4*%
%TO.N,/VA4*%
X85852000Y-80772000D03*
%TO.P,U2,27,GM2*%
%TO.N,/Out4*%
X88392000Y-80772000D03*
%TO.P,U2,28,Y*%
%TO.N,/Y*%
X90932000Y-80772000D03*
%TO.P,U2,29,GM1*%
%TO.N,/Out3*%
X93472000Y-80772000D03*
%TO.P,U2,30,GM0*%
%TO.N,/Out2*%
X96012000Y-80772000D03*
%TO.P,U2,31,INT/EXT*%
%TO.N,/Out5*%
X98552000Y-80772000D03*
%TO.P,U2,32,INV*%
%TO.N,/Out6*%
X101092000Y-80772000D03*
%TO.P,U2,33,CLK*%
%TO.N,/VCLK*%
X103632000Y-80772000D03*
%TO.P,U2,34,A/~{S}*%
%TO.N,/Out7*%
X106172000Y-80772000D03*
%TO.P,U2,35,A/G*%
%TO.N,/Out1*%
X108712000Y-80772000D03*
%TO.P,U2,36,~{RP}*%
%TO.N,/~{RP}*%
X111252000Y-80772000D03*
%TO.P,U2,37,FS*%
%TO.N,/VS*%
X113792000Y-80772000D03*
%TO.P,U2,38,HS*%
%TO.N,/HS*%
X116332000Y-80772000D03*
%TO.P,U2,39,CSS*%
%TO.N,/Out0*%
X118872000Y-80772000D03*
%TO.P,U2,40,D7*%
%TO.N,/D7*%
X121412000Y-80772000D03*
%TD*%
D14*
%TO.N,GND*%
X71882000Y-101854000D03*
X59182000Y-101854000D03*
%TO.N,*%
X66548000Y-84074000D03*
%TO.N,GND*%
X58928000Y-90932000D03*
X61468000Y-88138000D03*
X78740000Y-87122000D03*
X73660000Y-89154000D03*
X70866000Y-79502000D03*
X65278000Y-79502000D03*
X62738000Y-69342000D03*
X78232000Y-70612000D03*
X92710000Y-70104000D03*
X140716000Y-104902000D03*
X140970000Y-101346000D03*
X135382000Y-106934000D03*
X129032000Y-102870000D03*
X124714000Y-107442000D03*
X119126000Y-103886000D03*
X95758000Y-87122000D03*
X112522000Y-86868000D03*
X120650000Y-87122000D03*
%TO.N,+5V*%
X59170000Y-82804000D03*
%TO.N,/VA12*%
X132588000Y-87376000D03*
X73152000Y-85598000D03*
%TO.N,/A*%
X58166000Y-80518000D03*
%TO.N,/B*%
X58420000Y-78994000D03*
%TO.N,/D6*%
X118872000Y-101600000D03*
%TO.N,/D5*%
X103632000Y-101854000D03*
%TO.N,/D4*%
X106172000Y-102108000D03*
%TO.N,/D3*%
X108712000Y-103378000D03*
%TO.N,/D2*%
X111252000Y-104648000D03*
%TO.N,/D1*%
X113792000Y-106172000D03*
%TO.N,/D0*%
X116332000Y-106934000D03*
%TO.N,/HS*%
X135382000Y-82804000D03*
%TO.N,/VS*%
X134620000Y-83312000D03*
%TO.N,/~{RP}*%
X133970000Y-84074000D03*
%TO.N,/Out7*%
X62613891Y-73605068D03*
%TO.N,/VCLK*%
X61722000Y-74422000D03*
%TO.N,/Out6*%
X63072584Y-75238535D03*
%TO.N,/Out5*%
X63627000Y-75819000D03*
%TO.N,/VA11*%
X137363319Y-101829369D03*
%TO.N,/VA10*%
X138006124Y-101273216D03*
%TO.N,/VA9*%
X138684000Y-100584000D03*
%TO.N,/VA8*%
X139446000Y-99822000D03*
%TO.N,/VA7*%
X140208000Y-99060000D03*
%TO.N,/VA6*%
X140970000Y-98298000D03*
%TO.N,/VA5*%
X141986000Y-97536000D03*
%TO.N,GND*%
X114554000Y-107750000D03*
X68580000Y-96520000D03*
X107950000Y-71374000D03*
X75438000Y-110236000D03*
X127254000Y-70612000D03*
X139192000Y-80264000D03*
X91948000Y-110236000D03*
X116332000Y-71120000D03*
X128270000Y-80264000D03*
X138684000Y-70358000D03*
%TD*%
D15*
%TO.N,+5V*%
X69838000Y-93472000D02*
X59170000Y-82804000D01*
X78232000Y-93472000D02*
X69838000Y-93472000D01*
X80772000Y-96012000D02*
X78232000Y-93472000D01*
D16*
%TO.N,/A*%
X70104000Y-92456000D02*
X58166000Y-80518000D01*
X96012000Y-96012000D02*
X92456000Y-92456000D01*
X92456000Y-92456000D02*
X70104000Y-92456000D01*
%TO.N,/B*%
X58420000Y-79502000D02*
X58420000Y-78994000D01*
X94488000Y-91948000D02*
X70866000Y-91948000D01*
X70866000Y-91948000D02*
X58420000Y-79502000D01*
X98552000Y-96012000D02*
X94488000Y-91948000D01*
%TO.N,/CH0*%
X101092000Y-96012000D02*
X96520000Y-91440000D01*
X96520000Y-91440000D02*
X71882000Y-91440000D01*
X71882000Y-91440000D02*
X58420000Y-77978000D01*
X58420000Y-77978000D02*
X54358000Y-77978000D01*
X54358000Y-77978000D02*
X53000000Y-76620000D01*
%TO.N,/VA12*%
X73152000Y-80772000D02*
X73152000Y-85598000D01*
X137725686Y-87376000D02*
X138966843Y-86134843D01*
X138966843Y-86134843D02*
X142151685Y-82950000D01*
X132588000Y-87376000D02*
X137725686Y-87376000D01*
D15*
%TO.N,+5V*%
X55540000Y-69000000D02*
X53000000Y-69000000D01*
D16*
%TO.N,/D6*%
X55540000Y-99480000D02*
X77890000Y-99480000D01*
%TO.N,/D5*%
X54182000Y-100838000D02*
X78174314Y-100838000D01*
X53000000Y-102020000D02*
X54182000Y-100838000D01*
X78174314Y-100838000D02*
X79190314Y-101854000D01*
%TO.N,/VA11*%
X73152000Y-96012000D02*
X76220000Y-99080000D01*
X135971950Y-100438000D02*
X137363319Y-101829369D01*
X79413686Y-100438000D02*
X135971950Y-100438000D01*
X76220000Y-99080000D02*
X78055686Y-99080000D01*
X78055686Y-99080000D02*
X79413686Y-100438000D01*
%TO.N,/D5*%
X79190314Y-101854000D02*
X103632000Y-101854000D01*
%TO.N,/D6*%
X118110000Y-100838000D02*
X118872000Y-101600000D01*
X77890000Y-99480000D02*
X79248000Y-100838000D01*
X79248000Y-100838000D02*
X118110000Y-100838000D01*
%TO.N,/D4*%
X55540000Y-102020000D02*
X56390000Y-102870000D01*
%TO.N,/VA9*%
X138684000Y-100584000D02*
X137738000Y-99638000D01*
%TO.N,/VA8*%
X138862000Y-99238000D02*
X86538000Y-99238000D01*
%TO.N,/VA9*%
X137738000Y-99638000D02*
X81858000Y-99638000D01*
%TO.N,/VA10*%
X75692000Y-96012000D02*
X79718000Y-100038000D01*
X79718000Y-100038000D02*
X136770908Y-100038000D01*
%TO.N,/VA9*%
X81858000Y-99638000D02*
X78232000Y-96012000D01*
%TO.N,/VA8*%
X139446000Y-99822000D02*
X138862000Y-99238000D01*
%TO.N,/VA7*%
X140208000Y-99060000D02*
X139986000Y-98838000D01*
%TO.N,/VA8*%
X86538000Y-99238000D02*
X83312000Y-96012000D01*
%TO.N,/D4*%
X105410000Y-102870000D02*
X106172000Y-102108000D01*
%TO.N,/VA7*%
X88678000Y-98838000D02*
X85852000Y-96012000D01*
X139986000Y-98838000D02*
X88678000Y-98838000D01*
%TO.N,/D4*%
X56390000Y-102870000D02*
X105410000Y-102870000D01*
%TO.N,/VA10*%
X136770908Y-100038000D02*
X138006124Y-101273216D01*
%TO.N,/D3*%
X53000000Y-104560000D02*
X54182000Y-103378000D01*
X54182000Y-103378000D02*
X108712000Y-103378000D01*
%TO.N,/D2*%
X55540000Y-104560000D02*
X111164000Y-104560000D01*
X111164000Y-104560000D02*
X111252000Y-104648000D01*
%TO.N,/D1*%
X53000000Y-107100000D02*
X54150000Y-105950000D01*
X54150000Y-105950000D02*
X113570000Y-105950000D01*
X113570000Y-105950000D02*
X113792000Y-106172000D01*
%TO.N,/D0*%
X55540000Y-107100000D02*
X116166000Y-107100000D01*
X116166000Y-107100000D02*
X116332000Y-106934000D01*
%TO.N,/HS*%
X116332000Y-80772000D02*
X118110000Y-82550000D01*
X118110000Y-82550000D02*
X135128000Y-82550000D01*
X135128000Y-82550000D02*
X135382000Y-82804000D01*
%TO.N,/~{RP}*%
X114554000Y-84074000D02*
X133970000Y-84074000D01*
X111252000Y-80772000D02*
X114554000Y-84074000D01*
%TO.N,/VS*%
X113792000Y-80772000D02*
X116332000Y-83312000D01*
X116332000Y-83312000D02*
X134620000Y-83312000D01*
%TO.N,/VA12*%
X142151685Y-82950000D02*
X145750000Y-82950000D01*
X145750000Y-82950000D02*
X147000000Y-81700000D01*
%TO.N,/Out7*%
X99005068Y-73605068D02*
X62613891Y-73605068D01*
X106172000Y-80772000D02*
X99005068Y-73605068D01*
%TO.N,/VCLK*%
X97282000Y-74422000D02*
X61722000Y-74422000D01*
%TO.N,/Out6*%
X95250000Y-74930000D02*
X63381119Y-74930000D01*
X63381119Y-74930000D02*
X63072584Y-75238535D01*
X101092000Y-80772000D02*
X95250000Y-74930000D01*
%TO.N,/VCLK*%
X103632000Y-80772000D02*
X97282000Y-74422000D01*
%TO.N,/Out5*%
X63881000Y-75565000D02*
X63627000Y-75819000D01*
X93345000Y-75565000D02*
X63881000Y-75565000D01*
X98552000Y-80772000D02*
X93345000Y-75565000D01*
%TO.N,/Y*%
X90932000Y-80772000D02*
X87884000Y-77724000D01*
X87884000Y-77724000D02*
X59436000Y-77724000D01*
X59436000Y-77724000D02*
X57182000Y-75470000D01*
X57182000Y-75470000D02*
X54390000Y-75470000D01*
X54390000Y-75470000D02*
X53000000Y-74080000D01*
%TO.N,/VA4*%
X145850000Y-93010000D02*
X147000000Y-91860000D01*
X85852000Y-80772000D02*
X85852000Y-81903370D01*
X143983654Y-93010000D02*
X145850000Y-93010000D01*
X85852000Y-81903370D02*
X93102630Y-89154000D01*
X93102630Y-89154000D02*
X140127654Y-89154000D01*
X140127654Y-89154000D02*
X143983654Y-93010000D01*
%TO.N,/VA6*%
X140970000Y-98298000D02*
X90678000Y-98298000D01*
X90678000Y-98298000D02*
X88392000Y-96012000D01*
%TO.N,/VA5*%
X141986000Y-97536000D02*
X92456000Y-97536000D01*
X92456000Y-97536000D02*
X90932000Y-96012000D01*
%TO.N,/VA3*%
X92094000Y-89554000D02*
X83312000Y-80772000D01*
X139614000Y-89554000D02*
X92094000Y-89554000D01*
X144460000Y-94400000D02*
X139614000Y-89554000D01*
%TO.N,/VA1*%
X137190628Y-90570000D02*
X143560628Y-96940000D01*
X143560628Y-96940000D02*
X144460000Y-96940000D01*
%TO.N,/VA2*%
X80772000Y-80772000D02*
X90170000Y-90170000D01*
X137356314Y-90170000D02*
X142736314Y-95550000D01*
%TO.N,/VA1*%
X88030000Y-90570000D02*
X137190628Y-90570000D01*
%TO.N,/VA2*%
X90170000Y-90170000D02*
X137356314Y-90170000D01*
X142736314Y-95550000D02*
X145850000Y-95550000D01*
%TO.N,/VA1*%
X78232000Y-80772000D02*
X88030000Y-90570000D01*
%TO.N,/VA2*%
X145850000Y-95550000D02*
X147000000Y-94400000D01*
%TO.N,/VA0*%
X143983654Y-98090000D02*
X145850000Y-98090000D01*
X145850000Y-98090000D02*
X147000000Y-96940000D01*
X136863654Y-90970000D02*
X143983654Y-98090000D01*
X85890000Y-90970000D02*
X136863654Y-90970000D01*
X75692000Y-80772000D02*
X85890000Y-90970000D01*
%TD*%
%TA.AperFunction,Conductor*%
%TO.N,GND*%
G36*
X55074075Y-109447007D02*
G01*
X55040000Y-109574174D01*
X55040000Y-109705826D01*
X55074075Y-109832993D01*
X55106988Y-109890000D01*
X53433012Y-109890000D01*
X53465925Y-109832993D01*
X53500000Y-109705826D01*
X53500000Y-109574174D01*
X53465925Y-109447007D01*
X53433012Y-109390000D01*
X55106988Y-109390000D01*
X55074075Y-109447007D01*
G37*
%TD.AperFunction*%
%TA.AperFunction,Conductor*%
G36*
X146534075Y-109447007D02*
G01*
X146500000Y-109574174D01*
X146500000Y-109705826D01*
X146534075Y-109832993D01*
X146566988Y-109890000D01*
X144893012Y-109890000D01*
X144925925Y-109832993D01*
X144960000Y-109705826D01*
X144960000Y-109574174D01*
X144925925Y-109447007D01*
X144893012Y-109390000D01*
X146566988Y-109390000D01*
X146534075Y-109447007D01*
G37*
%TD.AperFunction*%
%TA.AperFunction,Conductor*%
G36*
X77941256Y-101458185D02*
G01*
X77961898Y-101474819D01*
X78544898Y-102057819D01*
X78578383Y-102119142D01*
X78573399Y-102188834D01*
X78531527Y-102244767D01*
X78466063Y-102269184D01*
X78457217Y-102269500D01*
X57009152Y-102269500D01*
X56942113Y-102249815D01*
X56896358Y-102197011D01*
X56885624Y-102134694D01*
X56895659Y-102020000D01*
X56875063Y-101784592D01*
X56838789Y-101649215D01*
X56824154Y-101594593D01*
X56825817Y-101524743D01*
X56864980Y-101466881D01*
X56929209Y-101439377D01*
X56943929Y-101438500D01*
X77874217Y-101438500D01*
X77941256Y-101458185D01*
G37*
%TD.AperFunction*%
%TA.AperFunction,Conductor*%
G36*
X57609574Y-78598185D02*
G01*
X57655329Y-78650989D01*
X57665273Y-78720147D01*
X57659577Y-78743454D01*
X57634632Y-78814742D01*
X57634630Y-78814750D01*
X57614435Y-78993996D01*
X57614435Y-78994003D01*
X57634630Y-79173249D01*
X57634631Y-79173254D01*
X57694211Y-79343523D01*
X57790182Y-79496259D01*
X57792441Y-79499091D01*
X57793330Y-79501268D01*
X57793889Y-79502158D01*
X57793733Y-79502255D01*
X57818854Y-79563776D01*
X57819499Y-79576410D01*
X57819499Y-79581056D01*
X57843803Y-79671760D01*
X57842140Y-79741610D01*
X57802977Y-79799472D01*
X57790001Y-79808846D01*
X57663740Y-79888182D01*
X57663737Y-79888184D01*
X57536184Y-80015737D01*
X57440211Y-80168476D01*
X57380631Y-80338745D01*
X57380630Y-80338750D01*
X57360435Y-80517996D01*
X57360435Y-80518003D01*
X57380630Y-80697249D01*
X57380631Y-80697254D01*
X57440211Y-80867523D01*
X57522627Y-80998686D01*
X57536184Y-81020262D01*
X57663738Y-81147816D01*
X57816478Y-81243789D01*
X57986745Y-81303368D01*
X58073669Y-81313161D01*
X58138080Y-81340226D01*
X58147465Y-81348700D01*
X58745225Y-81946461D01*
X58778710Y-82007784D01*
X58773726Y-82077476D01*
X58731854Y-82133409D01*
X58723517Y-82139135D01*
X58667739Y-82174182D01*
X58540184Y-82301737D01*
X58444211Y-82454476D01*
X58384631Y-82624745D01*
X58384630Y-82624750D01*
X58364435Y-82803996D01*
X58364435Y-82804003D01*
X58384630Y-82983249D01*
X58384631Y-82983254D01*
X58444211Y-83153523D01*
X58516416Y-83268435D01*
X58540184Y-83306262D01*
X58667738Y-83433816D01*
X58820478Y-83529789D01*
X58923984Y-83566007D01*
X58970710Y-83595367D01*
X69391451Y-94016109D01*
X69391454Y-94016111D01*
X69391457Y-94016114D01*
X69414161Y-94031284D01*
X69414162Y-94031285D01*
X69506178Y-94092768D01*
X69506182Y-94092770D01*
X69506189Y-94092775D01*
X69596332Y-94130113D01*
X69633671Y-94145580D01*
X69660591Y-94150934D01*
X69750937Y-94168905D01*
X69769006Y-94172500D01*
X69769007Y-94172500D01*
X77890481Y-94172500D01*
X77957520Y-94192185D01*
X77978162Y-94208819D01*
X78268222Y-94498879D01*
X78301707Y-94560202D01*
X78296723Y-94629894D01*
X78254851Y-94685827D01*
X78191349Y-94710088D01*
X78005312Y-94726364D01*
X78005302Y-94726366D01*
X77785511Y-94785258D01*
X77785502Y-94785261D01*
X77579267Y-94881431D01*
X77579265Y-94881432D01*
X77392858Y-95011954D01*
X77231954Y-95172858D01*
X77101432Y-95359265D01*
X77101431Y-95359267D01*
X77074382Y-95417275D01*
X77028209Y-95469714D01*
X76961016Y-95488866D01*
X76894135Y-95468650D01*
X76849618Y-95417275D01*
X76822568Y-95359267D01*
X76822567Y-95359265D01*
X76761045Y-95271402D01*
X76692047Y-95172861D01*
X76692045Y-95172858D01*
X76531141Y-95011954D01*
X76344734Y-94881432D01*
X76344732Y-94881431D01*
X76138497Y-94785261D01*
X76138488Y-94785258D01*
X75918697Y-94726366D01*
X75918693Y-94726365D01*
X75918692Y-94726365D01*
X75918691Y-94726364D01*
X75918686Y-94726364D01*
X75692002Y-94706532D01*
X75691998Y-94706532D01*
X75465313Y-94726364D01*
X75465302Y-94726366D01*
X75245511Y-94785258D01*
X75245502Y-94785261D01*
X75039267Y-94881431D01*
X75039265Y-94881432D01*
X74852858Y-95011954D01*
X74691954Y-95172858D01*
X74561432Y-95359265D01*
X74561431Y-95359267D01*
X74534382Y-95417275D01*
X74488209Y-95469714D01*
X74421016Y-95488866D01*
X74354135Y-95468650D01*
X74309618Y-95417275D01*
X74282568Y-95359267D01*
X74282567Y-95359265D01*
X74221045Y-95271402D01*
X74152047Y-95172861D01*
X74152045Y-95172858D01*
X73991141Y-95011954D01*
X73804734Y-94881432D01*
X73804732Y-94881431D01*
X73598497Y-94785261D01*
X73598488Y-94785258D01*
X73378697Y-94726366D01*
X73378693Y-94726365D01*
X73378692Y-94726365D01*
X73378691Y-94726364D01*
X73378686Y-94726364D01*
X73152002Y-94706532D01*
X73151998Y-94706532D01*
X72925313Y-94726364D01*
X72925302Y-94726366D01*
X72705511Y-94785258D01*
X72705502Y-94785261D01*
X72499267Y-94881431D01*
X72499265Y-94881432D01*
X72312858Y-95011954D01*
X72151954Y-95172858D01*
X72021432Y-95359265D01*
X72021431Y-95359267D01*
X71925261Y-95565502D01*
X71925258Y-95565511D01*
X71866366Y-95785302D01*
X71866364Y-95785313D01*
X71846532Y-96011998D01*
X71846532Y-96012000D01*
X71866364Y-96238686D01*
X71866366Y-96238697D01*
X71925258Y-96458488D01*
X71925261Y-96458497D01*
X72021431Y-96664732D01*
X72021432Y-96664734D01*
X72151954Y-96851141D01*
X72312858Y-97012045D01*
X72312861Y-97012047D01*
X72499266Y-97142568D01*
X72705504Y-97238739D01*
X72925308Y-97297635D01*
X73067361Y-97310063D01*
X73151998Y-97317468D01*
X73152000Y-97317468D01*
X73152002Y-97317468D01*
X73208673Y-97312509D01*
X73378692Y-97297635D01*
X73474932Y-97271847D01*
X73544781Y-97273510D01*
X73594706Y-97303941D01*
X74958584Y-98667819D01*
X74992069Y-98729142D01*
X74987085Y-98798834D01*
X74945213Y-98854767D01*
X74879749Y-98879184D01*
X74870903Y-98879500D01*
X56829091Y-98879500D01*
X56762052Y-98859815D01*
X56716711Y-98807909D01*
X56714037Y-98802175D01*
X56714034Y-98802170D01*
X56714033Y-98802169D01*
X56635843Y-98690501D01*
X56578494Y-98608597D01*
X56411402Y-98441506D01*
X56411396Y-98441501D01*
X56225842Y-98311575D01*
X56182217Y-98256998D01*
X56175023Y-98187500D01*
X56206546Y-98125145D01*
X56225842Y-98108425D01*
X56343815Y-98025819D01*
X56411401Y-97978495D01*
X56578495Y-97811401D01*
X56714035Y-97617830D01*
X56813903Y-97403663D01*
X56875063Y-97175408D01*
X56895659Y-96940000D01*
X56893024Y-96909888D01*
X56875063Y-96704596D01*
X56875063Y-96704592D01*
X56813903Y-96476337D01*
X56714035Y-96262171D01*
X56713916Y-96262000D01*
X56578494Y-96068597D01*
X56411402Y-95901506D01*
X56411396Y-95901501D01*
X56225842Y-95771575D01*
X56182217Y-95716998D01*
X56175023Y-95647500D01*
X56206546Y-95585145D01*
X56225842Y-95568425D01*
X56276924Y-95532657D01*
X56411401Y-95438495D01*
X56578495Y-95271401D01*
X56714035Y-95077830D01*
X56813903Y-94863663D01*
X56875063Y-94635408D01*
X56895659Y-94400000D01*
X56875063Y-94164592D01*
X56813903Y-93936337D01*
X56714035Y-93722171D01*
X56708425Y-93714158D01*
X56578494Y-93528597D01*
X56411402Y-93361506D01*
X56411396Y-93361501D01*
X56225842Y-93231575D01*
X56182217Y-93176998D01*
X56175023Y-93107500D01*
X56206546Y-93045145D01*
X56225842Y-93028425D01*
X56248026Y-93012891D01*
X56411401Y-92898495D01*
X56578495Y-92731401D01*
X56714035Y-92537830D01*
X56813903Y-92323663D01*
X56875063Y-92095408D01*
X56895659Y-91860000D01*
X56875063Y-91624592D01*
X56813903Y-91396337D01*
X56714035Y-91182171D01*
X56708425Y-91174158D01*
X56578494Y-90988597D01*
X56411402Y-90821506D01*
X56411396Y-90821501D01*
X56225842Y-90691575D01*
X56182217Y-90636998D01*
X56175023Y-90567500D01*
X56206546Y-90505145D01*
X56225842Y-90488425D01*
X56395684Y-90369500D01*
X56411401Y-90358495D01*
X56578495Y-90191401D01*
X56714035Y-89997830D01*
X56813903Y-89783663D01*
X56875063Y-89555408D01*
X56895659Y-89320000D01*
X56875063Y-89084592D01*
X56813903Y-88856337D01*
X56714035Y-88642171D01*
X56708425Y-88634158D01*
X56578494Y-88448597D01*
X56411402Y-88281506D01*
X56411396Y-88281501D01*
X56225842Y-88151575D01*
X56182217Y-88096998D01*
X56175023Y-88027500D01*
X56206546Y-87965145D01*
X56225842Y-87948425D01*
X56326045Y-87878262D01*
X56411401Y-87818495D01*
X56578495Y-87651401D01*
X56714035Y-87457830D01*
X56813903Y-87243663D01*
X56875063Y-87015408D01*
X56895659Y-86780000D01*
X56875063Y-86544592D01*
X56815900Y-86323789D01*
X56813905Y-86316344D01*
X56813904Y-86316343D01*
X56813903Y-86316337D01*
X56714035Y-86102171D01*
X56712699Y-86100262D01*
X56578494Y-85908597D01*
X56411402Y-85741506D01*
X56411396Y-85741501D01*
X56225842Y-85611575D01*
X56182217Y-85556998D01*
X56175023Y-85487500D01*
X56206546Y-85425145D01*
X56225842Y-85408425D01*
X56248026Y-85392891D01*
X56411401Y-85278495D01*
X56578495Y-85111401D01*
X56714035Y-84917830D01*
X56813903Y-84703663D01*
X56875063Y-84475408D01*
X56895659Y-84240000D01*
X56875063Y-84004592D01*
X56813903Y-83776337D01*
X56714035Y-83562171D01*
X56708425Y-83554158D01*
X56578494Y-83368597D01*
X56411402Y-83201506D01*
X56411396Y-83201501D01*
X56225842Y-83071575D01*
X56182217Y-83016998D01*
X56175023Y-82947500D01*
X56206546Y-82885145D01*
X56225842Y-82868425D01*
X56317856Y-82803996D01*
X56411401Y-82738495D01*
X56578495Y-82571401D01*
X56714035Y-82377830D01*
X56813903Y-82163663D01*
X56875063Y-81935408D01*
X56895659Y-81700000D01*
X56875063Y-81464592D01*
X56813903Y-81236337D01*
X56714035Y-81022171D01*
X56712699Y-81020262D01*
X56578494Y-80828597D01*
X56411402Y-80661506D01*
X56411396Y-80661501D01*
X56225842Y-80531575D01*
X56182217Y-80476998D01*
X56175023Y-80407500D01*
X56206546Y-80345145D01*
X56225842Y-80328425D01*
X56276924Y-80292657D01*
X56411401Y-80198495D01*
X56578495Y-80031401D01*
X56714035Y-79837830D01*
X56813903Y-79623663D01*
X56875063Y-79395408D01*
X56895659Y-79160000D01*
X56875063Y-78924592D01*
X56824154Y-78734593D01*
X56825817Y-78664743D01*
X56864980Y-78606881D01*
X56929209Y-78579377D01*
X56943929Y-78578500D01*
X57542535Y-78578500D01*
X57609574Y-78598185D01*
G37*
%TD.AperFunction*%
%TA.AperFunction,Conductor*%
G36*
X136630596Y-91590185D02*
G01*
X136651238Y-91606819D01*
X141660500Y-96616082D01*
X141693985Y-96677405D01*
X141689001Y-96747097D01*
X141647129Y-96803030D01*
X141638791Y-96808756D01*
X141483742Y-96906180D01*
X141480903Y-96908445D01*
X141478720Y-96909336D01*
X141477842Y-96909888D01*
X141477745Y-96909734D01*
X141416217Y-96934855D01*
X141403588Y-96935500D01*
X122836000Y-96935500D01*
X122768961Y-96915815D01*
X122723206Y-96863011D01*
X122712000Y-96811500D01*
X122712000Y-96262000D01*
X121727686Y-96262000D01*
X121732080Y-96257606D01*
X121784741Y-96166394D01*
X121812000Y-96064661D01*
X121812000Y-95959339D01*
X121784741Y-95857606D01*
X121732080Y-95766394D01*
X121727686Y-95762000D01*
X122712000Y-95762000D01*
X122712000Y-95164172D01*
X122711999Y-95164155D01*
X122705598Y-95104627D01*
X122705596Y-95104620D01*
X122655354Y-94969913D01*
X122655350Y-94969906D01*
X122569190Y-94854812D01*
X122569187Y-94854809D01*
X122454093Y-94768649D01*
X122454086Y-94768645D01*
X122319379Y-94718403D01*
X122319372Y-94718401D01*
X122259844Y-94712000D01*
X121662000Y-94712000D01*
X121662000Y-95696314D01*
X121657606Y-95691920D01*
X121566394Y-95639259D01*
X121464661Y-95612000D01*
X121359339Y-95612000D01*
X121257606Y-95639259D01*
X121166394Y-95691920D01*
X121162000Y-95696314D01*
X121162000Y-94712000D01*
X120564155Y-94712000D01*
X120504627Y-94718401D01*
X120504620Y-94718403D01*
X120369913Y-94768645D01*
X120369906Y-94768649D01*
X120254812Y-94854809D01*
X120254809Y-94854812D01*
X120168649Y-94969906D01*
X120168645Y-94969913D01*
X120118403Y-95104620D01*
X120118401Y-95104626D01*
X120114574Y-95140221D01*
X120087835Y-95204772D01*
X120030441Y-95244618D01*
X119960616Y-95247110D01*
X119900528Y-95211456D01*
X119889710Y-95198086D01*
X119872045Y-95172858D01*
X119711141Y-95011954D01*
X119524734Y-94881432D01*
X119524732Y-94881431D01*
X119318497Y-94785261D01*
X119318488Y-94785258D01*
X119098697Y-94726366D01*
X119098693Y-94726365D01*
X119098692Y-94726365D01*
X119098691Y-94726364D01*
X119098686Y-94726364D01*
X118872002Y-94706532D01*
X118871998Y-94706532D01*
X118645313Y-94726364D01*
X118645302Y-94726366D01*
X118425511Y-94785258D01*
X118425502Y-94785261D01*
X118219267Y-94881431D01*
X118219265Y-94881432D01*
X118032858Y-95011954D01*
X117871954Y-95172858D01*
X117741432Y-95359265D01*
X117741431Y-95359267D01*
X117714382Y-95417275D01*
X117668209Y-95469714D01*
X117601016Y-95488866D01*
X117534135Y-95468650D01*
X117489618Y-95417275D01*
X117462568Y-95359267D01*
X117462567Y-95359265D01*
X117401045Y-95271402D01*
X117332047Y-95172861D01*
X117332045Y-95172858D01*
X117171141Y-95011954D01*
X116984734Y-94881432D01*
X116984732Y-94881431D01*
X116778497Y-94785261D01*
X116778488Y-94785258D01*
X116558697Y-94726366D01*
X116558693Y-94726365D01*
X116558692Y-94726365D01*
X116558691Y-94726364D01*
X116558686Y-94726364D01*
X116332002Y-94706532D01*
X116331998Y-94706532D01*
X116105313Y-94726364D01*
X116105302Y-94726366D01*
X115885511Y-94785258D01*
X115885502Y-94785261D01*
X115679267Y-94881431D01*
X115679265Y-94881432D01*
X115492858Y-95011954D01*
X115331954Y-95172858D01*
X115201432Y-95359265D01*
X115201431Y-95359267D01*
X115174382Y-95417275D01*
X115128209Y-95469714D01*
X115061016Y-95488866D01*
X114994135Y-95468650D01*
X114949618Y-95417275D01*
X114922568Y-95359267D01*
X114922567Y-95359265D01*
X114861045Y-95271402D01*
X114792047Y-95172861D01*
X114792045Y-95172858D01*
X114631141Y-95011954D01*
X114444734Y-94881432D01*
X114444732Y-94881431D01*
X114238497Y-94785261D01*
X114238488Y-94785258D01*
X114018697Y-94726366D01*
X114018693Y-94726365D01*
X114018692Y-94726365D01*
X114018691Y-94726364D01*
X114018686Y-94726364D01*
X113792002Y-94706532D01*
X113791998Y-94706532D01*
X113565313Y-94726364D01*
X113565302Y-94726366D01*
X113345511Y-94785258D01*
X113345502Y-94785261D01*
X113139267Y-94881431D01*
X113139265Y-94881432D01*
X112952858Y-95011954D01*
X112791954Y-95172858D01*
X112661432Y-95359265D01*
X112661431Y-95359267D01*
X112634382Y-95417275D01*
X112588209Y-95469714D01*
X112521016Y-95488866D01*
X112454135Y-95468650D01*
X112409618Y-95417275D01*
X112382568Y-95359267D01*
X112382567Y-95359265D01*
X112321045Y-95271402D01*
X112252047Y-95172861D01*
X112252045Y-95172858D01*
X112091141Y-95011954D01*
X111904734Y-94881432D01*
X111904732Y-94881431D01*
X111698497Y-94785261D01*
X111698488Y-94785258D01*
X111478697Y-94726366D01*
X111478693Y-94726365D01*
X111478692Y-94726365D01*
X111478691Y-94726364D01*
X111478686Y-94726364D01*
X111252002Y-94706532D01*
X111251998Y-94706532D01*
X111025313Y-94726364D01*
X111025302Y-94726366D01*
X110805511Y-94785258D01*
X110805502Y-94785261D01*
X110599267Y-94881431D01*
X110599265Y-94881432D01*
X110412858Y-95011954D01*
X110251954Y-95172858D01*
X110121432Y-95359265D01*
X110121431Y-95359267D01*
X110094382Y-95417275D01*
X110048209Y-95469714D01*
X109981016Y-95488866D01*
X109914135Y-95468650D01*
X109869618Y-95417275D01*
X109842568Y-95359267D01*
X109842567Y-95359265D01*
X109781045Y-95271402D01*
X109712047Y-95172861D01*
X109712045Y-95172858D01*
X109551141Y-95011954D01*
X109364734Y-94881432D01*
X109364732Y-94881431D01*
X109158497Y-94785261D01*
X109158488Y-94785258D01*
X108938697Y-94726366D01*
X108938693Y-94726365D01*
X108938692Y-94726365D01*
X108938691Y-94726364D01*
X108938686Y-94726364D01*
X108712002Y-94706532D01*
X108711998Y-94706532D01*
X108485313Y-94726364D01*
X108485302Y-94726366D01*
X108265511Y-94785258D01*
X108265502Y-94785261D01*
X108059267Y-94881431D01*
X108059265Y-94881432D01*
X107872858Y-95011954D01*
X107711954Y-95172858D01*
X107581432Y-95359265D01*
X107581431Y-95359267D01*
X107554382Y-95417275D01*
X107508209Y-95469714D01*
X107441016Y-95488866D01*
X107374135Y-95468650D01*
X107329618Y-95417275D01*
X107302568Y-95359267D01*
X107302567Y-95359265D01*
X107241045Y-95271402D01*
X107172047Y-95172861D01*
X107172045Y-95172858D01*
X107011141Y-95011954D01*
X106824734Y-94881432D01*
X106824732Y-94881431D01*
X106618497Y-94785261D01*
X106618488Y-94785258D01*
X106398697Y-94726366D01*
X106398693Y-94726365D01*
X106398692Y-94726365D01*
X106398691Y-94726364D01*
X106398686Y-94726364D01*
X106172002Y-94706532D01*
X106171998Y-94706532D01*
X105945313Y-94726364D01*
X105945302Y-94726366D01*
X105725511Y-94785258D01*
X105725502Y-94785261D01*
X105519267Y-94881431D01*
X105519265Y-94881432D01*
X105332858Y-95011954D01*
X105171954Y-95172858D01*
X105041432Y-95359265D01*
X105041431Y-95359267D01*
X105014382Y-95417275D01*
X104968209Y-95469714D01*
X104901016Y-95488866D01*
X104834135Y-95468650D01*
X104789618Y-95417275D01*
X104762568Y-95359267D01*
X104762567Y-95359265D01*
X104701045Y-95271402D01*
X104632047Y-95172861D01*
X104632045Y-95172858D01*
X104471141Y-95011954D01*
X104284734Y-94881432D01*
X104284732Y-94881431D01*
X104078497Y-94785261D01*
X104078488Y-94785258D01*
X103858697Y-94726366D01*
X103858693Y-94726365D01*
X103858692Y-94726365D01*
X103858691Y-94726364D01*
X103858686Y-94726364D01*
X103632002Y-94706532D01*
X103631998Y-94706532D01*
X103405313Y-94726364D01*
X103405302Y-94726366D01*
X103185511Y-94785258D01*
X103185502Y-94785261D01*
X102979267Y-94881431D01*
X102979265Y-94881432D01*
X102792858Y-95011954D01*
X102631954Y-95172858D01*
X102501432Y-95359265D01*
X102501431Y-95359267D01*
X102474382Y-95417275D01*
X102428209Y-95469714D01*
X102361016Y-95488866D01*
X102294135Y-95468650D01*
X102249618Y-95417275D01*
X102222568Y-95359267D01*
X102222567Y-95359265D01*
X102161045Y-95271402D01*
X102092047Y-95172861D01*
X102092045Y-95172858D01*
X101931141Y-95011954D01*
X101744734Y-94881432D01*
X101744732Y-94881431D01*
X101538497Y-94785261D01*
X101538488Y-94785258D01*
X101318697Y-94726366D01*
X101318693Y-94726365D01*
X101318692Y-94726365D01*
X101318691Y-94726364D01*
X101318686Y-94726364D01*
X101092002Y-94706532D01*
X101091998Y-94706532D01*
X100865313Y-94726364D01*
X100865302Y-94726366D01*
X100769067Y-94752152D01*
X100699217Y-94750489D01*
X100649293Y-94720058D01*
X97711416Y-91782181D01*
X97677931Y-91720858D01*
X97682915Y-91651166D01*
X97724787Y-91595233D01*
X97790251Y-91570816D01*
X97799097Y-91570500D01*
X136563557Y-91570500D01*
X136630596Y-91590185D01*
G37*
%TD.AperFunction*%
%TA.AperFunction,Conductor*%
G36*
X92222942Y-93076185D02*
G01*
X92243584Y-93092819D01*
X93713621Y-94562856D01*
X93747106Y-94624179D01*
X93742122Y-94693871D01*
X93722000Y-94721086D01*
X93722000Y-95696314D01*
X93717606Y-95691920D01*
X93626394Y-95639259D01*
X93524661Y-95612000D01*
X93419339Y-95612000D01*
X93317606Y-95639259D01*
X93226394Y-95691920D01*
X93222000Y-95696314D01*
X93222000Y-94733127D01*
X93025671Y-94785734D01*
X92819517Y-94881865D01*
X92633179Y-95012342D01*
X92472342Y-95173179D01*
X92341867Y-95359515D01*
X92314657Y-95417867D01*
X92268484Y-95470306D01*
X92201290Y-95489457D01*
X92134409Y-95469241D01*
X92089893Y-95417865D01*
X92062570Y-95359271D01*
X92062567Y-95359265D01*
X92001045Y-95271402D01*
X91932047Y-95172861D01*
X91932045Y-95172858D01*
X91771141Y-95011954D01*
X91584734Y-94881432D01*
X91584732Y-94881431D01*
X91378497Y-94785261D01*
X91378488Y-94785258D01*
X91158697Y-94726366D01*
X91158693Y-94726365D01*
X91158692Y-94726365D01*
X91158691Y-94726364D01*
X91158686Y-94726364D01*
X90932002Y-94706532D01*
X90931998Y-94706532D01*
X90705313Y-94726364D01*
X90705302Y-94726366D01*
X90485511Y-94785258D01*
X90485502Y-94785261D01*
X90279267Y-94881431D01*
X90279265Y-94881432D01*
X90092858Y-95011954D01*
X89931954Y-95172858D01*
X89801432Y-95359265D01*
X89801431Y-95359267D01*
X89774382Y-95417275D01*
X89728209Y-95469714D01*
X89661016Y-95488866D01*
X89594135Y-95468650D01*
X89549618Y-95417275D01*
X89522568Y-95359267D01*
X89522567Y-95359265D01*
X89461045Y-95271402D01*
X89392047Y-95172861D01*
X89392045Y-95172858D01*
X89231141Y-95011954D01*
X89044734Y-94881432D01*
X89044732Y-94881431D01*
X88838497Y-94785261D01*
X88838488Y-94785258D01*
X88618697Y-94726366D01*
X88618693Y-94726365D01*
X88618692Y-94726365D01*
X88618691Y-94726364D01*
X88618686Y-94726364D01*
X88392002Y-94706532D01*
X88391998Y-94706532D01*
X88165313Y-94726364D01*
X88165302Y-94726366D01*
X87945511Y-94785258D01*
X87945502Y-94785261D01*
X87739267Y-94881431D01*
X87739265Y-94881432D01*
X87552858Y-95011954D01*
X87391954Y-95172858D01*
X87261432Y-95359265D01*
X87261431Y-95359267D01*
X87234382Y-95417275D01*
X87188209Y-95469714D01*
X87121016Y-95488866D01*
X87054135Y-95468650D01*
X87009618Y-95417275D01*
X86982568Y-95359267D01*
X86982567Y-95359265D01*
X86921045Y-95271402D01*
X86852047Y-95172861D01*
X86852045Y-95172858D01*
X86691141Y-95011954D01*
X86504734Y-94881432D01*
X86504732Y-94881431D01*
X86298497Y-94785261D01*
X86298488Y-94785258D01*
X86078697Y-94726366D01*
X86078693Y-94726365D01*
X86078692Y-94726365D01*
X86078691Y-94726364D01*
X86078686Y-94726364D01*
X85852002Y-94706532D01*
X85851998Y-94706532D01*
X85625313Y-94726364D01*
X85625302Y-94726366D01*
X85405511Y-94785258D01*
X85405502Y-94785261D01*
X85199267Y-94881431D01*
X85199265Y-94881432D01*
X85012858Y-95011954D01*
X84851954Y-95172858D01*
X84721432Y-95359265D01*
X84721431Y-95359267D01*
X84694382Y-95417275D01*
X84648209Y-95469714D01*
X84581016Y-95488866D01*
X84514135Y-95468650D01*
X84469618Y-95417275D01*
X84442568Y-95359267D01*
X84442567Y-95359265D01*
X84381045Y-95271402D01*
X84312047Y-95172861D01*
X84312045Y-95172858D01*
X84151141Y-95011954D01*
X83964734Y-94881432D01*
X83964732Y-94881431D01*
X83758497Y-94785261D01*
X83758488Y-94785258D01*
X83538697Y-94726366D01*
X83538693Y-94726365D01*
X83538692Y-94726365D01*
X83538691Y-94726364D01*
X83538686Y-94726364D01*
X83312002Y-94706532D01*
X83311998Y-94706532D01*
X83085313Y-94726364D01*
X83085302Y-94726366D01*
X82865511Y-94785258D01*
X82865502Y-94785261D01*
X82659267Y-94881431D01*
X82659265Y-94881432D01*
X82472858Y-95011954D01*
X82311954Y-95172858D01*
X82181432Y-95359265D01*
X82181431Y-95359267D01*
X82154382Y-95417275D01*
X82108209Y-95469714D01*
X82041016Y-95488866D01*
X81974135Y-95468650D01*
X81929618Y-95417275D01*
X81902568Y-95359267D01*
X81902567Y-95359265D01*
X81841045Y-95271402D01*
X81772047Y-95172861D01*
X81772045Y-95172858D01*
X81611141Y-95011954D01*
X81424734Y-94881432D01*
X81424732Y-94881431D01*
X81218497Y-94785261D01*
X81218488Y-94785258D01*
X80998697Y-94726366D01*
X80998693Y-94726365D01*
X80998692Y-94726365D01*
X80998691Y-94726364D01*
X80998686Y-94726364D01*
X80772002Y-94706532D01*
X80771998Y-94706532D01*
X80540116Y-94726819D01*
X80471616Y-94713052D01*
X80441628Y-94690972D01*
X79018838Y-93268181D01*
X78985353Y-93206858D01*
X78990337Y-93137166D01*
X79032209Y-93081233D01*
X79097673Y-93056816D01*
X79106519Y-93056500D01*
X92155903Y-93056500D01*
X92222942Y-93076185D01*
G37*
%TD.AperFunction*%
%TA.AperFunction,Conductor*%
G36*
X87650942Y-78344185D02*
G01*
X87671584Y-78360819D01*
X88573336Y-79262571D01*
X88606821Y-79323894D01*
X88601837Y-79393586D01*
X88559965Y-79449519D01*
X88494501Y-79473936D01*
X88474848Y-79473780D01*
X88392002Y-79466532D01*
X88391998Y-79466532D01*
X88165313Y-79486364D01*
X88165302Y-79486366D01*
X87945511Y-79545258D01*
X87945502Y-79545261D01*
X87739267Y-79641431D01*
X87739265Y-79641432D01*
X87552858Y-79771954D01*
X87391954Y-79932858D01*
X87261432Y-80119265D01*
X87261431Y-80119267D01*
X87234382Y-80177275D01*
X87188209Y-80229714D01*
X87121016Y-80248866D01*
X87054135Y-80228650D01*
X87009618Y-80177275D01*
X86982568Y-80119267D01*
X86982567Y-80119265D01*
X86921045Y-80031402D01*
X86852047Y-79932861D01*
X86852045Y-79932858D01*
X86691141Y-79771954D01*
X86504734Y-79641432D01*
X86504732Y-79641431D01*
X86298497Y-79545261D01*
X86298488Y-79545258D01*
X86078697Y-79486366D01*
X86078693Y-79486365D01*
X86078692Y-79486365D01*
X86078691Y-79486364D01*
X86078686Y-79486364D01*
X85852002Y-79466532D01*
X85851998Y-79466532D01*
X85625313Y-79486364D01*
X85625302Y-79486366D01*
X85405511Y-79545258D01*
X85405502Y-79545261D01*
X85199267Y-79641431D01*
X85199265Y-79641432D01*
X85012858Y-79771954D01*
X84851954Y-79932858D01*
X84721432Y-80119265D01*
X84721431Y-80119267D01*
X84694382Y-80177275D01*
X84648209Y-80229714D01*
X84581016Y-80248866D01*
X84514135Y-80228650D01*
X84469618Y-80177275D01*
X84442568Y-80119267D01*
X84442567Y-80119265D01*
X84381045Y-80031402D01*
X84312047Y-79932861D01*
X84312045Y-79932858D01*
X84151141Y-79771954D01*
X83964734Y-79641432D01*
X83964732Y-79641431D01*
X83758497Y-79545261D01*
X83758488Y-79545258D01*
X83538697Y-79486366D01*
X83538693Y-79486365D01*
X83538692Y-79486365D01*
X83538691Y-79486364D01*
X83538686Y-79486364D01*
X83312002Y-79466532D01*
X83311998Y-79466532D01*
X83085313Y-79486364D01*
X83085302Y-79486366D01*
X82865511Y-79545258D01*
X82865502Y-79545261D01*
X82659267Y-79641431D01*
X82659265Y-79641432D01*
X82472858Y-79771954D01*
X82311954Y-79932858D01*
X82181432Y-80119265D01*
X82181431Y-80119267D01*
X82154382Y-80177275D01*
X82108209Y-80229714D01*
X82041016Y-80248866D01*
X81974135Y-80228650D01*
X81929618Y-80177275D01*
X81902568Y-80119267D01*
X81902567Y-80119265D01*
X81841045Y-80031402D01*
X81772047Y-79932861D01*
X81772045Y-79932858D01*
X81611141Y-79771954D01*
X81424734Y-79641432D01*
X81424732Y-79641431D01*
X81218497Y-79545261D01*
X81218488Y-79545258D01*
X80998697Y-79486366D01*
X80998693Y-79486365D01*
X80998692Y-79486365D01*
X80998691Y-79486364D01*
X80998686Y-79486364D01*
X80772002Y-79466532D01*
X80771998Y-79466532D01*
X80545313Y-79486364D01*
X80545302Y-79486366D01*
X80325511Y-79545258D01*
X80325502Y-79545261D01*
X80119267Y-79641431D01*
X80119265Y-79641432D01*
X79932858Y-79771954D01*
X79771954Y-79932858D01*
X79641432Y-80119265D01*
X79641431Y-80119267D01*
X79614382Y-80177275D01*
X79568209Y-80229714D01*
X79501016Y-80248866D01*
X79434135Y-80228650D01*
X79389618Y-80177275D01*
X79362568Y-80119267D01*
X79362567Y-80119265D01*
X79301045Y-80031402D01*
X79232047Y-79932861D01*
X79232045Y-79932858D01*
X79071141Y-79771954D01*
X78884734Y-79641432D01*
X78884732Y-79641431D01*
X78678497Y-79545261D01*
X78678488Y-79545258D01*
X78458697Y-79486366D01*
X78458693Y-79486365D01*
X78458692Y-79486365D01*
X78458691Y-79486364D01*
X78458686Y-79486364D01*
X78232002Y-79466532D01*
X78231998Y-79466532D01*
X78005313Y-79486364D01*
X78005302Y-79486366D01*
X77785511Y-79545258D01*
X77785502Y-79545261D01*
X77579267Y-79641431D01*
X77579265Y-79641432D01*
X77392858Y-79771954D01*
X77231954Y-79932858D01*
X77101432Y-80119265D01*
X77101431Y-80119267D01*
X77074382Y-80177275D01*
X77028209Y-80229714D01*
X76961016Y-80248866D01*
X76894135Y-80228650D01*
X76849618Y-80177275D01*
X76822568Y-80119267D01*
X76822567Y-80119265D01*
X76761045Y-80031402D01*
X76692047Y-79932861D01*
X76692045Y-79932858D01*
X76531141Y-79771954D01*
X76344734Y-79641432D01*
X76344732Y-79641431D01*
X76138497Y-79545261D01*
X76138488Y-79545258D01*
X75918697Y-79486366D01*
X75918693Y-79486365D01*
X75918692Y-79486365D01*
X75918691Y-79486364D01*
X75918686Y-79486364D01*
X75692002Y-79466532D01*
X75691998Y-79466532D01*
X75465313Y-79486364D01*
X75465302Y-79486366D01*
X75245511Y-79545258D01*
X75245502Y-79545261D01*
X75039267Y-79641431D01*
X75039265Y-79641432D01*
X74852858Y-79771954D01*
X74691954Y-79932858D01*
X74561432Y-80119265D01*
X74561431Y-80119267D01*
X74534382Y-80177275D01*
X74488209Y-80229714D01*
X74421016Y-80248866D01*
X74354135Y-80228650D01*
X74309618Y-80177275D01*
X74282568Y-80119267D01*
X74282567Y-80119265D01*
X74221045Y-80031402D01*
X74152047Y-79932861D01*
X74152045Y-79932858D01*
X73991141Y-79771954D01*
X73804734Y-79641432D01*
X73804732Y-79641431D01*
X73598497Y-79545261D01*
X73598488Y-79545258D01*
X73378697Y-79486366D01*
X73378693Y-79486365D01*
X73378692Y-79486365D01*
X73378691Y-79486364D01*
X73378686Y-79486364D01*
X73152002Y-79466532D01*
X73151998Y-79466532D01*
X72925313Y-79486364D01*
X72925302Y-79486366D01*
X72705511Y-79545258D01*
X72705502Y-79545261D01*
X72499267Y-79641431D01*
X72499265Y-79641432D01*
X72312858Y-79771954D01*
X72151954Y-79932858D01*
X72021432Y-80119265D01*
X72021431Y-80119267D01*
X71925261Y-80325502D01*
X71925258Y-80325511D01*
X71866366Y-80545302D01*
X71866364Y-80545313D01*
X71846532Y-80771998D01*
X71846532Y-80772001D01*
X71866364Y-80998686D01*
X71866366Y-80998697D01*
X71925258Y-81218488D01*
X71925261Y-81218497D01*
X72021431Y-81424732D01*
X72021432Y-81424734D01*
X72151954Y-81611141D01*
X72312858Y-81772045D01*
X72312861Y-81772047D01*
X72498624Y-81902118D01*
X72542248Y-81956693D01*
X72551500Y-82003692D01*
X72551500Y-85015587D01*
X72531815Y-85082626D01*
X72524450Y-85092896D01*
X72522186Y-85095734D01*
X72426211Y-85248476D01*
X72366631Y-85418745D01*
X72366630Y-85418750D01*
X72346435Y-85597996D01*
X72346435Y-85598003D01*
X72366630Y-85777249D01*
X72366631Y-85777254D01*
X72426211Y-85947523D01*
X72518349Y-86094158D01*
X72522184Y-86100262D01*
X72649738Y-86227816D01*
X72802478Y-86323789D01*
X72972745Y-86383368D01*
X72972750Y-86383369D01*
X73151996Y-86403565D01*
X73152000Y-86403565D01*
X73152004Y-86403565D01*
X73331249Y-86383369D01*
X73331252Y-86383368D01*
X73331255Y-86383368D01*
X73501522Y-86323789D01*
X73654262Y-86227816D01*
X73781816Y-86100262D01*
X73877789Y-85947522D01*
X73937368Y-85777255D01*
X73941396Y-85741505D01*
X73957565Y-85598003D01*
X73957565Y-85597996D01*
X73937369Y-85418750D01*
X73937368Y-85418745D01*
X73888292Y-85278495D01*
X73877789Y-85248478D01*
X73781816Y-85095738D01*
X73781814Y-85095736D01*
X73781813Y-85095734D01*
X73779550Y-85092896D01*
X73778659Y-85090715D01*
X73778111Y-85089842D01*
X73778264Y-85089745D01*
X73753144Y-85028209D01*
X73752500Y-85015587D01*
X73752500Y-82003692D01*
X73772185Y-81936653D01*
X73805374Y-81902119D01*
X73991139Y-81772047D01*
X74152047Y-81611139D01*
X74282568Y-81424734D01*
X74309618Y-81366724D01*
X74355790Y-81314285D01*
X74422983Y-81295133D01*
X74489865Y-81315348D01*
X74534382Y-81366725D01*
X74561429Y-81424728D01*
X74561432Y-81424734D01*
X74691954Y-81611141D01*
X74852858Y-81772045D01*
X74852861Y-81772047D01*
X75039266Y-81902568D01*
X75245504Y-81998739D01*
X75245509Y-81998740D01*
X75245511Y-81998741D01*
X75298415Y-82012916D01*
X75465308Y-82057635D01*
X75607361Y-82070063D01*
X75691998Y-82077468D01*
X75692000Y-82077468D01*
X75692002Y-82077468D01*
X75748673Y-82072509D01*
X75918692Y-82057635D01*
X76014932Y-82031847D01*
X76084781Y-82033510D01*
X76134706Y-82063941D01*
X84698584Y-90627819D01*
X84732069Y-90689142D01*
X84727085Y-90758834D01*
X84685213Y-90814767D01*
X84619749Y-90839184D01*
X84610903Y-90839500D01*
X72182097Y-90839500D01*
X72115058Y-90819815D01*
X72094416Y-90803181D01*
X66373481Y-85082246D01*
X66339996Y-85020923D01*
X66344980Y-84951231D01*
X66386852Y-84895298D01*
X66452316Y-84870881D01*
X66475044Y-84871344D01*
X66502350Y-84874421D01*
X66547998Y-84879565D01*
X66548000Y-84879565D01*
X66548004Y-84879565D01*
X66727249Y-84859369D01*
X66727252Y-84859368D01*
X66727255Y-84859368D01*
X66897522Y-84799789D01*
X67050262Y-84703816D01*
X67177816Y-84576262D01*
X67273789Y-84423522D01*
X67333368Y-84253255D01*
X67333902Y-84248518D01*
X67353565Y-84074003D01*
X67353565Y-84073996D01*
X67333369Y-83894750D01*
X67333368Y-83894745D01*
X67305206Y-83814262D01*
X67273789Y-83724478D01*
X67177816Y-83571738D01*
X67050262Y-83444184D01*
X67039117Y-83437181D01*
X66897523Y-83348211D01*
X66727254Y-83288631D01*
X66727249Y-83288630D01*
X66548004Y-83268435D01*
X66547996Y-83268435D01*
X66368750Y-83288630D01*
X66368745Y-83288631D01*
X66198476Y-83348211D01*
X66045737Y-83444184D01*
X65918184Y-83571737D01*
X65822211Y-83724476D01*
X65762631Y-83894745D01*
X65762630Y-83894750D01*
X65742435Y-84073996D01*
X65742435Y-84074004D01*
X65750654Y-84146954D01*
X65738599Y-84215776D01*
X65691250Y-84267155D01*
X65623639Y-84284779D01*
X65557234Y-84263052D01*
X65539753Y-84248518D01*
X59827416Y-78536181D01*
X59793931Y-78474858D01*
X59798915Y-78405166D01*
X59840787Y-78349233D01*
X59906251Y-78324816D01*
X59915097Y-78324500D01*
X87583903Y-78324500D01*
X87650942Y-78344185D01*
G37*
%TD.AperFunction*%
%TA.AperFunction,Conductor*%
G36*
X148942539Y-67020185D02*
G01*
X148988294Y-67072989D01*
X148999500Y-67124500D01*
X148999500Y-111375500D01*
X148979815Y-111442539D01*
X148927011Y-111488294D01*
X148875500Y-111499500D01*
X51124500Y-111499500D01*
X51057461Y-111479815D01*
X51011706Y-111427011D01*
X51000500Y-111375500D01*
X51000500Y-68999999D01*
X51644341Y-68999999D01*
X51644341Y-69000000D01*
X51664936Y-69235403D01*
X51664938Y-69235413D01*
X51726094Y-69463655D01*
X51726096Y-69463659D01*
X51726097Y-69463663D01*
X51810499Y-69644663D01*
X51825965Y-69677830D01*
X51825967Y-69677834D01*
X51961501Y-69871395D01*
X51961506Y-69871402D01*
X52128597Y-70038493D01*
X52128603Y-70038498D01*
X52314158Y-70168425D01*
X52357783Y-70223002D01*
X52364977Y-70292500D01*
X52333454Y-70354855D01*
X52314158Y-70371575D01*
X52128597Y-70501505D01*
X51961505Y-70668597D01*
X51825965Y-70862169D01*
X51825964Y-70862171D01*
X51726098Y-71076335D01*
X51726094Y-71076344D01*
X51664938Y-71304586D01*
X51664936Y-71304596D01*
X51644341Y-71539999D01*
X51644341Y-71540000D01*
X51664936Y-71775403D01*
X51664938Y-71775413D01*
X51726094Y-72003655D01*
X51726096Y-72003659D01*
X51726097Y-72003663D01*
X51730000Y-72012032D01*
X51825965Y-72217830D01*
X51825967Y-72217834D01*
X51934281Y-72372521D01*
X51961501Y-72411396D01*
X51961506Y-72411402D01*
X52128597Y-72578493D01*
X52128603Y-72578498D01*
X52314158Y-72708425D01*
X52357783Y-72763002D01*
X52364977Y-72832500D01*
X52333454Y-72894855D01*
X52314158Y-72911575D01*
X52128597Y-73041505D01*
X51961505Y-73208597D01*
X51825965Y-73402169D01*
X51825964Y-73402171D01*
X51746362Y-73572878D01*
X51727918Y-73612433D01*
X51726098Y-73616335D01*
X51726094Y-73616344D01*
X51664938Y-73844586D01*
X51664936Y-73844596D01*
X51644341Y-74079999D01*
X51644341Y-74080000D01*
X51664936Y-74315403D01*
X51664938Y-74315413D01*
X51726094Y-74543655D01*
X51726096Y-74543659D01*
X51726097Y-74543663D01*
X51820703Y-74746546D01*
X51825965Y-74757830D01*
X51825967Y-74757834D01*
X51904157Y-74869500D01*
X51961501Y-74951396D01*
X51961506Y-74951402D01*
X52128597Y-75118493D01*
X52128603Y-75118498D01*
X52314158Y-75248425D01*
X52357783Y-75303002D01*
X52364977Y-75372500D01*
X52333454Y-75434855D01*
X52314158Y-75451575D01*
X52128597Y-75581505D01*
X51961505Y-75748597D01*
X51825965Y-75942169D01*
X51825964Y-75942171D01*
X51726098Y-76156335D01*
X51726094Y-76156344D01*
X51664938Y-76384586D01*
X51664936Y-76384596D01*
X51644341Y-76619999D01*
X51644341Y-76620000D01*
X51664936Y-76855403D01*
X51664938Y-76855413D01*
X51726094Y-77083655D01*
X51726096Y-77083659D01*
X51726097Y-77083663D01*
X51763756Y-77164423D01*
X51825965Y-77297830D01*
X51825967Y-77297834D01*
X51934281Y-77452521D01*
X51961501Y-77491396D01*
X51961506Y-77491402D01*
X52128597Y-77658493D01*
X52128603Y-77658498D01*
X52314158Y-77788425D01*
X52357783Y-77843002D01*
X52364977Y-77912500D01*
X52333454Y-77974855D01*
X52314158Y-77991575D01*
X52128597Y-78121505D01*
X51961505Y-78288597D01*
X51825965Y-78482169D01*
X51825964Y-78482171D01*
X51726098Y-78696335D01*
X51726094Y-78696344D01*
X51664938Y-78924586D01*
X51664936Y-78924596D01*
X51644341Y-79159999D01*
X51644341Y-79160000D01*
X51664936Y-79395403D01*
X51664938Y-79395413D01*
X51726094Y-79623655D01*
X51726096Y-79623659D01*
X51726097Y-79623663D01*
X51820703Y-79826546D01*
X51825965Y-79837830D01*
X51825967Y-79837834D01*
X51861223Y-79888184D01*
X51961501Y-80031396D01*
X51961506Y-80031402D01*
X52128597Y-80198493D01*
X52128603Y-80198498D01*
X52314158Y-80328425D01*
X52357783Y-80383002D01*
X52364977Y-80452500D01*
X52333454Y-80514855D01*
X52314158Y-80531575D01*
X52128597Y-80661505D01*
X51961505Y-80828597D01*
X51825965Y-81022169D01*
X51825964Y-81022171D01*
X51726098Y-81236335D01*
X51726094Y-81236344D01*
X51664938Y-81464586D01*
X51664936Y-81464596D01*
X51644341Y-81699999D01*
X51644341Y-81700000D01*
X51664936Y-81935403D01*
X51664938Y-81935413D01*
X51726094Y-82163655D01*
X51726096Y-82163659D01*
X51726097Y-82163663D01*
X51816464Y-82357456D01*
X51825965Y-82377830D01*
X51825967Y-82377834D01*
X51911383Y-82499819D01*
X51961501Y-82571396D01*
X51961506Y-82571402D01*
X52128597Y-82738493D01*
X52128603Y-82738498D01*
X52314158Y-82868425D01*
X52357783Y-82923002D01*
X52364977Y-82992500D01*
X52333454Y-83054855D01*
X52314158Y-83071575D01*
X52128597Y-83201505D01*
X51961505Y-83368597D01*
X51825965Y-83562169D01*
X51825964Y-83562171D01*
X51726098Y-83776335D01*
X51726094Y-83776344D01*
X51664938Y-84004586D01*
X51664936Y-84004596D01*
X51644341Y-84239999D01*
X51644341Y-84240000D01*
X51664936Y-84475403D01*
X51664938Y-84475413D01*
X51726094Y-84703655D01*
X51726096Y-84703659D01*
X51726097Y-84703663D01*
X51798704Y-84859368D01*
X51825965Y-84917830D01*
X51825967Y-84917834D01*
X51903253Y-85028209D01*
X51961501Y-85111396D01*
X51961506Y-85111402D01*
X52128597Y-85278493D01*
X52128603Y-85278498D01*
X52314158Y-85408425D01*
X52357783Y-85463002D01*
X52364977Y-85532500D01*
X52333454Y-85594855D01*
X52314158Y-85611575D01*
X52128597Y-85741505D01*
X51961505Y-85908597D01*
X51825965Y-86102169D01*
X51825964Y-86102171D01*
X51726098Y-86316335D01*
X51726094Y-86316344D01*
X51664938Y-86544586D01*
X51664936Y-86544596D01*
X51644341Y-86779999D01*
X51644341Y-86780000D01*
X51664936Y-87015403D01*
X51664938Y-87015413D01*
X51726094Y-87243655D01*
X51726096Y-87243659D01*
X51726097Y-87243663D01*
X51806004Y-87415023D01*
X51825965Y-87457830D01*
X51825967Y-87457834D01*
X51934281Y-87612521D01*
X51961501Y-87651396D01*
X51961506Y-87651402D01*
X52128597Y-87818493D01*
X52128603Y-87818498D01*
X52314158Y-87948425D01*
X52357783Y-88003002D01*
X52364977Y-88072500D01*
X52333454Y-88134855D01*
X52314158Y-88151575D01*
X52128597Y-88281505D01*
X51961505Y-88448597D01*
X51825965Y-88642169D01*
X51825964Y-88642171D01*
X51726098Y-88856335D01*
X51726094Y-88856344D01*
X51664938Y-89084586D01*
X51664936Y-89084596D01*
X51644341Y-89319999D01*
X51644341Y-89320000D01*
X51664936Y-89555403D01*
X51664938Y-89555413D01*
X51726094Y-89783655D01*
X51726096Y-89783659D01*
X51726097Y-89783663D01*
X51820703Y-89986546D01*
X51825965Y-89997830D01*
X51825967Y-89997834D01*
X51934281Y-90152521D01*
X51961501Y-90191396D01*
X51961506Y-90191402D01*
X52128597Y-90358493D01*
X52128603Y-90358498D01*
X52314158Y-90488425D01*
X52357783Y-90543002D01*
X52364977Y-90612500D01*
X52333454Y-90674855D01*
X52314158Y-90691575D01*
X52128597Y-90821505D01*
X51961505Y-90988597D01*
X51825965Y-91182169D01*
X51825964Y-91182171D01*
X51726098Y-91396335D01*
X51726094Y-91396344D01*
X51664938Y-91624586D01*
X51664936Y-91624596D01*
X51644341Y-91859999D01*
X51644341Y-91860000D01*
X51664936Y-92095403D01*
X51664938Y-92095413D01*
X51726094Y-92323655D01*
X51726096Y-92323659D01*
X51726097Y-92323663D01*
X51730000Y-92332032D01*
X51825965Y-92537830D01*
X51825967Y-92537834D01*
X51850754Y-92573233D01*
X51961501Y-92731396D01*
X51961506Y-92731402D01*
X52128597Y-92898493D01*
X52128603Y-92898498D01*
X52314158Y-93028425D01*
X52357783Y-93083002D01*
X52364977Y-93152500D01*
X52333454Y-93214855D01*
X52314158Y-93231575D01*
X52128597Y-93361505D01*
X51961505Y-93528597D01*
X51825965Y-93722169D01*
X51825964Y-93722171D01*
X51726098Y-93936335D01*
X51726094Y-93936344D01*
X51664938Y-94164586D01*
X51664936Y-94164596D01*
X51644341Y-94399999D01*
X51644341Y-94400000D01*
X51664936Y-94635403D01*
X51664938Y-94635413D01*
X51726094Y-94863655D01*
X51726096Y-94863659D01*
X51726097Y-94863663D01*
X51806004Y-95035023D01*
X51825965Y-95077830D01*
X51825967Y-95077834D01*
X51886410Y-95164155D01*
X51961501Y-95271396D01*
X51961506Y-95271402D01*
X52128597Y-95438493D01*
X52128603Y-95438498D01*
X52314158Y-95568425D01*
X52357783Y-95623002D01*
X52364977Y-95692500D01*
X52333454Y-95754855D01*
X52314158Y-95771575D01*
X52128597Y-95901505D01*
X51961505Y-96068597D01*
X51825965Y-96262169D01*
X51825964Y-96262171D01*
X51726098Y-96476335D01*
X51726094Y-96476344D01*
X51664938Y-96704586D01*
X51664936Y-96704596D01*
X51644341Y-96939999D01*
X51644341Y-96940000D01*
X51664936Y-97175403D01*
X51664938Y-97175413D01*
X51726094Y-97403655D01*
X51726096Y-97403659D01*
X51726097Y-97403663D01*
X51764407Y-97485819D01*
X51825965Y-97617830D01*
X51825967Y-97617834D01*
X51934281Y-97772521D01*
X51961501Y-97811396D01*
X51961506Y-97811402D01*
X52128597Y-97978493D01*
X52128603Y-97978498D01*
X52314158Y-98108425D01*
X52357783Y-98163002D01*
X52364977Y-98232500D01*
X52333454Y-98294855D01*
X52314158Y-98311575D01*
X52128597Y-98441505D01*
X51961505Y-98608597D01*
X51825965Y-98802169D01*
X51825964Y-98802171D01*
X51726098Y-99016335D01*
X51726094Y-99016344D01*
X51664938Y-99244586D01*
X51664936Y-99244596D01*
X51644341Y-99479999D01*
X51644341Y-99480000D01*
X51664936Y-99715403D01*
X51664938Y-99715413D01*
X51726094Y-99943655D01*
X51726096Y-99943659D01*
X51726097Y-99943663D01*
X51806004Y-100115023D01*
X51825965Y-100157830D01*
X51825967Y-100157834D01*
X51934281Y-100312521D01*
X51961501Y-100351396D01*
X51961506Y-100351402D01*
X52128597Y-100518493D01*
X52128603Y-100518498D01*
X52314158Y-100648425D01*
X52357783Y-100703002D01*
X52364977Y-100772500D01*
X52333454Y-100834855D01*
X52314158Y-100851575D01*
X52128597Y-100981505D01*
X51961505Y-101148597D01*
X51825965Y-101342169D01*
X51825964Y-101342171D01*
X51726098Y-101556335D01*
X51726094Y-101556344D01*
X51664938Y-101784586D01*
X51664936Y-101784596D01*
X51644341Y-102019999D01*
X51644341Y-102020000D01*
X51664936Y-102255403D01*
X51664938Y-102255413D01*
X51726094Y-102483655D01*
X51726096Y-102483659D01*
X51726097Y-102483663D01*
X51806004Y-102655023D01*
X51825965Y-102697830D01*
X51825967Y-102697834D01*
X51934281Y-102852521D01*
X51961501Y-102891396D01*
X51961506Y-102891402D01*
X52128597Y-103058493D01*
X52128603Y-103058498D01*
X52314158Y-103188425D01*
X52357783Y-103243002D01*
X52364977Y-103312500D01*
X52333454Y-103374855D01*
X52314158Y-103391575D01*
X52128597Y-103521505D01*
X51961505Y-103688597D01*
X51825965Y-103882169D01*
X51825964Y-103882171D01*
X51726098Y-104096335D01*
X51726094Y-104096344D01*
X51664938Y-104324586D01*
X51664936Y-104324596D01*
X51644341Y-104559999D01*
X51644341Y-104560000D01*
X51664936Y-104795403D01*
X51664938Y-104795413D01*
X51726094Y-105023655D01*
X51726096Y-105023659D01*
X51726097Y-105023663D01*
X51820703Y-105226546D01*
X51825965Y-105237830D01*
X51825967Y-105237834D01*
X51904157Y-105349500D01*
X51961501Y-105431396D01*
X51961506Y-105431402D01*
X52128597Y-105598493D01*
X52128603Y-105598498D01*
X52314158Y-105728425D01*
X52357783Y-105783002D01*
X52364977Y-105852500D01*
X52333454Y-105914855D01*
X52314158Y-105931575D01*
X52128597Y-106061505D01*
X51961505Y-106228597D01*
X51825965Y-106422169D01*
X51825964Y-106422171D01*
X51726098Y-106636335D01*
X51726094Y-106636344D01*
X51664938Y-106864586D01*
X51664936Y-106864596D01*
X51644341Y-107099999D01*
X51644341Y-107100000D01*
X51664936Y-107335403D01*
X51664938Y-107335413D01*
X51726094Y-107563655D01*
X51726096Y-107563659D01*
X51726097Y-107563663D01*
X51798703Y-107719366D01*
X51825965Y-107777830D01*
X51825967Y-107777834D01*
X51934281Y-107932521D01*
X51961501Y-107971396D01*
X51961506Y-107971402D01*
X52083818Y-108093714D01*
X52117303Y-108155037D01*
X52112319Y-108224729D01*
X52070447Y-108280662D01*
X52039471Y-108297577D01*
X51907912Y-108346646D01*
X51907906Y-108346649D01*
X51792812Y-108432809D01*
X51792809Y-108432812D01*
X51706649Y-108547906D01*
X51706645Y-108547913D01*
X51656403Y-108682620D01*
X51656401Y-108682627D01*
X51650000Y-108742155D01*
X51650000Y-109390000D01*
X52566988Y-109390000D01*
X52534075Y-109447007D01*
X52500000Y-109574174D01*
X52500000Y-109705826D01*
X52534075Y-109832993D01*
X52566988Y-109890000D01*
X51650000Y-109890000D01*
X51650000Y-110537844D01*
X51656401Y-110597372D01*
X51656403Y-110597379D01*
X51706645Y-110732086D01*
X51706649Y-110732093D01*
X51792809Y-110847187D01*
X51792812Y-110847190D01*
X51907906Y-110933350D01*
X51907913Y-110933354D01*
X52042620Y-110983596D01*
X52042627Y-110983598D01*
X52102155Y-110989999D01*
X52102172Y-110990000D01*
X52750000Y-110990000D01*
X52750000Y-110073012D01*
X52807007Y-110105925D01*
X52934174Y-110140000D01*
X53065826Y-110140000D01*
X53192993Y-110105925D01*
X53250000Y-110073012D01*
X53250000Y-110990000D01*
X53897828Y-110990000D01*
X53897844Y-110989999D01*
X53957372Y-110983598D01*
X53957379Y-110983596D01*
X54092086Y-110933354D01*
X54092093Y-110933350D01*
X54207187Y-110847190D01*
X54207190Y-110847187D01*
X54293350Y-110732093D01*
X54293354Y-110732086D01*
X54342614Y-110600013D01*
X54384485Y-110544079D01*
X54449949Y-110519662D01*
X54518222Y-110534513D01*
X54546477Y-110555665D01*
X54668917Y-110678105D01*
X54862421Y-110813600D01*
X55076507Y-110913429D01*
X55076516Y-110913433D01*
X55290000Y-110970634D01*
X55290000Y-110073012D01*
X55347007Y-110105925D01*
X55474174Y-110140000D01*
X55605826Y-110140000D01*
X55732993Y-110105925D01*
X55790000Y-110073012D01*
X55790000Y-110970633D01*
X56003483Y-110913433D01*
X56003492Y-110913429D01*
X56217578Y-110813600D01*
X56411082Y-110678105D01*
X56578105Y-110511082D01*
X56713600Y-110317578D01*
X56813429Y-110103492D01*
X56813432Y-110103486D01*
X56870636Y-109890000D01*
X55973012Y-109890000D01*
X56005925Y-109832993D01*
X56040000Y-109705826D01*
X56040000Y-109574174D01*
X56005925Y-109447007D01*
X55973012Y-109390000D01*
X56870636Y-109390000D01*
X56870635Y-109389999D01*
X56813432Y-109176513D01*
X56813429Y-109176507D01*
X56713600Y-108962422D01*
X56713599Y-108962420D01*
X56578113Y-108768926D01*
X56578108Y-108768920D01*
X56411078Y-108601890D01*
X56225405Y-108471879D01*
X56181780Y-108417302D01*
X56174588Y-108347804D01*
X56206110Y-108285449D01*
X56225406Y-108268730D01*
X56337500Y-108190241D01*
X56411401Y-108138495D01*
X56578495Y-107971401D01*
X56714035Y-107777830D01*
X56716707Y-107772097D01*
X56762878Y-107719658D01*
X56829091Y-107700500D01*
X116077754Y-107700500D01*
X116118709Y-107707459D01*
X116152737Y-107719366D01*
X116152743Y-107719367D01*
X116152745Y-107719368D01*
X116152746Y-107719368D01*
X116152750Y-107719369D01*
X116331996Y-107739565D01*
X116332000Y-107739565D01*
X116332004Y-107739565D01*
X116511249Y-107719369D01*
X116511252Y-107719368D01*
X116511255Y-107719368D01*
X116681522Y-107659789D01*
X116834262Y-107563816D01*
X116961816Y-107436262D01*
X117057789Y-107283522D01*
X117117368Y-107113255D01*
X117117369Y-107113249D01*
X117137565Y-106934003D01*
X117137565Y-106933996D01*
X117117369Y-106754750D01*
X117117368Y-106754745D01*
X117057789Y-106584478D01*
X116961816Y-106431738D01*
X116834262Y-106304184D01*
X116681523Y-106208211D01*
X116511254Y-106148631D01*
X116511249Y-106148630D01*
X116332004Y-106128435D01*
X116331996Y-106128435D01*
X116152750Y-106148630D01*
X116152745Y-106148631D01*
X115982476Y-106208211D01*
X115829737Y-106304184D01*
X115702183Y-106431738D01*
X115696066Y-106441474D01*
X115643730Y-106487764D01*
X115591073Y-106499500D01*
X114699023Y-106499500D01*
X114631984Y-106479815D01*
X114586229Y-106427011D01*
X114576285Y-106357853D01*
X114577149Y-106353198D01*
X114597565Y-106172003D01*
X114597565Y-106171996D01*
X114577369Y-105992750D01*
X114577368Y-105992745D01*
X114517788Y-105822476D01*
X114469197Y-105745145D01*
X114421816Y-105669738D01*
X114294262Y-105542184D01*
X114141523Y-105446211D01*
X113971254Y-105386631D01*
X113971249Y-105386630D01*
X113792004Y-105366435D01*
X113791999Y-105366435D01*
X113759173Y-105370132D01*
X113713203Y-105366686D01*
X113649058Y-105349499D01*
X113649057Y-105349499D01*
X113490943Y-105349499D01*
X113483347Y-105349499D01*
X113483331Y-105349500D01*
X111980417Y-105349500D01*
X111913378Y-105329815D01*
X111867623Y-105277011D01*
X111857679Y-105207853D01*
X111879617Y-105157104D01*
X111878111Y-105156158D01*
X111961363Y-105023664D01*
X111977789Y-104997522D01*
X112037368Y-104827255D01*
X112040956Y-104795413D01*
X112057565Y-104648003D01*
X112057565Y-104647996D01*
X112037369Y-104468750D01*
X112037368Y-104468745D01*
X111986928Y-104324596D01*
X111977789Y-104298478D01*
X111881816Y-104145738D01*
X111754262Y-104018184D01*
X111601523Y-103922211D01*
X111431254Y-103862631D01*
X111431249Y-103862630D01*
X111252004Y-103842435D01*
X111251996Y-103842435D01*
X111072750Y-103862630D01*
X111072745Y-103862631D01*
X110902475Y-103922211D01*
X110873382Y-103940493D01*
X110807409Y-103959500D01*
X109516389Y-103959500D01*
X109449350Y-103939815D01*
X109403595Y-103887011D01*
X109393651Y-103817853D01*
X109411395Y-103769528D01*
X109437788Y-103727523D01*
X109437789Y-103727522D01*
X109497368Y-103557255D01*
X109501396Y-103521505D01*
X109517565Y-103378003D01*
X109517565Y-103377996D01*
X109497369Y-103198750D01*
X109497368Y-103198745D01*
X109448292Y-103058495D01*
X109437789Y-103028478D01*
X109341816Y-102875738D01*
X109214262Y-102748184D01*
X109061523Y-102652211D01*
X108891254Y-102592631D01*
X108891249Y-102592630D01*
X108712004Y-102572435D01*
X108711996Y-102572435D01*
X108532750Y-102592630D01*
X108532745Y-102592631D01*
X108362476Y-102652211D01*
X108209736Y-102748185D01*
X108206903Y-102750445D01*
X108204724Y-102751334D01*
X108203842Y-102751889D01*
X108203744Y-102751734D01*
X108142217Y-102776855D01*
X108129588Y-102777500D01*
X106921095Y-102777500D01*
X106854056Y-102757815D01*
X106808301Y-102705011D01*
X106798357Y-102635853D01*
X106816101Y-102587528D01*
X106881363Y-102483664D01*
X106897789Y-102457522D01*
X106957368Y-102287255D01*
X106957369Y-102287249D01*
X106977565Y-102108003D01*
X106977565Y-102107996D01*
X106957369Y-101928750D01*
X106957368Y-101928745D01*
X106931215Y-101854003D01*
X106897789Y-101758478D01*
X106897788Y-101758476D01*
X106816101Y-101628472D01*
X106797101Y-101561235D01*
X106817469Y-101494400D01*
X106870737Y-101449186D01*
X106921095Y-101438500D01*
X117809903Y-101438500D01*
X117876942Y-101458185D01*
X117897584Y-101474819D01*
X118041298Y-101618533D01*
X118074783Y-101679856D01*
X118076837Y-101692330D01*
X118086630Y-101779249D01*
X118086631Y-101779254D01*
X118086632Y-101779255D01*
X118088501Y-101784596D01*
X118146210Y-101949521D01*
X118214739Y-102058584D01*
X118242184Y-102102262D01*
X118369738Y-102229816D01*
X118522478Y-102325789D01*
X118692745Y-102385368D01*
X118692750Y-102385369D01*
X118871996Y-102405565D01*
X118872000Y-102405565D01*
X118872004Y-102405565D01*
X119051249Y-102385369D01*
X119051252Y-102385368D01*
X119051255Y-102385368D01*
X119221522Y-102325789D01*
X119374262Y-102229816D01*
X119501816Y-102102262D01*
X119597789Y-101949522D01*
X119657368Y-101779255D01*
X119659709Y-101758478D01*
X119677565Y-101600003D01*
X119677565Y-101599996D01*
X119657369Y-101420750D01*
X119657368Y-101420745D01*
X119597788Y-101250476D01*
X119583962Y-101228472D01*
X119564962Y-101161235D01*
X119585330Y-101094400D01*
X119638598Y-101049186D01*
X119688956Y-101038500D01*
X135671853Y-101038500D01*
X135738892Y-101058185D01*
X135759534Y-101074819D01*
X136532617Y-101847902D01*
X136566102Y-101909225D01*
X136568156Y-101921699D01*
X136577949Y-102008618D01*
X136637529Y-102178890D01*
X136685606Y-102255403D01*
X136733503Y-102331631D01*
X136861057Y-102459185D01*
X137013797Y-102555158D01*
X137120886Y-102592630D01*
X137184064Y-102614737D01*
X137184069Y-102614738D01*
X137363315Y-102634934D01*
X137363319Y-102634934D01*
X137363323Y-102634934D01*
X137542568Y-102614738D01*
X137542571Y-102614737D01*
X137542574Y-102614737D01*
X137712841Y-102555158D01*
X137865581Y-102459185D01*
X137993135Y-102331631D01*
X138089108Y-102178891D01*
X138103923Y-102136550D01*
X138144644Y-102079774D01*
X138180011Y-102060462D01*
X138185377Y-102058584D01*
X138185379Y-102058584D01*
X138355646Y-101999005D01*
X138508386Y-101903032D01*
X138635940Y-101775478D01*
X138731913Y-101622738D01*
X138791492Y-101452471D01*
X138791492Y-101452470D01*
X138793792Y-101445898D01*
X138795999Y-101446670D01*
X138824709Y-101395307D01*
X138870562Y-101366811D01*
X139033522Y-101309789D01*
X139186262Y-101213816D01*
X139313816Y-101086262D01*
X139409789Y-100933522D01*
X139469368Y-100763255D01*
X139469369Y-100763249D01*
X139474082Y-100721420D01*
X139501148Y-100657005D01*
X139558742Y-100617450D01*
X139583420Y-100612082D01*
X139625249Y-100607369D01*
X139625252Y-100607368D01*
X139625255Y-100607368D01*
X139795522Y-100547789D01*
X139948262Y-100451816D01*
X140075816Y-100324262D01*
X140171789Y-100171522D01*
X140231368Y-100001255D01*
X140231369Y-100001249D01*
X140236082Y-99959420D01*
X140263148Y-99895005D01*
X140320742Y-99855450D01*
X140345420Y-99850082D01*
X140387249Y-99845369D01*
X140387252Y-99845368D01*
X140387255Y-99845368D01*
X140557522Y-99785789D01*
X140710262Y-99689816D01*
X140837816Y-99562262D01*
X140933789Y-99409522D01*
X140993368Y-99239255D01*
X140994882Y-99225819D01*
X140998082Y-99197420D01*
X141025148Y-99133005D01*
X141082742Y-99093450D01*
X141107420Y-99088082D01*
X141149249Y-99083369D01*
X141149252Y-99083368D01*
X141149255Y-99083368D01*
X141319522Y-99023789D01*
X141472262Y-98927816D01*
X141599816Y-98800262D01*
X141695789Y-98647522D01*
X141755368Y-98477255D01*
X141759472Y-98440825D01*
X141786536Y-98376414D01*
X141844130Y-98336858D01*
X141896574Y-98331489D01*
X141955190Y-98338093D01*
X141985998Y-98341565D01*
X141986000Y-98341565D01*
X141986004Y-98341565D01*
X142165249Y-98321369D01*
X142165252Y-98321368D01*
X142165255Y-98321368D01*
X142335522Y-98261789D01*
X142488262Y-98165816D01*
X142615816Y-98038262D01*
X142711789Y-97885522D01*
X142711790Y-97885518D01*
X142713242Y-97883208D01*
X142765576Y-97836917D01*
X142834630Y-97826268D01*
X142898478Y-97854643D01*
X142905917Y-97861499D01*
X143449579Y-98405160D01*
X143483064Y-98466483D01*
X143478080Y-98536174D01*
X143449582Y-98580519D01*
X143421506Y-98608596D01*
X143285965Y-98802169D01*
X143285964Y-98802171D01*
X143186098Y-99016335D01*
X143186094Y-99016344D01*
X143124938Y-99244586D01*
X143124936Y-99244596D01*
X143104341Y-99479999D01*
X143104341Y-99480000D01*
X143124936Y-99715403D01*
X143124938Y-99715413D01*
X143186094Y-99943655D01*
X143186096Y-99943659D01*
X143186097Y-99943663D01*
X143266004Y-100115023D01*
X143285965Y-100157830D01*
X143285967Y-100157834D01*
X143394281Y-100312521D01*
X143421501Y-100351396D01*
X143421506Y-100351402D01*
X143588597Y-100518493D01*
X143588603Y-100518498D01*
X143774158Y-100648425D01*
X143817783Y-100703002D01*
X143824977Y-100772500D01*
X143793454Y-100834855D01*
X143774158Y-100851575D01*
X143588597Y-100981505D01*
X143421505Y-101148597D01*
X143285965Y-101342169D01*
X143285964Y-101342171D01*
X143186098Y-101556335D01*
X143186094Y-101556344D01*
X143124938Y-101784586D01*
X143124936Y-101784596D01*
X143104341Y-102019999D01*
X143104341Y-102020000D01*
X143124936Y-102255403D01*
X143124938Y-102255413D01*
X143186094Y-102483655D01*
X143186096Y-102483659D01*
X143186097Y-102483663D01*
X143266004Y-102655023D01*
X143285965Y-102697830D01*
X143285967Y-102697834D01*
X143394281Y-102852521D01*
X143421501Y-102891396D01*
X143421506Y-102891402D01*
X143588597Y-103058493D01*
X143588603Y-103058498D01*
X143774158Y-103188425D01*
X143817783Y-103243002D01*
X143824977Y-103312500D01*
X143793454Y-103374855D01*
X143774158Y-103391575D01*
X143588597Y-103521505D01*
X143421505Y-103688597D01*
X143285965Y-103882169D01*
X143285964Y-103882171D01*
X143186098Y-104096335D01*
X143186094Y-104096344D01*
X143124938Y-104324586D01*
X143124936Y-104324596D01*
X143104341Y-104559999D01*
X143104341Y-104560000D01*
X143124936Y-104795403D01*
X143124938Y-104795413D01*
X143186094Y-105023655D01*
X143186096Y-105023659D01*
X143186097Y-105023663D01*
X143280703Y-105226546D01*
X143285965Y-105237830D01*
X143285967Y-105237834D01*
X143364157Y-105349500D01*
X143421501Y-105431396D01*
X143421506Y-105431402D01*
X143588597Y-105598493D01*
X143588603Y-105598498D01*
X143774158Y-105728425D01*
X143817783Y-105783002D01*
X143824977Y-105852500D01*
X143793454Y-105914855D01*
X143774158Y-105931575D01*
X143588597Y-106061505D01*
X143421505Y-106228597D01*
X143285965Y-106422169D01*
X143285964Y-106422171D01*
X143186098Y-106636335D01*
X143186094Y-106636344D01*
X143124938Y-106864586D01*
X143124936Y-106864596D01*
X143104341Y-107099999D01*
X143104341Y-107100000D01*
X143124936Y-107335403D01*
X143124938Y-107335413D01*
X143186094Y-107563655D01*
X143186096Y-107563659D01*
X143186097Y-107563663D01*
X143258703Y-107719366D01*
X143285965Y-107777830D01*
X143285967Y-107777834D01*
X143394281Y-107932521D01*
X143421501Y-107971396D01*
X143421506Y-107971402D01*
X143588597Y-108138493D01*
X143588603Y-108138498D01*
X143774594Y-108268730D01*
X143818219Y-108323307D01*
X143825413Y-108392805D01*
X143793890Y-108455160D01*
X143774595Y-108471880D01*
X143588922Y-108601890D01*
X143588920Y-108601891D01*
X143421891Y-108768920D01*
X143421886Y-108768926D01*
X143286400Y-108962420D01*
X143286399Y-108962422D01*
X143186570Y-109176507D01*
X143186567Y-109176513D01*
X143129364Y-109389999D01*
X143129364Y-109390000D01*
X144026988Y-109390000D01*
X143994075Y-109447007D01*
X143960000Y-109574174D01*
X143960000Y-109705826D01*
X143994075Y-109832993D01*
X144026988Y-109890000D01*
X143129364Y-109890000D01*
X143186567Y-110103486D01*
X143186570Y-110103492D01*
X143286399Y-110317578D01*
X143421894Y-110511082D01*
X143588917Y-110678105D01*
X143782421Y-110813600D01*
X143996507Y-110913429D01*
X143996516Y-110913433D01*
X144210000Y-110970634D01*
X144210000Y-110073012D01*
X144267007Y-110105925D01*
X144394174Y-110140000D01*
X144525826Y-110140000D01*
X144652993Y-110105925D01*
X144710000Y-110073012D01*
X144710000Y-110970633D01*
X144923483Y-110913433D01*
X144923492Y-110913429D01*
X145137578Y-110813600D01*
X145331082Y-110678105D01*
X145498105Y-110511082D01*
X145628425Y-110324968D01*
X145683002Y-110281344D01*
X145752501Y-110274151D01*
X145814855Y-110305673D01*
X145831575Y-110324968D01*
X145961894Y-110511082D01*
X146128917Y-110678105D01*
X146322421Y-110813600D01*
X146536507Y-110913429D01*
X146536516Y-110913433D01*
X146750000Y-110970634D01*
X146750000Y-110073012D01*
X146807007Y-110105925D01*
X146934174Y-110140000D01*
X147065826Y-110140000D01*
X147192993Y-110105925D01*
X147250000Y-110073012D01*
X147250000Y-110970633D01*
X147463483Y-110913433D01*
X147463492Y-110913429D01*
X147677578Y-110813600D01*
X147871082Y-110678105D01*
X148038105Y-110511082D01*
X148173600Y-110317578D01*
X148273429Y-110103492D01*
X148273432Y-110103486D01*
X148330636Y-109890000D01*
X147433012Y-109890000D01*
X147465925Y-109832993D01*
X147500000Y-109705826D01*
X147500000Y-109574174D01*
X147465925Y-109447007D01*
X147433012Y-109390000D01*
X148330636Y-109390000D01*
X148330635Y-109389999D01*
X148273432Y-109176513D01*
X148273429Y-109176507D01*
X148173600Y-108962422D01*
X148173599Y-108962420D01*
X148038113Y-108768926D01*
X148038108Y-108768920D01*
X147871078Y-108601890D01*
X147685405Y-108471879D01*
X147641780Y-108417302D01*
X147634588Y-108347804D01*
X147666110Y-108285449D01*
X147685406Y-108268730D01*
X147797500Y-108190241D01*
X147871401Y-108138495D01*
X148038495Y-107971401D01*
X148174035Y-107777830D01*
X148273903Y-107563663D01*
X148335063Y-107335408D01*
X148355659Y-107100000D01*
X148335063Y-106864592D01*
X148273903Y-106636337D01*
X148174035Y-106422171D01*
X148168425Y-106414158D01*
X148038494Y-106228597D01*
X147871402Y-106061506D01*
X147871396Y-106061501D01*
X147685842Y-105931575D01*
X147642217Y-105876998D01*
X147635023Y-105807500D01*
X147666546Y-105745145D01*
X147685842Y-105728425D01*
X147708026Y-105712891D01*
X147871401Y-105598495D01*
X148038495Y-105431401D01*
X148174035Y-105237830D01*
X148273903Y-105023663D01*
X148335063Y-104795408D01*
X148355659Y-104560000D01*
X148335063Y-104324592D01*
X148273903Y-104096337D01*
X148174035Y-103882171D01*
X148172699Y-103880262D01*
X148038494Y-103688597D01*
X147871402Y-103521506D01*
X147871396Y-103521501D01*
X147685842Y-103391575D01*
X147642217Y-103336998D01*
X147635023Y-103267500D01*
X147666546Y-103205145D01*
X147685842Y-103188425D01*
X147708026Y-103172891D01*
X147871401Y-103058495D01*
X148038495Y-102891401D01*
X148174035Y-102697830D01*
X148273903Y-102483663D01*
X148335063Y-102255408D01*
X148355659Y-102020000D01*
X148335063Y-101784592D01*
X148280283Y-101580147D01*
X148273905Y-101556344D01*
X148273904Y-101556343D01*
X148273903Y-101556337D01*
X148174035Y-101342171D01*
X148168425Y-101334158D01*
X148038494Y-101148597D01*
X147871402Y-100981506D01*
X147871396Y-100981501D01*
X147685842Y-100851575D01*
X147642217Y-100796998D01*
X147635023Y-100727500D01*
X147666546Y-100665145D01*
X147685842Y-100648425D01*
X147744477Y-100607368D01*
X147871401Y-100518495D01*
X148038495Y-100351401D01*
X148174035Y-100157830D01*
X148273903Y-99943663D01*
X148335063Y-99715408D01*
X148355659Y-99480000D01*
X148335063Y-99244592D01*
X148275900Y-99023789D01*
X148273905Y-99016344D01*
X148273904Y-99016343D01*
X148273903Y-99016337D01*
X148174035Y-98802171D01*
X148174034Y-98802169D01*
X148038494Y-98608597D01*
X147871402Y-98441506D01*
X147871396Y-98441501D01*
X147685842Y-98311575D01*
X147642217Y-98256998D01*
X147635023Y-98187500D01*
X147666546Y-98125145D01*
X147685842Y-98108425D01*
X147803815Y-98025819D01*
X147871401Y-97978495D01*
X148038495Y-97811401D01*
X148174035Y-97617830D01*
X148273903Y-97403663D01*
X148335063Y-97175408D01*
X148355659Y-96940000D01*
X148353024Y-96909888D01*
X148335063Y-96704596D01*
X148335063Y-96704592D01*
X148273903Y-96476337D01*
X148174035Y-96262171D01*
X148173916Y-96262000D01*
X148038494Y-96068597D01*
X147871402Y-95901506D01*
X147871396Y-95901501D01*
X147685842Y-95771575D01*
X147642217Y-95716998D01*
X147635023Y-95647500D01*
X147666546Y-95585145D01*
X147685842Y-95568425D01*
X147736924Y-95532657D01*
X147871401Y-95438495D01*
X148038495Y-95271401D01*
X148174035Y-95077830D01*
X148273903Y-94863663D01*
X148335063Y-94635408D01*
X148355659Y-94400000D01*
X148335063Y-94164592D01*
X148273903Y-93936337D01*
X148174035Y-93722171D01*
X148168425Y-93714158D01*
X148038494Y-93528597D01*
X147871402Y-93361506D01*
X147871396Y-93361501D01*
X147685842Y-93231575D01*
X147642217Y-93176998D01*
X147635023Y-93107500D01*
X147666546Y-93045145D01*
X147685842Y-93028425D01*
X147708026Y-93012891D01*
X147871401Y-92898495D01*
X148038495Y-92731401D01*
X148174035Y-92537830D01*
X148273903Y-92323663D01*
X148335063Y-92095408D01*
X148355659Y-91860000D01*
X148335063Y-91624592D01*
X148273903Y-91396337D01*
X148174035Y-91182171D01*
X148168425Y-91174158D01*
X148038494Y-90988597D01*
X147871402Y-90821506D01*
X147871396Y-90821501D01*
X147685842Y-90691575D01*
X147642217Y-90636998D01*
X147635023Y-90567500D01*
X147666546Y-90505145D01*
X147685842Y-90488425D01*
X147855684Y-90369500D01*
X147871401Y-90358495D01*
X148038495Y-90191401D01*
X148174035Y-89997830D01*
X148273903Y-89783663D01*
X148335063Y-89555408D01*
X148355659Y-89320000D01*
X148335063Y-89084592D01*
X148273903Y-88856337D01*
X148174035Y-88642171D01*
X148168425Y-88634158D01*
X148038494Y-88448597D01*
X147871402Y-88281506D01*
X147871396Y-88281501D01*
X147685842Y-88151575D01*
X147642217Y-88096998D01*
X147635023Y-88027500D01*
X147666546Y-87965145D01*
X147685842Y-87948425D01*
X147786045Y-87878262D01*
X147871401Y-87818495D01*
X148038495Y-87651401D01*
X148174035Y-87457830D01*
X148273903Y-87243663D01*
X148335063Y-87015408D01*
X148355659Y-86780000D01*
X148335063Y-86544592D01*
X148275900Y-86323789D01*
X148273905Y-86316344D01*
X148273904Y-86316343D01*
X148273903Y-86316337D01*
X148174035Y-86102171D01*
X148172699Y-86100262D01*
X148038494Y-85908597D01*
X147871402Y-85741506D01*
X147871396Y-85741501D01*
X147685842Y-85611575D01*
X147642217Y-85556998D01*
X147635023Y-85487500D01*
X147666546Y-85425145D01*
X147685842Y-85408425D01*
X147708026Y-85392891D01*
X147871401Y-85278495D01*
X148038495Y-85111401D01*
X148174035Y-84917830D01*
X148273903Y-84703663D01*
X148335063Y-84475408D01*
X148355659Y-84240000D01*
X148335063Y-84004592D01*
X148273903Y-83776337D01*
X148174035Y-83562171D01*
X148168425Y-83554158D01*
X148038494Y-83368597D01*
X147871402Y-83201506D01*
X147871396Y-83201501D01*
X147685842Y-83071575D01*
X147642217Y-83016998D01*
X147635023Y-82947500D01*
X147666546Y-82885145D01*
X147685842Y-82868425D01*
X147777856Y-82803996D01*
X147871401Y-82738495D01*
X148038495Y-82571401D01*
X148174035Y-82377830D01*
X148273903Y-82163663D01*
X148335063Y-81935408D01*
X148355659Y-81700000D01*
X148335063Y-81464592D01*
X148273903Y-81236337D01*
X148174035Y-81022171D01*
X148172699Y-81020262D01*
X148038494Y-80828597D01*
X147871402Y-80661506D01*
X147871396Y-80661501D01*
X147685842Y-80531575D01*
X147642217Y-80476998D01*
X147635023Y-80407500D01*
X147666546Y-80345145D01*
X147685842Y-80328425D01*
X147736924Y-80292657D01*
X147871401Y-80198495D01*
X148038495Y-80031401D01*
X148174035Y-79837830D01*
X148273903Y-79623663D01*
X148335063Y-79395408D01*
X148355659Y-79160000D01*
X148335063Y-78924592D01*
X148273903Y-78696337D01*
X148174035Y-78482171D01*
X148168915Y-78474858D01*
X148038494Y-78288597D01*
X147871402Y-78121506D01*
X147871396Y-78121501D01*
X147685842Y-77991575D01*
X147642217Y-77936998D01*
X147635023Y-77867500D01*
X147666546Y-77805145D01*
X147685842Y-77788425D01*
X147708026Y-77772891D01*
X147871401Y-77658495D01*
X148038495Y-77491401D01*
X148174035Y-77297830D01*
X148273903Y-77083663D01*
X148335063Y-76855408D01*
X148355659Y-76620000D01*
X148335063Y-76384592D01*
X148281633Y-76185185D01*
X148273905Y-76156344D01*
X148273904Y-76156343D01*
X148273903Y-76156337D01*
X148174035Y-75942171D01*
X148168425Y-75934158D01*
X148038494Y-75748597D01*
X147871402Y-75581506D01*
X147871396Y-75581501D01*
X147685842Y-75451575D01*
X147642217Y-75396998D01*
X147635023Y-75327500D01*
X147666546Y-75265145D01*
X147685842Y-75248425D01*
X147756862Y-75198696D01*
X147871401Y-75118495D01*
X148038495Y-74951401D01*
X148174035Y-74757830D01*
X148273903Y-74543663D01*
X148335063Y-74315408D01*
X148355659Y-74080000D01*
X148335063Y-73844592D01*
X148279341Y-73636631D01*
X148273905Y-73616344D01*
X148273904Y-73616343D01*
X148273903Y-73616337D01*
X148174035Y-73402171D01*
X148168425Y-73394158D01*
X148038494Y-73208597D01*
X147871402Y-73041506D01*
X147871396Y-73041501D01*
X147685842Y-72911575D01*
X147642217Y-72856998D01*
X147635023Y-72787500D01*
X147666546Y-72725145D01*
X147685842Y-72708425D01*
X147708026Y-72692891D01*
X147871401Y-72578495D01*
X148038495Y-72411401D01*
X148174035Y-72217830D01*
X148273903Y-72003663D01*
X148335063Y-71775408D01*
X148355659Y-71540000D01*
X148335063Y-71304592D01*
X148273903Y-71076337D01*
X148174035Y-70862171D01*
X148168424Y-70854158D01*
X148038496Y-70668600D01*
X148038493Y-70668597D01*
X147916567Y-70546671D01*
X147883084Y-70485351D01*
X147888068Y-70415659D01*
X147929939Y-70359725D01*
X147960915Y-70342810D01*
X148092331Y-70293796D01*
X148207546Y-70207546D01*
X148293796Y-70092331D01*
X148344091Y-69957483D01*
X148350500Y-69897873D01*
X148350499Y-68102128D01*
X148344091Y-68042517D01*
X148342810Y-68039083D01*
X148293797Y-67907671D01*
X148293793Y-67907664D01*
X148207547Y-67792455D01*
X148207544Y-67792452D01*
X148092335Y-67706206D01*
X148092328Y-67706202D01*
X147957482Y-67655908D01*
X147957483Y-67655908D01*
X147897883Y-67649501D01*
X147897881Y-67649500D01*
X147897873Y-67649500D01*
X147897864Y-67649500D01*
X146102129Y-67649500D01*
X146102123Y-67649501D01*
X146042516Y-67655908D01*
X145907671Y-67706202D01*
X145907664Y-67706206D01*
X145792455Y-67792452D01*
X145792452Y-67792455D01*
X145706206Y-67907664D01*
X145706203Y-67907669D01*
X145657189Y-68039083D01*
X145615317Y-68095016D01*
X145549853Y-68119433D01*
X145481580Y-68104581D01*
X145453326Y-68083430D01*
X145331402Y-67961506D01*
X145331395Y-67961501D01*
X145137834Y-67825967D01*
X145137830Y-67825965D01*
X145137828Y-67825964D01*
X144923663Y-67726097D01*
X144923659Y-67726096D01*
X144923655Y-67726094D01*
X144695413Y-67664938D01*
X144695403Y-67664936D01*
X144460001Y-67644341D01*
X144459999Y-67644341D01*
X144224596Y-67664936D01*
X144224586Y-67664938D01*
X143996344Y-67726094D01*
X143996335Y-67726098D01*
X143782171Y-67825964D01*
X143782169Y-67825965D01*
X143588597Y-67961505D01*
X143421505Y-68128597D01*
X143285965Y-68322169D01*
X143285964Y-68322171D01*
X143186098Y-68536335D01*
X143186094Y-68536344D01*
X143124938Y-68764586D01*
X143124936Y-68764596D01*
X143104341Y-68999999D01*
X143104341Y-69000000D01*
X143124936Y-69235403D01*
X143124938Y-69235413D01*
X143186094Y-69463655D01*
X143186096Y-69463659D01*
X143186097Y-69463663D01*
X143270499Y-69644663D01*
X143285965Y-69677830D01*
X143285967Y-69677834D01*
X143421501Y-69871395D01*
X143421506Y-69871402D01*
X143588597Y-70038493D01*
X143588603Y-70038498D01*
X143774158Y-70168425D01*
X143817783Y-70223002D01*
X143824977Y-70292500D01*
X143793454Y-70354855D01*
X143774158Y-70371575D01*
X143588597Y-70501505D01*
X143421505Y-70668597D01*
X143285965Y-70862169D01*
X143285964Y-70862171D01*
X143186098Y-71076335D01*
X143186094Y-71076344D01*
X143124938Y-71304586D01*
X143124936Y-71304596D01*
X143104341Y-71539999D01*
X143104341Y-71540000D01*
X143124936Y-71775403D01*
X143124938Y-71775413D01*
X143186094Y-72003655D01*
X143186096Y-72003659D01*
X143186097Y-72003663D01*
X143190000Y-72012032D01*
X143285965Y-72217830D01*
X143285967Y-72217834D01*
X143394281Y-72372521D01*
X143421501Y-72411396D01*
X143421506Y-72411402D01*
X143588597Y-72578493D01*
X143588603Y-72578498D01*
X143774158Y-72708425D01*
X143817783Y-72763002D01*
X143824977Y-72832500D01*
X143793454Y-72894855D01*
X143774158Y-72911575D01*
X143588597Y-73041505D01*
X143421505Y-73208597D01*
X143285965Y-73402169D01*
X143285964Y-73402171D01*
X143206362Y-73572878D01*
X143187918Y-73612433D01*
X143186098Y-73616335D01*
X143186094Y-73616344D01*
X143124938Y-73844586D01*
X143124936Y-73844596D01*
X143104341Y-74079999D01*
X143104341Y-74080000D01*
X143124936Y-74315403D01*
X143124938Y-74315413D01*
X143186094Y-74543655D01*
X143186096Y-74543659D01*
X143186097Y-74543663D01*
X143280703Y-74746546D01*
X143285965Y-74757830D01*
X143285967Y-74757834D01*
X143364157Y-74869500D01*
X143421501Y-74951396D01*
X143421506Y-74951402D01*
X143588597Y-75118493D01*
X143588603Y-75118498D01*
X143774158Y-75248425D01*
X143817783Y-75303002D01*
X143824977Y-75372500D01*
X143793454Y-75434855D01*
X143774158Y-75451575D01*
X143588597Y-75581505D01*
X143421505Y-75748597D01*
X143285965Y-75942169D01*
X143285964Y-75942171D01*
X143186098Y-76156335D01*
X143186094Y-76156344D01*
X143124938Y-76384586D01*
X143124936Y-76384596D01*
X143104341Y-76619999D01*
X143104341Y-76620000D01*
X143124936Y-76855403D01*
X143124938Y-76855413D01*
X143186094Y-77083655D01*
X143186096Y-77083659D01*
X143186097Y-77083663D01*
X143223756Y-77164423D01*
X143285965Y-77297830D01*
X143285967Y-77297834D01*
X143394281Y-77452521D01*
X143421501Y-77491396D01*
X143421506Y-77491402D01*
X143588597Y-77658493D01*
X143588603Y-77658498D01*
X143774158Y-77788425D01*
X143817783Y-77843002D01*
X143824977Y-77912500D01*
X143793454Y-77974855D01*
X143774158Y-77991575D01*
X143588597Y-78121505D01*
X143421505Y-78288597D01*
X143285965Y-78482169D01*
X143285964Y-78482171D01*
X143186098Y-78696335D01*
X143186094Y-78696344D01*
X143124938Y-78924586D01*
X143124936Y-78924596D01*
X143104341Y-79159999D01*
X143104341Y-79160000D01*
X143124936Y-79395403D01*
X143124938Y-79395413D01*
X143186094Y-79623655D01*
X143186096Y-79623659D01*
X143186097Y-79623663D01*
X143280703Y-79826546D01*
X143285965Y-79837830D01*
X143285967Y-79837834D01*
X143321223Y-79888184D01*
X143421501Y-80031396D01*
X143421506Y-80031402D01*
X143588597Y-80198493D01*
X143588603Y-80198498D01*
X143774158Y-80328425D01*
X143817783Y-80383002D01*
X143824977Y-80452500D01*
X143793454Y-80514855D01*
X143774158Y-80531575D01*
X143588597Y-80661505D01*
X143421505Y-80828597D01*
X143285965Y-81022169D01*
X143285964Y-81022171D01*
X143186098Y-81236335D01*
X143186094Y-81236344D01*
X143124938Y-81464586D01*
X143124936Y-81464596D01*
X143104341Y-81699999D01*
X143104341Y-81700000D01*
X143124936Y-81935403D01*
X143124938Y-81935413D01*
X143186094Y-82163655D01*
X143186099Y-82163670D01*
X143190496Y-82173098D01*
X143200987Y-82242175D01*
X143172465Y-82305959D01*
X143113988Y-82344197D01*
X143078113Y-82349500D01*
X142072626Y-82349500D01*
X142042931Y-82357456D01*
X142042932Y-82357457D01*
X141919899Y-82390423D01*
X141919894Y-82390426D01*
X141782975Y-82469475D01*
X141782967Y-82469481D01*
X141671163Y-82581286D01*
X138598127Y-85654324D01*
X137513270Y-86739181D01*
X137451947Y-86772666D01*
X137425589Y-86775500D01*
X133170412Y-86775500D01*
X133103373Y-86755815D01*
X133093097Y-86748445D01*
X133090263Y-86746185D01*
X133090262Y-86746184D01*
X133033496Y-86710515D01*
X132937523Y-86650211D01*
X132767254Y-86590631D01*
X132767249Y-86590630D01*
X132588004Y-86570435D01*
X132587996Y-86570435D01*
X132408750Y-86590630D01*
X132408745Y-86590631D01*
X132238476Y-86650211D01*
X132085737Y-86746184D01*
X131958184Y-86873737D01*
X131862211Y-87026476D01*
X131802631Y-87196745D01*
X131802630Y-87196750D01*
X131782435Y-87375996D01*
X131782435Y-87376003D01*
X131802630Y-87555249D01*
X131802631Y-87555254D01*
X131862211Y-87725523D01*
X131958184Y-87878262D01*
X132085738Y-88005816D01*
X132238478Y-88101789D01*
X132364726Y-88145965D01*
X132408745Y-88161368D01*
X132408750Y-88161369D01*
X132587996Y-88181565D01*
X132588000Y-88181565D01*
X132588004Y-88181565D01*
X132767249Y-88161369D01*
X132767252Y-88161368D01*
X132767255Y-88161368D01*
X132937522Y-88101789D01*
X133090262Y-88005816D01*
X133090267Y-88005810D01*
X133093097Y-88003555D01*
X133095275Y-88002665D01*
X133096158Y-88002111D01*
X133096255Y-88002265D01*
X133157783Y-87977145D01*
X133170412Y-87976500D01*
X137639017Y-87976500D01*
X137639033Y-87976501D01*
X137646629Y-87976501D01*
X137804740Y-87976501D01*
X137804743Y-87976501D01*
X137957471Y-87935577D01*
X138007590Y-87906639D01*
X138094402Y-87856520D01*
X138206206Y-87744716D01*
X138206206Y-87744714D01*
X138216414Y-87734507D01*
X138216415Y-87734504D01*
X139447362Y-86503559D01*
X139447362Y-86503558D01*
X142364101Y-83586819D01*
X142425424Y-83553334D01*
X142451782Y-83550500D01*
X143096766Y-83550500D01*
X143163805Y-83570185D01*
X143209560Y-83622989D01*
X143219504Y-83692147D01*
X143209148Y-83726905D01*
X143186097Y-83776335D01*
X143186094Y-83776344D01*
X143124938Y-84004586D01*
X143124936Y-84004596D01*
X143104341Y-84239999D01*
X143104341Y-84240000D01*
X143124936Y-84475403D01*
X143124938Y-84475413D01*
X143186094Y-84703655D01*
X143186096Y-84703659D01*
X143186097Y-84703663D01*
X143258704Y-84859368D01*
X143285965Y-84917830D01*
X143285967Y-84917834D01*
X143363253Y-85028209D01*
X143421501Y-85111396D01*
X143421506Y-85111402D01*
X143588597Y-85278493D01*
X143588603Y-85278498D01*
X143774158Y-85408425D01*
X143817783Y-85463002D01*
X143824977Y-85532500D01*
X143793454Y-85594855D01*
X143774158Y-85611575D01*
X143588597Y-85741505D01*
X143421505Y-85908597D01*
X143285965Y-86102169D01*
X143285964Y-86102171D01*
X143186098Y-86316335D01*
X143186094Y-86316344D01*
X143124938Y-86544586D01*
X143124936Y-86544596D01*
X143104341Y-86779999D01*
X143104341Y-86780000D01*
X143124936Y-87015403D01*
X143124938Y-87015413D01*
X143186094Y-87243655D01*
X143186096Y-87243659D01*
X143186097Y-87243663D01*
X143266004Y-87415023D01*
X143285965Y-87457830D01*
X143285967Y-87457834D01*
X143394281Y-87612521D01*
X143421501Y-87651396D01*
X143421506Y-87651402D01*
X143588597Y-87818493D01*
X143588603Y-87818498D01*
X143774158Y-87948425D01*
X143817783Y-88003002D01*
X143824977Y-88072500D01*
X143793454Y-88134855D01*
X143774158Y-88151575D01*
X143588597Y-88281505D01*
X143421505Y-88448597D01*
X143285965Y-88642169D01*
X143285964Y-88642171D01*
X143186098Y-88856335D01*
X143186094Y-88856344D01*
X143124938Y-89084586D01*
X143124936Y-89084596D01*
X143104341Y-89319999D01*
X143104341Y-89320000D01*
X143124936Y-89555403D01*
X143124938Y-89555413D01*
X143186094Y-89783655D01*
X143186096Y-89783659D01*
X143186097Y-89783663D01*
X143280703Y-89986546D01*
X143285965Y-89997830D01*
X143285967Y-89997834D01*
X143394281Y-90152521D01*
X143421501Y-90191396D01*
X143421506Y-90191402D01*
X143588597Y-90358493D01*
X143588603Y-90358498D01*
X143774158Y-90488425D01*
X143817783Y-90543002D01*
X143824977Y-90612500D01*
X143793454Y-90674855D01*
X143774158Y-90691575D01*
X143588597Y-90821505D01*
X143421505Y-90988597D01*
X143285965Y-91182169D01*
X143285964Y-91182171D01*
X143271474Y-91213246D01*
X143225301Y-91265685D01*
X143158107Y-91284837D01*
X143091226Y-91264621D01*
X143071411Y-91248522D01*
X140615244Y-88792355D01*
X140615242Y-88792352D01*
X140496371Y-88673481D01*
X140496370Y-88673480D01*
X140409558Y-88623360D01*
X140409558Y-88623359D01*
X140409554Y-88623358D01*
X140359439Y-88594423D01*
X140206711Y-88553499D01*
X140048597Y-88553499D01*
X140041001Y-88553499D01*
X140040985Y-88553500D01*
X93402727Y-88553500D01*
X93335688Y-88533815D01*
X93315046Y-88517181D01*
X86718207Y-81920342D01*
X86684722Y-81859019D01*
X86689706Y-81789327D01*
X86718207Y-81744980D01*
X86852045Y-81611141D01*
X86852047Y-81611139D01*
X86982568Y-81424734D01*
X87009618Y-81366724D01*
X87055790Y-81314285D01*
X87122983Y-81295133D01*
X87189865Y-81315348D01*
X87234382Y-81366725D01*
X87261429Y-81424728D01*
X87261432Y-81424734D01*
X87391954Y-81611141D01*
X87552858Y-81772045D01*
X87552861Y-81772047D01*
X87739266Y-81902568D01*
X87945504Y-81998739D01*
X87945509Y-81998740D01*
X87945511Y-81998741D01*
X87998415Y-82012916D01*
X88165308Y-82057635D01*
X88307361Y-82070063D01*
X88391998Y-82077468D01*
X88392000Y-82077468D01*
X88392002Y-82077468D01*
X88448673Y-82072509D01*
X88618692Y-82057635D01*
X88838496Y-81998739D01*
X89044734Y-81902568D01*
X89231139Y-81772047D01*
X89392047Y-81611139D01*
X89522568Y-81424734D01*
X89549618Y-81366724D01*
X89595790Y-81314285D01*
X89662983Y-81295133D01*
X89729865Y-81315348D01*
X89774382Y-81366725D01*
X89801429Y-81424728D01*
X89801432Y-81424734D01*
X89931954Y-81611141D01*
X90092858Y-81772045D01*
X90092861Y-81772047D01*
X90279266Y-81902568D01*
X90485504Y-81998739D01*
X90485509Y-81998740D01*
X90485511Y-81998741D01*
X90538415Y-82012916D01*
X90705308Y-82057635D01*
X90847361Y-82070063D01*
X90931998Y-82077468D01*
X90932000Y-82077468D01*
X90932002Y-82077468D01*
X90988673Y-82072509D01*
X91158692Y-82057635D01*
X91378496Y-81998739D01*
X91584734Y-81902568D01*
X91771139Y-81772047D01*
X91932047Y-81611139D01*
X92062568Y-81424734D01*
X92089618Y-81366724D01*
X92135790Y-81314285D01*
X92202983Y-81295133D01*
X92269865Y-81315348D01*
X92314382Y-81366725D01*
X92341429Y-81424728D01*
X92341432Y-81424734D01*
X92471954Y-81611141D01*
X92632858Y-81772045D01*
X92632861Y-81772047D01*
X92819266Y-81902568D01*
X93025504Y-81998739D01*
X93025509Y-81998740D01*
X93025511Y-81998741D01*
X93078415Y-82012916D01*
X93245308Y-82057635D01*
X93387361Y-82070063D01*
X93471998Y-82077468D01*
X93472000Y-82077468D01*
X93472002Y-82077468D01*
X93528673Y-82072509D01*
X93698692Y-82057635D01*
X93918496Y-81998739D01*
X94124734Y-81902568D01*
X94311139Y-81772047D01*
X94472047Y-81611139D01*
X94602568Y-81424734D01*
X94629618Y-81366724D01*
X94675790Y-81314285D01*
X94742983Y-81295133D01*
X94809865Y-81315348D01*
X94854382Y-81366725D01*
X94881429Y-81424728D01*
X94881432Y-81424734D01*
X95011954Y-81611141D01*
X95172858Y-81772045D01*
X95172861Y-81772047D01*
X95359266Y-81902568D01*
X95565504Y-81998739D01*
X95565509Y-81998740D01*
X95565511Y-81998741D01*
X95618415Y-82012916D01*
X95785308Y-82057635D01*
X95927361Y-82070063D01*
X96011998Y-82077468D01*
X96012000Y-82077468D01*
X96012002Y-82077468D01*
X96068673Y-82072509D01*
X96238692Y-82057635D01*
X96458496Y-81998739D01*
X96664734Y-81902568D01*
X96851139Y-81772047D01*
X97012047Y-81611139D01*
X97142568Y-81424734D01*
X97169618Y-81366724D01*
X97215790Y-81314285D01*
X97282983Y-81295133D01*
X97349865Y-81315348D01*
X97394382Y-81366725D01*
X97421429Y-81424728D01*
X97421432Y-81424734D01*
X97551954Y-81611141D01*
X97712858Y-81772045D01*
X97712861Y-81772047D01*
X97899266Y-81902568D01*
X98105504Y-81998739D01*
X98105509Y-81998740D01*
X98105511Y-81998741D01*
X98158415Y-82012916D01*
X98325308Y-82057635D01*
X98467361Y-82070063D01*
X98551998Y-82077468D01*
X98552000Y-82077468D01*
X98552002Y-82077468D01*
X98608673Y-82072509D01*
X98778692Y-82057635D01*
X98998496Y-81998739D01*
X99204734Y-81902568D01*
X99391139Y-81772047D01*
X99552047Y-81611139D01*
X99682568Y-81424734D01*
X99709618Y-81366724D01*
X99755790Y-81314285D01*
X99822983Y-81295133D01*
X99889865Y-81315348D01*
X99934382Y-81366725D01*
X99961429Y-81424728D01*
X99961432Y-81424734D01*
X100091954Y-81611141D01*
X100252858Y-81772045D01*
X100252861Y-81772047D01*
X100439266Y-81902568D01*
X100645504Y-81998739D01*
X100645509Y-81998740D01*
X100645511Y-81998741D01*
X100698415Y-82012916D01*
X100865308Y-82057635D01*
X101007361Y-82070063D01*
X101091998Y-82077468D01*
X101092000Y-82077468D01*
X101092002Y-82077468D01*
X101148673Y-82072509D01*
X101318692Y-82057635D01*
X101538496Y-81998739D01*
X101744734Y-81902568D01*
X101931139Y-81772047D01*
X102092047Y-81611139D01*
X102222568Y-81424734D01*
X102249618Y-81366724D01*
X102295790Y-81314285D01*
X102362983Y-81295133D01*
X102429865Y-81315348D01*
X102474382Y-81366725D01*
X102501429Y-81424728D01*
X102501432Y-81424734D01*
X102631954Y-81611141D01*
X102792858Y-81772045D01*
X102792861Y-81772047D01*
X102979266Y-81902568D01*
X103185504Y-81998739D01*
X103185509Y-81998740D01*
X103185511Y-81998741D01*
X103238415Y-82012916D01*
X103405308Y-82057635D01*
X103547361Y-82070063D01*
X103631998Y-82077468D01*
X103632000Y-82077468D01*
X103632002Y-82077468D01*
X103688673Y-82072509D01*
X103858692Y-82057635D01*
X104078496Y-81998739D01*
X104284734Y-81902568D01*
X104471139Y-81772047D01*
X104632047Y-81611139D01*
X104762568Y-81424734D01*
X104789618Y-81366724D01*
X104835790Y-81314285D01*
X104902983Y-81295133D01*
X104969865Y-81315348D01*
X105014382Y-81366725D01*
X105041429Y-81424728D01*
X105041432Y-81424734D01*
X105171954Y-81611141D01*
X105332858Y-81772045D01*
X105332861Y-81772047D01*
X105519266Y-81902568D01*
X105725504Y-81998739D01*
X105725509Y-81998740D01*
X105725511Y-81998741D01*
X105778415Y-82012916D01*
X105945308Y-82057635D01*
X106087361Y-82070063D01*
X106171998Y-82077468D01*
X106172000Y-82077468D01*
X106172002Y-82077468D01*
X106228673Y-82072509D01*
X106398692Y-82057635D01*
X106618496Y-81998739D01*
X106824734Y-81902568D01*
X107011139Y-81772047D01*
X107172047Y-81611139D01*
X107302568Y-81424734D01*
X107329618Y-81366724D01*
X107375790Y-81314285D01*
X107442983Y-81295133D01*
X107509865Y-81315348D01*
X107554382Y-81366725D01*
X107581429Y-81424728D01*
X107581432Y-81424734D01*
X107711954Y-81611141D01*
X107872858Y-81772045D01*
X107872861Y-81772047D01*
X108059266Y-81902568D01*
X108265504Y-81998739D01*
X108265509Y-81998740D01*
X108265511Y-81998741D01*
X108318415Y-82012916D01*
X108485308Y-82057635D01*
X108627361Y-82070063D01*
X108711998Y-82077468D01*
X108712000Y-82077468D01*
X108712002Y-82077468D01*
X108768673Y-82072509D01*
X108938692Y-82057635D01*
X109158496Y-81998739D01*
X109364734Y-81902568D01*
X109551139Y-81772047D01*
X109712047Y-81611139D01*
X109842568Y-81424734D01*
X109869618Y-81366724D01*
X109915790Y-81314285D01*
X109982983Y-81295133D01*
X110049865Y-81315348D01*
X110094382Y-81366725D01*
X110121429Y-81424728D01*
X110121432Y-81424734D01*
X110251954Y-81611141D01*
X110412858Y-81772045D01*
X110412861Y-81772047D01*
X110599266Y-81902568D01*
X110805504Y-81998739D01*
X110805509Y-81998740D01*
X110805511Y-81998741D01*
X110858415Y-82012916D01*
X111025308Y-82057635D01*
X111167361Y-82070063D01*
X111251998Y-82077468D01*
X111252000Y-82077468D01*
X111252002Y-82077468D01*
X111308673Y-82072509D01*
X111478692Y-82057635D01*
X111574932Y-82031847D01*
X111644781Y-82033510D01*
X111694706Y-82063941D01*
X114069139Y-84438374D01*
X114069149Y-84438385D01*
X114073479Y-84442715D01*
X114073480Y-84442716D01*
X114185284Y-84554520D01*
X114272095Y-84604639D01*
X114272097Y-84604641D01*
X114310151Y-84626611D01*
X114322215Y-84633577D01*
X114474943Y-84674500D01*
X114633057Y-84674500D01*
X133387588Y-84674500D01*
X133454627Y-84694185D01*
X133464903Y-84701555D01*
X133467736Y-84703814D01*
X133467738Y-84703816D01*
X133620478Y-84799789D01*
X133790745Y-84859368D01*
X133790750Y-84859369D01*
X133969996Y-84879565D01*
X133970000Y-84879565D01*
X133970004Y-84879565D01*
X134149249Y-84859369D01*
X134149252Y-84859368D01*
X134149255Y-84859368D01*
X134319522Y-84799789D01*
X134472262Y-84703816D01*
X134599816Y-84576262D01*
X134695789Y-84423522D01*
X134755368Y-84253255D01*
X134755902Y-84248518D01*
X134763128Y-84184383D01*
X134790194Y-84119968D01*
X134845393Y-84081223D01*
X134969522Y-84037789D01*
X135122262Y-83941816D01*
X135249816Y-83814262D01*
X135345789Y-83661522D01*
X135345790Y-83661518D01*
X135346393Y-83660559D01*
X135398727Y-83614268D01*
X135437502Y-83603311D01*
X135486569Y-83597783D01*
X135561250Y-83589369D01*
X135561253Y-83589368D01*
X135561255Y-83589368D01*
X135731522Y-83529789D01*
X135884262Y-83433816D01*
X136011816Y-83306262D01*
X136107789Y-83153522D01*
X136167368Y-82983255D01*
X136167369Y-82983249D01*
X136187565Y-82804003D01*
X136187565Y-82803996D01*
X136167369Y-82624750D01*
X136167368Y-82624745D01*
X136145112Y-82561142D01*
X136107789Y-82454478D01*
X136011816Y-82301738D01*
X135884262Y-82174184D01*
X135819369Y-82133409D01*
X135731523Y-82078211D01*
X135561254Y-82018631D01*
X135561249Y-82018630D01*
X135395450Y-81999950D01*
X135361877Y-81991290D01*
X135359787Y-81990424D01*
X135359785Y-81990423D01*
X135207057Y-81949499D01*
X135048943Y-81949499D01*
X135041347Y-81949499D01*
X135041331Y-81949500D01*
X122373049Y-81949500D01*
X122306010Y-81929815D01*
X122260255Y-81877011D01*
X122250311Y-81807853D01*
X122279336Y-81744297D01*
X122285368Y-81737819D01*
X122412045Y-81611141D01*
X122412047Y-81611139D01*
X122542568Y-81424734D01*
X122638739Y-81218496D01*
X122697635Y-80998692D01*
X122717468Y-80772000D01*
X122697635Y-80545308D01*
X122638739Y-80325504D01*
X122542568Y-80119266D01*
X122412047Y-79932861D01*
X122412045Y-79932858D01*
X122251141Y-79771954D01*
X122064734Y-79641432D01*
X122064732Y-79641431D01*
X121858497Y-79545261D01*
X121858488Y-79545258D01*
X121638697Y-79486366D01*
X121638693Y-79486365D01*
X121638692Y-79486365D01*
X121638691Y-79486364D01*
X121638686Y-79486364D01*
X121412002Y-79466532D01*
X121411998Y-79466532D01*
X121185313Y-79486364D01*
X121185302Y-79486366D01*
X120965511Y-79545258D01*
X120965502Y-79545261D01*
X120759267Y-79641431D01*
X120759265Y-79641432D01*
X120572858Y-79771954D01*
X120411954Y-79932858D01*
X120281432Y-80119265D01*
X120281431Y-80119267D01*
X120254382Y-80177275D01*
X120208209Y-80229714D01*
X120141016Y-80248866D01*
X120074135Y-80228650D01*
X120029618Y-80177275D01*
X120002568Y-80119267D01*
X120002567Y-80119265D01*
X119941045Y-80031402D01*
X119872047Y-79932861D01*
X119872045Y-79932858D01*
X119711141Y-79771954D01*
X119524734Y-79641432D01*
X119524732Y-79641431D01*
X119318497Y-79545261D01*
X119318488Y-79545258D01*
X119098697Y-79486366D01*
X119098693Y-79486365D01*
X119098692Y-79486365D01*
X119098691Y-79486364D01*
X119098686Y-79486364D01*
X118872002Y-79466532D01*
X118871998Y-79466532D01*
X118645313Y-79486364D01*
X118645302Y-79486366D01*
X118425511Y-79545258D01*
X118425502Y-79545261D01*
X118219267Y-79641431D01*
X118219265Y-79641432D01*
X118032858Y-79771954D01*
X117871954Y-79932858D01*
X117741432Y-80119265D01*
X117741431Y-80119267D01*
X117714382Y-80177275D01*
X117668209Y-80229714D01*
X117601016Y-80248866D01*
X117534135Y-80228650D01*
X117489618Y-80177275D01*
X117462568Y-80119267D01*
X117462567Y-80119265D01*
X117401045Y-80031402D01*
X117332047Y-79932861D01*
X117332045Y-79932858D01*
X117171141Y-79771954D01*
X116984734Y-79641432D01*
X116984732Y-79641431D01*
X116778497Y-79545261D01*
X116778488Y-79545258D01*
X116558697Y-79486366D01*
X116558693Y-79486365D01*
X116558692Y-79486365D01*
X116558691Y-79486364D01*
X116558686Y-79486364D01*
X116332002Y-79466532D01*
X116331998Y-79466532D01*
X116105313Y-79486364D01*
X116105302Y-79486366D01*
X115885511Y-79545258D01*
X115885502Y-79545261D01*
X115679267Y-79641431D01*
X115679265Y-79641432D01*
X115492858Y-79771954D01*
X115331954Y-79932858D01*
X115201432Y-80119265D01*
X115201431Y-80119267D01*
X115174382Y-80177275D01*
X115128209Y-80229714D01*
X115061016Y-80248866D01*
X114994135Y-80228650D01*
X114949618Y-80177275D01*
X114922568Y-80119267D01*
X114922567Y-80119265D01*
X114861045Y-80031402D01*
X114792047Y-79932861D01*
X114792045Y-79932858D01*
X114631141Y-79771954D01*
X114444734Y-79641432D01*
X114444732Y-79641431D01*
X114238497Y-79545261D01*
X114238488Y-79545258D01*
X114018697Y-79486366D01*
X114018693Y-79486365D01*
X114018692Y-79486365D01*
X114018691Y-79486364D01*
X114018686Y-79486364D01*
X113792002Y-79466532D01*
X113791998Y-79466532D01*
X113565313Y-79486364D01*
X113565302Y-79486366D01*
X113345511Y-79545258D01*
X113345502Y-79545261D01*
X113139267Y-79641431D01*
X113139265Y-79641432D01*
X112952858Y-79771954D01*
X112791954Y-79932858D01*
X112661432Y-80119265D01*
X112661431Y-80119267D01*
X112634382Y-80177275D01*
X112588209Y-80229714D01*
X112521016Y-80248866D01*
X112454135Y-80228650D01*
X112409618Y-80177275D01*
X112382568Y-80119267D01*
X112382567Y-80119265D01*
X112321045Y-80031402D01*
X112252047Y-79932861D01*
X112252045Y-79932858D01*
X112091141Y-79771954D01*
X111904734Y-79641432D01*
X111904732Y-79641431D01*
X111698497Y-79545261D01*
X111698488Y-79545258D01*
X111478697Y-79486366D01*
X111478693Y-79486365D01*
X111478692Y-79486365D01*
X111478691Y-79486364D01*
X111478686Y-79486364D01*
X111252002Y-79466532D01*
X111251998Y-79466532D01*
X111025313Y-79486364D01*
X111025302Y-79486366D01*
X110805511Y-79545258D01*
X110805502Y-79545261D01*
X110599267Y-79641431D01*
X110599265Y-79641432D01*
X110412858Y-79771954D01*
X110251954Y-79932858D01*
X110121432Y-80119265D01*
X110121431Y-80119267D01*
X110094382Y-80177275D01*
X110048209Y-80229714D01*
X109981016Y-80248866D01*
X109914135Y-80228650D01*
X109869618Y-80177275D01*
X109842568Y-80119267D01*
X109842567Y-80119265D01*
X109781045Y-80031402D01*
X109712047Y-79932861D01*
X109712045Y-79932858D01*
X109551141Y-79771954D01*
X109364734Y-79641432D01*
X109364732Y-79641431D01*
X109158497Y-79545261D01*
X109158488Y-79545258D01*
X108938697Y-79486366D01*
X108938693Y-79486365D01*
X108938692Y-79486365D01*
X108938691Y-79486364D01*
X108938686Y-79486364D01*
X108712002Y-79466532D01*
X108711998Y-79466532D01*
X108485313Y-79486364D01*
X108485302Y-79486366D01*
X108265511Y-79545258D01*
X108265502Y-79545261D01*
X108059267Y-79641431D01*
X108059265Y-79641432D01*
X107872858Y-79771954D01*
X107711954Y-79932858D01*
X107581432Y-80119265D01*
X107581431Y-80119267D01*
X107554382Y-80177275D01*
X107508209Y-80229714D01*
X107441016Y-80248866D01*
X107374135Y-80228650D01*
X107329618Y-80177275D01*
X107302568Y-80119267D01*
X107302567Y-80119265D01*
X107241045Y-80031402D01*
X107172047Y-79932861D01*
X107172045Y-79932858D01*
X107011141Y-79771954D01*
X106824734Y-79641432D01*
X106824732Y-79641431D01*
X106618497Y-79545261D01*
X106618488Y-79545258D01*
X106398697Y-79486366D01*
X106398693Y-79486365D01*
X106398692Y-79486365D01*
X106398691Y-79486364D01*
X106398686Y-79486364D01*
X106172002Y-79466532D01*
X106171998Y-79466532D01*
X105945313Y-79486364D01*
X105945302Y-79486366D01*
X105849067Y-79512152D01*
X105779217Y-79510489D01*
X105729293Y-79480058D01*
X99492658Y-73243423D01*
X99492656Y-73243420D01*
X99373785Y-73124549D01*
X99373777Y-73124543D01*
X99272004Y-73065785D01*
X99272002Y-73065784D01*
X99236858Y-73045493D01*
X99236857Y-73045492D01*
X99221962Y-73041501D01*
X99084125Y-73004567D01*
X98926011Y-73004567D01*
X98918415Y-73004567D01*
X98918399Y-73004568D01*
X63196303Y-73004568D01*
X63129264Y-72984883D01*
X63118988Y-72977513D01*
X63116154Y-72975253D01*
X63116153Y-72975252D01*
X63014812Y-72911575D01*
X62963414Y-72879279D01*
X62793145Y-72819699D01*
X62793140Y-72819698D01*
X62613895Y-72799503D01*
X62613887Y-72799503D01*
X62434641Y-72819698D01*
X62434636Y-72819699D01*
X62264367Y-72879279D01*
X62111628Y-72975252D01*
X61984075Y-73102805D01*
X61888102Y-73255544D01*
X61828522Y-73425813D01*
X61828522Y-73425817D01*
X61819209Y-73508465D01*
X61792142Y-73572878D01*
X61734546Y-73612433D01*
X61709873Y-73617800D01*
X61542749Y-73636630D01*
X61542745Y-73636631D01*
X61372476Y-73696211D01*
X61219737Y-73792184D01*
X61092184Y-73919737D01*
X60996211Y-74072476D01*
X60936631Y-74242745D01*
X60936630Y-74242750D01*
X60916435Y-74421996D01*
X60916435Y-74422003D01*
X60936630Y-74601249D01*
X60936631Y-74601254D01*
X60996211Y-74771523D01*
X61083488Y-74910423D01*
X61092184Y-74924262D01*
X61219738Y-75051816D01*
X61231617Y-75059280D01*
X61368723Y-75145430D01*
X61372478Y-75147789D01*
X61517962Y-75198696D01*
X61542745Y-75207368D01*
X61542750Y-75207369D01*
X61721996Y-75227565D01*
X61722000Y-75227565D01*
X61722004Y-75227565D01*
X61901249Y-75207369D01*
X61901252Y-75207368D01*
X61901255Y-75207368D01*
X62071522Y-75147789D01*
X62077444Y-75144067D01*
X62144679Y-75125065D01*
X62211515Y-75145430D01*
X62256732Y-75198696D01*
X62266640Y-75235176D01*
X62287214Y-75417784D01*
X62287215Y-75417789D01*
X62346795Y-75588058D01*
X62361315Y-75611166D01*
X62442768Y-75740797D01*
X62570322Y-75868351D01*
X62634461Y-75908652D01*
X62723058Y-75964322D01*
X62723059Y-75964322D01*
X62723062Y-75964324D01*
X62788282Y-75987145D01*
X62845057Y-76027866D01*
X62864367Y-76063230D01*
X62901211Y-76168523D01*
X62901212Y-76168524D01*
X62954408Y-76253184D01*
X62997184Y-76321262D01*
X63124738Y-76448816D01*
X63277478Y-76544789D01*
X63447745Y-76604368D01*
X63447750Y-76604369D01*
X63626996Y-76624565D01*
X63627000Y-76624565D01*
X63627004Y-76624565D01*
X63806249Y-76604369D01*
X63806252Y-76604368D01*
X63806255Y-76604368D01*
X63976522Y-76544789D01*
X64129262Y-76448816D01*
X64256816Y-76321262D01*
X64318226Y-76223527D01*
X64370561Y-76177237D01*
X64423220Y-76165500D01*
X93044903Y-76165500D01*
X93111942Y-76185185D01*
X93132584Y-76201819D01*
X96193336Y-79262571D01*
X96226821Y-79323894D01*
X96221837Y-79393586D01*
X96179965Y-79449519D01*
X96114501Y-79473936D01*
X96094848Y-79473780D01*
X96012002Y-79466532D01*
X96011998Y-79466532D01*
X95785313Y-79486364D01*
X95785302Y-79486366D01*
X95565511Y-79545258D01*
X95565502Y-79545261D01*
X95359267Y-79641431D01*
X95359265Y-79641432D01*
X95172858Y-79771954D01*
X95011954Y-79932858D01*
X94881432Y-80119265D01*
X94881431Y-80119267D01*
X94854382Y-80177275D01*
X94808209Y-80229714D01*
X94741016Y-80248866D01*
X94674135Y-80228650D01*
X94629618Y-80177275D01*
X94602568Y-80119267D01*
X94602567Y-80119265D01*
X94541045Y-80031402D01*
X94472047Y-79932861D01*
X94472045Y-79932858D01*
X94311141Y-79771954D01*
X94124734Y-79641432D01*
X94124732Y-79641431D01*
X93918497Y-79545261D01*
X93918488Y-79545258D01*
X93698697Y-79486366D01*
X93698693Y-79486365D01*
X93698692Y-79486365D01*
X93698691Y-79486364D01*
X93698686Y-79486364D01*
X93472002Y-79466532D01*
X93471998Y-79466532D01*
X93245313Y-79486364D01*
X93245302Y-79486366D01*
X93025511Y-79545258D01*
X93025502Y-79545261D01*
X92819267Y-79641431D01*
X92819265Y-79641432D01*
X92632858Y-79771954D01*
X92471954Y-79932858D01*
X92341432Y-80119265D01*
X92341431Y-80119267D01*
X92314382Y-80177275D01*
X92268209Y-80229714D01*
X92201016Y-80248866D01*
X92134135Y-80228650D01*
X92089618Y-80177275D01*
X92062568Y-80119267D01*
X92062567Y-80119265D01*
X92001045Y-80031402D01*
X91932047Y-79932861D01*
X91932045Y-79932858D01*
X91771141Y-79771954D01*
X91584734Y-79641432D01*
X91584732Y-79641431D01*
X91378497Y-79545261D01*
X91378488Y-79545258D01*
X91158697Y-79486366D01*
X91158693Y-79486365D01*
X91158692Y-79486365D01*
X91158691Y-79486364D01*
X91158686Y-79486364D01*
X90932002Y-79466532D01*
X90931998Y-79466532D01*
X90705313Y-79486364D01*
X90705302Y-79486366D01*
X90609067Y-79512152D01*
X90539217Y-79510489D01*
X90489293Y-79480058D01*
X88371590Y-77362355D01*
X88371588Y-77362352D01*
X88252717Y-77243481D01*
X88252716Y-77243480D01*
X88165904Y-77193360D01*
X88165904Y-77193359D01*
X88165900Y-77193358D01*
X88115785Y-77164423D01*
X87963057Y-77123499D01*
X87804943Y-77123499D01*
X87797347Y-77123499D01*
X87797331Y-77123500D01*
X59736097Y-77123500D01*
X59669058Y-77103815D01*
X59648416Y-77087181D01*
X57669590Y-75108355D01*
X57669588Y-75108352D01*
X57550717Y-74989481D01*
X57550709Y-74989475D01*
X57454643Y-74934012D01*
X57454641Y-74934011D01*
X57413790Y-74910425D01*
X57413789Y-74910424D01*
X57401263Y-74907067D01*
X57261057Y-74869499D01*
X57102943Y-74869499D01*
X57095347Y-74869499D01*
X57095331Y-74869500D01*
X56856603Y-74869500D01*
X56789564Y-74849815D01*
X56743809Y-74797011D01*
X56733865Y-74727853D01*
X56744220Y-74693098D01*
X56813903Y-74543663D01*
X56875063Y-74315408D01*
X56895659Y-74080000D01*
X56875063Y-73844592D01*
X56819341Y-73636631D01*
X56813905Y-73616344D01*
X56813904Y-73616343D01*
X56813903Y-73616337D01*
X56714035Y-73402171D01*
X56708425Y-73394158D01*
X56578494Y-73208597D01*
X56411402Y-73041506D01*
X56411396Y-73041501D01*
X56225842Y-72911575D01*
X56182217Y-72856998D01*
X56175023Y-72787500D01*
X56206546Y-72725145D01*
X56225842Y-72708425D01*
X56248026Y-72692891D01*
X56411401Y-72578495D01*
X56578495Y-72411401D01*
X56714035Y-72217830D01*
X56813903Y-72003663D01*
X56875063Y-71775408D01*
X56895659Y-71540000D01*
X56875063Y-71304592D01*
X56813903Y-71076337D01*
X56714035Y-70862171D01*
X56708425Y-70854158D01*
X56578494Y-70668597D01*
X56411402Y-70501506D01*
X56411396Y-70501501D01*
X56225842Y-70371575D01*
X56182217Y-70316998D01*
X56175023Y-70247500D01*
X56206546Y-70185145D01*
X56225842Y-70168425D01*
X56248026Y-70152891D01*
X56411401Y-70038495D01*
X56578495Y-69871401D01*
X56714035Y-69677830D01*
X56813903Y-69463663D01*
X56875063Y-69235408D01*
X56895659Y-69000000D01*
X56875063Y-68764592D01*
X56813903Y-68536337D01*
X56714035Y-68322171D01*
X56691683Y-68290248D01*
X56578494Y-68128597D01*
X56411402Y-67961506D01*
X56411395Y-67961501D01*
X56217834Y-67825967D01*
X56217830Y-67825965D01*
X56217828Y-67825964D01*
X56003663Y-67726097D01*
X56003659Y-67726096D01*
X56003655Y-67726094D01*
X55775413Y-67664938D01*
X55775403Y-67664936D01*
X55540001Y-67644341D01*
X55539999Y-67644341D01*
X55304596Y-67664936D01*
X55304586Y-67664938D01*
X55076344Y-67726094D01*
X55076335Y-67726098D01*
X54862171Y-67825964D01*
X54862169Y-67825965D01*
X54668597Y-67961505D01*
X54501506Y-68128596D01*
X54418864Y-68246623D01*
X54364287Y-68290248D01*
X54317289Y-68299500D01*
X54222711Y-68299500D01*
X54155672Y-68279815D01*
X54121136Y-68246623D01*
X54038494Y-68128597D01*
X53871402Y-67961506D01*
X53871395Y-67961501D01*
X53677834Y-67825967D01*
X53677830Y-67825965D01*
X53677828Y-67825964D01*
X53463663Y-67726097D01*
X53463659Y-67726096D01*
X53463655Y-67726094D01*
X53235413Y-67664938D01*
X53235403Y-67664936D01*
X53000001Y-67644341D01*
X52999999Y-67644341D01*
X52764596Y-67664936D01*
X52764586Y-67664938D01*
X52536344Y-67726094D01*
X52536335Y-67726098D01*
X52322171Y-67825964D01*
X52322169Y-67825965D01*
X52128597Y-67961505D01*
X51961505Y-68128597D01*
X51825965Y-68322169D01*
X51825964Y-68322171D01*
X51726098Y-68536335D01*
X51726094Y-68536344D01*
X51664938Y-68764586D01*
X51664936Y-68764596D01*
X51644341Y-68999999D01*
X51000500Y-68999999D01*
X51000500Y-67124500D01*
X51020185Y-67057461D01*
X51072989Y-67011706D01*
X51124500Y-67000500D01*
X148875500Y-67000500D01*
X148942539Y-67020185D01*
G37*
%TD.AperFunction*%
%TD*%
M02*
