M48
; DRILL file {KiCad 8.0.7-8.0.7-0~ubuntu22.04.1} date 2025-01-28T09:52:28+0100
; FORMAT={-:-/ absolute / inch / decimal}
; #@! TF.CreationDate,2025-01-28T09:52:28+01:00
; #@! TF.GenerationSoftware,Kicad,Pcbnew,8.0.7-8.0.7-0~ubuntu22.04.1
; #@! TF.FileFunction,MixedPlating,1,2
FMAT,2
INCH
; #@! TA.AperFunction,Plated,PTH,ViaDrill
T1C0.0118
; #@! TA.AperFunction,Plated,PTH,ComponentDrill
T2C0.0315
; #@! TA.AperFunction,Plated,PTH,ComponentDrill
T3C0.0394
%
G90
G05
T1
X2.29Y-3.17
X2.3Y-3.11
X2.32Y-3.58
X2.3295Y-3.26
X2.33Y-4.01
X2.42Y-3.47
X2.43Y-2.93
X2.4651Y-2.8978
X2.47Y-2.73
X2.4832Y-2.9621
X2.505Y-2.985
X2.57Y-3.13
X2.62Y-3.31
X2.7Y-3.8
X2.79Y-3.13
X2.83Y-4.01
X2.88Y-3.37
X2.9Y-3.51
X2.97Y-4.34
X3.08Y-2.78
X3.1Y-3.43
X3.62Y-4.34
X3.65Y-2.76
X3.77Y-3.43
X4.08Y-4.01
X4.18Y-4.02
X4.25Y-2.81
X4.28Y-4.07
X4.38Y-4.12
X4.43Y-3.42
X4.48Y-4.18
X4.51Y-4.2421
X4.58Y-2.8
X4.58Y-4.21
X4.68Y-4.0
X4.69Y-4.09
X4.75Y-3.43
X4.91Y-4.23
X5.01Y-2.78
X5.05Y-3.16
X5.08Y-4.05
X5.22Y-3.44
X5.2744Y-3.31
X5.3Y-3.28
X5.33Y-3.26
X5.33Y-4.21
X5.408Y-4.009
X5.4333Y-3.9871
X5.46Y-2.77
X5.46Y-3.96
X5.48Y-3.16
X5.49Y-3.93
X5.52Y-3.9
X5.54Y-4.13
X5.55Y-3.87
X5.55Y-3.99
X5.59Y-3.84
T2
X2.88Y-3.18
X2.88Y-3.78
X2.98Y-3.18
X2.98Y-3.78
X3.08Y-3.18
X3.08Y-3.78
X3.18Y-3.18
X3.18Y-3.78
X3.28Y-3.18
X3.28Y-3.78
X3.38Y-3.18
X3.38Y-3.78
X3.48Y-3.18
X3.48Y-3.78
X3.58Y-3.18
X3.58Y-3.78
X3.68Y-3.18
X3.68Y-3.78
X3.78Y-3.18
X3.78Y-3.78
X3.88Y-3.18
X3.88Y-3.78
X3.98Y-3.18
X3.98Y-3.78
X4.08Y-3.18
X4.08Y-3.78
X4.18Y-3.18
X4.18Y-3.78
X4.28Y-3.18
X4.28Y-3.78
X4.38Y-3.18
X4.38Y-3.78
X4.48Y-3.18
X4.48Y-3.78
X4.58Y-3.18
X4.58Y-3.78
X4.68Y-3.18
X4.68Y-3.78
X4.78Y-3.18
X4.78Y-3.78
T3
X2.0866Y-2.7165
X2.0866Y-2.8165
X2.0866Y-2.9165
X2.0866Y-3.0165
X2.0866Y-3.1165
X2.0866Y-3.2165
X2.0866Y-3.3165
X2.0866Y-3.4165
X2.0866Y-3.5165
X2.0866Y-3.6165
X2.0866Y-3.7165
X2.0866Y-3.8165
X2.0866Y-3.9165
X2.0866Y-4.0165
X2.0866Y-4.1165
X2.0866Y-4.2165
X2.0866Y-4.3165
X2.1866Y-2.7165
X2.1866Y-2.8165
X2.1866Y-2.9165
X2.1866Y-3.0165
X2.1866Y-3.1165
X2.1866Y-3.2165
X2.1866Y-3.3165
X2.1866Y-3.4165
X2.1866Y-3.5165
X2.1866Y-3.6165
X2.1866Y-3.7165
X2.1866Y-3.8165
X2.1866Y-3.9165
X2.1866Y-4.0165
X2.1866Y-4.1165
X2.1866Y-4.2165
X2.1866Y-4.3165
X5.6874Y-2.7165
X5.6874Y-2.8165
X5.6874Y-2.9165
X5.6874Y-3.0165
X5.6874Y-3.1165
X5.6874Y-3.2165
X5.6874Y-3.3165
X5.6874Y-3.4165
X5.6874Y-3.5165
X5.6874Y-3.6165
X5.6874Y-3.7165
X5.6874Y-3.8165
X5.6874Y-3.9165
X5.6874Y-4.0165
X5.6874Y-4.1165
X5.6874Y-4.2165
X5.6874Y-4.3165
X5.7874Y-2.7165
X5.7874Y-2.8165
X5.7874Y-2.9165
X5.7874Y-3.0165
X5.7874Y-3.1165
X5.7874Y-3.2165
X5.7874Y-3.3165
X5.7874Y-3.4165
X5.7874Y-3.5165
X5.7874Y-3.6165
X5.7874Y-3.7165
X5.7874Y-3.8165
X5.7874Y-3.9165
X5.7874Y-4.0165
X5.7874Y-4.1165
X5.7874Y-4.2165
X5.7874Y-4.3165
M30
