%TF.GenerationSoftware,KiCad,Pcbnew,8.0.7-8.0.7-0~ubuntu22.04.1*%
%TF.CreationDate,2025-01-28T09:52:26+01:00*%
%TF.ProjectId,6847_v1,36383437-5f76-4312-9e6b-696361645f70,rev?*%
%TF.SameCoordinates,Original*%
%TF.FileFunction,Legend,Top*%
%TF.FilePolarity,Positive*%
%FSLAX46Y46*%
G04 Gerber Fmt 4.6, Leading zero omitted, Abs format (unit mm)*
G04 Created by KiCad (PCBNEW 8.0.7-8.0.7-0~ubuntu22.04.1) date 2025-01-28 09:52:26*
%MOMM*%
%LPD*%
G01*
G04 APERTURE LIST*
%ADD10C,0.150000*%
%ADD11C,0.010000*%
%ADD12C,0.120000*%
%ADD13C,0.000000*%
G04 APERTURE END LIST*
D10*
X97479636Y-107259875D02*
X97479636Y-107497970D01*
X97241541Y-107402732D02*
X97479636Y-107497970D01*
X97479636Y-107497970D02*
X97717731Y-107402732D01*
X97336779Y-107688446D02*
X97479636Y-107497970D01*
X97479636Y-107497970D02*
X97622493Y-107688446D01*
X98098684Y-107259875D02*
X98098684Y-108069398D01*
X98098684Y-108069398D02*
X98146303Y-108164636D01*
X98146303Y-108164636D02*
X98193922Y-108212256D01*
X98193922Y-108212256D02*
X98289160Y-108259875D01*
X98289160Y-108259875D02*
X98479636Y-108259875D01*
X98479636Y-108259875D02*
X98574874Y-108212256D01*
X98574874Y-108212256D02*
X98622493Y-108164636D01*
X98622493Y-108164636D02*
X98670112Y-108069398D01*
X98670112Y-108069398D02*
X98670112Y-107259875D01*
X99146303Y-107593208D02*
X99146303Y-108259875D01*
X99146303Y-107688446D02*
X99193922Y-107640827D01*
X99193922Y-107640827D02*
X99289160Y-107593208D01*
X99289160Y-107593208D02*
X99432017Y-107593208D01*
X99432017Y-107593208D02*
X99527255Y-107640827D01*
X99527255Y-107640827D02*
X99574874Y-107736065D01*
X99574874Y-107736065D02*
X99574874Y-108259875D01*
X100051065Y-108259875D02*
X100051065Y-107593208D01*
X100051065Y-107259875D02*
X100003446Y-107307494D01*
X100003446Y-107307494D02*
X100051065Y-107355113D01*
X100051065Y-107355113D02*
X100098684Y-107307494D01*
X100098684Y-107307494D02*
X100051065Y-107259875D01*
X100051065Y-107259875D02*
X100051065Y-107355113D01*
X100955826Y-108212256D02*
X100860588Y-108259875D01*
X100860588Y-108259875D02*
X100670112Y-108259875D01*
X100670112Y-108259875D02*
X100574874Y-108212256D01*
X100574874Y-108212256D02*
X100527255Y-108164636D01*
X100527255Y-108164636D02*
X100479636Y-108069398D01*
X100479636Y-108069398D02*
X100479636Y-107783684D01*
X100479636Y-107783684D02*
X100527255Y-107688446D01*
X100527255Y-107688446D02*
X100574874Y-107640827D01*
X100574874Y-107640827D02*
X100670112Y-107593208D01*
X100670112Y-107593208D02*
X100860588Y-107593208D01*
X100860588Y-107593208D02*
X100955826Y-107640827D01*
X101527255Y-108259875D02*
X101432017Y-108212256D01*
X101432017Y-108212256D02*
X101384398Y-108164636D01*
X101384398Y-108164636D02*
X101336779Y-108069398D01*
X101336779Y-108069398D02*
X101336779Y-107783684D01*
X101336779Y-107783684D02*
X101384398Y-107688446D01*
X101384398Y-107688446D02*
X101432017Y-107640827D01*
X101432017Y-107640827D02*
X101527255Y-107593208D01*
X101527255Y-107593208D02*
X101670112Y-107593208D01*
X101670112Y-107593208D02*
X101765350Y-107640827D01*
X101765350Y-107640827D02*
X101812969Y-107688446D01*
X101812969Y-107688446D02*
X101860588Y-107783684D01*
X101860588Y-107783684D02*
X101860588Y-108069398D01*
X101860588Y-108069398D02*
X101812969Y-108164636D01*
X101812969Y-108164636D02*
X101765350Y-108212256D01*
X101765350Y-108212256D02*
X101670112Y-108259875D01*
X101670112Y-108259875D02*
X101527255Y-108259875D01*
X102289160Y-108259875D02*
X102289160Y-107593208D01*
X102289160Y-107688446D02*
X102336779Y-107640827D01*
X102336779Y-107640827D02*
X102432017Y-107593208D01*
X102432017Y-107593208D02*
X102574874Y-107593208D01*
X102574874Y-107593208D02*
X102670112Y-107640827D01*
X102670112Y-107640827D02*
X102717731Y-107736065D01*
X102717731Y-107736065D02*
X102717731Y-108259875D01*
X102717731Y-107736065D02*
X102765350Y-107640827D01*
X102765350Y-107640827D02*
X102860588Y-107593208D01*
X102860588Y-107593208D02*
X103003445Y-107593208D01*
X103003445Y-107593208D02*
X103098684Y-107640827D01*
X103098684Y-107640827D02*
X103146303Y-107736065D01*
X103146303Y-107736065D02*
X103146303Y-108259875D01*
X103622493Y-107593208D02*
X103622493Y-108593208D01*
X103622493Y-107640827D02*
X103717731Y-107593208D01*
X103717731Y-107593208D02*
X103908207Y-107593208D01*
X103908207Y-107593208D02*
X104003445Y-107640827D01*
X104003445Y-107640827D02*
X104051064Y-107688446D01*
X104051064Y-107688446D02*
X104098683Y-107783684D01*
X104098683Y-107783684D02*
X104098683Y-108069398D01*
X104098683Y-108069398D02*
X104051064Y-108164636D01*
X104051064Y-108164636D02*
X104003445Y-108212256D01*
X104003445Y-108212256D02*
X103908207Y-108259875D01*
X103908207Y-108259875D02*
X103717731Y-108259875D01*
X103717731Y-108259875D02*
X103622493Y-108212256D01*
X105193922Y-107593208D02*
X105432017Y-108259875D01*
X105432017Y-108259875D02*
X105670112Y-107593208D01*
X105955827Y-107259875D02*
X106574874Y-107259875D01*
X106574874Y-107259875D02*
X106241541Y-107640827D01*
X106241541Y-107640827D02*
X106384398Y-107640827D01*
X106384398Y-107640827D02*
X106479636Y-107688446D01*
X106479636Y-107688446D02*
X106527255Y-107736065D01*
X106527255Y-107736065D02*
X106574874Y-107831303D01*
X106574874Y-107831303D02*
X106574874Y-108069398D01*
X106574874Y-108069398D02*
X106527255Y-108164636D01*
X106527255Y-108164636D02*
X106479636Y-108212256D01*
X106479636Y-108212256D02*
X106384398Y-108259875D01*
X106384398Y-108259875D02*
X106098684Y-108259875D01*
X106098684Y-108259875D02*
X106003446Y-108212256D01*
X106003446Y-108212256D02*
X105955827Y-108164636D01*
X107146303Y-107259875D02*
X107146303Y-107497970D01*
X106908208Y-107402732D02*
X107146303Y-107497970D01*
X107146303Y-107497970D02*
X107384398Y-107402732D01*
X107003446Y-107688446D02*
X107146303Y-107497970D01*
X107146303Y-107497970D02*
X107289160Y-107688446D01*
X97193922Y-108869819D02*
X97527255Y-109869819D01*
X97527255Y-109869819D02*
X97860588Y-108869819D01*
X98193922Y-109869819D02*
X98193922Y-109203152D01*
X98193922Y-108869819D02*
X98146303Y-108917438D01*
X98146303Y-108917438D02*
X98193922Y-108965057D01*
X98193922Y-108965057D02*
X98241541Y-108917438D01*
X98241541Y-108917438D02*
X98193922Y-108869819D01*
X98193922Y-108869819D02*
X98193922Y-108965057D01*
X99098683Y-109869819D02*
X99098683Y-108869819D01*
X99098683Y-109822200D02*
X99003445Y-109869819D01*
X99003445Y-109869819D02*
X98812969Y-109869819D01*
X98812969Y-109869819D02*
X98717731Y-109822200D01*
X98717731Y-109822200D02*
X98670112Y-109774580D01*
X98670112Y-109774580D02*
X98622493Y-109679342D01*
X98622493Y-109679342D02*
X98622493Y-109393628D01*
X98622493Y-109393628D02*
X98670112Y-109298390D01*
X98670112Y-109298390D02*
X98717731Y-109250771D01*
X98717731Y-109250771D02*
X98812969Y-109203152D01*
X98812969Y-109203152D02*
X99003445Y-109203152D01*
X99003445Y-109203152D02*
X99098683Y-109250771D01*
X99955826Y-109822200D02*
X99860588Y-109869819D01*
X99860588Y-109869819D02*
X99670112Y-109869819D01*
X99670112Y-109869819D02*
X99574874Y-109822200D01*
X99574874Y-109822200D02*
X99527255Y-109726961D01*
X99527255Y-109726961D02*
X99527255Y-109346009D01*
X99527255Y-109346009D02*
X99574874Y-109250771D01*
X99574874Y-109250771D02*
X99670112Y-109203152D01*
X99670112Y-109203152D02*
X99860588Y-109203152D01*
X99860588Y-109203152D02*
X99955826Y-109250771D01*
X99955826Y-109250771D02*
X100003445Y-109346009D01*
X100003445Y-109346009D02*
X100003445Y-109441247D01*
X100003445Y-109441247D02*
X99527255Y-109536485D01*
X100574874Y-109869819D02*
X100479636Y-109822200D01*
X100479636Y-109822200D02*
X100432017Y-109774580D01*
X100432017Y-109774580D02*
X100384398Y-109679342D01*
X100384398Y-109679342D02*
X100384398Y-109393628D01*
X100384398Y-109393628D02*
X100432017Y-109298390D01*
X100432017Y-109298390D02*
X100479636Y-109250771D01*
X100479636Y-109250771D02*
X100574874Y-109203152D01*
X100574874Y-109203152D02*
X100717731Y-109203152D01*
X100717731Y-109203152D02*
X100812969Y-109250771D01*
X100812969Y-109250771D02*
X100860588Y-109298390D01*
X100860588Y-109298390D02*
X100908207Y-109393628D01*
X100908207Y-109393628D02*
X100908207Y-109679342D01*
X100908207Y-109679342D02*
X100860588Y-109774580D01*
X100860588Y-109774580D02*
X100812969Y-109822200D01*
X100812969Y-109822200D02*
X100717731Y-109869819D01*
X100717731Y-109869819D02*
X100574874Y-109869819D01*
X102432017Y-109346009D02*
X102574874Y-109393628D01*
X102574874Y-109393628D02*
X102622493Y-109441247D01*
X102622493Y-109441247D02*
X102670112Y-109536485D01*
X102670112Y-109536485D02*
X102670112Y-109679342D01*
X102670112Y-109679342D02*
X102622493Y-109774580D01*
X102622493Y-109774580D02*
X102574874Y-109822200D01*
X102574874Y-109822200D02*
X102479636Y-109869819D01*
X102479636Y-109869819D02*
X102098684Y-109869819D01*
X102098684Y-109869819D02*
X102098684Y-108869819D01*
X102098684Y-108869819D02*
X102432017Y-108869819D01*
X102432017Y-108869819D02*
X102527255Y-108917438D01*
X102527255Y-108917438D02*
X102574874Y-108965057D01*
X102574874Y-108965057D02*
X102622493Y-109060295D01*
X102622493Y-109060295D02*
X102622493Y-109155533D01*
X102622493Y-109155533D02*
X102574874Y-109250771D01*
X102574874Y-109250771D02*
X102527255Y-109298390D01*
X102527255Y-109298390D02*
X102432017Y-109346009D01*
X102432017Y-109346009D02*
X102098684Y-109346009D01*
X103241541Y-109869819D02*
X103146303Y-109822200D01*
X103146303Y-109822200D02*
X103098684Y-109774580D01*
X103098684Y-109774580D02*
X103051065Y-109679342D01*
X103051065Y-109679342D02*
X103051065Y-109393628D01*
X103051065Y-109393628D02*
X103098684Y-109298390D01*
X103098684Y-109298390D02*
X103146303Y-109250771D01*
X103146303Y-109250771D02*
X103241541Y-109203152D01*
X103241541Y-109203152D02*
X103384398Y-109203152D01*
X103384398Y-109203152D02*
X103479636Y-109250771D01*
X103479636Y-109250771D02*
X103527255Y-109298390D01*
X103527255Y-109298390D02*
X103574874Y-109393628D01*
X103574874Y-109393628D02*
X103574874Y-109679342D01*
X103574874Y-109679342D02*
X103527255Y-109774580D01*
X103527255Y-109774580D02*
X103479636Y-109822200D01*
X103479636Y-109822200D02*
X103384398Y-109869819D01*
X103384398Y-109869819D02*
X103241541Y-109869819D01*
X104432017Y-109869819D02*
X104432017Y-109346009D01*
X104432017Y-109346009D02*
X104384398Y-109250771D01*
X104384398Y-109250771D02*
X104289160Y-109203152D01*
X104289160Y-109203152D02*
X104098684Y-109203152D01*
X104098684Y-109203152D02*
X104003446Y-109250771D01*
X104432017Y-109822200D02*
X104336779Y-109869819D01*
X104336779Y-109869819D02*
X104098684Y-109869819D01*
X104098684Y-109869819D02*
X104003446Y-109822200D01*
X104003446Y-109822200D02*
X103955827Y-109726961D01*
X103955827Y-109726961D02*
X103955827Y-109631723D01*
X103955827Y-109631723D02*
X104003446Y-109536485D01*
X104003446Y-109536485D02*
X104098684Y-109488866D01*
X104098684Y-109488866D02*
X104336779Y-109488866D01*
X104336779Y-109488866D02*
X104432017Y-109441247D01*
X104908208Y-109869819D02*
X104908208Y-109203152D01*
X104908208Y-109393628D02*
X104955827Y-109298390D01*
X104955827Y-109298390D02*
X105003446Y-109250771D01*
X105003446Y-109250771D02*
X105098684Y-109203152D01*
X105098684Y-109203152D02*
X105193922Y-109203152D01*
X105955827Y-109869819D02*
X105955827Y-108869819D01*
X105955827Y-109822200D02*
X105860589Y-109869819D01*
X105860589Y-109869819D02*
X105670113Y-109869819D01*
X105670113Y-109869819D02*
X105574875Y-109822200D01*
X105574875Y-109822200D02*
X105527256Y-109774580D01*
X105527256Y-109774580D02*
X105479637Y-109679342D01*
X105479637Y-109679342D02*
X105479637Y-109393628D01*
X105479637Y-109393628D02*
X105527256Y-109298390D01*
X105527256Y-109298390D02*
X105574875Y-109250771D01*
X105574875Y-109250771D02*
X105670113Y-109203152D01*
X105670113Y-109203152D02*
X105860589Y-109203152D01*
X105860589Y-109203152D02*
X105955827Y-109250771D01*
X107098685Y-109203152D02*
X107336780Y-109869819D01*
X107336780Y-109869819D02*
X107574875Y-109203152D01*
X108479637Y-109869819D02*
X107908209Y-109869819D01*
X108193923Y-109869819D02*
X108193923Y-108869819D01*
X108193923Y-108869819D02*
X108098685Y-109012676D01*
X108098685Y-109012676D02*
X108003447Y-109107914D01*
X108003447Y-109107914D02*
X107908209Y-109155533D01*
X108908209Y-109774580D02*
X108955828Y-109822200D01*
X108955828Y-109822200D02*
X108908209Y-109869819D01*
X108908209Y-109869819D02*
X108860590Y-109822200D01*
X108860590Y-109822200D02*
X108908209Y-109774580D01*
X108908209Y-109774580D02*
X108908209Y-109869819D01*
X109574875Y-108869819D02*
X109670113Y-108869819D01*
X109670113Y-108869819D02*
X109765351Y-108917438D01*
X109765351Y-108917438D02*
X109812970Y-108965057D01*
X109812970Y-108965057D02*
X109860589Y-109060295D01*
X109860589Y-109060295D02*
X109908208Y-109250771D01*
X109908208Y-109250771D02*
X109908208Y-109488866D01*
X109908208Y-109488866D02*
X109860589Y-109679342D01*
X109860589Y-109679342D02*
X109812970Y-109774580D01*
X109812970Y-109774580D02*
X109765351Y-109822200D01*
X109765351Y-109822200D02*
X109670113Y-109869819D01*
X109670113Y-109869819D02*
X109574875Y-109869819D01*
X109574875Y-109869819D02*
X109479637Y-109822200D01*
X109479637Y-109822200D02*
X109432018Y-109774580D01*
X109432018Y-109774580D02*
X109384399Y-109679342D01*
X109384399Y-109679342D02*
X109336780Y-109488866D01*
X109336780Y-109488866D02*
X109336780Y-109250771D01*
X109336780Y-109250771D02*
X109384399Y-109060295D01*
X109384399Y-109060295D02*
X109432018Y-108965057D01*
X109432018Y-108965057D02*
X109479637Y-108917438D01*
X109479637Y-108917438D02*
X109574875Y-108869819D01*
X111051066Y-109584104D02*
X111527256Y-109584104D01*
X110955828Y-109869819D02*
X111289161Y-108869819D01*
X111289161Y-108869819D02*
X111622494Y-109869819D01*
X112384399Y-109869819D02*
X112384399Y-108869819D01*
X112384399Y-109822200D02*
X112289161Y-109869819D01*
X112289161Y-109869819D02*
X112098685Y-109869819D01*
X112098685Y-109869819D02*
X112003447Y-109822200D01*
X112003447Y-109822200D02*
X111955828Y-109774580D01*
X111955828Y-109774580D02*
X111908209Y-109679342D01*
X111908209Y-109679342D02*
X111908209Y-109393628D01*
X111908209Y-109393628D02*
X111955828Y-109298390D01*
X111955828Y-109298390D02*
X112003447Y-109250771D01*
X112003447Y-109250771D02*
X112098685Y-109203152D01*
X112098685Y-109203152D02*
X112289161Y-109203152D01*
X112289161Y-109203152D02*
X112384399Y-109250771D01*
X113289161Y-109869819D02*
X113289161Y-109346009D01*
X113289161Y-109346009D02*
X113241542Y-109250771D01*
X113241542Y-109250771D02*
X113146304Y-109203152D01*
X113146304Y-109203152D02*
X112955828Y-109203152D01*
X112955828Y-109203152D02*
X112860590Y-109250771D01*
X113289161Y-109822200D02*
X113193923Y-109869819D01*
X113193923Y-109869819D02*
X112955828Y-109869819D01*
X112955828Y-109869819D02*
X112860590Y-109822200D01*
X112860590Y-109822200D02*
X112812971Y-109726961D01*
X112812971Y-109726961D02*
X112812971Y-109631723D01*
X112812971Y-109631723D02*
X112860590Y-109536485D01*
X112860590Y-109536485D02*
X112955828Y-109488866D01*
X112955828Y-109488866D02*
X113193923Y-109488866D01*
X113193923Y-109488866D02*
X113289161Y-109441247D01*
X113765352Y-109203152D02*
X113765352Y-110203152D01*
X113765352Y-109250771D02*
X113860590Y-109203152D01*
X113860590Y-109203152D02*
X114051066Y-109203152D01*
X114051066Y-109203152D02*
X114146304Y-109250771D01*
X114146304Y-109250771D02*
X114193923Y-109298390D01*
X114193923Y-109298390D02*
X114241542Y-109393628D01*
X114241542Y-109393628D02*
X114241542Y-109679342D01*
X114241542Y-109679342D02*
X114193923Y-109774580D01*
X114193923Y-109774580D02*
X114146304Y-109822200D01*
X114146304Y-109822200D02*
X114051066Y-109869819D01*
X114051066Y-109869819D02*
X113860590Y-109869819D01*
X113860590Y-109869819D02*
X113765352Y-109822200D01*
X114527257Y-109203152D02*
X114908209Y-109203152D01*
X114670114Y-108869819D02*
X114670114Y-109726961D01*
X114670114Y-109726961D02*
X114717733Y-109822200D01*
X114717733Y-109822200D02*
X114812971Y-109869819D01*
X114812971Y-109869819D02*
X114908209Y-109869819D01*
X115622495Y-109822200D02*
X115527257Y-109869819D01*
X115527257Y-109869819D02*
X115336781Y-109869819D01*
X115336781Y-109869819D02*
X115241543Y-109822200D01*
X115241543Y-109822200D02*
X115193924Y-109726961D01*
X115193924Y-109726961D02*
X115193924Y-109346009D01*
X115193924Y-109346009D02*
X115241543Y-109250771D01*
X115241543Y-109250771D02*
X115336781Y-109203152D01*
X115336781Y-109203152D02*
X115527257Y-109203152D01*
X115527257Y-109203152D02*
X115622495Y-109250771D01*
X115622495Y-109250771D02*
X115670114Y-109346009D01*
X115670114Y-109346009D02*
X115670114Y-109441247D01*
X115670114Y-109441247D02*
X115193924Y-109536485D01*
X116098686Y-109869819D02*
X116098686Y-109203152D01*
X116098686Y-109393628D02*
X116146305Y-109298390D01*
X116146305Y-109298390D02*
X116193924Y-109250771D01*
X116193924Y-109250771D02*
X116289162Y-109203152D01*
X116289162Y-109203152D02*
X116384400Y-109203152D01*
X117479639Y-109869819D02*
X117479639Y-108869819D01*
X117479639Y-108869819D02*
X117812972Y-109584104D01*
X117812972Y-109584104D02*
X118146305Y-108869819D01*
X118146305Y-108869819D02*
X118146305Y-109869819D01*
X119193924Y-109774580D02*
X119146305Y-109822200D01*
X119146305Y-109822200D02*
X119003448Y-109869819D01*
X119003448Y-109869819D02*
X118908210Y-109869819D01*
X118908210Y-109869819D02*
X118765353Y-109822200D01*
X118765353Y-109822200D02*
X118670115Y-109726961D01*
X118670115Y-109726961D02*
X118622496Y-109631723D01*
X118622496Y-109631723D02*
X118574877Y-109441247D01*
X118574877Y-109441247D02*
X118574877Y-109298390D01*
X118574877Y-109298390D02*
X118622496Y-109107914D01*
X118622496Y-109107914D02*
X118670115Y-109012676D01*
X118670115Y-109012676D02*
X118765353Y-108917438D01*
X118765353Y-108917438D02*
X118908210Y-108869819D01*
X118908210Y-108869819D02*
X119003448Y-108869819D01*
X119003448Y-108869819D02*
X119146305Y-108917438D01*
X119146305Y-108917438D02*
X119193924Y-108965057D01*
X120051067Y-108869819D02*
X119860591Y-108869819D01*
X119860591Y-108869819D02*
X119765353Y-108917438D01*
X119765353Y-108917438D02*
X119717734Y-108965057D01*
X119717734Y-108965057D02*
X119622496Y-109107914D01*
X119622496Y-109107914D02*
X119574877Y-109298390D01*
X119574877Y-109298390D02*
X119574877Y-109679342D01*
X119574877Y-109679342D02*
X119622496Y-109774580D01*
X119622496Y-109774580D02*
X119670115Y-109822200D01*
X119670115Y-109822200D02*
X119765353Y-109869819D01*
X119765353Y-109869819D02*
X119955829Y-109869819D01*
X119955829Y-109869819D02*
X120051067Y-109822200D01*
X120051067Y-109822200D02*
X120098686Y-109774580D01*
X120098686Y-109774580D02*
X120146305Y-109679342D01*
X120146305Y-109679342D02*
X120146305Y-109441247D01*
X120146305Y-109441247D02*
X120098686Y-109346009D01*
X120098686Y-109346009D02*
X120051067Y-109298390D01*
X120051067Y-109298390D02*
X119955829Y-109250771D01*
X119955829Y-109250771D02*
X119765353Y-109250771D01*
X119765353Y-109250771D02*
X119670115Y-109298390D01*
X119670115Y-109298390D02*
X119622496Y-109346009D01*
X119622496Y-109346009D02*
X119574877Y-109441247D01*
X120717734Y-109298390D02*
X120622496Y-109250771D01*
X120622496Y-109250771D02*
X120574877Y-109203152D01*
X120574877Y-109203152D02*
X120527258Y-109107914D01*
X120527258Y-109107914D02*
X120527258Y-109060295D01*
X120527258Y-109060295D02*
X120574877Y-108965057D01*
X120574877Y-108965057D02*
X120622496Y-108917438D01*
X120622496Y-108917438D02*
X120717734Y-108869819D01*
X120717734Y-108869819D02*
X120908210Y-108869819D01*
X120908210Y-108869819D02*
X121003448Y-108917438D01*
X121003448Y-108917438D02*
X121051067Y-108965057D01*
X121051067Y-108965057D02*
X121098686Y-109060295D01*
X121098686Y-109060295D02*
X121098686Y-109107914D01*
X121098686Y-109107914D02*
X121051067Y-109203152D01*
X121051067Y-109203152D02*
X121003448Y-109250771D01*
X121003448Y-109250771D02*
X120908210Y-109298390D01*
X120908210Y-109298390D02*
X120717734Y-109298390D01*
X120717734Y-109298390D02*
X120622496Y-109346009D01*
X120622496Y-109346009D02*
X120574877Y-109393628D01*
X120574877Y-109393628D02*
X120527258Y-109488866D01*
X120527258Y-109488866D02*
X120527258Y-109679342D01*
X120527258Y-109679342D02*
X120574877Y-109774580D01*
X120574877Y-109774580D02*
X120622496Y-109822200D01*
X120622496Y-109822200D02*
X120717734Y-109869819D01*
X120717734Y-109869819D02*
X120908210Y-109869819D01*
X120908210Y-109869819D02*
X121003448Y-109822200D01*
X121003448Y-109822200D02*
X121051067Y-109774580D01*
X121051067Y-109774580D02*
X121098686Y-109679342D01*
X121098686Y-109679342D02*
X121098686Y-109488866D01*
X121098686Y-109488866D02*
X121051067Y-109393628D01*
X121051067Y-109393628D02*
X121003448Y-109346009D01*
X121003448Y-109346009D02*
X120908210Y-109298390D01*
X121955829Y-109203152D02*
X121955829Y-109869819D01*
X121717734Y-108822200D02*
X121479639Y-109536485D01*
X121479639Y-109536485D02*
X122098686Y-109536485D01*
X122384401Y-108869819D02*
X123051067Y-108869819D01*
X123051067Y-108869819D02*
X122622496Y-109869819D01*
X124098687Y-109203152D02*
X124336782Y-109869819D01*
X124336782Y-109869819D02*
X124574877Y-109203152D01*
X125479639Y-109869819D02*
X124908211Y-109869819D01*
X125193925Y-109869819D02*
X125193925Y-108869819D01*
X125193925Y-108869819D02*
X125098687Y-109012676D01*
X125098687Y-109012676D02*
X125003449Y-109107914D01*
X125003449Y-109107914D02*
X124908211Y-109155533D01*
X125908211Y-109774580D02*
X125955830Y-109822200D01*
X125955830Y-109822200D02*
X125908211Y-109869819D01*
X125908211Y-109869819D02*
X125860592Y-109822200D01*
X125860592Y-109822200D02*
X125908211Y-109774580D01*
X125908211Y-109774580D02*
X125908211Y-109869819D01*
X126574877Y-108869819D02*
X126670115Y-108869819D01*
X126670115Y-108869819D02*
X126765353Y-108917438D01*
X126765353Y-108917438D02*
X126812972Y-108965057D01*
X126812972Y-108965057D02*
X126860591Y-109060295D01*
X126860591Y-109060295D02*
X126908210Y-109250771D01*
X126908210Y-109250771D02*
X126908210Y-109488866D01*
X126908210Y-109488866D02*
X126860591Y-109679342D01*
X126860591Y-109679342D02*
X126812972Y-109774580D01*
X126812972Y-109774580D02*
X126765353Y-109822200D01*
X126765353Y-109822200D02*
X126670115Y-109869819D01*
X126670115Y-109869819D02*
X126574877Y-109869819D01*
X126574877Y-109869819D02*
X126479639Y-109822200D01*
X126479639Y-109822200D02*
X126432020Y-109774580D01*
X126432020Y-109774580D02*
X126384401Y-109679342D01*
X126384401Y-109679342D02*
X126336782Y-109488866D01*
X126336782Y-109488866D02*
X126336782Y-109250771D01*
X126336782Y-109250771D02*
X126384401Y-109060295D01*
X126384401Y-109060295D02*
X126432020Y-108965057D01*
X126432020Y-108965057D02*
X126479639Y-108917438D01*
X126479639Y-108917438D02*
X126574877Y-108869819D01*
X80659580Y-90590666D02*
X80707200Y-90638285D01*
X80707200Y-90638285D02*
X80754819Y-90781142D01*
X80754819Y-90781142D02*
X80754819Y-90876380D01*
X80754819Y-90876380D02*
X80707200Y-91019237D01*
X80707200Y-91019237D02*
X80611961Y-91114475D01*
X80611961Y-91114475D02*
X80516723Y-91162094D01*
X80516723Y-91162094D02*
X80326247Y-91209713D01*
X80326247Y-91209713D02*
X80183390Y-91209713D01*
X80183390Y-91209713D02*
X79992914Y-91162094D01*
X79992914Y-91162094D02*
X79897676Y-91114475D01*
X79897676Y-91114475D02*
X79802438Y-91019237D01*
X79802438Y-91019237D02*
X79754819Y-90876380D01*
X79754819Y-90876380D02*
X79754819Y-90781142D01*
X79754819Y-90781142D02*
X79802438Y-90638285D01*
X79802438Y-90638285D02*
X79850057Y-90590666D01*
X79850057Y-90209713D02*
X79802438Y-90162094D01*
X79802438Y-90162094D02*
X79754819Y-90066856D01*
X79754819Y-90066856D02*
X79754819Y-89828761D01*
X79754819Y-89828761D02*
X79802438Y-89733523D01*
X79802438Y-89733523D02*
X79850057Y-89685904D01*
X79850057Y-89685904D02*
X79945295Y-89638285D01*
X79945295Y-89638285D02*
X80040533Y-89638285D01*
X80040533Y-89638285D02*
X80183390Y-89685904D01*
X80183390Y-89685904D02*
X80754819Y-90257332D01*
X80754819Y-90257332D02*
X80754819Y-89638285D01*
X84009580Y-90552166D02*
X84057200Y-90599785D01*
X84057200Y-90599785D02*
X84104819Y-90742642D01*
X84104819Y-90742642D02*
X84104819Y-90837880D01*
X84104819Y-90837880D02*
X84057200Y-90980737D01*
X84057200Y-90980737D02*
X83961961Y-91075975D01*
X83961961Y-91075975D02*
X83866723Y-91123594D01*
X83866723Y-91123594D02*
X83676247Y-91171213D01*
X83676247Y-91171213D02*
X83533390Y-91171213D01*
X83533390Y-91171213D02*
X83342914Y-91123594D01*
X83342914Y-91123594D02*
X83247676Y-91075975D01*
X83247676Y-91075975D02*
X83152438Y-90980737D01*
X83152438Y-90980737D02*
X83104819Y-90837880D01*
X83104819Y-90837880D02*
X83104819Y-90742642D01*
X83104819Y-90742642D02*
X83152438Y-90599785D01*
X83152438Y-90599785D02*
X83200057Y-90552166D01*
X84104819Y-89599785D02*
X84104819Y-90171213D01*
X84104819Y-89885499D02*
X83104819Y-89885499D01*
X83104819Y-89885499D02*
X83247676Y-89980737D01*
X83247676Y-89980737D02*
X83342914Y-90075975D01*
X83342914Y-90075975D02*
X83390533Y-90171213D01*
D11*
%TO.C,H2*%
X88152600Y-108458752D02*
X88169948Y-108466334D01*
X88211356Y-108499128D01*
X88246765Y-108546547D01*
X88268664Y-108597151D01*
X88272229Y-108622098D01*
X88260279Y-108656927D01*
X88234067Y-108675357D01*
X88205964Y-108686516D01*
X88193095Y-108688572D01*
X88186829Y-108673649D01*
X88174456Y-108641175D01*
X88169028Y-108626502D01*
X88138590Y-108575744D01*
X88094520Y-108550427D01*
X88038010Y-108551206D01*
X88033825Y-108552203D01*
X88003655Y-108566507D01*
X87981476Y-108594393D01*
X87966327Y-108639287D01*
X87957250Y-108704615D01*
X87953286Y-108793804D01*
X87952914Y-108841261D01*
X87952730Y-108916071D01*
X87951522Y-108967069D01*
X87948309Y-108999471D01*
X87942109Y-109018495D01*
X87931940Y-109029356D01*
X87916819Y-109037272D01*
X87915946Y-109037670D01*
X87886828Y-109049981D01*
X87872403Y-109054514D01*
X87870186Y-109040809D01*
X87868289Y-109002925D01*
X87866847Y-108945715D01*
X87865998Y-108874027D01*
X87865829Y-108821565D01*
X87866692Y-108720047D01*
X87870070Y-108643032D01*
X87877142Y-108586023D01*
X87889088Y-108544526D01*
X87907090Y-108514043D01*
X87932327Y-108490080D01*
X87957247Y-108473355D01*
X88017171Y-108451097D01*
X88086911Y-108446076D01*
X88152600Y-108458752D01*
G36*
X88152600Y-108458752D02*
G01*
X88169948Y-108466334D01*
X88211356Y-108499128D01*
X88246765Y-108546547D01*
X88268664Y-108597151D01*
X88272229Y-108622098D01*
X88260279Y-108656927D01*
X88234067Y-108675357D01*
X88205964Y-108686516D01*
X88193095Y-108688572D01*
X88186829Y-108673649D01*
X88174456Y-108641175D01*
X88169028Y-108626502D01*
X88138590Y-108575744D01*
X88094520Y-108550427D01*
X88038010Y-108551206D01*
X88033825Y-108552203D01*
X88003655Y-108566507D01*
X87981476Y-108594393D01*
X87966327Y-108639287D01*
X87957250Y-108704615D01*
X87953286Y-108793804D01*
X87952914Y-108841261D01*
X87952730Y-108916071D01*
X87951522Y-108967069D01*
X87948309Y-108999471D01*
X87942109Y-109018495D01*
X87931940Y-109029356D01*
X87916819Y-109037272D01*
X87915946Y-109037670D01*
X87886828Y-109049981D01*
X87872403Y-109054514D01*
X87870186Y-109040809D01*
X87868289Y-109002925D01*
X87866847Y-108945715D01*
X87865998Y-108874027D01*
X87865829Y-108821565D01*
X87866692Y-108720047D01*
X87870070Y-108643032D01*
X87877142Y-108586023D01*
X87889088Y-108544526D01*
X87907090Y-108514043D01*
X87932327Y-108490080D01*
X87957247Y-108473355D01*
X88017171Y-108451097D01*
X88086911Y-108446076D01*
X88152600Y-108458752D01*
G37*
X84216093Y-108427780D02*
X84262672Y-108454723D01*
X84295057Y-108481466D01*
X84318742Y-108509484D01*
X84335059Y-108543748D01*
X84345339Y-108589227D01*
X84350914Y-108650892D01*
X84353116Y-108733711D01*
X84353371Y-108793246D01*
X84353371Y-109012391D01*
X84291686Y-109040044D01*
X84230000Y-109067697D01*
X84222743Y-108827670D01*
X84219744Y-108738028D01*
X84216598Y-108672962D01*
X84212701Y-108628026D01*
X84207447Y-108598770D01*
X84200231Y-108580748D01*
X84190450Y-108569511D01*
X84187312Y-108567079D01*
X84139761Y-108548083D01*
X84091697Y-108555600D01*
X84063086Y-108575543D01*
X84051447Y-108589675D01*
X84043391Y-108608220D01*
X84038271Y-108636334D01*
X84035441Y-108679173D01*
X84034256Y-108741895D01*
X84034057Y-108807261D01*
X84034018Y-108889268D01*
X84032614Y-108947316D01*
X84027914Y-108986465D01*
X84017987Y-109011780D01*
X84000903Y-109028323D01*
X83974732Y-109041156D01*
X83939775Y-109054491D01*
X83901596Y-109069007D01*
X83906141Y-108811389D01*
X83907971Y-108718519D01*
X83910112Y-108649889D01*
X83913181Y-108600711D01*
X83917794Y-108566198D01*
X83924568Y-108541562D01*
X83934119Y-108522016D01*
X83945634Y-108504770D01*
X84001190Y-108449680D01*
X84068980Y-108417822D01*
X84142713Y-108410191D01*
X84216093Y-108427780D01*
G36*
X84216093Y-108427780D02*
G01*
X84262672Y-108454723D01*
X84295057Y-108481466D01*
X84318742Y-108509484D01*
X84335059Y-108543748D01*
X84345339Y-108589227D01*
X84350914Y-108650892D01*
X84353116Y-108733711D01*
X84353371Y-108793246D01*
X84353371Y-109012391D01*
X84291686Y-109040044D01*
X84230000Y-109067697D01*
X84222743Y-108827670D01*
X84219744Y-108738028D01*
X84216598Y-108672962D01*
X84212701Y-108628026D01*
X84207447Y-108598770D01*
X84200231Y-108580748D01*
X84190450Y-108569511D01*
X84187312Y-108567079D01*
X84139761Y-108548083D01*
X84091697Y-108555600D01*
X84063086Y-108575543D01*
X84051447Y-108589675D01*
X84043391Y-108608220D01*
X84038271Y-108636334D01*
X84035441Y-108679173D01*
X84034256Y-108741895D01*
X84034057Y-108807261D01*
X84034018Y-108889268D01*
X84032614Y-108947316D01*
X84027914Y-108986465D01*
X84017987Y-109011780D01*
X84000903Y-109028323D01*
X83974732Y-109041156D01*
X83939775Y-109054491D01*
X83901596Y-109069007D01*
X83906141Y-108811389D01*
X83907971Y-108718519D01*
X83910112Y-108649889D01*
X83913181Y-108600711D01*
X83917794Y-108566198D01*
X83924568Y-108541562D01*
X83934119Y-108522016D01*
X83945634Y-108504770D01*
X84001190Y-108449680D01*
X84068980Y-108417822D01*
X84142713Y-108410191D01*
X84216093Y-108427780D01*
G37*
X86029926Y-108449755D02*
X86095858Y-108474084D01*
X86149273Y-108517117D01*
X86170164Y-108547409D01*
X86192939Y-108602994D01*
X86192466Y-108643186D01*
X86168562Y-108670217D01*
X86159717Y-108674813D01*
X86121530Y-108689144D01*
X86102028Y-108685472D01*
X86095422Y-108661407D01*
X86095086Y-108648114D01*
X86082992Y-108599210D01*
X86051471Y-108564999D01*
X86007659Y-108548476D01*
X85958695Y-108552634D01*
X85918894Y-108574227D01*
X85905450Y-108586544D01*
X85895921Y-108601487D01*
X85889485Y-108624075D01*
X85885317Y-108659328D01*
X85882597Y-108712266D01*
X85880502Y-108787907D01*
X85879960Y-108811857D01*
X85877981Y-108893790D01*
X85875731Y-108951455D01*
X85872357Y-108989608D01*
X85867006Y-109013004D01*
X85858824Y-109026398D01*
X85846959Y-109034545D01*
X85839362Y-109038144D01*
X85807102Y-109050452D01*
X85788111Y-109054514D01*
X85781836Y-109040948D01*
X85778006Y-108999934D01*
X85776600Y-108930999D01*
X85777598Y-108833669D01*
X85777908Y-108818657D01*
X85780101Y-108729859D01*
X85782693Y-108665019D01*
X85786382Y-108619067D01*
X85791864Y-108586935D01*
X85799835Y-108563553D01*
X85810993Y-108543852D01*
X85816830Y-108535410D01*
X85850296Y-108498057D01*
X85887727Y-108469003D01*
X85892309Y-108466467D01*
X85959426Y-108446443D01*
X86029926Y-108449755D01*
G36*
X86029926Y-108449755D02*
G01*
X86095858Y-108474084D01*
X86149273Y-108517117D01*
X86170164Y-108547409D01*
X86192939Y-108602994D01*
X86192466Y-108643186D01*
X86168562Y-108670217D01*
X86159717Y-108674813D01*
X86121530Y-108689144D01*
X86102028Y-108685472D01*
X86095422Y-108661407D01*
X86095086Y-108648114D01*
X86082992Y-108599210D01*
X86051471Y-108564999D01*
X86007659Y-108548476D01*
X85958695Y-108552634D01*
X85918894Y-108574227D01*
X85905450Y-108586544D01*
X85895921Y-108601487D01*
X85889485Y-108624075D01*
X85885317Y-108659328D01*
X85882597Y-108712266D01*
X85880502Y-108787907D01*
X85879960Y-108811857D01*
X85877981Y-108893790D01*
X85875731Y-108951455D01*
X85872357Y-108989608D01*
X85867006Y-109013004D01*
X85858824Y-109026398D01*
X85846959Y-109034545D01*
X85839362Y-109038144D01*
X85807102Y-109050452D01*
X85788111Y-109054514D01*
X85781836Y-109040948D01*
X85778006Y-108999934D01*
X85776600Y-108930999D01*
X85777598Y-108833669D01*
X85777908Y-108818657D01*
X85780101Y-108729859D01*
X85782693Y-108665019D01*
X85786382Y-108619067D01*
X85791864Y-108586935D01*
X85799835Y-108563553D01*
X85810993Y-108543852D01*
X85816830Y-108535410D01*
X85850296Y-108498057D01*
X85887727Y-108469003D01*
X85892309Y-108466467D01*
X85959426Y-108446443D01*
X86029926Y-108449755D01*
G37*
X84875886Y-108351289D02*
X84880139Y-108410613D01*
X84885025Y-108445572D01*
X84891795Y-108460820D01*
X84901702Y-108461015D01*
X84904914Y-108459195D01*
X84947644Y-108446015D01*
X85003227Y-108446785D01*
X85059737Y-108460333D01*
X85095082Y-108477861D01*
X85131321Y-108505861D01*
X85157813Y-108537549D01*
X85175999Y-108577813D01*
X85187322Y-108631543D01*
X85193222Y-108703626D01*
X85195143Y-108798951D01*
X85195177Y-108817237D01*
X85195200Y-109022646D01*
X85149491Y-109038580D01*
X85117027Y-109049420D01*
X85099215Y-109054468D01*
X85098691Y-109054514D01*
X85096937Y-109040828D01*
X85095444Y-109003076D01*
X85094326Y-108946224D01*
X85093697Y-108875234D01*
X85093600Y-108832073D01*
X85093398Y-108746973D01*
X85092358Y-108685981D01*
X85089831Y-108644177D01*
X85085164Y-108616642D01*
X85077707Y-108598456D01*
X85066811Y-108584698D01*
X85060007Y-108578073D01*
X85013272Y-108551375D01*
X84962272Y-108549375D01*
X84916001Y-108571955D01*
X84907444Y-108580107D01*
X84894893Y-108595436D01*
X84886188Y-108613618D01*
X84880631Y-108639909D01*
X84877526Y-108679562D01*
X84876176Y-108737832D01*
X84875886Y-108818173D01*
X84875886Y-109022646D01*
X84830177Y-109038580D01*
X84797713Y-109049420D01*
X84779901Y-109054468D01*
X84779377Y-109054514D01*
X84778037Y-109040623D01*
X84776828Y-109001439D01*
X84775801Y-108940700D01*
X84775002Y-108862141D01*
X84774481Y-108769498D01*
X84774286Y-108666509D01*
X84774286Y-108269342D01*
X84821457Y-108249444D01*
X84868629Y-108229547D01*
X84875886Y-108351289D01*
G36*
X84875886Y-108351289D02*
G01*
X84880139Y-108410613D01*
X84885025Y-108445572D01*
X84891795Y-108460820D01*
X84901702Y-108461015D01*
X84904914Y-108459195D01*
X84947644Y-108446015D01*
X85003227Y-108446785D01*
X85059737Y-108460333D01*
X85095082Y-108477861D01*
X85131321Y-108505861D01*
X85157813Y-108537549D01*
X85175999Y-108577813D01*
X85187322Y-108631543D01*
X85193222Y-108703626D01*
X85195143Y-108798951D01*
X85195177Y-108817237D01*
X85195200Y-109022646D01*
X85149491Y-109038580D01*
X85117027Y-109049420D01*
X85099215Y-109054468D01*
X85098691Y-109054514D01*
X85096937Y-109040828D01*
X85095444Y-109003076D01*
X85094326Y-108946224D01*
X85093697Y-108875234D01*
X85093600Y-108832073D01*
X85093398Y-108746973D01*
X85092358Y-108685981D01*
X85089831Y-108644177D01*
X85085164Y-108616642D01*
X85077707Y-108598456D01*
X85066811Y-108584698D01*
X85060007Y-108578073D01*
X85013272Y-108551375D01*
X84962272Y-108549375D01*
X84916001Y-108571955D01*
X84907444Y-108580107D01*
X84894893Y-108595436D01*
X84886188Y-108613618D01*
X84880631Y-108639909D01*
X84877526Y-108679562D01*
X84876176Y-108737832D01*
X84875886Y-108818173D01*
X84875886Y-109022646D01*
X84830177Y-109038580D01*
X84797713Y-109049420D01*
X84779901Y-109054468D01*
X84779377Y-109054514D01*
X84778037Y-109040623D01*
X84776828Y-109001439D01*
X84775801Y-108940700D01*
X84775002Y-108862141D01*
X84774481Y-108769498D01*
X84774286Y-108666509D01*
X84774286Y-108269342D01*
X84821457Y-108249444D01*
X84868629Y-108229547D01*
X84875886Y-108351289D01*
G37*
X87279833Y-108458663D02*
X87282048Y-108496850D01*
X87283784Y-108554886D01*
X87284899Y-108628180D01*
X87285257Y-108705055D01*
X87285257Y-108965196D01*
X87239326Y-109011127D01*
X87207675Y-109039429D01*
X87179890Y-109050893D01*
X87141915Y-109050168D01*
X87126840Y-109048321D01*
X87079726Y-109042948D01*
X87040756Y-109039869D01*
X87031257Y-109039585D01*
X86999233Y-109041445D01*
X86953432Y-109046114D01*
X86935674Y-109048321D01*
X86892057Y-109051735D01*
X86862745Y-109044320D01*
X86833680Y-109021427D01*
X86823188Y-109011127D01*
X86777257Y-108965196D01*
X86777257Y-108478602D01*
X86814226Y-108461758D01*
X86846059Y-108449282D01*
X86864683Y-108444914D01*
X86869458Y-108458718D01*
X86873921Y-108497286D01*
X86877775Y-108556356D01*
X86880722Y-108631663D01*
X86882143Y-108695286D01*
X86886114Y-108945657D01*
X86920759Y-108950556D01*
X86952268Y-108947131D01*
X86967708Y-108936041D01*
X86972023Y-108915308D01*
X86975708Y-108871145D01*
X86978469Y-108809146D01*
X86980012Y-108734909D01*
X86980235Y-108696706D01*
X86980457Y-108476783D01*
X87026166Y-108460849D01*
X87058518Y-108450015D01*
X87076115Y-108444962D01*
X87076623Y-108444914D01*
X87078388Y-108458648D01*
X87080329Y-108496730D01*
X87082282Y-108554482D01*
X87084084Y-108627227D01*
X87085343Y-108695286D01*
X87089314Y-108945657D01*
X87176400Y-108945657D01*
X87180396Y-108717240D01*
X87184392Y-108488822D01*
X87226847Y-108466868D01*
X87258192Y-108451793D01*
X87276744Y-108444951D01*
X87277279Y-108444914D01*
X87279833Y-108458663D01*
G36*
X87279833Y-108458663D02*
G01*
X87282048Y-108496850D01*
X87283784Y-108554886D01*
X87284899Y-108628180D01*
X87285257Y-108705055D01*
X87285257Y-108965196D01*
X87239326Y-109011127D01*
X87207675Y-109039429D01*
X87179890Y-109050893D01*
X87141915Y-109050168D01*
X87126840Y-109048321D01*
X87079726Y-109042948D01*
X87040756Y-109039869D01*
X87031257Y-109039585D01*
X86999233Y-109041445D01*
X86953432Y-109046114D01*
X86935674Y-109048321D01*
X86892057Y-109051735D01*
X86862745Y-109044320D01*
X86833680Y-109021427D01*
X86823188Y-109011127D01*
X86777257Y-108965196D01*
X86777257Y-108478602D01*
X86814226Y-108461758D01*
X86846059Y-108449282D01*
X86864683Y-108444914D01*
X86869458Y-108458718D01*
X86873921Y-108497286D01*
X86877775Y-108556356D01*
X86880722Y-108631663D01*
X86882143Y-108695286D01*
X86886114Y-108945657D01*
X86920759Y-108950556D01*
X86952268Y-108947131D01*
X86967708Y-108936041D01*
X86972023Y-108915308D01*
X86975708Y-108871145D01*
X86978469Y-108809146D01*
X86980012Y-108734909D01*
X86980235Y-108696706D01*
X86980457Y-108476783D01*
X87026166Y-108460849D01*
X87058518Y-108450015D01*
X87076115Y-108444962D01*
X87076623Y-108444914D01*
X87078388Y-108458648D01*
X87080329Y-108496730D01*
X87082282Y-108554482D01*
X87084084Y-108627227D01*
X87085343Y-108695286D01*
X87089314Y-108945657D01*
X87176400Y-108945657D01*
X87180396Y-108717240D01*
X87184392Y-108488822D01*
X87226847Y-108466868D01*
X87258192Y-108451793D01*
X87276744Y-108444951D01*
X87277279Y-108444914D01*
X87279833Y-108458663D01*
G37*
X82541115Y-108421962D02*
X82609145Y-108457733D01*
X82659351Y-108515301D01*
X82677185Y-108552312D01*
X82691063Y-108607882D01*
X82698167Y-108678096D01*
X82698840Y-108754727D01*
X82693427Y-108829552D01*
X82682270Y-108894342D01*
X82665714Y-108940873D01*
X82660626Y-108948887D01*
X82600355Y-109008707D01*
X82528769Y-109044535D01*
X82451092Y-109055020D01*
X82372548Y-109038810D01*
X82350689Y-109029092D01*
X82308122Y-108999143D01*
X82270763Y-108959433D01*
X82267232Y-108954397D01*
X82252881Y-108930124D01*
X82243394Y-108904178D01*
X82237790Y-108870022D01*
X82235086Y-108821119D01*
X82234299Y-108750935D01*
X82234286Y-108735200D01*
X82234322Y-108730192D01*
X82379429Y-108730192D01*
X82380273Y-108796430D01*
X82383596Y-108840386D01*
X82390583Y-108868779D01*
X82402416Y-108888325D01*
X82408457Y-108894857D01*
X82443186Y-108919680D01*
X82476903Y-108918548D01*
X82510995Y-108897016D01*
X82531329Y-108874029D01*
X82543371Y-108840478D01*
X82550134Y-108787569D01*
X82550598Y-108781399D01*
X82551752Y-108685513D01*
X82539688Y-108614299D01*
X82514570Y-108568194D01*
X82476560Y-108547635D01*
X82462992Y-108546514D01*
X82427364Y-108552152D01*
X82402994Y-108571686D01*
X82388093Y-108609042D01*
X82380875Y-108668150D01*
X82379429Y-108730192D01*
X82234322Y-108730192D01*
X82234826Y-108660413D01*
X82237096Y-108608159D01*
X82242068Y-108571949D01*
X82250713Y-108545299D01*
X82264005Y-108521722D01*
X82266943Y-108517338D01*
X82316313Y-108458249D01*
X82370109Y-108423947D01*
X82435602Y-108410331D01*
X82457842Y-108409665D01*
X82541115Y-108421962D01*
G36*
X82541115Y-108421962D02*
G01*
X82609145Y-108457733D01*
X82659351Y-108515301D01*
X82677185Y-108552312D01*
X82691063Y-108607882D01*
X82698167Y-108678096D01*
X82698840Y-108754727D01*
X82693427Y-108829552D01*
X82682270Y-108894342D01*
X82665714Y-108940873D01*
X82660626Y-108948887D01*
X82600355Y-109008707D01*
X82528769Y-109044535D01*
X82451092Y-109055020D01*
X82372548Y-109038810D01*
X82350689Y-109029092D01*
X82308122Y-108999143D01*
X82270763Y-108959433D01*
X82267232Y-108954397D01*
X82252881Y-108930124D01*
X82243394Y-108904178D01*
X82237790Y-108870022D01*
X82235086Y-108821119D01*
X82234299Y-108750935D01*
X82234286Y-108735200D01*
X82234322Y-108730192D01*
X82379429Y-108730192D01*
X82380273Y-108796430D01*
X82383596Y-108840386D01*
X82390583Y-108868779D01*
X82402416Y-108888325D01*
X82408457Y-108894857D01*
X82443186Y-108919680D01*
X82476903Y-108918548D01*
X82510995Y-108897016D01*
X82531329Y-108874029D01*
X82543371Y-108840478D01*
X82550134Y-108787569D01*
X82550598Y-108781399D01*
X82551752Y-108685513D01*
X82539688Y-108614299D01*
X82514570Y-108568194D01*
X82476560Y-108547635D01*
X82462992Y-108546514D01*
X82427364Y-108552152D01*
X82402994Y-108571686D01*
X82388093Y-108609042D01*
X82380875Y-108668150D01*
X82379429Y-108730192D01*
X82234322Y-108730192D01*
X82234826Y-108660413D01*
X82237096Y-108608159D01*
X82242068Y-108571949D01*
X82250713Y-108545299D01*
X82264005Y-108521722D01*
X82266943Y-108517338D01*
X82316313Y-108458249D01*
X82370109Y-108423947D01*
X82435602Y-108410331D01*
X82457842Y-108409665D01*
X82541115Y-108421962D01*
G37*
X88653595Y-108466966D02*
X88711021Y-108504497D01*
X88738719Y-108538096D01*
X88760662Y-108599064D01*
X88762405Y-108647308D01*
X88758457Y-108711816D01*
X88609686Y-108776934D01*
X88537349Y-108810202D01*
X88490084Y-108836964D01*
X88465507Y-108860144D01*
X88461237Y-108882667D01*
X88474889Y-108907455D01*
X88489943Y-108923886D01*
X88533746Y-108950235D01*
X88581389Y-108952081D01*
X88625145Y-108931546D01*
X88657289Y-108890752D01*
X88663038Y-108876347D01*
X88690576Y-108831356D01*
X88722258Y-108812182D01*
X88765714Y-108795779D01*
X88765714Y-108857966D01*
X88761872Y-108900283D01*
X88746823Y-108935969D01*
X88715280Y-108976943D01*
X88710592Y-108982267D01*
X88675506Y-109018720D01*
X88645347Y-109038283D01*
X88607615Y-109047283D01*
X88576335Y-109050230D01*
X88520385Y-109050965D01*
X88480555Y-109041660D01*
X88455708Y-109027846D01*
X88416656Y-108997467D01*
X88389625Y-108964613D01*
X88372517Y-108923294D01*
X88363238Y-108867521D01*
X88359693Y-108791305D01*
X88359410Y-108752622D01*
X88360372Y-108706247D01*
X88448007Y-108706247D01*
X88449023Y-108731126D01*
X88451556Y-108735200D01*
X88468274Y-108729665D01*
X88504249Y-108715017D01*
X88552331Y-108694190D01*
X88562386Y-108689714D01*
X88623152Y-108658814D01*
X88656632Y-108631657D01*
X88663990Y-108606220D01*
X88646391Y-108580481D01*
X88631856Y-108569109D01*
X88579410Y-108546364D01*
X88530322Y-108550122D01*
X88489227Y-108577884D01*
X88460758Y-108627152D01*
X88451631Y-108666257D01*
X88448007Y-108706247D01*
X88360372Y-108706247D01*
X88361285Y-108662249D01*
X88368196Y-108595384D01*
X88381884Y-108546695D01*
X88404096Y-108510849D01*
X88436574Y-108482513D01*
X88450733Y-108473355D01*
X88515053Y-108449507D01*
X88585473Y-108448006D01*
X88653595Y-108466966D01*
G36*
X88653595Y-108466966D02*
G01*
X88711021Y-108504497D01*
X88738719Y-108538096D01*
X88760662Y-108599064D01*
X88762405Y-108647308D01*
X88758457Y-108711816D01*
X88609686Y-108776934D01*
X88537349Y-108810202D01*
X88490084Y-108836964D01*
X88465507Y-108860144D01*
X88461237Y-108882667D01*
X88474889Y-108907455D01*
X88489943Y-108923886D01*
X88533746Y-108950235D01*
X88581389Y-108952081D01*
X88625145Y-108931546D01*
X88657289Y-108890752D01*
X88663038Y-108876347D01*
X88690576Y-108831356D01*
X88722258Y-108812182D01*
X88765714Y-108795779D01*
X88765714Y-108857966D01*
X88761872Y-108900283D01*
X88746823Y-108935969D01*
X88715280Y-108976943D01*
X88710592Y-108982267D01*
X88675506Y-109018720D01*
X88645347Y-109038283D01*
X88607615Y-109047283D01*
X88576335Y-109050230D01*
X88520385Y-109050965D01*
X88480555Y-109041660D01*
X88455708Y-109027846D01*
X88416656Y-108997467D01*
X88389625Y-108964613D01*
X88372517Y-108923294D01*
X88363238Y-108867521D01*
X88359693Y-108791305D01*
X88359410Y-108752622D01*
X88360372Y-108706247D01*
X88448007Y-108706247D01*
X88449023Y-108731126D01*
X88451556Y-108735200D01*
X88468274Y-108729665D01*
X88504249Y-108715017D01*
X88552331Y-108694190D01*
X88562386Y-108689714D01*
X88623152Y-108658814D01*
X88656632Y-108631657D01*
X88663990Y-108606220D01*
X88646391Y-108580481D01*
X88631856Y-108569109D01*
X88579410Y-108546364D01*
X88530322Y-108550122D01*
X88489227Y-108577884D01*
X88460758Y-108627152D01*
X88451631Y-108666257D01*
X88448007Y-108706247D01*
X88360372Y-108706247D01*
X88361285Y-108662249D01*
X88368196Y-108595384D01*
X88381884Y-108546695D01*
X88404096Y-108510849D01*
X88436574Y-108482513D01*
X88450733Y-108473355D01*
X88515053Y-108449507D01*
X88585473Y-108448006D01*
X88653595Y-108466966D01*
G37*
X86690117Y-108565358D02*
X86689933Y-108673837D01*
X86689219Y-108757287D01*
X86687675Y-108819704D01*
X86685001Y-108865085D01*
X86680894Y-108897429D01*
X86675055Y-108920733D01*
X86667182Y-108938995D01*
X86661221Y-108949418D01*
X86611855Y-109005945D01*
X86549264Y-109041377D01*
X86480013Y-109054090D01*
X86410668Y-109042463D01*
X86369375Y-109021568D01*
X86326025Y-108985422D01*
X86296481Y-108941276D01*
X86278655Y-108883462D01*
X86270463Y-108806313D01*
X86269302Y-108749714D01*
X86269458Y-108745647D01*
X86370857Y-108745647D01*
X86371476Y-108810550D01*
X86374314Y-108853514D01*
X86380840Y-108881622D01*
X86392523Y-108901953D01*
X86406483Y-108917288D01*
X86453365Y-108946890D01*
X86503701Y-108949419D01*
X86551276Y-108924705D01*
X86554979Y-108921356D01*
X86570783Y-108903935D01*
X86580693Y-108883209D01*
X86586058Y-108852362D01*
X86588228Y-108804577D01*
X86588571Y-108751748D01*
X86587827Y-108685381D01*
X86584748Y-108641106D01*
X86578061Y-108612009D01*
X86566496Y-108591173D01*
X86557013Y-108580107D01*
X86512960Y-108552198D01*
X86462224Y-108548843D01*
X86413796Y-108570159D01*
X86404450Y-108578073D01*
X86388540Y-108595647D01*
X86378610Y-108616587D01*
X86373278Y-108647782D01*
X86371163Y-108696122D01*
X86370857Y-108745647D01*
X86269458Y-108745647D01*
X86272810Y-108658568D01*
X86284726Y-108590086D01*
X86307135Y-108538600D01*
X86342124Y-108498443D01*
X86369375Y-108477861D01*
X86418907Y-108455625D01*
X86476316Y-108445304D01*
X86529682Y-108448067D01*
X86559543Y-108459212D01*
X86571261Y-108462383D01*
X86579037Y-108450557D01*
X86584465Y-108418866D01*
X86588571Y-108370593D01*
X86593067Y-108316829D01*
X86599313Y-108284482D01*
X86610676Y-108265985D01*
X86630528Y-108253770D01*
X86643000Y-108248362D01*
X86690171Y-108228601D01*
X86690117Y-108565358D01*
G36*
X86690117Y-108565358D02*
G01*
X86689933Y-108673837D01*
X86689219Y-108757287D01*
X86687675Y-108819704D01*
X86685001Y-108865085D01*
X86680894Y-108897429D01*
X86675055Y-108920733D01*
X86667182Y-108938995D01*
X86661221Y-108949418D01*
X86611855Y-109005945D01*
X86549264Y-109041377D01*
X86480013Y-109054090D01*
X86410668Y-109042463D01*
X86369375Y-109021568D01*
X86326025Y-108985422D01*
X86296481Y-108941276D01*
X86278655Y-108883462D01*
X86270463Y-108806313D01*
X86269302Y-108749714D01*
X86269458Y-108745647D01*
X86370857Y-108745647D01*
X86371476Y-108810550D01*
X86374314Y-108853514D01*
X86380840Y-108881622D01*
X86392523Y-108901953D01*
X86406483Y-108917288D01*
X86453365Y-108946890D01*
X86503701Y-108949419D01*
X86551276Y-108924705D01*
X86554979Y-108921356D01*
X86570783Y-108903935D01*
X86580693Y-108883209D01*
X86586058Y-108852362D01*
X86588228Y-108804577D01*
X86588571Y-108751748D01*
X86587827Y-108685381D01*
X86584748Y-108641106D01*
X86578061Y-108612009D01*
X86566496Y-108591173D01*
X86557013Y-108580107D01*
X86512960Y-108552198D01*
X86462224Y-108548843D01*
X86413796Y-108570159D01*
X86404450Y-108578073D01*
X86388540Y-108595647D01*
X86378610Y-108616587D01*
X86373278Y-108647782D01*
X86371163Y-108696122D01*
X86370857Y-108745647D01*
X86269458Y-108745647D01*
X86272810Y-108658568D01*
X86284726Y-108590086D01*
X86307135Y-108538600D01*
X86342124Y-108498443D01*
X86369375Y-108477861D01*
X86418907Y-108455625D01*
X86476316Y-108445304D01*
X86529682Y-108448067D01*
X86559543Y-108459212D01*
X86571261Y-108462383D01*
X86579037Y-108450557D01*
X86584465Y-108418866D01*
X86588571Y-108370593D01*
X86593067Y-108316829D01*
X86599313Y-108284482D01*
X86610676Y-108265985D01*
X86630528Y-108253770D01*
X86643000Y-108248362D01*
X86690171Y-108228601D01*
X86690117Y-108565358D01*
G37*
X83668303Y-108431239D02*
X83725527Y-108469735D01*
X83769749Y-108525335D01*
X83796167Y-108596086D01*
X83801510Y-108648162D01*
X83800903Y-108669893D01*
X83795822Y-108686531D01*
X83781855Y-108701437D01*
X83754589Y-108717973D01*
X83709612Y-108739498D01*
X83642511Y-108769374D01*
X83642171Y-108769524D01*
X83580407Y-108797813D01*
X83529759Y-108822933D01*
X83495404Y-108842179D01*
X83482518Y-108852848D01*
X83482514Y-108852934D01*
X83493872Y-108876166D01*
X83520431Y-108901774D01*
X83550923Y-108920221D01*
X83566370Y-108923886D01*
X83608515Y-108911212D01*
X83644808Y-108879471D01*
X83662517Y-108844572D01*
X83679552Y-108818845D01*
X83712922Y-108789546D01*
X83752149Y-108764235D01*
X83786756Y-108750471D01*
X83793993Y-108749714D01*
X83802139Y-108762160D01*
X83802630Y-108793972D01*
X83796643Y-108836866D01*
X83785357Y-108882558D01*
X83769950Y-108922761D01*
X83769171Y-108924322D01*
X83722804Y-108989062D01*
X83662711Y-109033097D01*
X83594465Y-109054711D01*
X83523638Y-109052185D01*
X83455804Y-109023804D01*
X83452788Y-109021808D01*
X83399427Y-108973448D01*
X83364340Y-108910352D01*
X83344922Y-108827387D01*
X83342316Y-108804078D01*
X83337701Y-108694055D01*
X83343233Y-108642748D01*
X83482514Y-108642748D01*
X83484324Y-108674753D01*
X83494222Y-108684093D01*
X83518898Y-108677105D01*
X83557795Y-108660587D01*
X83601275Y-108639881D01*
X83602356Y-108639333D01*
X83639209Y-108619949D01*
X83654000Y-108607013D01*
X83650353Y-108593451D01*
X83634995Y-108575632D01*
X83595923Y-108549845D01*
X83553846Y-108547950D01*
X83516103Y-108566717D01*
X83490034Y-108602915D01*
X83482514Y-108642748D01*
X83343233Y-108642748D01*
X83347194Y-108606027D01*
X83371550Y-108536212D01*
X83405456Y-108487302D01*
X83466653Y-108437878D01*
X83534063Y-108413359D01*
X83602880Y-108411797D01*
X83668303Y-108431239D01*
G36*
X83668303Y-108431239D02*
G01*
X83725527Y-108469735D01*
X83769749Y-108525335D01*
X83796167Y-108596086D01*
X83801510Y-108648162D01*
X83800903Y-108669893D01*
X83795822Y-108686531D01*
X83781855Y-108701437D01*
X83754589Y-108717973D01*
X83709612Y-108739498D01*
X83642511Y-108769374D01*
X83642171Y-108769524D01*
X83580407Y-108797813D01*
X83529759Y-108822933D01*
X83495404Y-108842179D01*
X83482518Y-108852848D01*
X83482514Y-108852934D01*
X83493872Y-108876166D01*
X83520431Y-108901774D01*
X83550923Y-108920221D01*
X83566370Y-108923886D01*
X83608515Y-108911212D01*
X83644808Y-108879471D01*
X83662517Y-108844572D01*
X83679552Y-108818845D01*
X83712922Y-108789546D01*
X83752149Y-108764235D01*
X83786756Y-108750471D01*
X83793993Y-108749714D01*
X83802139Y-108762160D01*
X83802630Y-108793972D01*
X83796643Y-108836866D01*
X83785357Y-108882558D01*
X83769950Y-108922761D01*
X83769171Y-108924322D01*
X83722804Y-108989062D01*
X83662711Y-109033097D01*
X83594465Y-109054711D01*
X83523638Y-109052185D01*
X83455804Y-109023804D01*
X83452788Y-109021808D01*
X83399427Y-108973448D01*
X83364340Y-108910352D01*
X83344922Y-108827387D01*
X83342316Y-108804078D01*
X83337701Y-108694055D01*
X83343233Y-108642748D01*
X83482514Y-108642748D01*
X83484324Y-108674753D01*
X83494222Y-108684093D01*
X83518898Y-108677105D01*
X83557795Y-108660587D01*
X83601275Y-108639881D01*
X83602356Y-108639333D01*
X83639209Y-108619949D01*
X83654000Y-108607013D01*
X83650353Y-108593451D01*
X83634995Y-108575632D01*
X83595923Y-108549845D01*
X83553846Y-108547950D01*
X83516103Y-108566717D01*
X83490034Y-108602915D01*
X83482514Y-108642748D01*
X83343233Y-108642748D01*
X83347194Y-108606027D01*
X83371550Y-108536212D01*
X83405456Y-108487302D01*
X83466653Y-108437878D01*
X83534063Y-108413359D01*
X83602880Y-108411797D01*
X83668303Y-108431239D01*
G37*
X85539744Y-108450968D02*
X85596616Y-108472087D01*
X85597267Y-108472493D01*
X85632440Y-108498380D01*
X85658407Y-108528633D01*
X85676670Y-108568058D01*
X85688732Y-108621462D01*
X85696096Y-108693651D01*
X85700264Y-108789432D01*
X85700629Y-108803078D01*
X85705876Y-109008842D01*
X85661716Y-109031678D01*
X85629763Y-109047110D01*
X85610470Y-109054423D01*
X85609578Y-109054514D01*
X85606239Y-109041022D01*
X85603587Y-109004626D01*
X85601956Y-108951452D01*
X85601600Y-108908393D01*
X85601592Y-108838641D01*
X85598403Y-108794837D01*
X85587288Y-108773944D01*
X85563501Y-108772925D01*
X85522296Y-108788741D01*
X85460086Y-108817815D01*
X85414341Y-108841963D01*
X85390813Y-108862913D01*
X85383896Y-108885747D01*
X85383886Y-108886877D01*
X85395299Y-108926212D01*
X85429092Y-108947462D01*
X85480809Y-108950539D01*
X85518061Y-108950006D01*
X85537703Y-108960735D01*
X85549952Y-108986505D01*
X85557002Y-109019337D01*
X85546842Y-109037966D01*
X85543017Y-109040632D01*
X85507001Y-109051340D01*
X85456566Y-109052856D01*
X85404626Y-109045759D01*
X85367822Y-109032788D01*
X85316938Y-108989585D01*
X85288014Y-108929446D01*
X85282286Y-108882462D01*
X85286657Y-108840082D01*
X85302475Y-108805488D01*
X85333797Y-108774763D01*
X85384678Y-108743990D01*
X85459176Y-108709252D01*
X85463714Y-108707288D01*
X85530821Y-108676287D01*
X85572232Y-108650862D01*
X85589981Y-108628014D01*
X85586107Y-108604745D01*
X85562643Y-108578056D01*
X85555627Y-108571914D01*
X85508630Y-108548100D01*
X85459933Y-108549103D01*
X85417522Y-108572451D01*
X85389384Y-108615675D01*
X85386769Y-108624160D01*
X85361308Y-108665308D01*
X85329001Y-108685128D01*
X85282286Y-108704770D01*
X85282286Y-108653950D01*
X85296496Y-108580082D01*
X85338675Y-108512327D01*
X85360624Y-108489661D01*
X85410517Y-108460569D01*
X85473967Y-108447400D01*
X85539744Y-108450968D01*
G36*
X85539744Y-108450968D02*
G01*
X85596616Y-108472087D01*
X85597267Y-108472493D01*
X85632440Y-108498380D01*
X85658407Y-108528633D01*
X85676670Y-108568058D01*
X85688732Y-108621462D01*
X85696096Y-108693651D01*
X85700264Y-108789432D01*
X85700629Y-108803078D01*
X85705876Y-109008842D01*
X85661716Y-109031678D01*
X85629763Y-109047110D01*
X85610470Y-109054423D01*
X85609578Y-109054514D01*
X85606239Y-109041022D01*
X85603587Y-109004626D01*
X85601956Y-108951452D01*
X85601600Y-108908393D01*
X85601592Y-108838641D01*
X85598403Y-108794837D01*
X85587288Y-108773944D01*
X85563501Y-108772925D01*
X85522296Y-108788741D01*
X85460086Y-108817815D01*
X85414341Y-108841963D01*
X85390813Y-108862913D01*
X85383896Y-108885747D01*
X85383886Y-108886877D01*
X85395299Y-108926212D01*
X85429092Y-108947462D01*
X85480809Y-108950539D01*
X85518061Y-108950006D01*
X85537703Y-108960735D01*
X85549952Y-108986505D01*
X85557002Y-109019337D01*
X85546842Y-109037966D01*
X85543017Y-109040632D01*
X85507001Y-109051340D01*
X85456566Y-109052856D01*
X85404626Y-109045759D01*
X85367822Y-109032788D01*
X85316938Y-108989585D01*
X85288014Y-108929446D01*
X85282286Y-108882462D01*
X85286657Y-108840082D01*
X85302475Y-108805488D01*
X85333797Y-108774763D01*
X85384678Y-108743990D01*
X85459176Y-108709252D01*
X85463714Y-108707288D01*
X85530821Y-108676287D01*
X85572232Y-108650862D01*
X85589981Y-108628014D01*
X85586107Y-108604745D01*
X85562643Y-108578056D01*
X85555627Y-108571914D01*
X85508630Y-108548100D01*
X85459933Y-108549103D01*
X85417522Y-108572451D01*
X85389384Y-108615675D01*
X85386769Y-108624160D01*
X85361308Y-108665308D01*
X85329001Y-108685128D01*
X85282286Y-108704770D01*
X85282286Y-108653950D01*
X85296496Y-108580082D01*
X85338675Y-108512327D01*
X85360624Y-108489661D01*
X85410517Y-108460569D01*
X85473967Y-108447400D01*
X85539744Y-108450968D01*
G37*
X83099744Y-108419918D02*
X83155201Y-108447568D01*
X83204148Y-108498480D01*
X83217629Y-108517338D01*
X83232314Y-108542015D01*
X83241842Y-108568816D01*
X83247293Y-108604587D01*
X83249747Y-108656169D01*
X83250286Y-108724267D01*
X83247852Y-108817588D01*
X83239394Y-108887657D01*
X83223174Y-108939931D01*
X83197454Y-108979869D01*
X83160497Y-109012929D01*
X83157782Y-109014886D01*
X83121360Y-109034908D01*
X83077502Y-109044815D01*
X83021724Y-109047257D01*
X82931048Y-109047257D01*
X82931010Y-109135283D01*
X82930166Y-109184308D01*
X82925024Y-109213065D01*
X82911587Y-109230311D01*
X82885858Y-109244808D01*
X82879679Y-109247769D01*
X82850764Y-109261648D01*
X82828376Y-109270414D01*
X82811729Y-109271171D01*
X82800036Y-109261023D01*
X82792510Y-109237073D01*
X82788366Y-109196426D01*
X82786815Y-109136186D01*
X82787071Y-109053455D01*
X82788349Y-108945339D01*
X82788748Y-108913000D01*
X82790185Y-108801524D01*
X82791472Y-108728603D01*
X82930971Y-108728603D01*
X82931755Y-108790499D01*
X82935240Y-108830997D01*
X82943124Y-108857708D01*
X82957105Y-108878244D01*
X82966597Y-108888260D01*
X83005404Y-108917567D01*
X83039763Y-108919952D01*
X83075216Y-108895750D01*
X83076114Y-108894857D01*
X83090539Y-108876153D01*
X83099313Y-108850732D01*
X83103739Y-108811584D01*
X83105118Y-108751697D01*
X83105143Y-108738430D01*
X83101812Y-108655901D01*
X83090969Y-108598691D01*
X83071340Y-108563766D01*
X83041650Y-108548094D01*
X83024491Y-108546514D01*
X82983766Y-108553926D01*
X82955832Y-108578330D01*
X82939017Y-108622980D01*
X82931650Y-108691130D01*
X82930971Y-108728603D01*
X82791472Y-108728603D01*
X82791708Y-108715245D01*
X82793677Y-108650333D01*
X82796450Y-108602958D01*
X82800388Y-108569290D01*
X82805849Y-108545498D01*
X82813192Y-108527753D01*
X82822777Y-108512224D01*
X82826887Y-108506381D01*
X82881405Y-108451185D01*
X82950336Y-108419890D01*
X83030072Y-108411165D01*
X83099744Y-108419918D01*
G36*
X83099744Y-108419918D02*
G01*
X83155201Y-108447568D01*
X83204148Y-108498480D01*
X83217629Y-108517338D01*
X83232314Y-108542015D01*
X83241842Y-108568816D01*
X83247293Y-108604587D01*
X83249747Y-108656169D01*
X83250286Y-108724267D01*
X83247852Y-108817588D01*
X83239394Y-108887657D01*
X83223174Y-108939931D01*
X83197454Y-108979869D01*
X83160497Y-109012929D01*
X83157782Y-109014886D01*
X83121360Y-109034908D01*
X83077502Y-109044815D01*
X83021724Y-109047257D01*
X82931048Y-109047257D01*
X82931010Y-109135283D01*
X82930166Y-109184308D01*
X82925024Y-109213065D01*
X82911587Y-109230311D01*
X82885858Y-109244808D01*
X82879679Y-109247769D01*
X82850764Y-109261648D01*
X82828376Y-109270414D01*
X82811729Y-109271171D01*
X82800036Y-109261023D01*
X82792510Y-109237073D01*
X82788366Y-109196426D01*
X82786815Y-109136186D01*
X82787071Y-109053455D01*
X82788349Y-108945339D01*
X82788748Y-108913000D01*
X82790185Y-108801524D01*
X82791472Y-108728603D01*
X82930971Y-108728603D01*
X82931755Y-108790499D01*
X82935240Y-108830997D01*
X82943124Y-108857708D01*
X82957105Y-108878244D01*
X82966597Y-108888260D01*
X83005404Y-108917567D01*
X83039763Y-108919952D01*
X83075216Y-108895750D01*
X83076114Y-108894857D01*
X83090539Y-108876153D01*
X83099313Y-108850732D01*
X83103739Y-108811584D01*
X83105118Y-108751697D01*
X83105143Y-108738430D01*
X83101812Y-108655901D01*
X83090969Y-108598691D01*
X83071340Y-108563766D01*
X83041650Y-108548094D01*
X83024491Y-108546514D01*
X82983766Y-108553926D01*
X82955832Y-108578330D01*
X82939017Y-108622980D01*
X82931650Y-108691130D01*
X82930971Y-108728603D01*
X82791472Y-108728603D01*
X82791708Y-108715245D01*
X82793677Y-108650333D01*
X82796450Y-108602958D01*
X82800388Y-108569290D01*
X82805849Y-108545498D01*
X82813192Y-108527753D01*
X82822777Y-108512224D01*
X82826887Y-108506381D01*
X82881405Y-108451185D01*
X82950336Y-108419890D01*
X83030072Y-108411165D01*
X83099744Y-108419918D01*
G37*
X87644876Y-108456335D02*
X87686667Y-108475344D01*
X87719469Y-108498378D01*
X87743503Y-108524133D01*
X87760097Y-108557358D01*
X87770577Y-108602800D01*
X87776271Y-108665207D01*
X87778507Y-108749327D01*
X87778743Y-108804721D01*
X87778743Y-109020826D01*
X87741774Y-109037670D01*
X87712656Y-109049981D01*
X87698231Y-109054514D01*
X87695472Y-109041025D01*
X87693282Y-109004653D01*
X87691942Y-108951542D01*
X87691657Y-108909372D01*
X87690434Y-108848447D01*
X87687136Y-108800115D01*
X87682321Y-108770518D01*
X87678496Y-108764229D01*
X87652783Y-108770652D01*
X87612418Y-108787125D01*
X87565679Y-108809458D01*
X87520845Y-108833457D01*
X87486193Y-108854930D01*
X87470002Y-108869685D01*
X87469938Y-108869845D01*
X87471330Y-108897152D01*
X87483818Y-108923219D01*
X87505743Y-108944392D01*
X87537743Y-108951474D01*
X87565092Y-108950649D01*
X87603826Y-108950042D01*
X87624158Y-108959116D01*
X87636369Y-108983092D01*
X87637909Y-108987613D01*
X87643203Y-109021806D01*
X87629047Y-109042568D01*
X87592148Y-109052462D01*
X87552289Y-109054292D01*
X87480562Y-109040727D01*
X87443432Y-109021355D01*
X87397576Y-108975845D01*
X87373256Y-108919983D01*
X87371073Y-108860957D01*
X87391629Y-108805953D01*
X87422549Y-108771486D01*
X87453420Y-108752189D01*
X87501942Y-108727759D01*
X87558485Y-108702985D01*
X87567910Y-108699199D01*
X87630019Y-108671791D01*
X87665822Y-108647634D01*
X87677337Y-108623619D01*
X87666580Y-108596635D01*
X87648114Y-108575543D01*
X87604469Y-108549572D01*
X87556446Y-108547624D01*
X87512406Y-108567637D01*
X87480709Y-108607551D01*
X87476549Y-108617848D01*
X87452327Y-108655724D01*
X87416965Y-108683842D01*
X87372343Y-108706917D01*
X87372343Y-108641485D01*
X87374969Y-108601506D01*
X87386230Y-108569997D01*
X87411199Y-108536378D01*
X87435169Y-108510484D01*
X87472441Y-108473817D01*
X87501401Y-108454121D01*
X87532505Y-108446220D01*
X87567713Y-108444914D01*
X87644876Y-108456335D01*
G36*
X87644876Y-108456335D02*
G01*
X87686667Y-108475344D01*
X87719469Y-108498378D01*
X87743503Y-108524133D01*
X87760097Y-108557358D01*
X87770577Y-108602800D01*
X87776271Y-108665207D01*
X87778507Y-108749327D01*
X87778743Y-108804721D01*
X87778743Y-109020826D01*
X87741774Y-109037670D01*
X87712656Y-109049981D01*
X87698231Y-109054514D01*
X87695472Y-109041025D01*
X87693282Y-109004653D01*
X87691942Y-108951542D01*
X87691657Y-108909372D01*
X87690434Y-108848447D01*
X87687136Y-108800115D01*
X87682321Y-108770518D01*
X87678496Y-108764229D01*
X87652783Y-108770652D01*
X87612418Y-108787125D01*
X87565679Y-108809458D01*
X87520845Y-108833457D01*
X87486193Y-108854930D01*
X87470002Y-108869685D01*
X87469938Y-108869845D01*
X87471330Y-108897152D01*
X87483818Y-108923219D01*
X87505743Y-108944392D01*
X87537743Y-108951474D01*
X87565092Y-108950649D01*
X87603826Y-108950042D01*
X87624158Y-108959116D01*
X87636369Y-108983092D01*
X87637909Y-108987613D01*
X87643203Y-109021806D01*
X87629047Y-109042568D01*
X87592148Y-109052462D01*
X87552289Y-109054292D01*
X87480562Y-109040727D01*
X87443432Y-109021355D01*
X87397576Y-108975845D01*
X87373256Y-108919983D01*
X87371073Y-108860957D01*
X87391629Y-108805953D01*
X87422549Y-108771486D01*
X87453420Y-108752189D01*
X87501942Y-108727759D01*
X87558485Y-108702985D01*
X87567910Y-108699199D01*
X87630019Y-108671791D01*
X87665822Y-108647634D01*
X87677337Y-108623619D01*
X87666580Y-108596635D01*
X87648114Y-108575543D01*
X87604469Y-108549572D01*
X87556446Y-108547624D01*
X87512406Y-108567637D01*
X87480709Y-108607551D01*
X87476549Y-108617848D01*
X87452327Y-108655724D01*
X87416965Y-108683842D01*
X87372343Y-108706917D01*
X87372343Y-108641485D01*
X87374969Y-108601506D01*
X87386230Y-108569997D01*
X87411199Y-108536378D01*
X87435169Y-108510484D01*
X87472441Y-108473817D01*
X87501401Y-108454121D01*
X87532505Y-108446220D01*
X87567713Y-108444914D01*
X87644876Y-108456335D01*
G37*
X85603910Y-103742348D02*
X85682454Y-103742778D01*
X85739298Y-103743942D01*
X85778105Y-103746207D01*
X85802538Y-103749940D01*
X85816262Y-103755506D01*
X85822940Y-103763273D01*
X85826236Y-103773605D01*
X85826556Y-103774943D01*
X85831562Y-103799079D01*
X85840829Y-103846701D01*
X85853392Y-103912741D01*
X85868287Y-103992128D01*
X85884551Y-104079796D01*
X85885119Y-104082875D01*
X85901410Y-104168789D01*
X85916652Y-104244696D01*
X85929861Y-104306045D01*
X85940054Y-104348282D01*
X85946248Y-104366855D01*
X85946543Y-104367184D01*
X85964788Y-104376253D01*
X86002405Y-104391367D01*
X86051271Y-104409262D01*
X86051543Y-104409358D01*
X86113093Y-104432493D01*
X86185657Y-104461965D01*
X86254057Y-104491597D01*
X86257294Y-104493062D01*
X86368702Y-104543626D01*
X86615399Y-104375160D01*
X86691077Y-104323803D01*
X86759631Y-104277889D01*
X86817088Y-104240030D01*
X86859476Y-104212837D01*
X86882825Y-104198921D01*
X86885042Y-104197889D01*
X86902010Y-104202484D01*
X86933701Y-104224655D01*
X86981352Y-104265447D01*
X87046198Y-104325905D01*
X87112397Y-104390227D01*
X87176214Y-104453612D01*
X87233329Y-104511451D01*
X87280305Y-104560175D01*
X87313703Y-104596210D01*
X87330085Y-104615984D01*
X87330694Y-104617002D01*
X87332505Y-104630572D01*
X87325683Y-104652733D01*
X87308540Y-104686478D01*
X87279393Y-104734800D01*
X87236555Y-104800692D01*
X87179448Y-104885517D01*
X87128766Y-104960177D01*
X87083461Y-105027140D01*
X87046150Y-105082516D01*
X87019452Y-105122420D01*
X87005985Y-105142962D01*
X87005137Y-105144356D01*
X87006781Y-105164038D01*
X87019245Y-105202293D01*
X87040048Y-105251889D01*
X87047462Y-105267728D01*
X87079814Y-105338290D01*
X87114328Y-105418353D01*
X87142365Y-105487629D01*
X87162568Y-105539045D01*
X87178615Y-105578119D01*
X87187888Y-105598541D01*
X87189041Y-105600114D01*
X87206096Y-105602721D01*
X87246298Y-105609863D01*
X87304302Y-105620523D01*
X87374763Y-105633685D01*
X87452335Y-105648333D01*
X87531672Y-105663449D01*
X87607431Y-105678018D01*
X87674264Y-105691022D01*
X87726828Y-105701445D01*
X87759776Y-105708270D01*
X87767857Y-105710199D01*
X87776205Y-105714962D01*
X87782506Y-105725718D01*
X87787045Y-105746098D01*
X87790104Y-105779734D01*
X87791967Y-105830255D01*
X87792918Y-105901292D01*
X87793240Y-105996476D01*
X87793257Y-106035492D01*
X87793257Y-106352799D01*
X87717057Y-106367839D01*
X87674663Y-106375995D01*
X87611400Y-106387899D01*
X87534962Y-106402116D01*
X87453043Y-106417210D01*
X87430400Y-106421355D01*
X87354806Y-106436053D01*
X87288953Y-106450505D01*
X87238366Y-106463375D01*
X87208574Y-106473322D01*
X87203612Y-106476287D01*
X87191426Y-106497283D01*
X87173953Y-106537967D01*
X87154577Y-106590322D01*
X87150734Y-106601600D01*
X87125339Y-106671523D01*
X87093817Y-106750418D01*
X87062969Y-106821266D01*
X87062817Y-106821595D01*
X87011447Y-106932733D01*
X87180399Y-107181253D01*
X87349352Y-107429772D01*
X87132429Y-107647058D01*
X87066819Y-107711726D01*
X87006979Y-107768733D01*
X86956267Y-107815033D01*
X86918046Y-107847584D01*
X86895675Y-107863343D01*
X86892466Y-107864343D01*
X86873626Y-107856469D01*
X86835180Y-107834578D01*
X86781330Y-107801267D01*
X86716276Y-107759131D01*
X86645940Y-107711943D01*
X86574555Y-107663810D01*
X86510908Y-107621928D01*
X86459041Y-107588871D01*
X86422995Y-107567218D01*
X86406867Y-107559543D01*
X86387189Y-107566037D01*
X86349875Y-107583150D01*
X86302621Y-107607326D01*
X86297612Y-107610013D01*
X86233977Y-107641927D01*
X86190341Y-107657579D01*
X86163202Y-107657745D01*
X86149057Y-107643204D01*
X86148975Y-107643000D01*
X86141905Y-107625779D01*
X86125042Y-107584899D01*
X86099695Y-107523525D01*
X86067171Y-107444819D01*
X86028778Y-107351947D01*
X85985822Y-107248072D01*
X85944222Y-107147502D01*
X85898504Y-107036516D01*
X85856526Y-106933703D01*
X85819548Y-106842215D01*
X85788827Y-106765201D01*
X85765622Y-106705815D01*
X85751190Y-106667209D01*
X85746743Y-106652800D01*
X85757896Y-106636272D01*
X85787069Y-106609930D01*
X85825971Y-106580887D01*
X85936757Y-106489039D01*
X86023351Y-106383759D01*
X86084716Y-106267266D01*
X86119815Y-106141776D01*
X86127608Y-106009507D01*
X86121943Y-105948457D01*
X86091078Y-105821795D01*
X86037920Y-105709941D01*
X85965767Y-105614001D01*
X85877917Y-105535076D01*
X85777665Y-105474270D01*
X85668310Y-105432687D01*
X85553147Y-105411428D01*
X85435475Y-105411599D01*
X85318590Y-105434301D01*
X85205789Y-105480638D01*
X85100369Y-105551713D01*
X85056368Y-105591911D01*
X84971979Y-105695129D01*
X84913222Y-105807925D01*
X84879704Y-105927010D01*
X84871035Y-106049095D01*
X84886823Y-106170893D01*
X84926678Y-106289116D01*
X84990207Y-106400475D01*
X85077021Y-106501684D01*
X85174029Y-106580887D01*
X85214437Y-106611162D01*
X85242982Y-106637219D01*
X85253257Y-106652825D01*
X85247877Y-106669843D01*
X85232575Y-106710500D01*
X85208612Y-106771642D01*
X85177244Y-106850119D01*
X85139732Y-106942780D01*
X85097333Y-107046472D01*
X85055663Y-107147526D01*
X85009690Y-107258607D01*
X84967107Y-107361541D01*
X84929221Y-107453165D01*
X84897340Y-107530316D01*
X84872771Y-107589831D01*
X84856820Y-107628544D01*
X84850910Y-107643000D01*
X84836948Y-107657685D01*
X84809940Y-107657642D01*
X84766413Y-107642099D01*
X84702890Y-107610284D01*
X84702388Y-107610013D01*
X84654560Y-107585323D01*
X84615897Y-107567338D01*
X84594095Y-107559614D01*
X84593133Y-107559543D01*
X84576721Y-107567378D01*
X84540487Y-107589165D01*
X84488474Y-107622328D01*
X84424725Y-107664291D01*
X84354060Y-107711943D01*
X84282116Y-107760191D01*
X84217274Y-107802151D01*
X84163735Y-107835227D01*
X84125697Y-107856821D01*
X84107533Y-107864343D01*
X84090808Y-107854457D01*
X84057180Y-107826826D01*
X84010010Y-107784495D01*
X83952658Y-107730505D01*
X83888484Y-107667899D01*
X83867497Y-107646983D01*
X83650499Y-107429623D01*
X83815668Y-107187220D01*
X83865864Y-107112781D01*
X83909919Y-107045972D01*
X83945362Y-106990665D01*
X83969719Y-106950729D01*
X83980522Y-106930036D01*
X83980838Y-106928563D01*
X83975143Y-106909058D01*
X83959826Y-106869822D01*
X83937537Y-106817430D01*
X83921893Y-106782355D01*
X83892641Y-106715201D01*
X83865094Y-106647358D01*
X83843737Y-106590034D01*
X83837935Y-106572572D01*
X83821452Y-106525938D01*
X83805340Y-106489905D01*
X83796490Y-106476287D01*
X83776960Y-106467952D01*
X83734334Y-106456137D01*
X83674145Y-106442181D01*
X83601922Y-106427422D01*
X83569600Y-106421355D01*
X83487522Y-106406273D01*
X83408795Y-106391669D01*
X83341109Y-106378980D01*
X83292160Y-106369642D01*
X83282943Y-106367839D01*
X83206743Y-106352799D01*
X83206743Y-106035492D01*
X83206914Y-105931154D01*
X83207616Y-105852213D01*
X83209134Y-105795038D01*
X83211749Y-105755999D01*
X83215746Y-105731465D01*
X83221409Y-105717805D01*
X83229020Y-105711389D01*
X83232143Y-105710199D01*
X83250978Y-105705980D01*
X83292588Y-105697562D01*
X83351630Y-105685961D01*
X83422757Y-105672195D01*
X83500625Y-105657280D01*
X83579887Y-105642232D01*
X83655198Y-105628069D01*
X83721213Y-105615806D01*
X83772587Y-105606461D01*
X83803975Y-105601050D01*
X83810959Y-105600114D01*
X83817285Y-105587596D01*
X83831290Y-105554246D01*
X83850355Y-105506377D01*
X83857634Y-105487629D01*
X83886996Y-105415195D01*
X83921571Y-105335170D01*
X83952537Y-105267728D01*
X83975323Y-105216159D01*
X83990482Y-105173785D01*
X83995542Y-105147834D01*
X83994736Y-105144356D01*
X83984041Y-105127936D01*
X83959620Y-105091417D01*
X83924095Y-105038687D01*
X83880087Y-104973635D01*
X83830217Y-104900151D01*
X83820356Y-104885645D01*
X83762492Y-104799704D01*
X83719956Y-104734261D01*
X83691054Y-104686304D01*
X83674090Y-104652820D01*
X83667367Y-104630795D01*
X83669190Y-104617217D01*
X83669236Y-104617131D01*
X83683586Y-104599297D01*
X83715323Y-104564817D01*
X83761010Y-104517268D01*
X83817204Y-104460222D01*
X83880468Y-104397255D01*
X83887602Y-104390227D01*
X83967330Y-104313020D01*
X84028857Y-104256330D01*
X84073421Y-104219110D01*
X84102257Y-104200315D01*
X84114958Y-104197889D01*
X84133494Y-104208471D01*
X84171961Y-104232916D01*
X84226386Y-104268612D01*
X84292798Y-104312947D01*
X84367225Y-104363311D01*
X84384601Y-104375160D01*
X84631297Y-104543626D01*
X84742706Y-104493062D01*
X84810457Y-104463595D01*
X84883183Y-104433959D01*
X84945703Y-104410330D01*
X84948457Y-104409358D01*
X84997360Y-104391457D01*
X85035057Y-104376320D01*
X85053425Y-104367210D01*
X85053456Y-104367184D01*
X85059285Y-104350717D01*
X85069192Y-104310219D01*
X85082195Y-104250242D01*
X85097309Y-104175340D01*
X85113552Y-104090064D01*
X85114881Y-104082875D01*
X85131175Y-103995014D01*
X85146133Y-103915260D01*
X85158791Y-103848681D01*
X85168186Y-103800347D01*
X85173354Y-103775325D01*
X85173444Y-103774943D01*
X85176589Y-103764299D01*
X85182704Y-103756262D01*
X85195453Y-103750467D01*
X85218500Y-103746547D01*
X85255509Y-103744135D01*
X85310144Y-103742865D01*
X85386067Y-103742371D01*
X85486944Y-103742286D01*
X85500000Y-103742286D01*
X85603910Y-103742348D01*
G36*
X85603910Y-103742348D02*
G01*
X85682454Y-103742778D01*
X85739298Y-103743942D01*
X85778105Y-103746207D01*
X85802538Y-103749940D01*
X85816262Y-103755506D01*
X85822940Y-103763273D01*
X85826236Y-103773605D01*
X85826556Y-103774943D01*
X85831562Y-103799079D01*
X85840829Y-103846701D01*
X85853392Y-103912741D01*
X85868287Y-103992128D01*
X85884551Y-104079796D01*
X85885119Y-104082875D01*
X85901410Y-104168789D01*
X85916652Y-104244696D01*
X85929861Y-104306045D01*
X85940054Y-104348282D01*
X85946248Y-104366855D01*
X85946543Y-104367184D01*
X85964788Y-104376253D01*
X86002405Y-104391367D01*
X86051271Y-104409262D01*
X86051543Y-104409358D01*
X86113093Y-104432493D01*
X86185657Y-104461965D01*
X86254057Y-104491597D01*
X86257294Y-104493062D01*
X86368702Y-104543626D01*
X86615399Y-104375160D01*
X86691077Y-104323803D01*
X86759631Y-104277889D01*
X86817088Y-104240030D01*
X86859476Y-104212837D01*
X86882825Y-104198921D01*
X86885042Y-104197889D01*
X86902010Y-104202484D01*
X86933701Y-104224655D01*
X86981352Y-104265447D01*
X87046198Y-104325905D01*
X87112397Y-104390227D01*
X87176214Y-104453612D01*
X87233329Y-104511451D01*
X87280305Y-104560175D01*
X87313703Y-104596210D01*
X87330085Y-104615984D01*
X87330694Y-104617002D01*
X87332505Y-104630572D01*
X87325683Y-104652733D01*
X87308540Y-104686478D01*
X87279393Y-104734800D01*
X87236555Y-104800692D01*
X87179448Y-104885517D01*
X87128766Y-104960177D01*
X87083461Y-105027140D01*
X87046150Y-105082516D01*
X87019452Y-105122420D01*
X87005985Y-105142962D01*
X87005137Y-105144356D01*
X87006781Y-105164038D01*
X87019245Y-105202293D01*
X87040048Y-105251889D01*
X87047462Y-105267728D01*
X87079814Y-105338290D01*
X87114328Y-105418353D01*
X87142365Y-105487629D01*
X87162568Y-105539045D01*
X87178615Y-105578119D01*
X87187888Y-105598541D01*
X87189041Y-105600114D01*
X87206096Y-105602721D01*
X87246298Y-105609863D01*
X87304302Y-105620523D01*
X87374763Y-105633685D01*
X87452335Y-105648333D01*
X87531672Y-105663449D01*
X87607431Y-105678018D01*
X87674264Y-105691022D01*
X87726828Y-105701445D01*
X87759776Y-105708270D01*
X87767857Y-105710199D01*
X87776205Y-105714962D01*
X87782506Y-105725718D01*
X87787045Y-105746098D01*
X87790104Y-105779734D01*
X87791967Y-105830255D01*
X87792918Y-105901292D01*
X87793240Y-105996476D01*
X87793257Y-106035492D01*
X87793257Y-106352799D01*
X87717057Y-106367839D01*
X87674663Y-106375995D01*
X87611400Y-106387899D01*
X87534962Y-106402116D01*
X87453043Y-106417210D01*
X87430400Y-106421355D01*
X87354806Y-106436053D01*
X87288953Y-106450505D01*
X87238366Y-106463375D01*
X87208574Y-106473322D01*
X87203612Y-106476287D01*
X87191426Y-106497283D01*
X87173953Y-106537967D01*
X87154577Y-106590322D01*
X87150734Y-106601600D01*
X87125339Y-106671523D01*
X87093817Y-106750418D01*
X87062969Y-106821266D01*
X87062817Y-106821595D01*
X87011447Y-106932733D01*
X87180399Y-107181253D01*
X87349352Y-107429772D01*
X87132429Y-107647058D01*
X87066819Y-107711726D01*
X87006979Y-107768733D01*
X86956267Y-107815033D01*
X86918046Y-107847584D01*
X86895675Y-107863343D01*
X86892466Y-107864343D01*
X86873626Y-107856469D01*
X86835180Y-107834578D01*
X86781330Y-107801267D01*
X86716276Y-107759131D01*
X86645940Y-107711943D01*
X86574555Y-107663810D01*
X86510908Y-107621928D01*
X86459041Y-107588871D01*
X86422995Y-107567218D01*
X86406867Y-107559543D01*
X86387189Y-107566037D01*
X86349875Y-107583150D01*
X86302621Y-107607326D01*
X86297612Y-107610013D01*
X86233977Y-107641927D01*
X86190341Y-107657579D01*
X86163202Y-107657745D01*
X86149057Y-107643204D01*
X86148975Y-107643000D01*
X86141905Y-107625779D01*
X86125042Y-107584899D01*
X86099695Y-107523525D01*
X86067171Y-107444819D01*
X86028778Y-107351947D01*
X85985822Y-107248072D01*
X85944222Y-107147502D01*
X85898504Y-107036516D01*
X85856526Y-106933703D01*
X85819548Y-106842215D01*
X85788827Y-106765201D01*
X85765622Y-106705815D01*
X85751190Y-106667209D01*
X85746743Y-106652800D01*
X85757896Y-106636272D01*
X85787069Y-106609930D01*
X85825971Y-106580887D01*
X85936757Y-106489039D01*
X86023351Y-106383759D01*
X86084716Y-106267266D01*
X86119815Y-106141776D01*
X86127608Y-106009507D01*
X86121943Y-105948457D01*
X86091078Y-105821795D01*
X86037920Y-105709941D01*
X85965767Y-105614001D01*
X85877917Y-105535076D01*
X85777665Y-105474270D01*
X85668310Y-105432687D01*
X85553147Y-105411428D01*
X85435475Y-105411599D01*
X85318590Y-105434301D01*
X85205789Y-105480638D01*
X85100369Y-105551713D01*
X85056368Y-105591911D01*
X84971979Y-105695129D01*
X84913222Y-105807925D01*
X84879704Y-105927010D01*
X84871035Y-106049095D01*
X84886823Y-106170893D01*
X84926678Y-106289116D01*
X84990207Y-106400475D01*
X85077021Y-106501684D01*
X85174029Y-106580887D01*
X85214437Y-106611162D01*
X85242982Y-106637219D01*
X85253257Y-106652825D01*
X85247877Y-106669843D01*
X85232575Y-106710500D01*
X85208612Y-106771642D01*
X85177244Y-106850119D01*
X85139732Y-106942780D01*
X85097333Y-107046472D01*
X85055663Y-107147526D01*
X85009690Y-107258607D01*
X84967107Y-107361541D01*
X84929221Y-107453165D01*
X84897340Y-107530316D01*
X84872771Y-107589831D01*
X84856820Y-107628544D01*
X84850910Y-107643000D01*
X84836948Y-107657685D01*
X84809940Y-107657642D01*
X84766413Y-107642099D01*
X84702890Y-107610284D01*
X84702388Y-107610013D01*
X84654560Y-107585323D01*
X84615897Y-107567338D01*
X84594095Y-107559614D01*
X84593133Y-107559543D01*
X84576721Y-107567378D01*
X84540487Y-107589165D01*
X84488474Y-107622328D01*
X84424725Y-107664291D01*
X84354060Y-107711943D01*
X84282116Y-107760191D01*
X84217274Y-107802151D01*
X84163735Y-107835227D01*
X84125697Y-107856821D01*
X84107533Y-107864343D01*
X84090808Y-107854457D01*
X84057180Y-107826826D01*
X84010010Y-107784495D01*
X83952658Y-107730505D01*
X83888484Y-107667899D01*
X83867497Y-107646983D01*
X83650499Y-107429623D01*
X83815668Y-107187220D01*
X83865864Y-107112781D01*
X83909919Y-107045972D01*
X83945362Y-106990665D01*
X83969719Y-106950729D01*
X83980522Y-106930036D01*
X83980838Y-106928563D01*
X83975143Y-106909058D01*
X83959826Y-106869822D01*
X83937537Y-106817430D01*
X83921893Y-106782355D01*
X83892641Y-106715201D01*
X83865094Y-106647358D01*
X83843737Y-106590034D01*
X83837935Y-106572572D01*
X83821452Y-106525938D01*
X83805340Y-106489905D01*
X83796490Y-106476287D01*
X83776960Y-106467952D01*
X83734334Y-106456137D01*
X83674145Y-106442181D01*
X83601922Y-106427422D01*
X83569600Y-106421355D01*
X83487522Y-106406273D01*
X83408795Y-106391669D01*
X83341109Y-106378980D01*
X83292160Y-106369642D01*
X83282943Y-106367839D01*
X83206743Y-106352799D01*
X83206743Y-106035492D01*
X83206914Y-105931154D01*
X83207616Y-105852213D01*
X83209134Y-105795038D01*
X83211749Y-105755999D01*
X83215746Y-105731465D01*
X83221409Y-105717805D01*
X83229020Y-105711389D01*
X83232143Y-105710199D01*
X83250978Y-105705980D01*
X83292588Y-105697562D01*
X83351630Y-105685961D01*
X83422757Y-105672195D01*
X83500625Y-105657280D01*
X83579887Y-105642232D01*
X83655198Y-105628069D01*
X83721213Y-105615806D01*
X83772587Y-105606461D01*
X83803975Y-105601050D01*
X83810959Y-105600114D01*
X83817285Y-105587596D01*
X83831290Y-105554246D01*
X83850355Y-105506377D01*
X83857634Y-105487629D01*
X83886996Y-105415195D01*
X83921571Y-105335170D01*
X83952537Y-105267728D01*
X83975323Y-105216159D01*
X83990482Y-105173785D01*
X83995542Y-105147834D01*
X83994736Y-105144356D01*
X83984041Y-105127936D01*
X83959620Y-105091417D01*
X83924095Y-105038687D01*
X83880087Y-104973635D01*
X83830217Y-104900151D01*
X83820356Y-104885645D01*
X83762492Y-104799704D01*
X83719956Y-104734261D01*
X83691054Y-104686304D01*
X83674090Y-104652820D01*
X83667367Y-104630795D01*
X83669190Y-104617217D01*
X83669236Y-104617131D01*
X83683586Y-104599297D01*
X83715323Y-104564817D01*
X83761010Y-104517268D01*
X83817204Y-104460222D01*
X83880468Y-104397255D01*
X83887602Y-104390227D01*
X83967330Y-104313020D01*
X84028857Y-104256330D01*
X84073421Y-104219110D01*
X84102257Y-104200315D01*
X84114958Y-104197889D01*
X84133494Y-104208471D01*
X84171961Y-104232916D01*
X84226386Y-104268612D01*
X84292798Y-104312947D01*
X84367225Y-104363311D01*
X84384601Y-104375160D01*
X84631297Y-104543626D01*
X84742706Y-104493062D01*
X84810457Y-104463595D01*
X84883183Y-104433959D01*
X84945703Y-104410330D01*
X84948457Y-104409358D01*
X84997360Y-104391457D01*
X85035057Y-104376320D01*
X85053425Y-104367210D01*
X85053456Y-104367184D01*
X85059285Y-104350717D01*
X85069192Y-104310219D01*
X85082195Y-104250242D01*
X85097309Y-104175340D01*
X85113552Y-104090064D01*
X85114881Y-104082875D01*
X85131175Y-103995014D01*
X85146133Y-103915260D01*
X85158791Y-103848681D01*
X85168186Y-103800347D01*
X85173354Y-103775325D01*
X85173444Y-103774943D01*
X85176589Y-103764299D01*
X85182704Y-103756262D01*
X85195453Y-103750467D01*
X85218500Y-103746547D01*
X85255509Y-103744135D01*
X85310144Y-103742865D01*
X85386067Y-103742371D01*
X85486944Y-103742286D01*
X85500000Y-103742286D01*
X85603910Y-103742348D01*
G37*
D12*
%TO.C,C2*%
X83060000Y-91135252D02*
X83060000Y-89712748D01*
X81240000Y-91135252D02*
X81240000Y-89712748D01*
%TO.C,C1*%
X86410000Y-91096752D02*
X86410000Y-89674248D01*
X84590000Y-91096752D02*
X84590000Y-89674248D01*
D11*
%TO.C,H1*%
X73200322Y-108142069D02*
X73224035Y-108156839D01*
X73250686Y-108178419D01*
X73250686Y-108499965D01*
X73250601Y-108594022D01*
X73250237Y-108668124D01*
X73249432Y-108724896D01*
X73248021Y-108766960D01*
X73245841Y-108796940D01*
X73242729Y-108817459D01*
X73238522Y-108831141D01*
X73233056Y-108840608D01*
X73229180Y-108845274D01*
X73197742Y-108865767D01*
X73161941Y-108864931D01*
X73130581Y-108847456D01*
X73103930Y-108825876D01*
X73103930Y-108178419D01*
X73130581Y-108156839D01*
X73156302Y-108141141D01*
X73177308Y-108135259D01*
X73200322Y-108142069D01*
G36*
X73200322Y-108142069D02*
G01*
X73224035Y-108156839D01*
X73250686Y-108178419D01*
X73250686Y-108499965D01*
X73250601Y-108594022D01*
X73250237Y-108668124D01*
X73249432Y-108724896D01*
X73248021Y-108766960D01*
X73245841Y-108796940D01*
X73242729Y-108817459D01*
X73238522Y-108831141D01*
X73233056Y-108840608D01*
X73229180Y-108845274D01*
X73197742Y-108865767D01*
X73161941Y-108864931D01*
X73130581Y-108847456D01*
X73103930Y-108825876D01*
X73103930Y-108178419D01*
X73130581Y-108156839D01*
X73156302Y-108141141D01*
X73177308Y-108135259D01*
X73200322Y-108142069D01*
G37*
X66087886Y-108157837D02*
X66094466Y-108165410D01*
X66099629Y-108175179D01*
X66103544Y-108189763D01*
X66106384Y-108211777D01*
X66108321Y-108243840D01*
X66109525Y-108288567D01*
X66110169Y-108348577D01*
X66110424Y-108426486D01*
X66110463Y-108502148D01*
X66110394Y-108595994D01*
X66110070Y-108669881D01*
X66109322Y-108726424D01*
X66107976Y-108768241D01*
X66105862Y-108797949D01*
X66102808Y-108818165D01*
X66098642Y-108831506D01*
X66093192Y-108840590D01*
X66087886Y-108846459D01*
X66054882Y-108866139D01*
X66019717Y-108864373D01*
X65988253Y-108842909D01*
X65981024Y-108834529D01*
X65975374Y-108824806D01*
X65971109Y-108811053D01*
X65968035Y-108790581D01*
X65965956Y-108760704D01*
X65964678Y-108718733D01*
X65964007Y-108661981D01*
X65963749Y-108587759D01*
X65963708Y-108503729D01*
X65963708Y-108190677D01*
X65991417Y-108162968D01*
X66025571Y-108139655D01*
X66058702Y-108138815D01*
X66087886Y-108157837D01*
G36*
X66087886Y-108157837D02*
G01*
X66094466Y-108165410D01*
X66099629Y-108175179D01*
X66103544Y-108189763D01*
X66106384Y-108211777D01*
X66108321Y-108243840D01*
X66109525Y-108288567D01*
X66110169Y-108348577D01*
X66110424Y-108426486D01*
X66110463Y-108502148D01*
X66110394Y-108595994D01*
X66110070Y-108669881D01*
X66109322Y-108726424D01*
X66107976Y-108768241D01*
X66105862Y-108797949D01*
X66102808Y-108818165D01*
X66098642Y-108831506D01*
X66093192Y-108840590D01*
X66087886Y-108846459D01*
X66054882Y-108866139D01*
X66019717Y-108864373D01*
X65988253Y-108842909D01*
X65981024Y-108834529D01*
X65975374Y-108824806D01*
X65971109Y-108811053D01*
X65968035Y-108790581D01*
X65965956Y-108760704D01*
X65964678Y-108718733D01*
X65964007Y-108661981D01*
X65963749Y-108587759D01*
X65963708Y-108503729D01*
X65963708Y-108190677D01*
X65991417Y-108162968D01*
X66025571Y-108139655D01*
X66058702Y-108138815D01*
X66087886Y-108157837D01*
G37*
X66273921Y-101536490D02*
X66377027Y-101572238D01*
X66473022Y-101628507D01*
X66558753Y-101705288D01*
X66631070Y-101802573D01*
X66663555Y-101863892D01*
X66691668Y-101949660D01*
X66705295Y-102048677D01*
X66703786Y-102150471D01*
X66687031Y-102242714D01*
X66641237Y-102355432D01*
X66574832Y-102453207D01*
X66491191Y-102534115D01*
X66393688Y-102596232D01*
X66285700Y-102637634D01*
X66170601Y-102656397D01*
X66051766Y-102650598D01*
X65993189Y-102638206D01*
X65879028Y-102593797D01*
X65777635Y-102526033D01*
X65691455Y-102437001D01*
X65622934Y-102328791D01*
X65617136Y-102316973D01*
X65597096Y-102272628D01*
X65584513Y-102235280D01*
X65577681Y-102195880D01*
X65574895Y-102145381D01*
X65574432Y-102090433D01*
X65575197Y-102024415D01*
X65578648Y-101976689D01*
X65586523Y-101938103D01*
X65600557Y-101899506D01*
X65617880Y-101861426D01*
X65682495Y-101753328D01*
X65762066Y-101665803D01*
X65853440Y-101598841D01*
X65953464Y-101552436D01*
X66058988Y-101526581D01*
X66166858Y-101521268D01*
X66273921Y-101536490D01*
G36*
X66273921Y-101536490D02*
G01*
X66377027Y-101572238D01*
X66473022Y-101628507D01*
X66558753Y-101705288D01*
X66631070Y-101802573D01*
X66663555Y-101863892D01*
X66691668Y-101949660D01*
X66705295Y-102048677D01*
X66703786Y-102150471D01*
X66687031Y-102242714D01*
X66641237Y-102355432D01*
X66574832Y-102453207D01*
X66491191Y-102534115D01*
X66393688Y-102596232D01*
X66285700Y-102637634D01*
X66170601Y-102656397D01*
X66051766Y-102650598D01*
X65993189Y-102638206D01*
X65879028Y-102593797D01*
X65777635Y-102526033D01*
X65691455Y-102437001D01*
X65622934Y-102328791D01*
X65617136Y-102316973D01*
X65597096Y-102272628D01*
X65584513Y-102235280D01*
X65577681Y-102195880D01*
X65574895Y-102145381D01*
X65574432Y-102090433D01*
X65575197Y-102024415D01*
X65578648Y-101976689D01*
X65586523Y-101938103D01*
X65600557Y-101899506D01*
X65617880Y-101861426D01*
X65682495Y-101753328D01*
X65762066Y-101665803D01*
X65853440Y-101598841D01*
X65953464Y-101552436D01*
X66058988Y-101526581D01*
X66166858Y-101521268D01*
X66273921Y-101536490D01*
G37*
X73974773Y-108135355D02*
X74053480Y-108135734D01*
X74114571Y-108136525D01*
X74160525Y-108137862D01*
X74193822Y-108139875D01*
X74216944Y-108142698D01*
X74232370Y-108146461D01*
X74242579Y-108151297D01*
X74247521Y-108155014D01*
X74273165Y-108187550D01*
X74276267Y-108221330D01*
X74260419Y-108252018D01*
X74250056Y-108264281D01*
X74238904Y-108272642D01*
X74222743Y-108277849D01*
X74197350Y-108280649D01*
X74158506Y-108281788D01*
X74101988Y-108282013D01*
X74090888Y-108282014D01*
X73944952Y-108282014D01*
X73944952Y-108552948D01*
X73944856Y-108638346D01*
X73944419Y-108704056D01*
X73943420Y-108752966D01*
X73941636Y-108787965D01*
X73938845Y-108811941D01*
X73934825Y-108827785D01*
X73929353Y-108838383D01*
X73922374Y-108846459D01*
X73889442Y-108866304D01*
X73855062Y-108864740D01*
X73823884Y-108842098D01*
X73821594Y-108839292D01*
X73814137Y-108828684D01*
X73808455Y-108816273D01*
X73804309Y-108799042D01*
X73801458Y-108773976D01*
X73799662Y-108738059D01*
X73798680Y-108688275D01*
X73798272Y-108621609D01*
X73798197Y-108545781D01*
X73798197Y-108282014D01*
X73658835Y-108282014D01*
X73599030Y-108281610D01*
X73557626Y-108280032D01*
X73530456Y-108276739D01*
X73513354Y-108271184D01*
X73502151Y-108262823D01*
X73500791Y-108261370D01*
X73484433Y-108228131D01*
X73485880Y-108190554D01*
X73504686Y-108157837D01*
X73511958Y-108151490D01*
X73521335Y-108146458D01*
X73535317Y-108142588D01*
X73556404Y-108139729D01*
X73587097Y-108137727D01*
X73629897Y-108136431D01*
X73687303Y-108135690D01*
X73761818Y-108135350D01*
X73855941Y-108135260D01*
X73875968Y-108135259D01*
X73974773Y-108135355D01*
G36*
X73974773Y-108135355D02*
G01*
X74053480Y-108135734D01*
X74114571Y-108136525D01*
X74160525Y-108137862D01*
X74193822Y-108139875D01*
X74216944Y-108142698D01*
X74232370Y-108146461D01*
X74242579Y-108151297D01*
X74247521Y-108155014D01*
X74273165Y-108187550D01*
X74276267Y-108221330D01*
X74260419Y-108252018D01*
X74250056Y-108264281D01*
X74238904Y-108272642D01*
X74222743Y-108277849D01*
X74197350Y-108280649D01*
X74158506Y-108281788D01*
X74101988Y-108282013D01*
X74090888Y-108282014D01*
X73944952Y-108282014D01*
X73944952Y-108552948D01*
X73944856Y-108638346D01*
X73944419Y-108704056D01*
X73943420Y-108752966D01*
X73941636Y-108787965D01*
X73938845Y-108811941D01*
X73934825Y-108827785D01*
X73929353Y-108838383D01*
X73922374Y-108846459D01*
X73889442Y-108866304D01*
X73855062Y-108864740D01*
X73823884Y-108842098D01*
X73821594Y-108839292D01*
X73814137Y-108828684D01*
X73808455Y-108816273D01*
X73804309Y-108799042D01*
X73801458Y-108773976D01*
X73799662Y-108738059D01*
X73798680Y-108688275D01*
X73798272Y-108621609D01*
X73798197Y-108545781D01*
X73798197Y-108282014D01*
X73658835Y-108282014D01*
X73599030Y-108281610D01*
X73557626Y-108280032D01*
X73530456Y-108276739D01*
X73513354Y-108271184D01*
X73502151Y-108262823D01*
X73500791Y-108261370D01*
X73484433Y-108228131D01*
X73485880Y-108190554D01*
X73504686Y-108157837D01*
X73511958Y-108151490D01*
X73521335Y-108146458D01*
X73535317Y-108142588D01*
X73556404Y-108139729D01*
X73587097Y-108137727D01*
X73629897Y-108136431D01*
X73687303Y-108135690D01*
X73761818Y-108135350D01*
X73855941Y-108135260D01*
X73875968Y-108135259D01*
X73974773Y-108135355D01*
G37*
X75240531Y-108140725D02*
X75271910Y-108162968D01*
X75299619Y-108190677D01*
X75299619Y-108500112D01*
X75299546Y-108591991D01*
X75299203Y-108664032D01*
X75298400Y-108718972D01*
X75296949Y-108759552D01*
X75294660Y-108788509D01*
X75291344Y-108808583D01*
X75286813Y-108822513D01*
X75280877Y-108833037D01*
X75276222Y-108839292D01*
X75245491Y-108863865D01*
X75210204Y-108866533D01*
X75177953Y-108851463D01*
X75167296Y-108842566D01*
X75160172Y-108830749D01*
X75155875Y-108811718D01*
X75153699Y-108781184D01*
X75152936Y-108734854D01*
X75152863Y-108699063D01*
X75152863Y-108564237D01*
X74656152Y-108564237D01*
X74656152Y-108686892D01*
X74655639Y-108742979D01*
X74653584Y-108781525D01*
X74649216Y-108807553D01*
X74641764Y-108826089D01*
X74632755Y-108839292D01*
X74601852Y-108863796D01*
X74566904Y-108866698D01*
X74533446Y-108849281D01*
X74524312Y-108840151D01*
X74517860Y-108828047D01*
X74513605Y-108809193D01*
X74511060Y-108779812D01*
X74509737Y-108736129D01*
X74509151Y-108674367D01*
X74509083Y-108660192D01*
X74508599Y-108543823D01*
X74508349Y-108447919D01*
X74508431Y-108370369D01*
X74508939Y-108309061D01*
X74509970Y-108261882D01*
X74511621Y-108226722D01*
X74513987Y-108201468D01*
X74517165Y-108184009D01*
X74521252Y-108172233D01*
X74526342Y-108164027D01*
X74531974Y-108157837D01*
X74563836Y-108138036D01*
X74597065Y-108140725D01*
X74628443Y-108162968D01*
X74641141Y-108177318D01*
X74649234Y-108193170D01*
X74653750Y-108215746D01*
X74655714Y-108250270D01*
X74656152Y-108301968D01*
X74656152Y-108417481D01*
X75152863Y-108417481D01*
X75152863Y-108298948D01*
X75153370Y-108244340D01*
X75155406Y-108207467D01*
X75159743Y-108183499D01*
X75167155Y-108167607D01*
X75175441Y-108157837D01*
X75207302Y-108138036D01*
X75240531Y-108140725D01*
G36*
X75240531Y-108140725D02*
G01*
X75271910Y-108162968D01*
X75299619Y-108190677D01*
X75299619Y-108500112D01*
X75299546Y-108591991D01*
X75299203Y-108664032D01*
X75298400Y-108718972D01*
X75296949Y-108759552D01*
X75294660Y-108788509D01*
X75291344Y-108808583D01*
X75286813Y-108822513D01*
X75280877Y-108833037D01*
X75276222Y-108839292D01*
X75245491Y-108863865D01*
X75210204Y-108866533D01*
X75177953Y-108851463D01*
X75167296Y-108842566D01*
X75160172Y-108830749D01*
X75155875Y-108811718D01*
X75153699Y-108781184D01*
X75152936Y-108734854D01*
X75152863Y-108699063D01*
X75152863Y-108564237D01*
X74656152Y-108564237D01*
X74656152Y-108686892D01*
X74655639Y-108742979D01*
X74653584Y-108781525D01*
X74649216Y-108807553D01*
X74641764Y-108826089D01*
X74632755Y-108839292D01*
X74601852Y-108863796D01*
X74566904Y-108866698D01*
X74533446Y-108849281D01*
X74524312Y-108840151D01*
X74517860Y-108828047D01*
X74513605Y-108809193D01*
X74511060Y-108779812D01*
X74509737Y-108736129D01*
X74509151Y-108674367D01*
X74509083Y-108660192D01*
X74508599Y-108543823D01*
X74508349Y-108447919D01*
X74508431Y-108370369D01*
X74508939Y-108309061D01*
X74509970Y-108261882D01*
X74511621Y-108226722D01*
X74513987Y-108201468D01*
X74517165Y-108184009D01*
X74521252Y-108172233D01*
X74526342Y-108164027D01*
X74531974Y-108157837D01*
X74563836Y-108138036D01*
X74597065Y-108140725D01*
X74628443Y-108162968D01*
X74641141Y-108177318D01*
X74649234Y-108193170D01*
X74653750Y-108215746D01*
X74655714Y-108250270D01*
X74656152Y-108301968D01*
X74656152Y-108417481D01*
X75152863Y-108417481D01*
X75152863Y-108298948D01*
X75153370Y-108244340D01*
X75155406Y-108207467D01*
X75159743Y-108183499D01*
X75167155Y-108167607D01*
X75175441Y-108157837D01*
X75207302Y-108138036D01*
X75240531Y-108140725D01*
G37*
X70030017Y-108135467D02*
X70158996Y-108139828D01*
X70268699Y-108153053D01*
X70360934Y-108175933D01*
X70437510Y-108209262D01*
X70500235Y-108253830D01*
X70550920Y-108310428D01*
X70591371Y-108379850D01*
X70592167Y-108381543D01*
X70616309Y-108443675D01*
X70624911Y-108498701D01*
X70617939Y-108554079D01*
X70595362Y-108617265D01*
X70591080Y-108626881D01*
X70561880Y-108683158D01*
X70529064Y-108726643D01*
X70486710Y-108763609D01*
X70428898Y-108800327D01*
X70425539Y-108802244D01*
X70375212Y-108826419D01*
X70318329Y-108844474D01*
X70251235Y-108857031D01*
X70170273Y-108864714D01*
X70071790Y-108868145D01*
X70036994Y-108868443D01*
X69871302Y-108869037D01*
X69847905Y-108839292D01*
X69840965Y-108829511D01*
X69835550Y-108818089D01*
X69831473Y-108802287D01*
X69828545Y-108779367D01*
X69826575Y-108746588D01*
X69825933Y-108722281D01*
X69825376Y-108701213D01*
X69824758Y-108640503D01*
X69824533Y-108561718D01*
X69824508Y-108500112D01*
X69824508Y-108282014D01*
X69982552Y-108282014D01*
X69982552Y-108722281D01*
X70076434Y-108722281D01*
X70131372Y-108720675D01*
X70187768Y-108716447D01*
X70234053Y-108710484D01*
X70236847Y-108709982D01*
X70319056Y-108687928D01*
X70382822Y-108654792D01*
X70430160Y-108609039D01*
X70463090Y-108549131D01*
X70468816Y-108533253D01*
X70474429Y-108508525D01*
X70471999Y-108484094D01*
X70460175Y-108451592D01*
X70453048Y-108435626D01*
X70429708Y-108393198D01*
X70401588Y-108363432D01*
X70370648Y-108342703D01*
X70308674Y-108315729D01*
X70229359Y-108296190D01*
X70136961Y-108284938D01*
X70070041Y-108282462D01*
X69982552Y-108282014D01*
X69824508Y-108282014D01*
X69824508Y-108190677D01*
X69852217Y-108162968D01*
X69864514Y-108151736D01*
X69877811Y-108144045D01*
X69896380Y-108139232D01*
X69924494Y-108136638D01*
X69966425Y-108135602D01*
X70026445Y-108135462D01*
X70030017Y-108135467D01*
G36*
X70030017Y-108135467D02*
G01*
X70158996Y-108139828D01*
X70268699Y-108153053D01*
X70360934Y-108175933D01*
X70437510Y-108209262D01*
X70500235Y-108253830D01*
X70550920Y-108310428D01*
X70591371Y-108379850D01*
X70592167Y-108381543D01*
X70616309Y-108443675D01*
X70624911Y-108498701D01*
X70617939Y-108554079D01*
X70595362Y-108617265D01*
X70591080Y-108626881D01*
X70561880Y-108683158D01*
X70529064Y-108726643D01*
X70486710Y-108763609D01*
X70428898Y-108800327D01*
X70425539Y-108802244D01*
X70375212Y-108826419D01*
X70318329Y-108844474D01*
X70251235Y-108857031D01*
X70170273Y-108864714D01*
X70071790Y-108868145D01*
X70036994Y-108868443D01*
X69871302Y-108869037D01*
X69847905Y-108839292D01*
X69840965Y-108829511D01*
X69835550Y-108818089D01*
X69831473Y-108802287D01*
X69828545Y-108779367D01*
X69826575Y-108746588D01*
X69825933Y-108722281D01*
X69825376Y-108701213D01*
X69824758Y-108640503D01*
X69824533Y-108561718D01*
X69824508Y-108500112D01*
X69824508Y-108282014D01*
X69982552Y-108282014D01*
X69982552Y-108722281D01*
X70076434Y-108722281D01*
X70131372Y-108720675D01*
X70187768Y-108716447D01*
X70234053Y-108710484D01*
X70236847Y-108709982D01*
X70319056Y-108687928D01*
X70382822Y-108654792D01*
X70430160Y-108609039D01*
X70463090Y-108549131D01*
X70468816Y-108533253D01*
X70474429Y-108508525D01*
X70471999Y-108484094D01*
X70460175Y-108451592D01*
X70453048Y-108435626D01*
X70429708Y-108393198D01*
X70401588Y-108363432D01*
X70370648Y-108342703D01*
X70308674Y-108315729D01*
X70229359Y-108296190D01*
X70136961Y-108284938D01*
X70070041Y-108282462D01*
X69982552Y-108282014D01*
X69824508Y-108282014D01*
X69824508Y-108190677D01*
X69852217Y-108162968D01*
X69864514Y-108151736D01*
X69877811Y-108144045D01*
X69896380Y-108139232D01*
X69924494Y-108136638D01*
X69966425Y-108135602D01*
X70026445Y-108135462D01*
X70030017Y-108135467D01*
G37*
X62890337Y-108135258D02*
X62929819Y-108135659D01*
X63045508Y-108138451D01*
X63142397Y-108146742D01*
X63223789Y-108161424D01*
X63292985Y-108183385D01*
X63353288Y-108213514D01*
X63408000Y-108252702D01*
X63427541Y-108269724D01*
X63459958Y-108309555D01*
X63489188Y-108363605D01*
X63511717Y-108423515D01*
X63524029Y-108480931D01*
X63525308Y-108502148D01*
X63517291Y-108560961D01*
X63495809Y-108625205D01*
X63464709Y-108686013D01*
X63427842Y-108734522D01*
X63421854Y-108740374D01*
X63371129Y-108781513D01*
X63315583Y-108813627D01*
X63252012Y-108837557D01*
X63177214Y-108854145D01*
X63087986Y-108864233D01*
X62981126Y-108868661D01*
X62932180Y-108869037D01*
X62869946Y-108868737D01*
X62826180Y-108867484D01*
X62796777Y-108864746D01*
X62777629Y-108859993D01*
X62764631Y-108852693D01*
X62757663Y-108846459D01*
X62751082Y-108838886D01*
X62745920Y-108829116D01*
X62742005Y-108814532D01*
X62739165Y-108792518D01*
X62737228Y-108760456D01*
X62736200Y-108722281D01*
X62881841Y-108722281D01*
X62974974Y-108722196D01*
X63031015Y-108720588D01*
X63089709Y-108716448D01*
X63138680Y-108710656D01*
X63140170Y-108710418D01*
X63219316Y-108691282D01*
X63280706Y-108661479D01*
X63327403Y-108619070D01*
X63357073Y-108573153D01*
X63375355Y-108522218D01*
X63373937Y-108474392D01*
X63352720Y-108423125D01*
X63311219Y-108370091D01*
X63253710Y-108330792D01*
X63178958Y-108304523D01*
X63129000Y-108295227D01*
X63072292Y-108288699D01*
X63012189Y-108283974D01*
X62961069Y-108282009D01*
X62958041Y-108282000D01*
X62881841Y-108282014D01*
X62881841Y-108722281D01*
X62736200Y-108722281D01*
X62736024Y-108715728D01*
X62735380Y-108655718D01*
X62735125Y-108577809D01*
X62735086Y-108502148D01*
X62734838Y-108401233D01*
X62734891Y-108320619D01*
X62735851Y-108282014D01*
X62736448Y-108258043D01*
X62740710Y-108211247D01*
X62748878Y-108177970D01*
X62762152Y-108155951D01*
X62781734Y-108142931D01*
X62808825Y-108136649D01*
X62844626Y-108134845D01*
X62890337Y-108135258D01*
G36*
X62890337Y-108135258D02*
G01*
X62929819Y-108135659D01*
X63045508Y-108138451D01*
X63142397Y-108146742D01*
X63223789Y-108161424D01*
X63292985Y-108183385D01*
X63353288Y-108213514D01*
X63408000Y-108252702D01*
X63427541Y-108269724D01*
X63459958Y-108309555D01*
X63489188Y-108363605D01*
X63511717Y-108423515D01*
X63524029Y-108480931D01*
X63525308Y-108502148D01*
X63517291Y-108560961D01*
X63495809Y-108625205D01*
X63464709Y-108686013D01*
X63427842Y-108734522D01*
X63421854Y-108740374D01*
X63371129Y-108781513D01*
X63315583Y-108813627D01*
X63252012Y-108837557D01*
X63177214Y-108854145D01*
X63087986Y-108864233D01*
X62981126Y-108868661D01*
X62932180Y-108869037D01*
X62869946Y-108868737D01*
X62826180Y-108867484D01*
X62796777Y-108864746D01*
X62777629Y-108859993D01*
X62764631Y-108852693D01*
X62757663Y-108846459D01*
X62751082Y-108838886D01*
X62745920Y-108829116D01*
X62742005Y-108814532D01*
X62739165Y-108792518D01*
X62737228Y-108760456D01*
X62736200Y-108722281D01*
X62881841Y-108722281D01*
X62974974Y-108722196D01*
X63031015Y-108720588D01*
X63089709Y-108716448D01*
X63138680Y-108710656D01*
X63140170Y-108710418D01*
X63219316Y-108691282D01*
X63280706Y-108661479D01*
X63327403Y-108619070D01*
X63357073Y-108573153D01*
X63375355Y-108522218D01*
X63373937Y-108474392D01*
X63352720Y-108423125D01*
X63311219Y-108370091D01*
X63253710Y-108330792D01*
X63178958Y-108304523D01*
X63129000Y-108295227D01*
X63072292Y-108288699D01*
X63012189Y-108283974D01*
X62961069Y-108282009D01*
X62958041Y-108282000D01*
X62881841Y-108282014D01*
X62881841Y-108722281D01*
X62736200Y-108722281D01*
X62736024Y-108715728D01*
X62735380Y-108655718D01*
X62735125Y-108577809D01*
X62735086Y-108502148D01*
X62734838Y-108401233D01*
X62734891Y-108320619D01*
X62735851Y-108282014D01*
X62736448Y-108258043D01*
X62740710Y-108211247D01*
X62748878Y-108177970D01*
X62762152Y-108155951D01*
X62781734Y-108142931D01*
X62808825Y-108136649D01*
X62844626Y-108134845D01*
X62890337Y-108135258D01*
G37*
X67711594Y-108139640D02*
X67735160Y-108153465D01*
X67765973Y-108176073D01*
X67805630Y-108208530D01*
X67855728Y-108251900D01*
X67917865Y-108307250D01*
X67993636Y-108375643D01*
X68080374Y-108454276D01*
X68260997Y-108618070D01*
X68266641Y-108398221D01*
X68268679Y-108322543D01*
X68270645Y-108266186D01*
X68272974Y-108225898D01*
X68276102Y-108198427D01*
X68280463Y-108180521D01*
X68286492Y-108168929D01*
X68294624Y-108160400D01*
X68298936Y-108156815D01*
X68333467Y-108137862D01*
X68366325Y-108140633D01*
X68392390Y-108156825D01*
X68419041Y-108178391D01*
X68422356Y-108493343D01*
X68423273Y-108585971D01*
X68423740Y-108658736D01*
X68423595Y-108714353D01*
X68422676Y-108755534D01*
X68420821Y-108784995D01*
X68417869Y-108805447D01*
X68413658Y-108819605D01*
X68408026Y-108830183D01*
X68401781Y-108838666D01*
X68388269Y-108854399D01*
X68374825Y-108864828D01*
X68359584Y-108868831D01*
X68340682Y-108865286D01*
X68316253Y-108853071D01*
X68284435Y-108831063D01*
X68243360Y-108798141D01*
X68191166Y-108753183D01*
X68125986Y-108695067D01*
X68052152Y-108628291D01*
X67786863Y-108387650D01*
X67781219Y-108606781D01*
X67779177Y-108682320D01*
X67777206Y-108738546D01*
X67774869Y-108778716D01*
X67771727Y-108806088D01*
X67767344Y-108823920D01*
X67761284Y-108835471D01*
X67753108Y-108843999D01*
X67748924Y-108847474D01*
X67711943Y-108866564D01*
X67677000Y-108863685D01*
X67646572Y-108839292D01*
X67639611Y-108829478D01*
X67634185Y-108818018D01*
X67630105Y-108802160D01*
X67627179Y-108779155D01*
X67625216Y-108746254D01*
X67624025Y-108700708D01*
X67623416Y-108639765D01*
X67623197Y-108560678D01*
X67623174Y-108502148D01*
X67623248Y-108410599D01*
X67623595Y-108338879D01*
X67624407Y-108284237D01*
X67625875Y-108243924D01*
X67628189Y-108215190D01*
X67631541Y-108195285D01*
X67636120Y-108181460D01*
X67642119Y-108170964D01*
X67646572Y-108165003D01*
X67657858Y-108150883D01*
X67668407Y-108140221D01*
X67679815Y-108134084D01*
X67693678Y-108133535D01*
X67711594Y-108139640D01*
G36*
X67711594Y-108139640D02*
G01*
X67735160Y-108153465D01*
X67765973Y-108176073D01*
X67805630Y-108208530D01*
X67855728Y-108251900D01*
X67917865Y-108307250D01*
X67993636Y-108375643D01*
X68080374Y-108454276D01*
X68260997Y-108618070D01*
X68266641Y-108398221D01*
X68268679Y-108322543D01*
X68270645Y-108266186D01*
X68272974Y-108225898D01*
X68276102Y-108198427D01*
X68280463Y-108180521D01*
X68286492Y-108168929D01*
X68294624Y-108160400D01*
X68298936Y-108156815D01*
X68333467Y-108137862D01*
X68366325Y-108140633D01*
X68392390Y-108156825D01*
X68419041Y-108178391D01*
X68422356Y-108493343D01*
X68423273Y-108585971D01*
X68423740Y-108658736D01*
X68423595Y-108714353D01*
X68422676Y-108755534D01*
X68420821Y-108784995D01*
X68417869Y-108805447D01*
X68413658Y-108819605D01*
X68408026Y-108830183D01*
X68401781Y-108838666D01*
X68388269Y-108854399D01*
X68374825Y-108864828D01*
X68359584Y-108868831D01*
X68340682Y-108865286D01*
X68316253Y-108853071D01*
X68284435Y-108831063D01*
X68243360Y-108798141D01*
X68191166Y-108753183D01*
X68125986Y-108695067D01*
X68052152Y-108628291D01*
X67786863Y-108387650D01*
X67781219Y-108606781D01*
X67779177Y-108682320D01*
X67777206Y-108738546D01*
X67774869Y-108778716D01*
X67771727Y-108806088D01*
X67767344Y-108823920D01*
X67761284Y-108835471D01*
X67753108Y-108843999D01*
X67748924Y-108847474D01*
X67711943Y-108866564D01*
X67677000Y-108863685D01*
X67646572Y-108839292D01*
X67639611Y-108829478D01*
X67634185Y-108818018D01*
X67630105Y-108802160D01*
X67627179Y-108779155D01*
X67625216Y-108746254D01*
X67624025Y-108700708D01*
X67623416Y-108639765D01*
X67623197Y-108560678D01*
X67623174Y-108502148D01*
X67623248Y-108410599D01*
X67623595Y-108338879D01*
X67624407Y-108284237D01*
X67625875Y-108243924D01*
X67628189Y-108215190D01*
X67631541Y-108195285D01*
X67636120Y-108181460D01*
X67642119Y-108170964D01*
X67646572Y-108165003D01*
X67657858Y-108150883D01*
X67668407Y-108140221D01*
X67679815Y-108134084D01*
X67693678Y-108133535D01*
X67711594Y-108139640D01*
G37*
X67061627Y-108140791D02*
X67130143Y-108152287D01*
X67182765Y-108170159D01*
X67217000Y-108193691D01*
X67226329Y-108207116D01*
X67235815Y-108238340D01*
X67229431Y-108266587D01*
X67209278Y-108293374D01*
X67177963Y-108305905D01*
X67132525Y-108304888D01*
X67097382Y-108298098D01*
X67019289Y-108285163D01*
X66939482Y-108283934D01*
X66850153Y-108294433D01*
X66825479Y-108298882D01*
X66742417Y-108322300D01*
X66677435Y-108357137D01*
X66631247Y-108402796D01*
X66604563Y-108458686D01*
X66599045Y-108487580D01*
X66602657Y-108546204D01*
X66625979Y-108598071D01*
X66666884Y-108642170D01*
X66723249Y-108677491D01*
X66792948Y-108703021D01*
X66873856Y-108717751D01*
X66963848Y-108720670D01*
X67060798Y-108710767D01*
X67066272Y-108709833D01*
X67104833Y-108702651D01*
X67126214Y-108695713D01*
X67135481Y-108685419D01*
X67137702Y-108668168D01*
X67137752Y-108659033D01*
X67137752Y-108620681D01*
X67069277Y-108620681D01*
X67008808Y-108616539D01*
X66967543Y-108603339D01*
X66943533Y-108579922D01*
X66934831Y-108545128D01*
X66934725Y-108540586D01*
X66939816Y-108510846D01*
X66957275Y-108489611D01*
X66989769Y-108475558D01*
X67039965Y-108467365D01*
X67088585Y-108464353D01*
X67159252Y-108462625D01*
X67210510Y-108465262D01*
X67245469Y-108474992D01*
X67267238Y-108494545D01*
X67278928Y-108526648D01*
X67283648Y-108574030D01*
X67284508Y-108636263D01*
X67283099Y-108705727D01*
X67278860Y-108752978D01*
X67271772Y-108778204D01*
X67270397Y-108780180D01*
X67231480Y-108811700D01*
X67174422Y-108836662D01*
X67102839Y-108854532D01*
X67020350Y-108864778D01*
X66930569Y-108866865D01*
X66837116Y-108860260D01*
X66782152Y-108852148D01*
X66695942Y-108827746D01*
X66615816Y-108787854D01*
X66548731Y-108736079D01*
X66538535Y-108725731D01*
X66505406Y-108682227D01*
X66475514Y-108628310D01*
X66452351Y-108571784D01*
X66439410Y-108520451D01*
X66437850Y-108500736D01*
X66444490Y-108459611D01*
X66462140Y-108408444D01*
X66487411Y-108354586D01*
X66516919Y-108305387D01*
X66542989Y-108272526D01*
X66603943Y-108223644D01*
X66682739Y-108184737D01*
X66776551Y-108156686D01*
X66882558Y-108140371D01*
X66979708Y-108136384D01*
X67061627Y-108140791D01*
G36*
X67061627Y-108140791D02*
G01*
X67130143Y-108152287D01*
X67182765Y-108170159D01*
X67217000Y-108193691D01*
X67226329Y-108207116D01*
X67235815Y-108238340D01*
X67229431Y-108266587D01*
X67209278Y-108293374D01*
X67177963Y-108305905D01*
X67132525Y-108304888D01*
X67097382Y-108298098D01*
X67019289Y-108285163D01*
X66939482Y-108283934D01*
X66850153Y-108294433D01*
X66825479Y-108298882D01*
X66742417Y-108322300D01*
X66677435Y-108357137D01*
X66631247Y-108402796D01*
X66604563Y-108458686D01*
X66599045Y-108487580D01*
X66602657Y-108546204D01*
X66625979Y-108598071D01*
X66666884Y-108642170D01*
X66723249Y-108677491D01*
X66792948Y-108703021D01*
X66873856Y-108717751D01*
X66963848Y-108720670D01*
X67060798Y-108710767D01*
X67066272Y-108709833D01*
X67104833Y-108702651D01*
X67126214Y-108695713D01*
X67135481Y-108685419D01*
X67137702Y-108668168D01*
X67137752Y-108659033D01*
X67137752Y-108620681D01*
X67069277Y-108620681D01*
X67008808Y-108616539D01*
X66967543Y-108603339D01*
X66943533Y-108579922D01*
X66934831Y-108545128D01*
X66934725Y-108540586D01*
X66939816Y-108510846D01*
X66957275Y-108489611D01*
X66989769Y-108475558D01*
X67039965Y-108467365D01*
X67088585Y-108464353D01*
X67159252Y-108462625D01*
X67210510Y-108465262D01*
X67245469Y-108474992D01*
X67267238Y-108494545D01*
X67278928Y-108526648D01*
X67283648Y-108574030D01*
X67284508Y-108636263D01*
X67283099Y-108705727D01*
X67278860Y-108752978D01*
X67271772Y-108778204D01*
X67270397Y-108780180D01*
X67231480Y-108811700D01*
X67174422Y-108836662D01*
X67102839Y-108854532D01*
X67020350Y-108864778D01*
X66930569Y-108866865D01*
X66837116Y-108860260D01*
X66782152Y-108852148D01*
X66695942Y-108827746D01*
X66615816Y-108787854D01*
X66548731Y-108736079D01*
X66538535Y-108725731D01*
X66505406Y-108682227D01*
X66475514Y-108628310D01*
X66452351Y-108571784D01*
X66439410Y-108520451D01*
X66437850Y-108500736D01*
X66444490Y-108459611D01*
X66462140Y-108408444D01*
X66487411Y-108354586D01*
X66516919Y-108305387D01*
X66542989Y-108272526D01*
X66603943Y-108223644D01*
X66682739Y-108184737D01*
X66776551Y-108156686D01*
X66882558Y-108140371D01*
X66979708Y-108136384D01*
X67061627Y-108140791D01*
G37*
X69242051Y-108135452D02*
X69318409Y-108136366D01*
X69376925Y-108138503D01*
X69419963Y-108142367D01*
X69449891Y-108148459D01*
X69469076Y-108157282D01*
X69479884Y-108169338D01*
X69484681Y-108185131D01*
X69485835Y-108205162D01*
X69485841Y-108207527D01*
X69484839Y-108230184D01*
X69480104Y-108247695D01*
X69469041Y-108260766D01*
X69449056Y-108270105D01*
X69417554Y-108276419D01*
X69371940Y-108280414D01*
X69309621Y-108282798D01*
X69228001Y-108284278D01*
X69202985Y-108284606D01*
X68960908Y-108287659D01*
X68957522Y-108352570D01*
X68954137Y-108417481D01*
X69122284Y-108417481D01*
X69187974Y-108417723D01*
X69234880Y-108418748D01*
X69266791Y-108421003D01*
X69287499Y-108424934D01*
X69300792Y-108430990D01*
X69310463Y-108439616D01*
X69310525Y-108439685D01*
X69328064Y-108473304D01*
X69327430Y-108509640D01*
X69309022Y-108540615D01*
X69305379Y-108543799D01*
X69292449Y-108552004D01*
X69274732Y-108557713D01*
X69248278Y-108561354D01*
X69209140Y-108563359D01*
X69153370Y-108564156D01*
X69117702Y-108564237D01*
X68955263Y-108564237D01*
X68955263Y-108722281D01*
X69201869Y-108722281D01*
X69283288Y-108722423D01*
X69345118Y-108723006D01*
X69390345Y-108724260D01*
X69421956Y-108726419D01*
X69442939Y-108729715D01*
X69456281Y-108734381D01*
X69464969Y-108740649D01*
X69467158Y-108742925D01*
X69483322Y-108774472D01*
X69484505Y-108810360D01*
X69471244Y-108841477D01*
X69460751Y-108851463D01*
X69449837Y-108856961D01*
X69432925Y-108861214D01*
X69407341Y-108864372D01*
X69370409Y-108866584D01*
X69319454Y-108867998D01*
X69251802Y-108868764D01*
X69164777Y-108869030D01*
X69145102Y-108869037D01*
X69056619Y-108868979D01*
X68987935Y-108868659D01*
X68936272Y-108867859D01*
X68898853Y-108866359D01*
X68872898Y-108863941D01*
X68855630Y-108860386D01*
X68844270Y-108855474D01*
X68836040Y-108848987D01*
X68831525Y-108844330D01*
X68824729Y-108836081D01*
X68819420Y-108825861D01*
X68815414Y-108810992D01*
X68812529Y-108788794D01*
X68810582Y-108756585D01*
X68809389Y-108711688D01*
X68808769Y-108651420D01*
X68808537Y-108573103D01*
X68808508Y-108507186D01*
X68808579Y-108414820D01*
X68808916Y-108342309D01*
X68809706Y-108286929D01*
X68811134Y-108245957D01*
X68813387Y-108216670D01*
X68816651Y-108196345D01*
X68821112Y-108182258D01*
X68826956Y-108171687D01*
X68831905Y-108165003D01*
X68855302Y-108135259D01*
X69145482Y-108135259D01*
X69242051Y-108135452D01*
G36*
X69242051Y-108135452D02*
G01*
X69318409Y-108136366D01*
X69376925Y-108138503D01*
X69419963Y-108142367D01*
X69449891Y-108148459D01*
X69469076Y-108157282D01*
X69479884Y-108169338D01*
X69484681Y-108185131D01*
X69485835Y-108205162D01*
X69485841Y-108207527D01*
X69484839Y-108230184D01*
X69480104Y-108247695D01*
X69469041Y-108260766D01*
X69449056Y-108270105D01*
X69417554Y-108276419D01*
X69371940Y-108280414D01*
X69309621Y-108282798D01*
X69228001Y-108284278D01*
X69202985Y-108284606D01*
X68960908Y-108287659D01*
X68957522Y-108352570D01*
X68954137Y-108417481D01*
X69122284Y-108417481D01*
X69187974Y-108417723D01*
X69234880Y-108418748D01*
X69266791Y-108421003D01*
X69287499Y-108424934D01*
X69300792Y-108430990D01*
X69310463Y-108439616D01*
X69310525Y-108439685D01*
X69328064Y-108473304D01*
X69327430Y-108509640D01*
X69309022Y-108540615D01*
X69305379Y-108543799D01*
X69292449Y-108552004D01*
X69274732Y-108557713D01*
X69248278Y-108561354D01*
X69209140Y-108563359D01*
X69153370Y-108564156D01*
X69117702Y-108564237D01*
X68955263Y-108564237D01*
X68955263Y-108722281D01*
X69201869Y-108722281D01*
X69283288Y-108722423D01*
X69345118Y-108723006D01*
X69390345Y-108724260D01*
X69421956Y-108726419D01*
X69442939Y-108729715D01*
X69456281Y-108734381D01*
X69464969Y-108740649D01*
X69467158Y-108742925D01*
X69483322Y-108774472D01*
X69484505Y-108810360D01*
X69471244Y-108841477D01*
X69460751Y-108851463D01*
X69449837Y-108856961D01*
X69432925Y-108861214D01*
X69407341Y-108864372D01*
X69370409Y-108866584D01*
X69319454Y-108867998D01*
X69251802Y-108868764D01*
X69164777Y-108869030D01*
X69145102Y-108869037D01*
X69056619Y-108868979D01*
X68987935Y-108868659D01*
X68936272Y-108867859D01*
X68898853Y-108866359D01*
X68872898Y-108863941D01*
X68855630Y-108860386D01*
X68844270Y-108855474D01*
X68836040Y-108848987D01*
X68831525Y-108844330D01*
X68824729Y-108836081D01*
X68819420Y-108825861D01*
X68815414Y-108810992D01*
X68812529Y-108788794D01*
X68810582Y-108756585D01*
X68809389Y-108711688D01*
X68808769Y-108651420D01*
X68808537Y-108573103D01*
X68808508Y-108507186D01*
X68808579Y-108414820D01*
X68808916Y-108342309D01*
X68809706Y-108286929D01*
X68811134Y-108245957D01*
X68813387Y-108216670D01*
X68816651Y-108196345D01*
X68821112Y-108182258D01*
X68826956Y-108171687D01*
X68831905Y-108165003D01*
X68855302Y-108135259D01*
X69145482Y-108135259D01*
X69242051Y-108135452D01*
G37*
X64298914Y-108135338D02*
X64368322Y-108135710D01*
X64420711Y-108136577D01*
X64458861Y-108138138D01*
X64485549Y-108140595D01*
X64503555Y-108144149D01*
X64515659Y-108149002D01*
X64524639Y-108155353D01*
X64527890Y-108158276D01*
X64547665Y-108189334D01*
X64551226Y-108225020D01*
X64538217Y-108256702D01*
X64532202Y-108263105D01*
X64522473Y-108269313D01*
X64506807Y-108274102D01*
X64482300Y-108277706D01*
X64446047Y-108280356D01*
X64395143Y-108282287D01*
X64326682Y-108283731D01*
X64264091Y-108284610D01*
X64016374Y-108287659D01*
X64012989Y-108352570D01*
X64009603Y-108417481D01*
X64177750Y-108417481D01*
X64250749Y-108418111D01*
X64304191Y-108420745D01*
X64341080Y-108426501D01*
X64364420Y-108436496D01*
X64377214Y-108451848D01*
X64382466Y-108473674D01*
X64383263Y-108493930D01*
X64380785Y-108518784D01*
X64371431Y-108537098D01*
X64352325Y-108549829D01*
X64320590Y-108557933D01*
X64273349Y-108562368D01*
X64207725Y-108564091D01*
X64171907Y-108564237D01*
X64010730Y-108564237D01*
X64010730Y-108722281D01*
X64259086Y-108722281D01*
X64340495Y-108722394D01*
X64402366Y-108722904D01*
X64447740Y-108724062D01*
X64479654Y-108726122D01*
X64501149Y-108729338D01*
X64515265Y-108733964D01*
X64525040Y-108740251D01*
X64530019Y-108744859D01*
X64547098Y-108771752D01*
X64552597Y-108795659D01*
X64544745Y-108824859D01*
X64530019Y-108846459D01*
X64522162Y-108853258D01*
X64512020Y-108858538D01*
X64496864Y-108862490D01*
X64473967Y-108865305D01*
X64440599Y-108867174D01*
X64394033Y-108868290D01*
X64331541Y-108868843D01*
X64250394Y-108869025D01*
X64208286Y-108869037D01*
X64118110Y-108868957D01*
X64047784Y-108868590D01*
X63994579Y-108867744D01*
X63955768Y-108866228D01*
X63928621Y-108863851D01*
X63910410Y-108860421D01*
X63898408Y-108855746D01*
X63889886Y-108849636D01*
X63886552Y-108846459D01*
X63879953Y-108838862D01*
X63874781Y-108829062D01*
X63870862Y-108814431D01*
X63868024Y-108792344D01*
X63866093Y-108760174D01*
X63864896Y-108715295D01*
X63864260Y-108655081D01*
X63864011Y-108576905D01*
X63863974Y-108504115D01*
X63864008Y-108410899D01*
X63864243Y-108337623D01*
X63864878Y-108281650D01*
X63866114Y-108240343D01*
X63868152Y-108211064D01*
X63871191Y-108191176D01*
X63875431Y-108178042D01*
X63881073Y-108169024D01*
X63888317Y-108161485D01*
X63890102Y-108159804D01*
X63898763Y-108152364D01*
X63908826Y-108146601D01*
X63923083Y-108142304D01*
X63944325Y-108139256D01*
X63975344Y-108137243D01*
X64018931Y-108136052D01*
X64077877Y-108135467D01*
X64154974Y-108135275D01*
X64209707Y-108135259D01*
X64298914Y-108135338D01*
G36*
X64298914Y-108135338D02*
G01*
X64368322Y-108135710D01*
X64420711Y-108136577D01*
X64458861Y-108138138D01*
X64485549Y-108140595D01*
X64503555Y-108144149D01*
X64515659Y-108149002D01*
X64524639Y-108155353D01*
X64527890Y-108158276D01*
X64547665Y-108189334D01*
X64551226Y-108225020D01*
X64538217Y-108256702D01*
X64532202Y-108263105D01*
X64522473Y-108269313D01*
X64506807Y-108274102D01*
X64482300Y-108277706D01*
X64446047Y-108280356D01*
X64395143Y-108282287D01*
X64326682Y-108283731D01*
X64264091Y-108284610D01*
X64016374Y-108287659D01*
X64012989Y-108352570D01*
X64009603Y-108417481D01*
X64177750Y-108417481D01*
X64250749Y-108418111D01*
X64304191Y-108420745D01*
X64341080Y-108426501D01*
X64364420Y-108436496D01*
X64377214Y-108451848D01*
X64382466Y-108473674D01*
X64383263Y-108493930D01*
X64380785Y-108518784D01*
X64371431Y-108537098D01*
X64352325Y-108549829D01*
X64320590Y-108557933D01*
X64273349Y-108562368D01*
X64207725Y-108564091D01*
X64171907Y-108564237D01*
X64010730Y-108564237D01*
X64010730Y-108722281D01*
X64259086Y-108722281D01*
X64340495Y-108722394D01*
X64402366Y-108722904D01*
X64447740Y-108724062D01*
X64479654Y-108726122D01*
X64501149Y-108729338D01*
X64515265Y-108733964D01*
X64525040Y-108740251D01*
X64530019Y-108744859D01*
X64547098Y-108771752D01*
X64552597Y-108795659D01*
X64544745Y-108824859D01*
X64530019Y-108846459D01*
X64522162Y-108853258D01*
X64512020Y-108858538D01*
X64496864Y-108862490D01*
X64473967Y-108865305D01*
X64440599Y-108867174D01*
X64394033Y-108868290D01*
X64331541Y-108868843D01*
X64250394Y-108869025D01*
X64208286Y-108869037D01*
X64118110Y-108868957D01*
X64047784Y-108868590D01*
X63994579Y-108867744D01*
X63955768Y-108866228D01*
X63928621Y-108863851D01*
X63910410Y-108860421D01*
X63898408Y-108855746D01*
X63889886Y-108849636D01*
X63886552Y-108846459D01*
X63879953Y-108838862D01*
X63874781Y-108829062D01*
X63870862Y-108814431D01*
X63868024Y-108792344D01*
X63866093Y-108760174D01*
X63864896Y-108715295D01*
X63864260Y-108655081D01*
X63864011Y-108576905D01*
X63863974Y-108504115D01*
X63864008Y-108410899D01*
X63864243Y-108337623D01*
X63864878Y-108281650D01*
X63866114Y-108240343D01*
X63868152Y-108211064D01*
X63871191Y-108191176D01*
X63875431Y-108178042D01*
X63881073Y-108169024D01*
X63888317Y-108161485D01*
X63890102Y-108159804D01*
X63898763Y-108152364D01*
X63908826Y-108146601D01*
X63923083Y-108142304D01*
X63944325Y-108139256D01*
X63975344Y-108137243D01*
X64018931Y-108136052D01*
X64077877Y-108135467D01*
X64154974Y-108135275D01*
X64209707Y-108135259D01*
X64298914Y-108135338D01*
G37*
X72756373Y-108137226D02*
X72775963Y-108144227D01*
X72776718Y-108144569D01*
X72803321Y-108164870D01*
X72817978Y-108185753D01*
X72820846Y-108195544D01*
X72820704Y-108208553D01*
X72816669Y-108227087D01*
X72807854Y-108253449D01*
X72793377Y-108289944D01*
X72772353Y-108338879D01*
X72743896Y-108402557D01*
X72707123Y-108483285D01*
X72686883Y-108527408D01*
X72650333Y-108606177D01*
X72616023Y-108678615D01*
X72585260Y-108742072D01*
X72559356Y-108793900D01*
X72539618Y-108831451D01*
X72527358Y-108852076D01*
X72524932Y-108854925D01*
X72493891Y-108867494D01*
X72458829Y-108865811D01*
X72430708Y-108850524D01*
X72429562Y-108849281D01*
X72418376Y-108832346D01*
X72399612Y-108799362D01*
X72375583Y-108754572D01*
X72348605Y-108702224D01*
X72338909Y-108682934D01*
X72265722Y-108536342D01*
X72185948Y-108695585D01*
X72157475Y-108750607D01*
X72131058Y-108798324D01*
X72108856Y-108835085D01*
X72093027Y-108857236D01*
X72087662Y-108861933D01*
X72045965Y-108868294D01*
X72011557Y-108854925D01*
X72001436Y-108840638D01*
X71983922Y-108808884D01*
X71960443Y-108762789D01*
X71932428Y-108705477D01*
X71901307Y-108640072D01*
X71868507Y-108569699D01*
X71835458Y-108497483D01*
X71803589Y-108426547D01*
X71774327Y-108360017D01*
X71749103Y-108301018D01*
X71729344Y-108252673D01*
X71716480Y-108218107D01*
X71711939Y-108200445D01*
X71711985Y-108199805D01*
X71723034Y-108177580D01*
X71745118Y-108154945D01*
X71746418Y-108153960D01*
X71773561Y-108138617D01*
X71798666Y-108138766D01*
X71808076Y-108141658D01*
X71819542Y-108147910D01*
X71831718Y-108160206D01*
X71846065Y-108181100D01*
X71864044Y-108213141D01*
X71887115Y-108258880D01*
X71916738Y-108320869D01*
X71943453Y-108378090D01*
X71974188Y-108444418D01*
X72001729Y-108504066D01*
X72024646Y-108553917D01*
X72041506Y-108590856D01*
X72050881Y-108611765D01*
X72052248Y-108615037D01*
X72058397Y-108609689D01*
X72072530Y-108587301D01*
X72092765Y-108551138D01*
X72117223Y-108504469D01*
X72126956Y-108485214D01*
X72159925Y-108420196D01*
X72185351Y-108372846D01*
X72205320Y-108340411D01*
X72221918Y-108320138D01*
X72237232Y-108309274D01*
X72253348Y-108305067D01*
X72263851Y-108304592D01*
X72282378Y-108306234D01*
X72298612Y-108313023D01*
X72314743Y-108327758D01*
X72332959Y-108353236D01*
X72355447Y-108392253D01*
X72384397Y-108447606D01*
X72400370Y-108479095D01*
X72426278Y-108529279D01*
X72448875Y-108570896D01*
X72466166Y-108600434D01*
X72476158Y-108614381D01*
X72477517Y-108614962D01*
X72483969Y-108603985D01*
X72498416Y-108575482D01*
X72519411Y-108532436D01*
X72545505Y-108477830D01*
X72575254Y-108414646D01*
X72589888Y-108383263D01*
X72627958Y-108302270D01*
X72658613Y-108239948D01*
X72683445Y-108194263D01*
X72704045Y-108163181D01*
X72722006Y-108144670D01*
X72738918Y-108136696D01*
X72756373Y-108137226D01*
G36*
X72756373Y-108137226D02*
G01*
X72775963Y-108144227D01*
X72776718Y-108144569D01*
X72803321Y-108164870D01*
X72817978Y-108185753D01*
X72820846Y-108195544D01*
X72820704Y-108208553D01*
X72816669Y-108227087D01*
X72807854Y-108253449D01*
X72793377Y-108289944D01*
X72772353Y-108338879D01*
X72743896Y-108402557D01*
X72707123Y-108483285D01*
X72686883Y-108527408D01*
X72650333Y-108606177D01*
X72616023Y-108678615D01*
X72585260Y-108742072D01*
X72559356Y-108793900D01*
X72539618Y-108831451D01*
X72527358Y-108852076D01*
X72524932Y-108854925D01*
X72493891Y-108867494D01*
X72458829Y-108865811D01*
X72430708Y-108850524D01*
X72429562Y-108849281D01*
X72418376Y-108832346D01*
X72399612Y-108799362D01*
X72375583Y-108754572D01*
X72348605Y-108702224D01*
X72338909Y-108682934D01*
X72265722Y-108536342D01*
X72185948Y-108695585D01*
X72157475Y-108750607D01*
X72131058Y-108798324D01*
X72108856Y-108835085D01*
X72093027Y-108857236D01*
X72087662Y-108861933D01*
X72045965Y-108868294D01*
X72011557Y-108854925D01*
X72001436Y-108840638D01*
X71983922Y-108808884D01*
X71960443Y-108762789D01*
X71932428Y-108705477D01*
X71901307Y-108640072D01*
X71868507Y-108569699D01*
X71835458Y-108497483D01*
X71803589Y-108426547D01*
X71774327Y-108360017D01*
X71749103Y-108301018D01*
X71729344Y-108252673D01*
X71716480Y-108218107D01*
X71711939Y-108200445D01*
X71711985Y-108199805D01*
X71723034Y-108177580D01*
X71745118Y-108154945D01*
X71746418Y-108153960D01*
X71773561Y-108138617D01*
X71798666Y-108138766D01*
X71808076Y-108141658D01*
X71819542Y-108147910D01*
X71831718Y-108160206D01*
X71846065Y-108181100D01*
X71864044Y-108213141D01*
X71887115Y-108258880D01*
X71916738Y-108320869D01*
X71943453Y-108378090D01*
X71974188Y-108444418D01*
X72001729Y-108504066D01*
X72024646Y-108553917D01*
X72041506Y-108590856D01*
X72050881Y-108611765D01*
X72052248Y-108615037D01*
X72058397Y-108609689D01*
X72072530Y-108587301D01*
X72092765Y-108551138D01*
X72117223Y-108504469D01*
X72126956Y-108485214D01*
X72159925Y-108420196D01*
X72185351Y-108372846D01*
X72205320Y-108340411D01*
X72221918Y-108320138D01*
X72237232Y-108309274D01*
X72253348Y-108305067D01*
X72263851Y-108304592D01*
X72282378Y-108306234D01*
X72298612Y-108313023D01*
X72314743Y-108327758D01*
X72332959Y-108353236D01*
X72355447Y-108392253D01*
X72384397Y-108447606D01*
X72400370Y-108479095D01*
X72426278Y-108529279D01*
X72448875Y-108570896D01*
X72466166Y-108600434D01*
X72476158Y-108614381D01*
X72477517Y-108614962D01*
X72483969Y-108603985D01*
X72498416Y-108575482D01*
X72519411Y-108532436D01*
X72545505Y-108477830D01*
X72575254Y-108414646D01*
X72589888Y-108383263D01*
X72627958Y-108302270D01*
X72658613Y-108239948D01*
X72683445Y-108194263D01*
X72704045Y-108163181D01*
X72722006Y-108144670D01*
X72738918Y-108136696D01*
X72756373Y-108137226D01*
G37*
X65320005Y-108136543D02*
X65394820Y-108141773D01*
X65464402Y-108149942D01*
X65524706Y-108160742D01*
X65571688Y-108173865D01*
X65601302Y-108189005D01*
X65605848Y-108193461D01*
X65621654Y-108228042D01*
X65616861Y-108263543D01*
X65592344Y-108293917D01*
X65591174Y-108294788D01*
X65576754Y-108304146D01*
X65561700Y-108309068D01*
X65540703Y-108309665D01*
X65508451Y-108306053D01*
X65459635Y-108298346D01*
X65455708Y-108297697D01*
X65382969Y-108288761D01*
X65304491Y-108284353D01*
X65225781Y-108284311D01*
X65152347Y-108288471D01*
X65089697Y-108296671D01*
X65043338Y-108308749D01*
X65040292Y-108309963D01*
X65006660Y-108328807D01*
X64994844Y-108347877D01*
X65004094Y-108366631D01*
X65033661Y-108384529D01*
X65082797Y-108401029D01*
X65150751Y-108415588D01*
X65196063Y-108422598D01*
X65290252Y-108436081D01*
X65365164Y-108448406D01*
X65423991Y-108460641D01*
X65469923Y-108473853D01*
X65506153Y-108489109D01*
X65535870Y-108507477D01*
X65562266Y-108530023D01*
X65583478Y-108552163D01*
X65608643Y-108583011D01*
X65621027Y-108609537D01*
X65624900Y-108642218D01*
X65625041Y-108654187D01*
X65622132Y-108693904D01*
X65610506Y-108723451D01*
X65590385Y-108749678D01*
X65549492Y-108789768D01*
X65503891Y-108820341D01*
X65450195Y-108842395D01*
X65385016Y-108856927D01*
X65304964Y-108864933D01*
X65206651Y-108867410D01*
X65190419Y-108867369D01*
X65124859Y-108866010D01*
X65059842Y-108862922D01*
X65002456Y-108858548D01*
X64959786Y-108853332D01*
X64956336Y-108852733D01*
X64913912Y-108842683D01*
X64877928Y-108829988D01*
X64857558Y-108818382D01*
X64838601Y-108787764D01*
X64837281Y-108752110D01*
X64853623Y-108720336D01*
X64857279Y-108716743D01*
X64872393Y-108706068D01*
X64891293Y-108701468D01*
X64920546Y-108702251D01*
X64956057Y-108706319D01*
X64995738Y-108709954D01*
X65051363Y-108713020D01*
X65116302Y-108715245D01*
X65183923Y-108716356D01*
X65201708Y-108716429D01*
X65269580Y-108716156D01*
X65319254Y-108714838D01*
X65355098Y-108712019D01*
X65381484Y-108707242D01*
X65402782Y-108700049D01*
X65415582Y-108694059D01*
X65443708Y-108677425D01*
X65461640Y-108662360D01*
X65464261Y-108658089D01*
X65458732Y-108640455D01*
X65432448Y-108623384D01*
X65387230Y-108607650D01*
X65324900Y-108594030D01*
X65306537Y-108590996D01*
X65210618Y-108575930D01*
X65134067Y-108563338D01*
X65073928Y-108552303D01*
X65027248Y-108541912D01*
X64991071Y-108531248D01*
X64962443Y-108519397D01*
X64938410Y-108505443D01*
X64916016Y-108488473D01*
X64892306Y-108467570D01*
X64884328Y-108460241D01*
X64856355Y-108432891D01*
X64841548Y-108411221D01*
X64835756Y-108386424D01*
X64834819Y-108355175D01*
X64845133Y-108293897D01*
X64875956Y-108241832D01*
X64927113Y-108199150D01*
X64998425Y-108166017D01*
X65049308Y-108151156D01*
X65104608Y-108141558D01*
X65170855Y-108136128D01*
X65244002Y-108134559D01*
X65320005Y-108136543D01*
G36*
X65320005Y-108136543D02*
G01*
X65394820Y-108141773D01*
X65464402Y-108149942D01*
X65524706Y-108160742D01*
X65571688Y-108173865D01*
X65601302Y-108189005D01*
X65605848Y-108193461D01*
X65621654Y-108228042D01*
X65616861Y-108263543D01*
X65592344Y-108293917D01*
X65591174Y-108294788D01*
X65576754Y-108304146D01*
X65561700Y-108309068D01*
X65540703Y-108309665D01*
X65508451Y-108306053D01*
X65459635Y-108298346D01*
X65455708Y-108297697D01*
X65382969Y-108288761D01*
X65304491Y-108284353D01*
X65225781Y-108284311D01*
X65152347Y-108288471D01*
X65089697Y-108296671D01*
X65043338Y-108308749D01*
X65040292Y-108309963D01*
X65006660Y-108328807D01*
X64994844Y-108347877D01*
X65004094Y-108366631D01*
X65033661Y-108384529D01*
X65082797Y-108401029D01*
X65150751Y-108415588D01*
X65196063Y-108422598D01*
X65290252Y-108436081D01*
X65365164Y-108448406D01*
X65423991Y-108460641D01*
X65469923Y-108473853D01*
X65506153Y-108489109D01*
X65535870Y-108507477D01*
X65562266Y-108530023D01*
X65583478Y-108552163D01*
X65608643Y-108583011D01*
X65621027Y-108609537D01*
X65624900Y-108642218D01*
X65625041Y-108654187D01*
X65622132Y-108693904D01*
X65610506Y-108723451D01*
X65590385Y-108749678D01*
X65549492Y-108789768D01*
X65503891Y-108820341D01*
X65450195Y-108842395D01*
X65385016Y-108856927D01*
X65304964Y-108864933D01*
X65206651Y-108867410D01*
X65190419Y-108867369D01*
X65124859Y-108866010D01*
X65059842Y-108862922D01*
X65002456Y-108858548D01*
X64959786Y-108853332D01*
X64956336Y-108852733D01*
X64913912Y-108842683D01*
X64877928Y-108829988D01*
X64857558Y-108818382D01*
X64838601Y-108787764D01*
X64837281Y-108752110D01*
X64853623Y-108720336D01*
X64857279Y-108716743D01*
X64872393Y-108706068D01*
X64891293Y-108701468D01*
X64920546Y-108702251D01*
X64956057Y-108706319D01*
X64995738Y-108709954D01*
X65051363Y-108713020D01*
X65116302Y-108715245D01*
X65183923Y-108716356D01*
X65201708Y-108716429D01*
X65269580Y-108716156D01*
X65319254Y-108714838D01*
X65355098Y-108712019D01*
X65381484Y-108707242D01*
X65402782Y-108700049D01*
X65415582Y-108694059D01*
X65443708Y-108677425D01*
X65461640Y-108662360D01*
X65464261Y-108658089D01*
X65458732Y-108640455D01*
X65432448Y-108623384D01*
X65387230Y-108607650D01*
X65324900Y-108594030D01*
X65306537Y-108590996D01*
X65210618Y-108575930D01*
X65134067Y-108563338D01*
X65073928Y-108552303D01*
X65027248Y-108541912D01*
X64991071Y-108531248D01*
X64962443Y-108519397D01*
X64938410Y-108505443D01*
X64916016Y-108488473D01*
X64892306Y-108467570D01*
X64884328Y-108460241D01*
X64856355Y-108432891D01*
X64841548Y-108411221D01*
X64835756Y-108386424D01*
X64834819Y-108355175D01*
X64845133Y-108293897D01*
X64875956Y-108241832D01*
X64927113Y-108199150D01*
X64998425Y-108166017D01*
X65049308Y-108151156D01*
X65104608Y-108141558D01*
X65170855Y-108136128D01*
X65244002Y-108134559D01*
X65320005Y-108136543D01*
G37*
X69439962Y-102660499D02*
X69588014Y-102676707D01*
X69731452Y-102705718D01*
X69876110Y-102749045D01*
X70027824Y-102808201D01*
X70192428Y-102884700D01*
X70222071Y-102899517D01*
X70290098Y-102933031D01*
X70354256Y-102963208D01*
X70408215Y-102987166D01*
X70445640Y-103002024D01*
X70451389Y-103003895D01*
X70506486Y-103020402D01*
X70259851Y-103379201D01*
X70199552Y-103466893D01*
X70144422Y-103547012D01*
X70096336Y-103616836D01*
X70057168Y-103673647D01*
X70028794Y-103714723D01*
X70013087Y-103737346D01*
X70010536Y-103740928D01*
X70000171Y-103733438D01*
X69974660Y-103710918D01*
X69938563Y-103677461D01*
X69918642Y-103658550D01*
X69805773Y-103568778D01*
X69679014Y-103500561D01*
X69569783Y-103463195D01*
X69504214Y-103451460D01*
X69422116Y-103444308D01*
X69333144Y-103441874D01*
X69246956Y-103444288D01*
X69173205Y-103451683D01*
X69143776Y-103457347D01*
X69011133Y-103502982D01*
X68891606Y-103572663D01*
X68785283Y-103666260D01*
X68692253Y-103783649D01*
X68612605Y-103924700D01*
X68546426Y-104089286D01*
X68493806Y-104277280D01*
X68462533Y-104438217D01*
X68454374Y-104509263D01*
X68448815Y-104601046D01*
X68445802Y-104706968D01*
X68445281Y-104820434D01*
X68447200Y-104934849D01*
X68451503Y-105043617D01*
X68458137Y-105140143D01*
X68467049Y-105217831D01*
X68468979Y-105229817D01*
X68511499Y-105422892D01*
X68569433Y-105593773D01*
X68643133Y-105743224D01*
X68732951Y-105872011D01*
X68796707Y-105941639D01*
X68911286Y-106036173D01*
X69036942Y-106106246D01*
X69171557Y-106151477D01*
X69313011Y-106171484D01*
X69459183Y-106165885D01*
X69607955Y-106134300D01*
X69695911Y-106103394D01*
X69817629Y-106041506D01*
X69943080Y-105952729D01*
X70013353Y-105892694D01*
X70052811Y-105857947D01*
X70083812Y-105832454D01*
X70101458Y-105820170D01*
X70103648Y-105819795D01*
X70111524Y-105832347D01*
X70131932Y-105865516D01*
X70163132Y-105916458D01*
X70203386Y-105982331D01*
X70250957Y-106060289D01*
X70304104Y-106147490D01*
X70333687Y-106196067D01*
X70559648Y-106567215D01*
X70277527Y-106706639D01*
X70175522Y-106756719D01*
X70092889Y-106796210D01*
X70024578Y-106827073D01*
X69965537Y-106851268D01*
X69910714Y-106870758D01*
X69855060Y-106887503D01*
X69793523Y-106903465D01*
X69734540Y-106917482D01*
X69682115Y-106928329D01*
X69627288Y-106936526D01*
X69564572Y-106942528D01*
X69488477Y-106946790D01*
X69393516Y-106949767D01*
X69329513Y-106951052D01*
X69238192Y-106951930D01*
X69150627Y-106951487D01*
X69072612Y-106949852D01*
X69009942Y-106947149D01*
X68968413Y-106943505D01*
X68965952Y-106943142D01*
X68750303Y-106896487D01*
X68547793Y-106825729D01*
X68358495Y-106730914D01*
X68182479Y-106612089D01*
X68019816Y-106469300D01*
X67870578Y-106302594D01*
X67762496Y-106154433D01*
X67647434Y-105960502D01*
X67554423Y-105755699D01*
X67483013Y-105538383D01*
X67432756Y-105306912D01*
X67403201Y-105059643D01*
X67393889Y-104808559D01*
X67401548Y-104565670D01*
X67425613Y-104341570D01*
X67466852Y-104132477D01*
X67526027Y-103934613D01*
X67603904Y-103744196D01*
X67613203Y-103724468D01*
X67715648Y-103540059D01*
X67841472Y-103364576D01*
X67987112Y-103201650D01*
X68149001Y-103054914D01*
X68323576Y-102928001D01*
X68486244Y-102834905D01*
X68650573Y-102761991D01*
X68815251Y-102709174D01*
X68986652Y-102675015D01*
X69171153Y-102658078D01*
X69281459Y-102655580D01*
X69439962Y-102660499D01*
G36*
X69439962Y-102660499D02*
G01*
X69588014Y-102676707D01*
X69731452Y-102705718D01*
X69876110Y-102749045D01*
X70027824Y-102808201D01*
X70192428Y-102884700D01*
X70222071Y-102899517D01*
X70290098Y-102933031D01*
X70354256Y-102963208D01*
X70408215Y-102987166D01*
X70445640Y-103002024D01*
X70451389Y-103003895D01*
X70506486Y-103020402D01*
X70259851Y-103379201D01*
X70199552Y-103466893D01*
X70144422Y-103547012D01*
X70096336Y-103616836D01*
X70057168Y-103673647D01*
X70028794Y-103714723D01*
X70013087Y-103737346D01*
X70010536Y-103740928D01*
X70000171Y-103733438D01*
X69974660Y-103710918D01*
X69938563Y-103677461D01*
X69918642Y-103658550D01*
X69805773Y-103568778D01*
X69679014Y-103500561D01*
X69569783Y-103463195D01*
X69504214Y-103451460D01*
X69422116Y-103444308D01*
X69333144Y-103441874D01*
X69246956Y-103444288D01*
X69173205Y-103451683D01*
X69143776Y-103457347D01*
X69011133Y-103502982D01*
X68891606Y-103572663D01*
X68785283Y-103666260D01*
X68692253Y-103783649D01*
X68612605Y-103924700D01*
X68546426Y-104089286D01*
X68493806Y-104277280D01*
X68462533Y-104438217D01*
X68454374Y-104509263D01*
X68448815Y-104601046D01*
X68445802Y-104706968D01*
X68445281Y-104820434D01*
X68447200Y-104934849D01*
X68451503Y-105043617D01*
X68458137Y-105140143D01*
X68467049Y-105217831D01*
X68468979Y-105229817D01*
X68511499Y-105422892D01*
X68569433Y-105593773D01*
X68643133Y-105743224D01*
X68732951Y-105872011D01*
X68796707Y-105941639D01*
X68911286Y-106036173D01*
X69036942Y-106106246D01*
X69171557Y-106151477D01*
X69313011Y-106171484D01*
X69459183Y-106165885D01*
X69607955Y-106134300D01*
X69695911Y-106103394D01*
X69817629Y-106041506D01*
X69943080Y-105952729D01*
X70013353Y-105892694D01*
X70052811Y-105857947D01*
X70083812Y-105832454D01*
X70101458Y-105820170D01*
X70103648Y-105819795D01*
X70111524Y-105832347D01*
X70131932Y-105865516D01*
X70163132Y-105916458D01*
X70203386Y-105982331D01*
X70250957Y-106060289D01*
X70304104Y-106147490D01*
X70333687Y-106196067D01*
X70559648Y-106567215D01*
X70277527Y-106706639D01*
X70175522Y-106756719D01*
X70092889Y-106796210D01*
X70024578Y-106827073D01*
X69965537Y-106851268D01*
X69910714Y-106870758D01*
X69855060Y-106887503D01*
X69793523Y-106903465D01*
X69734540Y-106917482D01*
X69682115Y-106928329D01*
X69627288Y-106936526D01*
X69564572Y-106942528D01*
X69488477Y-106946790D01*
X69393516Y-106949767D01*
X69329513Y-106951052D01*
X69238192Y-106951930D01*
X69150627Y-106951487D01*
X69072612Y-106949852D01*
X69009942Y-106947149D01*
X68968413Y-106943505D01*
X68965952Y-106943142D01*
X68750303Y-106896487D01*
X68547793Y-106825729D01*
X68358495Y-106730914D01*
X68182479Y-106612089D01*
X68019816Y-106469300D01*
X67870578Y-106302594D01*
X67762496Y-106154433D01*
X67647434Y-105960502D01*
X67554423Y-105755699D01*
X67483013Y-105538383D01*
X67432756Y-105306912D01*
X67403201Y-105059643D01*
X67393889Y-104808559D01*
X67401548Y-104565670D01*
X67425613Y-104341570D01*
X67466852Y-104132477D01*
X67526027Y-103934613D01*
X67603904Y-103744196D01*
X67613203Y-103724468D01*
X67715648Y-103540059D01*
X67841472Y-103364576D01*
X67987112Y-103201650D01*
X68149001Y-103054914D01*
X68323576Y-102928001D01*
X68486244Y-102834905D01*
X68650573Y-102761991D01*
X68815251Y-102709174D01*
X68986652Y-102675015D01*
X69171153Y-102658078D01*
X69281459Y-102655580D01*
X69439962Y-102660499D01*
G37*
X75842270Y-102456825D02*
X75959041Y-102457304D01*
X75998729Y-102457545D01*
X76544486Y-102461135D01*
X76551351Y-104554919D01*
X76552258Y-104838842D01*
X76553062Y-105096640D01*
X76553815Y-105329646D01*
X76554569Y-105539194D01*
X76555375Y-105726618D01*
X76556285Y-105893250D01*
X76557351Y-106040425D01*
X76558624Y-106169477D01*
X76560156Y-106281739D01*
X76561998Y-106378544D01*
X76564203Y-106461226D01*
X76566822Y-106531119D01*
X76569906Y-106589557D01*
X76573508Y-106637872D01*
X76577678Y-106677400D01*
X76582469Y-106709473D01*
X76587931Y-106735424D01*
X76594118Y-106756589D01*
X76601080Y-106774299D01*
X76608869Y-106789889D01*
X76617537Y-106804693D01*
X76627135Y-106820044D01*
X76637715Y-106837276D01*
X76639884Y-106840946D01*
X76676268Y-106903031D01*
X76150431Y-106899434D01*
X75624594Y-106895838D01*
X75617729Y-106780331D01*
X75613992Y-106724899D01*
X75610097Y-106692851D01*
X75604811Y-106680135D01*
X75596903Y-106682696D01*
X75590270Y-106690024D01*
X75561374Y-106716714D01*
X75514279Y-106751021D01*
X75455620Y-106788846D01*
X75392031Y-106826090D01*
X75330149Y-106858653D01*
X75282634Y-106880077D01*
X75171316Y-106915283D01*
X75043596Y-106940222D01*
X74908901Y-106953941D01*
X74776663Y-106955486D01*
X74656308Y-106943906D01*
X74654326Y-106943574D01*
X74489641Y-106902250D01*
X74335479Y-106836412D01*
X74193328Y-106747474D01*
X74064675Y-106636852D01*
X73951007Y-106505961D01*
X73853810Y-106356216D01*
X73774572Y-106189033D01*
X73731430Y-106065190D01*
X73702979Y-105961581D01*
X73681880Y-105861252D01*
X73667488Y-105758109D01*
X73659158Y-105646057D01*
X73656245Y-105519001D01*
X73657535Y-105415252D01*
X74670650Y-105415252D01*
X74675444Y-105589222D01*
X74690568Y-105738895D01*
X74716485Y-105865597D01*
X74753663Y-105970658D01*
X74802565Y-106055406D01*
X74863658Y-106121169D01*
X74934177Y-106167659D01*
X74970871Y-106185014D01*
X75002696Y-106195419D01*
X75038177Y-106200179D01*
X75085841Y-106200601D01*
X75137189Y-106198748D01*
X75238169Y-106189841D01*
X75318035Y-106172398D01*
X75343135Y-106163661D01*
X75400448Y-106137857D01*
X75460897Y-106105453D01*
X75487297Y-106089233D01*
X75555946Y-106044205D01*
X75555946Y-104616982D01*
X75480432Y-104571718D01*
X75375121Y-104520572D01*
X75267525Y-104490324D01*
X75161581Y-104480795D01*
X75061224Y-104491807D01*
X74970387Y-104523181D01*
X74893007Y-104574740D01*
X74868039Y-104599488D01*
X74807856Y-104680577D01*
X74759145Y-104778734D01*
X74721499Y-104895643D01*
X74694512Y-105032985D01*
X74677775Y-105192444D01*
X74670883Y-105375700D01*
X74670650Y-105415252D01*
X73657535Y-105415252D01*
X73658073Y-105372067D01*
X73669647Y-105146053D01*
X73692920Y-104942192D01*
X73728504Y-104757513D01*
X73777013Y-104589048D01*
X73839060Y-104433826D01*
X73861201Y-104387808D01*
X73950385Y-104237739D01*
X74058159Y-104104377D01*
X74181990Y-103989877D01*
X74319342Y-103896389D01*
X74467683Y-103826068D01*
X74556604Y-103797060D01*
X74643933Y-103779840D01*
X74749011Y-103769594D01*
X74863029Y-103766318D01*
X74977177Y-103770009D01*
X75082648Y-103780660D01*
X75167334Y-103797370D01*
X75268128Y-103830140D01*
X75365822Y-103872279D01*
X75451296Y-103919519D01*
X75496789Y-103951581D01*
X75528169Y-103975422D01*
X75550142Y-103989939D01*
X75555141Y-103992000D01*
X75556690Y-103978718D01*
X75558135Y-103940663D01*
X75559443Y-103880519D01*
X75560583Y-103800973D01*
X75561521Y-103704711D01*
X75562226Y-103594419D01*
X75562667Y-103472781D01*
X75562811Y-103348885D01*
X75562730Y-103190196D01*
X75562335Y-103056408D01*
X75561395Y-102944960D01*
X75559680Y-102853295D01*
X75556957Y-102778853D01*
X75552997Y-102719075D01*
X75547569Y-102671402D01*
X75540441Y-102633274D01*
X75531384Y-102602134D01*
X75520167Y-102575421D01*
X75506558Y-102550577D01*
X75490328Y-102525043D01*
X75488240Y-102521881D01*
X75467306Y-102488810D01*
X75454667Y-102466069D01*
X75452973Y-102461272D01*
X75466216Y-102459759D01*
X75504002Y-102458528D01*
X75563416Y-102457599D01*
X75641542Y-102456992D01*
X75735465Y-102456727D01*
X75842270Y-102456825D01*
G36*
X75842270Y-102456825D02*
G01*
X75959041Y-102457304D01*
X75998729Y-102457545D01*
X76544486Y-102461135D01*
X76551351Y-104554919D01*
X76552258Y-104838842D01*
X76553062Y-105096640D01*
X76553815Y-105329646D01*
X76554569Y-105539194D01*
X76555375Y-105726618D01*
X76556285Y-105893250D01*
X76557351Y-106040425D01*
X76558624Y-106169477D01*
X76560156Y-106281739D01*
X76561998Y-106378544D01*
X76564203Y-106461226D01*
X76566822Y-106531119D01*
X76569906Y-106589557D01*
X76573508Y-106637872D01*
X76577678Y-106677400D01*
X76582469Y-106709473D01*
X76587931Y-106735424D01*
X76594118Y-106756589D01*
X76601080Y-106774299D01*
X76608869Y-106789889D01*
X76617537Y-106804693D01*
X76627135Y-106820044D01*
X76637715Y-106837276D01*
X76639884Y-106840946D01*
X76676268Y-106903031D01*
X76150431Y-106899434D01*
X75624594Y-106895838D01*
X75617729Y-106780331D01*
X75613992Y-106724899D01*
X75610097Y-106692851D01*
X75604811Y-106680135D01*
X75596903Y-106682696D01*
X75590270Y-106690024D01*
X75561374Y-106716714D01*
X75514279Y-106751021D01*
X75455620Y-106788846D01*
X75392031Y-106826090D01*
X75330149Y-106858653D01*
X75282634Y-106880077D01*
X75171316Y-106915283D01*
X75043596Y-106940222D01*
X74908901Y-106953941D01*
X74776663Y-106955486D01*
X74656308Y-106943906D01*
X74654326Y-106943574D01*
X74489641Y-106902250D01*
X74335479Y-106836412D01*
X74193328Y-106747474D01*
X74064675Y-106636852D01*
X73951007Y-106505961D01*
X73853810Y-106356216D01*
X73774572Y-106189033D01*
X73731430Y-106065190D01*
X73702979Y-105961581D01*
X73681880Y-105861252D01*
X73667488Y-105758109D01*
X73659158Y-105646057D01*
X73656245Y-105519001D01*
X73657535Y-105415252D01*
X74670650Y-105415252D01*
X74675444Y-105589222D01*
X74690568Y-105738895D01*
X74716485Y-105865597D01*
X74753663Y-105970658D01*
X74802565Y-106055406D01*
X74863658Y-106121169D01*
X74934177Y-106167659D01*
X74970871Y-106185014D01*
X75002696Y-106195419D01*
X75038177Y-106200179D01*
X75085841Y-106200601D01*
X75137189Y-106198748D01*
X75238169Y-106189841D01*
X75318035Y-106172398D01*
X75343135Y-106163661D01*
X75400448Y-106137857D01*
X75460897Y-106105453D01*
X75487297Y-106089233D01*
X75555946Y-106044205D01*
X75555946Y-104616982D01*
X75480432Y-104571718D01*
X75375121Y-104520572D01*
X75267525Y-104490324D01*
X75161581Y-104480795D01*
X75061224Y-104491807D01*
X74970387Y-104523181D01*
X74893007Y-104574740D01*
X74868039Y-104599488D01*
X74807856Y-104680577D01*
X74759145Y-104778734D01*
X74721499Y-104895643D01*
X74694512Y-105032985D01*
X74677775Y-105192444D01*
X74670883Y-105375700D01*
X74670650Y-105415252D01*
X73657535Y-105415252D01*
X73658073Y-105372067D01*
X73669647Y-105146053D01*
X73692920Y-104942192D01*
X73728504Y-104757513D01*
X73777013Y-104589048D01*
X73839060Y-104433826D01*
X73861201Y-104387808D01*
X73950385Y-104237739D01*
X74058159Y-104104377D01*
X74181990Y-103989877D01*
X74319342Y-103896389D01*
X74467683Y-103826068D01*
X74556604Y-103797060D01*
X74643933Y-103779840D01*
X74749011Y-103769594D01*
X74863029Y-103766318D01*
X74977177Y-103770009D01*
X75082648Y-103780660D01*
X75167334Y-103797370D01*
X75268128Y-103830140D01*
X75365822Y-103872279D01*
X75451296Y-103919519D01*
X75496789Y-103951581D01*
X75528169Y-103975422D01*
X75550142Y-103989939D01*
X75555141Y-103992000D01*
X75556690Y-103978718D01*
X75558135Y-103940663D01*
X75559443Y-103880519D01*
X75560583Y-103800973D01*
X75561521Y-103704711D01*
X75562226Y-103594419D01*
X75562667Y-103472781D01*
X75562811Y-103348885D01*
X75562730Y-103190196D01*
X75562335Y-103056408D01*
X75561395Y-102944960D01*
X75559680Y-102853295D01*
X75556957Y-102778853D01*
X75552997Y-102719075D01*
X75547569Y-102671402D01*
X75540441Y-102633274D01*
X75531384Y-102602134D01*
X75520167Y-102575421D01*
X75506558Y-102550577D01*
X75490328Y-102525043D01*
X75488240Y-102521881D01*
X75467306Y-102488810D01*
X75454667Y-102466069D01*
X75452973Y-102461272D01*
X75466216Y-102459759D01*
X75504002Y-102458528D01*
X75563416Y-102457599D01*
X75641542Y-102456992D01*
X75735465Y-102456727D01*
X75842270Y-102456825D01*
G37*
X72167505Y-103764229D02*
X72235531Y-103769378D01*
X72430163Y-103795273D01*
X72602529Y-103836575D01*
X72753470Y-103893853D01*
X72883825Y-103967674D01*
X72994434Y-104058608D01*
X73086135Y-104167222D01*
X73159770Y-104294085D01*
X73213539Y-104431352D01*
X73227187Y-104475137D01*
X73239073Y-104516141D01*
X73249334Y-104556569D01*
X73258113Y-104598630D01*
X73265548Y-104644531D01*
X73271780Y-104696480D01*
X73276950Y-104756685D01*
X73281196Y-104827352D01*
X73284660Y-104910689D01*
X73287481Y-105008905D01*
X73289800Y-105124205D01*
X73291757Y-105258799D01*
X73293491Y-105414893D01*
X73295143Y-105594695D01*
X73296324Y-105735676D01*
X73304270Y-106703622D01*
X73355756Y-106796770D01*
X73380137Y-106841645D01*
X73398280Y-106876501D01*
X73406935Y-106895054D01*
X73407243Y-106896311D01*
X73394014Y-106897749D01*
X73356326Y-106899074D01*
X73297183Y-106900249D01*
X73219586Y-106901237D01*
X73126536Y-106901999D01*
X73021035Y-106902500D01*
X72906084Y-106902701D01*
X72892378Y-106902703D01*
X72377513Y-106902703D01*
X72377513Y-106786000D01*
X72376635Y-106733260D01*
X72374292Y-106692926D01*
X72370921Y-106671300D01*
X72369431Y-106669298D01*
X72355804Y-106677683D01*
X72327757Y-106699692D01*
X72291303Y-106730601D01*
X72290485Y-106731316D01*
X72223962Y-106780843D01*
X72139948Y-106830575D01*
X72047937Y-106875626D01*
X71957421Y-106911110D01*
X71917567Y-106923236D01*
X71838255Y-106938637D01*
X71740935Y-106948465D01*
X71634516Y-106952580D01*
X71527907Y-106950841D01*
X71430017Y-106943108D01*
X71361513Y-106931981D01*
X71193520Y-106882648D01*
X71042281Y-106812342D01*
X70908782Y-106721933D01*
X70794006Y-106612295D01*
X70698937Y-106484299D01*
X70624560Y-106338818D01*
X70592474Y-106250541D01*
X70572365Y-106164739D01*
X70559038Y-106061736D01*
X70552872Y-105951034D01*
X70553074Y-105934925D01*
X71481648Y-105934925D01*
X71489348Y-106017184D01*
X71514989Y-106085546D01*
X71562378Y-106148970D01*
X71580579Y-106167567D01*
X71645282Y-106217846D01*
X71720066Y-106250056D01*
X71809662Y-106265648D01*
X71904012Y-106266796D01*
X71993501Y-106259216D01*
X72062018Y-106244389D01*
X72091775Y-106233253D01*
X72145408Y-106202904D01*
X72202235Y-106160221D01*
X72254082Y-106112317D01*
X72292778Y-106066301D01*
X72303054Y-106049421D01*
X72311042Y-106025782D01*
X72316721Y-105988168D01*
X72320356Y-105932985D01*
X72322211Y-105856640D01*
X72322594Y-105783981D01*
X72322335Y-105699270D01*
X72321287Y-105638018D01*
X72319045Y-105596227D01*
X72315206Y-105569899D01*
X72309365Y-105555035D01*
X72301118Y-105547639D01*
X72298567Y-105546461D01*
X72276400Y-105542833D01*
X72232680Y-105539866D01*
X72173311Y-105537827D01*
X72104196Y-105536983D01*
X72089189Y-105536982D01*
X71996805Y-105538457D01*
X71925432Y-105542842D01*
X71868719Y-105550738D01*
X71821872Y-105562270D01*
X71705669Y-105606215D01*
X71614543Y-105660243D01*
X71547705Y-105725219D01*
X71504365Y-105802005D01*
X71483734Y-105891467D01*
X71481648Y-105934925D01*
X70553074Y-105934925D01*
X70554244Y-105842133D01*
X70563532Y-105744536D01*
X70570777Y-105705105D01*
X70617039Y-105558701D01*
X70687384Y-105423995D01*
X70780484Y-105302280D01*
X70895012Y-105194847D01*
X71029640Y-105102988D01*
X71183040Y-105027996D01*
X71313459Y-104982458D01*
X71400623Y-104958533D01*
X71483996Y-104939943D01*
X71568976Y-104926084D01*
X71660965Y-104916351D01*
X71765362Y-104910141D01*
X71887568Y-104906851D01*
X71998055Y-104905924D01*
X72325677Y-104905027D01*
X72319401Y-104806547D01*
X72301579Y-104699695D01*
X72263667Y-104607852D01*
X72207280Y-104533310D01*
X72134031Y-104478364D01*
X72069535Y-104451552D01*
X71977123Y-104434654D01*
X71867111Y-104432227D01*
X71744656Y-104443378D01*
X71614914Y-104467210D01*
X71483042Y-104502830D01*
X71354198Y-104549343D01*
X71260566Y-104591883D01*
X71215517Y-104613728D01*
X71181156Y-104628984D01*
X71163681Y-104634937D01*
X71162733Y-104634746D01*
X71156703Y-104621412D01*
X71141645Y-104586068D01*
X71118977Y-104532101D01*
X71090115Y-104462896D01*
X71056477Y-104381840D01*
X71022284Y-104299118D01*
X70885586Y-103967803D01*
X70982820Y-103951833D01*
X71024964Y-103943820D01*
X71088319Y-103930361D01*
X71167457Y-103912679D01*
X71256951Y-103891996D01*
X71351373Y-103869532D01*
X71388973Y-103860403D01*
X71551637Y-103822674D01*
X71694050Y-103794388D01*
X71821527Y-103774972D01*
X71939384Y-103763854D01*
X72052938Y-103760464D01*
X72167505Y-103764229D01*
G36*
X72167505Y-103764229D02*
G01*
X72235531Y-103769378D01*
X72430163Y-103795273D01*
X72602529Y-103836575D01*
X72753470Y-103893853D01*
X72883825Y-103967674D01*
X72994434Y-104058608D01*
X73086135Y-104167222D01*
X73159770Y-104294085D01*
X73213539Y-104431352D01*
X73227187Y-104475137D01*
X73239073Y-104516141D01*
X73249334Y-104556569D01*
X73258113Y-104598630D01*
X73265548Y-104644531D01*
X73271780Y-104696480D01*
X73276950Y-104756685D01*
X73281196Y-104827352D01*
X73284660Y-104910689D01*
X73287481Y-105008905D01*
X73289800Y-105124205D01*
X73291757Y-105258799D01*
X73293491Y-105414893D01*
X73295143Y-105594695D01*
X73296324Y-105735676D01*
X73304270Y-106703622D01*
X73355756Y-106796770D01*
X73380137Y-106841645D01*
X73398280Y-106876501D01*
X73406935Y-106895054D01*
X73407243Y-106896311D01*
X73394014Y-106897749D01*
X73356326Y-106899074D01*
X73297183Y-106900249D01*
X73219586Y-106901237D01*
X73126536Y-106901999D01*
X73021035Y-106902500D01*
X72906084Y-106902701D01*
X72892378Y-106902703D01*
X72377513Y-106902703D01*
X72377513Y-106786000D01*
X72376635Y-106733260D01*
X72374292Y-106692926D01*
X72370921Y-106671300D01*
X72369431Y-106669298D01*
X72355804Y-106677683D01*
X72327757Y-106699692D01*
X72291303Y-106730601D01*
X72290485Y-106731316D01*
X72223962Y-106780843D01*
X72139948Y-106830575D01*
X72047937Y-106875626D01*
X71957421Y-106911110D01*
X71917567Y-106923236D01*
X71838255Y-106938637D01*
X71740935Y-106948465D01*
X71634516Y-106952580D01*
X71527907Y-106950841D01*
X71430017Y-106943108D01*
X71361513Y-106931981D01*
X71193520Y-106882648D01*
X71042281Y-106812342D01*
X70908782Y-106721933D01*
X70794006Y-106612295D01*
X70698937Y-106484299D01*
X70624560Y-106338818D01*
X70592474Y-106250541D01*
X70572365Y-106164739D01*
X70559038Y-106061736D01*
X70552872Y-105951034D01*
X70553074Y-105934925D01*
X71481648Y-105934925D01*
X71489348Y-106017184D01*
X71514989Y-106085546D01*
X71562378Y-106148970D01*
X71580579Y-106167567D01*
X71645282Y-106217846D01*
X71720066Y-106250056D01*
X71809662Y-106265648D01*
X71904012Y-106266796D01*
X71993501Y-106259216D01*
X72062018Y-106244389D01*
X72091775Y-106233253D01*
X72145408Y-106202904D01*
X72202235Y-106160221D01*
X72254082Y-106112317D01*
X72292778Y-106066301D01*
X72303054Y-106049421D01*
X72311042Y-106025782D01*
X72316721Y-105988168D01*
X72320356Y-105932985D01*
X72322211Y-105856640D01*
X72322594Y-105783981D01*
X72322335Y-105699270D01*
X72321287Y-105638018D01*
X72319045Y-105596227D01*
X72315206Y-105569899D01*
X72309365Y-105555035D01*
X72301118Y-105547639D01*
X72298567Y-105546461D01*
X72276400Y-105542833D01*
X72232680Y-105539866D01*
X72173311Y-105537827D01*
X72104196Y-105536983D01*
X72089189Y-105536982D01*
X71996805Y-105538457D01*
X71925432Y-105542842D01*
X71868719Y-105550738D01*
X71821872Y-105562270D01*
X71705669Y-105606215D01*
X71614543Y-105660243D01*
X71547705Y-105725219D01*
X71504365Y-105802005D01*
X71483734Y-105891467D01*
X71481648Y-105934925D01*
X70553074Y-105934925D01*
X70554244Y-105842133D01*
X70563532Y-105744536D01*
X70570777Y-105705105D01*
X70617039Y-105558701D01*
X70687384Y-105423995D01*
X70780484Y-105302280D01*
X70895012Y-105194847D01*
X71029640Y-105102988D01*
X71183040Y-105027996D01*
X71313459Y-104982458D01*
X71400623Y-104958533D01*
X71483996Y-104939943D01*
X71568976Y-104926084D01*
X71660965Y-104916351D01*
X71765362Y-104910141D01*
X71887568Y-104906851D01*
X71998055Y-104905924D01*
X72325677Y-104905027D01*
X72319401Y-104806547D01*
X72301579Y-104699695D01*
X72263667Y-104607852D01*
X72207280Y-104533310D01*
X72134031Y-104478364D01*
X72069535Y-104451552D01*
X71977123Y-104434654D01*
X71867111Y-104432227D01*
X71744656Y-104443378D01*
X71614914Y-104467210D01*
X71483042Y-104502830D01*
X71354198Y-104549343D01*
X71260566Y-104591883D01*
X71215517Y-104613728D01*
X71181156Y-104628984D01*
X71163681Y-104634937D01*
X71162733Y-104634746D01*
X71156703Y-104621412D01*
X71141645Y-104586068D01*
X71118977Y-104532101D01*
X71090115Y-104462896D01*
X71056477Y-104381840D01*
X71022284Y-104299118D01*
X70885586Y-103967803D01*
X70982820Y-103951833D01*
X71024964Y-103943820D01*
X71088319Y-103930361D01*
X71167457Y-103912679D01*
X71256951Y-103891996D01*
X71351373Y-103869532D01*
X71388973Y-103860403D01*
X71551637Y-103822674D01*
X71694050Y-103794388D01*
X71821527Y-103774972D01*
X71939384Y-103763854D01*
X72052938Y-103760464D01*
X72167505Y-103764229D01*
G37*
X63044257Y-101973689D02*
X63308780Y-101973725D01*
X63431912Y-101973730D01*
X65402811Y-101973730D01*
X65402811Y-102089910D01*
X65415211Y-102231291D01*
X65452636Y-102361684D01*
X65515423Y-102481862D01*
X65603906Y-102592602D01*
X65633843Y-102622511D01*
X65741534Y-102707348D01*
X65860275Y-102769221D01*
X65986540Y-102808159D01*
X66116803Y-102824190D01*
X66247535Y-102817342D01*
X66375212Y-102787643D01*
X66496305Y-102735120D01*
X66607288Y-102659803D01*
X66657132Y-102614363D01*
X66750017Y-102502952D01*
X66818127Y-102380435D01*
X66860871Y-102248215D01*
X66877653Y-102107692D01*
X66877876Y-102093867D01*
X66878756Y-101973734D01*
X66931557Y-101973732D01*
X66978396Y-101980089D01*
X67021183Y-101995556D01*
X67024011Y-101997154D01*
X67033675Y-102002168D01*
X67042549Y-102006073D01*
X67050665Y-102010007D01*
X67058057Y-102015106D01*
X67064755Y-102022508D01*
X67070792Y-102033351D01*
X67076199Y-102048772D01*
X67081010Y-102069909D01*
X67085255Y-102097899D01*
X67088968Y-102133879D01*
X67092179Y-102178987D01*
X67094922Y-102234360D01*
X67097228Y-102301137D01*
X67099129Y-102380453D01*
X67100658Y-102473447D01*
X67101846Y-102581257D01*
X67102726Y-102705019D01*
X67103330Y-102845871D01*
X67103689Y-103004950D01*
X67103835Y-103183395D01*
X67103802Y-103382342D01*
X67103620Y-103602929D01*
X67103323Y-103846293D01*
X67102941Y-104113572D01*
X67102508Y-104405903D01*
X67102055Y-104724424D01*
X67102002Y-104763230D01*
X67101596Y-105083782D01*
X67101251Y-105378012D01*
X67100931Y-105647056D01*
X67100600Y-105892052D01*
X67100221Y-106114137D01*
X67099757Y-106314447D01*
X67099172Y-106494119D01*
X67098430Y-106654290D01*
X67097494Y-106796098D01*
X67096327Y-106920679D01*
X67094893Y-107029170D01*
X67093156Y-107122707D01*
X67091078Y-107202429D01*
X67088624Y-107269472D01*
X67085756Y-107324973D01*
X67082439Y-107370068D01*
X67078636Y-107405895D01*
X67074310Y-107433591D01*
X67069425Y-107454293D01*
X67063945Y-107469137D01*
X67057832Y-107479260D01*
X67051050Y-107485800D01*
X67043563Y-107489893D01*
X67035334Y-107492676D01*
X67026327Y-107495287D01*
X67016505Y-107498862D01*
X67014106Y-107499950D01*
X67006565Y-107502396D01*
X66993944Y-107504642D01*
X66975141Y-107506698D01*
X66949053Y-107508572D01*
X66914578Y-107510271D01*
X66870615Y-107511803D01*
X66816061Y-107513177D01*
X66749815Y-107514400D01*
X66670774Y-107515481D01*
X66577837Y-107516427D01*
X66469901Y-107517247D01*
X66345864Y-107517947D01*
X66204624Y-107518538D01*
X66045079Y-107519025D01*
X65866128Y-107519419D01*
X65666668Y-107519725D01*
X65445596Y-107519953D01*
X65201812Y-107520110D01*
X64934213Y-107520205D01*
X64641697Y-107520245D01*
X64323161Y-107520238D01*
X64219979Y-107520228D01*
X63894377Y-107520176D01*
X63595119Y-107520091D01*
X63321091Y-107519963D01*
X63071176Y-107519785D01*
X62844260Y-107519548D01*
X62639227Y-107519242D01*
X62454962Y-107518860D01*
X62290350Y-107518392D01*
X62144275Y-107517830D01*
X62015624Y-107517165D01*
X61903279Y-107516388D01*
X61806126Y-107515491D01*
X61723050Y-107514465D01*
X61652936Y-107513301D01*
X61594668Y-107511991D01*
X61547131Y-107510525D01*
X61509210Y-107508896D01*
X61479790Y-107507093D01*
X61457755Y-107505110D01*
X61441990Y-107502936D01*
X61431380Y-107500563D01*
X61425596Y-107498391D01*
X61415316Y-107494056D01*
X61405878Y-107490859D01*
X61397245Y-107487665D01*
X61389381Y-107483338D01*
X61382252Y-107476744D01*
X61375821Y-107466747D01*
X61370053Y-107452212D01*
X61364911Y-107432003D01*
X61360360Y-107404985D01*
X61356365Y-107370023D01*
X61352889Y-107325981D01*
X61349898Y-107271724D01*
X61347354Y-107206117D01*
X61345223Y-107128024D01*
X61343468Y-107036310D01*
X61342055Y-106929840D01*
X61341685Y-106888973D01*
X61708116Y-106888973D01*
X63003266Y-106888973D01*
X62978345Y-106851217D01*
X62953553Y-106812417D01*
X62932560Y-106775469D01*
X62915065Y-106737788D01*
X62900770Y-106696788D01*
X62889377Y-106649883D01*
X62880587Y-106594487D01*
X62874102Y-106528016D01*
X62869623Y-106447883D01*
X62866850Y-106351502D01*
X62865487Y-106236289D01*
X62865233Y-106099657D01*
X62865791Y-105939020D01*
X62866107Y-105879382D01*
X62869675Y-105240041D01*
X63274702Y-105791449D01*
X63389446Y-105947876D01*
X63488857Y-106084088D01*
X63574010Y-106201890D01*
X63645978Y-106303084D01*
X63705834Y-106389477D01*
X63754652Y-106462874D01*
X63793505Y-106525077D01*
X63823466Y-106577893D01*
X63845609Y-106623125D01*
X63861007Y-106662578D01*
X63870734Y-106698058D01*
X63875863Y-106731368D01*
X63877468Y-106764313D01*
X63876621Y-106798697D01*
X63876405Y-106803019D01*
X63871946Y-106889031D01*
X65291308Y-106888973D01*
X65540627Y-106888973D01*
X66146604Y-106888973D01*
X66291266Y-106888931D01*
X66410756Y-106888741D01*
X66507358Y-106888308D01*
X66583358Y-106887536D01*
X66641043Y-106886330D01*
X66682699Y-106884594D01*
X66710611Y-106882232D01*
X66727065Y-106879150D01*
X66734348Y-106875251D01*
X66734745Y-106870440D01*
X66730542Y-106864622D01*
X66730499Y-106864574D01*
X66713187Y-106839532D01*
X66690264Y-106798815D01*
X66670019Y-106758168D01*
X66631621Y-106676162D01*
X66623789Y-103827244D01*
X65540627Y-103827244D01*
X65591854Y-103919919D01*
X65643081Y-104012595D01*
X65643081Y-106703622D01*
X65591854Y-106796298D01*
X65540627Y-106888973D01*
X65291308Y-106888973D01*
X65185735Y-106782522D01*
X65157087Y-106753406D01*
X65129910Y-106725076D01*
X65103011Y-106695968D01*
X65075197Y-106664520D01*
X65045275Y-106629169D01*
X65012054Y-106588354D01*
X64974339Y-106540511D01*
X64930940Y-106484079D01*
X64880662Y-106417494D01*
X64822312Y-106339195D01*
X64754700Y-106247619D01*
X64676631Y-106141204D01*
X64586912Y-106018387D01*
X64484352Y-105877605D01*
X64367758Y-105717297D01*
X64272191Y-105585798D01*
X64152251Y-105420596D01*
X64047620Y-105276152D01*
X63957352Y-105151094D01*
X63880497Y-105044052D01*
X63816109Y-104953654D01*
X63763239Y-104878529D01*
X63720940Y-104817304D01*
X63688264Y-104768610D01*
X63664262Y-104731074D01*
X63647987Y-104703325D01*
X63638492Y-104683992D01*
X63634827Y-104671703D01*
X63635929Y-104665242D01*
X63649276Y-104648048D01*
X63678134Y-104611655D01*
X63720760Y-104558224D01*
X63775415Y-104489919D01*
X63840356Y-104408903D01*
X63913842Y-104317340D01*
X63994132Y-104217392D01*
X64079485Y-104111224D01*
X64168160Y-104000997D01*
X64258414Y-103888876D01*
X64308056Y-103827244D01*
X64348507Y-103777024D01*
X64436698Y-103667604D01*
X64521246Y-103562778D01*
X64600408Y-103464711D01*
X64672444Y-103375566D01*
X64735613Y-103297505D01*
X64788173Y-103232692D01*
X64828383Y-103183290D01*
X64852000Y-103154487D01*
X64943710Y-103046778D01*
X65031940Y-102949580D01*
X65113597Y-102866076D01*
X65185590Y-102799448D01*
X65236681Y-102758599D01*
X65297093Y-102715135D01*
X63907702Y-102715135D01*
X63908092Y-102796666D01*
X63904209Y-102856606D01*
X63889610Y-102912177D01*
X63867012Y-102964855D01*
X63852322Y-102994615D01*
X63836528Y-103024103D01*
X63818186Y-103055276D01*
X63795855Y-103090093D01*
X63768091Y-103130510D01*
X63733451Y-103178486D01*
X63690493Y-103235978D01*
X63637773Y-103304943D01*
X63573849Y-103387339D01*
X63497279Y-103485124D01*
X63406619Y-103600255D01*
X63300426Y-103734690D01*
X63288432Y-103749859D01*
X62869675Y-104279412D01*
X62865622Y-103692922D01*
X62864805Y-103517251D01*
X62864979Y-103368532D01*
X62866151Y-103246275D01*
X62868331Y-103149989D01*
X62871526Y-103079183D01*
X62875744Y-103033369D01*
X62877162Y-103024679D01*
X62899409Y-102933135D01*
X62928557Y-102850608D01*
X62961818Y-102784253D01*
X62981800Y-102756110D01*
X63016278Y-102715135D01*
X62362086Y-102715135D01*
X62206031Y-102715269D01*
X62075533Y-102715703D01*
X61968690Y-102716489D01*
X61883602Y-102717676D01*
X61818365Y-102719317D01*
X61771079Y-102721461D01*
X61739843Y-102724159D01*
X61722754Y-102727462D01*
X61717912Y-102731421D01*
X61718247Y-102732298D01*
X61732115Y-102753231D01*
X61755268Y-102786412D01*
X61767246Y-102803193D01*
X61779631Y-102819940D01*
X61790763Y-102834915D01*
X61800712Y-102849594D01*
X61809549Y-102865449D01*
X61817343Y-102883955D01*
X61824165Y-102906585D01*
X61830084Y-102934813D01*
X61835171Y-102970113D01*
X61839496Y-103013958D01*
X61843129Y-103067822D01*
X61846140Y-103133180D01*
X61848599Y-103211504D01*
X61850577Y-103304268D01*
X61852142Y-103412947D01*
X61853366Y-103539013D01*
X61854319Y-103683942D01*
X61855070Y-103849206D01*
X61855689Y-104036279D01*
X61856248Y-104246635D01*
X61856815Y-104481748D01*
X61857345Y-104697741D01*
X61857845Y-104938535D01*
X61858105Y-105168274D01*
X61858132Y-105385493D01*
X61857933Y-105588722D01*
X61857514Y-105776496D01*
X61856882Y-105947345D01*
X61856044Y-106099803D01*
X61855008Y-106232403D01*
X61853780Y-106343676D01*
X61852367Y-106432156D01*
X61850775Y-106496375D01*
X61849013Y-106534865D01*
X61848679Y-106538933D01*
X61836534Y-106632248D01*
X61817573Y-106707190D01*
X61788698Y-106772594D01*
X61746810Y-106837293D01*
X61741571Y-106844352D01*
X61708116Y-106888973D01*
X61341685Y-106888973D01*
X61340946Y-106807479D01*
X61340107Y-106668090D01*
X61339502Y-106510539D01*
X61339095Y-106333691D01*
X61338850Y-106136410D01*
X61338733Y-105917560D01*
X61338705Y-105676007D01*
X61338733Y-105410615D01*
X61338780Y-105120249D01*
X61338810Y-104803773D01*
X61338811Y-104740946D01*
X61338828Y-104421137D01*
X61338888Y-104127661D01*
X61338998Y-103859390D01*
X61339167Y-103615198D01*
X61339403Y-103393957D01*
X61339716Y-103194540D01*
X61340115Y-103015820D01*
X61340607Y-102856671D01*
X61341203Y-102715966D01*
X61341910Y-102592576D01*
X61342737Y-102485376D01*
X61343693Y-102393238D01*
X61344787Y-102315035D01*
X61346027Y-102249641D01*
X61347422Y-102195928D01*
X61348982Y-102152769D01*
X61350714Y-102119037D01*
X61352628Y-102093605D01*
X61354732Y-102075347D01*
X61357034Y-102063134D01*
X61359545Y-102055841D01*
X61359637Y-102055659D01*
X61364808Y-102044518D01*
X61369115Y-102034431D01*
X61373879Y-102025346D01*
X61380422Y-102017212D01*
X61390065Y-102009976D01*
X61404129Y-102003586D01*
X61423937Y-101997989D01*
X61450809Y-101993133D01*
X61486067Y-101988966D01*
X61531032Y-101985436D01*
X61587026Y-101982491D01*
X61655371Y-101980077D01*
X61737386Y-101978144D01*
X61834395Y-101976638D01*
X61947718Y-101975508D01*
X62078677Y-101974702D01*
X62228593Y-101974166D01*
X62398787Y-101973849D01*
X62590582Y-101973699D01*
X62805298Y-101973663D01*
X63044257Y-101973689D01*
G36*
X63044257Y-101973689D02*
G01*
X63308780Y-101973725D01*
X63431912Y-101973730D01*
X65402811Y-101973730D01*
X65402811Y-102089910D01*
X65415211Y-102231291D01*
X65452636Y-102361684D01*
X65515423Y-102481862D01*
X65603906Y-102592602D01*
X65633843Y-102622511D01*
X65741534Y-102707348D01*
X65860275Y-102769221D01*
X65986540Y-102808159D01*
X66116803Y-102824190D01*
X66247535Y-102817342D01*
X66375212Y-102787643D01*
X66496305Y-102735120D01*
X66607288Y-102659803D01*
X66657132Y-102614363D01*
X66750017Y-102502952D01*
X66818127Y-102380435D01*
X66860871Y-102248215D01*
X66877653Y-102107692D01*
X66877876Y-102093867D01*
X66878756Y-101973734D01*
X66931557Y-101973732D01*
X66978396Y-101980089D01*
X67021183Y-101995556D01*
X67024011Y-101997154D01*
X67033675Y-102002168D01*
X67042549Y-102006073D01*
X67050665Y-102010007D01*
X67058057Y-102015106D01*
X67064755Y-102022508D01*
X67070792Y-102033351D01*
X67076199Y-102048772D01*
X67081010Y-102069909D01*
X67085255Y-102097899D01*
X67088968Y-102133879D01*
X67092179Y-102178987D01*
X67094922Y-102234360D01*
X67097228Y-102301137D01*
X67099129Y-102380453D01*
X67100658Y-102473447D01*
X67101846Y-102581257D01*
X67102726Y-102705019D01*
X67103330Y-102845871D01*
X67103689Y-103004950D01*
X67103835Y-103183395D01*
X67103802Y-103382342D01*
X67103620Y-103602929D01*
X67103323Y-103846293D01*
X67102941Y-104113572D01*
X67102508Y-104405903D01*
X67102055Y-104724424D01*
X67102002Y-104763230D01*
X67101596Y-105083782D01*
X67101251Y-105378012D01*
X67100931Y-105647056D01*
X67100600Y-105892052D01*
X67100221Y-106114137D01*
X67099757Y-106314447D01*
X67099172Y-106494119D01*
X67098430Y-106654290D01*
X67097494Y-106796098D01*
X67096327Y-106920679D01*
X67094893Y-107029170D01*
X67093156Y-107122707D01*
X67091078Y-107202429D01*
X67088624Y-107269472D01*
X67085756Y-107324973D01*
X67082439Y-107370068D01*
X67078636Y-107405895D01*
X67074310Y-107433591D01*
X67069425Y-107454293D01*
X67063945Y-107469137D01*
X67057832Y-107479260D01*
X67051050Y-107485800D01*
X67043563Y-107489893D01*
X67035334Y-107492676D01*
X67026327Y-107495287D01*
X67016505Y-107498862D01*
X67014106Y-107499950D01*
X67006565Y-107502396D01*
X66993944Y-107504642D01*
X66975141Y-107506698D01*
X66949053Y-107508572D01*
X66914578Y-107510271D01*
X66870615Y-107511803D01*
X66816061Y-107513177D01*
X66749815Y-107514400D01*
X66670774Y-107515481D01*
X66577837Y-107516427D01*
X66469901Y-107517247D01*
X66345864Y-107517947D01*
X66204624Y-107518538D01*
X66045079Y-107519025D01*
X65866128Y-107519419D01*
X65666668Y-107519725D01*
X65445596Y-107519953D01*
X65201812Y-107520110D01*
X64934213Y-107520205D01*
X64641697Y-107520245D01*
X64323161Y-107520238D01*
X64219979Y-107520228D01*
X63894377Y-107520176D01*
X63595119Y-107520091D01*
X63321091Y-107519963D01*
X63071176Y-107519785D01*
X62844260Y-107519548D01*
X62639227Y-107519242D01*
X62454962Y-107518860D01*
X62290350Y-107518392D01*
X62144275Y-107517830D01*
X62015624Y-107517165D01*
X61903279Y-107516388D01*
X61806126Y-107515491D01*
X61723050Y-107514465D01*
X61652936Y-107513301D01*
X61594668Y-107511991D01*
X61547131Y-107510525D01*
X61509210Y-107508896D01*
X61479790Y-107507093D01*
X61457755Y-107505110D01*
X61441990Y-107502936D01*
X61431380Y-107500563D01*
X61425596Y-107498391D01*
X61415316Y-107494056D01*
X61405878Y-107490859D01*
X61397245Y-107487665D01*
X61389381Y-107483338D01*
X61382252Y-107476744D01*
X61375821Y-107466747D01*
X61370053Y-107452212D01*
X61364911Y-107432003D01*
X61360360Y-107404985D01*
X61356365Y-107370023D01*
X61352889Y-107325981D01*
X61349898Y-107271724D01*
X61347354Y-107206117D01*
X61345223Y-107128024D01*
X61343468Y-107036310D01*
X61342055Y-106929840D01*
X61341685Y-106888973D01*
X61708116Y-106888973D01*
X63003266Y-106888973D01*
X62978345Y-106851217D01*
X62953553Y-106812417D01*
X62932560Y-106775469D01*
X62915065Y-106737788D01*
X62900770Y-106696788D01*
X62889377Y-106649883D01*
X62880587Y-106594487D01*
X62874102Y-106528016D01*
X62869623Y-106447883D01*
X62866850Y-106351502D01*
X62865487Y-106236289D01*
X62865233Y-106099657D01*
X62865791Y-105939020D01*
X62866107Y-105879382D01*
X62869675Y-105240041D01*
X63274702Y-105791449D01*
X63389446Y-105947876D01*
X63488857Y-106084088D01*
X63574010Y-106201890D01*
X63645978Y-106303084D01*
X63705834Y-106389477D01*
X63754652Y-106462874D01*
X63793505Y-106525077D01*
X63823466Y-106577893D01*
X63845609Y-106623125D01*
X63861007Y-106662578D01*
X63870734Y-106698058D01*
X63875863Y-106731368D01*
X63877468Y-106764313D01*
X63876621Y-106798697D01*
X63876405Y-106803019D01*
X63871946Y-106889031D01*
X65291308Y-106888973D01*
X65540627Y-106888973D01*
X66146604Y-106888973D01*
X66291266Y-106888931D01*
X66410756Y-106888741D01*
X66507358Y-106888308D01*
X66583358Y-106887536D01*
X66641043Y-106886330D01*
X66682699Y-106884594D01*
X66710611Y-106882232D01*
X66727065Y-106879150D01*
X66734348Y-106875251D01*
X66734745Y-106870440D01*
X66730542Y-106864622D01*
X66730499Y-106864574D01*
X66713187Y-106839532D01*
X66690264Y-106798815D01*
X66670019Y-106758168D01*
X66631621Y-106676162D01*
X66623789Y-103827244D01*
X65540627Y-103827244D01*
X65591854Y-103919919D01*
X65643081Y-104012595D01*
X65643081Y-106703622D01*
X65591854Y-106796298D01*
X65540627Y-106888973D01*
X65291308Y-106888973D01*
X65185735Y-106782522D01*
X65157087Y-106753406D01*
X65129910Y-106725076D01*
X65103011Y-106695968D01*
X65075197Y-106664520D01*
X65045275Y-106629169D01*
X65012054Y-106588354D01*
X64974339Y-106540511D01*
X64930940Y-106484079D01*
X64880662Y-106417494D01*
X64822312Y-106339195D01*
X64754700Y-106247619D01*
X64676631Y-106141204D01*
X64586912Y-106018387D01*
X64484352Y-105877605D01*
X64367758Y-105717297D01*
X64272191Y-105585798D01*
X64152251Y-105420596D01*
X64047620Y-105276152D01*
X63957352Y-105151094D01*
X63880497Y-105044052D01*
X63816109Y-104953654D01*
X63763239Y-104878529D01*
X63720940Y-104817304D01*
X63688264Y-104768610D01*
X63664262Y-104731074D01*
X63647987Y-104703325D01*
X63638492Y-104683992D01*
X63634827Y-104671703D01*
X63635929Y-104665242D01*
X63649276Y-104648048D01*
X63678134Y-104611655D01*
X63720760Y-104558224D01*
X63775415Y-104489919D01*
X63840356Y-104408903D01*
X63913842Y-104317340D01*
X63994132Y-104217392D01*
X64079485Y-104111224D01*
X64168160Y-104000997D01*
X64258414Y-103888876D01*
X64308056Y-103827244D01*
X64348507Y-103777024D01*
X64436698Y-103667604D01*
X64521246Y-103562778D01*
X64600408Y-103464711D01*
X64672444Y-103375566D01*
X64735613Y-103297505D01*
X64788173Y-103232692D01*
X64828383Y-103183290D01*
X64852000Y-103154487D01*
X64943710Y-103046778D01*
X65031940Y-102949580D01*
X65113597Y-102866076D01*
X65185590Y-102799448D01*
X65236681Y-102758599D01*
X65297093Y-102715135D01*
X63907702Y-102715135D01*
X63908092Y-102796666D01*
X63904209Y-102856606D01*
X63889610Y-102912177D01*
X63867012Y-102964855D01*
X63852322Y-102994615D01*
X63836528Y-103024103D01*
X63818186Y-103055276D01*
X63795855Y-103090093D01*
X63768091Y-103130510D01*
X63733451Y-103178486D01*
X63690493Y-103235978D01*
X63637773Y-103304943D01*
X63573849Y-103387339D01*
X63497279Y-103485124D01*
X63406619Y-103600255D01*
X63300426Y-103734690D01*
X63288432Y-103749859D01*
X62869675Y-104279412D01*
X62865622Y-103692922D01*
X62864805Y-103517251D01*
X62864979Y-103368532D01*
X62866151Y-103246275D01*
X62868331Y-103149989D01*
X62871526Y-103079183D01*
X62875744Y-103033369D01*
X62877162Y-103024679D01*
X62899409Y-102933135D01*
X62928557Y-102850608D01*
X62961818Y-102784253D01*
X62981800Y-102756110D01*
X63016278Y-102715135D01*
X62362086Y-102715135D01*
X62206031Y-102715269D01*
X62075533Y-102715703D01*
X61968690Y-102716489D01*
X61883602Y-102717676D01*
X61818365Y-102719317D01*
X61771079Y-102721461D01*
X61739843Y-102724159D01*
X61722754Y-102727462D01*
X61717912Y-102731421D01*
X61718247Y-102732298D01*
X61732115Y-102753231D01*
X61755268Y-102786412D01*
X61767246Y-102803193D01*
X61779631Y-102819940D01*
X61790763Y-102834915D01*
X61800712Y-102849594D01*
X61809549Y-102865449D01*
X61817343Y-102883955D01*
X61824165Y-102906585D01*
X61830084Y-102934813D01*
X61835171Y-102970113D01*
X61839496Y-103013958D01*
X61843129Y-103067822D01*
X61846140Y-103133180D01*
X61848599Y-103211504D01*
X61850577Y-103304268D01*
X61852142Y-103412947D01*
X61853366Y-103539013D01*
X61854319Y-103683942D01*
X61855070Y-103849206D01*
X61855689Y-104036279D01*
X61856248Y-104246635D01*
X61856815Y-104481748D01*
X61857345Y-104697741D01*
X61857845Y-104938535D01*
X61858105Y-105168274D01*
X61858132Y-105385493D01*
X61857933Y-105588722D01*
X61857514Y-105776496D01*
X61856882Y-105947345D01*
X61856044Y-106099803D01*
X61855008Y-106232403D01*
X61853780Y-106343676D01*
X61852367Y-106432156D01*
X61850775Y-106496375D01*
X61849013Y-106534865D01*
X61848679Y-106538933D01*
X61836534Y-106632248D01*
X61817573Y-106707190D01*
X61788698Y-106772594D01*
X61746810Y-106837293D01*
X61741571Y-106844352D01*
X61708116Y-106888973D01*
X61341685Y-106888973D01*
X61340946Y-106807479D01*
X61340107Y-106668090D01*
X61339502Y-106510539D01*
X61339095Y-106333691D01*
X61338850Y-106136410D01*
X61338733Y-105917560D01*
X61338705Y-105676007D01*
X61338733Y-105410615D01*
X61338780Y-105120249D01*
X61338810Y-104803773D01*
X61338811Y-104740946D01*
X61338828Y-104421137D01*
X61338888Y-104127661D01*
X61338998Y-103859390D01*
X61339167Y-103615198D01*
X61339403Y-103393957D01*
X61339716Y-103194540D01*
X61340115Y-103015820D01*
X61340607Y-102856671D01*
X61341203Y-102715966D01*
X61341910Y-102592576D01*
X61342737Y-102485376D01*
X61343693Y-102393238D01*
X61344787Y-102315035D01*
X61346027Y-102249641D01*
X61347422Y-102195928D01*
X61348982Y-102152769D01*
X61350714Y-102119037D01*
X61352628Y-102093605D01*
X61354732Y-102075347D01*
X61357034Y-102063134D01*
X61359545Y-102055841D01*
X61359637Y-102055659D01*
X61364808Y-102044518D01*
X61369115Y-102034431D01*
X61373879Y-102025346D01*
X61380422Y-102017212D01*
X61390065Y-102009976D01*
X61404129Y-102003586D01*
X61423937Y-101997989D01*
X61450809Y-101993133D01*
X61486067Y-101988966D01*
X61531032Y-101985436D01*
X61587026Y-101982491D01*
X61655371Y-101980077D01*
X61737386Y-101978144D01*
X61834395Y-101976638D01*
X61947718Y-101975508D01*
X62078677Y-101974702D01*
X62228593Y-101974166D01*
X62398787Y-101973849D01*
X62590582Y-101973699D01*
X62805298Y-101973663D01*
X63044257Y-101973689D01*
G37*
D13*
%TO.C,G\u002A\u002A\u002A*%
G36*
X134218249Y-107226901D02*
G01*
X134131154Y-107375266D01*
X133974892Y-107591857D01*
X133843692Y-107757538D01*
X133630860Y-108008843D01*
X133449419Y-108206266D01*
X133324595Y-108323212D01*
X133287711Y-108343692D01*
X133251911Y-108293128D01*
X133273193Y-108242035D01*
X133405264Y-108052076D01*
X133585744Y-107823622D01*
X133786000Y-107589033D01*
X133977402Y-107380669D01*
X134131318Y-107230888D01*
X134219115Y-107172051D01*
X134219943Y-107172024D01*
X134218249Y-107226901D01*
G37*
G36*
X137405084Y-108672122D02*
G01*
X137489200Y-108702075D01*
X137507070Y-108760106D01*
X137502923Y-108789674D01*
X137465987Y-108862420D01*
X137367894Y-108908455D01*
X137176824Y-108935915D01*
X136864920Y-108952787D01*
X136558575Y-108960986D01*
X136378300Y-108953109D01*
X136294184Y-108923155D01*
X136276314Y-108865125D01*
X136280461Y-108835556D01*
X136317397Y-108762811D01*
X136415490Y-108716775D01*
X136606560Y-108689315D01*
X136918464Y-108672444D01*
X137224809Y-108664244D01*
X137405084Y-108672122D01*
G37*
G36*
X132792241Y-109135588D02*
G01*
X132940934Y-109170478D01*
X132984000Y-109234100D01*
X132912716Y-109357023D01*
X132714740Y-109426487D01*
X132553197Y-109437846D01*
X132397470Y-109487135D01*
X132344666Y-109613692D01*
X132272260Y-109748207D01*
X132137825Y-109820565D01*
X131996161Y-109822467D01*
X131902068Y-109745611D01*
X131889846Y-109682587D01*
X131917734Y-109488524D01*
X131966065Y-109325703D01*
X132022266Y-109213805D01*
X132110851Y-109153633D01*
X132274931Y-109129390D01*
X132513142Y-109125231D01*
X132792241Y-109135588D01*
G37*
G36*
X133023401Y-108660406D02*
G01*
X133196175Y-108677628D01*
X133273004Y-108715368D01*
X133284016Y-108781016D01*
X133281978Y-108793077D01*
X133240399Y-108867965D01*
X133129070Y-108914325D01*
X132915349Y-108941195D01*
X132706218Y-108952483D01*
X132427013Y-108957108D01*
X132212992Y-108947852D01*
X132108389Y-108926720D01*
X132106739Y-108925304D01*
X132085729Y-108818152D01*
X132098977Y-108765898D01*
X132172087Y-108704566D01*
X132348961Y-108669514D01*
X132653231Y-108656600D01*
X132724553Y-108656308D01*
X133023401Y-108660406D01*
G37*
G36*
X134268098Y-108660310D02*
G01*
X134443302Y-108677145D01*
X134522231Y-108714057D01*
X134534852Y-108778290D01*
X134532440Y-108793077D01*
X134491777Y-108866983D01*
X134382867Y-108913107D01*
X134173406Y-108940168D01*
X133940555Y-108952808D01*
X133648097Y-108961277D01*
X133478521Y-108951726D01*
X133398725Y-108916154D01*
X133375604Y-108846558D01*
X133374769Y-108816039D01*
X133387698Y-108734761D01*
X133448050Y-108686923D01*
X133588169Y-108663795D01*
X133840400Y-108656649D01*
X133966653Y-108656308D01*
X134268098Y-108660310D01*
G37*
G36*
X134039523Y-109131227D02*
G01*
X134176636Y-109155948D01*
X134222826Y-109209494D01*
X134220013Y-109262000D01*
X134121609Y-109378372D01*
X133940995Y-109423241D01*
X133744752Y-109474787D01*
X133650679Y-109601693D01*
X133640086Y-109638164D01*
X133563045Y-109782279D01*
X133400209Y-109827997D01*
X133366296Y-109828615D01*
X133193841Y-109796065D01*
X133140307Y-109723047D01*
X133164820Y-109579032D01*
X133224004Y-109377419D01*
X133226107Y-109371355D01*
X133282394Y-109234556D01*
X133358613Y-109160999D01*
X133498767Y-109131092D01*
X133746856Y-109125246D01*
X133778914Y-109125231D01*
X134039523Y-109131227D01*
G37*
G36*
X134417007Y-107758785D02*
G01*
X134530577Y-107872699D01*
X134547077Y-107955702D01*
X134486323Y-108144695D01*
X134336453Y-108278000D01*
X134146054Y-108338623D01*
X133963713Y-108309568D01*
X133850159Y-108199468D01*
X133825106Y-108050630D01*
X134018883Y-108050630D01*
X134041626Y-108113356D01*
X134141804Y-108170996D01*
X134249106Y-108112579D01*
X134298807Y-108005062D01*
X134266211Y-107893770D01*
X134205727Y-107874769D01*
X134063689Y-107928425D01*
X134018883Y-108050630D01*
X133825106Y-108050630D01*
X133821496Y-108029182D01*
X133890917Y-107886852D01*
X134046157Y-107760508D01*
X134238527Y-107719603D01*
X134417007Y-107758785D01*
G37*
G36*
X129834010Y-107199651D02*
G01*
X129847765Y-107295306D01*
X129837851Y-107498922D01*
X129810393Y-107736136D01*
X129767063Y-108004259D01*
X129719849Y-108154423D01*
X129647939Y-108224057D01*
X129530520Y-108250591D01*
X129523911Y-108251363D01*
X129388178Y-108258238D01*
X129334989Y-108209642D01*
X129341594Y-108065377D01*
X129358053Y-107958286D01*
X129382060Y-107756262D01*
X129357062Y-107664512D01*
X129267674Y-107640661D01*
X129242604Y-107640308D01*
X129110237Y-107612088D01*
X129076307Y-107569126D01*
X129140174Y-107496502D01*
X129297368Y-107397357D01*
X129496275Y-107296860D01*
X129685286Y-107220178D01*
X129812787Y-107192476D01*
X129834010Y-107199651D01*
G37*
G36*
X133540130Y-107211760D02*
G01*
X133655895Y-107331247D01*
X133675268Y-107401467D01*
X133639278Y-107604677D01*
X133492853Y-107740581D01*
X133275396Y-107786387D01*
X133081692Y-107744855D01*
X133005742Y-107644816D01*
X132984000Y-107519314D01*
X133012034Y-107433591D01*
X133171432Y-107433591D01*
X133172455Y-107550757D01*
X133175176Y-107555344D01*
X133283681Y-107635695D01*
X133417282Y-107562815D01*
X133452155Y-107524002D01*
X133504255Y-107421145D01*
X133419784Y-107358238D01*
X133417395Y-107357316D01*
X133270939Y-107354509D01*
X133171432Y-107433591D01*
X133012034Y-107433591D01*
X133042405Y-107340725D01*
X133186091Y-107224562D01*
X133367763Y-107178886D01*
X133540130Y-107211760D01*
G37*
G36*
X130900420Y-107186023D02*
G01*
X131169071Y-107293047D01*
X131311102Y-107477511D01*
X131333119Y-107719650D01*
X131235378Y-107977305D01*
X131164344Y-108073484D01*
X130935969Y-108238737D01*
X130640478Y-108323525D01*
X130339870Y-108318783D01*
X130111846Y-108227380D01*
X129979757Y-108046365D01*
X129946193Y-107856479D01*
X130338380Y-107856479D01*
X130417651Y-107979369D01*
X130597392Y-108031067D01*
X130600373Y-108031077D01*
X130789020Y-107971937D01*
X130866095Y-107855231D01*
X130903334Y-107638125D01*
X130823126Y-107517884D01*
X130656822Y-107499311D01*
X130462622Y-107572585D01*
X130354922Y-107706263D01*
X130338380Y-107856479D01*
X129946193Y-107856479D01*
X129936248Y-107800214D01*
X129988188Y-107557042D01*
X130036178Y-107477227D01*
X130272131Y-107284554D01*
X130579453Y-107184358D01*
X130900420Y-107186023D01*
G37*
G36*
X132595555Y-107268616D02*
G01*
X132761554Y-107434756D01*
X132825996Y-107658960D01*
X132763791Y-107924515D01*
X132747221Y-107957252D01*
X132557698Y-108161430D01*
X132280317Y-108290452D01*
X131970520Y-108331580D01*
X131683754Y-108272078D01*
X131594620Y-108222030D01*
X131445009Y-108033993D01*
X131408932Y-107793646D01*
X131426083Y-107733622D01*
X131829899Y-107733622D01*
X131837887Y-107908457D01*
X131948342Y-108009610D01*
X132104325Y-108016772D01*
X132257780Y-107972691D01*
X132326491Y-107854459D01*
X132344608Y-107732290D01*
X132349961Y-107557378D01*
X132296141Y-107493863D01*
X132157106Y-107497828D01*
X131943798Y-107578197D01*
X131829899Y-107733622D01*
X131426083Y-107733622D01*
X131479149Y-107547904D01*
X131648420Y-107343682D01*
X131739128Y-107285725D01*
X132059251Y-107177386D01*
X132353090Y-107177255D01*
X132595555Y-107268616D01*
G37*
G36*
X136996008Y-109052734D02*
G01*
X137138117Y-109077602D01*
X137195460Y-109133528D01*
X137204307Y-109203385D01*
X137178092Y-109305647D01*
X137072133Y-109350843D01*
X136891692Y-109359692D01*
X136695931Y-109377026D01*
X136587048Y-109420327D01*
X136579077Y-109437846D01*
X136649290Y-109482788D01*
X136828485Y-109511044D01*
X136962529Y-109516000D01*
X137189814Y-109522590D01*
X137295823Y-109552957D01*
X137315387Y-109622992D01*
X137305106Y-109672308D01*
X137268840Y-109750736D01*
X137188297Y-109797614D01*
X137029890Y-109820831D01*
X136760034Y-109828275D01*
X136639643Y-109828615D01*
X136330218Y-109826966D01*
X136147643Y-109815478D01*
X136062459Y-109784343D01*
X136045208Y-109723751D01*
X136063228Y-109636677D01*
X136144591Y-109340131D01*
X136228151Y-109164553D01*
X136349881Y-109078297D01*
X136545755Y-109049717D01*
X136733450Y-109047077D01*
X136996008Y-109052734D01*
G37*
G36*
X131513902Y-108661095D02*
G01*
X131751800Y-108785241D01*
X131866628Y-108979978D01*
X131857006Y-109217796D01*
X131721554Y-109471184D01*
X131562704Y-109633461D01*
X131367766Y-109761492D01*
X131141989Y-109817853D01*
X130926465Y-109826239D01*
X130665804Y-109809918D01*
X130454679Y-109771027D01*
X130385384Y-109744201D01*
X130275485Y-109598989D01*
X130249672Y-109376665D01*
X130253585Y-109359361D01*
X130729141Y-109359361D01*
X130756183Y-109437147D01*
X130875803Y-109504493D01*
X131057350Y-109506257D01*
X131221997Y-109444828D01*
X131248984Y-109422215D01*
X131327322Y-109268738D01*
X131333976Y-109086399D01*
X131271441Y-108947301D01*
X131231645Y-108921375D01*
X131056884Y-108923405D01*
X130887945Y-109026297D01*
X130765229Y-109186226D01*
X130729141Y-109359361D01*
X130253585Y-109359361D01*
X130305402Y-109130225D01*
X130424461Y-108930113D01*
X130681298Y-108740634D01*
X131021078Y-108637913D01*
X131388595Y-108635581D01*
X131513902Y-108661095D01*
G37*
G36*
X136007256Y-108658372D02*
G01*
X136075192Y-108684749D01*
X136091121Y-108765717D01*
X136058902Y-108931552D01*
X135982394Y-109212533D01*
X135963140Y-109281538D01*
X135882352Y-109552972D01*
X135813056Y-109708033D01*
X135729500Y-109782154D01*
X135605928Y-109810770D01*
X135576176Y-109813950D01*
X135404937Y-109810644D01*
X135294368Y-109731496D01*
X135197968Y-109559950D01*
X135084488Y-109354245D01*
X135003487Y-109298120D01*
X134942751Y-109391373D01*
X134903925Y-109555077D01*
X134851726Y-109740391D01*
X134758965Y-109815975D01*
X134620200Y-109828615D01*
X134460277Y-109814494D01*
X134417810Y-109741388D01*
X134441586Y-109613692D01*
X134537977Y-109228409D01*
X134607691Y-108968686D01*
X134664359Y-108809066D01*
X134721614Y-108724088D01*
X134793090Y-108688293D01*
X134892419Y-108676222D01*
X134945782Y-108672098D01*
X135127136Y-108672434D01*
X135241167Y-108738348D01*
X135344892Y-108907126D01*
X135364080Y-108945636D01*
X135510224Y-109242461D01*
X135583491Y-108949385D01*
X135648450Y-108755307D01*
X135741280Y-108672395D01*
X135883456Y-108656308D01*
X136007256Y-108658372D01*
G37*
G36*
X138331631Y-108672906D02*
G01*
X138646168Y-108687674D01*
X138837018Y-108710656D01*
X138936796Y-108751244D01*
X138978119Y-108818831D01*
X138986466Y-108861489D01*
X138954205Y-109050897D01*
X138892496Y-109145262D01*
X138815791Y-109255915D01*
X138817620Y-109305723D01*
X138832432Y-109404124D01*
X138808998Y-109582530D01*
X138807689Y-109588565D01*
X138745052Y-109759825D01*
X138625088Y-109822764D01*
X138521800Y-109828615D01*
X138358504Y-109810017D01*
X138308121Y-109731033D01*
X138313087Y-109652769D01*
X138283556Y-109501432D01*
X138174720Y-109439590D01*
X138037572Y-109470398D01*
X137923106Y-109597011D01*
X137909752Y-109627811D01*
X137808744Y-109759837D01*
X137662332Y-109829910D01*
X137523011Y-109828847D01*
X137443273Y-109747464D01*
X137438769Y-109710205D01*
X137458823Y-109575274D01*
X137510893Y-109345057D01*
X137569631Y-109121110D01*
X137590214Y-109047077D01*
X138064000Y-109047077D01*
X138130882Y-109105827D01*
X138259384Y-109125231D01*
X138406260Y-109098478D01*
X138454769Y-109047077D01*
X138387886Y-108988327D01*
X138259384Y-108968923D01*
X138112509Y-108995676D01*
X138064000Y-109047077D01*
X137590214Y-109047077D01*
X137700492Y-108650427D01*
X138331631Y-108672906D01*
G37*
%TD*%
M02*
